ply
format ascii 1.0
comment coordinate_system ground
comment units millimeter
element vertex 1185
property double x
property double y
property double z
property uchar red
property uchar green
property uchar blue
comment color_mapping zg_high_contrast_from_zg
comment color_zg_range_mm -0.410362260 50.267527756
end_header
6.218964131 134.895988690 0.100131113 0 230 249
6.220370017 134.800158005 0.091338189 0 230 249
6.225769906 134.706529672 0.071542197 0 230 249
6.224448353 134.609188965 0.070265403 0 230 249
6.219829221 134.510030703 0.078074870 0 230 249
6.215784657 134.411191413 0.084302360 0 230 249
6.210103884 134.311453592 0.095038924 0 230 249
6.203458731 134.211188638 0.108433623 0 230 249
6.198660798 134.111943062 0.116739964 0 230 249
6.198808875 134.015416841 0.111420025 0 230 249
6.199530493 133.919204313 0.104520755 0 230 249
6.196974832 133.821192595 0.106652097 0 230 249
6.192670964 133.722223561 0.113601203 0 230 249
6.190304807 133.624318182 0.115212417 0 230 249
6.193438570 133.529424104 0.101670727 0 230 249
6.198691177 133.435685629 0.082291792 0 230 249
6.200491897 133.340055310 0.072424682 0 230 249
6.197399186 133.241749668 0.076041487 0 230 249
6.190822936 133.141543879 0.089257679 0 230 249
6.184650840 133.041562543 0.101361395 0 230 249
6.184936584 132.945105012 0.095672389 0 230 249
6.190451374 132.851494579 0.075576198 0 230 249
6.191745387 132.755581454 0.067110737 0 230 249
6.187060458 132.656414096 0.075120694 0 230 249
6.180018192 132.555967925 0.089627214 0 230 249
6.172045733 132.455020842 0.106697967 0 230 249
6.166602790 132.355451869 0.116799866 0 230 249
6.166768361 132.258928259 0.111448662 0 230 249
6.168140171 132.163057365 0.102774581 0 230 249
6.167493271 132.066090961 0.099663967 0 230 249
6.172365875 131.972111694 0.081345126 0 230 249
6.165645142 131.871856803 0.094973030 0 230 249
6.159378874 131.771851680 0.107349749 0 230 249
6.155806774 131.673305577 0.112303591 0 230 249
6.155278290 131.576404039 0.108871501 0 230 249
6.155029186 131.479652605 0.104670488 0 230 249
6.152054666 131.381431354 0.107980613 0 230 249
6.146122291 131.281618199 0.119442515 0 230 249
6.140239301 131.181835148 0.130769424 0 230 249
6.137772380 131.083892965 0.132683893 0 230 249
6.139762532 130.988347277 0.122317093 0 230 249
6.144181627 130.894103680 0.105257735 0 230 249
6.146995658 130.798994259 0.092622255 0 230 249
6.146880773 130.702310805 0.088058899 0 230 249
6.144432300 130.604375736 0.089927226 0 230 249
6.142462900 130.506698127 0.090476341 0 230 249
6.146951485 130.412477358 0.073229732 0 230 249
6.154965771 130.320137812 0.046267850 0 230 249
6.154531341 130.223275841 0.042589602 0 230 249
6.145469348 130.121805572 0.062688231 0 230 249
6.134998175 130.019589163 0.086671513 0 230 249
6.129132832 129.919836028 0.097963090 0 230 249
6.129231290 129.823264602 0.092820384 0 230 249
6.130015554 129.727057338 0.085788608 0 230 249
6.127150190 129.628906315 0.088815694 0 230 249
6.121974082 129.529527689 0.098211970 0 230 249
6.117425903 129.430485702 0.105878809 0 230 249
6.115781578 129.332988195 0.105543884 0 230 249
6.115564559 129.236248343 0.101276359 0 230 249
6.116107137 129.139910461 0.094916348 0 230 249
6.119179332 129.044911575 0.081585683 0 230 249
6.124038413 128.950855524 0.063331218 0 230 249
6.126543129 128.855549070 0.051566178 0 230 249
6.124794880 128.757991043 0.051523242 0 230 249
6.121820695 128.659785642 0.054860010 0 230 249
6.119962250 128.562170614 0.055122757 0 230 249
6.118011020 128.464507073 0.055642209 0 230 249
6.115099448 128.366337741 0.058809423 0 230 249
6.110869277 128.267474969 0.065611835 0 230 249
6.105054354 128.167780149 0.076783047 0 230 249
6.098076512 128.067477003 0.091160509 0 230 249
6.091679705 127.967483643 0.103937694 0 230 249
6.087903927 127.868871037 0.109492042 0 230 249
6.087703417 127.772137105 0.105193393 0 230 249
6.088424232 127.675885638 0.098356344 0 230 249
6.090075807 127.580120533 0.088954843 0 230 249
6.093353001 127.485204686 0.075073676 0 230 249
6.096794237 127.390371242 0.060741204 0 230 249
6.094926889 127.292757671 0.061041299 0 230 249
6.085549373 127.191219380 0.082042323 0 230 249
6.073405810 127.088242643 0.110668529 0 230 249
6.074176927 126.992014191 0.103699482 0 230 249
6.072630686 126.894575671 0.103118679 0 230 249
6.072681465 126.797969615 0.098136963 0 230 249
6.070012087 126.699946047 0.100653827 0 230 249
6.066537359 126.601504473 0.105391524 0 230 249
6.065378402 126.504268749 0.103747157 0 230 249
6.067419801 126.408695866 0.093282384 0 230 249
6.070545030 126.313683221 0.079831023 0 230 249
6.069580555 126.216545323 0.077653378 0 230 249
6.064871176 126.117465605 0.085799216 0 230 249
6.059021306 126.017797645 0.097089816 0 230 249
6.054432842 125.918786212 0.104904521 0 230 249
6.051540931 125.820654978 0.108043811 0 230 249
6.049279940 125.722851137 0.109445003 0 230 249
6.046356084 125.624705652 0.112674379 0 230 249
6.041228271 125.525423798 0.121979997 0 230 249
6.034717124 125.425431370 0.135099892 0 230 249
6.031957439 125.327376518 0.137879873 0 230 249
6.037487724 125.233592467 0.117809147 0 230 249
6.046942839 125.141823201 0.086920144 0 230 249
6.052124899 125.047848252 0.067810815 0 230 249
6.048635505 124.949412173 0.072605958 0 230 249
6.040076850 124.848374648 0.091376114 0 230 249
6.031683955 124.747427746 0.109690518 0 230 249
6.026961881 124.648368514 0.117886981 0 230 249
6.026347123 124.551416413 0.114762068 0 230 249
6.028589643 124.455926743 0.103761543 0 230 249
6.029758732 124.359885236 0.095720999 0 230 249
6.026308979 124.261480585 0.100414111 0 230 249
6.021001320 124.162128496 0.110229975 0 230 249
6.016577044 124.063230444 0.117611688 0 230 249
6.012939891 123.964736318 0.122824575 0 230 249
6.010354312 123.866780014 0.125139572 0 230 249
6.011164885 123.770554499 0.118093167 0 230 249
6.013868183 123.675290726 0.105829840 0 230 249
6.014791593 123.579118755 0.098474170 0 230 249
6.015813126 123.482995004 0.090848905 0 230 249
6.018952423 123.387944952 0.077386236 0 230 249
6.022033526 123.292862041 0.064084843 0 230 249
6.020543778 123.195458204 0.063385496 0 230 249
6.012740597 123.094855752 0.080092475 0 230 249
6.002278085 122.992911917 0.104132105 0 230 249
5.997574708 122.893888685 0.112295602 0 230 249
5.997747927 122.797333338 0.107015801 0 230 249
5.999615728 122.701632929 0.097065086 0 230 249
6.003087756 122.606739918 0.082692486 0 230 249
6.009091802 122.513120435 0.061340047 0 230 249
6.016500372 122.420203332 0.036116134 0 230 249
6.021911690 122.326273793 0.016399352 0 230 249
6.021483224 122.229400374 0.012783679 0 230 249
6.016398287 122.130184786 0.022006947 0 230 249
6.011461241 122.031046446 0.030823568 0 230 249
6.007928513 121.932616040 0.035769501 0 230 249
6.004791489 121.834385921 0.039625497 0 230 249
6.002915715 121.736789571 0.040005165 0 230 249
6.004369132 121.640861504 0.031206936 0 230 249
6.008138651 121.546090789 0.016023860 0 230 249
6.010599013 121.450661437 0.004451128 0 230 249
6.010633658 121.354016867 -0.000432696 0 230 249
6.007641831 121.255859810 0.003028871 0 230 249
5.998711035 121.154740225 0.022866207 0 230 249
5.983191262 121.050340751 0.060871763 0 230 249
5.974018217 120.949114703 0.081379537 0 230 249
5.964380188 120.847663187 0.103170589 0 230 249
5.963025020 120.750339078 0.102125140 0 230 249
5.965211241 120.654775684 0.091316209 0 230 249
5.967539236 120.559280129 0.080117257 0 230 249
5.968352555 120.463030005 0.073095552 0 230 249
5.967563173 120.365983379 0.070493874 0 230 249
5.967404097 120.269248828 0.066155225 0 230 249
5.970293802 120.174023381 0.053411075 0 230 249
5.974743284 120.079566696 0.036366971 0 230 249
5.967277466 119.979213725 0.052178266 0 230 249
5.975915477 119.886822539 0.023586694 0 230 249
5.972762652 119.788602402 0.027507550 0 230 249
5.968743047 119.689956120 0.033819499 0 230 249
5.964812142 119.591355703 0.039887932 0 230 249
5.961805715 119.493212742 0.043408256 0 230 249
5.961327661 119.396315627 0.039957797 0 230 249
5.962494312 119.300226861 0.031973119 0 230 249
5.961164891 119.202909610 0.030872175 0 230 249
5.952245830 119.101865464 0.050700471 0 230 249
5.938798790 118.998605395 0.083015837 0 230 249
5.928046070 118.896675674 0.107902948 0 230 249
5.923919266 118.797999394 0.114520224 0 230 249
5.926600755 118.702658270 0.102364467 0 230 249
5.932295795 118.608788295 0.081899565 0 230 249
5.936961338 118.514409873 0.064274352 0 230 249
5.938680684 118.418588069 0.054774323 0 230 249
5.938397017 118.321786536 0.050798689 0 230 249
5.937035799 118.224458851 0.049795478 0 230 249
5.934211386 118.126418340 0.052828196 0 230 249
5.931313749 118.028343414 0.056063877 0 230 249
5.930069738 117.931074263 0.054740466 0 230 249
5.927985230 117.833396570 0.055735856 0 230 249
5.923222675 117.734418736 0.064117456 0 230 249
5.915905541 117.634203745 0.079544902 0 230 249
5.907499482 117.533465318 0.097976453 0 230 249
5.902850891 117.434553216 0.106047141 0 230 249
5.903150748 117.338039835 0.100472385 0 230 249
5.906094950 117.242804730 0.087606119 0 230 249
5.908919060 117.147508417 0.075071908 0 230 249
5.911052729 117.051875516 0.064442653 0 230 249
5.913850191 116.956560487 0.051983684 0 230 249
5.918217771 116.861999702 0.035195496 0 230 249
5.922521681 116.767404000 0.018583728 0 230 249
5.924331421 116.671603059 0.008851313 0 230 249
5.922963072 116.574270649 0.007884512 0 230 249
5.920147008 116.476242336 0.010911315 0 230 249
5.917526294 116.378309111 0.013400405 0 230 249
5.915177768 116.280507633 0.015139859 0 230 249
5.913229710 116.182899122 0.015775881 0 230 249
5.910688592 116.085006960 0.018048533 0 230 249
5.905644345 115.985917130 0.027225703 0 230 249
5.898633814 115.885889372 0.041826906 0 230 249
5.892224222 115.786153370 0.054771900 0 230 249
5.888950684 115.687919564 0.059068835 0 230 249
5.890488065 115.591983879 0.050098299 0 230 249
5.894674234 115.497309535 0.033823271 0 230 249
5.894219511 115.400419272 0.030348805 0 230 249
5.887748395 115.300663354 0.043468800 0 230 249
5.880505957 115.200544443 0.058717293 0 230 249
5.878589795 115.102962550 0.059276686 0 230 249
5.885814696 115.009723896 0.034625217 0 230 249
5.903621288 114.921501899 -0.019210910 0 230 252
5.919681346 114.832437045 -0.068229443 0 230 252
5.810410791 110.140514594 0.007644436 0 230 249
-12.412822658 101.472581220 50.267527756 255 0 168
-12.337211336 101.417152477 50.054487554 255 2 164
-12.310269916 101.339589547 49.975738583 255 2 164
-12.310460402 101.249709046 49.971853831 255 2 164
-12.309381355 101.160402722 49.964467045 255 2 164
-12.307216959 101.071585792 49.954086384 255 2 164
-12.304799126 100.982880944 49.943007308 255 2 164
-12.304857196 100.893055106 49.938760914 255 2 164
-12.310135139 100.800872763 49.948918829 255 2 164
-12.319974791 100.706636656 49.971665176 255 2 164
-12.322317115 100.615785018 49.973724928 255 2 164
-12.321493224 100.526359613 49.967048928 255 2 164
-12.320222529 100.437133705 49.959140953 255 2 164
-12.315123394 100.349626466 49.940669693 255 2 164
-12.311839192 100.261299582 49.927207396 255 2 164
-12.308268193 100.173098027 49.912954564 255 2 164
-12.303468589 100.085443641 49.895312320 255 2 164
-12.300765101 99.996845979 49.883455039 255 2 164
-12.302285956 99.906355082 49.883255583 255 2 164
-12.307277249 99.814312852 49.892633744 255 2 164
-12.314956752 99.721072699 49.909431111 255 2 164
-12.318124434 99.629851395 49.913779218 255 2 164
-12.323216469 99.537773479 49.923438672 255 2 164
-12.327335272 99.446132267 49.930413550 255 2 164
-12.329025530 99.355574557 49.930687797 255 2 164
-12.327636838 99.266386886 49.922466468 255 2 164
-12.327126715 99.176806856 49.916670541 255 2 164
-12.330630516 99.085443186 49.921952365 255 2 164
-12.335280903 98.993572640 49.930399375 255 2 164
-12.337542404 98.902763796 49.932255040 255 2 164
-12.338114862 98.812703952 49.929450576 255 2 164
-12.338865036 98.722565070 49.927137520 255 2 164
-12.340159480 98.632185280 49.926327441 255 2 164
-12.340374539 98.542282493 49.922539601 255 2 164
-12.338001855 98.453521255 49.911611342 255 2 164
-12.334832991 98.365108508 49.898486748 255 2 164
-12.338106439 98.273853836 49.903142015 255 2 164
-12.347009121 98.180122560 49.923333534 255 2 164
-12.352617320 98.087846383 49.934434310 255 2 164
-12.353835164 97.997503165 49.933419852 255 2 164
-12.353691260 97.907758003 49.928648265 255 2 164
-12.353827898 97.817888826 49.924651868 255 2 164
-12.353193771 97.728356790 49.918529273 255 2 164
-12.351508336 97.639283884 49.909506195 255 2 164
-12.350041191 97.550113350 49.901086473 255 2 164
-12.348946954 97.460777839 49.893696840 255 2 164
-12.347542268 97.371576283 49.885451340 255 2 164
-12.346012819 97.282427286 49.876862429 255 2 164
-12.345431538 97.192862844 49.870891275 255 4 161
-12.347168169 97.102287272 49.871318276 255 4 161
-12.350816305 97.010880127 49.877021885 255 2 164
-12.355582755 96.918988567 49.885813025 255 2 164
-12.360352306 96.827098471 49.894613819 255 2 164
-12.363074314 96.736100140 49.897764570 255 2 164
-12.364231620 96.645781792 49.896597818 255 2 164
-12.365325109 96.555491164 49.895255929 255 2 164
-12.366471172 96.465177785 49.894060135 255 2 164
-12.367350917 96.374979678 49.892130292 255 2 164
-12.368556882 96.284640414 49.891101812 255 2 164
-12.370399147 96.194026454 49.891830541 255 2 164
-12.372497677 96.103302504 49.893267593 255 2 164
-12.374366932 96.012678178 49.894072848 255 2 164
-12.376091100 95.922116953 49.894478668 255 2 164
-12.378320300 95.831338887 49.896279433 255 2 164
-12.379569258 95.740983172 49.895375649 255 2 164
-12.378107306 95.651792157 49.886990402 255 2 164
-12.377120997 95.562395064 49.879918920 255 2 164
-12.381459212 95.470713135 49.887544887 255 2 164
-12.389803442 95.377317357 49.906229220 255 2 164
-12.395326900 95.285134581 49.917128900 255 2 164
-12.394567945 95.195642054 49.910689001 255 2 164
-12.391370669 95.107190024 49.897519763 255 2 164
-12.389295646 95.018255637 49.887449071 255 2 164
-12.390227813 94.928036181 49.885679851 255 2 164
-12.394480120 94.836401731 49.893076045 255 2 164
-12.398993801 94.744658422 49.901194786 255 2 164
-12.401191359 94.653903003 49.902921469 255 2 164
-12.402322812 94.563601553 49.901706415 255 2 164
-12.403989520 94.473072870 49.901969826 255 2 164
-12.405192615 94.382741333 49.900954528 255 2 164
-12.404978758 94.293010504 49.896028966 255 2 164
-12.403658362 94.203747308 49.888049930 255 2 164
-12.403501868 94.113989842 49.883284613 255 2 164
-12.406384085 94.022946905 49.886908255 255 2 164
-12.411950959 93.930771506 49.897943647 255 2 164
-12.417050494 93.838796741 49.907690119 255 2 164
-12.417934691 93.748602166 49.905801595 255 2 164
-12.415660509 93.659737771 49.895195565 255 2 164
-12.412266073 93.571342261 49.881498038 255 2 164
-12.408459540 93.483116620 49.866663805 255 4 161
-12.403847514 93.395225626 49.849606893 255 4 161
-12.402583312 93.305925304 49.841792454 255 4 161
-12.408344544 93.213677471 49.853372682 255 4 161
-12.419226875 93.119287915 49.879090924 255 2 164
-12.429484679 93.025167233 49.903086410 255 2 164
-12.456042503 92.924237657 49.972080110 255 2 164
-12.304805951 92.897605167 49.550263713 255 6 157
5.721655266 96.172706035 -0.410362260 0 229 255
5.621420743 94.584553569 -0.205990154 0 230 252
5.475285574 93.753215826 0.161437523 0 230 249
5.518445145 93.673414891 0.037758656 0 230 249
5.512328541 93.574300322 0.050144377 0 230 249
5.522072328 93.481389133 0.018736229 0 230 249
5.539548517 93.391489210 -0.034022664 0 230 252
5.560002990 93.302737039 -0.095005028 0 230 252
5.571063899 93.210307431 -0.130048273 0 230 252
5.563606180 93.110658217 -0.113954595 0 230 252
5.550002692 93.008623320 -0.080889051 0 230 252
5.540800873 92.908308447 -0.059976751 0 230 252
5.537249971 92.810193539 -0.054667537 0 230 252
5.536659725 92.713228763 -0.057532771 0 230 252
5.539489566 92.617588742 -0.069841258 0 230 252
5.544618661 92.522835723 -0.088498048 0 230 252
5.547361298 92.427155167 -0.100563918 0 230 252
5.547849645 92.330600858 -0.106403743 0 230 252
5.548129530 92.233964916 -0.111666918 0 230 252
5.546151432 92.136457395 -0.110693717 0 230 252
5.541213424 92.037810521 -0.101545671 0 230 252
5.537102614 91.939484894 -0.094680798 0 230 252
5.537737115 91.842985695 -0.100919110 0 230 252
5.542263020 91.747979581 -0.117902708 0 230 252
5.547534382 91.653255194 -0.136944054 0 230 252
5.549434133 91.557233782 -0.146673609 0 230 252
5.544406385 91.458557735 -0.137271345 0 230 252
5.535855218 91.358537020 -0.118137667 0 230 252
5.529598046 91.259398585 -0.105337865 0 230 252
5.526189963 91.161351705 -0.100405002 0 230 252
5.525905360 91.064497760 -0.104096969 0 230 252
5.529600164 90.969159261 -0.118777674 0 230 252
5.536203934 90.874924260 -0.141491085 0 230 252
5.538248825 90.778950093 -0.151613495 0 230 252
5.532033517 90.679836115 -0.138922784 0 230 252
5.523406516 90.579810963 -0.119570485 0 230 252
5.516125519 90.480301805 -0.103934232 0 230 252
5.510532270 90.381436515 -0.092957889 0 230 252
5.506026037 90.282985903 -0.084982453 0 230 252
5.503248243 90.185191136 -0.081779433 0 230 252
5.501682393 90.087855237 -0.081922457 0 230 252
5.499508384 89.990290356 -0.080384818 0 230 252
5.495923672 89.892194807 -0.074950012 0 230 252
5.493672100 89.794602976 -0.073196000 0 230 252
5.494742027 89.698260988 -0.080614370 0 230 252
5.497823899 89.602673134 -0.093588470 0 230 252
5.500670345 89.506993782 -0.105911432 0 230 252
5.500745279 89.410272498 -0.110578873 0 230 252
5.497377071 89.312260934 -0.105735705 0 230 252
5.492318531 89.213618768 -0.096222882 0 230 252
5.488739100 89.115532440 -0.090794098 0 230 252
5.488998275 89.018881165 -0.095966208 0 230 252
5.489567071 88.922344369 -0.101992480 0 230 252
5.491939937 88.826478502 -0.113000546 0 230 252
5.498862467 88.732303418 -0.136573770 0 230 252
5.507246917 88.638665826 -0.164184002 0 230 252
5.511696802 88.543559587 -0.180926151 0 230 252
5.509700137 88.446057110 -0.179861874 0 230 252
5.504043667 88.347198750 -0.168688001 0 230 252
5.498984746 88.248565172 -0.159163420 0 230 252
5.495251475 88.150425029 -0.153299226 0 230 252
5.491726750 88.052363998 -0.148009938 0 230 252
5.490707553 87.955229774 -0.149640051 0 230 252
5.492024414 87.858956997 -0.157721582 0 230 252
5.490004768 87.761453284 -0.156586286 0 230 252
5.485688589 87.663105170 -0.149106577 0 230 252
5.482318956 87.565107524 -0.144240241 0 230 252
5.475284784 87.465765866 -0.129250724 0 230 252
5.471631872 87.367669235 -0.123599655 0 230 252
5.469077701 87.269977262 -0.120982412 0 230 252
5.466596359 87.172313101 -0.118565255 0 230 252
5.463620757 87.074469274 -0.114781758 0 230 252
5.461394954 86.976900849 -0.113068290 0 230 252
5.461238121 86.880088411 -0.117068774 0 230 252
5.460691980 86.783133364 -0.119992867 0 230 252
5.456365607 86.684801195 -0.112473859 0 230 252
5.449284764 86.585469417 -0.097345053 0 230 252
5.445850501 86.487467528 -0.092288025 0 230 252
5.447347178 86.391257641 -0.100850751 0 230 252
5.450131105 86.295512664 -0.112968331 0 230 252
5.452048069 86.199450678 -0.122690119 0 230 252
5.452698809 86.102928180 -0.128913172 0 230 252
5.451260358 86.005649095 -0.129364086 0 230 252
5.447130171 85.907398208 -0.122378301 0 230 252
5.441642973 85.808660118 -0.111642766 0 230 252
5.436893242 85.710191187 -0.102943256 0 230 252
5.433822848 85.612329646 -0.098881668 0 230 252
5.432282109 85.515019746 -0.099044580 0 230 252
5.432056983 85.418182844 -0.102840777 0 230 252
5.434141495 85.322174148 -0.113016288 0 230 252
5.435872589 85.226036377 -0.122214526 0 230 252
5.432081198 85.127918929 -0.116155878 0 230 252
5.425307925 85.028736924 -0.101858580 0 230 252
5.420728696 84.930343292 -0.093621210 0 230 252
5.423828377 84.834693341 -0.106596096 0 230 252
5.435680115 84.742160937 -0.143748211 0 230 252
5.445105527 84.648754478 -0.174196721 0 230 252
5.446993590 84.552658210 -0.183821834 0 230 252
5.444934753 84.455156887 -0.182542236 0 230 252
5.442499643 84.357522751 -0.180222062 0 230 252
5.440383337 84.260002748 -0.178781549 0 230 252
5.436314433 84.161791802 -0.171945605 0 230 252
5.430945660 84.063123147 -0.161517426 0 230 252
5.427298592 83.965066449 -0.155844601 0 230 252
5.428445644 83.868704717 -0.163415353 0 230 252
5.431957190 83.773175407 -0.177517532 0 230 252
5.434918978 83.677448909 -0.190099964 0 230 252
5.435354457 83.580830122 -0.195701934 0 230 252
5.431441070 83.482681107 -0.189288061 0 230 252
5.424537929 83.383484200 -0.174613063 0 230 252
5.417459933 83.284230422 -0.159453768 0 230 252
5.411246900 83.185284395 -0.146682971 0 230 252
5.405260538 83.086421672 -0.134537229 0 230 252
5.399671504 82.987701675 -0.123488048 0 230 252
5.396813803 82.889939267 -0.119983920 0 230 252
5.398061014 82.793610621 -0.127819960 0 230 252
5.401403172 82.698010448 -0.141443075 0 230 252
5.401663181 82.601333803 -0.146549659 0 230 252
5.396018828 82.502602658 -0.135342102 0 230 252
5.388104583 82.403086436 -0.117861858 0 230 252
5.385317810 82.305354869 -0.114547186 0 230 252
5.388106555 82.209557406 -0.126636224 0 230 252
5.390429888 82.113595871 -0.137438411 0 230 252
5.387539313 82.015828342 -0.133833795 0 230 252
5.383169782 81.917551241 -0.126141753 0 230 252
5.390485943 81.823309730 -0.150736068 0 230 252
5.389992535 81.726369541 -0.153751666 0 230 252
5.382263706 81.626937327 -0.136774600 0 230 252
5.385530635 81.531292569 -0.150177980 0 230 252
5.386595893 81.434888038 -0.157497103 0 230 252
5.384799371 81.337499691 -0.156907950 0 230 252
5.390076580 81.242537074 -0.175863009 0 230 252
5.383710829 81.143582437 -0.162646610 0 230 252
5.379096829 81.045231103 -0.154269285 0 230 252
5.380904210 80.949076650 -0.163633870 0 230 252
5.386906078 80.854351665 -0.184587422 0 230 252
5.390162650 80.758685362 -0.197954460 0 230 252
5.387431758 80.660976763 -0.194776222 0 230 252
5.380729441 80.561918511 -0.180623129 0 230 252
5.372593999 80.462377632 -0.162508823 0 230 252
5.365474850 80.363187112 -0.147201491 0 230 252
5.362986977 80.265571352 -0.144690181 0 230 252
5.364864663 80.169435071 -0.154240842 0 230 252
5.367190464 80.073448155 -0.165028788 0 230 252
5.367380155 79.976736934 -0.169913146 0 230 252
5.366792645 79.879762483 -0.172648865 0 230 252
5.368322591 79.783501528 -0.181234692 0 230 252
5.370880720 79.687584849 -0.192660728 0 230 252
5.370292146 79.590607032 -0.195390461 0 230 252
5.365490024 79.492213248 -0.186475717 0 230 252
5.359399583 79.393389998 -0.173999737 0 230 252
5.353274050 79.294558850 -0.161425591 0 230 252
5.346547748 79.195530441 -0.147190095 0 230 252
5.340324845 79.096674743 -0.134344476 0 230 252
5.337527161 78.998967257 -0.130962924 0 230 252
5.340924117 78.903328174 -0.144698659 0 230 252
5.348319206 78.809018304 -0.169482044 0 230 252
5.353587050 78.713993809 -0.188386085 0 230 252
5.354314577 78.617454684 -0.194742257 0 230 252
5.350414586 78.519377158 -0.188309389 0 230 252
5.343491807 78.420298940 -0.173521941 0 230 252
5.336636597 78.321247616 -0.158919999 0 230 252
5.330674725 78.222496451 -0.146785596 0 230 252
5.325726353 78.124084150 -0.137450839 0 230 252
5.322689450 78.026306109 -0.133397353 0 230 252
5.321686381 77.929200504 -0.134963382 0 230 252
5.321854002 77.832480613 -0.139763645 0 230 252
5.321574968 77.735612820 -0.143328520 0 230 252
5.319257490 77.638074376 -0.141258907 0 230 252
5.315901819 77.540196039 -0.136319038 0 230 252
5.313416596 77.442604958 -0.133783645 0 230 252
5.312685878 77.345589736 -0.136095984 0 230 252
5.313755905 77.249163494 -0.143383927 0 230 252
5.315148104 77.152840950 -0.151561254 0 230 252
5.315604274 77.056211014 -0.157150700 0 230 252
5.313922472 76.958882859 -0.156830412 0 230 252
5.310093223 76.860855847 -0.150574117 0 230 252
5.305407434 76.762552357 -0.141949441 0 230 252
5.302999317 76.664991702 -0.139618511 0 230 252
5.305286312 76.568955800 -0.150262644 0 230 252
5.309597775 76.473573601 -0.166500986 0 230 252
5.313145918 76.377940201 -0.180628768 0 230 252
5.313559848 76.281289767 -0.186093281 0 230 252
5.310714485 76.183585484 -0.182548694 0 230 252
5.306592030 76.085470582 -0.175473332 0 230 252
5.303633551 75.987733128 -0.171613875 0 230 252
5.303033123 75.890756111 -0.174270624 0 230 252
5.304202639 75.794347771 -0.181818228 0 230 252
5.303533624 75.697347423 -0.184283347 0 230 252
5.298637676 75.598991181 -0.175064595 0 230 252
5.292903027 75.500369239 -0.163526579 0 230 252
5.289785795 75.402588339 -0.159221727 0 230 252
5.289923712 75.305849283 -0.163912802 0 230 252
5.292553491 75.209904717 -0.175490256 0 230 252
5.295106864 75.113933012 -0.186855568 0 230 252
5.298047317 75.018081840 -0.199289809 0 230 252
5.268836297 74.912002147 -0.122856447 0 230 252
5.258380138 74.811901642 -0.098259920 0 230 252
5.026276527 58.968040455 -0.143935747 0 230 252
5.017399209 57.416750304 -0.185338069 0 230 252
4.946627162 54.882233588 -0.096129780 0 230 252
4.949031412 54.785995331 -0.106867293 0 230 252
4.948977179 54.689167800 -0.110801398 0 230 252
4.945983727 54.591639276 -0.106601829 0 230 252
4.945423762 54.494691143 -0.109134446 0 230 252
4.945975243 54.398006642 -0.114741322 0 230 252
4.944697703 54.300887290 -0.115286303 0 230 252
4.942275787 54.203497257 -0.112663722 0 230 252
4.940653784 54.106297375 -0.112253378 0 230 252
4.940273445 54.009390965 -0.115277638 0 230 252
4.940943166 53.912731465 -0.121206376 0 230 252
4.942326445 53.816238527 -0.129108525 0 230 252
4.941466621 53.719217063 -0.130802865 0 230 252
4.936240889 53.621171982 -0.120415346 0 230 252
4.928693232 53.522586689 -0.103601664 0 230 252
4.920905130 53.423950223 -0.086121379 0 230 252
4.915090309 53.325779299 -0.074100114 0 230 252
4.913618847 53.228623659 -0.074096254 0 230 252
4.917121300 53.132624946 -0.087854820 0 230 252
4.922135818 53.036973819 -0.105796545 0 230 252
4.924353758 52.940669972 -0.115998752 0 230 252
4.923127560 52.843566778 -0.116669406 0 230 252
4.920029851 52.746031455 -0.112160129 0 230 252
4.916386998 52.648372028 -0.106141185 0 230 252
4.913701300 52.550935000 -0.102769743 0 230 252
4.912682032 52.453882299 -0.104008578 0 230 252
4.910919317 52.356659027 -0.103189022 0 230 252
4.904743578 52.258425386 -0.090156353 0 230 252
4.894434654 52.159250434 -0.065684773 0 230 252
4.893896945 52.062313591 -0.068251670 0 230 252
4.891998676 51.965066279 -0.067052408 0 230 252
4.891412527 51.868118248 -0.069483093 0 230 252
4.886677971 51.770227494 -0.060432673 0 230 252
4.878834519 51.671634526 -0.042777659 0 230 252
4.874054838 51.573740472 -0.033599938 0 230 252
4.876898344 51.477572386 -0.045517263 0 230 252
4.885307556 51.382657265 -0.072836094 0 230 252
4.893973137 51.287792718 -0.100863576 0 230 252
4.888636591 51.189771944 -0.090140490 0 230 252
4.886654444 51.092507564 -0.088699272 0 230 252
4.891850519 50.996852728 -0.107122289 0 230 252
4.887273476 50.899006553 -0.098497670 0 230 252
4.882913613 50.801211632 -0.090472908 0 230 252
4.880591533 50.703873661 -0.088086504 0 230 252
4.882039121 50.607375809 -0.096131544 0 230 252
4.884997553 50.511211822 -0.108356853 0 230 252
4.884142544 50.414198896 -0.110027372 0 230 252
4.879165556 50.316273078 -0.100289048 0 230 252
4.873901926 50.218286944 -0.089756227 0 230 252
4.873124954 50.121294202 -0.091639353 0 230 252
4.877616883 50.025462036 -0.108103532 0 230 252
4.882673626 49.929749898 -0.126129957 0 230 252
4.883612570 49.833129142 -0.132758985 0 230 252
4.879100176 49.735312238 -0.124299708 0 230 252
4.872221712 49.636980404 -0.109290810 0 230 252
4.866504576 49.538906694 -0.097494818 0 230 252
4.863003438 49.441319704 -0.091830758 0 230 252
4.861615798 49.344194587 -0.092015035 0 230 252
4.861183247 49.247277264 -0.094841609 0 230 252
4.859341994 49.150054027 -0.093768232 0 230 252
4.855650648 49.052430940 -0.087573193 0 230 252
4.851366731 48.954681870 -0.079736911 0 230 252
4.847389481 48.857001473 -0.072748228 0 230 252
4.843968137 48.759443069 -0.067296992 0 230 252
4.840675093 48.661914105 -0.062199709 0 230 252
4.836508414 48.564199452 -0.054683231 0 230 252
4.830862745 48.466170453 -0.043072013 0 230 252
4.826152551 48.368345024 -0.034048809 0 230 252
4.826563421 48.271615388 -0.039198679 0 230 252
4.831388951 48.175825182 -0.056566614 0 230 252
4.836551222 48.080102148 -0.074865676 0 230 252
4.840638618 47.984146247 -0.090188698 0 230 252
4.843953634 47.888022809 -0.103372908 0 230 252
4.846254267 47.791681532 -0.113748432 0 230 252
4.846267641 47.694854839 -0.117792011 0 230 252
4.843570701 47.597456194 -0.114332561 0 230 252
4.838756722 47.499613507 -0.105012124 0 230 252
4.833646194 47.401711478 -0.094869653 0 230 252
4.830764254 47.304279716 -0.090894655 0 230 252
4.831758289 47.207660329 -0.097647171 0 230 252
4.835310620 47.111573696 -0.111480023 0 230 252
4.836801216 47.015053819 -0.119604993 0 230 252
4.833546182 46.917544619 -0.114592897 0 230 252
4.828503320 46.819665841 -0.104630861 0 230 252
4.824128404 46.721928636 -0.096516536 0 230 252
4.821503105 46.624556063 -0.093244091 0 230 252
4.820414698 46.527502179 -0.094224762 0 230 252
4.819706018 46.430526661 -0.096255464 0 230 252
4.818938756 46.333538878 -0.098122919 0 230 252
4.818814924 46.236683087 -0.101770387 0 230 252
4.818079419 46.139701238 -0.103723591 0 230 252
4.814458628 46.042128776 -0.097688795 0 230 252
4.808421484 45.944064789 -0.084963960 0 230 252
4.801550106 45.845834591 -0.069928582 0 230 252
4.794664424 45.747605983 -0.054852355 0 230 252
4.787833261 45.649392959 -0.039925793 0 230 252
4.790599305 45.553129966 -0.051565202 0 230 252
4.786657720 45.455506889 -0.044635310 0 230 252
4.783353324 45.358014758 -0.039468141 0 230 252
4.780334926 45.260582052 -0.035091540 0 230 252
4.779114449 45.163512630 -0.035690940 0 230 252
4.781790875 45.067225929 -0.047077012 0 230 252
4.786735981 44.971391139 -0.064742503 0 230 252
4.789911861 44.875197890 -0.077509279 0 230 252
4.788942781 44.778173862 -0.078800436 0 230 252
4.783554871 44.680269230 -0.067857641 0 230 252
4.776098729 44.581956594 -0.051188016 0 230 252
4.769793450 44.483877372 -0.037703139 0 230 252
4.766109972 44.386321690 -0.031475195 0 230 252
4.765318474 44.289339971 -0.033252257 0 230 252
4.768260950 44.193095082 -0.045365432 0 230 252
4.774144977 44.097426646 -0.065621112 0 230 252
4.779890248 44.001725680 -0.085491752 0 230 252
4.781575321 43.905222861 -0.094120992 0 230 252
4.778924339 43.807868819 -0.090744954 0 230 252
4.776663885 43.710592385 -0.088448951 0 230 252
4.775658738 43.613561810 -0.089627140 0 230 252
4.773835196 43.516371913 -0.088538500 0 230 252
4.770323017 43.418854534 -0.082773700 0 230 252
4.766318632 43.321243635 -0.075645043 0 230 252
4.763477821 43.223860253 -0.071736633 0 230 252
4.762673487 43.126871671 -0.073465210 0 230 252
4.765559075 43.030594311 -0.085408559 0 230 252
4.770240493 42.934659516 -0.102322857 0 230 252
4.772806698 42.838314227 -0.113380012 0 230 252
4.770881431 42.741105489 -0.112000966 0 230 252
4.764674463 42.643078572 -0.098766312 0 230 252
4.756914599 42.544759242 -0.081230988 0 230 252
4.751077112 42.446811288 -0.069016805 0 230 252
4.748862638 42.349555812 -0.066832365 0 230 252
4.748637788 42.252678762 -0.070155462 0 230 252
4.747578637 42.155643161 -0.071167548 0 230 252
4.745084666 42.058336493 -0.068205921 0 230 252
4.743025445 41.961112964 -0.066446866 0 230 252
4.742904542 41.864255044 -0.070053407 0 230 252
4.742891385 41.767416702 -0.073957202 0 230 252
4.741199851 41.670263034 -0.073212875 0 230 252
4.738535437 41.572927930 -0.069773730 0 230 252
4.736728002 41.475754083 -0.068706256 0 230 252
4.735789317 41.378742701 -0.070043077 0 230 252
4.732987682 41.281384956 -0.066220606 0 230 252
4.725401731 41.183141006 -0.049149949 0 230 252
4.716999917 41.084751056 -0.029818999 0 230 252
4.715784125 40.987694447 -0.030383952 0 230 252
4.718960222 40.891447769 -0.043108460 0 230 252
4.720703554 40.794934293 -0.051864801 0 230 252
4.721744630 40.698289791 -0.058675631 0 230 252
4.725792801 40.602194726 -0.073811863 0 230 252
4.732174740 40.506522533 -0.095409214 0 230 252
4.736218369 40.410418052 -0.110530988 0 230 252
4.734042697 40.313177311 -0.108430738 0 230 252
4.728461273 40.215318659 -0.096898878 0 230 252
4.725186423 40.117881743 -0.091752698 0 230 252
4.724615321 40.020935779 -0.094092076 0 230 252
4.724996067 39.924161359 -0.099066064 0 230 252
4.723544689 39.827055802 -0.098965765 0 230 252
4.718941353 39.729383920 -0.090136413 0 230 252
4.713876838 39.631632069 -0.080028831 0 230 252
4.710790827 39.534237535 -0.075398681 0 230 252
4.708073555 39.436910480 -0.071788451 0 230 252
4.703633077 39.339277576 -0.063405328 0 230 252
4.701128871 39.241991731 -0.060382792 0 230 252
4.702937993 39.145472636 -0.069303322 0 230 252
4.707678338 39.049470558 -0.086339834 0 230 252
4.710978993 38.953209669 -0.099388668 0 230 252
4.709095523 38.856031301 -0.098080750 0 230 252
4.703005946 38.758113497 -0.085124187 0 230 252
4.696155600 38.660066019 -0.070059662 0 230 252
4.690540346 38.562239416 -0.058414119 0 230 252
4.696856227 38.466502121 -0.079807468 0 230 252
4.688376586 38.368178390 -0.060227442 0 230 252
4.688036511 38.271277103 -0.063186708 0 230 252
4.694268082 38.175516623 -0.084343598 0 230 252
4.686845150 38.077384466 -0.067686310 0 230 252
4.680346385 37.979417026 -0.053587049 0 230 252
4.678018791 37.882173427 -0.051037835 0 230 252
4.678365148 37.785391152 -0.055892545 0 230 252
4.678999964 37.688657404 -0.061545035 0 230 252
4.678881015 37.591793242 -0.065109029 0 230 252
4.677451091 37.494704249 -0.065041370 0 230 252
4.675527617 37.397531393 -0.063605771 0 230 252
4.674211172 37.300462589 -0.063850156 0 230 252
4.672919486 37.203398244 -0.064162001 0 230 252
4.672300986 37.106448215 -0.066337081 0 230 252
4.674670772 37.010003173 -0.076786961 0 230 252
4.678685363 36.913833043 -0.091791048 0 230 252
4.677087203 36.816714368 -0.091249833 0 230 252
4.668965279 36.718500595 -0.072640047 0 230 252
4.660074559 36.620163468 -0.051899787 0 230 252
4.651826646 36.521939845 -0.032938472 0 230 252
4.645048612 36.423966935 -0.018046727 0 230 252
4.641180730 36.326482721 -0.011213502 0 230 249
4.640436585 36.229519323 -0.013030451 0 230 249
4.641624907 36.132875837 -0.020198406 0 230 252
4.643237724 36.036300840 -0.028540995 0 230 252
4.643791372 35.939549226 -0.033949090 0 230 252
4.643139225 35.842598091 -0.036016551 0 230 252
4.642704038 35.745682307 -0.038683819 0 230 252
4.641969486 35.648717088 -0.040520870 0 230 252
4.639408591 35.551453352 -0.037298503 0 230 252
4.634960412 35.453883263 -0.028847852 0 230 252
4.631542469 35.356483321 -0.023249428 0 230 252
4.630672497 35.259498517 -0.024706931 0 230 252
4.630302748 35.162594570 -0.027548804 0 230 252
4.627555790 35.065306391 -0.023805401 0 230 252
4.623951584 34.967881498 -0.017686501 0 230 252
4.625578728 34.871299125 -0.026055938 0 230 252
4.630765307 34.775285285 -0.044283126 0 230 252
4.633171029 34.678822054 -0.054807045 0 230 252
4.347648410 16.335808789 0.026419196 0 230 249
4.337718891 14.881663187 -0.000717544 0 230 249
4.336140962 14.784643482 0.000021720 0 230 249
4.337726881 14.687880721 -0.008009974 0 230 249
4.339623861 14.591141081 -0.016903078 0 230 252
4.338495907 14.494156302 -0.017408141 0 230 252
4.337075746 14.397148267 -0.017101907 0 230 252
4.337101573 14.300255571 -0.020803777 0 230 252
4.336089051 14.203279897 -0.021625567 0 230 252
4.333164503 14.106153614 -0.017144809 0 230 252
4.330023902 14.009011870 -0.012063840 0 230 249
4.327602653 13.911927883 -0.008976255 0 230 249
4.325191548 13.814845772 -0.005915649 0 230 249
4.323764654 13.717840766 -0.005582853 0 230 249
4.325446006 13.621074987 -0.013867323 0 230 249
4.329479596 13.524487046 -0.028672952 0 230 252
4.332255266 13.427799531 -0.039989680 0 230 252
4.330518875 13.330767513 -0.038794400 0 230 252
4.326145323 13.233537407 -0.030285663 0 230 252
4.322904897 13.136394808 -0.024917673 0 230 252
4.320440104 13.039311758 -0.021699212 0 230 252
4.316905750 12.942150492 -0.015513875 0 230 252
4.313142184 12.844974252 -0.008691783 0 230 249
4.310801449 12.747904584 -0.005813837 0 230 249
4.310609402 12.650992861 -0.008892811 0 230 249
4.311502213 12.554159331 -0.014978901 0 230 252
4.312289089 12.457316695 -0.020770181 0 230 252
4.313408993 12.360496629 -0.027483863 0 230 252
4.314400074 12.263665729 -0.033839273 0 230 252
4.312392111 12.166620026 -0.031877419 0 230 252
4.306764329 12.069319059 -0.019876783 0 230 252
4.301505619 11.972047601 -0.008898342 0 230 249
4.299749317 11.875024453 -0.007630833 0 230 249
4.300980777 11.778209781 -0.014647285 0 230 252
4.302499792 11.681413297 -0.022460084 0 230 252
4.303226957 11.584560391 -0.028076012 0 230 252
4.303966237 11.487706990 -0.033724471 0 230 252
4.304709565 11.390852531 -0.039383095 0 230 252
4.304025477 11.293900146 -0.041082319 0 230 252
4.300347904 11.196746103 -0.034479240 0 230 252
4.301509333 11.099917846 -0.041294029 0 230 252
4.294301246 11.002531206 -0.024898118 0 230 252
4.291342415 10.905430346 -0.020284671 0 230 252
4.290720045 10.808484614 -0.022149405 0 230 252
4.288528213 10.711435997 -0.019660671 0 230 252
4.284066285 10.614240766 -0.010875427 0 230 249
4.280858321 10.517129197 -0.005566454 0 230 249
4.280784217 10.420220574 -0.008947128 0 230 249
4.283008695 10.323457975 -0.018701175 0 230 252
4.284556939 10.226649994 -0.026578849 0 230 252
4.286624404 10.129872807 -0.035895407 0 230 252
4.289714613 10.033157382 -0.048047266 0 230 252
4.291809847 9.936376829 -0.057438796 0 230 252
4.291156617 9.839423714 -0.059207033 0 230 252
4.287824480 9.742305475 -0.053544770 0 230 252
4.283396692 9.645122016 -0.044842757 0 230 252
4.279381937 9.547966281 -0.037285010 0 230 252
4.277135509 9.450919643 -0.034630236 0 230 252
4.276183868 9.353951652 -0.035565214 0 230 252
4.275536031 9.257001736 -0.037341643 0 230 252
4.275775803 9.160104129 -0.041578644 0 230 252
4.277321817 9.063282452 -0.049437285 0 230 252
4.279029584 8.966468279 -0.057743493 0 230 252
4.279223949 8.869564115 -0.061851367 0 230 252
4.276678648 8.772500933 -0.058359888 0 230 252
4.272221867 8.675329358 -0.049565871 0 230 252
4.268287467 8.578190173 -0.042219450 0 230 252
4.265335296 8.481108788 -0.037596023 0 230 252
4.262882100 8.384056925 -0.034355335 0 230 252
4.260211625 8.286994050 -0.030510869 0 230 252
4.257630094 8.189937380 -0.026911936 0 230 252
4.255881700 8.092927763 -0.025622577 0 230 252
4.255372287 7.995986418 -0.027768448 0 230 252
4.256424480 7.899129425 -0.034244420 0 230 252
4.257983364 7.802298155 -0.042124681 0 230 252
4.257875519 7.705375761 -0.045381089 0 230 252
4.256057446 7.608361850 -0.043892933 0 230 252
4.254486865 7.511361612 -0.043090090 0 230 252
4.255652587 7.414505036 -0.049875587 0 230 252
4.259267609 7.317774064 -0.063453498 0 230 252
4.262762426 7.221033351 -0.076697019 0 230 252
4.264722255 7.124210607 -0.085682010 0 230 252
4.263505431 7.027224182 -0.085854965 0 230 252
4.257386093 6.929990695 -0.072428749 0 230 252
4.249837187 6.832689584 -0.055036085 0 230 252
4.244654285 6.735510988 -0.044204757 0 230 252
4.242106774 6.638465460 -0.040682067 0 230 252
4.240429228 6.541463652 -0.039571286 0 230 252
4.239074293 6.444478009 -0.039354217 0 230 252
4.239093839 6.347558785 -0.042948528 0 230 252
4.240927160 6.250725376 -0.051572773 0 230 252
4.243085580 6.153905188 -0.061097746 0 230 252
4.241237034 6.056894330 -0.059507121 0 230 252
4.233847869 5.959625946 -0.042546646 0 230 252
4.225730750 5.862328812 -0.023565662 0 230 252
4.220969506 5.765190928 -0.013892076 0 230 249
4.220418266 5.668247251 -0.015895267 0 230 252
4.221488622 5.571376300 -0.022395470 0 230 252
4.220861070 5.474427893 -0.024184802 0 230 252
4.216899758 5.377331521 -0.016725490 0 230 252
4.211583331 5.280177905 -0.005506005 0 230 249
4.208806805 5.183138156 -0.001330812 0 230 249
4.211135110 5.086320021 -0.011314993 0 230 249
4.217427242 4.989668840 -0.032293660 0 230 252
4.223764711 4.893013986 -0.053397177 0 230 252
4.226797931 4.796214731 -0.065333830 0 230 252
4.224510119 4.699190948 -0.062508924 0 230 252
4.216627873 4.601937481 -0.044163823 0 230 252
4.207298273 4.504630162 -0.021802419 0 230 252
4.204678845 4.407600746 -0.018053987 0 230 252
4.208289236 4.310822266 -0.031586269 0 230 252
4.211548891 4.214026321 -0.044144600 0 230 252
4.211914992 4.117113346 -0.048674973 0 230 252
4.209522638 4.020091926 -0.045552046 0 230 252
4.204710034 3.922978270 -0.035713929 0 230 252
4.207294056 3.826149824 -0.046393758 0 230 252
4.204469269 3.729114269 -0.042067790 0 230 252
4.205470217 3.632223183 -0.048353831 0 230 252
4.199862308 3.535085927 -0.036304749 0 230 252
4.203044551 3.438274199 -0.048639889 0 230 252
4.201003977 3.341269937 -0.046484928 0 230 252
4.199426939 3.244283090 -0.045614773 0 230 252
4.185618120 3.146862667 -0.010809835 0 230 249
4.174983881 3.049563481 0.015189531 0 230 249
4.170702148 2.952492204 0.023566852 0 230 249
4.172489513 2.855631803 0.015108112 0 230 249
4.177486243 2.758878214 -0.002253250 0 230 249
4.183079170 2.662140032 -0.021267686 0 230 252
4.188295312 2.565384286 -0.039235874 0 230 252
4.193084187 2.468609753 -0.056017744 0 230 252
4.192933265 2.371670647 -0.059094041 0 230 252
4.188732262 2.274601147 -0.050932939 0 230 252
4.182697378 2.177476052 -0.037682797 0 230 252
4.175029691 2.080303757 -0.019901409 0 230 252
4.170393900 1.983230200 -0.010530369 0 230 249
4.171888925 1.886346408 -0.018167431 0 230 252
4.175138931 1.789513549 -0.030672488 0 230 252
4.175730806 1.692598390 -0.035801767 0 230 252
4.174434935 1.595626599 -0.035692545 0 230 252
4.175829045 1.498732944 -0.043045421 0 230 252
4.180863252 1.401941489 -0.060496570 0 230 252
4.184937689 1.305118335 -0.075283911 0 230 252
4.182761263 1.208117407 -0.072727311 0 230 252
4.178632174 1.111063805 -0.064751895 0 230 252
4.175795512 1.014047554 -0.060361143 0 230 252
4.174059285 0.917062046 -0.059022422 0 230 252
4.172961808 0.820093881 -0.059454808 0 230 252
4.173132534 0.723158629 -0.063404788 0 230 252
4.175358939 0.626274922 -0.073057318 0 230 252
4.177452895 0.529385404 -0.082341332 0 230 252
4.176135095 0.432409067 -0.082158058 0 230 252
4.173652334 0.335404578 -0.078741347 0 230 252
4.171188356 0.238401667 -0.075375600 0 230 252
4.167659905 0.141374748 -0.069055172 0 230 252
4.162285077 0.044306894 -0.057610502 0 230 252
4.155809020 -0.052782760 -0.043109059 0 230 252
4.149981649 -0.149853661 -0.030406253 0 230 252
4.147207984 -0.246853489 -0.026175306 0 230 252
4.146826897 -0.343800089 -0.028581907 0 230 252
4.147230726 -0.440730456 -0.033165335 0 230 252
4.147290456 -0.537669106 -0.036792905 0 230 252
4.146247842 -0.634631212 -0.037360666 0 230 252
4.144600867 -0.731605473 -0.036250353 0 230 252
4.143907573 -0.828560397 -0.037785162 0 230 252
4.146140768 -0.925458846 -0.047439262 0 230 252
4.152134525 -1.022288338 -0.067527155 0 230 252
4.159973753 -1.119088850 -0.092734975 0 230 252
4.163706128 -1.215971026 -0.106546098 0 230 252
4.159239969 -1.313003171 -0.097606583 0 230 252
4.148658855 -1.410139467 -0.071697728 0 230 252
4.134465346 -1.507330132 -0.035763571 0 230 252
4.123153349 -1.604462575 -0.007823808 0 230 249
4.121121409 -1.701435718 -0.005633872 0 230 249
4.124075846 -1.798328642 -0.017279552 0 230 252
4.125821976 -1.895243395 -0.025571266 0 230 252
4.125043493 -1.992198550 -0.026856293 0 230 252
4.126517248 -2.089120595 -0.034390070 0 230 252
4.131777987 -2.185990025 -0.052431556 0 230 252
4.136983496 -2.282865042 -0.070318837 0 230 252
4.140225531 -2.379771592 -0.082756545 0 230 252
4.140700352 -2.476718064 -0.087514219 0 230 252
4.139540503 -2.573686708 -0.087734578 0 230 252
4.139155071 -2.670645575 -0.090102852 0 230 252
4.136295428 -2.767634855 -0.085603980 0 230 252
4.131588282 -2.864644361 -0.075977010 0 230 252
4.129426278 -2.961622199 -0.073411788 0 230 252
4.131996217 -3.058547361 -0.083976980 0 230 252
4.135787832 -3.155462367 -0.097931433 0 230 252
4.135872269 -3.252418797 -0.101597057 0 230 252
4.130906345 -3.349425545 -0.091246195 0 230 252
4.123534585 -3.446451909 -0.074217578 0 230 252
4.118416401 -3.543453050 -0.063441699 0 230 252
4.118790817 -3.640403558 -0.067907494 0 230 252
4.121338404 -3.737337177 -0.078403161 0 230 252
4.120794837 -3.834297883 -0.080319252 0 230 252
4.119314606 -3.931265973 -0.079634805 0 230 252
4.119838051 -4.028219458 -0.084509880 0 230 252
4.125928784 -4.125136666 -0.104834430 0 230 252
4.130884191 -4.222066528 -0.122007246 0 230 252
4.127250591 -4.319052172 -0.115342346 0 230 252
4.117888497 -4.416067759 -0.092778100 0 230 252
4.107252411 -4.513083564 -0.066676815 0 230 252
4.108595171 -4.610034364 -0.073819110 0 230 252
4.107822437 -4.706996340 -0.075089186 0 230 252
4.112091898 -4.803938115 -0.090351922 0 230 252
4.108102532 -4.900914173 -0.082692587 0 230 252
4.111648090 -4.997863263 -0.095944182 0 230 252
4.111162805 -5.094827514 -0.098007695 0 230 252
4.107488316 -5.191800177 -0.091218839 0 230 252
4.104378093 -5.288769601 -0.085994862 0 230 252
4.113240204 -5.385716561 -0.113997889 0 230 252
4.113621375 -5.482682624 -0.118461844 0 230 252
4.113735337 -5.579650020 -0.122183102 0 230 252
4.112664348 -5.676618986 -0.122614498 0 230 252
4.111244775 -5.773587984 -0.122077301 0 230 252
4.111563163 -5.870556979 -0.126362656 0 230 252
4.111067167 -5.967526544 -0.128386616 0 230 252
4.108084871 -6.064494167 -0.123508733 0 230 252
4.102402931 -6.161456703 -0.111136763 0 230 252
4.096570716 -6.258415405 -0.098346463 0 230 252
4.093382149 -6.355375948 -0.092892494 0 230 252
4.092882059 -6.452341485 -0.094899387 0 230 252
4.094025035 -6.549312120 -0.101465635 0 230 252
4.095706689 -6.646286161 -0.109525979 0 230 252
4.096052787 -6.743257430 -0.113878310 0 230 252
4.091918545 -6.840211774 -0.105793863 0 230 252
4.087153190 -6.937160955 -0.095956482 0 230 252
4.086760023 -7.034128154 -0.098253522 0 230 252
4.088586128 -7.131107289 -0.106709404 0 230 252
4.088370544 -7.228077285 -0.109497195 0 230 252
4.085250191 -7.325030676 -0.104221173 0 230 252
4.081440718 -7.421978105 -0.097031197 0 230 252
4.078690964 -7.518930489 -0.092781502 0 230 252
4.075503379 -7.615878447 -0.087315353 0 230 252
4.070063920 -7.712807935 -0.075597419 0 230 252
4.063894551 -7.809728304 -0.061852206 0 230 252
4.061287191 -7.906674041 -0.057993041 0 230 252
4.064109787 -8.003665336 -0.069205075 0 230 252
4.070924401 -8.100695499 -0.091497114 0 230 252
4.078037368 -8.197734472 -0.114616420 0 230 252
4.083242633 -8.294761058 -0.132439400 0 230 252
4.084789950 -8.391755296 -0.140107585 0 230 252
4.082295947 -8.488708939 -0.136556645 0 230 252
4.079752568 -8.585660913 -0.132867491 0 230 252
4.078558465 -8.682626966 -0.132922602 0 230 252
4.075805130 -8.779574668 -0.128648345 0 230 252
4.070824633 -8.876494167 -0.118190547 0 230 252
4.066745112 -8.973421845 -0.110232566 0 230 252
4.065067386 -9.070378002 -0.108940594 0 230 252
4.064129860 -9.167343439 -0.109702245 0 230 252
4.062083979 -9.264293866 -0.107386046 0 230 252
4.058850666 -9.361226900 -0.101772431 0 230 252
4.055924272 -9.458162647 -0.097009646 0 230 252
4.055228339 -9.555129838 -0.098437445 0 230 252
4.056393373 -9.652125447 -0.105030201 0 230 252
4.056879752 -9.749112202 -0.109737943 0 230 252
4.055749335 -9.846074402 -0.109956331 0 230 252
4.054408337 -9.943033088 -0.109589019 0 230 252
4.051911007 -10.039972252 -0.106010539 0 230 252
4.046334837 -10.136857776 -0.093883812 0 230 252
4.040917134 -10.233742569 -0.082195769 0 230 252
4.039718156 -10.330699175 -0.082218109 0 230 252
4.041323767 -10.427706707 -0.090025198 0 230 252
4.042231350 -10.524703279 -0.095893431 0 230 252
4.042721099 -10.621693405 -0.100600634 0 230 252
4.045255283 -10.718724267 -0.110982441 0 230 252
4.049707454 -10.815795720 -0.126687889 0 230 252
4.051272536 -10.912813275 -0.134377286 0 230 252
4.046981576 -11.009712719 -0.125808107 0 230 252
4.039733199 -11.106547869 -0.109027317 0 230 252
4.030816852 -11.203342754 -0.087614589 0 230 252
4.022662092 -11.300148078 -0.068314879 0 230 252
4.022294368 -11.397119579 -0.070632637 0 230 252
4.029050088 -11.494251340 -0.092725869 0 230 252
4.037460012 -11.591426805 -0.119410728 0 230 252
4.042612953 -11.688533966 -0.137052395 0 230 252
4.040299156 -11.785469817 -0.133963174 0 230 252
4.033466599 -11.882296401 -0.118327285 0 230 252
4.028724464 -11.979169418 -0.108493832 0 230 252
4.029278141 -12.076170545 -0.113362174 0 230 252
4.032819720 -12.173247917 -0.126524939 0 230 252
4.034271064 -12.270275500 -0.133883442 0 230 252
4.031448367 -12.367194369 -0.129374510 0 230 252
4.027156114 -12.464073260 -0.120784340 0 230 252
4.025901066 -12.561030579 -0.120625510 0 230 252
4.029206755 -12.658111007 -0.133128114 0 230 252
4.034765463 -12.755256527 -0.151885097 0 230 252
4.040039086 -12.852399175 -0.169849620 0 230 252
4.042973333 -12.949480727 -0.181318002 0 230 252
4.040826653 -13.046420171 -0.178678279 0 230 252
4.035091697 -13.143254869 -0.166074585 0 230 252
4.030162618 -13.240109593 -0.155707181 0 230 252
4.027303078 -13.337022825 -0.151084674 0 230 252
4.025522927 -13.433967140 -0.149457969 0 230 252
4.022583017 -13.530875520 -0.144610007 0 230 252
4.020961318 -13.627823123 -0.143420973 0 230 252
4.024968284 -13.724946186 -0.157859228 0 230 252
4.032033331 -13.822169862 -0.180787535 0 230 252
4.037186777 -13.919338537 -0.198407196 0 230 252
4.037786375 -14.016364387 -0.203381626 0 230 252
4.031536091 -14.113166885 -0.189335404 0 230 252
4.019476796 -14.209772671 -0.159158384 0 230 252
4.015339316 -14.306635818 -0.150976110 0 230 252
4.008771709 -14.403414096 -0.136044981 0 230 252
4.006925880 -14.500350193 -0.134223470 0 230 252
4.007020974 -14.597353026 -0.137790184 0 230 252
4.008407293 -14.694402032 -0.144941173 0 230 252
4.011677172 -14.791519711 -0.157321241 0 230 252
4.017358904 -14.888727177 -0.176397395 0 230 252
4.013107934 -14.985579797 -0.167891982 0 230 252
4.013447447 -15.082598079 -0.172132059 0 230 252
4.016748444 -15.179727019 -0.184594443 0 230 252
4.005676531 -15.276321806 -0.157145266 0 230 252
3.995185270 -15.372930817 -0.131307064 0 230 252
3.990735396 -15.469763119 -0.122243329 0 230 252
3.993652832 -15.566876779 -0.133636166 0 230 252
3.998193832 -15.664056673 -0.149536386 0 230 252
3.998675987 -15.761081272 -0.154164805 0 230 252
3.996767079 -15.858012108 -0.152152480 0 230 252
3.997286791 -15.955039613 -0.156883017 0 230 252
4.000521218 -16.052178159 -0.169150975 0 230 252
4.001061125 -16.149209908 -0.173935491 0 230 252
3.997410997 -16.246070088 -0.167083520 0 230 252
3.994610882 -16.342963631 -0.162590803 0 230 252
3.995323400 -16.440003350 -0.167851343 0 230 252
3.994878286 -16.536995339 -0.169896114 0 230 252
3.989374263 -16.633771408 -0.157891302 0 230 252
3.982783845 -16.730497160 -0.142868347 0 230 252
3.979718213 -16.827372100 -0.137632485 0 230 252
3.981160951 -16.924443490 -0.144915292 0 230 252
3.984827994 -17.021615325 -0.158374024 0 230 252
3.987599712 -17.118750755 -0.169345413 0 230 252
3.989133833 -17.215833321 -0.176878910 0 230 252
3.989679526 -17.312872924 -0.181666427 0 230 252
3.988641212 -17.409841123 -0.182053949 0 230 252
3.987291838 -17.506794938 -0.181576518 0 230 252
3.987504178 -17.603821295 -0.185435024 0 230 252
3.985159023 -17.700728423 -0.182189964 0 230 252
3.978559895 -17.797433001 -0.167129872 0 230 252
3.972423960 -17.894155425 -0.153354878 0 230 252
3.968815159 -17.990995595 -0.146596913 0 230 252
3.967958919 -18.087967363 -0.147482128 0 230 252
3.968477167 -18.185006492 -0.152183460 0 230 252
3.969275280 -18.282060607 -0.157660966 0 230 252
3.970253079 -18.379125053 -0.163636439 0 230 252
3.971020043 -18.476180484 -0.169025317 0 230 252
3.971365935 -18.573216054 -0.173243709 0 230 252
3.972083969 -18.670271597 -0.178494567 0 230 252
3.973867611 -18.767383059 -0.186703845 0 230 252
3.976313812 -18.864530870 -0.196752210 0 230 252
3.978547615 -18.961670310 -0.206209663 0 230 252
3.979125230 -19.058725524 -0.211066334 0 230 252
3.976995267 -19.155639143 -0.208402105 0 230 252
3.973059337 -19.252455956 -0.200720943 0 230 252
3.969671296 -19.349299860 -0.194560275 0 230 252
3.966988359 -19.446179962 -0.190356769 0 230 252
3.963706378 -19.543026274 -0.184488334 0 230 252
3.960201659 -19.639858680 -0.178000097 0 230 252
3.958455715 -19.736786017 -0.176395521 0 230 252
3.959933460 -19.833891527 -0.183743368 0 230 252
3.964079773 -19.931147936 -0.198501951 0 230 252
3.967522388 -20.028368767 -0.211305078 0 230 252
3.965734250 -20.125297013 -0.209578986 0 230 252
3.957152429 -20.221837599 -0.188982460 0 230 252
3.944129228 -20.318117627 -0.156048729 0 230 252
3.931419473 -20.414406544 -0.123984161 0 230 252
3.925862368 -20.511102264 -0.111784783 0 230 252
3.928316965 -20.608263292 -0.121836930 0 230 252
3.933456183 -20.705585112 -0.139344714 0 230 252
3.932203781 -20.802532774 -0.139098458 0 230 252
3.914631711 -20.898506560 -0.093522034 0 230 252
3.884283122 -20.993700433 -0.012456188 0 230 249
3.849055587 -21.088576943 0.082163313 0 230 249
3.802002063 -21.182707980 0.209632856 0 231 246
3.777238235 -21.278167807 0.275192313 0 231 246
3.770559617 -21.374723171 0.290519334 0 231 246
3.770034830 -21.471655540 0.288754411 0 231 246
3.773260874 -21.568822171 0.276572027 0 231 246
3.780236802 -21.666227328 0.253974664 0 231 246
3.782382567 -21.763333754 0.244794904 0 231 246
3.779204989 -21.860104563 0.250402849 0 231 246
3.772571690 -21.956652942 0.265610988 0 231 246
3.767176095 -22.053276569 0.277382376 0 231 246
3.768043050 -22.150301761 0.271759213 0 231 246
3.770474140 -22.247430145 0.261792318 0 231 246
3.770636470 -22.344412756 0.258128538 0 231 246
3.769143274 -22.441287335 0.259064536 0 231 246
3.766486468 -22.538084537 0.263233931 0 231 246
3.762218526 -22.634773227 0.271879913 0 231 246
3.756486270 -22.731361377 0.284594703 0 231 246
3.749439984 -22.827857423 0.300960897 0 231 246
3.741784854 -22.924307613 0.319019638 0 231 246
3.735466500 -23.020843768 0.333366281 0 231 246
3.732892671 -23.117632354 0.337312331 0 231 246
3.734251839 -23.214690670 0.330334081 0 231 246
3.737851505 -23.311906014 0.317132978 0 231 246
3.741304767 -23.409114720 0.304339556 0 231 246
3.743181937 -23.506216492 0.295925407 0 231 246
3.744704109 -23.603295502 0.288498452 0 231 246
3.748860559 -23.700562989 0.273754616 0 231 246
3.752348392 -23.797786867 0.260869149 0 231 246
3.748361547 -23.894479246 0.268749239 0 231 246
3.736565654 -23.990607454 0.298324067 0 231 246
3.725578658 -24.086785908 0.325653166 0 231 246
3.718105944 -24.183212286 0.343220862 0 231 246
3.713055357 -24.279810793 0.354061068 0 231 246
3.706739620 -24.376313236 0.368417150 0 231 246
3.705411498 -24.473180085 0.368918543 0 231 246
3.692467290 -24.569184095 0.401691498 0 231 243
3.680764139 -24.665271592 0.431018102 0 231 243
3.678048415 -24.762025204 0.435378051 0 231 243
3.690667712 -24.859933979 0.397136582 0 231 243
3.703062886 -24.957836257 0.359518498 0 231 246
3.712698107 -25.055538599 0.329568725 0 231 246
3.711781196 -25.152441211 0.328935318 0 231 246
3.705089344 -25.248899533 0.344346817 0 231 246
3.697253663 -25.345265051 0.362937351 0 231 246
3.697529403 -25.442255746 0.358994001 0 231 246
3.691068492 -25.538721301 0.373767600 0 231 246
3.689220123 -25.635544707 0.375727749 0 231 246
3.690726470 -25.732632077 0.368368809 0 231 246
3.695471303 -25.829978064 0.352013565 0 231 246
3.700439081 -25.927346249 0.335039871 0 231 246
3.698483614 -26.024165024 0.337301862 0 231 246
3.686947313 -26.120212720 0.366183390 0 231 246
3.674759769 -26.216199732 0.396875663 0 231 243
3.671648361 -26.312914937 0.402352898 0 231 243
3.678486112 -26.410440002 0.380189175 0 231 246
3.688357285 -26.508219689 0.349598439 0 231 246
3.696288543 -26.605848048 0.324398309 0 231 246
3.698402938 -26.703002166 0.315360485 0 231 246
3.705548473 -26.800576780 0.292345214 0 231 246
3.704419449 -26.897466907 0.292320900 0 231 246
3.694123150 -26.993588140 0.317768215 0 231 246
3.691632242 -27.090359861 0.321530145 0 231 246
3.689536603 -27.187163917 0.324194990 0 231 246
3.693018363 -27.284441341 0.311364400 0 231 246
3.696074329 -27.381685873 0.299717854 0 231 246
3.696757472 -27.478729991 0.294665156 0 231 246
3.694040264 -27.575482417 0.299061392 0 231 246
3.689710073 -27.672093937 0.307940469 0 231 246
3.686512467 -27.768801392 0.313673827 0 231 246
3.685239118 -27.865675221 0.314061728 0 231 246
3.685492469 -27.962682771 0.310208729 0 231 246
3.685297997 -28.059651863 0.307601105 0 231 246
3.680731000 -28.156234731 0.317143971 0 231 246
3.668951900 -28.252174007 0.346727532 0 231 246
3.653814417 -28.347805305 0.385644110 0 231 243
3.643896445 -28.443893590 0.410059139 0 231 243
3.645828548 -28.541041725 0.401548513 0 231 243
3.654789850 -28.638827572 0.373507260 0 231 246
3.663433443 -28.736592262 0.346349652 0 231 246
3.665855798 -28.833797218 0.336479674 0 231 246
3.664675439 -28.930674998 0.336621520 0 231 246
3.662046791 -29.027419516 0.340788834 0 231 246
3.656841309 -29.123924916 0.352117582 0 231 246
3.651130762 -29.220380290 0.364850983 0 231 246
3.652694836 -29.317509258 0.357371341 0 231 246
3.658567512 -29.415042967 0.337920194 0 231 246
3.660581672 -29.512219834 0.329191883 0 231 246
3.655471852 -29.608727666 0.340260568 0 231 246
3.649188267 -29.705121298 0.354592118 0 231 246
3.651340066 -29.802312351 0.345484614 0 231 246
3.658953812 -29.900026899 0.321200367 0 231 246
3.662137239 -29.997323763 0.309228111 0 231 246
3.655478822 -30.093677438 0.324605822 0 231 246
3.639251602 -30.189102940 0.366575155 0 231 246
3.617798273 -30.284010183 0.423068696 0 231 243
3.617022459 -30.380914008 0.422103415 0 231 243
3.648347340 -30.480954321 0.331934604 0 231 246
3.663854743 -30.579468044 0.285721441 0 231 246
