ply
format ascii 1.0
comment coordinate_system ground
comment units millimeter
element vertex 1248
property double x
property double y
property double z
property uchar red
property uchar green
property uchar blue
comment color_mapping zg_high_contrast_from_zg
comment color_zg_range_mm -0.181888947 0.504665806
end_header
6.411491515 147.079214868 0.192117270 243 233 0
6.414162771 146.984269398 0.179728022 241 237 0
6.415078459 146.888268414 0.172173086 240 239 0
6.412423722 146.790126691 0.174449307 240 239 0
6.408731730 146.691364882 0.179582341 241 237 0
6.404388723 146.592215264 0.186508800 242 234 0
6.398636928 146.492225482 0.197315099 244 231 0
6.391022563 146.391125987 0.213250703 247 225 0
6.385124220 146.291055932 0.224462639 248 222 0
6.382937209 146.193204142 0.225457040 248 222 0
6.383520719 146.097005279 0.218824134 247 223 0
6.385195106 146.001455067 0.209188497 246 227 0
6.385979653 145.905372447 0.202003776 245 229 0
6.385571428 145.808578109 0.198104106 244 231 0
6.385177989 145.711791778 0.194164623 243 232 0
6.383831150 145.614437841 0.192851165 243 233 0
6.380461568 145.515882056 0.197108168 244 231 0
6.374661185 145.415884445 0.208059294 246 227 0
6.366560483 145.314525205 0.225345378 248 222 0
6.358588887 145.213247584 0.242277101 252 215 0
6.363848245 145.119815731 0.222778309 248 223 0
6.365587141 145.024293862 0.212973946 247 225 0
6.361630033 144.925398394 0.218854626 247 223 0
6.366036306 144.831451536 0.201707237 245 229 0
6.367398214 144.735700743 0.192943492 243 233 0
6.365759389 144.638175259 0.192443384 243 233 0
6.361080100 144.538855052 0.200316450 244 230 0
6.365250454 144.444758165 0.183821990 242 235 0
6.363318039 144.347059007 0.184133093 242 235 0
6.363846550 144.250810184 0.177668614 241 237 0
6.364200480 144.154457079 0.171685745 239 240 0
6.364207070 144.057898233 0.166660222 238 242 0
6.363434309 143.960880000 0.163781680 238 243 0
6.361658288 143.863271684 0.163666739 238 243 0
6.359281585 143.765310858 0.165206858 238 242 0
6.357675317 143.667802934 0.164626359 238 242 0
6.356348216 143.570458889 0.163278041 238 243 0
6.352277729 143.471506734 0.169485309 239 240 0
6.345062284 143.370714370 0.184354132 242 235 0
6.336423944 143.269093463 0.203142433 245 229 0
6.331099938 143.169416962 0.212804820 247 225 0
6.333527221 143.074275068 0.201122519 244 230 0
6.336482596 142.979438790 0.187986755 242 234 0
6.331065970 142.879711027 0.197907122 244 231 0
6.322942061 142.778406635 0.215284064 247 224 0
6.316671373 142.678187975 0.227558575 249 221 0
6.312803035 142.579372929 0.233218321 250 219 0
6.310638268 142.481551824 0.234187577 250 218 0
6.310016174 142.384629082 0.230909368 249 220 0
6.310628564 142.288423704 0.224232365 248 222 0
6.312503863 142.192950804 0.214078229 247 225 0
6.315401549 142.098069242 0.201109298 244 230 0
6.316077669 142.001894902 0.194259357 243 232 0
6.312143963 141.903044961 0.200105801 244 230 0
6.305904478 141.802860306 0.212303435 246 226 0
6.301443352 141.703709548 0.219604477 247 223 0
6.301707864 141.607296924 0.213891879 247 225 0
6.304408699 141.512292566 0.201470362 244 230 0
6.304278909 141.415648512 0.196845444 244 231 0
6.300885522 141.317117821 0.201209705 244 230 0
6.297727775 141.218724709 0.204925982 245 228 0
6.297396595 141.121963945 0.200858514 244 230 0
6.299043412 141.026342980 0.191344264 243 233 0
6.297846816 140.929081134 0.189662078 242 234 0
6.290943347 140.828532616 0.203698553 245 229 0
6.282571112 140.727143000 0.221781397 248 223 0
6.282086800 140.630295256 0.218140429 247 223 0
6.287480542 140.536825223 0.198310915 244 231 0
6.290645310 140.442069781 0.184621262 242 235 0
6.291901031 140.346215108 0.176190403 240 238 0
6.292001153 140.249695565 0.170943233 239 240 0
6.289574647 140.151726558 0.172656001 240 239 0
6.283648733 140.051753715 0.184008143 242 235 0
6.277243102 139.951509701 0.196682654 244 231 0
6.273991208 139.853073718 0.200671838 244 230 0
6.273922374 139.756458933 0.195894792 243 232 0
6.274862069 139.660419350 0.188340798 242 234 0
6.275547710 139.564232950 0.181487438 241 236 0
6.273461901 139.466463683 0.182268599 241 236 0
6.267651810 139.366571418 0.193308888 243 233 0
6.260090321 139.265684566 0.209174327 246 227 0
6.260557171 139.169373961 0.202927395 245 229 0
6.254053100 139.069095180 0.215882373 247 224 0
6.249221746 138.969771516 0.224231015 248 222 0
6.246274858 138.871521396 0.227389989 249 221 0
6.245683768 138.774610342 0.224060931 248 222 0
6.246578496 138.678541933 0.216640105 247 224 0
6.247772909 138.582641766 0.208394666 246 227 0
6.250372976 138.487536324 0.196278173 244 231 0
6.254398536 138.393235242 0.180235916 241 236 0
6.256984185 138.298115062 0.168160769 239 241 0
6.255096570 138.200461690 0.168408409 239 241 0
6.248050829 138.099893112 0.182865553 242 235 0
6.239213999 137.998317131 0.202257563 245 229 0
6.231413118 137.897331609 0.218797094 247 223 0
6.224053000 137.796599618 0.234123620 250 218 0
6.217331318 137.696232089 0.247692600 252 213 0
6.214705681 137.598176114 0.249979440 253 212 0
6.216040787 137.502350853 0.241356670 251 216 0
6.219151625 137.407522539 0.227843157 249 221 0
6.223146656 137.313187922 0.211894760 246 226 0
6.227238201 137.218903458 0.195681284 243 232 0
6.229447321 137.123557978 0.184654190 242 235 0
6.228090730 137.026209203 0.183450607 242 235 0
6.224700078 136.927719967 0.187851352 242 234 0
6.222296645 136.829785421 0.189533523 242 234 0
6.221980726 136.733020517 0.185465986 242 235 0
6.222025653 136.636456733 0.180405302 241 236 0
6.220983482 136.539284024 0.178340300 241 237 0
6.219262321 136.441731675 0.178146750 241 237 0
6.217885394 136.344371829 0.177005842 240 238 0
6.217725223 136.247690979 0.172513870 240 239 0
6.217188664 136.150799337 0.169059722 239 241 0
6.213951964 136.052402398 0.173045139 240 239 0
6.208952247 135.953025110 0.181888533 241 236 0
6.202558399 135.852874769 0.194573731 243 232 0
6.195186834 135.752184541 0.209953596 246 226 0
6.188927745 135.652117144 0.222269755 248 223 0
6.185931844 135.553865726 0.225596986 248 222 0
6.184780190 135.456639083 0.223844325 248 222 0
6.183849007 135.359534570 0.221485209 248 223 0
6.184507805 135.263310941 0.214746594 247 225 0
6.188994161 135.169205640 0.197463790 244 231 0
6.196439916 135.076733811 0.172028456 239 240 0
6.200436891 134.982347861 0.156095448 237 245 0
6.197091629 134.883899826 0.160391722 238 244 0
6.189620958 134.783174788 0.176054927 240 238 0
6.183121746 134.682990601 0.189042785 242 234 0
6.181891264 134.585716343 0.187515712 242 234 0
6.183246740 134.489867325 0.178864900 241 237 0
6.182224187 134.392706456 0.176766813 240 238 0
6.176976490 134.293219770 0.186310679 242 234 0
6.170301427 134.192950963 0.199788283 244 230 0
6.169339250 134.095826337 0.197526827 244 231 0
6.172666086 134.001057278 0.183449141 242 235 0
6.174407877 133.905414658 0.173739442 240 239 0
6.174314787 133.808763247 0.169086162 239 241 0
6.173859128 133.711912164 0.165432772 238 242 0
6.171302172 133.613909428 0.167569974 239 241 0
6.166334751 133.514588209 0.176349703 240 238 0
6.163324687 133.416340421 0.179737376 241 237 0
6.162148415 133.319096291 0.178073364 241 237 0
6.169592618 133.226560830 0.152657979 236 246 0
6.168081149 133.129130235 0.151919328 236 246 0
6.166293968 133.031549395 0.151941326 236 246 0
6.164957997 132.934214862 0.150721038 236 246 0
6.162564478 132.836304286 0.152415676 236 246 0
6.158365438 132.737411730 0.159086255 238 244 0
6.152940761 132.637854683 0.169135030 239 241 0
6.147378614 132.538226038 0.179563676 241 237 0
6.143563303 132.439549488 0.185180073 242 235 0
6.141139515 132.341630173 0.186963201 242 234 0
6.135350613 132.241886370 0.198019848 244 231 0
6.124638689 132.139477459 0.222642982 248 223 0
5.810271335 112.170741857 0.106415407 204 255 12
5.810897469 112.074360452 0.099993486 197 255 16
5.809220190 111.976910586 0.099926570 197 255 16
5.806908624 111.879167510 0.101610385 197 255 16
5.805961057 111.782056172 0.099532546 193 255 17
5.805487421 111.685163691 0.096148318 189 255 19
5.803315785 111.587486644 0.097449171 193 255 17
5.800792023 111.489647910 0.099722434 197 255 16
5.799638553 111.392441902 0.098216608 193 255 17
5.799944161 111.295907949 0.092686703 186 255 20
5.800498579 111.199487392 0.086471375 178 255 24
5.799411887 111.102310881 0.084784282 175 255 25
5.796412025 111.004255291 0.088376024 178 255 24
5.793386445 110.906189301 0.092039769 186 255 20
5.790519174 110.808197354 0.095267837 189 255 19
5.787095214 110.709951571 0.100032714 197 255 16
5.783936942 110.611829188 0.104065690 200 255 14
5.781776368 110.514164838 0.105347313 204 255 12
5.780494711 110.416903077 0.104205236 200 255 14
5.779853541 110.319933989 0.101297193 197 255 16
5.780669512 110.223629574 0.094370171 189 255 19
5.781790531 110.127462775 0.086602522 178 255 24
5.781513779 110.030657349 0.082692025 171 255 27
5.778220885 109.932478094 0.087103578 178 255 24
5.771967380 109.832953715 0.099684115 193 255 17
5.775246324 109.737765827 0.085966951 175 255 25
5.777873872 109.642278750 0.074047794 160 255 32
5.776251620 109.544860457 0.073854323 160 255 32
5.782848375 109.451168764 0.050986292 127 255 46
5.785447925 109.355660492 0.039147061 113 255 52
5.781701402 109.257277093 0.044817215 120 255 49
5.770721163 109.155624405 0.070446006 156 255 33
5.762949208 109.055428858 0.087224503 178 255 24
5.749690904 108.952761474 0.119140988 222 255 4
5.743184877 108.853149156 0.132429254 233 253 0
5.743346118 108.756545876 0.127323542 232 255 0
5.747558192 108.661765781 0.111042399 211 255 9
5.750410126 108.566369628 0.098514803 193 255 17
5.750194560 108.469591411 0.094451527 189 255 19
5.753005746 108.374172042 0.082038181 171 255 27
5.760720577 108.280950411 0.056096106 135 255 43
5.769399020 108.188154138 0.027496072 98 255 59
5.771022796 108.092189641 0.018361453 84 255 65
5.764371602 107.992518707 0.032059534 102 255 57
5.755672183 107.891935856 0.051410144 127 255 46
5.748964959 107.792249066 0.065265183 149 255 36
5.744976175 107.693780339 0.071620722 156 255 33
5.742726962 107.596089863 0.073177533 160 255 32
5.742209374 107.499172111 0.069957464 153 255 35
5.743453100 107.403038326 0.061878526 142 255 40
5.744453285 107.306794357 0.054472513 135 255 43
5.743621448 107.209734231 0.052122459 131 255 44
5.740396532 107.111610807 0.056376547 135 255 43
5.736707586 107.013283020 0.061912091 142 255 40
5.735234727 106.915939939 0.061333875 142 255 40
5.735658097 106.819437309 0.055524393 135 255 43
5.735664081 106.722748717 0.050867575 127 255 46
5.733930413 106.625289774 0.051012025 127 255 46
5.732442869 106.527940063 0.050478358 127 255 46
5.733174213 106.431570401 0.043822978 120 255 49
5.734912343 106.335643496 0.034390442 106 255 56
5.735918216 106.239391630 0.026979421 95 255 60
5.735459742 106.142493215 0.023610086 91 255 62
5.734256246 106.045266454 0.022297571 91 255 62
5.731101287 105.947181779 0.026371017 95 255 60
5.723418507 105.847109690 0.042939853 116 255 51
5.713920107 105.746245733 0.064520038 146 255 38
5.705784680 105.645985839 0.082340373 171 255 27
5.700535300 105.546995757 0.092197875 186 255 20
5.698962593 105.449618289 0.091910675 186 255 20
5.700926830 105.353788118 0.081864202 171 255 27
5.704476103 105.258648241 0.067444674 149 255 36
5.707940414 105.163467711 0.053260478 131 255 44
5.709378507 105.067399795 0.044668655 120 255 49
5.708037768 104.970118784 0.043746196 120 255 49
5.707630418 104.873244400 0.040248974 113 255 52
5.709724821 104.777457949 0.029848865 98 255 59
5.713339055 104.682329728 0.015255503 80 255 67
5.715295425 104.586477851 0.005238133 66 255 73
5.712111438 104.488393015 0.009407313 73 255 70
5.704942777 104.388582152 0.024573963 91 255 62
5.696547349 104.288244489 0.043127290 116 255 51
5.688605315 104.188108602 0.060430610 142 255 40
5.683687331 104.089285570 0.069389619 153 255 35
5.683976360 103.992715059 0.063979796 146 255 38
5.688146962 103.897818984 0.047858795 124 255 48
5.692017618 103.802789523 0.032566432 102 255 57
5.692618756 103.706347447 0.026298069 95 255 60
5.689592588 103.608342461 0.030041265 102 255 57
5.683660970 103.509089204 0.041803999 116 255 51
5.675787482 103.409005097 0.058927094 138 255 41
5.672085116 103.310717099 0.064539802 146 255 38
5.662701204 103.209993753 0.085833792 175 255 25
5.657336745 103.110999481 0.096035905 189 255 19
5.658564941 103.014831608 0.088044248 178 255 24
5.666294972 102.921443739 0.062109192 142 255 40
5.675001190 102.828466422 0.033480716 106 255 56
5.674846005 102.731697058 0.029309718 98 255 59
5.668376392 102.632232578 0.042567104 116 255 51
5.662088113 102.532849490 0.055325189 135 255 43
5.658067641 102.434436303 0.061825378 142 255 40
5.658299165 102.337834817 0.056591259 135 255 43
5.663970738 102.243545311 0.036343633 109 255 54
5.671344890 102.149973893 0.011397699 76 255 68
5.674533998 102.054619807 -0.001996658 58 255 76
5.671007016 101.956414580 0.003146511 62 255 75
5.665336011 101.857302871 0.014208373 80 255 67
5.663991551 101.760025959 0.013329846 76 255 68
5.666301274 101.664294562 0.002366518 62 255 75
5.668198854 101.568386427 -0.007458339 51 255 80
5.668999732 101.472013054 -0.014255253 40 255 84
5.665828060 101.373962805 -0.010086491 47 255 81
5.656512575 101.273325316 0.011041100 73 255 70
5.646548466 101.172421025 0.033960244 106 255 56
5.640128840 101.073014323 0.047097310 124 255 48
5.637437198 100.975178273 0.049945647 127 255 46
5.636413591 100.878043752 0.048190950 124 255 48
5.635775755 100.781070990 0.045372463 120 255 49
5.636317078 100.684592042 0.039300240 113 255 52
5.637888529 100.588543162 0.030385591 102 255 57
5.638831668 100.492229411 0.023206180 91 255 62
5.636064466 100.394363404 0.026269256 95 255 60
5.629931556 100.295093286 0.038623688 113 255 52
5.626987716 100.197157417 0.042176517 116 255 51
5.629439641 100.101471895 0.030836446 102 255 57
5.633130411 100.006299545 0.016077682 80 255 67
5.635407870 99.910535559 0.005221016 66 255 73
5.636068215 99.814096844 -0.001170929 58 255 76
5.637180773 99.717844582 -0.008810177 47 255 81
5.638846781 99.621820261 -0.017976198 36 255 86
5.637524782 99.524555275 -0.018893204 33 255 88
5.634729749 99.426680436 -0.015743010 36 255 86
5.633469623 99.329441960 -0.016828736 36 255 86
5.632505607 99.232326014 -0.018730832 33 255 88
5.628014162 99.133753189 -0.010894611 44 255 83
5.619602326 99.033565380 0.007764832 69 255 72
5.611976130 98.933707010 0.024256764 91 255 62
5.607372300 98.835098364 0.032406678 102 255 57
5.604881513 98.737361832 0.034724643 106 255 56
5.603086921 98.639912560 0.035121809 106 255 56
5.605520537 98.544200352 0.023847885 91 255 62
5.611362655 98.449884033 0.003165537 66 255 73
5.613930010 98.354219981 -0.008475789 47 255 81
5.611772856 98.256618188 -0.007073806 51 255 80
5.607630976 98.158205108 -0.000191746 58 255 76
5.602877781 98.059544453 0.008379027 69 255 72
5.597814347 97.960759887 0.017807380 84 255 65
5.594013917 97.862493699 0.023750172 91 255 62
5.594784797 97.766093081 0.017074268 84 255 65
5.600415761 97.671670416 -0.003017739 55 255 78
5.602937462 97.575977507 -0.014525232 40 255 84
5.598149050 97.477310228 -0.005850809 51 255 80
5.587470507 97.376253630 0.019085692 84 255 65
5.582193557 97.277396020 0.029111182 98 255 59
5.574653547 97.177624241 0.045385534 120 255 49
5.575560123 97.081278114 0.038342153 113 255 52
5.572192113 96.983200961 0.043100882 116 255 51
5.579508900 96.889444577 0.018362302 84 255 65
5.583118575 96.794184709 0.003859089 66 255 73
5.582117251 96.697060914 0.002086862 62 255 75
5.578794203 96.599001222 0.006725531 69 255 72
5.576388557 96.501312675 0.008832490 73 255 70
5.575403427 96.404196634 0.007018676 69 255 72
5.572574251 96.306339335 0.010297052 73 255 70
5.577928705 96.211769537 -0.009017536 47 255 81
5.577173010 96.114743610 -0.011461793 44 255 83
5.578468977 96.018539726 -0.019569489 33 255 88
5.577324318 95.921356780 -0.020937841 33 255 88
5.571816216 95.822428380 -0.010257959 44 255 83
5.566715833 95.723666301 -0.000702619 58 255 76
5.565892662 95.626615040 -0.002955385 55 255 78
5.565385572 95.529689665 -0.006079824 51 255 80
5.559916599 95.430786522 0.004496494 66 255 73
5.555643494 95.332362832 0.011772156 76 255 68
5.554504397 95.235188106 0.010395863 73 255 70
5.554131283 95.138317802 0.006905689 69 255 72
5.553730692 95.041436055 0.003492387 66 255 73
5.555265417 94.945321340 -0.005263450 51 255 80
5.558286590 94.849793592 -0.018122537 36 255 86
5.559268568 94.753455536 -0.025350298 25 255 91
5.555990220 94.655431143 -0.020813851 33 255 88
5.549778096 94.556249371 -0.008175789 47 255 81
5.544202219 94.457322641 0.002706683 62 255 75
5.542015421 94.359735698 0.004232541 66 255 73
5.543583349 94.263628708 -0.004607975 55 255 78
5.547591251 94.168479958 -0.020184754 33 255 88
5.551292429 94.073206742 -0.034913721 11 255 97
5.549978689 93.975960091 -0.035794545 11 255 97
5.542523898 93.876303840 -0.019717499 33 255 88
5.535959322 93.777001442 -0.006097337 51 255 80
5.534189767 93.679581175 -0.005716268 51 255 80
5.536103010 93.583602384 -0.015503344 40 255 84
5.537420271 93.487388361 -0.023643801 29 255 89
5.534327422 93.389450370 -0.019605664 33 255 88
5.528907192 93.290605967 -0.009139815 47 255 81
5.525663856 93.192613300 -0.004683926 55 255 78
5.525763444 93.095923884 -0.009457900 47 255 81
5.524544738 92.998720794 -0.010590594 44 255 83
5.520843856 92.900553260 -0.004868048 55 255 78
5.516371644 92.802088294 0.002985543 62 255 75
5.512542177 92.703875204 0.009065386 73 255 70
5.510277844 92.606270633 0.010824360 73 255 70
5.508407291 92.508819397 0.011497007 76 255 68
5.506366783 92.411303056 0.012640028 76 255 68
5.511443839 92.316537026 -0.005870729 51 255 80
5.522221258 92.223966233 -0.040122009 4 255 100
5.227099790 72.189070207 -0.127615056 0 239 195
5.217545683 72.089352655 -0.105478575 0 243 171
5.206053563 71.989047444 -0.077983305 0 248 141
5.199841729 71.890367123 -0.065083695 0 251 126
5.195642313 71.792306233 -0.057746108 0 252 117
5.191835289 71.694367636 -0.051492121 0 253 111
5.189437973 71.596861232 -0.049134103 0 254 108
5.189629261 71.500144599 -0.053931164 0 253 114
5.192791163 71.404331023 -0.066939480 0 250 129
5.197426102 71.308961955 -0.084019093 0 247 147
5.200302023 71.213054647 -0.096234935 0 245 162
5.197829835 71.115523046 -0.093664710 0 245 159
5.189081866 71.016092397 -0.073743583 0 249 135
5.184822714 70.918025059 -0.066230858 0 251 126
5.179262582 70.819567289 -0.055120302 0 253 114
5.177534783 70.722268952 -0.054603442 0 253 114
5.180883883 70.626500590 -0.068121200 0 250 129
5.178439836 70.528985921 -0.065622081 0 251 126
5.185301267 70.434268536 -0.088848235 0 246 153
5.188713146 70.338509914 -0.102536700 0 244 168
5.185468427 70.240752774 -0.097820884 0 245 162
5.185480847 70.143972346 -0.102108921 0 244 168
5.176084581 70.044378308 -0.080383688 0 248 144
5.171448803 69.946212060 -0.071818562 0 250 132
5.171685236 69.849501469 -0.076722630 0 249 138
5.172042746 69.752825990 -0.081960419 0 248 144
5.169588325 69.655313106 -0.079422862 0 248 141
5.164933765 69.557147771 -0.070801312 0 250 132
5.160799616 69.459139614 -0.063617420 0 251 123
5.157789631 69.361466925 -0.059540468 0 252 120
5.156115548 69.264191073 -0.059155916 0 252 120
5.156994649 69.167670266 -0.065829406 0 251 126
5.158855343 69.071437735 -0.075215838 0 249 138
5.159310260 68.974788647 -0.080714508 0 248 144
5.158870594 68.877875098 -0.083738743 0 247 147
5.158803358 68.781070613 -0.087791655 0 247 150
5.157998604 68.684048867 -0.089804364 0 246 153
5.155565484 68.586549474 -0.087313718 0 247 150
5.152412355 68.488840315 -0.082831190 0 247 147
5.149735241 68.391272020 -0.079663692 0 248 141
5.148265276 68.294057602 -0.079832796 0 248 141
5.148068056 68.197214814 -0.083519924 0 247 147
5.149883237 68.100957681 -0.092770269 0 246 156
5.155303544 68.005747296 -0.111987800 0 242 177
5.163016392 67.911198142 -0.137543352 0 237 207
5.164977225 67.814973199 -0.147193598 0 235 219
5.154637073 67.715181152 -0.122830119 0 240 189
5.143206078 67.615080524 -0.095449070 0 245 159
5.135775611 67.516144163 -0.079128396 0 248 141
5.130963467 67.417968507 -0.070046363 0 250 132
5.125904392 67.319724577 -0.060280363 0 252 120
5.119846999 67.221196337 -0.047752722 0 254 105
5.114712830 67.122937396 -0.037776702 7 255 99
5.110395561 67.024916166 -0.030058339 18 255 94
5.107222107 66.927225457 -0.025501644 25 255 91
5.105612793 66.829984323 -0.025268927 25 255 91
5.104759247 66.732959792 -0.027124964 22 255 92
5.103086685 66.635701238 -0.026715196 22 255 92
5.099924166 66.538018231 -0.022184294 29 255 89
5.098049224 66.440703629 -0.021212705 29 255 89
5.101852822 66.345004997 -0.035942542 11 255 97
5.108722083 66.250173580 -0.059148780 0 252 120
5.111810220 66.154263474 -0.071898348 0 250 132
5.107806074 66.056340919 -0.065034808 0 251 126
5.097293397 65.956579198 -0.040172106 4 255 100
5.083415512 65.855873907 -0.006002226 51 255 80
5.081260216 65.758486175 -0.004247662 55 255 78
5.079237409 65.661136661 -0.002858372 55 255 78
5.083491277 65.565554207 -0.018825200 33 255 88
5.080546212 65.467944688 -0.014883421 40 255 84
5.082783119 65.371790924 -0.025270638 25 255 91
5.088111645 65.276501143 -0.044206418 0 255 102
5.082098517 65.178032270 -0.031777012 15 255 96
5.079404294 65.080494844 -0.028524564 22 255 92
5.081434623 64.984277398 -0.038336444 7 255 99
5.084113259 64.888238343 -0.049940196 0 254 108
5.082854516 64.791100516 -0.050654304 0 253 111
5.078418291 64.693079652 -0.042580080 0 255 102
5.074831401 64.595297177 -0.036853515 11 255 97
5.072841845 64.497959468 -0.035543243 11 255 97
5.069746814 64.400316498 -0.031174661 18 255 94
5.069287777 64.303403827 -0.034094879 15 255 96
5.070780759 64.207029617 -0.042412441 4 255 100
5.071613989 64.110471630 -0.048904417 0 254 108
5.072570220 64.013946107 -0.055735541 0 253 114
5.074097635 63.917576121 -0.064145310 0 251 126
5.075056993 63.821048259 -0.070983057 0 250 132
5.072713620 63.723613461 -0.068685694 0 250 129
5.067586876 63.625417693 -0.058689443 0 252 120
5.063541534 63.527520721 -0.051682778 0 253 111
5.061498789 63.430172797 -0.050213458 0 254 108
5.061054583 63.333261472 -0.053164074 0 253 114
5.061052999 63.236470226 -0.057337789 0 252 117
5.060683537 63.139578211 -0.060493016 0 252 120
5.059268250 63.042401801 -0.060754733 0 252 120
5.056980950 62.944989313 -0.058603614 0 252 120
5.056834748 62.848157439 -0.062373115 0 251 123
5.061361900 62.752588275 -0.079066932 0 248 141
5.066226943 62.657106109 -0.096694357 0 245 162
5.066029189 62.560254698 -0.100318265 0 244 165
5.060094316 62.461858322 -0.088073397 0 246 153
5.053115807 62.363185185 -0.072940813 0 249 135
5.049685543 62.265469050 -0.067620824 0 250 129
5.049686747 62.168674550 -0.071790590 0 250 132
5.049857978 62.071924802 -0.076429583 0 249 138
5.047993159 61.974629973 -0.075436083 0 249 138
5.042869743 61.876466103 -0.065428584 0 251 126
5.033889715 61.777277546 -0.044752899 0 255 102
5.022352425 61.677414519 -0.017002754 36 255 86
5.012116335 61.577905339 0.007149736 69 255 72
5.008128000 61.480061176 0.014022647 80 255 67
5.010095574 61.383797537 0.004422942 66 255 73
5.012528194 61.287654692 -0.006462073 51 255 80
5.012147480 61.190765883 -0.009564476 47 255 81
5.010423420 61.093522178 -0.008950133 47 255 81
5.012408593 60.997256264 -0.018594468 33 255 88
5.018329497 60.902023480 -0.039124142 7 255 99
5.023655831 60.806629225 -0.058008326 0 252 117
5.025176247 60.710231801 -0.066364248 0 251 126
5.020655077 60.612249972 -0.058007738 0 252 117
5.013531053 60.513590061 -0.042450351 0 255 102
5.009527866 60.415749898 -0.035524245 11 255 97
5.009305220 60.318897949 -0.039054365 7 255 99
5.010092751 60.222308469 -0.045377703 0 254 105
5.008748281 60.125163261 -0.045802607 0 254 105
5.002956528 60.026863625 -0.033924578 15 255 96
4.993550900 59.927630726 -0.012048766 44 255 83
4.984451366 59.828483495 0.008981648 73 255 70
4.986025352 59.732101512 0.000488360 62 255 75
4.981208100 59.634067906 0.009675555 73 255 70
4.978497633 59.536580208 0.013036106 76 255 68
4.979025319 59.439927161 0.007440292 69 255 72
4.981102716 59.343671181 -0.002441371 55 255 78
4.982180712 59.247156425 -0.009557438 47 255 81
4.982072723 59.150336236 -0.013391728 40 255 84
4.982849762 59.053741783 -0.019673204 33 255 88
4.983711691 58.957167665 -0.026188488 25 255 91
4.981169828 58.859723966 -0.023286774 29 255 89
4.977532988 58.762002587 -0.017354870 36 255 86
4.977131479 58.665105958 -0.020371857 33 255 88
4.978794131 58.568732997 -0.029097997 18 255 94
4.975884414 58.471198772 -0.025174251 25 255 91
4.972303543 58.373496112 -0.019392703 33 255 88
4.967331851 58.275443878 -0.009762434 47 255 81
4.961268948 58.177119279 0.002887768 62 255 75
4.957728410 58.079434200 0.008561244 73 255 70
4.959906751 57.983190064 -0.001585084 58 255 76
4.965503868 57.887802441 -0.021188323 29 255 89
4.969053281 57.791896105 -0.035125750 11 255 97
4.969951249 57.695322179 -0.041727042 4 255 100
4.968519516 57.598164167 -0.041882192 4 255 100
4.965648325 57.500647044 -0.038053972 7 255 99
4.964872995 57.403653921 -0.040022876 4 255 100
4.967239008 57.307442666 -0.050681362 0 253 111
4.968959911 57.211068497 -0.059554131 0 252 120
4.966461836 57.113645173 -0.056753800 0 252 117
4.955390206 57.014098453 -0.030232900 18 255 94
4.942921878 56.914213863 0.000153465 58 255 76
4.938145744 56.816238312 0.009259922 73 255 70
4.941529471 56.720278340 -0.004207712 55 255 78
4.948183071 56.625120315 -0.026720944 22 255 92
4.951984080 56.529255022 -0.041341181 4 255 100
4.951106422 56.432237407 -0.043016159 0 255 102
4.948014784 56.334676996 -0.038564686 7 255 99
4.944286136 56.236962286 -0.032349661 15 255 96
4.941484965 56.139476313 -0.028699539 22 255 92
4.941562273 56.042694026 -0.033012235 15 255 96
4.943461414 55.946354726 -0.042364416 4 255 100
4.941270865 55.849018529 -0.040400443 4 255 100
4.931922043 55.749944955 -0.018630102 33 255 88
4.923499963 55.651102462 0.000577463 62 255 75
4.921153269 55.553736338 0.002976988 62 255 75
4.922904381 55.457361658 -0.005960207 51 255 80
4.922531974 55.360472460 -0.009020999 47 255 81
4.917184522 55.262384167 0.001684397 62 255 75
4.909347122 55.163700259 0.019280302 87 255 64
4.901326353 55.064977545 0.037384838 109 255 54
4.893584703 54.966327133 0.054718362 135 255 43
4.887168637 54.867999226 0.068385414 153 255 35
4.885104328 54.770715613 0.070012805 153 255 35
4.887717848 54.674549121 0.058698136 138 255 41
4.895314286 54.579567078 0.033597055 106 255 56
4.904866381 54.485043675 0.003085622 62 255 75
4.910321943 54.389539336 -0.016090081 36 255 86
4.910103216 54.292684655 -0.019564274 33 255 88
4.908250393 54.195442556 -0.018515884 33 255 88
4.908128876 54.098610302 -0.022256914 29 255 89
4.907964230 54.001767211 -0.025877546 25 255 91
4.904470030 53.904139115 -0.020284144 33 255 88
4.897093165 53.805599739 -0.003946086 55 255 78
4.888903465 53.706874380 0.014642391 80 255 67
4.881740626 53.608395255 0.030390756 102 255 57
4.883692010 53.512054053 0.020920543 87 255 64
4.880012031 53.414394725 0.027033872 95 255 60
4.878609356 53.317268723 0.026846803 95 255 60
4.876371816 53.219948594 0.028971006 98 255 59
4.872974415 53.122359727 0.034305823 106 255 56
4.871303719 53.025173543 0.034863733 106 255 56
4.872408497 52.928631126 0.027742542 98 255 59
4.873941464 52.832186185 0.019437498 87 255 64
4.874076945 52.735416507 0.015000587 80 255 67
4.873616834 52.638508620 0.012212856 76 255 68
4.873778958 52.541743591 0.007704331 69 255 72
4.871997052 52.444530849 0.008576451 73 255 70
4.863297333 52.345731299 0.028593011 98 255 59
4.850476304 52.245993509 0.060015635 142 255 40
4.845733182 52.148112211 0.069085838 153 255 35
4.544613446 32.244042240 0.094340286 186 255 20
4.539917640 32.146503495 0.103516752 200 255 14
4.528054425 32.047895503 0.132549184 233 253 0
4.518666403 31.949665119 0.154726340 237 246 0
4.515859751 31.852420555 0.158673293 237 245 0
4.516744248 31.755725262 0.152396229 236 246 0
4.517258833 31.658973774 0.147144943 235 248 0
4.515773988 31.561925892 0.147433568 235 248 0
4.513079441 31.464700223 0.151074456 236 246 0
4.510548663 31.367499919 0.154262815 237 246 0
4.508702622 31.270401123 0.155555419 237 246 0
4.508449674 31.173535792 0.152435853 236 246 0
4.510836608 31.077054670 0.142004149 234 250 0
4.510680893 30.980201342 0.138617342 234 251 0
4.505482286 30.882616221 0.149201994 236 247 0
4.498929931 30.784838564 0.163538183 238 243 0
4.496388776 30.687643672 0.166763245 239 241 0
4.500433510 30.591397284 0.151744227 236 246 0
4.506356281 30.495416466 0.131523322 233 254 0
4.508337438 30.398866416 0.122223093 226 255 3
4.505618740 30.301643460 0.125944329 229 255 1
4.501501258 30.204222769 0.133541917 233 253 0
4.498437527 30.106954029 0.138221357 234 251 0
4.495702841 30.009733453 0.141990360 234 250 0
4.490761566 29.912202727 0.151873753 236 246 0
4.491866394 29.815526197 0.145007862 235 249 0
4.486594918 29.717952850 0.155808409 237 246 0
4.486515280 29.621109715 0.152226242 236 246 0
4.491281929 29.524942584 0.135218502 233 252 0
4.489627245 29.427876883 0.136002118 233 252 0
4.492933866 29.331500654 0.123041406 226 255 3
4.491705223 29.234493077 0.122646829 226 255 3
4.494429815 29.138031634 0.111300695 211 255 9
4.486964553 29.040164009 0.128187280 232 255 0
4.479960416 28.942364671 0.143797561 235 249 0
4.475449551 28.844911401 0.152501253 236 246 0
4.474621231 28.747963759 0.151003240 236 246 0
4.476186203 28.651341935 0.142875405 235 249 0
4.476844519 28.554595029 0.137260621 234 251 0
4.475326533 28.457552139 0.137676673 234 251 0
4.472596693 28.360346006 0.141451488 234 250 0
4.469246817 28.263057711 0.146945378 235 248 0
4.468587173 28.166132459 0.144986622 235 249 0
4.470002644 28.069484801 0.137279421 234 251 0
4.471006550 27.972780355 0.130713589 233 254 0
4.471192372 27.875965475 0.126415499 229 255 1
4.470563143 27.779041502 0.124376784 229 255 1
4.467549179 27.681801604 0.128946701 232 255 0
4.462908517 27.584348562 0.138024999 234 251 0
4.457869150 27.486845848 0.148209224 236 247 0
4.454826787 27.389608271 0.152861357 236 246 0
4.455760732 27.292892497 0.146497021 235 248 0
4.458771783 27.196446212 0.134378422 233 253 0
4.460312575 27.099805634 0.126334679 229 255 1
4.460179696 27.002946070 0.122929480 226 255 3
4.460031673 26.906083893 0.119567320 222 255 4
4.459598306 26.809184287 0.116996901 218 255 6
4.457582512 26.712080855 0.118812317 222 255 4
4.454471335 26.614837831 0.123664080 226 255 3
4.451737038 26.517644586 0.127472695 232 255 0
4.449715057 26.420543418 0.129308679 233 254 0
4.448700300 26.323570965 0.128354821 232 255 0
4.448677531 26.226724141 0.124653298 229 255 1
4.448819291 26.129897349 0.120496944 222 255 4
4.448249278 26.032980108 0.118313988 218 255 6
4.446204135 25.935877453 0.120219724 222 255 4
4.443212551 25.838657213 0.124749207 229 255 1
4.441755484 25.741629875 0.125027644 229 255 1
4.442772054 25.644910439 0.118452619 218 255 6
4.444406299 25.548266026 0.110167025 207 255 11
4.442809927 25.451220421 0.110834761 211 255 9
4.436947686 25.353649809 0.123324741 226 255 3
4.430201451 25.255974375 0.138265603 234 251 0
4.425330837 25.158532950 0.148010155 236 247 0
4.424749573 25.061617934 0.145869550 235 248 0
4.428354855 24.965211898 0.132128498 233 253 0
4.432392258 24.868854747 0.117190949 218 255 6
4.436022901 24.772444577 0.103381570 200 255 14
4.438869458 24.675936388 0.091746020 186 255 20
4.438892551 24.579086110 0.087935864 178 255 24
4.434954482 24.481760763 0.095104024 189 255 19
4.429841364 24.384297426 0.105529700 204 255 12
4.425832056 24.286968566 0.112897669 211 255 9
4.422047332 24.189668650 0.119644446 222 255 4
4.414986059 24.091983566 0.135472614 233 252 0
4.404972325 23.993955262 0.159484166 238 244 0
4.395778953 23.896030208 0.181223602 241 236 0
4.390006692 23.798511899 0.193483399 243 233 0
4.388719352 23.701520526 0.193315251 243 233 0
4.391054740 23.604950675 0.183108405 242 235 0
4.395903544 23.508669606 0.165937005 238 242 0
4.401471339 23.412467130 0.146773963 235 248 0
4.406582866 23.316207097 0.128876342 232 255 0
4.410224003 23.219773650 0.115054690 215 255 8
4.411153760 23.123026535 0.108748357 207 255 11
4.408708450 23.025893205 0.111796818 211 255 9
4.405688522 22.928695705 0.116438942 218 255 6
4.405085645 22.831773441 0.114383490 215 255 8
4.405446192 22.734959601 0.109659037 207 255 11
4.403275774 22.637860080 0.111950169 211 255 9
4.397881680 22.540400146 0.123176828 226 255 3
4.393922126 22.443103819 0.130428878 233 254 0
4.392335993 22.346073966 0.131104137 233 254 0
4.397822137 22.249829122 0.112179471 211 255 9
4.394565939 22.152612844 0.117485540 218 255 6
4.390553910 22.055315031 0.124887608 229 255 1
4.389681950 21.958364264 0.123587934 226 255 3
4.392142538 21.861777996 0.113052914 211 255 9
4.394045294 21.765128271 0.104064993 200 255 14
4.392063815 21.668054356 0.105843703 204 255 12
4.387107638 21.570659173 0.115868304 218 255 6
4.383602569 21.473423559 0.121872168 226 255 3
4.381500746 21.376340702 0.123987891 229 255 1
4.378603518 21.279173502 0.128309354 232 255 0
4.375131868 21.181946455 0.134224090 233 253 0
4.371569631 21.084711673 0.140391081 234 250 0
4.366916250 20.987363244 0.149583583 236 247 0
4.362252207 20.890016491 0.158806845 238 244 0
4.358872676 20.792807669 0.164470985 238 242 0
4.356850790 20.695742970 0.166373242 238 242 0
4.355328770 20.598731257 0.166891121 239 241 0
4.354342656 20.501775708 0.165924712 238 242 0
4.355400211 20.405032003 0.159294781 238 244 0
4.358098297 20.308456159 0.148118667 236 247 0
4.360852130 20.211883226 0.136789039 233 252 0
4.360986794 20.115038926 0.132720317 233 253 0
4.355885897 20.017659053 0.143164845 235 249 0
4.349092864 19.920110155 0.158300962 237 245 0
4.344449646 19.822783612 0.167479326 239 241 0
4.344980861 19.725982386 0.162315946 238 243 0
4.349932810 19.629624714 0.144899789 235 249 0
4.351761350 19.532949475 0.136142405 233 252 0
4.346813483 19.435595563 0.146169772 235 248 0
4.341268864 19.338185332 0.157852517 237 245 0
4.342081609 19.241408393 0.151914159 236 246 0
4.346016717 19.144938202 0.137321756 234 251 0
4.348401083 19.048311796 0.127028961 232 255 0
4.348403524 18.951449566 0.123339874 226 255 3
4.346610712 18.854411471 0.124628328 229 255 1
4.344479814 18.757341142 0.126855093 232 255 0
4.342907325 18.660325720 0.127535068 232 255 0
4.339616077 18.563145073 0.132980656 233 253 0
4.333628339 18.465707308 0.145902263 235 248 0
4.329140265 18.368416767 0.154667926 237 246 0
4.329847449 18.271623694 0.149033052 236 247 0
4.335710539 18.175318389 0.129106515 232 255 0
4.342915770 18.079134631 0.105460318 204 255 12
4.347458125 17.982694041 0.089196860 182 255 22
4.347713762 17.885847512 0.084817773 175 255 25
4.344087405 17.788637737 0.091201281 182 255 22
4.338062527 17.691207053 0.104235086 200 255 14
4.332406208 17.593814334 0.116248425 218 255 6
4.330972497 17.496814409 0.116557070 218 255 6
4.331988685 17.400039705 0.110075188 207 255 11
4.329428412 17.302936534 0.113509130 215 255 8
4.321897060 17.205382054 0.130725269 233 254 0
4.311981418 17.107616454 0.154552562 237 246 0
4.303419700 17.009979894 0.174627761 240 239 0
4.297940140 16.912626148 0.186159657 242 234 0
4.294509543 16.815459212 0.192012445 243 233 0
4.292671108 16.718436022 0.193452438 243 233 0
4.293148400 16.621618954 0.188473612 242 234 0
4.295382359 16.524955955 0.178625776 241 237 0
4.298479918 16.428366448 0.166384757 238 242 0
4.299856065 16.331623043 0.158917120 238 244 0
4.298348808 16.234626390 0.159444422 238 244 0
4.295168075 16.137484843 0.164612383 238 242 0
4.292420827 16.040382437 0.168579713 239 241 0
4.292429940 15.943518558 0.164906405 238 242 0
4.295223288 15.846892426 0.153515067 237 246 0
4.298046316 15.750265923 0.142042448 234 250 0
4.299166507 15.653491920 0.135291884 233 252 0
4.299459028 15.556646343 0.130837069 233 254 0
4.298863534 15.459725065 0.128845341 232 255 0
4.295404517 15.362563651 0.134793839 233 252 0
4.297928679 15.265902939 0.124155044 229 255 1
4.294466279 15.168742723 0.130115192 233 254 0
4.295437236 15.071950609 0.123784835 226 255 3
4.294261494 14.974980483 0.123407385 226 255 3
4.301625695 14.878709386 0.099353438 193 255 17
4.303636073 14.781995789 0.090144309 182 255 22
4.298630370 14.684711078 0.100388985 197 255 16
4.300953063 14.588020759 0.090316077 182 255 22
4.298240088 14.490923502 0.094206213 186 255 20
4.296261249 14.393886232 0.096062009 189 255 19
4.292979164 14.296746053 0.101532393 197 255 16
4.289017000 14.199553789 0.108889582 207 255 11
4.285755916 14.102419023 0.114304089 215 255 8
4.285335494 14.005508674 0.111843479 211 255 9
4.287528080 13.908801720 0.102138853 197 255 16
4.289246302 13.812055498 0.093750531 186 255 20
4.289910242 13.715225760 0.088286487 178 255 24
4.291904533 13.618496998 0.079134779 167 255 28
4.287753752 13.521295989 0.087022927 178 255 24
4.289969453 13.424581844 0.077259438 164 255 30
4.288907300 13.327617067 0.076585775 164 255 30
4.288844645 13.230727628 0.073141807 160 255 32
4.283892651 13.133471042 0.083256173 171 255 27
4.282313208 13.036468947 0.084020241 175 255 25
4.283950138 12.939705882 0.075866930 164 255 30
4.285219374 12.842913664 0.068734221 153 255 35
4.281804252 12.745775817 0.074591686 160 255 32
4.276197622 12.648479773 0.086527127 178 255 24
4.274551991 12.551475013 0.087480353 178 255 24
4.282205073 12.455142708 0.062650183 146 255 38
4.309320914 12.360202775 -0.016147919 36 255 86
4.343893383 12.265774437 -0.115622464 0 241 183
4.351235987 12.169382402 -0.139589703 0 237 210
4.053409419 -7.809646027 -0.032748084 15 255 96
4.047845890 -7.906563410 -0.020683147 33 255 88
4.034693770 -8.003411937 0.012447277 76 255 68
4.028388081 -8.100312760 0.026574869 95 255 60
4.027131269 -8.197256894 0.026689015 95 255 60
4.027260324 -8.294214379 0.022957366 91 255 62
4.026482531 -8.391163543 0.021744054 87 255 64
4.023574077 -8.488090453 0.026446236 95 255 60
4.019130040 -8.584999151 0.035412145 109 255 54
4.014911273 -8.681907769 0.043753936 120 255 49
4.012648320 -8.778836783 0.046667808 124 255 48
4.010460025 -8.875765745 0.049375582 127 255 46
4.009878223 -8.972713813 0.047625015 124 255 48
4.015577132 -9.069742827 0.028440751 98 255 59
4.025555995 -9.166833569 -0.002623479 55 255 78
4.033957385 -9.263911297 -0.029307905 18 255 94
4.037296708 -9.360925460 -0.041939338 4 255 100
4.035471705 -9.457868763 -0.040233701 4 255 100
4.031606031 -9.554781345 -0.032862039 15 255 96
4.029578485 -9.651719567 -0.030591848 18 255 94
4.031028257 -9.748710985 -0.037973627 7 255 99
4.033432302 -9.845719477 -0.048003458 0 254 108
4.033524018 -9.942692936 -0.051613129 0 253 111
4.030874343 -10.039621548 -0.047611446 0 254 105
4.027610847 -10.136538442 -0.041904594 4 255 100
4.026029478 -10.233482950 -0.040866305 4 255 100
4.025206085 -10.330440538 -0.041931107 4 255 100
4.019587813 -10.427310985 -0.029683659 18 255 94
4.006796202 -10.524044555 0.002479145 62 255 75
4.004568291 -10.620969521 0.005317031 66 255 73
4.005495185 -10.717954630 -0.000602169 58 255 76
4.011077066 -10.815033128 -0.019443347 33 255 88
4.009880180 -10.911980276 -0.019464489 33 255 88
4.009643733 -11.008946988 -0.022150882 29 255 89
4.010055409 -11.105927844 -0.026635510 22 255 92
4.011517508 -11.202932149 -0.034035276 15 255 96
4.012462281 -11.299927157 -0.039997778 4 255 100
4.011224551 -11.396875567 -0.039900041 4 255 100
4.013771400 -11.493908688 -0.050308181 0 254 108
4.010600210 -11.590814118 -0.044840439 0 255 102
4.009259377 -11.687760353 -0.044453132 0 255 102
4.008414403 -11.784718037 -0.045441359 0 254 105
4.004991702 -11.881614091 -0.039271887 7 255 99
4.003863356 -11.978564161 -0.039471130 7 255 99
4.006701931 -12.075612251 -0.050682804 0 253 111
4.007631815 -12.172615372 -0.056594261 0 252 117
4.004809510 -12.269524324 -0.052087180 0 253 111
3.998588827 -12.366343945 -0.038143728 7 255 99
3.990576496 -12.463112520 -0.019224691 33 255 88
3.982515418 -12.559874434 -0.000169014 58 255 76
3.977057362 -12.656701311 0.011660865 76 255 68
3.975693574 -12.753637032 0.012124482 76 255 68
3.978979419 -12.850701750 -0.000320270 58 255 76
3.984212465 -12.947824655 -0.018170365 36 255 86
3.986668864 -13.044873043 -0.028310211 22 255 92
3.985830674 -13.141828722 -0.029301634 18 255 94
3.982078553 -13.238699066 -0.022201394 29 255 89
3.976941362 -13.335526155 -0.011254295 44 255 83
3.975373179 -13.432457523 -0.010215447 47 255 81
3.980111597 -13.529580736 -0.026686055 22 255 92
3.986938490 -13.626772845 -0.048954489 0 254 108
3.989901121 -13.723850209 -0.060492606 0 252 120
3.985793813 -13.820706961 -0.052399407 0 253 111
3.976426884 -13.917392928 -0.029701139 18 255 94
3.967851898 -14.014098155 -0.009200454 47 255 81
3.964700405 -14.110975417 -0.003757483 55 255 78
3.967362474 -14.208043898 -0.014455530 40 255 84
3.972494108 -14.305198081 -0.032009696 15 255 96
3.975366355 -14.402280306 -0.043289346 0 255 102
3.973726678 -14.499210656 -0.042039806 4 255 100
3.971657948 -14.596125644 -0.039597787 7 255 99
3.971332739 -14.693101015 -0.041995880 4 255 100
3.972161697 -14.790117870 -0.047597687 0 254 105
3.972774250 -14.887128389 -0.052597530 0 253 111
3.971997039 -14.984089796 -0.053737279 0 253 114
3.970761343 -15.081034602 -0.053602818 0 253 114
3.970044612 -15.177998456 -0.054908292 0 253 114
3.969817377 -15.274980852 -0.057571889 0 252 117
3.969284128 -15.371952301 -0.059384657 0 252 120
3.967034462 -15.468858627 -0.056430147 0 252 117
3.962434515 -15.565673419 -0.046948161 0 254 105
3.958867732 -15.662525689 -0.040333903 4 255 100
3.958820791 -15.759514390 -0.043492567 0 255 102
3.960427375 -15.856569486 -0.051241776 0 253 111
3.960398467 -15.953561050 -0.054448370 0 253 114
3.958163018 -16.050464092 -0.051526539 0 253 111
3.956615548 -16.147394309 -0.050514020 0 253 111
3.956934522 -16.244401089 -0.054683352 0 253 114
3.957761982 -16.341430064 -0.060263646 0 252 120
3.959216389 -16.438486797 -0.067583880 0 250 129
3.961901372 -16.535597595 -0.078320338 0 248 141
3.964018730 -16.632686967 -0.087479503 0 247 150
3.963501107 -16.729665046 -0.089320317 0 246 153
3.961079620 -16.826560628 -0.085872988 0 247 150
3.958683929 -16.923456273 -0.082496151 0 248 144
3.957385525 -17.020399484 -0.082165365 0 248 144
3.957481562 -17.117404804 -0.085705892 0 247 150
3.958465640 -17.214451015 -0.091711483 0 246 156
3.957989272 -17.311432383 -0.093660249 0 245 159
3.956561000 -17.408370540 -0.092964398 0 246 156
3.956112390 -17.505353675 -0.094988044 0 245 159
3.955815325 -17.602344319 -0.097431455 0 245 162
3.954207657 -17.699273937 -0.096234064 0 245 162
3.950712702 -17.796113697 -0.089794282 0 246 153
3.945326174 -17.892861221 -0.078100133 0 248 141
3.938955782 -17.989558033 -0.063672401 0 251 123
3.934535173 -18.086345362 -0.054658313 0 253 114
3.939700264 -18.183598946 -0.072264386 0 249 135
3.952614258 -18.281239280 -0.111389833 0 242 177
3.959674932 -18.378599527 -0.134258575 0 238 204
3.956413608 -18.475449223 -0.128459807 0 239 198
3.945612445 -18.571916835 -0.101719857 0 244 168
3.934389623 -18.668355510 -0.073807475 0 249 135
3.928505994 -18.765059809 -0.060722120 0 252 120
3.924851710 -18.861875416 -0.053827061 0 253 114
3.919544293 -18.958603071 -0.042339570 4 255 100
3.915679031 -19.055402964 -0.034856175 11 255 97
3.903955235 -19.151786127 -0.005545852 51 255 80
3.900486981 -19.248599744 0.000837394 62 255 75
3.905740356 -19.345878269 -0.017001254 36 255 86
3.910579541 -19.443139294 -0.033688606 15 255 96
3.910661753 -19.540146581 -0.037163067 7 255 99
3.910468535 -19.637139664 -0.039871467 4 255 100
3.914665533 -19.734375098 -0.054772213 0 253 114
3.911665591 -19.831215549 -0.049683036 0 254 108
3.915183495 -19.928418340 -0.062695603 0 251 123
3.913733235 -20.025345373 -0.061908353 0 251 123
3.914243680 -20.122383045 -0.066565770 0 251 126
3.908279930 -20.219053026 -0.053240184 0 253 114
3.904043728 -20.315818312 -0.044711607 0 255 102
3.903836443 -20.412813782 -0.047372167 0 254 105
3.908561701 -20.510096605 -0.063731869 0 251 123
3.916846871 -20.607592149 -0.089978382 0 246 153
3.919654804 -20.704772260 -0.101010763 0 244 165
3.911468318 -20.801303566 -0.081504497 0 248 144
3.899418042 -20.897598845 -0.051264975 0 253 111
3.892158040 -20.994173310 -0.034329443 15 255 96
3.893850576 -21.091284015 -0.042259190 4 255 100
3.901354412 -21.188750237 -0.066329438 0 251 126
3.907774062 -21.286156663 -0.087387345 0 247 150
3.912239977 -21.383448492 -0.103017568 0 244 168
3.908954458 -21.480264197 -0.097116044 0 245 162
3.908344343 -21.577244991 -0.098644725 0 245 162
3.905230720 -21.674069046 -0.093218366 0 246 156
3.893426042 -21.770342913 -0.063649762 0 251 123
3.883067886 -21.866700367 -0.038097770 7 255 99
3.876026357 -21.963262555 -0.021757078 29 255 89
3.874210888 -22.060156022 -0.019931715 33 255 88
3.875297783 -22.157236548 -0.026167255 25 255 91
3.874274776 -22.254181470 -0.026540940 22 255 92
3.869498752 -22.350880857 -0.016488484 36 255 86
3.864402317 -22.447556282 -0.005544786 51 255 80
3.863224096 -22.544487946 -0.005483886 51 255 80
3.866106448 -22.641689843 -0.016701387 36 255 86
3.868525433 -22.738863720 -0.026630732 22 255 92
3.869278041 -22.835928025 -0.031930129 15 255 96
3.870638124 -22.933034847 -0.038915943 7 255 99
3.873000902 -23.030211804 -0.048686066 0 254 108
3.873080321 -23.127234965 -0.052112271 0 253 111
3.868214632 -23.223918347 -0.041800408 4 255 100
3.859669314 -23.320343910 -0.021265665 29 255 89
3.851777976 -23.416809251 -0.002546316 55 255 78
3.848528886 -23.513594444 0.003278465 66 255 73
3.848992607 -23.610639388 -0.001209583 58 255 76
3.849758203 -23.707706856 -0.006535159 51 255 80
3.851567351 -23.804849995 -0.014758632 40 255 84
3.854928532 -23.902106399 -0.027292607 22 255 92
3.857192866 -23.999287255 -0.036778545 11 255 97
3.856273256 -24.096240319 -0.037418421 7 255 99
3.853173654 -24.193034933 -0.032001108 15 255 96
3.849074668 -24.289754896 -0.023806301 25 255 91
3.845987052 -24.386546833 -0.018419947 33 255 88
3.847308502 -24.483662919 -0.025281116 25 255 91
3.850428440 -24.580914372 -0.037137589 7 255 99
3.852093077 -24.678060387 -0.044950099 0 255 102
3.852079024 -24.775082524 -0.048097989 0 254 108
3.850174471 -24.871962876 -0.045992758 0 254 105
3.847734218 -24.968801955 -0.042398147 4 255 100
3.847136798 -25.065780344 -0.043922055 0 255 102
3.847470626 -25.162830371 -0.048032023 0 254 108
3.847366100 -25.259847719 -0.050923097 0 253 111
3.844985908 -25.356689793 -0.047490858 0 254 105
3.839413769 -25.453282760 -0.035189594 11 255 97
3.834008378 -25.549885264 -0.023350362 29 255 89
3.832907135 -25.646822230 -0.023467818 29 255 89
3.833816305 -25.743917708 -0.029169582 18 255 94
3.835096057 -25.841044052 -0.035899862 11 255 97
3.835844102 -25.938129829 -0.041151869 4 255 100
3.833837421 -26.034996532 -0.038749407 7 255 99
3.828150512 -26.131566568 -0.026121044 25 255 91
3.822610451 -26.228144894 -0.013899438 40 255 84
3.821311710 -26.325064054 -0.013460363 40 255 84
3.822381753 -26.422176212 -0.019601454 33 255 88
3.820931267 -26.519083443 -0.018738581 33 255 88
3.816553615 -26.615749364 -0.009741857 47 255 81
3.812738575 -26.712459251 -0.002307083 55 255 78
3.816893458 -26.809829287 -0.017014687 36 255 86
3.812479241 -26.906487944 -0.007912899 47 255 81
3.818837299 -27.004047437 -0.028739794 22 255 92
3.821164733 -27.101273030 -0.038366967 7 255 99
3.815982563 -27.197865633 -0.027128106 22 255 92
3.811921004 -27.294550322 -0.019001597 33 255 88
3.806541799 -27.391120154 -0.007212855 51 255 80
3.804367403 -27.487961582 -0.004327405 55 255 78
3.805279795 -27.585068130 -0.010017449 47 255 81
3.791774851 -27.680928264 0.024352296 91 255 62
3.768575429 -27.775935972 0.085659831 175 255 25
3.572735910 -47.842781978 0.000977433 62 255 75
3.573214891 -47.939968703 -0.003281105 55 255 78
3.575338811 -48.037431856 -0.012113680 44 255 83
3.578079387 -48.135000872 -0.022660364 29 255 89
3.578736853 -48.232222615 -0.027412219 22 255 92
3.577075460 -48.329054957 -0.025713458 25 255 91
3.574152051 -48.425673695 -0.020503457 33 255 88
3.572326889 -48.522476873 -0.018346954 33 255 88
3.572902816 -48.619686784 -0.022867706 29 255 89
3.574965944 -48.717150811 -0.031523920 18 255 94
3.577472058 -48.814692720 -0.041411249 4 255 100
3.579656869 -48.912182481 -0.050403897 0 254 108
3.580498939 -49.009444865 -0.055660776 0 253 114
3.578385733 -49.106201654 -0.052696628 0 253 111
3.572938340 -49.202384278 -0.040457410 4 255 100
3.567249274 -49.298521857 -0.027544770 22 255 92
3.566101431 -49.395440249 -0.027262322 22 255 92
3.569925871 -49.493219324 -0.040809246 4 255 100
3.573526516 -49.590963318 -0.053732712 0 253 114
3.572502611 -49.687906754 -0.053791841 0 253 114
3.569980473 -49.784589108 -0.049682466 0 254 108
3.571341834 -49.881948586 -0.056374163 0 252 117
3.579304942 -49.980465473 -0.081428110 0 248 144
3.588226128 -50.079157364 -0.109146184 0 243 174
3.589017662 -50.176427663 -0.114249947 0 242 180
3.580466219 -50.272053196 -0.093364068 0 246 156
3.569564663 -50.367257962 -0.065939747 0 251 126
3.561597037 -50.462974332 -0.046675225 0 254 105
3.558313073 -50.559516009 -0.040437773 4 255 100
3.558101813 -50.656602083 -0.042746422 0 255 102
3.557643347 -50.753644762 -0.044366353 0 255 102
3.554415957 -50.850193622 -0.038282896 7 255 99
3.548749519 -50.946304475 -0.025413559 25 255 91
3.544081332 -51.042590725 -0.015319866 40 255 84
3.542984648 -51.139515836 -0.015159973 40 255 84
3.546343108 -51.237243030 -0.027392084 22 255 92
3.552089843 -51.335404530 -0.046266840 0 254 105
3.554615221 -51.432988785 -0.056179587 0 252 117
3.553124231 -51.529848016 -0.054918637 0 253 114
3.550563274 -51.626512606 -0.050680147 0 253 111
3.549171687 -51.723388816 -0.049693498 0 254 108
3.549547316 -51.820587018 -0.053621845 0 253 114
3.550477629 -51.917887673 -0.059092180 0 252 120
3.549702311 -52.014877497 -0.059816654 0 252 120
3.546472056 -52.111417014 -0.053710728 0 253 114
3.541271373 -52.207592484 -0.042122152 4 255 100
3.537999974 -52.304120282 -0.035899444 11 255 97
3.541012067 -52.401806718 -0.047155694 0 254 105
3.547103553 -52.500066126 -0.066977595 0 250 129
3.552774208 -52.598252990 -0.085627869 0 247 150
3.553853583 -52.695591854 -0.091504521 0 246 156
3.547505755 -52.791549337 -0.076717931 0 249 138
3.536257051 -52.886588255 -0.048295992 0 254 108
3.528750118 -52.982318941 -0.030282256 18 255 94
3.533268652 -53.080297788 -0.045722144 0 254 105
3.543202835 -53.179297704 -0.076227510 0 249 138
3.550600672 -53.277828899 -0.099675888 0 244 165
3.550394233 -53.374933032 -0.101967979 0 244 168
3.544088460 -53.470885606 -0.087290314 0 247 150
3.536053811 -53.566506860 -0.067801567 0 250 129
3.530354995 -53.662565776 -0.054810028 0 253 114
3.530113700 -53.759658363 -0.057000615 0 252 117
3.535119634 -53.857750883 -0.073788498 0 249 135
3.541933199 -53.956193013 -0.095604501 0 245 159
3.546150859 -54.054144811 -0.110197462 0 242 177
3.546381926 -54.151336817 -0.113698178 0 242 180
3.542551561 -54.247750053 -0.105898281 0 243 171
3.537109965 -54.343851179 -0.093614491 0 245 159
3.534039915 -54.440406047 -0.087927584 0 247 150
3.534302504 -54.537603027 -0.091511608 0 246 156
3.536458090 -54.635167359 -0.100361299 0 244 165
3.540130165 -54.733028221 -0.113429202 0 242 180
3.544862425 -54.831098705 -0.129445832 0 239 198
3.548416400 -54.928944241 -0.142183238 0 236 213
3.548732491 -55.026161699 -0.145911019 0 236 216
3.547013494 -55.122982429 -0.143975557 0 236 213
3.544582702 -55.219663235 -0.140058568 0 237 210
3.540265719 -55.315972844 -0.130892490 0 239 198
3.534457430 -55.411986717 -0.117575947 0 241 186
3.531325231 -55.508524095 -0.111703963 0 242 177
3.531662604 -55.605744692 -0.115484390 0 241 183
3.533267917 -55.703217105 -0.122791627 0 240 189
3.533360595 -55.800391820 -0.125889134 0 239 195
3.529074281 -55.896698005 -0.116801533 0 241 183
3.528431729 -55.993726517 -0.117851162 0 241 186
3.525726356 -56.090344193 -0.113160091 0 242 180
3.528362817 -56.188027319 -0.123331149 0 240 192
3.530194670 -56.285552289 -0.131262444 0 238 201
3.528024599 -56.382277221 -0.128057561 0 239 195
3.522575056 -56.478342594 -0.115726543 0 241 183
3.517033731 -56.574386094 -0.103138940 0 244 168
3.515128227 -56.671159183 -0.100666773 0 244 165
3.516698627 -56.768633758 -0.107865220 0 243 174
3.519370037 -56.866333178 -0.118126229 0 241 186
3.521847683 -56.963996164 -0.127847092 0 239 195
3.522526787 -57.061296460 -0.132562438 0 238 201
3.520266679 -57.157999804 -0.129098214 0 239 198
3.515121967 -57.254113935 -0.117606256 0 241 186
3.508927626 -57.350010437 -0.103192418 0 244 168
3.505398370 -57.446448519 -0.096193218 0 245 162
3.505889644 -57.543709250 -0.100380438 0 244 165
3.508254986 -57.641356234 -0.109781438 0 242 177
3.511471630 -57.739181089 -0.121550307 0 240 189
3.514954522 -57.837064134 -0.134059078 0 238 204
3.517444120 -57.934745415 -0.143802877 0 236 213
3.520393281 -58.032524551 -0.154824501 0 234 225
3.524642647 -58.130576424 -0.169463211 0 231 243
3.528097093 -58.228467196 -0.181888947 0 229 255
3.526849606 -58.325382606 -0.181229569 0 229 255
3.516998428 -58.420503468 -0.156627353 0 234 228
3.502218950 -58.514587789 -0.118309625 0 241 186
3.492749852 -58.609773139 -0.094767940 0 245 159
3.489601901 -58.706277632 -0.088815243 0 246 153
3.490141698 -58.803555295 -0.093123606 0 246 156
3.492096492 -58.901132010 -0.101368575 0 244 165
3.493926841 -58.998684787 -0.109266230 0 243 174
3.494865383 -59.096051370 -0.114681137 0 242 180
3.495397420 -59.193333440 -0.118963773 0 241 186
3.495302012 -59.290483679 -0.121499282 0 240 189
3.491177422 -59.386778786 -0.112821073 0 242 180
3.484172559 -59.482458587 -0.096126257 0 245 162
3.478750454 -59.578471204 -0.083834838 0 247 147
3.474809223 -59.674796709 -0.075663348 0 249 138
3.472788404 -59.771530856 -0.072835037 0 249 135
3.474446580 -59.869052804 -0.080243996 0 248 144
3.479432807 -59.967291450 -0.096913709 0 245 162
3.483184332 -60.065269137 -0.110146380 0 242 177
3.481791356 -60.162141880 -0.109061111 0 243 174
3.475744243 -60.258009591 -0.095022379 0 245 159
3.468506523 -60.353615942 -0.077668977 0 248 141
3.463304683 -60.449658593 -0.065980196 0 251 126
3.461326287 -60.546397646 -0.063261134 0 251 123
3.461731262 -60.643654177 -0.067173962 0 250 129
3.465028073 -60.741541692 -0.079133862 0 248 141
3.471992819 -60.840232879 -0.101300872 0 244 165
3.480777468 -60.939328032 -0.128531934 0 239 198
3.485469030 -61.037534498 -0.144370759 0 236 216
3.484197340 -61.134437312 -0.143612327 0 236 213
3.479381336 -61.230561114 -0.132988583 0 238 201
3.474181842 -61.326597581 -0.121296355 0 240 189
3.471443717 -61.423173593 -0.116453266 0 241 183
3.469716366 -61.519971564 -0.114422188 0 242 180
3.468045089 -61.616781407 -0.112546072 0 242 180
3.467586674 -61.713859608 -0.114044468 0 242 180
3.469189960 -61.811396058 -0.121279907 0 240 189
3.471293822 -61.909045886 -0.129907537 0 239 198
3.472311479 -62.006456099 -0.135511023 0 238 204
3.468800017 -62.102856946 -0.128507898 0 239 198
3.461069712 -62.198312563 -0.109761551 0 242 177
3.454619849 -62.294049808 -0.094577748 0 245 159
3.449818346 -62.390152711 -0.083980552 0 247 147
3.445924068 -62.486456606 -0.075907240 0 249 138
3.444481144 -62.583310185 -0.074655619 0 249 138
3.445300916 -62.680673737 -0.079700688 0 248 141
3.446500713 -62.778124567 -0.085802458 0 247 150
3.447095135 -62.875440123 -0.090218245 0 246 153
3.448443204 -62.972927768 -0.096730655 0 245 162
3.451676126 -63.070845234 -0.108488278 0 243 174
3.454793084 -63.168739610 -0.119922159 0 241 186
3.456325084 -63.266276072 -0.126943517 0 239 195
3.455642622 -63.363309116 -0.127800118 0 239 195
3.451336211 -63.459513959 -0.118568696 0 241 186
3.443769742 -63.554969737 -0.100261968 0 244 165
3.433536148 -63.649808685 -0.074530197 0 249 135
3.420636149 -63.744027885 -0.041375287 4 255 100
3.391529125 -63.834507857 0.036892760 109 255 54
3.360665614 -63.924561241 0.120051778 222 255 4
3.326732536 -64.013882787 0.211756790 246 226 0
3.287088401 -64.101857949 0.319360528 255 153 0
3.265856146 -64.194069239 0.375716501 255 96 0
3.259934925 -64.289818311 0.389455289 255 82 14
3.260408595 -64.387050193 0.385394801 255 86 7
3.264991399 -64.485240044 0.369897328 255 101 0
3.273360775 -64.584317388 0.343860582 255 126 0
3.272647805 -64.681280146 0.343106173 255 128 0
3.263408482 -64.776247915 0.366086793 255 104 0
3.259375184 -64.872429605 0.374577146 255 96 0
3.260472635 -64.969813567 0.368786568 255 101 0
3.265020361 -65.068010549 0.353392685 255 117 0
3.265235068 -65.165191186 0.350061358 255 120 0
3.261597257 -65.261463832 0.357455204 255 112 0
3.259788600 -65.358166731 0.359758417 255 112 0
3.260078004 -65.455365653 0.356222369 255 115 0
3.260895740 -65.552690853 0.351216646 255 120 0
3.260784665 -65.649796901 0.348797501 255 123 0
3.256312515 -65.745866307 0.358519474 255 112 0
3.250644892 -65.841648231 0.371570509 255 98 0
3.249228200 -65.938440999 0.372789176 255 98 0
3.250335966 -66.035836866 0.366981420 255 104 0
3.251042817 -66.133138396 0.362290743 255 109 0
3.246857645 -66.229268185 0.371219503 255 98 0
3.239696184 -66.324680691 0.388434848 255 84 11
3.232071440 -66.419977011 0.406941130 255 71 36
3.220556473 -66.514330886 0.436278413 255 49 76
3.211666061 -66.609310067 0.458310679 255 33 106
3.212226976 -66.706567776 0.454033023 255 35 102
3.215084171 -66.804382656 0.443363839 255 43 87
3.216916284 -66.901951953 0.435549348 255 49 76
3.219815795 -66.999782703 0.424764324 255 57 62
3.226255509 -67.098477690 0.404124645 255 73 33
3.234798091 -67.197690803 0.377631612 255 93 0
3.243590729 -67.296972321 0.350443262 255 120 0
3.246993433 -67.394943987 0.338261066 255 134 0
3.236582363 -67.489537325 0.364536944 255 107 0
3.225145742 -67.583871958 0.393669260 255 80 18
3.217938998 -67.679237332 0.411026969 255 67 44
3.217622702 -67.776292754 0.409202854 255 69 40
3.223653190 -67.874912267 0.389710212 255 82 14
3.229184528 -67.973414063 0.371608112 255 98 0
3.222957456 -68.069015126 0.386242888 255 86 7
3.206442180 -68.162065736 0.429521860 255 55 66
3.187787372 -68.254574009 0.478758929 255 18 135
3.180028701 -68.349773987 0.497661742 255 4 161
3.182535819 -68.447521532 0.487984825 255 12 146
3.192085884 -68.547025870 0.458700524 255 33 106
3.203985894 -68.647124535 0.422874480 255 59 58
3.209676140 -68.745681816 0.404338020 255 73 33
3.213370367 -68.843744850 0.391359676 255 82 14
3.216167835 -68.941586796 0.380879013 255 90 0
3.219303081 -69.039516465 0.369458889 255 101 0
3.217443673 -69.136193839 0.371945803 255 98 0
3.211842983 -69.231928677 0.384850310 255 86 7
3.194206952 -69.324625379 0.431265024 255 53 69
3.177920482 -69.417650057 0.473923763 255 22 128
3.165914587 -69.511745563 0.504665806 255 0 168
3.165534579 -69.608777407 0.503039749 255 0 168
3.179234178 -69.709381518 0.462213307 255 29 113
3.197192202 -69.811078932 0.409530891 255 69 40
3.206692907 -69.910638976 0.380396738 255 90 0
3.198999700 -70.005825400 0.399136564 255 76 25
3.190059383 -70.100688375 0.421349994 255 61 55
3.185786385 -70.196738267 0.430569319 255 53 69
3.191418381 -70.295321326 0.412210840 255 67 44
3.205675785 -70.396120955 0.369836995 255 101 0
3.209872886 -70.494349169 0.355475484 255 115 0
3.213569205 -70.592452627 0.342509283 255 128 0
3.210773450 -70.688887726 0.347620569 255 123 0
3.209618564 -70.785744682 0.348164117 255 123 0
3.197522456 -70.879775237 0.379173783 255 90 0
3.182557351 -70.973055023 0.418173366 255 63 51
3.169512658 -71.066821599 0.451827086 255 37 98
3.163355410 -71.162366002 0.466304329 255 27 117
3.162784935 -71.259358212 0.465226518 255 27 117
3.165447423 -71.357192131 0.455147600 255 35 102
3.171771827 -71.455983302 0.434873029 255 51 73
3.182626137 -71.555962526 0.401985723 255 75 29
3.193601176 -71.655982474 0.368763005 255 101 0
3.196250807 -71.753832168 0.358723522 255 112 0
3.185289306 -71.848116177 0.386586017 255 86 7
3.173439130 -71.942159175 0.416924422 255 63 51
3.167140745 -72.037653641 0.431804747 255 53 69
3.163142729 -72.133749792 0.440280677 255 47 80
3.159360240 -72.229900478 0.448157596 255 41 91
3.157077021 -72.326444992 0.451860752 255 37 98
3.159495101 -72.424231982 0.442473600 255 45 84
3.168579200 -72.523787305 0.414524891 255 65 47
3.180543731 -72.624114501 0.378555954 255 93 0
3.188251669 -72.723320952 0.354440985 255 117 0
3.186733100 -72.820079547 0.356019817 255 115 0
3.173304993 -72.913664781 0.390764259 255 82 14
3.157906226 -73.006714641 0.430997824 255 53 69
3.148813781 -73.101438409 0.453671437 255 37 98
3.146128389 -73.197870341 0.458504338 255 33 106
3.150583126 -73.296214296 0.443454838 255 43 87
3.160816208 -73.396113108 0.412314910 255 67 44
3.163893561 -73.494097580 0.401102900 255 75 29
