ply
format ascii 1.0
comment coordinate_system ground
comment units millimeter
element vertex 1243
property double x
property double y
property double z
property uchar red
property uchar green
property uchar blue
comment color_mapping zg_high_contrast_from_zg
comment color_zg_range_mm -0.159210478 0.717720445
end_header
6.423947714 147.086691202 0.157822686 149 255 36
6.419199566 146.987290619 0.165860573 156 255 33
6.413011591 146.887029430 0.177863677 171 255 27
6.410249031 146.788823898 0.180436795 175 255 25
6.411024234 146.692737382 0.173270448 167 255 28
6.410991333 146.596165673 0.168329903 160 255 32
6.409013591 146.498430003 0.168744984 160 255 32
6.405256661 146.399631577 0.174059680 167 255 28
6.403658648 146.302124142 0.173431153 167 255 28
6.405221941 146.206503456 0.164099376 156 255 33
6.406331447 146.110609835 0.156017877 149 255 36
6.405567161 146.013597432 0.153096491 146 255 38
6.401946667 145.914883207 0.158040283 149 255 36
6.395323461 145.814383207 0.171252761 164 255 30
6.388908035 145.714010747 0.183894220 178 255 24
6.385493007 145.615425832 0.188275343 182 255 22
6.385025918 145.518593876 0.184540434 178 255 24
6.385696143 145.422436458 0.177674867 171 255 27
6.385809707 145.325947129 0.172342923 164 255 30
6.384692778 145.228726947 0.170400025 164 255 30
6.381572431 145.130319272 0.173974491 167 255 28
6.378166701 145.031743862 0.178335746 171 255 27
6.378554230 144.935414991 0.172253082 164 255 30
6.381297131 144.840477867 0.159685633 153 255 35
6.381464943 144.744015455 0.154209695 146 255 38
6.374713445 144.643464516 0.167787580 160 255 32
6.365135518 144.541249089 0.189149430 182 255 22
6.358369011 144.440698453 0.202770873 197 255 16
6.364322902 144.347651444 0.181366067 175 255 25
6.362926040 144.250267828 0.180203378 175 255 25
6.362821381 144.153645051 0.175483324 167 255 28
6.365602590 144.058719400 0.162817405 156 255 33
6.370042378 143.964765879 0.145585070 135 255 43
6.362323512 143.863662616 0.161834904 153 255 35
6.369198218 143.771134804 0.137899172 127 255 46
6.364487400 143.671801018 0.145867649 138 255 41
6.357869921 143.571351415 0.159087638 149 255 36
6.348894835 143.469523850 0.178801023 171 255 27
6.339773260 143.367616217 0.198918972 193 255 17
6.333450170 143.267352644 0.211331615 207 255 11
6.330825210 143.169256243 0.213561370 207 255 11
6.328972695 143.071612354 0.213664915 207 255 11
6.327435276 142.974152891 0.212901680 207 255 11
6.329068798 142.878544939 0.203407055 197 255 16
6.337333478 142.786803884 0.175651887 167 255 28
6.348763811 142.696901397 0.139179508 131 255 44
6.354220300 142.603508010 0.119159080 109 255 54
6.350250480 142.504619991 0.125098688 113 255 52
6.339502981 142.401789513 0.149704595 142 255 40
6.327096197 142.298001109 0.178881314 171 255 27
6.317983220 142.196135460 0.198988265 193 255 17
6.315562146 142.098162522 0.200667015 197 255 16
6.318056238 142.003043361 0.188810387 182 255 22
6.324120934 141.909992435 0.167121095 160 255 32
6.331146245 141.817492690 0.142786963 135 255 43
6.332477692 141.721688029 0.134134647 124 255 48
6.327662021 141.622322543 0.142412689 135 255 43
6.321743069 141.522321350 0.153730286 146 255 38
6.318190766 141.423691916 0.158531002 149 255 36
6.315168148 141.325370165 0.161873916 153 255 35
6.311490043 141.226671164 0.167023104 160 255 32
6.310327472 141.129425432 0.165245191 156 255 33
6.313011507 141.034397663 0.152874099 146 255 38
6.316657880 140.939921358 0.137853391 127 255 46
6.317327969 140.843727214 0.131030680 120 255 49
6.315234292 140.745940931 0.131820783 120 255 49
6.311670009 140.647309393 0.136662197 127 255 46
6.305610691 140.547245491 0.148376492 138 255 41
6.294479640 140.444272098 0.174060614 167 255 28
6.281704793 140.340362593 0.204273393 200 255 14
6.278958685 140.242214306 0.206865649 200 255 14
6.287986744 140.150816328 0.177029532 171 255 27
6.295813160 140.058722075 0.150503723 142 255 40
6.296321183 139.962431279 0.144135706 135 255 43
6.288933052 139.861621755 0.159517142 153 255 35
6.282188279 139.761184609 0.173127678 167 255 28
6.284482233 139.665915608 0.161843455 153 255 35
6.290321836 139.572668190 0.140794033 131 255 44
6.291351429 139.476670851 0.132993961 124 255 48
6.285002117 139.376464328 0.145519209 135 255 43
6.274093164 139.273663474 0.170604687 164 255 30
6.265444799 139.172157104 0.189464768 182 255 22
6.269672719 139.077983461 0.172858995 164 255 30
6.265896098 138.979253649 0.178302184 171 255 27
6.263635445 138.881387167 0.179570692 171 255 27
6.264060993 138.785046867 0.173441058 167 255 28
6.260820339 138.686624538 0.177410885 171 255 27
6.253389852 138.585827388 0.192922686 186 255 20
6.244301139 138.484095020 0.213003256 207 255 11
6.237833782 138.383853218 0.225864347 222 255 4
6.236691050 138.286629055 0.224059514 218 255 6
6.238568867 138.191113217 0.213935274 207 255 11
6.240450453 138.095597043 0.203801505 197 255 16
6.241947132 137.999860980 0.194728851 189 255 19
6.243481384 137.904143950 0.185553559 178 255 24
6.244167415 137.807946232 0.178715668 171 255 27
6.243217552 137.710824765 0.176384986 167 255 28
6.241689421 137.613377221 0.175648172 167 255 28
6.239166030 137.515369509 0.177653938 171 255 27
6.231469070 137.414452122 0.193912307 189 255 19
6.222659592 137.312914093 0.213236481 207 255 11
6.218596376 137.214048287 0.219487165 215 255 8
6.220952766 137.118788777 0.208054506 204 255 12
6.225318724 137.024653935 0.191086814 186 255 20
6.227478358 136.929277698 0.180197821 175 255 25
6.227920825 136.832936658 0.174040102 167 255 28
6.228743108 136.736806919 0.166836958 160 255 32
6.229690455 136.640745506 0.159290170 149 255 36
6.228982483 136.543756754 0.156304391 149 255 36
6.227699705 136.446446323 0.154903043 146 255 38
6.227536923 136.349761248 0.150417208 142 255 40
6.227012857 136.252873667 0.146927581 138 255 41
6.222007282 136.153486391 0.155784950 146 255 38
6.213551846 136.052179429 0.174147427 167 255 28
6.205702482 135.951215382 0.190841384 186 255 20
6.202059110 135.852596915 0.195949241 189 255 19
6.204742687 135.757498733 0.183627680 178 255 24
6.211895225 135.664881064 0.158995112 149 255 36
6.217600771 135.571453336 0.138349679 127 255 46
6.220217803 135.476306191 0.126213831 116 255 51
6.219700284 135.379417620 0.122714540 113 255 52
6.215240326 135.280343453 0.130077697 120 255 49
6.208991555 135.180280948 0.142370152 135 255 43
6.204952281 135.081445042 0.148576417 138 255 41
6.204705985 134.984709000 0.144333793 135 255 43
6.206231925 134.888951639 0.135209426 124 255 48
6.206156773 134.792307793 0.130497098 120 255 49
6.203464665 134.694218596 0.132995699 124 255 48
6.197861149 134.594524629 0.143516600 135 255 43
6.192662132 134.495056860 0.152924128 146 255 38
6.190982529 134.397530511 0.152636178 146 255 38
6.189723216 134.300235761 0.151191221 142 255 40
6.186573333 134.201901079 0.154956093 146 255 38
6.181941880 134.102753430 0.162804001 156 255 33
6.177243131 134.003571331 0.170838376 164 255 30
6.174107270 133.905249656 0.174567685 167 255 28
6.175291042 133.809298737 0.166396335 160 255 32
6.180720496 133.715673109 0.146527894 138 255 41
6.184265695 133.621010239 0.131851855 120 255 49
6.183007965 133.523714673 0.130410102 120 255 49
6.177504062 133.424096433 0.140668823 131 255 44
6.171311296 133.324104834 0.152826661 146 255 38
6.167163653 133.225234052 0.159350597 149 255 36
6.164035882 133.126922120 0.163065467 156 255 33
6.166606087 133.031719647 0.151081322 142 255 40
6.155311912 132.928956868 0.177299696 171 255 27
6.145607610 132.827067700 0.199138591 193 255 17
6.144238155 132.729721823 0.198012747 193 255 17
6.151776623 132.637221450 0.172342728 164 255 30
6.160072470 132.545126033 0.144586491 135 255 43
6.159010649 132.447940322 0.142615576 135 255 43
6.189372921 132.367811706 0.054057425 40 255 84
6.200145695 132.277033090 0.019477889 4 255 100
5.955738983 119.876853180 0.079220526 66 255 73
5.822961760 112.369981048 0.080801396 69 255 72
5.818884024 112.271412522 0.087352998 73 255 70
5.813022885 112.172018662 0.098825223 87 255 64
5.812689967 112.075191545 0.095048830 84 255 65
5.819027544 111.981454036 0.072872573 58 255 76
5.827781650 111.888829402 0.044030967 29 255 89
5.834766154 111.795378765 0.020071642 4 255 100
5.836765804 111.699618288 0.009864227 0 254 108
5.831560037 111.600528329 0.019534579 4 255 100
5.823132027 111.499954822 0.038094972 22 255 92
5.816791441 111.400349124 0.050898151 36 255 86
5.812529781 111.301704937 0.057967461 44 255 83
5.808052083 111.202963690 0.065633837 51 255 80
5.800632884 111.102872347 0.081415950 69 255 72
5.795865501 111.004004184 0.089883712 76 255 68
5.799556035 110.909021641 0.075019707 62 255 75
5.808196567 110.816305973 0.046500923 33 255 88
5.817376768 110.723830188 0.016494057 0 255 102
5.821239138 110.628911295 0.001158429 0 252 117
5.817293199 110.530415832 0.007364906 0 253 111
5.810808249 110.430761720 0.020577022 4 255 100
5.806210727 110.331973842 0.028583278 11 255 97
5.805155338 110.234805273 0.026818589 11 255 97
5.806288819 110.138634833 0.019016204 4 255 100
5.807541731 110.042517074 0.010885264 0 254 108
5.807569619 109.945839766 0.006134912 0 253 111
5.805694033 109.848295689 0.006636947 0 253 111
5.803151394 109.750448984 0.008980322 0 254 108
5.802063024 109.653263771 0.007312572 0 253 111
5.802220885 109.556643990 0.002207589 0 253 114
5.800079469 109.458980797 0.003447091 0 253 114
5.794742327 109.359870740 0.013504420 0 254 105
5.789944984 109.261008193 0.022073598 4 255 100
5.788307555 109.163577425 0.021925798 4 255 100
5.786067534 109.065874755 0.023441556 7 255 99
5.780437102 108.966642273 0.034312463 18 255 94
5.774435439 108.867245754 0.046208737 29 255 89
5.772009134 108.769464360 0.048241665 33 255 88
5.773019334 108.673231477 0.040794195 25 255 91
5.773345059 108.576688983 0.035236168 18 255 94
5.781446202 108.483640888 0.008226223 0 253 111
5.778654890 108.385693094 0.011270160 0 254 108
5.776470434 108.288018915 0.012640776 0 254 105
5.773632039 108.190052296 0.015816716 0 255 102
5.770174841 108.091809726 0.020701064 4 255 100
5.765016303 107.992807311 0.030280715 15 255 96
5.759309789 107.893562864 0.041373437 25 255 91
5.754823471 107.794867197 0.049100573 33 255 88
5.754265271 107.697928037 0.045990426 29 255 89
5.758032526 107.602918161 0.030946493 15 255 96
5.762649754 107.508283427 0.013558171 0 254 105
5.763180716 107.411824413 0.007445611 0 253 111
5.761961614 107.314585372 0.006162857 0 253 111
5.762376025 107.218072670 0.000373833 0 252 117
5.766367109 107.123147647 -0.015283225 0 250 129
5.770642761 107.028345026 -0.031724625 0 248 144
5.771678108 106.932101322 -0.039224214 0 247 150
5.769229151 106.834312127 -0.037108582 0 247 150
5.764228130 106.735394128 -0.027949930 0 248 141
5.759309160 106.636515372 -0.019016565 0 249 135
5.754982627 106.537901326 -0.011716823 0 251 126
5.751376783 106.439607945 -0.006404627 0 251 123
5.749726888 106.342179378 -0.006488567 0 251 123
5.751099120 106.246083360 -0.014910732 0 250 129
5.755525403 106.151330499 -0.031759345 0 248 144
5.757272903 106.055394643 -0.041215204 0 246 153
5.749805217 105.955405082 -0.025241377 0 249 138
5.742605641 105.855538127 -0.010006193 0 251 126
5.737148851 105.756440700 0.000421010 0 252 117
5.733084855 105.657957333 0.007005954 0 253 111
5.730516874 105.560131660 0.009463741 0 254 108
5.727982265 105.462321697 0.011830488 0 254 108
5.724520818 105.364107437 0.016755925 0 255 102
5.720592520 105.265690950 0.022970731 7 255 99
5.719308027 105.168430911 0.021890900 4 255 100
5.721690709 105.072770721 0.010692252 0 254 108
5.723326020 104.976782122 0.001556948 0 252 117
5.720966438 104.879051784 0.003446885 0 253 114
5.716134632 104.780246763 0.012160254 0 254 105
5.711833123 104.681675093 0.019411319 4 255 100
5.710464326 104.584379593 0.018570246 0 255 102
5.713684404 104.489075591 0.005066467 0 253 114
5.718296294 104.394371720 -0.012277373 0 250 129
5.718169588 104.297610818 -0.016543324 0 250 132
5.713465907 104.198868249 -0.008177207 0 251 123
5.707231337 104.099466429 0.004414846 0 253 114
5.704396033 104.001537121 0.007626999 0 253 111
5.705437585 103.905282593 0.000141083 0 252 117
5.706800027 103.809164814 -0.008229460 0 251 123
5.705867036 103.712056059 -0.010264189 0 251 126
5.701916057 103.613647881 -0.003968900 0 252 120
5.697046637 103.514846815 0.004862197 0 253 114
5.694012656 103.416837393 0.008628944 0 253 111
5.694506614 103.320344230 0.002660241 0 253 114
5.697071608 103.224738297 -0.009023237 0 251 126
5.696619211 103.127836283 -0.012378226 0 250 129
5.691950496 103.029128223 -0.004095713 0 252 120
5.686700379 102.930174123 0.005792525 0 253 111
5.681805319 102.831374954 0.014701973 0 254 105
5.677103200 102.732661071 0.023080044 7 255 99
5.676274368 102.635602673 0.020769221 4 255 100
5.677806521 102.539550603 0.011943213 0 254 108
5.677003109 102.442501707 0.009564212 0 254 108
5.672761623 102.343989470 0.016675221 0 255 102
5.675377134 102.248395079 0.004862090 0 253 114
5.671252550 102.149934667 0.011652559 0 254 108
5.671410033 102.053293941 0.006625545 0 253 111
5.674720431 101.957989205 -0.007102640 0 251 123
5.672847462 101.860485141 -0.006523594 0 251 123
5.680495102 101.767011496 -0.032220984 0 248 144
5.685332422 101.672342716 -0.050160911 0 245 162
5.685738889 101.575797316 -0.055870434 0 244 165
5.678620796 101.476074411 -0.040810406 0 246 153
5.674256004 101.377517296 -0.033348627 0 247 147
5.668215386 101.278256526 -0.021260232 0 249 135
5.667649792 101.181304442 -0.024282558 0 249 138
5.667611500 101.084573738 -0.028759322 0 248 141
5.665680417 100.987046822 -0.028010659 0 248 141
5.661811733 100.888707047 -0.021912804 0 249 135
5.658519156 100.790611038 -0.017404024 0 250 132
5.657757681 100.693577444 -0.019880564 0 249 135
5.657919248 100.596930073 -0.024903909 0 249 138
5.657016003 100.499836307 -0.026987124 0 248 141
5.655061395 100.402302987 -0.026167287 0 248 141
5.653213587 100.304814915 -0.025641205 0 248 141
5.652839459 100.207942202 -0.029181868 0 248 144
5.654760503 100.112025560 -0.039056915 0 247 150
5.658089953 100.016693102 -0.052818682 0 245 162
5.659859884 99.920708458 -0.062274761 0 243 171
5.656383319 99.822540901 -0.057247736 0 244 168
5.648478221 99.722536109 -0.039995255 0 246 153
5.641876194 99.623077141 -0.026338528 0 248 141
5.640034169 99.525595444 -0.025820102 0 248 141
5.641740397 99.429583755 -0.035095259 0 247 147
5.644280250 99.333914845 -0.046670633 0 245 159
5.646402050 99.238070356 -0.057091082 0 244 168
5.648207816 99.142092901 -0.066638207 0 243 174
5.648678328 99.045562303 -0.072498470 0 242 180
5.645623708 98.947577369 -0.068626705 0 242 177
5.639123778 98.848175002 -0.055243099 0 244 165
5.632867899 98.748877177 -0.042532023 0 246 153
5.629900213 98.650935003 -0.038896908 0 247 150
5.628801532 98.553761863 -0.040420178 0 246 153
5.627185143 98.456376303 -0.040513263 0 246 153
5.625862054 98.359111381 -0.041414986 0 246 153
5.626267279 98.262554481 -0.047086831 0 245 159
5.627757574 98.166440428 -0.055753135 0 244 165
5.630002631 98.070632953 -0.066502091 0 243 174
5.633271597 97.975241118 -0.080076749 0 241 186
5.636206722 97.879709744 -0.092728893 0 239 198
5.634783753 97.782398722 -0.093348950 0 239 198
5.629041281 97.683328748 -0.082043264 0 240 189
5.623054726 97.584163010 -0.070062585 0 242 177
5.619789957 97.486107437 -0.065594765 0 243 174
5.619942773 97.389441501 -0.070560820 0 242 180
5.620971907 97.293130185 -0.077945158 0 241 186
5.618347996 97.195336441 -0.075243429 0 241 183
5.611450889 97.095813295 -0.060743394 0 243 171
5.607059669 96.997308470 -0.053160337 0 244 165
5.607104386 96.900599270 -0.057822815 0 244 168
5.607460474 96.804014955 -0.063343932 0 243 174
5.603334606 96.705621257 -0.056490237 0 244 168
5.594685387 96.605406614 -0.037147246 0 247 150
5.588286465 96.506103929 -0.024015722 0 249 138
5.583206291 96.407335852 -0.014523890 0 250 129
5.577380374 96.308271084 -0.002972022 0 252 120
5.580899059 96.212962294 -0.017218334 0 250 132
5.578476180 96.115266406 -0.015059712 0 250 129
5.576862107 96.017895706 -0.015133063 0 250 129
5.576462421 95.921011668 -0.018558208 0 250 132
5.577454602 95.824683900 -0.025825204 0 248 141
5.579028939 95.728587212 -0.034698541 0 247 147
5.574202015 95.629932690 -0.025897245 0 248 141
5.574751334 95.533425535 -0.031938531 0 248 144
5.581329582 95.439319699 -0.054624693 0 244 165
5.577329455 95.340996525 -0.048103031 0 245 159
5.577135857 95.244189600 -0.052090183 0 245 162
5.579819721 95.148525396 -0.064021123 0 243 174
5.578893338 95.051425129 -0.065983051 0 243 174
5.573561912 94.952577713 -0.055781331 0 244 165
5.568939826 94.854014596 -0.047537007 0 245 159
5.568086199 94.756945879 -0.049696636 0 245 162
5.568308052 94.660302299 -0.054824762 0 244 165
5.566106522 94.562700316 -0.053260634 0 244 165
5.563011498 94.464746537 -0.049228378 0 245 159
5.561600271 94.367458242 -0.049844263 0 245 162
5.561910142 94.270848200 -0.055211350 0 244 165
5.563143277 94.174600455 -0.063126749 0 243 171
5.563596733 94.078044410 -0.068888339 0 242 177
5.561091486 93.980325060 -0.066479335 0 243 174
5.555227685 93.881288886 -0.054795532 0 244 165
5.547358064 93.781470035 -0.037572010 0 247 150
5.542587135 93.682869953 -0.028903544 0 248 141
5.542811806 93.586227286 -0.034028137 0 247 147
5.542767710 93.489478577 -0.038409596 0 247 150
5.539382801 93.391424498 -0.033565073 0 247 147
5.534267508 93.292697129 -0.023941323 0 249 138
5.532067216 93.195108933 -0.022365696 0 249 138
5.532962993 93.098727078 -0.029338310 0 248 144
5.534605354 93.002634129 -0.038371531 0 247 150
5.536195692 92.906518899 -0.047260145 0 245 159
5.538713062 92.810761531 -0.058707694 0 244 168
5.541438408 92.715082091 -0.070728620 0 242 180
5.542394074 92.618714096 -0.077861803 0 241 186
5.541007477 92.521437943 -0.078526027 0 241 186
5.537888396 92.423492102 -0.074405055 0 241 183
5.234406846 72.384888700 -0.139261385 0 232 240
5.239577530 72.289693998 -0.157832269 0 229 255
5.230920074 72.190244399 -0.138175828 0 232 237
5.222710889 72.090938248 -0.119757317 0 235 222
5.217799875 71.992648792 -0.110455079 0 236 213
5.213845499 71.894655250 -0.103796236 0 237 207
5.209580901 71.796569082 -0.096278653 0 238 201
5.205970875 71.698685338 -0.090569458 0 239 195
5.205824113 71.601860110 -0.094433249 0 238 201
5.207799332 71.505680763 -0.104162206 0 237 207
5.210277979 71.409652336 -0.115281914 0 235 219
5.212276164 71.313475226 -0.125072411 0 234 228
5.207508871 71.215242221 -0.116158523 0 235 219
5.195288470 71.114752607 -0.086638979 0 240 192
5.188305462 71.015857319 -0.071597164 0 242 180
5.190412364 70.919715347 -0.081683883 0 240 189
5.196155356 70.824669151 -0.101821929 0 237 207
5.197751233 70.728366898 -0.110493965 0 236 213
5.194162251 70.630500715 -0.104830845 0 237 210
5.190005188 70.532465585 -0.097596052 0 238 204
5.188974977 70.435372442 -0.099004752 0 238 204
5.191003642 70.339197307 -0.108869148 0 236 213
5.193206353 70.243072022 -0.119213747 0 235 222
5.195004752 70.146823261 -0.128439572 0 233 231
5.194825017 70.049980976 -0.132195458 0 233 234
5.190358592 69.951858141 -0.124098809 0 234 225
5.184663225 69.853371481 -0.112603304 0 236 216
5.181133595 69.755533395 -0.107094315 0 237 210
5.178605431 69.657995107 -0.104353007 0 237 207
5.184531032 69.562969201 -0.124983346 0 234 228
5.181564566 69.465299983 -0.121028128 0 235 222
5.180999068 69.368343646 -0.123709992 0 234 225
5.181015597 69.271559201 -0.128000003 0 234 228
5.178590665 69.174052462 -0.125538749 0 234 228
5.172966504 69.075602571 -0.114231016 0 236 216
5.167332400 68.977153278 -0.102894598 0 237 207
5.163464331 68.879227409 -0.096439844 0 238 201
5.159323717 68.781223599 -0.089230389 0 239 195
5.153986073 68.682870715 -0.078710111 0 241 186
5.149659362 68.584817583 -0.070983787 0 242 180
5.148408315 68.487667712 -0.071760300 0 242 180
5.150764854 68.391573154 -0.082510514 0 240 189
5.156017986 68.296322102 -0.101268712 0 237 207
5.162341413 68.201378492 -0.122985354 0 234 225
5.168196823 68.106292944 -0.143407075 0 231 243
5.171532959 68.010469188 -0.156862132 0 229 255
5.168354057 67.912749080 -0.152302069 0 230 249
5.157781174 67.812885027 -0.127296315 0 234 228
5.145919204 67.712654702 -0.098724844 0 238 204
5.141785229 67.614669302 -0.091520340 0 239 198
5.145238995 67.518879440 -0.105295320 0 237 210
5.148444675 67.423014566 -0.118383377 0 235 222
5.147514722 67.325954284 -0.120035054 0 235 222
5.142473601 67.227710373 -0.110317822 0 236 213
5.135192959 67.128825659 -0.094406852 0 238 201
5.128204942 67.030029762 -0.079303785 0 241 186
5.123055097 66.931765528 -0.069282312 0 242 177
5.120689913 66.834301895 -0.066959710 0 242 177
5.123789971 66.738402278 -0.079748396 0 241 186
5.128696838 66.643015561 -0.097532310 0 238 201
5.131955255 66.547154163 -0.110757011 0 236 213
5.133900554 66.450915488 -0.120349696 0 235 222
5.134592852 66.354318140 -0.126476548 0 234 228
5.132732676 66.256994405 -0.125544142 0 234 228
5.128192011 66.158910889 -0.117198375 0 235 219
5.124887081 66.061180177 -0.112268594 0 236 216
5.123962371 65.964124663 -0.113919691 0 236 216
5.123977785 65.867334724 -0.118169453 0 235 222
5.122536404 65.770132951 -0.118389663 0 235 222
5.117846107 65.672016021 -0.109624447 0 236 213
5.109909605 65.572988416 -0.091881158 0 239 198
5.101972592 65.473965965 -0.074135190 0 241 183
5.100048413 65.376636256 -0.073015727 0 242 180
5.102956335 65.280661490 -0.085257826 0 240 192
5.106133297 65.184759041 -0.098242969 0 238 204
5.108784239 65.088706385 -0.109772493 0 236 213
5.112578358 64.992970021 -0.124462433 0 234 225
5.114355803 64.896667888 -0.133574424 0 233 234
5.111197988 64.798989910 -0.129037141 0 233 231
5.103512974 64.700055165 -0.111978863 0 236 216
5.091112952 64.599816708 -0.081880009 0 240 189
5.085471026 64.501460331 -0.070469317 0 242 180
5.078185290 64.402652458 -0.054511432 0 244 165
5.077603849 64.305702727 -0.057093256 0 244 168
5.081651912 64.210030696 -0.072477133 0 242 180
5.088493621 64.115124960 -0.095586082 0 238 201
5.086126127 64.017677987 -0.093225428 0 239 198
5.086474694 63.920978744 -0.098375176 0 238 204
5.088452021 63.824725622 -0.108028396 0 236 213
5.084911101 63.726957402 -0.102419265 0 237 207
5.084436976 63.630030718 -0.105290616 0 237 210
5.086486824 63.533793656 -0.115141323 0 235 219
5.088047551 63.437420737 -0.123638303 0 234 225
5.088203323 63.340662844 -0.128248634 0 234 228
5.079886989 63.241597615 -0.109426725 0 236 213
5.080610872 63.144995646 -0.115606082 0 235 219
5.079577108 63.047915202 -0.116923262 0 235 219
5.083267131 62.952115389 -0.131304089 0 233 231
5.074878496 62.853042135 -0.112277499 0 236 216
5.066614392 62.754008193 -0.093594053 0 239 198
5.059304486 62.655237388 -0.077548422 0 241 186
5.052678467 62.556655762 -0.063393026 0 243 174
5.048442582 62.458721828 -0.055847030 0 244 165
5.048006258 62.361811712 -0.058808751 0 244 168
5.049994321 62.265551933 -0.068474851 0 242 177
5.050081532 62.168780369 -0.072882503 0 242 180
5.046795322 62.071105052 -0.067958718 0 242 177
5.041982725 61.973023517 -0.058812003 0 244 168
5.038890789 61.875404136 -0.054423258 0 244 165
5.039807487 61.778854716 -0.061120851 0 243 171
5.040615533 61.682274921 -0.067516903 0 242 177
5.039478656 61.585176888 -0.068532418 0 242 177
5.038553308 61.488135098 -0.070131931 0 242 177
5.037802031 61.391139383 -0.072211844 0 242 180
5.033830466 61.293291379 -0.065383476 0 243 174
5.026641379 61.194595507 -0.049654339 0 245 162
5.020956434 61.096301222 -0.038084406 0 247 150
5.017563603 60.998614400 -0.032853279 0 247 147
5.015092286 60.901171841 -0.030169936 0 248 144
5.013219123 60.803887546 -0.029139997 0 248 144
5.012631687 60.706941187 -0.031665343 0 248 144
5.012738838 60.610176454 -0.036110897 0 247 150
5.011527498 60.513066030 -0.036908358 0 247 150
5.007661235 60.415262393 -0.030360970 0 248 144
5.002745480 60.317187257 -0.020909415 0 249 135
5.001082204 60.219962079 -0.020453429 0 249 135
5.003505028 60.123799895 -0.031299059 0 248 144
5.005583351 60.027545657 -0.041190764 0 246 153
5.004964817 59.930589889 -0.043621531 0 246 156
5.004524856 59.833680066 -0.046545196 0 245 159
5.006304639 59.737343616 -0.055608041 0 244 165
5.007916918 59.640961815 -0.064206532 0 243 174
5.006743841 59.543860152 -0.065099113 0 243 174
5.003875429 59.446322334 -0.061300922 0 243 171
5.002773434 59.349239862 -0.062387946 0 243 171
5.003717445 59.252682453 -0.069133680 0 242 177
5.001564193 59.155330035 -0.067310507 0 242 177
4.993218916 59.056394445 -0.048357288 0 245 159
4.982944393 58.956971666 -0.024065907 0 249 138
4.985260056 58.860767214 -0.034601644 0 247 147
4.986154890 58.764198385 -0.041205909 0 246 153
4.982765759 58.666538726 -0.035958223 0 247 150
4.982357678 58.569637828 -0.038956050 0 247 150
4.982207914 58.472801976 -0.042667415 0 246 153
4.979874938 58.375412805 -0.040338115 0 246 153
4.982697186 58.279327733 -0.052269119 0 245 162
4.982657812 58.182517517 -0.056282715 0 244 165
4.985641876 58.086468493 -0.068659390 0 242 177
4.988933390 57.990493796 -0.081885636 0 240 189
4.981151844 57.891733835 -0.064477779 0 243 174
4.977157578 57.793929131 -0.057546054 0 244 168
4.975984703 57.696833414 -0.058418502 0 244 168
4.974345005 57.599621088 -0.057998403 0 244 168
4.974137384 57.502766866 -0.061539066 0 243 171
4.976131928 57.406461114 -0.071171020 0 242 180
4.978195464 57.310170258 -0.080992847 0 240 189
4.977832727 57.213273982 -0.084101264 0 240 192
4.974504076 57.115641133 -0.079003214 0 241 186
4.970138300 57.017753069 -0.071034725 0 242 180
4.966332626 56.920006166 -0.064614638 0 243 174
4.962475941 56.822248813 -0.058052268 0 244 168
4.956663076 56.724011146 -0.046076719 0 246 156
4.949629618 56.625476564 -0.030723017 0 248 144
4.944168603 56.527333252 -0.019718471 0 249 135
4.942548705 56.430136393 -0.019339808 0 249 135
4.944925911 56.333919824 -0.030018762 0 248 144
4.948526971 56.238000219 -0.044082757 0 246 156
4.949704549 56.141484894 -0.051440730 0 245 162
4.945891650 56.043750322 -0.044990422 0 246 156
4.939891580 55.945485110 -0.032487626 0 247 147
4.936444658 55.847844702 -0.027047532 0 248 141
4.936609736 55.751083302 -0.031599844 0 248 144
4.938495162 55.654738130 -0.040910929 0 246 153
4.940720002 55.558472927 -0.051160099 0 245 162
4.942064542 55.461992508 -0.058972658 0 244 168
4.939589701 55.364588655 -0.056216664 0 244 165
4.931797195 55.265904765 -0.038746448 0 247 150
4.922495818 55.166863121 -0.017100143 0 250 132
4.917126023 55.068772053 -0.006330670 0 251 123
4.916062775 54.971716965 -0.007475676 0 251 123
4.916680726 54.875064413 -0.013271291 0 250 129
4.917117847 54.778367415 -0.018565529 0 250 132
4.920192165 54.682298658 -0.031155633 0 248 144
4.923866806 54.586369829 -0.045405819 0 246 156
4.921794691 54.489070446 -0.043754093 0 246 156
4.914681297 54.390574639 -0.028152238 0 248 141
4.907476000 54.292061722 -0.012294839 0 250 129
4.904860237 54.194640017 -0.009135365 0 251 126
4.905180628 54.097913501 -0.014099107 0 250 129
4.905179221 54.001110054 -0.018171383 0 250 132
4.904034321 53.904036470 -0.019078524 0 249 135
4.900199570 53.806330360 -0.012541645 0 250 129
4.893234148 53.707891294 0.002659144 0 253 114
4.887194248 53.609673770 0.015300194 0 254 105
4.885667556 53.512516433 0.015454039 0 254 105
4.887457903 53.416134602 0.006430408 0 253 111
4.886908519 53.319204819 0.003882081 0 253 114
4.887027484 53.222430365 -0.000514579 0 252 117
4.877736252 53.123466969 0.021129150 4 255 100
4.876907227 53.026474353 0.019357960 4 255 100
4.882287071 52.930920585 0.000406862 0 252 117
4.886292005 52.835043830 -0.014738703 0 250 129
4.884947518 52.737927567 -0.015080425 0 250 129
4.874792896 52.638779837 0.008958446 0 254 108
4.856460425 52.537756310 0.055628598 40 255 84
4.845159398 52.438362215 0.082842635 69 255 72
4.841169951 52.340653774 0.089825060 76 255 68
4.537747538 32.436671608 0.121025756 109 255 54
4.544239924 32.340819748 0.099207588 87 255 64
4.550247736 32.244889315 0.078732639 66 255 73
4.552017246 32.148317956 0.069999252 55 255 78
4.550864878 32.051307441 0.069360916 55 255 78
4.548610098 31.954132578 0.071777543 58 255 76
4.546662270 31.857004365 0.073344997 58 255 76
4.545769787 31.760033533 0.071990072 58 255 76
4.545664381 31.663179154 0.068455889 55 255 78
4.543636189 31.566040173 0.070249310 55 255 78
4.538381622 31.468426800 0.080981653 69 255 72
4.532546581 31.370731420 0.093323267 80 255 67
4.530035020 31.273526699 0.096459229 84 255 65
4.530555910 31.176766293 0.091195632 80 255 67
4.529724506 31.079807634 0.089679328 76 255 68
4.524420927 30.982198734 0.100553375 87 255 64
4.514831727 30.883971776 0.123301139 113 255 52
4.503877340 30.785553986 0.149832256 142 255 40
4.500049730 30.688171664 0.156621167 149 255 36
4.508354130 30.592536588 0.129801323 120 255 49
4.520424616 30.497434677 0.092548893 80 255 67
4.527990778 30.401678321 0.067775889 55 255 78
4.527958068 30.304831118 0.064055614 51 255 80
4.523085374 30.207294406 0.073745138 62 255 75
4.517252756 30.109624428 0.086095262 73 255 70
4.511456761 30.011963342 0.098345161 87 255 64
4.504810654 29.914185931 0.112951486 102 255 57
4.496874163 29.816231190 0.131134028 120 255 49
4.489803649 29.718403347 0.146918697 138 255 41
4.496014540 29.622439752 0.125908646 116 255 51
4.491058578 29.524911397 0.135837297 127 255 46
4.494288663 29.428525984 0.123087582 113 255 52
4.496927004 29.332055170 0.111978297 102 255 57
4.496663336 29.235179699 0.108910159 98 255 59
4.492820873 29.137809435 0.115758362 106 255 56
4.495390961 29.041324490 0.104841313 95 255 60
4.494003412 28.944293293 0.104890243 95 255 60
4.494334540 28.847497782 0.100178519 87 255 64
4.487673078 28.749746272 0.114841623 106 255 56
4.492677201 28.653587831 0.097185006 84 255 65
4.487896137 28.556095911 0.106640560 95 255 60
4.481739422 28.458420599 0.119908777 109 255 54
4.481114744 28.361496296 0.117850798 106 255 56
4.485523090 28.265249456 0.101849007 91 255 62
4.490894533 28.169127809 0.083179722 69 255 72
4.484520174 28.071428607 0.097055568 84 255 65
4.490379229 27.975366824 0.077037263 62 255 75
4.482638245 27.877489247 0.094702000 84 255 65
4.476301184 27.779803204 0.108478105 98 255 59
4.476498766 27.682986201 0.104149509 91 255 62
4.481265553 27.586771338 0.087161731 73 255 70
4.485358001 27.490463329 0.072043350 58 255 76
4.483859106 27.393417762 0.072418456 58 255 76
4.479349235 27.295978650 0.081137548 69 255 72
4.474856874 27.198544518 0.089809325 76 255 68
4.472829310 27.101433657 0.091652728 80 255 67
4.473246651 27.004640659 0.086722772 73 255 70
4.471727364 26.907596175 0.087160036 73 255 70
4.467211363 26.810165761 0.095901974 84 255 65
4.463424731 26.712831798 0.102624104 91 255 62
4.462131316 26.615819493 0.102438923 91 255 62
4.462348805 26.519000472 0.098068245 87 255 64
4.462057360 26.422115696 0.095108866 84 255 65
4.460540594 26.325074762 0.095545883 84 255 65
4.458054901 26.227911542 0.098668886 87 255 64
4.454808378 26.130653420 0.103901282 91 255 62
4.451059350 26.033333780 0.110527286 98 255 59
4.447060579 25.935984916 0.117846509 106 255 56
4.443068876 25.838639240 0.125147334 116 255 51
4.440783543 25.741508664 0.127720930 116 255 51
4.441836408 25.644794112 0.121045342 109 255 54
4.444011334 25.548217072 0.111261499 98 255 59
4.445161678 25.451511010 0.104317873 91 255 62
4.444607619 25.354593362 0.102098351 91 255 62
4.440505912 25.257239738 0.109710835 98 255 59
4.432772931 25.159443973 0.127387212 116 255 51
4.427105624 25.061905449 0.139340615 131 255 44
4.428069943 24.965177238 0.132918033 124 255 48
4.435381501 24.869217243 0.108907273 98 255 59
4.442312368 24.773204875 0.085952352 73 255 70
4.445608798 24.676748489 0.073070032 58 255 76
4.447437504 24.580112521 0.064256061 51 255 80
4.448983146 24.483440503 0.056227551 40 255 84
4.447331131 24.386384892 0.057061519 44 255 83
4.442552143 24.288957769 0.066562221 51 255 80
4.437336027 24.191481708 0.077275525 66 255 73
4.434328076 24.094269899 0.081870626 69 255 72
4.433404626 23.997305235 0.080690138 69 255 72
4.432489279 23.900341472 0.079488299 66 255 73
4.430604213 23.803264138 0.080974959 69 255 72
4.426426088 23.705919947 0.088817565 76 255 68
4.420593287 23.608385770 0.101247034 91 255 62
4.417650842 23.511190319 0.105667541 95 255 60
4.421543509 23.414785999 0.091146596 80 255 67
4.430294593 23.318937357 0.063162098 47 255 81
4.437371071 23.222889080 0.039819433 25 255 91
4.435915269 23.125858718 0.040124090 25 255 91
4.428605875 23.028161427 0.056652641 44 255 83
4.422002430 22.930549178 0.071225981 58 255 76
4.419167159 22.833367895 0.075357276 62 255 75
4.418160937 22.736394429 0.074420581 62 255 75
4.415282423 22.639210406 0.078674010 66 255 73
4.410028390 22.541761575 0.089512326 76 255 68
4.403944427 22.444223304 0.102652022 91 255 62
4.398319734 22.346740055 0.114520085 102 255 57
4.395915713 22.249617635 0.117463188 106 255 56
4.396860242 22.152866482 0.111126773 98 255 59
4.397955166 22.056130416 0.104374585 91 255 62
4.396728577 21.959137883 0.104057689 91 255 62
4.391214468 21.861676463 0.115625139 106 255 56
4.389843745 21.764670217 0.115710011 106 255 56
4.394361069 21.668303923 0.099476600 87 255 64
4.399831213 21.572036559 0.080603284 69 255 72
4.403483270 21.475568128 0.066769981 51 255 80
4.404606741 21.378824345 0.059946031 44 255 83
4.404118043 21.281906270 0.057591527 44 255 83
4.402313856 21.184847415 0.058884233 44 255 83
4.397577286 21.087477349 0.068305747 55 255 78
4.397613823 20.990615899 0.064498798 51 255 80
4.388163819 20.892752116 0.086987005 73 255 70
4.380541807 20.795087099 0.104409833 91 255 62
4.375106297 20.697656324 0.115773512 106 255 56
4.373254627 20.600603199 0.117204855 106 255 56
4.377232019 20.504157212 0.102480457 91 255 62
4.384811550 20.408080822 0.077772648 66 255 73
4.390872823 20.311841066 0.057274030 44 255 83
4.390806642 20.214965420 0.053760525 40 255 84
4.382470245 20.117241259 0.073171762 58 255 76
4.370159002 20.019116768 0.103601978 91 255 62
4.362208655 19.921444652 0.121945812 113 255 52
4.359556272 19.824314888 0.125605650 116 255 51
4.357115443 19.727207758 0.128680238 120 255 49
4.353866029 19.630020392 0.133997292 124 255 48
4.352383223 19.533011797 0.134418624 124 255 48
4.354726694 19.436385565 0.124234908 113 255 52
4.359920497 19.340040246 0.106151252 95 255 60
4.366726738 19.243849930 0.083598923 69 255 72
4.372009357 19.147503283 0.065270926 51 255 80
4.370495409 19.050483714 0.065783839 51 255 80
4.362720616 18.952851485 0.083652925 69 255 72
4.357580765 18.855481451 0.094219212 80 255 67
4.356676616 18.758526105 0.093045250 80 255 67
4.355899410 18.661582973 0.091520502 80 255 67
4.351932988 18.564332274 0.098837531 87 255 64
4.346017634 18.466896743 0.111558316 102 255 57
4.342227527 18.369668200 0.118388990 109 255 54
4.342223999 18.272802429 0.114724097 102 255 57
4.344913934 18.176191392 0.103593714 91 255 62
4.347051550 18.079525353 0.093995436 80 255 67
4.342889082 17.982264136 0.101862860 91 255 62
4.336461442 17.884793080 0.116010875 106 255 56
4.333641079 17.787662832 0.120160188 109 255 54
4.334064865 17.690835501 0.115317309 106 255 56
4.335256423 17.594078148 0.108347089 98 255 59
4.335166039 17.497200956 0.104931721 95 255 60
4.334584012 17.400277940 0.102880379 91 255 62
4.335142868 17.303458897 0.097667343 84 255 65
4.336593550 17.206719845 0.089983012 76 255 68
4.335395860 17.109738857 0.089641695 76 255 68
4.329502749 17.012334206 0.102318469 91 255 62
4.323372976 16.914912033 0.115652585 106 255 56
4.321133763 16.817841983 0.118202152 106 255 56
4.323901833 16.721219101 0.106871110 95 255 60
4.326216687 16.624553123 0.096797536 84 255 65
4.323151738 16.527409316 0.101639622 91 255 62
4.316348812 16.429938282 0.116845867 106 255 56
4.309453800 16.332463631 0.132308676 124 255 48
4.307174460 16.235395978 0.134976353 124 255 48
4.310992646 16.138858671 0.120740430 109 255 54
4.316349351 16.042450657 0.102240080 91 255 62
4.319466616 15.945845072 0.089949337 76 255 68
4.321192523 15.849117143 0.081517040 69 255 72
4.323013961 15.752395276 0.072820924 58 255 76
4.323542309 15.655561465 0.067710884 55 255 78
4.323729287 15.558697633 0.063548352 51 255 80
4.324473171 15.461879751 0.057842878 44 255 83
4.325078633 15.365048941 0.052522242 36 255 86
4.322513309 15.267952557 0.055993732 40 255 84
4.315979398 15.170528032 0.070469402 58 255 76
4.309503729 15.073112558 0.084784856 73 255 70
4.306367608 14.975975860 0.089842477 76 255 68
4.306829708 14.879135273 0.084924939 73 255 70
4.310654280 14.782567458 0.070685729 58 255 76
4.314672057 14.686011614 0.055911816 40 255 84
4.316531395 14.589277765 0.047123390 33 255 88
4.313085306 14.492115668 0.053045965 36 255 86
4.303382062 14.394455352 0.076318557 62 255 75
4.294777979 14.296889131 0.096544901 84 255 65
4.294806081 14.200012039 0.092838384 80 255 67
4.300382274 14.103571208 0.073749860 62 255 75
4.304810554 14.007035355 0.057845079 44 255 83
4.305507955 13.910204305 0.052285900 36 255 86
4.301239979 13.812986515 0.060495395 47 255 81
4.294802059 13.715603617 0.074722772 62 255 75
4.291224289 13.618444715 0.081020924 69 255 72
4.298298744 13.522102436 0.057784163 44 255 83
4.299794017 13.425329432 0.050018115 36 255 86
4.297432578 13.328262522 0.052946964 36 255 86
4.302625233 13.231765690 0.034930938 18 255 94
4.301657810 13.134802449 0.033996625 18 255 94
4.296818585 13.037550494 0.043799277 29 255 89
4.294310703 12.940474417 0.047138689 33 255 88
4.295112595 12.843643743 0.041301718 25 255 91
4.297401517 12.746920856 0.031342461 15 255 96
4.302862998 12.650427142 0.012587084 0 254 105
4.317911668 12.554624957 -0.032751674 0 247 147
4.337921932 12.459169024 -0.091847828 0 239 198
4.046022379 -7.712628502 -0.008864398 0 251 126
4.044863121 -7.809578964 -0.009025684 0 251 126
4.051391225 -7.906592591 -0.030524164 0 248 144
4.055231514 -8.003588855 -0.044560953 0 246 156
4.055759099 -8.100559042 -0.049401387 0 245 159
4.054312654 -8.197511897 -0.048761226 0 245 159
4.053546785 -8.294471071 -0.050009097 0 245 162
4.053008535 -8.391432750 -0.051887694 0 245 162
4.050895475 -8.488378214 -0.049393764 0 245 159
4.048016314 -8.585314476 -0.044772100 0 246 156
4.046407870 -8.682263671 -0.043676625 0 246 156
4.044935237 -8.779214002 -0.042957017 0 246 156
4.040615402 -8.876129630 -0.034332737 0 247 147
4.032771715 -8.972998852 -0.015925344 0 250 132
4.026005873 -9.069876672 -0.000508676 0 252 117
4.024741292 -9.166822800 -0.000361914 0 252 117
4.025500852 -9.263796274 -0.005832957 0 251 123
4.024941282 -9.360752665 -0.007641072 0 251 123
4.025726509 -9.457728735 -0.013181220 0 250 129
4.029546290 -9.554750958 -0.027144210 0 248 141
4.033149151 -9.651773614 -0.040504046 0 246 153
4.033046257 -9.748742305 -0.043575640 0 246 156
4.028047364 -9.845633837 -0.033054680 0 247 147
4.021198718 -9.942492189 -0.017397495 0 250 132
4.016653089 -10.039384464 -0.008132359 0 251 123
4.014618219 -10.136316856 -0.005836073 0 251 123
4.014271075 -10.233277902 -0.008223927 0 251 123
4.013817647 -10.330237572 -0.010315632 0 251 126
4.014908226 -10.427225789 -0.016692580 0 250 132
4.018303403 -10.524258468 -0.029466340 0 248 144
4.018639627 -10.621236500 -0.033747016 0 247 147
4.014914810 -10.718136966 -0.026752528 0 248 141
4.010328372 -10.815018349 -0.017364846 0 250 132
4.005099979 -10.911884078 -0.006193773 0 251 123
4.007933713 -11.008911919 -0.017403530 0 250 132
4.006389556 -11.105851257 -0.016458329 0 250 132
4.011188325 -11.202925146 -0.033121390 0 247 147
4.011509088 -11.299906512 -0.037351487 0 247 150
4.014735558 -11.396952960 -0.049647480 0 245 162
4.009948301 -11.493822948 -0.039694248 0 246 153
4.007287174 -11.590738546 -0.035642529 0 247 147
3.998863897 -11.687519238 -0.015592245 0 250 132
3.996855826 -11.784445509 -0.013351219 0 250 129
4.000538497 -11.881507385 -0.026908368 0 248 141
4.004187278 -11.978572047 -0.040370447 0 246 153
4.002408518 -12.075506078 -0.038762804 0 247 150
3.998883995 -12.172395688 -0.032307166 0 248 144
3.998450458 -12.269362189 -0.034432080 0 247 147
4.000147707 -12.366384289 -0.042471782 0 246 153
4.001317593 -12.463394628 -0.049046274 0 245 159
4.000589597 -12.560356076 -0.050350407 0 245 162
3.997300342 -12.657248516 -0.044542290 0 246 156
3.993348865 -12.754121063 -0.036894380 0 247 150
3.993356029 -12.851101411 -0.040236264 0 246 153
3.998748139 -12.948234317 -0.058528192 0 244 168
4.005907121 -13.045422622 -0.081724865 0 240 189
4.011838818 -13.142581679 -0.101513100 0 237 207
4.014705443 -13.239656163 -0.112790212 0 236 216
4.013640576 -13.336616796 -0.113150446 0 236 216
4.009189631 -13.433475471 -0.104108004 0 237 207
4.004738991 -13.530331526 -0.095065206 0 238 201
4.002924213 -13.627266321 -0.093339838 0 239 198
4.001506043 -13.724212905 -0.092714548 0 239 198
3.997849285 -13.821088365 -0.085872497 0 240 192
3.992435393 -13.917905539 -0.074150401 0 241 183
3.987037115 -14.014719852 -0.062470429 0 243 171
3.982848153 -14.111570460 -0.054147052 0 244 165
3.982399961 -14.208542731 -0.056209259 0 244 165
3.986919261 -14.305682138 -0.072063387 0 242 180
3.989154091 -14.402748267 -0.081573333 0 240 189
3.986193812 -14.499638580 -0.076657086 0 241 183
3.981820116 -14.596478353 -0.067815044 0 242 177
3.981617923 -14.693461942 -0.070554857 0 242 180
3.986163263 -14.790614585 -0.086476167 0 240 192
3.986865872 -14.887633708 -0.091726260 0 239 198
3.982092158 -14.984455678 -0.081768907 0 240 189
3.977646944 -15.081286803 -0.072722509 0 242 180
3.976717624 -15.178245431 -0.073437760 0 242 180
3.978452383 -15.275303758 -0.081549497 0 240 189
3.979896548 -15.372353226 -0.088853272 0 239 195
3.979370340 -15.469329397 -0.090684636 0 239 195
3.975206350 -15.566165729 -0.082413395 0 240 189
3.970186398 -15.662966330 -0.071764084 0 242 180
3.966793781 -15.759827843 -0.065632433 0 243 174
3.964901394 -15.856747096 -0.063665553 0 243 174
3.964603218 -15.953729585 -0.066124482 0 243 174
3.966481298 -16.050800699 -0.074625560 0 241 183
3.969267788 -16.147911152 -0.085648181 0 240 192
3.970691390 -16.244968336 -0.092885155 0 239 198
3.969748676 -16.341928923 -0.093549966 0 239 198
3.967014378 -16.438814325 -0.089238528 0 239 195
3.964509573 -16.535708145 -0.085563226 0 240 192
3.962726878 -16.632631715 -0.083892055 0 240 192
3.960981742 -16.729556327 -0.082324056 0 240 189
3.959925385 -16.826510375 -0.082667670 0 240 189
3.962402600 -16.923619601 -0.092822975 0 239 198
3.968241027 -17.020880438 -0.112311460 0 236 216
3.970535147 -17.117988156 -0.121956313 0 234 225
3.967473930 -17.214857045 -0.116728049 0 235 219
3.962627953 -17.311643243 -0.106542208 0 237 210
3.959110844 -17.408487427 -0.100045538 0 238 204
3.957532082 -17.505419300 -0.098930673 0 238 204
3.957333515 -17.602415080 -0.101647642 0 237 207
3.958302363 -17.699466358 -0.107605584 0 237 210
3.958806993 -17.796497176 -0.112273272 0 236 216
3.955713124 -17.893357307 -0.106946301 0 237 210
3.951548132 -17.990164284 -0.098643474 0 238 204
3.949510175 -18.087072074 -0.096246615 0 238 201
3.946795716 -18.183946001 -0.091969838 0 239 198
3.941908187 -18.280711510 -0.081656840 0 240 189
3.936756200 -18.377460918 -0.070608167 0 242 180
3.933353202 -18.474294722 -0.064415628 0 243 174
3.931507765 -18.571205280 -0.062547648 0 243 171
3.931429319 -18.668205031 -0.065585933 0 243 174
3.933878501 -18.765334968 -0.075643055 0 241 183
3.935454763 -18.862422535 -0.083274809 0 240 189
3.933828864 -18.959345642 -0.082012149 0 240 189
3.931221992 -19.056216919 -0.078023895 0 241 186
3.930166012 -19.153168799 -0.078341822 0 241 186
3.928935385 -19.250111379 -0.078173586 0 241 186
3.924802516 -19.346898477 -0.069943673 0 242 177
3.920492630 -19.443673650 -0.061220924 0 243 171
3.919328280 -19.540617070 -0.061233335 0 243 171
3.921480852 -19.637741730 -0.070457044 0 242 180
3.925028670 -19.734945652 -0.083554899 0 240 189
3.927321139 -19.832083494 -0.093165128 0 239 198
3.924755101 -19.928952666 -0.089280139 0 239 195
3.918492353 -20.025612874 -0.075126570 0 241 183
3.914902164 -20.122420310 -0.068394684 0 242 177
3.917328807 -20.219568597 -0.078373237 0 241 186
3.923301125 -20.316922920 -0.098198857 0 238 204
3.925658709 -20.414073893 -0.107983613 0 236 213
3.920753685 -20.510805305 -0.097595324 0 238 204
3.917315636 -20.607619578 -0.091280391 0 239 198
3.908561570 -20.704118908 -0.070198809 0 242 180
3.907816044 -20.801087057 -0.071360095 0 242 180
3.913469048 -20.898437191 -0.090292654 0 239 195
3.918709444 -20.995767683 -0.108078233 0 236 213
3.917226530 -21.092696685 -0.107188210 0 237 210
3.910509741 -21.189307034 -0.091759392 0 239 198
3.904321370 -21.285945356 -0.077797058 0 241 186
3.901439164 -21.382783326 -0.073016811 0 242 180
3.902994856 -21.479894887 -0.080562340 0 240 189
3.909633431 -21.577325369 -0.102225380 0 237 207
3.914972262 -21.674680201 -0.120277247 0 235 222
3.911662907 -21.771494044 -0.114306169 0 236 216
3.904380497 -21.868053828 -0.097297942 0 238 201
3.899246877 -21.964746096 -0.086257174 0 240 192
3.898617925 -22.061724744 -0.087727953 0 239 195
3.898620792 -22.158744554 -0.090952664 0 239 198
3.897475113 -22.255690456 -0.090985908 0 239 198
3.897111458 -22.352687436 -0.093190328 0 239 198
3.897793345 -22.449753736 -0.098297945 0 238 204
3.899366640 -22.546880360 -0.105880656 0 237 210
3.899316822 -22.643900923 -0.108953621 0 236 213
3.892721918 -22.740483967 -0.093844386 0 239 198
3.883903335 -22.836912983 -0.072556865 0 242 180
3.879719836 -22.933649954 -0.064143612 0 243 174
3.879683093 -23.030666958 -0.067248308 0 242 177
3.877441988 -23.127533733 -0.064228462 0 243 174
3.871468833 -23.224142505 -0.050840236 0 245 162
3.866735866 -23.320833387 -0.040895895 0 246 153
3.867467622 -23.417902050 -0.046130917 0 246 156
3.871296965 -23.515189009 -0.059969771 0 243 171
3.871042505 -23.612192125 -0.062463055 0 243 171
3.865129211 -23.708795176 -0.049235227 0 245 159
3.857838062 -23.805296391 -0.032178513 0 248 144
3.854619923 -23.902084311 -0.026435293 0 248 141
3.855729735 -23.999181974 -0.032713964 0 247 147
3.859100663 -24.096444854 -0.045273000 0 246 156
3.862732191 -24.193730070 -0.058554999 0 244 168
3.864455688 -24.290879378 -0.066535424 0 243 174
3.863716933 -24.387849847 -0.067674541 0 242 177
3.861674819 -24.484724255 -0.065191736 0 243 174
3.858582919 -24.581519931 -0.059791404 0 244 168
3.853599624 -24.678172843 -0.049135432 0 245 159
3.846666921 -24.774676458 -0.033062577 0 247 147
3.839840659 -24.871183568 -0.017284160 0 250 132
3.839267289 -24.968160182 -0.018875865 0 249 135
3.844845716 -25.065605806 -0.037557086 0 247 150
3.850171893 -25.163037197 -0.055536584 0 244 165
3.852629202 -25.260252716 -0.065544923 0 243 174
3.852185398 -25.357246562 -0.067492406 0 242 177
3.850531832 -25.454146841 -0.066077830 0 243 174
3.849051417 -25.551060169 -0.065143182 0 243 174
3.848310301 -25.648031180 -0.066261356 0 243 174
3.847822770 -25.745022417 -0.068082951 0 242 177
3.847175210 -25.842001392 -0.069458851 0 242 177
3.846708464 -25.938995064 -0.071336002 0 242 180
3.845450778 -26.035925879 -0.071014607 0 242 180
3.843432516 -26.132795367 -0.068578991 0 242 177
3.840564352 -26.229595434 -0.063780949 0 243 174
3.837977895 -26.326416960 -0.059764423 0 244 168
3.837040701 -26.423371810 -0.060328956 0 243 171
3.836561391 -26.520364257 -0.062164548 0 243 171
3.832919454 -26.617096754 -0.055212116 0 244 165
3.824611610 -26.713441313 -0.035294856 0 247 147
3.815130402 -26.809682780 -0.012116228 0 250 129
3.817216011 -26.906883380 -0.021073563 0 249 135
3.818665752 -27.004033050 -0.028263165 0 248 141
3.816383239 -27.100870186 -0.025081917 0 249 138
3.820364586 -27.198236505 -0.039303315 0 247 150
3.816136980 -27.294908761 -0.030715507 0 248 144
3.800402910 -27.390595872 0.009843873 0 254 108
3.782535237 -27.486088650 0.056332938 40 255 84
3.774527535 -27.582418146 0.075427650 62 255 75
3.587188095 -47.650966983 -0.033361957 0 247 147
3.589522612 -47.748465658 -0.042783562 0 246 156
3.586334200 -47.845046997 -0.036843312 0 247 150
3.583523659 -47.941689767 -0.031952882 0 248 144
3.584045307 -48.038888771 -0.036329175 0 247 150
3.586872333 -48.136475640 -0.047116419 0 245 159
3.590300318 -48.234166511 -0.059574146 0 244 168
3.593531603 -48.331827682 -0.071483803 0 242 180
3.596548361 -48.429455913 -0.082795803 0 240 189
3.598987877 -48.526989564 -0.092501284 0 239 198
3.598879141 -48.624093590 -0.095118076 0 238 201
3.594295970 -48.720437536 -0.085288576 0 240 192
3.587716043 -48.816438471 -0.069904070 0 242 177
3.582663166 -48.912695963 -0.058765711 0 244 168
3.579694897 -49.009307223 -0.053424377 0 244 165
3.577380924 -49.106029257 -0.049901794 0 245 162
3.574107823 -49.202585380 -0.043710296 0 246 156
3.569737390 -49.298950665 -0.034465430 0 247 147
3.565150679 -49.395276028 -0.024617806 0 249 138
3.562224173 -49.491886062 -0.019386876 0 249 135
3.562030160 -49.588968724 -0.021755303 0 249 135
3.563190206 -49.686287485 -0.027889024 0 248 141
3.563624546 -49.783481472 -0.032003122 0 248 144
3.564236553 -49.880707625 -0.036610357 0 247 150
3.566273331 -49.978184439 -0.045179656 0 246 156
3.567068062 -50.075445739 -0.050293078 0 245 162
3.565014012 -50.172207610 -0.047481268 0 245 159
3.561697867 -50.268746327 -0.041157674 0 246 153
3.559535607 -50.365487041 -0.038042607 0 247 150
3.560185203 -50.462724488 -0.042748005 0 246 156
3.562233418 -50.560211280 -0.051342835 0 245 162
3.563285931 -50.657523479 -0.057166937 0 244 168
3.562543186 -50.754517519 -0.057996161 0 244 168
3.561988698 -50.851545392 -0.059347974 0 244 168
3.563432239 -50.948931066 -0.066256646 0 243 174
3.563847805 -51.046134361 -0.070304751 0 242 180
3.561844904 -51.142904274 -0.067624260 0 242 177
3.558864194 -51.239497395 -0.062222630 0 243 171
3.556459981 -51.336193037 -0.058423536 0 244 168
3.552222867 -51.432556209 -0.049524588 0 245 159
3.547549642 -51.528837894 -0.039411297 0 246 153
3.546120883 -51.625705930 -0.038322285 0 247 150
3.547553073 -51.723094275 -0.045190810 0 246 156
3.548759213 -51.820443302 -0.051429475 0 245 162
3.549560694 -51.917720111 -0.056541411 0 244 168
3.551463620 -52.015200041 -0.064716365 0 243 174
3.554530145 -52.112895772 -0.076127287 0 241 183
3.556463975 -52.210386366 -0.084386203 0 240 192
3.555234164 -52.307296245 -0.083843180 0 240 189
3.551805010 -52.403799829 -0.077180690 0 241 186
3.549091644 -52.500434029 -0.072508311 0 242 180
3.548086311 -52.597383673 -0.072586437 0 242 180
3.549109916 -52.694710368 -0.078307878 0 241 186
3.550651515 -52.792135106 -0.085469320 0 240 192
3.549334463 -52.889028424 -0.084677040 0 240 192
3.544546386 -52.985272516 -0.074227311 0 241 183
3.540534990 -53.081659242 -0.065937117 0 243 174
3.540663076 -53.178820864 -0.069161860 0 242 177
3.541897304 -53.276191489 -0.075462864 0 241 183
3.542612274 -53.373465973 -0.080318238 0 241 186
3.541189295 -53.470337937 -0.079224676 0 241 186
3.536688454 -53.566626993 -0.069567190 0 242 177
3.532197160 -53.662915190 -0.059935081 0 243 171
3.533401341 -53.760283217 -0.066147148 0 243 174
3.541553361 -53.858976166 -0.091687827 0 239 198
3.549108898 -53.957562368 -0.115568170 0 235 219
3.552432166 -54.055345907 -0.127672907 0 234 228
3.551735431 -54.152362564 -0.128592425 0 233 231
3.548671433 -54.248924996 -0.122924754 0 234 225
3.543912158 -54.345159740 -0.112539382 0 236 216
3.536452540 -54.440871101 -0.094639963 0 238 201
3.529562836 -54.536687589 -0.078324898 0 241 186
3.528657912 -54.633657796 -0.078659531 0 241 186
3.534517690 -54.731939880 -0.097814018 0 238 204
3.542575046 -54.830654268 -0.123081793 0 234 225
3.548934730 -54.929045153 -0.143625364 0 231 243
3.551129493 -55.026629284 -0.152580119 0 230 252
3.546746494 -55.122930242 -0.143232688 0 231 243
3.537201774 -55.218217744 -0.119522658 0 235 222
3.528705114 -55.313704346 -0.098727338 0 238 204
3.526044087 -55.410332554 -0.094167333 0 238 201
3.528220505 -55.507912473 -0.103065580 0 237 207
3.529136711 -55.605246124 -0.108456478 0 236 213
3.526969728 -55.701971524 -0.105267800 0 237 210
3.530696010 -55.799863823 -0.118475264 0 235 222
3.526286905 -55.896144603 -0.109045976 0 236 213
3.524392601 -55.992923037 -0.106612694 0 237 210
3.526465008 -56.090491413 -0.115215328 0 235 219
3.531067065 -56.188567344 -0.130855520 0 233 231
3.531657150 -56.285844903 -0.135331705 0 232 237
3.526144447 -56.381900315 -0.122826128 0 234 225
3.517884410 -56.477400473 -0.102674982 0 237 207
3.512091012 -56.573391440 -0.089385929 0 239 195
3.510687979 -56.670263932 -0.088311819 0 239 195
3.511245240 -56.767532135 -0.092691141 0 239 198
3.512697528 -56.864982712 -0.099559848 0 238 204
3.514550471 -56.962516450 -0.107542368 0 237 210
3.516556429 -57.060083502 -0.115949649 0 235 219
3.518480251 -57.157636179 -0.124127376 0 234 225
3.514417050 -57.253970178 -0.115644773 0 235 219
3.510442577 -57.350319971 -0.107407899 0 237 210
3.512463981 -57.447894886 -0.115853974 0 235 219
3.516866724 -57.545960546 -0.130925383 0 233 231
3.519655551 -57.643698777 -0.141504929 0 232 240
3.515522052 -57.740014915 -0.132821163 0 233 234
3.508793389 -57.835793420 -0.116914796 0 235 219
3.506871472 -57.932560764 -0.114382752 0 236 216
3.512552534 -58.030901376 -0.133006233 0 233 234
3.519142759 -58.129435729 -0.154158726 0 230 252
3.519947296 -58.226773759 -0.159210478 0 229 255
3.514317146 -58.322773670 -0.146355285 0 231 246
3.506164941 -58.418244040 -0.126480685 0 234 228
3.500327573 -58.514192595 -0.113046407 0 236 216
3.498208348 -58.610915769 -0.109957605 0 236 213
3.498231571 -58.708087411 -0.112829628 0 236 216
3.498287652 -58.805266772 -0.115792028 0 235 219
3.496682853 -58.902097379 -0.114131483 0 236 216
3.493573483 -58.998610273 -0.108282903 0 236 213
3.489796373 -59.094980501 -0.100574982 0 238 204
3.487094414 -59.191576163 -0.095857872 0 238 201
3.486618367 -59.288642496 -0.097334012 0 238 201
3.485509354 -59.385574806 -0.097047623 0 238 201
3.482026146 -59.482001830 -0.090153058 0 239 195
3.480224903 -59.578785535 -0.087938066 0 239 195
3.483615200 -59.676677410 -0.100169513 0 238 204
3.488803234 -59.774957332 -0.117402943 0 235 219
3.492982644 -59.873025861 -0.131828525 0 233 234
3.495185245 -59.970673933 -0.140751816 0 232 240
3.494784793 -60.067764549 -0.142429933 0 231 243
3.491864431 -60.164312615 -0.137094154 0 232 237
3.488088370 -60.260674492 -0.129375846 0 233 231
3.483901242 -60.356945353 -0.120512385 0 235 222
3.478865741 -60.453029977 -0.109286731 0 236 213
3.473497351 -60.549039263 -0.097133451 0 238 201
3.471791862 -60.645841616 -0.095172949 0 238 201
3.475474389 -60.743817024 -0.108206444 0 236 213
3.480090974 -60.841999876 -0.123838521 0 234 225
3.481633212 -60.939515084 -0.130913532 0 233 231
3.475587317 -61.035370713 -0.116869101 0 235 219
3.464422856 -61.130099696 -0.088577975 0 239 195
3.458894621 -61.226059368 -0.075971750 0 241 183
3.458456513 -61.323136038 -0.077530789 0 241 186
3.458682517 -61.420359609 -0.080937075 0 240 189
3.460406795 -61.517915113 -0.088512237 0 239 195
3.464339804 -61.615961494 -0.102233653 0 237 207
3.466668388 -61.713656054 -0.111488715 0 236 216
3.461517617 -61.809692388 -0.099926306 0 238 204
3.453461764 -61.905079342 -0.080277267 0 241 186
3.446979856 -62.000811592 -0.065007594 0 243 174
3.443216484 -62.097146442 -0.057303010 0 244 168
3.442372041 -62.194131844 -0.057721364 0 244 168
3.443951015 -62.291660189 -0.064883636 0 243 174
3.446757292 -62.389465912 -0.075460812 0 241 183
3.448855321 -62.487115413 -0.084065751 0 240 192
3.448236304 -62.584155615 -0.085107345 0 240 192
3.444266429 -62.680440436 -0.076821392 0 241 183
3.439029689 -62.776436792 -0.065008183 0 243 174
3.437396956 -62.873245472 -0.063224950 0 243 171
3.441891310 -62.971442579 -0.078494443 0 241 186
3.447074515 -63.069800362 -0.095680326 0 238 201
3.448890483 -63.167397051 -0.103493001 0 237 207
3.446668794 -63.264076003 -0.100066303 0 238 204
3.439317140 -63.359583257 -0.082359733 0 240 189
3.410387859 -63.450152795 -0.004592414 0 252 120
3.375419412 -63.539317884 0.089986314 76 255 68
3.336969300 -63.627658182 0.194258037 189 255 19
3.282491227 -63.712286964 0.343144947 246 226 0
3.252092095 -63.802416312 0.425011373 255 196 0
3.248912662 -63.898798124 0.431114103 255 191 0
3.256199462 -63.997595154 0.408085261 255 209 0
3.260357326 -64.095674852 0.393766699 253 212 0
3.255979100 -64.191780796 0.403209471 254 210 0
3.247112970 -64.286842609 0.425145649 255 196 0
3.235814915 -64.381333038 0.453852491 255 175 0
3.222546490 -64.475356744 0.488045330 255 147 0
3.213124969 -64.570268242 0.511531427 255 128 0
3.212413306 -64.667208072 0.510774170 255 128 0
3.217908379 -64.765600563 0.492740910 255 142 0
3.216053159 -64.862275229 0.495168933 255 139 0
3.215970491 -64.959365412 0.492663935 255 142 0
3.214673032 -65.056170647 0.493541532 255 142 0
3.223593308 -65.155382460 0.465977579 255 164 0
3.239549944 -65.256262076 0.418827566 255 202 0
3.250721515 -65.356023981 0.384998274 252 215 0
3.250024624 -65.452985941 0.384207888 252 215 0
3.244682538 -65.548846810 0.396349431 253 211 0
3.245242245 -65.646105900 0.392063231 252 213 0
3.250139966 -65.744398074 0.375702197 251 217 0
3.253833171 -65.842407840 0.362695151 249 221 0
3.254647167 -65.939734162 0.357704083 248 223 0
3.251457707 -66.036104987 0.363858750 249 221 0
3.241694196 -66.130900262 0.388315291 252 214 0
3.220831873 -66.223027370 0.443669992 255 183 0
3.204471511 -66.316220452 0.486493684 255 147 0
3.203266457 -66.413047538 0.487129141 255 147 0
3.216916886 -66.513453924 0.446410433 255 180 0
3.236131135 -66.615214389 0.390203571 252 213 0
3.245679349 -66.714653972 0.360906180 248 222 0
3.252371010 -66.813410116 0.339561878 246 227 0
3.255841157 -66.911391015 0.327186788 244 231 0
3.250183948 -67.007158525 0.340222334 246 227 0
3.234418498 -67.100463467 0.381399570 251 216 0
3.215420017 -67.192969302 0.431578800 255 191 0
3.209019725 -67.288535697 0.446686948 255 180 0
3.204063695 -67.384450954 0.457775551 255 169 0
3.198892000 -67.480310378 0.469465736 255 161 0
3.193983090 -67.576231033 0.480425519 255 153 0
3.196407039 -67.673949497 0.470971837 255 161 0
3.205266785 -67.773253610 0.443601827 255 183 0
3.212350589 -67.872127842 0.421176894 255 199 0
3.211743465 -67.969110682 0.420164630 255 199 0
3.212003788 -68.066308208 0.416738418 255 202 0
3.213351431 -68.163775845 0.410286086 255 207 0
3.218588556 -68.262209498 0.393006159 253 212 0
3.227622233 -68.361590596 0.365157212 249 220 0
3.235678574 -68.460736423 0.340030076 246 227 0
3.228616567 -68.556123971 0.356994969 248 223 0
3.213454028 -68.649486263 0.396513998 253 211 0
3.219611823 -68.748164004 0.376675692 251 217 0
3.230189630 -68.847953223 0.344532283 247 225 0
3.240611341 -68.947712277 0.312824245 242 234 0
3.239422274 -69.044566048 0.313443461 242 234 0
3.225608429 -69.138246207 0.349213555 247 224 0
3.217555497 -69.233366832 0.368945500 250 219 0
3.221884271 -69.331603964 0.354205331 247 223 0
3.223924658 -69.429267344 0.345837497 247 225 0
3.220552693 -69.525564231 0.352539963 247 223 0
3.210660304 -69.620207687 0.377398105 251 217 0
3.208702730 -69.716857234 0.380164882 251 216 0
3.196967735 -69.811021902 0.410155872 255 207 0
3.192522161 -69.907033138 0.419852302 255 199 0
3.188999393 -70.003276898 0.426980520 255 194 0
3.186023126 -70.099658208 0.432588237 255 191 0
3.188012032 -70.197307174 0.424372369 255 196 0
3.192617861 -70.295628393 0.408871069 255 209 0
3.192486107 -70.392739303 0.406561839 255 209 0
3.185116836 -70.487992503 0.424405625 255 196 0
3.172987230 -70.582016641 0.455505274 255 172 0
3.161147693 -70.676106907 0.485798619 255 147 0
3.155130733 -70.771690636 0.499880848 255 137 0
3.160743646 -70.870274683 0.481581733 255 150 0
3.178334224 -70.971962492 0.429932413 255 194 0
3.196937682 -71.073927094 0.375463361 251 217 0
3.207242724 -71.173753619 0.344101536 246 226 0
3.205119748 -71.270359337 0.347346058 247 225 0
3.197274564 -71.365475017 0.366525131 249 220 0
3.190355817 -71.460826884 0.383125785 252 215 0
3.185720294 -71.556770157 0.393369981 253 212 0
3.183633375 -71.653376850 0.396518672 253 211 0
3.181959228 -71.750090774 0.398519081 253 211 0
3.180395583 -71.846833160 0.400212879 254 211 0
3.180440901 -71.943997575 0.397427486 253 211 0
3.185217509 -72.042406891 0.381468457 251 216 0
3.192550127 -72.141493764 0.358392885 248 222 0
3.190826850 -72.238198858 0.360535314 248 222 0
3.186249349 -72.431308273 0.367972715 249 220 0
3.186491806 -72.528531966 0.364644542 249 221 0
3.190122237 -72.626655338 0.351883037 247 223 0
3.186719865 -72.722914027 0.358706565 248 222 0
3.172118826 -72.816191616 0.396716038 253 211 0
3.145607544 -72.906285559 0.467893433 255 161 0
3.066318030 -72.982278173 0.686044990 255 18 135
3.053993444 -73.076102982 0.717720445 255 0 168
