ply
format ascii 1.0
comment coordinate_system ground
comment units millimeter
element vertex 818
property double x
property double y
property double z
property uchar red
property uchar green
property uchar blue
comment color_mapping zg_high_contrast_from_zg
comment color_zg_range_mm -0.148567885 20.079033468
end_header
3.646277665 -30.285880936 0.369867266 0 232 237
3.640787090 -30.382331771 0.382049382 0 232 237
3.638464426 -30.479088292 0.385440639 0 232 237
3.631012618 -30.575341339 0.403068422 0 232 237
3.621286121 -30.671365733 0.427010676 0 233 234
3.619688832 -30.768186043 0.428392449 0 233 234
3.625192961 -30.865709760 0.410066035 0 233 234
3.633382519 -30.963505674 0.384287487 0 232 237
3.639985222 -31.061150152 0.362914158 0 232 237
3.644075343 -31.158548549 0.348515373 0 232 237
3.642244314 -31.255354900 0.350551481 0 232 237
3.631442258 -31.351254246 0.377487468 0 232 237
3.618753253 -31.446954707 0.409662024 0 233 234
3.611107197 -31.543159583 0.427841404 0 233 234
3.610173155 -31.640045236 0.427392941 0 233 234
3.613411424 -31.737358899 0.415365389 0 233 234
3.616482965 -31.834658660 0.403801688 0 232 237
3.614382592 -31.931427107 0.406593828 0 233 234
3.608689783 -32.027822109 0.419358083 0 233 234
3.608864629 -32.124824367 0.415837681 0 233 234
3.613600392 -32.222304098 0.399659377 0 232 237
3.614259885 -32.319360755 0.394796064 0 232 237
3.611491674 -32.416057910 0.399447717 0 232 237
3.605710584 -32.512435437 0.412463061 0 233 234
3.602665168 -32.609099349 0.417886565 0 233 234
3.607834213 -32.706635779 0.400511226 0 232 237
3.610511762 -32.803910885 0.390052364 0 232 237
3.607846943 -32.900616255 0.394422967 0 232 237
3.608491664 -32.997676327 0.389608729 0 232 237
3.611165967 -33.094956750 0.379162251 0 232 237
3.614238760 -33.192283170 0.367610812 0 232 237
3.618652315 -33.289758480 0.352338987 0 232 237
3.616850352 -33.386559879 0.354320396 0 232 237
3.606253767 -33.482397853 0.380713973 0 232 237
3.590532233 -33.577665431 0.421334196 0 233 234
3.591153861 -33.674723483 0.416592234 0 233 234
3.597808666 -33.772450239 0.395105092 0 232 237
3.600287705 -33.869719314 0.385209719 0 232 237
3.611950052 -33.968014066 0.349825168 0 232 237
3.613859116 -34.065228315 0.341514026 0 232 237
3.603848572 -34.161107841 0.366289700 0 232 237
3.589414571 -34.256482601 0.403345168 0 232 237
3.588665129 -34.353392496 0.402417005 0 232 237
3.583883314 -34.449845656 0.412682960 0 233 234
3.578749280 -34.546255875 0.423927848 0 233 234
3.573311593 -34.642628286 0.436016869 0 233 234
3.569712863 -34.739207803 0.443002565 0 233 234
3.569585731 -34.836184056 0.440352966 0 233 234
3.571036522 -34.933342822 0.433324484 0 233 234
3.570675220 -35.030293965 0.431327196 0 233 234
3.571772288 -35.127414785 0.425282860 0 233 234
3.573710641 -35.224635140 0.416904376 0 233 234
3.576155684 -35.321916928 0.407120510 0 233 234
3.577832809 -35.419111404 0.399469391 0 232 237
3.572453223 -35.515478500 0.411407961 0 233 234
3.562498475 -35.611302721 0.436047937 0 233 234
3.551258293 -35.706967999 0.464257525 0 233 234
3.543459678 -35.803033909 0.482915009 0 233 234
3.541489062 -35.899788580 0.485395711 0 233 231
3.546108476 -35.997329759 0.469584109 0 233 234
3.556778873 -36.095600432 0.436976420 0 233 234
3.567025158 -36.193829085 0.405547040 0 233 234
3.571875214 -36.291415535 0.389098330 0 232 237
3.574261365 -36.388708367 0.379490392 0 232 237
3.577674034 -36.486128405 0.367033984 0 232 237
3.581249606 -36.583571677 0.354126458 0 232 237
3.584677174 -36.681000393 0.341630879 0 232 237
3.588062021 -36.778427283 0.329254991 0 232 237
3.589108993 -36.875570190 0.323370136 0 232 240
3.583719528 -36.971921076 0.335354021 0 232 237
3.572569092 -37.067556068 0.363331753 0 232 237
3.561913568 -37.163244677 0.389936984 0 232 237
3.553266667 -37.259175853 0.410967566 0 233 234
3.546994226 -37.355397581 0.425407841 0 233 234
3.544965631 -37.452146678 0.428068181 0 233 234
3.550425615 -37.549835578 0.409940840 0 233 234
3.561033570 -37.648178022 0.377523378 0 232 237
3.568033060 -37.746073385 0.355124329 0 232 237
3.568704963 -37.843172851 0.350292308 0 232 237
3.563770976 -37.939560889 0.361023970 0 232 237
3.553486370 -38.035263592 0.386610830 0 232 237
3.536886601 -38.130151424 0.429730798 0 233 234
3.525704841 -38.225722362 0.457811113 0 233 234
3.531035045 -38.323410155 0.440053028 0 233 234
3.543125976 -38.421975345 0.403527156 0 232 237
3.556197899 -38.520677577 0.364278881 0 232 237
3.565052150 -38.618843060 0.336740551 0 232 237
3.567644667 -38.716200780 0.326586916 0 232 237
3.568022675 -38.813272066 0.322582274 0 232 240
3.566127238 -38.910046649 0.324890303 0 232 240
3.560721508 -39.006359435 0.336944809 0 232 237
3.554325868 -39.102538430 0.351748779 0 232 237
3.548949402 -39.198847953 0.363724571 0 232 237
3.546357375 -39.295523100 0.367971357 0 232 237
3.548891535 -39.392878293 0.357987793 0 232 237
3.554262567 -39.490614312 0.340129471 0 232 237
3.548342354 -39.586845979 0.353619647 0 232 237
3.538539928 -39.682553467 0.377889177 0 232 237
3.548023346 -39.780846872 0.348617108 0 232 237
3.580079697 -39.882191564 0.256677261 0 232 240
3.626164832 -39.985458347 0.125790662 0 231 246
3.664105135 -40.087656965 0.017517365 0 230 249
3.695829462 -40.189040307 -0.073497759 0 229 255
3.713966718 -40.288596157 -0.126790657 0 229 255
3.711627453 -40.385366832 -0.123234254 0 229 255
3.709731120 -40.482197223 -0.120906357 0 229 255
3.712262174 -40.579635718 -0.130868987 0 229 255
3.715126299 -40.677122860 -0.141755209 0 229 255
3.714044342 -40.774067346 -0.141684791 0 229 255
3.708105421 -40.870338331 -0.128128727 0 229 255
3.701680238 -40.966537920 -0.113221370 0 229 255
3.695406118 -41.062754414 -0.098732136 0 229 255
3.687107258 -41.158683789 -0.078620235 0 229 255
3.677672217 -41.254448282 -0.055352563 0 230 252
3.672361077 -41.350786029 -0.043533034 0 230 252
3.673596300 -41.448043252 -0.049887459 0 230 252
3.676055679 -41.545475228 -0.059639484 0 230 252
3.677871806 -41.642818703 -0.067604468 0 230 252
3.680612781 -41.740295781 -0.078136082 0 229 255
3.684846009 -41.837988382 -0.092809695 0 229 255
3.687272921 -41.935426924 -0.102467128 0 229 255
3.685565495 -42.032275802 -0.100644752 0 229 255
3.681671891 -42.128810103 -0.092751405 0 229 255
3.677656031 -42.225324581 -0.084517396 0 229 255
3.674753629 -42.321997553 -0.079373625 0 229 255
3.674595167 -42.419066397 -0.081847106 0 229 255
3.676707246 -42.516465543 -0.090623526 0 229 255
3.678060943 -42.613756692 -0.097293194 0 229 255
3.675644571 -42.710499404 -0.093494168 0 229 255
3.670174038 -42.806794099 -0.081214061 0 229 255
3.666274613 -42.903315883 -0.073294898 0 229 255
3.665411177 -43.000282058 -0.073803992 0 229 255
3.666801023 -43.097580681 -0.080568218 0 229 255
3.668473196 -43.194922896 -0.088115205 0 229 255
3.668164158 -43.291973442 -0.090160142 0 229 255
3.665442211 -43.388665869 -0.085504348 0 229 255
3.661082243 -43.485112874 -0.076299284 0 229 255
3.656837532 -43.581574526 -0.067413002 0 230 252
3.654728838 -43.678353656 -0.064456319 0 230 252
3.654258264 -43.775377951 -0.066046830 0 230 252
3.652888602 -43.872267293 -0.065139773 0 230 252
3.651412733 -43.969140326 -0.063936639 0 230 252
3.651767788 -44.066290076 -0.067816102 0 230 252
3.652189182 -44.163450938 -0.071878615 0 229 255
3.649670887 -44.260165779 -0.067777537 0 230 252
3.645271056 -44.356592559 -0.058450906 0 230 252
3.642961588 -44.453336282 -0.054927254 0 230 252
3.645196965 -44.550775507 -0.064021901 0 230 252
3.651453621 -44.648835032 -0.084281183 0 229 255
3.658645418 -44.747044168 -0.107135979 0 229 255
3.662424878 -44.844732729 -0.120514756 0 229 255
3.659363870 -44.941366156 -0.114898594 0 229 255
3.651406660 -45.037238257 -0.095685945 0 229 255
3.645827510 -45.133474940 -0.083075168 0 229 255
3.645734101 -45.230563555 -0.085695498 0 229 255
3.649047036 -45.328185365 -0.097773150 0 229 255
3.652343240 -45.425807873 -0.109803243 0 229 255
3.653430127 -45.523086624 -0.115697531 0 229 255
3.650984739 -45.619810737 -0.111782442 0 229 255
3.644952242 -45.715967487 -0.097905618 0 229 255
3.637859219 -45.811952555 -0.081082690 0 229 255
3.634085558 -45.908459493 -0.073475613 0 229 255
3.635263742 -46.005751712 -0.079617538 0 229 255
3.636687808 -46.103084803 -0.086441088 0 229 255
3.634469206 -46.199837736 -0.083148533 0 229 255
3.630716464 -46.296344024 -0.075594767 0 229 255
3.629271247 -46.393218674 -0.074447362 0 229 255
3.631533397 -46.490689626 -0.083593508 0 229 255
3.635624099 -46.588458068 -0.097816120 0 229 255
3.635725038 -46.685585277 -0.100958691 0 229 255
3.632104493 -46.782110141 -0.093766096 0 229 255
3.627953976 -46.878546894 -0.085100623 0 229 255
3.625294766 -46.975224097 -0.080575088 0 229 255
3.623209478 -47.071993718 -0.077642065 0 229 255
3.619703270 -47.168530017 -0.070762114 0 229 255
3.624335036 -47.266399074 -0.086479266 0 229 255
3.620382092 -47.362861222 -0.078356414 0 229 255
3.618015830 -47.459582551 -0.074638418 0 229 255
3.616595778 -47.556459111 -0.073546776 0 229 255
3.616191553 -47.653503518 -0.075274840 0 229 255
3.614751240 -47.750376472 -0.074124583 0 229 255
3.610128240 -47.846719779 -0.064134994 0 230 252
3.603520620 -47.942729480 -0.048632958 0 230 252
3.599033633 -48.039089193 -0.039018578 0 230 252
3.599246160 -48.136233230 -0.042453407 0 230 252
3.601996327 -48.233804141 -0.052934067 0 230 252
3.604548999 -48.331344715 -0.062865172 0 230 252
3.606159561 -48.428729169 -0.070178923 0 229 255
3.607639735 -48.526093598 -0.077129451 0 229 255
3.608091418 -48.623285728 -0.081222716 0 229 255
3.604679720 -48.719823097 -0.074586137 0 229 255
3.597671950 -48.815746737 -0.057961940 0 230 252
3.592828986 -48.912034944 -0.047348217 0 230 252
3.593744705 -49.009304486 -0.052725408 0 230 252
3.598984335 -49.107316215 -0.070109198 0 229 255
3.605064341 -49.205477026 -0.089825680 0 229 255
3.610492954 -49.303531194 -0.107732126 0 229 255
3.617575480 -49.401875535 -0.130230526 0 229 255
3.623160036 -49.499967180 -0.148567885 0 229 255
3.621175463 -49.596752719 -0.145884045 0 229 255
3.616559717 -49.693080706 -0.135891997 0 229 255
3.610686754 -49.789187172 -0.122407291 0 229 255
3.604527187 -49.885239919 -0.108125391 0 229 255
3.596395472 -49.980944047 -0.088365321 0 229 255
3.589169950 -50.076801416 -0.071120568 0 229 255
3.588510377 -50.173806537 -0.072109125 0 229 255
3.592954046 -50.271709665 -0.087268993 0 229 255
3.596503277 -50.369459290 -0.099943773 0 229 255
3.595048470 -50.466328281 -0.098720407 0 229 255
3.592722388 -50.563042652 -0.095076179 0 229 255
3.593116110 -50.660238643 -0.098984149 0 229 255
3.594271510 -50.757571164 -0.105006291 0 229 255
3.593355122 -50.854536109 -0.105273532 0 229 255
3.590401336 -50.951137232 -0.099881329 0 229 255
3.586068742 -51.047490065 -0.090658674 0 229 255
3.580029370 -51.143534189 -0.076694686 0 229 255
3.571969342 -51.239211215 -0.057117597 0 230 252
3.565165845 -51.335109172 -0.041028900 0 230 252
3.562333315 -51.431719539 -0.035967315 0 230 252
3.562761120 -51.528918330 -0.039959330 0 230 252
3.564958058 -51.626438958 -0.048863554 0 230 252
3.566754158 -51.723889221 -0.056653411 0 230 252
3.567264438 -51.821107535 -0.060871056 0 230 252
3.566829670 -51.918154591 -0.062462879 0 230 252
3.565711902 -52.015077210 -0.062156642 0 230 252
3.563742042 -52.111843624 -0.059482711 0 230 252
3.561710301 -52.208597934 -0.056635732 0 230 252
3.562989104 -52.305960544 -0.062982009 0 230 252
3.568523054 -52.404109425 -0.081145086 0 229 255
3.574181176 -52.502286270 -0.099651948 0 229 255
3.576231265 -52.599800253 -0.108136996 0 229 255
3.572884119 -52.696315278 -0.101630917 0 229 255
3.566717629 -52.792304369 -0.087293301 0 229 255
3.563046451 -52.888754344 -0.079884821 0 229 255
3.562687532 -52.985820582 -0.081674510 0 229 255
3.562943477 -53.083002331 -0.085170748 0 229 255
3.563137187 -53.180173381 -0.088492982 0 229 255
3.563802577 -53.277433945 -0.093124104 0 229 255
3.564281017 -53.374660605 -0.097234841 0 229 255
3.562631056 -53.471486996 -0.095432986 0 229 255
3.556964678 -53.567553865 -0.082474668 0 229 255
3.548030160 -53.662998280 -0.060438063 0 230 252
3.538611563 -53.758344744 -0.037055641 0 230 252
3.534431805 -53.854680816 -0.028222513 0 230 252
3.542381383 -53.953325296 -0.053076885 0 230 252
3.553506378 -54.052582846 -0.086749785 0 229 255
3.563622987 -54.151656824 -0.117620895 0 229 255
3.568216878 -54.249680807 -0.133151788 0 229 255
3.563415020 -54.345904598 -0.122585114 0 229 255
3.553778569 -54.441195105 -0.098589180 0 229 255
3.545326940 -54.536707436 -0.077882758 0 229 255
3.542777894 -54.633354462 -0.073569503 0 229 255
3.544251281 -54.730779006 -0.080427415 0 229 255
3.544900242 -54.828045534 -0.084994331 0 229 255
3.543369078 -54.924889600 -0.083504739 0 229 255
3.540212086 -55.021416637 -0.077498169 0 229 255
3.537924977 -55.118111755 -0.073906532 0 229 255
3.536779422 -55.215029074 -0.073484430 0 229 255
3.535594958 -55.311938658 -0.072953081 0 229 255
3.533436729 -55.408656968 -0.069715858 0 229 255
3.530657802 -55.505252318 -0.064753406 0 230 252
3.529666853 -55.602198622 -0.064756017 0 230 252
3.530889661 -55.699582005 -0.070906368 0 229 255
3.532277584 -55.796999759 -0.077514199 0 229 255
3.533516675 -55.894389849 -0.083707498 0 229 255
3.534492590 -55.991729395 -0.089168655 0 229 255
3.535075996 -56.088992362 -0.093538428 0 229 255
3.534292903 -56.185984125 -0.094111427 0 229 255
3.530480292 -56.282370936 -0.086268367 0 229 255
3.524244759 -56.378270697 -0.071694073 0 229 255
3.529707819 -56.476512109 -0.089613133 0 229 255
3.521233992 -56.571958657 -0.068819209 0 230 252
3.522339788 -56.669327625 -0.074632995 0 229 255
3.529470771 -56.767913261 -0.097181625 0 229 255
3.523181202 -56.863793572 -0.082451217 0 229 255
3.517865615 -56.959866978 -0.070424968 0 229 255
3.517355265 -57.056911641 -0.071744965 0 229 255
3.521162287 -57.154833966 -0.085056174 0 229 255
3.526805335 -57.253133770 -0.103466219 0 229 255
3.529655294 -57.350868976 -0.114116774 0 229 255
3.526905365 -57.447462789 -0.109211288 0 229 255
3.523969223 -57.544017130 -0.103787352 0 229 255
3.524566127 -57.641294683 -0.108176085 0 229 255
3.523482954 -57.738228196 -0.107896845 0 229 255
3.516256904 -57.833896886 -0.090553042 0 229 255
3.508358847 -57.929422169 -0.071341285 0 229 255
3.503185798 -58.025505294 -0.059697690 0 230 252
3.503665391 -58.122755548 -0.063754648 0 230 252
3.508145146 -58.220836680 -0.078922043 0 229 255
3.510399741 -58.318459606 -0.087907308 0 229 255
3.507123239 -58.414933478 -0.081527178 0 229 255
3.500877093 -58.510786188 -0.066896744 0 230 252
3.496210296 -58.606964889 -0.056652191 0 230 252
3.496300097 -58.704136558 -0.059619401 0 230 252
3.501557104 -58.802392799 -0.076939068 0 229 255
3.508255303 -58.900956665 -0.098261028 0 229 255
3.510467949 -58.998582226 -0.107121769 0 229 255
3.504984906 -59.094587335 -0.094603938 0 229 255
3.495443594 -59.189731599 -0.070811573 0 229 255
3.486592238 -59.285015324 -0.048934490 0 230 252
3.479941770 -59.380759685 -0.033169898 0 230 252
3.475363264 -59.476939832 -0.023159716 0 230 252
3.473235904 -59.573638849 -0.019957326 0 230 252
3.473929747 -59.670938457 -0.024590767 0 230 252
3.476768954 -59.768697564 -0.035182681 0 230 252
3.478969658 -59.866323003 -0.043999768 0 230 252
3.476522427 -59.962954628 -0.039904140 0 230 252
3.471403340 -60.059011406 -0.028385093 0 230 252
3.469847422 -60.155831504 -0.026763065 0 230 252
3.473059650 -60.253678703 -0.038385492 0 230 252
3.475702886 -60.351406298 -0.048426167 0 230 252
3.474917737 -60.448395237 -0.048941826 0 230 252
3.473507074 -60.545248816 -0.047718662 0 230 252
3.473950351 -60.642504448 -0.051644504 0 230 252
3.474484466 -60.739780933 -0.055821541 0 230 252
3.473599567 -60.836749522 -0.056055430 0 230 252
3.472008182 -60.933564045 -0.054325539 0 230 252
3.472393042 -61.030810064 -0.058084468 0 230 252
3.474897213 -61.128521183 -0.067729690 0 230 252
3.476784352 -61.226099649 -0.075659670 0 229 255
3.475489029 -61.322981051 -0.074747589 0 229 255
3.470953421 -61.419148993 -0.064832747 0 230 252
3.466067669 -61.515237004 -0.053943969 0 230 252
3.462146969 -61.611535182 -0.045734912 0 230 252
3.458026889 -61.707786992 -0.036970750 0 230 252
3.451653702 -61.803536993 -0.021946111 0 230 252
3.447559023 -61.899788763 -0.013250056 0 230 252
3.449923881 -61.997474870 -0.022497838 0 230 252
3.450724486 -62.094815036 -0.027398876 0 230 252
3.447858548 -62.191338250 -0.022112802 0 230 252
3.443264141 -62.287473583 -0.012023684 0 230 252
3.441338499 -62.384203832 -0.009347435 0 230 252
3.443312427 -62.481808197 -0.017503419 0 230 252
3.447377887 -62.579884860 -0.031468777 0 230 252
3.451224670 -62.677916182 -0.044825513 0 230 252
3.452413015 -62.775351759 -0.050795671 0 230 252
3.450057522 -62.871988532 -0.046919450 0 230 252
3.447114790 -62.968491382 -0.041410603 0 230 252
3.445882793 -63.065380465 -0.040653228 0 230 252
3.444772924 -63.162297087 -0.040233963 0 230 252
3.443815807 -63.259248353 -0.040237896 0 230 252
3.439483513 -63.355430774 -0.030863860 0 230 252
3.432961822 -63.451111033 -0.015406072 0 230 252
3.428621853 -63.547285713 -0.006008251 0 230 252
3.424855911 -63.643589242 0.001796039 0 230 252
3.423473274 -63.740437218 0.002980247 0 230 252
3.428393159 -63.838732728 -0.013344052 0 230 252
3.438193010 -63.938155697 -0.043224798 0 230 252
3.444618067 -64.036809094 -0.063728594 0 230 252
3.438614825 -64.132598786 -0.049702807 0 230 252
3.432227155 -64.228295717 -0.034607744 0 230 252
3.421720390 -64.323034323 -0.008067608 0 230 252
3.419744092 -64.419744933 -0.005225865 0 230 252
3.425867185 -64.518337199 -0.024885065 0 230 252
3.428242893 -64.616062543 -0.034131988 0 230 252
3.438055923 -64.715524730 -0.064040573 0 230 252
3.443828896 -64.814051592 -0.082723765 0 229 255
3.442297414 -64.910874757 -0.081112136 0 229 255
3.435846850 -65.006544779 -0.065832767 0 230 252
3.429731717 -65.102289331 -0.051484062 0 230 252
3.432550351 -65.200130317 -0.061954716 0 230 252
3.427445753 -65.296108383 -0.050411156 0 230 252
3.422928772 -65.392221885 -0.040498942 0 230 252
3.420989011 -65.488941561 -0.037745829 0 230 252
3.424854718 -65.587034329 -0.051120969 0 230 252
3.426823505 -65.684681202 -0.059224739 0 230 252
3.429520684 -65.782503274 -0.069351084 0 230 252
3.428078756 -65.879343908 -0.067976476 0 230 252
3.415999257 -65.973650515 -0.037045856 0 230 252
3.408630046 -66.069072303 -0.019200731 0 230 252
3.406965327 -66.165852271 -0.017203481 0 230 252
3.410264814 -66.263819824 -0.028997439 0 230 252
3.418646380 -66.363008944 -0.054910177 0 230 252
3.429738229 -66.462856010 -0.088352007 0 229 255
3.426518211 -66.559270523 -0.082029009 0 229 255
3.432621277 -66.657928991 -0.101607928 0 229 255
3.424985808 -66.753278385 -0.083014740 0 229 255
3.417976708 -66.848774018 -0.066160581 0 230 252
3.413291588 -66.944827479 -0.055762126 0 230 252
3.410871670 -67.041427200 -0.051656121 0 230 252
3.408509828 -67.138039915 -0.047710281 0 230 252
3.405365288 -67.234461231 -0.041588581 0 230 252
3.403424806 -67.331174147 -0.038811079 0 230 252
3.401888681 -67.427984967 -0.037155872 0 230 252
3.397991186 -67.524218396 -0.028938537 0 230 252
3.392360555 -67.620025450 -0.015904541 0 230 252
3.387496114 -67.716016722 -0.004998139 0 230 252
3.385731399 -67.812765949 -0.002703019 0 230 252
3.387237419 -67.910318754 -0.009494388 0 230 252
3.389033854 -68.007944985 -0.017091527 0 230 252
3.388212752 -68.104927758 -0.017414726 0 230 252
3.385500992 -68.201443611 -0.012483565 0 230 252
3.382994207 -68.298008842 -0.008120734 0 230 252
3.383189228 -68.395242390 -0.011263707 0 230 252
3.385420129 -68.492982103 -0.020062251 0 230 252
3.386442690 -68.590423932 -0.025502260 0 230 252
3.385182715 -68.687299066 -0.024599031 0 230 252
3.383310879 -68.784021426 -0.021994549 0 230 252
3.383146343 -68.881169438 -0.024132686 0 230 252
3.384887582 -68.978794711 -0.031564945 0 230 252
3.385479101 -69.076134085 -0.035801506 0 230 252
3.382256758 -69.172517878 -0.029439875 0 230 252
3.375983316 -69.268133338 -0.014599361 0 230 252
3.369883998 -69.363788538 -0.000241411 0 230 252
3.366292180 -69.460071749 0.007150486 0 230 252
3.365620646 -69.557090052 0.006429319 0 230 252
3.365961177 -69.654364433 0.002897201 0 230 252
3.363971840 -69.751049952 0.005840014 0 230 252
3.360363042 -69.847324055 0.013283860 0 230 249
3.358744973 -69.944101672 0.015197444 0 230 249
3.360374128 -70.041704666 0.008089404 0 230 252
3.363481701 -70.139686237 -0.003125464 0 230 252
3.366344280 -70.237608449 -0.013658459 0 230 252
3.369022293 -70.335486456 -0.023677481 0 230 252
3.370542824 -70.433071106 -0.030479143 0 230 252
3.370714343 -70.530311982 -0.033531238 0 230 252
3.372033883 -70.627848365 -0.039772122 0 230 252
3.372938132 -70.725279770 -0.044857912 0 230 252
3.368991932 -70.821464074 -0.036464787 0 230 252
3.362992213 -70.917116707 -0.022364394 0 230 252
3.360186936 -71.013590204 -0.017139086 0 230 252
3.361699602 -71.111178746 -0.023910787 0 230 252
3.364938282 -71.209216141 -0.035477398 0 230 252
3.367208952 -71.307005739 -0.044353079 0 230 252
3.367096138 -71.404178802 -0.046604638 0 230 252
3.363932879 -71.500559104 -0.040378749 0 230 252
3.358244233 -71.596279893 -0.027134332 0 230 252
3.351262175 -71.691659641 -0.010294644 0 230 252
3.343447332 -71.786817195 0.008860386 0 230 252
3.339030945 -71.882858650 0.018573268 0 230 249
3.341281084 -71.980644236 0.009762801 0 230 249
3.343128310 -72.078326571 0.002073063 0 230 252
3.341359702 -72.175060857 0.004431975 0 230 252
3.339534336 -72.271779590 0.006949789 0 230 252
3.339450226 -72.368956591 0.004630243 0 230 252
3.339070522 -72.466056251 0.003133245 0 230 252
3.337843979 -72.562932516 0.003990591 0 230 252
3.336561795 -72.659793852 0.005003727 0 230 252
3.335841046 -72.756803782 0.004457929 0 230 252
3.335890273 -72.854018317 0.001773693 0 230 252
3.335486799 -72.951113274 0.000348586 0 230 252
3.331884018 -73.047356836 0.007814900 0 230 252
3.333604007 -73.145017623 0.000491435 0 230 252
3.330733005 -73.241454576 0.005926644 0 230 252
3.332593119 -73.339155198 -0.001783897 0 230 252
3.329560636 -73.435547795 0.004102402 0 230 252
3.333121183 -73.533706896 -0.008331054 0 230 252
3.334539247 -73.631294090 -0.014809766 0 230 252
3.334398960 -73.728464004 -0.016956915 0 230 252
3.334225648 -73.825625657 -0.019011129 0 230 252
3.332637691 -73.922406367 -0.017133084 0 230 252
3.335071996 -74.020273006 -0.026431172 0 230 252
3.326880721 -74.115268209 -0.006201032 0 230 252
3.319632350 -74.210513254 0.011410168 0 230 249
3.316309604 -74.306818302 0.018113762 0 230 249
3.316161280 -74.403983827 0.015997183 0 230 249
3.319712270 -74.502156276 0.003601757 0 230 252
3.327065116 -74.601367846 -0.019357512 0 230 252
3.326294756 -74.698369869 -0.019742084 0 230 252
3.328592983 -74.796210303 -0.028652809 0 230 252
3.333198142 -74.894684329 -0.043973157 0 230 252
3.323745131 -74.989311467 -0.020225882 0 230 252
3.314051887 -75.083866166 0.004190279 0 230 252
3.309240508 -75.179755267 0.015041343 0 230 249
3.310754603 -75.277381539 0.008315499 0 230 252
3.314437670 -75.375607231 -0.004436657 0 230 252
3.317083215 -75.473550274 -0.014304463 0 230 252
3.317640716 -75.570919260 -0.018368553 0 230 252
3.312303123 -75.666658605 -0.006049248 0 230 252
3.295283400 -75.759158365 0.038735597 0 230 249
3.285016527 -75.853519056 0.064755826 0 230 249
3.204263113 -84.190792845 0.077592396 0 230 249
3.086659815 -95.822294201 0.123684276 0 231 246
3.087877819 -95.920004213 0.118028913 0 231 246
3.088858141 -96.017630881 0.113035456 0 231 246
3.089250699 -96.115048664 0.109677122 0 231 246
3.092516810 -96.213496737 0.098331568 0 231 246
3.098865167 -96.313053252 0.078418613 0 230 249
3.103710595 -96.412075813 0.062684891 0 230 249
3.104129480 -96.509512066 0.059257984 0 230 249
3.103278151 -96.606492364 0.059363404 0 230 249
3.103318708 -96.703793869 0.056990572 0 230 249
3.103661665 -96.801205095 0.053778239 0 230 249
3.101366645 -96.897665219 0.057900612 0 230 249
3.098386335 -96.993876664 0.063929271 0 230 249
3.097172626 -97.090725405 0.065047974 0 230 249
3.095966629 -97.187576672 0.066146415 0 230 249
3.093471823 -97.283960569 0.070828925 0 230 249
3.091635366 -97.380582078 0.073682404 0 230 249
3.091841652 -97.477944776 0.070858214 0 230 249
3.093882382 -97.575975285 0.062935413 0 230 249
3.094628694 -97.673536897 0.058612265 0 230 249
3.091476030 -97.769679120 0.065129516 0 230 249
3.086543807 -97.865170498 0.076595175 0 230 249
3.082777041 -97.961084288 0.084822037 0 230 249
3.081805946 -98.058017702 0.085278033 0 230 249
3.080369386 -98.154780720 0.087029213 0 230 249
3.074640722 -98.249971168 0.100713800 0 231 246
3.066802090 -98.344384209 0.120265418 0 231 246
3.064128791 -98.440687836 0.125458371 0 231 246
3.067138639 -98.539078281 0.114853035 0 231 246
3.070597618 -98.637636905 0.103000244 0 231 246
3.072184279 -98.735509451 0.096353758 0 231 246
3.071545102 -98.832563451 0.095896397 0 231 246
3.068653796 -98.928786634 0.101701280 0 231 246
3.065053521 -99.024746385 0.109478336 0 231 246
3.064292014 -99.121753655 0.109364597 0 231 246
3.067794743 -99.220339333 0.097397119 0 231 246
3.074603620 -99.320153352 0.076239439 0 230 249
3.082285057 -99.420296903 0.052657118 0 230 249
3.087230371 -99.519431137 0.036682577 0 230 249
3.088572358 -99.617230583 0.030726724 0 230 249
3.088025333 -99.714328901 0.030023645 0 230 249
3.085453597 -99.810673371 0.034950612 0 230 249
3.078629318 -99.905431062 0.051701234 0 230 249
3.067870715 -99.998715821 0.079390903 0 230 249
3.058714702 -100.092591675 0.102626471 0 231 246
3.054996586 -100.188494808 0.110745322 0 231 246
3.057946350 -100.286891963 0.100327889 0 231 246
3.066037920 -100.387218937 0.075616796 0 230 249
3.072455374 -100.486924772 0.055561081 0 230 249
3.073561178 -100.584641570 0.050273519 0 230 249
3.071162291 -100.681042443 0.054730580 0 230 249
3.068275262 -100.777258440 0.060545924 0 230 249
3.065818561 -100.873634961 0.065166088 0 230 249
3.062687127 -100.969755830 0.071663281 0 230 249
3.058496896 -101.065475304 0.081105269 0 230 249
3.054072468 -101.161103717 0.091199554 0 231 246
3.049813800 -101.256792069 0.100834206 0 231 246
3.045752348 -101.352552459 0.109921766 0 231 246
3.043532374 -101.449008265 0.113890927 0 231 246
3.047276115 -101.547725461 0.101281203 0 231 246
3.056242691 -101.648429577 0.074152327 0 230 249
3.061676048 -101.747798130 0.056847498 0 230 249
3.058828458 -101.844020423 0.062566172 0 230 249
3.048765325 -101.937492714 0.088346440 0 230 249
3.036358516 -102.030064275 0.120643804 0 231 246
3.037040200 -102.127622526 0.116554093 0 231 246
3.038111074 -102.225330644 0.111383527 0 231 246
3.043401325 -102.324653923 0.094483489 0 231 246
3.041704154 -102.421306908 0.097010914 0 231 246
3.048258295 -102.521121277 0.076599330 0 230 249
3.054617171 -102.620866430 0.056731771 0 230 249
3.059680503 -102.720119649 0.040467211 0 230 249
3.062877244 -102.818659944 0.029393272 0 230 249
3.064815784 -102.916719244 0.021818527 0 230 249
3.066253122 -103.014587645 0.015638376 0 230 249
3.066227880 -103.111893934 0.013525644 0 230 249
3.063712147 -103.208239739 0.018338138 0 230 249
3.058547648 -103.303561044 0.030515924 0 230 249
3.050267605 -103.397674295 0.051356777 0 230 249
3.045007591 -103.492950761 0.063802540 0 230 249
3.035780132 -103.586686628 0.087279879 0 230 249
3.032098256 -103.682566806 0.095340499 0 231 246
3.031213390 -103.779530646 0.095625989 0 231 246
3.029414353 -103.876139193 0.098454257 0 231 246
3.025025504 -103.971739581 0.108483988 0 231 246
3.021282630 -104.067588756 0.116718954 0 231 246
3.023688280 -104.165832137 0.107860735 0 231 246
3.030871478 -104.265941943 0.085720937 0 230 249
3.037900074 -104.365997535 0.064012120 0 230 249
3.040779320 -104.464437132 0.053840648 0 230 249
3.039780580 -104.561362130 0.054452078 0 230 249
3.037578925 -104.657815833 0.058409083 0 230 249
3.036276822 -104.754621162 0.059866289 0 230 249
3.037549557 -104.852436627 0.054165972 0 230 249
3.041009639 -104.951112978 0.042385432 0 230 249
3.043857922 -105.049552053 0.032307009 0 230 249
3.042871550 -105.146484603 0.032891070 0 230 249
3.037580821 -105.241721141 0.045443550 0 230 249
3.032124544 -105.336888950 0.058457503 0 230 249
3.031108728 -105.433806119 0.059126975 0 230 249
3.033776252 -105.532178598 0.049556933 0 230 249
3.033041337 -105.629207987 0.049447763 0 230 249
3.029759058 -105.725228896 0.056422146 0 230 249
3.026000776 -105.821059266 0.064721142 0 230 249
3.022285018 -105.916904241 0.072903103 0 230 249
3.020583421 -106.013546751 0.075486303 0 230 249
3.022024285 -106.111437572 0.069333724 0 230 249
3.025376158 -106.210090409 0.057869140 0 230 249
3.026330073 -106.307791521 0.053072746 0 230 249
3.026551416 -106.405201984 0.050314280 0 230 249
3.027925193 -106.503073060 0.044352875 0 230 249
3.027016440 -106.600034220 0.044738752 0 230 249
3.021984168 -106.695346864 0.056590445 0 230 249
3.016921105 -106.790643938 0.068528951 0 230 249
3.016736066 -106.887891561 0.066906221 0 230 249
3.018252334 -106.985821754 0.060554495 0 230 249
3.015446434 -107.082019228 0.066220927 0 230 249
3.010612623 -107.177400573 0.077526789 0 230 249
3.008433100 -107.273846042 0.081454070 0 230 249
3.009978057 -107.371789410 0.075027254 0 230 249
3.009482162 -107.468912441 0.074275844 0 230 249
3.003802354 -107.563945403 0.087938609 0 230 249
2.995962399 -107.658102744 0.107608522 0 231 246
2.990654982 -107.753277814 0.120238337 0 231 246
2.987940828 -107.849498094 0.125659186 0 231 246
2.986709763 -107.946317214 0.126957713 0 231 246
2.987566670 -108.043981956 0.122452116 0 231 246
2.991782836 -108.143010287 0.108607760 0 231 246
2.997893238 -108.242811395 0.089497920 0 231 246
3.002415182 -108.341972418 0.074805707 0 230 249
3.005528086 -108.440564489 0.064032281 0 230 249
3.008352293 -108.539042048 0.054062694 0 230 249
3.010965560 -108.637436446 0.044680755 0 230 249
3.011940848 -108.735165423 0.039854148 0 230 249
3.008668228 -108.831161631 0.046839420 0 230 249
2.999761103 -108.924853575 0.069491867 0 230 249
2.992754543 -109.019316609 0.086861274 0 230 249
2.991398502 -109.116088116 0.088521336 0 231 246
2.990819985 -109.213177798 0.088020763 0 230 249
2.989379788 -109.309914222 0.089917162 0 231 246
2.988902425 -109.407045433 0.089137690 0 231 246
2.992087560 -109.505681907 0.078176239 0 230 249
2.998426266 -109.605618542 0.058447817 0 230 249
3.004536778 -109.705466717 0.039355016 0 230 249
3.006762689 -109.803719432 0.031064053 0 230 249
3.003402635 -109.899670449 0.038305392 0 230 249
2.998357611 -109.994923844 0.050232793 0 230 249
2.994904460 -110.090831783 0.057735360 0 230 249
2.993426085 -110.187554478 0.059748455 0 230 249
2.994481684 -110.285325721 0.054717268 0 230 249
2.998375255 -110.384274410 0.041796552 0 230 249
3.000918478 -110.482666611 0.032631501 0 230 249
2.999105233 -110.579252741 0.035580347 0 230 249
2.995058605 -110.674910009 0.044740083 0 230 249
2.990725890 -110.770445773 0.054696450 0 230 249
2.985739621 -110.865706719 0.066471166 0 230 249
2.980618385 -110.960908188 0.078622343 0 230 249
2.976638899 -111.056582524 0.087600175 0 230 249
2.974569259 -111.153051700 0.091269016 0 231 246
2.975063302 -111.250591131 0.087810907 0 230 249
2.977970832 -111.349140959 0.077643440 0 230 249
2.980908515 -111.447706247 0.067393297 0 230 249
2.981064747 -111.545108941 0.064877942 0 230 249
2.978996113 -111.641579258 0.068549849 0 230 249
2.977403824 -111.738248541 0.070898487 0 230 249
2.977805329 -111.835754915 0.067704683 0 230 249
2.980897218 -111.934393632 0.057031606 0 230 249
2.986920449 -112.034269224 0.038209276 0 230 249
2.992387041 -112.133915523 0.020935810 0 230 249
2.991420155 -112.230853612 0.021551386 0 230 249
2.984540348 -112.325295780 0.038608678 0 230 249
2.976443051 -112.419218888 0.059052349 0 230 249
2.970525577 -112.514058111 0.073436350 0 230 249
2.968218276 -112.610421350 0.077783633 0 230 249
2.969156323 -112.708158226 0.073108543 0 230 249
2.974716259 -112.807856153 0.055583658 0 230 249
2.987074749 -112.910444232 0.019156864 0 230 249
2.996055999 -113.011607821 -0.007878495 0 230 252
2.995448296 -113.108702016 -0.008251062 0 230 252
2.988265400 -113.202998253 0.009659588 0 230 249
2.979086810 -113.296439511 0.033120407 0 230 249
2.970509669 -113.390130699 0.054910151 0 230 249
2.962779958 -113.484177474 0.074344871 0 230 249
2.957148968 -113.579115231 0.087945362 0 230 249
2.957521205 -113.676615478 0.084855204 0 230 249
2.963050822 -113.776323241 0.067426227 0 230 249
2.968494470 -113.875999028 0.050237448 0 230 249
2.969386051 -113.973728434 0.045706760 0 230 249
2.964956313 -114.069176183 0.055973069 0 230 249
2.958732621 -114.163850781 0.071228636 0 230 249
2.955716021 -114.259899532 0.077568124 0 230 249
2.959053614 -114.358679930 0.066241015 0 230 249
2.966788737 -114.459356855 0.042687785 0 230 249
2.971599485 -114.558780084 0.027266917 0 230 249
2.967609261 -114.654411525 0.036318224 0 230 249
2.959564091 -114.748289915 0.056645485 0 230 249
2.954855356 -114.843604345 0.067697008 0 230 249
2.957990185 -114.942307910 0.056940680 0 230 249
2.962019588 -115.041401694 0.043698157 0 230 249
2.961668295 -115.138601227 0.042637328 0 230 249
2.960001683 -115.235230699 0.045234921 0 230 249
2.958941076 -115.332122483 0.046148691 0 230 249
2.957378215 -115.428795846 0.048460160 0 230 249
2.953645607 -115.524525201 0.056805809 0 230 249
2.947406549 -115.619161516 0.072121872 0 230 249
2.940996918 -115.713719307 0.087913420 0 230 249
2.914746805 -115.799623393 0.158873175 0 231 246
2.992323768 -115.930810517 -0.058859097 0 230 252
-4.148284007 -127.107674327 19.513709516 255 14 142
-4.270866417 -127.141669807 19.853064657 255 4 161
-4.282346248 -127.230632410 19.883172194 255 4 161
-4.295002320 -127.319003246 19.916554960 255 4 161
-4.300567765 -127.410884325 19.930202193 255 2 164
-4.300836167 -127.505392886 19.929106264 255 2 164
-4.299260901 -127.600818260 19.922879607 255 2 164
-4.297415476 -127.696379727 19.915902074 255 4 161
-4.294910370 -127.792271543 19.907089433 255 4 161
-4.292432814 -127.888152028 19.898354590 255 4 161
-4.291239533 -127.983394455 19.893195626 255 4 161
-4.291293130 -128.078016002 19.891508448 255 4 161
-4.291551074 -128.172535915 19.890391175 255 4 161
-4.291122189 -128.267399392 19.887363234 255 4 161
-4.290367033 -128.362426869 19.883428227 255 4 161
-4.290256562 -128.457132663 19.881288808 255 4 161
-4.290131063 -128.551846534 19.879108670 255 4 161
-4.287076743 -128.648029387 19.868777286 255 4 161
-4.281365688 -128.745548084 19.851052017 255 4 161
-4.278331866 -128.841727295 19.840779916 255 6 157
-4.282353477 -128.934363770 19.850147662 255 4 161
-4.291146276 -129.024598124 19.872797105 255 4 161
-4.296700334 -129.116456206 19.886432665 255 4 161
-4.295794270 -129.211564311 19.882087602 255 4 161
-4.290994070 -129.308636473 19.866904331 255 4 161
-4.287177547 -129.405216572 19.854460237 255 4 161
-4.288710750 -129.499099329 19.856908195 255 4 161
-4.292850359 -129.591664546 19.866612193 255 4 161
-4.295472410 -129.684994315 19.872093191 255 4 161
-4.295689305 -129.779539508 19.870880547 255 4 161
-4.297219622 -129.873419899 19.873324926 255 4 161
-4.300607609 -129.966358164 19.880941248 255 4 161
-4.303250063 -130.059672366 19.886483493 255 4 161
-4.304928724 -130.153474138 19.889344130 255 4 161
-4.306563813 -130.247297198 19.892084597 255 4 161
-4.308559890 -130.340935955 19.895830988 255 4 161
-4.310427213 -130.434639118 19.899220107 255 4 161
-4.311255283 -130.528870346 19.899717571 255 4 161
-4.311410057 -130.623444400 19.898342018 255 4 161
-4.312633418 -130.717473966 19.899942000 255 4 161
-4.315574055 -130.810626827 19.906323148 255 4 161
-4.318323440 -130.903875524 19.912173060 255 4 161
-4.317458549 -130.998969443 19.907963705 255 4 161
-4.313440254 -131.095677076 19.894977930 255 4 161
-4.311807210 -131.191167543 19.888632639 255 4 161
-4.311406848 -131.286028383 19.885719640 255 4 161
-4.309343914 -131.381742108 19.878179969 255 4 161
-4.306825581 -131.477691447 19.869373803 255 4 161
-4.307045953 -131.572237355 19.868191958 255 4 161
-4.309891859 -131.665434804 19.874319420 255 4 161
-4.313387554 -131.758296453 19.882256692 255 4 161
-4.316674249 -131.851263367 19.889613328 255 4 161
-4.320934608 -131.943726891 19.899681285 255 4 161
-4.327610554 -132.034942964 19.916474187 255 4 161
-4.334879275 -132.125848676 19.934918219 255 2 164
-4.339542941 -132.218093451 19.946112160 255 2 164
-4.341049942 -132.311965147 19.948520569 255 2 164
-4.342667897 -132.405778775 19.951238935 255 2 164
-4.340850180 -132.501368394 19.944395144 255 2 164
-4.340917119 -132.595984440 19.942798444 255 2 164
-4.336072523 -132.693144716 19.927531499 255 2 164
-4.336491311 -132.787581035 19.926916403 255 2 164
-4.335155958 -132.882927340 19.921419731 255 2 164
-4.336509927 -132.976879100 19.923409951 255 2 164
-4.339878650 -133.069783628 19.931009395 255 2 164
-4.342227011 -133.163216429 19.935769755 255 2 164
-4.340682834 -133.258672921 19.929696262 255 2 164
-4.336915931 -133.355288244 19.917436878 255 4 161
-4.332721287 -133.452129750 19.903987987 255 4 161
-4.330887186 -133.547744118 19.897110828 255 4 161
-4.331423301 -133.642123574 19.896832319 255 4 161
-4.333504889 -133.735696037 19.900856771 255 4 161
-4.335180278 -133.829479576 19.903751676 255 4 161
-4.335003347 -133.924230895 19.901491728 255 4 161
-4.334545600 -134.019129727 19.898451233 255 4 161
-4.334732425 -134.113691758 19.897206028 255 4 161
-4.333481819 -134.209007412 19.891960820 255 4 161
-4.330029411 -134.305479247 19.880587976 255 4 161
-4.327825677 -134.401298768 19.872691950 255 4 161
-4.330099952 -134.494768317 19.877261645 255 4 161
-4.334560756 -134.587087206 19.887918692 255 4 161
-4.335873769 -134.681058878 19.889814922 255 4 161
-4.331803622 -134.777863681 19.876728152 255 4 161
-4.326503036 -134.875320213 19.860217556 255 4 161
-4.324972123 -134.970793951 19.854201018 255 4 161
-4.329573886 -135.063033907 19.865255975 255 4 161
-4.336833202 -135.153867676 19.883709393 255 4 161
-4.341861226 -135.245875122 19.895953096 255 4 161
-4.343059811 -135.339903794 19.897538601 255 4 161
-4.343321082 -135.434427883 19.896516189 255 4 161
-4.346351346 -135.527486023 19.903202432 255 4 161
-4.346394004 -135.622125286 19.901573730 255 4 161
-4.362955464 -135.708005666 19.945926590 255 2 164
-4.411401814 -135.776954054 20.079033468 255 0 168
2.821705614 -140.003313996 -0.051175990 0 230 252
2.807396348 -140.093122857 -0.013122328 0 230 252
2.798860628 -140.185995634 0.008878241 0 230 252
2.798160051 -140.283037640 0.009093058 0 230 252
2.797830410 -140.380277308 0.008277602 0 230 252
2.794894945 -140.476126437 0.014709252 0 230 249
2.788199033 -140.569965374 0.031598640 0 230 249
2.783730867 -140.664990154 0.042294582 0 230 249
2.786568113 -140.763919045 0.032677762 0 230 249
2.792422705 -140.864465431 0.014671894 0 230 249
2.795495161 -140.963526584 0.004403409 0 230 252
2.794221897 -141.060261235 0.006220094 0 230 252
2.789713676 -141.155260148 0.017033281 0 230 249
2.783969458 -141.249592541 0.031284543 0 230 249
2.779836097 -141.344786144 0.041057728 0 230 249
2.778197845 -141.441318123 0.043894025 0 230 249
2.778578112 -141.538934997 0.041118669 0 230 249
2.781832947 -141.638099896 0.030351290 0 230 249
2.787711683 -141.738681109 0.012288919 0 230 249
2.795185620 -141.840127124 -0.010207952 0 230 252
2.803272961 -141.941910152 -0.034409271 0 230 252
2.808391355 -142.042097037 -0.050353775 0 230 252
2.806687144 -142.138602551 -0.047325825 0 230 252
2.801480016 -142.233213444 -0.034556317 0 230 252
2.797088606 -142.328261986 -0.024053853 0 230 252
2.793566073 -142.423777898 -0.015966260 0 230 252
2.790810144 -142.519706775 -0.010009145 0 230 252
2.789061920 -142.616180210 -0.006852929 0 230 252
2.786230255 -142.712064870 -0.000682869 0 230 252
2.780118399 -142.806166868 0.014609434 0 230 249
2.776607775 -142.901677755 0.022669795 0 230 249
2.779253437 -143.000533340 0.013612850 0 230 249
2.784735951 -143.100934743 -0.003331194 0 230 252
2.789022019 -143.200689316 -0.016947145 0 230 252
2.788400532 -143.297773753 -0.016915749 0 230 252
2.782958793 -143.392229986 -0.003479772 0 230 252
2.778137274 -143.487020780 0.008232773 0 230 252
2.777049447 -143.583846760 0.009564420 0 230 249
2.776760320 -143.681108642 0.008676347 0 230 252
2.770909091 -143.775329545 0.023255674 0 230 249
2.761781835 -143.867753849 0.046945651 0 230 249
2.757350735 -143.962742742 0.057578462 0 230 249
2.761360523 -144.062353420 0.044741321 0 230 249
2.768156754 -144.163495319 0.024157274 0 230 249
