ply
format ascii 1.0
comment coordinate_system ground
comment units millimeter
element vertex 1317
property double x
property double y
property double z
property uchar red
property uchar green
property uchar blue
comment color_mapping zg_high_contrast_from_zg
comment color_zg_range_mm -0.298498271 19.942472396
end_header
4.834230534 54.274694648 0.190373444 0 232 237
4.829912509 54.176897954 0.198244077 0 232 237
4.814927104 54.076582638 0.235632543 0 232 237
4.796219252 53.975399664 0.283322554 0 233 234
4.787967017 53.876693358 0.302083140 0 233 234
4.794516957 53.781474039 0.279886743 0 233 234
4.799908313 53.685976909 0.260897087 0 233 234
4.796906506 53.588507268 0.265132820 0 233 234
4.786957837 53.489413244 0.288592253 0 233 234
4.778897457 53.390767303 0.306827935 0 233 234
4.780159676 53.294301613 0.299268211 0 233 234
4.783533700 53.198326057 0.285865871 0 233 234
4.777744541 53.100216514 0.297820317 0 233 234
4.769071056 53.001441070 0.317757356 0 233 234
4.769108837 52.904690418 0.313590150 0 233 234
4.771424242 52.808465976 0.303121391 0 233 234
4.771128827 52.711635924 0.299878281 0 233 234
4.774925502 52.615749036 0.285312560 0 233 234
4.767961158 52.517380970 0.300525946 0 233 234
4.766128605 52.420197011 0.301539693 0 233 234
4.769027327 52.324099373 0.289461914 0 233 234
4.765213867 52.226461105 0.295959507 0 233 234
4.756195724 52.127634669 0.316861082 0 233 234
4.748403574 52.029094292 0.334371282 0 233 231
4.745075847 51.931576733 0.339528318 0 233 231
4.747852653 51.835450095 0.327793297 0 233 234
4.754092836 51.740107377 0.306474926 0 233 234
4.760138227 51.644714961 0.285696496 0 233 234
4.763512354 51.548712370 0.272311315 0 233 234
4.760617124 51.451289390 0.276276779 0 233 234
4.753243813 51.352857404 0.292635985 0 233 234
4.749678016 51.255287999 0.298459518 0 233 234
4.749080825 51.158388156 0.296068830 0 233 234
4.747518718 51.061271393 0.296349556 0 233 234
4.743970268 50.963709893 0.302128484 0 233 234
4.741435138 50.866377070 0.305104246 0 233 234
4.740467774 50.769395600 0.303742384 0 233 234
4.738490323 50.672188895 0.305177010 0 233 234
4.736059169 50.574881959 0.307868373 0 233 234
4.736739087 50.478267435 0.301950918 0 233 234
4.738369503 50.381862486 0.293403971 0 233 234
4.736765011 50.284739186 0.293810791 0 233 234
4.735980544 50.187797637 0.291949247 0 233 234
4.741461370 50.092238563 0.272749130 0 233 234
4.748980344 49.997123551 0.247909168 0 232 237
4.753345814 49.901308534 0.231797695 0 232 237
4.751224980 49.804065462 0.233638749 0 232 237
4.744206586 49.705749948 0.249035543 0 232 237
4.736485840 49.607285391 0.266377453 0 233 234
4.730852517 49.509281850 0.277943366 0 233 234
4.725754582 49.411398580 0.288028721 0 233 234
4.720210387 49.313421337 0.299350380 0 233 234
4.714508442 49.215413310 0.311109860 0 233 234
4.712254787 49.118156683 0.313326686 0 233 234
4.714154057 49.021800041 0.304050478 0 233 234
4.719598059 48.926207198 0.284964383 0 233 234
4.728729925 48.831404964 0.255672102 0 233 234
4.740166734 48.737091328 0.220001082 0 232 237
4.748673706 48.642138435 0.192439951 0 232 237
4.743789329 48.544304942 0.201944149 0 232 237
4.731321130 48.444850088 0.232440110 0 232 237
4.722333159 48.346148095 0.253304827 0 232 237
4.717912328 48.248426942 0.261529757 0 233 234
4.715290625 48.151091699 0.264776154 0 233 234
4.710967273 48.053395842 0.272733616 0 233 234
4.704107913 47.955164208 0.287711622 0 233 234
4.695227679 47.856508855 0.308284443 0 233 234
4.683978201 47.757358420 0.335416412 0 233 231
4.671415314 47.657938533 0.366185169 0 233 231
4.670745291 47.561033868 0.364036674 0 233 231
4.668923946 47.463886767 0.365076059 0 233 231
4.667891928 47.366906051 0.363931730 0 233 231
4.673125140 47.271238562 0.345446489 0 233 231
4.680818003 47.176080924 0.320153875 0 233 234
4.688486767 47.080911623 0.294928816 0 233 234
4.688137676 46.984064361 0.291898166 0 233 234
4.684850341 46.886605252 0.297001738 0 233 234
4.683975592 46.789648970 0.295428317 0 233 234
4.687430731 46.693590221 0.281870598 0 233 234
4.692274680 46.597815460 0.264469519 0 233 234
4.692563056 46.501095325 0.259679586 0 233 234
4.683055807 46.402354747 0.282005981 0 233 234
4.674982549 46.303915769 0.300364251 0 233 234
4.668726928 46.205855546 0.313692354 0 233 234
4.675657791 46.110502766 0.290519636 0 233 234
4.680944798 46.014807552 0.271898238 0 233 234
4.685742265 45.919007557 0.254632887 0 232 237
4.684586718 45.821989518 0.253847501 0 232 237
4.680527190 45.724380693 0.261102002 0 233 234
4.684988869 45.628504904 0.244769178 0 232 237
4.693814988 45.533509718 0.216355541 0 232 237
4.697574026 45.437481766 0.201969614 0 232 237
4.688482318 45.338854895 0.223158757 0 232 237
4.670454651 45.238432960 0.269086332 0 233 234
4.656877225 45.138919409 0.302695957 0 233 234
4.657681553 45.042303485 0.296494094 0 233 234
4.666116158 44.947215517 0.269170315 0 233 234
4.688827493 44.854976352 0.202324779 0 232 237
4.718626281 44.764134186 0.115859232 0 232 240
4.752644883 44.674109428 0.017712006 0 231 246
4.793389358 44.585395697 -0.099054756 0 230 249
4.813964271 44.492646061 -0.159984626 0 230 252
4.818249707 44.396652422 -0.175818361 0 230 252
4.819154646 44.299986251 -0.182292570 0 230 252
4.821345766 44.203572491 -0.192326424 0 230 252
4.823404737 44.107130274 -0.201993430 0 230 252
4.823651812 44.010329499 -0.206643290 0 230 252
4.823519679 43.913453374 -0.210242272 0 230 252
4.823703593 43.816638493 -0.214715154 0 230 252
4.823461505 43.719739454 -0.218007594 0 230 252
4.822924197 43.622782257 -0.220481643 0 229 255
4.820262928 43.525411193 -0.217074396 0 230 252
4.813637147 43.427271053 -0.202690141 0 230 252
4.806679613 43.329070889 -0.187386164 0 230 252
4.803229435 43.231554138 -0.181791246 0 230 252
4.802998694 43.134661161 -0.185108405 0 230 252
4.801387445 43.037501468 -0.184602441 0 230 252
4.796956550 42.939799748 -0.176288895 0 230 252
4.792273807 42.842052303 -0.167276893 0 230 252
4.794884498 42.745705386 -0.178456490 0 230 252
4.788543554 42.647643670 -0.164851237 0 230 252
4.783583575 42.549849639 -0.155068156 0 230 252
4.783058322 42.452903424 -0.157562156 0 230 252
4.785781095 42.356574338 -0.169047823 0 230 252
4.788410795 42.260224761 -0.180274810 0 230 252
4.789456674 42.163572533 -0.187115663 0 230 252
4.788889320 42.066613914 -0.189488883 0 230 252
4.788554502 41.969698829 -0.192504852 0 230 252
4.787133809 41.872578888 -0.192513230 0 230 252
4.784252486 41.775184953 -0.188476360 0 230 252
4.781176930 41.677756063 -0.183900554 0 230 252
4.778321628 41.580369972 -0.179933435 0 230 252
4.775621936 41.483014359 -0.176396024 0 230 252
4.771749823 41.385441652 -0.169611249 0 230 252
4.767407313 41.287783705 -0.161522849 0 230 252
4.765047047 41.190496075 -0.158921794 0 230 252
4.765748984 41.093776433 -0.164798421 0 230 252
4.768629987 40.997458101 -0.176707564 0 230 252
4.771533119 40.901140895 -0.188676989 0 230 252
4.772234016 40.804415522 -0.194547655 0 230 252
4.770594870 40.707259204 -0.193937887 0 230 252
4.768545547 40.610028232 -0.192191257 0 230 252
4.767075910 40.512904068 -0.192048618 0 230 252
4.764865527 40.415645116 -0.189853778 0 230 252
4.760868620 40.318061809 -0.182710971 0 230 252
4.756502282 40.220413682 -0.174544040 0 230 252
4.753165466 40.122954810 -0.169226665 0 230 252
4.750648894 40.025646148 -0.166179397 0 230 252
4.748575360 39.928418650 -0.164357776 0 230 252
4.747396656 39.831353206 -0.165012849 0 230 252
4.747739303 39.734561431 -0.169879527 0 230 252
4.748524851 39.637848101 -0.175971569 0 230 252
4.749218996 39.541117056 -0.181809462 0 230 252
4.750342781 39.444461478 -0.188836022 0 230 252
4.751564481 39.347821744 -0.196132682 0 230 252
4.751442744 39.250941357 -0.199708161 0 230 252
4.749259325 39.153694376 -0.197573486 0 230 252
4.746932258 39.056422871 -0.195039901 0 230 252
4.746375031 38.959465175 -0.197406162 0 230 252
4.744780263 38.862324186 -0.196898203 0 230 252
4.738587511 38.764374582 -0.183656422 0 230 252
4.731494880 38.666270960 -0.167921451 0 230 252
4.727347357 38.568687990 -0.160340867 0 230 252
4.725043331 38.471429715 -0.157864178 0 230 252
4.721818102 38.374011759 -0.152835316 0 230 252
4.716874737 38.276296471 -0.143047325 0 230 252
4.711203728 38.178457841 -0.131243082 0 230 249
4.706197847 38.080738054 -0.121279544 0 230 249
4.705357235 37.983741540 -0.122849692 0 230 249
4.708794553 37.887482960 -0.136265699 0 230 249
4.712957326 37.791345879 -0.151689753 0 230 252
4.715433199 37.694915123 -0.162441243 0 230 252
4.716435496 37.598229186 -0.169110873 0 230 252
4.717523529 37.501556389 -0.176016896 0 230 252
4.720198912 37.405152829 -0.187317864 0 230 252
4.723123738 37.308788932 -0.199308641 0 230 252
4.722635776 37.211842395 -0.201847007 0 230 252
4.719205389 37.114396842 -0.196235455 0 230 252
4.714850922 37.016796914 -0.188063552 0 230 252
4.710146532 36.919140532 -0.178921363 0 230 252
4.707182761 36.821779971 -0.174598564 0 230 252
4.705546424 36.724643846 -0.173950918 0 230 252
4.698042150 36.626525032 -0.157050923 0 230 252
4.688433611 36.528059434 -0.134321866 0 230 249
4.692040866 36.431804665 -0.148192940 0 230 252
4.688212331 36.334309029 -0.141469337 0 230 252
4.683322340 36.236639341 -0.131804798 0 230 249
4.677058221 36.138745030 -0.118333316 0 230 249
4.673354030 36.041277805 -0.111950513 0 230 249
4.673321365 35.944418006 -0.115735177 0 230 249
4.675771196 35.847965833 -0.126394304 0 230 249
4.678495410 35.751556063 -0.137812366 0 230 249
4.678879592 35.654760327 -0.142748398 0 230 252
4.676445671 35.557503217 -0.139878213 0 230 249
4.675081286 35.460421511 -0.139969141 0 230 249
4.677107463 35.363891339 -0.149449724 0 230 252
4.679659030 35.267444081 -0.160384457 0 230 252
4.679885199 35.170617830 -0.164877524 0 230 252
4.679278254 35.073656161 -0.167062036 0 230 252
4.680502683 34.976989148 -0.174317872 0 230 252
4.683140047 34.880547461 -0.185486141 0 230 252
4.684967472 34.783973181 -0.194410076 0 230 252
4.682409112 34.686695443 -0.191185359 0 230 252
4.674323770 34.588537233 -0.172650937 0 230 252
4.665083875 34.490200718 -0.150917340 0 230 252
4.656172231 34.391922630 -0.130091612 0 230 249
4.649137385 34.293947842 -0.114462972 0 230 249
4.646530908 34.196677330 -0.111098947 0 230 249
4.649606514 34.100303610 -0.123472331 0 230 249
4.654742829 34.004250784 -0.141552619 0 230 252
4.657158985 33.907766633 -0.152097456 0 230 252
4.654220171 33.810442028 -0.147808569 0 230 252
4.647484468 33.712526298 -0.133001488 0 230 249
4.642966472 33.614960259 -0.124336025 0 230 249
4.644549368 33.518344483 -0.132568463 0 230 249
4.648872124 33.422151236 -0.148389153 0 230 252
4.651493172 33.325690930 -0.159495214 0 230 252
4.650539518 33.228676761 -0.160698425 0 230 252
4.645648887 33.131057119 -0.150995133 0 230 252
4.638269690 33.033058710 -0.134397289 0 230 249
4.630369496 32.934985469 -0.116354997 0 230 249
4.623437052 32.837065232 -0.100992111 0 230 249
4.620335263 32.739732783 -0.096239067 0 230 249
4.620915914 32.642961216 -0.101685449 0 230 249
4.621782803 32.546231813 -0.107923676 0 230 249
4.622285516 32.449445962 -0.113152052 0 230 249
4.622976393 32.352687335 -0.118900604 0 230 249
4.625146188 32.256149769 -0.128744878 0 230 249
4.626935551 32.159552740 -0.137534291 0 230 249
4.624827327 32.062370595 -0.135525798 0 230 249
4.619233724 31.964669304 -0.123861120 0 230 249
4.613506155 31.866951603 -0.111824105 0 230 249
4.610025914 31.769571101 -0.106011376 0 230 249
4.607713958 31.672365469 -0.103433859 0 230 249
4.603815357 31.574926559 -0.096459861 0 230 249
4.596189056 31.476940850 -0.079158103 0 230 249
4.597520607 31.380276134 -0.086670475 0 230 249
4.593483503 31.282823040 -0.079309263 0 230 249
4.594464087 31.186105542 -0.085847209 0 230 249
4.599792438 31.090020240 -0.104428655 0 230 249
4.595716141 30.992562949 -0.096955509 0 230 249
4.596936335 30.895875949 -0.104154100 0 230 249
4.595778142 30.798843333 -0.104762748 0 230 249
4.594189894 30.701748825 -0.104178888 0 230 249
4.599114415 30.605591576 -0.121636575 0 230 249
4.590918112 30.507547519 -0.102743842 0 230 249
4.582756641 30.409513962 -0.083946311 0 230 249
4.576146245 30.311707221 -0.069444567 0 230 249
4.570664876 30.214065454 -0.058069427 0 231 246
4.567672335 30.116780361 -0.053588163 0 231 246
4.569677554 30.020204210 -0.062951707 0 230 249
4.573432288 29.923872737 -0.077161171 0 230 249
4.574204318 29.827117730 -0.083106196 0 230 249
4.571053093 29.729810562 -0.078180887 0 230 249
4.563962752 29.631953515 -0.062341137 0 230 249
4.555075740 29.533850264 -0.041522435 0 231 246
4.547583207 29.435947238 -0.024565839 0 231 246
4.542724947 29.338415004 -0.014906295 0 231 246
4.539594494 29.241125006 -0.010032509 0 231 246
4.539278513 29.144225333 -0.012955220 0 231 246
4.544456172 29.048081729 -0.031097368 0 231 246
4.553472800 28.952460640 -0.059874773 0 231 246
4.560936797 28.856619258 -0.084349635 0 230 249
4.564324219 28.760214663 -0.097529012 0 230 249
4.564851341 28.663417178 -0.102782586 0 230 249
4.563491373 28.566362254 -0.102806650 0 230 249
4.558099851 28.468761645 -0.091659558 0 230 249
4.550475521 28.370862883 -0.074324875 0 230 249
4.544327023 28.273167934 -0.061077967 0 231 246
4.539477678 28.175651379 -0.051429370 0 231 246
4.535994062 28.078320641 -0.045563600 0 231 246
4.535182444 27.981348555 -0.047100024 0 231 246
4.538336157 27.884904234 -0.059622238 0 231 246
4.543073787 27.788667002 -0.076532100 0 230 249
4.547283942 27.692355570 -0.091979509 0 230 249
4.550175609 27.595866146 -0.103772719 0 230 249
4.550207826 27.498997453 -0.107641993 0 230 249
4.545672683 27.401528671 -0.098854925 0 230 249
4.537452223 27.303580440 -0.079855311 0 230 249
4.528937536 27.205599362 -0.060039142 0 231 246
4.522953094 27.107953147 -0.047232581 0 231 246
4.521502737 27.010898758 -0.046988093 0 231 246
4.524777699 26.914455719 -0.059835752 0 231 246
4.529619610 26.818211429 -0.077024265 0 230 249
4.532895306 26.721761360 -0.089872007 0 230 249
4.534656472 26.625113933 -0.098522127 0 230 249
4.535984940 26.528409114 -0.105972243 0 230 249
4.536470899 26.431595196 -0.111086774 0 230 249
4.532933652 26.334269174 -0.105052114 0 230 249
4.526354922 26.236559976 -0.090588423 0 230 249
4.521180235 26.139032304 -0.080014054 0 230 249
4.519608985 26.041961361 -0.079423580 0 230 249
4.520919613 25.945252470 -0.086817701 0 230 249
4.522604524 25.848588640 -0.095247927 0 230 249
4.521360486 25.751557491 -0.095560893 0 230 249
4.516154409 25.654033943 -0.084893729 0 230 249
4.509492695 25.556333201 -0.070191680 0 230 249
4.505410080 25.458955483 -0.062635261 0 230 249
4.504154813 25.361928405 -0.062912493 0 230 249
4.502339689 25.264832781 -0.061637194 0 230 249
4.498562648 25.167497621 -0.054924055 0 231 246
4.495371869 25.070236137 -0.049834348 0 231 246
4.496634210 24.973518058 -0.057083730 0 231 246
4.500793279 24.877149533 -0.072359372 0 230 249
4.501209349 24.780324597 -0.077261541 0 230 249
4.499108383 24.683195278 -0.075187462 0 230 249
4.489538810 24.585169687 -0.052415217 0 231 246
4.486379807 24.487918241 -0.047406712 0 231 246
4.490690471 24.391559987 -0.063097215 0 230 249
4.497524099 24.295497835 -0.085778506 0 230 249
4.493851252 24.198183750 -0.079342754 0 230 249
4.494476891 24.101379823 -0.084818095 0 230 249
4.501161671 24.005288565 -0.107083984 0 230 249
4.496056104 23.907806771 -0.096674399 0 230 249
4.489966235 23.810212907 -0.083535785 0 230 249
4.484500472 23.712695763 -0.072125528 0 230 249
4.479486033 23.615234529 -0.061964817 0 230 249
4.474821245 23.517816903 -0.052771894 0 231 246
4.471756193 23.420586901 -0.048011224 0 231 246
4.470969028 23.323620772 -0.049562282 0 231 246
4.470864290 23.226732803 -0.053003518 0 231 246
4.470585569 23.129824256 -0.055961492 0 231 246
4.471306688 23.033029141 -0.061689360 0 230 249
4.473411475 22.936389918 -0.071250917 0 230 249
4.475137797 22.839705471 -0.079762557 0 230 249
4.471323643 22.742393714 -0.072917935 0 230 249
4.466534782 22.644974497 -0.063370751 0 230 249
4.464859034 22.547907112 -0.062450323 0 230 249
4.463784377 22.450907392 -0.063194696 0 230 249
4.461662301 22.353791140 -0.061035019 0 231 246
4.460075818 22.256735168 -0.060358619 0 231 246
4.460298257 22.159879631 -0.064694606 0 230 249
4.461686366 22.063151584 -0.072260243 0 230 249
4.461968458 21.966300290 -0.076759434 0 230 249
4.459273571 21.869122331 -0.073006596 0 230 249
4.453401318 21.771599277 -0.060446214 0 231 246
4.445818791 21.673894159 -0.043144370 0 231 246
4.440611799 21.576451249 -0.032425341 0 231 246
4.439810353 21.479486801 -0.033915686 0 231 246
4.441687832 21.382810162 -0.042829985 0 231 246
4.443916097 21.286168897 -0.052715519 0 231 246
4.443865944 21.189282006 -0.056284985 0 231 246
4.441026159 21.092097741 -0.052121352 0 231 246
4.438350272 20.994932256 -0.048410841 0 231 246
4.437009241 20.897908988 -0.048399031 0 231 246
4.435366785 20.800854278 -0.047550631 0 231 246
4.431834335 20.703601976 -0.041462515 0 231 246
4.426897752 20.606204989 -0.031481292 0 231 246
4.422860797 20.508904621 -0.023992426 0 231 246
4.421028727 20.411835146 -0.022613855 0 231 246
4.420183410 20.314868223 -0.023969239 0 231 246
4.419772072 20.217945842 -0.026526434 0 231 246
4.422016352 20.121295251 -0.036443468 0 231 246
4.426079148 20.024827906 -0.051400130 0 231 246
4.428918549 19.928232213 -0.062964744 0 230 249
4.430327229 19.831488560 -0.070562576 0 230 249
4.430939980 19.734662694 -0.075953139 0 230 249
4.431397015 19.637819934 -0.080911010 0 230 249
4.431428130 19.540933378 -0.084687201 0 230 249
4.429878662 19.443888242 -0.084081047 0 230 249
4.425870347 19.346598997 -0.076657982 0 230 249
4.419797802 19.249107562 -0.063511774 0 230 249
4.414404983 19.151687093 -0.052248499 0 231 246
4.414232321 19.054783145 -0.055454190 0 231 246
4.418234068 18.958287324 -0.070230247 0 230 249
4.422108592 18.861775268 -0.084652668 0 230 249
4.422698023 18.764940325 -0.089967755 0 230 249
4.420951762 18.667878142 -0.088807151 0 230 249
4.419122437 18.570808528 -0.087415158 0 230 249
4.416535460 18.473666815 -0.083921771 0 230 249
4.411971506 18.376337278 -0.074946897 0 230 249
4.407072371 18.278978551 -0.065041663 0 230 249
4.403810659 18.181778134 -0.059674327 0 231 246
4.401308904 18.084651248 -0.056412512 0 231 246
4.397969100 17.987446663 -0.050826364 0 231 246
4.394813503 17.890261136 -0.045749694 0 231 246
4.394232037 17.793317493 -0.047807763 0 231 246
4.395184044 17.696516058 -0.054115793 0 231 246
4.394271202 17.599540523 -0.055253054 0 231 246
4.399300105 17.503112614 -0.072860930 0 230 249
4.396233486 17.405936974 -0.068025323 0 230 249
4.394695684 17.308902670 -0.067426784 0 230 249
4.393840673 17.211930934 -0.068719984 0 230 249
4.392525513 17.114917380 -0.068736427 0 230 249
4.390630336 17.017851717 -0.067143790 0 230 249
4.387979481 16.920718822 -0.063455062 0 230 249
4.383595346 16.823432072 -0.054960015 0 231 246
4.378302819 16.726066966 -0.043945417 0 231 246
4.373720900 16.628768203 -0.034899630 0 231 246
4.371788995 16.531706309 -0.033199376 0 231 246
4.373348454 16.434952248 -0.041177282 0 231 246
4.376325595 16.338320394 -0.053084486 0 231 246
4.379666366 16.241717205 -0.065998809 0 230 249
4.381498894 16.144979754 -0.074730696 0 230 249
4.379472455 16.047906593 -0.072762923 0 230 249
4.374551059 15.950585108 -0.062767970 0 230 249
4.368931391 15.853206810 -0.050835885 0 231 246
4.363734485 15.755868106 -0.040074655 0 231 246
4.360100420 15.658665307 -0.033645117 0 231 246
4.358895389 15.561669826 -0.033948837 0 231 246
4.358572821 15.464748751 -0.036698061 0 231 246
4.357286785 15.367746466 -0.036774977 0 231 246
4.355893295 15.270735444 -0.036552859 0 231 246
4.356831397 15.173918216 -0.042794031 0 231 246
4.360895254 15.077357706 -0.057700441 0 231 246
4.364872625 14.980786209 -0.072366095 0 230 249
4.365066366 14.883901256 -0.076540385 0 230 249
4.361822622 14.786735388 -0.071182881 0 230 249
4.356315791 14.689387767 -0.059549572 0 231 246
4.350070318 14.591983999 -0.045867062 0 231 246
4.345414739 14.494711928 -0.036591479 0 231 246
4.343934698 14.397696459 -0.036119314 0 231 246
4.345145329 14.300895375 -0.043106326 0 231 246
4.347764570 14.204204102 -0.053997898 0 231 246
4.350174903 14.107493602 -0.064309226 0 230 249
4.350828933 14.010642811 -0.069749842 0 230 249
4.349271737 13.913618259 -0.069058309 0 230 249
4.346402176 13.816492262 -0.064726827 0 230 249
4.343486467 13.719364133 -0.060266229 0 231 246
4.341597846 13.622316414 -0.058652327 0 231 246
4.342231139 13.525462244 -0.064029961 0 230 249
4.345081040 13.428775493 -0.075552687 0 230 249
4.346957748 13.332012114 -0.084375951 0 230 249
4.345967692 13.235030584 -0.085249208 0 230 249
4.341901004 13.137818469 -0.077590414 0 230 249
4.335560709 13.040439179 -0.063626098 0 230 249
4.331728806 12.943250049 -0.056615909 0 231 246
4.333442560 12.846472336 -0.064981857 0 230 249
4.338302955 12.749923548 -0.082072001 0 230 249
4.343112218 12.653366537 -0.099019411 0 230 249
4.344457202 12.556553408 -0.106359775 0 230 249
4.340415270 12.459349202 -0.098761638 0 230 249
4.332990423 12.361904159 -0.081781736 0 230 249
4.327505684 12.264602752 -0.070180351 0 230 249
4.326182604 12.167600735 -0.070117823 0 230 249
4.324892089 12.070601269 -0.070144478 0 230 249
4.320209935 11.973363427 -0.060765062 0 231 246
4.313720874 11.876001984 -0.046373893 0 231 246
4.308616099 11.778741067 -0.035820098 0 231 246
4.307653470 11.681769930 -0.036751346 0 231 246
4.313005890 11.585233345 -0.055193343 0 231 246
4.318509449 11.488702235 -0.074053520 0 230 249
4.321550008 11.391998533 -0.086082705 0 230 249
4.323439752 11.295213863 -0.094919595 0 230 249
4.324646276 11.198381008 -0.101860823 0 230 249
4.324179061 11.101434485 -0.104159547 0 230 249
4.320050354 11.004243996 -0.096303424 0 230 249
4.314113209 10.906936302 -0.083431071 0 230 249
4.309649559 10.809729274 -0.074643691 0 230 249
4.308002736 10.712709032 -0.073666612 0 230 249
4.309875528 10.615918012 -0.082448903 0 230 249
4.315703610 10.519380313 -0.102198917 0 230 249
4.318794071 10.422661571 -0.114356036 0 230 249
4.313967187 10.325434273 -0.104555673 0 230 249
4.301257320 10.227709700 -0.072892792 0 230 249
4.298335288 10.130611423 -0.068372502 0 230 249
4.293678603 10.033405876 -0.059040418 0 231 246
4.293080664 9.936456007 -0.060963109 0 231 246
4.294650180 9.839640041 -0.068895666 0 230 249
4.296659213 9.742849152 -0.078046092 0 230 249
4.297046497 9.645956776 -0.082697876 0 230 249
4.296496417 9.549006369 -0.084748978 0 230 249
4.296074826 9.452063375 -0.087155323 0 230 249
4.295358801 9.355102267 -0.088744005 0 230 249
4.294135298 9.258110682 -0.088924161 0 230 249
4.294425978 9.161208966 -0.093302603 0 230 249
4.298090831 9.064504852 -0.107037866 0 230 249
4.298155936 8.967586670 -0.110788591 0 230 249
4.282491469 8.869753927 -0.070913563 0 230 249
4.268213334 8.772012420 -0.034881920 0 231 246
4.340842005 8.679262972 -0.239880028 0 229 255
4.236359069 5.862819978 -0.053046912 0 231 246
4.226581843 4.699277161 -0.068255892 0 230 249
4.174590741 1.207890135 -0.050058266 0 231 246
4.088353417 -5.870552909 -0.061944446 0 230 249
4.057093038 -11.203901798 -0.160563180 0 230 252
4.052107668 -11.300785851 -0.150062806 0 230 252
4.037430204 -11.397453220 -0.112653525 0 230 249
4.025120433 -11.494163210 -0.081816106 0 230 249
4.024498638 -11.591131148 -0.083426345 0 230 249
4.023681255 -11.688094858 -0.084492475 0 230 249
4.021260503 -11.785020923 -0.081106056 0 230 249
4.018946813 -11.881948480 -0.078015726 0 230 249
4.020338953 -11.978965268 -0.085212867 0 230 249
4.024932103 -12.076063070 -0.101296069 0 230 249
4.026558331 -12.173090675 -0.109141071 0 230 249
4.023059230 -12.269989634 -0.102755207 0 230 249
4.018834414 -12.366867912 -0.094353302 0 230 249
4.018105321 -12.463835546 -0.095655721 0 230 249
4.020032352 -12.560874189 -0.104331535 0 230 249
4.021741129 -12.657909197 -0.112400349 0 230 249
4.022547138 -12.754921553 -0.117961645 0 230 249
4.021835472 -12.851893124 -0.119308125 0 230 249
4.018169427 -12.948781671 -0.112450765 0 230 249
4.014109014 -13.045656926 -0.104497263 0 230 249
4.011604495 -13.142574895 -0.100862501 0 230 249
4.009797846 -13.239512200 -0.099164229 0 230 249
4.016399657 -13.336698792 -0.120811095 0 230 249
4.014717782 -13.433641881 -0.119457110 0 230 249
4.013941787 -13.530612083 -0.120617215 0 230 249
4.014217567 -13.627614945 -0.124696532 0 230 249
4.014915924 -13.724632013 -0.129948092 0 230 249
4.014892997 -13.821627584 -0.133195876 0 230 249
4.015595940 -13.918647169 -0.138458028 0 230 249
4.015668525 -14.015647655 -0.141968855 0 230 252
4.014264609 -14.112600571 -0.141378902 0 230 252
4.013482793 -14.209573834 -0.142515180 0 230 252
4.009701570 -14.306446634 -0.135322027 0 230 249
4.002909684 -14.403215137 -0.119768074 0 230 249
3.997070051 -14.500011899 -0.106856956 0 230 249
3.993677209 -14.596889889 -0.100738595 0 230 249
3.991717845 -14.693816367 -0.098599412 0 230 249
3.991209177 -14.790793593 -0.100487274 0 230 249
3.991285822 -14.887792206 -0.103999299 0 230 249
3.990318896 -14.984753843 -0.104612506 0 230 249
3.988643931 -15.081689593 -0.103258546 0 230 249
3.986913177 -15.178622780 -0.101748544 0 230 249
3.985790988 -15.275578185 -0.101927271 0 230 249
3.986494141 -15.372602476 -0.107173498 0 230 249
3.988820314 -15.469690034 -0.116925493 0 230 249
3.991334858 -15.566787428 -0.127199543 0 230 249
3.993042248 -15.663856119 -0.135231236 0 230 249
3.993363136 -15.760872400 -0.139411770 0 230 249
3.991903114 -15.857819017 -0.138645870 0 230 249
3.989230769 -15.954716710 -0.134512368 0 230 249
3.986053913 -16.051592724 -0.128976731 0 230 249
3.983469282 -16.148491281 -0.125084484 0 230 249
3.982383191 -16.245450434 -0.125352419 0 230 249
3.980441836 -16.342373947 -0.123244223 0 230 249
3.975258704 -16.439160600 -0.112132631 0 230 249
3.967807120 -16.535847913 -0.094720402 0 230 249
3.963010340 -16.632643838 -0.084679224 0 230 249
3.965711006 -16.729760410 -0.095457191 0 230 249
3.973363755 -16.827095445 -0.119986115 0 230 249
3.980362325 -16.924408413 -0.142697491 0 230 252
3.983633971 -17.021562424 -0.155058181 0 230 252
3.984298932 -17.118603246 -0.160178990 0 230 252
3.984073946 -17.215605256 -0.162827298 0 230 252
3.979661746 -17.312417546 -0.153846312 0 230 252
3.972620399 -17.409106716 -0.137562753 0 230 249
3.965233847 -17.505775312 -0.120319251 0 230 249
3.957686897 -17.602431551 -0.102629025 0 230 249
3.951046309 -17.699125377 -0.087454597 0 230 249
3.946667969 -17.795922072 -0.078561487 0 230 249
3.944976194 -17.892844506 -0.077128184 0 230 249
3.946737969 -17.989932701 -0.085284842 0 230 249
3.950446288 -18.087117502 -0.098846370 0 230 249
3.950405016 -18.184122540 -0.101993571 0 230 249
3.945856473 -18.280906146 -0.092622055 0 230 249
3.941921291 -18.377717521 -0.084952773 0 230 249
3.942247582 -18.474740012 -0.089117415 0 230 249
3.946091526 -18.571941004 -0.103050383 0 230 249
3.948506322 -18.669073092 -0.113013253 0 230 249
3.946745622 -18.765993973 -0.111378600 0 230 249
3.941308282 -18.862724577 -0.099531724 0 230 249
3.935977185 -18.959457320 -0.087978687 0 230 249
3.935166281 -19.056423474 -0.088978431 0 230 249
3.938436670 -19.153605093 -0.101312167 0 230 249
3.942243797 -19.250818536 -0.115135614 0 230 249
3.943810851 -19.347915804 -0.122736597 0 230 249
3.942825453 -19.444877481 -0.123247439 0 230 249
3.940091878 -19.541744286 -0.118901811 0 230 249
3.936820790 -19.638580397 -0.113062140 0 230 249
3.934762977 -19.735481585 -0.110591063 0 230 249
3.934344067 -19.832472846 -0.112670776 0 230 249
3.934508188 -19.929497124 -0.116368727 0 230 249
3.935670877 -20.026578448 -0.122839075 0 230 249
3.939346683 -20.123803680 -0.136288461 0 230 249
3.945879660 -20.221195318 -0.157672596 0 230 252
3.949683551 -20.318436225 -0.171475812 0 230 252
3.945242756 -20.415204761 -0.162378393 0 230 252
3.934993341 -20.511633033 -0.137146225 0 230 249
3.924592432 -20.608045361 -0.111491921 0 230 249
3.919305988 -20.704751716 -0.100041912 0 230 249
3.918546780 -20.801723180 -0.101165340 0 230 249
3.920513320 -20.898857484 -0.109858625 0 230 249
3.922673182 -20.996005699 -0.119087852 0 230 249
3.921778626 -21.092971780 -0.119832106 0 230 249
3.916659092 -21.189681017 -0.108839904 0 230 249
3.910940072 -21.286350425 -0.096181334 0 230 249
3.920643445 -21.383966019 -0.126359370 0 230 249
3.916588193 -21.480737252 -0.118319906 0 230 249
3.925155568 -21.578293221 -0.145340693 0 230 252
3.930840821 -21.675675749 -0.164355015 0 230 252
3.929604728 -21.772626554 -0.164143036 0 230 252
3.923175727 -21.869247424 -0.149505570 0 230 252
3.912050577 -21.965564116 -0.121822263 0 230 249
3.905753651 -22.062183382 -0.107549094 0 230 249
3.894353287 -22.158468628 -0.079098616 0 230 249
3.891069074 -22.255273797 -0.073191470 0 230 249
3.896104665 -22.352621566 -0.090393684 0 230 249
3.902227423 -22.450045542 -0.110614869 0 230 249
3.903848935 -22.547177061 -0.118331576 0 230 249
3.901673385 -22.644057818 -0.115499715 0 230 249
3.897991729 -22.740836845 -0.108483010 0 230 249
3.892999601 -22.837525582 -0.097824843 0 230 249
3.886750656 -22.934126154 -0.083674204 0 230 249
3.880400798 -23.030715844 -0.069241996 0 230 249
3.876456263 -23.127466212 -0.061490235 0 230 249
3.877180038 -23.224535909 -0.066705359 0 230 249
3.881146211 -23.321831546 -0.080926506 0 230 249
3.885352537 -23.419147752 -0.095813802 0 230 249
3.888637242 -23.516403438 -0.108139926 0 230 249
3.889312416 -23.613478680 -0.113215918 0 230 249
3.885547441 -23.710240857 -0.105956283 0 230 249
3.879402070 -23.806831481 -0.092082785 0 230 249
3.874947897 -23.903539219 -0.082906171 0 230 249
3.874263716 -24.000515604 -0.084201398 0 230 249
3.875861298 -24.097657319 -0.091834299 0 230 249
3.876712336 -24.194746765 -0.097392240 0 230 249
3.874223752 -24.291593505 -0.093671514 0 230 249
3.869155361 -24.388249531 -0.082782796 0 230 249
3.864693440 -24.484947261 -0.073577672 0 230 249
3.861016737 -24.581700669 -0.066552751 0 230 249
3.857185432 -24.678440506 -0.059097148 0 231 246
3.854513278 -24.775265164 -0.054860612 0 231 246
3.855775720 -24.872385286 -0.061553715 0 230 249
3.860982343 -24.969806132 -0.079203240 0 230 249
3.863714197 -25.067043242 -0.089976547 0 230 249
3.861595735 -25.163911876 -0.087273879 0 230 249
3.857696884 -25.260642675 -0.079623838 0 230 249
3.853581230 -25.357354508 -0.071370292 0 230 249
3.850378676 -25.454134938 -0.065652332 0 230 249
3.849127893 -25.551066142 -0.065355648 0 230 249
3.849098657 -25.648093056 -0.068451592 0 230 249
3.847638702 -25.745007899 -0.067571566 0 230 249
3.845453276 -25.841864919 -0.064674875 0 230 249
3.846481966 -25.938977026 -0.070706731 0 230 249
3.850138685 -26.036301025 -0.084038943 0 230 249
3.851151509 -26.133416038 -0.090024647 0 230 249
3.846165983 -26.230048004 -0.079344018 0 230 249
3.838253131 -26.326439303 -0.060529118 0 231 246
3.831499769 -26.422919886 -0.044934377 0 231 246
3.829172150 -26.519758744 -0.041634645 0 231 246
3.830644173 -26.616909431 -0.048890557 0 231 246
3.833292787 -26.714159366 -0.059414442 0 231 246
3.837441072 -26.811536752 -0.074103990 0 230 249
3.842272030 -26.908975113 -0.090689315 0 230 249
3.844108439 -27.006166840 -0.098953578 0 230 249
3.840556231 -27.102906780 -0.092244909 0 230 249
3.833370207 -27.199337237 -0.075438710 0 230 249
3.824987653 -27.295661239 -0.055306732 0 231 246
3.819283325 -27.392208326 -0.042614821 0 231 246
3.818426187 -27.489167655 -0.043389520 0 231 246
3.819056846 -27.586255328 -0.048296960 0 231 246
3.818393169 -27.683232250 -0.049607009 0 231 246
3.816414989 -27.780095173 -0.047263584 0 231 246
3.813032385 -27.876834732 -0.041016778 0 231 246
3.815826064 -27.974114204 -0.051929923 0 231 246
3.808572849 -28.070511554 -0.034926114 0 231 246
3.804181268 -28.167157316 -0.025872308 0 231 246
3.803918072 -28.264167357 -0.028288401 0 231 246
3.806417755 -28.361424570 -0.038380360 0 231 246
3.810530977 -28.458829124 -0.052954715 0 231 246
3.812870453 -28.556077973 -0.062599513 0 230 249
3.811938476 -28.653033679 -0.063153089 0 230 249
3.811573477 -28.750040937 -0.065280997 0 230 249
3.814290612 -28.847329705 -0.075972055 0 230 249
3.819921230 -28.944888096 -0.094757763 0 230 249
3.816659895 -29.041634113 -0.088834481 0 230 249
3.817782897 -29.138783188 -0.095092845 0 230 249
3.812974426 -29.235384042 -0.084868220 0 230 249
3.817071638 -29.332811027 -0.099388963 0 230 249
3.814694225 -29.429636748 -0.095917352 0 230 249
3.812566200 -29.526484845 -0.093137589 0 230 249
3.806224416 -29.622934987 -0.078647585 0 230 249
3.795281158 -29.718945626 -0.051369789 0 231 246
3.788229442 -29.815318393 -0.034904462 0 231 246
3.787350335 -29.912275378 -0.035590435 0 231 246
3.789992770 -30.009569781 -0.046061083 0 231 246
3.792628918 -30.106866407 -0.056513253 0 231 246
3.793630103 -30.204008004 -0.062421084 0 230 249
3.792906983 -30.300984024 -0.063536237 0 230 249
3.790259835 -30.397773044 -0.059303637 0 231 246
3.784495072 -30.494256228 -0.046406347 0 231 246
3.778655180 -30.590728409 -0.033299046 0 231 246
3.777672572 -30.687675201 -0.033688550 0 231 246
3.780516325 -30.785000292 -0.044710178 0 231 246
3.783076284 -30.882300204 -0.054942152 0 231 246
3.780246224 -30.979065904 -0.050194432 0 231 246
3.772777497 -31.075366319 -0.032554793 0 231 246
3.769934045 -31.172126137 -0.027767488 0 231 246
3.770506750 -31.269228838 -0.032472553 0 231 246
3.752766772 -31.752644948 0.001276717 0 231 246
3.668024573 -41.740231877 -0.077453396 0 230 249
3.627438664 -42.219850637 0.020432120 0 231 243
-3.550914007 -42.410836216 19.942472396 255 0 168
-3.545336943 -42.505999635 19.924084753 255 0 168
-3.542675412 -42.600730905 19.913805339 255 0 168
-3.540929155 -42.695327390 19.906072062 255 0 168
-3.539443848 -42.789886660 19.899065442 255 0 168
-3.539734853 -42.884179419 19.896999367 255 0 168
-3.542041897 -42.978167300 19.900540531 255 0 168
-3.545559672 -43.071970287 19.907449620 255 0 168
-3.549302737 -43.165737037 19.914986359 255 0 168
-3.551362447 -43.259758650 19.917843148 255 0 168
-3.551017505 -43.354147458 19.914014113 255 0 168
-3.550127519 -43.448620927 19.908670450 255 0 168
-3.550431036 -43.542912285 19.906646797 255 0 168
-3.551474999 -43.637090010 19.906683310 255 0 168
-3.552969924 -43.731197997 19.907974989 255 0 168
-3.556787781 -43.824945639 19.915727626 255 0 168
-3.563467570 -43.918246520 19.931440225 255 0 168
-3.567571058 -44.011944248 19.939989552 255 0 168
-3.564793331 -44.106713871 19.929403783 255 0 168
-3.558288054 -44.202069776 19.908452847 255 0 168
-3.553385346 -44.297180041 19.891959498 255 0 168
-3.553687814 -44.391476222 19.889942595 255 0 168
-3.559230616 -44.484946768 19.902500121 255 0 168
-3.566835028 -44.578088000 19.920792222 255 0 168
-3.573023693 -44.671448445 19.935148363 255 0 168
-3.576344380 -44.765260369 19.941529779 255 0 168
-3.576328808 -44.859601631 19.938634040 255 0 168
-3.574204620 -44.954280175 19.929875172 255 0 168
-3.572471579 -45.048898558 19.922205117 255 0 168
-3.572290532 -45.143270183 19.918852321 255 0 168
-3.572391810 -45.237597342 19.916285758 255 0 168
-3.571683503 -45.332055638 19.911468711 255 0 168
-3.571437653 -45.426440563 19.907938862 255 0 168
-3.572139878 -45.520672966 19.907046805 255 0 168
-3.572686792 -45.614930805 19.905723885 255 0 168
-3.573735134 -45.709107434 19.905796604 255 0 168
-3.577047719 -45.802914854 19.912167690 255 0 168
-3.581536917 -45.896528203 19.921812323 255 0 168
-3.585512099 -45.990223073 19.930028552 255 0 168
-3.588667165 -46.084050319 19.935965024 255 0 168
-3.590318626 -46.178123381 19.937720759 255 0 168
-3.590925703 -46.272368238 19.936572909 255 0 168
-3.591071670 -46.366689648 19.934143667 255 0 168
-3.591265826 -46.461003732 19.931849522 255 0 168
-3.592864836 -46.555085057 19.933463753 255 0 168
-3.595207796 -46.649042050 19.937148240 255 0 168
-3.596577711 -46.743160409 19.938127505 255 0 168
-3.597462744 -46.837359597 19.937759256 255 0 168
-3.598712004 -46.931497809 19.938405129 255 0 168
-3.593678363 -47.026691674 19.921577103 255 0 168
-3.593206866 -47.121121763 19.917439021 255 0 168
-3.590985437 -47.215848412 19.908434754 255 0 168
-3.589825381 -47.310397955 19.902383593 255 0 168
-3.590769057 -47.404592392 19.902184806 255 0 168
-3.592388234 -47.498672057 19.903865965 255 0 168
-3.591813090 -47.593125073 19.899444858 255 0 168
-3.596782522 -47.686632596 19.910446773 255 0 168
-3.596762814 -47.780990857 19.907572760 255 0 168
-3.599030498 -47.874957584 19.911062142 255 0 168
-3.594054891 -47.970168461 19.894405491 255 0 168
-3.597014934 -48.064016748 19.899822820 255 0 168
-3.598406312 -48.158134389 19.900878020 255 0 168
-3.597411850 -48.252664614 19.895298029 255 0 168
-3.595719827 -48.347317363 19.887778776 255 0 168
-3.597610228 -48.441349472 19.890225259 255 0 168
-3.604238859 -48.534555449 19.905852587 255 0 168
-3.612274877 -48.627511372 19.925395916 255 0 168
-3.617693628 -48.720919849 19.937660339 255 0 168
-3.618633919 -48.815110292 19.937468624 255 0 168
-3.616778835 -48.909792073 19.929502313 255 0 168
-3.614396841 -49.004568863 19.920071337 255 0 168
-3.611597975 -49.099421846 19.909481766 255 0 168
-3.608232091 -49.194378066 19.897315929 255 0 168
-3.606109728 -49.289117186 19.888610138 255 0 168
-3.609141032 -49.382943030 19.894241267 255 0 168
-3.616642081 -49.475971426 19.912307050 255 0 168
-3.623631806 -49.569086061 19.928951736 255 0 168
-3.627598332 -49.662736727 19.937187940 255 0 168
-3.627537769 -49.757106830 19.934222972 255 0 168
-3.624578128 -49.851998429 19.923194525 255 0 168
-3.622073031 -49.946811269 19.913431499 255 0 168
-3.622675977 -50.041066208 19.912315376 255 0 168
-3.626163899 -50.134799977 19.919225750 255 0 168
-3.629849289 -50.228496062 19.926686599 255 0 168
-3.631355174 -50.322585719 19.928085601 255 0 168
-3.631410906 -50.416938788 19.925451613 255 0 168
-3.631880924 -50.511217063 19.923971166 255 0 168
-3.633890536 -50.605214491 19.926774738 255 0 168
-3.635214360 -50.699336690 19.927671640 255 0 168
-3.632315792 -50.794233248 19.916823399 255 0 168
-3.625527602 -50.889847869 19.895155577 255 0 168
-3.617689676 -50.985661877 19.870568355 255 0 168
-3.620401822 -51.079535068 19.875331568 255 0 168
-3.642065565 -51.169901028 19.932818229 255 0 168
3.569246082 -52.892743818 -0.140070693 0 230 249
3.562296595 -52.988591441 -0.123608205 0 230 249
3.544774028 -53.082453488 -0.077730133 0 230 249
3.530133975 -53.176844027 -0.039869732 0 231 246
3.526614984 -53.273316348 -0.032947001 0 231 246
3.528660990 -53.370835871 -0.041505172 0 231 246
3.532997934 -53.468790542 -0.056435854 0 231 246
3.537753680 -53.566828630 -0.072530721 0 230 249
3.537683652 -53.663955848 -0.075198952 0 230 249
3.531742334 -53.759967904 -0.061531632 0 230 249
3.526381852 -53.856086800 -0.049479040 0 231 246
3.520863268 -53.952172195 -0.036985384 0 231 246
3.520077190 -54.049159073 -0.037656991 0 231 246
3.515309974 -54.145383348 -0.027251398 0 231 246
3.514477313 -54.242360135 -0.027791184 0 231 246
3.514946686 -54.339587557 -0.031952374 0 231 246
3.518132708 -54.437339796 -0.043670742 0 231 246
3.523038625 -54.535427477 -0.060173227 0 231 246
3.521258013 -54.632225700 -0.058071423 0 231 246
3.515780487 -54.728306464 -0.045682853 0 231 246
3.513151464 -54.824937270 -0.041218299 0 231 246
3.513717010 -54.922188783 -0.045640714 0 231 246
3.513400902 -55.019269546 -0.047609089 0 231 246
3.510773535 -55.115899116 -0.043145820 0 231 246
3.508819076 -55.212659243 -0.040553650 0 231 246
3.509777499 -55.309990246 -0.046064898 0 231 246
3.512384347 -55.407646887 -0.056161560 0 231 246
3.514557973 -55.505220992 -0.065051859 0 230 249
3.515270272 -55.602509130 -0.069875236 0 230 249
3.514832822 -55.699571233 -0.071498556 0 230 249
3.512478167 -55.796253897 -0.067786424 0 230 249
3.506847722 -55.892285173 -0.054958656 0 231 246
3.499947432 -55.988060306 -0.038596461 0 231 246
3.495169492 -56.084253924 -0.028138278 0 231 246
3.493054724 -56.180976478 -0.025088987 0 231 246
3.491556668 -56.277821593 -0.023754546 0 231 246
3.491070370 -56.374869173 -0.025234172 0 231 246
3.493555311 -56.472513952 -0.034980096 0 231 246
3.497779404 -56.570511425 -0.049564179 0 231 246
3.500483024 -56.668206392 -0.059916609 0 231 246
3.500068522 -56.765274358 -0.061591862 0 230 249
3.497474410 -56.861901667 -0.057201236 0 231 246
3.493471414 -56.958242083 -0.048889220 0 231 246
3.488901794 -57.054465094 -0.038999378 0 231 246
3.488065819 -57.151445360 -0.039497445 0 231 246
3.492598182 -57.249520565 -0.054932211 0 231 246
3.496237246 -57.347417544 -0.067880361 0 230 249
3.495159389 -57.444352548 -0.067702250 0 230 249
3.489776567 -57.540404613 -0.055544010 0 231 246
3.482634656 -57.636091875 -0.038489685 0 231 246
3.475533733 -57.731782868 -0.021548167 0 231 246
3.469206385 -57.827628731 -0.006757990 0 231 246
3.468157487 -57.924561211 -0.006654740 0 231 246
3.471857082 -58.022476700 -0.019763927 0 231 246
3.476230339 -58.120535559 -0.034746749 0 231 246
3.480425775 -58.218561637 -0.049233803 0 231 246
3.485730562 -58.316822684 -0.066806917 0 230 249
3.491422530 -58.415169369 -0.085456535 0 230 249
3.493047177 -58.512671393 -0.092786935 0 230 249
3.488504928 -58.608884548 -0.082955351 0 230 249
3.481167868 -58.704508881 -0.065345271 0 230 249
3.475132003 -58.800401738 -0.051354885 0 231 246
3.472477846 -58.897002543 -0.046773885 0 231 246
3.471236866 -58.993900098 -0.046124361 0 231 246
3.469833642 -59.090763218 -0.045022248 0 231 246
3.467529093 -59.187435294 -0.041410800 0 231 246
3.463895122 -59.283824513 -0.034098656 0 231 246
3.459652024 -59.380082340 -0.025090242 0 231 246
3.459337886 -59.477173773 -0.027014462 0 231 246
3.463380310 -59.575194515 -0.041061445 0 231 246
3.464774874 -59.672653665 -0.047738741 0 231 246
3.464675954 -59.769795146 -0.050258780 0 231 246
3.464720070 -59.866968005 -0.053175819 0 231 246
3.463978329 -59.963972950 -0.053904805 0 231 246
3.460643527 -60.060420317 -0.047416348 0 231 246
3.456893785 -60.156776491 -0.039771980 0 231 246
3.456950172 -60.253952251 -0.042718840 0 231 246
3.460316208 -60.351844626 -0.054875381 0 231 246
3.462600952 -60.449506126 -0.064021709 0 230 249
3.461541548 -60.546444367 -0.063860208 0 230 249
3.458012798 -60.642845686 -0.056825353 0 231 246
3.455601550 -60.739488484 -0.052899408 0 231 246
3.455224573 -60.836574091 -0.054633840 0 231 246
3.454230687 -60.933525357 -0.054650305 0 231 246
3.452255307 -61.030261736 -0.051934105 0 231 246
3.449809022 -61.126894092 -0.047906222 0 231 246
3.446597360 -61.223357173 -0.041747086 0 231 246
3.444018576 -61.319957884 -0.037348193 0 231 246
3.440453382 -61.416339888 -0.030202859 0 231 246
3.433540417 -61.511980428 -0.013739019 0 231 246
3.435312721 -61.609538323 -0.021446480 0 231 246
3.429934751 -61.705513397 -0.009252446 0 231 246
3.427958291 -61.802240434 -0.006524269 0 231 246
3.430088904 -61.899880313 -0.015225809 0 231 246
3.429562041 -61.996930479 -0.016530016 0 231 246
3.439797224 -62.096383229 -0.047786420 0 231 246
3.445939111 -62.194929425 -0.067649392 0 230 249
3.443796870 -62.291625663 -0.064454612 0 230 249
3.438161214 -62.387537236 -0.051535598 0 231 246
3.433759530 -62.483722596 -0.042049879 0 231 246
3.431325391 -62.580348323 -0.038039250 0 231 246
3.429252378 -62.677054410 -0.035032629 0 231 246
3.426515867 -62.773609802 -0.030178169 0 231 246
3.431209473 -62.871845275 -0.046003101 0 231 246
3.425095363 -62.967635262 -0.031745448 0 231 246
3.419917394 -63.063633893 -0.020092200 0 231 246
3.416845978 -63.160108463 -0.014301091 0 231 246
3.416524485 -63.257207993 -0.016162957 0 231 246
3.417567385 -63.354619455 -0.021821413 0 231 246
3.418556392 -63.452020194 -0.027328836 0 231 246
3.422072250 -63.550001125 -0.039868543 0 231 246
3.429523342 -63.648888226 -0.063360786 0 230 249
3.429382408 -63.746037478 -0.065720104 0 230 249
3.434917519 -63.844493767 -0.083877461 0 230 249
3.434664342 -63.941620701 -0.085922316 0 230 249
3.426765613 -64.036982697 -0.066684760 0 230 249
3.421764852 -64.133009718 -0.055512460 0 231 246
3.412456958 -64.228035736 -0.032349979 0 231 246
3.410205551 -64.324693037 -0.028828175 0 231 246
3.413820883 -64.422713211 -0.041635605 0 231 246
3.417907733 -64.520846760 -0.055754576 0 231 246
3.419544962 -64.618412910 -0.063053899 0 230 249
3.418747966 -64.715412425 -0.063576341 0 230 249
3.413603980 -64.811394883 -0.051997427 0 231 246
3.407359586 -64.907116234 -0.037354215 0 231 246
3.405019157 -65.003750135 -0.033576966 0 231 246
3.407437545 -65.101502134 -0.043045438 0 231 246
3.410392748 -65.199383237 -0.054007225 0 231 246
3.408805244 -65.296195618 -0.052322660 0 231 246
3.402721710 -65.391945048 -0.038121500 0 231 246
3.396446760 -65.487645267 -0.023386285 0 231 246
3.392233500 -65.583830252 -0.014388992 0 231 246
3.390506817 -65.680603291 -0.012312465 0 231 246
3.391540563 -65.778032402 -0.017919136 0 231 246
3.394095587 -65.875825549 -0.027759633 0 231 246
3.395275095 -65.973293207 -0.033770042 0 231 246
3.394510137 -66.070297794 -0.034366483 0 231 246
3.393451785 -66.167232340 -0.034145108 0 231 246
3.393178071 -66.264355012 -0.036106929 0 231 246
3.393908121 -66.361719348 -0.040861982 0 231 246
3.396159006 -66.459450901 -0.049849738 0 231 246
3.399830020 -66.557527165 -0.062789911 0 230 249
3.401845942 -66.655207614 -0.071121602 0 230 249
3.400187821 -66.752002303 -0.069224264 0 230 249
3.395953041 -66.848172669 -0.060152734 0 231 246
3.393289839 -66.944721657 -0.055455144 0 231 246
3.396397481 -67.042671013 -0.066821896 0 230 249
3.401055542 -67.141000723 -0.082503916 0 230 249
3.400083298 -67.237962974 -0.082510645 0 230 249
3.393933102 -67.333661642 -0.068101182 0 230 249
3.386378845 -67.429013165 -0.049781666 0 231 246
3.380749462 -67.524830879 -0.036819688 0 231 246
3.377623134 -67.621258779 -0.030824973 0 231 246
3.375512109 -67.717934395 -0.027655722 0 231 246
3.373719711 -67.814687544 -0.025372430 0 231 246
3.371896983 -67.911432626 -0.023003600 0 231 246
3.369843708 -68.008120205 -0.019991824 0 231 246
3.368356536 -68.104946887 -0.018555004 0 231 246
3.369252843 -68.202363148 -0.023752843 0 231 246
3.373032764 -68.300495730 -0.036977849 0 231 246
3.377303445 -68.398753866 -0.051568225 0 231 246
3.379247380 -68.496437495 -0.059679773 0 231 246
3.378628773 -68.593485198 -0.060655918 0 231 246
3.377587771 -68.690427849 -0.060454999 0 231 246
3.376410492 -68.787336439 -0.059873593 0 231 246
3.371870152 -68.883403426 -0.049927833 0 231 246
3.363015758 -68.978386600 -0.027969872 0 231 246
3.353518719 -69.073202434 -0.004221391 0 231 246
3.346942974 -69.168746054 0.011394945 0 231 246
3.345825600 -69.265659565 0.011815283 0 231 246
3.351221213 -69.364215199 -0.005896875 0 231 246
3.356129362 -69.462652688 -0.022250918 0 231 246
3.359412152 -69.560683675 -0.034078643 0 231 246
3.362803632 -69.658745514 -0.046208030 0 231 246
3.366002433 -69.756761878 -0.057799991 0 231 246
3.367903776 -69.854451850 -0.065778496 0 230 249
3.367382201 -69.951527544 -0.067009884 0 230 249
3.363277973 -70.047690605 -0.058265000 0 231 246
3.355046557 -70.142797902 -0.038027539 0 231 246
3.345309239 -70.237514699 -0.013595881 0 231 246
3.341304080 -70.333692209 -0.005123248 0 231 246
3.344579663 -70.431734105 -0.016921686 0 231 246
3.346440886 -70.529416145 -0.024781054 0 231 246
3.343097939 -70.625762105 -0.018148996 0 231 246
3.335271661 -70.720951608 0.000967585 0 231 246
3.326534565 -70.815900926 0.022621512 0 231 243
3.330462231 -70.914115814 0.009012606 0 231 246
3.332089511 -71.011739401 0.001809929 0 231 246
3.344647260 -71.112196999 -0.035827126 0 231 246
3.374630079 -71.217186463 -0.121982985 0 230 249
3.381361042 -71.316157591 -0.143394269 0 230 252
3.204811682 -81.184330646 0.081655461 0 231 243
3.213416610 -82.353833324 0.027032794 0 231 243
3.207575630 -82.643800667 0.035666289 0 231 243
3.184878731 -84.290064432 0.055790914 0 231 243
3.155911980 -90.311471127 -0.018183724 0 231 246
3.094853950 -91.263664949 0.127414428 0 232 240
3.110162555 -91.366140135 0.082295038 0 231 243
3.129353805 -91.469948931 0.026354614 0 231 243
3.139463971 -91.570680086 -0.004274488 0 231 246
3.143691909 -91.669413901 -0.018507809 0 231 246
3.135331142 -91.763853972 0.002347339 0 231 246
3.142227933 -91.863503118 -0.019322731 0 231 246
3.137354641 -91.959130953 -0.008185782 0 231 246
3.133159427 -92.054988041 0.001062332 0 231 246
3.134034450 -92.152581439 -0.003820584 0 231 246
3.138105831 -92.251273668 -0.017611682 0 231 246
3.142175392 -92.349969164 -0.031396792 0 231 246
3.144329295 -92.448009359 -0.039841445 0 231 246
3.138431740 -92.543278290 -0.025843076 0 231 246
3.145613099 -92.643054054 -0.048298938 0 231 246
3.142427679 -92.739256808 -0.041858080 0 231 246
3.136408790 -92.834478438 -0.027518202 0 231 246
3.128870977 -92.929170540 -0.008943330 0 231 246
3.123854615 -93.024731049 0.002604478 0 231 246
3.123164497 -93.121788819 0.002094432 0 231 246
3.123599048 -93.219237280 -0.001549503 0 231 246
3.122484339 -93.316148310 -0.000873975 0 231 246
3.119776868 -93.412504974 0.004242335 0 231 246
3.117088321 -93.508866873 0.009306981 0 231 246
3.115627034 -93.605655435 0.010951761 0 231 246
3.114949482 -93.702717232 0.010412947 0 231 246
3.114526412 -93.799868190 0.009165799 0 231 246
3.116426261 -93.897832368 0.001444521 0 231 246
3.121847286 -93.997032211 -0.016091149 0 231 246
3.127815214 -94.096428775 -0.035150451 0 231 246
3.132132191 -94.195251093 -0.049606789 0 231 246
3.126678406 -94.290643475 -0.036825626 0 231 246
3.113584486 -94.383344229 -0.002745865 0 231 246
3.104535514 -94.477460345 0.020059606 0 231 243
3.102290500 -94.573969394 0.023899611 0 231 243
3.102653589 -94.671398115 0.020470310 0 231 243
3.102266327 -94.768562682 0.019133711 0 231 243
3.102464751 -94.865934886 0.016165457 0 231 246
3.104182617 -94.963846113 0.008962538 0 231 246
3.104592392 -95.061295614 0.005407107 0 231 246
3.102293497 -95.157784747 0.009403578 0 231 246
3.098875473 -95.253875176 0.016520907 0 231 246
3.095705914 -95.350052074 0.022946690 0 231 243
3.093513906 -95.446575358 0.026648436 0 231 243
3.091911135 -95.543307733 0.028708619 0 231 243
3.090437532 -95.640085694 0.030409772 0 231 243
3.089096519 -95.736910616 0.031742345 0 231 243
3.087978447 -95.833814965 0.032454459 0 231 243
3.087512963 -95.930952828 0.031348344 0 231 243
3.088119622 -96.028475343 0.027254341 0 231 243
3.089833973 -96.126396509 0.020073302 0 231 243
3.091780505 -96.224403130 0.012245958 0 231 246
3.091953618 -96.321774292 0.009363567 0 231 246
3.090205326 -96.418454664 0.011838765 0 231 246
3.089598116 -96.515545611 0.011133844 0 231 246
3.091802079 -96.613650935 0.002592766 0 231 246
3.095980279 -96.712471657 -0.011451299 0 231 246
3.099732528 -96.811142350 -0.024306952 0 231 246
3.101288040 -96.909021660 -0.031037387 0 231 246
3.100650407 -97.006108335 -0.031652532 0 231 246
3.097157971 -97.102159859 -0.024307646 0 231 246
3.091068746 -97.197266592 -0.009721950 0 231 246
3.084552115 -97.292213993 0.006056509 0 231 246
3.081089297 -97.388268183 0.013322194 0 231 246
3.081639989 -97.485782258 0.009399372 0 231 246
3.084362013 -97.584089190 -0.000576126 0 231 246
3.087560923 -97.682573018 -0.011880248 0 231 246
3.091405121 -97.781295831 -0.024982517 0 231 246
3.096168652 -97.880358616 -0.040647013 0 231 246
3.098677054 -97.978600062 -0.050023204 0 231 246
3.095889440 -98.074902903 -0.044632825 0 231 246
3.088497576 -98.169514825 -0.026404365 0 231 246
3.079486522 -98.263526974 -0.003660258 0 231 246
3.072280871 -98.358196742 0.014051440 0 231 246
3.069655433 -98.454547634 0.018994178 0 231 243
3.072043302 -98.552744561 0.009960250 0 231 246
3.075631629 -98.651386878 -0.002419773 0 231 246
3.076881234 -98.749169091 -0.008278164 0 231 246
3.077637151 -98.846770500 -0.012759095 0 231 246
3.080416052 -98.945121795 -0.022879478 0 231 246
3.082145786 -99.043087324 -0.030073642 0 231 246
3.079847010 -99.139561094 -0.026034536 0 231 246
3.074729163 -99.234987367 -0.014134177 0 231 246
3.069294676 -99.330292738 -0.001349815 0 231 246
3.065630969 -99.426253301 0.006498331 0 231 246
3.063137209 -99.522647387 0.011085468 0 231 246
3.060763895 -99.619085156 0.015337839 0 231 246
3.061366857 -99.716632356 0.011292587 0 231 246
3.067210614 -99.816138291 -0.007364558 0 231 246
3.073368218 -99.915766819 -0.026895944 0 231 246
3.075958325 -100.014065532 -0.036479156 0 231 246
3.076063567 -100.111435928 -0.039132799 0 231 246
3.076087906 -100.208776778 -0.041559852 0 231 246
3.077414008 -100.306607119 -0.047615680 0 231 246
3.079542586 -100.404740810 -0.055908136 0 231 246
3.080675843 -100.502502391 -0.061424302 0 230 249
3.079960068 -100.599569183 -0.061783657 0 230 249
3.077428471 -100.695951556 -0.057078731 0 231 246
3.074716283 -100.792264529 -0.051869170 0 231 246
3.075173636 -100.889773509 -0.055496595 0 231 246
3.077195748 -100.987875299 -0.063486273 0 230 249
3.075363244 -101.084520179 -0.060726551 0 231 246
3.068488105 -101.179253480 -0.043904523 0 231 246
3.059514743 -101.273186249 -0.021230444 0 231 246
3.053051099 -101.368065763 -0.005553477 0 231 246
3.051889489 -101.464956313 -0.004660128 0 231 246
3.055420012 -101.563631993 -0.016849875 0 231 246
3.062037001 -101.663486691 -0.037645435 0 231 246
3.067754466 -101.763004266 -0.055931790 0 231 246
3.068607041 -101.860670274 -0.060651233 0 231 246
3.065799273 -101.956939248 -0.055162550 0 231 246
3.061207479 -102.052524494 -0.044697871 0 231 246
3.056777989 -102.148169024 -0.034684673 0 231 246
3.054023155 -102.244452566 -0.029340328 0 231 246
3.052343613 -102.341147154 -0.026993497 0 231 246
3.049361631 -102.437341040 -0.021013585 0 231 246
3.050416838 -102.535085079 -0.026290912 0 231 246
3.048102006 -102.631534011 -0.022169348 0 231 246
3.051151134 -102.730047732 -0.033005087 0 231 246
3.045157640 -102.825078343 -0.018622812 0 231 246
3.043661079 -102.921840449 -0.016780000 0 231 246
3.048587894 -103.021083464 -0.032849126 0 231 246
3.048350372 -103.118334007 -0.034515434 0 231 246
3.044446714 -103.214165995 -0.025956823 0 231 246
3.050277168 -103.313767282 -0.044543170 0 231 246
3.048044082 -103.410246334 -0.040641318 0 231 246
3.042452939 -103.505420632 -0.027373520 0 231 246
3.031232976 -103.598403797 0.001593044 0 231 246
3.024294766 -103.693044631 0.018619916 0 231 243
3.021135444 -103.789152294 0.025109328 0 231 243
3.019425495 -103.885823159 0.027557763 0 231 243
3.020433955 -103.983554058 0.022426021 0 231 243
3.025945929 -104.083045344 0.004735592 0 231 246
3.031530960 -104.182570164 -0.013157723 0 231 246
3.036654901 -104.281919571 -0.029764255 0 231 246
3.040775887 -104.380880765 -0.043572777 0 231 246
3.042346333 -104.478845753 -0.050267181 0 231 246
3.042196528 -104.576137459 -0.052162977 0 231 246
3.042161780 -104.673474952 -0.054378657 0 231 246
3.040680924 -104.770244399 -0.052560216 0 231 246
3.033403025 -104.864731320 -0.034573017 0 231 246
3.024683388 -104.958645184 -0.012563660 0 231 246
3.020088665 -105.054180007 -0.002057407 0 231 246
3.019503021 -105.151294850 -0.002731355 0 231 246
3.022315108 -105.249752760 -0.012880601 0 231 246
3.027291278 -105.349069654 -0.029064597 0 231 246
3.031641199 -105.448143115 -0.043501092 0 231 246
3.034521550 -105.546638142 -0.053837993 0 231 246
3.036977287 -105.644967626 -0.062989693 0 230 249
3.038833679 -105.743061679 -0.070468840 0 230 249
3.039208753 -105.840568986 -0.073815510 0 230 249
3.036780188 -105.936961641 -0.069341560 0 230 249
3.030883179 -106.031971587 -0.055192666 0 231 246
3.024707412 -106.126866516 -0.040265130 0 231 246
3.022083869 -106.223174997 -0.035244085 0 231 246
3.021972241 -106.320485582 -0.037228092 0 231 246
3.022597826 -106.418091555 -0.041267304 0 231 246
3.025549495 -106.516629717 -0.051793395 0 231 246
3.029951451 -106.615751897 -0.066363691 0 230 249
3.030623659 -106.713382460 -0.070530079 0 230 249
3.026345441 -106.809027076 -0.060887682 0 231 246
3.019840412 -106.903774336 -0.045033093 0 231 246
3.014575290 -106.999015919 -0.032635741 0 231 246
3.011975407 -107.095327066 -0.027671287 0 231 246
3.012447394 -107.192874732 -0.031274037 0 231 246
3.015028605 -107.291274205 -0.040759016 0 231 246
3.017605906 -107.389674789 -0.050232158 0 231 246
3.019333143 -107.487734526 -0.057333284 0 231 246
3.020666228 -107.585636851 -0.063334043 0 230 249
3.020935657 -107.683110221 -0.066366951 0 230 249
3.019883088 -107.780048699 -0.065711366 0 230 249
3.020415299 -107.877629951 -0.069475273 0 230 249
3.022884871 -107.975998990 -0.078642213 0 230 249
3.023238450 -108.073510583 -0.081905909 0 230 249
3.019868393 -108.169508223 -0.074781932 0 230 249
3.015282004 -108.265008614 -0.064264030 0 230 249
3.011430265 -108.360805587 -0.055794263 0 231 246
3.009199646 -108.457261674 -0.051845406 0 231 246
3.007786743 -108.554050659 -0.050176475 0 231 246
3.006971567 -108.651083568 -0.050173848 0 231 246
3.008006398 -108.748873480 -0.055330745 0 231 246
3.011711320 -108.847758411 -0.067934849 0 230 249
3.016141514 -108.946944213 -0.082561199 0 230 249
3.016777090 -109.044577101 -0.086601544 0 230 249
3.010540574 -109.139388707 -0.071471067 0 230 249
3.001144399 -109.232897222 -0.047525461 0 231 246
2.997462135 -109.328750338 -0.039517845 0 231 246
3.000260263 -109.427270394 -0.049586585 0 231 246
3.004280136 -109.526296978 -0.063062549 0 230 249
3.004208162 -109.623638852 -0.065123064 0 230 249
2.997454257 -109.718221455 -0.048542688 0 231 246
2.990128821 -109.812563213 -0.030366796 0 231 246
2.986808314 -109.908557264 -0.023361971 0 231 246
2.987773874 -110.006324711 -0.028312636 0 231 246
2.989002352 -110.104202585 -0.033995782 0 231 246
2.986273753 -110.200439994 -0.028639066 0 231 246
2.981709874 -110.295913653 -0.018161452 0 231 246
2.978350333 -110.391885154 -0.011042457 0 231 246
2.978384316 -110.489266903 -0.013389298 0 231 246
2.981714768 -110.588022422 -0.024931353 0 231 246
2.987002496 -110.687597213 -0.041932763 0 231 246
2.993890482 -110.787844569 -0.063397616 0 230 249
3.000436558 -110.887955127 -0.083907809 0 230 249
3.003858280 -110.986765208 -0.095700969 0 230 249
3.002166249 -111.083438685 -0.093227004 0 230 249
2.998968844 -111.179480990 -0.086552329 0 230 249
3.000668880 -111.277574695 -0.093539472 0 230 249
2.915181912 -131.309087290 -0.296305521 0 229 255
2.915235925 -131.406590487 -0.298498271 0 229 255
2.905439606 -131.499169442 -0.273183836 0 229 255
2.892121736 -131.589979315 -0.238034520 0 229 255
2.882770377 -131.682765601 -0.213960164 0 230 252
2.875353548 -131.776514629 -0.195286707 0 230 252
2.871946453 -131.872269412 -0.187809161 0 230 252
2.876239877 -131.971887061 -0.201834117 0 230 252
2.883187834 -132.072841963 -0.223270988 0 229 255
2.888060285 -132.172759487 -0.238911216 0 229 255
2.889913096 -132.271162243 -0.246118216 0 229 255
2.889328928 -132.368340059 -0.246518974 0 229 255
2.885661078 -132.463964251 -0.238307456 0 229 255
2.879689062 -132.558424286 -0.223660382 0 229 255
2.875040903 -132.653548286 -0.212709167 0 230 252
2.875068969 -132.751030796 -0.214815611 0 230 252
2.876647379 -132.849297428 -0.221250579 0 229 255
2.878142313 -132.947523609 -0.227451517 0 229 255
2.879582537 -133.045723804 -0.233498757 0 229 255
2.880014265 -133.143414787 -0.236728724 0 229 255
2.878905673 -133.240325768 -0.235656189 0 229 255
2.878004953 -133.337341893 -0.235163189 0 229 255
2.876939204 -133.434274070 -0.234208346 0 229 255
2.873353591 -133.529925551 -0.226215355 0 229 255
2.867751166 -133.624549207 -0.212588989 0 230 252
2.862121614 -133.719155245 -0.198885778 0 230 252
2.866790993 -133.819002608 -0.213943459 0 230 252
2.866557646 -133.916355315 -0.215308324 0 230 252
2.871020137 -134.016103580 -0.229786488 0 229 255
2.866659712 -134.111352126 -0.219623591 0 229 255
2.866493541 -134.208740438 -0.221173200 0 229 255
2.863765873 -134.304819631 -0.215568166 0 230 252
2.869402308 -134.405176509 -0.233321294 0 229 255
2.867738645 -134.501800565 -0.230685884 0 229 255
2.867478968 -134.599143265 -0.231970555 0 229 255
2.868645586 -134.697217685 -0.237237663 0 229 255
2.865237740 -134.792946030 -0.229728110 0 229 255
2.872084998 -134.893938937 -0.250858507 0 229 255
2.878643980 -134.994789536 -0.271183006 0 229 255
2.878780043 -135.092342174 -0.273568302 0 229 255
2.872296366 -135.186488051 -0.257464456 0 229 255
2.866043525 -135.280748326 -0.242004201 0 229 255
2.865398227 -135.377895013 -0.242204228 0 229 255
2.869467939 -135.477474192 -0.255571965 0 229 255
2.873678046 -135.577129546 -0.269330966 0 229 255
2.875243335 -135.675422184 -0.275702278 0 229 255
2.874123837 -135.772328356 -0.274574171 0 229 255
2.869349365 -135.867342905 -0.263236837 0 229 255
2.868251281 -135.964258053 -0.262166543 0 229 255
2.863338030 -136.059195735 -0.250439514 0 229 255
2.860492783 -136.155202627 -0.244487376 0 229 255
2.858214655 -136.251502167 -0.240118198 0 229 255
2.856091242 -136.347880817 -0.236180143 0 229 255
2.854663870 -136.444620126 -0.234185164 0 229 255
2.854459527 -136.541995034 -0.235605202 0 229 255
2.854169698 -136.639325801 -0.236785519 0 229 255
2.853239673 -136.736323349 -0.236176761 0 229 255
2.853214066 -136.833792202 -0.238093165 0 229 255
2.854136528 -136.931756185 -0.242656683 0 229 255
2.856829521 -137.030645826 -0.252164592 0 229 255
2.861133587 -137.130379872 -0.266171569 0 229 255
2.862600346 -137.228634165 -0.272252687 0 229 255
2.861021334 -137.325296309 -0.269825566 0 229 255
2.858331886 -137.421376234 -0.264295824 0 229 255
2.854772140 -137.516998491 -0.256334165 0 229 255
2.849633719 -137.611790555 -0.243961920 0 229 255
2.844124302 -137.706384423 -0.230552337 0 229 255
2.841685664 -137.802587374 -0.225719041 0 229 255
2.841692569 -137.900074354 -0.227715722 0 229 255
2.841782766 -137.997605660 -0.229944111 0 229 255
2.841117523 -138.094739885 -0.230061421 0 229 255
2.840122824 -138.191700548 -0.229257512 0 229 255
2.839779822 -138.289004499 -0.230273008 0 229 255
2.840508040 -138.386873822 -0.234279791 0 229 255
2.840845400 -138.484537862 -0.237193859 0 229 255
2.839703840 -138.581421300 -0.235975897 0 229 255
2.837820802 -138.677912315 -0.232685767 0 229 255
2.836939894 -138.774932609 -0.232193943 0 229 255
2.838695185 -138.873348597 -0.239065009 0 229 255
2.842687608 -138.972951890 -0.252184312 0 229 255
2.846618083 -139.072525938 -0.265129730 0 229 255
2.848067479 -139.170786908 -0.271143667 0 229 255
2.848300710 -139.268403647 -0.273759456 0 229 255
2.849845087 -139.366717872 -0.280036890 0 229 255
2.850985225 -139.464818805 -0.285184207 0 229 255
2.849897414 -139.561735350 -0.284106956 0 229 255
2.846067738 -139.657191188 -0.275369459 0 229 255
2.840862338 -139.751911278 -0.262787881 0 229 255
2.837009178 -139.847349088 -0.253982693 0 229 255
2.835149052 -139.943848238 -0.250743998 0 229 255
2.835433338 -140.041491913 -0.253494750 0 229 255
2.836766310 -140.139696884 -0.259174091 0 229 255
2.837017965 -140.237324935 -0.261831834 0 229 255
2.836863987 -140.334736522 -0.263355490 0 229 255
2.836669712 -140.432126891 -0.264765633 0 229 255
2.836041065 -140.529284724 -0.264961382 0 229 255
2.834979186 -140.626210126 -0.263945911 0 229 255
2.832760400 -140.722514056 -0.259697545 0 229 255
2.830599923 -140.818848074 -0.255611080 0 229 255
2.828252358 -140.915080307 -0.251000971 0 229 255
2.825318522 -141.010995751 -0.244752044 0 229 255
2.821252303 -141.106299668 -0.235338631 0 229 255
2.815338192 -141.200605197 -0.220761809 0 229 255
2.808842864 -141.294593203 -0.204560176 0 230 252
2.804840551 -141.389921902 -0.195322134 0 230 252
2.803216081 -141.486532009 -0.192726014 0 230 252
2.803176635 -141.583997864 -0.194557004 0 230 252
2.804871302 -141.682401941 -0.201231678 0 230 252
2.806274389 -141.780650020 -0.207090862 0 230 252
2.804522246 -141.877190929 -0.204134249 0 230 252
2.803235388 -141.973983112 -0.202476549 0 230 252
2.810117596 -142.075205143 -0.223640335 0 229 255
2.821900604 -142.179092786 -0.258495100 0 229 255
2.829854516 -142.280910436 -0.282651525 0 229 255
2.826876521 -142.376793230 -0.276265628 0 229 255
2.816696577 -142.468757104 -0.249757814 0 229 255
2.809642882 -142.562415088 -0.231983014 0 229 255
2.806941280 -142.658438505 -0.226366150 0 229 255
2.803032518 -142.753802320 -0.217375660 0 230 252
2.799075247 -142.849137104 -0.208248612 0 230 252
2.800837947 -142.947591443 -0.215101422 0 230 252
2.808013781 -143.049004407 -0.237077034 0 229 255
2.814229187 -143.149898438 -0.256368546 0 229 255
2.815654871 -143.248177780 -0.262277213 0 229 255
2.811790244 -143.343562825 -0.253404249 0 229 255
2.806350738 -143.438082640 -0.240130143 0 229 255
2.805194301 -143.534946535 -0.238821650 0 229 255
2.806115590 -143.632949747 -0.243317281 0 229 255
2.802873497 -143.728668661 -0.236179622 0 229 255
2.795263959 -143.821986319 -0.216838370 0 230 252
2.788782052 -143.915918404 -0.200646594 0 230 252
2.789002695 -144.013533073 -0.203180728 0 230 252
2.795624057 -144.114671989 -0.223597693 0 229 255
2.801269553 -144.215278917 -0.241287285 0 229 255
