ply
format ascii 1.0
comment coordinate_system ground
comment units millimeter
element vertex 1741
property double x
property double y
property double z
property uchar red
property uchar green
property uchar blue
comment color_mapping zg_high_contrast_from_zg
comment color_zg_range_mm -0.346563779 0.662067803
end_header
6.175217620 143.464220379 0.662067803 255 0 168
6.182295896 143.371871903 0.637576619 255 12 146
6.197663957 143.284372870 0.590257794 255 35 102
6.210210669 143.195209491 0.550708847 255 55 66
6.214153309 143.101002035 0.534854476 255 63 51
6.212323893 143.003415991 0.534896160 255 63 51
6.210703671 142.905952484 0.534362700 255 63 51
6.206453530 142.806953602 0.541072623 255 59 58
6.197214404 142.705045858 0.561522626 255 49 76
6.191669470 142.605298179 0.571800386 255 43 87
6.191920143 142.508930910 0.566118632 255 47 80
6.197591754 142.415719256 0.545508913 255 57 62
6.203060088 142.322383918 0.525459731 255 67 44
6.197399902 142.222571129 0.536058708 255 61 55
6.191682934 142.122728570 0.546815124 255 57 62
6.191047695 142.025840900 0.543577609 255 59 58
6.192475974 141.930150412 0.534658080 255 63 51
6.194939114 141.835058060 0.522889382 255 69 40
6.198729271 141.740732025 0.507466863 255 76 25
6.204082564 141.647307581 0.487740184 255 86 7
6.206152400 141.551977115 0.477057071 255 90 0
6.201845762 141.452954912 0.483936070 255 88 3
6.198782152 141.354653598 0.487392684 255 86 7
6.202939222 141.260525573 0.470963789 255 96 0
6.210085333 141.168119222 0.446303497 255 112 0
6.210356959 141.071739606 0.440577132 255 117 0
6.199382499 140.968873690 0.465825039 255 98 0
6.179844779 140.861080328 0.514658786 255 73 33
6.158167248 140.752068470 0.569387449 255 45 84
6.153098784 140.652630674 0.578373074 255 41 91
6.164929041 140.562914588 0.540817149 255 59 58
6.177680860 140.473718117 0.500723584 255 78 22
6.181190987 140.379202772 0.486084358 255 86 7
6.177548913 140.280578432 0.491144895 255 84 11
6.171348344 140.180488235 0.503253223 255 78 22
6.164055541 140.079775601 0.518370953 255 71 36
6.160653783 139.981296429 0.522772709 255 69 40
6.170217968 139.890241358 0.491463202 255 84 11
6.183228809 139.801149750 0.450661092 255 109 0
6.193356181 139.710398702 0.417801559 255 131 0
6.197979110 139.616494072 0.400103828 255 145 0
6.188567401 139.514571855 0.421063468 255 131 0
6.172874023 139.409071638 0.459326441 255 104 0
6.163118791 139.306968152 0.481234745 255 88 3
6.160030387 139.208669831 0.484781016 255 86 7
6.161621467 139.113037427 0.475438963 255 93 0
6.162804057 139.017170318 0.467222928 255 98 0
6.162901343 138.920684091 0.461997187 255 101 0
6.154397096 138.819308624 0.480465071 255 90 0
6.146799180 138.718453288 0.496437630 255 82 14
6.141752546 138.619050602 0.505383794 255 76 25
6.144294383 138.523954469 0.493428404 255 82 14
6.143444793 138.426933221 0.490815655 255 84 11
6.137123348 138.326812408 0.503276339 255 78 22
6.132237192 138.227507741 0.511784517 255 75 29
6.136484047 138.133371595 0.495136123 255 82 14
6.144889564 138.041581839 0.467033070 255 98 0
6.153618459 137.949967318 0.438039895 255 117 0
6.135941224 137.843439307 0.481786375 255 88 3
6.115949486 137.735618085 0.531909921 255 65 47
6.096654502 137.628203806 0.580115660 255 39 95
6.089203623 137.527475451 0.595696257 255 31 109
6.099594865 137.436796163 0.562128533 255 49 76
6.117072980 137.350094889 0.509039189 255 75 29
6.126763962 137.259001353 0.477401577 255 90 0
6.124330875 137.161087851 0.479163127 255 90 0
6.124248382 137.064494888 0.474450371 255 93 0
6.125125215 136.968439198 0.467095807 255 98 0
6.122995056 136.870695847 0.468025713 255 98 0
6.125442355 136.775517840 0.456346657 255 107 0
6.134024130 136.683771764 0.427769148 255 126 0
6.132474942 136.586349450 0.427101272 255 126 0
6.120222796 136.482942618 0.455919228 255 107 0
6.109760909 136.380544438 0.479806566 255 90 0
6.099253186 136.278127593 0.503821398 255 78 22
6.086563791 136.174500299 0.533847700 255 63 51
6.074700656 136.071342387 0.561599029 255 49 76
6.070531922 135.972480245 0.568154243 255 45 84
6.075355593 135.878627928 0.549937086 255 55 66
6.084732428 135.787304750 0.519177006 255 71 36
6.095180033 135.696568895 0.485467638 255 86 7
6.102767648 135.604234668 0.459638056 255 104 0
6.100586421 135.506468449 0.460722160 255 104 0
6.095221332 135.406935897 0.470578775 255 96 0
6.093200480 135.309261110 0.471223043 255 96 0
6.094846615 135.213619149 0.461765631 255 101 0
6.099170304 135.119457847 0.444932303 255 115 0
6.099528110 135.023097296 0.439025997 255 117 0
6.091942166 134.922341957 0.455006204 255 107 0
6.081225595 134.819861086 0.479612702 255 90 0
6.068534926 134.716297027 0.509659278 255 75 29
6.055143892 134.612355050 0.541636732 255 59 58
6.044763322 134.510082682 0.565321273 255 47 80
6.039763417 134.410782882 0.574182509 255 43 87
6.043268777 134.316170525 0.559611412 255 51 73
6.055008403 134.226086748 0.522354260 255 69 40
6.068657487 134.137043300 0.479836754 255 90 0
6.085305559 134.049636867 0.429056929 255 126 0
6.106419079 133.964669519 0.365974236 255 169 0
6.132730284 133.882538084 0.288570995 253 212 0
6.162231868 133.802135601 0.202377616 243 233 0
6.186422145 133.718798374 0.130818346 235 249 0
6.206199936 133.633024792 0.071416915 200 255 14
6.219502363 133.543690723 0.029857344 160 255 32
6.224967935 133.450058828 0.009891240 142 255 40
6.220661145 133.351080074 0.016851898 149 255 36
6.213648746 133.250625701 0.031268466 160 255 32
6.209375651 133.151670913 0.038138415 167 255 28
6.210701436 133.055772402 0.029582436 160 255 32
6.215393770 132.961706957 0.011751209 142 255 40
6.217812034 132.866398231 0.000186724 135 255 43
6.213584586 132.767469199 0.006934756 138 255 41
6.204806018 132.666066799 0.026224108 156 255 33
6.199440318 132.566525209 0.036110683 167 255 28
6.199896415 132.470149043 0.029956628 160 255 32
6.202756247 132.375076301 0.017180058 149 255 36
6.203289189 132.278738213 0.010816034 142 255 40
6.199917408 132.180282173 0.015212380 146 255 38
6.195771760 132.081408522 0.021742148 153 255 35
6.193592035 131.983601159 0.022855798 153 255 35
6.192096563 131.886164577 0.022084943 153 255 35
6.189271557 131.788009490 0.024978662 156 255 33
6.186889232 131.690094669 0.026653547 156 255 33
6.187392035 131.593737965 0.020379193 153 255 35
6.188817965 131.497877807 0.011561973 142 255 40
6.188148845 131.400886328 0.008518793 142 255 40
6.185729684 131.302951750 0.010299025 142 255 40
6.184145198 131.205467283 0.009780178 142 255 40
6.183216146 131.108335565 0.007456145 138 255 41
6.181960665 131.011028115 0.006032598 138 255 41
6.179684942 130.913172655 0.007421479 138 255 41
6.176488320 130.814823670 0.011349081 142 255 40
6.172880733 130.716255710 0.016410208 149 255 36
6.171991153 130.619146261 0.013982250 146 255 38
6.171179694 130.522078342 0.011339959 142 255 40
6.172594272 130.426201435 0.002564176 135 255 43
6.162199370 130.324006499 0.026333626 156 255 33
6.154692485 130.223361963 0.042145522 171 255 27
6.154592495 130.126677890 0.037546553 167 255 28
6.159903670 130.032880744 0.018036282 149 255 36
6.165851979 129.939418359 -0.003229060 131 255 44
6.168316896 129.844094099 -0.014893928 120 255 49
6.165948779 129.746193201 -0.013238728 120 255 49
6.164781063 129.648931928 -0.014890697 120 255 49
6.167460408 129.553716349 -0.027143823 109 255 54
6.167036773 129.456848835 -0.030844555 106 255 56
6.156400110 129.354557362 -0.006397959 127 255 46
6.143769741 129.251215069 0.023544423 153 255 35
6.137943364 129.151489274 0.034736579 164 255 30
6.138594175 129.055199046 0.028078868 160 255 32
6.141758224 128.960238098 0.014495608 146 255 38
6.143751736 128.864654417 0.004139186 138 255 41
6.144079765 128.768187645 -0.001626263 131 255 44
6.144111411 128.671563055 -0.006573954 127 255 46
6.144326706 128.575034429 -0.012026865 120 255 49
6.141217187 128.476750513 -0.008315456 124 255 48
6.130236770 128.374318345 0.017089781 149 255 36
6.118970969 128.271743210 0.043282818 171 255 27
6.111771370 128.171316341 0.058270227 186 255 20
6.109373513 128.073420043 0.060024589 189 255 19
6.111864275 127.978094507 0.048306245 178 255 24
6.117885933 127.884620929 0.026857069 156 255 33
6.122061230 127.790172588 0.010497526 142 255 40
6.120328605 127.692621097 0.010422094 142 255 40
6.115304950 127.593344897 0.019418368 149 255 36
6.112808871 127.495395471 0.021449189 153 255 35
6.117208281 127.401056143 0.004475489 138 255 41
6.123300910 127.307598104 -0.017164326 116 255 51
6.125135670 127.211909096 -0.027067620 109 255 54
6.121789082 127.113511675 -0.022688842 113 255 52
6.115954368 127.013817314 -0.011451049 124 255 48
6.110402768 126.914274076 -0.000992502 131 255 44
6.105991582 126.815328400 0.006323804 138 255 41
6.103400061 126.717332702 0.008625576 142 255 40
6.102731478 126.620338646 0.005628079 138 255 41
6.102904079 126.523781542 0.000312929 135 255 43
6.102497489 126.426922396 -0.003404828 131 255 44
6.100160919 126.329060507 -0.001801862 131 255 44
6.096902935 126.230721367 0.002341891 135 255 43
6.093693155 126.132408741 0.006353803 138 255 41
6.091511544 126.034630275 0.007532665 138 255 41
6.091222714 125.937832410 0.003495176 135 255 43
6.090707817 125.840916859 0.000081775 131 255 44
6.086960893 125.742329975 0.005578328 138 255 41
6.082475617 125.643363584 0.013111189 146 255 38
6.079874562 125.545372249 0.015451249 146 255 38
6.078415657 125.447971059 0.014643962 146 255 38
6.076228785 125.350194819 0.015844318 146 255 38
6.077518915 125.254210080 0.007461145 138 255 41
6.070790139 125.154096411 0.021183505 153 255 35
6.063923697 125.053916111 0.035286487 164 255 30
6.059669985 124.955082761 0.042188369 171 255 27
6.059064391 124.858125068 0.039034876 167 255 28
6.059608329 124.761756751 0.032713511 164 255 30
6.060195494 124.665409236 0.026273906 156 255 33
6.059800702 124.568557195 0.022542137 153 255 35
6.061282666 124.472665395 0.013637721 146 255 38
6.063903400 124.377354130 0.001594974 135 255 43
6.065312064 124.281420273 -0.007105605 127 255 46
6.062427025 124.183290945 -0.003968783 127 255 46
6.055352079 124.083024033 0.010719492 142 255 40
6.047784175 123.982510106 0.026767871 156 255 33
6.042736694 123.883285684 0.035869218 167 255 28
6.043284943 123.786914236 0.029545507 160 255 32
6.046402758 123.691849210 0.016138977 149 255 36
6.045988077 123.594984346 0.012471678 146 255 38
6.041608006 123.496103686 0.019737182 149 255 36
6.036934281 123.397076297 0.027813307 160 255 32
6.035765809 123.299830189 0.026227070 156 255 33
6.038285613 123.204454161 0.014473749 146 255 38
6.037880521 123.107593325 0.010784867 142 255 40
6.034557379 123.009254488 0.015141674 146 255 38
6.033131844 122.911877252 0.014268002 146 255 38
6.034173040 122.815747159 0.006594735 138 255 41
6.035039766 122.719527201 -0.000596618 131 255 44
6.033411310 122.622046167 -0.000907967 131 255 44
6.029475939 122.523401864 0.005141748 138 255 41
6.024331905 122.424150450 0.014524777 146 255 38
6.017804227 122.324205181 0.027723596 156 255 33
6.008548504 122.222891078 0.048444785 178 255 24
6.000962692 122.122422820 0.064563209 193 255 17
5.999496975 122.025034631 0.063809478 193 255 17
6.003459865 121.930372330 0.048089789 178 255 24
6.009870318 121.836934070 0.025622836 156 255 33
6.014841531 121.742768451 0.007124737 138 255 41
6.015302141 121.646338490 0.001063596 135 255 43
6.011891583 121.547969425 0.005676617 138 255 41
6.008489859 121.449606443 0.010266326 142 255 40
6.005874365 121.351638091 0.012689336 146 255 38
6.004751874 121.254416461 0.010996926 142 255 40
6.006684636 121.158719496 0.000881651 135 255 43
6.010140491 121.063779660 -0.013432183 120 255 49
6.012999501 120.968538860 -0.026099551 109 255 54
6.014386510 120.872562027 -0.034707442 102 255 57
6.012734501 120.775071197 -0.034935166 102 255 57
6.008869146 120.676480327 -0.029059170 106 255 56
6.005566085 120.578170804 -0.024732501 109 255 54
6.003650947 120.480551824 -0.024231666 109 255 54
6.003859315 120.383986658 -0.029584943 106 255 56
6.005438047 120.288099603 -0.038715783 98 255 59
6.004946683 120.191185208 -0.042137815 95 255 60
6.000023388 120.092077036 -0.033338596 102 255 57
5.991129962 119.991008506 -0.013591270 120 255 49
5.978405946 119.888053099 0.016719577 149 255 36
5.976293257 119.790345557 0.017772357 149 255 36
5.974846707 119.692967339 0.016989340 149 255 36
5.977037075 119.597382177 0.006178870 138 255 41
5.976886859 119.500641490 0.001823248 135 255 43
5.975322366 119.403203884 0.001368354 135 255 43
5.973890609 119.305831832 0.000548441 135 255 43
5.970544081 119.207518950 0.005009423 138 255 41
5.966367230 119.108799956 0.011761050 142 255 40
5.966361408 119.012129873 0.007012177 138 255 41
5.970944153 118.917708658 -0.010388742 124 255 48
5.971491930 118.821306223 -0.016662345 116 255 51
5.970228266 118.724015681 -0.017939900 116 255 51
5.969371011 118.626923984 -0.020337161 113 255 52
5.967049570 118.529116361 -0.018695863 116 255 51
5.964458182 118.431177749 -0.016309146 116 255 51
5.964749588 118.334647050 -0.021870974 113 255 52
5.967030772 118.239085503 -0.032918883 102 255 57
5.967187983 118.142486388 -0.038108797 98 255 59
5.963011389 118.043776216 -0.031346701 106 255 56
5.956888527 117.944121463 -0.019216405 116 255 51
5.952986870 117.845550218 -0.013210318 120 255 49
5.950947752 117.747885731 -0.012339454 120 255 49
5.950106952 117.650803492 -0.014772173 120 255 49
5.950541047 117.554339271 -0.020719706 113 255 52
5.949245682 117.457035729 -0.021896924 113 255 52
5.943290814 117.357476081 -0.010223455 124 255 48
5.933185141 117.255911775 0.012898034 146 255 38
5.922663150 117.154152986 0.037168886 167 255 28
5.917806518 117.055138058 0.045817168 175 255 25
5.924458613 116.961681044 0.022727800 153 255 35
5.934903380 116.870047292 -0.010820282 124 255 48
5.940904697 116.776263265 -0.032113446 102 255 57
5.940839817 116.679552610 -0.036676224 98 255 59
5.936595512 116.580830105 -0.029711795 106 255 56
5.934092889 116.482947300 -0.027549620 106 255 56
5.935670363 116.387025591 -0.036638855 98 255 59
5.937281814 116.291118087 -0.045820885 91 255 62
5.936229879 116.193930979 -0.047656617 87 255 64
5.932934294 116.095668473 -0.043303535 91 255 62
5.929406596 115.997296420 -0.038309247 98 255 59
5.924637176 115.898331986 -0.029889281 106 255 56
5.917660085 115.798314752 -0.015379525 120 255 49
5.910726030 115.698322490 -0.000987301 131 255 44
5.904347708 115.598599890 0.011873371 142 255 40
5.898584740 115.499174758 0.023038029 153 255 35
5.894648945 115.400623939 0.029164413 160 255 32
5.895750242 115.304473960 0.021399338 153 255 35
5.899984109 115.209812832 0.004995368 138 255 41
5.902525433 115.114342854 -0.006739605 127 255 46
5.904384040 115.018545703 -0.016590701 116 255 51
5.906797169 114.923009467 -0.027970321 106 255 56
5.908085357 114.826936924 -0.036246331 98 255 59
5.906052198 114.729288412 -0.035360701 98 255 59
5.901733177 114.630558081 -0.028169311 106 255 56
5.899306674 114.532725626 -0.026196708 109 255 54
5.901385858 114.437024365 -0.036650556 98 255 59
5.905417466 114.342242969 -0.052488664 84 255 65
5.906395621 114.246016293 -0.059903877 76 255 68
5.899730079 114.146182851 -0.046235156 91 255 62
5.887068267 114.043527752 -0.016026157 116 255 51
5.882932253 113.944896079 -0.009332109 124 255 48
5.877016840 113.845429447 0.002271073 135 255 43
5.878212825 113.749309667 -0.005739835 127 255 46
5.881911104 113.654363521 -0.020651877 113 255 52
5.883777786 113.558553986 -0.030510956 106 255 56
5.884195840 113.462062759 -0.036373346 98 255 59
5.877338538 113.362161084 -0.022166898 113 255 52
5.878661097 113.266093718 -0.030522226 106 255 56
5.879821000 113.169948360 -0.038427965 98 255 59
5.880331646 113.073497730 -0.044541880 91 255 62
5.879969951 112.976638371 -0.048248582 87 255 64
5.877549498 112.878817584 -0.046275416 91 255 62
5.875063600 112.780967235 -0.044120689 91 255 62
5.876172872 112.684793010 -0.051881985 84 255 65
5.878032026 112.588966166 -0.061710865 76 255 68
5.875050794 112.490885398 -0.058186785 80 255 67
5.872668000 112.393084165 -0.056312436 80 255 67
5.860549873 112.290762652 -0.027582161 106 255 56
5.852559891 112.190365075 -0.010238108 124 255 48
5.852239424 112.093528675 -0.014049420 120 255 49
5.857351236 111.999208248 -0.032844922 102 255 57
5.864007513 111.905597962 -0.055900102 80 255 67
5.869083701 111.811250920 -0.074595726 66 255 73
5.871106983 111.715488297 -0.084868830 55 255 78
5.871915603 111.619162385 -0.091790264 47 255 81
5.873408293 111.523150582 -0.100597837 40 255 84
5.873017029 111.426268287 -0.104207364 36 255 86
5.864854674 111.325806009 -0.086378247 55 255 78
5.854916834 111.224531949 -0.063649972 73 255 70
5.846737430 111.124073182 -0.045771390 91 255 62
5.842078793 111.025237425 -0.037604296 98 255 59
5.843282050 110.929095423 -0.045607315 91 255 62
5.847208835 110.834200909 -0.061122841 76 255 68
5.847526540 110.737648416 -0.066681037 73 255 70
5.843113443 110.638928385 -0.059187197 76 255 68
5.837253125 110.539548651 -0.047699730 87 255 64
5.832654186 110.440749178 -0.039690982 95 255 60
5.829665759 110.342688008 -0.036124197 98 255 59
5.827081663 110.244812782 -0.033671825 102 255 57
5.824797515 110.147075435 -0.032045914 102 255 57
5.822676776 110.049413411 -0.030869785 106 255 56
5.821299871 109.952090776 -0.031744749 102 255 57
5.822430537 109.855908989 -0.039536743 95 255 60
5.826162073 109.760907593 -0.054503280 84 255 65
5.828661972 109.665343157 -0.066071004 73 255 70
5.825674050 109.567285850 -0.062497458 76 255 68
5.820613954 109.468290487 -0.053205897 84 255 65
5.817345481 109.370109690 -0.048856186 87 255 64
5.815653961 109.272644251 -0.048856142 87 255 64
5.815228806 109.175751912 -0.052348931 84 255 65
5.814320179 109.078640573 -0.054506851 84 255 65
5.809700628 108.979853707 -0.046425367 91 255 62
5.801308643 108.879367806 -0.027934607 106 255 56
5.790896831 108.777977089 -0.003869888 127 255 46
5.783659209 108.678022841 0.011438402 142 255 40
5.786560635 108.582635208 -0.001226267 131 255 44
5.796650059 108.490475932 -0.033722198 102 255 57
5.808327819 108.399021552 -0.070599790 69 255 72
5.816185964 108.305843173 -0.096938074 44 255 83
5.818058154 108.209973736 -0.106759722 33 255 88
5.814761393 108.111786126 -0.102318684 36 255 86
5.807339393 108.011753475 -0.086494481 55 255 78
5.796335242 107.910123407 -0.060785395 76 255 68
5.782617418 107.807288134 -0.027587542 106 255 56
5.776331033 107.707780680 -0.014892996 120 255 49
5.775624429 107.610766469 -0.017592998 116 255 51
5.781636271 107.516746687 -0.038829605 98 255 59
5.784067794 107.421126894 -0.050186512 87 255 64
5.779291049 107.322296784 -0.041653187 95 255 60
5.777740202 107.224903712 -0.042019815 95 255 60
5.782422476 107.130279882 -0.059584271 76 255 68
5.777233190 107.031270165 -0.049909476 87 255 64
5.779189508 106.935432371 -0.059950392 76 255 68
5.779682727 106.838943948 -0.065953246 73 255 70
5.780604546 106.742644032 -0.073137787 66 255 73
5.780467348 106.645874125 -0.077399191 62 255 75
5.785934419 106.551580226 -0.097123776 44 255 83
5.781219531 106.452785344 -0.088751770 51 255 80
5.779434743 106.355285897 -0.088463918 51 255 80
5.776497962 106.257279153 -0.084996234 55 255 78
5.768638947 106.157105945 -0.067945015 69 255 72
5.761166211 106.057107845 -0.051958503 84 255 65
5.758415346 105.959190581 -0.049000519 87 255 64
5.759527918 105.862971670 -0.056702463 80 255 67
5.763542059 105.768024538 -0.072410255 66 255 73
5.769623793 105.673980161 -0.093822676 47 255 81
5.776322724 105.580200708 -0.116937447 25 255 91
5.780391788 105.485264067 -0.132794282 11 255 97
5.777666149 105.387351663 -0.129900089 11 255 97
5.771796649 105.288066644 -0.118329223 22 255 92
5.767386427 105.189422377 -0.110784171 29 255 89
5.766111963 105.092148522 -0.111891358 29 255 89
5.766745591 104.995706422 -0.118263072 22 255 92
5.764494664 104.898006858 -0.116673608 25 255 91
5.758127767 104.798517358 -0.103724611 36 255 86
5.749660493 104.698118813 -0.084978191 55 255 78
5.741310391 104.597776758 -0.066553898 73 255 70
5.736112114 104.498807924 -0.056826345 80 255 67
5.734555885 104.401421252 -0.057148517 80 255 67
5.733892462 104.304421660 -0.059933533 76 255 68
5.730916137 104.206420700 -0.056334630 80 255 67
5.726285700 104.107705889 -0.048169782 87 255 64
5.727214526 104.011395566 -0.055345885 80 255 67
5.730872935 103.916261930 -0.070053987 69 255 72
5.730807717 103.819518747 -0.074484903 66 255 73
5.724906992 103.720260274 -0.062810156 76 255 68
5.717524638 103.620367589 -0.047045276 91 255 62
5.714455095 103.522334761 -0.043181709 95 255 60
5.714320801 103.425564853 -0.047417821 87 255 64
5.714175989 103.328789684 -0.051623918 84 255 65
5.715285264 103.232551770 -0.059290119 76 255 68
5.720277102 103.137976264 -0.077670698 62 255 75
5.725075945 103.043313463 -0.095517797 44 255 83
5.726535657 102.947217522 -0.104148421 36 255 86
5.724384566 102.849576128 -0.102812639 36 255 86
5.720662675 102.751264663 -0.097140533 44 255 83
5.719421519 102.654013729 -0.098313997 44 255 83
5.721868604 102.558335278 -0.109665790 33 255 88
5.724806248 102.462863068 -0.122370593 18 255 94
5.725337367 102.366363652 -0.128432548 15 255 96
5.724268007 102.269182497 -0.130076230 11 255 97
5.723280743 102.172036188 -0.131945485 11 255 97
5.721282665 102.074460781 -0.131023859 11 255 97
5.713946293 101.974622419 -0.115367325 25 255 91
5.702742655 101.873150414 -0.089035753 51 255 80
5.698947301 101.774821848 -0.083150199 55 255 78
5.701863142 101.679333457 -0.095786961 44 255 83
5.707234339 101.584879423 -0.115199830 25 255 91
5.712233664 101.490263476 -0.133585459 11 255 97
5.715557218 101.394936121 -0.147344919 0 254 105
5.715746767 101.298284818 -0.152453215 0 254 108
5.710093746 101.199172874 -0.141434176 4 255 100
5.698381714 101.097515929 -0.113690127 29 255 89
5.684619708 100.995005618 -0.080286463 58 255 76
5.682324734 100.897319341 -0.078532622 62 255 75
5.683891367 100.801253784 -0.087436560 51 255 80
5.683394285 100.704321325 -0.090643251 47 255 81
5.690204296 100.610447907 -0.114018230 29 255 89
5.690999057 100.514052153 -0.120788829 22 255 92
5.686028617 100.415245445 -0.111644993 29 255 89
5.679128042 100.315635741 -0.097172313 44 255 83
5.680758073 100.219589246 -0.106245415 33 255 88
5.676585114 100.121122002 -0.099299545 40 255 84
5.673114192 100.022949442 -0.094290412 47 255 81
5.670658206 99.925200941 -0.092081755 47 255 81
5.669518354 99.828000535 -0.093505033 47 255 81
5.670710172 99.731768443 -0.101363547 40 255 84
5.674875353 99.636768234 -0.117428716 25 255 91
5.681300785 99.542700916 -0.139732196 4 255 100
5.684795554 99.447414193 -0.153945047 0 253 111
5.680459685 99.348884053 -0.146541146 0 254 105
5.671134276 99.248293867 -0.125362823 18 255 94
5.662296873 99.147911497 -0.105530359 36 255 86
5.657594834 99.049241306 -0.097112178 44 255 83
5.657879291 98.952629424 -0.102457992 36 255 86
5.660484832 98.856972418 -0.114210164 25 255 91
5.662776943 98.761183631 -0.125096193 18 255 94
5.663764237 98.664855879 -0.132379321 11 255 97
5.660604317 98.566823282 -0.128212952 15 255 96
5.655905621 98.468160872 -0.119797626 22 255 92
5.653604395 98.370484029 -0.117999551 25 255 91
5.652867466 98.273448780 -0.120518785 22 255 92
5.649154535 98.175195555 -0.114821474 25 255 91
5.644604806 98.076602250 -0.106812988 33 255 88
5.622312033 95.068661506 -0.185864418 0 249 135
5.342489275 79.678024455 -0.114206467 25 255 91
5.344249360 78.130208441 -0.188639778 0 249 135
5.346669198 78.034225423 -0.199666516 0 248 144
5.345276364 77.936982098 -0.200155742 0 248 144
5.341733515 77.839030657 -0.194702179 0 248 141
5.339627742 77.741554089 -0.193218976 0 248 141
5.338792832 77.644496114 -0.195246850 0 248 141
5.338519032 77.547622234 -0.198824370 0 248 144
5.336247264 77.450092530 -0.196879208 0 248 144
5.330137377 77.351306491 -0.184325753 0 250 132
5.322926710 77.252164164 -0.168728917 0 252 120
5.319443078 77.154244618 -0.163431162 0 252 117
5.319434645 77.057461381 -0.167736652 0 252 120
5.322282049 76.961608529 -0.179933798 0 250 129
5.325620721 76.865912721 -0.193487725 0 248 141
5.326031827 76.769261278 -0.198949713 0 248 144
5.322623735 76.671367853 -0.193855398 0 248 141
5.316504173 76.572596305 -0.181266111 0 250 132
5.312074008 76.474376263 -0.173344733 0 251 126
5.312501467 76.377731551 -0.178847642 0 250 129
5.315492220 76.281914663 -0.191433974 0 249 138
5.317321607 76.185719595 -0.200809562 0 247 147
5.317319447 76.088931461 -0.205122087 0 247 150
5.317578737 75.992226803 -0.210156193 0 246 153
5.317966883 75.895562646 -0.215545417 0 246 156
5.317794708 75.798717287 -0.219384969 0 245 159
5.317731421 75.701906249 -0.223524444 0 245 162
5.318129292 75.605242384 -0.228937482 0 244 168
5.319063202 75.508749150 -0.235831068 0 243 171
5.320093370 75.412285227 -0.242989703 0 242 177
5.319160051 75.315192276 -0.244720373 0 242 180
5.313220782 75.216501433 -0.232613759 0 243 171
5.302949658 75.116433332 -0.208532825 0 247 150
5.298047819 75.018082000 -0.199291194 0 248 144
5.297710827 74.921185446 -0.202665634 0 247 147
5.297253560 74.824250170 -0.205706590 0 247 150
5.293749716 74.726347856 -0.200325681 0 248 144
5.291066104 74.628707371 -0.197210800 0 248 144
5.289687837 74.531481324 -0.197702858 0 248 144
5.287963482 74.434146145 -0.197237237 0 248 144
5.286366362 74.336851684 -0.197122226 0 248 144
5.283446456 74.239140502 -0.193349831 0 248 141
5.288515630 74.143947248 -0.211659036 0 246 153
5.285323444 74.046150268 -0.207131910 0 247 150
5.286364283 73.949685078 -0.214304340 0 246 156
5.289847298 73.853984786 -0.228226320 0 244 165
5.290852647 73.757504407 -0.235298679 0 243 171
5.290122263 73.660479064 -0.237572154 0 243 174
5.290412318 73.563772598 -0.242665271 0 242 177
5.290147742 73.466891917 -0.246224247 0 242 180
5.285543900 73.368657092 -0.237787478 0 243 174
5.278620096 73.269702212 -0.222936618 0 245 162
5.270354053 73.170334177 -0.204374239 0 247 147
5.262891184 73.071221300 -0.188030785 0 249 135
5.260476424 72.973680332 -0.185640483 0 249 135
5.264585581 72.878163037 -0.201283116 0 247 147
5.273521217 72.784136342 -0.230266716 0 244 168
5.283024210 72.690277521 -0.260817896 0 240 192
5.284703168 72.593993959 -0.269740032 0 239 198
5.276629238 72.494699556 -0.251700768 0 241 183
5.269453750 72.395687374 -0.236143865 0 243 171
5.265037973 72.297529170 -0.228214617 0 244 165
5.260500511 72.199336166 -0.219947829 0 245 159
5.255863255 72.101115221 -0.211404004 0 246 153
5.252935656 72.003421217 -0.207585235 0 247 150
5.252353507 71.906446885 -0.210249194 0 246 153
5.252637979 71.809737267 -0.215307836 0 246 156
5.252331409 71.712846130 -0.218731537 0 245 159
5.251318343 71.615738930 -0.220201101 0 245 159
5.250379839 71.518654451 -0.221875730 0 245 162
5.250065799 71.421759949 -0.225275635 0 244 165
5.249665815 71.324838796 -0.228436900 0 244 168
5.247848845 71.227487067 -0.227679813 0 244 165
5.244228225 71.129589163 -0.221935361 0 245 162
5.240345764 71.031613974 -0.215465895 0 246 156
5.238277232 70.934189507 -0.214010035 0 246 156
5.237937749 70.837288049 -0.217333194 0 245 159
5.239116966 70.740844173 -0.224853916 0 244 165
5.241027047 70.644618803 -0.234394197 0 243 171
5.241395327 70.547927327 -0.239670981 0 243 174
5.241159622 70.451053312 -0.243276936 0 242 177
5.242286747 70.354587704 -0.250649611 0 241 183
5.243081208 70.258020761 -0.257101575 0 240 189
5.240759679 70.160519693 -0.254937777 0 241 186
5.235006969 70.061993839 -0.243286679 0 242 177
5.228563413 69.963265336 -0.229724386 0 244 168
5.224577710 69.865273914 -0.222956184 0 245 162
5.221966510 69.767694117 -0.219986983 0 245 159
5.217134263 69.669454930 -0.210876012 0 246 153
5.210281879 69.570618576 -0.196178641 0 248 141
5.206167400 69.472598947 -0.189049772 0 249 138
5.205761528 69.375680515 -0.192173316 0 249 138
5.205078861 69.278679722 -0.194530527 0 248 141
5.204163408 69.181609890 -0.196243066 0 248 141
5.204686471 69.084964562 -0.201931815 0 247 147
5.206207930 68.988612360 -0.210379969 0 246 153
5.206988443 68.892040110 -0.216778502 0 245 159
5.206153172 68.794991459 -0.218708563 0 245 159
5.204264123 68.697633271 -0.217723969 0 245 159
5.202250241 68.600239155 -0.216393131 0 246 156
5.202140362 68.503403409 -0.220325633 0 245 159
5.203697406 68.407054512 -0.228866039 0 244 168
5.204283649 68.310420099 -0.234721229 0 243 171
5.203138381 68.213279375 -0.235787819 0 243 171
5.201659353 68.116041527 -0.235930496 0 243 171
5.201041840 68.019054698 -0.238454182 0 243 174
5.199584154 67.921823453 -0.238653723 0 243 174
5.194938553 67.823667475 -0.230037510 0 244 168
5.188397521 67.724964981 -0.216179180 0 246 156
5.193374217 67.629600177 -0.234166789 0 243 171
5.193413538 67.532803720 -0.238501310 0 243 174
5.192490968 67.435728813 -0.240175086 0 243 174
5.184744842 67.336686787 -0.222979996 0 245 162
5.172843578 67.236453676 -0.194294223 0 248 141
5.164666444 67.137299617 -0.175904766 0 251 126
5.164741196 67.040520399 -0.180331662 0 250 129
5.171556987 66.945673339 -0.203397533 0 247 147
5.178600731 66.850885592 -0.227092886 0 244 165
5.177737435 66.753830413 -0.228922986 0 244 168
5.170926573 66.655076489 -0.214305832 0 246 156
5.165457676 66.556709758 -0.203398264 0 247 147
5.163861526 66.459449551 -0.203198516 0 247 147
5.164897014 66.362938389 -0.210274792 0 246 153
5.167134013 66.266766996 -0.220672536 0 245 162
5.169325433 66.170580201 -0.230943262 0 244 168
5.172379255 66.074635301 -0.243597793 0 242 177
5.173624847 65.978175703 -0.251251080 0 241 183
5.166946704 65.879475548 -0.236991786 0 243 174
5.160554022 65.780860277 -0.223520658 0 245 162
5.155308316 65.682572327 -0.213220079 0 246 156
5.150185529 65.584322210 -0.203258229 0 247 147
5.145553618 65.486213189 -0.194652641 0 248 141
5.141292733 65.388211069 -0.187071912 0 249 135
5.136828793 65.290154532 -0.178928493 0 250 129
5.132969511 65.192269872 -0.172456031 0 251 123
5.131950008 65.095181101 -0.173835603 0 251 126
5.133099963 64.998697873 -0.181213602 0 250 132
5.135212677 64.902481356 -0.191253050 0 249 138
5.138383626 64.806557026 -0.204218027 0 247 147
5.141378141 64.710580471 -0.216694124 0 245 159
5.142884709 64.614187834 -0.225054356 0 244 165
5.142708214 64.517326734 -0.228759070 0 244 168
5.141757954 64.420250813 -0.230322873 0 244 168
5.140438968 64.323072925 -0.230865881 0 244 168
5.138840726 64.225818193 -0.230635515 0 244 168
5.137111014 64.128527678 -0.230040472 0 244 168
5.136016940 64.031412711 -0.231202240 0 244 168
5.136819666 63.934819277 -0.237608704 0 243 174
5.138773163 63.838540394 -0.247196724 0 242 180
5.139559540 63.741939292 -0.253555947 0 241 186
5.138267954 63.644767949 -0.254167266 0 241 186
5.136612063 63.547497236 -0.253769968 0 241 186
5.136147224 63.450552191 -0.256665624 0 240 189
5.134793424 63.353364390 -0.257101645 0 240 189
5.128303330 63.254778550 -0.243331201 0 242 177
5.116996280 63.154887370 -0.216237267 0 246 156
5.105836010 63.055043912 -0.189547922 0 249 138
5.100167181 62.956696926 -0.178045058 0 250 129
5.101343501 62.860206589 -0.185472922 0 249 135
5.105042313 62.764396506 -0.199876374 0 248 144
5.106875885 62.668079317 -0.209120055 0 246 153
5.107149170 62.571339364 -0.214047322 0 246 156
5.107427776 62.474599876 -0.218988268 0 245 159
5.107104033 62.377697502 -0.222262191 0 245 162
5.106441897 62.280703784 -0.224599126 0 244 165
5.104369375 62.183331771 -0.223034089 0 245 162
5.097985188 62.084806521 -0.209542505 0 246 153
5.093859427 61.986889016 -0.202296208 0 247 147
5.081254318 61.886710797 -0.171595859 0 251 123
5.076620996 61.788666041 -0.162943258 0 252 117
5.079576121 61.692643600 -0.175278456 0 251 126
5.079619299 61.595844291 -0.179558460 0 250 129
5.077244388 61.498402505 -0.177149132 0 250 129
5.078113387 61.401821369 -0.183711194 0 250 132
5.082757973 61.306237853 -0.200715384 0 248 144
5.087854598 61.210769471 -0.218968990 0 245 159
5.087227817 61.113786366 -0.221390776 0 245 162
5.081642636 61.015496643 -0.210096513 0 246 153
5.074346418 60.916760291 -0.194068279 0 248 141
5.068401456 60.818383723 -0.181776416 0 250 132
5.065592066 60.720833443 -0.178156497 0 250 129
5.065499006 60.623996047 -0.182048996 0 250 132
5.065726713 60.527241861 -0.186827711 0 249 135
5.064923114 60.430217399 -0.188752698 0 249 135
5.064753702 60.333358181 -0.192430842 0 249 138
5.065760978 60.236804751 -0.199362795 0 248 144
5.065732928 60.139980586 -0.203429877 0 247 147
5.064621881 60.042874495 -0.204500178 0 247 147
5.062303827 59.945455567 -0.202230619 0 247 147
5.058601050 59.847679179 -0.196129560 0 248 141
5.054042972 59.749683770 -0.187661419 0 249 135
5.048905470 59.651541527 -0.177589296 0 250 129
5.043610985 59.553361993 -0.167081731 0 252 120
5.037976387 59.455098217 -0.155632140 0 253 111
5.032447741 59.356865215 -0.144474428 0 255 102
5.028911250 59.259146839 -0.138826335 4 255 100
5.028883407 59.162329339 -0.142882983 0 255 102
5.030417848 59.065910771 -0.151260307 0 254 108
5.028979854 58.968730995 -0.151413968 0 254 108
5.023272598 58.870462646 -0.139756405 4 255 100
5.019269506 58.772631913 -0.132811918 11 255 97
5.020293446 58.676081831 -0.139772773 4 255 100
5.023355068 58.580047605 -0.152369567 0 254 108
5.025451258 58.483765517 -0.162294653 0 252 117
5.027240684 58.387403416 -0.171370117 0 251 123
5.036458854 58.292916939 -0.200995468 0 247 147
5.055258173 58.200840813 -0.257125461 0 240 189
5.060501955 58.105333524 -0.275754495 0 238 204
4.920793795 51.681150642 -0.158893639 0 253 114
4.666360990 38.073834810 -0.010959728 124 255 48
4.668488299 37.977366698 -0.020748404 113 255 52
4.676265393 37.881870925 -0.046182119 91 255 62
4.687205836 37.786912995 -0.080375339 58 255 76
4.693833927 37.691205263 -0.102625401 36 255 86
4.695811459 37.594694716 -0.111995508 29 255 89
4.694074227 37.497546702 -0.111077032 29 255 89
4.690624426 37.400107081 -0.105414674 36 255 86
4.686850140 37.302614108 -0.098852522 40 255 84
4.681045690 37.204778453 -0.086666827 51 255 80
4.672045944 37.106404995 -0.065630760 73 255 70
4.663485035 37.008111867 -0.045808710 91 255 62
4.661557798 36.910943630 -0.044357014 91 255 62
4.665252130 36.814722321 -0.058472957 80 255 67
4.669772024 36.718636076 -0.074874313 62 255 75
4.672738214 36.622285294 -0.086971744 51 255 80
4.672488232 36.525393843 -0.090160964 51 255 80
4.667784255 36.427758959 -0.081013654 58 255 76
4.664154231 36.330305632 -0.074839501 62 255 75
4.663069770 36.233276950 -0.075714244 62 255 75
4.660926194 36.136072912 -0.073654600 66 255 73
4.655688667 36.038358459 -0.063024879 73 255 70
4.647974958 35.940238998 -0.045535923 91 255 62
4.641777325 35.842374067 -0.032244620 102 255 57
4.639803357 35.745206274 -0.030650031 106 255 56
4.640565360 35.648487193 -0.036631955 98 255 59
4.640533549 35.551637110 -0.040414241 95 255 60
4.638732982 35.454498055 -0.039296599 95 255 60
4.636077745 35.357220672 -0.035810678 98 255 59
4.633889339 35.260020285 -0.033616585 102 255 57
4.632603505 35.162966870 -0.033921222 102 255 57
4.631891741 35.066006360 -0.035814760 98 255 59
4.631515692 34.969099709 -0.038637051 98 255 59
4.630499921 34.872089809 -0.039686389 95 255 60
4.627779018 34.774806622 -0.036011825 98 255 59
4.624891660 34.677498147 -0.031875070 102 255 57
4.623681654 34.580458701 -0.032383072 102 255 57
4.623144499 34.483526504 -0.034753631 102 255 57
4.620712368 34.386293124 -0.031874372 102 255 57
4.616741718 34.288817189 -0.024732539 109 255 54
4.613665355 34.191484828 -0.020066559 113 255 52
4.612031053 34.094381349 -0.019393723 116 255 51
4.610128794 33.997236237 -0.017977564 116 255 51
4.607434109 33.899967538 -0.014365352 120 255 49
4.604579517 33.802675128 -0.010309066 124 255 48
4.602540107 33.705511381 -0.008509612 124 255 48
4.602078219 33.608594057 -0.011078645 124 255 48
4.602856875 33.511869008 -0.017082823 116 255 51
4.605352558 33.415408633 -0.027842034 106 255 56
4.609894757 33.319261885 -0.044269019 91 255 62
4.613670834 33.222992798 -0.058572916 80 255 67
4.611181872 33.125756598 -0.055521726 80 255 67
4.601660146 33.027442702 -0.032988584 102 255 57
4.594946718 32.929565063 -0.018233153 116 255 51
4.596425649 32.832942269 -0.026169582 109 255 54
4.599693301 32.736589933 -0.039059828 98 255 59
4.600943852 32.639928000 -0.046361590 91 255 62
4.600603649 32.543023373 -0.049255806 87 255 64
4.599952590 32.446071279 -0.051287838 84 255 65
4.594927594 32.348459665 -0.041202521 95 255 60
4.595700178 32.251722767 -0.047175968 87 255 64
4.591604419 32.154254465 -0.039662416 95 255 60
4.590947745 32.057302953 -0.041674441 95 255 60
4.588024490 31.960013025 -0.037406586 98 255 59
4.581843984 31.862239859 -0.024114426 109 255 54
4.575689692 31.764474557 -0.010893642 124 255 48
4.571839156 31.667054275 -0.004053480 127 255 46
4.569927057 31.569922425 -0.002582021 131 255 44
4.568857547 31.472915383 -0.003443599 131 255 44
4.568255983 31.375977146 -0.005600400 127 255 46
4.567336441 31.278992025 -0.006875228 127 255 46
4.564806084 31.181771456 -0.003686566 131 255 44
4.560566299 31.084302914 0.004238840 138 255 41
4.557048963 30.986941883 0.010164039 142 255 40
4.555379282 30.889850677 0.010971830 142 255 40
4.555569873 30.793028999 0.006627187 138 255 41
4.557659557 30.696480313 -0.002977517 131 255 44
4.559502407 30.599893769 -0.011897386 120 255 49
4.559149982 30.502990131 -0.014734518 120 255 49
4.557959706 30.405966132 -0.015249403 120 255 49
4.555874165 30.308814541 -0.013282942 120 255 49
4.551578541 30.211349274 -0.005192521 127 255 46
4.546556771 30.113783477 0.004910824 138 255 41
4.546002437 30.016853112 0.002638642 135 255 43
4.549606902 29.920509483 -0.011154183 124 255 48
4.551856289 29.823971573 -0.021191840 113 255 52
4.550016661 29.726857099 -0.019899970 113 255 52
4.545105034 29.629313152 -0.010096033 124 255 48
4.539124160 29.531622906 0.002671463 135 255 43
4.534185538 29.434081614 0.012552624 146 255 38
4.532934771 29.337055468 0.012217682 146 255 38
4.537633250 29.240853404 -0.004598796 127 255 46
4.545097130 29.145028897 -0.029076035 106 255 56
4.550661344 29.048936303 -0.048289242 87 255 64
4.551668318 28.952212818 -0.054875304 84 255 65
4.546305075 28.854615377 -0.043810999 91 255 62
4.537143121 28.756502487 -0.022220713 113 255 52
4.528854645 28.658514810 -0.003049183 131 255 44
4.525980105 28.561267969 0.001123581 135 255 43
4.529655642 28.464909610 -0.012850496 120 255 49
4.533681159 28.368594945 -0.027793277 106 255 56
4.534342803 28.271823468 -0.033414871 102 255 57
4.531540434 28.174585594 -0.029437684 106 255 56
4.525462041 28.076910468 -0.016382435 116 255 51
4.517369313 27.978970302 0.002255222 135 255 43
4.510357032 27.881179410 0.017900544 149 255 36
4.506332477 27.783789737 0.025268891 156 255 33
4.504227767 27.686656505 0.027318990 156 255 33
4.502464535 27.589569196 0.028424061 160 255 32
4.500747799 27.492488599 0.029401429 160 255 32
4.497205135 27.395168969 0.035439210 164 255 30
4.493025118 27.297767907 0.043244152 171 255 27
4.491639774 27.200733853 0.043306718 171 255 27
4.490929803 27.103787947 0.041499040 171 255 27
4.496954835 27.007715259 0.021030710 153 255 35
4.491975597 26.910214323 0.031054734 160 255 32
4.489542912 26.813044742 0.034023762 164 255 30
4.491008203 26.716377302 0.026193023 156 255 33
4.493807284 26.619878915 0.014667503 146 255 38
4.495614463 26.523250893 0.005891474 138 255 41
4.498041362 26.426699676 -0.004600737 127 255 46
4.494681072 26.329410833 0.000944112 135 255 43
4.497293326 26.232880074 -0.010059614 124 255 48
4.499856667 26.136340383 -0.020926793 113 255 52
4.500231547 26.039522537 -0.025728748 109 255 54
4.499608162 25.942578388 -0.027763432 106 255 56
4.498467151 25.845569208 -0.028362667 106 255 56
4.495755513 25.748364269 -0.024608526 109 255 54
4.491708919 25.650994675 -0.017154000 116 255 51
4.494928454 25.554528026 -0.029833206 106 255 56
4.488729294 25.456894354 -0.016411470 116 255 51
4.483208039 25.359348173 -0.004867023 127 255 46
4.479764333 25.262060579 0.000921540 135 255 43
4.475940928 25.164728382 0.007763468 138 255 41
4.468467405 25.066952921 0.024721546 156 255 33
4.461982926 24.969302740 0.038940121 167 255 28
4.462765718 24.872538044 0.033021167 164 255 30
4.468035652 24.776314416 0.014668606 146 255 38
4.473176626 24.680070457 -0.003325648 131 255 44
4.476787827 24.583638052 -0.017079650 116 255 51
4.478278972 24.486948277 -0.024957541 109 255 54
4.475468396 24.389743177 -0.020913334 113 255 52
4.468677681 24.292065949 -0.005838032 127 255 46
4.463036378 24.194529467 0.006053219 138 255 41
4.460357208 24.097346686 0.009736822 142 255 40
4.458760347 24.000292718 0.010422194 142 255 40
4.457177428 23.903240851 0.011070050 142 255 40
4.456626475 23.806310238 0.008859124 142 255 40
4.458200510 23.709627220 0.000760258 135 255 43
4.460426365 23.613018040 -0.009143988 124 255 48
4.460834207 23.516195674 -0.014008858 120 255 49
4.459426004 23.419162436 -0.013839735 120 255 49
4.458261641 23.322157593 -0.014345265 120 255 49
4.456431612 23.225076491 -0.013004862 120 255 49
4.453092415 23.127823414 -0.007480808 127 255 46
4.450233634 23.030626900 -0.003287021 131 255 44
4.449673783 22.933693005 -0.005463414 127 255 46
4.451608022 22.837041185 -0.014550958 120 255 49
4.453383055 22.740369160 -0.023196245 113 255 52
4.452349293 22.643379127 -0.024055987 109 255 54
4.450114445 22.546254506 -0.021585823 113 255 52
4.448247527 22.449171934 -0.020134240 113 255 52
4.446613010 22.352115902 -0.019325629 116 255 51
4.444443257 22.255000986 -0.017032470 116 255 51
4.440231610 22.157661238 -0.009078969 124 255 48
4.432807333 22.059970024 0.007779720 138 255 41
4.423910538 21.962122073 0.028720887 160 255 32
4.417516924 21.864554028 0.042725591 171 255 27
4.416740954 21.767602556 0.041161681 171 255 27
4.421472304 21.671249218 0.024334706 156 255 33
4.428670808 21.575158581 0.000670648 135 255 43
4.433249251 21.478779042 -0.015730660 116 255 51
4.431976874 21.381766339 -0.015914553 116 255 51
4.427500390 21.284410669 -0.007216608 127 255 46
4.426373477 21.187415145 -0.007801411 124 255 48
4.427651682 21.090675487 -0.015051360 120 255 49
4.428586758 20.993897732 -0.021349209 113 255 52
4.428063600 20.896964548 -0.023604181 109 255 54
4.425632797 20.799830335 -0.020570570 113 255 52
4.422358261 20.702608791 -0.015197192 120 255 49
4.419513073 20.605433829 -0.011012696 124 255 48
4.416880166 20.508282371 -0.007415439 127 255 46
4.413977910 20.411104248 -0.003070453 131 255 44
4.410422437 20.313860123 0.003086286 135 255 43
4.405532097 20.216480608 0.012944212 146 255 38
4.401017511 20.119142595 0.021761828 153 255 35
4.398796251 20.022041496 0.024223895 156 255 33
4.401885322 19.925481650 0.011967604 142 255 40
4.407204960 19.829144779 -0.006470543 127 255 46
4.410872437 19.732636236 -0.020328151 113 255 52
4.409724305 19.635639679 -0.020836383 113 255 52
4.402172731 19.538001511 -0.003593700 131 255 44
4.393651578 19.440271568 0.016337875 149 255 36
4.390992479 19.343130372 0.020021483 153 255 35
4.392617113 19.246414831 0.011831921 142 255 40
4.397768796 19.150045352 -0.006133479 127 255 46
4.394065448 19.052800698 0.000448065 135 255 43
4.396648110 18.956173641 -0.010394018 124 255 48
4.396337908 18.859261685 -0.013216036 120 255 49
4.396043331 18.762350723 -0.016080277 116 255 51
4.399471259 18.665799456 -0.029262360 106 255 56
4.407781777 18.569715425 -0.055978250 80 255 67
4.414844117 18.473504437 -0.079233258 58 255 76
4.411705877 18.376311878 -0.074210552 66 255 73
4.399529527 18.278260174 -0.044132193 91 255 62
4.381896508 18.179699432 0.001074050 135 255 43
4.366398575 18.081353139 0.040363141 171 255 27
4.351467492 17.983071286 0.078082355 204 255 12
4.347020265 17.885782526 0.086740249 211 255 9
4.338581005 13.718985221 -0.046664680 91 255 62
4.275463009 9.547728119 -0.026416560 109 255 54
4.264548746 8.674889500 -0.028284894 106 255 56
4.248658800 7.898708063 -0.012705892 120 255 49
4.145353588 -1.991890559 -0.083215574 55 255 78
4.134888427 -2.088996861 -0.057619696 80 255 67
4.129873370 -2.186017447 -0.047146309 87 255 64
4.131810723 -2.282937534 -0.055964496 80 255 67
4.136629914 -2.379820602 -0.072778730 66 255 73
4.139657886 -2.476731874 -0.084621368 55 255 78
4.138243740 -2.573703389 -0.084136034 55 255 78
4.134177710 -2.670707694 -0.076290505 62 255 75
4.130945613 -2.767699571 -0.070757987 69 255 72
4.129925632 -2.864663836 -0.071363055 66 255 73
4.129286266 -2.961623786 -0.073023244 66 255 73
4.126727397 -3.058605036 -0.069355539 69 255 72
4.123096194 -3.155596429 -0.062710846 76 255 68
4.120716947 -3.252573071 -0.059539291 76 255 68
4.119310921 -3.349539135 -0.059067399 76 255 68
4.116817183 -3.446515137 -0.055575829 80 255 67
4.112965145 -3.543502270 -0.048313614 87 255 64
4.108898885 -3.640489079 -0.040455706 95 255 60
4.105021341 -3.737471991 -0.033120322 102 255 57
4.113095717 -3.834358542 -0.058952678 76 255 68
4.107760041 -3.931352576 -0.047568458 87 255 64
4.111275263 -4.028280353 -0.060746226 76 255 68
4.110953404 -4.125237422 -0.063274197 73 255 70
4.106104124 -4.222223749 -0.053236343 84 255 65
4.108280535 -4.319165255 -0.062695426 76 255 68
4.104128033 -4.416144510 -0.054588986 84 255 65
4.103831942 -4.513101330 -0.057184018 80 255 67
4.106070861 -4.610046508 -0.066813379 73 255 70
4.109258754 -4.706989981 -0.079075423 58 255 76
4.113373674 -4.803932932 -0.093909275 47 255 81
4.108061676 -4.900914323 -0.082579198 58 255 76
4.114083893 -4.997855282 -0.102704411 36 255 86
4.107806363 -5.094837224 -0.088692319 51 255 80
4.104620541 -5.191807373 -0.083259654 55 255 78
4.107190684 -5.288763622 -0.093800925 47 255 81
4.103600737 -5.385733357 -0.087244385 51 255 80
4.105269408 -5.482693972 -0.095281570 44 255 83
4.104133213 -5.579659385 -0.095532979 44 255 83
4.105729734 -5.676623089 -0.103367799 36 255 86
4.102198566 -5.773589867 -0.096969843 44 255 83
4.099252741 -5.870554820 -0.092195314 47 255 81
4.094627479 -5.967517355 -0.082758354 55 255 78
4.088137206 -6.064475366 -0.068143829 69 255 72
4.081449131 -6.161428917 -0.052979039 84 255 65
4.076394022 -6.258380911 -0.042345339 95 255 60
4.074679576 -6.355336800 -0.040982591 95 255 60
4.077437663 -6.452303233 -0.052032505 84 255 65
4.082183167 -6.549278249 -0.068597634 69 255 72
4.084612950 -6.646250174 -0.078734316 58 255 76
4.084963838 -6.743217204 -0.083099793 55 255 78
4.085645285 -6.840186612 -0.088381700 51 255 80
4.085938951 -6.937155619 -0.092586204 47 255 81
4.083371629 -7.034111964 -0.088848548 51 255 80
4.077542358 -7.131050283 -0.076055687 62 255 75
4.070097666 -7.227975954 -0.058777708 80 255 67
4.064266344 -7.324906262 -0.045976647 91 255 62
4.063181080 -7.421862838 -0.046347963 91 255 62
4.065844830 -7.518844468 -0.057124346 80 255 67
4.069209193 -7.615833885 -0.069844427 69 255 72
4.071385640 -7.712817799 -0.079266168 58 255 76
4.070683219 -7.809781576 -0.080695862 58 255 76
4.067864014 -7.906728173 -0.076248756 62 255 75
4.065750261 -8.003679467 -0.073758668 66 255 73
4.065883520 -8.100650141 -0.077504676 62 255 75
4.068370263 -8.197643779 -0.087782417 51 255 80
4.071764667 -8.294648972 -0.100578644 40 255 84
4.073760608 -8.391643360 -0.109491978 33 255 88
4.072785162 -8.488608767 -0.110156168 33 255 88
4.068962356 -8.585543126 -0.102915376 36 255 86
4.063051765 -8.682451743 -0.089877968 51 255 80
4.056336912 -8.779347213 -0.074606776 66 255 73
4.050233257 -8.876245689 -0.061030943 76 255 68
4.045427014 -8.973156419 -0.051055363 87 255 64
4.042848684 -9.070092839 -0.047263093 87 255 64
4.043236668 -9.167067272 -0.051703982 84 255 65
4.045849280 -9.264073046 -0.062319263 76 255 68
4.049911907 -9.361101888 -0.076958722 62 255 75
4.054581156 -9.458143348 -0.093281179 47 255 81
4.057184290 -9.555158694 -0.103867155 36 255 86
4.057671670 -9.652144796 -0.108578765 33 255 88
4.056841462 -9.749111608 -0.109631650 33 255 88
4.054055272 -9.846047460 -0.105253552 36 255 86
4.049565746 -9.942954214 -0.096145750 44 255 83
4.046774869 -10.039886627 -0.091752299 47 255 81
4.046694037 -10.136863902 -0.094880979 44 255 83
4.045055916 -10.233814743 -0.093685399 47 255 81
4.039441336 -10.330694242 -0.081449627 58 255 76
4.033036592 -10.427555831 -0.067019035 69 255 72
4.030482887 -10.524484880 -0.063278170 73 255 70
4.030382181 -10.621459295 -0.066346028 73 255 70
4.029091786 -10.718411389 -0.066110038 73 255 70
4.025866944 -10.815325091 -0.060502571 76 255 68
4.023795385 -10.912260312 -0.058095658 80 255 67
4.026014511 -11.009282722 -0.067599394 69 255 72
4.028187022 -11.106306647 -0.076972695 62 255 75
4.026574152 -11.203252488 -0.075835902 62 255 75
4.022433912 -11.300143136 -0.067681397 69 255 72
4.020415854 -11.397078171 -0.065417410 73 255 70
4.023609367 -11.494129322 -0.077620985 62 255 75
4.029402381 -11.591243006 -0.097040502 44 255 83
4.033475785 -11.688322036 -0.111684951 29 255 89
4.033137636 -11.785300962 -0.114080605 29 255 89
4.029592832 -11.882203578 -0.107572472 33 255 88
4.025359737 -11.979087502 -0.099152232 40 255 84
4.022704974 -12.076007995 -0.095112788 44 255 83
4.021856089 -12.172972587 -0.096085959 44 255 83
4.022266642 -12.269969425 -0.100554687 40 255 84
4.024013237 -12.367001943 -0.108731715 33 255 88
4.025914870 -12.464040659 -0.117338151 25 255 91
4.024440448 -12.560991656 -0.116570231 25 255 91
4.021852987 -12.657912220 -0.112710914 29 255 89
4.022095587 -12.754909173 -0.116707943 25 255 91
4.024269245 -12.851960781 -0.126065383 15 255 96
4.025080381 -12.948976445 -0.131638803 11 255 97
4.023338272 -13.045920578 -0.130122123 11 255 97
4.018993621 -13.142788816 -0.121378368 22 255 92
4.012827062 -13.239601061 -0.107574872 33 255 88
4.015106086 -13.336660349 -0.117219467 25 255 91
4.011517318 -13.433545540 -0.110570909 29 255 89
4.010199038 -13.530497981 -0.110225291 29 255 89
4.011601562 -13.627534189 -0.117433033 25 255 91
4.015394311 -13.724646964 -0.131276369 11 255 97
4.008082431 -13.821412115 -0.114285736 25 255 91
4.010684279 -13.918489892 -0.124820301 18 255 94
4.005358303 -14.015313551 -0.113341328 29 255 89
4.006505830 -14.112346169 -0.119835650 22 255 92
4.008242345 -14.209399993 -0.127964327 15 255 96
4.007159218 -14.306361321 -0.128262790 15 255 96
4.004032449 -14.403253244 -0.122885620 18 255 94
4.000741377 -14.500137914 -0.117051065 25 255 91
3.998214561 -14.597047372 -0.113337445 29 255 89
3.997855062 -14.694031733 -0.115640685 25 255 91
4.000171508 -14.791111538 -0.125373190 18 255 94
4.003971018 -14.888247092 -0.139222753 4 255 100
4.007545653 -14.985378200 -0.152446915 0 254 108
4.011407298 -15.082523354 -0.166467048 0 252 120
4.008748075 -15.179430916 -0.162379199 0 252 117
3.997783838 -15.276026658 -0.135228907 7 255 99
3.987563638 -15.372642880 -0.110143282 33 255 88
3.981936971 -15.469427347 -0.097811705 44 255 83
3.980854833 -15.566383459 -0.098098279 44 255 83
3.982538134 -15.663447189 -0.106062940 36 255 86
3.985469848 -15.760562080 -0.117493227 25 255 91
3.988552174 -15.857685991 -0.129340741 15 255 96
3.990303466 -15.954759706 -0.137491125 7 255 99
3.990833759 -16.051786146 -0.142249882 0 255 102
3.991263055 -16.148809657 -0.146727110 0 254 105
3.991849131 -16.245840751 -0.151638632 0 254 108
3.989764868 -16.342761951 -0.149133717 0 254 105
3.982588158 -16.439468449 -0.132486179 11 255 97
3.976039035 -16.536196827 -0.117580152 25 255 91
3.973866550 -16.633108152 -0.114826697 25 255 91
3.975064697 -16.730164053 -0.121432327 22 255 92
3.976136942 -16.827216182 -0.127687274 15 255 96
3.975191318 -16.924181297 -0.128337502 15 255 96
3.973190284 -17.021099715 -0.126055713 15 255 96
3.971425903 -17.118027963 -0.124429983 18 255 94
3.969621340 -17.214953835 -0.122691535 18 255 94
3.966969677 -17.311840604 -0.118599497 22 255 92
3.965344834 -17.408773198 -0.117357874 25 255 91
3.965806965 -17.505801804 -0.121910859 22 255 92
3.966956239 -17.602863582 -0.128371047 15 255 96
3.965337865 -17.699796974 -0.127144073 15 255 96
3.960493036 -17.796577055 -0.116955652 25 255 91
3.956374455 -17.893388893 -0.108782920 33 255 88
3.956138863 -17.990385302 -0.111392705 29 255 89
3.958775977 -18.087521729 -0.121979431 22 255 92
3.960933015 -18.184637490 -0.131231879 11 255 97
3.961005784 -18.281652951 -0.134694849 7 255 99
3.958503595 -18.378541334 -0.131005513 11 255 97
3.953610701 -18.475308898 -0.120675474 22 255 92
3.949299981 -18.572102865 -0.111961062 29 255 89
3.948879620 -18.669092068 -0.114049999 29 255 89
3.951867247 -18.766256283 -0.125602767 18 255 94
3.956158983 -18.863490876 -0.140776417 4 255 100
3.959043021 -18.960656378 -0.152039499 0 254 108
3.958569042 -19.057649033 -0.153975300 0 253 111
3.954490985 -19.154451993 -0.145900292 0 254 105
3.948827712 -19.251168379 -0.133421404 11 255 97
3.944858406 -19.347971870 -0.125646032 18 255 94
3.943772687 -19.444928540 -0.125878258 18 255 94
3.944282735 -19.541971800 -0.130541428 11 255 97
3.944428441 -19.638996323 -0.134191607 7 255 99
3.943937684 -19.735986709 -0.136072989 7 255 99
3.942362408 -19.832917384 -0.134941109 7 255 99
3.938063084 -19.929695573 -0.126242228 15 255 96
3.931646828 -20.026352263 -0.111662476 29 255 89
3.925437051 -20.123016503 -0.097654957 44 255 83
3.922246025 -20.219848761 -0.092030703 47 255 81
3.922719365 -20.316889550 -0.096583022 44 255 83
3.924668544 -20.414016716 -0.105233424 36 255 86
3.924525730 -20.511024568 -0.108072247 33 255 88
3.921111531 -20.607841685 -0.101823609 40 255 84
3.916881364 -20.704608914 -0.093307410 47 255 81
3.914957948 -20.801510432 -0.091197148 47 255 81
3.915248473 -20.898543359 -0.095235136 44 255 83
3.915044465 -20.995547606 -0.097898441 44 255 83
3.919653090 -21.092843328 -0.113928219 29 255 89
3.917574537 -21.189736691 -0.111382655 29 255 89
3.912210428 -21.286428172 -0.099709907 40 255 84
3.918640654 -21.383842677 -0.120796340 22 255 92
3.923456566 -21.481162877 -0.137397859 7 255 99
3.923496634 -21.578189782 -0.140732728 4 255 100
3.921259884 -21.675074669 -0.137742246 7 255 99
3.916399390 -21.771793017 -0.127462664 15 255 96
3.902435190 -21.867930291 -0.091894451 47 255 81
3.879826281 -21.963505329 -0.032312202 102 255 57
3.870495435 -22.059917218 -0.009611180 124 255 48
3.846679976 -24.289579825 -0.017153748 116 255 51
3.654797605 -42.126705804 -0.052649315 84 255 65
3.653112042 -42.223553765 -0.050953110 87 255 64
3.655985281 -42.321060546 -0.061931668 76 255 68
3.654338401 -42.417914878 -0.060340852 76 255 68
3.649289687 -42.514274135 -0.049289929 87 255 64
3.644591267 -42.610681373 -0.039211820 98 255 59
3.642114170 -42.707410474 -0.035309086 98 255 59
3.638854796 -42.804023828 -0.029230019 106 255 56
3.633959479 -42.900395098 -0.018600876 116 255 51
3.628745816 -42.996716503 -0.007085332 127 255 46
3.626343569 -43.093449952 -0.003386102 131 255 44
3.627060766 -43.190644307 -0.008359813 124 255 48
3.629953340 -43.288163000 -0.019381463 116 255 51
3.634825265 -43.385979365 -0.035906052 98 255 59
3.639759044 -43.483809511 -0.052601697 84 255 65
3.640579145 -43.581028735 -0.057857488 80 255 67
3.634746133 -43.677251339 -0.044611821 91 255 62
3.626371010 -43.773087925 -0.024296006 109 255 54
3.621940176 -43.869513597 -0.014946946 120 255 49
3.623259917 -43.966805959 -0.021587640 113 255 52
3.628152857 -44.064641665 -0.038163540 98 255 59
3.634067468 -44.162637169 -0.057579543 80 255 67
3.636842899 -44.260159861 -0.068265218 69 255 72
3.633492661 -44.356750055 -0.061915584 76 255 68
3.625370732 -44.452607964 -0.042295569 95 255 60
3.622887785 -44.549325875 -0.038355348 98 255 59
3.613617245 -44.644998324 -0.015538724 120 255 49
3.606216276 -44.740952813 0.002080199 135 255 43
3.603640147 -44.837648479 0.006283110 138 255 41
3.606387098 -44.935168129 -0.004315728 127 255 46
3.609516919 -45.032750193 -0.015978296 116 255 51
3.608534097 -45.129694774 -0.016202970 116 255 51
3.604919671 -45.226228417 -0.009108244 124 255 48
3.603177787 -45.323053237 -0.007219784 127 255 46
3.601993703 -45.419965059 -0.006881424 127 255 46
3.600759481 -45.516868882 -0.006402532 127 255 46
3.601652450 -45.614108039 -0.011838216 120 255 49
3.604817749 -45.711707930 -0.023592191 109 255 54
3.611023013 -45.809792838 -0.043799349 91 255 62
3.618537636 -45.908091338 -0.067646960 69 255 72
3.619382413 -46.005334243 -0.072944629 66 255 73
3.611782505 -46.101230522 -0.054756179 84 255 65
3.601484548 -46.196690005 -0.029063022 106 255 56
3.594517391 -46.292676642 -0.012631724 120 255 49
3.594333049 -46.389749331 -0.015062772 120 255 49
3.599641722 -46.487708023 -0.032769379 102 255 57
3.606764463 -46.585964686 -0.055520188 80 255 67
3.609108567 -46.683453754 -0.064980121 73 255 70
3.601052553 -46.779257163 -0.045514854 91 255 62
3.590973272 -46.874725952 -0.020421289 113 255 52
3.584982397 -46.970854605 -0.006696929 127 255 46
3.581555257 -47.067398581 -0.000101554 131 255 44
3.580197714 -47.164279866 0.000739032 135 255 43
3.579817642 -47.261321463 -0.001137828 131 255 44
3.579231331 -47.358329612 -0.002440016 131 255 44
3.579240388 -47.455436362 -0.005396976 127 255 46
3.580410208 -47.552735923 -0.011581238 124 255 48
3.581934502 -47.650095956 -0.018750347 116 255 51
3.582799753 -47.747348443 -0.024085452 109 255 54
3.582543680 -47.844415623 -0.026300788 109 255 54
3.580496324 -47.941184349 -0.023532955 109 255 54
3.577743906 -48.037834317 -0.018803003 116 255 51
3.577481141 -48.134900534 -0.020996447 113 255 52
3.580485902 -48.232516642 -0.032276919 102 255 57
3.584087620 -48.330236448 -0.045216752 91 255 62
3.586359319 -48.427735219 -0.054456342 84 255 65
3.586192735 -48.524823832 -0.056913137 80 255 67
3.583376544 -48.621463620 -0.051999262 84 255 65
3.580645271 -48.718116479 -0.047320436 87 255 64
3.579926622 -48.815111020 -0.048238422 87 255 64
3.578745904 -48.912026886 -0.047870109 87 255 64
3.574953705 -49.008495591 -0.040237005 95 255 60
3.571605605 -49.105038371 -0.033837978 102 255 57
3.570314906 -49.201933159 -0.033160401 102 255 57
3.569168009 -49.298852537 -0.032881705 102 255 57
3.567209302 -49.395631609 -0.030343865 106 255 56
3.564304667 -49.492246222 -0.025173797 109 255 54
3.563138596 -49.589161035 -0.024838445 109 255 54
3.563877538 -49.686407000 -0.029800864 106 255 56
3.562401687 -49.783268367 -0.028601676 106 255 56
3.557284791 -49.879493477 -0.017273576 116 255 51
3.550366388 -49.975400114 -0.000933241 131 255 44
3.546810552 -50.071892095 0.006055052 138 255 41
3.548366268 -50.169280793 -0.001173815 131 255 44
3.553527787 -50.267306809 -0.018431627 116 255 51
3.559148598 -50.365418704 -0.036966090 98 255 59
3.561140697 -50.462893576 -0.045405849 91 255 62
3.558705509 -50.559585608 -0.041529397 95 255 60
3.554998413 -50.656050502 -0.034113785 102 255 57
3.552514391 -50.752731194 -0.030099214 106 255 56
3.550450701 -50.849485805 -0.027252748 109 255 54
3.547943486 -50.946160284 -0.023171406 113 255 52
3.544962492 -51.042748695 -0.017771012 116 255 51
3.541097294 -51.139176753 -0.009909849 124 255 48
3.536630883 -51.235494389 -0.000375092 131 255 44
3.533542206 -51.332057969 0.005328316 138 255 41
3.532798844 -51.429044040 0.004508724 138 255 41
3.534808707 -51.526529225 -0.003968680 127 255 46
3.538513848 -51.624324597 -0.017161003 116 255 51
3.539285659 -51.721589842 -0.022192373 113 255 52
3.537582322 -51.818405123 -0.020337259 113 255 52
3.535835873 -51.915212012 -0.018361101 116 255 51
3.534198996 -52.012038422 -0.016688648 116 255 51
3.532631906 -52.108877177 -0.015209226 120 255 49
3.530963986 -52.205696983 -0.013448201 120 255 49
3.529072586 -52.302475120 -0.011064370 124 255 48
3.526180570 -52.399067817 -0.005895800 127 255 46
3.523577632 -52.495712582 -0.001530286 131 255 44
3.528440658 -52.593740616 -0.017933477 116 255 51
3.525754471 -52.690370375 -0.013334199 120 255 49
3.527527053 -52.787829126 -0.021137920 113 255 52
3.527670190 -52.884985998 -0.024407546 109 255 54
3.536153363 -52.983703194 -0.050878007 87 255 64
3.540102854 -53.081578275 -0.064734912 73 255 70
3.541053191 -53.178894108 -0.070247166 69 255 72
3.542244093 -53.276256732 -0.076427641 62 255 75
3.542901552 -53.373520508 -0.081123022 58 255 76
3.538962687 -53.469917318 -0.073030129 66 255 73
3.528955959 -53.565163301 -0.048054856 87 255 64
3.528365762 -53.662188466 -0.049275818 87 255 64
3.527047537 -53.759075604 -0.048470257 87 255 64
3.523003680 -53.855443439 -0.040080596 95 255 60
3.526035346 -53.953159193 -0.051374734 84 255 65
3.526542839 -54.050395417 -0.055645299 80 255 67
3.524903650 -54.147221521 -0.053942427 84 255 65
3.520383361 -54.243494025 -0.044222764 91 255 62
3.521290180 -54.340807875 -0.049601085 87 255 64
3.514599697 -54.436658778 -0.033841240 102 255 57
3.513493118 -54.533583822 -0.033615706 102 255 57
3.517413291 -54.631481634 -0.047374582 87 255 64
3.520160944 -54.729155898 -0.057870283 80 255 67
3.519634380 -54.826196899 -0.059255333 76 255 68
3.519767936 -54.923366808 -0.062475930 76 255 68
3.521670857 -55.020882770 -0.070618314 69 255 72
3.522089711 -55.118110928 -0.074630598 66 255 73
3.520816620 -55.215008855 -0.073934344 66 255 73
3.521013986 -55.312195142 -0.077328256 62 255 75
3.523023594 -55.409738689 -0.085763353 55 255 78
3.522946495 -55.506873507 -0.088391524 51 255 80
3.518636261 -55.603173518 -0.079240585 58 255 76
3.514070076 -55.699420386 -0.069376322 69 255 72
3.513919807 -55.796539563 -0.071797607 66 255 73
3.515382635 -55.893979683 -0.078706082 58 255 76
3.514513361 -55.990957819 -0.079124697 58 255 76
3.512384567 -56.087685049 -0.076037726 62 255 75
3.510803624 -56.184520839 -0.074473992 66 255 73
3.509128419 -56.281337349 -0.072646878 66 255 73
3.507538866 -56.378170537 -0.071056980 66 255 73
3.506806854 -56.475175535 -0.071852060 66 255 73
3.504840268 -56.571932327 -0.069210886 69 255 72
3.500720072 -56.668254186 -0.060576195 76 255 68
3.497422405 -56.764739824 -0.054229026 84 255 65
3.497804631 -56.861968501 -0.058120084 80 255 67
3.499594644 -56.959483738 -0.065927302 73 255 70
3.500146692 -57.056749644 -0.070288816 69 255 72
3.499597009 -57.153792518 -0.071583652 66 255 73
3.498691325 -57.250763165 -0.071886819 66 255 73
3.497744570 -57.347725520 -0.072074618 66 255 73
3.496289590 -57.444583906 -0.070847145 66 255 73
3.493586782 -57.541186051 -0.066146359 73 255 70
3.489816022 -57.637567472 -0.058472728 80 255 67
3.486633551 -57.734067889 -0.052434937 84 255 65
3.485629598 -57.831015963 -0.052458057 84 255 65
3.486283541 -57.928306635 -0.057093460 80 255 67
3.487006302 -58.025612854 -0.061919318 76 255 68
3.487838057 -58.122943034 -0.067047433 69 255 72
3.490131795 -58.220578436 -0.076242779 62 255 75
3.493189796 -58.318375503 -0.087563853 51 255 80
3.495652234 -58.416051514 -0.097226659 44 255 83
3.494453538 -58.512965245 -0.096700477 44 255 83
3.490062263 -58.609210545 -0.087289033 51 255 80
3.487434168 -58.705823024 -0.082782941 55 255 78
3.487032419 -58.802902031 -0.084471158 55 255 78
3.485039203 -58.899646543 -0.081729579 58 255 76
3.479641219 -58.995672343 -0.069512070 69 255 72
3.473739314 -59.091588322 -0.055891039 80 255 67
3.469783989 -59.187912527 -0.047685806 87 255 64
3.468136887 -59.284723889 -0.045902846 91 255 62
3.467533994 -59.381756582 -0.047024675 91 255 62
3.466191345 -59.478632187 -0.046086784 91 255 62
3.462140219 -59.574930146 -0.037610408 98 255 59
3.455813049 -59.670739681 -0.022798863 113 255 52
3.452839902 -59.767262748 -0.017320055 116 255 51
3.455426739 -59.864976056 -0.027313147 109 255 54
3.460631903 -59.963254380 -0.044591899 91 255 62
3.465325151 -60.061427395 -0.060445094 76 255 68
3.467323331 -60.159024042 -0.068797070 69 255 72
3.465737269 -60.255849244 -0.067173163 69 255 72
3.461317658 -60.352061209 -0.057662409 80 255 67
3.456122136 -60.448102457 -0.045991118 91 255 62
3.452793716 -60.544545732 -0.039514814 95 255 60
3.453595858 -60.641885327 -0.044532860 91 255 62
3.458006033 -60.740012209 -0.059591197 76 255 68
3.461239316 -60.837886492 -0.071373229 66 255 73
3.457820918 -60.934310121 -0.064642180 73 255 70
3.450416661 -61.029859131 -0.046816994 91 255 62
3.445418274 -61.125930964 -0.035686333 98 255 59
3.444130043 -61.222815006 -0.034880267 102 255 57
3.445173185 -61.320212043 -0.040561614 95 255 60
3.446821574 -61.417744143 -0.047926422 87 255 64
3.446328778 -61.514805329 -0.049330974 87 255 64
3.442642032 -61.611160167 -0.041845164 95 255 60
3.437903344 -61.707279775 -0.031430463 102 255 57
3.435395033 -61.803891785 -0.027222147 109 255 54
3.437742813 -61.901582838 -0.036528206 98 255 59
3.450159651 -62.001520128 -0.073857658 66 255 73
3.464087885 -62.101805150 -0.115392944 25 255 91
3.278605142 -82.179097603 -0.149480497 0 254 105
3.263046547 -82.271648091 -0.108685403 33 255 88
3.248733874 -82.364565948 -0.071359974 66 255 73
3.242281026 -82.459865083 -0.055930459 80 255 67
3.236961915 -82.555505407 -0.043658330 91 255 62
3.234064104 -82.651881004 -0.038130788 98 255 59
3.236126253 -82.749770085 -0.046420688 91 255 62
3.240496642 -82.848367441 -0.061140444 76 255 68
3.244394567 -82.946824267 -0.074542977 66 255 73
3.246135507 -83.044623544 -0.081935092 58 255 76
3.244135446 -83.141276504 -0.078903522 58 255 76
3.238160361 -83.236706879 -0.064796118 73 255 70
3.239429250 -83.334362779 -0.070869946 66 255 73
3.234886890 -83.430229728 -0.060751995 76 255 68
3.235925239 -83.527815743 -0.066181441 73 255 70
3.240263880 -83.626422838 -0.080804951 58 255 76
3.233737827 -83.721673569 -0.065156876 73 255 70
3.239592575 -83.820754220 -0.084002529 55 255 78
3.230704736 -83.915268839 -0.061771865 76 255 68
3.219142195 -84.008946957 -0.032087715 102 255 57
3.211201371 -84.103742704 -0.012493070 120 255 49
3.211091449 -84.200970328 -0.014715765 120 255 49
3.217629336 -84.300270230 -0.035459741 98 255 59
3.227177753 -84.400515260 -0.064590918 73 255 70
3.234233225 -84.499989650 -0.086775333 51 255 80
3.233093337 -84.596906897 -0.086124447 55 255 78
3.224392428 -84.691456152 -0.064405381 73 255 70
3.214209665 -84.785534799 -0.038556181 98 255 59
3.208612727 -84.881046013 -0.025483198 109 255 54
3.210319150 -84.978849310 -0.032758536 102 255 57
3.215321937 -85.077692099 -0.049217652 87 255 64
3.217144207 -85.175537332 -0.056813851 80 255 67
3.213921307 -85.271793044 -0.050351424 87 255 64
3.208788242 -85.367443652 -0.038565458 98 255 59
3.205260088 -85.463598621 -0.031250224 106 255 56
3.205762501 -85.561027888 -0.035164635 102 255 57
3.209370591 -85.659442908 -0.047731718 87 255 64
3.209562815 -85.756777209 -0.050779821 87 255 64
3.204723600 -85.852513389 -0.039807119 95 255 60
3.199950135 -85.948267507 -0.029016475 106 255 56
3.198626272 -86.045117667 -0.027836863 106 255 56
3.199846808 -86.142779140 -0.033746096 102 255 57
3.201198053 -86.240484056 -0.040018550 95 255 60
3.200152883 -86.337424544 -0.039612400 95 255 60
3.196433899 -86.433509020 -0.031754581 102 255 57
3.191993648 -86.529360201 -0.021885807 113 255 52
3.188912682 -86.625644899 -0.015803593 116 255 51
3.189412496 -86.723078428 -0.019698304 113 255 52
3.192467132 -86.821334918 -0.030711183 106 255 56
3.195478943 -86.919580732 -0.041603779 95 255 60
3.196635028 -87.017231259 -0.047324276 87 255 64
3.196269243 -87.114392123 -0.048802930 87 255 64
3.195370100 -87.211381068 -0.048794282 87 255 64
3.194483702 -87.308374196 -0.048820105 87 255 64
3.195296694 -87.405917984 -0.053580469 84 255 65
3.199870507 -87.504683091 -0.068819946 69 255 72
3.205136461 -87.603677274 -0.085987284 55 255 78
3.206581564 -87.701433919 -0.092506238 47 255 81
3.201533696 -87.797078711 -0.080930274 58 255 76
3.191169838 -87.890987728 -0.054539045 84 255 65
3.180560006 -87.984809219 -0.027461059 106 255 56
3.174175383 -88.080003634 -0.012156310 120 255 49
3.174668337 -88.177443429 -0.016016435 116 255 51
3.181226202 -88.276870455 -0.036777000 98 255 59
3.189389213 -88.376829570 -0.062009888 76 255 68
3.194386570 -88.475756634 -0.078419965 62 255 75
3.194684888 -88.573144051 -0.081733872 58 255 76
3.191159661 -88.669274423 -0.074391263 66 255 73
3.184719504 -88.764442620 -0.058924141 80 255 67
3.176428603 -88.858996223 -0.038298109 98 255 59
3.167857719 -88.953451719 -0.016890564 116 255 51
3.160708812 -89.048371395 0.000555368 135 255 43
3.156805574 -89.144360459 0.008957228 142 255 40
3.158578414 -89.242227970 0.001541614 135 255 43
3.164190288 -89.341371116 -0.016572040 116 255 51
3.169660438 -89.440472283 -0.034289840 102 255 57
3.173002161 -89.538870726 -0.046074989 91 255 62
3.172825024 -89.636101116 -0.048052344 87 255 64
3.170409856 -89.732586237 -0.043791387 91 255 62
3.168660361 -89.829292348 -0.041384552 95 255 60
3.168119367 -89.926401551 -0.042344716 95 255 60
3.169480760 -90.024147309 -0.048605788 87 255 64
3.174269694 -90.123042483 -0.064418447 73 255 70
3.177005158 -90.221253768 -0.074507148 66 255 73
3.174891417 -90.317840543 -0.071080014 66 255 73
3.169905855 -90.413461548 -0.059647911 76 255 68
3.165556705 -90.509293511 -0.049988372 87 255 64
3.163458626 -90.605880919 -0.046601597 91 255 62
3.159950449 -90.701992044 -0.039283685 95 255 60
3.152128624 -90.796645216 -0.019942108 113 255 52
3.142513916 -90.890687238 0.004397651 138 255 41
3.144862288 -90.988769715 -0.004603885 127 255 46
3.140595747 -91.084614349 0.004832192 138 255 41
3.144307447 -91.183161663 -0.007967139 124 255 48
3.146479283 -91.281189864 -0.016473694 116 255 51
3.147404564 -91.378796847 -0.021504924 113 255 52
3.148995501 -91.476631771 -0.028390463 106 255 56
3.152448206 -91.575102832 -0.040464143 95 255 60
3.154104477 -91.672964704 -0.047529851 87 255 64
3.150864648 -91.769157080 -0.040948047 95 255 60
3.143538387 -91.863951012 -0.022975280 113 255 52
3.142783657 -91.960988609 -0.023317812 113 255 52
3.135143167 -92.055667588 -0.004466877 127 255 46
3.134294579 -92.152670649 -0.004545636 127 255 46
3.142970212 -92.252943768 -0.031170122 106 255 56
3.146261517 -92.351373644 -0.042786060 95 255 60
3.152257110 -92.450737370 -0.061938769 76 255 68
3.151408729 -92.547748774 -0.062014209 76 255 68
3.149032344 -92.644233283 -0.057829541 80 255 67
3.149651463 -92.741750942 -0.061993326 76 255 68
3.151436480 -92.839672817 -0.069405894 69 255 72
3.149792364 -92.936410193 -0.067259193 69 255 72
3.142825070 -93.031302939 -0.050273642 87 255 64
3.142410242 -93.128463523 -0.051551278 84 255 65
3.136884167 -93.223849893 -0.038580701 98 255 59
3.135236997 -93.320580986 -0.036421146 98 255 59
3.134663310 -93.417685089 -0.037252806 98 255 59
3.131438254 -93.513865848 -0.030692855 106 255 56
3.125605705 -93.609135487 -0.016863493 116 255 51
3.122690496 -93.705419899 -0.011165002 124 255 48
3.128156041 -93.804632059 -0.028826746 106 255 56
3.138781889 -93.905654827 -0.060872003 76 255 68
3.136482947 -94.002159039 -0.056888380 80 255 67
3.136227051 -94.099378672 -0.058598744 80 255 67
3.141684495 -94.198604630 -0.076234295 62 255 75
3.139213040 -94.295048872 -0.071766683 66 255 73
3.138614263 -94.392150829 -0.072518219 66 255 73
3.136852329 -94.488843356 -0.070026324 69 255 72
3.131456329 -94.584253814 -0.057403046 80 255 67
3.124354806 -94.679058769 -0.040024279 95 255 60
3.117970322 -94.774112359 -0.024643147 109 255 54
3.113618099 -94.869880714 -0.014926044 120 255 49
3.113337308 -94.967088400 -0.016557549 116 255 51
3.118928359 -95.066378485 -0.034556755 102 255 57
3.126743491 -95.166463048 -0.058755108 80 255 67
3.130998431 -95.265289357 -0.073027938 66 255 73
3.130154035 -95.362305782 -0.073084434 66 255 73
3.126233551 -95.458226883 -0.064564632 73 255 70
3.120864989 -95.553629458 -0.052006868 84 255 65
3.113819502 -95.648430154 -0.034773118 102 255 57
3.108454214 -95.743826400 -0.022222155 113 255 52
3.108433739 -95.841130797 -0.024570136 109 255 54
3.110079927 -95.939032634 -0.031563392 102 255 57
3.110807174 -96.036607105 -0.035993860 98 255 59
3.110829854 -96.133930063 -0.038459138 98 255 59
3.110866867 -96.231258915 -0.040963361 95 255 60
3.110481387 -96.328436603 -0.042288733 95 255 60
3.109767561 -96.425496525 -0.042697706 95 255 60
3.111628896 -96.523484607 -0.050284828 87 255 64
3.118038744 -96.623115718 -0.070551651 69 255 72
3.126250486 -96.723403244 -0.095841092 44 255 83
3.133028365 -96.823179485 -0.117132273 25 255 91
3.136005040 -96.921586014 -0.127825210 15 255 96
3.131437178 -97.017262225 -0.117483633 25 255 91
3.119608046 -97.110302095 -0.086896984 51 255 80
3.106786632 -97.202973267 -0.053542588 84 255 65
3.097518339 -97.296926644 -0.030092810 106 255 56
3.093497172 -97.392782701 -0.021270628 113 255 52
3.094894901 -97.490610096 -0.027555137 106 255 56
3.102464611 -97.590689710 -0.051046147 87 255 64
3.113959404 -97.692208582 -0.085479518 55 255 78
3.121626746 -97.792338561 -0.109241145 33 255 88
3.121492597 -97.889621580 -0.111251114 29 255 89
3.116800729 -97.985236335 -0.100552917 40 255 84
3.112917892 -98.081144735 -0.092109222 47 255 81
3.113595099 -98.178724115 -0.096378164 44 255 83
3.117649794 -98.277545386 -0.110062849 33 255 88
3.121441846 -98.376273941 -0.123014351 18 255 94
3.120809145 -98.473377395 -0.123628226 18 255 94
3.111393744 -98.567244753 -0.099753791 40 255 84
3.100332714 -98.660498510 -0.071289860 66 255 73
3.096602929 -98.756451582 -0.063265270 73 255 70
3.099215064 -98.854746779 -0.072921897 66 255 73
3.103075794 -98.953506746 -0.086058888 55 255 78
3.103268105 -99.050911549 -0.088966713 51 255 80
3.098901221 -99.146626618 -0.079161570 58 255 76
3.096741539 -99.243158336 -0.075509464 62 255 75
3.098026846 -99.340969210 -0.081461716 58 255 76
3.100671078 -99.439287283 -0.091202004 47 255 81
3.101218624 -99.536827398 -0.095095259 44 255 83
3.099019010 -99.633344657 -0.091327696 47 255 81
3.096215921 -99.729635754 -0.085876414 55 255 78
3.093992971 -99.826142091 -0.082041650 58 255 76
3.093438185 -99.923271166 -0.082857173 55 255 78
3.094913992 -100.021160572 -0.089333621 51 255 80
3.096790792 -100.119202083 -0.096927198 44 255 83
3.096627170 -100.216480460 -0.098830415 40 255 84
3.092814823 -100.312389481 -0.090558670 47 255 81
3.088624748 -100.408154299 -0.081232575 58 255 76
3.087320846 -100.505002458 -0.079953122 58 255 76
3.086668548 -100.602095730 -0.080489561 58 255 76
3.083818507 -100.698360645 -0.074896769 62 255 75
3.078570532 -100.793719101 -0.062616444 76 255 68
3.072575959 -100.888792154 -0.048253139 87 255 64
3.068394643 -100.984546996 -0.038944849 98 255 59
3.066977468 -101.081345693 -0.037343144 98 255 59
3.066700770 -101.178576182 -0.038920587 98 255 59
3.067156995 -101.276085188 -0.042540763 95 255 60
3.069892818 -101.374460863 -0.052516605 84 255 65
3.074202286 -101.473437520 -0.066879639 69 255 72
3.075775836 -101.571377229 -0.073612603 66 255 73
3.071813013 -101.667210175 -0.064906216 73 255 70
3.066488348 -101.762521537 -0.052401158 84 255 65
3.064006957 -101.858914632 -0.047823608 87 255 64
3.064696606 -101.956517984 -0.052087679 84 255 65
3.073306513 -102.057151514 -0.078437107 62 255 75
3.089647401 -102.160751971 -0.126344378 15 255 96
3.002726592 -122.286857029 -0.346563779 0 229 255
2.986646785 -122.376860361 -0.303813795 0 234 225
2.962318874 -122.463025924 -0.238039879 0 243 174
2.956313748 -122.557679395 -0.223408151 0 245 162
2.963886441 -122.658637459 -0.246674782 0 242 180
2.962098031 -122.755248943 -0.243811063 0 242 177
2.958262128 -122.850906737 -0.235231153 0 243 171
2.954479218 -122.946586846 -0.226798098 0 244 165
2.953210872 -123.043436870 -0.225382951 0 244 165
2.954826180 -123.141631944 -0.232016067 0 244 168
2.956858759 -123.240023728 -0.239813007 0 243 174
2.954387716 -123.336312949 -0.235037766 0 243 171
2.947656134 -123.430608060 -0.218368711 0 245 159
2.941822927 -123.525319102 -0.204206234 0 247 147
2.939766763 -123.621795804 -0.200585899 0 248 144
2.941706306 -123.720145095 -0.208118226 0 247 150
2.945297896 -123.819271781 -0.220261207 0 245 159
2.947094840 -123.917558960 -0.227393656 0 244 165
2.945460177 -124.014235067 -0.224946011 0 244 165
2.942150647 -124.110122563 -0.217822015 0 245 159
2.938726601 -124.205954174 -0.210377299 0 246 153
2.935478081 -124.301866442 -0.203421512 0 247 147
2.932644254 -124.397972364 -0.197622290 0 248 144
2.931616370 -124.494929099 -0.196863353 0 248 144
2.933528146 -124.593274309 -0.204309569 0 247 147
2.936745227 -124.692238727 -0.215398682 0 246 156
2.937959968 -124.790258797 -0.220897268 0 245 162
2.935012609 -124.886309416 -0.214776131 0 246 156
2.929699543 -124.981237128 -0.202049891 0 247 147
2.924872951 -125.076392064 -0.190680589 0 249 138
2.921821020 -125.172386318 -0.184264353 0 250 132
2.922126517 -125.269973947 -0.187219732 0 249 135
2.926712987 -125.369598004 -0.202125045 0 247 147
2.932822956 -125.469951230 -0.221282573 0 245 162
2.935400608 -125.568627441 -0.230578276 0 244 168
2.936029480 -125.666377336 -0.234432730 0 243 171
2.936754879 -125.764174361 -0.238555707 0 243 174
2.937471564 -125.861968381 -0.242653410 0 242 177
2.938189528 -125.959764161 -0.246753736 0 242 180
2.937927716 -126.057092545 -0.248117858 0 241 183
2.934235398 -126.152779460 -0.239903960 0 243 174
2.929385993 -126.247909861 -0.228458714 0 244 168
2.927560000 -126.344486453 -0.225453010 0 244 165
2.927696070 -126.442003554 -0.227923922 0 244 165
2.928076905 -126.539638874 -0.231077202 0 244 168
2.929497060 -126.637774520 -0.237131095 0 243 174
2.933351732 -126.737082698 -0.249980756 0 241 183
2.937907452 -126.836731887 -0.264786746 0 239 195
2.940266756 -126.935327163 -0.273459869 0 238 201
2.939961891 -127.032640461 -0.274694144 0 238 201
2.938943312 -127.129609749 -0.273934864 0 238 201
2.939172597 -127.227181393 -0.276658464 0 238 204
2.939470736 -127.324787074 -0.279573341 0 238 204
2.938470852 -127.421765776 -0.278863323 0 238 204
2.938086849 -127.519042396 -0.279871798 0 237 207
2.939406798 -127.617144744 -0.285636594 0 237 210
2.938228641 -127.714037571 -0.284425922 0 237 210
2.933595128 -127.809253503 -0.273567104 0 238 201
2.930739663 -127.905329826 -0.267671439 0 239 195
2.932087672 -128.003447328 -0.273510704 0 238 201
2.934573264 -128.102119743 -0.282525150 0 237 207
2.935622087 -128.200095306 -0.287527249 0 236 213
2.934799054 -128.297160389 -0.287302182 0 237 210
2.931675732 -128.393103933 -0.280653686 0 237 207
2.927821340 -128.488688920 -0.271962979 0 238 201
2.922878677 -128.583740072 -0.260232718 0 240 192
2.915968224 -128.677826296 -0.243007193 0 242 177
2.909999747 -128.772368439 -0.228410596 0 244 168
2.907887208 -128.868793917 -0.224578981 0 244 165
2.906719244 -128.965681042 -0.223383692 0 245 162
2.903763628 -129.061691426 -0.217196102 0 245 159
2.899415903 -129.157017056 -0.207120544 0 247 150
2.895441309 -129.252523100 -0.198085751 0 248 144
2.893374050 -129.348963928 -0.194375450 0 248 141
2.895273938 -129.447354798 -0.201741030 0 247 147
2.900714133 -129.547490243 -0.218990832 0 245 159
2.907042297 -129.648067883 -0.238719179 0 243 174
2.912126897 -129.748037962 -0.254974454 0 241 186
2.914232911 -129.846543035 -0.262912074 0 240 192
2.912481551 -129.943145728 -0.260078162 0 240 192
2.908527171 -130.038659025 -0.251091908 0 241 183
2.904333222 -130.134051343 -0.241435665 0 242 177
2.900086067 -130.229414634 -0.231629791 0 244 168
2.894238105 -130.323982302 -0.217352976 0 245 159
2.887424495 -130.418067324 -0.200378696 0 248 144
2.882534655 -130.513101962 -0.188775014 0 249 135
2.880217525 -130.609410637 -0.184354048 0 250 132
2.878494164 -130.706013091 -0.181590060 0 250 132
2.876355106 -130.802408063 -0.177664309 0 250 129
2.877470278 -130.900421353 -0.182824473 0 250 132
2.884028576 -131.001146876 -0.203182849 0 247 147
2.890067319 -131.101619100 -0.222089641 0 245 162
2.891627946 -131.199862885 -0.228491029 0 244 168
2.890900569 -131.296966292 -0.228502494 0 244 168
2.889867176 -131.393916811 -0.227658466 0 244 165
2.886603053 -131.489751793 -0.220584327 0 245 162
2.881079247 -131.584454149 -0.207199148 0 247 150
2.878263018 -131.680508569 -0.201373625 0 247 147
2.882066473 -131.779878692 -0.214032247 0 246 156
2.889685957 -131.881166140 -0.237346141 0 243 174
2.895257319 -131.981432090 -0.254939930 0 241 186
2.897763501 -132.080163288 -0.263973414 0 239 195
2.900629353 -132.179077786 -0.274010387 0 238 201
2.905139304 -132.278822167 -0.288637650 0 236 213
2.906700511 -132.377086016 -0.295029618 0 236 216
2.902778426 -132.472588860 -0.286108355 0 237 210
2.898582656 -132.567951202 -0.276421759 0 238 204
2.898223858 -132.665247078 -0.277449104 0 238 204
2.899068198 -132.763150829 -0.281835344 0 237 207
2.898533797 -132.860358958 -0.282370392 0 237 207
2.897717182 -132.957424475 -0.282116364 0 237 207
2.897814698 -133.054952620 -0.284414178 0 237 210
2.897452891 -133.152248704 -0.285428322 0 237 210
2.894785236 -133.248376078 -0.280002103 0 237 207
2.891673987 -133.344276864 -0.273336060 0 238 201
2.890737247 -133.441279854 -0.272741665 0 238 201
2.891284612 -133.539036771 -0.276290923 0 238 204
2.891977163 -133.636868483 -0.280244700 0 237 207
2.890929417 -133.733815630 -0.279337410 0 238 204
2.888932520 -133.830279108 -0.275778439 0 238 204
2.888557201 -133.927568058 -0.276747089 0 238 204
2.889828882 -134.025697339 -0.282314421 0 237 207
2.890725454 -134.123636669 -0.286833250 0 237 210
2.890151967 -134.220826258 -0.287245622 0 237 210
2.888779513 -134.317607476 -0.285425689 0 237 210
2.888429782 -134.414911413 -0.286461026 0 237 210
2.889289686 -134.512834961 -0.290873675 0 236 213
2.890454804 -134.610916102 -0.296137799 0 235 219
2.892109841 -134.709249908 -0.302769262 0 235 222
2.894646296 -134.808037857 -0.311861475 0 233 231
2.896874296 -134.906669897 -0.320091333 0 232 237
2.895177556 -135.003287057 -0.317359033 0 233 234
2.887504433 -135.096829512 -0.297934444 0 235 219
2.877631035 -135.189233979 -0.272363592 0 238 201
2.872414099 -135.284029945 -0.259796587 0 240 189
2.870049448 -135.380292763 -0.255194685 0 241 186
2.865242222 -135.475294151 -0.243769847 0 242 177
2.869691662 -135.575071426 -0.258197241 0 240 189
2.870623688 -135.673035324 -0.262799832 0 240 192
2.868231941 -135.769281866 -0.258118324 0 240 189
2.877022930 -135.871313616 -0.284668916 0 237 210
2.886261744 -135.973584627 -0.312469546 0 233 231
2.891263040 -136.073667332 -0.328434067 0 231 243
2.887376177 -136.169144874 -0.319573030 0 232 237
2.879181154 -136.262383947 -0.298678152 0 235 219
2.876928949 -136.358703851 -0.294380636 0 236 216
2.878518729 -136.457019532 -0.300812973 0 235 222
2.880172508 -136.555370259 -0.307423155 0 234 228
2.880459655 -136.653011373 -0.310215328 0 234 228
2.876212802 -136.748291234 -0.300342707 0 235 222
2.873768952 -136.844508289 -0.295505002 0 235 219
2.864372607 -136.937096642 -0.271247196 0 239 198
2.859125049 -137.031844362 -0.258576287 0 240 189
2.860480348 -137.130038550 -0.264346982 0 239 195
2.865900807 -137.230359959 -0.281471364 0 237 207
2.869177319 -137.329564204 -0.292606546 0 236 216
2.867160175 -137.425999366 -0.288954765 0 236 213
2.861606174 -137.520579943 -0.275422892 0 238 201
2.857853305 -137.616101316 -0.266920854 0 239 195
2.856966948 -137.713124739 -0.266424551 0 239 195
2.856422860 -137.810327751 -0.266883316 0 239 195
2.855659193 -137.907415436 -0.266727789 0 239 195
2.851319841 -138.002622207 -0.256583525 0 240 189
2.830476321 -138.089138426 -0.200337775 0 248 144
2.796686782 -138.168819222 -0.107928789 33 255 88
2.746568381 -138.239866175 0.030093192 160 255 32
2.712390871 -138.319284440 0.123589711 234 251 0
2.688809170 -138.404270672 0.187490630 241 236 0
2.677859159 -138.495912848 0.216108666 244 230 0
2.683907396 -138.596534403 0.197246068 242 234 0
2.697413825 -138.701107392 0.157550929 238 244 0
2.707162750 -138.803701778 0.128352469 234 250 0
2.703820277 -138.899367231 0.135723882 235 248 0
2.690349056 -138.989659514 0.171389826 239 240 0
2.671086859 -139.076868735 0.223233556 245 228 0
2.649723875 -139.162947841 0.280947073 252 214 0
2.639682969 -139.255027905 0.307034693 255 209 0
2.650472292 -139.358178892 0.274935571 251 216 0
2.667729110 -139.464780919 0.224770511 246 227 0
2.675233437 -139.566202564 0.201849174 243 233 0
2.664305691 -139.657806223 0.230418094 246 226 0
2.644387014 -139.744606206 0.284104266 252 213 0
2.639350167 -139.839334797 0.296219505 254 211 0
2.636114331 -139.935022003 0.303304663 254 210 0
2.632932075 -140.030735826 0.310241164 255 207 0
2.631502321 -140.127385157 0.312283006 255 205 0
2.628339740 -140.223106224 0.319166556 255 202 0
2.621351500 -140.316775828 0.336738333 255 188 0
2.614472528 -140.410499066 0.354005974 255 177 0
2.613681331 -140.507483534 0.354268002 255 177 0
2.624368235 -140.610630340 0.322465795 255 199 0
2.640344238 -140.716627661 0.275888590 251 216 0
2.641027745 -140.814415622 0.272033381 251 216 0
2.640208783 -140.911396186 0.272376439 251 216 0
2.626188882 -141.001268620 0.309599211 255 207 0
2.617750402 -141.094138091 0.331230683 255 191 0
2.622096849 -141.193895399 0.317146415 255 202 0
2.639031051 -141.300449064 0.267896777 250 218 0
2.654050131 -141.405982216 0.223997932 245 228 0
2.651517747 -141.502042905 0.229133312 246 226 0
2.654110671 -141.600873758 0.219951018 245 229 0
2.656466558 -141.699578829 0.211431815 244 231 0
2.648713542 -141.792811672 0.231155179 246 226 0
2.641650522 -141.886412901 0.248951989 248 222 0
2.629657704 -141.977335516 0.280522627 252 214 0
2.619904326 -142.069464674 0.305837994 255 209 0
2.610461418 -142.161755339 0.330287147 255 194 0
2.606603484 -142.257074567 0.339134130 255 186 0
2.613497069 -142.358238900 0.317944347 255 202 0
2.625434817 -142.462154494 0.282662789 252 214 0
2.631753401 -142.563019271 0.263080941 250 219 0
2.635142730 -142.662292826 0.251683784 248 222 0
2.640539244 -142.762664294 0.234679672 247 225 0
2.646409350 -142.863298932 0.216353201 244 230 0
2.647878854 -142.961534892 0.210322328 244 231 0
2.646647630 -143.058296212 0.211837926 244 231 0
2.645341038 -143.155015814 0.213565059 244 230 0
2.649756369 -143.254866986 0.199306515 242 234 0
2.650348559 -143.352627822 0.195730426 242 234 0
2.645678822 -143.447505162 0.206856831 243 232 0
2.647412068 -143.545891732 0.200094572 242 234 0
2.645150391 -143.642087116 0.204494924 243 233 0
2.641786612 -143.737675778 0.211975530 244 231 0
2.634402173 -143.831052032 0.230690885 246 226 0
2.624627690 -143.923108207 0.256085170 249 221 0
2.612460355 -144.013839970 0.288166322 253 212 0
2.601385269 -144.105164434 0.317196922 255 202 0
