ply
format ascii 1.0
comment coordinate_system ground
comment units millimeter
element vertex 1662
property double x
property double y
property double z
property uchar red
property uchar green
property uchar blue
comment color_mapping zg_high_contrast_from_zg
comment color_zg_range_mm -0.273947597 50.162714337
end_header
5.907182040 124.007387367 0.419184033 0 231 246
5.894829252 123.904489106 0.448425310 0 231 246
5.876543872 123.798575399 0.494022622 0 231 246
5.863914131 123.695555251 0.524030097 0 231 243
5.860070078 123.597015239 0.529818590 0 231 243
5.856546810 123.498640351 0.534723795 0 231 243
5.852408326 123.399954558 0.541326081 0 231 243
5.856574809 123.305488295 0.525034017 0 231 243
5.848582631 123.204848290 0.542262352 0 231 243
5.845671151 123.106789576 0.545485074 0 231 243
5.846904606 123.010832235 0.537281743 0 231 243
5.853429992 122.917552240 0.514490036 0 231 243
5.850221122 122.819341736 0.518535512 0 231 243
5.850659906 122.722976712 0.512525729 0 231 246
5.846587419 122.624331578 0.518954159 0 231 243
5.844798158 122.526841093 0.519088909 0 231 243
5.845886009 122.430802198 0.511292554 0 231 246
5.855845340 122.339232782 0.479038613 0 231 246
5.866971589 122.248242536 0.443568140 0 231 246
5.875636226 122.156004103 0.414884970 0 231 246
5.880217343 122.061704701 0.397460848 0 231 246
5.878867071 121.964420474 0.396390604 0 231 246
5.870127803 121.863426331 0.415693197 0 231 246
5.850263240 121.756856142 0.465670184 0 231 246
5.822645987 121.646413427 0.537023513 0 231 243
5.814134421 121.545561934 0.555702355 0 231 243
5.815031876 121.449425924 0.548440656 0 231 243
5.818943657 121.354796054 0.532868997 0 231 243
5.824816947 121.261142668 0.511890009 0 231 246
5.827157879 121.165719700 0.500651056 0 231 246
5.828611494 121.069851202 0.491859465 0 231 246
5.830577640 120.974236254 0.481655632 0 231 246
5.821080366 120.872906739 0.503059632 0 231 246
5.807821028 120.769710347 0.534837679 0 231 243
5.809974759 120.674191614 0.524119683 0 231 243
5.818446356 120.581811250 0.495982668 0 231 246
5.825749946 120.488843280 0.471066852 0 231 246
5.829508595 120.394109152 0.455926142 0 231 246
5.828081939 120.296799277 0.455083645 0 231 246
5.824210275 120.198277747 0.460983767 0 231 246
5.820463934 120.099820307 0.466539391 0 231 246
5.818183369 120.002090160 0.468054440 0 231 246
5.820241736 119.906506373 0.457606564 0 231 246
5.827228503 119.813355250 0.433570196 0 231 246
5.831300089 119.718758587 0.417572820 0 231 246
5.829184139 119.621105312 0.418637728 0 231 246
5.828199221 119.524010286 0.416584929 0 231 246
5.826414850 119.426521291 0.416737538 0 231 246
5.824034814 119.328739547 0.418533654 0 231 246
5.820308070 119.230296354 0.424044265 0 231 246
5.808725509 119.127994401 0.451218066 0 231 246
5.803383451 119.028764818 0.461185102 0 231 246
5.803217678 118.932078286 0.456879676 0 231 246
5.803797745 118.835756650 0.450518542 0 231 246
5.802758003 118.738640079 0.448625001 0 231 246
5.799222547 118.640301635 0.453614465 0 231 246
5.795753114 118.541997263 0.458422919 0 231 246
5.795137663 118.445089580 0.455362380 0 231 246
5.798456397 118.350102893 0.441453977 0 231 246
5.804329447 118.256359314 0.420502658 0 231 246
5.807191559 118.161142110 0.407855109 0 231 246
5.801805597 118.061902899 0.417953522 0 231 246
5.792149846 117.960588026 0.439827584 0 231 246
5.787232423 117.861584759 0.448636209 0 231 246
5.788451001 117.765567113 0.440524870 0 231 246
5.790811203 117.670102151 0.429266211 0 231 246
5.785322507 117.570825008 0.439653327 0 231 246
5.766036726 117.464859952 0.488089952 0 231 246
5.746722668 117.358894969 0.536606081 0 231 243
5.744335248 117.261139817 0.538444419 0 231 243
5.749793330 117.167181451 0.518647794 0 231 243
5.756433663 117.073789578 0.495591583 0 231 246
5.754417385 116.976210018 0.496409213 0 231 246
5.750624785 116.877773680 0.502126599 0 231 246
5.756864202 116.784177822 0.480178601 0 231 246
5.759328755 116.688757107 0.468641806 0 231 246
5.771393481 116.597956521 0.430630113 0 231 246
5.779904335 116.505435850 0.402420098 0 231 246
5.779833325 116.408781778 0.397878487 0 231 246
5.774654898 116.309673239 0.407423515 0 231 246
5.767250951 116.209499442 0.423107413 0 231 246
5.759057125 116.108951521 0.440970906 0 231 246
5.763750266 116.014585149 0.423294218 0 231 246
5.757752491 115.915094639 0.435103323 0 231 246
5.761488178 115.820265246 0.420069051 0 231 246
5.761486809 115.723645352 0.415342335 0 231 246
5.758561836 115.625627843 0.418679845 0 231 246
5.763426637 115.531330164 0.400534162 0 231 246
5.756931798 115.431609603 0.413719404 0 231 246
5.747879207 115.330674076 0.433960155 0 231 246
5.740221494 115.230408805 0.450354991 0 231 246
5.737977415 115.132724457 0.451819859 0 231 246
5.739200195 115.036689249 0.443723886 0 231 246
5.735585673 114.938354144 0.448970562 0 231 246
5.729885777 114.839030985 0.459969983 0 231 246
5.729025992 114.742006987 0.457620916 0 231 246
5.736433505 114.648900870 0.432470498 0 231 246
5.756859756 114.561953236 0.371413186 0 231 246
5.788835290 114.480453920 0.278501423 0 230 249
5.817342854 114.397289754 0.195154986 0 230 249
5.844873486 114.313641481 0.114503259 0 230 252
5.872407108 114.229972770 0.033843455 0 230 252
5.894873141 114.143892091 -0.032838650 0 230 252
5.908739136 114.053740505 -0.075799511 0 230 252
5.915909046 113.960424379 -0.100290343 0 229 255
5.916384300 113.863952030 -0.106314791 0 229 255
5.910580608 113.764526544 -0.095019211 0 229 255
5.900746963 113.663211541 -0.072606705 0 230 252
5.889933170 113.561443093 -0.047489404 0 230 252
5.881633371 113.460861007 -0.029305229 0 230 252
5.878572969 113.362739540 -0.025571878 0 230 252
5.880450400 113.266931507 -0.035457755 0 230 252
5.883135754 113.171499133 -0.047571272 0 230 252
5.883207471 113.074842059 -0.052474501 0 230 252
5.882100435 112.977633473 -0.054125301 0 230 252
5.882506661 112.881131078 -0.059949305 0 230 252
5.883753991 112.785019707 -0.068092477 0 230 252
5.884602094 112.688720485 -0.075133480 0 230 252
5.884722017 112.592080724 -0.080164897 0 229 255
5.883873430 112.494989460 -0.082523748 0 229 255
5.880588573 112.396765594 -0.078161200 0 229 255
5.884282169 112.301784228 -0.093047639 0 229 255
5.879828523 112.203018584 -0.085458957 0 229 255
5.877705699 112.105336136 -0.084298815 0 229 255
5.874664951 112.007229175 -0.080605516 0 229 255
5.870389419 111.908552078 -0.073504946 0 230 252
5.870393250 111.811856597 -0.078208207 0 229 255
5.876375438 111.717922996 -0.099402309 0 229 255
5.884656939 111.625045659 -0.126938499 0 229 255
5.878672179 111.525579162 -0.115118865 0 229 255
5.883945249 111.431306038 -0.134354258 0 229 255
5.876572262 111.331203185 -0.118702887 0 229 255
5.870394880 111.231655313 -0.106348599 0 229 255
5.866188205 111.133017483 -0.099429697 0 229 255
5.863773854 111.035205482 -0.097454169 0 229 255
5.862033226 110.937703736 -0.097336203 0 229 255
5.860679148 110.840379748 -0.098283603 0 229 255
5.862225648 110.744385305 -0.107231905 0 229 255
5.866512059 110.649643520 -0.123738002 0 229 255
5.868986581 110.554068548 -0.135244688 0 229 255
5.867373482 110.456622047 -0.135473661 0 229 255
5.863678100 110.358224720 -0.129957040 0 229 255
5.860983646 110.260286171 -0.127200709 0 229 255
5.859316583 110.162817325 -0.127277714 0 229 255
5.856624754 110.064881935 -0.124526543 0 229 255
5.853294374 109.966657007 -0.120012666 0 229 255
5.853124970 109.869871645 -0.124218412 0 229 255
5.854701877 109.773879256 -0.133241040 0 229 255
5.854177962 109.676930746 -0.136466807 0 229 255
5.851243306 109.578887889 -0.133040588 0 229 255
5.845930053 109.479768014 -0.123050959 0 229 255
5.839121044 109.379973755 -0.108933515 0 229 255
5.832751614 109.280382767 -0.096027677 0 229 255
5.828133566 109.181587782 -0.087952681 0 229 255
5.825282909 109.083594031 -0.084752772 0 229 255
5.824300614 108.986445080 -0.086706604 0 229 255
5.824631777 108.889888487 -0.092283276 0 229 255
5.825690286 108.793658589 -0.099865749 0 229 255
5.828598909 108.698260164 -0.112551812 0 229 255
5.833467459 108.603740506 -0.130644520 0 229 255
5.837824167 108.508986168 -0.147324196 0 229 255
5.840763044 108.413590783 -0.160091117 0 229 255
5.841813066 108.317344577 -0.167645625 0 229 255
5.838920040 108.219328572 -0.164319901 0 229 255
5.833180157 108.120038408 -0.153138297 0 229 255
5.826703550 108.020421952 -0.139922830 0 229 255
5.819416913 107.920447258 -0.124471210 0 229 255
5.813195257 107.820953183 -0.111956862 0 229 255
5.812317029 107.723848894 -0.114184841 0 229 255
5.814046905 107.627907969 -0.123608087 0 229 255
5.815018983 107.531627072 -0.130939486 0 229 255
5.815045660 107.434923518 -0.135661366 0 229 255
5.815782659 107.338535166 -0.142342222 0 229 255
5.818193678 107.242889674 -0.153641166 0 229 255
5.819447844 107.146727577 -0.161747142 0 229 255
5.815164325 107.048105778 -0.154572151 0 229 255
5.807753395 106.948099480 -0.138766608 0 229 255
5.800425435 106.848134730 -0.123188816 0 229 255
5.793026420 106.748143245 -0.107413771 0 229 255
5.786936609 106.648735629 -0.095250077 0 229 255
5.786931283 106.552020782 -0.099874475 0 229 255
5.790973615 106.457092370 -0.115666878 0 229 255
5.793391884 106.361443514 -0.126977012 0 229 255
5.793649893 106.264839716 -0.132325222 0 229 255
5.794101403 106.168320084 -0.138206414 0 229 255
5.795723737 106.072314457 -0.147317446 0 229 255
5.797754271 105.976486204 -0.157553949 0 229 255
5.798601282 105.880135655 -0.164523658 0 229 255
5.796143909 105.782333324 -0.162374066 0 229 255
5.789955550 105.682895920 -0.149927832 0 229 255
5.782740944 105.583012742 -0.134648515 0 229 255
5.785042621 105.487299979 -0.145628315 0 229 255
5.780967486 105.388795573 -0.139010220 0 229 255
5.781676859 105.292384199 -0.145594076 0 229 255
5.782265782 105.195918842 -0.151844588 0 229 255
5.780412960 105.098387023 -0.151355971 0 229 255
5.776994473 105.000173371 -0.146545735 0 229 255
5.772937867 104.901683590 -0.139973469 0 229 255
5.769167683 104.803320666 -0.134190522 0 229 255
5.765817392 104.705142290 -0.129565232 0 229 255
5.762942293 104.607172002 -0.126250230 0 229 255
5.761403225 104.509782814 -0.126621152 0 229 255
5.761644784 104.413165959 -0.131904997 0 229 255
5.762067364 104.316626483 -0.137687432 0 229 255
5.761596649 104.219699217 -0.141003669 0 229 255
5.760755877 104.122611439 -0.143297664 0 229 255
5.760003304 104.025561557 -0.145834057 0 229 255
5.758803819 103.928318487 -0.147136085 0 229 255
5.756996544 103.830813356 -0.146759746 0 229 255
5.754950193 103.733205736 -0.145722579 0 229 255
5.752777896 103.635544606 -0.144336783 0 229 255
5.749200596 103.537279944 -0.139072417 0 229 255
5.744389542 103.438486952 -0.130402031 0 229 255
5.740467657 103.340078562 -0.124184482 0 229 255
5.738024947 103.242306865 -0.122048131 0 229 255
5.736352945 103.144866515 -0.122037773 0 229 255
5.734656165 103.047415982 -0.121957998 0 229 255
5.732981701 102.949975444 -0.121938787 0 229 255
5.732406964 102.853005432 -0.124953681 0 229 255
5.732774949 102.756437635 -0.130569411 0 229 255
5.733546510 102.660040921 -0.137298013 0 229 255
5.734130282 102.563562715 -0.143507363 0 229 255
5.733826556 102.466705198 -0.147266290 0 229 255
5.732116353 102.369248526 -0.147142382 0 229 255
5.729659648 102.271474916 -0.144957106 0 229 255
5.728327167 102.174179905 -0.145873633 0 229 255
5.728601169 102.077566887 -0.151223064 0 229 255
5.727430444 101.980340199 -0.152584024 0 229 255
5.723203899 101.881818945 -0.145509758 0 229 255
5.717574235 101.782706165 -0.134561691 0 229 255
5.713776964 101.684371741 -0.128670020 0 229 255
5.713319435 101.587450455 -0.131995246 0 229 255
5.714959207 101.491414015 -0.141108243 0 229 255
5.717095977 101.395585095 -0.151592078 0 229 255
5.717941036 101.299209418 -0.158509693 0 229 255
5.716023554 101.201669258 -0.157801323 0 229 255
5.712810420 101.103584759 -0.153515704 0 229 255
5.710952783 101.006071485 -0.152970417 0 229 255
5.710832780 100.909288327 -0.157220290 0 229 255
5.709422036 100.811963002 -0.157906466 0 229 255
5.704086226 100.712992983 -0.147757568 0 229 255
5.694749169 100.612350858 -0.126563148 0 229 255
5.684116914 100.511173203 -0.101792400 0 229 255
5.678095473 100.411929861 -0.089747422 0 229 255
5.682057051 100.316858777 -0.105257193 0 229 255
5.692467697 100.224474251 -0.138567401 0 229 255
5.698901603 100.130423461 -0.160899899 0 229 255
5.698768402 100.033632280 -0.165104271 0 229 255
5.695775864 99.935650779 -0.161414921 0 229 255
5.692440125 99.837528071 -0.156777144 0 229 255
5.691315607 99.740325332 -0.158242057 0 229 255
5.689334564 99.642767250 -0.157341615 0 229 255
5.684962693 99.544218819 -0.149840501 0 229 255
5.687272585 99.448440007 -0.160782662 0 229 255
5.682273798 99.349634640 -0.151548863 0 229 255
5.680829651 99.252301626 -0.152126287 0 229 255
5.679913738 99.155187034 -0.154160846 0 229 255
5.676792121 99.057162221 -0.150105619 0 229 255
5.672233727 98.958546680 -0.142083118 0 229 255
5.667908077 98.860029636 -0.134701985 0 229 255
5.666892815 98.762877159 -0.136458092 0 229 255
5.671467516 98.668022556 -0.153644397 0 229 255
5.678755629 98.574278038 -0.178320318 0 229 255
5.681923481 98.478836511 -0.191621265 0 229 255
5.677028922 98.380086646 -0.182664499 0 229 255
5.668511193 98.279855785 -0.163704548 0 229 255
5.660337365 98.179771303 -0.145692731 0 229 255
5.655248115 98.080953184 -0.136195004 0 229 255
5.654883331 97.984067653 -0.139738606 0 229 255
5.656545242 97.888008532 -0.148876181 0 229 255
5.657169288 97.791524228 -0.155147623 0 229 255
5.657608657 97.694963407 -0.160908263 0 229 255
5.659896619 97.599153598 -0.171771295 0 229 255
5.664075988 97.504110091 -0.187854998 0 229 255
5.666154522 97.408209366 -0.198138036 0 229 255
5.661342148 97.309510267 -0.189396247 0 229 255
5.652731919 97.209274491 -0.170168444 0 229 255
5.644176182 97.109066520 -0.151089837 0 229 255
5.638270745 97.009936566 -0.139326851 0 229 255
5.635985981 96.912273844 -0.137558591 0 229 255
5.635973472 96.815529668 -0.142062502 0 229 255
5.636660610 96.719066957 -0.148497010 0 229 255
5.637202419 96.622544318 -0.154529317 0 229 255
5.637599461 96.525962146 -0.160160966 0 229 255
5.638090302 96.429416585 -0.166050599 0 229 255
5.638580607 96.332869610 -0.171937769 0 229 255
5.639648734 96.236553466 -0.179419258 0 229 255
5.641909473 96.140714129 -0.190192461 0 229 255
5.643294262 96.044521173 -0.198546312 0 229 255
5.639974480 95.946442578 -0.193910243 0 229 255
5.633455239 95.847085812 -0.180439571 0 229 255
5.627844980 95.748096468 -0.169477375 0 229 255
5.624372066 95.649963951 -0.164415161 0 229 255
5.622705352 95.552553730 -0.164338738 0 229 255
5.622519221 95.455733979 -0.168349154 0 229 255
5.623107225 95.359221751 -0.174495964 0 229 255
5.623450424 95.262610886 -0.179965884 0 229 255
5.623473413 95.165871700 -0.184550701 0 229 255
5.623154942 95.068996124 -0.188191735 0 229 255
5.621394069 94.971547916 -0.187849192 0 229 255
5.616919749 94.873025115 -0.180013550 0 229 255
5.611359308 94.774074978 -0.169177896 0 229 255
5.607791686 94.675916334 -0.163843481 0 229 255
5.608699893 94.579527880 -0.170866291 0 229 255
5.612357047 94.484222908 -0.185478356 0 229 255
5.611944358 94.387309541 -0.188852065 0 229 255
5.606037771 94.288231452 -0.177055186 0 229 255
5.599997210 94.189104324 -0.164887210 0 229 255
5.598039876 94.091586383 -0.163992660 0 229 255
5.600553626 93.995825306 -0.175442663 0 229 255
5.602708039 93.899920490 -0.185899526 0 229 255
5.599866668 93.802054742 -0.182560897 0 229 255
5.592707644 93.702499359 -0.167299043 0 229 255
5.584678201 93.602608057 -0.149632526 0 229 255
5.581612980 93.504662486 -0.145672402 0 229 255
5.583601832 93.408692058 -0.155666991 0 229 255
5.584410923 93.312259051 -0.162402946 0 229 255
5.582466168 93.214751334 -0.161533661 0 229 255
5.582014204 93.117825515 -0.164785421 0 229 255
5.584184182 93.021919100 -0.175276282 0 229 255
5.584726797 92.925377833 -0.181272452 0 229 255
5.588539006 92.830104641 -0.196296240 0 229 255
5.583611214 92.731438072 -0.187184519 0 229 255
5.580924923 92.633642922 -0.184261363 0 229 255
5.578810151 92.536070225 -0.182915334 0 229 255
5.578557526 92.439218401 -0.186710455 0 229 255
5.580408628 92.343178644 -0.196313914 0 229 255
5.581372649 92.246794317 -0.203466773 0 229 255
5.578731760 92.149018588 -0.200663764 0 229 255
5.575080347 92.050854843 -0.195069112 0 229 255
5.571163974 91.952591121 -0.188741666 0 229 255
5.564852844 91.853409025 -0.175799919 0 229 255
5.556718588 91.753530814 -0.157822352 0 229 255
5.550637124 91.654445528 -0.145512449 0 229 255
5.549535115 91.557272484 -0.146952479 0 229 255
5.551595741 91.461310372 -0.157125356 0 229 255
5.552048011 91.364730691 -0.162855654 0 229 255
5.549240646 91.266904304 -0.159583117 0 229 255
5.545359808 91.168669469 -0.153344962 0 229 255
5.544424499 91.071560067 -0.155240185 0 229 255
5.546780637 90.975704517 -0.166224221 0 229 255
5.550037462 90.880189155 -0.179694719 0 229 255
5.552854497 90.784503291 -0.191949744 0 229 255
5.554561155 90.688392721 -0.201137320 0 229 255
5.554643954 90.591663877 -0.205839308 0 229 255
5.551644542 90.493765806 -0.202028071 0 229 255
5.545314715 90.394608043 -0.189017999 0 229 255
5.538455821 90.295254154 -0.174545585 0 229 255
5.534742445 90.197093446 -0.168759166 0 229 255
5.535640242 90.100675665 -0.175706701 0 229 255
5.538397232 90.004957605 -0.187787971 0 229 255
5.538952961 89.908407253 -0.193788842 0 229 255
5.534971158 89.810147764 -0.187256849 0 229 255
5.528320499 89.710886979 -0.173352777 0 229 255
5.523471482 89.612307218 -0.164423387 0 229 255
5.523199339 89.515447831 -0.168133576 0 229 255
5.525045861 89.419382075 -0.177694261 0 229 255
5.526681655 89.323235192 -0.186671981 0 229 255
5.529454856 89.227511773 -0.198790161 0 229 255
5.534230131 89.132533665 -0.216436993 0 229 255
5.539194627 89.037621759 -0.234605569 0 229 255
5.542803357 88.942199613 -0.249028714 0 229 255
5.542661526 88.845376516 -0.253092024 0 229 255
5.537799026 88.746795683 -0.244115911 0 229 255
5.531278110 88.647601122 -0.230558107 0 229 255
5.525893151 88.548832672 -0.220136639 0 229 255
5.523720632 88.451259530 -0.218586851 0 229 255
5.524742846 88.354871457 -0.225859976 0 229 255
5.526376743 88.258708309 -0.234821623 0 229 255
5.525940742 88.161777429 -0.238065108 0 229 255
5.522483819 88.063729750 -0.232963530 0 229 255
5.517487917 87.965115792 -0.223610037 0 229 255
5.511755199 87.866233127 -0.212220221 0 229 255
5.505426385 87.767134440 -0.199182742 0 229 255
5.500615191 87.668598276 -0.190335950 0 229 255
5.498084727 87.570903439 -0.187787743 0 229 255
5.495528589 87.473200305 -0.185167536 0 229 255
5.491389180 87.374917477 -0.178172964 0 229 255
5.487131882 87.276593804 -0.170851631 0 229 255
5.483999076 87.178684257 -0.166635248 0 229 255
5.486405927 87.082802265 -0.177719553 0 229 255
5.486646485 86.986126209 -0.182819092 0 229 255
5.485482934 86.888936733 -0.184039122 0 229 255
5.482945003 86.791246281 -0.181461700 0 229 255
5.480941229 86.693751506 -0.180358690 0 229 255
5.482636273 86.597603142 -0.189471843 0 229 255
5.486885316 86.502380895 -0.205638977 0 229 255
5.482487438 86.404015339 -0.197919604 0 229 255
5.483231526 86.307517176 -0.204402956 0 229 255
5.489490711 86.213015704 -0.226119967 0 229 255
5.485466167 86.114786911 -0.219428693 0 229 255
5.485079566 86.017875602 -0.222785686 0 229 255
5.486304382 85.921545747 -0.230593028 0 229 255
5.483964247 85.823928061 -0.228551533 0 229 255
5.476615980 85.724506526 -0.212674366 0 229 255
5.466584944 85.624124004 -0.189384990 0 229 255
5.458153773 85.524323681 -0.170513869 0 229 255
5.454529296 85.426255739 -0.164919830 0 229 255
5.454208039 85.329375149 -0.168449766 0 229 255
5.454985115 85.232887736 -0.175012821 0 229 255
5.456933740 85.136818460 -0.184811298 0 229 255
5.460391964 85.041286908 -0.198779124 0 229 255
5.465019985 84.946169931 -0.215977645 0 229 255
5.470756315 84.851444242 -0.236237045 0 229 255
5.477060611 84.756915905 -0.258064638 0 229 255
5.481213370 84.661615618 -0.273947597 0 229 255
5.479270825 84.564142629 -0.272990797 0 229 255
5.471833151 84.464717228 -0.256852028 0 229 255
5.462965135 84.364788875 -0.236760537 0 229 255
5.455976952 84.265533201 -0.221861076 0 229 255
5.452545551 84.167542162 -0.216786554 0 229 255
5.452125718 84.070618740 -0.220030881 0 229 255
5.453394290 83.974291728 -0.227938705 0 229 255
5.455125911 83.878126477 -0.237124813 0 229 255
5.455586522 83.781510761 -0.242798521 0 229 255
5.449906978 83.682730278 -0.231507674 0 229 255
5.441184945 83.582882406 -0.211810048 0 229 255
5.435253101 83.484021457 -0.199819758 0 229 255
5.432202076 83.386176071 -0.195787317 0 229 255
5.431297126 83.289085168 -0.197682904 0 229 255
5.433413653 83.193053092 -0.207925174 0 229 255
5.436672118 83.097418389 -0.221321441 0 229 255
5.435829128 83.000346119 -0.223385189 0 229 255
5.430341109 82.901651092 -0.212614436 0 229 255
5.425336556 82.803128165 -0.203178250 0 229 255
5.423655050 82.705766546 -0.202922041 0 229 255
5.424320056 82.609222426 -0.209147900 0 229 255
5.425688220 82.512921567 -0.217315508 0 229 255
5.425190412 82.415970610 -0.220326629 0 229 255
5.418986484 82.317039030 -0.207571147 0 229 255
5.407535197 82.216292387 -0.180316346 0 229 255
5.395234640 82.115259616 -0.150713707 0 229 255
5.387927938 82.015962764 -0.134907554 0 229 255
5.391354227 81.920379032 -0.148755213 0 229 255
5.402291225 81.827384047 -0.183353994 0 229 255
5.411835448 81.733899781 -0.214103819 0 229 255
5.417188770 81.638964255 -0.233273339 0 229 255
5.417531215 81.542300206 -0.238596757 0 229 255
5.412827420 81.443901217 -0.229976146 0 229 255
5.402766556 81.343666380 -0.206552453 0 229 255
5.389185047 81.242231422 -0.173399634 0 229 255
5.390828378 81.146019889 -0.182313062 0 229 255
5.394726313 81.050577563 -0.197455233 0 229 255
5.394287475 80.953649630 -0.200613460 0 229 255
5.395404657 80.857252336 -0.208070151 0 229 255
5.393523346 80.759831128 -0.207240566 0 229 255
5.390647101 80.662071746 -0.203660742 0 229 255
5.390198714 80.565139656 -0.206788420 0 229 255
5.392208154 80.469042261 -0.216706514 0 229 255
5.394760608 80.373126852 -0.228124102 0 229 255
5.396565456 80.276955257 -0.237474943 0 229 255
5.397025661 80.180326149 -0.243109245 0 229 255
5.396401885 80.083329239 -0.245747231 0 229 255
5.392446398 79.985206305 -0.239177783 0 229 255
5.392205988 79.888339438 -0.242872990 0 229 255
5.383077885 79.788475783 -0.222007876 0 229 255
5.377799636 79.689914692 -0.211779810 0 229 255
5.375511553 79.592362599 -0.209813355 0 229 255
5.375448581 79.495559047 -0.213994541 0 229 255
5.377467549 79.399453441 -0.223927826 0 229 255
5.378919524 79.303155452 -0.232293339 0 229 255
5.376094456 79.205423501 -0.228838788 0 229 255
5.373707446 79.107839432 -0.226593662 0 229 255
5.377340038 79.012267342 -0.240982041 0 229 255
5.385004552 78.918037088 -0.266511393 0 229 255
5.385263404 78.821331881 -0.271574881 0 229 255
5.375087515 78.721151757 -0.247801498 0 229 255
5.360637717 78.619557374 -0.212216012 0 229 255
5.345997628 78.517910032 -0.176103231 0 229 255
5.335572556 78.417671522 -0.151637165 0 229 255
5.268839402 78.298780015 0.028437879 0 230 252
5.026103573 58.580745486 -0.159972919 0 229 255
5.026968479 58.484150180 -0.166491853 0 229 255
5.030002136 58.388102476 -0.179009362 0 229 255
5.034252490 58.292359241 -0.194891780 0 229 255
5.031504466 58.194845712 -0.191412847 0 229 255
5.023880027 58.096104651 -0.174442527 0 229 255
5.016969102 57.997548194 -0.159444844 0 229 255
5.013540501 57.899871159 -0.154079614 0 229 255
5.013391394 57.803018676 -0.157785864 0 229 255
5.013085790 57.706126351 -0.161058109 0 229 255
5.010537664 57.608672663 -0.158125363 0 229 255
5.007296714 57.511047159 -0.153274787 0 229 255
5.004481336 57.413529484 -0.149600425 0 229 255
5.001161018 57.315887499 -0.144527996 0 229 255
4.997687999 57.218209339 -0.139031966 0 229 255
4.996078553 57.120995588 -0.138690491 0 229 255
4.996835233 57.024368643 -0.144894002 0 229 255
4.997221750 56.927648779 -0.150072393 0 229 255
4.994571940 56.830177774 -0.146849404 0 229 255
4.988756448 56.731927200 -0.134867037 0 229 255
4.991340415 56.635748892 -0.146121725 0 229 255
4.987180716 56.537909633 -0.138718048 0 229 255
4.986788395 56.440997730 -0.141736285 0 229 255
4.990128080 56.345000197 -0.155078726 0 229 255
4.986879320 56.247386854 -0.150191992 0 229 255
4.990737267 56.151511871 -0.164966299 0 229 255
4.988740584 56.054204753 -0.163541528 0 229 255
4.988108009 55.957230705 -0.165889776 0 229 255
4.983100428 55.859192298 -0.156132400 0 229 255
4.982496244 55.762226273 -0.158556997 0 229 255
4.982265934 55.665350603 -0.162014949 0 229 255
4.979137694 55.567772842 -0.157453870 0 229 255
4.973946804 55.469698190 -0.147184699 0 229 255
4.967547947 55.371335255 -0.133572100 0 229 255
4.962441339 55.273287793 -0.123533710 0 229 255
4.960945895 55.176112128 -0.123485662 0 229 255
4.962305111 55.079622439 -0.131334972 0 229 255
4.963658966 54.983129672 -0.139168430 0 229 255
4.961358449 54.885760260 -0.136889629 0 229 255
4.955876056 54.787631325 -0.125805765 0 229 255
4.950388187 54.689504518 -0.114705542 0 229 255
4.946351694 54.591726946 -0.107619969 0 229 255
4.943624597 54.494263172 -0.104156256 0 229 255
4.941985310 54.397059072 -0.103701338 0 229 255
4.942093032 54.300269702 -0.108079249 0 229 255
4.944864340 54.204110036 -0.119826216 0 229 255
4.949897788 54.108482143 -0.137831549 0 229 255
4.954544061 54.012758293 -0.154764649 0 229 255
4.955919976 53.916259708 -0.162647646 0 229 255
4.954830601 53.819179485 -0.163708064 0 229 255
4.953474036 53.722036601 -0.164028067 0 229 255
4.951350813 53.624714268 -0.162225578 0 229 255
4.947131241 53.526902149 -0.154621199 0 229 255
4.941207418 53.428694267 -0.142299816 0 229 255
4.936875038 53.330861422 -0.134380913 0 229 255
4.937993412 53.234300650 -0.141543761 0 229 255
4.939695929 53.137874098 -0.150321992 0 229 255
4.934934783 53.039945001 -0.141213259 0 229 255
4.925601438 52.940959134 -0.119451292 0 229 255
4.918629151 52.842525943 -0.104221486 0 229 255
4.917954735 52.745552111 -0.106417876 0 229 255
4.920018575 52.649209522 -0.116190520 0 229 255
4.922124734 52.552874346 -0.126079272 0 229 255
4.923292237 52.456321058 -0.133369540 0 229 255
4.922986426 52.359428046 -0.136581754 0 229 255
4.921468017 52.262256726 -0.136437323 0 229 255
4.919475356 52.164977348 -0.134979401 0 229 255
4.918330637 52.067892345 -0.135866874 0 229 255
4.919477673 51.971329847 -0.143095247 0 229 255
4.922564248 51.875207077 -0.155689924 0 229 255
4.924218362 51.778755775 -0.164319528 0 229 255
4.920102351 51.680993826 -0.156980172 0 229 255
4.913864486 51.582753856 -0.143767701 0 229 255
4.911698962 51.485438370 -0.141823701 0 229 255
4.911852728 51.388647130 -0.146296968 0 229 255
4.913197425 51.292123296 -0.154064969 0 229 255
4.913322530 51.195323415 -0.158456826 0 229 255
4.909810976 51.097706249 -0.152783421 0 229 255
4.902353235 50.999206595 -0.136187996 0 229 255
4.892581105 50.900194070 -0.113186326 0 229 255
4.894039801 50.803696729 -0.121264350 0 229 255
4.889692783 50.705903000 -0.113274112 0 229 255
4.887513027 50.608594254 -0.111280593 0 229 255
4.889477192 50.512207241 -0.120754327 0 229 255
4.893299754 50.416230217 -0.135370227 0 229 255
4.886567774 50.317912265 -0.120775012 0 229 255
4.887180531 50.221222358 -0.126505538 0 229 255
4.894035860 50.125908849 -0.149511790 0 229 255
4.890033553 50.028197419 -0.142467733 0 229 255
4.886345095 49.930557317 -0.136291112 0 229 255
4.884556829 49.833336439 -0.135372328 0 229 255
4.884187522 49.736427146 -0.138379585 0 229 255
4.884027073 49.639563074 -0.141963818 0 229 255
4.882907916 49.542489001 -0.142893612 0 229 255
4.879643847 49.444947426 -0.137885908 0 229 255
4.878354601 49.347837364 -0.138342737 0 229 255
4.878195175 49.250972979 -0.141925472 0 229 255
4.875422986 49.153541359 -0.138275770 0 229 255
4.868853189 49.055289005 -0.124114195 0 229 255
4.863785211 48.957365457 -0.114108019 0 229 255
4.860012884 48.859724521 -0.107686686 0 229 255
4.855685868 48.761966272 -0.099728937 0 229 255
4.851112766 48.664157683 -0.091088895 0 229 255
4.848519997 48.566776752 -0.087928822 0 229 255
4.848646180 48.469979411 -0.092293152 0 229 255
4.849118543 48.373255236 -0.097614589 0 229 255
4.847075315 48.275993068 -0.095972237 0 229 255
4.843532273 48.178412189 -0.090177506 0 229 255
4.841082420 48.081065740 -0.087407414 0 229 255
4.840630553 47.984144535 -0.090166377 0 229 255
4.840494255 47.887289790 -0.093797722 0 229 255
4.839025331 47.790152533 -0.093739422 0 229 255
4.837389785 47.692980467 -0.093218823 0 229 255
4.836940692 47.596058941 -0.095981140 0 229 255
4.836635418 47.499167260 -0.099140466 0 229 255
4.835062581 47.402008895 -0.098790158 0 229 255
4.832693234 47.304684031 -0.096234026 0 229 255
4.830243800 47.207343471 -0.093455084 0 229 255
4.828671779 47.110187266 -0.093103694 0 229 255
4.829042853 47.013436557 -0.098129718 0 229 255
4.830964394 46.917007421 -0.107446429 0 229 255
4.832603768 46.820517462 -0.115981083 0 229 255
4.831325021 46.723420549 -0.116437190 0 229 255
4.826160611 46.625519819 -0.106136404 0 229 255
4.820658489 46.527552533 -0.094899596 0 229 255
4.818438045 46.430265254 -0.092745586 0 229 255
4.818320587 46.333411671 -0.096411756 0 229 255
4.817336390 46.236379401 -0.097677616 0 229 255
4.815494869 46.139171368 -0.096569194 0 229 255
4.812768097 46.041782839 -0.093009143 0 229 255
4.805570104 45.943482394 -0.077070857 0 229 255
4.794229481 45.844342149 -0.049663753 0 230 252
4.793795016 45.747429070 -0.052445661 0 230 252
4.791975600 45.650234283 -0.051392660 0 230 252
4.794114793 45.553842631 -0.061296863 0 230 252
4.786659788 45.455507307 -0.044641033 0 230 252
4.788449772 45.359044023 -0.053576397 0 230 252
4.790650995 45.262661514 -0.063649165 0 230 252
4.793891318 45.166485631 -0.076597451 0 230 252
4.796385102 45.070156606 -0.087478123 0 229 255
4.794398498 44.972926926 -0.085954707 0 229 255
4.787967856 44.874808999 -0.072127647 0 230 252
4.791315940 44.778647697 -0.085370139 0 229 255
4.791032868 44.681759461 -0.088559349 0 229 255
4.784501891 44.583627981 -0.074451019 0 230 252
4.792440883 44.488373287 -0.100399774 0 229 255
4.789665939 44.390988962 -0.096687321 0 229 255
4.788392222 44.293902879 -0.097129730 0 229 255
4.787860733 44.196963512 -0.099625839 0 229 255
4.785770992 44.099716841 -0.097806952 0 229 255
4.781758701 44.002093030 -0.090664466 0 229 255
4.779370012 43.904790125 -0.088015681 0 229 255
4.780383204 43.808154527 -0.094783785 0 229 255
4.780607656 43.711363235 -0.099367234 0 229 255
4.775364502 43.613504411 -0.088812548 0 229 255
4.767045568 43.515050003 -0.069741309 0 230 252
4.760473309 43.416940605 -0.055504491 0 230 252
4.758225714 43.319674166 -0.053239448 0 230 252
4.760166532 43.223219356 -0.062569138 0 230 252
4.764989494 43.127319046 -0.079877239 0 229 255
4.769560650 43.031365753 -0.096487259 0 229 255
4.768737195 42.934370278 -0.098160828 0 229 255
4.765114732 42.836837216 -0.092083941 0 229 255
4.761633328 42.739333203 -0.086396425 0 229 255
4.759248682 42.642040861 -0.083744278 0 229 255
4.758680268 42.545096261 -0.086119515 0 229 255
4.760326846 42.448573280 -0.094626248 0 229 255
4.761854004 42.352025585 -0.102801323 0 229 255
4.759109581 42.254665539 -0.099148670 0 229 255
4.752589021 42.156591849 -0.085039846 0 229 255
4.746898477 42.058679234 -0.073227862 0 230 252
4.744241932 41.961342369 -0.069814998 0 230 252
4.741806119 41.864048324 -0.067012148 0 230 252
4.739175840 41.766718866 -0.063669731 0 230 252
4.738389007 41.669736189 -0.065430269 0 230 252
4.740728238 41.573338096 -0.075845144 0 230 252
4.745526512 41.477396487 -0.093067625 0 229 255
4.748238759 41.381061861 -0.104513343 0 229 255
4.743563454 41.283351034 -0.095503163 0 229 255
4.733154986 41.184579403 -0.070617532 0 230 252
4.723269475 41.085911799 -0.047178540 0 230 252
4.718859629 40.988262668 -0.038899641 0 230 252
4.719654342 40.891575748 -0.045030403 0 230 252
4.722214853 40.795212361 -0.056049441 0 230 252
4.725199748 40.698924187 -0.068242567 0 230 252
4.728411456 40.602674537 -0.081062737 0 229 255
4.729531285 40.506039188 -0.088089632 0 229 255
4.728054244 40.408928398 -0.087924867 0 229 255
4.725606960 40.311641321 -0.085072416 0 229 255
4.723238546 40.214369695 -0.082437217 0 229 255
4.717782475 40.116539284 -0.071251165 0 230 252
4.709218182 40.018149909 -0.051457185 0 230 252
4.701994311 39.920008346 -0.035373564 0 230 252
4.698767473 39.822591699 -0.030356627 0 230 252
4.700214500 39.726017069 -0.038280724 0 230 252
4.704978266 39.630035620 -0.055388070 0 230 252
4.709868299 39.534072381 -0.072844124 0 230 252
4.712742391 39.437744523 -0.084716909 0 229 255
4.710528625 39.340506764 -0.082499864 0 229 255
4.703875607 39.242480309 -0.067988846 0 230 252
4.699968859 39.144945634 -0.061081381 0 230 252
4.702854126 39.048616136 -0.072980859 0 230 252
4.710093064 38.953053100 -0.096935383 0 229 255
4.715524120 38.857164962 -0.115882690 0 229 255
4.714650136 38.760162458 -0.117369202 0 229 255
4.711738505 38.662802096 -0.113211954 0 229 255
4.716654288 38.566814568 -0.130729396 0 229 255
4.732709227 38.472769847 -0.179092843 0 229 255
4.551229293 30.889248979 0.022468587 0 230 252
4.522674453 28.948230886 0.025454676 0 230 252
-13.587555083 25.472318561 50.162714337 255 0 168
-13.434090525 25.402748322 49.733961884 255 4 161
-13.472572557 25.307663905 49.837051024 255 2 164
-13.490216055 25.215357348 49.882402688 255 2 164
-13.496627712 25.124541049 49.896634467 255 2 164
-13.496902474 25.034533862 49.893863160 255 2 164
-13.494096761 24.944929035 49.882557398 255 2 164
-13.492713543 24.855135861 49.875194167 255 2 164
-13.495237611 24.764832914 49.878658576 255 2 164
-13.501233410 24.674081138 49.891743910 255 2 164
-13.506361591 24.583445375 49.902426389 255 2 164
-13.507093309 24.493379380 49.900927844 255 2 164
-13.503726558 24.403839822 49.888073813 255 2 164
-13.499402384 24.314419625 49.872567796 255 2 164
-13.496604528 24.224800468 49.861292097 255 2 164
-13.496072642 24.134889915 49.856296328 255 2 164
-13.498566446 24.044594116 49.859685755 255 2 164
-13.503826512 23.953949378 49.870741629 255 2 164
-13.510503563 23.863129140 49.885725199 255 2 164
-13.517645247 23.772254842 49.901997531 255 2 164
-13.524440780 23.681428709 49.917311928 255 2 164
-13.529072194 23.590877669 49.926630693 255 2 164
-13.529979503 23.500793708 49.925630912 255 2 164
-13.527461965 23.411135363 49.915141703 255 2 164
-13.523240012 23.321685550 49.899930403 255 2 164
-13.519737501 23.232142935 49.886713710 255 2 164
-13.518037751 23.142374952 49.878493662 255 2 164
-13.517771368 23.052429012 49.874246690 255 2 164
-13.518615480 22.962346269 49.873078128 255 2 164
-13.521407898 22.872025795 49.877309729 255 2 164
-13.527657751 22.781286315 49.891123632 255 2 164
-13.535428409 22.690366552 49.909153212 255 2 164
-13.541161203 22.599698268 49.921536742 255 2 164
-13.543155552 22.509483967 49.923561465 255 2 164
-13.544655456 22.419329848 49.924217091 255 2 164
-13.548828422 22.328856226 49.932281534 255 2 164
-13.552472587 22.238448172 49.938881718 255 2 164
-13.551494369 22.148591908 49.932673201 255 2 164
-13.547156358 22.059132460 49.917154797 255 2 164
-13.544420374 21.969479686 49.906077035 255 2 164
-13.544847533 21.879451559 49.903766323 255 2 164
-13.546241543 21.789309543 49.904136148 255 2 164
-13.545880946 21.699373191 49.899644477 255 2 164
-13.542551820 21.609782070 49.886927034 255 2 164
-13.537724456 21.520361855 49.870058411 255 2 164
-13.536110093 21.430564960 49.862095166 255 2 164
-13.538118265 21.340347777 49.864172414 255 2 164
-13.541014969 21.250029147 49.868713266 255 2 164
-13.544536899 21.159640294 49.874988036 255 2 164
-13.550121860 21.069017544 49.886981521 255 2 164
-13.558368326 20.978095067 49.906352446 255 2 164
-13.567404066 20.887088547 49.927912108 255 2 164
-13.573801943 20.796386799 49.942162322 255 2 164
-13.573671808 20.706425628 49.938321488 255 2 164
-13.566925734 20.617207427 49.916145650 255 2 164
-13.558251544 20.528199380 49.888626902 255 2 164
-13.551253083 20.438996875 49.865753321 255 2 164
-13.548365767 20.349330834 49.854274824 255 2 164
-13.550884850 20.259062337 49.857781450 255 2 164
-13.558426078 20.168240053 49.875208428 255 2 164
-13.568293526 20.077166643 49.899083994 255 2 164
-13.575254511 19.986419038 49.914905359 255 2 164
-13.574639733 19.896504555 49.909730943 255 2 164
-13.569350947 19.807098265 49.891603000 255 2 164
-13.565912793 19.717486239 49.878605265 255 2 164
-13.568506376 19.627218141 49.882326366 255 2 164
-13.574328011 19.536603222 49.894995678 255 2 164
-13.586069455 19.445355956 49.924074014 255 2 164
-13.593861902 19.354539770 49.942208347 255 2 164
-13.595057631 19.264432607 49.942059824 255 2 164
-13.590596017 19.174927038 49.926231854 255 2 164
-13.585029095 19.085534417 49.907341223 255 2 164
-13.581193340 18.995954120 49.893249866 255 2 164
-13.578432707 18.906257118 49.882139455 255 2 164
-13.575863869 18.816537196 49.871561653 255 2 164
-13.579766752 18.726139008 49.878923070 255 2 164
-13.577446299 18.636390369 49.869035838 255 2 164
-13.576572629 18.546489317 49.863159827 255 2 164
-13.577457881 18.456405286 49.862160289 255 2 164
-13.580178545 18.366132426 49.866249313 255 2 164
-13.579749407 18.276183720 49.861608701 255 2 164
-13.583870225 18.185769441 49.869581015 255 2 164
-13.587011959 18.095457186 49.874840614 255 2 164
-13.589027886 18.005260698 49.876980756 255 2 164
-13.591729097 17.914995861 49.881021568 255 2 164
-13.599251757 17.824247506 49.898428199 255 2 164
-13.608016592 17.733379748 49.919279332 255 2 164
-13.611647296 17.643030369 49.925900238 255 2 164
-13.611051111 17.553103280 49.920805551 255 2 164
-13.609661674 17.463253581 49.913513045 255 2 164
-13.608693229 17.373360572 49.907388564 255 2 164
-13.608279140 17.283411631 49.902801805 255 2 164
-13.609876910 17.193264723 49.903793011 255 2 164
-13.614588284 17.102814732 49.913416331 255 2 164
-13.619535122 17.012344762 49.923693571 255 2 164
-13.618706436 16.922436585 49.917961949 255 2 164
-13.606386283 16.833634344 49.880376243 255 2 164
-13.601463237 16.744112028 49.863296668 255 2 164
4.465578128 17.896892355 -0.241919729 0 229 255
4.434822271 17.797105586 -0.160330467 0 229 255
4.392977060 17.696310936 -0.047997645 0 230 252
4.385883599 17.598764171 -0.032001031 0 230 252
4.373744855 17.500757018 -0.002016589 0 230 252
4.364488857 17.403023016 0.019977666 0 230 252
4.362490180 17.305958737 0.021854294 0 230 252
4.364698289 17.209278161 0.012069817 0 230 252
4.368519528 17.112741355 -0.002185652 0 230 252
4.375248720 17.016463337 -0.024501775 0 230 252
4.382914111 16.920263550 -0.049412415 0 230 252
4.382910330 16.823370765 -0.053060946 0 230 252
4.377258797 16.725973930 -0.041051062 0 230 252
4.368735082 16.628325808 -0.021077317 0 230 252
4.359055814 16.530581360 0.002101327 0 230 252
4.353734510 16.433226910 0.013199500 0 230 252
4.353704793 16.336339219 0.009628679 0 230 252
4.352822406 16.239376436 0.008422868 0 230 252
4.346907098 16.141976626 0.021171404 0 230 252
4.338982227 16.044406890 0.039492511 0 230 252
4.332527759 15.946968988 0.053738341 0 230 252
4.327928797 15.849694222 0.062841155 0 230 252
4.325904527 15.752641796 0.064806976 0 230 252
4.327266829 15.655877682 0.057384790 0 230 252
4.330755765 15.559291502 0.044067606 0 230 252
4.333758944 15.462661016 0.032098166 0 230 252
4.335649732 15.365934301 0.023213832 0 230 252
4.335534572 15.269038138 0.019892053 0 230 252
4.331733001 15.171835375 0.026792051 0 230 252
4.324666710 15.074365081 0.042744813 0 230 252
4.317866159 14.976921284 0.057962074 0 230 252
4.315037734 14.879807003 0.062167595 0 230 252
4.316495410 14.783043249 0.054490696 0 230 252
4.319207159 14.686379285 0.043337795 0 230 252
4.320740768 14.589617416 0.035452428 0 230 252
4.321033551 14.492753962 0.031008450 0 230 252
4.320304671 14.395807865 0.029398250 0 230 252
4.317236114 14.298675462 0.034276266 0 230 252
4.311510522 14.201334321 0.046522523 0 230 252
4.305573254 14.103980125 0.059356929 0 230 252
4.301934415 14.006809890 0.065819735 0 230 252
4.301536184 13.909894473 0.063298465 0 230 252
4.302769847 13.813105272 0.056253498 0 230 252
4.303238870 13.716255299 0.051329724 0 230 252
4.303825988 13.619413278 0.046079572 0 230 252
4.307949220 13.522840473 0.031025679 0 230 252
4.315174194 13.426499768 0.007372318 0 230 252
4.320876170 13.330037456 -0.012057201 0 230 252
4.323307092 13.233323609 -0.022415804 0 230 252
4.321901518 13.136319610 -0.022135486 0 230 252
4.315490572 13.038942712 -0.007974994 0 230 252
4.307260478 12.941435017 0.011230971 0 230 252
4.303111350 12.844234018 0.019122300 0 230 252
4.305181283 12.747491991 0.009770164 0 230 252
4.307843261 12.650790850 -0.001222619 0 230 252
4.305752487 12.553741631 0.000964514 0 230 252
4.300358373 12.456454536 0.012312658 0 230 252
4.299989333 12.359532013 0.009727872 0 230 252
4.294297144 12.262228413 0.021904954 0 230 252
4.293899569 12.165304932 0.019401552 0 230 252
4.294487832 12.068450720 0.014165548 0 230 252
4.291921261 11.971373353 0.017678903 0 230 252
4.288172212 11.874214452 0.024472420 0 230 252
4.287603574 11.777278958 0.022447815 0 230 252
4.291224823 11.680633073 0.008805657 0 230 252
4.296586071 11.584103387 -0.009660594 0 230 252
4.298619592 11.487341099 -0.018897959 0 230 252
4.298787671 11.390449542 -0.022961307 0 230 252
4.299531425 11.293596044 -0.028619969 0 230 252
4.299139201 11.196664776 -0.031127394 0 230 252
4.296645921 11.099592477 -0.027807281 0 230 252
4.291777374 11.002363322 -0.017899123 0 230 252
4.283261125 10.904895887 0.002125810 0 230 252
4.273819139 10.807373340 0.024719259 0 230 252
4.267548698 10.710064581 0.038518852 0 230 252
4.265363494 10.613025342 0.040990635 0 230 252
4.266797958 10.516220853 0.033425546 0 230 252
4.270461887 10.419557673 0.019678752 0 230 252
4.273800406 10.322870145 0.006835372 0 230 252
4.273722738 10.225962521 0.003466847 0 230 252
4.268001210 10.128698226 0.015751188 0 230 252
4.259995648 10.031294365 0.034370971 0 230 252
4.255067178 9.934087587 0.044458459 0 230 252
4.256028536 9.837248525 0.038213015 0 230 252
4.261226522 9.740668675 0.020219209 0 230 252
4.265524341 9.644029023 0.004722786 0 230 252
4.266854495 9.547204959 -0.002542380 0 230 252
4.266596261 9.450283185 -0.005401363 0 230 252
4.265658299 9.353320053 -0.006374135 0 230 252
4.263914214 9.256308807 -0.005110124 0 230 252
4.262214599 9.159300763 -0.003968317 0 230 252
4.262098961 9.062386481 -0.007218364 0 230 252
4.263022786 8.965532301 -0.013350177 0 230 252
4.261597236 8.868540167 -0.012965132 0 230 252
4.257094488 8.771370778 -0.004044568 0 230 252
4.252711962 8.674210962 0.004543774 0 230 252
4.251170461 8.577215508 0.005253853 0 230 252
4.253142112 8.480419163 -0.003778570 0 230 252
4.254270578 8.383573172 -0.010471401 0 230 252
4.251112558 8.286486395 -0.005274614 0 230 252
4.245717546 8.189277320 0.006127668 0 230 252
4.241686703 8.092146673 0.013747624 0 230 252
4.241599765 7.995233851 0.010430192 0 230 252
4.243360839 7.898420599 0.001988289 0 230 252
4.243274544 7.801505697 -0.001328779 0 230 252
4.239881015 7.704413178 0.004528123 0 230 252
4.234725594 7.607228915 0.015272975 0 230 252
4.232898363 7.510223318 0.016787956 0 230 252
4.235520562 7.413451251 0.005963035 0 230 252
4.238608236 7.316700591 -0.006151933 0 230 252
4.238793805 7.219797111 -0.010216478 0 230 252
4.234457566 7.122661228 -0.001737976 0 230 252
4.226431747 7.025340427 0.016975430 0 230 252
4.217032936 6.927955768 0.039498390 0 230 252
4.211563709 6.830774196 0.051123192 0 230 252
4.213957112 6.733986517 0.040940514 0 230 252
4.218218626 6.637288290 0.025577221 0 230 252
4.217696927 6.540352150 0.023482303 0 230 252
4.210778615 6.443105326 0.039131140 0 230 252
4.201402107 6.345744723 0.061599722 0 230 252
4.203791292 6.248952297 0.051434139 0 230 252
4.204906416 6.152096926 0.044803566 0 230 252
4.201272658 6.055016830 0.051346554 0 230 252
4.201614980 5.958124017 0.046861773 0 230 252
4.197500382 5.861024204 0.054740844 0 230 252
4.204665269 5.764443709 0.031333481 0 230 252
4.205399574 5.667564703 0.025764582 0 230 252
4.197141936 5.570279156 0.045139320 0 230 252
4.204305485 5.473688188 0.021738634 0 230 252
4.200829889 5.376619676 0.027850839 0 230 252
4.199909652 5.279665271 0.026875858 0 230 252
4.201543768 5.182821992 0.018816379 0 230 252
4.200022471 5.085840541 0.019510892 0 230 252
4.206279956 4.989192137 -0.001371513 0 230 252
4.207929560 4.892342879 -0.009470857 0 230 252
4.205305838 4.795312115 -0.005714999 0 230 252
4.200695779 4.698199929 0.003552118 0 230 252
4.203827638 4.601409713 -0.008655763 0 230 252
4.197273857 4.504220685 0.006005608 0 230 252
4.191149264 4.407053276 0.019477660 0 230 252
4.184316691 4.309861412 0.034914936 0 230 252
4.177177871 4.212661854 0.051203035 0 230 252
4.171578168 4.115527506 0.063222772 0 230 252
4.168913612 4.018510948 0.067101362 0 230 252
4.168442347 3.921580208 0.064896673 0 230 252
4.166409818 3.824589470 0.067024226 0 230 252
4.161515195 3.727491381 0.077092762 0 230 252
4.158928009 3.630482567 0.080761334 0 230 252
4.160442605 3.533626791 0.073052040 0 230 252
4.162592927 3.436792370 0.063580170 0 230 252
4.164168903 3.339934707 0.055702671 0 230 252
4.165743696 3.243075021 0.047829498 0 230 252
4.168125572 3.146241991 0.037718340 0 230 252
4.167653093 3.049306177 0.035526850 0 230 252
4.162070586 2.952192553 0.047512940 0 230 252
4.155780541 2.855058143 0.061463159 0 230 252
4.152836714 2.758041383 0.066131306 0 230 252
4.155405170 2.661211130 0.055507959 0 230 252
4.161723121 2.564502552 0.034483397 0 230 252
4.168884140 2.467816009 0.011120810 0 230 252
4.174941179 2.371087415 -0.009178081 0 230 252
4.177472548 2.274240468 -0.019694636 0 230 252
4.175809233 2.177258046 -0.018572632 0 230 252
4.172607960 2.080228039 -0.013182631 0 230 252
4.170365917 1.983229336 -0.010452732 0 230 252
4.170485584 1.886303607 -0.014274008 0 230 252
4.171571207 1.789406103 -0.020774159 0 230 252
4.171888416 1.692484145 -0.025141348 0 230 252
4.170152606 1.595500914 -0.023811489 0 230 252
4.163776217 1.498383819 -0.009605440 0 230 252
4.155656310 1.401221003 0.009439194 0 230 252
4.151338817 1.304170864 0.017935420 0 230 252
4.151721590 1.207254002 0.013392001 0 230 252
4.155122112 1.110418858 0.000476895 0 230 252
4.158300302 1.013574317 -0.011820353 0 230 252
4.158063929 0.916635511 -0.014642789 0 230 252
4.153607792 0.819585204 -0.005756204 0 230 252
4.146856634 0.722478097 0.009499261 0 230 252
4.140337863 0.625381321 0.024111216 0 230 252
4.135667804 0.528335231 0.033595024 0 230 252
4.132422620 0.431327210 0.039126584 0 230 252
4.129021974 0.334317113 0.045090663 0 230 252
4.125444764 0.237304614 0.051545821 0 230 252
4.122891281 0.140318240 0.055161685 0 230 252
4.122920036 0.043392998 0.051613884 0 230 252
4.126137806 -0.053460229 0.039218709 0 230 252
4.128974080 -0.150325264 0.027883063 0 230 252
4.127411706 -0.247290310 0.028753332 0 230 252
4.123205229 -0.344312264 0.036961342 0 230 252
4.120114158 -0.441308013 0.042075611 0 230 252
4.119070309 -0.538259349 0.041510549 0 230 252
4.122133448 -0.635126335 0.029550737 0 230 252
4.127896041 -0.731942056 0.010101580 0 230 252
4.132230077 -0.828791208 -0.005382721 0 230 252
4.133640582 -0.925701125 -0.012753868 0 230 252
4.131668974 -1.022677156 -0.010739271 0 230 252
4.127893499 -1.119686032 -0.003718132 0 230 252
4.124712284 -1.216681955 0.001655221 0 230 252
4.124511730 -1.313623015 -0.001241123 0 230 252
4.128563781 -1.410490428 -0.015936752 0 230 252
4.133698236 -1.507343236 -0.033634940 0 230 252
4.058596748 -1.605540555 0.171313337 0 230 249
4.064261535 -5.482749697 0.018532784 0 230 252
4.070851699 -7.034052140 -0.054097687 0 230 252
3.938946722 -21.385093224 -0.177199268 0 229 255
3.878340007 -21.478367055 -0.012079739 0 230 252
3.879835725 -21.575467395 -0.019457307 0 230 252
3.888983982 -21.673049774 -0.048090136 0 230 252
3.892220983 -21.770266848 -0.060302476 0 230 252
3.890919060 -21.867198957 -0.059906026 0 230 252
3.889568611 -21.964127759 -0.059373665 0 230 252
3.888368739 -22.061065995 -0.059258448 0 230 252
3.887139209 -22.158002184 -0.059059735 0 230 252
3.885402941 -22.254905263 -0.057452313 0 230 252
3.882324478 -22.351719988 -0.052115446 0 230 252
3.876671608 -22.448363720 -0.039626263 0 230 252
3.870614409 -22.544977139 -0.026012700 0 230 252
3.868009870 -22.641816569 -0.021988740 0 230 252
3.869471175 -22.738927049 -0.029257840 0 230 252
3.873441961 -22.836208449 -0.043496835 0 230 252
3.876751505 -22.933448908 -0.055898022 0 230 252
3.877345295 -23.030507720 -0.060754214 0 230 252
3.874721918 -23.127347412 -0.056672431 0 230 252
3.869290556 -23.223992460 -0.044789213 0 230 252
3.863892554 -23.320636440 -0.032997437 0 230 252
3.862161584 -23.417532479 -0.031391162 0 230 252
3.864684281 -23.514725888 -0.041600166 0 230 252
3.867989521 -23.611977136 -0.053982023 0 230 252
3.868541807 -23.709036799 -0.058715286 0 230 252
3.865574855 -23.805847154 -0.053671128 0 230 252
3.859689959 -23.902447182 -0.040519795 0 230 252
3.852906678 -23.998978839 -0.024871508 0 230 252
3.848903545 -24.095707194 -0.016945250 0 230 252
3.848065509 -24.192663447 -0.017810535 0 230 252
3.847653623 -24.289651006 -0.019858578 0 230 252
3.845582121 -24.386517074 -0.017295025 0 230 252
3.844052040 -24.483422343 -0.016234442 0 230 252
3.846439190 -24.580618127 -0.026055124 0 230 252
3.850160116 -24.677916101 -0.039580148 0 230 252
3.850729827 -24.774981295 -0.044349774 0 230 252
3.847630288 -24.871771011 -0.038924704 0 230 252
3.845349756 -24.968621219 -0.035773785 0 230 252
3.847619478 -25.065817116 -0.045263011 0 230 252
3.849402904 -25.162978318 -0.053400207 0 230 252
3.846068046 -25.259747833 -0.047316874 0 230 252
3.840215347 -25.356320865 -0.034237333 0 230 252
3.837192886 -25.453110156 -0.029019530 0 230 252
3.838755873 -25.550256057 -0.036539933 0 230 252
3.840970508 -25.647455100 -0.045869723 0 230 252
3.840580763 -25.744451230 -0.047962893 0 230 252
3.835715129 -25.841093117 -0.037619803 0 230 252
3.828637278 -25.937555879 -0.021129366 0 230 252
3.823422629 -26.034163099 -0.009814160 0 230 252
3.821568119 -26.131037290 -0.007833200 0 230 252
3.821787070 -26.228078371 -0.011611829 0 230 252
3.821779196 -26.325102003 -0.014759191 0 230 252
3.820753324 -26.422043396 -0.015077129 0 230 252
3.820189050 -26.519022622 -0.016676443 0 230 252
3.821600994 -26.616164911 -0.023765313 0 230 252
3.823178449 -26.713322771 -0.031312994 0 230 252
3.822262011 -26.810275402 -0.031930627 0 230 252
3.818899247 -26.907023900 -0.025750273 0 230 252
3.813171501 -27.003572267 -0.012997839 0 230 252
3.816556742 -27.100884804 -0.025563981 0 230 252
3.812046545 -27.197532508 -0.016192098 0 230 252
3.807196762 -27.294148670 -0.005875488 0 230 252
3.802930360 -27.390811725 0.002821424 0 230 252
3.803269589 -27.487867403 -0.001277145 0 230 252
3.808277774 -27.585326473 -0.018347328 0 230 252
3.813829850 -27.682837265 -0.036927774 0 230 252
3.817117038 -27.780156210 -0.049214243 0 230 252
3.816678736 -27.877153149 -0.051148302 0 230 252
3.811991413 -27.973777870 -0.041275147 0 230 252
3.806279128 -28.070309491 -0.028552863 0 230 252
3.802373496 -28.166997368 -0.020849272 0 230 252
3.800923437 -28.263901247 -0.019967531 0 230 252
3.802169340 -28.361045414 -0.026575691 0 230 252
3.804743492 -28.458310387 -0.036873499 0 230 252
3.805422304 -28.555407526 -0.041903846 0 230 252
3.802958009 -28.652221848 -0.038199551 0 230 252
3.798978761 -28.748897540 -0.030284575 0 230 252
3.794470266 -28.845522720 -0.020897807 0 230 252
3.790104609 -28.942158308 -0.011906742 0 230 252
3.787224196 -29.038927886 -0.007041528 0 230 252
3.786689229 -29.135912582 -0.008692479 0 230 252
3.788888824 -29.233151172 -0.017940932 0 230 252
3.794679377 -29.330726532 -0.037166705 0 230 252
3.801914067 -29.428442131 -0.060404451 0 230 252
3.803531658 -29.525636875 -0.068032710 0 230 252
3.797112494 -29.622076252 -0.053327563 0 230 252
3.788420768 -29.718296446 -0.032306184 0 230 252
3.784107094 -29.814926721 -0.023449254 0 230 252
3.785393339 -29.912088689 -0.030152296 0 230 252
3.786160969 -30.009202769 -0.035413147 0 230 252
3.782397182 -30.105882474 -0.028080829 0 230 252
3.778646318 -30.202561331 -0.020783246 0 230 252
3.777831183 -30.299522673 -0.021642498 0 230 252
3.777790768 -30.396559580 -0.024653513 0 230 252
3.775533843 -30.493380695 -0.021503986 0 230 252
3.771898741 -30.590065693 -0.014523488 0 230 252
3.771023153 -30.687020425 -0.015210302 0 230 252
3.773097599 -30.784266910 -0.024093980 0 230 252
3.774215096 -30.881420820 -0.030317322 0 230 252
3.772570096 -30.978301175 -0.028862727 0 230 252
3.768213085 -31.074909838 -0.019870382 0 230 252
3.762472859 -31.171377085 -0.007032899 0 230 252
3.758177625 -31.267986339 0.001790174 0 230 252
3.755413870 -31.364748016 0.006358425 0 230 252
3.753371853 -31.461581656 0.008922098 0 230 252
3.753027441 -31.558587563 0.006769174 0 230 252
3.754605219 -31.655790672 -0.000724543 0 230 252
3.755920848 -31.752968870 -0.007488695 0 230 252
3.755656648 -31.849986023 -0.009861320 0 230 252
3.755180503 -31.946981841 -0.011643843 0 230 252
3.756275620 -32.044141272 -0.017791994 0 230 252
3.758320772 -32.141401372 -0.026579368 0 230 252
3.759498910 -32.238573135 -0.032956161 0 230 252
3.759304253 -32.335602450 -0.035516701 0 230 252
3.757885372 -32.432503392 -0.034673833 0 230 252
3.755135684 -32.529263275 -0.030131298 0 230 252
3.750932641 -32.625867554 -0.021548455 0 230 252
3.746374558 -32.722431572 -0.011977694 0 230 252
3.743626242 -32.819186401 -0.007435474 0 230 252
3.743014318 -32.916169177 -0.008829642 0 230 252
3.743337871 -33.013253031 -0.012822635 0 230 252
3.743507800 -33.110321328 -0.016387600 0 230 252
3.743997144 -33.207425201 -0.020839238 0 230 252
3.745909802 -33.304685179 -0.029245607 0 230 252
3.747493072 -33.401911445 -0.036735485 0 230 252
3.745869815 -33.498788227 -0.035312378 0 230 252
3.739848755 -33.595180782 -0.021665216 0 230 252
3.731506772 -33.691313300 -0.001566178 0 230 252
3.724265342 -33.787562115 0.015475335 0 230 252
3.720761800 -33.884221657 0.022129147 0 230 252
3.720832207 -33.981277951 0.018850764 0 230 252
3.724769811 -34.078767943 0.004824985 0 230 252
3.730096801 -34.176417807 -0.013061494 0 230 252
3.730172280 -34.273480741 -0.016350876 0 230 252
3.725025949 -34.369954046 -0.005125499 0 230 252
3.717109939 -34.466109930 0.013799270 0 230 252
3.709352645 -34.562278595 0.032284182 0 230 252
3.714323581 -34.659896095 0.015392577 0 230 252
3.713435216 -34.756846630 0.014787778 0 230 252
3.713690840 -34.853928845 0.011004355 0 230 252
3.713533394 -34.950964392 0.008370138 0 230 252
3.713628507 -35.048029857 0.005035006 0 230 252
3.717398848 -35.145523099 -0.008514505 0 230 252
3.715950661 -35.242411863 -0.007557850 0 230 252
3.720878234 -35.340045808 -0.024321947 0 230 252
3.719937404 -35.436995914 -0.024773392 0 230 252
3.714342430 -35.533398325 -0.012287097 0 230 252
3.714870885 -35.630520287 -0.016820316 0 230 252
3.708362895 -35.726809885 -0.001793812 0 230 252
3.702752922 -35.823202006 0.010737778 0 230 252
3.696670189 -35.919534242 0.024584701 0 230 252
3.691453694 -36.015966218 0.036025012 0 230 252
3.691207530 -36.112991435 0.033650631 0 230 252
3.694616128 -36.210457250 0.021118229 0 230 252
3.697815583 -36.307901229 0.009168169 0 230 252
3.699913217 -36.405214976 0.000281845 0 230 252
3.701358880 -36.502451894 -0.006791157 0 230 252
3.700673773 -36.599430928 -0.007940130 0 230 252
3.697451323 -36.696099891 -0.002034818 0 230 252
3.695516171 -36.792925121 0.000293265 0 230 252
3.699073606 -36.890425689 -0.012645721 0 230 252
3.706496502 -36.988407041 -0.036328920 0 230 252
3.713454936 -37.086337381 -0.058720128 0 230 252
3.717034737 -37.183854133 -0.071718447 0 230 252
3.715893621 -37.280786126 -0.071592414 0 230 252
3.709629655 -37.377077667 -0.057224522 0 230 252
3.700421288 -37.472995999 -0.034670363 0 230 252
3.691789725 -37.568980592 -0.013718323 0 230 252
3.686849825 -37.665425076 -0.003027395 0 230 252
3.685207094 -37.762283789 -0.001501071 0 230 252
3.684894626 -37.859310884 -0.003671645 0 230 252
3.684245553 -37.956295685 -0.004905400 0 230 252
3.684929850 -38.053451052 -0.009844754 0 230 252
3.689714776 -38.151132957 -0.026182621 0 230 252
3.695201181 -38.248909460 -0.044469633 0 230 252
3.695103120 -38.345971426 -0.047230998 0 230 252
3.691320911 -38.442557998 -0.039749370 0 230 252
3.688927778 -38.539322512 -0.036128212 0 230 252
3.689688313 -38.636495974 -0.041273185 0 230 252
3.692526306 -38.733941698 -0.052192511 0 230 252
3.693772119 -38.831182192 -0.058684502 0 230 252
3.692041018 -38.928033999 -0.056899444 0 230 252
3.688906129 -39.024700616 -0.051210629 0 230 252
3.686369578 -39.121444560 -0.047184093 0 230 252
3.684708528 -39.218303191 -0.045590395 0 230 252
3.684517952 -39.315356472 -0.048083668 0 230 252
3.685314827 -39.412541819 -0.053321105 0 230 252
3.685784585 -39.509684921 -0.057648058 0 230 252
3.686607013 -39.606876390 -0.062954428 0 230 252
3.687253632 -39.704045692 -0.067770970 0 230 252
3.683040065 -39.800562012 -0.059074250 0 230 252
3.673975731 -39.896421012 -0.036890262 0 230 252
3.663716037 -39.992111998 -0.011381608 0 230 252
3.656052317 -40.088148358 0.006911005 0 230 252
3.654394002 -40.184997314 0.008508454 0 230 252
3.658420431 -40.282622013 -0.005697987 0 230 252
3.664056941 -40.380471078 -0.024379909 0 230 252
3.668491016 -40.478160170 -0.039717807 0 230 252
3.670845915 -40.575567176 -0.049274040 0 230 252
3.669704690 -40.672494039 -0.049108983 0 230 252
3.664555714 -40.768865879 -0.037800009 0 230 252
3.656440739 -40.864822720 -0.018243371 0 230 252
3.650313226 -40.961050847 -0.004211270 0 230 252
3.651759497 -41.058332529 -0.011235750 0 230 252
3.656665909 -41.156100568 -0.027879662 0 230 252
3.658890467 -41.253496674 -0.037066054 0 230 252
3.655557201 -41.350112881 -0.030798486 0 230 252
3.651628576 -41.446643281 -0.022874413 0 230 252
3.657230666 -41.544520497 -0.041448577 0 230 252
3.392367976 -61.502885598 0.100850156 0 230 252
3.463594052 -61.615796472 -0.100158102 0 229 255
3.447214672 -61.709343794 -0.057345550 0 230 252
3.439481598 -61.804799219 -0.038595840 0 230 252
3.439933217 -61.902070069 -0.042624551 0 230 252
3.439894198 -61.999232735 -0.045286664 0 230 252
3.436783872 -62.095710619 -0.039399565 0 230 252
3.432169212 -62.191850536 -0.029324399 0 230 252
3.429108833 -62.288335819 -0.023574021 0 230 252
3.429161543 -62.385518009 -0.026487076 0 230 252
3.431093124 -62.483123314 -0.034628513 0 230 252
3.430796500 -62.580229250 -0.036567190 0 230 252
3.428811333 -62.676954944 -0.033805063 0 230 252
3.427487570 -62.773829319 -0.032882734 0 230 252
3.428954165 -62.871334910 -0.039725819 0 230 252
3.431432334 -62.969071731 -0.049383456 0 230 252
3.430581459 -63.066055343 -0.049774165 0 230 252
3.425130503 -63.161992794 -0.037360041 0 230 252
3.427404508 -63.259686872 -0.046446296 0 230 252
3.424244027 -63.356143220 -0.040405194 0 230 252
3.422944587 -63.453023375 -0.039543008 0 230 252
3.421640162 -63.549902179 -0.038665856 0 230 252
3.420118865 -63.646731024 -0.037183968 0 230 252
3.420396700 -63.743972868 -0.040708790 0 230 252
3.423240007 -63.841806167 -0.051373475 0 230 252
3.427472613 -63.939962738 -0.065904274 0 230 252
3.431146234 -64.037994284 -0.078878194 0 229 255
3.433993102 -64.135838221 -0.089549887 0 229 255
3.427095002 -64.231427291 -0.073095282 0 230 252
3.426361599 -64.328442537 -0.073799087 0 230 252
3.427376677 -64.425864472 -0.079368797 0 229 255
3.417855464 -64.520834588 -0.055609079 0 230 252
3.414392668 -64.617211203 -0.048712112 0 230 252
3.418380061 -64.715326474 -0.062552244 0 230 252
3.420334341 -64.812969847 -0.070732059 0 230 252
3.416862537 -64.909343674 -0.063806754 0 230 252
3.411571735 -65.005288551 -0.051816895 0 230 252
3.408734432 -65.101807117 -0.046655502 0 230 252
3.408998896 -65.199054913 -0.050127225 0 230 252
3.410213955 -65.296527985 -0.056244041 0 230 252
3.410724115 -65.393836203 -0.060397626 0 230 252
3.411399362 -65.491184683 -0.065009723 0 230 252
3.414197315 -65.589037758 -0.075529775 0 230 252
3.418365976 -65.687219300 -0.089864515 0 229 255
3.423673568 -65.785675763 -0.107368791 0 229 255
3.428355997 -65.883988165 -0.123131861 0 229 255
3.427586561 -65.981003949 -0.123717333 0 229 255
3.419944025 -66.076377096 -0.105168597 0 229 255
3.408863080 -66.170921949 -0.077046825 0 229 255
3.399234067 -66.265807211 -0.052965594 0 230 252
3.394526380 -66.361867843 -0.042583097 0 230 252
3.393807368 -66.458885175 -0.043303192 0 230 252
3.395282539 -66.556431437 -0.050130465 0 230 252
3.397760978 -66.654221755 -0.059749674 0 230 252
3.399825353 -66.751914686 -0.068215204 0 230 252
3.400231821 -66.849208604 -0.072064327 0 230 252
3.397840382 -66.945825145 -0.068123349 0 230 252
3.393690672 -67.042013578 -0.059286405 0 230 252
3.389667802 -67.138230456 -0.050801412 0 230 252
3.385529264 -67.234416836 -0.041993255 0 230 252
3.381678869 -67.330671130 -0.033986112 0 230 252
3.379288474 -67.427280102 -0.030042392 0 230 252
3.378794989 -67.524352403 -0.031378498 0 230 252
3.378612443 -67.621501354 -0.033579191 0 230 252
3.378590840 -67.718690477 -0.036226891 0 230 252
3.379678190 -67.816153140 -0.041960879 0 230 252
3.378743194 -67.913119218 -0.042063592 0 230 252
3.372512942 -68.008778812 -0.027423062 0 230 252
3.363570413 -68.103764112 -0.005230213 0 230 252
3.357565396 -68.199470369 0.008785711 0 230 252
3.358546614 -68.296904650 0.003352650 0 230 252
3.363365836 -68.395293388 -0.012764722 0 230 252
3.368777267 -68.493833899 -0.030529940 0 230 252
3.374235043 -68.592390917 -0.048423282 0 230 252
3.380252545 -68.691092554 -0.067874064 0 230 252
3.384520735 -68.789362598 -0.082453634 0 229 255
3.385053324 -68.886702027 -0.086631784 0 229 255
3.381733625 -68.983077276 -0.080083498 0 229 255
3.376564186 -69.078986494 -0.068384072 0 230 252
3.374006282 -69.175548973 -0.063954475 0 230 252
3.375263794 -69.273070821 -0.070146662 0 230 252
3.376703586 -69.370640387 -0.076845340 0 230 252
3.375224422 -69.467474733 -0.075415963 0 230 252
3.371114453 -69.563643355 -0.066660700 0 230 252
3.366943931 -69.659794253 -0.057735685 0 230 252
3.366242319 -69.756822734 -0.058467897 0 230 252
3.369349938 -69.854819279 -0.069805020 0 230 252
3.372209413 -69.952755868 -0.080450272 0 229 255
3.373239381 -70.050229211 -0.086000638 0 229 255
3.373767294 -70.147575995 -0.090152105 0 229 255
3.374090507 -70.244871649 -0.093732583 0 229 255
3.372318937 -70.341632069 -0.091479419 0 229 255
3.366509757 -70.437356714 -0.077982998 0 229 255
3.359315831 -70.532722093 -0.060629723 0 230 252
3.355152154 -70.628861963 -0.051712606 0 230 252
3.355571253 -70.726179679 -0.055554617 0 230 252
3.357713745 -70.823943022 -0.064194235 0 230 252
3.359122117 -70.921519167 -0.070788759 0 230 252
3.359920232 -71.018939309 -0.075683051 0 230 252
3.360601300 -71.116330527 -0.080250407 0 229 255
3.361394334 -71.213752107 -0.085128501 0 229 255
3.362211594 -71.311181380 -0.090073025 0 229 255
3.362012252 -71.408347500 -0.092185809 0 229 255
3.359937811 -71.505025536 -0.089076318 0 229 255
3.355933102 -71.601198917 -0.080590858 0 229 255
3.349592442 -71.696759360 -0.065599722 0 230 252
3.339242372 -71.791266061 -0.039442989 0 230 252
3.336612245 -71.887789553 -0.034781573 0 230 252
3.331527327 -71.983667259 -0.023283503 0 230 252
3.330399332 -72.080582295 -0.022802640 0 230 252
3.330661298 -72.177863269 -0.026191187 0 230 252
3.330754363 -72.275100686 -0.029108374 0 230 252
3.330420403 -72.372226177 -0.030835413 0 230 252
3.329556822 -72.469212112 -0.031086600 0 230 252
3.330259392 -72.566613005 -0.035697902 0 230 252
3.334187159 -72.664870758 -0.049289267 0 230 252
3.328860400 -72.760673843 -0.037108834 0 230 252
3.330273691 -72.858266708 -0.043696161 0 230 252
3.338211448 -72.957599721 -0.068451176 0 230 252
3.334965524 -73.053955726 -0.062061990 0 230 252
3.327142148 -73.149086927 -0.042924716 0 230 252
3.315028014 -73.243064740 -0.011837543 0 230 252
3.306989362 -73.338126081 0.007901774 0 230 252
3.305897337 -73.435046154 0.008297600 0 230 252
3.307493263 -73.532688526 0.001209145 0 230 252
3.309999916 -73.630578013 -0.008414496 0 230 252
3.314407665 -73.728982587 -0.023331346 0 230 252
3.320938219 -73.827964288 -0.044158902 0 230 252
3.327235635 -73.926888800 -0.064336331 0 230 252
3.330517600 -74.025002760 -0.076115319 0 230 252
3.330127508 -74.122124697 -0.077667191 0 229 255
3.327334849 -74.218594953 -0.072527166 0 230 252
3.323778727 -74.314856300 -0.065259872 0 230 252
3.321635983 -74.411500425 -0.061927555 0 230 252
3.321661846 -74.508734841 -0.064633520 0 230 252
3.323349803 -74.606423790 -0.071967252 0 230 252
3.325133892 -74.704141101 -0.079567707 0 229 255
3.324853794 -74.801295477 -0.081418511 0 229 255
3.322490487 -74.897879313 -0.077466603 0 229 255
3.320737115 -74.994629549 -0.075212248 0 230 252
3.321895226 -75.092179632 -0.081065259 0 229 255
3.324747593 -75.190197825 -0.091635765 0 229 255
3.326842118 -75.288010069 -0.100094703 0 229 255
3.325400658 -75.384848505 -0.098704835 0 229 255
3.319653838 -75.480496332 -0.085323283 0 229 255
3.312418420 -75.575728381 -0.067794710 0 230 252
3.307568580 -75.671616988 -0.056908906 0 230 252
3.307892812 -75.768939062 -0.060432145 0 230 252
3.310315271 -75.866845489 -0.069798117 0 230 252
3.310033650 -75.964001764 -0.071631957 0 230 252
3.305820134 -76.060062464 -0.062513947 0 230 252
3.302275551 -76.156307430 -0.055257858 0 230 252
3.302349380 -76.253561973 -0.058078444 0 230 252
3.303450217 -76.351104850 -0.063758374 0 230 252
3.302628862 -76.448110515 -0.064083659 0 230 252
3.298971955 -76.544320350 -0.056510341 0 230 252
3.295804796 -76.640665805 -0.050299936 0 230 252
3.292480223 -76.736965280 -0.043649980 0 230 252
3.288130757 -76.832974076 -0.034144340 0 230 252
3.284523282 -76.929189721 -0.026704167 0 230 252
3.284162080 -77.026320889 -0.028304549 0 230 252
3.287151330 -77.124400828 -0.039235778 0 230 252
3.290672454 -77.222634593 -0.051647461 0 230 252
3.293396092 -77.320645527 -0.061836972 0 230 252
3.295584526 -77.418507241 -0.070534809 0 230 252
3.296942482 -77.516135088 -0.076918519 0 230 252
3.296302457 -77.613195415 -0.077736195 0 229 255
3.293686131 -77.709692092 -0.073048139 0 230 252
3.291098982 -77.806195859 -0.068440246 0 230 252
3.291233169 -77.903477027 -0.071411174 0 230 252
3.292121849 -78.000975239 -0.076482617 0 230 252
3.288116893 -78.097070970 -0.067922338 0 230 252
3.280760696 -78.192201643 -0.050026346 0 230 252
3.276130219 -78.288111499 -0.039721402 0 230 252
3.276784444 -78.385540810 -0.044135489 0 230 252
3.280367640 -78.483816223 -0.056707051 0 230 252
3.282619299 -78.581710599 -0.065568725 0 230 252
3.282515906 -78.678926385 -0.067869488 0 230 252
3.281137427 -78.775773605 -0.066617477 0 230 252
3.279398904 -78.872516126 -0.064361495 0 230 252
3.276917409 -78.969042341 -0.060034870 0 230 252
3.273107353 -79.065181126 -0.052006406 0 230 252
3.269442357 -79.161359972 -0.044380878 0 230 252
3.268239962 -79.258254673 -0.043613920 0 230 252
3.269761321 -79.355944317 -0.050433087 0 230 252
3.271461047 -79.453688045 -0.057748111 0 230 252
3.270541028 -79.550667094 -0.057764609 0 230 252
3.264154167 -79.646044023 -0.042551596 0 230 252
3.254640190 -79.740499109 -0.018626433 0 230 252
3.253491763 -79.837405790 -0.018003312 0 230 252
3.255921700 -79.935365221 -0.027347169 0 230 252
3.257419780 -80.033052759 -0.034094222 0 230 252
3.255827822 -80.129830650 -0.032232456 0 230 252
3.251875257 -80.225910780 -0.023793716 0 230 252
3.254283219 -80.323869923 -0.033072324 0 230 252
3.265447050 -80.424424864 -0.066741253 0 230 252
3.275347471 -80.524614539 -0.096889928 0 229 255
3.276187296 -80.622122215 -0.101797423 0 229 255
3.270450967 -80.717676069 -0.088384406 0 229 255
3.263696040 -80.812923013 -0.072132635 0 230 252
3.258745392 -80.908703354 -0.060905970 0 230 252
3.256480853 -81.005282392 -0.057161063 0 230 252
3.255085696 -81.102120278 -0.055836986 0 230 252
3.252708843 -81.198664078 -0.051777024 0 230 252
3.249251430 -81.294883029 -0.044705712 0 230 252
3.245861956 -81.391120459 -0.037822545 0 230 252
3.244937565 -81.488096582 -0.037805613 0 230 252
3.247558897 -81.586139312 -0.047665521 0 230 252
3.251553749 -81.684598522 -0.061350927 0 230 252
3.253897455 -81.782563645 -0.070435491 0 230 252
3.251876190 -81.879213301 -0.067358698 0 230 252
3.245485997 -81.974541233 -0.052109354 0 230 252
3.236771064 -82.069161219 -0.030382254 0 230 252
3.236467133 -82.166324769 -0.032086457 0 230 252
3.229578453 -82.261490343 -0.015444803 0 230 252
3.225444627 -82.357488537 -0.006476876 0 230 252
3.225530240 -82.454768184 -0.009263088 0 230 252
3.230319667 -82.553481748 -0.025153067 0 230 252
3.234489822 -82.652010870 -0.039316842 0 230 252
3.235434369 -82.749558758 -0.044493085 0 230 252
3.236682511 -82.847200988 -0.050514149 0 230 252
3.236120769 -82.944290741 -0.051491796 0 230 252
3.234511998 -83.041059808 -0.049551311 0 230 252
3.234645590 -83.138363273 -0.052464102 0 230 252
3.234919538 -83.235710746 -0.055766909 0 230 252
3.234185682 -83.332749036 -0.056260852 0 230 252
3.233731513 -83.429873706 -0.057532986 0 230 252
3.235405663 -83.527655438 -0.064733839 0 230 252
3.238572098 -83.625900219 -0.076091414 0 230 252
3.241177633 -83.723974722 -0.085885290 0 229 255
3.235787019 -83.819575680 -0.073399630 0 230 252
3.238462283 -83.917674267 -0.083385757 0 229 255
3.240292920 -84.015513460 -0.091017630 0 229 255
3.238890740 -84.112349912 -0.089641243 0 229 255
3.241220474 -84.210347547 -0.098661703 0 229 255
3.234617769 -84.305564199 -0.082793385 0 229 255
3.229966722 -84.401385442 -0.072361657 0 230 252
3.226992522 -84.497727690 -0.066600899 0 230 252
3.225865510 -84.594646165 -0.065985793 0 230 252
3.226599275 -84.692147266 -0.070554274 0 230 252
3.228268560 -84.789943032 -0.077728379 0 229 255
3.229013603 -84.887450691 -0.082326279 0 229 255
3.227691691 -84.984309984 -0.081163974 0 229 255
3.225109266 -85.080772313 -0.076488398 0 230 252
3.223104553 -85.177415443 -0.073421430 0 230 252
3.222310398 -85.274439699 -0.073726434 0 230 252
3.220428261 -85.371120434 -0.070998864 0 230 252
3.214864541 -85.466636132 -0.058011917 0 230 252
3.206450446 -85.561245724 -0.037081523 0 230 252
3.201635286 -85.656990553 -0.026177988 0 230 252
3.204434193 -85.755149279 -0.036489312 0 230 252
3.209149064 -85.853919834 -0.052138391 0 230 252
3.211306894 -85.951881157 -0.060661501 0 230 252
3.211456281 -86.049205057 -0.063587192 0 230 252
3.212189029 -86.146715902 -0.068137379 0 230 252
3.213479317 -86.244406123 -0.074240137 0 230 252
3.213895739 -86.341818689 -0.077906875 0 229 255
3.212835362 -86.438759570 -0.077457477 0 229 255
3.211771974 -86.535699423 -0.076998635 0 229 255
3.211537990 -86.632905365 -0.078849905 0 229 255
3.210064807 -86.729713744 -0.077247051 0 229 255
3.205944309 -86.825670168 -0.068266216 0 230 252
3.201263514 -86.921443712 -0.057722939 0 230 252
3.199086961 -87.018021877 -0.054156812 0 230 252
3.199042962 -87.115287573 -0.056532186 0 230 252
3.197516150 -87.212074715 -0.054774503 0 230 252
3.192693678 -87.307794932 -0.043831968 0 230 252
3.185985519 -87.402901224 -0.027633547 0 230 252
3.180663826 -87.498452825 -0.015297531 0 230 252
3.180590799 -87.595705656 -0.017586648 0 230 252
3.185458123 -87.694565557 -0.033641925 0 230 252
3.191917255 -87.793948172 -0.054132188 0 230 252
3.196819935 -87.892829247 -0.070284214 0 230 252
3.198150919 -87.990549374 -0.076482026 0 230 252
3.194932477 -88.086784983 -0.070000806 0 230 252
3.188085130 -88.181831887 -0.053405642 0 230 252
3.180955070 -88.276781667 -0.036021422 0 230 252
3.175310630 -88.372213760 -0.022776077 0 230 252
3.172378536 -88.468532559 -0.017088291 0 230 252
3.173491036 -88.566179032 -0.022670874 0 230 252
3.178012641 -88.664948782 -0.037752996 0 230 252
3.181732324 -88.763458621 -0.050599397 0 230 252
3.181923932 -88.860808550 -0.053612696 0 230 252
3.178644324 -88.957013248 -0.046951221 0 230 252
3.172934692 -89.052412873 -0.033516491 0 230 252
3.166552577 -89.147586270 -0.018206463 0 230 252
3.161579482 -89.243222346 -0.006822031 0 230 252
3.160292780 -89.340078204 -0.005710064 0 230 252
3.163130770 -89.438303685 -0.016092209 0 230 252
3.166822321 -89.536815921 -0.028852220 0 230 252
3.168948378 -89.634810626 -0.037248361 0 230 252
3.169008353 -89.732119151 -0.039885461 0 230 252
3.167668023 -89.828961243 -0.038618939 0 230 252
3.165269706 -89.925449626 -0.034402770 0 230 252
3.162822062 -90.021920405 -0.030048043 0 230 252
3.162241136 -90.119015056 -0.030894788 0 230 252
3.165655378 -90.217449221 -0.042875101 0 230 252
3.172996015 -90.317204454 -0.065797469 0 230 252
3.179515504 -90.416690222 -0.086430429 0 229 255
3.180594121 -90.514351637 -0.091898514 0 229 255
3.177782918 -90.610704712 -0.086524405 0 229 255
3.175006989 -90.707068250 -0.081247513 0 229 255
3.174645828 -90.804245442 -0.082699722 0 229 255
3.174936888 -90.901643496 -0.085968710 0 229 255
3.172549008 -90.998136225 -0.081770153 0 229 255
3.166665002 -91.093443748 -0.067826341 0 230 252
3.160076393 -91.188508549 -0.051917522 0 230 252
3.154889168 -91.284044715 -0.039913398 0 230 252
3.151551750 -91.380206271 -0.033063851 0 230 252
3.150748167 -91.477228093 -0.033275470 0 230 252
3.153249715 -91.575375846 -0.042698110 0 230 252
3.161375910 -91.675444344 -0.067796878 0 230 252
3.168376166 -91.775135481 -0.089756594 0 229 255
3.169054438 -91.872672016 -0.094094594 0 229 255
3.163212479 -91.967978778 -0.080258073 0 229 255
3.156256311 -92.062900079 -0.063314786 0 230 252
3.153423049 -92.159230673 -0.057861983 0 230 252
3.155017789 -92.257080093 -0.064750213 0 230 252
3.157345649 -92.355183476 -0.073680894 0 230 252
3.157469432 -92.452530964 -0.076467157 0 230 252
3.154283382 -92.548739073 -0.070026814 0 230 252
3.148628792 -92.644094106 -0.056704705 0 230 252
3.143759913 -92.739716784 -0.045571487 0 230 252
3.142846413 -92.836703627 -0.045462222 0 230 252
3.145229005 -92.934831084 -0.054539376 0 230 252
3.147285608 -93.032848193 -0.062706917 0 230 252
3.147284365 -93.130153941 -0.065137438 0 230 252
3.147668335 -93.227594172 -0.068640694 0 230 252
3.149545313 -93.325554392 -0.076304601 0 230 252
3.150005826 -93.423023908 -0.080019223 0 229 255
3.148137447 -93.519683218 -0.077241151 0 229 255
3.143945865 -93.615531605 -0.067986152 0 230 252
3.137084019 -93.710445199 -0.051286712 0 230 252
3.139610775 -93.808635754 -0.060756775 0 230 252
3.136203757 -93.904752713 -0.053685437 0 230 252
3.137249121 -94.002427428 -0.059024108 0 230 252
3.139887698 -94.100662403 -0.068802927 0 230 252
3.141129502 -94.198409788 -0.074687225 0 230 252
3.140271081 -94.295420729 -0.074716035 0 230 252
3.139394768 -94.392425446 -0.074693934 0 230 252
3.140564498 -94.490150901 -0.080374317 0 229 255
3.142432443 -94.588124200 -0.088000057 0 229 255
3.142295381 -94.685391899 -0.090035648 0 229 255
3.140492470 -94.782071527 -0.087426457 0 229 255
3.139775920 -94.879134825 -0.087844588 0 229 255
3.138500763 -94.976000463 -0.086704485 0 229 255
3.132633356 -95.071237645 -0.072761683 0 230 252
3.125055459 -95.165863896 -0.054049420 0 230 252
3.121460262 -95.261900179 -0.046438482 0 230 252
3.124444128 -95.360274682 -0.057166911 0 230 252
3.132923392 -95.460609149 -0.083214007 0 229 255
3.141408327 -95.560952933 -0.109276114 0 229 255
3.141316325 -95.658243112 -0.111427147 0 229 255
3.134681082 -95.753196291 -0.095336218 0 229 255
3.126636284 -95.847640938 -0.075314592 0 230 252
3.119460676 -95.942391290 -0.057714857 0 230 252
3.113851658 -96.037698322 -0.044481251 0 230 252
3.111225482 -96.134072018 -0.039562071 0 230 252
3.111637827 -96.231535842 -0.043112658 0 230 252
3.111749881 -96.328892734 -0.045825081 0 230 252
3.110588456 -96.425792025 -0.044986233 0 230 252
3.111283406 -96.523360106 -0.049321651 0 230 252
3.113792237 -96.621583805 -0.058712939 0 230 252
3.112194527 -96.718327164 -0.056654725 0 230 252
3.107388605 -96.813910179 -0.045651296 0 230 252
3.104560097 -96.910205842 -0.040159582 0 230 252
3.107405913 -97.008555820 -0.050486352 0 230 252
3.110841508 -97.107122630 -0.062456452 0 230 252
3.101312043 -97.200985614 -0.038279724 0 230 252
3.076505495 -97.289289402 0.028490166 0 230 252
3.042291664 -97.374151948 0.121488968 0 230 249
3.005736619 -97.458136004 0.221016945 0 230 249
2.983344847 -97.547256653 0.281059681 0 230 249
2.971130186 -97.640075370 0.312730092 0 230 249
2.960544993 -97.733480747 0.339858829 0 231 246
2.950948542 -97.827240313 0.364232196 0 231 246
2.944881448 -97.922285495 0.378766793 0 231 246
2.941772305 -98.018410944 0.385055597 0 231 246
2.940538853 -98.115222971 0.386115917 0 231 246
2.936947841 -98.211168773 0.393750369 0 231 246
2.927979501 -98.305135205 0.416378471 0 231 246
2.926203247 -98.401742819 0.418955441 0 231 246
2.927913879 -98.499634650 0.411811577 0 231 246
2.932237535 -98.598492403 0.397383198 0 231 246
2.944078113 -98.700129932 0.361997375 0 231 246
2.949867200 -98.799540427 0.343484827 0 231 246
2.948353230 -98.896253732 0.345335380 0 231 246
2.949214644 -98.993846481 0.340563950 0 231 246
2.955228368 -99.093351145 0.321427807 0 231 246
2.959375591 -99.192168344 0.307496729 0 230 249
2.959051140 -99.289327868 0.306034616 0 230 249
2.958404976 -99.386368191 0.305470533 0 230 249
2.956820180 -99.483059223 0.307524623 0 230 249
2.945691850 -99.576192430 0.336189713 0 231 246
2.926908852 -99.666461528 0.386199476 0 231 246
2.916496437 -99.759843381 0.412871071 0 231 246
2.912264884 -99.855528957 0.422309786 0 231 246
2.919227485 -99.955401883 0.400536714 0 231 246
2.932012273 -100.057462386 0.362530266 0 231 246
2.936100052 -100.156271526 0.348774780 0 231 246
2.938500448 -100.254451007 0.339725227 0 231 246
2.931490098 -100.349096093 0.356917288 0 231 246
2.924518394 -100.443751004 0.374002774 0 231 246
2.916226574 -100.537904050 0.394770458 0 231 246
2.912803200 -100.633886818 0.401964127 0 231 246
2.910250537 -100.730196247 0.406730979 0 231 246
2.913337074 -100.828634788 0.395774349 0 231 246
2.921649918 -100.929052848 0.370245348 0 231 246
2.928082772 -101.028766382 0.349959424 0 231 246
2.925279910 -101.124985812 0.355427907 0 231 246
2.916610528 -101.218978443 0.377256189 0 231 246
2.908795885 -101.313289628 0.396702261 0 231 246
2.903610082 -101.408594703 0.408818979 0 231 246
2.900677799 -101.504753914 0.414652837 0 231 246
2.901826164 -101.602465792 0.409108723 0 231 246
2.906179408 -101.701401178 0.394628609 0 231 246
2.908107503 -101.799415081 0.386912075 0 231 246
2.904522457 -101.895324947 0.394570322 0 231 246
2.899527980 -101.990693741 0.406159992 0 231 246
2.895761775 -102.086529574 0.414325628 0 231 246
2.892118582 -102.182410336 0.422149332 0 231 246
2.891964443 -102.279627345 0.420244454 0 231 246
2.897060307 -102.378860819 0.403700203 0 231 246
2.903532108 -102.478627807 0.383319809 0 231 246
2.908209030 -102.577709934 0.367945578 0 231 246
2.909161202 -102.675361845 0.362959367 0 231 246
2.908997048 -102.772584828 0.361087224 0 231 246
2.910688837 -102.870524622 0.354040408 0 231 246
2.911512787 -102.968131184 0.349414712 0 231 246
2.910046805 -103.064853600 0.351176006 0 231 246
2.904744102 -103.160090487 0.363637971 0 231 246
2.896630102 -103.254234697 0.383941102 0 231 246
2.889633416 -103.348806675 0.401129508 0 231 246
2.885825782 -103.444612044 0.409425523 0 231 246
2.886106837 -103.542004129 0.406320118 0 231 246
2.890180796 -103.640872618 0.392638022 0 231 246
2.896112995 -103.740468564 0.373774524 0 231 246
2.902527906 -103.840257961 0.353565674 0 231 246
2.900242784 -103.936658503 0.357620721 0 231 246
2.881375034 -104.026581443 0.407923454 0 231 246
2.865283584 -104.117575859 0.450484923 0 231 246
2.861034670 -104.213192917 0.460020330 0 231 246
2.869892638 -104.313941653 0.433003080 0 231 246
2.885560526 -104.417368195 0.386994343 0 231 246
2.895515272 -104.518565179 0.356919727 0 231 246
2.890650583 -104.613948230 0.368176320 0 231 246
2.883262024 -104.708335640 0.386472983 0 231 246
2.878317586 -104.803680177 0.397954277 0 231 246
2.876185053 -104.900129605 0.401594361 0 231 246
2.872296413 -104.995885408 0.410133259 0 231 246
2.869675331 -105.092139354 0.415138038 0 231 246
2.872981805 -105.190734596 0.403611849 0 231 246
2.877472256 -105.289801474 0.388784432 0 231 246
2.881243379 -105.388587684 0.375964135 0 231 246
2.883133438 -105.486631909 0.368391123 0 231 246
2.883353669 -105.584015772 0.365476319 0 231 246
2.880189693 -105.680056471 0.372001321 0 231 246
2.874421768 -105.775060251 0.385790052 0 231 246
2.868412340 -105.869964156 0.400253507 0 231 246
2.866628975 -105.966547379 0.402931132 0 231 246
2.869839959 -106.065121146 0.391679923 0 231 246
2.874889175 -106.164431704 0.375302540 0 231 246
2.882104783 -106.264612281 0.352883626 0 231 246
2.889534042 -106.364884572 0.329869616 0 231 246
2.895643884 -106.464635219 0.310536506 0 230 249
2.897880453 -106.562839524 0.302007538 0 230 249
2.885427686 -106.655155497 0.334451074 0 231 246
2.860579114 -106.742486715 0.401470526 0 231 246
2.847644404 -106.834586324 0.435261107 0 231 246
2.787688170 -106.907765289 0.600207513 0 231 243
