ply
format ascii 1.0
comment coordinate_system ground
comment units millimeter
element vertex 1560
property double x
property double y
property double z
property uchar red
property uchar green
property uchar blue
comment color_mapping zg_high_contrast_from_zg
comment color_zg_range_mm -0.181343067 0.587567846
end_header
5.810003471 118.452355652 0.414368931 255 120 0
5.799788576 118.350753525 0.437780386 255 98 0
5.793817971 118.251229544 0.449489057 255 88 3
5.791060910 118.153276232 0.452337152 255 88 3
5.791418553 118.056841762 0.446597092 255 90 0
5.794513714 117.961738932 0.433308888 255 104 0
5.796277535 117.865985147 0.423692919 255 112 0
5.793196859 117.767874135 0.427437367 255 109 0
5.790908044 117.670149190 0.428999156 255 107 0
5.791038628 117.573599336 0.423889991 255 112 0
5.790471649 117.476710174 0.420705454 255 115 0
5.788348378 117.379066371 0.421813715 255 115 0
5.786254706 117.281437608 0.422841365 255 112 0
5.782108881 117.182816639 0.429529367 255 107 0
5.776035031 117.083265820 0.441535493 255 96 0
5.773538983 116.985447036 0.443675940 255 93 0
5.779111903 116.891524030 0.423564811 255 112 0
5.784232748 116.797377836 0.404701214 255 128 0
5.780721395 116.699066761 0.409644550 255 126 0
5.768916123 116.596763563 0.437462278 255 98 0
5.753368191 116.492667616 0.475603037 255 73 33
5.747772737 116.393367587 0.486297530 255 65 47
5.752537942 116.299048199 0.468419601 255 76 25
5.751291283 116.201838454 0.467122624 255 78 22
5.746054284 116.102714826 0.476831667 255 71 36
5.748987612 116.007509994 0.464008614 255 80 18
5.754734563 115.913649415 0.443426608 255 93 0
5.749919728 115.814729755 0.451974385 255 88 3
5.756236133 115.721134908 0.429823569 255 107 0
5.760180618 115.626401197 0.414215259 255 120 0
5.760665580 115.530012154 0.408149172 255 126 0
5.756310625 115.431313319 0.415432609 255 120 0
5.751280366 115.332295053 0.424579644 255 112 0
5.737447708 115.229087888 0.458005228 255 84 11
5.727779950 115.127872159 0.479945115 255 69 40
5.728417187 115.031562435 0.473464262 255 73 33
5.730178969 114.935785569 0.463882750 255 80 18
5.723901568 114.836190331 0.476475073 255 71 36
5.710622245 114.733277892 0.508380690 255 51 73
5.696052485 114.629763092 0.543846860 255 27 117
5.686791319 114.528772373 0.564672507 255 14 142
5.679976091 114.428945152 0.578753081 255 4 161
5.675070443 114.330025052 0.587567846 255 0 168
5.674148554 114.232989748 0.585395729 255 0 168
5.680954832 114.139602149 0.561908691 255 16 139
5.687421954 114.046048514 0.539357883 255 31 109
5.692473731 113.951822060 0.520711706 255 43 87
5.695883041 113.856817455 0.506596685 255 51 73
5.698132425 113.761263614 0.495681908 255 59 58
5.701356917 113.666165588 0.482078407 255 69 40
5.704104443 113.570840167 0.469791384 255 76 25
5.705131646 113.474704310 0.462250428 255 80 18
5.703146649 113.377154118 0.463019035 255 80 18
5.699064523 113.278621835 0.469573254 255 76 25
5.698699557 113.181832216 0.465875306 255 78 22
5.697914811 113.084845598 0.463336240 255 80 18
5.690049058 112.984548621 0.480330295 255 69 40
5.677215869 112.881936576 0.511027712 255 49 76
5.674267587 112.783946659 0.514459806 255 47 80
5.688712320 112.694068721 0.469915570 255 76 25
5.702088069 112.603680822 0.428320611 255 109 0
5.711603297 112.511484573 0.397375309 255 137 0
5.718176668 112.417911722 0.374545719 255 156 0
5.720528403 112.322370797 0.363362226 255 166 0
5.718010043 112.224565471 0.365613784 255 164 0
5.714361176 112.126236588 0.370984897 255 161 0
5.711139542 112.028107688 0.375178547 255 156 0
5.708508655 111.930254032 0.377743654 255 153 0
5.706322824 111.832607509 0.379082087 255 153 0
5.702805216 111.734345812 0.384095354 255 147 0
5.695701024 111.634428457 0.399003593 255 134 0
5.681843496 111.531397310 0.432542768 255 104 0
5.664563815 111.426796978 0.475523726 255 73 33
5.658199804 111.327240872 0.488393841 255 65 47
5.656123861 111.229663829 0.489435846 255 63 51
5.661180064 111.135369859 0.470803707 255 75 29
5.657915880 111.037245102 0.475125629 255 73 33
5.659578266 110.941385516 0.465857737 255 78 22
5.659672829 110.844804031 0.460915924 255 82 14
5.660278417 110.748456002 0.454565297 255 86 7
5.665593015 110.654264859 0.435224719 255 101 0
5.678935075 110.563744866 0.393739216 255 139 0
5.687647324 110.471095435 0.365026840 255 166 0
5.680495649 110.371185892 0.380080196 255 153 0
5.662044783 110.266119509 0.426306830 255 109 0
5.651112943 110.164498094 0.451791442 255 88 3
5.640575217 110.063063860 0.476190051 255 73 33
5.635217981 109.963997279 0.486297820 255 65 47
5.631911475 109.865867544 0.490749054 255 63 51
5.630228258 109.768477873 0.490722921 255 63 51
5.629987982 109.671744440 0.486716907 255 65 47
5.631212054 109.575675321 0.478671889 255 71 36
5.630822121 109.478872046 0.475080695 255 73 33
5.627537405 109.380755797 0.479476960 255 69 40
5.621342734 109.281323009 0.491902674 255 61 55
5.617813523 109.183100471 0.496975663 255 59 58
5.623827992 109.089195635 0.475719037 255 73 33
5.643929715 109.001650585 0.415596761 255 120 0
5.730713942 108.750852530 0.162175988 229 255 1
5.743219084 108.659811789 0.123014155 182 255 22
5.797704134 108.587649122 -0.031971736 0 254 108
5.810205865 108.496570079 -0.071123534 0 247 147
5.815397346 108.402197036 -0.090105170 0 244 165
5.812149488 108.304031610 -0.085801063 0 245 162
5.804102252 108.203715665 -0.068253887 0 248 144
5.795794173 108.103288119 -0.049985810 0 251 126
5.789829550 108.003915096 -0.038182432 0 253 114
5.786957806 107.905929118 -0.034911632 0 253 111
5.787104683 107.809293465 -0.039968650 0 253 114
5.788244144 107.713100038 -0.047763418 0 251 123
5.788928122 107.616701672 -0.054300479 0 250 129
5.789198434 107.520117530 -0.059695196 0 249 135
5.788602120 107.423146348 -0.062697732 0 249 138
5.785308820 107.324974628 -0.058257648 0 249 135
5.779883329 107.225856564 -0.047933244 0 251 123
5.784861153 107.131363210 -0.066313233 0 248 141
5.779582350 107.032312832 -0.056391470 0 250 132
5.772256600 106.932357864 -0.040820447 0 252 117
5.761130540 106.830723756 -0.014761998 15 255 96
5.751476055 106.729748736 0.007237193 40 255 84
5.747988344 106.631507916 0.012221414 47 255 81
5.750000824 106.535699658 0.002029735 36 255 86
5.753251729 106.440435848 -0.011578295 18 255 94
5.755547302 106.344747229 -0.022549320 4 255 100
5.756143468 106.248306905 -0.028830094 0 254 105
5.755257381 106.151212457 -0.031019763 0 254 105
5.754328518 106.054099003 -0.033090392 0 254 108
5.752502001 105.956590740 -0.032682994 0 254 108
5.748293426 105.858036632 -0.025701385 0 255 102
5.743305527 105.759142832 -0.016568153 11 255 97
5.739936863 105.660962032 -0.011902057 18 255 94
5.738574956 105.563662169 -0.012772529 18 255 94
5.738815493 105.467063961 -0.018063950 11 255 97
5.740922170 105.371280910 -0.028504066 0 254 105
5.743827515 105.275844409 -0.041147223 0 252 117
5.744096101 105.179253607 -0.046513199 0 251 123
5.741918970 105.081594856 -0.045129077 0 252 120
5.740498307 104.984266614 -0.045831449 0 252 120
5.741660552 104.888063371 -0.053660596 0 250 129
5.745679404 104.793101257 -0.069371930 0 248 144
5.749310121 104.697966505 -0.084011296 0 245 159
5.751416502 104.602166079 -0.094443160 0 243 171
5.753419756 104.506318446 -0.104589512 0 242 180
5.753390282 104.409587123 -0.109125281 0 241 183
5.750027906 104.311411222 -0.104462303 0 242 180
5.744147732 104.212147330 -0.092849878 0 244 168
5.737186265 104.112419496 -0.078252243 0 246 153
5.730229757 104.012698260 -0.063667109 0 249 138
5.724219205 103.913389802 -0.051691391 0 251 126
5.719799344 103.814771102 -0.044104445 0 252 120
5.716162943 103.716492510 -0.038678560 0 253 114
5.712320937 103.618127324 -0.032684165 0 254 108
5.709356765 103.520141803 -0.029111325 0 254 105
5.708645779 103.423126003 -0.031755799 0 254 108
5.706719409 103.325588047 -0.031045016 0 254 105
5.703148785 103.227345343 -0.025795307 0 255 102
5.699916072 103.129249346 -0.021477102 7 255 99
5.698068255 103.031748017 -0.020979960 7 255 99
5.699286256 102.935558950 -0.028943102 0 254 105
5.701088418 102.839617819 -0.038517523 0 253 114
5.701408226 102.743041378 -0.043999837 0 252 120
5.700128428 102.645781290 -0.045066372 0 252 120
5.697990550 102.548155514 -0.043763635 0 252 120
5.695610803 102.450427502 -0.041792303 0 252 117
5.692654629 102.352455154 -0.038228995 0 253 114
5.688857217 102.254126538 -0.032342809 0 254 108
5.685764263 102.156099225 -0.028399835 0 254 105
5.685894707 102.059441494 -0.033352430 0 254 108
5.689523924 101.964266431 -0.047960774 0 251 123
5.694357342 101.869597927 -0.065891892 0 248 141
5.698064582 101.774448216 -0.080713842 0 246 156
5.699844415 101.678479749 -0.090215121 0 244 165
5.700634568 101.582090933 -0.096983862 0 243 171
5.701870712 101.485888942 -0.104982623 0 242 180
5.701748131 101.389112124 -0.109230188 0 241 183
5.696423222 101.290142456 -0.099117644 0 243 174
5.686254614 101.189136863 -0.075634633 0 247 150
5.680957511 101.090187173 -0.065596488 0 248 141
5.671622658 100.989543910 -0.044412298 0 252 120
5.667212113 100.890974373 -0.036818889 0 253 111
5.666003614 100.793750503 -0.038062673 0 253 114
5.667083288 100.697485652 -0.045621298 0 252 120
5.670018276 100.601995966 -0.058300071 0 249 135
5.673127813 100.506576224 -0.071459741 0 247 147
5.670789844 100.408876542 -0.069581958 0 248 144
5.664194498 100.309400097 -0.055951576 0 250 132
5.658958379 100.210494883 -0.046071879 0 252 120
5.655777892 100.112449605 -0.041865221 0 252 117
5.653412525 100.014745345 -0.039907478 0 253 114
5.652005628 99.917440810 -0.040594377 0 252 117
5.652309989 99.820847804 -0.046003919 0 252 120
5.653665409 99.724690208 -0.054313786 0 250 129
5.653609457 99.627945178 -0.058726782 0 249 135
5.651376547 99.530296985 -0.057129530 0 250 132
5.647173590 99.431833803 -0.050093088 0 251 126
5.642590214 99.333215594 -0.042005420 0 252 117
5.640132731 99.235478821 -0.039785024 0 253 114
5.639873583 99.138650973 -0.043631966 0 252 120
5.640627943 99.042240668 -0.050275661 0 251 126
5.640840753 98.945605717 -0.055423454 0 250 132
5.643570266 98.850006260 -0.067517604 0 248 144
5.647541323 98.754914742 -0.083038137 0 245 159
5.649298639 98.658909338 -0.092446709 0 244 168
5.648311134 98.561774464 -0.094277161 0 243 171
5.645830142 98.464026707 -0.091983747 0 244 168
5.642426990 98.365901982 -0.087143587 0 245 162
5.637295677 98.267071241 -0.077531611 0 246 153
5.629505678 98.167155710 -0.060578941 0 249 135
5.621715602 98.067245257 -0.043624841 0 252 120
5.619257432 97.969517538 -0.041388914 0 252 117
5.619630451 97.872946081 -0.046967809 0 251 123
5.617515975 97.775359482 -0.045678618 0 252 120
5.616184990 97.678092759 -0.046551329 0 251 123
5.618310748 97.582232736 -0.056965977 0 250 132
5.622162586 97.487071931 -0.072144872 0 247 147
5.624532431 97.391305487 -0.083231533 0 245 159
5.625098712 97.294804620 -0.089338127 0 244 165
5.624201531 97.197709260 -0.091403508 0 244 168
5.622885474 97.100444120 -0.092311457 0 244 168
5.623697478 97.004040177 -0.099093456 0 243 174
5.627552516 96.908864852 -0.114275637 0 240 189
5.629259483 96.812818284 -0.123526548 0 239 198
5.622099978 96.713192327 -0.108297871 0 241 183
5.609937321 96.611554340 -0.079255165 0 246 156
5.598603880 96.510258724 -0.052500448 0 250 129
5.591654130 96.410734553 -0.037847137 0 253 114
5.590096893 96.313382297 -0.038080651 0 253 114
5.592456962 96.217603415 -0.049128347 0 251 123
5.597271880 96.122806730 -0.066952698 0 248 141
5.602608685 96.028214721 -0.086217075 0 245 162
5.604753956 95.932339898 -0.096669022 0 243 171
5.603941258 95.835279343 -0.098953262 0 243 174
5.602120603 95.737815758 -0.098453563 0 243 174
5.600404330 95.640394415 -0.098241008 0 243 174
5.598043920 95.542716623 -0.096248959 0 243 171
5.590956780 95.443156185 -0.081205358 0 246 156
5.577902421 95.341224637 -0.049684998 0 251 126
5.575259756 95.243443395 -0.046910220 0 251 123
5.573417824 95.145981528 -0.046345229 0 251 123
5.579058640 95.051490750 -0.066439459 0 248 141
5.584719514 94.957002809 -0.086588237 0 245 162
5.575508005 94.856617027 -0.065672294 0 248 141
5.580379475 94.761812011 -0.083639568 0 245 159
5.575786874 94.663259842 -0.075474626 0 247 150
5.575801531 94.566530567 -0.080029775 0 246 156
5.578433902 94.470833659 -0.091811803 0 244 168
5.579441915 94.374493422 -0.099107804 0 243 174
5.577290971 94.276907188 -0.097680421 0 243 174
5.571755903 94.177989954 -0.086907790 0 245 162
5.566405751 94.079148828 -0.076644593 0 246 153
5.565135010 93.981913306 -0.077644362 0 246 153
5.568183121 93.886372683 -0.090568424 0 244 165
5.569937695 93.790321822 -0.099919808 0 243 174
5.567013261 93.692436301 -0.096350307 0 243 171
5.562416344 93.593897814 -0.088161548 0 245 162
5.560046206 93.496232425 -0.086120426 0 245 162
5.560507778 93.399673813 -0.091897431 0 244 168
5.559651784 93.302600027 -0.094035239 0 244 168
5.559533623 93.205813641 -0.098209419 0 243 174
5.564172566 93.110878744 -0.115518581 0 240 192
5.569573971 93.016236077 -0.134932304 0 237 210
5.569338676 92.919398087 -0.138780168 0 236 213
5.563764455 92.820486820 -0.127884204 0 238 204
5.556982604 92.721110632 -0.113652331 0 240 189
5.551755823 92.622341316 -0.103713453 0 242 180
5.548945841 92.524510645 -0.100447238 0 242 177
5.546944255 92.426993901 -0.099412277 0 243 174
5.543291842 92.328840145 -0.093817575 0 244 168
5.539175873 92.230509464 -0.086941667 0 245 162
5.537995351 92.133312858 -0.088170832 0 245 162
5.539473299 92.037140288 -0.096740320 0 243 171
5.539502836 91.940408457 -0.101309041 0 242 177
5.537665992 91.842958355 -0.100722702 0 242 177
5.535976629 91.745565479 -0.100542583 0 242 177
5.534972084 91.648435805 -0.102252574 0 242 177
5.533346047 91.551067896 -0.102245241 0 242 177
5.531594209 91.453652251 -0.101889446 0 242 177
5.531303633 91.356796059 -0.105568018 0 242 180
5.531290045 91.260045123 -0.110010513 0 241 186
5.530136417 91.162858197 -0.111303636 0 241 186
5.527827287 91.065230690 -0.109404642 0 241 186
5.525675886 90.967664227 -0.107940170 0 241 183
5.524774586 90.870574371 -0.109927001 0 241 186
5.523871423 90.773483688 -0.111907655 0 241 186
5.522631332 90.676264912 -0.112956784 0 240 189
5.521398712 90.579049111 -0.114025510 0 240 189
5.518646114 90.481257273 -0.110895428 0 241 186
5.513572311 90.382587727 -0.101353694 0 242 177
5.509539805 90.284315168 -0.094686622 0 243 171
5.509750207 90.187648362 -0.099736360 0 243 174
5.511980031 90.091743001 -0.110362308 0 241 186
5.510757323 89.994532984 -0.111452119 0 241 186
5.504104754 89.895277249 -0.097544628 0 243 174
5.497829442 89.796167781 -0.084677859 0 245 159
5.497816649 89.699417090 -0.089105990 0 244 165
5.498382235 89.602882863 -0.095130512 0 243 171
5.497014172 89.505621796 -0.095813559 0 243 171
5.493389789 89.407515141 -0.090263863 0 244 165
5.488658051 89.308995754 -0.081654657 0 246 156
5.488058664 89.212025118 -0.084457500 0 245 159
5.492409663 89.116904228 -0.100931924 0 242 177
5.495926220 89.021467683 -0.115100785 0 240 189
5.497004959 88.925118435 -0.122535595 0 239 198
5.493983126 88.827239759 -0.118643771 0 239 195
5.487838303 88.728200204 -0.106125207 0 242 180
5.482313136 88.629394934 -0.095316946 0 243 171
5.480029095 88.531796957 -0.093459551 0 244 168
5.485204910 88.436967959 -0.112205403 0 241 186
5.482898765 88.339360826 -0.110284915 0 241 186
5.480589758 88.241753592 -0.108355449 0 241 183
5.476855034 88.143619925 -0.102486976 0 242 177
5.472443136 88.045238069 -0.094746979 0 243 171
5.466770239 87.946393278 -0.083522843 0 245 159
5.465608778 87.849215696 -0.084758629 0 245 159
5.471377371 87.754591156 -0.105135061 0 242 180
5.477191171 87.659978055 -0.125635514 0 238 201
5.477264759 87.563249468 -0.130279767 0 238 204
5.472025536 87.464568923 -0.120248129 0 239 195
5.467708612 87.366229933 -0.112762890 0 240 189
5.466577927 87.269061138 -0.114077542 0 240 189
5.466627181 87.172324385 -0.118650392 0 239 195
5.466738288 87.075609417 -0.123393085 0 239 198
5.466899644 86.978911925 -0.128273569 0 238 204
5.465950936 86.881808387 -0.130086769 0 238 204
5.461813839 86.783542366 -0.123091742 0 239 198
5.454906844 86.684269922 -0.108444342 0 241 183
5.448923209 86.585337879 -0.096346330 0 243 171
5.446601269 86.487740380 -0.094361880 0 243 171
5.445396901 86.390549592 -0.095463451 0 243 171
5.443772717 86.293206672 -0.095404299 0 243 171
5.443721234 86.196433966 -0.099688448 0 243 174
5.445795242 86.100429733 -0.109842974 0 241 186
5.446456752 86.003912470 -0.116094687 0 240 192
5.445697309 85.906880739 -0.118420169 0 239 195
5.443820327 85.809445626 -0.117657514 0 240 192
5.440551796 85.711509662 -0.113049740 0 240 189
5.436730877 85.613376537 -0.106914922 0 241 183
5.433928333 85.515611759 -0.103592199 0 242 180
5.433242407 85.418608693 -0.106115473 0 242 180
5.433330427 85.321883091 -0.110775725 0 241 186
5.434196269 85.225435459 -0.117583699 0 240 192
5.437306882 85.129790211 -0.130591887 0 237 207
5.441565652 85.034552508 -0.146770963 0 235 222
5.442325548 84.938060509 -0.153283367 0 234 228
5.437753191 84.839663794 -0.145064145 0 235 219
5.431612784 84.740710657 -0.132511932 0 237 207
5.426585191 84.642157782 -0.123032773 0 239 198
5.420655700 84.543287050 -0.111060874 0 241 186
5.414349687 84.444286223 -0.098047606 0 243 174
5.410057852 84.346004535 -0.090597563 0 244 165
5.408436277 84.248672366 -0.090523350 0 244 165
5.409852835 84.152416992 -0.098841384 0 243 174
5.415035395 84.057492528 -0.117562654 0 240 192
5.422199237 83.963263739 -0.141756705 0 236 216
5.429692025 83.869144859 -0.166858724 0 231 243
5.432984096 83.773537653 -0.180354574 0 229 255
5.426950009 83.674640858 -0.168083899 0 231 243
5.416385589 83.574153238 -0.143295913 0 235 219
5.407102405 83.474123382 -0.122046345 0 239 198
5.400445997 83.375022418 -0.108052667 0 241 183
5.395675822 83.276587523 -0.099269034 0 243 174
5.393063044 83.178911571 -0.096444695 0 243 171
5.392345864 83.081900443 -0.098856442 0 243 174
5.392224804 82.985097540 -0.102914125 0 242 177
5.391096864 82.887942215 -0.104188943 0 242 180
5.387743490 82.790010419 -0.099314163 0 243 174
5.391390754 82.694520529 -0.113780101 0 240 189
5.386685748 82.596118995 -0.105168798 0 242 180
5.386248075 82.499204426 -0.108346538 0 241 183
5.388482359 82.403217681 -0.118905620 0 239 195
5.389750524 82.306893169 -0.126794435 0 238 201
5.389744209 82.210125102 -0.131160960 0 237 207
5.390599246 82.113654515 -0.137906338 0 236 213
5.385754140 82.015210870 -0.128901423 0 238 204
5.386012896 81.918533560 -0.133997221 0 237 210
5.392085863 81.823861905 -0.155156640 0 233 231
5.386700769 81.725234721 -0.144656489 0 235 219
5.386205268 81.628294658 -0.147665227 0 235 222
5.390568879 81.533025636 -0.164098832 0 232 240
5.384422019 81.434141093 -0.151490576 0 234 228
5.390390281 81.339418600 -0.172356001 0 230 249
5.381976935 81.239760207 -0.153483048 0 234 228
5.374520656 81.140435201 -0.137253301 0 236 213
5.370577054 81.042316699 -0.130728230 0 237 207
5.366887201 80.944287126 -0.124903164 0 238 201
5.361999100 80.845850607 -0.115766052 0 240 192
5.359674875 80.748291137 -0.113712154 0 240 189
5.361374221 80.652102882 -0.122774961 0 239 198
5.364325997 80.556338583 -0.135297482 0 237 210
5.364801094 80.459729707 -0.140975522 0 236 216
5.362164824 80.362063672 -0.138055206 0 236 213
5.359422115 80.264362780 -0.134839677 0 237 210
5.359969261 80.167777281 -0.140713693 0 236 216
5.361994754 80.071690649 -0.150671745 0 234 225
5.361548091 79.974766400 -0.153797616 0 234 228
5.358801887 79.877065619 -0.150568179 0 234 225
5.356563053 79.779537193 -0.148739654 0 234 225
5.355281743 79.682332126 -0.149555976 0 234 225
5.352319565 79.584561889 -0.145726463 0 235 222
5.347432611 79.486146460 -0.136577043 0 236 213
5.341894501 79.387515456 -0.125627090 0 238 201
5.337383666 79.289232248 -0.117514691 0 240 192
5.334969175 79.191653614 -0.115194129 0 240 189
5.333740135 79.094472512 -0.116148345 0 240 192
5.331180870 78.996847185 -0.113425547 0 240 189
5.326163100 78.898402669 -0.103907774 0 242 180
5.321657817 78.800132014 -0.095805061 0 243 171
5.319499778 78.702645462 -0.094187681 0 244 168
5.318738510 78.605624257 -0.096429142 0 243 171
5.320251178 78.509358157 -0.104953524 0 242 180
5.323183420 78.413561105 -0.117399908 0 240 192
5.323649251 78.316943682 -0.123029410 0 239 198
5.320681158 78.219188450 -0.119168186 0 239 195
5.315746724 78.120784571 -0.109871805 0 241 186
5.309705653 78.022018211 -0.097516019 0 243 174
5.302633683 77.922915620 -0.082310082 0 245 159
5.299162135 77.825003939 -0.077052957 0 246 153
5.302321388 77.729276361 -0.090119524 0 244 165
5.304741257 77.633302542 -0.101141792 0 242 177
5.302323788 77.535737795 -0.098794547 0 243 174
5.295640485 77.436775088 -0.084657012 0 245 159
5.289127138 77.337872377 -0.070987960 0 247 147
5.287791219 77.240667902 -0.071626353 0 247 147
5.290962353 77.144936647 -0.084719709 0 245 159
5.294506030 77.049323808 -0.098841721 0 243 174
5.298416488 76.953827078 -0.113976482 0 240 189
5.304124249 76.858911919 -0.134077563 0 237 210
5.310132839 76.764089486 -0.155009188 0 233 231
5.313543764 76.668417688 -0.168760675 0 231 243
5.312193024 76.571197219 -0.169351133 0 231 246
5.307086552 76.472759599 -0.159560536 0 233 234
5.302012832 76.374335703 -0.149859284 0 234 225
5.298803121 76.276517692 -0.145308613 0 235 222
5.296583842 76.179021265 -0.143494197 0 235 219
5.294734085 76.081644972 -0.142699988 0 235 219
5.293756827 75.984550468 -0.144316148 0 235 219
5.294352949 75.887962337 -0.150279853 0 234 225
5.295010191 75.791392625 -0.156411475 0 233 231
5.292684091 75.693863704 -0.154296469 0 234 228
5.288580326 75.595765665 -0.147267078 0 235 222
5.285168039 75.497891484 -0.142147731 0 236 216
5.290367300 75.402774391 -0.160828964 0 232 237
5.287160372 75.304966210 -0.156275089 0 233 231
5.282181331 75.206594068 -0.146822049 0 235 222
5.281585960 75.109622485 -0.149484178 0 234 225
5.283783265 75.013539836 -0.159864177 0 233 234
5.284608623 74.917018401 -0.166451149 0 231 243
5.282111043 74.819439998 -0.163852466 0 232 240
5.277334082 74.721139529 -0.154952414 0 233 231
5.272010083 74.622668578 -0.144539160 0 235 219
5.268938143 74.524913728 -0.140349544 0 236 216
5.269975463 74.428459525 -0.147517094 0 235 222
5.274731880 74.333178070 -0.164963539 0 232 240
5.278019589 74.237429027 -0.178349437 0 229 255
5.273724669 74.139288257 -0.170775157 0 231 246
5.265784460 74.040003157 -0.153123686 0 234 228
5.259735624 73.941317663 -0.140698981 0 236 216
5.255047078 73.843062932 -0.132033126 0 237 207
5.249984980 73.744693913 -0.122333546 0 239 198
5.244843232 73.646303049 -0.112412627 0 240 189
5.240782256 73.548253295 -0.105477998 0 242 180
5.239301891 73.451011839 -0.105675577 0 242 180
5.241994085 73.355072314 -0.117405978 0 240 192
5.246600552 73.259726365 -0.134426931 0 237 210
5.246961746 73.163055115 -0.139711972 0 236 216
5.238173341 73.063539199 -0.119704050 0 239 195
5.229446002 72.964048176 -0.099863649 0 243 174
4.839547243 53.017801531 0.122738820 182 255 22
4.849859482 52.923405166 0.090139471 142 255 40
4.869259298 52.831102835 0.032393907 73 255 70
4.884098023 52.737731337 -0.012729705 18 255 94
4.890033486 52.642294533 -0.033215475 0 254 108
4.891426886 52.545806711 -0.041131445 0 252 117
4.889347339 52.448518815 -0.039435926 0 253 114
4.886789763 52.351122062 -0.036416465 0 253 111
4.884168558 52.253711934 -0.033219799 0 254 108
4.887804225 52.157734027 -0.047336519 0 251 123
4.881672932 52.059522578 -0.034424235 0 253 111
4.875912546 51.961399605 -0.022537135 4 255 100
4.870611466 51.863384800 -0.011919866 18 255 94
4.863864598 51.765044844 0.002699587 36 255 86
4.857945010 51.666896912 0.015030913 51 255 80
4.855710679 51.569587137 0.017165017 55 255 78
4.859820649 51.473712317 0.001743164 33 255 88
4.868993569 51.378976048 -0.027688907 0 255 102
4.876148967 51.283777540 -0.051536876 0 251 126
4.875898229 51.186907292 -0.054888105 0 250 129
4.870875389 51.088965138 -0.045031794 0 252 120
4.864676110 50.990762406 -0.031918555 0 254 108
4.859099995 50.892703084 -0.020528666 7 255 99
4.854726584 50.794915901 -0.012466018 18 255 94
4.851453724 50.697376701 -0.007447952 22 255 92
4.850488161 50.600352833 -0.008814183 22 255 92
4.852565039 50.504005011 -0.018599339 11 255 97
4.855949038 50.407944804 -0.032000988 0 254 108
4.857053199 50.311376399 -0.039092121 0 253 114
4.854927369 50.214092367 -0.037243039 0 253 114
4.851880836 50.116606025 -0.032844725 0 254 108
4.850426995 50.019472127 -0.032853181 0 254 108
4.852251838 49.923059626 -0.041934621 0 252 117
4.853638890 49.826548868 -0.049803418 0 251 126
4.851554469 49.729275515 -0.048063449 0 251 123
4.848103075 49.631703949 -0.042539071 0 252 117
4.844283224 49.534053801 -0.035993773 0 253 111
4.839356978 49.436164618 -0.026385176 0 255 102
4.833261307 49.338023953 -0.013538786 15 255 96
4.826802167 49.239808233 0.000314808 33 255 88
4.822861584 49.142142871 0.007199001 40 255 84
4.822496112 49.045253703 0.004189442 36 255 86
4.822736860 48.948495064 -0.000496906 33 255 88
4.823330016 48.851811508 -0.006157580 25 255 91
4.824913384 48.755339971 -0.014557883 15 255 96
4.827009390 48.658976664 -0.024376042 4 255 100
4.828295376 48.562437199 -0.031951229 0 254 108
4.827244783 48.465395537 -0.033058190 0 254 108
4.822708681 48.367608712 -0.024516789 4 255 100
4.815900349 48.269339659 -0.009685042 22 255 92
4.809513288 48.171164805 0.003981939 36 255 86
4.804773888 48.073344468 0.013089656 47 255 81
4.801227684 47.975780286 0.018895949 55 255 78
4.799175862 47.878534711 0.020567111 58 255 76
4.796728669 47.781206328 0.023333741 62 255 75
4.793633710 47.683742301 0.027894464 66 255 73
4.791261307 47.586432163 0.030456348 69 255 72
4.789628315 47.489278633 0.030972710 69 255 72
4.787785047 47.392081445 0.032072215 73 255 70
4.785961470 47.294889041 0.033118325 73 255 70
4.784682899 47.197811304 0.032656980 73 255 70
4.785215746 47.101112082 0.027182720 66 255 73
4.788247350 47.004932576 0.014792908 51 255 80
4.790205308 46.908526606 0.005375960 40 255 84
4.788271635 46.811310137 0.006732225 40 255 84
4.785929912 46.714009803 0.009219112 44 255 83
4.785240424 46.617052396 0.007133620 40 255 84
4.782789388 46.519730928 0.009925329 44 255 83
4.788254303 46.424042543 -0.009193977 22 255 92
4.787228617 46.327013600 -0.010345650 18 255 94
4.789518752 46.230665749 -0.020674848 7 255 99
4.791395413 46.134230627 -0.029858491 0 254 105
4.788150838 46.036745349 -0.024864746 4 255 100
4.784240057 45.939125726 -0.018025679 11 255 97
4.780869044 45.841618383 -0.012679619 18 255 94
4.776458539 45.743901342 -0.004454881 25 255 91
4.771560108 45.646087821 0.005121725 40 255 84
4.767772628 45.548502507 0.011624168 47 255 81
4.768282110 45.451788780 0.006232763 40 255 84
4.774322413 45.356190901 -0.014468302 15 255 96
4.781374805 45.260791665 -0.037970201 0 253 114
4.785888958 45.164875613 -0.054444676 0 250 129
4.785414116 45.067953515 -0.057107210 0 250 132
4.779035730 44.969847789 -0.043425839 0 252 120
4.769381312 44.871090829 -0.020674115 7 255 99
4.760308646 44.772456652 0.000468456 33 255 88
4.753080774 44.674196293 0.016505308 51 255 80
4.748853327 44.576537491 0.024237155 62 255 75
4.749470141 44.479842840 0.018559446 55 255 78
4.753377251 44.383798889 0.003773956 36 255 86
4.757321298 44.287758504 -0.011112836 18 255 94
4.757336988 44.190939010 -0.015123334 15 255 96
4.754010831 44.093460445 -0.009881088 22 255 92
4.751113723 43.996068026 -0.005825488 25 255 91
4.748594195 43.898751160 -0.002814055 29 255 89
4.746252903 43.801470375 -0.000294932 33 255 88
4.744570864 43.704319485 0.000400190 33 255 88
4.743085393 43.607207475 0.000552222 33 255 88
4.741406347 43.510058162 0.001241277 33 255 88
4.740734621 43.413105116 -0.000857351 33 255 88
4.741969360 43.316521554 -0.008233027 22 255 92
4.743155918 43.219926972 -0.015474282 15 255 96
4.741983313 43.122875019 -0.016182991 11 255 97
4.737668026 43.025217352 -0.008189822 22 255 92
4.732506624 42.927399437 0.002147084 36 255 86
4.728829303 42.829869690 0.008376355 44 255 83
4.726858704 42.732669074 0.009881518 44 255 83
4.723354652 42.635175932 0.015633380 51 255 80
4.718457293 42.537418772 0.025243991 62 255 75
4.716019665 42.440133162 0.028045625 66 255 73
4.718056976 42.343699387 0.018458710 55 255 78
4.722531397 42.247725688 0.002125188 36 255 86
4.725018927 42.151371610 -0.008706266 22 255 92
4.723550983 42.054267445 -0.008585112 22 255 92
4.717438123 41.956287713 0.004397705 36 255 86
4.710177583 41.858095913 0.020559395 58 255 76
4.714261828 41.762039635 0.005311311 40 255 84
4.723112169 41.666872806 -0.023132086 4 255 100
4.729429602 41.571224677 -0.044561563 0 252 120
4.729689219 41.474440164 -0.049217231 0 251 126
4.722221689 41.376215239 -0.032476756 0 254 108
4.711031429 41.277303202 -0.005427385 25 255 91
4.700516994 41.178524350 0.019752103 55 255 78
4.694140973 41.080518967 0.033474255 73 255 70
4.693112170 40.983505644 0.032391870 73 255 70
4.694763688 40.886986538 0.023889066 62 255 75
4.697314458 40.790630874 0.012897344 47 255 81
4.700265844 40.694346066 0.000797343 33 255 88
4.703487934 40.598107850 -0.012051230 18 255 94
4.703789478 40.501332409 -0.016811994 11 255 97
4.701038779 40.403999063 -0.013120165 18 255 94
4.697908334 40.306597924 -0.008375687 22 255 92
4.695683287 40.209362936 -0.006137087 25 255 91
4.693932320 40.112214856 -0.005210087 25 255 91
4.690532929 40.014769107 0.000282537 33 255 88
4.693478673 39.918470831 -0.011793530 18 255 94
4.688451198 39.820733020 -0.001790434 29 255 89
4.686689122 39.723585377 -0.000828205 33 255 88
4.684738292 39.626404467 0.000657816 33 255 88
4.679478849 39.528631980 0.011306784 47 255 81
4.674965548 39.430996053 0.019890825 55 255 78
4.673317027 39.333873495 0.020543168 58 255 76
4.674770397 39.237303197 0.012607099 47 255 81
4.677345851 39.140930198 0.001564857 33 255 88
4.679135189 39.044415248 -0.007299514 22 255 92
4.679671889 38.947676800 -0.012694106 18 255 94
4.677928158 38.850535044 -0.011772718 18 255 94
4.673046472 38.752841702 -0.002160608 29 255 89
4.665714007 38.654721029 0.014239420 51 255 80
4.658333621 38.556596814 0.030773423 69 255 72
4.654460086 38.459090549 0.037597406 76 255 68
4.655637282 38.362467516 0.030435834 69 255 72
4.658230219 38.266089244 0.019354740 55 255 78
4.658173846 38.169248131 0.015611317 51 255 80
4.654593091 38.071795577 0.021628999 58 255 76
4.648224138 37.973862915 0.035369219 76 255 68
4.640904470 37.875770350 0.051743516 95 255 60
4.635552380 37.778021331 0.062670208 109 255 54
4.633646123 37.680867502 0.064055417 109 255 54
4.633071333 37.583942561 0.061754438 106 255 56
4.630885641 37.486741853 0.063915732 109 255 54
4.626069186 37.389093226 0.073363758 120 255 49
4.620189698 37.291266571 0.085756951 135 255 43
4.614947980 37.193551983 0.096385126 149 255 36
4.611683181 37.096175668 0.101539582 156 255 33
4.614154387 36.999770951 0.090809663 142 255 40
4.620276670 36.903979526 0.069969248 116 255 51
4.622865437 36.807587916 0.058915704 102 255 57
4.620950681 36.710437276 0.060335590 106 255 56
4.616628230 36.612883934 0.068424702 116 255 51
4.612551898 36.515374288 0.075833376 124 255 48
4.609784855 36.418085380 0.079617125 127 255 46
4.606627640 36.320732909 0.084482618 135 255 43
4.603468173 36.223381726 0.089355504 142 255 40
4.602148318 36.126336920 0.089134622 142 255 40
4.602602935 36.029585617 0.084000306 135 255 43
4.602903419 35.932807800 0.079293932 127 255 46
4.600048266 35.835509921 0.083328500 135 255 43
4.593279114 35.737571143 0.098204513 153 255 35
4.594511976 35.640946946 0.090919122 142 255 40
4.593582833 35.543967898 0.089622764 142 255 40
4.589256784 35.446435236 0.097735788 149 255 36
4.593640710 35.350321208 0.081726188 131 255 44
4.596581786 35.253969045 0.069713786 116 255 51
4.598277921 35.157412428 0.061150494 106 255 56
4.597311401 35.060423919 0.059963030 106 255 56
4.593590777 34.962991843 0.066404792 113 255 52
4.589136786 34.865444030 0.074878969 124 255 48
4.586619820 34.768209350 0.077989248 127 255 46
4.585646258 34.671222639 0.076825791 124 255 48
4.584052933 34.574137054 0.077380041 127 255 46
4.588476393 34.478009441 0.061270112 106 255 56
4.582511351 34.380228446 0.073935359 120 255 49
4.577997925 34.282681158 0.082581116 131 255 44
4.575432605 34.185444355 0.085832120 135 255 43
4.575529510 34.088628353 0.081710291 131 255 44
4.579069024 33.992352795 0.068053951 116 255 51
4.581717412 33.895934008 0.056866902 102 255 57
4.577604476 33.798454550 0.064409025 109 255 54
4.569921145 33.700420218 0.081842011 131 255 44
4.563662195 33.602612781 0.095330852 149 255 36
4.559332840 33.505109074 0.103476078 156 255 33
4.555638446 33.407706301 0.109863686 164 255 30
4.552319876 33.310363683 0.115211450 171 255 27
4.549233017 33.213058573 0.119918541 178 255 24
4.544775408 33.115544270 0.128423760 189 255 19
4.539561055 33.017916537 0.139026360 200 255 14
4.250555534 13.034101037 0.172078913 233 253 0
4.245967182 12.936888351 0.181187777 234 250 0
4.250350105 12.840340458 0.165421773 232 255 0
4.261155957 12.744259967 0.131846770 193 255 17
4.267473473 12.647842650 0.110718196 167 255 28
4.269610946 12.551116062 0.101181375 156 255 33
4.271553567 12.454372989 0.092185885 146 255 38
4.278131909 12.357960883 0.070336909 116 255 51
4.289079509 12.261855363 0.036373145 76 255 68
4.291400431 12.165127207 0.026331545 66 255 73
4.282118738 12.067575832 0.048464646 91 255 62
4.269932151 11.969826446 0.078654298 127 255 46
4.260456946 11.872275333 0.101326715 156 255 33
4.257077082 11.775154842 0.107098040 164 255 30
4.258863104 11.678393651 0.098545426 153 255 35
4.263200871 11.581805929 0.082917764 131 255 44
4.268188813 11.485258610 0.065488098 113 255 52
4.270712014 11.388538977 0.054894263 98 255 59
4.269496305 11.291563641 0.054669729 98 255 59
4.263726252 11.194282032 0.067075915 113 255 52
4.255716849 11.096854261 0.085693296 135 255 43
4.248922079 10.999512655 0.100943656 153 255 35
4.245059083 10.902369380 0.108065090 164 255 30
4.244241429 10.805428537 0.106742539 160 255 32
4.244465364 10.708555640 0.102532600 156 255 33
4.243804143 10.611624282 0.100778429 153 255 35
4.243196333 10.514696113 0.098877240 153 255 35
4.243567169 10.417830491 0.094263172 146 255 38
4.245404781 10.321057453 0.085582493 135 255 43
4.248674215 10.224373093 0.072932081 120 255 49
4.251061132 10.127629800 0.062730095 109 255 54
4.248752931 10.030589584 0.065549882 113 255 52
4.241517799 9.933243397 0.082034514 131 255 44
4.234188058 9.835896127 0.098782806 153 255 35
4.231449510 9.738836240 0.102799646 156 255 33
4.233134321 9.642048196 0.094550305 146 255 38
4.235633133 9.545307562 0.084044517 135 255 43
4.237161875 9.448505663 0.076230071 124 255 48
4.236855168 9.351591686 0.073507011 120 255 49
4.234670060 9.254565179 0.075994531 124 255 48
4.231947574 9.157507744 0.079973542 131 255 44
4.229918946 9.060492465 0.082029377 131 255 44
4.229093693 8.963548338 0.080748902 131 255 44
4.230221839 8.866717548 0.074051943 124 255 48
4.234403289 8.770061324 0.058887909 102 255 57
4.240205533 8.673494038 0.039229664 80 255 67
4.243383103 8.576772085 0.026851767 66 255 73
4.241286902 8.479748653 0.029101524 69 255 72
4.235986651 8.382546070 0.040238806 80 255 67
4.230503237 8.285336560 0.051885321 95 255 60
4.226877363 8.188233406 0.058381157 102 255 57
4.225737212 8.091269041 0.057983958 102 255 57
4.224216639 7.994283992 0.058642987 102 255 57
4.219423544 7.897121774 0.068379661 116 255 51
4.211225376 7.799779006 0.087561746 138 255 41
4.204752083 7.702534019 0.101961056 156 255 33
4.206861446 7.605749049 0.092556823 146 255 38
4.213763709 7.509214407 0.069859988 116 255 51
4.220476849 7.412663806 0.047688605 91 255 62
4.226087473 7.316050004 0.028576100 66 255 73
4.231134055 7.219402041 0.011028978 47 255 81
4.235720728 7.122725895 -0.005241561 25 255 91
4.237824419 7.025919301 -0.014624154 15 255 96
4.233903671 6.928806524 -0.007295795 22 255 92
4.223804827 6.831386801 0.017169961 55 255 78
4.214078675 6.733992554 0.040603332 80 255 67
4.208778677 6.636823104 0.051761094 95 255 60
4.204933067 6.539728058 0.058885985 102 255 57
4.199833627 6.442574362 0.069489885 116 255 51
4.201985046 6.345772780 0.059982782 106 255 56
4.200913746 6.248814906 0.059415835 106 255 56
4.194938263 6.151624809 0.072453216 120 255 49
4.197379640 6.054833938 0.062145055 109 255 54
4.203058470 5.958191278 0.042857783 84 255 65
4.197529922 5.861025569 0.054658906 98 255 59
4.191798266 5.763854017 0.067024655 113 255 52
4.186743667 5.666716856 0.077513581 127 255 46
4.184313388 5.569701059 0.080724176 131 255 44
4.184057980 5.472783526 0.077903063 127 255 46
4.182920140 5.375826329 0.077530823 127 255 46
4.181006875 5.278835180 0.079310668 127 255 46
4.180592707 5.181909982 0.076933251 124 255 48
4.181022348 5.085020737 0.072216249 120 255 49
4.178432210 4.988001254 0.075877071 124 255 48
4.171569336 4.890801902 0.091391512 142 255 40
4.163450544 4.793554292 0.110391124 167 255 28
4.157749080 4.696412728 0.122686370 182 255 22
4.154436405 4.599373255 0.128356317 189 255 19
4.151503058 4.502351043 0.132975169 193 255 17
4.147803656 4.405299310 0.139720256 200 255 14
4.145082456 4.308288847 0.143752941 207 255 11
4.146592103 4.211447654 0.136050114 197 255 16
4.151341017 4.114731884 0.119362333 178 255 24
4.155291228 4.017980606 0.104891187 160 255 32
4.156840578 3.921132978 0.097081272 149 255 36
4.155234353 3.824162956 0.098026361 153 255 35
4.150023621 3.727057207 0.108971978 164 255 30
4.144665842 3.629949180 0.120326755 178 255 24
4.142631710 3.532967514 0.122462411 182 255 22
4.141655808 3.436025398 0.121663490 178 255 24
4.141269140 3.339104617 0.119231030 178 255 24
4.143111809 3.242263315 0.110615025 167 255 28
4.147192636 3.145499242 0.095790911 149 255 36
4.151483245 3.048738631 0.080385786 131 255 44
4.153830730 2.951906500 0.070372337 116 255 51
4.153243113 2.854971027 0.068502646 116 255 51
4.151628255 2.758000356 0.069483903 116 255 51
4.152624897 2.661117807 0.063221239 109 255 54
4.157133956 2.564350271 0.047215124 91 255 62
4.159152650 2.467496823 0.038119030 80 255 67
4.155362964 2.370452768 0.045138324 87 255 64
4.148435239 2.273310324 0.060864797 106 255 56
4.139020246 2.176093697 0.083493112 135 255 43
4.126975972 2.078801305 0.113417363 171 255 27
4.119411939 1.981655735 0.130913118 189 255 19
4.119747644 1.884756127 0.126493161 186 255 20
4.122775296 1.787936558 0.114605713 171 255 27
4.125329191 1.691099808 0.104033671 160 255 32
4.125567452 1.594192362 0.099887226 153 255 35
4.124259653 1.497239176 0.100031326 153 255 35
4.124037793 1.400317256 0.097163647 149 255 36
4.125493275 1.303442032 0.089643312 142 255 40
4.126518064 1.206552937 0.083318973 135 255 43
4.125249038 1.109599355 0.083359894 135 255 43
4.123160762 1.012623810 0.085674962 135 255 43
4.123250421 0.915707169 0.081948416 131 255 44
4.124846444 0.818829275 0.074043478 124 255 48
4.125079249 0.721914075 0.069921910 116 255 51
4.123495545 0.624951571 0.070841459 116 255 51
4.121701722 0.527984224 0.072345128 120 255 49
4.120115014 0.431022604 0.073275269 120 255 49
4.116345148 0.334008229 0.080263962 131 255 44
4.110968398 0.236957432 0.091712341 142 255 40
4.106221752 0.139924851 0.101413642 156 255 33
4.102139137 0.042910550 0.109273697 164 255 30
4.099249918 -0.054074149 0.113823674 171 255 27
4.099127940 -0.150995286 0.110696598 167 255 28
4.100513906 -0.247883832 0.103386528 156 255 33
4.099226718 -0.344832177 0.103494726 156 255 33
4.103620533 -0.441659312 0.087840841 138 255 41
4.099482195 -0.538669047 0.095862392 149 255 36
4.095982653 -0.635663271 0.102112641 156 255 33
4.092664275 -0.732651937 0.107861381 164 255 30
4.089646977 -0.829632884 0.112775867 167 255 28
4.087500444 -0.926595417 0.115275332 171 255 27
4.085576007 -1.023552862 0.117159663 175 255 25
4.082335333 -1.120534110 0.122697453 182 255 22
4.080702527 -1.217484335 0.123774850 182 255 22
4.083305341 -1.314358486 0.113100193 171 255 27
4.088329440 -1.411193122 0.095707828 149 255 36
4.093445662 -1.508030815 0.078060780 127 255 46
4.099015196 -1.604865638 0.059156792 106 255 56
4.103685273 -1.701720185 0.042749639 84 255 65
4.104312980 -1.798643491 0.037560666 76 255 68
4.099951881 -1.895645621 0.046216327 87 255 64
4.093208595 -1.992681310 0.061483614 106 255 56
4.085682077 -2.089724182 0.078925603 127 255 46
4.077873150 -2.186766126 0.097152553 149 255 36
4.073187195 -2.283759093 0.106714618 160 255 32
4.074308754 -2.380670085 0.100162081 153 255 35
4.077569478 -2.477554376 0.087674401 138 255 41
4.078939676 -2.574466265 0.080433964 131 255 44
4.077728623 -2.671412199 0.080357637 131 255 44
4.076094634 -2.768363098 0.081456096 131 255 44
4.075602366 -2.865300149 0.079387335 127 255 46
4.076125685 -2.962226094 0.074501344 124 255 48
4.077931458 -3.059139181 0.066057502 113 255 52
4.081760570 -3.156033059 0.051999724 95 255 60
4.087064816 -3.252915636 0.033849258 73 255 70
4.092156393 -3.349805143 0.016289918 51 255 80
4.095559097 -3.446715231 0.003418389 36 255 86
4.094834876 -3.543665970 0.002000714 36 255 86
4.089009544 -3.640661036 0.014740591 51 255 80
4.081654607 -3.737665051 0.031726645 69 255 72
4.074718615 -3.834660903 0.047551327 91 255 62
4.070349843 -3.931632973 0.056252708 102 255 57
4.069878504 -4.028574754 0.054139045 98 255 59
4.072281378 -4.125497615 0.044049855 87 255 64
4.075832983 -4.222415810 0.030773668 69 255 72
4.079064510 -4.319339417 0.018386771 55 255 78
4.079936898 -4.416279440 0.012548136 47 255 81
4.077191331 -4.513239705 0.016751445 51 255 80
4.072547767 -4.610207775 0.026223431 66 255 73
4.068540738 -4.707170245 0.033930043 73 255 70
4.066874874 -4.804120955 0.035140337 76 255 68
4.066655298 -4.901065873 0.032337813 73 255 70
4.064483123 -4.998017801 0.034955544 76 255 68
4.058849496 -5.094978857 0.047181236 91 255 62
4.052115925 -5.191939133 0.062460934 109 255 54
4.047618981 -5.288890269 0.071534368 120 255 49
4.047370470 -5.385831334 0.068817850 116 255 51
4.050986965 -5.482767736 0.055375382 98 255 59
4.055877251 -5.579706450 0.038398569 80 255 67
4.060099225 -5.676650092 0.023277578 62 255 75
4.061156626 -5.773598413 0.016940727 55 255 78
4.057208166 -5.870547448 0.024498607 62 255 75
4.051811042 -5.967493426 0.036078435 76 255 68
4.048040221 -6.064437577 0.043145678 84 255 65
4.045913528 -6.161381797 0.045650794 87 255 64
4.045596993 -6.258328262 0.043132898 84 255 65
4.049968921 -6.355285078 0.027603035 66 255 73
4.057790518 -6.452254573 0.002499369 36 255 86
4.062065635 -6.549220707 -0.012759902 18 255 94
4.058245763 -6.646164642 -0.005549835 25 255 91
4.048575276 -6.743085207 0.017900401 55 255 78
4.041045147 -6.840007719 0.035411171 76 255 68
4.049158555 -6.936993983 0.009502559 44 255 83
4.058122949 -7.033991320 -0.018767218 11 255 97
3.873761824 -27.008653771 -0.181343067 0 229 255
3.854436813 -27.104076231 -0.130811152 0 237 207
3.825391684 -27.198661974 -0.053270826 0 250 129
3.812137493 -27.294568728 -0.019603101 7 255 99
3.812172376 -27.391601026 -0.022857252 4 255 100
3.804576826 -27.487979548 -0.004909283 25 255 91
3.799627539 -27.584581064 0.005687334 40 255 84
3.797166782 -27.681394970 0.009370752 44 255 83
3.795423561 -27.778270164 0.011061626 47 255 81
3.793562671 -27.875134539 0.013080570 47 255 81
3.791673782 -27.971995825 0.015178443 51 255 80
3.788828466 -28.068772200 0.019934942 58 255 76
3.784009508 -28.165372562 0.030176513 69 255 72
3.777694368 -28.261837062 0.044576574 87 255 64
3.773377268 -28.358475823 0.053426118 98 255 59
3.773526212 -28.455512357 0.049867421 91 255 62
3.778283593 -28.552964631 0.033504650 73 255 70
3.782135304 -28.650339487 0.019659365 55 255 78
3.782919911 -28.747439657 0.014337493 51 255 80
3.781570116 -28.844346637 0.014947483 51 255 80
3.778249489 -28.941072943 0.021034913 58 255 76
3.774339634 -29.037743321 0.028760794 66 255 73
3.772648728 -29.134616347 0.030322039 69 255 72
3.774607366 -29.231827203 0.021743325 58 255 76
3.780210236 -29.329379602 0.003039268 36 255 86
3.788337647 -29.427173085 -0.022678938 4 255 100
3.793630396 -29.524707556 -0.040519419 0 252 117
3.789183238 -29.621328976 -0.031293908 0 254 108
3.780509106 -29.717547787 -0.010321313 18 255 94
3.772284530 -29.813803440 0.009403362 44 255 83
3.768657152 -29.910492123 0.016354553 51 255 80
3.768612567 -30.007521976 0.013350933 47 255 81
3.768306193 -30.104527418 0.011075867 47 255 81
3.767895233 -30.201523323 0.009092514 44 255 83
3.767050052 -30.298477620 0.008316899 44 255 83
3.763757900 -30.395193931 0.014342237 51 255 80
3.759030007 -30.491768233 0.024358524 62 255 75
3.755176920 -30.588425505 0.031945007 73 255 70
3.752549371 -30.685201293 0.036126989 76 255 68
3.749681070 -30.781952058 0.040979153 84 255 65
3.746470550 -30.878667455 0.046783486 87 255 64
3.743434025 -30.975398515 0.052105455 95 255 60
3.740854384 -31.072173731 0.056158912 102 255 57
3.739513204 -31.169072094 0.056771840 102 255 57
3.739295904 -31.266083486 0.054262613 98 255 59
3.740145211 -31.363203409 0.048790342 91 255 62
3.742999976 -31.460528430 0.037745894 76 255 68
3.746893877 -31.557962364 0.023814638 62 255 75
3.749033161 -31.655220566 0.014760544 51 255 80
3.748643704 -31.752221510 0.012735029 47 255 81
3.746231348 -31.849014424 0.016332413 51 255 80
3.741587131 -31.945575354 0.026133507 66 255 73
3.736007710 -32.042036389 0.038534844 80 255 67
3.732776699 -32.138738723 0.044410873 87 255 64
3.732686815 -32.235768003 0.041558430 84 255 65
3.732591364 -32.332797427 0.038722541 80 255 67
3.730297329 -32.429595865 0.041997966 84 255 65
3.728428226 -32.526438285 0.044093565 87 255 64
3.729132821 -32.623553290 0.039037484 80 255 67
3.732000766 -32.720900128 0.027970064 66 255 73
3.735761678 -32.818345453 0.014421889 51 255 80
3.737429299 -32.915569831 0.006692438 40 255 84
3.734725578 -33.012325507 0.011113061 47 255 81
3.731518852 -33.109025537 0.016932819 55 255 78
3.731905835 -33.206113697 0.012765833 47 255 81
3.734265695 -33.303417704 0.003116721 36 255 86
3.735476436 -33.400598799 -0.003337632 29 255 89
3.734075521 -33.497495335 -0.002532323 29 255 89
3.731542707 -33.594267078 0.001420017 33 255 88
3.729838862 -33.691129181 0.003069516 36 255 86
3.728024258 -33.787978504 0.005027972 40 255 84
3.724442785 -33.884630828 0.011898333 47 255 81
3.718478633 -33.981015427 0.025392242 62 255 75
3.717435411 -34.077947024 0.025210180 62 255 75
3.710427557 -34.174208720 0.041607369 84 255 65
3.704650278 -34.270604508 0.054585533 98 255 59
3.699170449 -34.367030287 0.066738186 113 255 52
3.695840501 -34.463696588 0.072916577 120 255 49
3.699277405 -34.561131531 0.060287928 106 255 56
3.709859257 -34.659386116 0.027801055 66 255 73
3.713717990 -34.756879042 0.014001811 51 255 80
3.714131671 -34.853979542 0.009779066 44 255 83
3.710779126 -34.950646582 0.016025668 51 255 80
3.714119168 -35.048086662 0.003671199 36 255 86
3.712632358 -35.144969436 0.004734156 36 255 86
3.713273509 -35.242099863 -0.000116559 33 255 88
3.713484375 -35.339181271 -0.003770208 29 255 89
3.713030205 -35.436185624 -0.005574264 25 255 91
3.711935802 -35.533115076 -0.005597643 25 255 91
3.710209518 -35.629969872 -0.003863538 29 255 89
3.709047838 -35.726891026 -0.003697696 29 255 89
3.709932708 -35.824055318 -0.009219409 22 255 92
3.714134683 -35.921616600 -0.023960462 4 255 100
3.712617788 -36.018497833 -0.022804021 4 255 100
3.715231997 -36.115874443 -0.033129594 0 254 108
3.709326595 -36.212228208 -0.019772293 7 255 99
3.700706966 -36.308250428 0.001130983 33 255 88
3.690112486 -36.404027550 0.027525090 66 255 73
3.684846005 -36.500444896 0.039110160 80 255 67
3.685366182 -36.597564535 0.034611028 73 255 70
3.691195723 -36.695334765 0.015354223 51 255 80
3.697887899 -36.793216121 -0.006299591 25 255 91
3.696386147 -36.890094916 -0.005175169 25 255 91
3.687578659 -36.986071358 0.016258818 51 255 80
3.680004342 -37.082194551 0.034266137 73 255 70
3.676347047 -37.178799345 0.041386107 84 255 65
3.677235715 -37.275968635 0.035870219 76 255 68
3.681005468 -37.373499554 0.022346399 58 255 76
3.682741851 -37.470779213 0.014476043 51 255 80
3.679512744 -37.567436487 0.020410160 58 255 76
3.674534818 -37.663871451 0.031206958 69 255 72
3.674835971 -37.760971409 0.027329643 66 255 73
3.680237059 -37.858719716 0.009275999 44 255 83
3.688062580 -37.956781634 -0.015516463 15 255 96
3.695218671 -38.054764891 -0.038447085 0 253 114
3.697167705 -38.152087532 -0.046901435 0 251 123
3.690052305 -38.248248008 -0.030155915 0 254 105
3.678651731 -38.343851668 -0.001496424 29 255 89
3.673286232 -38.440227296 0.010386964 44 255 83
3.673905623 -38.537375353 0.005633520 40 255 84
3.676015051 -38.634718397 -0.003261208 29 255 89
3.677145629 -38.731936234 -0.009433677 22 255 92
3.676531748 -38.828927612 -0.010755420 18 255 94
3.675423492 -38.925854478 -0.010701681 18 255 94
3.675635626 -39.022954979 -0.014317624 15 255 96
3.677190269 -39.120233557 -0.021664794 7 255 99
3.678816828 -39.217523648 -0.029210864 0 254 105
3.678852538 -39.314604690 -0.032333161 0 254 108
3.676256942 -39.411336382 -0.028139014 0 255 102
3.672496018 -39.507911345 -0.020703948 7 255 99
3.669990156 -39.604652206 -0.016756974 11 255 97
3.669323236 -39.701638792 -0.017921433 11 255 97
3.668466435 -39.798600103 -0.018556898 11 255 97
3.664550709 -39.895148585 -0.010686855 18 255 94
3.658676582 -39.991429707 0.002629131 36 255 86
3.655731295 -40.088104772 0.007803520 40 255 84
3.654616335 -40.185027587 0.007890317 44 255 83
3.653875786 -40.282001468 0.006937260 40 255 84
3.654238831 -40.379126695 0.002917016 36 255 86
3.656467268 -40.476509145 -0.006288470 25 255 91
3.659245819 -40.573969861 -0.017022420 11 255 97
3.661109738 -40.671307220 -0.025212416 0 255 102
3.660693721 -40.768331117 -0.027062449 0 255 102
3.657932721 -40.865029886 -0.022391574 4 255 100
3.654584204 -40.961645528 -0.016086052 15 255 96
3.652330678 -41.058412278 -0.012823834 18 255 94
3.647923072 -41.154876509 -0.003571349 29 255 89
3.639122683 -41.250721437 0.017895945 55 255 78
3.625734843 -41.345914589 0.052119474 95 255 60
3.620428910 -41.442239092 0.063873426 109 255 54
3.621500771 -41.539463064 0.057895625 102 255 57
3.623345154 -41.636798307 0.049770923 91 255 62
3.632404262 -41.735162539 0.021587065 58 255 76
3.638228598 -41.833072941 0.002398203 36 255 86
3.639476931 -41.930333867 -0.004066280 29 255 89
3.636102632 -42.026933344 0.002323452 36 255 86
3.631560920 -42.123363086 0.011960342 47 255 81
3.630910133 -42.220351361 0.010779645 44 255 83
3.634037999 -42.317886423 -0.000906616 33 255 88
3.636386734 -42.415311712 -0.010425482 18 255 94
3.634460010 -42.512117981 -0.008055190 22 255 92
3.631070389 -42.608710308 -0.001616088 29 255 89
3.631458118 -42.705852941 -0.005679056 25 255 91
3.633124301 -42.803184029 -0.013295830 15 255 96
3.634115207 -42.900417979 -0.019033895 11 255 97
3.635752511 -42.997748720 -0.026568303 0 255 102
3.638098241 -43.095186160 -0.036071559 0 253 111
3.639422970 -43.192475007 -0.042734759 0 252 117
3.639003325 -43.289506683 -0.044546412 0 252 120
3.637000378 -43.386303148 -0.041954334 0 252 117
3.634464365 -43.483019317 -0.037878841 0 253 114
3.632252960 -43.579782904 -0.034704850 0 253 111
3.629704633 -43.676495049 -0.030592844 0 254 105
3.625403638 -43.772942435 -0.021606005 7 255 99
3.620133211 -43.869241138 -0.009922244 22 255 92
3.617217283 -43.965892508 -0.004784554 25 255 91
3.622987916 -44.063858905 -0.023801034 4 255 100
3.620395070 -44.160559820 -0.019559588 7 255 99
3.620146404 -44.257616612 -0.021835687 7 255 99
3.622231000 -44.355030318 -0.030599063 0 254 105
3.622160786 -44.452116546 -0.033369282 0 254 108
3.616819034 -44.548394461 -0.021479152 7 255 99
3.609980750 -44.644438806 -0.005426181 25 255 91
3.605942000 -44.740910507 0.002842923 36 255 86
3.606357740 -44.838068705 -0.001274174 29 255 89
3.609406911 -44.935636250 -0.012713491 18 255 94
3.610522592 -45.032906476 -0.018774975 11 255 97
3.608784494 -45.129733782 -0.016899303 11 255 97
3.605059240 -45.226250214 -0.009496377 22 255 92
3.599577780 -45.322489633 0.002791625 36 255 86
3.594598282 -45.418804411 0.013684908 47 255 81
3.593610544 -45.515744166 0.013478433 47 255 81
3.596376741 -45.613276000 0.002833433 36 255 86
3.599437454 -45.710857326 -0.008629619 22 255 92
3.600118710 -45.808064710 -0.013474397 15 255 96
3.598670290 -45.904935087 -0.012395450 18 255 94
3.597141932 -46.001792419 -0.011093084 18 255 94
3.595515493 -46.098633718 -0.009516843 22 255 92
3.592122335 -46.195191853 -0.003026137 29 255 89
3.586112239 -46.291328404 0.010743629 44 255 83
3.579441910 -46.387354969 0.026350788 66 255 73
3.575028197 -46.483740911 0.035683317 76 255 68
3.576064526 -46.581004770 0.029859841 69 255 72
3.582779512 -46.679189864 0.008244337 44 255 83
3.585660567 -46.776758564 -0.002707575 29 255 89
3.577373255 -46.872513010 0.017402453 55 255 78
3.563938131 -46.967422263 0.051830696 95 255 60
3.559048971 -47.063719118 0.062492492 109 255 54
3.385655999 -67.040062104 -0.036918661 0 253 111
3.391033675 -67.138562728 -0.054603887 0 250 129
3.394717151 -67.236655494 -0.067571674 0 248 144
3.391799350 -67.333140923 -0.062160941 0 249 138
3.389161505 -67.429693317 -0.057528464 0 250 132
3.389415850 -67.526952504 -0.060946633 0 249 135
3.392124813 -67.624814541 -0.071197371 0 247 147
3.394645518 -67.722633225 -0.080923021 0 246 156
3.393906592 -67.819652877 -0.081572853 0 246 156
3.390623386 -67.916045953 -0.075138288 0 247 150
3.387576572 -68.012495612 -0.069360712 0 248 144
3.385401716 -68.109159191 -0.066009579 0 248 141
3.382452418 -68.205630198 -0.060501250 0 249 135
3.378280888 -68.301796728 -0.051589009 0 251 126
3.373960784 -68.397923938 -0.042261969 0 252 117
3.369801543 -68.494088605 -0.033381626 0 254 108
3.364958004 -68.590080422 -0.022594963 4 255 100
3.361210659 -68.686342724 -0.014859065 15 255 96
3.361556184 -68.783625431 -0.018517139 11 255 97
3.368556186 -68.882574229 -0.040701251 0 252 117
3.376093507 -68.981663869 -0.064380481 0 248 141
3.377237636 -69.079155520 -0.070259077 0 247 147
3.375900053 -69.176025011 -0.069227096 0 248 144
3.373940839 -69.272737758 -0.066463284 0 248 141
3.371203042 -69.369253466 -0.061530631 0 249 138
3.368515125 -69.465780444 -0.056735734 0 250 132
3.369933614 -69.563344703 -0.063372955 0 249 138
3.374837766 -69.661793764 -0.079714149 0 246 156
3.378322834 -69.759887395 -0.092103309 0 244 168
3.377606764 -69.856917110 -0.092794360 0 244 168
3.372001536 -69.952702972 -0.079871481 0 246 156
3.362725402 -70.047549785 -0.056726472 0 250 132
3.352664724 -70.142189987 -0.031395750 0 254 108
3.346462807 -70.237809569 -0.016807802 11 255 97
3.348243322 -70.335468667 -0.024444518 4 255 100
3.356778263 -70.434861677 -0.050886998 0 251 126
3.366122771 -70.534469937 -0.079582795 0 246 156
3.371474854 -70.633059506 -0.097161331 0 243 171
3.369890503 -70.729867542 -0.095425150 0 243 171
3.361534072 -70.824928405 -0.074831605 0 247 150
3.352043003 -70.919690507 -0.051077482 0 251 126
3.347716574 -71.015782178 -0.041702696 0 252 117
3.348603296 -71.113221967 -0.046842524 0 251 123
3.349111447 -71.210564996 -0.050927214 0 251 126
3.348076680 -71.307508257 -0.050714648 0 251 126
3.346455824 -71.404298975 -0.048869051 0 251 123
3.346450076 -71.501510178 -0.051519642 0 251 126
3.348511525 -71.599261739 -0.059925337 0 249 135
3.350386521 -71.696966936 -0.067810858 0 248 144
3.349908991 -71.794058493 -0.069144670 0 248 144
3.346429707 -71.890363473 -0.062118868 0 249 138
3.342325563 -71.986502484 -0.053351960 0 250 129
3.336000008 -72.082054991 -0.038398196 0 253 114
3.336625543 -72.179433868 -0.042799209 0 252 117
3.331543935 -72.275308913 -0.031307023 0 254 108
3.332325507 -72.372729330 -0.036140412 0 253 111
3.335805540 -72.470864860 -0.048487010 0 251 123
3.335772271 -72.568073256 -0.051049342 0 251 126
3.331499369 -72.664157779 -0.041804678 0 252 117
3.327454965 -72.760300487 -0.033195151 0 254 108
3.324976602 -72.856857481 -0.028945416 0 254 105
3.324425705 -72.953926866 -0.030061987 0 254 105
3.328567209 -73.052248590 -0.044244506 0 252 120
3.335993555 -73.151451991 -0.067573482 0 248 144
3.335009834 -73.248411522 -0.067481746 0 248 144
3.339508024 -73.346840055 -0.082654717 0 245 159
3.342222679 -73.444794224 -0.092860034 0 244 168
3.340857428 -73.541654833 -0.091702738 0 244 168
3.331948120 -73.636484861 -0.069535720 0 248 144
3.326286040 -73.732183961 -0.056410328 0 250 132
3.318765309 -73.827377822 -0.038107738 0 253 114
3.313422113 -73.923155212 -0.025867981 0 255 102
3.308690096 -74.019094685 -0.015329081 15 255 96
3.309133254 -74.116434052 -0.019201149 7 255 99
3.319038072 -74.216342847 -0.049421703 0 251 126
3.328197233 -74.316057381 -0.077564904 0 246 153
3.328861438 -74.413467307 -0.082049714 0 246 156
3.326674574 -74.510101320 -0.078593524 0 246 153
3.328099693 -74.607720453 -0.085195338 0 245 159
3.333700962 -74.706483117 -0.103426464 0 242 180
3.331829151 -74.803205053 -0.100844536 0 242 177
3.331952283 -74.900473230 -0.103817361 0 242 180
3.329959240 -74.997161323 -0.100895652 0 242 177
3.321780521 -75.092148097 -0.080745806 0 246 156
3.316178119 -75.187838607 -0.067769753 0 248 144
3.313039814 -75.284204898 -0.061655066 0 249 138
3.309905911 -75.380570759 -0.055551515 0 250 132
3.305814894 -75.476670372 -0.046781239 0 251 123
3.302456898 -75.572970539 -0.040051321 0 253 114
3.301359819 -75.669895698 -0.039617082 0 253 114
3.301968522 -75.767294350 -0.043932516 0 252 120
3.303747639 -75.865019634 -0.051506640 0 251 126
3.306874885 -75.963122382 -0.062834455 0 249 138
3.309386480 -76.061056691 -0.072446652 0 247 147
3.308305802 -76.157990875 -0.072052914 0 247 147
3.304946802 -76.254288090 -0.065312646 0 248 141
3.302426407 -76.350818246 -0.060906901 0 249 135
3.301284832 -76.447733749 -0.060340302 0 249 135
3.300357899 -76.544709401 -0.060370454 0 249 135
3.298761099 -76.641496815 -0.058533829 0 249 135
3.297381871 -76.738345015 -0.057302109 0 250 132
3.297672762 -76.835663682 -0.060720970 0 249 135
3.299397165 -76.933387968 -0.068131474 0 248 144
3.300447780 -77.030923921 -0.073664314 0 247 150
3.299129483 -77.127790991 -0.072598099 0 247 147
3.296655885 -77.224330388 -0.068312977 0 248 144
3.294872920 -77.321064652 -0.065950367 0 248 141
3.294993340 -77.418339233 -0.068888176 0 248 144
3.297076164 -77.516173131 -0.077290866 0 246 153
3.300551625 -77.614406259 -0.089571525 0 244 165
3.302610067 -77.712238505 -0.097904357 0 243 174
3.299754116 -77.808668913 -0.092547872 0 244 168
3.292672445 -77.903888831 -0.075420086 0 247 150
3.285317865 -77.999025862 -0.057530922 0 250 132
3.284058746 -78.095906722 -0.056618797 0 250 132
3.288350463 -78.194382014 -0.071166941 0 247 147
3.290716579 -78.292307470 -0.080350554 0 246 156
3.287516393 -78.388632152 -0.074028623 0 247 150
3.282074384 -78.484308511 -0.061461095 0 249 138
3.278828796 -78.580615815 -0.055010429 0 250 129
3.279916237 -78.678174537 -0.060628181 0 249 135
3.282729361 -78.776234622 -0.071051787 0 247 147
3.280558969 -78.872852524 -0.067592853 0 248 144
3.274783270 -78.968422655 -0.054090201 0 250 129
3.270798146 -79.064509713 -0.045574051 0 252 120
3.269023523 -79.161238032 -0.043214198 0 252 120
3.269344297 -79.258576617 -0.046690102 0 251 123
3.273172638 -79.356940126 -0.059935527 0 249 135
3.279380147 -79.456002797 -0.079807378 0 246 156
3.283192010 -79.554369862 -0.093005062 0 244 168
3.284825589 -79.652102250 -0.100133977 0 243 174
3.285950867 -79.749687505 -0.105845970 0 242 180
3.285343639 -79.846765311 -0.106730835 0 241 183
3.280519020 -79.942602529 -0.095866507 0 243 171
3.273660251 -80.037837493 -0.079334579 0 246 156
3.267393956 -80.133242709 -0.064451873 0 248 141
3.263150917 -80.229241504 -0.055204115 0 250 132
3.264025581 -80.326751489 -0.060211568 0 249 135
3.271434565 -80.426198147 -0.083420717 0 245 159
3.279825897 -80.525942617 -0.109365572 0 241 186
3.284350134 -80.624546059 -0.124536912 0 238 201
3.284704525 -80.721913976 -0.128091206 0 238 204
3.283069328 -80.818690618 -0.126101959 0 238 201
3.279771298 -80.914971082 -0.119479361 0 239 195
3.274234726 -81.010581601 -0.106619547 0 241 183
3.267805973 -81.105921965 -0.091273119 0 244 168
3.262645829 -81.201637767 -0.079459594 0 246 156
3.260004270 -81.298105021 -0.074661241 0 247 150
3.259362706 -81.395171054 -0.075433444 0 247 150
3.261613768 -81.493106345 -0.084263026 0 245 159
3.264707534 -81.591297628 -0.095439289 0 243 171
3.264427741 -81.688475998 -0.097216282 0 243 171
3.259781768 -81.784338196 -0.086828539 0 245 162
3.253361932 -81.879661935 -0.071497832 0 247 147
3.250048535 -81.975920698 -0.064820203 0 248 141
3.251309468 -82.073562466 -0.070885212 0 247 147
3.253426632 -82.171465514 -0.079334636 0 246 156
3.251465583 -82.268133204 -0.076421362 0 246 153
3.244734360 -82.363350528 -0.060217456 0 249 135
3.238596197 -82.458743870 -0.045664595 0 252 120
3.237588343 -82.555696257 -0.045403554 0 252 120
3.239212648 -82.653451574 -0.052474668 0 250 129
3.239684298 -82.750856847 -0.056333473 0 250 132
3.237140101 -82.847340930 -0.051789010 0 251 126
3.238672115 -82.945071990 -0.058599961 0 249 135
3.234190073 -83.040961107 -0.048654407 0 251 123
3.234867717 -83.138431462 -0.053082962 0 250 129
3.232185182 -83.234870287 -0.048148762 0 251 123
3.236365625 -83.333419928 -0.062334387 0 249 138
3.237191181 -83.430939780 -0.067172006 0 248 141
3.235832731 -83.527787201 -0.065923702 0 248 141
3.233466237 -83.624322935 -0.061865787 0 249 138
3.232059997 -83.721154612 -0.060482190 0 249 135
3.233833151 -83.818970588 -0.067955836 0 248 144
3.238139462 -83.917574168 -0.082486319 0 245 159
3.240691562 -84.015637224 -0.092128324 0 244 168
3.240083009 -84.112720528 -0.092963146 0 244 168
3.237423163 -84.209165689 -0.088081580 0 245 162
3.233724434 -84.305285816 -0.080304351 0 246 156
3.236909099 -84.403551523 -0.091704791 0 244 168
3.233227379 -84.499675428 -0.083972792 0 245 159
3.228424349 -84.595446523 -0.073115401 0 247 147
3.222837424 -84.690969174 -0.060072705 0 249 135
3.217854109 -84.786677531 -0.048710669 0 251 123
3.215195627 -84.883112657 -0.043825172 0 252 120
3.215607780 -84.980511673 -0.047494344 0 251 123
3.217975211 -85.078527123 -0.056610553 0 250 132
3.219327279 -85.176225220 -0.062896644 0 249 138
3.218289197 -85.273171059 -0.062521930 0 249 138
3.218399031 -85.370479452 -0.065344678 0 248 141
3.220732299 -85.468491874 -0.074361743 0 247 150
3.222362151 -85.566284124 -0.081417845 0 246 156
3.219446794 -85.662637406 -0.075808146 0 247 150
3.212103754 -85.757583755 -0.057859950 0 250 132
3.206131167 -85.852960724 -0.043729214 0 252 120
3.206144927 -85.950238652 -0.046277946 0 251 123
3.211820426 -86.049321066 -0.064601866 0 248 141
3.218679860 -86.148786263 -0.086223914 0 245 162
3.222066822 -86.247148575 -0.098169112 0 243 174
3.219647785 -86.343657851 -0.093934954 0 244 168
3.212044708 -86.438506460 -0.075254309 0 247 150
3.201133628 -86.532289688 -0.047354602 0 251 123
3.193247875 -86.627036063 -0.027883779 0 255 102
3.193385486 -86.724354897 -0.030769249 0 254 105
3.198191786 -86.823176387 -0.046663306 0 251 123
3.203171354 -86.922058151 -0.063039282 0 249 138
3.203645276 -87.019491691 -0.066858972 0 248 141
3.201076997 -87.115944227 -0.062200237 0 249 138
3.198979336 -87.212547646 -0.058851841 0 249 135
3.197151173 -87.309237408 -0.056253359 0 250 132
3.195079457 -87.405847601 -0.052975108 0 250 129
3.192842632 -87.502403388 -0.049235676 0 251 126
3.190718543 -87.598994811 -0.045809320 0 252 120
3.189336455 -87.695826610 -0.044449603 0 252 120
3.189271045 -87.793086725 -0.046758008 0 251 123
3.188748944 -87.890198694 -0.047792719 0 251 123
3.186295110 -87.986680661 -0.043443195 0 252 120
3.181940579 -88.082540525 -0.033795845 0 254 108
3.177396972 -88.178335930 -0.023620451 4 255 100
3.174380785 -88.274628762 -0.017700469 11 255 97
3.173949497 -88.371767499 -0.018982909 11 255 97
3.177372708 -88.470171881 -0.031005977 0 254 105
3.185422627 -88.570100157 -0.055921816 0 250 132
3.195203044 -88.670604780 -0.085659408 0 245 162
3.199098286 -88.769179099 -0.098995281 0 243 174
3.193728343 -88.864701576 -0.086509669 0 245 162
3.185585699 -88.959305158 -0.066295793 0 248 141
3.181011056 -89.055082657 -0.056024213 0 250 132
3.180430441 -89.152179209 -0.056882356 0 250 132
3.181194966 -89.249721761 -0.061488214 0 249 138
3.181929078 -89.347255566 -0.066008311 0 248 141
3.181169070 -89.444294468 -0.066363422 0 248 141
3.176734931 -89.540111877 -0.056477949 0 250 132
3.169980864 -89.635154328 -0.040125838 0 253 114
3.165953823 -89.731101153 -0.031372627 0 254 108
3.166533890 -89.828582826 -0.035458148 0 253 111
3.168705434 -89.926597326 -0.043978074 0 252 120
3.168183960 -90.023713613 -0.044991615 0 252 120
3.166284725 -90.120368939 -0.042164292 0 252 117
3.166561957 -90.217753114 -0.045401753 0 252 120
3.165591055 -90.314719381 -0.045159610 0 252 120
3.164194781 -90.411542727 -0.043730894 0 252 120
3.165585849 -90.509303315 -0.050069600 0 251 126
3.169994727 -90.608081990 -0.064818169 0 248 141
3.172150559 -90.706105224 -0.073286407 0 247 150
3.171067671 -90.803037707 -0.072727055 0 247 147
3.169031744 -90.899648049 -0.069510430 0 248 144
3.165022549 -90.995589999 -0.060792996 0 249 135
3.157597761 -91.090372762 -0.042554716 0 252 117
3.152144309 -91.185818961 -0.029809631 0 254 105
3.154170739 -91.283800835 -0.037911019 0 253 114
3.161215256 -91.383490420 -0.059997722 0 249 135
3.169466170 -91.483596662 -0.085446039 0 245 162
3.175157203 -91.582838073 -0.103758648 0 242 180
3.174397771 -91.679884948 -0.104091572 0 242 180
3.168980754 -91.775341886 -0.091441716 0 244 168
3.163873334 -91.870901192 -0.079653625 0 246 156
3.161604811 -91.967428679 -0.075777099 0 247 150
3.160361145 -92.064306226 -0.074756044 0 247 150
3.157149401 -92.160508609 -0.068248357 0 248 144
3.152627490 -92.256259425 -0.058087755 0 250 132
3.151224074 -92.353079371 -0.056618209 0 250 132
3.155837424 -92.451969379 -0.071918234 0 247 147
3.161810731 -92.551332194 -0.091008008 0 244 165
3.161568068 -92.648556606 -0.092770887 0 244 168
3.154974029 -92.743588649 -0.076829205 0 246 153
3.147736863 -92.838394030 -0.059093703 0 249 135
3.142616487 -92.933927047 -0.047257296 0 251 123
3.146415851 -93.032546885 -0.060282562 0 249 135
3.146226842 -93.129787176 -0.062189693 0 249 138
3.147503121 -93.227536810 -0.068180174 0 248 144
3.146375734 -93.324452683 -0.067469615 0 248 144
3.143437452 -93.420738274 -0.061710241 0 249 138
3.145374968 -93.518720874 -0.069540856 0 248 144
3.146896837 -93.616560755 -0.076211900 0 247 150
3.150409684 -93.715097672 -0.088431784 0 244 165
3.143526489 -93.810004387 -0.071671816 0 247 147
3.135495049 -93.904504729 -0.051709905 0 251 126
3.121892211 -93.997047948 -0.016216378 11 255 97
3.112208611 -94.090955790 0.008353505 44 255 83
3.108007648 -94.186781668 0.017641537 55 255 78
3.111061024 -94.285154623 0.006708779 40 255 84
3.120331873 -94.385718262 -0.021554705 7 255 99
3.129861085 -94.486380817 -0.050537626 0 251 126
3.135334718 -94.585621407 -0.068214443 0 248 144
3.136983076 -94.683516624 -0.075227001 0 247 150
3.135402407 -94.780272734 -0.073237269 0 247 150
3.132546354 -94.876577149 -0.067691173 0 248 144
3.132248730 -94.973786199 -0.069275998 0 248 144
3.134787465 -95.072001393 -0.078766615 0 246 153
3.136302196 -95.169855824 -0.085401691 0 245 162
3.133163838 -95.266058787 -0.079064423 0 246 153
3.126989119 -95.361179973 -0.064261587 0 248 141
3.123106042 -95.457113171 -0.055846026 0 250 132
3.124538764 -95.554939118 -0.062248355 0 249 138
3.128082884 -95.653520412 -0.074535737 0 247 150
3.128855938 -95.751115182 -0.079097149 0 246 153
3.125925562 -95.847386748 -0.073333264 0 247 150
3.123947254 -95.943997652 -0.070222450 0 247 147
3.128102094 -96.042806023 -0.084208513 0 245 159
3.135343061 -96.142725677 -0.106797194 0 241 183
3.139281325 -96.241465342 -0.120177712 0 239 195
3.138578143 -96.338539786 -0.120617751 0 239 195
3.137311165 -96.435411465 -0.119484984 0 239 195
3.135634447 -96.532135237 -0.117208875 0 240 192
3.132425702 -96.628305765 -0.110660618 0 241 186
3.129468115 -96.724565239 -0.104811466 0 242 180
3.129277595 -96.821823503 -0.106675520 0 241 183
3.129391626 -96.919192567 -0.109387617 0 241 186
3.127978265 -97.016009078 -0.107840455 0 241 183
3.126013187 -97.112625125 -0.104754098 0 242 180
3.124588955 -97.209436741 -0.103174526 0 242 177
3.124721705 -97.306813874 -0.105934710 0 242 180
3.125852124 -97.404554832 -0.111475360 0 241 186
3.125256120 -97.501668574 -0.112201787 0 241 186
3.119070900 -97.596744653 -0.097344461 0 243 174
3.107902045 -97.689997619 -0.068591533 0 248 144
3.098326322 -97.783824779 -0.044278995 0 252 120
3.095219033 -97.880011266 -0.037999439 0 253 114
3.098367946 -97.978486878 -0.049161397 0 251 123
3.102555989 -98.077346547 -0.063219583 0 249 138
3.104513183 -98.175391594 -0.071057094 0 247 147
3.104852212 -98.272844483 -0.074382056 0 247 150
3.104703043 -98.370118839 -0.076344870 0 246 153
3.105442405 -98.467720871 -0.080783998 0 246 156
3.108061641 -98.566016910 -0.090463464 0 244 165
3.110508093 -98.664251964 -0.099660244 0 243 174
3.110007287 -98.761401318 -0.100638668 0 242 177
3.107467399 -98.857797257 -0.095930774 0 243 171
3.105295967 -98.954328293 -0.092249125 0 244 168
3.106119604 -99.051967815 -0.096917237 0 243 171
3.109937167 -99.150718878 -0.109932042 0 241 186
3.112679511 -99.249074496 -0.119947989 0 239 195
3.113335913 -99.346657850 -0.124146913 0 239 198
3.112590757 -99.443721087 -0.124436963 0 238 201
3.109609297 -99.539951755 -0.118490599 0 239 195
3.104613875 -99.635430131 -0.106927682 0 241 183
3.101030882 -99.731432384 -0.099301878 0 243 174
3.101703412 -99.829022112 -0.103540626 0 242 180
3.104739444 -99.927496813 -0.114368553 0 240 189
3.104871193 -100.024887519 -0.117097480 0 240 192
3.097556276 -100.119488897 -0.099061621 0 243 174
3.088264266 -100.213343776 -0.075511750 0 247 150
3.084296489 -100.309191203 -0.066806504 0 248 141
3.084632830 -100.406653955 -0.070101626 0 248 144
3.085141256 -100.504182425 -0.073875589 0 247 150
3.084512514 -100.601283724 -0.074477682 0 247 150
3.084792489 -100.698727844 -0.077612630 0 246 153
3.083975338 -100.795758844 -0.077687328 0 246 153
3.080680175 -100.891853778 -0.070851222 0 247 147
3.076344134 -100.987553245 -0.061111591 0 249 135
3.074832122 -101.084319120 -0.059245539 0 249 135
3.079683157 -101.183495771 -0.075121631 0 247 150
3.085435064 -101.283018620 -0.093508914 0 244 168
3.085538140 -101.380401673 -0.096143575 0 243 171
3.079399776 -101.475413113 -0.081372902 0 246 156
3.070869267 -101.569510317 -0.059930511 0 249 135
3.065270683 -101.664718335 -0.046662681 0 251 123
3.068956576 -101.763462591 -0.059283936 0 249 135
3.081531983 -101.865603135 -0.096693255 0 243 171
3.095047745 -101.968113385 -0.136724141 0 236 213
3.101933692 -102.068099382 -0.158266540 0 233 234
3.098918049 -102.164300928 -0.152196522 0 234 228
3.091873510 -102.258956958 -0.134890385 0 237 210
3.085268831 -102.353776967 -0.118809669 0 239 195
3.080824112 -102.449421945 -0.108751129 0 241 183
3.078039643 -102.545702331 -0.103321334 0 242 180
3.075732282 -102.642164836 -0.099220961 0 243 174
3.074743051 -102.739133926 -0.098795365 0 243 174
3.074511236 -102.836394959 -0.100480940 0 242 177
3.068957692 -102.931602785 -0.087324779 0 245 162
3.046605769 -103.020317765 -0.027321540 0 255 102
3.003189509 -103.100870795 0.091426036 142 255 40
2.944077380 -103.272618743 0.251622160 245 228 0
2.923458848 -103.361925862 0.306798152 253 211 0
2.918327173 -103.457230290 0.318786197 255 207 0
2.911743956 -103.551967341 0.334823426 255 194 0
2.905976220 -103.647017225 0.348587606 255 180 0
2.901610551 -103.742609307 0.358442823 255 172 0
2.900292717 -103.839386714 0.359799246 255 169 0
2.902181298 -103.937414861 0.352214500 255 177 0
2.904920736 -104.035777484 0.342257790 255 186 0
2.905744885 -104.133394150 0.337643506 255 191 0
2.903372963 -104.229761415 0.341943677 255 186 0
2.899245319 -104.325439786 0.351141438 255 177 0
2.894874394 -104.421020264 0.361018795 255 169 0
2.892124892 -104.517234460 0.366375238 255 164 0
2.894529211 -104.615472088 0.357359073 255 172 0
2.901073714 -104.715340500 0.336797083 255 191 0
2.903963222 -104.813775853 0.326429569 255 199 0
2.901970736 -104.910290402 0.329678737 255 196 0
2.899170404 -105.006485461 0.335182029 255 194 0
2.894708521 -105.102023028 0.345320458 255 183 0
2.885631851 -105.195734023 0.368330703 255 161 0
2.878755023 -105.290308933 0.385206762 255 147 0
2.884988479 -105.390070688 0.365518905 255 164 0
2.908479021 -105.593984512 0.295400098 252 215 0
2.917833350 -105.695006564 0.267010265 247 223 0
2.911699661 -105.789879523 0.281818664 250 219 0
2.899870741 -105.882482161 0.312512796 254 210 0
2.887055603 -105.974683507 0.345958909 255 183 0
2.875253778 -106.067279621 0.376580088 255 156 0
2.868656230 -106.161944230 0.392687101 255 139 0
2.870314152 -106.259902250 0.385769509 255 147 0
2.876480274 -106.359664894 0.366278749 255 164 0
2.876072550 -106.456801843 0.365124465 255 166 0
2.867185575 -106.550542085 0.387621445 255 145 0
2.859418323 -106.644725163 0.406996518 255 128 0
2.858762557 -106.741757531 0.406537300 255 128 0
2.861515526 -106.840159700 0.396571349 255 137 0
2.862738597 -106.937949391 0.390873581 255 142 0
2.860722619 -107.034436766 0.394211314 255 139 0
2.861166041 -107.131914307 0.390690167 255 142 0
2.865775370 -107.231073186 0.375550120 255 156 0
2.872593568 -107.331128123 0.354249764 255 175 0
2.881077255 -107.431862093 0.328304672 255 199 0
2.891852960 -107.533530471 0.295967190 252 215 0
2.899821015 -107.634071077 0.271461897 248 223 0
2.887903181 -107.726559086 0.302425998 253 212 0
2.871647964 -107.817278986 0.345489911 255 183 0
2.861033991 -107.910277658 0.372819718 255 158 0
2.859227610 -108.006848614 0.375583039 255 156 0
2.863392039 -108.105847989 0.361692446 255 169 0
2.869235530 -108.205535028 0.343119150 255 186 0
2.872078433 -108.304004209 0.332916606 255 194 0
2.862068938 -108.397232524 0.358565904 255 172 0
2.840533946 -108.485746919 0.416366218 255 117 0
2.829056114 -108.578356401 0.446114031 255 93 0
2.830913435 -108.676413883 0.438665080 255 98 0
2.840137488 -108.777490515 0.410667686 255 123 0
2.852922050 -108.880034560 0.372739016 255 158 0
2.854686149 -108.978067244 0.365552715 255 164 0
2.848101073 -109.072672876 0.381657586 255 150 0
2.840288472 -109.166769450 0.401187842 255 134 0
2.834930215 -109.261870575 0.413872776 255 120 0
2.838287095 -109.360557760 0.402247427 255 131 0
2.832589939 -109.455515597 0.415879893 255 120 0
2.825296705 -109.549811076 0.433965896 255 104 0
2.818548576 -109.644326726 0.450532453 255 88 3
2.816344345 -109.740716378 0.454424456 255 86 7
2.820241381 -109.839629773 0.441297255 255 96 0
2.825647525 -109.939171936 0.423961081 255 112 0
2.823046151 -110.035399154 0.428963941 255 107 0
2.831128187 -110.136058374 0.404164739 255 131 0
2.840407922 -110.237222014 0.376025129 255 156 0
2.841307203 -110.334909349 0.371265138 255 161 0
2.835288164 -110.429719081 0.385806163 255 147 0
2.830798187 -110.525161713 0.396082686 255 137 0
2.832339605 -110.623116104 0.389534366 255 142 0
2.828173525 -110.718690619 0.398909433 255 134 0
2.817675453 -110.811617778 0.425950289 255 109 0
2.812314327 -110.906685103 0.438661530 255 98 0
2.814175602 -111.004771253 0.431224994 255 107 0
2.814067025 -111.102034441 0.429284882 255 107 0
2.808431388 -111.196981058 0.442765170 255 96 0
2.798742420 -111.290223089 0.467554645 255 76 25
2.789556107 -111.383669400 0.490943035 255 63 51
2.787136589 -111.479954030 0.495454356 255 59 58
2.791607298 -111.579136786 0.480743994 255 69 40
2.791954521 -111.676586959 0.477538487 255 71 36
2.784219046 -111.770630686 0.496883722 255 59 58
2.773469941 -111.863397475 0.524637846 255 39 95
2.764046125 -111.956716318 0.548695802 255 24 124
2.759454423 -112.052071188 0.559273782 255 18 135
2.761080356 -112.150053941 0.552506089 255 22 128
2.766430285 -112.249615744 0.535349604 255 33 106
2.770584847 -112.348675656 0.521528991 255 41 91
2.772372319 -112.446735147 0.514313370 255 47 80
2.780024028 -112.547287034 0.490737577 255 63 51
2.789722487 -112.648715499 0.461452155 255 80 18
