ply
format ascii 1.0
comment coordinate_system ground
comment units millimeter
element vertex 974
property double x
property double y
property double z
property uchar red
property uchar green
property uchar blue
comment color_mapping zg_high_contrast_from_zg
comment color_zg_range_mm -0.244062622 20.123215569
end_header
6.421022503 147.071282646 0.229554396 0 232 240
6.420657835 146.974553207 0.225374379 0 232 240
6.424159260 146.880131023 0.210594865 0 232 240
6.426277699 146.784879845 0.199608385 0 232 240
6.423192839 146.686523261 0.202890332 0 232 240
6.418617897 146.587279859 0.210259389 0 232 240
6.416907879 146.489744845 0.209774018 0 232 240
6.420301889 146.395247592 0.195294201 0 232 240
6.423067521 146.300372852 0.182538394 0 232 240
6.420639688 146.202407853 0.184024691 0 232 240
6.414362488 146.102156880 0.196067783 0 232 240
6.409616484 146.002818429 0.203913495 0 232 240
6.408644213 145.905721206 0.201412195 0 232 240
6.408864196 145.809330410 0.195642608 0 232 240
6.407560978 145.712035739 0.194051126 0 232 240
6.404452223 145.613671728 0.197412121 0 232 240
6.400297793 145.514690076 0.203641954 0 232 240
6.395320244 145.415223581 0.212130387 0 232 240
6.391370087 145.316366853 0.217802700 0 232 240
6.391223169 145.219758257 0.213046335 0 232 240
6.394297016 145.125049689 0.199458390 0 232 240
6.395150375 145.029027795 0.191960961 0 232 240
6.392592082 144.930992878 0.193820952 0 232 240
6.393088462 144.834758321 0.187304746 0 232 240
6.398340030 144.741321867 0.167748411 0 232 240
6.405695621 144.649118252 0.142422542 0 231 243
6.410316864 144.555300117 0.124596556 0 231 243
6.404742292 144.455485985 0.134734433 0 231 243
6.391676358 144.351275552 0.165419711 0 232 240
6.381229058 144.248610586 0.188924814 0 232 240
6.379502065 144.151066777 0.188514548 0 232 240
6.383302004 144.056762571 0.172946721 0 232 240
6.386183583 143.961916408 0.159898627 0 232 240
6.385444716 143.864947602 0.156781492 0 232 240
6.379861584 143.765144311 0.166952273 0 232 240
6.368974891 143.662243486 0.191671130 0 232 240
6.364037937 143.562825785 0.200072499 0 232 240
6.354722249 143.460854030 0.220485530 0 232 240
6.347912753 143.360350463 0.234025945 0 232 237
6.344199423 143.261656283 0.239075276 0 232 237
6.344338924 143.165208938 0.233557778 0 232 237
6.344405146 143.068717653 0.228242383 0 232 240
6.339396326 142.969271547 0.236848942 0 232 237
6.330984931 142.867849073 0.254790245 0 232 237
6.324145758 142.767345602 0.268420407 0 232 237
6.324880482 142.671245493 0.261276186 0 232 237
6.330368274 142.577902754 0.241094846 0 232 237
6.336358323 142.484846089 0.219536589 0 232 240
6.342385205 142.391805113 0.197878106 0 232 240
6.348600865 142.298867814 0.175702587 0 232 240
6.352775395 142.204742916 0.159127105 0 232 240
6.347876236 142.105363692 0.167443718 0 232 240
6.336142266 142.002034953 0.194511344 0 232 240
6.325129813 141.899130818 0.219601396 0 232 240
6.319080258 141.799099755 0.231078357 0 232 240
6.317465525 141.701631418 0.230390506 0 232 240
6.317106640 141.604887422 0.226258593 0 232 240
6.317822921 141.508762215 0.219178203 0 232 240
6.321508383 141.414345474 0.203953181 0 232 240
6.326606428 141.320737882 0.184853748 0 232 240
6.326764419 141.224283724 0.179308038 0 232 240
6.320681853 141.124241004 0.190884343 0 232 240
6.315452084 141.024691619 0.200122413 0 232 240
6.316034380 140.928481647 0.193416194 0 232 240
6.320983977 140.834775651 0.174729059 0 232 240
6.324854991 140.740446404 0.159001984 0 232 240
6.324792278 140.643859259 0.154068467 0 232 240
6.322534865 140.546014388 0.155157539 0 232 240
6.321083495 140.448631301 0.154036316 0 232 240
6.318744777 140.350740764 0.155350890 0 232 240
6.312662217 140.250711441 0.166938756 0 232 240
6.309881795 140.152571323 0.169467810 0 232 240
6.314088293 140.058419573 0.152827582 0 231 243
6.316134697 139.963031581 0.142115116 0 231 243
-0.845632939 135.313745097 19.772534928 255 8 153
-0.898708115 135.189726267 19.913401972 255 4 161
-0.959154418 135.061561155 20.074519888 255 0 168
-0.958045933 134.968365783 20.066569510 255 0 168
-0.957881661 134.874633125 20.061213624 255 0 168
-0.961206884 134.778922009 20.065443576 255 0 168
-0.966408292 134.682149928 20.074828223 255 0 168
-0.972652323 134.584790699 20.087078074 255 0 168
-0.979579914 134.487048551 20.101206927 255 0 168
-0.985704785 134.389764193 20.113132226 255 0 168
-0.989567214 134.293761095 20.118844204 255 0 168
-0.992040621 134.198543765 20.120741896 255 0 168
-0.994304577 134.103445363 20.122065412 255 0 168
-0.995299907 134.009062622 20.119905215 255 0 168
-0.993998044 133.915973438 20.111435737 255 0 168
-0.992798075 133.822824855 20.103247150 255 0 168
-0.994801659 133.727872349 20.103859849 255 0 168
-0.999979146 133.631136212 20.113192632 255 0 168
-1.005299772 133.534322509 20.122919946 255 0 168
-1.007186619 133.439439329 20.123215569 255 0 168
-1.004697836 133.347011143 20.111491838 255 0 168
-0.999912252 133.255867608 20.093459329 255 0 168
-0.995357948 133.164589834 20.076063015 255 0 168
-0.993951719 133.071545129 20.067315973 255 0 168
-0.996849762 132.976090200 20.070394786 255 0 168
-1.001743952 132.879520370 20.078958746 255 0 168
-1.006927376 132.782791576 20.088318618 255 0 168
-1.012865578 132.685644214 20.099753423 255 0 168
-1.019213311 132.588271774 20.112314708 255 0 168
-1.022517955 132.492599846 20.116516860 255 0 168
-1.021047081 132.399590310 20.107599973 255 0 168
-1.018482004 132.307187897 20.095677824 255 0 168
-1.018423468 132.213387728 20.090643189 255 0 168
-1.022304935 132.117395526 20.096434652 255 0 168
-1.027768799 132.020525867 20.106574995 255 0 168
-1.030841532 131.924987126 20.110146975 255 0 168
-1.031229456 131.830939574 20.106343510 255 0 168
-1.030223315 131.737664370 20.098710815 255 0 168
-1.027690690 131.645233321 20.086884955 255 0 168
-1.024220343 131.553318637 20.072483517 255 0 168
-1.022422685 131.460474564 20.062678921 255 0 168
-1.022484624 131.366599629 20.057984845 255 0 168
-1.023816759 131.272021685 20.056781935 255 0 168
-1.026755275 131.176556496 20.059994027 255 0 168
-1.030920552 131.080415401 20.066578145 255 0 168
-1.034572703 130.984559422 20.071753571 255 0 168
-1.035653596 130.890122361 20.069864933 255 0 168
-1.034434566 130.796951859 20.061657621 255 0 168
-1.034071403 130.703308316 20.055803089 255 0 168
-1.037629718 130.607506495 20.060725310 255 0 168
-1.044457048 130.509909468 20.074631680 255 0 168
-1.045587819 130.415445590 20.072885735 255 0 168
-1.046192233 130.321270451 20.069694493 255 0 168
-1.048093606 130.226383312 20.070068344 255 0 168
-1.043086664 130.135283386 20.051459307 255 0 168
-1.040568987 130.042815089 20.039691633 255 2 164
-1.042083727 129.948136523 20.039006151 255 2 164
-1.040908586 129.854929488 20.030929815 255 2 164
-1.048804772 129.756761759 20.047783335 255 0 168
-1.056367437 129.658781147 20.063721758 255 0 168
-1.061473562 129.562146210 20.072910684 255 0 168
-1.062459554 129.467761678 20.070778073 255 0 168
-1.060805507 129.374816039 20.061391209 255 0 168
-1.062841076 129.279858180 20.062145205 255 0 168
-1.068467093 129.182946265 20.072767798 255 0 168
-1.071985846 129.087183926 20.077600383 255 0 168
-1.072071658 128.993289451 20.072999447 255 0 168
-1.070638120 128.900219400 20.064223898 255 0 168
-1.071779801 128.805749234 20.062526931 255 0 168
-1.076645419 128.709258699 20.071065842 255 0 168
-1.081724617 128.612655028 20.080193055 255 0 168
-1.084710760 128.517188059 20.083568966 255 0 168
-1.087572874 128.421789467 20.086605191 255 0 168
-1.092447681 128.325303182 20.095174451 255 0 168
-1.096717274 128.229146741 20.102081576 255 0 168
-1.098039097 128.134584975 20.100887937 255 0 168
-1.096350278 128.041648488 20.091420510 255 0 168
-1.093427064 127.949375633 20.078561226 255 0 168
-1.090902272 127.856884767 20.066797959 255 0 168
-1.091046349 127.762953210 20.062371336 255 0 168
-1.095849610 127.666512519 20.070752225 255 0 168
-1.103130292 127.568741676 20.085944032 255 0 168
-1.109172398 127.471641157 20.097732787 255 0 168
-1.111483464 127.376548536 20.099267291 255 0 168
-1.109773287 127.283615380 20.089749566 255 0 168
-1.105866859 127.191858108 20.074195816 255 0 168
-1.103201682 127.099431469 20.062054881 255 0 168
-1.104326749 127.004971382 20.060333569 255 0 168
-1.107539216 126.909393706 20.064351310 255 0 168
-1.107174025 126.815731292 20.058535741 255 0 168
-1.101480905 126.724915723 20.038075301 255 2 164
-1.092821371 126.635679467 20.009461234 255 2 164
-1.086148730 126.545375038 19.986309672 255 2 164
-1.099463064 126.444402874 20.018102251 255 2 164
6.086595733 126.991950367 0.104616712 0 231 243
6.093528454 126.898940592 0.080628479 0 231 243
5.918007760 120.916253288 0.263670523 0 232 237
5.854457329 118.179849928 0.302473065 0 232 237
5.857875937 118.084895541 0.288237390 0 232 237
5.856170090 117.987449951 0.288091947 0 232 237
5.850607018 117.888133664 0.298552927 0 232 237
5.847990846 117.790248957 0.300912891 0 232 237
5.850471237 117.694833600 0.289261144 0 232 237
5.865831944 117.605648642 0.242195842 0 232 237
5.874971452 117.513442797 0.212236388 0 232 240
5.879777943 117.419135459 0.194191502 0 232 240
5.880576902 117.322888690 0.187166519 0 232 240
5.880602046 117.226267052 0.182270302 0 232 240
5.882592015 117.130591566 0.171972685 0 232 240
5.886990588 117.036073758 0.155053305 0 232 240
5.892517591 116.942094764 0.135032050 0 231 243
5.897276866 116.847741424 0.117122680 0 231 243
5.897907595 116.751399635 0.110566503 0 231 243
5.893370689 116.652575160 0.118221013 0 231 243
5.886930252 116.552839893 0.131111109 0 231 243
5.882209717 116.453933055 0.139273285 0 231 243
5.880761756 116.356596456 0.138437873 0 231 243
5.882337402 116.260707220 0.129289253 0 231 243
5.887038696 116.166310718 0.111546628 0 231 243
5.892041610 116.072053845 0.092975501 0 231 243
5.893727291 115.976208238 0.083527304 0 231 243
5.889760356 115.877663385 0.089624366 0 231 243
5.883145170 115.777858028 0.103005271 0 231 243
5.879058371 115.679261174 0.109434645 0 231 243
5.876876597 115.581573240 0.110626532 0 231 243
5.876543253 115.484765148 0.106736441 0 231 243
5.878013786 115.388813631 0.097886758 0 231 243
5.880898742 115.293531704 0.085148391 0 231 243
5.883667370 115.198191451 0.072730926 0 231 246
5.883738186 115.101569117 0.067733719 0 231 246
5.880929482 115.003581684 0.070656672 0 231 246
5.877739998 114.905415189 0.074628085 0 231 243
5.875761505 114.807822920 0.075270333 0 231 243
5.872904652 114.709816098 0.078329465 0 231 243
5.868693813 114.611171124 0.085113613 0 231 243
5.871651239 114.515910622 0.072184595 0 231 246
5.869499000 114.418237959 0.073309512 0 231 246
5.868565882 114.321140282 0.071082716 0 231 246
5.869116267 114.224740653 0.064776987 0 231 246
5.864181307 114.125759792 0.073558905 0 231 246
5.865801069 114.029862068 0.064314325 0 231 246
5.865727223 113.933166921 0.059728866 0 231 246
5.871626647 113.839273465 0.038715617 0 231 246
5.869182444 113.741463048 0.040651773 0 231 246
5.869938692 113.645152728 0.033786481 0 231 246
5.871977724 113.549441305 0.023394017 0 231 246
5.870738302 113.452194159 0.022019957 0 231 246
5.863138459 113.351974820 0.038141553 0 231 246
5.855789080 113.251877238 0.053575726 0 231 246
5.853381305 113.154089729 0.055419140 0 231 246
5.853734714 113.057590262 0.049668893 0 231 246
5.851894672 112.960067921 0.049953099 0 231 246
5.847571696 112.861390471 0.057068175 0 231 246
5.841151368 112.761740034 0.069953695 0 231 246
5.833559500 112.661549165 0.086063194 0 231 243
5.828227952 112.562412505 0.095956681 0 231 243
5.827642160 112.465480464 0.092797200 0 231 243
5.831801664 112.370747443 0.076585688 0 231 243
5.835202770 112.275659102 0.062461307 0 231 246
5.834395191 112.178619661 0.059915172 0 231 246
5.833647262 112.081607482 0.057206112 0 231 246
5.834012380 111.985109168 0.051436382 0 231 246
5.832530094 111.887756846 0.050749737 0 231 246
5.827314304 111.788682665 0.060334778 0 231 246
5.820962373 111.689087894 0.073046629 0 231 246
5.818090612 111.591099575 0.076186137 0 231 243
5.821694586 111.496092042 0.061512348 0 231 246
5.828118066 111.402377066 0.039083089 0 231 246
5.829619125 111.306395181 0.030196314 0 231 246
5.824459728 111.207354267 0.039633747 0 231 246
5.821652861 111.109395190 0.042600596 0 231 246
5.823114367 111.013393151 0.033826050 0 231 246
5.824666546 110.917430596 0.024803114 0 231 246
5.824454784 110.820659011 0.020634062 0 231 246
5.823878585 110.723720088 0.017468761 0 231 246
5.823904962 110.627055876 0.012646823 0 231 246
5.822789145 110.529869513 0.010968410 0 231 246
5.818600472 110.431282018 0.017745272 0 231 246
5.812091494 110.331639717 0.030907180 0 231 246
5.808689092 110.233415501 0.035523498 0 231 246
5.809807383 110.137249001 0.027703353 0 231 246
5.812088779 110.041609287 0.016684221 0 231 246
5.812566936 109.945148161 0.010627428 0 231 246
5.807868516 109.846337271 0.018814353 0 231 246
5.806075452 109.748846008 0.019008880 0 231 246
5.810749068 109.654284063 0.001412165 0 231 246
5.812195118 109.558257062 -0.007303223 0 230 249
5.809164962 109.460204084 -0.003701505 0 231 246
5.803936515 109.361159335 0.005950017 0 231 246
5.797770014 109.261694186 0.018183962 0 231 246
5.791136409 109.162022114 0.031704572 0 231 246
5.785615977 109.062855798 0.042163672 0 231 246
5.783127889 108.965058119 0.044280449 0 231 246
5.783558208 108.868574376 0.038368201 0 231 246
5.784879862 108.772490061 0.030004447 0 231 246
5.784595498 108.675682518 0.026060938 0 231 246
5.781680908 108.577693950 0.029356058 0 231 246
5.777092847 108.478956332 0.037257299 0 231 246
5.780034960 108.383594784 0.024439048 0 231 246
5.774299860 108.284346006 0.035499131 0 231 246
5.772666649 108.186935195 0.035273217 0 231 246
5.777263080 108.092308507 0.017905933 0 231 246
5.782884345 107.998135002 -0.002280555 0 231 246
5.779255653 107.899829878 0.002988025 0 231 246
5.771354218 107.799622117 0.020015811 0 231 246
5.765735644 107.700436098 0.030762970 0 231 246
5.763546875 107.602779589 0.032073068 0 231 246
5.764946902 107.506719380 0.023508337 0 231 246
5.767258607 107.411062184 0.012435794 0 231 246
5.768899741 107.315104711 0.003209658 0 231 246
5.770117910 107.218957524 -0.004851432 0 231 246
5.769305821 107.121908951 -0.007324180 0 230 249
5.756178616 107.019408208 0.024095735 0 231 246
5.734196123 106.912999618 0.079887666 0 231 243
5.723155050 106.811442237 0.105570157 0 231 243
5.626515515 97.003824153 -0.097464322 0 230 252
5.446031840 86.873987870 -0.070825706 0 230 249
5.455325052 86.780623662 -0.100907513 0 230 252
5.463057022 86.686684127 -0.126684828 0 230 252
5.460436189 86.588979034 -0.123922635 0 230 252
5.456173398 86.490679576 -0.116632919 0 230 252
5.453241055 86.392864579 -0.113009476 0 230 252
5.451968893 86.295651872 -0.113961364 0 230 252
5.452675438 86.199154729 -0.120366764 0 230 252
5.455670894 86.103482937 -0.133080941 0 230 252
5.459192876 86.007998019 -0.147245595 0 230 252
5.460746577 85.911800202 -0.155983184 0 230 252
5.458941581 85.814391123 -0.155460520 0 230 252
5.454327886 85.715972422 -0.147193628 0 230 252
5.449526845 85.617489096 -0.138408928 0 230 252
5.446967893 85.519813284 -0.135803974 0 230 252
5.446837546 85.423009304 -0.139893116 0 230 252
5.448445034 85.326826995 -0.148772126 0 230 252
5.451217688 85.231059499 -0.160862313 0 230 252
5.453870383 85.135246208 -0.172620760 0 229 255
5.452716583 85.038071164 -0.173883890 0 229 255
5.446922816 84.939241467 -0.162353616 0 230 252
5.439955010 84.839997113 -0.147585149 0 230 252
5.434384174 84.741254363 -0.136666708 0 230 252
5.431090536 84.643324533 -0.132025203 0 230 252
5.429434862 84.545978037 -0.131898378 0 230 252
5.429018077 84.449071445 -0.135186058 0 230 252
5.429861791 84.352611006 -0.141947898 0 230 252
5.431455443 84.256414562 -0.150776301 0 230 252
5.432329795 84.159961761 -0.157620426 0 230 252
5.431535142 84.062917984 -0.159861751 0 230 252
5.429277780 83.965357918 -0.158068967 0 230 252
5.424524212 83.866918980 -0.149392425 0 230 252
5.417307092 83.767615512 -0.133922003 0 230 252
5.411884517 83.668947827 -0.123398128 0 230 252
5.410949106 83.571859812 -0.125245173 0 230 252
5.410296085 83.474870794 -0.127869673 0 230 252
5.409708166 83.377904282 -0.130672515 0 230 252
5.408540534 83.280734410 -0.131875744 0 230 252
5.408018914 83.183790579 -0.134859067 0 230 252
5.407604010 83.086883622 -0.138135488 0 230 252
5.406646576 82.989786812 -0.139914795 0 230 252
5.405951064 82.892781238 -0.142415149 0 230 252
5.405786720 82.795960370 -0.146378998 0 230 252
5.404654712 82.698802180 -0.147673426 0 230 252
5.401188033 82.600832728 -0.142528898 0 230 252
5.394220335 82.501649803 -0.127729079 0 230 252
5.387759851 82.402647237 -0.114326474 0 230 252
5.385627261 82.305147811 -0.112856765 0 230 252
5.385257582 82.208259142 -0.116247149 0 230 252
5.383394003 82.110853643 -0.115516849 0 230 252
5.390708525 82.016617285 -0.140094780 0 230 252
5.389726119 81.919513387 -0.141792178 0 230 252
5.390605507 81.823050755 -0.148622536 0 230 252
5.383912511 81.723981085 -0.134569811 0 230 252
5.387273506 81.628371328 -0.148241272 0 230 252
5.388525872 81.532034259 -0.156096785 0 230 252
5.388780538 81.435353274 -0.161199846 0 230 252
5.390920805 81.339317234 -0.171501756 0 229 255
5.392935665 81.243235850 -0.181456775 0 229 255
5.391763176 81.146062669 -0.182620767 0 229 255
5.385198631 81.047048577 -0.168913425 0 229 255
5.382543533 80.949371977 -0.165986186 0 229 255
5.372992672 80.849347422 -0.144040340 0 230 252
5.367898880 80.750846008 -0.134384905 0 230 252
5.366047138 80.653449661 -0.133669296 0 230 252
5.364898109 80.556292508 -0.134890487 0 230 252
5.365152264 80.459611313 -0.139980361 0 230 252
5.369558891 80.364335847 -0.156521362 0 230 252
5.378267065 80.270511820 -0.184924854 0 229 255
5.386245569 80.176433735 -0.211315123 0 229 255
5.389574224 80.080778865 -0.224880330 0 229 255
5.387806223 79.983401827 -0.224387912 0 229 255
5.380646791 79.884209132 -0.209024564 0 229 255
5.368601529 79.783377052 -0.180184399 0 229 255
5.355291734 79.682128301 -0.147854888 0 230 252
5.346519592 79.582412280 -0.128038961 0 230 252
5.343948129 79.484781514 -0.125323765 0 230 252
5.345572427 79.388557350 -0.134179831 0 230 252
5.348343504 79.292714850 -0.146197826 0 230 252
5.348498837 79.195995240 -0.151000100 0 230 252
5.345939268 79.098368399 -0.148312999 0 230 252
5.342378633 79.000408901 -0.142863500 0 230 252
5.339278806 78.902604790 -0.138683737 0 230 252
5.339305346 78.805842341 -0.143126053 0 230 252
5.344691958 78.710860269 -0.162351820 0 230 252
5.352992153 78.616840401 -0.189613179 0 229 255
5.355171989 78.520784233 -0.199991829 0 229 255
5.350425239 78.422431749 -0.191263576 0 229 255
5.343921926 78.323501026 -0.177688761 0 229 255
5.338471033 78.224922174 -0.167015513 0 229 255
5.334997186 78.126999149 -0.161794393 0 230 252
5.333456148 78.029715112 -0.161903497 0 230 252
5.333785813 77.933047411 -0.167171626 0 229 255
5.335642042 77.836880730 -0.176649599 0 229 255
5.337646484 77.740760529 -0.186535350 0 229 255
5.337918177 77.644069447 -0.191640253 0 229 255
5.334881801 77.546293152 -0.187618663 0 229 255
5.329532418 77.447761167 -0.177215290 0 229 255
5.325077870 77.349525052 -0.169279020 0 229 255
5.323103784 77.252101664 -0.168183990 0 229 255
5.322670937 77.155181774 -0.171339409 0 229 255
5.320869975 77.057815623 -0.170719561 0 229 255
5.317638431 76.959984439 -0.166152041 0 229 255
5.314752843 76.862267383 -0.162537631 0 230 252
5.312894059 76.764885136 -0.161754596 0 230 252
5.313238084 76.668217936 -0.167047246 0 229 255
5.314425465 76.571822882 -0.174665354 0 229 255
5.314879988 76.475189004 -0.180260609 0 229 255
5.316295972 76.378864716 -0.188507184 0 229 255
5.319130244 76.282996389 -0.200665419 0 229 255
5.321398190 76.186942515 -0.211260244 0 229 255
5.321179486 76.090085312 -0.214993812 0 229 255
5.319724239 75.992829730 -0.215314809 0 229 255
5.320474375 75.896283017 -0.221718949 0 229 255
5.322868127 75.800262384 -0.232656512 0 229 255
5.320616964 75.702750333 -0.230778199 0 229 255
5.312683640 75.603420094 -0.213222055 0 229 255
5.303028728 75.503544593 -0.190914684 0 229 255
5.295232066 75.404269135 -0.173732613 0 229 255
5.289941395 75.305798234 -0.163463068 0 230 252
5.292945134 75.209973358 -0.176076471 0 229 255
5.293195197 75.113269068 -0.181091402 0 229 255
5.296101788 75.017408209 -0.193434672 0 229 255
5.289295573 74.918460702 -0.178978707 0 229 255
5.288324108 74.821367794 -0.180619878 0 229 255
5.290793176 74.725364528 -0.191752646 0 229 255
5.285432185 74.626881619 -0.181280305 0 229 255
5.285763961 74.530200693 -0.186513754 0 229 255
5.291404057 74.435193931 -0.206392570 0 229 255
5.288325457 74.337433950 -0.202214042 0 229 255
5.291923241 74.241777384 -0.216455708 0 229 255
5.291726889 74.144924264 -0.220227537 0 229 255
5.286459307 74.046477834 -0.210005507 0 229 255
5.285572608 73.949408816 -0.211870105 0 229 255
5.274996634 73.849304037 -0.186998139 0 229 255
5.266889808 73.749979157 -0.168937712 0 229 255
5.261585269 73.651535479 -0.158608225 0 230 252
5.260653899 73.554460174 -0.160344451 0 230 252
5.264032252 73.458728470 -0.173971583 0 229 255
5.269409217 73.363615774 -0.193112627 0 229 255
5.272326547 73.267733209 -0.205465626 0 229 255
5.268897293 73.169876151 -0.200304745 0 229 255
5.264084244 73.071591581 -0.191324096 0 229 255
5.261725356 72.974070375 -0.189114266 0 229 255
5.260353342 72.876855610 -0.189626460 0 229 255
5.258389670 72.779458213 -0.188504787 0 229 255
5.255960249 72.681917729 -0.186096656 0 229 255
5.253796666 72.584460281 -0.184420882 0 229 255
5.253020058 72.487430848 -0.186571320 0 229 255
5.253664615 72.390838364 -0.192642399 0 229 255
5.252907105 72.293813869 -0.194843232 0 229 255
5.248526738 72.195677547 -0.187045211 0 229 255
5.242403689 72.097009721 -0.174436716 0 229 255
5.240715836 71.999703266 -0.174066446 0 229 255
5.241991256 71.903303164 -0.181872640 0 229 255
5.241792236 71.806451142 -0.185608742 0 229 255
5.238419896 71.708630839 -0.180586250 0 229 255
5.235022577 71.610804709 -0.175493553 0 229 255
5.236419074 71.514438526 -0.183629327 0 229 255
5.240735152 71.418957442 -0.199821387 0 229 255
5.244426718 71.323282806 -0.214288945 0 229 255
5.244194460 71.226415540 -0.217926513 0 229 255
5.236795748 71.127378738 -0.201784764 0 229 255
5.225608946 71.027201755 -0.175187019 0 229 255
5.219349840 70.928520120 -0.162187479 0 230 252
5.218994879 70.831622621 -0.165481350 0 229 255
5.221277512 70.735518867 -0.176053587 0 229 255
5.225357049 70.639953010 -0.191584094 0 229 255
5.230158080 70.544599980 -0.209104897 0 229 255
5.233464774 70.448794233 -0.222500421 0 229 255
5.233156160 70.351902017 -0.225916751 0 229 255
5.229758664 70.254084980 -0.220806616 0 229 255
5.226064455 70.156181075 -0.214876278 0 229 255
5.225688543 70.059269598 -0.218103287 0 229 255
5.228838605 69.963408667 -0.231061040 0 229 255
5.230039559 69.866964300 -0.238638082 0 229 255
5.227054322 69.769273584 -0.234659745 0 229 255
5.223382020 69.671380338 -0.228783772 0 229 255
5.221301501 69.573961172 -0.227300057 0 229 255
5.219892436 69.476741683 -0.227668438 0 229 255
5.217316220 69.379177240 -0.224814089 0 229 255
5.213911993 69.281369366 -0.219673027 0 229 255
5.212917438 69.184274256 -0.221181907 0 229 255
5.215705912 69.088293835 -0.233131651 0 229 255
5.218125675 68.992202008 -0.244062622 0 229 255
5.215336087 68.894576533 -0.240613335 0 229 255
5.205716945 68.794947797 -0.218311248 0 229 255
5.194513043 68.694861044 -0.191633190 0 229 255
5.187620639 68.596044267 -0.176854718 0 229 255
5.186634339 68.498958775 -0.178377778 0 229 255
5.189233564 68.402920221 -0.189797048 0 229 255
5.192334837 68.307025317 -0.202601124 0 229 255
5.191579952 68.210004221 -0.204759602 0 229 255
5.187563619 68.112034309 -0.197913917 0 229 255
5.184417878 68.014319563 -0.193470161 0 229 255
5.185184645 67.917741434 -0.199825501 0 229 255
5.188990495 67.822042410 -0.214569076 0 229 255
5.191999997 67.726109303 -0.227113329 0 229 255
5.191383604 67.629125414 -0.229647191 0 229 255
5.194273494 67.533153035 -0.241859126 0 229 255
5.183285831 67.433178279 -0.215760215 0 229 255
5.175607223 67.334163493 -0.198794636 0 229 255
5.171716020 67.236242394 -0.192283136 0 229 255
5.169493004 67.138802335 -0.190375583 0 229 255
5.165316797 67.040803271 -0.183074741 0 229 255
5.155894575 66.941304730 -0.161290118 0 230 252
5.148691749 66.842447130 -0.145631028 0 230 252
5.147888042 66.745421370 -0.147636597 0 230 252
5.158279897 66.457984114 -0.188992230 0 229 255
5.009155715 57.898957004 -0.144048136 0 230 252
4.974307069 54.792218148 -0.178938455 0 229 255
4.942418372 53.622803293 -0.139706066 0 230 252
4.862984708 47.504856287 -0.174027866 0 229 255
4.844419385 46.726277127 -0.154611027 0 230 252
4.844977510 46.629554236 -0.160136755 0 230 252
4.847701424 46.533276921 -0.171648654 0 229 255
4.848086935 46.436515303 -0.176694976 0 229 255
4.840566925 46.338127921 -0.159885191 0 230 252
4.829825049 46.239084603 -0.134167005 0 230 252
4.822984643 46.140847564 -0.119233135 0 230 252
4.822492802 46.043912462 -0.121848996 0 230 252
4.824980041 45.947584687 -0.132699648 0 230 252
4.826789772 45.851116313 -0.141676192 0 230 252
4.826606340 45.754240738 -0.145141300 0 230 252
4.823621176 45.656796227 -0.140859465 0 230 252
4.818153523 45.558850621 -0.129713137 0 230 252
4.812794601 45.460930406 -0.118866081 0 230 252
4.811320856 45.363797174 -0.118759045 0 230 252
4.812080180 45.267113877 -0.124824617 0 230 252
4.811097572 45.170079224 -0.126073096 0 230 252
4.808829938 45.072786845 -0.123767624 0 230 252
4.808449660 44.975873246 -0.126679032 0 230 252
4.810267196 44.879398296 -0.135665764 0 230 252
4.810539468 44.782613060 -0.140379069 0 230 252
4.807458943 44.685159548 -0.135821370 0 230 252
4.800753474 44.586987536 -0.121240049 0 230 252
4.791121477 44.488239645 -0.098565921 0 230 252
4.794780728 44.392128526 -0.112638919 0 230 252
4.794859671 44.295306727 -0.116811744 0 230 252
4.788914401 44.197296594 -0.104327048 0 230 252
4.793153522 44.101293954 -0.120000061 0 230 252
4.794129929 44.004646654 -0.126650866 0 230 252
4.791053691 43.907203617 -0.122095182 0 230 252
4.797336167 43.811592726 -0.143414823 0 230 252
4.797379142 43.714758231 -0.147481389 0 230 252
4.789679512 43.616414416 -0.130138479 0 230 252
4.788862166 43.519414011 -0.131823829 0 230 252
4.789929387 43.422779219 -0.138718907 0 230 252
4.780431005 43.324096397 -0.116398393 0 230 252
4.776120098 43.226422859 -0.108420160 0 230 252
4.776200329 43.129599030 -0.112582541 0 230 252
4.778616924 43.033224246 -0.123204079 0 230 252
4.781153778 42.936869974 -0.134157082 0 230 252
4.781380087 42.840069890 -0.138720046 0 230 252
4.780691560 42.743093779 -0.140752209 0 230 252
4.779299898 42.645983128 -0.140838914 0 230 252
4.777012233 42.548701973 -0.138446814 0 230 252
4.774442595 42.451368164 -0.135273778 0 230 252
4.769940129 42.353668567 -0.126754808 0 230 252
4.764489733 42.255792026 -0.115613286 0 230 252
4.760012949 42.158103014 -0.107162722 0 230 252
4.758292972 42.060936960 -0.106334202 0 230 252
4.759875551 41.964393501 -0.114637023 0 230 252
4.762307530 41.868007741 -0.125287607 0 230 252
4.763627422 41.771410760 -0.132861844 0 230 252
4.764114284 41.674656072 -0.138131366 0 230 252
4.765443865 41.578057699 -0.145730179 0 230 252
4.766373398 41.481382974 -0.152221610 0 230 252
4.763591180 41.384016181 -0.148447488 0 230 252
4.760161688 41.286530574 -0.142882153 0 230 252
4.758661517 41.189404328 -0.142650953 0 230 252
4.757524368 41.092345603 -0.143422475 0 230 252
4.754552282 40.994948388 -0.139118373 0 230 252
4.750282000 40.897313623 -0.131222898 0 230 252
4.746970471 40.799857556 -0.125977561 0 230 252
4.746686153 40.702958419 -0.129102757 0 230 252
4.749728541 40.606667555 -0.141426891 0 230 252
4.753204631 40.510452822 -0.154949396 0 230 252
4.754167437 40.413776654 -0.161520238 0 230 252
4.752074551 40.316543287 -0.159639231 0 230 252
4.747914155 40.218935553 -0.152039123 0 230 252
4.743952104 40.121366163 -0.144986278 0 230 252
4.742074013 40.024175651 -0.143695607 0 230 252
4.741019959 39.927134424 -0.144682723 0 230 252
4.738397384 39.829810988 -0.141330667 0 230 252
4.733559876 39.732091063 -0.131851591 0 230 252
4.725839794 39.633857550 -0.114398890 0 230 252
4.717592499 39.535534907 -0.095486653 0 230 252
4.713938865 39.438037440 -0.089277824 0 230 252
4.714335235 39.341263094 -0.094269022 0 230 252
4.713957713 39.244350202 -0.097118685 0 230 252
4.710248821 39.146846254 -0.090753353 0 230 252
4.704973098 39.049067213 -0.080053212 0 230 249
4.700173935 38.951375569 -0.070669829 0 230 249
4.698132795 38.854172627 -0.068913374 0 230 249
4.699280695 38.757530981 -0.075976118 0 230 249
4.701085567 38.661002923 -0.084854846 0 230 249
4.700185272 38.563999353 -0.086250319 0 230 252
4.696455010 38.466501579 -0.079817221 0 230 249
4.693791108 38.369191690 -0.076332316 0 230 249
4.694847332 38.272529815 -0.083135796 0 230 249
4.697123034 38.176077919 -0.093311174 0 230 252
4.695838278 38.079007278 -0.093637388 0 230 252
4.690557382 37.981246728 -0.082909177 0 230 249
4.687210977 37.883822808 -0.077530440 0 230 249
4.690298506 37.787506929 -0.089946798 0 230 252
4.694338833 37.691351400 -0.104997570 0 230 252
4.694354563 37.594503126 -0.108915119 0 230 252
4.697984904 37.498271437 -0.122829748 0 230 252
4.689590006 37.399986994 -0.103480640 0 230 252
4.683960699 37.302178440 -0.091779985 0 230 252
4.680643137 37.204765613 -0.086472542 0 230 252
4.678279144 37.107515975 -0.083801536 0 230 249
4.676105408 37.010299521 -0.081655590 0 230 249
4.672634493 36.912865398 -0.075920224 0 230 249
4.669496119 36.815489081 -0.071103467 0 230 249
4.667116666 36.718241709 -0.068384788 0 230 249
4.665960780 36.621200174 -0.069049530 0 230 249
4.666503541 36.524442403 -0.074411938 0 230 249
4.666911716 36.427661044 -0.079400919 0 230 249
4.664113156 36.330345627 -0.075518112 0 230 249
4.658746193 36.232605677 -0.064529155 0 230 249
4.655485735 36.135217591 -0.059366089 0 230 249
4.654664700 36.038233909 -0.060949975 0 230 249
4.653418381 35.941180065 -0.061356216 0 230 249
4.650073498 35.843781622 -0.055955924 0 230 249
4.646581531 35.746360872 -0.050147494 0 230 249
4.645098777 35.649270622 -0.049896045 0 230 249
4.644884826 35.552387767 -0.053153411 0 230 249
4.644729145 35.455513809 -0.056570827 0 230 249
4.645296797 35.358756683 -0.061988139 0 230 249
4.646764798 35.262144239 -0.069895084 0 230 249
4.647996553 35.165491738 -0.077147369 0 230 249
4.648489924 35.068718482 -0.082355832 0 230 249
4.649028214 34.971951324 -0.087687431 0 230 252
4.650493731 34.875331809 -0.095583079 0 230 252
4.651703287 34.778669443 -0.102769506 0 230 252
4.650385542 34.681601740 -0.102962973 0 230 252
4.647205752 34.584237597 -0.098003814 0 230 252
4.644363664 34.486928811 -0.093977683 0 230 252
4.642822613 34.389827756 -0.093549738 0 230 252
4.641288203 34.292728177 -0.093138977 0 230 252
4.638940686 34.195500702 -0.090477469 0 230 252
4.636017105 34.098183578 -0.086220985 0 230 252
4.632353075 34.000751650 -0.079914703 0 230 249
4.628311787 33.903262666 -0.072563410 0 230 249
4.623247078 33.805616073 -0.062379363 0 230 249
4.616485045 33.707707981 -0.047498018 0 230 249
4.610660939 33.609950168 -0.035210282 0 230 249
4.611635853 33.513250840 -0.041732285 0 230 249
4.619560611 33.417625548 -0.067481632 0 230 249
4.628084660 33.322085965 -0.094888150 0 230 252
4.631865885 33.225808762 -0.109171459 0 230 252
4.630374312 33.128717962 -0.108865022 0 230 252
4.627383117 33.031397766 -0.104408234 0 230 252
4.625587328 32.934261817 -0.103257682 0 230 252
4.624456297 32.837227840 -0.103945203 0 230 252
4.621176646 32.739867208 -0.098686632 0 230 252
4.612157364 32.641637623 -0.077545993 0 230 249
4.598712065 32.542744434 -0.044157594 0 230 249
4.596551544 32.445564056 -0.041991539 0 230 249
4.595847889 32.348603915 -0.043855309 0 230 249
4.602507569 32.252749337 -0.066091804 0 230 249
4.598892710 32.155349884 -0.059898194 0 230 249
4.599569550 32.058593660 -0.065578322 0 230 249
4.596010345 31.961204881 -0.059536253 0 230 249
4.592072142 31.863761733 -0.052444241 0 230 249
4.590765254 31.766710970 -0.052631854 0 230 249
4.592163442 31.670060485 -0.060303318 0 230 249
4.594510100 31.573548080 -0.070598138 0 230 249
4.597109581 31.477070324 -0.081591464 0 230 249
4.600265669 31.380671505 -0.094123896 0 230 252
4.602549218 31.284141825 -0.104240883 0 230 252
4.601062728 31.187059330 -0.103924697 0 230 252
4.593089144 31.089032766 -0.085656729 0 230 252
4.588188303 30.991457727 -0.075890064 0 230 249
4.576399437 30.892888117 -0.047061832 0 230 249
4.570753431 30.795214059 -0.035230443 0 230 249
4.571500718 30.698464593 -0.041089210 0 230 249
4.576091170 30.602265990 -0.057581691 0 230 249
4.582315217 30.506297219 -0.078593681 0 230 249
4.587304999 30.410146544 -0.096189199 0 230 252
4.586151681 30.313115707 -0.096784237 0 230 252
4.579861414 30.215354773 -0.083162787 0 230 249
4.577108124 30.118099330 -0.079327807 0 230 249
4.580161389 30.021666214 -0.091560064 0 230 252
4.586058446 29.925631003 -0.111660925 0 230 252
4.588776208 29.829143452 -0.122962668 0 230 252
4.580263070 29.731078035 -0.103183617 0 230 252
4.567520495 29.632426842 -0.071698756 0 230 249
4.559900594 29.534499132 -0.054388700 0 230 249
4.557443706 29.437294643 -0.051365353 0 230 249
4.556010921 29.340233338 -0.051174899 0 230 249
4.553135081 29.242972755 -0.046989709 0 230 249
4.548986043 29.145537981 -0.039279776 0 230 249
4.544591237 29.048071816 -0.030888417 0 230 249
4.541017256 28.950720862 -0.024767386 0 230 249
4.539842942 28.853700170 -0.025286161 0 230 249
4.541217310 28.757027319 -0.032857256 0 230 249
4.541867881 28.660254201 -0.038424121 0 230 249
4.539684889 28.563095440 -0.036147867 0 230 249
4.536058103 28.465742287 -0.029874623 0 230 249
4.533232715 28.368499256 -0.025818045 0 230 249
4.532341522 28.271517803 -0.027113287 0 230 249
4.532432724 28.174668046 -0.031126237 0 230 249
4.531338292 28.077658894 -0.031856662 0 230 249
4.528409780 27.980405224 -0.027509851 0 230 249
4.523891053 27.882941568 -0.018760646 0 230 249
4.519071055 27.785440666 -0.009176339 0 230 249
4.517005114 27.688306832 -0.007213086 0 230 249
4.517296948 27.591484666 -0.011774232 0 230 249
4.518131011 27.494732803 -0.017834976 0 230 249
4.519834704 27.398093536 -0.026301498 0 230 249
4.522950029 27.301636700 -0.038673956 0 230 249
4.526753261 27.205266371 -0.052949316 0 230 249
4.528811669 27.108665686 -0.062394372 0 230 249
4.526581356 27.011507099 -0.059968097 0 230 249
4.523420197 26.914229235 -0.054964211 0 230 249
4.523749735 26.817402564 -0.059620689 0 230 249
4.524009065 26.720565875 -0.064081706 0 230 249
4.521034288 26.623314221 -0.059590080 0 230 249
4.516276926 26.525836572 -0.050163269 0 230 249
4.511318685 26.428336244 -0.040179157 0 230 249
4.507008946 26.330921228 -0.031988727 0 230 249
4.504717394 26.233764028 -0.029383179 0 230 249
4.505049216 26.136938646 -0.034037719 0 230 249
4.509360915 26.040612617 -0.049707182 0 230 249
4.516355129 25.944618766 -0.072800692 0 230 249
4.521173414 25.848346918 -0.089870355 0 230 252
4.520075342 25.751333600 -0.090562663 0 230 252
4.514102132 25.653714908 -0.077759431 0 230 249
4.506855480 25.555942363 -0.061429961 0 230 249
4.500123882 25.458238177 -0.046524800 0 230 249
4.495099872 25.360748497 -0.036344960 0 230 249
4.494315330 25.263781939 -0.037898935 0 230 249
4.497076141 25.167248764 -0.049265548 0 230 249
4.498523357 25.070552597 -0.056994946 0 230 249
4.495819676 24.973350162 -0.053233119 0 230 249
4.498522256 24.876803935 -0.064435250 0 230 249
4.493645803 24.779339690 -0.054656527 0 230 249
4.490731917 24.682114659 -0.050309193 0 230 249
4.489143908 24.585050193 -0.049630871 0 230 249
4.488589701 24.488109839 -0.051813110 0 230 249
4.492342316 24.391682637 -0.065916317 0 230 249
4.500079904 24.295725399 -0.091049716 0 230 252
4.493478858 24.198062930 -0.076489656 0 230 249
4.494272137 24.101277865 -0.082397509 0 230 249
4.482953956 24.003065967 -0.054776627 0 230 249
4.476441433 23.905425738 -0.040457605 0 230 249
4.474739880 23.808352291 -0.039455394 0 230 249
4.473830830 23.711371758 -0.040645878 0 230 249
4.471043751 23.614173001 -0.036636206 0 230 249
4.466538151 23.516776643 -0.027867860 0 230 249
4.462773071 23.419468434 -0.021148249 0 230 249
4.462389923 23.322551342 -0.023789808 0 230 249
4.466087546 23.226101604 -0.037727340 0 230 249
4.470633007 23.129745157 -0.054010982 0 230 249
4.473021667 23.033138877 -0.064322698 0 230 249
4.472394856 22.936187788 -0.066285243 0 230 249
4.470661138 22.839111224 -0.065182223 0 230 249
4.471701482 22.742347943 -0.071757860 0 230 249
4.476095180 22.645959845 -0.087616026 0 230 252
4.478254765 22.549317498 -0.097288076 0 230 252
4.474190302 22.451978266 -0.089727810 0 230 252
4.469673891 22.354591133 -0.080915049 0 230 249
4.468842186 22.257615022 -0.082302207 0 230 249
4.471240769 22.160995525 -0.092631375 0 230 252
4.473614478 22.064370703 -0.102890598 0 230 252
4.474571809 21.967587980 -0.109227409 0 230 252
4.473706969 21.870604634 -0.110518270 0 230 252
4.468880633 21.773189772 -0.100840180 0 230 252
4.460080426 21.675346594 -0.080158677 0 230 249
4.451696012 21.577554355 -0.060626928 0 230 249
4.446688559 21.480131665 -0.050443384 0 230 249
4.445185082 21.383088289 -0.049959874 0 230 249
4.446602670 21.286357843 -0.057562663 0 230 249
4.448861007 21.189715191 -0.067492118 0 230 249
4.448485809 21.092790303 -0.070129012 0 230 249
4.443665254 20.995394426 -0.060456796 0 230 249
4.437730112 20.897883933 -0.047697290 0 230 249
4.437731567 20.801001048 -0.051373424 0 230 249
4.442298945 20.704595456 -0.067690387 0 230 249
4.445334830 20.608025856 -0.079765962 0 230 249
4.443028267 20.510897919 -0.077048346 0 230 249
4.435783664 20.413259649 -0.060657027 0 230 249
4.427253839 20.315493569 -0.040705774 0 230 249
4.421815583 20.218051030 -0.029313182 0 230 249
4.419950371 20.120977793 -0.027812533 0 230 249
4.418706759 20.023968646 -0.028031817 0 230 249
4.417297517 19.926942860 -0.027791307 0 230 249
4.417277850 19.830058104 -0.031397209 0 230 249
4.419146354 19.733363078 -0.040230151 0 230 249
4.419707078 19.636534446 -0.045440848 0 230 249
4.416255693 19.539302976 -0.039541108 0 230 249
4.414087050 19.442201317 -0.037191980 0 230 249
4.415899917 19.345496109 -0.045866345 0 230 249
4.420237287 19.249038593 -0.061529933 0 230 249
4.422240784 19.152346929 -0.070729995 0 230 249
4.420486627 19.055283983 -0.069523970 0 230 249
4.420726719 18.958416693 -0.073838880 0 230 249
4.421693299 18.861619250 -0.080164329 0 230 249
4.425076362 18.765054835 -0.093180039 0 230 252
4.431185409 18.668750596 -0.113743132 0 230 252
4.434214608 18.572144382 -0.125776888 0 230 252
4.426889826 18.474542108 -0.109138412 0 230 252
4.413035083 18.376320928 -0.074416341 0 230 249
4.399280095 18.278119078 -0.039968902 0 230 249
4.402801845 18.181564085 -0.053361774 0 230 249
4.396582270 18.084086311 -0.039778275 0 230 249
4.402492657 17.987752660 -0.059783483 0 230 249
4.407985389 17.891374637 -0.078631132 0 230 249
4.410353792 17.794700384 -0.088825879 0 230 252
4.408666206 17.697646988 -0.087787635 0 230 252
4.404277055 17.600344334 -0.079266933 0 230 249
4.399846243 17.503040445 -0.070629583 0 230 249
4.399009567 17.406068764 -0.071944069 0 230 249
4.402920999 17.309530541 -0.086406208 0 230 252
4.404730093 17.212797400 -0.095045321 0 230 252
4.402210360 17.115670144 -0.091695504 0 230 252
4.398903643 17.018473100 -0.086165061 0 230 252
4.396166401 16.921328960 -0.082210439 0 230 249
4.398243722 16.824616593 -0.091587794 0 230 252
4.400558680 16.727923036 -0.101622162 0 230 252
4.397487473 16.630749535 -0.096739137 0 230 252
4.402699111 16.534308633 -0.114793299 0 230 252
4.403458686 16.437471773 -0.120516903 0 230 252
4.397292916 16.340027675 -0.107060217 0 230 252
4.395634984 16.242980207 -0.106086355 0 230 252
4.387685435 16.145387607 -0.087686995 0 230 252
4.386083696 16.048348422 -0.086866279 0 230 252
4.388778438 15.951679033 -0.097943376 0 230 252
4.390322416 15.854908347 -0.105832372 0 230 252
4.387886285 15.757796637 -0.102697335 0 230 252
4.383639704 15.660532485 -0.094547006 0 230 252
4.381183888 15.563422020 -0.091354990 0 230 252
4.380205033 15.466436813 -0.092252276 0 230 252
4.377807515 15.369332906 -0.089219310 0 230 252
4.374322293 15.272139490 -0.083172646 0 230 249
4.371942734 15.175039644 -0.080186975 0 230 249
4.372392341 15.078174319 -0.085035765 0 230 252
4.374702331 14.981460697 -0.095035978 0 230 252
4.375709068 14.884638007 -0.101425572 0 230 252
4.374856550 14.787662502 -0.102664567 0 230 252
4.373477325 14.690644236 -0.102443592 0 230 252
4.372764268 14.593679965 -0.104066501 0 230 252
4.372517659 14.496752903 -0.106980159 0 230 252
4.371316187 14.399749036 -0.107247976 0 230 252
4.367877686 14.302567583 -0.101318672 0 230 252
4.363088200 14.205281175 -0.091646253 0 230 252
4.359742725 14.108111307 -0.085972097 0 230 252
4.358499285 14.011107853 -0.086118839 0 230 252
4.358159984 13.914175050 -0.088768662 0 230 252
4.356473184 13.817137258 -0.087685038 0 230 252
4.352000714 13.719885051 -0.078884456 0 230 249
4.347039064 13.622597950 -0.068727653 0 230 249
4.343021863 13.525386042 -0.061185531 0 230 249
4.340409324 13.428283225 -0.057532852 0 230 249
4.339624128 13.331319856 -0.058940448 0 230 249
4.341725704 13.234573559 -0.068342886 0 230 249
4.347278462 13.138083278 -0.087303634 0 230 252
4.353879817 13.041666093 -0.109167884 0 230 252
4.357524582 12.945024012 -0.122841653 0 230 252
4.354498945 12.847886647 -0.118037839 0 230 252
4.345864275 12.750339493 -0.097696081 0 230 252
4.337257218 12.652800202 -0.077429400 0 230 249
4.331914924 12.555503669 -0.066204636 0 230 249
4.330732463 12.458510759 -0.066501276 0 230 249
4.332124835 12.361702887 -0.073929038 0 230 249
4.333909749 12.264921228 -0.082443039 0 230 249
4.335635409 12.168133236 -0.090791803 0 230 252
4.337716662 12.071368292 -0.100124477 0 230 252
4.339870060 11.974606067 -0.109655901 0 230 252
4.341155962 11.877780804 -0.116783213 0 230 252
4.341123167 11.780862136 -0.120256511 0 230 252
4.341318510 11.683958506 -0.124360627 0 230 252
4.343582081 11.587196149 -0.134192819 0 230 252
4.346711741 11.490490510 -0.146423096 0 230 252
4.347827459 11.393644811 -0.153073415 0 230 252
4.345948636 11.296595076 -0.151427293 0 230 252
4.342777972 11.199459190 -0.146201363 0 230 252
4.339519006 11.102319071 -0.140729583 0 230 252
4.333538417 11.004999837 -0.127717144 0 230 252
4.315311346 10.906875334 -0.080778040 0 230 249
4.274442068 10.807276778 0.028887100 0 231 246
4.241937553 10.708254967 0.115382437 0 231 243
4.212534452 10.609458609 0.193288345 0 232 240
4.182972328 10.510673727 0.271637033 0 232 237
4.170364564 10.412998409 0.303018724 0 232 237
4.160538974 10.315509405 0.326694363 0 233 234
4.156804145 10.218413253 0.333497821 0 233 234
4.158292845 10.121648319 0.325831392 0 233 234
4.161184905 10.024969371 0.314278215 0 233 234
4.159919204 9.928028666 0.314244776 0 233 234
4.154543243 9.830833917 0.325599647 0 233 234
4.149552002 9.733666174 0.335889976 0 233 234
4.146209570 9.636602225 0.341613656 0 233 234
4.143056501 9.539551572 0.346813953 0 233 234
4.141250178 9.442583819 0.348284358 0 233 234
4.144613955 9.345926614 0.335432258 0 233 234
4.151079782 9.249450841 0.313986993 0 233 234
4.157713518 9.152979296 0.292077523 0 232 237
4.164198201 9.056493151 0.270581992 0 232 237
4.169001411 8.959903061 0.253746024 0 232 237
4.169209897 8.863041897 0.249640969 0 232 237
4.163932681 8.765863570 0.260735512 0 232 237
4.152767602 8.668351348 0.288144125 0 232 237
4.145107707 8.571046300 0.305842785 0 232 237
4.146277349 8.474245231 0.299079630 0 232 237
4.150501049 8.377613895 0.283855966 0 232 237
4.150442111 8.280739873 0.280498948 0 232 237
4.144294075 8.183528089 0.294013805 0 232 237
4.137373497 8.086277786 0.309670437 0 232 237
4.134987232 7.989279536 0.312765299 0 232 237
4.138662635 7.892610922 0.299066381 0 232 237
4.144358743 7.796047491 0.279769749 0 232 237
4.144861156 7.699201396 0.274864350 0 232 237
4.138737233 7.602002590 0.288319846 0 232 237
4.130392429 7.504690731 0.307930153 0 232 237
4.124786660 7.407527726 0.319952645 0 233 234
4.122966052 7.310564731 0.321488622 0 233 234
4.123168558 7.213706612 0.317420178 0 233 234
4.122464433 7.116801210 0.315864965 0 233 234
4.116236780 7.019615216 0.329615579 0 233 234
4.105318876 6.922196949 0.356363404 0 233 234
4.093106765 6.824721578 0.386698750 0 233 234
4.090436693 6.727728188 0.390595926 0 233 234
4.080334852 6.630370227 0.415086841 0 233 231
4.079684237 6.533480892 0.413390860 0 233 231
4.089664219 6.437106486 0.382239692 0 233 234
4.089108422 6.340217116 0.380283165 0 233 234
4.088865463 6.243342333 0.377460950 0 233 234
4.070017947 6.145586709 0.426192068 0 233 231
4.056828525 6.048110298 0.459246561 0 233 231
4.055895653 5.951213755 0.458339947 0 233 231
4.061604854 5.854623806 0.439029386 0 233 231
4.070595653 5.758178967 0.410626530 0 233 231
4.081781731 5.661826151 0.376141476 0 233 234
4.089467342 5.565306426 0.351357179 0 233 234
4.088449111 5.468391561 0.350692456 0 233 234
4.081385000 5.371209172 0.366782316 0 233 234
4.071975536 5.273928543 0.389372642 0 233 234
4.065751907 5.176792897 0.403136191 0 233 231
4.065799745 5.079931578 0.399522247 0 233 231
4.068797919 4.983195502 0.387733760 0 233 234
4.070542677 4.886403303 0.379419705 0 233 234
4.072524331 4.789618945 0.370450286 0 233 234
4.073967044 4.692809904 0.362975443 0 233 234
4.072455885 4.595877329 0.363687340 0 233 234
4.067815087 4.498817440 0.373073176 0 233 234
4.064729242 4.401823200 0.378151227 0 233 234
4.069213112 4.305133658 0.362253359 0 233 234
4.079366774 4.208664774 0.330644385 0 233 234
4.087905363 4.112123921 0.303512039 0 232 237
4.083617955 4.015076938 0.311924359 0 232 237
4.068521468 3.917616226 0.350292519 0 233 234
4.057566683 3.820324221 0.377184553 0 233 234
4.054165674 3.723324948 0.383144457 0 233 234
4.055014048 3.626486278 0.377329330 0 233 234
4.055070707 3.529616921 0.373709411 0 233 234
4.050693972 3.432584519 0.382376962 0 233 234
4.043481010 3.335452000 0.398905895 0 233 231
4.039009381 3.238422463 0.407839000 0 233 231
4.037761448 3.141509856 0.407839357 0 233 231
4.035031203 3.044545467 0.411948930 0 233 231
4.029722637 2.947492990 0.423205238 0 233 231
4.024986150 2.850463437 0.432877380 0 233 231
4.026379272 2.753644633 0.425563118 0 233 231
4.034133710 2.657037307 0.400620070 0 233 231
4.041595457 2.560413577 0.376489166 0 233 234
4.042423894 2.463566023 0.370743082 0 233 234
4.036051099 2.366483874 0.384956035 0 233 234
4.025823246 2.269282481 0.409854507 0 233 231
4.016042662 2.172102298 0.433514819 0 233 231
4.009025549 2.075015159 0.449517578 0 233 231
4.004579916 1.978011965 0.458394766 0 233 231
4.006289621 1.881198958 0.450213494 0 233 231
4.018215335 1.784691233 0.413719214 0 233 231
4.032093028 1.688231590 0.371815824 0 233 234
4.039500755 1.591570858 0.347845186 0 233 234
4.032753051 1.494494078 0.363108314 0 233 234
4.013949812 1.397077470 0.411785789 0 233 231
4.000433048 1.299823425 0.445812954 0 233 231
4.004609543 1.203070629 0.430802595 0 233 231
4.017836606 1.106561902 0.390708448 0 233 234
