ply
format ascii 1.0
comment coordinate_system ground
comment units millimeter
element vertex 1248
property double x
property double y
property double z
property uchar red
property uchar green
property uchar blue
comment color_mapping zg_high_contrast_from_zg
comment color_zg_range_mm -0.181889103 0.504665687
end_header
6.411491473 147.079214842 0.192117387 243 233 0
6.414162789 146.984269409 0.179727972 241 237 0
6.415078440 146.888268402 0.172173138 240 239 0
6.412423685 146.790126668 0.174449409 240 239 0
6.408731693 146.691364860 0.179582443 241 237 0
6.404388713 146.592215258 0.186508827 242 234 0
6.398636897 146.492225463 0.197315184 244 231 0
6.391022589 146.391126003 0.213250632 247 225 0
6.385124258 146.291055954 0.224462535 248 222 0
6.382937185 146.193204128 0.225457106 248 222 0
6.383520681 146.097005256 0.218824239 247 223 0
6.385195161 146.001455099 0.209188346 246 227 0
6.385979600 145.905372416 0.202003921 245 229 0
6.385571426 145.808578108 0.198104111 244 231 0
6.385177954 145.711791757 0.194164719 243 232 0
6.383831177 145.614437857 0.192851091 243 233 0
6.380461597 145.515882073 0.197108089 244 231 0
6.374661179 145.415884442 0.208059310 246 227 0
6.366560445 145.314525182 0.225345483 248 222 0
6.358588838 145.213247555 0.242277236 252 215 0
6.363848274 145.119815748 0.222778228 248 223 0
6.365587192 145.024293892 0.212973806 247 225 0
6.361630039 144.925398398 0.218854610 247 223 0
6.366036309 144.831451538 0.201707228 245 229 0
6.367398205 144.735700737 0.192943517 243 233 0
6.365759378 144.638175253 0.192443413 243 233 0
6.361080125 144.538855066 0.200316384 244 230 0
6.365250401 144.444758134 0.183822134 242 235 0
6.363318072 144.347059026 0.184133003 242 235 0
6.363846496 144.250810153 0.177668762 241 237 0
6.364200529 144.154457108 0.171685610 239 240 0
6.364207071 144.057898234 0.166660217 238 242 0
6.363434294 143.960879991 0.163781721 238 243 0
6.361658233 143.863271651 0.163666892 238 243 0
6.359281576 143.765310853 0.165206883 238 242 0
6.357675338 143.667802946 0.164626301 238 242 0
6.356348243 143.570458905 0.163277965 238 243 0
6.352277692 143.471506713 0.169485411 239 240 0
6.345062321 143.370714392 0.184354029 242 235 0
6.336423990 143.269093489 0.203142307 245 229 0
6.331099883 143.169416930 0.212804971 247 225 0
6.333527176 143.074275041 0.201122644 244 230 0
6.336482601 142.979438792 0.187986743 242 234 0
6.331065932 142.879711005 0.197907226 244 231 0
6.322942092 142.778406653 0.215283979 247 224 0
6.316671346 142.678187959 0.227558648 249 221 0
6.312803068 142.579372948 0.233218231 250 219 0
6.310638299 142.481551842 0.234187491 250 218 0
6.310016170 142.384629079 0.230909379 249 220 0
6.310628550 142.288423696 0.224232403 248 222 0
6.312503816 142.192950777 0.214078358 247 225 0
6.315401561 142.098069250 0.201109264 244 230 0
6.316077637 142.001894884 0.194259445 243 232 0
6.312143913 141.903044932 0.200105938 244 230 0
6.305904449 141.802860289 0.212303516 246 226 0
6.301443337 141.703709539 0.219604520 247 223 0
6.301707912 141.607296952 0.213891747 247 225 0
6.304408704 141.512292569 0.201470349 244 230 0
6.304278913 141.415648514 0.196845436 244 231 0
6.300885482 141.317117798 0.201209815 244 230 0
6.297727721 141.218724678 0.204926128 245 228 0
6.297396633 141.121963967 0.200858411 244 230 0
6.299043424 141.026342988 0.191344229 243 233 0
6.297846760 140.929081102 0.189662231 242 234 0
6.290943383 140.828532637 0.203698455 245 229 0
6.282571072 140.727142977 0.221781508 248 223 0
6.282086832 140.630295275 0.218140341 247 223 0
6.287480508 140.536825204 0.198311009 244 231 0
6.290645342 140.442069800 0.184621173 242 235 0
6.291901016 140.346215100 0.176190445 240 238 0
6.292001146 140.249695560 0.170943254 239 240 0
6.289574673 140.151726573 0.172655929 240 239 0
6.283648760 140.051753730 0.184008071 242 235 0
6.277243089 139.951509694 0.196682690 244 231 0
6.273991194 139.853073710 0.200671877 244 230 0
6.273922352 139.756458921 0.195894851 243 232 0
6.274862126 139.660419382 0.188340643 242 234 0
6.275547729 139.564232961 0.181487388 241 236 0
6.273461873 139.466463667 0.182268678 241 236 0
6.267651798 139.366571412 0.193308919 243 233 0
6.260090295 139.265684551 0.209174399 246 227 0
6.260557124 139.169373934 0.202927526 245 229 0
6.254053055 139.069095155 0.215882495 247 224 0
6.249221726 138.969771505 0.224231070 248 222 0
6.246274896 138.871521417 0.227389884 249 221 0
6.245683731 138.774610320 0.224061035 248 222 0
6.246578440 138.678541901 0.216640258 247 224 0
6.247772913 138.582641768 0.208394654 246 227 0
6.250373020 138.487536349 0.196278051 244 231 0
6.254398516 138.393235231 0.180235969 241 236 0
6.256984205 138.298115073 0.168160716 239 241 0
6.255096581 138.200461695 0.168408381 239 241 0
6.248050838 138.099893116 0.182865530 242 235 0
6.239213991 137.998317126 0.202257587 245 229 0
6.231413106 137.897331602 0.218797127 247 223 0
6.224052961 137.796599596 0.234123727 250 218 0
6.217331328 137.696232095 0.247692573 252 213 0
6.214705688 137.598176118 0.249979419 253 212 0
6.216040820 137.502350872 0.241356577 251 216 0
6.219151639 137.407522547 0.227843118 249 221 0
6.223146689 137.313187940 0.211894669 246 226 0
6.227238155 137.218903432 0.195681410 243 232 0
6.229447369 137.123558005 0.184654058 242 235 0
6.228090746 137.026209212 0.183450564 242 235 0
6.224700055 136.927719954 0.187851414 242 234 0
6.222296611 136.829785401 0.189533618 242 234 0
6.221980691 136.733020497 0.185466084 242 235 0
6.222025599 136.636456702 0.180405452 241 236 0
6.220983496 136.539284032 0.178340261 241 237 0
6.219262330 136.441731680 0.178146723 241 237 0
6.217885432 136.344371850 0.177005735 240 238 0
6.217725206 136.247690969 0.172513918 240 239 0
6.217188642 136.150799325 0.169059782 239 241 0
6.213952002 136.052402420 0.173045034 240 239 0
6.208952243 135.953025108 0.181888545 241 236 0
6.202558379 135.852874758 0.194573787 243 232 0
6.195186810 135.752184528 0.209953660 246 226 0
6.188927756 135.652117150 0.222269723 248 223 0
6.185931846 135.553865726 0.225596983 248 222 0
6.184780173 135.456639073 0.223844374 248 222 0
6.183848993 135.359534562 0.221485248 248 223 0
6.184507787 135.263310931 0.214746644 247 225 0
6.188994150 135.169205634 0.197463821 244 231 0
6.196439875 135.076733788 0.172028569 239 240 0
6.200436852 134.982347840 0.156095556 237 245 0
6.197091596 134.883899808 0.160391813 238 244 0
6.189621014 134.783174819 0.176054772 240 238 0
6.183121788 134.682990624 0.189042671 242 234 0
6.181891222 134.585716320 0.187515827 242 234 0
6.183246697 134.489867301 0.178865020 241 237 0
6.182224240 134.392706485 0.176766668 240 238 0
6.176976446 134.293219746 0.186310801 242 234 0
6.170301478 134.192950992 0.199788141 244 230 0
6.169339226 134.095826325 0.197526891 244 231 0
6.172666055 134.001057261 0.183449226 242 235 0
6.174407862 133.905414650 0.173739482 240 239 0
6.174314794 133.808763251 0.169086142 239 241 0
6.173859185 133.711912195 0.165432615 238 242 0
6.171302130 133.613909405 0.167570089 239 241 0
6.166334700 133.514588180 0.176349845 240 238 0
6.163324741 133.416340450 0.179737226 241 237 0
6.162148461 133.319096316 0.178073236 241 237 0
6.169592674 133.226560861 0.152657823 236 246 0
6.168081184 133.129130255 0.151919229 236 246 0
6.166293968 133.031549395 0.151941325 236 246 0
6.164958048 132.934214890 0.150720899 236 246 0
6.162564463 132.836304278 0.152415715 236 246 0
6.158365492 132.737411760 0.159086106 238 244 0
6.152940707 132.637854654 0.169135179 239 241 0
6.147378583 132.538226021 0.179563762 241 237 0
6.143563306 132.439549489 0.185180067 242 235 0
6.141139511 132.341630171 0.186963212 242 234 0
6.135350668 132.241886400 0.198019695 244 231 0
6.124638646 132.139477436 0.222643099 248 223 0
5.810271319 112.170741849 0.106415453 204 255 12
5.810897526 112.074360478 0.099993330 197 255 16
5.809220188 111.976910585 0.099926576 197 255 16
5.806908654 111.879167524 0.101610305 197 255 16
5.805961039 111.782056164 0.099532596 193 255 17
5.805487404 111.685163683 0.096148365 189 255 19
5.803315841 111.587486670 0.097449016 193 255 17
5.800791968 111.489647885 0.099722585 197 255 16
5.799638584 111.392441916 0.098216522 193 255 17
5.799944109 111.295907925 0.092686846 186 255 20
5.800498626 111.199487413 0.086471245 178 255 24
5.799411889 111.102310882 0.084784276 175 255 25
5.796411988 111.004255274 0.088376126 178 255 24
5.793386450 110.906189303 0.092039755 186 255 20
5.790519216 110.808197373 0.095267721 189 255 19
5.787095157 110.709951545 0.100032870 197 255 16
5.783936992 110.611829211 0.104065552 200 255 14
5.781776321 110.514164816 0.105347444 204 255 12
5.780494702 110.416903073 0.104205260 200 255 14
5.779853488 110.319933965 0.101297338 197 255 16
5.780669538 110.223629586 0.094370098 189 255 19
5.781790516 110.127462769 0.086602562 178 255 24
5.781513726 110.030657325 0.082692170 171 255 27
5.778220937 109.932478117 0.087103435 178 255 24
5.771967389 109.832953719 0.099684089 193 255 17
5.775246314 109.737765823 0.085966978 175 255 25
5.777873910 109.642278768 0.074047689 160 255 32
5.776251603 109.544860449 0.073854370 160 255 32
5.782848383 109.451168768 0.050986269 127 255 46
5.785447914 109.355660487 0.039147092 113 255 52
5.781701411 109.257277097 0.044817192 120 255 49
5.770721192 109.155624419 0.070445926 156 255 33
5.762949190 109.055428850 0.087224551 178 255 24
5.749690901 108.952761472 0.119140998 222 255 4
5.743184830 108.853149134 0.132429385 233 253 0
5.743346160 108.756545895 0.127323425 232 255 0
5.747558179 108.661765775 0.111042436 211 255 9
5.750410105 108.566369619 0.098514860 193 255 17
5.750194544 108.469591403 0.094451571 189 255 19
5.753005797 108.374172065 0.082038039 171 255 27
5.760720618 108.280950430 0.056095994 135 255 43
5.769398981 108.188154120 0.027496182 98 255 59
5.771022817 108.092189651 0.018361393 84 255 65
5.764371545 107.992518681 0.032059691 102 255 57
5.755672192 107.891935860 0.051410118 127 255 46
5.748964902 107.792249040 0.065265340 149 255 36
5.744976193 107.693780347 0.071620672 156 255 33
5.742727002 107.596089881 0.073177421 160 255 32
5.742209395 107.499172120 0.069957406 153 255 35
5.743453109 107.403038329 0.061878502 142 255 40
5.744453311 107.306794368 0.054472443 135 255 43
5.743621437 107.209734226 0.052122489 131 255 44
5.740396475 107.111610781 0.056376704 135 255 43
5.736707587 107.013283020 0.061912089 142 255 40
5.735234720 106.915939935 0.061333897 142 255 40
5.735658122 106.819437320 0.055524325 135 255 43
5.735664028 106.722748694 0.050867722 127 255 46
5.733930458 106.625289793 0.051011901 127 255 46
5.732442836 106.527940049 0.050478449 127 255 46
5.733174243 106.431570414 0.043822895 120 255 49
5.734912347 106.335643498 0.034390431 106 255 56
5.735918171 106.239391610 0.026979547 95 255 60
5.735459754 106.142493221 0.023610051 91 255 62
5.734256262 106.045266461 0.022297527 91 255 62
5.731101255 105.947181765 0.026371105 95 255 60
5.723418477 105.847109677 0.042939936 116 255 51
5.713920063 105.746245714 0.064520160 146 255 38
5.705784631 105.645985817 0.082340508 171 255 27
5.700535333 105.546995772 0.092197784 186 255 20
5.698962584 105.449618285 0.091910700 186 255 20
5.700926864 105.353788133 0.081864108 171 255 27
5.704476120 105.258648249 0.067444625 149 255 36
5.707940364 105.163467689 0.053260617 131 255 44
5.709378519 105.067399800 0.044668621 120 255 49
5.708037728 104.970118766 0.043746307 120 255 49
5.707630447 104.873244413 0.040248892 113 255 52
5.709724775 104.777457930 0.029848990 98 255 59
5.713339068 104.682329733 0.015255469 80 255 67
5.715295477 104.586477874 0.005237991 66 255 73
5.712111457 104.488393023 0.009407262 73 255 70
5.704942794 104.388582159 0.024573916 91 255 62
5.696547394 104.288244509 0.043127166 116 255 51
5.688605323 104.188108605 0.060430588 142 255 40
5.683687297 104.089285555 0.069389712 153 255 35
5.683976330 103.992715046 0.063979879 146 255 38
5.688147005 103.897819002 0.047858676 124 255 48
5.692017656 103.802789539 0.032566326 102 255 57
5.692618724 103.706347433 0.026298157 95 255 60
5.689592571 103.608342453 0.030041311 102 255 57
5.683660984 103.509089209 0.041803962 116 255 51
5.675787430 103.409005075 0.058927236 138 255 41
5.672085160 103.310717118 0.064539680 146 255 38
5.662701225 103.209993762 0.085833734 175 255 25
5.657336744 103.110999481 0.096035906 189 255 19
5.658564949 103.014831611 0.088044228 178 255 24
5.666294991 102.921443747 0.062109141 142 255 40
5.675001156 102.828466408 0.033480809 106 255 56
5.674845963 102.731697040 0.029309834 98 255 59
5.668376401 102.632232581 0.042567081 116 255 51
5.662088157 102.532849508 0.055325069 135 255 43
5.658067650 102.434436306 0.061825354 142 255 40
5.658299219 102.337834841 0.056591108 135 255 43
5.663970686 102.243545289 0.036343777 109 255 54
5.671344920 102.149973906 0.011397617 76 255 68
5.674534043 102.054619827 -0.001996783 58 255 76
5.671006986 101.956414567 0.003146595 62 255 75
5.665336025 101.857302877 0.014208332 80 255 67
5.663991567 101.760025966 0.013329802 76 255 68
5.666301315 101.664294579 0.002366405 62 255 75
5.668198888 101.568386442 -0.007458433 51 255 80
5.668999736 101.472013056 -0.014255264 40 255 84
5.665828057 101.373962803 -0.010086481 47 255 81
5.656512599 101.273325326 0.011041035 73 255 70
5.646548488 101.172421034 0.033960183 106 255 56
5.640128845 101.073014326 0.047097295 124 255 48
5.637437188 100.975178269 0.049945674 127 255 46
5.636413608 100.878043759 0.048190903 124 255 48
5.635775779 100.781071000 0.045372394 120 255 49
5.636317041 100.684592027 0.039300340 113 255 52
5.637888475 100.588543140 0.030385739 102 255 57
5.638831649 100.492229403 0.023206234 91 255 62
5.636064429 100.394363388 0.026269357 95 255 60
5.629931579 100.295093296 0.038623625 113 255 52
5.626987695 100.197157408 0.042176575 116 255 51
5.629439673 100.101471909 0.030836357 102 255 57
5.633130365 100.006299525 0.016077811 80 255 67
5.635407848 99.910535550 0.005221076 66 255 73
5.636068195 99.814096835 -0.001170874 58 255 76
5.637180824 99.717844604 -0.008810319 47 255 81
5.638846763 99.621820254 -0.017976150 36 255 86
5.637524736 99.524555256 -0.018893078 33 255 88
5.634729794 99.426680455 -0.015743134 36 255 86
5.633469647 99.329441970 -0.016828803 36 255 86
5.632505648 99.232326031 -0.018730943 33 255 88
5.628014180 99.133753196 -0.010894661 44 255 83
5.619602294 99.033565366 0.007764921 69 255 72
5.611976131 98.933707011 0.024256760 91 255 62
5.607372308 98.835098367 0.032406658 102 255 57
5.604881532 98.737361840 0.034724592 106 255 56
5.603086938 98.639912568 0.035121760 106 255 56
5.605520523 98.544200347 0.023847924 91 255 62
5.611362676 98.449884041 0.003165479 66 255 73
5.613930056 98.354220000 -0.008475914 47 255 81
5.611772867 98.256618193 -0.007073838 51 255 80
5.607631005 98.158205119 -0.000191826 58 255 76
5.602877813 98.059544466 0.008378938 69 255 72
5.597814369 97.960759896 0.017807319 84 255 65
5.594013932 97.862493705 0.023750131 91 255 62
5.594784751 97.766093062 0.017074396 84 255 65
5.600415801 97.671670433 -0.003017851 55 255 78
5.602937453 97.575977504 -0.014525209 40 255 84
5.598149107 97.477310251 -0.005850965 51 255 80
5.587470541 97.376253644 0.019085597 84 255 65
5.582193553 97.277396018 0.029111191 98 255 59
5.574653602 97.177624263 0.045385382 120 255 49
5.575560097 97.081278103 0.038342225 113 255 52
5.572192061 96.983200941 0.043101024 116 255 51
5.579508904 96.889444578 0.018362291 84 255 65
5.583118564 96.794184704 0.003859119 66 255 73
5.582117246 96.697060912 0.002086874 62 255 75
5.578794148 96.599001200 0.006725682 69 255 72
5.576388584 96.501312686 0.008832416 73 255 70
5.575403434 96.404196637 0.007018656 69 255 72
5.572574244 96.306339332 0.010297071 73 255 70
5.577928751 96.211769555 -0.009017663 47 255 81
5.577172954 96.114743588 -0.011461638 44 255 83
5.578468945 96.018539713 -0.019569400 33 255 88
5.577324294 95.921356771 -0.020937776 33 255 88
5.571816247 95.822428392 -0.010258045 44 255 83
5.566715867 95.723666315 -0.000702714 58 255 76
5.565892710 95.626615059 -0.002955516 55 255 78
5.565385614 95.529689681 -0.006079941 51 255 80
5.559916604 95.430786524 0.004496478 66 255 73
5.555643444 95.332362811 0.011772295 76 255 68
5.554504393 95.235188105 0.010395872 73 255 70
5.554131320 95.138317817 0.006905585 69 255 72
5.553730658 95.041436042 0.003492480 66 255 73
5.555265392 94.945321330 -0.005263380 51 255 80
5.558286568 94.849793584 -0.018122475 36 255 86
5.559268550 94.753455529 -0.025350248 25 255 91
5.555990174 94.655431125 -0.020813725 33 255 88
5.549778064 94.556249359 -0.008175700 47 255 81
5.544202170 94.457322621 0.002706818 62 255 75
5.542015438 94.359735705 0.004232494 66 255 73
5.543583305 94.263628691 -0.004607854 55 255 78
5.547591211 94.168479942 -0.020184642 33 255 88
5.551292474 94.073206760 -0.034913846 11 255 97
5.549978690 93.975960092 -0.035794548 11 255 97
5.542523852 93.876303822 -0.019717373 33 255 88
5.535959356 93.777001456 -0.006097432 51 255 80
5.534189723 93.679581158 -0.005716144 51 255 80
5.536102968 93.583602367 -0.015503228 40 255 84
5.537420283 93.487388366 -0.023643834 29 255 89
5.534327423 93.389450370 -0.019605668 33 255 88
5.528907198 93.290605969 -0.009139834 47 255 81
5.525663843 93.192613296 -0.004683892 55 255 78
5.525763483 93.095923899 -0.009458008 47 255 81
5.524544765 92.998720804 -0.010590670 44 255 83
5.520843860 92.900553262 -0.004868061 55 255 78
5.516371669 92.802088304 0.002985472 62 255 75
5.512542158 92.703875197 0.009065438 73 255 70
5.510277795 92.606270614 0.010824496 73 255 70
5.508407246 92.508819379 0.011497130 76 255 68
5.506366779 92.411303054 0.012640038 76 255 68
5.511443884 92.316537043 -0.005870853 51 255 80
5.522221238 92.223966226 -0.040121955 4 255 100
5.227099788 72.189070207 -0.127615052 0 239 195
5.217545705 72.089352662 -0.105478637 0 243 171
5.206053605 71.989047456 -0.077983420 0 248 141
5.199841785 71.890367140 -0.065083849 0 251 126
5.195642358 71.792306247 -0.057746232 0 252 117
5.191835247 71.694367623 -0.051492006 0 253 111
5.189438000 71.596861240 -0.049134178 0 254 108
5.189629215 71.500144585 -0.053931035 0 253 114
5.192791190 71.404331031 -0.066939555 0 250 129
5.197426085 71.308961949 -0.084019045 0 247 147
5.200302047 71.213054654 -0.096235001 0 245 162
5.197829892 71.115523063 -0.093664867 0 245 159
5.189081896 71.016092406 -0.073743665 0 249 135
5.184822748 70.918025069 -0.066230952 0 251 126
5.179262613 70.819567298 -0.055120386 0 253 114
5.177534814 70.722268962 -0.054603529 0 253 114
5.180883852 70.626500580 -0.068121115 0 250 129
5.178439870 70.528985932 -0.065622175 0 251 126
5.185301222 70.434268522 -0.088848111 0 246 153
5.188713111 70.338509904 -0.102536602 0 244 168
5.185468444 70.240752779 -0.097820932 0 245 162
5.185480825 70.143972339 -0.102108860 0 244 168
5.176084527 70.044378291 -0.080383536 0 248 144
5.171448769 69.946212050 -0.071818466 0 250 132
5.171685190 69.849501455 -0.076722504 0 249 138
5.172042769 69.752825997 -0.081960483 0 248 144
5.169588357 69.655313115 -0.079422952 0 248 141
5.164933723 69.557147758 -0.070801196 0 250 132
5.160799599 69.459139609 -0.063617373 0 251 123
5.157789596 69.361466915 -0.059540369 0 252 120
5.156115576 69.264191081 -0.059155994 0 252 120
5.156994692 69.167670279 -0.065829525 0 251 126
5.158855318 69.071437727 -0.075215769 0 249 138
5.159310280 68.974788653 -0.080714563 0 248 144
5.158870539 68.877875082 -0.083738591 0 247 147
5.158803408 68.781070628 -0.087791794 0 247 150
5.157998649 68.684048880 -0.089804489 0 246 153
5.155565477 68.586549472 -0.087313699 0 247 150
5.152412338 68.488840310 -0.082831145 0 247 147
5.149735197 68.391272007 -0.079663569 0 248 141
5.148265316 68.294057613 -0.079832906 0 248 141
5.148068085 68.197214822 -0.083520004 0 247 147
5.149883220 68.100957676 -0.092770221 0 246 156
5.155303546 68.005747297 -0.111987804 0 242 177
5.163016379 67.911198139 -0.137543315 0 237 207
5.164977183 67.814973187 -0.147193482 0 235 219
5.154637101 67.715181160 -0.122830197 0 240 189
5.143206101 67.615080531 -0.095449132 0 245 159
5.135775562 67.516144149 -0.079128261 0 248 141
5.130963468 67.417968507 -0.070046365 0 250 132
5.125904382 67.319724574 -0.060280335 0 252 120
5.119846959 67.221196325 -0.047752610 0 254 105
5.114712873 67.122937408 -0.037776820 7 255 99
5.110395518 67.024916154 -0.030058222 18 255 94
5.107222159 66.927225472 -0.025501788 25 255 91
5.105612820 66.829984330 -0.025269003 25 255 91
5.104759279 66.732959802 -0.027125054 22 255 92
5.103086739 66.635701253 -0.026715346 22 255 92
5.099924222 66.538018247 -0.022184450 29 255 89
5.098049199 66.440703622 -0.021212635 29 255 89
5.101852778 66.345004985 -0.035942419 11 255 97
5.108722030 66.250173565 -0.059148632 0 252 120
5.111810213 66.154263472 -0.071898329 0 250 132
5.107806095 66.056340925 -0.065034868 0 251 126
5.097293393 65.956579197 -0.040172096 4 255 100
5.083415516 65.855873908 -0.006002237 51 255 80
5.081260161 65.758486159 -0.004247510 55 255 78
5.079237377 65.661136652 -0.002858286 55 255 78
5.083491248 65.565554199 -0.018825119 33 255 88
5.080546184 65.467944680 -0.014883345 40 255 84
5.082783134 65.371790928 -0.025270680 25 255 91
5.088111624 65.276501137 -0.044206360 0 255 102
5.082098573 65.178032286 -0.031777165 15 255 96
5.079404327 65.080494853 -0.028524655 22 255 92
5.081434613 64.984277395 -0.038336414 7 255 99
5.084113267 64.888238345 -0.049940218 0 254 108
5.082854502 64.791100512 -0.050654265 0 253 111
5.078418325 64.693079661 -0.042580174 0 255 102
5.074831372 64.595297169 -0.036853435 11 255 97
5.072841791 64.497959454 -0.035543096 11 255 97
5.069746853 64.400316509 -0.031174768 18 255 94
5.069287793 64.303403831 -0.034094922 15 255 96
5.070780765 64.207029619 -0.042412459 4 255 100
5.071613937 64.110471615 -0.048904274 0 254 108
5.072570250 64.013946116 -0.055735625 0 253 114
5.074097675 63.917576132 -0.064145420 0 251 126
5.075057004 63.821048262 -0.070983086 0 250 132
5.072713626 63.723613463 -0.068685712 0 250 129
5.067586927 63.625417707 -0.058689585 0 252 120
5.063541482 63.527520707 -0.051682636 0 253 111
5.061498825 63.430172807 -0.050213560 0 254 108
5.061054540 63.333261460 -0.053163956 0 253 114
5.061053034 63.236470235 -0.057337884 0 252 117
5.060683581 63.139578223 -0.060493138 0 252 120
5.059268270 63.042401806 -0.060754788 0 252 120
5.056980912 62.944989303 -0.058603508 0 252 120
5.056834720 62.848157431 -0.062373038 0 251 123
5.061361928 62.752588282 -0.079067008 0 248 141
5.066226904 62.657106099 -0.096694251 0 245 162
5.066029182 62.560254696 -0.100318245 0 244 165
5.060094319 62.461858323 -0.088073405 0 246 153
5.053115787 62.363185180 -0.072940759 0 249 135
5.049685575 62.265469058 -0.067620912 0 250 129
5.049686744 62.168674550 -0.071790583 0 250 132
5.049858023 62.071924814 -0.076429707 0 249 138
5.047993118 61.974629962 -0.075435970 0 249 138
5.042869756 61.876466107 -0.065428621 0 251 126
5.033889711 61.777277545 -0.044752887 0 255 102
5.022352388 61.677414509 -0.017002652 36 255 86
5.012116335 61.577905339 0.007149737 69 255 72
5.008128006 61.480061177 0.014022630 80 255 67
5.010095581 61.383797539 0.004422922 66 255 73
5.012528201 61.287654694 -0.006462091 51 255 80
5.012147520 61.190765894 -0.009564587 47 255 81
5.010423422 61.093522178 -0.008950138 47 255 81
5.012408605 60.997256267 -0.018594503 33 255 88
5.018329464 60.902023471 -0.039124050 7 255 99
5.023655787 60.806629214 -0.058008204 0 252 117
5.025176248 60.710231801 -0.066364250 0 251 126
5.020655116 60.612249982 -0.058007846 0 252 117
5.013531051 60.513590060 -0.042450345 0 255 102
5.009527876 60.415749900 -0.035524272 11 255 97
5.009305223 60.318897950 -0.039054373 7 255 99
5.010092746 60.222308467 -0.045377687 0 254 105
5.008748235 60.125163249 -0.045802482 0 254 105
5.002956556 60.026863633 -0.033924657 15 255 96
4.993550903 59.927630727 -0.012048774 44 255 83
4.984451388 59.828483501 0.008981587 73 255 70
4.986025335 59.732101508 0.000488407 62 255 75
4.981208063 59.634067896 0.009675660 73 255 70
4.978497667 59.536580216 0.013036013 76 255 68
4.979025321 59.439927161 0.007440287 69 255 72
4.981102686 59.343671173 -0.002441288 55 255 78
4.982180682 59.247156418 -0.009557357 47 255 81
4.982072742 59.150336241 -0.013391780 40 255 84
4.982849769 59.053741785 -0.019673226 33 255 88
4.983711637 58.957167651 -0.026188337 25 255 91
4.981169779 58.859723953 -0.023286639 29 255 89
4.977533021 58.762002595 -0.017354962 36 255 86
4.977131449 58.665105950 -0.020371776 33 255 88
4.978794138 58.568732999 -0.029098017 18 255 94
4.975884434 58.471198777 -0.025174306 25 255 91
4.972303522 58.373496107 -0.019392644 33 255 88
4.967331819 58.275443870 -0.009762346 47 255 81
4.961268977 58.177119286 0.002887689 62 255 75
4.957728419 58.079434203 0.008561221 73 255 70
4.959906751 57.983190064 -0.001585083 58 255 76
4.965503830 57.887802431 -0.021188216 29 255 89
4.969053254 57.791896098 -0.035125674 11 255 97
4.969951232 57.695322175 -0.041726995 4 255 100
4.968519556 57.598164178 -0.041882304 4 255 100
4.965648326 57.500647045 -0.038053975 7 255 99
4.964873033 57.403653930 -0.040022981 4 255 100
4.967239046 57.307442676 -0.050681468 0 253 111
4.968959952 57.211068507 -0.059554243 0 252 120
4.966461889 57.113645186 -0.056753948 0 252 117
4.955390199 57.014098451 -0.030232880 18 255 94
4.942921921 56.914213873 0.000153347 58 255 76
4.938145694 56.816238300 0.009260061 73 255 70
4.941529450 56.720278334 -0.004207653 55 255 78
4.948183104 56.625120324 -0.026721036 22 255 92
4.951984134 56.529255036 -0.041341330 4 255 100
4.951106438 56.432237411 -0.043016206 0 255 102
4.948014830 56.334677007 -0.038564812 7 255 99
4.944286147 56.236962289 -0.032349692 15 255 96
4.941484976 56.139476315 -0.028699567 22 255 92
4.941562288 56.042694029 -0.033012276 15 255 96
4.943461411 55.946354725 -0.042364406 4 255 100
4.941270855 55.849018527 -0.040400417 4 255 100
4.931922085 55.749944965 -0.018630218 33 255 88
4.923500002 55.651102471 0.000577356 62 255 75
4.921153273 55.553736339 0.002976977 62 255 75
4.922904388 55.457361659 -0.005960225 51 255 80
4.922531939 55.360472452 -0.009020901 47 255 81
4.917184495 55.262384161 0.001684470 62 255 75
4.909347169 55.163700270 0.019280173 87 255 64
4.901326394 55.064977555 0.037384724 109 255 54
4.893584652 54.966327121 0.054718504 135 255 43
4.887168643 54.867999227 0.068385399 153 255 35
4.885104286 54.770715603 0.070012919 153 255 35
4.887717887 54.674549130 0.058698029 138 255 41
4.895314274 54.579567075 0.033597089 106 255 56
4.904866353 54.485043668 0.003085701 62 255 75
4.910321995 54.389539348 -0.016090227 36 255 86
4.910103196 54.292684651 -0.019564220 33 255 88
4.908250343 54.195442544 -0.018515746 33 255 88
4.908128880 54.098610303 -0.022256924 29 255 89
4.907964275 54.001767221 -0.025877670 25 255 91
4.904470061 53.904139122 -0.020284228 33 255 88
4.897093152 53.805599736 -0.003946051 55 255 78
4.888903483 53.706874384 0.014642342 80 255 67
4.881740583 53.608395245 0.030390875 102 255 57
4.883692033 53.512054058 0.020920479 87 255 64
4.880012044 53.414394728 0.027033837 95 255 60
4.878609371 53.317268726 0.026846762 95 255 60
4.876371860 53.219948605 0.028970882 98 255 59
4.872974459 53.122359737 0.034305704 106 255 56
4.871303757 53.025173551 0.034863628 106 255 56
4.872408451 52.928631115 0.027742668 98 255 59
4.873941516 52.832186198 0.019437353 87 255 64
4.874076996 52.735416519 0.015000446 80 255 67
4.873616780 52.638508608 0.012213004 76 255 68
4.873778936 52.541743586 0.007704391 69 255 72
4.871997041 52.444530847 0.008576481 73 255 70
4.863297324 52.345731297 0.028593038 98 255 59
4.850476329 52.245993515 0.060015564 142 255 40
4.845733163 52.148112207 0.069085892 153 255 35
4.544613430 32.244042238 0.094340329 186 255 20
4.539917585 32.146503487 0.103516905 200 255 14
4.528054438 32.047895505 0.132549147 233 253 0
4.518666358 31.949665112 0.154726462 237 246 0
4.515859749 31.852420555 0.158673299 237 245 0
4.516744248 31.755725262 0.152396230 236 246 0
4.517258783 31.658973767 0.147145084 235 248 0
4.515774009 31.561925895 0.147433510 235 248 0
4.513079386 31.464700215 0.151074608 236 246 0
4.510548614 31.367499912 0.154262951 237 246 0
4.508702663 31.270401129 0.155555306 237 246 0
4.508449718 31.173535798 0.152435730 236 246 0
4.510836636 31.077054674 0.142004070 234 250 0
4.510680928 30.980201347 0.138617247 234 251 0
4.505482231 30.882616213 0.149202145 236 247 0
4.498929914 30.784838562 0.163538229 238 243 0
4.496388829 30.687643679 0.166763101 239 241 0
4.500433454 30.591397276 0.151744382 236 246 0
4.506356292 30.495416468 0.131523291 233 254 0
4.508337472 30.398866420 0.122222999 226 255 3
4.505618705 30.301643455 0.125944425 229 255 1
4.501501313 30.204222777 0.133541763 233 253 0
4.498437556 30.106954033 0.138221277 234 251 0
4.495702854 30.009733455 0.141990324 234 250 0
4.490761515 29.912202720 0.151873895 236 246 0
4.491866405 29.815526198 0.145007832 235 249 0
4.486594922 29.717952850 0.155808396 237 246 0
4.486515270 29.621109714 0.152226269 236 246 0
4.491281937 29.524942585 0.135218482 233 252 0
4.489627281 29.427876888 0.136002018 233 252 0
4.492933898 29.331500659 0.123041318 226 255 3
4.491705260 29.234493082 0.122646726 226 255 3
4.494429810 29.138031633 0.111300707 211 255 9
4.486964508 29.040164003 0.128187404 232 255 0
4.479960378 28.942364666 0.143797666 235 249 0
4.475449537 28.844911399 0.152501293 236 246 0
4.474621281 28.747963765 0.151003100 236 246 0
4.476186223 28.651341938 0.142875347 235 249 0
4.476844548 28.554595032 0.137260540 234 251 0
4.475326559 28.457552143 0.137676602 234 251 0
4.472596700 28.360346007 0.141451468 234 250 0
4.469246851 28.263057716 0.146945283 235 248 0
4.468587141 28.166132455 0.144986710 235 249 0
4.470002654 28.069484802 0.137279392 234 251 0
4.471006551 27.972780355 0.130713584 233 254 0
4.471192420 27.875965482 0.126415365 229 255 1
4.470563191 27.779041509 0.124376653 229 255 1
4.467549191 27.681801605 0.128946670 232 255 0
4.462908556 27.584348568 0.138024890 234 251 0
4.457869120 27.486845844 0.148209309 236 247 0
4.454826820 27.389608275 0.152861267 236 246 0
4.455760698 27.292892493 0.146497114 235 248 0
4.458771737 27.196446206 0.134378549 233 253 0
4.460312541 27.099805630 0.126334774 229 255 1
4.460179738 27.002946076 0.122929363 226 255 3
4.460031619 26.906083886 0.119567471 222 255 4
4.459598360 26.809184294 0.116996751 218 255 6
4.457582550 26.712080860 0.118812211 222 255 4
4.454471386 26.614837837 0.123663939 226 255 3
4.451737061 26.517644589 0.127472632 232 255 0
4.449715090 26.420543422 0.129308587 233 254 0
4.448700253 26.323570959 0.128354952 232 255 0
4.448677490 26.226724136 0.124653411 229 255 1
4.448819285 26.129897348 0.120496961 222 255 4
4.448249242 26.032980103 0.118314087 218 255 6
4.446204102 25.935877449 0.120219817 222 255 4
4.443212543 25.838657211 0.124749230 229 255 1
4.441755488 25.741629876 0.125027632 229 255 1
4.442772052 25.644910439 0.118452623 218 255 6
4.444406255 25.548266021 0.110167145 207 255 11
4.442809905 25.451220418 0.110834821 211 255 9
4.436947697 25.353649811 0.123324711 226 255 3
4.430201457 25.255974375 0.138265587 234 251 0
4.425330840 25.158532950 0.148010147 236 247 0
4.424749628 25.061617941 0.145869398 235 248 0
4.428354876 24.965211900 0.132128440 233 253 0
4.432392209 24.868854741 0.117191083 218 255 6
4.436022874 24.772444574 0.103381646 200 255 14
4.438869445 24.675936386 0.091746056 186 255 20
4.438892540 24.579086109 0.087935894 178 255 24
4.434954452 24.481760760 0.095104107 189 255 19
4.429841341 24.384297424 0.105529763 204 255 12
4.425832012 24.286968561 0.112897791 211 255 9
4.422047378 24.189668655 0.119644321 222 255 4
4.414986068 24.091983567 0.135472590 233 252 0
4.404972278 23.993955257 0.159484296 238 244 0
4.395778947 23.896030208 0.181223619 241 236 0
4.390006715 23.798511902 0.193483336 243 233 0
4.388719381 23.701520530 0.193315172 243 233 0
4.391054684 23.604950668 0.183108559 242 235 0
4.395903549 23.508669606 0.165936993 238 242 0
4.401471321 23.412467128 0.146774013 235 248 0
4.406582859 23.316207096 0.128876360 232 255 0
4.410223996 23.219773649 0.115054709 215 255 8
4.411153800 23.123026539 0.108748246 207 255 11
4.408708482 23.025893209 0.111796728 211 255 9
4.405688475 22.928695700 0.116439070 218 255 6
4.405085679 22.831773445 0.114383394 215 255 8
4.405446136 22.734959594 0.109659193 207 255 11
4.403275765 22.637860079 0.111950193 211 255 9
4.397881718 22.540400150 0.123176721 226 255 3
4.393922072 22.443103813 0.130429028 233 254 0
4.392335943 22.346073960 0.131104275 233 254 0
4.397822088 22.249829117 0.112179608 211 255 9
4.394565954 22.152612846 0.117485498 218 255 6
4.390553923 22.055315032 0.124887573 229 255 1
4.389681922 21.958364261 0.123588010 226 255 3
4.392142524 21.861777995 0.113052952 211 255 9
4.394045240 21.765128265 0.104065142 200 255 14
4.392063843 21.668054359 0.105843626 204 255 12
4.387107613 21.570659170 0.115868372 218 255 6
4.383602538 21.473423556 0.121872252 226 255 3
4.381500791 21.376340707 0.123987767 229 255 1
4.378603574 21.279173508 0.128309198 232 255 0
4.375131897 21.181946458 0.134224010 233 253 0
4.371569669 21.084711678 0.140390974 234 250 0
4.366916280 20.987363247 0.149583499 236 247 0
4.362252244 20.890016495 0.158806743 238 244 0
4.358872659 20.792807668 0.164471031 238 242 0
4.356850819 20.695742973 0.166373159 238 242 0
4.355328827 20.598731263 0.166890964 239 241 0
4.354342624 20.501775705 0.165924799 238 242 0
4.355400194 20.405032001 0.159294828 238 244 0
4.358098284 20.308456158 0.148118704 236 247 0
4.360852155 20.211883229 0.136788970 233 252 0
4.360986768 20.115038923 0.132720389 233 253 0
4.355885937 20.017659057 0.143164736 235 249 0
4.349092859 19.920110154 0.158300977 237 245 0
4.344449672 19.822783614 0.167479252 239 241 0
4.344980889 19.725982389 0.162315869 238 243 0
4.349932809 19.629624714 0.144899791 235 249 0
4.351761340 19.532949474 0.136142431 233 252 0
4.346813456 19.435595560 0.146169848 235 248 0
4.341268836 19.338185329 0.157852596 237 245 0
4.342081577 19.241408390 0.151914247 236 246 0
4.346016677 19.144938198 0.137321868 234 251 0
4.348401030 19.048311791 0.127029108 232 255 0
4.348403473 18.951449561 0.123340014 226 255 3
4.346610685 18.854411469 0.124628402 229 255 1
4.344479798 18.757341140 0.126855138 232 255 0
4.342907317 18.660325719 0.127535091 232 255 0
4.339616122 18.563145077 0.132980529 233 253 0
4.333628376 18.465707311 0.145902161 235 248 0
4.329140255 18.368416766 0.154667955 237 246 0
4.329847454 18.271623695 0.149033037 236 247 0
4.335710549 18.175318390 0.129106486 232 255 0
4.342915800 18.079134634 0.105460236 204 255 12
4.347458140 17.982694043 0.089196817 182 255 22
4.347713740 17.885847510 0.084817836 175 255 25
4.344087428 17.788637739 0.091201217 182 255 22
4.338062562 17.691207056 0.104234990 200 255 14
4.332406246 17.593814338 0.116248318 218 255 6
4.330972470 17.496814407 0.116557145 218 255 6
4.331988668 17.400039704 0.110075235 207 255 11
4.329428386 17.302936532 0.113509202 215 255 8
4.321897061 17.205382054 0.130725267 233 254 0
4.311981389 17.107616452 0.154552643 237 246 0
4.303419651 17.009979889 0.174627897 240 239 0
4.297940188 16.912626153 0.186159522 242 234 0
4.294509534 16.815459211 0.192012470 243 233 0
4.292671133 16.718436025 0.193452367 243 233 0
4.293148437 16.621618957 0.188473510 242 234 0
4.295382325 16.524955952 0.178625870 241 237 0
4.298479928 16.428366449 0.166384728 238 242 0
4.299856023 16.331623039 0.158917238 238 244 0
4.298348854 16.234626394 0.159444293 238 244 0
4.295168062 16.137484842 0.164612418 238 242 0
4.292420872 16.040382441 0.168579587 239 241 0
4.292429938 15.943518558 0.164906410 238 242 0
4.295223325 15.846892429 0.153514964 237 246 0
4.298046368 15.750265927 0.142042302 234 250 0
4.299166503 15.653491920 0.135291896 233 252 0
4.299459045 15.556646345 0.130837023 233 254 0
4.298863502 15.459725062 0.128845430 232 255 0
4.295404532 15.362563652 0.134793796 233 252 0
4.297928659 15.265902937 0.124155100 229 255 1
4.294466323 15.168742727 0.130115070 233 254 0
4.295437201 15.071950606 0.123784933 226 255 3
4.294261441 14.974980478 0.123407532 226 255 3
4.301625683 14.878709385 0.099353473 193 255 17
4.303636107 14.781995791 0.090144214 182 255 22
4.298630424 14.684711082 0.100388837 197 255 16
4.300953065 14.588020760 0.090316070 182 255 22
4.298240089 14.490923502 0.094206209 186 255 20
4.296261204 14.393886229 0.096062134 189 255 19
4.292979162 14.296746053 0.101532400 197 255 16
4.289016993 14.199553789 0.108889601 207 255 11
4.285755913 14.102419023 0.114304097 215 255 8
4.285335487 14.005508674 0.111843500 211 255 9
4.287528061 13.908801718 0.102138906 197 255 16
4.289246337 13.812055500 0.093750434 186 255 20
4.289910280 13.715225762 0.088286382 178 255 24
4.291904574 13.618497001 0.079134664 167 255 28
4.287753713 13.521295986 0.087023036 178 255 24
4.289969457 13.424581844 0.077259429 164 255 30
4.288907333 13.327617069 0.076585683 164 255 30
4.288844672 13.230727630 0.073141733 160 255 32
4.283892685 13.133471044 0.083256078 171 255 27
4.282313197 13.036468946 0.084020270 175 255 25
4.283950128 12.939705882 0.075866958 164 255 30
4.285219332 12.842913661 0.068734337 153 255 35
4.281804296 12.745775820 0.074591564 160 255 32
4.276197569 12.648479769 0.086527276 178 255 24
4.274552010 12.551475014 0.087480301 178 255 24
4.282205076 12.455142708 0.062650176 146 255 38
4.309320950 12.360202777 -0.016148018 36 255 86
4.343893364 12.265774436 -0.115622410 0 241 183
4.351235978 12.169382402 -0.139589678 0 237 210
4.053409471 -7.809646027 -0.032748227 15 255 96
4.047845915 -7.906563410 -0.020683215 33 255 88
4.034693759 -8.003411937 0.012447306 76 255 68
4.028388027 -8.100312760 0.026575018 95 255 60
4.027131241 -8.197256894 0.026689095 95 255 60
4.027260305 -8.294214379 0.022957418 91 255 62
4.026482481 -8.391163543 0.021744192 87 255 64
4.023574028 -8.488090452 0.026446373 95 255 60
4.019130038 -8.584999151 0.035412148 109 255 54
4.014911241 -8.681907768 0.043754025 120 255 49
4.012648370 -8.778836783 0.046667670 124 255 48
4.010459988 -8.875765744 0.049375685 127 255 46
4.009878250 -8.972713813 0.047624940 124 255 48
4.015577124 -9.069742826 0.028440773 98 255 59
4.025556024 -9.166833570 -0.002623560 55 255 78
4.033957418 -9.263911297 -0.029307996 18 255 94
4.037296729 -9.360925460 -0.041939394 4 255 100
4.035471756 -9.457868764 -0.040233844 4 255 100
4.031606047 -9.554781345 -0.032862084 15 255 96
4.029578471 -9.651719567 -0.030591809 18 255 94
4.031028239 -9.748710985 -0.037973578 7 255 99
4.033432249 -9.845719476 -0.048003311 0 254 108
4.033524054 -9.942692937 -0.051613229 0 253 111
4.030874316 -10.039621547 -0.047611371 0 254 105
4.027610887 -10.136538443 -0.041904706 4 255 100
4.026029513 -10.233482951 -0.040866401 4 255 100
4.025206077 -10.330440538 -0.041931084 4 255 100
4.019587797 -10.427310984 -0.029683615 18 255 94
4.006796175 -10.524044554 0.002479220 62 255 75
4.004568238 -10.620969520 0.005317180 66 255 73
4.005495226 -10.717954631 -0.000602283 58 255 76
4.011077018 -10.815033127 -0.019443214 33 255 88
4.009880212 -10.911980277 -0.019464579 33 255 88
4.009643697 -11.008946987 -0.022150783 29 255 89
4.010055418 -11.105927844 -0.026635537 22 255 92
4.011517550 -11.202932150 -0.034035394 15 255 96
4.012462226 -11.299927156 -0.039997624 4 255 100
4.011224533 -11.396875566 -0.039899993 4 255 100
4.013771378 -11.493908687 -0.050308122 0 254 108
4.010600196 -11.590814117 -0.044840399 0 255 102
4.009259405 -11.687760354 -0.044453210 0 255 102
4.008414447 -11.784718038 -0.045441481 0 254 105
4.004991671 -11.881614090 -0.039271802 7 255 99
4.003863367 -11.978564162 -0.039471163 7 255 99
4.006701923 -12.075612251 -0.050682782 0 253 111
4.007631860 -12.172615373 -0.056594383 0 252 117
4.004809519 -12.269524324 -0.052087203 0 253 111
3.998588814 -12.366343944 -0.038143691 7 255 99
3.990576514 -12.463112521 -0.019224743 33 255 88
3.982515401 -12.559874434 -0.000168967 58 255 76
3.977057326 -12.656701310 0.011660965 76 255 68
3.975693551 -12.753637032 0.012124548 76 255 68
3.978979368 -12.850701749 -0.000320128 58 255 76
3.984212428 -12.947824654 -0.018170261 36 255 86
3.986668814 -13.044873041 -0.028310072 22 255 92
3.985830620 -13.141828721 -0.029301483 18 255 94
3.982078526 -13.238699066 -0.022201320 29 255 89
3.976941399 -13.335526156 -0.011254397 44 255 83
3.975373203 -13.432457523 -0.010215514 47 255 81
3.980111642 -13.529580738 -0.026686180 22 255 92
3.986938523 -13.626772846 -0.048954579 0 254 108
3.989901082 -13.723850208 -0.060492499 0 252 120
3.985793834 -13.820706962 -0.052399465 0 253 111
3.976426909 -13.917392928 -0.029701207 18 255 94
3.967851942 -14.014098156 -0.009200577 47 255 81
3.964700406 -14.110975417 -0.003757485 55 255 78
3.967362514 -14.208043899 -0.014455639 40 255 84
3.972494055 -14.305198079 -0.032009549 15 255 96
3.975366375 -14.402280307 -0.043289401 0 255 102
3.973726658 -14.499210656 -0.042039749 4 255 100
3.971657949 -14.596125644 -0.039597790 7 255 99
3.971332690 -14.693101014 -0.041995745 4 255 100
3.972161740 -14.790117871 -0.047597806 0 254 105
3.972774245 -14.887128389 -0.052597517 0 253 111
3.971997089 -14.984089798 -0.053737418 0 253 114
3.970761351 -15.081034603 -0.053602840 0 253 114
3.970044615 -15.177998456 -0.054908299 0 253 114
3.969817416 -15.274980853 -0.057571997 0 252 117
3.969284142 -15.371952302 -0.059384696 0 252 120
3.967034424 -15.468858625 -0.056430043 0 252 117
3.962434512 -15.565673419 -0.046948152 0 254 105
3.958867733 -15.662525689 -0.040333906 4 255 100
3.958820786 -15.759514390 -0.043492554 0 255 102
3.960427352 -15.856569485 -0.051241711 0 253 111
3.960398499 -15.953561051 -0.054448459 0 253 114
3.958163047 -16.050464093 -0.051526618 0 253 111
3.956615558 -16.147394310 -0.050514047 0 253 111
3.956934567 -16.244401091 -0.054683477 0 253 114
3.957761943 -16.341430063 -0.060263536 0 252 120
3.959216339 -16.438486795 -0.067583742 0 250 129
3.961901372 -16.535597595 -0.078320339 0 248 141
3.964018737 -16.632686967 -0.087479523 0 247 150
3.963501103 -16.729665045 -0.089320306 0 246 153
3.961079620 -16.826560628 -0.085872989 0 247 150
3.958683971 -16.923456275 -0.082496268 0 248 144
3.957385513 -17.020399484 -0.082165334 0 248 144
3.957481556 -17.117404804 -0.085705877 0 247 150
3.958465610 -17.214451013 -0.091711400 0 246 156
3.957989254 -17.311432383 -0.093660197 0 245 159
3.956561022 -17.408370541 -0.092964458 0 246 156
3.956112347 -17.505353673 -0.094987925 0 245 159
3.955815342 -17.602344320 -0.097431503 0 245 162
3.954207613 -17.699273935 -0.096233942 0 245 162
3.950712719 -17.796113698 -0.089794330 0 246 153
3.945326166 -17.892861221 -0.078100110 0 248 141
3.938955755 -17.989558031 -0.063672325 0 251 123
3.934535210 -18.086345364 -0.054658415 0 253 114
3.939700313 -18.183598949 -0.072264520 0 249 135
3.952614263 -18.281239280 -0.111389845 0 242 177
3.959674979 -18.378599529 -0.134258707 0 238 204
3.956413580 -18.475449222 -0.128459729 0 239 198
3.945612486 -18.571916837 -0.101719971 0 244 168
3.934389607 -18.668355509 -0.073807430 0 249 135
3.928505948 -18.765059807 -0.060721992 0 252 120
3.924851688 -18.861875415 -0.053827001 0 253 114
3.919544325 -18.958603073 -0.042339659 4 255 100
3.915679026 -19.055402964 -0.034856161 11 255 97
3.903955196 -19.151786125 -0.005545743 51 255 80
3.900486946 -19.248599742 0.000837491 62 255 75
3.905740315 -19.345878267 -0.017001142 36 255 86
3.910579512 -19.443139293 -0.033688527 15 255 96
3.910661767 -19.540146582 -0.037163105 7 255 99
3.910468508 -19.637139663 -0.039871393 4 255 100
3.914665571 -19.734375100 -0.054772319 0 253 114
3.911665643 -19.831215552 -0.049683179 0 254 108
3.915183522 -19.928418341 -0.062695678 0 251 123
3.913733213 -20.025345372 -0.061908291 0 251 123
3.914243638 -20.122383043 -0.066565654 0 251 126
3.908279957 -20.219053028 -0.053240260 0 253 114
3.904043728 -20.315818312 -0.044711606 0 255 102
3.903836456 -20.412813783 -0.047372204 0 254 105
3.908561678 -20.510096604 -0.063731805 0 251 123
3.916846919 -20.607592152 -0.089978514 0 246 153
3.919654815 -20.704772261 -0.101010795 0 244 165
3.911468308 -20.801303565 -0.081504472 0 248 144
3.899418029 -20.897598844 -0.051264940 0 253 111
3.892158017 -20.994173308 -0.034329378 15 255 96
3.893850580 -21.091284015 -0.042259201 4 255 100
3.901354376 -21.188750235 -0.066329338 0 251 126
3.907774074 -21.286156664 -0.087387377 0 247 150
3.912240007 -21.383448494 -0.103017653 0 244 168
3.908954466 -21.480264198 -0.097116064 0 245 162
3.908344348 -21.577244991 -0.098644741 0 245 162
3.905230663 -21.674069042 -0.093218209 0 246 156
3.893426037 -21.770342913 -0.063649747 0 251 123
3.883067934 -21.866700370 -0.038097903 7 255 99
3.876026304 -21.963262551 -0.021756931 29 255 89
3.874210842 -22.060156020 -0.019931588 33 255 88
3.875297810 -22.157236550 -0.026167331 25 255 91
3.874274785 -22.254181471 -0.026540964 22 255 92
3.869498780 -22.350880859 -0.016488564 36 255 86
3.864402344 -22.447556283 -0.005544862 51 255 80
3.863224093 -22.544487946 -0.005483877 51 255 80
3.866106464 -22.641689844 -0.016701431 36 255 86
3.868525380 -22.738863717 -0.026630584 22 255 92
3.869278036 -22.835928025 -0.031930116 15 255 96
3.870638145 -22.933034848 -0.038916001 7 255 99
3.873000878 -23.030211803 -0.048685998 0 254 108
3.873080288 -23.127234962 -0.052112179 0 253 111
3.868214638 -23.223918348 -0.041800427 4 255 100
3.859669300 -23.320343909 -0.021265628 29 255 89
3.851777977 -23.416809251 -0.002546320 55 255 78
3.848528937 -23.513594448 0.003278322 66 255 73
3.848992614 -23.610639389 -0.001209601 58 255 76
3.849758150 -23.707706853 -0.006535010 51 255 80
3.851567336 -23.804849994 -0.014758591 40 255 84
3.854928490 -23.902106396 -0.027292491 22 255 92
3.857192835 -23.999287253 -0.036778459 11 255 97
3.856273258 -24.096240319 -0.037418425 7 255 99
3.853173675 -24.193034935 -0.032001168 15 255 96
3.849074638 -24.289754894 -0.023806219 25 255 91
3.845987054 -24.386546833 -0.018419951 33 255 88
3.847308552 -24.483662923 -0.025281257 25 255 91
3.850428391 -24.580914369 -0.037137452 7 255 99
3.852093088 -24.678060388 -0.044950129 0 255 102
3.852079065 -24.775082527 -0.048098103 0 254 108
3.850174422 -24.871962873 -0.045992622 0 254 105
3.847734191 -24.968801953 -0.042398070 4 255 100
3.847136854 -25.065780349 -0.043922211 0 255 102
3.847470585 -25.162830368 -0.048031909 0 254 108
3.847366076 -25.259847717 -0.050923032 0 253 111
3.844985927 -25.356689795 -0.047490908 0 254 105
3.839413721 -25.453282757 -0.035189460 11 255 97
3.834008409 -25.549885267 -0.023350450 29 255 89
3.832907117 -25.646822229 -0.023467769 29 255 89
3.833816299 -25.743917708 -0.029169565 18 255 94
3.835096044 -25.841044051 -0.035899825 11 255 97
3.835844074 -25.938129827 -0.041151792 4 255 100
3.833837371 -26.034996528 -0.038749270 7 255 99
3.828150550 -26.131566571 -0.026121149 25 255 91
3.822610429 -26.228144892 -0.013899377 40 255 84
3.821311685 -26.325064052 -0.013460295 40 255 84
3.822381779 -26.422176215 -0.019601528 33 255 88
3.820931222 -26.519083440 -0.018738455 33 255 88
3.816553648 -26.615749366 -0.009741947 47 255 81
3.812738556 -26.712459250 -0.002307028 55 255 78
3.816893479 -26.809829288 -0.017014745 36 255 86
3.812479191 -26.906487940 -0.007912760 47 255 81
3.818837327 -27.004047440 -0.028739872 22 255 92
3.821164690 -27.101273027 -0.038366849 7 255 99
3.815982580 -27.197865634 -0.027128153 22 255 92
3.811921031 -27.294550324 -0.019001669 33 255 88
3.806541746 -27.391120150 -0.007212706 51 255 80
3.804367368 -27.487961579 -0.004327307 55 255 78
3.805279788 -27.585068130 -0.010017430 47 255 81
3.791774838 -27.680928263 0.024352330 91 255 62
3.768575451 -27.775935974 0.085659770 175 255 25
3.572735953 -47.842781985 0.000977313 62 255 75
3.573214846 -47.939968696 -0.003280979 55 255 78
3.575338791 -48.037431853 -0.012113624 44 255 83
3.578079379 -48.135000871 -0.022660342 29 255 89
3.578736807 -48.232222608 -0.027412091 22 255 92
3.577075498 -48.329054963 -0.025713563 25 255 91
3.574152060 -48.425673696 -0.020503481 33 255 88
3.572326850 -48.522476867 -0.018346846 33 255 88
3.572902822 -48.619686785 -0.022867724 29 255 89
3.574965903 -48.717150804 -0.031523805 18 255 94
3.577472094 -48.814692726 -0.041411350 4 255 100
3.579656911 -48.912182488 -0.050404014 0 254 108
3.580498973 -49.009444871 -0.055660871 0 253 114
3.578385696 -49.106201648 -0.052696527 0 253 111
3.572938329 -49.202384276 -0.040457381 4 255 100
3.567249291 -49.298521860 -0.027544817 22 255 92
3.566101390 -49.395440242 -0.027262208 22 255 92
3.569925927 -49.493219334 -0.040809401 4 255 100
3.573526539 -49.590963322 -0.053732776 0 253 114
3.572502653 -49.687906761 -0.053791958 0 253 114
3.569980512 -49.784589115 -0.049682574 0 254 108
3.571341856 -49.881948590 -0.056374223 0 252 117
3.579304891 -49.980465464 -0.081427968 0 248 144
3.588226120 -50.079157363 -0.109146163 0 243 174
3.589017661 -50.176427663 -0.114249943 0 242 180
3.580466253 -50.272053202 -0.093364162 0 246 156
3.569564655 -50.367257961 -0.065939727 0 251 126
3.561597026 -50.462974330 -0.046675195 0 254 105
3.558313019 -50.559516000 -0.040437623 4 255 100
3.558101851 -50.656602090 -0.042746530 0 255 102
3.557643302 -50.753644754 -0.044366226 0 255 102
3.554416006 -50.850193631 -0.038283032 7 255 99
3.548749495 -50.946304471 -0.025413492 25 255 91
3.544081309 -51.042590720 -0.015319803 40 255 84
3.542984630 -51.139515832 -0.015159923 40 255 84
3.546343117 -51.237243032 -0.027392110 22 255 92
3.552089811 -51.335404524 -0.046266752 0 254 105
3.554615225 -51.432988786 -0.056179597 0 252 117
3.553124262 -51.529848021 -0.054918723 0 253 114
3.550563241 -51.626512601 -0.050680056 0 253 111
3.549171710 -51.723388821 -0.049693561 0 254 108
3.549547300 -51.820587015 -0.053621799 0 253 114
3.550477584 -51.917887665 -0.059092056 0 252 120
3.549702279 -52.014877492 -0.059816566 0 252 120
3.546472074 -52.111417017 -0.053710779 0 253 114
3.541271405 -52.207592490 -0.042122241 4 255 100
3.537999921 -52.304120272 -0.035899294 11 255 97
3.541012116 -52.401806727 -0.047155830 0 254 105
3.547103584 -52.500066132 -0.066977680 0 250 129
3.552774241 -52.598252996 -0.085627960 0 247 150
3.553853572 -52.695591851 -0.091504489 0 246 156
3.547505803 -52.791549346 -0.076718065 0 249 138
3.536257075 -52.886588260 -0.048296056 0 254 108
3.528750065 -52.982318931 -0.030282109 18 255 94
3.533268665 -53.080297790 -0.045722180 0 254 105
3.543202779 -53.179297693 -0.076227355 0 249 138
3.550600620 -53.277828889 -0.099675742 0 244 165
3.550394214 -53.374933028 -0.101967926 0 244 168
3.544088500 -53.470885613 -0.087290427 0 247 150
3.536053856 -53.566506869 -0.067801693 0 250 129
3.530354954 -53.662565768 -0.054809912 0 253 114
3.530113737 -53.759658371 -0.057000720 0 252 117
3.535119649 -53.857750886 -0.073788538 0 249 135
3.541933197 -53.956193013 -0.095604496 0 245 159
3.546150876 -54.054144815 -0.110197509 0 242 177
3.546381915 -54.151336815 -0.113698149 0 242 180
3.542551533 -54.247750048 -0.105898201 0 243 171
3.537109949 -54.343851176 -0.093614447 0 245 159
3.534039940 -54.440406052 -0.087927655 0 247 150
3.534302520 -54.537603030 -0.091511652 0 246 156
3.536458112 -54.635167363 -0.100361359 0 244 165
3.540130125 -54.733028213 -0.113429091 0 242 180
3.544862424 -54.831098705 -0.129445831 0 239 198
3.548416447 -54.928944251 -0.142183369 0 236 213
3.548732443 -55.026161690 -0.145910884 0 236 216
3.547013466 -55.122982424 -0.143975479 0 236 213
3.544582689 -55.219663232 -0.140058531 0 237 210
3.540265693 -55.315972839 -0.130892419 0 239 198
3.534457382 -55.411986708 -0.117575815 0 241 186
3.531325194 -55.508524088 -0.111703860 0 242 177
3.531662582 -55.605744687 -0.115484329 0 241 183
3.533267967 -55.703217115 -0.122791768 0 240 189
3.533360649 -55.800391830 -0.125889284 0 239 195
3.529074285 -55.896698006 -0.116801544 0 241 183
3.528431726 -55.993726517 -0.117851152 0 241 186
3.525726390 -56.090344200 -0.113160187 0 242 180
3.528362767 -56.188027309 -0.123331010 0 240 192
3.530194720 -56.285552299 -0.131262582 0 238 201
3.528024552 -56.382277212 -0.128057432 0 239 195
3.522575029 -56.478342588 -0.115726468 0 241 183
3.517033712 -56.574386091 -0.103138888 0 244 168
3.515128234 -56.671159184 -0.100666795 0 244 165
3.516698589 -56.768633750 -0.107865115 0 243 174
3.519370018 -56.866333174 -0.118126174 0 241 186
3.521847673 -56.963996162 -0.127847063 0 239 195
3.522526832 -57.061296469 -0.132562564 0 238 201
3.520266667 -57.157999802 -0.129098182 0 239 198
3.515121948 -57.254113931 -0.117606202 0 241 186
3.508927597 -57.350010431 -0.103192337 0 244 168
3.505398368 -57.446448518 -0.096193212 0 245 162
3.505889695 -57.543709261 -0.100380581 0 244 165
3.508255039 -57.641356245 -0.109781588 0 242 177
3.511471662 -57.739181096 -0.121550396 0 240 189
3.514954497 -57.837064129 -0.134059010 0 238 204
3.517444128 -57.934745417 -0.143802900 0 236 213
3.520393312 -58.032524557 -0.154824587 0 234 225
3.524642628 -58.130576421 -0.169463159 0 231 243
3.528097149 -58.228467208 -0.181889103 0 229 255
3.526849613 -58.325382608 -0.181229590 0 229 255
3.516998391 -58.420503461 -0.156627250 0 234 228
3.502218956 -58.514587791 -0.118309639 0 241 186
3.492749853 -58.609773139 -0.094767941 0 245 159
3.489601859 -58.706277623 -0.088815126 0 246 153
3.490141665 -58.803555288 -0.093123516 0 246 156
3.492096478 -58.901132007 -0.101368537 0 244 165
3.493926801 -58.998684778 -0.109266119 0 243 174
3.494865364 -59.096051366 -0.114681085 0 242 180
3.495397396 -59.193333435 -0.118963707 0 241 186
3.495302057 -59.290483689 -0.121499406 0 240 189
3.491177385 -59.386778778 -0.112820970 0 242 180
3.484172504 -59.482458575 -0.096126104 0 245 162
3.478750473 -59.578471208 -0.083834891 0 247 147
3.474809270 -59.674796719 -0.075663477 0 249 138
3.472788447 -59.771530865 -0.072835157 0 249 135
3.474446534 -59.869052794 -0.080243867 0 248 144
3.479432795 -59.967291448 -0.096913675 0 245 162
3.483184371 -60.065269146 -0.110146489 0 242 177
3.481791327 -60.162141874 -0.109061032 0 243 174
3.475744267 -60.258009596 -0.095022447 0 245 159
3.468506476 -60.353615932 -0.077668846 0 248 141
3.463304699 -60.449658596 -0.065980242 0 251 126
3.461326306 -60.546397650 -0.063261187 0 251 123
3.461731306 -60.643654187 -0.067174085 0 250 129
3.465028129 -60.741541704 -0.079134016 0 248 141
3.471992774 -60.840232869 -0.101300746 0 244 165
3.480777423 -60.939328022 -0.128531808 0 239 198
3.485468990 -61.037534489 -0.144370646 0 236 216
3.484197362 -61.134437317 -0.143612388 0 236 213
3.479381382 -61.230561124 -0.132988712 0 238 201
3.474181789 -61.326597570 -0.121296209 0 240 189
3.471443740 -61.423173598 -0.116453330 0 241 183
3.469716315 -61.519971553 -0.114422047 0 242 180
3.468045073 -61.616781404 -0.112546029 0 242 180
3.467586633 -61.713859599 -0.114044354 0 242 180
3.469189973 -61.811396061 -0.121279942 0 240 189
3.471293847 -61.909045892 -0.129907607 0 239 198
3.472311457 -62.006456094 -0.135510963 0 238 204
3.468800012 -62.102856945 -0.128507882 0 239 198
3.461069736 -62.198312568 -0.109761619 0 242 177
3.454619818 -62.294049801 -0.094577662 0 245 159
3.449818303 -62.390152701 -0.083980434 0 247 147
3.445924081 -62.486456609 -0.075907279 0 249 138
3.444481116 -62.583310179 -0.074655540 0 249 138
3.445300905 -62.680673735 -0.079700660 0 248 141
3.446500716 -62.778124568 -0.085802468 0 247 150
3.447095167 -62.875440130 -0.090218334 0 246 153
3.448443168 -62.972927760 -0.096730554 0 245 162
3.451676172 -63.070845244 -0.108488407 0 243 174
3.454793103 -63.168739615 -0.119922212 0 241 186
3.456325070 -63.266276069 -0.126943477 0 239 195
3.455642610 -63.363309113 -0.127800085 0 239 195
3.451336263 -63.459513971 -0.118568841 0 241 186
3.443769741 -63.554969736 -0.100261964 0 244 165
3.433536154 -63.649808687 -0.074530213 0 249 135
3.420636118 -63.744027878 -0.041375200 4 255 100
3.391529125 -63.834507857 0.036892761 109 255 54
3.360665604 -63.924561239 0.120051805 222 255 4
3.326732580 -64.013882797 0.211756667 246 226 0
3.287088377 -64.101857943 0.319360594 255 153 0
3.265856152 -64.194069241 0.375716483 255 96 0
3.259934890 -64.289818303 0.389455388 255 82 14
3.260408624 -64.387050200 0.385394720 255 86 7
3.264991410 -64.485240047 0.369897297 255 101 0
3.273360774 -64.584317387 0.343860587 255 126 0
3.272647781 -64.681280140 0.343106238 255 128 0
3.263408498 -64.776247919 0.366086748 255 104 0
3.259375200 -64.872429609 0.374577102 255 96 0
3.260472648 -64.969813570 0.368786531 255 101 0
3.265020317 -65.068010538 0.353392810 255 117 0
3.265235047 -65.165191181 0.350061419 255 120 0
3.261597309 -65.261463844 0.357455059 255 112 0
3.259788624 -65.358166737 0.359758348 255 112 0
3.260078006 -65.455365653 0.356222364 255 115 0
3.260895707 -65.552690845 0.351216737 255 120 0
3.260784667 -65.649796901 0.348797496 255 123 0
3.256312563 -65.745866318 0.358519341 255 112 0
3.250644863 -65.841648224 0.371570589 255 98 0
3.249228214 -65.938441003 0.372789137 255 98 0
3.250335924 -66.035836856 0.366981536 255 104 0
3.251042836 -66.133138401 0.362290692 255 109 0
3.246857672 -66.229268191 0.371219427 255 98 0
3.239696155 -66.324680684 0.388434929 255 84 11
3.232071467 -66.419977018 0.406941055 255 71 36
3.220556509 -66.514330894 0.436278313 255 49 76
3.211666116 -66.609310080 0.458310526 255 33 106
3.212227021 -66.706567787 0.454032896 255 35 102
3.215084175 -66.804382657 0.443363829 255 43 87
3.216916337 -66.901951966 0.435549199 255 49 76
3.219815842 -66.999782715 0.424764193 255 57 62
3.226255521 -67.098477693 0.404124613 255 73 33
3.234798096 -67.197690805 0.377631599 255 93 0
3.243590763 -67.296972330 0.350443167 255 120 0
3.246993456 -67.394943992 0.338261002 255 134 0
3.236582391 -67.489537331 0.364536866 255 107 0
3.225145687 -67.583871944 0.393669413 255 80 18
3.217939000 -67.679237333 0.411026962 255 67 44
3.217622671 -67.776292747 0.409202938 255 69 40
3.223653182 -67.874912265 0.389710235 255 82 14
3.229184501 -67.973414057 0.371608189 255 98 0
3.222957459 -68.069015126 0.386242879 255 86 7
3.206442163 -68.162065731 0.429521906 255 55 66
3.187787377 -68.254574010 0.478758915 255 18 135
3.180028684 -68.349773982 0.497661791 255 4 161
3.182535817 -68.447521531 0.487984829 255 12 146
3.192085892 -68.547025872 0.458700502 255 33 106
3.203985841 -68.647124522 0.422874627 255 59 58
3.209676094 -68.745681805 0.404338146 255 73 33
3.213370396 -68.843744857 0.391359597 255 82 14
3.216167885 -68.941586809 0.380878873 255 90 0
3.219303047 -69.039516457 0.369458983 255 101 0
3.217443629 -69.136193828 0.371945924 255 98 0
3.211842954 -69.231928670 0.384850391 255 86 7
3.194206991 -69.324625388 0.431264916 255 53 69
3.177920477 -69.417650055 0.473923777 255 22 128
3.165914630 -69.511745574 0.504665687 255 0 168
3.165534562 -69.608777402 0.503039795 255 0 168
3.179234194 -69.709381522 0.462213264 255 29 113
3.197192189 -69.811078929 0.409530928 255 69 40
3.206692914 -69.910638978 0.380396721 255 90 0
3.198999696 -70.005825399 0.399136575 255 76 25
3.190059350 -70.100688366 0.421350087 255 61 55
3.185786414 -70.196738274 0.430569240 255 53 69
3.191418359 -70.295321321 0.412210900 255 67 44
3.205675797 -70.396120958 0.369836963 255 101 0
3.209872920 -70.494349177 0.355475390 255 115 0
3.213569233 -70.592452634 0.342509204 255 128 0
3.210773464 -70.688887730 0.347620530 255 123 0
3.209618588 -70.785744689 0.348164050 255 123 0
3.197522434 -70.879775231 0.379173843 255 90 0
3.182557346 -70.973055022 0.418173378 255 63 51
3.169512646 -71.066821596 0.451827121 255 37 98
3.163355420 -71.162366004 0.466304302 255 27 117
3.162784953 -71.259358217 0.465226467 255 27 117
3.165447471 -71.357192144 0.455147466 255 35 102
3.171771829 -71.455983303 0.434873022 255 51 73
3.182626153 -71.555962530 0.401985678 255 75 29
3.193601229 -71.655982487 0.368762857 255 101 0
3.196250797 -71.753832166 0.358723551 255 112 0
3.185289250 -71.848116163 0.386586173 255 86 7
3.173439114 -71.942159171 0.416924467 255 63 51
3.167140792 -72.037653653 0.431804616 255 53 69
3.163142708 -72.133749786 0.440280735 255 47 80
3.159360205 -72.229900468 0.448157694 255 41 91
3.157077078 -72.326445007 0.451860596 255 37 98
3.159495143 -72.424231993 0.442473484 255 45 84
3.168579144 -72.523787290 0.414525047 255 65 47
3.180543776 -72.624114513 0.378555829 255 93 0
3.188251646 -72.723320945 0.354441049 255 117 0
3.186733128 -72.820079555 0.356019738 255 115 0
3.173305014 -72.913664787 0.390764201 255 82 14
3.157906214 -73.006714638 0.430997857 255 53 69
3.148813745 -73.101438399 0.453671538 255 37 98
3.146128398 -73.197870343 0.458504315 255 33 106
3.150583089 -73.296214286 0.443454942 255 43 87
3.160816262 -73.396113123 0.412314760 255 67 44
3.163893528 -73.494097571 0.401102991 255 75 29
