ply
format ascii 1.0
comment coordinate_system ground
comment units millimeter
element vertex 1514
property double x
property double y
property double z
property uchar red
property uchar green
property uchar blue
comment color_mapping zg_high_contrast_from_zg
comment color_zg_range_mm -0.351362740 19.803951027
end_header
6.446424973 147.086467797 0.159903591 0 232 237
6.447618609 146.990659745 0.151450184 0 232 237
6.451842394 146.896658686 0.134689344 0 232 237
6.457833303 146.803707612 0.113084013 0 232 240
6.460963634 146.709045141 0.099323146 0 232 240
6.461166603 146.612634705 0.093590078 0 232 240
6.460615378 146.515773782 0.089926135 0 232 240
6.460316839 146.419062468 0.085570439 0 232 240
6.461847757 146.323438297 0.076199334 0 232 240
6.462919544 146.227538878 0.068088244 0 232 240
6.458851100 146.128584065 0.074073432 0 232 240
6.455160373 146.029855354 0.079024173 0 232 240
6.452901171 145.931977508 0.080050698 0 232 240
6.450233497 145.833857996 0.082198564 0 232 240
6.446271605 145.734972460 0.087896739 0 232 240
6.442146511 145.635992081 0.094043774 0 232 240
6.439143771 145.537677789 0.097114301 0 232 240
6.438633104 145.440838356 0.093352009 0 232 240
6.439156693 145.344609384 0.086754550 0 232 240
6.436059486 145.246240265 0.090087767 0 232 240
6.427781460 145.144814265 0.107630167 0 232 240
6.421979416 145.044853854 0.118383898 0 232 240
6.422068097 144.948369261 0.112983951 0 232 240
6.424501405 144.853264720 0.101154995 0 232 240
6.425303171 144.757196592 0.093801543 0 232 240
6.420983211 144.658113167 0.100495686 0 232 240
6.413590382 144.557224959 0.115618712 0 232 240
6.406343551 144.456426930 0.130342827 0 232 237
6.399432275 144.355830234 0.144148138 0 232 237
6.394858373 144.256609315 0.151544324 0 232 237
6.396393322 144.160973509 0.142187250 0 232 237
6.402549762 144.068044143 0.120155838 0 232 240
6.408039429 143.974718414 0.099954006 0 232 240
6.407993784 143.878147176 0.094934975 0 232 240
6.401335792 143.777706621 0.108053233 0 232 240
6.393267450 143.676445391 0.125041270 0 232 237
6.391459957 143.578846922 0.124858386 0 232 237
6.395349312 143.484574845 0.109051069 0 232 240
6.399119000 143.390228853 0.093572897 0 232 240
6.401574311 143.295112430 0.081700853 0 232 240
6.401880320 143.198740522 0.075725176 0 232 240
6.399170507 143.100610929 0.078022853 0 232 240
6.396358388 143.002422674 0.080602405 0 232 240
6.395699105 142.905487485 0.077277959 0 232 240
6.395478931 142.808806859 0.072750165 0 232 240
6.393978439 142.711381562 0.071735477 0 232 240
6.392431152 142.613929076 0.070850336 0 232 240
6.393720622 142.518122211 0.062184841 0 232 240
6.398695071 142.424449498 0.043411995 0 232 240
6.399246592 142.328209467 0.036772803 0 231 243
6.391044673 142.226899861 0.054147012 0 232 240
6.378249077 142.122937383 0.084124221 0 232 240
6.364647017 142.018517063 0.116315580 0 232 240
6.362042169 141.920460522 0.118340406 0 232 240
6.354693879 141.819665598 0.133379170 0 232 237
6.351641200 141.721354027 0.136635154 0 232 237
6.354571440 141.626494062 0.123479135 0 232 237
6.357251962 141.531486822 0.111009147 0 232 240
6.354811162 141.433526721 0.112589988 0 232 240
6.348812347 141.333519362 0.123933232 0 232 237
6.341287685 141.232637690 0.139464000 0 232 237
6.336415613 141.133285343 0.147718929 0 232 237
6.337368515 141.037281735 0.139994328 0 232 237
6.341909520 140.943336137 0.122426699 0 232 237
6.344028116 140.847996229 0.111505979 0 232 240
6.344159303 140.751514147 0.106038886 0 232 240
6.345479612 140.655712140 0.097310409 0 232 240
6.344583162 140.558638738 0.094664950 0 232 240
6.338542631 140.458621432 0.106134269 0 232 240
6.331484087 140.358025414 0.120398128 0 232 240
6.329644018 140.260415661 0.120345446 0 232 240
6.332848404 140.165686903 0.106453281 0 232 240
6.336978310 140.071482788 0.090022659 0 232 240
6.338016078 139.975510930 0.082077120 0 232 240
6.334575956 139.876985028 0.086419138 0 232 240
6.329864259 139.777736341 0.094251448 0 232 240
6.326720720 139.679382651 0.097782291 0 232 240
6.323293416 139.580868791 0.102093025 0 232 240
6.318408894 139.481528051 0.110403539 0 232 240
6.315536647 139.383332954 0.113193836 0 232 240
6.316518363 139.287326722 0.105410214 0 232 240
6.316674277 139.190850146 0.099893650 0 232 240
6.314012592 139.092774948 0.102109751 0 232 240
6.310283681 138.994095992 0.107255620 0 232 240
6.309807839 138.897260534 0.103476116 0 232 240
6.312948777 138.802470687 0.089772936 0 232 240
6.311876095 138.705294876 0.087633414 0 232 240
6.305158636 138.604929192 0.100985187 0 232 240
6.294921548 138.502580017 0.123996926 0 232 237
6.283404898 138.399515380 0.150521715 0 232 237
6.275318731 138.298392809 0.167634170 0 232 237
6.273930458 138.201049755 0.166367355 0 232 237
6.276989304 138.106211095 0.152897535 0 232 237
6.281984393 138.012458712 0.134115015 0 232 237
6.286612372 137.918494982 0.116340842 0 232 240
6.289558266 137.823581264 0.103183799 0 232 240
6.290805032 137.727709887 0.094690782 0 232 240
6.293198032 137.632479818 0.083053078 0 232 240
6.294099124 137.536410020 0.075510811 0 232 240
6.292152614 137.438742276 0.075784736 0 232 240
6.288172244 137.339935623 0.081641769 0 232 240
6.281503304 137.239625870 0.094878929 0 232 240
6.271830757 137.137639822 0.116361075 0 232 240
6.263623421 137.036479036 0.133823472 0 232 237
6.271944639 136.944556918 0.105923239 0 232 240
6.268165519 136.845872197 0.111234502 0 232 240
6.272832014 136.751900952 0.093366874 0 232 240
6.269119642 136.653253753 0.098497324 0 232 240
6.262205458 136.552824399 0.112417069 0 232 240
6.246782107 136.447661575 0.149693599 0 232 237
6.239543898 136.347063357 0.164505892 0 232 237
6.241670952 136.251676662 0.153614101 0 232 237
6.245442325 136.157200900 0.138209990 0 232 237
6.246639155 136.061291671 0.129873477 0 232 237
6.245579675 135.964128468 0.127731248 0 232 237
6.244486794 135.866946448 0.125681863 0 232 237
6.248123363 135.772384858 0.110651778 0 232 240
6.253390657 135.678722441 0.091146418 0 232 240
6.253379067 135.582133785 0.086132169 0 232 240
6.249138252 135.483205314 0.092728136 0 232 240
6.242953029 135.383204434 0.104662833 0 232 240
6.237647625 135.283692996 0.114183834 0 232 240
6.234930374 135.185612773 0.116601602 0 232 240
6.234391022 135.088734590 0.113042120 0 232 240
6.235338898 134.992675352 0.105401181 0 232 240
6.235049593 134.895932955 0.101157529 0 232 240
6.233170170 134.798314560 0.101280117 0 232 240
6.234320770 134.702362944 0.093085962 0 232 240
6.237291057 134.607409478 0.079897457 0 232 240
6.238448689 134.511457135 0.071686066 0 232 240
6.233999179 134.412425368 0.078868738 0 232 240
6.226206756 134.311562381 0.095229974 0 232 240
6.222568876 134.212981266 0.100187243 0 232 240
6.223431073 134.116866584 0.092791610 0 232 240
6.226468731 134.021940889 0.079424643 0 232 240
6.226931016 133.925603190 0.073129009 0 232 240
6.222102210 133.826372026 0.081360640 0 232 240
6.217976431 133.727527424 0.087663519 0 232 240
6.218258089 133.631090578 0.081867302 0 232 240
6.222225227 133.536662710 0.065953780 0 232 240
6.227782314 133.443097422 0.045675974 0 232 240
6.231901580 133.348743684 0.029346591 0 231 243
6.232505458 133.252472255 0.022669788 0 231 243
6.229284980 133.154119052 0.026494116 0 231 243
6.222776906 133.053980165 0.039346142 0 231 243
6.214975808 132.953142751 0.055749779 0 232 240
6.210989052 132.854380634 0.061682072 0 232 240
6.210190115 132.757349653 0.058862951 0 232 240
6.203578340 132.657167282 0.072005318 0 232 240
6.192293572 132.554457528 0.097979935 0 232 240
6.183534998 132.453122665 0.117019938 0 232 240
6.181232100 132.355285428 0.118335587 0 232 240
6.183778547 132.260070203 0.106337079 0 232 240
6.184435141 132.163831135 0.099528787 0 232 240
6.181625327 132.065719334 0.102239846 0 232 240
6.181488121 131.969050258 0.097613487 0 232 240
6.187655072 131.875778463 0.075677606 0 232 240
6.195649690 131.783485461 0.048723907 0 232 240
6.194491871 131.686258678 0.046903108 0 232 240
6.184964026 131.584529340 0.068067414 0 232 240
6.172929802 131.481458847 0.096115877 0 232 240
6.163608929 131.379853875 0.116715125 0 232 240
6.170523078 131.286969599 0.092733571 0 232 240
6.164642669 131.187215944 0.103887756 0 232 240
6.168845032 131.092870346 0.087354932 0 232 240
6.169958889 130.996866152 0.079304476 0 232 240
6.166814741 130.898580853 0.082948240 0 232 240
6.165940699 130.801511149 0.080359143 0 232 240
6.161755212 130.702671010 0.086865128 0 232 240
6.167135453 130.608942463 0.067102704 0 232 240
6.163726614 130.510517475 0.071478217 0 232 240
6.161597377 130.412776536 0.072340862 0 232 240
6.164001364 130.317452422 0.060755100 0 232 240
6.155590234 130.216364919 0.078872248 0 232 240
6.147192304 130.115289735 0.096954694 0 232 240
6.140070205 130.014898429 0.111534760 0 232 240
6.137917298 129.917152601 0.112468845 0 232 240
6.141067896 129.822224194 0.098838402 0 232 240
6.144955006 129.727683268 0.083186126 0 232 240
6.145722470 129.631483785 0.076102834 0 232 240
6.143698877 129.533803428 0.076686286 0 232 240
6.143405746 129.437040039 0.072518183 0 232 240
6.146693137 129.342170791 0.058517097 0 232 240
6.147101235 129.245775264 0.052425182 0 232 240
6.137585593 129.144133816 0.073590974 0 232 240
6.123763964 129.040224464 0.106585360 0 232 240
6.117361636 128.940239912 0.119203262 0 232 240
6.119854968 128.844950337 0.107388991 0 232 240
6.124996094 128.751053173 0.088302994 0 232 240
6.128200475 128.656131198 0.074537595 0 232 240
6.130151290 128.560546109 0.064216402 0 232 240
6.134043224 128.465979242 0.048564404 0 232 240
6.140073242 128.372531898 0.027040449 0 231 243
6.144536120 128.278256073 0.009821989 0 231 243
6.143192544 128.180929120 0.008553879 0 231 243
6.138435112 128.081812138 0.016664383 0 231 243
6.135131398 127.983459401 0.020783024 0 231 243
6.134944263 127.886739910 0.016341939 0 231 243
6.132668188 127.788926586 0.017640188 0 231 243
6.124109174 127.687829054 0.036198746 0 231 243
6.114825299 127.586358245 0.056750054 0 232 240
6.107395137 127.485861185 0.072210752 0 232 240
6.102402363 127.386640279 0.080977300 0 232 240
6.099780092 127.288657903 0.083233250 0 232 240
6.097968694 127.191098896 0.083262892 0 232 240
6.095168823 127.093025666 0.086009206 0 232 240
6.090356879 126.993906868 0.094284252 0 232 240
6.083410304 126.893681074 0.108424877 0 232 240
6.078182302 126.794352180 0.117845693 0 232 240
6.080453409 126.698918667 0.106666076 0 232 240
6.087050607 126.605726263 0.083602595 0 232 240
6.090384963 126.510836724 0.069503859 0 232 240
6.089048918 126.413524738 0.068237079 0 232 240
6.086040774 126.315347353 0.071565286 0 232 240
6.084692424 126.218029610 0.070334722 0 232 240
6.087657331 126.122940917 0.057255203 0 232 240
6.095197606 126.030211744 0.031606314 0 231 243
6.101585033 125.936880947 0.009125558 0 231 243
6.099265854 125.839054685 0.010566509 0 231 243
6.089667115 125.737478147 0.032009049 0 231 243
6.078240879 125.634966851 0.058474243 0 232 240
6.070925649 125.534578382 0.073646060 0 232 240
6.060382468 125.432534770 0.097688324 0 232 240
6.056996137 125.334175090 0.102068245 0 232 240
6.062666483 125.240466597 0.081565321 0 232 240
6.064549900 125.144810053 0.071468302 0 232 240
6.071059316 125.051522539 0.048661712 0 232 240
6.067964181 124.953309063 0.052246052 0 232 240
6.063972355 124.854637913 0.058295493 0 232 240
6.053527551 124.752668029 0.082077230 0 232 240
6.047008438 124.652711553 0.095073808 0 232 240
6.044132731 124.554619866 0.098060581 0 232 240
6.045143535 124.458512918 0.090369268 0 232 240
6.049029187 124.363870362 0.074779464 0 232 240
6.054392209 124.269976758 0.055131020 0 232 240
6.060054114 124.176230300 0.034662163 0 231 243
6.061504360 124.080335404 0.025767319 0 231 243
6.056642415 123.981228754 0.034218857 0 231 243
6.051566551 123.882016077 0.043259592 0 232 240
6.045550956 123.782329100 0.054884039 0 232 240
6.037341160 123.681532427 0.072539548 0 232 240
6.029109748 123.580729992 0.090255991 0 232 240
6.027587105 123.483331424 0.089537989 0 232 240
6.032317410 123.389098376 0.071637683 0 232 240
6.039097764 123.295897756 0.048104573 0 232 240
6.042328440 123.200896778 0.034327166 0 231 243
6.040430847 123.103302139 0.034643880 0 231 243
6.037325688 123.005098466 0.038280382 0 231 243
6.034503060 122.907038631 0.041141707 0 231 243
6.030305161 122.808286858 0.047783816 0 232 240
6.023528921 122.708238867 0.061513129 0 232 240
6.018593262 122.609121177 0.070185505 0 232 240
6.015665310 122.511015740 0.073341501 0 232 240
6.012419376 122.412751753 0.077372667 0 232 240
6.007810260 122.313804816 0.085151589 0 232 240
6.004008854 122.215265588 0.090711982 0 232 240
6.003260553 122.118258797 0.087882579 0 232 240
6.006268886 122.023133404 0.074729586 0 232 240
6.013149815 121.929943198 0.050934032 0 232 240
6.022773560 121.838118694 0.019600812 0 231 243
6.029590270 121.744882972 -0.004016671 0 231 243
6.028590468 121.647737378 -0.006149746 0 231 243
6.022025325 121.547814204 0.007014767 0 231 243
6.016081442 121.448204802 0.018473169 0 231 243
6.016123527 121.351581644 0.013480153 0 231 243
6.017595392 121.255669370 0.004558382 0 231 243
6.015361226 121.157911127 0.005824100 0 231 243
6.010033638 121.058615677 0.015593742 0 231 243
6.002596739 120.958275408 0.031162553 0 231 243
5.995256401 120.857987707 0.046467436 0 232 240
5.991931939 120.759696533 0.050735303 0 232 240
5.993728942 120.663945317 0.040926884 0 231 243
5.997748986 120.569292760 0.025008897 0 231 243
5.999342999 120.473435568 0.015760476 0 231 243
5.996952311 120.375605713 0.017466275 0 231 243
5.990957414 120.275995726 0.029080673 0 231 243
5.981867922 120.174861314 0.049203090 0 232 240
5.972514745 120.073602693 0.070051927 0 232 240
5.967951142 119.974711425 0.077736233 0 232 240
5.972040927 119.880085486 0.061634284 0 232 240
5.977807070 119.786280657 0.040925041 0 231 243
5.978194701 119.689824982 0.035002063 0 231 243
5.974758252 119.591488548 0.039592590 0 231 243
5.970289873 119.492646943 0.047021209 0 232 240
5.975727631 119.398669012 0.027218694 0 231 243
5.973885158 119.301116099 0.027430930 0 231 243
5.976508091 119.205751553 0.015368547 0 231 243
5.971984057 119.106884903 0.022955028 0 231 243
5.973193321 119.010825553 0.014781184 0 231 243
5.973204305 118.914178547 0.009902679 0 231 243
5.976626204 118.819196676 -0.004351957 0 231 243
5.981623167 118.724980017 -0.022935809 0 231 243
5.980618727 118.627831673 -0.025019509 0 231 243
5.971006730 118.526488387 -0.003437634 0 231 243
5.966822376 118.427794408 0.003223696 0 231 243
5.958532548 118.327104999 0.021173578 0 231 243
5.955107993 118.228786375 0.025748715 0 231 243
5.953569402 118.131385615 0.025139940 0 231 243
5.950586288 118.033283819 0.028503913 0 231 243
5.943566458 117.933225245 0.042967733 0 232 240
5.936728506 117.833259166 0.056932958 0 232 240
5.935416450 117.735973535 0.055706404 0 232 240
5.794593698 107.423204763 -0.062788427 0 231 246
5.820069607 106.854272717 -0.161145073 0 230 249
5.627623835 97.874776929 -0.059192567 0 231 246
5.644259457 97.784823371 -0.109605617 0 231 246
5.651821916 97.691169655 -0.135029211 0 230 249
5.646504660 97.592280848 -0.124978892 0 230 249
5.640365927 97.493062048 -0.112664690 0 231 246
5.637464388 97.395158720 -0.109265058 0 231 246
5.636700960 97.298122265 -0.111753068 0 231 246
5.635453890 97.200889930 -0.112907830 0 231 246
5.632985289 97.103164118 -0.110696949 0 231 246
5.628917168 97.004793637 -0.104079242 0 231 246
5.624483581 96.906277992 -0.096453605 0 231 246
5.623227703 96.809045200 -0.097579209 0 231 246
5.624610940 96.712874844 -0.105972768 0 231 246
5.625266075 96.616409770 -0.112359766 0 231 246
5.625067302 96.519600262 -0.116393633 0 230 249
5.625427400 96.423014379 -0.121965742 0 230 249
5.626666600 96.326779905 -0.129958195 0 230 249
5.627657493 96.230444154 -0.137265608 0 230 249
5.627682095 96.133720029 -0.141910272 0 230 249
5.627165917 96.036778782 -0.145064210 0 230 249
5.626365775 95.939723630 -0.147434801 0 230 249
5.625856207 95.842784205 -0.150604633 0 230 249
5.625905983 95.746067349 -0.155314079 0 230 249
5.624715902 95.648855688 -0.156607062 0 230 249
5.619874744 95.550191001 -0.147841454 0 230 249
5.613131261 95.450772757 -0.133834232 0 230 249
5.606409084 95.351367239 -0.119884269 0 230 249
5.599210832 95.251777038 -0.104621424 0 231 246
5.591571634 95.152016622 -0.088142431 0 231 246
5.586375369 95.053228772 -0.078391658 0 231 246
5.585934739 94.956325870 -0.081740261 0 231 246
5.589055321 94.860830312 -0.094898148 0 231 246
5.595535854 94.766658558 -0.117311092 0 230 249
5.602794577 94.672788088 -0.141866954 0 230 249
5.604169455 94.576591892 -0.150212811 0 230 249
5.600642612 94.478463439 -0.145053938 0 230 249
5.597435504 94.380462608 -0.140774617 0 230 249
5.596425646 94.283327003 -0.142547288 0 230 249
5.596543111 94.186633990 -0.147424494 0 230 249
5.596487292 94.089872063 -0.151823185 0 230 249
5.595181685 93.992619518 -0.152777588 0 230 249
5.591394364 93.894395432 -0.146893654 0 230 249
5.584483173 93.794951443 -0.132402051 0 230 249
5.579135818 93.696122967 -0.122217468 0 230 249
5.587198084 93.602532825 -0.148976081 0 230 249
5.588328555 93.506232174 -0.156636116 0 230 249
5.580098839 93.406282705 -0.138506637 0 230 249
5.580799950 93.309815069 -0.144981361 0 230 249
5.577603985 93.211830552 -0.140717903 0 230 249
5.581433938 93.116577210 -0.155810874 0 230 249
5.575311852 93.017457493 -0.143482964 0 230 249
5.569834756 92.918591669 -0.132930745 0 230 249
5.565976115 92.820356092 -0.126836407 0 230 249
5.565133351 92.723289705 -0.129050333 0 230 249
5.568450253 92.627831272 -0.142724197 0 230 249
5.572662526 92.532715297 -0.158864087 0 230 249
5.571101016 92.435367484 -0.159094323 0 230 249
5.566305083 92.336773246 -0.150411370 0 230 249
5.562142751 92.238425799 -0.143472886 0 230 249
5.560223493 92.140943605 -0.142713659 0 230 249
5.560599128 92.044344025 -0.148276615 0 230 249
5.563110726 91.948563426 -0.159723974 0 230 249
5.568960334 91.854060448 -0.180368063 0 230 249
5.575723889 91.759902408 -0.203529612 0 230 252
5.572679857 91.661983932 -0.199665496 0 230 252
5.560524474 91.560582447 -0.170693566 0 230 249
5.548781675 91.459346974 -0.142856839 0 230 249
5.540678873 91.359508868 -0.125048729 0 230 249
5.535392344 91.260749906 -0.114999641 0 231 246
5.531654647 91.162584094 -0.109217178 0 231 246
5.529156766 91.064892079 -0.106849914 0 231 246
5.527865878 90.967659972 -0.107807476 0 231 246
5.527458959 90.870763721 -0.111199788 0 231 246
5.527629844 90.774086162 -0.116183208 0 230 249
5.527385745 90.677250353 -0.120021919 0 230 249
5.525625785 90.579839930 -0.119682160 0 230 249
5.524106982 90.482521229 -0.120005765 0 230 249
5.525247908 90.386207908 -0.127657827 0 230 249
5.528693456 90.290762883 -0.141659894 0 230 249
5.530177963 90.194574860 -0.150256679 0 230 249
5.527674265 90.096882355 -0.147861501 0 230 249
5.524751967 89.999033373 -0.144311473 0 230 249
5.523049541 89.901644428 -0.144122026 0 230 249
5.520927821 89.804098456 -0.142775834 0 230 249
5.516625661 89.705735110 -0.135419267 0 230 249
5.510141890 89.606556434 -0.122048952 0 230 249
5.504657834 89.507756206 -0.111432413 0 231 246
5.505016628 89.411145037 -0.116917425 0 230 249
5.509761171 89.316171746 -0.134488537 0 230 249
5.515555522 89.221585943 -0.154952019 0 230 249
5.518903853 89.126082677 -0.168673217 0 230 249
5.516301025 89.028358836 -0.165991543 0 230 249
5.507922527 88.928486512 -0.147390281 0 230 249
5.497418679 88.827829495 -0.122929774 0 230 249
5.490666095 88.728572949 -0.108806721 0 231 246
5.493748214 88.632969861 -0.121788386 0 230 249
5.503005160 88.539652423 -0.151788037 0 230 249
5.509685109 88.445372892 -0.174684170 0 230 249
5.511215806 88.349182705 -0.183386925 0 230 249
5.507471063 88.251041095 -0.177548184 0 230 249
5.499965782 88.151513298 -0.161343085 0 230 249
5.491485267 88.051630733 -0.142448489 0 230 249
5.483349398 87.951880744 -0.124502338 0 230 249
5.485177933 87.855803130 -0.134019994 0 230 249
5.482997782 87.758249579 -0.132487210 0 230 249
5.483744575 87.661771788 -0.139020973 0 230 249
5.485604840 87.565701109 -0.148622808 0 230 249
5.478784943 87.466446970 -0.134297392 0 230 249
5.481365059 87.370638662 -0.145881167 0 230 249
5.481418343 87.273903423 -0.150498788 0 230 249
5.479115837 87.176306621 -0.148621579 0 230 249
5.483305880 87.081080363 -0.164639884 0 230 249
5.477591101 86.982238849 -0.153354333 0 230 249
5.475582958 86.884750868 -0.152284927 0 230 249
5.476812340 86.788441518 -0.160138759 0 230 249
5.477805665 86.692044617 -0.167340793 0 230 249
5.477996790 86.595354881 -0.172330384 0 230 249
5.476135374 86.497919728 -0.171660752 0 230 249
5.472123432 86.399705996 -0.165061662 0 230 249
5.467893604 86.301415629 -0.157860626 0 230 249
5.465389373 86.203751557 -0.155415224 0 230 249
5.465027063 86.106862183 -0.158873246 0 230 249
5.465763440 86.010368670 -0.165358906 0 230 249
5.466298680 85.913801284 -0.171288977 0 230 249
5.465320075 85.816687630 -0.173044605 0 230 249
5.462697977 85.718982804 -0.170268283 0 230 249
5.459614655 85.621113442 -0.166219203 0 230 249
5.457594195 85.523627066 -0.165099004 0 230 249
5.457537469 85.426845444 -0.169391322 0 230 249
5.457988075 85.330244745 -0.175081160 0 230 249
5.457093685 85.233161700 -0.177061858 0 230 249
5.455203706 85.135722713 -0.176296627 0 230 249
5.452810983 85.038104864 -0.174144144 0 230 249
5.448118008 84.939667698 -0.165648718 0 230 249
5.443128632 84.841127690 -0.156334784 0 230 249
5.440022739 84.743260916 -0.152212283 0 230 249
5.438909049 84.646103879 -0.153581078 0 230 249
5.439346280 84.549497609 -0.159224658 0 230 249
5.441128053 84.453367131 -0.168574113 0 230 249
5.443526569 84.357453025 -0.179622919 0 230 249
5.444878086 84.261165683 -0.187783998 0 230 249
5.442942969 84.163714402 -0.186882327 0 230 249
5.438415740 84.065348235 -0.178832600 0 230 249
5.433227745 83.966751559 -0.168959700 0 230 249
5.429038999 83.868510191 -0.161840571 0 230 249
5.428239987 83.771464595 -0.164066356 0 230 249
5.431406117 83.675813273 -0.177223798 0 230 249
5.433873918 83.579913406 -0.188454758 0 230 249
5.430904099 83.482102659 -0.184691680 0 230 249
5.424299376 83.383019160 -0.170904838 0 230 249
5.419035103 83.284409244 -0.160812627 0 230 249
5.417701349 83.187177355 -0.161556835 0 230 249
5.418418916 83.090662411 -0.167956081 0 230 249
5.418459049 82.993909670 -0.172486280 0 230 249
5.417814805 82.896917482 -0.175128240 0 230 249
5.417195298 82.799933589 -0.177837253 0 230 249
5.414595780 82.702260540 -0.175085342 0 230 249
5.408665391 82.603431158 -0.163147442 0 230 249
5.403214777 82.504772014 -0.152531125 0 230 249
5.402077048 82.407611680 -0.153806250 0 230 249
5.402800459 82.311096039 -0.160212331 0 230 249
5.403205232 82.214468796 -0.165738648 0 230 249
5.403465897 82.117790633 -0.170866458 0 230 249
5.401484386 82.020337404 -0.169810152 0 230 249
5.394395121 81.921123479 -0.154667455 0 230 249
5.384098157 81.820809184 -0.130677673 0 230 249
5.386250996 81.724785728 -0.141018534 0 230 249
5.383721585 81.627150505 -0.138446244 0 230 249
5.384110538 81.530518353 -0.143920663 0 230 249
5.386474154 81.434562305 -0.154839508 0 230 249
5.392627632 81.339901938 -0.176208722 0 230 249
5.392616853 81.243126757 -0.180577573 0 230 249
5.396172932 81.147569957 -0.194781850 0 230 252
5.390631228 81.048903417 -0.183895383 0 230 249
5.387322629 80.951001877 -0.179166027 0 230 249
5.378429113 80.851199444 -0.159033138 0 230 249
5.376052085 80.753620448 -0.156870257 0 230 249
5.377254328 80.657259078 -0.164577322 0 230 249
5.379775460 80.561343789 -0.175920650 0 230 249
5.381348415 80.465104208 -0.184647952 0 230 249
5.377141498 80.366904593 -0.177433689 0 230 249
5.369849584 80.267663445 -0.161709835 0 230 249
5.365941846 80.169570914 -0.155318016 0 230 249
5.366932240 80.073134299 -0.162433930 0 230 249
5.368512614 79.976895099 -0.171175922 0 230 249
5.366683375 79.879505305 -0.170513009 0 230 249
5.361010836 79.780822873 -0.159248845 0 230 249
5.353958473 79.681680181 -0.144177650 0 230 249
5.350775068 79.583840965 -0.139775993 0 230 249
5.353527599 79.487993976 -0.151745097 0 230 249
5.358727722 79.392963959 -0.170463967 0 230 249
5.363126138 79.297660945 -0.186970661 0 230 249
5.364262060 79.201263437 -0.194477863 0 230 252
5.362740606 79.103977158 -0.194654410 0 230 252
5.361424075 79.006759568 -0.195394985 0 230 252
5.360011893 78.909510320 -0.195870541 0 230 252
5.357462305 78.811882945 -0.193207648 0 230 249
5.355563160 78.714472855 -0.192337616 0 230 249
5.357609744 78.618373107 -0.202349860 0 230 252
5.363566825 78.523567519 -0.223147422 0 230 252
5.367780396 78.428179210 -0.239134894 0 230 252
5.363136159 78.329856851 -0.230688445 0 230 252
5.355175590 78.230441485 -0.213092988 0 230 252
5.349524008 78.131793399 -0.201865160 0 230 252
5.342982888 78.032855578 -0.188182244 0 230 249
5.334270354 77.933206954 -0.168508203 0 230 249
5.332972333 77.836002696 -0.169285313 0 230 249
5.317694665 76.766443922 -0.174997942 0 230 249
-2.020467548 66.673174764 19.737217738 255 0 168
-2.008457146 66.582646377 19.699922083 255 2 164
-2.021894275 66.484652893 19.732935047 255 0 168
-2.028589467 66.388641468 19.747322449 255 0 168
-2.029987267 66.294182304 19.747075006 255 0 168
-2.029492935 66.200275620 19.741600876 255 0 168
-2.032016190 66.105488365 19.744465221 255 0 168
-2.038714469 66.009487101 19.758866167 255 0 168
-2.044043945 65.913888072 19.769486476 255 0 168
-2.046304111 65.819183371 19.771627557 255 0 168
-2.045784161 65.725285649 19.766088278 255 0 168
-2.042676597 65.632135994 19.753400376 255 0 168
-2.038456836 65.539304822 19.737640377 255 0 168
-2.035169619 65.446200393 19.724457989 255 2 164
-2.033430856 65.352646148 19.715555077 255 2 164
-2.033183584 65.258660263 19.710774331 255 2 164
-2.034884630 65.164113044 19.711378104 255 2 164
-2.039363444 65.068768456 19.719658402 255 2 164
-2.044775010 64.973158953 19.730517302 255 0 168
-2.048531287 64.878027050 19.736803611 255 0 168
-2.050889730 64.783297195 19.739228633 255 0 168
-2.053700318 64.688439200 19.742904200 255 0 168
-2.057537796 64.593289580 19.749418500 255 0 168
-2.059967444 64.498543321 19.752043813 255 0 168
-2.058373144 64.404943327 19.743550976 255 0 168
-2.055736935 64.311637487 19.732180047 255 0 168
-2.055899811 64.217534447 19.728544870 255 0 168
-2.057615320 64.122990703 19.729201224 255 0 168
-2.058306213 64.028737551 19.727027338 255 0 168
-2.058761277 63.934550845 19.724202871 255 2 164
-2.060582830 63.839977980 19.725155646 255 2 164
-2.063645711 63.745055805 19.729539872 255 0 168
-2.068009557 63.649768946 19.737520426 255 0 168
-2.074114102 63.553995257 19.750312565 255 0 168
-2.080038449 63.458276069 19.762608045 255 0 168
-2.083425192 63.363272185 19.767892173 255 0 168
-2.082486906 63.269481209 19.761225219 255 0 168
-2.078324938 63.176590227 19.745650559 255 0 168
-2.075015868 63.083457154 19.732433854 255 0 168
-2.075310888 62.989315738 19.729178250 255 0 168
-2.079669587 62.894042104 19.737154060 255 0 168
-2.080061074 62.799874370 19.734167303 255 0 168
-2.086713326 62.703967394 19.748484043 255 0 168
-2.090111501 62.608967255 19.753809002 255 0 168
-2.092938645 62.514127120 19.757557025 255 0 168
-2.095082132 62.419477486 19.759416821 255 0 168
-2.094783543 62.325503258 19.754528599 255 0 168
-2.092160314 62.232169253 19.743216791 255 0 168
-2.089538767 62.138832042 19.731910613 255 0 168
-2.089718791 62.044721485 19.728348271 255 0 168
-2.092226820 61.949970863 19.731221097 255 0 168
-2.094786849 61.855207147 19.734238807 255 0 168
-2.096538987 61.760665937 19.735024830 255 0 168
-2.097719186 61.666281767 19.734231253 255 0 168
-2.098874878 61.571904449 19.733371063 255 0 168
-2.100560342 61.477382762 19.733976209 255 0 168
-2.103197450 61.382602393 19.737212735 255 0 168
-2.106209821 61.287721216 19.741487626 255 0 168
-2.109364737 61.192802872 19.746157690 255 0 168
-2.113211916 61.097698414 19.752742327 255 0 168
-2.118023207 61.002334996 19.761992960 255 0 168
-2.123375503 60.906828166 19.772740180 255 0 168
-2.127365220 60.811692720 19.779722505 255 0 168
-2.126824682 60.717781514 19.774184324 255 0 168
-2.121403209 60.625183824 19.755156098 255 0 168
-2.114879147 60.532877820 19.733081146 255 0 168
-2.111707606 60.439665665 19.720273655 255 2 164
-2.113226213 60.345192435 19.720431125 255 2 164
-2.116639182 60.250212270 19.725825951 255 0 168
-2.119421595 60.155402603 19.729479042 255 0 168
-2.120899661 60.060942656 19.729527907 255 0 168
-2.123209667 59.966261235 19.731877524 255 0 168
-2.128614963 59.870756562 19.742784259 255 0 168
-2.135926282 59.774748423 19.758960922 255 0 168
-2.142775621 59.678867789 19.773861925 255 0 168
-2.148859801 59.583194522 19.786649178 255 0 168
-2.154525345 59.487635997 19.798280520 255 0 168
-2.158034049 59.392651306 19.803951027 255 0 168
-2.157623478 59.298703291 19.798788667 255 0 168
-2.154818761 59.205385397 19.787009175 255 0 168
-2.153222918 59.111746389 19.778572399 255 0 168
-2.153770608 59.017541957 19.776062136 255 0 168
-2.154822821 58.923204773 19.774947661 255 0 168
-2.154964701 58.829106257 19.771317783 255 0 168
-2.155358221 58.734941250 19.768384624 255 0 168
-2.157692432 58.640268615 19.770817461 255 0 168
-2.161019083 58.545338031 19.775995012 255 0 168
-2.162744280 58.450826555 19.776746594 255 0 168
-2.161637891 58.357052441 19.769671430 255 0 168
-2.160650891 58.263245725 19.762927358 255 0 168
-2.162840626 58.168613349 19.764966482 255 0 168
-2.161005936 58.075024465 19.755881076 255 0 168
-2.135181170 57.987639115 19.680474844 255 2 164
-2.099744847 57.902715933 19.578497314 255 4 161
5.109614954 59.570529094 -0.351362740 0 229 255
4.880062303 59.414700841 0.278553081 0 233 231
4.954284195 59.336993380 0.069406437 0 232 240
4.985958978 59.248327385 -0.022217874 0 231 243
4.995574497 59.153993021 -0.052910209 0 231 246
5.001802016 59.058785099 -0.074243391 0 231 246
5.008092583 58.963587749 -0.095749794 0 231 246
5.011987002 58.867774570 -0.110636557 0 231 246
4.980760854 58.763026234 -0.028510428 0 231 243
4.978431277 58.665638535 -0.026202200 0 231 243
4.980015583 58.569244196 -0.034704049 0 231 243
4.987883191 58.474438599 -0.060561247 0 231 246
5.009079654 58.382995557 -0.123236165 0 230 249
5.021111489 58.289222419 -0.160594791 0 230 249
5.023517547 58.193013449 -0.171362898 0 230 249
5.021252149 58.095626356 -0.169225660 0 230 249
5.017951747 57.997980172 -0.164228117 0 230 249
5.014141089 57.900207727 -0.157819775 0 230 249
5.008906594 57.802080755 -0.147476910 0 230 249
5.000042688 57.703049232 -0.127106646 0 230 249
4.992471252 57.604346474 -0.110305309 0 231 246
4.991636890 57.507328645 -0.112113627 0 231 246
4.992640837 57.410768380 -0.118999111 0 230 249
4.991043869 57.313560019 -0.118698405 0 230 249
4.986863411 57.215710859 -0.111259503 0 231 246
4.991370403 57.120017140 -0.127818903 0 230 249
4.988337913 57.022453582 -0.123548927 0 230 249
4.987785748 56.925504383 -0.126129832 0 230 249
4.990068214 56.829254112 -0.136540563 0 230 249
4.993910586 56.733385554 -0.151259672 0 230 249
4.988795839 56.635310522 -0.141232425 0 230 249
4.988434528 56.538405806 -0.144336004 0 230 249
4.986993791 56.441235967 -0.144456314 0 230 249
4.986395722 56.344272736 -0.146903474 0 230 249
4.984860844 56.247080241 -0.146761330 0 230 249
4.989489423 56.151392164 -0.163645995 0 230 249
4.983420206 56.053093395 -0.150974308 0 230 249
4.975752986 55.954409760 -0.133886331 0 230 249
4.969393828 55.856048906 -0.120410828 0 230 249
4.967726896 55.758829986 -0.119897695 0 230 249
4.970964534 55.662799048 -0.132933857 0 230 249
4.975473487 55.567072201 -0.149481436 0 230 249
4.977810168 55.470816872 -0.160026336 0 230 249
4.975834597 55.373519870 -0.158655942 0 230 249
4.971198067 55.275583409 -0.149932371 0 230 249
4.968656849 55.178153037 -0.146996666 0 230 249
4.969756136 55.081596940 -0.154118215 0 230 249
4.971939349 54.985298788 -0.164233495 0 230 249
4.971600791 54.888395340 -0.167380130 0 230 249
4.968759056 54.790893918 -0.163609365 0 230 249
4.965701099 54.693342375 -0.159239933 0 230 249
4.961699347 54.595567853 -0.152261520 0 230 249
4.955791404 54.497342819 -0.140014928 0 230 249
4.950942602 54.399372715 -0.130693453 0 230 249
4.949972161 54.302323867 -0.132086890 0 230 249
4.950793154 54.205698493 -0.138429066 0 230 249
4.949769868 54.108636451 -0.139674165 0 230 249
4.946356063 54.011011134 -0.134312765 0 230 249
4.941989527 53.913163525 -0.126317551 0 230 249
4.938076395 53.815424978 -0.119573873 0 230 249
4.936185533 53.718162864 -0.118416834 0 230 249
4.937370764 53.621621585 -0.125758475 0 230 249
4.939961829 53.525407230 -0.136983651 0 230 249
4.940812198 53.428783950 -0.143397810 0 230 249
4.939756899 53.331715301 -0.144545001 0 230 249
4.937850435 53.234448727 -0.143339006 0 230 249
4.934263965 53.136792740 -0.137489450 0 230 249
4.928929677 53.038733538 -0.126808849 0 230 249
4.922827399 52.940499897 -0.114004698 0 231 246
4.917115546 52.842360362 -0.102278061 0 231 246
4.915405136 52.745147486 -0.101607558 0 231 246
4.917621207 52.648839428 -0.111786252 0 231 246
4.918639357 52.552253497 -0.118653535 0 230 249
4.916265799 52.454887503 -0.116146986 0 230 249
4.911756609 52.357033164 -0.107737513 0 231 246
4.907476450 52.259233901 -0.099959653 0 231 246
4.904060091 52.161634432 -0.094567595 0 231 246
4.901152663 52.064152853 -0.090580703 0 231 246
4.900243103 51.967127514 -0.092113705 0 231 246
4.902472152 51.870815365 -0.102319185 0 231 246
4.906334955 51.774871409 -0.117038559 0 230 249
4.907790880 51.678378619 -0.125105357 0 230 249
4.904026245 51.580703551 -0.118743609 0 230 249
4.898238789 51.482573991 -0.106790313 0 231 246
4.894280038 51.384860176 -0.099889512 0 231 246
4.893603619 51.287887031 -0.102058610 0 231 246
4.894042241 51.191164064 -0.107308135 0 231 246
4.890868636 51.093630137 -0.102573518 0 231 246
4.894371670 50.997592243 -0.116289813 0 230 249
4.890497982 50.899902670 -0.109617982 0 231 246
4.889823815 50.802928974 -0.111787473 0 231 246
4.891683315 50.706519224 -0.120958206 0 230 249
4.894277833 50.610270690 -0.132159267 0 230 249
4.895696337 50.513758447 -0.140109038 0 230 249
4.893135973 50.416362915 -0.137060947 0 230 249
4.887625378 50.318316130 -0.125857741 0 230 249
4.882390574 50.220333677 -0.115415431 0 230 249
4.879220819 50.122809574 -0.110679278 0 231 246
4.879321022 50.026006549 -0.114979602 0 231 246
4.881784133 49.929721649 -0.125809589 0 230 249
4.884260303 49.833436977 -0.136674610 0 230 249
4.884738999 49.736712486 -0.142017721 0 230 249
4.884204509 49.639765510 -0.144559329 0 230 249
4.884428892 49.542983696 -0.149197263 0 230 249
4.883614684 49.445974833 -0.150963430 0 230 249
4.879323255 49.348210101 -0.143117441 0 230 249
4.871851068 49.249757795 -0.126478525 0 230 249
4.864290444 49.151291278 -0.109593749 0 231 246
4.858836788 49.053285287 -0.098531310 0 231 246
4.855307219 48.955697944 -0.092785830 0 231 246
4.854026394 48.858596990 -0.093254794 0 231 246
4.855745336 48.762141361 -0.102014216 0 231 246
4.857410983 48.665672224 -0.110625240 0 231 246
4.853795614 48.568069401 -0.104637764 0 231 246
4.847948365 48.469991164 -0.092479768 0 231 246
4.844158419 48.372355919 -0.086007154 0 231 246
4.844180085 48.275535234 -0.090069265 0 231 246
4.846931010 48.179294463 -0.101674458 0 231 246
4.849637643 48.083041432 -0.113156164 0 231 246
4.849296531 47.986139458 -0.116212141 0 230 249
4.846265441 47.888667738 -0.111831186 0 231 246
4.845748514 47.791728662 -0.114398811 0 231 246
4.847585338 47.695285528 -0.123471711 0 230 249
4.847779007 47.598494395 -0.128001358 0 230 249
4.842337949 47.500518540 -0.116953680 0 230 249
4.832253414 47.401572286 -0.093068519 0 231 246
4.822253770 47.302650738 -0.069416510 0 231 246
4.818159772 47.204970045 -0.062088439 0 231 246
4.821835895 47.108912322 -0.076238774 0 231 246
4.827924317 47.013353250 -0.097056673 0 231 246
4.831065091 46.917176240 -0.109725067 0 231 246
4.830098343 46.820144082 -0.111037417 0 231 246
4.828180399 46.722914969 -0.109719047 0 231 246
4.827066316 46.625852692 -0.110621725 0 231 246
4.826696458 46.528944028 -0.113580632 0 231 246
4.827450677 46.432266338 -0.119645904 0 230 249
4.830156733 46.335988454 -0.131105961 0 230 249
4.832292396 46.239590743 -0.140988092 0 230 249
4.829674688 46.142217377 -0.137728172 0 230 249
4.821435014 46.043696280 -0.118924657 0 230 249
4.809115812 45.944348525 -0.088841439 0 231 246
4.796262297 45.844900620 -0.057279440 0 231 246
4.786241320 45.746037418 -0.033546767 0 231 243
4.786586498 45.649283854 -0.038471477 0 231 246
4.781941841 45.551519001 -0.029599781 0 231 243
4.783100639 45.454929726 -0.036771554 0 231 246
4.788782774 45.359251183 -0.056447931 0 231 246
4.795108647 45.263697149 -0.077903100 0 231 246
4.792371659 45.166316446 -0.074300889 0 231 246
4.796072659 45.070228269 -0.088496905 0 231 246
4.794336020 44.973048025 -0.087658072 0 231 246
4.789014099 44.875152030 -0.076905483 0 231 246
4.784581441 44.777436673 -0.068610211 0 231 246
4.790702055 44.681824388 -0.089491590 0 231 246
4.787535975 44.584361870 -0.084695801 0 231 246
4.782360343 44.486502581 -0.074342633 0 231 246
4.775385242 44.388290394 -0.059012833 0 231 246
4.770457286 44.290487099 -0.049341785 0 231 246
4.770553979 44.193677297 -0.053562142 0 231 246
4.772483939 44.097227350 -0.062850215 0 231 246
4.771267679 44.000157380 -0.063438082 0 231 246
4.767229210 43.902534487 -0.056221460 0 231 246
4.763528337 43.804979955 -0.049937005 0 231 246
4.761861010 43.707824478 -0.049274032 0 231 246
4.760897167 43.610806585 -0.050555005 0 231 246
4.759885576 43.513779389 -0.051702776 0 231 246
4.761774608 43.417315145 -0.060869736 0 231 246
4.768419494 43.321769874 -0.083185847 0 231 246
4.775705339 43.226342682 -0.107273319 0 231 246
4.777210380 43.129793897 -0.115375424 0 230 249
4.771500625 43.031854028 -0.103526737 0 231 246
4.763016562 42.933384637 -0.084005388 0 231 246
4.755364388 42.835080510 -0.066782887 0 231 246
4.750740639 42.737361116 -0.057933077 0 231 246
4.748972465 42.640189971 -0.056978151 0 231 246
4.747040083 42.542988119 -0.055567960 0 231 246
4.743320970 42.445447049 -0.049215858 0 231 246
4.738463974 42.347692008 -0.039715971 0 231 246
4.734480426 42.250105435 -0.032630080 0 231 243
4.734193290 42.153220189 -0.035764494 0 231 243
4.737027963 42.056923593 -0.047530449 0 231 246
4.738583685 41.960383190 -0.055758668 0 231 246
4.737151122 41.863279146 -0.055722235 0 231 246
4.734200742 41.765890721 -0.051487339 0 231 246
4.732155094 41.668673165 -0.049753102 0 231 246
4.732461991 41.571895928 -0.054523313 0 231 246
4.735297537 41.475589150 -0.066285077 0 231 246
4.740587153 41.379736060 -0.084832269 0 231 246
4.746623658 41.284016860 -0.105443940 0 231 246
4.749169626 41.187645516 -0.116401823 0 230 249
4.746246256 41.090260114 -0.112233489 0 231 246
4.740546422 40.992363842 -0.100385707 0 231 246
4.735988329 40.894681421 -0.091694048 0 231 246
4.732364425 40.797173403 -0.085584590 0 231 246
4.727442578 40.699429370 -0.075884383 0 231 246
4.722764629 40.601732977 -0.066857374 0 231 246
4.721003155 40.504572025 -0.065894727 0 231 246
4.722844589 40.408068272 -0.074894963 0 231 246
4.724966748 40.311613415 -0.084670485 0 231 246
4.722689517 40.214357783 -0.082277982 0 231 246
4.715325345 40.116181899 -0.065815727 0 231 246
4.706372246 40.017723737 -0.044957676 0 231 246
4.699709601 39.919684707 -0.030432774 0 231 243
4.698057177 39.822551620 -0.029763134 0 231 243
4.702450707 39.726504728 -0.045813522 0 231 246
4.708824353 39.630808548 -0.067339313 0 231 246
4.711442655 39.534435262 -0.078477937 0 231 246
4.709160983 39.437184937 -0.076063480 0 231 246
4.703378141 39.339312235 -0.063964442 0 231 246
4.697270387 39.241385470 -0.050965429 0 231 246
4.692805976 39.143753951 -0.042510204 0 231 246
4.690045465 39.046426508 -0.038766338 0 231 246
4.691328925 38.949814259 -0.046206137 0 231 246
4.696026626 38.853801652 -0.063088063 0 231 246
4.696086641 38.756969610 -0.067141844 0 231 246
4.692299631 38.659462103 -0.060554124 0 231 246
4.683449812 38.561070784 -0.039961981 0 231 246
4.676269630 38.462977005 -0.023986442 0 231 243
4.675791416 38.366055631 -0.026546637 0 231 243
4.677752340 38.269557907 -0.035852179 0 231 243
4.676059697 38.172424167 -0.035051041 0 231 243
4.670820837 38.074677177 -0.024439976 0 231 243
4.662928980 37.976475257 -0.006489426 0 231 243
4.656058126 37.878454549 0.008638435 0 231 243
4.436286336 22.060262697 0.000454552 0 231 243
4.366778148 18.759396898 0.068251591 0 232 240
4.348701360 17.982696684 0.089174662 0 232 240
4.348142619 17.885772755 0.087085465 0 232 240
4.351828255 17.789244194 0.073243796 0 232 240
4.354014467 17.692572843 0.063555438 0 232 240
4.353176322 17.595619424 0.062243362 0 232 240
4.354293383 17.498845928 0.055517976 0 232 240
4.356977010 17.402214473 0.044455445 0 232 240
4.359763898 17.305589639 0.033108029 0 231 243
4.362093007 17.208920292 0.023029413 0 231 243
4.363048776 17.112124050 0.016755094 0 231 243
4.360897920 17.015046204 0.019085169 0 231 243
4.356482442 16.917765917 0.027687979 0 231 243
4.351847699 16.820468650 0.036899290 0 231 243
4.347481330 16.723198063 0.045368653 0 232 240
4.343644806 16.625977024 0.052371942 0 232 240
4.342113809 16.528961642 0.052991540 0 232 240
4.342293840 16.432097029 0.048873768 0 232 240
4.342127992 16.335201261 0.045715026 0 232 240
4.342327266 16.238336670 0.041546250 0 231 243
4.342830616 16.141497542 0.036536484 0 231 243
4.341998956 16.044542004 0.035225133 0 231 243
4.338670668 15.947371734 0.040829346 0 231 243
4.334672798 15.850145952 0.048289213 0 232 240
4.331370333 15.752981719 0.053824404 0 232 240
4.328331053 15.655841577 0.058631937 0 232 240
4.325221576 15.558697078 0.063635114 0 232 240
4.323488159 15.461669858 0.064828437 0 232 240
4.324416845 15.364865935 0.058650038 0 232 240
4.325002976 15.268032017 0.053421502 0 232 240
4.322841989 15.170969155 0.055802540 0 232 240
4.316990350 15.073602644 0.068406509 0 232 240
4.310015912 14.976147631 0.084121549 0 232 240
4.308403275 14.879135543 0.084987593 0 232 240
4.312473199 14.782586328 0.070116005 0 232 240
4.316690077 14.686045144 0.054838443 0 232 240
4.318983322 14.589344922 0.044889792 0 232 240
4.319545546 14.492503321 0.039736650 0 231 243
4.320312000 14.395676839 0.034018975 0 231 243
4.325160310 14.299173350 0.016996770 0 231 243
4.330684631 14.202718851 -0.001896791 0 231 243
4.331758915 14.105909183 -0.008463823 0 231 243
4.328090872 14.008726562 -0.001894566 0 231 243
4.322249728 13.911376646 0.010694975 0 231 243
4.317448762 13.814111103 0.020404744 0 231 243
4.315486586 13.717067525 0.022252861 0 231 243
4.314621562 13.620108931 0.021063250 0 231 243
4.313654867 13.523142475 0.020156423 0 231 243
4.315579190 13.426395763 0.011243052 0 231 243
4.319646881 13.329808929 -0.003606082 0 231 243
4.322853574 13.233153436 -0.016069308 0 231 243
4.326165692 13.136502625 -0.028823491 0 231 243
4.329658430 13.039861976 -0.042076913 0 231 246
4.330236549 12.943001917 -0.047256010 0 231 246
4.325759933 12.845768027 -0.038432670 0 231 246
4.318290607 12.748317329 -0.021318384 0 231 243
4.310096223 12.650818692 -0.002194339 0 231 243
4.302405722 12.553362136 0.015535349 0 231 243
4.295830737 12.455991235 0.030176430 0 231 243
4.298872875 12.359315180 0.018179245 0 231 243
4.296251369 12.262231521 0.021871593 0 231 243
4.298120493 12.165468130 0.013125915 0 231 243
4.292007154 12.068138520 0.026493221 0 231 243
4.299602509 11.971776226 0.001887768 0 231 243
4.292597269 11.874386874 0.017728154 0 231 243
4.284808607 11.776947668 0.035740049 0 231 243
4.279367482 11.679675946 0.047250369 0 232 240
4.276565766 11.582589078 0.051450478 0 232 240
4.277799879 11.485779498 0.044471975 0 232 240
4.284854531 11.389363899 0.021370775 0 231 243
4.295123353 11.293159413 -0.010633239 0 231 243
4.298980294 11.196515335 -0.024874298 0 231 243
4.293144971 11.099219790 -0.012264870 0 231 243
4.285700073 11.001820996 0.004804734 0 231 243
4.280192038 10.904555104 0.016510156 0 231 243
4.276590346 10.807417887 0.022935854 0 231 243
4.274456455 10.710378518 0.025296618 0 231 243
4.273900387 10.613442455 0.023287593 0 231 243
4.274801774 10.516600118 0.017242172 0 231 243
4.276609790 10.419814497 0.008686243 0 231 243
4.279093687 10.323069835 -0.001740985 0 231 243
4.281360367 10.226308744 -0.011565368 0 231 243
4.281516130 10.129412160 -0.015540724 0 231 243
4.278605987 10.032322702 -0.011021313 0 231 243
4.275735853 9.935237202 -0.006611516 0 231 243
4.273725361 9.838206315 -0.004582024 0 231 243
4.271742870 9.741177930 -0.002628901 0 231 243
4.270362067 9.644187062 -0.002341496 0 231 243
4.269801520 9.547246289 -0.004325359 0 231 243
4.268992508 9.450290198 -0.005619704 0 231 243
4.267747421 9.353307826 -0.005704758 0 231 243
4.267888356 9.256408202 -0.009628549 0 231 243
4.271156104 9.159692752 -0.022213935 0 231 243
4.277239771 9.063139607 -0.042599710 0 231 246
4.282033559 8.966505700 -0.059410885 0 231 246
4.278738080 8.869397938 -0.053809677 0 231 246
4.268901597 8.771914863 -0.030085233 0 231 243
4.259089829 8.674439973 -0.006427820 0 231 243
4.253513899 8.577212779 0.005495404 0 231 243
4.252268226 8.480233753 0.005422658 0 231 243
4.252101293 8.383315457 0.002362353 0 231 243
4.252464557 8.286426080 -0.002165759 0 231 243
4.253190544 8.189555742 -0.007697700 0 231 243
4.252405529 8.092601030 -0.009042097 0 231 243
4.250375773 7.995578214 -0.006936602 0 231 243
4.250383318 7.898666621 -0.010474551 0 231 243
4.251683437 7.801823829 -0.017592639 0 231 243
4.250363801 7.704839288 -0.017451125 0 231 243
4.247557032 7.607776096 -0.013188045 0 231 243
4.247375319 7.510852562 -0.016196990 0 231 243
4.249236219 7.414035214 -0.024864283 0 231 243
4.249546921 7.317135215 -0.029235301 0 231 243
4.246511097 7.220061792 -0.024332820 0 231 243
4.241102937 7.122868607 -0.012855943 0 231 243
4.235584180 7.025673188 -0.001071329 0 231 243
4.231626742 6.928559886 0.006388508 0 231 243
4.228535118 6.831492139 0.011450601 0 231 243
4.225492200 6.734428414 0.016378970 0 231 243
4.222815603 6.637384291 0.020293556 0 231 243
4.221536905 6.540409738 0.020336004 0 231 243
4.222586902 6.443548256 0.013927157 0 231 243
4.224682738 6.346735493 0.004621550 0 231 243
4.224353476 6.249804696 0.002036692 0 231 243
4.220182194 6.152691610 0.010098818 0 231 243
4.215344800 6.055549695 0.020007945 0 231 243
4.212711601 5.958513324 0.023810697 0 231 243
4.213365789 5.861629972 0.018505524 0 231 243
4.216005477 5.764836259 0.007699765 0 231 243
4.217025922 5.667966251 0.001381945 0 231 243
4.214829172 5.570949872 0.003980011 0 231 243
4.208299191 5.473741005 0.018586616 0 231 243
4.204310800 5.376648844 0.026151796 0 231 243
4.198699104 5.279487763 0.038216443 0 231 243
4.199910292 5.182626916 0.031375956 0 231 243
4.204351100 5.085903586 0.015587169 0 231 243
4.198855681 4.988751619 0.027333265 0 231 243
4.200937475 4.891923895 0.018083661 0 231 243
4.202055659 4.795053389 0.011505398 0 231 243
4.202161048 4.698139161 0.007734805 0 231 243
4.200680252 4.601158759 0.008360845 0 231 243
4.198488891 4.504149733 0.010957133 0 231 243
4.203208736 4.407420995 -0.005597252 0 231 243
4.197685556 4.310277749 0.006234317 0 231 243
4.192079832 4.213134697 0.018295928 0 231 243
4.188824851 4.116087500 0.023844518 0 231 243
4.189011541 4.019175885 0.019856817 0 231 243
4.191035142 3.922334102 0.010779809 0 231 243
4.194691157 3.825552244 -0.002819873 0 231 243
4.198477076 3.728771728 -0.016778487 0 231 243
4.197286046 3.631801612 -0.016943740 0 231 243
4.190110857 3.534610368 -0.000524201 0 231 243
4.182773298 3.437417914 0.016346657 0 231 243
4.179381028 3.340373182 0.022285356 0 231 243
4.180827127 3.243503636 0.014816743 0 231 243
4.183769395 3.146685253 0.003202900 0 231 243
4.183698258 3.049758196 -0.000058763 0 231 243
4.183584145 2.952828941 -0.003200177 0 231 243
4.183838052 2.855911633 -0.007360347 0 231 243
4.183919630 2.758987523 -0.011041793 0 231 243
4.181834343 2.661989930 -0.008716906 0 231 243
4.176970209 2.564901058 0.001310434 0 231 243
4.171848283 2.467806701 0.012053500 0 231 243
4.167158664 2.370729503 0.021599750 0 231 243
4.163533530 2.273689196 0.028197130 0 231 243
4.163234305 2.176756057 0.025578195 0 231 243
4.166792484 2.079942864 0.012269805 0 231 243
4.170720930 1.983137607 -0.002063703 0 231 243
4.170962227 1.886216239 -0.006177319 0 231 243
4.168245492 1.789204930 -0.002091640 0 231 243
4.165854870 1.692204625 0.001091435 0 231 243
4.165088948 1.595253022 -0.000227160 0 231 243
4.165566238 1.498337216 -0.004990187 0 231 243
4.165130409 1.401394208 -0.007221328 0 231 243
4.163831048 1.304426445 -0.007057988 0 231 243
4.163628841 1.207489401 -0.009934302 0 231 243
4.165005812 1.110595024 -0.017186276 0 231 243
4.165715590 1.013680800 -0.022587951 0 231 243
4.165016654 0.916727743 -0.024084102 0 231 243
4.164569583 0.819781070 -0.026277157 0 231 243
4.165620723 0.722872738 -0.032621539 0 231 243
4.164000410 0.625894744 -0.031560489 0 231 243
4.157243239 0.528788257 -0.016260651 0 231 243
4.150877265 0.431695853 -0.002043751 0 231 243
4.145664618 0.334635635 0.008977812 0 231 243
4.139820961 0.237563526 0.021749633 0 231 243
4.133982453 0.140495251 0.034508487 0 231 243
4.132410113 0.043529624 0.035443990 0 231 243
4.136859983 -0.053298203 0.019688690 0 231 243
4.143754106 -0.150075389 -0.002840421 0 231 243
4.148352781 -0.246909218 -0.019006111 0 231 243
4.147225828 -0.343871350 -0.019300632 0 231 243
4.141048882 -0.440940832 -0.005596483 0 231 243
4.134167036 -0.538021074 0.010062822 0 231 243
4.131766354 -0.635004898 0.013302507 0 231 243
4.136326909 -0.731847532 -0.002751935 0 231 243
4.144228068 -0.828628465 -0.028064936 0 231 243
4.149104779 -0.925474774 -0.044993665 0 231 246
4.147652267 -1.022445704 -0.044377656 0 231 246
4.141271279 -1.119507936 -0.030099361 0 231 243
4.133317287 -1.216594694 -0.011459557 0 231 243
4.126130660 -1.313662441 0.005054553 0 231 243
4.120575116 -1.410696992 0.017048782 0 231 243
4.117540366 -1.507685037 0.022056839 0 231 243
4.117195997 -1.604626646 0.019608541 0 231 243
4.117761600 -1.701553925 0.014638999 0 231 243
4.119273675 -1.798467340 0.007047002 0 231 243
4.123691086 -1.895337554 -0.008597408 0 231 243
4.132044365 -1.992152295 -0.035150943 0 231 243
4.142748618 -2.088939488 -0.068220401 0 231 246
4.067832348 -2.186967087 0.136052712 0 232 237
4.102173029 -3.155860988 0.006964674 0 231 243
3.943592984 -21.967091693 -0.187877157 0 230 249
3.892264680 -22.060828340 -0.048630001 0 231 246
3.897889250 -22.158204474 -0.067391453 0 231 246
3.900203588 -22.255370651 -0.076967857 0 231 246
3.893888801 -22.351975477 -0.062602164 0 231 246
3.887674984 -22.448582871 -0.048515310 0 231 246
3.885424055 -22.545448283 -0.045422061 0 231 246
3.886005959 -22.642501125 -0.050187240 0 231 246
3.887157453 -22.739593285 -0.056531600 0 231 246
3.889553579 -22.836770825 -0.066328056 0 231 246
3.891432530 -22.933915993 -0.074688504 0 231 246
3.891821151 -23.030961985 -0.078912893 0 231 246
3.891447023 -23.127956865 -0.081019874 0 231 246
3.892671490 -23.225062219 -0.087561055 0 231 246
3.894369929 -23.322202080 -0.095416163 0 231 246
3.894557553 -23.419238915 -0.099078316 0 231 246
3.892537507 -23.516122239 -0.096613995 0 231 246
3.887212989 -23.612772368 -0.084979964 0 231 246
3.880276533 -23.709305193 -0.068872195 0 231 246
3.873907921 -23.805873847 -0.054338659 0 231 246
3.869106337 -23.902550412 -0.044151728 0 231 246
3.866516654 -23.999383037 -0.040100736 0 231 246
3.866113604 -24.096372444 -0.042115650 0 231 246
3.867629607 -24.193501711 -0.049454097 0 231 246
3.870722253 -24.290748046 -0.061166064 0 231 246
3.873184426 -24.387951250 -0.071127586 0 231 246
3.870811675 -24.484800359 -0.067672664 0 231 246
3.864701276 -24.581371196 -0.053845737 0 231 246
3.860684844 -24.678094238 -0.045827649 0 231 246
3.860735049 -24.775119723 -0.049092064 0 231 246
3.862031725 -24.872239911 -0.055813934 0 231 246
3.861596320 -24.969230740 -0.057728621 0 231 246
3.859274289 -25.066078458 -0.054407249 0 231 246
3.855348509 -25.162802526 -0.046634675 0 231 246
3.849935746 -25.259410072 -0.034734837 0 231 243
3.845676903 -25.356103372 -0.026035595 0 231 243
3.845833543 -25.453136929 -0.029587130 0 231 243
3.849370231 -25.550435056 -0.042516457 0 231 246
3.850510303 -25.647548797 -0.048794559 0 231 246
3.847484299 -25.744336003 -0.043511446 0 231 246
3.845163614 -25.841177497 -0.040184255 0 231 246
3.845177787 -25.938203708 -0.043334709 0 231 246
3.845824258 -26.035281244 -0.048238542 0 231 246
3.846285813 -26.132345202 -0.052628122 0 231 246
3.847444093 -26.229466512 -0.058949877 0 231 246
3.849249493 -26.326641954 -0.067066175 0 231 246
3.850671689 -26.423788342 -0.074118012 0 231 246
3.850699368 -26.520822463 -0.077299089 0 231 246
3.847809786 -26.617617500 -0.072383893 0 231 246
3.841878581 -26.714159820 -0.059027236 0 231 246
3.835502822 -26.810661468 -0.044435692 0 231 246
3.830623870 -26.907283804 -0.033996404 0 231 243
3.826725575 -27.003985316 -0.026277134 0 231 243
3.823359657 -27.100729411 -0.020033959 0 231 243
3.820169357 -27.197486545 -0.014276893 0 231 243
3.817856482 -27.294316513 -0.010953450 0 231 243
3.815483588 -27.391140364 -0.007462257 0 231 243
3.811350491 -27.487812352 0.000914715 0 231 243
3.815401693 -27.585186335 -0.013418639 0 231 243
3.811726904 -27.681896294 -0.006311099 0 231 243
3.809545710 -27.778733904 -0.003347109 0 231 243
3.810381737 -27.875833770 -0.008754855 0 231 243
3.812549280 -27.973051696 -0.017856492 0 231 243
3.815142121 -28.070309482 -0.028137249 0 231 243
3.812885440 -28.167141492 -0.024959121 0 231 243
3.819592299 -28.264768078 -0.046654368 0 231 246
3.820356709 -28.361870904 -0.051857742 0 231 246
3.813799076 -28.458319628 -0.036740556 0 231 246
3.814906423 -28.555453203 -0.042893277 0 231 246
3.811684758 -28.652197551 -0.037031319 0 231 246
3.813389282 -28.749386864 -0.044838980 0 231 246
3.810322490 -28.846143814 -0.039404437 0 231 246
3.816768072 -28.943768981 -0.060366971 0 231 246
3.819385237 -29.041048339 -0.070703997 0 231 246
3.816487667 -29.137821993 -0.065735588 0 231 246
3.818349977 -29.235034915 -0.073975497 0 231 246
3.812505942 -29.331533560 -0.060827712 0 231 246
3.810224566 -29.428361096 -0.057565753 0 231 246
3.811532992 -29.525524169 -0.064265054 0 231 246
3.815408052 -29.622930605 -0.078086205 0 231 246
3.810710076 -29.719530572 -0.068114128 0 231 246
3.812983709 -29.816789259 -0.077488697 0 231 246
3.811321914 -29.913675517 -0.075940359 0 231 246
3.816855738 -30.011249607 -0.094360543 0 231 246
3.814413759 -30.108062699 -0.090644687 0 231 246
3.812595696 -30.204934857 -0.088659171 0 231 246
3.809637119 -30.301695982 -0.083507208 0 231 246
3.805890424 -30.398379013 -0.076166768 0 231 246
3.801313379 -30.494978922 -0.066520620 0 231 246
3.796636614 -30.591566325 -0.056596468 0 231 246
3.793385253 -30.688291099 -0.050627038 0 231 246
3.792360776 -30.785234014 -0.050836758 0 231 246
3.791020722 -30.882145642 -0.050169466 0 231 246
3.784227772 -30.978514470 -0.034367221 0 231 243
3.773557250 -31.074491564 -0.007801952 0 231 243
3.764552666 -31.170628279 0.014141084 0 231 243
3.762530141 -31.267461597 0.016707450 0 231 243
3.769324799 -31.365184963 -0.005196294 0 231 243
3.778077798 -31.463112931 -0.032534209 0 231 243
3.780910369 -31.560445693 -0.043439420 0 231 246
3.777844488 -31.657178679 -0.037972771 0 231 246
3.775187480 -31.753952026 -0.033639709 0 231 243
3.774095891 -31.850885273 -0.033650193 0 231 243
3.772741980 -31.947791353 -0.032931437 0 231 243
3.770989429 -32.044655824 -0.031105086 0 231 243
3.769743684 -32.141572488 -0.030684179 0 231 243
3.769009245 -32.238542398 -0.031681225 0 231 243
3.767554136 -32.335436943 -0.030676877 0 231 243
3.765729150 -32.432292218 -0.028644753 0 231 243
3.764354807 -32.529194475 -0.027862208 0 231 243
3.763901955 -32.626194153 -0.029636114 0 231 243
3.764282872 -32.723282979 -0.033723019 0 231 243
3.764838630 -32.820391546 -0.038294060 0 231 246
3.766024997 -32.917568902 -0.044614248 0 231 246
3.768098974 -33.014843416 -0.053396930 0 231 246
3.770169571 -33.112119934 -0.062169115 0 231 246
3.771383508 -33.209306021 -0.068562449 0 231 246
3.771358596 -33.306359144 -0.071516107 0 231 246
3.769049290 -33.403163814 -0.068128035 0 231 246
3.763588021 -33.499622421 -0.055990120 0 231 246
3.756823033 -33.595934385 -0.040232300 0 231 246
3.752234552 -33.692481881 -0.030514388 0 231 243
3.751866247 -33.789493504 -0.032508963 0 231 243
3.753945907 -33.886777376 -0.041297089 0 231 246
3.755029742 -33.983952692 -0.047320023 0 231 246
3.753680360 -34.080857631 -0.046587998 0 231 246
3.750813665 -34.177592125 -0.041643212 0 231 246
3.748042239 -34.274335917 -0.036961652 0 231 246
3.745749183 -34.371132382 -0.033606701 0 231 243
3.742330028 -34.467800259 -0.027124819 0 231 243
3.736714740 -34.564216590 -0.014545846 0 231 243
3.733642226 -34.660919475 -0.009023685 0 231 243
3.735970660 -34.758239011 -0.018491984 0 231 243
3.739604989 -34.855711096 -0.031584016 0 231 243
3.741187115 -34.952950263 -0.038978524 0 231 246
3.741921045 -35.050093354 -0.044017508 0 231 246
3.743362420 -35.147319852 -0.051019065 0 231 246
3.744960721 -35.244566498 -0.058455087 0 231 246
3.746050618 -35.341755783 -0.064478759 0 231 246
3.745290369 -35.438729929 -0.065365645 0 231 246
3.740037778 -35.535176246 -0.053781435 0 231 246
3.730375312 -35.631099284 -0.029954901 0 231 243
3.724304940 -35.727440648 -0.016098097 0 231 243
3.724734320 -35.824549585 -0.020282369 0 231 243
3.729062495 -35.922123876 -0.035288005 0 231 243
3.733435110 -36.019707575 -0.050415921 0 231 246
3.734563085 -36.116906566 -0.056536039 0 231 246
3.732493874 -36.213722816 -0.053780002 0 231 246
3.727859828 -36.310228910 -0.043903059 0 231 246
3.718237381 -36.406128659 -0.020177529 0 231 243
3.718470253 -36.503218012 -0.023808211 0 231 243
3.715017630 -36.599859569 -0.017207075 0 231 243
3.714491285 -36.696856684 -0.018727885 0 231 243
3.712760857 -36.793706637 -0.016905061 0 231 243
3.709875304 -36.890414058 -0.011874475 0 231 243
3.707304920 -36.987158901 -0.007717579 0 231 243
3.707486958 -37.084242970 -0.011200139 0 231 243
3.711047318 -37.181747088 -0.024059712 0 231 243
3.715978900 -37.279425366 -0.040724691 0 231 246
3.712592709 -37.376069874 -0.034298468 0 231 243
3.716178609 -37.473585584 -0.047225614 0 231 246
3.716209290 -37.570658286 -0.050282319 0 231 246
3.721033541 -37.668335705 -0.066644942 0 231 246
3.716737908 -37.764865139 -0.057689388 0 231 246
3.714542418 -37.861658249 -0.054562688 0 231 246
3.713144815 -37.958551892 -0.053649771 0 231 246
3.709469803 -38.055154823 -0.046413443 0 231 246
3.705708589 -38.151744682 -0.038936586 0 231 246
3.703681553 -38.248554906 -0.036272729 0 231 243
3.702820050 -38.345514323 -0.036843309 0 231 246
3.701096505 -38.442362603 -0.035019600 0 231 243
3.698976594 -38.539159032 -0.032094350 0 231 243
3.697278456 -38.636009365 -0.030338799 0 231 243
3.696228194 -38.732943531 -0.030380652 0 231 243
3.697054002 -38.830122669 -0.035629563 0 231 243
3.699255670 -38.927483422 -0.044696924 0 231 246
3.699799611 -39.024628884 -0.049161060 0 231 246
3.697557537 -39.121408500 -0.045889618 0 231 246
3.694190375 -39.218038514 -0.039493536 0 231 246
3.691049907 -39.314696759 -0.033725580 0 231 243
3.688723029 -39.411461493 -0.030215097 0 231 243
3.688773978 -39.508542135 -0.033304749 0 231 243
3.692400543 -39.606101525 -0.046319913 0 231 246
3.697770254 -39.703898142 -0.064173335 0 231 246
3.701508420 -39.801480329 -0.077496150 0 231 246
3.701190836 -39.898519382 -0.079558164 0 231 246
3.697016900 -39.995037588 -0.070912845 0 231 246
3.691342918 -40.091349984 -0.058101784 0 231 246
3.685600456 -40.187649487 -0.045099343 0 231 246
3.680402341 -40.284019580 -0.033606892 0 231 243
3.677056053 -40.380639669 -0.027254387 0 231 243
3.677148419 -40.477729475 -0.030447383 0 231 243
3.680591117 -40.575280815 -0.042940760 0 231 246
3.684255378 -40.672866125 -0.056048164 0 231 246
3.688966797 -40.770599820 -0.072061717 0 231 246
3.695264345 -40.868557836 -0.092477790 0 231 246
3.699058401 -40.966173380 -0.105942289 0 231 246
3.695313455 -41.062741494 -0.098474871 0 231 246
3.685299995 -41.158431118 -0.073602638 0 231 246
3.675505642 -41.254144545 -0.049337363 0 231 246
3.668501383 -41.350243446 -0.032817080 0 231 243
3.664472746 -41.446757190 -0.024556979 0 231 243
3.664006665 -41.543772165 -0.026186707 0 231 243
3.665364878 -41.641046113 -0.032880245 0 231 243
3.665907076 -41.738205915 -0.037307059 0 231 246
3.665808159 -41.835275553 -0.039952723 0 231 246
3.665254087 -41.932280858 -0.041333525 0 231 246
3.663219017 -42.029074339 -0.038601269 0 231 246
3.658652739 -42.125503429 -0.028840057 0 231 243
3.652531780 -42.221705862 -0.014761103 0 231 243
3.646837449 -42.317965982 -0.001865395 0 231 243
3.643073399 -42.414502011 0.005672194 0 231 243
3.642128811 -42.511445270 0.005382809 0 231 243
3.642817819 -42.608626381 0.000558922 0 231 243
3.643415623 -42.705795486 -0.004010594 0 231 243
3.644280804 -42.803004954 -0.009321339 0 231 243
3.646584929 -42.900426986 -0.018626196 0 231 243
3.648203311 -42.997750688 -0.026025955 0 231 243
3.647870226 -43.094788588 -0.028006269 0 231 243
3.647262679 -43.191786423 -0.029223365 0 231 243
3.645251583 -43.288576480 -0.026542268 0 231 243
3.644348006 -43.385530392 -0.026935079 0 231 243
3.649101719 -43.483327468 -0.043034571 0 231 246
3.655093310 -43.581313922 -0.062570041 0 231 246
3.659217704 -43.679026060 -0.076920022 0 231 246
3.661288276 -43.776433703 -0.085566290 0 231 246
3.661450976 -43.873556460 -0.088914044 0 231 246
3.659595881 -43.970375540 -0.086658029 0 231 246
3.655669186 -44.066880475 -0.078648787 0 231 246
3.651396312 -44.163330649 -0.069677109 0 231 246
3.647972137 -44.259907402 -0.063060728 0 231 246
3.644138776 -44.356419906 -0.055306968 0 231 246
3.639512652 -44.452809055 -0.045350751 0 231 246
3.636057248 -44.549374839 -0.038643994 0 231 246
3.635280620 -44.646350297 -0.039374102 0 231 246
3.636813677 -44.743681670 -0.046516301 0 231 246
3.638706326 -44.841070518 -0.054655845 0 231 246
3.638379421 -44.938118037 -0.056631235 0 231 246
3.634523914 -45.034618543 -0.048807579 0 231 246
3.628347526 -45.130755836 -0.034538271 0 231 243
3.622103512 -45.226878615 -0.020079914 0 231 243
3.618668325 -45.323436458 -0.013419659 0 231 243
3.620918838 -45.420883431 -0.022545922 0 231 243
3.624690606 -45.518571884 -0.035895209 0 231 243
3.625495056 -45.615796729 -0.041003876 0 231 246
3.624224568 -45.712695417 -0.040349782 0 231 246
3.625028813 -45.809922219 -0.045455577 0 231 246
3.630087072 -45.907825221 -0.062372697 0 231 246
3.636107169 -46.005885827 -0.081959555 0 231 246
3.638328035 -46.103346249 -0.090995660 0 231 246
3.635376195 -46.199982655 -0.085667064 0 231 246
3.630170575 -46.296256592 -0.074078934 0 231 246
3.621008618 -46.391892118 -0.051503505 0 231 246
3.619202156 -46.488705123 -0.049351732 0 231 246
3.609671211 -46.584271421 -0.025749096 0 231 243
3.604034979 -46.680460953 -0.012960174 0 231 243
3.599612119 -46.776843598 -0.003539362 0 231 243
3.594286890 -46.873077013 0.008388447 0 231 243
3.589684514 -46.969424830 0.018310229 0 231 243
3.588165231 -47.066273164 0.019671828 0 231 243
3.592683206 -47.164108935 0.004269745 0 231 243
3.602145320 -47.262759823 -0.024860647 0 231 243
3.609936428 -47.361144055 -0.049349774 0 231 246
3.610961429 -47.458420166 -0.055048943 0 231 246
3.606040826 -47.554715869 -0.044236472 0 231 246
3.598758262 -47.650617560 -0.026863744 0 231 243
3.592920397 -47.746754145 -0.013501576 0 231 243
3.592692726 -47.843820057 -0.015717410 0 231 243
3.596597257 -47.941575387 -0.029407052 0 231 243
3.599265065 -48.039127860 -0.039661256 0 231 246
3.600155443 -48.136385502 -0.044978464 0 231 246
3.601204098 -48.233671167 -0.050734061 0 231 246
3.602532839 -48.331005532 -0.057266314 0 231 246
3.602646653 -48.428136836 -0.060423582 0 231 246
3.602400638 -48.525208189 -0.062580448 0 231 246
3.603370159 -48.622486020 -0.068111715 0 231 246
3.603987633 -48.719705602 -0.072664196 0 231 246
3.601467370 -48.816392538 -0.068501943 0 231 246
3.594078521 -48.912248037 -0.050818228 0 231 246
3.582931723 -49.007456316 -0.022697203 0 231 243
3.571814280 -49.102661832 0.005343681 0 231 243
3.569044791 -49.199292837 0.010203040 0 231 243
3.575315644 -49.297478098 -0.010042161 0 231 243
3.583444195 -49.395989324 -0.035445275 0 231 243
3.589757905 -49.494193887 -0.055807362 0 231 246
3.592267095 -49.591745031 -0.065602857 0 231 246
3.592217331 -49.688854614 -0.068290751 0 231 246
3.590584561 -49.785689497 -0.066581302 0 231 246
3.587548652 -49.882279220 -0.060973982 0 231 246
3.583839890 -49.978749793 -0.053496855 0 231 246
3.580057592 -50.075205410 -0.045814289 0 231 246
3.577863769 -50.171937720 -0.042541933 0 231 246
3.577479401 -50.268987429 -0.044293526 0 231 246
3.576942775 -50.366010773 -0.045621113 0 231 246
3.576084560 -50.462977657 -0.046054424 0 231 246
3.575558202 -50.560003415 -0.047408195 0 231 246
3.574400771 -50.656917555 -0.047008189 0 231 246
3.571611281 -50.753541338 -0.042074463 0 231 246
3.569059045 -50.850206034 -0.037798436 0 231 246
3.569568735 -50.947416417 -0.042024834 0 231 246
3.573801870 -51.045294422 -0.056590908 0 231 246
3.577714590 -51.143118978 -0.070266020 0 231 246
3.577743117 -51.240249097 -0.073152723 0 231 246
3.574623788 -51.336812949 -0.067295913 0 231 246
3.570777788 -51.433243991 -0.059419749 0 231 246
3.567515747 -51.529778494 -0.053164169 0 231 246
3.565192050 -51.626481380 -0.049513412 0 231 246
3.564313279 -51.723445764 -0.049874419 0 231 246
3.564128323 -51.820536563 -0.052161176 0 231 246
3.561311748 -51.917147858 -0.047138003 0 231 246
3.554769067 -52.013076508 -0.031765107 0 231 243
3.549015039 -52.109145396 -0.018581273 0 231 243
3.547049266 -52.205906158 -0.015917383 0 231 243
3.546248991 -52.302880616 -0.016489278 0 231 243
3.544463146 -52.399673521 -0.014322744 0 231 243
3.544133628 -52.496734886 -0.016199746 0 231 243
3.546730243 -52.594338506 -0.026202483 0 231 243
3.550458562 -52.692154849 -0.039347244 0 231 246
3.552518916 -52.789664743 -0.047858357 0 231 246
3.550989245 -52.886508203 -0.046397512 0 231 246
3.546629673 -52.982822988 -0.037075778 0 231 246
3.543946672 -53.079448810 -0.032409303 0 231 243
3.546464203 -53.177048145 -0.042185567 0 231 246
3.550659032 -53.274965229 -0.056619240 0 231 246
3.553234439 -53.372581511 -0.066554014 0 231 246
3.554859713 -53.470021353 -0.073848758 0 231 246
3.555263416 -53.567232361 -0.077749547 0 231 246
3.554061471 -53.664140396 -0.077189613 0 231 246
3.552583586 -53.760995919 -0.075862096 0 231 246
3.551866764 -53.857995779 -0.076647210 0 231 246
3.550936072 -53.954955112 -0.076837144 0 231 246
3.548177849 -54.051565621 -0.071950010 0 231 246
3.543456338 -54.147799231 -0.061608700 0 231 246
3.539094038 -54.244098831 -0.052263858 0 231 246
3.536808966 -54.340794789 -0.048687263 0 231 246
3.535343805 -54.437647543 -0.047386775 0 231 246
3.532548970 -54.534243548 -0.042391932 0 231 246
3.529941112 -54.630874300 -0.037915217 0 231 246
3.530758953 -54.728167004 -0.042952254 0 231 246
3.534393076 -54.826007397 -0.055810437 0 231 246
3.537222299 -54.923694911 -0.066431876 0 231 246
3.535670758 -55.020532238 -0.064884458 0 231 246
3.531331559 -55.116825190 -0.055593008 0 231 246
3.525321991 -55.212788995 -0.041660784 0 231 246
3.528462397 -55.310541407 -0.053141950 0 231 246
3.526736127 -55.407341762 -0.051104466 0 231 246
3.529015005 -55.504929236 -0.060190411 0 231 246
3.523798687 -55.601042297 -0.048456682 0 231 246
3.526158187 -55.698647848 -0.057764263 0 231 246
3.525870375 -55.795732291 -0.059717541 0 231 246
3.524863525 -55.892674766 -0.059672452 0 231 246
3.523578856 -55.989562063 -0.058854520 0 231 246
3.531110972 -56.088203434 -0.082525101 0 231 246
3.528259255 -56.184781280 -0.077352202 0 231 246
3.524579722 -56.281192353 -0.069878733 0 231 246
3.519889286 -56.377399059 -0.059596118 0 231 246
3.517272568 -56.474018726 -0.055072339 0 231 246
3.517894692 -56.571287812 -0.059543768 0 231 246
3.518705333 -56.668596089 -0.064537688 0 231 246
3.518873554 -56.765776204 -0.067746028 0 231 246
3.521308854 -56.863415270 -0.077250433 0 231 246
3.527335216 -56.961783918 -0.096728558 0 231 246
3.523067217 -57.058070112 -0.087611027 0 231 246
3.525316968 -57.155678195 -0.096596638 0 231 246
3.525309147 -57.252829170 -0.099310247 0 231 246
3.522044793 -57.349316677 -0.092976974 0 231 246
3.520973275 -57.446250552 -0.092733589 0 231 246
3.509757664 -57.541107499 -0.064311451 0 231 246
3.500325783 -57.636322472 -0.040842700 0 231 246
3.490619249 -57.731474516 -0.016609707 0 231 243
3.472484529 -57.824884579 0.031036152 0 231 243
3.441681319 -57.915668265 0.113873880 0 232 240
3.397665271 -58.003698450 0.233416260 0 233 234
3.362332553 -58.093493378 0.328840286 0 233 231
3.331188354 -58.184130717 0.412631339 0 234 228
3.320267750 -58.278947635 0.440245974 0 234 225
3.332417861 -58.378560230 0.403774618 0 234 228
3.340287143 -58.477290017 0.379195866 0 234 228
3.340800282 -58.574489422 0.375052600 0 234 228
3.335603871 -58.670494679 0.386770928 0 234 228
3.328751662 -58.766149425 0.403090116 0 234 228
3.324048772 -58.862251284 0.413439984 0 234 228
3.326493732 -58.959854955 0.403935024 0 234 228
3.334089062 -59.058547429 0.380123924 0 234 228
3.340764450 -59.157052145 0.358869416 0 234 228
3.343586196 -59.254747102 0.348321093 0 233 231
3.341581835 -59.351421652 0.351180463 0 233 231
3.336692971 -59.447482679 0.362053977 0 234 228
3.332372602 -59.543661693 0.371349481 0 234 228
3.327959728 -59.639818427 0.380903179 0 234 228
3.324775649 -59.736234980 0.387044559 0 234 228
3.330661828 -59.834590563 0.367990264 0 234 228
3.336465259 -59.932933698 0.349166933 0 233 231
3.339609230 -60.030710982 0.337732603 0 233 231
3.342579110 -60.128453997 0.326783016 0 233 231
3.345449583 -60.226178635 0.316110696 0 233 231
3.346357836 -60.323482626 0.310890534 0 233 231
3.342792479 -60.419820568 0.318099210 0 233 231
3.337929069 -60.515875301 0.328915100 0 233 231
3.333774005 -60.612080797 0.337764422 0 233 231
3.329648810 -60.708290356 0.346531989 0 233 231
3.325097581 -60.804404711 0.356484312 0 233 231
3.318494018 -60.900068524 0.372139335 0 234 228
3.307830144 -60.994840528 0.399075381 0 234 228
3.308093069 -61.091997650 0.395657430 0 234 228
3.306566998 -61.188763326 0.397210586 0 234 228
3.302804809 -61.285037246 0.404977029 0 234 228
3.296551613 -61.380760727 0.419664910 0 234 228
3.294234887 -61.477348152 0.423418167 0 234 228
3.298548725 -61.575399145 0.408752243 0 234 228
3.302879791 -61.673458028 0.394039570 0 234 228
3.300504771 -61.770034578 0.397958241 0 234 228
3.299016857 -61.866807033 0.399413619 0 234 228
3.299577576 -61.964034766 0.395178820 0 234 228
3.297795017 -62.060741594 0.397455102 0 234 228
3.293441182 -62.156873926 0.406875930 0 234 228
3.290833008 -62.253393959 0.411448274 0 234 228
3.293645865 -62.351126839 0.400961355 0 234 228
3.300348108 -62.449735202 0.379670231 0 234 228
3.305711805 -62.548048669 0.362098890 0 234 228
3.303803002 -62.644729887 0.364732872 0 234 228
3.295082044 -62.739874275 0.386293411 0 234 228
3.283633141 -62.834396521 0.415433998 0 234 228
3.278127728 -62.930255536 0.428063742 0 234 228
3.288015263 -63.029599904 0.397929981 0 234 228
3.296141654 -63.128552789 0.372690101 0 234 228
3.295127200 -63.225433875 0.372846480 0 234 228
3.292507239 -63.321949199 0.377464482 0 234 228
3.293879575 -63.419374264 0.370992175 0 234 228
3.297937007 -63.517414882 0.357061197 0 233 231
3.299383007 -63.614861473 0.350386500 0 233 231
3.299067754 -63.711906005 0.348606131 0 233 231
3.295023560 -63.808094418 0.357186852 0 233 231
3.285757459 -63.903078863 0.380276601 0 234 228
3.274613945 -63.997624204 0.408583617 0 234 228
3.268097964 -64.093230138 0.424035398 0 234 228
3.271529242 -64.191132267 0.411852101 0 234 228
3.275767341 -64.289224691 0.397428341 0 234 228
3.276477092 -64.386502437 0.392808481 0 234 228
3.275117834 -64.483300612 0.393938102 0 234 228
3.276444539 -64.580723797 0.387606464 0 234 228
3.278520871 -64.678323563 0.379193270 0 234 228
3.274180205 -64.774426857 0.388609687 0 234 228
3.260800680 -64.868412877 0.423140270 0 234 228
3.250172112 -64.963034023 0.450029144 0 234 225
3.247252035 -65.059457127 0.455502447 0 234 225
3.249483867 -65.157090005 0.446663104 0 234 225
3.253131083 -65.255058669 0.433892447 0 234 228
3.253373663 -65.352227814 0.430582232 0 234 228
3.248526015 -65.448195270 0.441415732 0 234 225
3.242296916 -65.543832836 0.456088664 0 234 225
3.240347468 -65.640480782 0.458872297 0 234 225
3.243666473 -65.738378802 0.447019257 0 234 225
3.245444279 -65.835913631 0.439449410 0 234 225
3.241614084 -65.932114839 0.447462016 0 234 225
3.237645868 -66.028280928 0.455859315 0 234 225
3.238420567 -66.125578062 0.451079996 0 234 225
3.246004106 -66.224506165 0.427383958 0 234 228
3.256080789 -66.324038516 0.396761980 0 234 228
3.255145560 -66.420935328 0.396736937 0 234 228
3.247444182 -66.516204970 0.415512428 0 234 228
3.241634528 -66.611925116 0.429033125 0 234 228
3.237690051 -66.708091542 0.437372745 0 234 225
3.231877188 -66.803804200 0.450904829 0 234 225
3.220517053 -66.898170532 0.479851129 0 234 225
3.212843472 -66.993422557 0.498555723 0 234 225
3.209111879 -67.089626547 0.506308794 0 234 225
3.215955015 -67.188400028 0.484681177 0 234 225
3.222669802 -67.287148262 0.463411272 0 234 225
3.246084253 -67.389976340 0.395742385 0 234 228
3.261904041 -67.490967510 0.349176335 0 233 231
3.266342442 -67.589186329 0.334234562 0 233 231
