ply
format ascii 1.0
comment coordinate_system ground
comment units millimeter
element vertex 1448
property double x
property double y
property double z
property uchar red
property uchar green
property uchar blue
comment color_mapping zg_high_contrast_from_zg
comment color_zg_range_mm -0.190914293 0.484413273
end_header
6.419359356 147.083937224 0.170455419 242 235 0
6.419479895 146.987458768 0.165088763 241 237 0
6.421334356 146.892018512 0.154949074 239 240 0
6.423437482 146.796724705 0.144125573 238 244 0
6.422632444 146.699687104 0.141309862 237 246 0
6.419597129 146.601314609 0.144635659 238 244 0
6.416634297 146.502986655 0.147762861 238 243 0
6.414038846 146.404879375 0.149879520 238 242 0
6.410826866 146.306404790 0.153694651 239 241 0
6.406670558 146.207367976 0.160110827 240 238 0
6.402069459 146.108067941 0.167752685 241 236 0
6.398874557 146.009608436 0.171523773 242 234 0
6.399396575 145.913364243 0.165061691 241 237 0
6.403226317 145.819087545 0.149492961 238 242 0
6.406885709 145.724705496 0.134394048 236 247 0
6.407959778 145.628782567 0.126414441 234 250 0
6.407189637 145.531762021 0.123513635 234 251 0
6.405025796 145.433913453 0.124451250 234 251 0
6.400869895 145.334883403 0.130874922 235 249 0
6.395140231 145.234922189 0.141632964 237 245 0
6.389277163 145.134885178 0.152759395 239 241 0
6.384610306 145.035559963 0.160593085 240 238 0
6.382010690 144.937460699 0.162735563 241 237 0
6.381879626 144.840822395 0.158081700 240 239 0
6.381804980 144.744216448 0.153273377 239 241 0
6.380435310 144.646844483 0.152031908 239 241 0
6.379152469 144.549523726 0.150552279 238 242 0
6.378397060 144.452514014 0.147621229 238 243 0
6.377036395 144.355146947 0.146357744 238 244 0
6.375098588 144.257439781 0.146684434 238 244 0
6.374625189 144.160595259 0.142979585 237 245 0
6.371724821 144.062321908 0.145958738 238 244 0
6.364842659 143.961708181 0.159903514 240 239 0
6.364640276 143.865024110 0.155455209 239 240 0
6.359889456 143.765667855 0.163532948 241 237 0
6.357936692 143.667956338 0.163906600 241 237 0
6.356545214 143.570574434 0.162735555 241 237 0
6.352658966 143.471730196 0.168435470 242 235 0
6.346373167 143.371482247 0.180744242 243 232 0
6.340184981 143.271295137 0.192785287 246 227 0
6.336807224 143.172755783 0.197088005 247 225 0
6.337973835 143.076874693 0.188877297 245 229 0
6.342724739 142.983085763 0.170796856 242 234 0
6.345858078 142.888347698 0.157171717 239 240 0
6.342718409 142.789945938 0.160822458 240 238 0
6.338425315 142.690872915 0.167650593 241 236 0
6.335563204 142.592635960 0.170538958 242 234 0
6.333400011 142.494807121 0.171503539 242 234 0
6.330602839 142.396609898 0.174215013 242 234 0
6.328518650 142.298828394 0.174963947 242 234 0
6.328661553 142.202341810 0.169580503 242 235 0
6.328825755 142.105866419 0.164139294 241 237 0
6.327464858 142.008504591 0.162899086 241 237 0
6.325015467 141.910511327 0.164657542 241 237 0
6.322139073 141.812271327 0.167592944 241 236 0
6.318005713 141.713304277 0.173991060 242 234 0
6.312258578 141.613405040 0.184834624 244 230 0
6.307233778 141.513927013 0.193689896 246 227 0
6.304384254 141.415709419 0.196555316 246 226 0
6.304541655 141.319230295 0.191140345 245 228 0
6.307497150 141.224365632 0.178019993 243 233 0
6.311740115 141.130240568 0.161354589 240 238 0
6.315783090 141.035995893 0.145240758 238 244 0
6.317826812 140.940594977 0.134633965 236 247 0
6.315676436 140.842776115 0.135579290 236 247 0
6.308819813 140.742249344 0.149487477 238 242 0
6.300064345 140.640634648 0.168626576 242 235 0
6.294597049 140.540915421 0.178710488 243 232 0
6.293893870 140.443935650 0.175673963 242 234 0
6.293704157 140.347250081 0.171224144 242 234 0
6.293046861 140.250295391 0.168063077 242 235 0
6.290411248 140.152206120 0.170351769 242 235 0
6.284965140 140.052507815 0.180382369 243 232 0
6.281708381 139.954065927 0.184383891 244 230 0
6.283163383 139.858321001 0.175408687 242 234 0
6.286570466 139.763689936 0.161057647 240 238 0
6.287438064 139.667604353 0.153702047 239 241 0
6.284952846 139.569602782 0.155582216 239 240 0
6.285698857 139.473445682 0.148563316 238 243 0
6.291706837 139.380287269 0.127051731 234 250 0
6.298834193 139.287761070 0.102457643 218 255 6
6.300375202 139.192047391 0.093251442 204 255 12
6.293570892 139.091582622 0.107032811 222 255 4
6.284487808 138.989826120 0.127092076 234 250 0
6.278908549 138.890066653 0.137501318 236 246 0
6.277620279 138.792747261 0.136092152 236 247 0
6.274020412 138.694115915 0.141051228 237 246 0
6.265271699 138.592566119 0.160193911 240 238 0
6.257493861 138.491572192 0.176663450 243 233 0
6.263276440 138.398263552 0.155781294 239 240 0
6.261688212 138.300777563 0.155203227 239 240 0
6.258232754 138.202235592 0.159769544 240 239 0
6.254669917 138.103634513 0.164632654 241 237 0
6.251632133 138.005331688 0.168050461 242 235 0
6.247762283 137.906560448 0.173761294 242 234 0
6.244478066 137.808121472 0.177859937 243 233 0
6.244997264 137.711828030 0.171482497 242 234 0
6.248371881 137.617141740 0.157240212 239 240 0
6.249144107 137.520986799 0.150167496 238 242 0
6.248535993 137.424053681 0.146898083 238 243 0
6.247414381 137.326831302 0.145044136 238 244 0
6.241923914 137.227154221 0.155226137 239 240 0
6.232889803 137.125490733 0.175171036 242 234 0
6.224931146 137.024436480 0.192154497 246 227 0
6.221002118 136.925646588 0.198038391 247 225 0
6.220999737 136.829058761 0.193106230 246 227 0
6.224863295 136.734634528 0.177525079 243 233 0
6.228978939 136.640347383 0.161250268 240 238 0
6.229683838 136.544148924 0.154372274 239 241 0
6.228957977 136.447149421 0.151436697 238 242 0
6.229815622 136.351033675 0.144139707 238 244 0
6.232672285 136.256031744 0.131336552 235 248 0
6.235486016 136.161002675 0.118652496 233 253 0
6.236073485 136.064729835 0.112102410 229 255 1
6.233478603 135.966683339 0.114320343 232 255 0
6.230562355 135.868458953 0.117424606 233 254 0
6.229411238 135.771217387 0.115667017 233 254 0
6.228531081 135.674126257 0.113163890 232 255 0
6.222965952 135.574432936 0.123568707 234 251 0
6.212484553 135.472014403 0.147518905 238 243 0
6.205061280 135.371298854 0.163045157 241 237 0
6.206633585 135.275573443 0.153789490 239 241 0
6.213449601 135.182749982 0.130088051 235 249 0
6.216667718 135.087929037 0.116299737 233 254 0
6.212278229 134.988897035 0.123471725 234 251 0
6.206647375 134.889181257 0.134064827 236 247 0
6.201632647 134.789809043 0.142961517 237 245 0
6.194676218 134.689367933 0.157208882 239 240 0
6.185709284 134.587822195 0.176996570 243 233 0
6.178135459 134.487050111 0.192947222 246 227 0
6.174929153 134.388688385 0.196865799 246 226 0
6.173163891 134.291121258 0.196815056 246 226 0
6.172536419 134.194180287 0.193630453 246 227 0
6.176045022 134.099512196 0.179051051 243 232 0
6.184006617 134.007286340 0.152203489 239 241 0
6.192256094 133.915211438 0.124563424 234 251 0
6.193395404 133.819229229 0.116514311 233 254 0
6.189973968 133.720745247 0.121032137 233 252 0
6.186173632 133.622055317 0.126594957 234 250 0
6.182607686 133.523495571 0.131512989 235 248 0
6.179648617 133.425269489 0.134759912 236 247 0
6.178312615 133.327931841 0.133535764 235 248 0
6.177314904 133.230778989 0.131380469 235 248 0
6.173666111 133.132178796 0.136530785 236 246 0
6.168619865 133.032818105 0.145532625 238 244 0
6.165774398 132.934659875 0.148471542 238 243 0
6.161361243 132.835648871 0.155731066 239 240 0
6.160642745 132.738651338 0.152811333 239 241 0
6.150174387 132.636349914 0.176757572 243 233 0
6.143742673 132.536249651 0.189582303 245 228 0
6.145750430 132.440737512 0.179153540 243 232 0
6.156743509 132.350100162 0.143966834 237 245 0
6.160441538 132.255496408 0.128882136 235 249 0
6.162038886 132.159750173 0.119586678 233 253 0
6.163412150 132.063880348 0.110909561 229 255 1
6.156332313 131.963432922 0.125526101 234 251 0
6.152854891 131.864938460 0.130217153 235 249 0
6.148891555 131.766183000 0.136248192 236 246 0
6.143557495 131.666689168 0.146057404 238 244 0
6.137094289 131.566588927 0.158979158 240 239 0
6.129210645 131.465726446 0.175816194 243 233 0
6.122043016 131.365254906 0.190681318 245 228 0
6.118786084 131.266894229 0.194771120 246 226 0
6.119987786 131.170934874 0.186575509 245 229 0
6.124679581 131.076850813 0.168763256 242 235 0
6.131056498 130.983667921 0.146308131 238 244 0
6.134873707 130.889104360 0.130907514 235 249 0
6.134447236 130.792259225 0.127202051 234 250 0
6.131569149 130.694098521 0.130253500 235 249 0
6.127221172 130.595151212 0.137356590 236 246 0
6.122621136 130.496071228 0.145155346 238 244 0
6.119184231 130.397616268 0.149749840 238 242 0
6.116824164 130.299738854 0.151377829 238 242 0
6.115365070 130.202343768 0.150523912 238 242 0
6.115315945 130.105701818 0.145785353 238 244 0
6.116239363 130.009577951 0.138367556 236 246 0
6.118070385 129.913936424 0.128449444 235 249 0
6.120817227 129.818780581 0.116008338 233 254 0
6.122895502 129.723265630 0.105410556 222 255 4
6.121398400 129.625845449 0.104666972 222 255 4
6.115924536 129.526310670 0.114883921 232 255 0
6.107532230 129.425228223 0.133144941 235 248 0
6.098061371 129.323578452 0.154379552 239 241 0
6.093718244 129.224655875 0.161483616 240 238 0
6.093048310 129.127683360 0.158465563 240 239 0
6.090329993 129.029624989 0.161093748 240 238 0
6.086799069 128.931137438 0.165962479 241 236 0
6.087688162 128.834990299 0.158650649 240 239 0
6.089792198 128.739483891 0.147991314 238 243 0
6.088125581 128.641982666 0.147724897 238 243 0
6.083430128 128.542882589 0.155807075 239 240 0
6.078662476 128.443747020 0.164089308 241 237 0
6.075923499 128.345683651 0.166781420 241 236 0
6.072637494 128.247333201 0.170982204 242 234 0
6.071531483 128.150131946 0.169175710 242 235 0
6.076125121 128.055928987 0.151661245 238 242 0
6.079890944 127.961286388 0.136429144 236 246 0
6.081941786 127.865739057 0.125924612 234 250 0
6.080347872 127.768275952 0.125466506 234 251 0
6.074832165 127.668755913 0.135818556 236 247 0
6.068489240 127.568805502 0.148451671 238 243 0
6.071816229 127.473923950 0.134433574 236 247 0
6.066757672 127.374649829 0.143528775 237 245 0
6.061706046 127.275382218 0.152605952 239 241 0
6.058515865 127.177090366 0.156553590 239 240 0
6.059585761 127.081024879 0.148760326 238 243 0
6.062865589 126.986110948 0.134876760 236 247 0
6.064767922 126.890475186 0.124790816 234 251 0
6.063671378 126.793274221 0.122971601 233 252 0
6.058194550 126.693792114 0.133226856 235 248 0
6.051566097 126.593713947 0.146657481 238 244 0
6.047641203 126.495045674 0.152637252 239 241 0
6.044400647 126.396735012 0.156731781 239 240 0
6.040497922 126.298082043 0.162652535 241 237 0
6.040240237 126.201322289 0.158527136 240 239 0
6.044911044 126.107117015 0.140817688 237 246 0
6.053902085 126.015145466 0.111200604 229 255 1
6.059867154 125.921599567 0.089925123 200 255 14
6.048486288 125.819074745 0.116463819 233 254 0
6.035045232 125.715492633 0.148682651 238 243 0
6.029572969 125.616036158 0.158936902 240 239 0
6.030952491 125.520119646 0.150305254 238 242 0
6.034816559 125.425482658 0.134825798 236 247 0
6.035453124 125.329178260 0.128243891 234 250 0
6.032611645 125.231081099 0.131250306 235 248 0
6.030041686 125.133124887 0.133509278 235 248 0
6.030177728 125.036561314 0.128309953 235 249 0
6.031991742 124.940858992 0.118486070 233 253 0
6.031257761 124.843845901 0.115686898 233 254 0
6.027319758 124.745188319 0.121720972 233 252 0
6.024855749 124.647288583 0.123692827 234 251 0
6.028393593 124.552464974 0.109120657 226 255 3
6.035782520 124.459609456 0.083933166 193 255 17
6.040090698 124.365171214 0.067239043 167 255 28
6.036836903 124.266862812 0.071391804 175 255 25
6.028896679 124.166161864 0.088464737 197 255 16
6.021263100 124.065622546 0.104693509 222 255 4
6.015792963 123.966191647 0.114959390 232 255 0
6.010953934 123.867085648 0.123486560 234 251 0
6.005591890 123.767716002 0.133456644 235 248 0
5.999211519 123.667831214 0.146235136 238 244 0
5.992898091 123.567984385 0.158830204 240 239 0
5.988775408 123.469254731 0.165386918 241 236 0
5.988107917 123.372281848 0.162419313 240 238 0
5.991911712 123.277577387 0.147126022 238 243 0
5.996811804 123.183424965 0.128811224 235 249 0
5.996639666 123.086697942 0.124480724 234 251 0
5.990385361 122.986890793 0.136919031 236 246 0
5.981676765 122.885845824 0.156124711 239 240 0
5.974204466 122.785431525 0.171923216 242 234 0
5.970744150 122.687048607 0.176662109 243 233 0
5.972022048 122.591059064 0.168339036 242 235 0
5.975144773 122.495998112 0.154930744 239 240 0
5.975790037 122.399685198 0.148353609 238 243 0
5.973180554 122.301731695 0.150750709 238 242 0
5.970410579 122.203698477 0.153591307 239 241 0
5.970615479 122.107162381 0.148231132 238 243 0
5.974157343 122.012301954 0.133671762 236 247 0
5.977182583 121.917178501 0.120537592 233 252 0
5.977832285 121.820859958 0.113953790 232 255 0
5.976745777 121.723669559 0.112157783 229 255 1
5.975314954 121.626306567 0.111312058 229 255 1
5.975671725 121.529838562 0.105538729 222 255 4
5.977077313 121.433893970 0.096874613 211 255 9
5.976112773 121.336762749 0.094746173 207 255 11
5.971435371 121.237776994 0.102855637 218 255 6
5.966341274 121.138585916 0.112115082 229 255 1
5.971611357 121.044566143 0.092799678 204 255 12
5.967187435 120.945710963 0.100213355 215 255 8
5.960793046 120.845877100 0.113061103 232 255 0
5.957042735 120.747362694 0.118619660 233 253 0
5.957523242 120.650953577 0.112513882 232 255 0
5.958522580 120.554800909 0.104978487 222 255 4
5.957758042 120.457770981 0.102307495 218 255 6
5.954863217 120.359684066 0.105511281 222 255 4
5.950458832 120.260850246 0.112878410 232 255 0
5.946340587 120.162160566 0.119457636 233 253 0
5.944197203 120.064450394 0.120592586 233 252 0
5.943917383 119.967662440 0.116590058 233 254 0
5.943767118 119.870937792 0.112231255 229 255 1
5.943098808 119.773956562 0.109301851 226 255 3
5.940844593 119.676192520 0.110746368 229 255 1
5.936855250 119.577573915 0.116976347 233 254 0
5.934062238 119.479546721 0.119908607 233 253 0
5.933057809 119.382401081 0.117909999 233 253 0
5.933684583 119.286057551 0.111414414 229 255 1
5.934331549 119.189722548 0.104864083 222 255 4
5.933630597 119.092724222 0.102031531 218 255 6
5.933537557 118.996023803 0.097523641 211 255 9
5.934949219 118.900060296 0.088867474 200 255 14
5.936485915 118.804156053 0.079867435 186 255 20
5.936060667 118.707289274 0.076278429 182 255 22
5.932217712 118.608750100 0.082114884 189 255 19
5.925756344 118.508933113 0.095172841 207 255 11
5.918417334 118.408691491 0.110652107 229 255 1
5.911623965 118.308720826 0.124627879 234 251 0
5.908486526 118.210537183 0.128523182 235 249 0
5.909057278 118.114161853 0.122193734 233 252 0
5.910772938 118.018342602 0.112707982 232 255 0
5.911502165 117.922041239 0.105943369 222 255 4
5.909896661 117.824603465 0.105618097 222 255 4
5.908044270 117.727046080 0.105974659 222 255 4
5.907982851 117.630358447 0.101393272 215 255 8
5.909792922 117.534577571 0.091651811 204 255 12
5.910454160 117.438237693 0.085079416 193 255 17
5.905755185 117.339300931 0.093290026 204 255 12
5.899230400 117.239483457 0.106536861 222 255 4
5.894507200 117.140541016 0.114816487 232 255 0
5.891775118 117.042563111 0.117606132 233 254 0
5.889567503 116.944839532 0.118950435 233 253 0
5.887316016 116.847095567 0.120416750 233 252 0
5.885795779 116.749704818 0.119867422 233 253 0
5.886051420 116.653169488 0.114421502 232 255 0
5.888871409 116.557866932 0.101904424 218 255 6
5.893724672 116.463538890 0.083780709 193 255 17
5.896722516 116.368314899 0.070774845 175 255 25
5.895837256 116.271223743 0.068479061 171 255 27
5.891436563 116.172446207 0.075879524 182 255 22
5.882828490 116.071654685 0.094884730 207 255 11
5.874827380 115.971159478 0.112217172 229 255 1
5.872555279 115.873410792 0.113750432 232 255 0
5.872599904 115.776770605 0.108895247 226 255 3
5.873602945 115.680587357 0.101397716 215 255 8
5.874592913 115.584396203 0.093937168 204 255 12
5.873464745 115.487193093 0.092319404 204 255 12
5.876253108 115.391856547 0.079900714 186 255 20
5.863785709 115.289251947 0.109559001 226 255 3
5.854028351 115.187945474 0.131744149 235 248 0
5.852766699 115.090684851 0.130498738 235 249 0
5.859787581 114.997359103 0.106410348 222 255 4
5.873945894 114.907415199 0.062636927 164 255 30
5.879548227 114.813401414 0.042462467 135 255 43
5.886550548 114.720045965 0.018427449 102 255 57
5.882200726 114.621308473 0.025704081 113 255 52
5.877583306 114.522446779 0.033719877 124 255 48
5.865411096 114.420015885 0.062574218 164 255 30
5.854838676 114.318349119 0.087017346 197 255 16
5.849171037 114.219004703 0.097933344 211 255 9
5.848797064 114.122160450 0.094249361 207 255 11
5.852441002 114.027209093 0.079484004 186 255 20
5.858804680 113.933534756 0.057217776 156 255 33
5.866297322 113.840385863 0.031838342 120 255 49
5.869349502 113.745142806 0.018707686 102 255 57
5.862875846 113.645421838 0.031852960 120 255 49
5.850909566 113.543126878 0.060149736 160 255 32
5.840986333 113.441798293 0.082812439 189 255 19
5.836044029 113.342810443 0.091737306 204 255 12
5.834301956 113.245323879 0.091835912 204 255 12
5.832832620 113.147965349 0.091183225 200 255 14
5.830155450 113.050042438 0.093863209 204 255 12
5.827208173 112.951994518 0.097289295 211 255 9
5.826785134 112.855126008 0.093753543 204 255 12
5.829879804 112.759897298 0.080515427 186 255 20
5.831090124 112.663787359 0.072476051 175 255 25
5.827614738 112.565494161 0.077362912 182 255 22
5.823967055 109.663211053 -0.053118244 4 255 100
5.519057707 92.706402135 -0.008926587 62 255 75
5.521122252 92.610472308 -0.019121526 51 255 80
5.522957714 92.514451424 -0.028682925 36 255 86
5.525549360 92.418720737 -0.040331533 22 255 92
5.526348990 92.322294995 -0.047030642 11 255 97
5.523736930 92.224551171 -0.044307493 15 255 96
5.517903176 92.125566420 -0.032686610 29 255 89
5.512565512 92.026776382 -0.022434508 44 255 83
5.510987694 91.929436327 -0.022564114 44 255 83
5.513031479 91.833488814 -0.032693829 29 255 89
5.516552654 91.738106280 -0.046902473 11 255 97
5.519391233 91.642458382 -0.059225187 0 254 108
5.520063868 91.545977396 -0.065565573 0 253 114
5.518224856 91.448533439 -0.064968853 0 253 114
5.515050499 91.350579311 -0.060683390 0 254 108
5.512352644 91.252808873 -0.057712743 0 254 105
5.510352093 91.155305869 -0.056666714 0 254 105
5.508216620 91.057752129 -0.055247012 0 255 102
5.506017074 90.960174800 -0.053649301 4 255 100
5.501448188 90.861696596 -0.045507189 15 255 96
5.493761453 90.762035637 -0.028753424 36 255 86
5.487240437 90.662822505 -0.015217802 55 255 78
5.482314150 90.564218651 -0.006085171 69 255 72
5.482222668 90.467450447 -0.010303808 62 255 75
5.489171162 90.373347426 -0.033964032 29 255 89
5.497318721 90.279691910 -0.060934973 0 254 108
5.499843964 90.183904589 -0.072377598 0 251 123
5.495724230 90.085605797 -0.065467296 0 253 114
5.489170284 89.986391258 -0.051833065 4 255 100
5.483874364 89.887654908 -0.041672078 18 255 94
5.479077551 89.789109653 -0.032888377 29 255 89
5.475610567 89.691067286 -0.027776311 36 255 86
5.479831651 89.595914651 -0.043896475 15 255 96
5.478278957 89.498591373 -0.044069330 15 255 96
5.477577336 89.401587519 -0.046591697 11 255 97
5.477775119 89.304920213 -0.051597102 4 255 100
5.479587866 89.208856124 -0.061061895 0 254 108
5.483508149 89.113577494 -0.076346593 0 251 126
5.482481099 89.016448007 -0.077966150 0 250 129
5.476066521 88.917309146 -0.064704560 0 253 114
5.468423689 88.817716749 -0.048049379 11 255 97
5.462523234 88.718777894 -0.036205387 25 255 91
5.461984099 88.621836184 -0.039168178 22 255 92
5.465675556 88.526465491 -0.053814893 0 255 102
5.468389967 88.430728642 -0.065762080 0 253 114
5.468714242 88.334102956 -0.071106680 0 252 120
5.467258505 88.236817092 -0.071533790 0 252 120
5.464251338 88.138957642 -0.067674692 0 252 117
5.461103382 88.041047659 -0.063425625 0 253 111
5.460115213 87.943936566 -0.065141008 0 253 114
5.461986970 87.847880082 -0.074754789 0 251 123
5.465181037 87.752308496 -0.088020001 0 249 138
5.466637864 87.656094357 -0.096485792 0 247 150
5.464437579 87.558533858 -0.094849104 0 247 147
5.457795138 87.459342880 -0.080941357 0 250 132
5.449476244 87.359541140 -0.062401739 0 253 111
5.443942502 87.260765654 -0.051554014 4 255 100
5.441354350 87.163071975 -0.048841468 7 255 99
5.439746571 87.065738013 -0.048835848 7 255 99
5.437071625 86.968014603 -0.045881400 11 255 97
5.433801087 86.870075071 -0.041280689 18 255 94
5.432588904 86.772887662 -0.042364603 18 255 94
5.434753628 86.676930231 -0.052775446 4 255 100
5.439951597 86.582073888 -0.071564067 0 252 120
5.445518547 86.487346885 -0.091371065 0 248 144
5.447409265 86.391280182 -0.101022255 0 246 153
5.442489769 86.292741386 -0.091860362 0 248 144
5.431639220 86.192056799 -0.066313642 0 253 114
5.422933787 86.092156023 -0.046691201 11 255 97
5.418037852 85.993638321 -0.037590795 25 255 91
5.415445741 85.895955569 -0.034853314 29 255 89
5.413915500 85.798657084 -0.035048070 29 255 89
5.411367814 85.700992302 -0.032431151 33 255 88
5.407879201 85.602989937 -0.027213893 40 255 84
5.405453818 85.505371796 -0.024932650 40 255 84
5.405985608 85.408817036 -0.030819421 33 255 88
5.409723887 85.313411745 -0.045563063 15 255 96
5.413364185 85.217967687 -0.060035129 0 254 108
5.413477127 85.121256937 -0.064761921 0 253 114
5.409373292 85.023036917 -0.057838748 0 254 105
5.403954483 84.924349354 -0.047281777 11 255 97
5.400790958 84.826470154 -0.042953984 18 255 94
5.400296402 84.729544243 -0.045998292 11 255 97
5.398543489 84.632169707 -0.045565260 15 255 96
5.394298835 84.533909143 -0.038247485 22 255 92
5.392054288 84.436361910 -0.036454093 25 255 91
5.396769679 84.341286670 -0.053887323 0 255 102
5.406518146 84.247992079 -0.085224246 0 249 135
5.414602931 84.154099854 -0.111964251 0 244 168
5.415553808 84.057675994 -0.118994855 0 243 174
5.410564954 83.959150822 -0.109614883 0 244 165
5.404681203 83.860312645 -0.097761425 0 247 150
5.400026603 83.761911754 -0.089302572 0 248 141
5.397016291 83.664093026 -0.085385286 0 249 135
5.396053821 83.566996628 -0.087124551 0 249 138
5.397492275 83.470744363 -0.095495930 0 247 147
5.398225719 83.374242593 -0.101918557 0 246 156
5.395222863 83.276428603 -0.098017609 0 247 150
5.388205022 83.177209000 -0.083022973 0 249 135
5.379535789 83.077415834 -0.063464639 0 253 111
5.383048371 82.981888512 -0.077561257 0 250 129
5.381448732 82.884571912 -0.077532715 0 250 129
5.382595147 82.788213954 -0.085090051 0 249 135
5.384861626 82.692244742 -0.095740992 0 247 147
5.387776818 82.596498881 -0.108183293 0 245 162
5.380891818 82.497341540 -0.093547762 0 247 147
5.388375306 82.403180489 -0.118609843 0 243 174
5.384260443 82.304987927 -0.111625762 0 244 165
5.379330425 82.206515142 -0.102388324 0 246 156
5.377936767 82.109269869 -0.102920519 0 246 156
5.377176708 82.012244028 -0.105202270 0 245 159
5.375073139 81.914753788 -0.103770890 0 246 156
5.372398621 81.817067316 -0.100760899 0 246 153
5.371116117 81.719861989 -0.101595965 0 246 156
5.371750977 81.623317125 -0.107727692 0 245 162
5.371829645 81.526579672 -0.112321638 0 244 168
5.369600948 81.429048561 -0.110539202 0 244 165
5.366579317 81.331246214 -0.106564752 0 245 162
5.364624832 81.233811247 -0.105537808 0 245 159
5.364617038 81.137043642 -0.109888676 0 244 165
5.365354916 81.040530336 -0.116298898 0 243 171
5.362124239 80.942659652 -0.111742520 0 244 165
5.354321550 80.843230165 -0.094551935 0 247 147
5.348324919 80.744421588 -0.082350517 0 250 132
5.345115121 80.646565856 -0.077848388 0 250 129
5.343270888 80.549176310 -0.077118450 0 251 126
5.341698215 80.451879661 -0.077137807 0 251 126
5.339591098 80.354402035 -0.075679322 0 251 126
5.338304997 80.257203579 -0.076488406 0 251 126
5.337068342 80.160022064 -0.077433059 0 251 126
5.334844512 80.062506789 -0.075648847 0 251 126
5.332900990 79.965087138 -0.074638117 0 251 123
5.333147499 79.868407318 -0.079677972 0 250 129
5.333819404 79.771869937 -0.085892307 0 249 138
5.333207081 79.674898816 -0.088556922 0 248 141
5.330419753 79.577195811 -0.085210263 0 249 135
5.325393848 79.478742052 -0.075676562 0 251 126
5.319622160 79.380041069 -0.064080838 0 253 111
5.315114745 79.281767504 -0.055977575 0 255 102
5.314698527 79.184866442 -0.059178680 0 254 108
5.321067648 79.090234248 -0.081129302 0 250 132
5.331594754 78.996985449 -0.114569277 0 243 171
5.340517914 78.903192630 -0.143576150 0 238 204
5.342741433 78.807159222 -0.154068240 0 236 216
5.338360320 78.708924520 -0.146307811 0 237 207
5.331758954 78.609954060 -0.132410646 0 240 189
5.325317673 78.511041031 -0.118954666 0 243 174
5.320128022 78.412547398 -0.108956344 0 245 162
5.316356048 78.314526755 -0.102874609 0 246 156
5.312644721 78.216528286 -0.096959339 0 247 150
5.307933931 78.118201416 -0.088280895 0 248 141
5.302767352 78.019726838 -0.078341696 0 250 129
5.298043144 77.921401347 -0.069623845 0 252 120
5.295468334 77.823786880 -0.066844859 0 253 114
5.293783312 77.726466435 -0.066523786 0 253 114
5.292321608 77.629219906 -0.066818802 0 253 114
5.291175099 77.532077207 -0.067983830 0 252 117
5.289724889 77.434835004 -0.068308481 0 252 117
5.289520613 77.338001271 -0.072075386 0 252 120
5.291222663 77.241790663 -0.081109699 0 250 132
5.294221041 77.146001640 -0.093725664 0 247 147
5.297824589 77.050407102 -0.108013187 0 245 162
5.299824110 76.954286038 -0.117866730 0 243 174
5.296735194 76.856505511 -0.113656307 0 244 168
5.288544088 76.757066871 -0.095343686 0 247 147
5.288323171 76.660223290 -0.099057381 0 246 153
5.282378847 76.561521700 -0.086951923 0 249 138
5.281927537 76.464604406 -0.090026716 0 248 141
5.285524120 76.368997244 -0.104287985 0 245 159
5.280198462 76.270501264 -0.093889025 0 247 147
5.280167326 76.173718708 -0.098121969 0 247 150
5.284194389 76.078244657 -0.113570058 0 244 168
5.279210841 75.979863193 -0.104113309 0 245 159
5.277223510 75.882449111 -0.102936511 0 246 156
5.280044033 75.786581375 -0.115046923 0 243 171
5.288039967 75.692372505 -0.141460636 0 238 201
5.287420781 75.595393785 -0.144062212 0 238 204
5.288522510 75.498966024 -0.151419202 0 236 213
5.280278889 75.399546612 -0.132945314 0 240 192
5.276262419 75.301483577 -0.126153767 0 241 183
5.268725290 75.202299087 -0.109630129 0 244 165
5.268513381 75.105454888 -0.113351944 0 244 168
5.272093719 75.009817616 -0.127554441 0 241 183
5.272145144 74.913054498 -0.132002097 0 240 189
5.266653973 74.814529906 -0.121128914 0 242 177
5.259760017 74.715563659 -0.106377208 0 245 159
5.256664974 74.617805763 -0.102124635 0 246 156
5.257965821 74.521440822 -0.110021431 0 244 165
5.260631052 74.425505442 -0.121688484 0 242 177
5.259978279 74.328519590 -0.124183344 0 242 180
5.253730456 74.229768949 -0.111211882 0 244 165
5.244956414 74.130226574 -0.091256463 0 248 144
5.237282597 74.031036261 -0.074340925 0 251 123
5.231933809 73.932581616 -0.063850848 0 253 111
5.229584046 73.835071508 -0.061649357 0 254 108
5.230976993 73.738735620 -0.069792256 0 252 120
5.232101201 73.642313761 -0.077191318 0 251 126
5.230120776 73.544919456 -0.076007562 0 251 126
5.228627717 73.447678104 -0.076169903 0 251 126
5.230490038 73.351483785 -0.085606197 0 249 138
5.234009738 73.255803637 -0.099622904 0 246 153
5.235299349 73.159426089 -0.107474147 0 245 162
5.233005558 73.061933096 -0.105418913 0 245 159
5.228671997 72.963807917 -0.097724081 0 247 150
5.228607227 72.867008722 -0.101828299 0 246 156
5.242263953 72.774457623 -0.143861951 0 238 204
5.252973830 72.680983975 -0.177748909 0 231 243
4.920247357 52.649262282 -0.116823609 0 243 171
4.859333934 52.538417884 0.047676952 142 255 40
4.876717290 52.445615796 -0.004485571 69 255 72
4.876718760 52.348811088 -0.008547460 66 255 73
4.872277521 52.250987862 -0.000314136 76 255 68
4.870625324 52.153805143 0.000202311 76 255 68
4.873133433 52.057572822 -0.010792932 62 255 75
4.875693462 51.961349667 -0.021930862 47 255 81
4.875707341 51.864544407 -0.026021791 40 255 84
4.873210989 51.767168119 -0.023165013 44 255 83
4.869337668 51.669480697 -0.016496553 55 255 78
4.864982067 51.571686289 -0.008492284 66 255 73
4.860621495 51.473893332 -0.000473080 76 255 68
4.857154227 51.376304527 0.005075184 84 255 65
4.855792199 51.279191857 0.004798549 84 255 65
4.856294732 51.182498784 -0.000637013 76 255 68
4.857223670 51.085900304 -0.007251576 66 255 73
4.857327163 50.989115363 -0.011580734 58 255 76
4.856415253 50.892102406 -0.013098748 58 255 76
4.855252922 50.795033461 -0.013922645 58 255 76
4.854805090 50.698123966 -0.016722818 55 255 78
4.856261928 50.601638025 -0.024793100 40 255 84
4.858393282 50.505300101 -0.034729098 29 255 89
4.858740633 50.408564056 -0.039726813 22 255 92
4.857152542 50.311398399 -0.039367059 22 255 92
4.854710584 50.214044444 -0.036643075 25 255 91
4.850291930 50.116255383 -0.028447315 36 255 86
4.844301031 50.018122583 -0.015899047 55 255 78
4.840300354 49.920431292 -0.008857696 66 255 73
4.838384736 49.823200049 -0.007585811 66 255 73
4.835292568 49.725711673 -0.003056562 73 255 70
4.830511554 49.627855439 0.006147955 84 255 65
4.826474468 49.530164570 0.013294729 95 255 60
4.823673341 49.432745483 0.017021946 98 255 59
4.820475084 49.335241358 0.021849431 106 255 56
4.815896878 49.237439142 0.030497347 116 255 51
4.813892562 49.140197847 0.032022664 120 255 49
4.816454141 49.043945748 0.020911958 106 255 56
4.821311612 48.948187073 0.003447809 80 255 67
4.824131304 48.851984357 -0.008375345 66 255 73
4.823143325 48.754958821 -0.009658773 62 255 75
4.822033060 48.657907002 -0.010602652 62 255 75
4.822796925 48.561257408 -0.016732648 55 255 78
4.823584083 48.464611468 -0.022926073 44 255 83
4.821230436 48.367292658 -0.020425269 47 255 81
4.816790732 48.269529686 -0.012149478 58 255 76
4.813304943 48.171972577 -0.006512794 66 255 73
4.810993210 48.074667051 -0.004124580 69 255 72
4.806495633 47.976898540 0.004314908 84 255 65
4.800040247 47.878717868 0.018174586 102 255 57
4.795132670 47.780868756 0.027751317 113 255 52
4.792899420 47.683587271 0.029926921 116 255 51
4.793291860 47.586860095 0.024835915 109 255 54
4.796068062 47.490633327 0.013147830 95 255 60
4.800215360 47.394691591 -0.002334410 73 255 70
4.801949193 47.298240071 -0.011135290 62 255 75
4.799143549 47.200836733 -0.007369939 66 255 73
4.795359093 47.103230377 -0.000894092 76 255 68
4.793486572 47.006024712 0.000290657 76 255 68
4.790816513 46.908653781 0.003684125 80 255 67
4.784730985 46.810574782 0.016532901 98 255 59
4.788258023 46.714492438 0.002774766 80 255 67
4.784272218 46.616852050 0.009813685 91 255 62
4.779162624 46.518981846 0.019964521 102 255 57
4.774051658 46.421114512 0.030120363 116 255 51
4.772095263 46.323899477 0.031545194 120 255 49
4.772023321 46.227072246 0.027754737 113 255 52
4.771552655 46.130162575 0.025069069 109 255 54
4.770128775 46.033057453 0.025023121 109 255 54
4.766956203 45.935595497 0.029818951 116 255 51
4.764401224 45.838261121 0.032906322 120 255 49
4.764956348 45.741560809 0.027385451 113 255 52
4.768174467 45.645400185 0.014493892 95 255 60
4.771929837 45.549345262 0.000116080 76 255 68
4.775014195 45.453150945 -0.012403255 58 255 76
4.777537783 45.356840268 -0.023369257 44 255 83
4.778237279 45.260159219 -0.029284696 36 255 86
4.776537382 45.162994142 -0.028556897 36 255 86
4.774392794 45.065740315 -0.026596950 40 255 84
4.772984036 44.968634857 -0.026672885 40 255 84
4.770465540 44.871307725 -0.023675608 44 255 83
4.766436278 44.773680120 -0.016494886 55 255 78
4.762921860 44.676157444 -0.010738259 62 255 75
4.759462176 44.578647588 -0.005131992 69 255 72
4.754215586 44.480784893 0.005422263 84 255 65
4.748441577 44.382820958 0.017437829 98 255 59
4.746707521 44.285659597 0.018270397 102 255 57
4.749289600 44.189350689 0.007155206 87 255 64
4.751224190 44.092911508 -0.002166460 73 255 70
4.749137081 43.995679405 -0.000353260 76 255 68
4.741892059 43.897436038 0.015740541 98 255 59
4.734031680 43.799076945 0.033539210 124 255 48
4.731722063 43.701808060 0.035971942 127 255 46
4.733248435 43.605288505 0.027785859 113 255 52
4.737546623 43.509306691 0.011926984 91 255 62
4.744183024 43.413775186 -0.010404357 62 255 75
4.750292789 43.318135725 -0.031276801 33 255 88
4.751053997 43.221455636 -0.037340566 25 255 91
4.746115649 43.123673249 -0.027623659 36 255 86
4.741825548 43.026018857 -0.019700274 47 255 81
4.741539760 42.929137432 -0.022862043 44 255 83
4.742697349 42.832532630 -0.030018892 33 255 88
4.741463686 42.735467939 -0.030554222 33 255 88
4.735796496 42.637555502 -0.018813611 51 255 80
4.726535556 42.538960696 0.002878074 80 255 67
4.718128413 42.440534859 0.022207203 106 255 56
4.713413440 42.342816611 0.031315183 120 255 49
4.712430096 42.245809204 0.030092616 116 255 51
4.715503502 42.149569920 0.017639181 102 255 57
4.720155888 42.053625901 0.000814970 76 255 68
4.721257018 41.957007879 -0.006175812 69 255 72
4.717835795 41.859537169 -0.000644287 76 255 68
4.711988366 41.761612644 0.011605992 91 255 62
4.704605405 41.663404029 0.028109049 116 255 51
4.697938181 41.565334186 0.042631650 135 255 43
4.696900815 41.468319605 0.041567513 135 255 43
4.701185200 41.372296433 0.025769502 113 255 52
4.705272372 41.276232571 0.010518487 91 255 62
4.706570632 41.179647430 0.002990500 80 255 67
4.706522515 41.082811277 -0.000808523 76 255 68
4.709143694 40.986467580 -0.011997425 58 255 76
4.715080407 40.890732429 -0.032365683 33 255 88
4.718886611 40.794599989 -0.046833860 11 255 97
4.717194023 40.697454253 -0.046075379 11 255 97
4.710686063 40.599426748 -0.031982349 33 255 88
4.703948539 40.501361492 -0.017252424 51 255 80
4.700932583 40.403979686 -0.012826112 58 255 76
4.700209313 40.307016889 -0.014747035 55 255 78
4.699506333 40.210057579 -0.016723050 55 255 78
4.697371585 40.112838452 -0.014733411 55 255 78
4.693740157 40.015349404 -0.008598320 66 255 73
4.689386750 39.917732027 -0.000462882 76 255 68
4.693665556 39.821672489 -0.016229209 55 255 78
4.691528349 39.724455409 -0.014228292 55 255 78
4.688416875 39.627064423 -0.009528432 62 255 75
4.684066319 39.529453241 -0.001396303 73 255 70
4.680102879 39.431913787 0.005665058 84 255 65
4.677880472 39.334686966 0.007906483 87 255 64
4.678403324 39.237949407 0.002547072 80 255 67
4.679395760 39.141294043 -0.004111625 69 255 72
4.677129677 39.044060049 -0.001745948 73 255 70
4.671665913 38.946261914 0.009475770 87 255 64
4.666851240 38.848581669 0.018901260 102 255 57
4.664226952 38.751289783 0.022262349 106 255 56
4.661498240 38.653980817 0.025913754 113 255 52
4.659385546 38.556781111 0.027860410 113 255 52
4.660380862 38.460125602 0.021201386 106 255 56
4.663210983 38.363788633 0.009462373 87 255 64
4.664549133 38.267189066 0.001856008 80 255 67
4.663587358 38.170188296 0.000619806 76 255 68
4.660488446 38.072817170 0.005303049 84 255 65
4.655614402 37.975140731 0.014903331 98 255 59
4.649964580 37.877333428 0.026653192 113 255 52
4.645722588 37.779772037 0.034505529 124 255 48
4.645367477 37.682880742 0.031594939 120 255 49
4.647329564 37.586386079 0.022268273 106 255 56
4.645179477 37.489186007 0.024330767 109 255 54
4.637591202 37.391059011 0.041454836 135 255 43
4.629782575 37.292899555 0.059190430 156 255 33
4.626094443 37.195445171 0.065515950 167 255 28
4.627604201 37.098873710 0.057447457 156 255 33
4.631663987 37.002731505 0.042317838 135 255 43
4.632340846 36.906014746 0.036558047 127 255 46
4.626987526 36.808281734 0.047499703 142 255 40
4.619974253 36.710273300 0.063039790 164 255 30
4.615501357 36.612695124 0.071545575 175 255 25
4.612645183 36.515389882 0.075575022 182 255 22
4.609403305 36.418021742 0.080673837 186 255 20
4.606139262 36.320651640 0.085835201 193 255 17
4.611105719 36.224649731 0.068202922 171 255 27
4.621808463 36.129593433 0.034684549 124 255 48
4.627726766 36.033737530 0.014417844 95 255 60
4.626884197 35.936761645 0.012876916 95 255 60
4.621887520 35.839102329 0.022842335 109 255 54
4.614803723 35.741103563 0.038589492 127 255 46
4.606141375 35.642851008 0.058709927 156 255 33
4.596131453 35.544384205 0.082563980 189 255 19
4.586551675 35.445994402 0.105228029 222 255 4
4.589951154 35.349721356 0.091945064 204 255 12
4.591685645 35.253174897 0.083274582 189 255 19
4.587345841 35.155643440 0.091429121 204 255 12
4.588572833 35.059013218 0.084166399 193 255 17
4.590855471 34.962551318 0.073980855 178 255 24
4.586399990 34.865004312 0.082459198 189 255 19
4.588377766 34.768491126 0.073120160 178 255 24
4.586000903 34.671279348 0.075843503 182 255 22
4.592118257 34.575423649 0.055040813 153 255 35
4.596601860 34.479302523 0.038764189 131 255 44
4.597466178 34.382602628 0.032513264 120 255 49
4.594388922 34.285277074 0.037180867 127 255 46
4.588300387 34.187477362 0.050190397 146 255 38
4.590593074 34.091002516 0.039986390 131 255 44
4.586424736 33.993509313 0.047679588 142 255 40
4.582937857 33.896125429 0.053486411 149 255 36
4.576503721 33.798282323 0.067458004 167 255 28
4.569544534 33.700361436 0.082885190 189 255 19
4.564929565 33.602810107 0.091820333 204 255 12
4.561699941 33.505476720 0.096919354 211 255 9
4.559117485 33.408245317 0.100226915 215 255 8
4.556067246 33.310942839 0.104831362 222 255 4
4.550442620 33.213245055 0.116567964 233 254 0
4.544447743 33.115493880 0.129331389 235 249 0
4.542789557 33.018411797 0.130083385 235 249 0
4.547494339 32.922303891 0.113210944 232 255 0
4.557007208 32.826925527 0.083020875 189 255 19
4.559893602 32.730530218 0.071187280 175 255 25
4.546969008 32.631730689 0.103152103 218 255 6
4.253840750 12.646847055 0.148520182 238 243 0
4.321509675 12.554886341 -0.042728587 18 255 94
4.312658490 12.457343389 -0.021794498 47 255 81
4.296055909 12.359249275 0.020634970 106 255 56
4.291465944 12.262025988 0.029755702 116 255 51
4.287286222 12.164834625 0.037740059 127 255 46
4.285591111 12.067821439 0.038835866 131 255 44
4.283904141 11.970809358 0.039910228 131 255 44
4.282760188 11.873835796 0.039479937 131 255 44
4.283642045 11.777003304 0.033433169 124 255 48
4.285955752 11.680268454 0.023416907 109 255 54
4.286139108 11.583384462 0.019309209 102 255 57
4.282557112 11.486241885 0.025644093 113 255 52
4.277554658 11.389004623 0.035919180 124 255 48
4.273393086 11.291827326 0.043863655 135 255 43
4.269777046 11.194689157 0.050296518 146 255 38
4.264450902 11.097438582 0.061472857 160 255 32
4.257609953 11.000090558 0.076851158 182 255 22
4.254319297 10.902981808 0.082385299 189 255 19
4.258249777 10.806349618 0.067895358 171 255 27
4.266183423 10.709975334 0.042304976 135 255 43
4.271384840 10.613416647 0.024292405 109 255 54
4.268757238 10.516347428 0.027992099 113 255 52
4.263685017 10.419122461 0.038472366 127 255 46
4.261442101 10.322081227 0.041107587 131 255 44
4.262778249 10.225268050 0.033818397 124 255 48
4.266854708 10.128625915 0.018930713 102 255 57
4.271519946 10.032016798 0.002411167 80 255 67
4.275086972 9.935334915 -0.011061786 62 255 75
4.277495532 9.838577797 -0.021321002 47 255 81
4.278696050 9.741743724 -0.028228944 36 255 86
4.276258885 9.644685499 -0.025047414 40 255 84
4.269741906 9.547380433 -0.010550099 62 255 75
4.261142274 9.449953822 0.009724373 91 255 62
4.254490097 9.352649891 0.024599191 109 255 54
4.253014281 9.255658919 0.025119347 109 255 54
4.255070058 9.158877521 0.015846188 98 255 59
4.256391495 9.062050558 0.008610667 87 255 64
4.255030587 8.965064966 0.008815419 87 255 64
4.251882888 8.867975853 0.013976812 95 255 60
4.249006759 8.770904055 0.018386193 102 255 57
4.248663681 8.673978897 0.015771456 98 255 59
4.251839937 8.577253629 0.003397089 80 255 67
4.256530985 8.480610831 -0.013177514 58 255 76
4.258606237 8.383816728 -0.022496288 44 255 83
4.256541793 8.286789303 -0.020332593 47 255 81
4.252772018 8.189668200 -0.013437999 58 255 76
4.249676325 8.092586308 -0.008411804 66 255 73
4.247475787 7.995554932 -0.005867189 69 255 72
4.245322417 7.898527033 -0.003452253 73 255 70
4.242808307 7.801480578 -0.000035638 76 255 68
4.240048963 7.704422162 0.004062307 80 255 67
4.236345704 7.607314959 0.010779447 91 255 62
4.230336230 7.510088225 0.023894307 109 255 54
4.221750865 7.412730493 0.044154965 138 255 41
4.212955819 7.315367676 0.064998517 167 255 28
4.212389903 7.218435265 0.063018676 164 255 30
4.219218533 7.121881077 0.040529959 131 255 44
4.221453614 7.025087482 0.030783157 120 255 49
4.216617393 6.927934813 0.040650978 131 255 44
4.207233524 6.830557493 0.063133841 164 255 30
4.202962446 6.733440504 0.071436606 175 255 25
4.200915224 6.636435605 0.073572194 178 255 24
4.206678594 6.539813406 0.054044339 149 255 36
4.206537742 6.442899593 0.050894293 146 255 38
4.213060746 6.346305841 0.029261323 116 255 51
4.217246601 6.249594730 0.014112006 95 255 60
4.217894284 6.152712064 0.008777838 87 255 64
4.215544802 6.055687326 0.011758308 91 255 62
4.212097936 5.958612483 0.017783879 102 255 57
4.208394795 5.861527667 0.024521494 109 255 54
4.204455587 5.764434099 0.031915108 120 255 49
4.201764431 5.667399498 0.035847983 124 255 48
4.201318205 5.570467353 0.033554851 124 255 48
4.201526579 5.473564026 0.029447022 116 255 51
4.199915350 5.376579164 0.030387684 116 255 51
4.204235976 5.279855256 0.014874976 98 255 59
4.198151240 5.182674313 0.028227030 116 255 51
4.191766602 5.085484323 0.042412243 135 255 43
4.186474613 4.988345180 0.053567751 149 255 36
4.185059482 4.891373626 0.053970179 149 255 36
4.187814082 4.794577503 0.042806938 135 255 43
4.189396741 4.697729726 0.034895678 124 255 48
4.186244371 4.600684734 0.040120503 131 255 44
4.179930172 4.503512232 0.054117508 149 255 36
4.173155306 4.406325156 0.069393679 171 255 27
4.170248566 4.309297541 0.073940716 178 255 24
4.171147465 4.212422458 0.067931807 171 255 27
4.169745643 4.115455461 0.068306350 171 255 27
4.165735266 4.018387210 0.075918404 182 255 22
4.162723200 3.921359743 0.080762225 186 255 20
4.164628755 3.824521495 0.071965117 175 255 25
4.170683533 3.727837779 0.051658522 146 255 38
4.176860794 3.631153229 0.031013061 120 255 49
4.180421158 3.534366305 0.017628222 102 255 57
4.179705479 3.437419239 0.016106882 98 255 59
4.174946485 3.340325382 0.025803580 113 255 52
4.169405290 3.243206346 0.037671481 127 255 46
4.165777536 3.146158677 0.044232310 138 255 41
4.163763105 3.049169642 0.046318585 138 255 41
4.162951846 2.952223147 0.045068106 138 255 41
4.164340643 2.855352033 0.037715203 127 255 46
4.167092893 2.758525368 0.026580755 113 255 52
4.168965418 2.661666292 0.017887926 102 255 57
4.168606648 2.564730965 0.015386419 98 255 59
4.165675265 2.467710760 0.020023241 102 255 57
4.162111851 2.370671540 0.026414693 113 255 52
4.160483549 2.273696264 0.027438662 113 255 52
4.161523756 2.176805919 0.021060365 106 255 56
4.164817617 2.079984466 0.008430657 87 255 64
4.166726912 1.983116953 -0.000356738 76 255 68
4.164955748 1.886134950 0.001067951 76 255 68
4.161790515 1.789111547 0.006361493 84 255 65
4.158008592 1.692071459 0.013367164 95 255 60
4.155963677 1.595084477 0.015554803 98 255 59
4.159163861 1.498250217 0.003191315 80 255 67
4.167115194 1.401548531 -0.022353071 44 255 83
4.172245508 1.304760422 -0.040069733 22 255 92
4.168989391 1.207734327 -0.034517369 29 255 89
4.160966368 1.110579183 -0.015738023 55 255 78
4.151280140 1.013384425 0.007657219 87 255 64
4.140787270 0.916174809 0.033291862 120 255 49
4.130247829 0.818971238 0.059057087 156 255 33
4.121444229 0.721819930 0.080007491 186 255 20
4.117450229 0.624797318 0.087614630 197 255 16
4.120976156 0.527965989 0.074358275 178 255 24
4.127378359 0.431202367 0.053122392 149 255 36
4.130697639 0.334357943 0.040441341 131 255 44
4.130608471 0.237428453 0.037218459 127 255 46
4.130485156 0.140497451 0.034091407 124 255 48
4.132502842 0.043615472 0.025024909 109 255 54
4.136273928 -0.053228796 0.011094337 91 255 62
4.139761121 -0.150083104 -0.002047542 73 255 70
4.140325758 -0.247005351 -0.007079227 66 255 73
4.138382485 -0.343983185 -0.005151122 69 255 72
4.134337083 -0.441005078 0.002610945 80 255 67
4.128666739 -0.538058633 0.014882990 98 255 59
4.122337401 -0.635122147 0.028984816 116 255 51
4.115975150 -0.732182248 0.043179228 135 255 43
4.110667709 -0.829217399 0.054448032 153 255 35
4.106220611 -0.926232581 0.063330796 164 255 30
4.101424307 -1.023251765 0.073183744 178 255 24
4.109123863 -1.120035433 0.048364178 142 255 40
4.106157707 -1.217020239 0.053141033 149 255 36
4.115666890 -1.313780882 0.023301932 109 255 54
4.122646167 -1.410593779 0.000483785 76 255 68
4.122551763 -1.507533635 -0.002704909 73 255 70
4.118750728 -1.604536091 0.004392960 84 255 65
4.115498845 -1.701527449 0.009968174 91 255 62
4.114527892 -1.798480754 0.009215182 87 255 64
4.116291550 -1.895391573 0.000874959 76 255 68
4.120064306 -1.992274057 -0.013039353 58 255 76
4.123559673 -2.089164311 -0.026182940 40 255 84
4.125114146 -2.186085968 -0.033939621 29 255 89
4.123731274 -2.283050760 -0.033544186 29 255 89
4.117774660 -2.380077613 -0.020455525 47 255 81
4.107796443 -2.477153950 0.003794361 80 255 67
4.099419154 -2.574202820 0.023602992 109 255 54
4.103741489 -2.671087548 0.008171045 87 255 64
4.100891050 -2.768063137 0.012644858 95 255 60
4.098449507 -2.865032530 0.015985119 98 255 59
4.099224536 -2.961964384 0.010400305 91 255 62
4.104915229 -3.058843802 -0.008824848 66 255 73
4.103551725 -3.155802877 -0.008472952 66 255 73
4.107963488 -3.252702896 -0.024146968 44 255 83
4.108984536 -3.349640293 -0.030410350 33 255 88
4.106134152 -3.446615692 -0.025928897 40 255 84
4.101279271 -3.543607783 -0.015883488 55 255 78
4.106262439 -3.640511873 -0.033139120 29 255 89
4.107934689 -3.737447920 -0.041205398 18 255 94
4.111166014 -3.834373745 -0.053597374 4 255 100
4.111534320 -3.931324287 -0.058042875 0 254 105
4.107696449 -4.028305804 -0.050814216 7 255 99
4.100201023 -4.125309766 -0.033433787 29 255 89
4.092354478 -4.222310986 -0.015077626 55 255 78
4.089665870 -4.319276220 -0.011034808 62 255 75
4.091626622 -4.416214239 -0.019894097 47 255 81
4.094479083 -4.513149910 -0.031227108 33 255 88
4.095502061 -4.610097350 -0.037481736 25 255 91
4.097311412 -4.707042873 -0.045917743 11 255 97
4.099837147 -4.803987668 -0.056340918 0 255 102
4.100658666 -4.900941418 -0.062033286 0 253 111
4.099650211 -4.997902574 -0.062645759 0 253 111
4.097948210 -5.094865744 -0.061332270 0 254 108
4.094437957 -5.191832926 -0.054999050 0 255 102
4.087705741 -5.288805046 -0.039722418 22 255 92
4.080218815 -5.385774097 -0.022349885 44 255 83
4.076272147 -5.482733376 -0.014801792 55 255 78
4.075997991 -5.579686825 -0.017445345 51 255 80
4.076556148 -5.676640353 -0.022397854 44 255 83
4.078129162 -5.773594878 -0.030165993 33 255 88
4.080715750 -5.870551569 -0.040746246 18 255 94
4.081901943 -5.967510243 -0.047438696 11 255 97
4.080563684 -6.064468228 -0.047123458 11 255 97
4.078044418 -6.161424403 -0.043529186 15 255 96
4.075226886 -6.258378916 -0.039105913 22 255 92
4.071517385 -6.355330181 -0.032205775 33 255 88
4.067680650 -6.452279068 -0.024951309 40 255 84
4.066258257 -6.549232699 -0.024396840 44 255 83
4.068219675 -6.646196996 -0.033233319 29 255 89
4.071332907 -6.743167758 -0.045265745 15 255 96
4.073433006 -6.840137627 -0.054485100 0 255 102
4.072624184 -6.937097105 -0.055629341 0 255 102
4.069173970 -7.034044124 -0.049440909 7 255 99
4.064822476 -7.130984625 -0.040749660 18 255 94
4.060961912 -7.227925293 -0.033419865 29 255 89
4.060498431 -7.324883922 -0.035518110 25 255 91
3.861122381 -27.395781536 -0.158863440 0 235 219
3.847200076 -27.491636108 -0.123337333 0 242 180
3.825013141 -27.586768595 -0.064846515 0 253 114
3.816203850 -27.683042750 -0.043523963 15 255 96
3.821006214 -27.780494338 -0.060020416 0 254 108
3.818576619 -27.877318882 -0.056421644 0 254 105
3.817251373 -27.974239217 -0.055890217 0 255 102
3.816441717 -28.071204751 -0.056790276 0 254 105
3.807839290 -28.167480970 -0.036036410 25 255 91
3.803646737 -28.264143246 -0.027534471 36 255 86
3.807102553 -28.361485686 -0.040283143 22 255 92
3.815279865 -28.459254772 -0.066150065 0 253 114
3.815136855 -28.556281984 -0.068897011 0 252 117
3.818350568 -28.653613329 -0.080970018 0 250 132
3.816615763 -28.750498696 -0.079291790 0 250 129
3.812632825 -28.847178568 -0.071365608 0 252 120
3.813082965 -28.944262035 -0.075756374 0 251 126
3.806452102 -29.040695640 -0.060470095 0 254 108
3.802960437 -29.137414759 -0.053905487 0 255 102
3.804833377 -29.234629321 -0.062246477 0 253 111
3.810271656 -29.332178017 -0.080493585 0 250 132
3.814986738 -29.429664090 -0.096730172 0 247 150
3.814003122 -29.526619713 -0.097130460 0 247 150
3.809607414 -29.623253811 -0.088048192 0 248 141
3.807704154 -29.720121182 -0.085890722 0 249 138
3.806922471 -29.817094450 -0.086848770 0 249 138
3.803069802 -29.913774954 -0.079272000 0 250 129
3.799440282 -30.010474668 -0.072314142 0 251 123
3.798236781 -30.107405687 -0.072096646 0 252 120
3.799772254 -30.204601024 -0.079489262 0 250 129
3.802814796 -30.301944425 -0.091068794 0 248 144
3.804924461 -30.399200177 -0.100054971 0 246 153
3.804744319 -30.496234629 -0.102676980 0 246 156
3.799791157 -30.592801570 -0.092034100 0 248 144
3.789270332 -30.688817246 -0.065917877 0 253 114
3.779802501 -30.784929727 -0.042726503 18 255 94
3.776025658 -30.881600500 -0.035348789 25 255 91
3.775736222 -30.978616598 -0.037661286 25 255 91
3.775842165 -31.075672813 -0.041071447 18 255 94
3.775696486 -31.172704647 -0.043781277 15 255 96
3.776490383 -31.269831854 -0.049101112 7 255 99
3.779225304 -31.367156828 -0.059814038 0 254 108
3.781726674 -31.464460987 -0.069876913 0 252 120
3.780985632 -31.561437366 -0.070927962 0 252 120
3.776217773 -31.658001967 -0.060787143 0 254 108
3.768447827 -31.754255388 -0.042302098 18 255 94
3.761770889 -31.850616304 -0.026853331 40 255 84
3.759234959 -31.947401350 -0.022911587 44 255 83
3.761032947 -32.044635335 -0.031013150 33 255 88
3.764870503 -32.142084100 -0.044781905 15 255 96
3.765491306 -32.239200072 -0.049609875 7 255 99
3.762041850 -32.335889915 -0.043124905 18 255 94
3.758707537 -32.432590041 -0.036958767 25 255 91
3.759144797 -32.529687340 -0.041273348 18 255 94
3.764015797 -32.627256460 -0.057909091 0 254 105
3.766478692 -32.724573554 -0.067851260 0 252 117
3.764916698 -32.821462963 -0.066606361 0 253 114
3.762542834 -32.918264846 -0.063103967 0 253 111
3.761214612 -33.015178316 -0.062506532 0 253 111
3.759597317 -33.112060320 -0.061104574 0 254 108
3.756484903 -33.208779708 -0.055546149 0 255 102
3.754992104 -33.305673798 -0.054487941 0 255 102
3.756939660 -33.402943350 -0.062990401 0 253 111
3.759100484 -33.500238577 -0.072084574 0 252 120
3.756806747 -33.597046241 -0.068797041 0 252 117
3.749619823 -33.693312785 -0.051908532 4 255 100
3.741959233 -33.789522132 -0.033702269 29 255 89
3.737867720 -33.886123120 -0.025414506 40 255 84
3.738370285 -33.983234196 -0.029894250 36 255 86
3.741890739 -34.080684242 -0.042760840 18 255 94
3.745430937 -34.178140012 -0.055681320 0 255 102
3.747575003 -34.275441965 -0.064720383 0 253 114
3.748245689 -34.372579755 -0.069663261 0 252 120
3.745610350 -34.469343740 -0.065416154 0 253 114
3.740601806 -34.565836309 -0.054571668 0 255 102
3.736564190 -34.662436739 -0.046424644 11 255 97
3.734686527 -34.759282435 -0.044280000 15 255 96
3.734997544 -34.856379192 -0.048217669 11 255 97
3.736767430 -34.953645324 -0.056209221 0 255 102
3.738245683 -35.050879854 -0.063389139 0 253 111
3.735764873 -35.147656446 -0.059563641 0 254 108
3.729536984 -35.243995238 -0.045321789 15 255 96
3.723766067 -35.340383472 -0.032348877 33 255 88
3.719568446 -35.436952632 -0.023747842 44 255 83
3.717893434 -35.533816262 -0.022157452 44 255 83
3.719617214 -35.631080734 -0.030013254 33 255 88
3.722857853 -35.728527026 -0.042084321 18 255 94
3.727509972 -35.826144363 -0.058077799 0 254 105
3.731533578 -35.923691139 -0.072323280 0 251 123
3.733121805 -36.020950493 -0.079798262 0 250 129
3.734142929 -36.118143815 -0.085695849 0 249 138
3.736637610 -36.215516120 -0.095688419 0 247 147
3.737664697 -36.312713899 -0.101600506 0 246 156
3.734600083 -36.409417530 -0.096137781 0 247 150
3.729003460 -36.505811859 -0.083635597 0 249 135
3.722491918 -36.602091130 -0.068588952 0 252 117
3.722062895 -36.699110151 -0.070448976 0 252 120
3.715885082 -36.795424291 -0.056327603 0 255 102
3.712234974 -36.892045590 -0.049231461 7 255 99
3.711162066 -36.988983073 -0.049298235 7 255 99
3.714477634 -37.086464042 -0.061563032 0 254 108
3.721483478 -37.184406818 -0.084085158 0 249 135
3.721850347 -37.281528445 -0.088151132 0 248 141
3.721827437 -37.378602430 -0.091132517 0 248 144
3.720004815 -37.475451536 -0.089109875 0 248 141
3.720308093 -37.572567420 -0.092995845 0 248 144
3.721638413 -37.669813906 -0.099735815 0 246 153
3.724414002 -37.767245103 -0.110492451 0 244 165
3.720583537 -37.863840752 -0.102883815 0 246 156
3.717215038 -37.960493068 -0.096558232 0 247 150
3.714422788 -38.057217178 -0.091833427 0 248 144
3.713281206 -38.154151358 -0.091696257 0 248 144
3.713252522 -38.251228429 -0.094651804 0 247 147
3.710679882 -38.347978490 -0.090534125 0 248 141
3.705031759 -38.444329914 -0.077865472 0 250 129
3.698671414 -38.540585474 -0.063215611 0 253 111
3.695180312 -38.637209955 -0.056541065 0 254 105
3.696257103 -38.734428152 -0.062564261 0 253 111
3.700884697 -38.832112328 -0.078457818 0 250 129
3.706370947 -38.929913485 -0.096737542 0 247 150
3.708847454 -39.027323754 -0.106649026 0 245 162
3.707317294 -39.124208139 -0.105420611 0 245 159
3.703928707 -39.220846255 -0.099024463 0 246 153
3.700630661 -39.317494579 -0.092878866 0 248 144
3.697952927 -39.414223718 -0.088456656 0 248 141
3.696484751 -39.511113033 -0.087396045 0 249 138
3.695759236 -39.608101425 -0.088399036 0 248 141
3.694338227 -39.704996699 -0.087467342 0 249 138
3.695134387 -39.802190157 -0.092698673 0 248 144
3.697561603 -39.899605230 -0.102463605 0 246 156
3.698517736 -39.996823801 -0.108137614 0 245 162
3.696226321 -40.093602973 -0.104781667 0 245 159
3.691851497 -40.190097507 -0.095632218 0 247 147
3.689090209 -40.286809795 -0.090967613 0 248 144
3.688080929 -40.383760659 -0.091172903 0 248 144
3.687344752 -40.480749048 -0.092136393 0 248 144
3.686066749 -40.577663064 -0.091592360 0 248 144
3.684850974 -40.674585489 -0.091220234 0 248 144
3.684735468 -40.771660132 -0.093906099 0 247 147
3.685843328 -40.868905354 -0.099992246 0 246 153
3.687115802 -40.966175151 -0.106535037 0 245 162
3.686921071 -41.063241873 -0.108997435 0 245 162
3.685325583 -41.160113130 -0.107564136 0 245 162
3.682714655 -41.256841400 -0.103306409 0 246 156
3.679383418 -41.353467060 -0.097044797 0 247 150
3.675548862 -41.450019907 -0.089382592 0 248 141
3.670834170 -41.546446024 -0.079272065 0 250 129
3.665704597 -41.642810429 -0.068006789 0 252 117
3.663740954 -41.739622250 -0.065543012 0 253 114
3.665544931 -41.836971003 -0.073553834 0 251 123
3.667545208 -41.934350033 -0.082109443 0 250 132
3.669584018 -42.031736933 -0.090771172 0 248 144
3.671725826 -42.129141019 -0.099718272 0 246 153
3.672215926 -42.226309313 -0.104071758 0 245 159
3.668982098 -42.322940211 -0.098069695 0 247 150
3.663276272 -42.419210957 -0.085192978 0 249 135
3.657037923 -42.515400687 -0.070834331 0 252 120
3.653212283 -42.611938140 -0.063183151 0 253 111
3.654355860 -42.709199772 -0.069348112 0 252 117
3.658771373 -42.806942585 -0.084609964 0 249 135
3.663492938 -42.904734568 -0.100721871 0 246 153
3.665168087 -43.002082191 -0.108361905 0 245 162
3.663894646 -43.098996386 -0.107801958 0 245 162
3.663652743 -43.196063162 -0.110109248 0 244 165
3.664591709 -43.293305880 -0.115699062 0 243 171
3.665067011 -43.390481102 -0.119998529 0 242 177
3.663152124 -43.487300772 -0.117650568 0 243 174
3.658403829 -43.583695810 -0.107422623 0 245 162
3.651980910 -43.679836780 -0.092536829 0 248 144
3.644986907 -43.775887716 -0.076061762 0 251 126
3.639105986 -43.872101904 -0.062680633 0 253 111
3.635688396 -43.968684742 -0.056148199 0 255 102
3.632953952 -44.065369283 -0.051514274 4 255 100
3.631180329 -44.162198505 -0.049551039 7 255 99
3.633721826 -44.259684451 -0.059586152 0 254 108
3.640820820 -44.357869119 -0.082293789 0 250 132
3.647171648 -44.455945515 -0.102920030 0 246 156
3.648935109 -44.553323544 -0.110788658 0 244 165
3.646340970 -44.650033263 -0.106538438 0 245 162
3.641362931 -44.746374077 -0.095657784 0 247 147
3.635526281 -44.842579090 -0.082388238 0 250 132
3.631590243 -44.939075039 -0.074402857 0 251 123
3.632127145 -45.036263861 -0.078855109 0 250 129
3.635226344 -45.133853070 -0.090431832 0 248 141
3.636574252 -45.231171964 -0.097137358 0 247 150
3.635619614 -45.328132218 -0.097438601 0 247 150
3.632716930 -45.424786809 -0.092321325 0 248 144
3.626737197 -45.520955864 -0.078645726 0 250 129
3.620073681 -45.617013277 -0.063067315 0 253 111
3.619064378 -45.713960271 -0.063211991 0 253 111
3.622244470 -45.811571230 -0.075006310 0 251 126
3.625663128 -45.909223339 -0.087463104 0 249 138
3.629179897 -46.006894506 -0.100191769 0 246 153
3.632428969 -46.104526448 -0.112174979 0 244 168
3.632040768 -46.201579651 -0.114041732 0 244 168
3.625270231 -46.297609589 -0.098157654 0 247 150
3.624725097 -46.394636106 -0.099585719 0 246 153
3.620512407 -46.491071881 -0.090812858 0 248 144
3.620381725 -46.588164709 -0.093391348 0 247 147
3.620043466 -46.685224620 -0.095391469 0 247 147
3.615691743 -46.781633561 -0.086228503 0 249 138
3.607973908 -46.877492231 -0.067702677 0 252 117
3.602415049 -46.973697891 -0.055180050 0 255 102
3.602626280 -47.070843402 -0.058703872 0 254 105
3.607254894 -47.168713760 -0.074512230 0 251 123
3.611673397 -47.266553970 -0.089735281 0 248 141
3.612054909 -47.363733729 -0.093729621 0 247 147
3.609482886 -47.460427170 -0.089508430 0 248 141
3.608175041 -47.557328542 -0.088802096 0 248 141
3.608648455 -47.654525034 -0.093048803 0 248 144
3.607595737 -47.751469077 -0.093049865 0 248 144
3.603603129 -47.847923422 -0.084873155 0 249 135
3.598032171 -47.944111986 -0.072305407 0 251 123
3.594252475 -48.040596804 -0.064718506 0 253 114
3.594740336 -48.137795274 -0.068999905 0 252 117
3.597832826 -48.235432777 -0.080524613 0 250 132
3.601384709 -48.333150866 -0.093326064 0 247 147
3.603427307 -48.430617609 -0.101928673 0 246 156
3.601662528 -48.527442281 -0.099940505 0 246 153
3.596583617 -48.623704161 -0.088733320 0 248 141
3.591617822 -48.719982165 -0.077839559 0 250 129
3.589408269 -48.816726856 -0.074610862 0 251 123
3.591150691 -48.914145652 -0.082373192 0 250 132
3.596392975 -49.012165724 -0.099869180 0 246 153
3.601461067 -49.110160747 -0.116879731 0 243 171
3.602537351 -49.207474054 -0.122786248 0 242 180
3.599798278 -49.304131440 -0.118079366 0 243 174
3.594984181 -49.400429103 -0.107599668 0 245 162
3.590350159 -49.496755032 -0.097619656 0 247 150
3.584622183 -49.592888394 -0.084595594 0 249 135
3.577067421 -49.688700497 -0.066489038 0 253 114
3.571472394 -49.784849102 -0.053832320 0 255 102
3.570877804 -49.881867541 -0.055083433 0 255 102
3.574031385 -49.979542397 -0.066759294 0 253 114
3.578096275 -50.077380348 -0.080969067 0 250 132
3.579552814 -50.174763659 -0.087922475 0 249 138
3.576751794 -50.271398737 -0.083031954 0 249 135
3.571548982 -50.367608351 -0.071459393 0 252 120
3.566007786 -50.463754877 -0.058944365 0 254 105
3.560787086 -50.559954774 -0.047319632 11 255 97
3.555932760 -50.656216568 -0.036712831 25 255 91
3.553929893 -50.752983323 -0.034036695 29 255 89
3.556151521 -50.850503428 -0.043110710 18 255 94
3.561600717 -50.948603425 -0.061161882 0 254 108
3.566034120 -51.046526313 -0.076386478 0 251 126
3.565757773 -51.143607262 -0.078508836 0 250 129
3.562559266 -51.240162676 -0.072501401 0 251 123
3.559539503 -51.336748677 -0.066990041 0 252 117
3.559026240 -51.433786367 -0.068450061 0 252 117
3.561377517 -51.531343520 -0.077877553 0 250 129
3.564943443 -51.629123848 -0.090682961 0 248 144
3.567558585 -51.726734708 -0.100842491 0 246 153
3.567251388 -51.823815474 -0.102871574 0 246 156
3.563095471 -51.920193481 -0.094193045 0 247 147
3.557210902 -52.016252524 -0.080704481 0 250 132
3.553120338 -52.112637055 -0.072205388 0 251 123
3.549561821 -52.209117077 -0.065185212 0 253 114
3.546051414 -52.305604023 -0.058297719 0 254 105
3.543588259 -52.402282458 -0.054322427 0 255 102
3.544399473 -52.499565728 -0.059455051 0 254 108
3.548117706 -52.597389495 -0.072673776 0 251 123
3.553617444 -52.695547973 -0.090847592 0 248 144
3.560606207 -52.793988759 -0.113162905 0 244 168
3.567413158 -52.892401804 -0.134971542 0 240 192
3.570342952 -52.990095946 -0.145993084 0 238 204
3.568911237 -53.086975951 -0.144879915 0 238 204
3.565489848 -53.183482091 -0.138230337 0 239 198
3.561789471 -53.279933907 -0.130803453 0 240 189
3.557635152 -53.376298094 -0.122112522 0 242 177
3.553275712 -53.472621131 -0.112849761 0 244 168
3.550507060 -53.569242730 -0.108011503 0 245 162
3.550230963 -53.666335775 -0.110106605 0 244 165
3.552287778 -53.763872803 -0.118691016 0 243 174
3.556612671 -53.861844165 -0.133584463 0 240 192
3.557316247 -53.959128594 -0.138402013 0 239 198
3.552454156 -54.055350112 -0.127734087 0 241 186
3.545365196 -54.151142009 -0.110869486 0 244 165
3.539716845 -54.247205821 -0.098011641 0 247 150
3.537677793 -54.343960414 -0.095194289 0 247 147
3.540982228 -54.441744238 -0.107242404 0 245 162
3.547628440 -54.540176851 -0.128587043 0 241 186
3.553537594 -54.638472744 -0.147880142 0 237 207
3.556615375 -54.736224945 -0.159294811 0 235 222
3.557055231 -54.833467768 -0.163369158 0 234 225
3.557676876 -54.930747121 -0.167948238 0 233 231
3.559834538 -55.028327384 -0.176799881 0 232 240
3.562278981 -55.125966162 -0.186448427 0 230 252
3.562861046 -55.223242892 -0.190914293 0 229 255
3.559470660 -55.319741368 -0.184326533 0 230 249
3.553945049 -55.415818218 -0.171796744 0 233 234
3.547788566 -55.511767329 -0.157510454 0 235 219
3.540668642 -55.607522328 -0.140542311 0 239 198
3.534441817 -55.703449264 -0.126057840 0 241 183
3.533517924 -55.800422995 -0.126326882 0 241 183
3.535979980 -55.898069054 -0.136015858 0 239 195
3.538025923 -55.995635034 -0.144546043 0 238 204
3.538914889 -56.092972794 -0.149856035 0 237 210
3.538335902 -56.190018894 -0.151080521 0 237 210
3.534272070 -56.286368097 -0.142607562 0 238 201
3.529987971 -56.382670810 -0.133520552 0 240 192
3.530166284 -56.479867300 -0.136848875 0 239 195
3.530056347 -56.577006719 -0.139374094 0 239 198
3.527628030 -56.673679416 -0.135447377 0 240 192
3.532272138 -56.771779720 -0.151198597 0 237 210
3.530268800 -56.868539008 -0.148452238 0 237 207
3.532733922 -56.966203655 -0.158138399 0 235 219
3.528083666 -57.062425415 -0.148024704 0 237 207
3.528309655 -57.159636943 -0.151478264 0 236 213
3.527303926 -57.256598254 -0.151503427 0 236 213
3.526774836 -57.353656974 -0.152853790 0 236 213
3.527091787 -57.450889273 -0.156557275 0 236 216
3.527974708 -57.548238689 -0.161834582 0 235 222
3.527633226 -57.645337998 -0.163703800 0 234 225
3.534438071 -57.743908996 -0.185457588 0 230 249
3.532702007 -57.840724500 -0.183444129 0 230 249
3.530141853 -57.937369179 -0.179136401 0 231 243
3.524516168 -58.033378062 -0.166297164 0 234 228
3.516314033 -58.128849042 -0.146287256 0 237 207
3.508952505 -58.224489165 -0.128615234 0 241 186
3.505388489 -58.320914954 -0.121509360 0 242 177
3.505712555 -58.418149690 -0.125221815 0 241 183
3.508673983 -58.515936537 -0.136272322 0 239 195
3.512831565 -58.613976855 -0.150650453 0 237 210
3.516702619 -58.711961087 -0.164230296 0 234 225
3.518941797 -58.809606241 -0.173268026 0 232 237
3.519267049 -58.906851060 -0.176978690 0 232 240
3.517205219 -59.003593558 -0.174045515 0 232 237
3.514657304 -59.100232573 -0.169758537 0 233 231
3.513697930 -59.197206624 -0.169891083 0 233 234
3.514971248 -59.294654129 -0.176235790 0 232 240
3.516791599 -59.392219610 -0.184101789 0 230 249
3.515538844 -59.489133334 -0.183414711 0 230 249
3.508408615 -59.584793894 -0.166370189 0 234 228
3.498971626 -59.679957097 -0.142904935 0 238 201
3.490817179 -59.775388229 -0.123007581 0 242 180
3.484635207 -59.871236654 -0.108598208 0 245 162
3.482038868 -59.967851043 -0.104166224 0 245 159
3.484522113 -60.065556911 -0.113869362 0 244 168
3.491298344 -60.164190624 -0.135518752 0 239 195
3.499032479 -60.263037153 -0.159833090 0 235 222
3.502506211 -60.360969047 -0.172289901 0 233 234
3.499893798 -60.457585818 -0.167807961 0 233 231
3.493472088 -60.553374597 -0.152723548 0 236 213
3.486594659 -60.649060135 -0.136369628 0 239 195
3.481132185 -60.745049359 -0.123952355 0 242 180
3.476601610 -60.841238505 -0.114127413 0 244 168
3.472181484 -60.937449096 -0.104608684 0 245 159
3.466496917 -61.033380200 -0.091569732 0 248 144
3.461216771 -61.129396428 -0.079655120 0 250 129
3.461163932 -61.226558026 -0.082287498 0 250 132
3.467012234 -61.325019369 -0.101342435 0 246 156
3.474349685 -61.423814391 -0.124540978 0 242 180
3.479008191 -61.522024097 -0.140282750 0 239 198
3.479408045 -61.619295827 -0.144171057 0 238 204
3.476318626 -61.715795200 -0.138347049 0 239 198
3.470741763 -61.811740641 -0.125598873 0 241 183
3.464338220 -61.907498690 -0.110548673 0 244 165
3.460314608 -62.003782901 -0.102121117 0 246 156
3.459522756 -62.100786167 -0.102687136 0 246 156
3.460498835 -62.198184917 -0.108172661 0 245 162
3.461083674 -62.295497585 -0.112568240 0 244 168
3.459820697 -62.392396909 -0.111819804 0 244 168
3.456972822 -62.488939843 -0.106659061 0 245 162
3.452731461 -62.585167647 -0.097618701 0 247 150
3.447064648 -62.681071501 -0.084609703 0 249 135
3.444445648 -62.777660308 -0.080082548 0 250 129
3.447964666 -62.875636893 -0.092638442 0 248 144
3.454270457 -62.974248695 -0.112949938 0 244 168
3.457926209 -63.072264418 -0.125884526 0 241 183
3.456078745 -63.169032037 -0.123500637 0 242 180
3.447878379 -63.264351592 -0.103433048 0 246 156
3.431061565 -63.357699141 -0.059381145 0 254 108
3.410720880 -63.450228926 -0.005519350 69 255 72
3.390035869 -63.542664970 0.049302444 146 255 38
3.370013933 -63.635237950 0.102280208 218 255 6
3.351486697 -63.728139713 0.151099121 238 242 0
3.336600821 -63.821866042 0.189783965 245 228 0
3.324100695 -63.916131686 0.221829564 251 217 0
3.303703288 -64.008564824 0.275858587 255 180 0
3.282319241 -64.100754806 0.332635523 255 120 0
3.262158826 -64.193212596 0.386008071 255 73 33
3.248139358 -64.287080811 0.422288661 255 45 84
3.242407239 -64.382865518 0.435502440 255 35 102
3.243925964 -64.480334954 0.428534254 255 41 91
3.250204849 -64.578916593 0.408316823 255 55 66
3.259213579 -64.678141619 0.380501514 255 76 25
3.267128106 -64.777118335 0.355732846 255 96 0
3.271392217 -64.875246316 0.341126369 255 112 0
3.272432994 -64.972621607 0.335493389 255 117 0
3.271108106 -65.069442171 0.336446596 255 117 0
3.265398012 -65.165229567 0.349607781 255 104 0
3.256405793 -65.260238978 0.371906508 255 82 14
3.250115765 -65.355880829 0.386684489 255 73 33
3.249354740 -65.452827375 0.386072640 255 73 33
3.253669999 -65.550977677 0.371330984 255 82 14
3.261373990 -65.649936853 0.347156987 255 107 0
3.271638648 -65.749511857 0.315855628 255 137 0
3.278786808 -65.848353064 0.293230585 255 161 0
3.274754003 -65.944532388 0.301731510 255 153 0
3.263975017 -66.039096903 0.329013418 255 123 0
3.254419012 -66.133946685 0.352892143 255 98 0
3.254890566 -66.231194430 0.348857475 255 104 0
3.268245799 -66.331537727 0.308958118 255 145 0
3.275743407 -66.430482977 0.285366057 255 169 0
3.265746800 -66.525219546 0.310475898 255 142 0
3.251868343 -66.619012359 0.346393537 255 107 0
3.241748726 -66.713703851 0.371848497 255 82 14
3.241422189 -66.810759312 0.370042045 255 84 11
3.248796494 -66.909682723 0.346798355 255 107 0
3.257797150 -67.009007622 0.319027918 255 134 0
3.264726043 -67.107836266 0.297025908 255 158 0
3.264718384 -67.204980941 0.294335635 255 161 0
3.254088339 -67.299534135 0.321218522 255 131 0
3.236920362 -67.392481891 0.366304047 255 86 7
3.219045088 -67.485244037 0.413360167 255 51 73
3.220045414 -67.582621382 0.407868482 255 57 62
3.221048274 -67.680000911 0.402370759 255 61 55
3.228851405 -67.779054642 0.377942053 255 78 22
3.229081057 -67.876249437 0.374598914 255 80 18
3.217723043 -67.970586073 0.403517280 255 59 58
3.209073777 -68.065584131 0.424895710 255 43 87
3.198108042 -68.160002953 0.452724605 255 24 124
3.188563135 -68.254766318 0.476599146 255 4 161
3.186530112 -68.351388168 0.479561247 255 2 164
3.196819190 -68.451073343 0.448218489 255 25 120
3.216078674 -68.553001361 0.391901881 255 69 40
3.226967062 -68.652856949 0.358892005 255 93 0
3.229263801 -68.750575315 0.349803241 255 104 0
3.226262912 -68.846970713 0.355464865 255 96 0
3.218533915 -68.942179730 0.374291453 255 80 18
3.215839314 -69.038647118 0.379102635 255 76 25
3.206379045 -69.133412533 0.402751851 255 59 58
3.199494760 -69.228819951 0.419230294 255 47 80
3.194631042 -69.324732309 0.430084266 255 39 95
3.194022519 -69.421716250 0.429091965 255 39 95
3.199715257 -69.520294177 0.410556477 255 53 69
3.206922181 -69.619260825 0.387806003 255 71 36
3.203528790 -69.715544685 0.394570533 255 67 44
3.192568152 -69.809904098 0.422405559 255 45 84
3.184234295 -69.904924238 0.442928183 255 29 113
3.184167489 -70.002045525 0.440434036 255 31 109
3.191662177 -70.101097453 0.416887296 255 49 76
3.195372076 -70.199188506 0.403879532 255 59 58
3.191903924 -70.295445625 0.410858919 255 53 69
3.186498096 -70.391204059 0.423234632 255 45 84
3.182147718 -70.487230116 0.432672766 255 37 98
3.175158424 -70.582574981 0.449459825 255 25 120
3.164685933 -70.677018159 0.475946735 255 6 157
3.160685786 -70.773123449 0.484413273 255 0 168
3.167694576 -70.872070218 0.462227369 255 16 139
3.179871967 -70.972360309 0.425650660 255 43 87
3.193754649 -71.073102408 0.384326373 255 73 33
3.199358880 -71.171707965 0.366053843 255 86 7
3.192725949 -71.364291258 0.379190719 255 76 25
3.188453887 -71.460331180 0.388421721 255 71 36
3.188594262 -71.557520314 0.385367361 255 73 33
3.188126950 -71.654551488 0.384006166 255 75 29
3.178906383 -71.749291569 0.407019869 255 57 62
3.171436162 -71.844484215 0.425160914 255 43 87
3.168608094 -71.940890729 0.430376792 255 39 95
3.169936874 -72.038388877 0.424018687 255 43 87
3.172248528 -72.136147659 0.414924684 255 51 73
3.170744557 -72.232902751 0.416456696 255 49 76
3.164574980 -72.328425248 0.430981753 255 39 95
3.153686049 -72.422695534 0.458649707 255 18 135
3.146908659 -72.518047252 0.474869782 255 6 157
3.150038427 -72.616022533 0.463502972 255 14 142
3.152503636 -72.713824472 0.453987707 255 22 128
3.155134417 -72.811673144 0.444012353 255 29 113
3.164739367 -72.911382705 0.414616984 255 51 73
3.172887611 -73.010711803 0.389278918 255 71 36
