ply
format ascii 1.0
comment coordinate_system ground
comment units millimeter
element vertex 1208
property double x
property double y
property double z
property uchar red
property uchar green
property uchar blue
comment color_mapping zg_high_contrast_from_zg
comment color_zg_range_mm -0.211448904 19.992924820
end_header
6.398855703 145.417314420 0.202434948 0 232 240
6.395860812 145.319020939 0.205487473 0 232 240
6.398952663 145.224323595 0.191849013 0 232 240
6.407573891 145.132886526 0.163047644 0 231 243
6.411806273 145.038852872 0.146283110 0 231 243
6.410088020 144.941306902 0.145838878 0 231 243
6.404377933 144.841409327 0.156343418 0 231 243
6.395630155 144.739726408 0.175180301 0 231 243
6.385253150 144.637090283 0.198487008 0 232 240
6.380987390 144.538054237 0.205034809 0 232 240
6.379257291 144.440510257 0.204629623 0 232 240
6.377147132 144.342743215 0.205267993 0 232 240
6.377721755 144.246552229 0.198544143 0 232 240
6.382731328 144.152960743 0.179657710 0 231 243
6.389435862 144.060357775 0.156123358 0 231 243
6.392651387 143.965704911 0.142159187 0 231 243
6.389681434 143.867427657 0.145161207 0 231 243
6.381553195 143.766133897 0.162312549 0 231 243
6.372764491 143.664458963 0.181276966 0 231 243
6.371066413 143.566932131 0.180794515 0 231 243
6.375396649 143.472925150 0.163778410 0 231 243
6.379549911 143.378810484 0.147248619 0 231 243
6.375396384 143.279847720 0.153504522 0 231 243
6.362460230 143.175768943 0.183851989 0 232 240
6.358946436 143.077185970 0.188356009 0 232 240
6.355692087 142.978755475 0.192149662 0 232 240
6.357294705 142.883151134 0.182621817 0 231 243
6.358858342 142.787521773 0.173201926 0 231 243
6.356656753 142.689703019 0.174111349 0 231 243
6.352232435 142.590594513 0.181119164 0 231 243
6.348306471 142.491777280 0.186761268 0 232 240
6.345739933 142.393749947 0.188675570 0 232 240
6.344399331 142.296433643 0.187228148 0 232 240
6.344436350 142.199914807 0.182002804 0 231 243
6.346007289 142.104282319 0.172570670 0 231 243
6.347110849 142.008377249 0.164421704 0 231 243
6.345137095 141.910691982 0.164715724 0 231 243
6.340852983 141.811672888 0.171348978 0 231 243
6.336759452 141.712765855 0.177460734 0 231 243
6.333095911 141.614108740 0.182394192 0 231 243
6.329911562 141.515729416 0.186014340 0 232 240
6.328913368 141.418610495 0.183638233 0 232 240
6.328526796 141.321843226 0.179585336 0 231 243
6.326149200 141.223929842 0.180995869 0 231 243
6.323926226 141.126105989 0.181983431 0 231 243
6.326667869 141.031134644 0.169351702 0 231 243
6.332017890 140.937657521 0.149564758 0 231 243
6.334629654 140.842604273 0.137291240 0 231 243
6.331866086 140.744466079 0.139766404 0 231 243
6.324562682 140.643727711 0.154698393 0 231 243
6.316230892 140.542404872 0.172453404 0 231 243
6.308881287 140.441649176 0.187515174 0 232 240
6.303650898 140.342109700 0.196763946 0 232 240
6.301837362 140.244525587 0.196639185 0 232 240
6.301792414 140.147951699 0.191663057 0 232 240
6.300682631 140.050769016 0.189609713 0 232 240
6.296682996 139.951937897 0.195486720 0 232 240
6.288876826 139.850939148 0.211809537 0 232 240
6.284055020 139.751644943 0.219945202 0 232 240
6.288327656 139.657529717 0.203128118 0 232 240
6.293489048 139.563915680 0.183873272 0 232 240
6.295468312 139.468487788 0.173350824 0 231 243
6.296343388 139.372430033 0.165859229 0 231 243
6.296541725 139.275986320 0.160225659 0 231 243
6.294103367 139.178045518 0.161828298 0 231 243
6.287490789 139.077738933 0.174886373 0 231 243
6.277540251 138.975545067 0.197105478 0 232 240
6.266939929 138.872989674 0.221109298 0 232 240
6.263070194 138.774249326 0.226645256 0 232 240
6.269268460 138.681203482 0.204554481 0 232 240
6.276599960 138.588792179 0.179354739 0 231 243
6.281289375 138.494882322 0.161406134 0 231 243
6.283428538 138.399528720 0.150456841 0 231 243
6.281900155 138.302104194 0.149573171 0 231 243
6.276824782 138.202680828 0.158424563 0 231 243
6.269905392 138.102221682 0.172337849 0 231 243
6.263633695 138.002131147 0.184475136 0 232 240
6.258641266 137.902763700 0.193103103 0 232 240
6.262597284 137.808428250 0.177174574 0 231 243
6.257849995 137.709200416 0.185132281 0 232 240
6.255279190 137.611196670 0.187118148 0 232 240
6.254601483 137.514255602 0.183909747 0 232 240
6.254673209 137.417734015 0.178645690 0 231 243
6.254578970 137.321118300 0.173838233 0 231 243
6.255642387 137.225149578 0.165854676 0 231 243
6.259186031 137.130566384 0.151065079 0 231 243
6.261751468 137.035432574 0.138961179 0 231 243
6.258659294 136.937135130 0.142386116 0 231 243
6.250561819 136.836044608 0.159549988 0 231 243
6.242660532 136.735068535 0.176176928 0 231 243
6.239274057 136.636614390 0.180413689 0 231 243
6.241228843 136.541137522 0.169991555 0 231 243
6.242667079 136.445370484 0.160988225 0 231 243
6.238416992 136.346436363 0.167598972 0 231 243
6.231858656 136.246220939 0.180546683 0 231 243
6.228942642 136.148033149 0.183498378 0 232 240
6.228767396 136.051368287 0.178928383 0 231 243
6.228042489 135.954397465 0.175868250 0 231 243
6.225135919 135.856216358 0.178797673 0 231 243
6.220019149 135.756811619 0.187795151 0 232 240
6.215068233 135.657501483 0.196338744 0 232 240
6.214030647 135.560359512 0.194141766 0 232 240
6.215192019 135.464433245 0.185909841 0 232 240
6.215748650 135.368170821 0.179338991 0 231 243
6.216114925 135.271801764 0.173291757 0 231 243
6.219513080 135.177104528 0.158922931 0 231 243
6.223940638 135.082971343 0.141729254 0 231 243
6.224089772 134.986475849 0.136281203 0 231 243
6.220329621 134.887826182 0.141565760 0 231 243
6.216806376 134.789308645 0.146201274 0 231 243
6.214783795 134.691618013 0.146718481 0 231 243
6.213907810 134.594557994 0.144089256 0 231 243
6.213877822 134.497962195 0.139138726 0 231 243
6.213867185 134.401375955 0.134136188 0 231 243
6.212673645 134.304139852 0.132382168 0 231 243
6.210368796 134.206294465 0.133680204 0 231 243
6.207336601 134.108051352 0.136976278 0 231 243
6.204026420 134.009657293 0.141036790 0 231 243
6.201555501 133.911723696 0.142794483 0 231 243
6.200748002 133.814700089 0.139986640 0 231 243
6.200033708 133.717726923 0.136924063 0 231 243
6.193990728 133.617844640 0.148492339 0 231 243
6.181382810 133.514384939 0.178086019 0 231 243
6.169516425 133.411337857 0.205645597 0 232 240
6.164216866 133.311875624 0.215177379 0 232 240
6.166874963 133.216747887 0.202862220 0 232 240
6.172807878 133.123398410 0.181556724 0 231 243
6.176671049 133.028918329 0.165934785 0 231 243
6.178207219 132.933170245 0.156702886 0 231 243
6.178143111 132.836551272 0.151865851 0 231 243
6.175029149 132.738276909 0.155403891 0 231 243
6.167086422 132.637386320 0.172201627 0 231 243
6.166958411 132.540733790 0.167543674 0 231 243
6.163267075 132.442151422 0.172670908 0 231 243
6.168939572 132.348635988 0.152088285 0 231 243
6.170793933 132.253051289 0.141990407 0 231 243
6.177920234 132.160311919 0.117417657 0 231 243
6.179491475 132.064567476 0.108099110 0 231 243
6.176350775 131.966279047 0.111720054 0 231 243
6.168130783 131.865253940 0.129289571 0 231 243
6.164650732 131.766787239 0.133845028 0 231 243
6.153238697 131.664052356 0.160182748 0 231 243
6.147716531 131.564493281 0.170348624 0 231 243
6.147370533 131.467719713 0.166302031 0 231 243
6.150093775 131.372594032 0.153828297 0 231 243
6.153143787 131.277640644 0.140458217 0 231 243
6.153875553 131.181440369 0.133455220 0 231 243
6.152589153 131.084156684 0.131995418 0 231 243
6.150491605 130.986438419 0.132764321 0 231 243
6.149094625 130.889095680 0.131610566 0 231 243
6.148829364 130.792358297 0.127350080 0 231 243
6.148362499 130.695512298 0.123644369 0 231 243
6.147201581 130.598294874 0.121845831 0 231 243
6.145888936 130.500996285 0.120465149 0 231 243
6.142790560 130.402745142 0.123989782 0 231 243
6.135855419 130.302450232 0.138052654 0 231 243
6.128332068 130.201846198 0.153732428 0 231 243
6.125593833 130.103793721 0.156271997 0 231 243
6.125909547 130.007366608 0.150425471 0 231 243
6.123076050 129.909264383 0.153229097 0 231 243
6.118652378 129.810318660 0.160401306 0 231 243
6.117811779 129.713276952 0.157734048 0 231 243
6.120783928 129.618257021 0.144596258 0 231 243
6.121344207 129.521955517 0.138083683 0 231 243
6.117797971 129.423477651 0.142850915 0 231 243
6.113562112 129.324636440 0.149513532 0 231 243
6.110983929 129.226674070 0.151624519 0 231 243
6.110694884 129.129922389 0.147449356 0 231 243
6.111090498 129.033531462 0.141394809 0 231 243
6.109308791 128.935990149 0.141321737 0 231 243
6.106337561 128.837821838 0.144517118 0 231 243
6.106648660 128.741384452 0.138698135 0 231 243
6.112052856 128.647627831 0.118890840 0 231 243
6.116083293 128.553143186 0.102857799 0 231 246
6.114957447 128.455943045 0.100988887 0 231 246
6.109583413 128.356510421 0.110790119 0 231 243
6.102346848 128.256102814 0.125708809 0 231 243
6.097982965 128.157206975 0.132738115 0 231 243
6.099615301 128.061457447 0.123297800 0 231 243
6.104042474 127.967170040 0.106181356 0 231 243
6.106309115 127.871747038 0.095000662 0 231 246
6.105091599 127.774498362 0.093391808 0 231 246
6.101795681 127.676162926 0.097493468 0 231 246
6.097116795 127.577106412 0.105395437 0 231 243
6.090291004 127.476931554 0.119196380 0 231 243
6.082466305 127.376239691 0.135742849 0 231 243
6.078280747 127.277449862 0.142293786 0 231 243
6.078651466 127.181035728 0.136329436 0 231 243
6.077363382 127.083756771 0.134923145 0 231 243
6.073306423 126.985037424 0.141124584 0 231 243
6.069866419 126.886640814 0.145632450 0 231 243
6.068435947 126.789289595 0.144620990 0 231 243
6.066001003 126.691417056 0.146370238 0 231 243
6.070652348 126.597220841 0.128652833 0 231 243
6.069210846 126.499862161 0.127675109 0 231 243
6.070530539 126.403933637 0.119112718 0 231 243
6.069775665 126.306929411 0.116250907 0 231 243
6.066407677 126.208573314 0.120569405 0 231 243
6.064752520 126.111103917 0.120183387 0 231 243
6.067561002 126.015939836 0.107535136 0 231 243
6.061829222 125.916365530 0.118351642 0 231 243
6.061963042 125.819819185 0.113054073 0 231 243
6.065946436 125.725255336 0.097180991 0 231 246
6.055037801 125.623019496 0.122224739 0 231 243
6.044189252 125.520821788 0.147105082 0 231 243
6.036157643 125.420079582 0.164247392 0 231 243
6.032783933 125.321735527 0.168593246 0 231 243
5.954692746 120.644597191 0.148227422 0 231 243
-1.250962385 114.254228465 19.823699013 255 4 161
-1.263802142 114.154077649 19.854368410 255 2 164
-1.292672402 114.046178153 19.929157335 255 0 168
-1.302981815 113.947274496 19.952866720 255 0 168
-1.310078078 113.849930195 19.967734533 255 0 168
-1.317815290 113.752280902 19.984367769 255 0 168
-1.322617556 113.656052383 19.992924820 255 0 168
-1.320112572 113.563348887 19.981371807 255 0 168
-1.315453968 113.471679867 19.963892408 255 0 168
-1.314143714 113.378394938 19.955629488 255 0 168
-1.317897929 113.282672633 19.961306563 255 0 168
-1.324102337 113.185774898 19.973728634 255 0 168
-1.329115591 113.089452860 19.982873577 255 0 168
-1.330267977 112.994985985 19.981393220 255 0 168
-1.327138312 112.902571798 19.968128021 255 0 168
-1.323487879 112.810403777 19.953430366 255 0 168
-1.322680410 112.716871371 19.946558729 255 0 168
-1.325342176 112.621678301 19.949237100 255 0 168
-1.329262624 112.525884852 19.955381179 255 0 168
-1.331748204 112.430778590 19.957576994 255 0 168
-1.326824504 112.339208334 19.939379601 255 0 168
-1.330768118 112.243406121 19.945590933 255 0 168
-1.335417894 112.147269603 19.953747287 255 0 168
-1.339015073 112.051636702 19.959007526 255 0 168
-1.342187675 111.956207543 19.963100287 255 0 168
-1.344665723 111.861109942 19.965282382 255 0 168
-1.345578332 111.766756639 19.963156486 255 0 168
-1.346157380 111.672561382 19.960113497 255 0 168
-1.347390763 111.578055449 19.958872807 255 0 168
-1.348149397 111.483774434 19.956326365 255 0 168
-1.346458992 111.390652278 19.947039355 255 0 168
-1.343749238 111.298010033 19.934947263 255 0 168
-1.344855940 111.203561302 19.933362145 255 0 168
-1.351116677 111.106678828 19.945966416 255 0 168
-1.358030153 111.009492221 19.960368958 255 0 168
-1.362676161 110.913378901 19.968530781 255 0 168
-1.365825569 110.817973175 19.972573858 255 0 168
-1.367329660 110.723343342 19.972088674 255 0 168
-1.366478520 110.629821403 19.965120744 255 0 168
-1.365538852 110.536339521 19.957910118 255 0 168
-1.367653836 110.441421748 19.959110011 255 0 168
-1.371657316 110.345618669 19.965510167 255 0 168
-1.374668924 110.250282695 19.969180887 255 0 168
-1.375906288 110.155779165 19.967968161 255 0 168
-1.375477572 110.062055441 19.962169654 255 0 168
-1.373352610 109.969123739 19.951702205 255 0 168
-1.371452951 109.876084254 19.941856016 255 0 168
-1.372011238 109.781894847 19.938777958 255 0 168
-1.373933400 109.687068704 19.939456008 255 0 168
-1.375088520 109.592600666 19.938023368 255 0 168
-1.376555284 109.497987457 19.937449878 255 0 168
-1.381395972 109.401804328 19.946166832 255 0 168
-1.387957025 109.304824007 19.959621744 255 0 168
-1.392629283 109.208725328 19.967877580 255 0 168
-1.394011221 109.114156790 19.967075320 255 0 168
-1.393751128 109.020350079 19.961753079 255 0 168
-1.393730131 108.926431464 19.957090209 255 0 168
-1.395268631 108.831789734 19.956722338 255 0 168
-1.397911408 108.736637303 19.959396147 255 0 168
-1.398639119 108.642371406 19.956798092 255 0 168
-1.396849835 108.549267939 19.947270646 255 0 168
-1.395989134 108.455733606 19.940301033 255 0 168
-1.397916669 108.360911771 19.941009915 255 0 168
-1.401405373 108.265371074 19.946018697 255 0 168
-1.405215714 108.169684033 19.951914353 255 0 168
-1.408149687 108.074402184 19.955398086 255 0 168
-1.407255305 107.980881547 19.948341199 255 0 168
-1.403154484 107.888832115 19.932455964 255 0 168
-1.402103693 107.795378918 19.924970354 255 0 168
-1.408455458 107.698529537 19.937870044 255 0 168
-1.417935317 107.600250852 19.959384956 255 0 168
-1.423546952 107.503749339 19.970249331 255 0 168
-1.423769526 107.409716274 19.966274864 255 0 168
-1.421464925 107.316837524 19.955342190 255 0 168
-1.418951505 107.224051506 19.943835434 255 0 168
-1.416578224 107.131198758 19.932715550 255 0 168
-1.414829405 107.038058634 19.923316292 255 0 168
-1.414792801 106.944136342 19.918633229 255 0 168
-1.417891769 106.848785987 19.922586242 255 0 168
-1.415444361 106.755959430 19.911266235 255 2 164
-1.417543292 106.661064320 19.912467492 255 2 164
-1.419120076 106.566406982 19.912231941 255 2 164
-1.422982832 106.470712965 19.918293041 255 0 168
-1.426913418 106.374990252 19.924542187 255 0 168
-1.428189934 106.280471606 19.923483202 255 0 168
-1.427252070 106.186955054 19.916326826 255 0 168
-1.425176552 106.093951269 19.906038294 255 2 164
-1.422819285 106.001072313 19.894974773 255 2 164
-1.420561181 105.908145936 19.884185319 255 2 164
-1.419580024 105.814641093 19.876913711 255 2 164
-1.419928895 105.720535316 19.873306231 255 2 164
-1.421565630 105.625849102 19.873246839 255 2 164
-1.368431010 105.555801837 19.722337737 255 6 157
-1.322429037 105.482507450 19.591072996 255 10 150
5.697431118 106.800073714 0.176364674 0 231 243
5.669127805 106.690911094 0.249557286 0 232 240
5.768893669 106.638271340 -0.029710982 0 230 249
5.662155917 106.397872691 0.254649435 0 232 240
5.663143981 106.301652409 0.247233867 0 232 240
5.703394192 106.222692965 0.131760905 0 231 243
5.711827500 106.129725158 0.103855520 0 231 246
5.714993353 106.034438106 0.090448332 0 231 246
5.719315499 105.939654833 0.073859687 0 231 246
5.726754465 105.846233039 0.048693548 0 231 246
5.733925561 105.752687445 0.024265489 0 230 249
5.739009906 105.658222780 0.005581717 0 230 249
5.741157128 105.562469790 -0.005017112 0 230 249
5.740439591 105.465463408 -0.007729981 0 230 249
5.738851526 105.368076898 -0.008045641 0 230 249
5.738318841 105.271150717 -0.011264963 0 230 249
5.739924996 105.175155519 -0.020370194 0 230 249
5.741863820 105.079302964 -0.030390032 0 230 249
5.740214688 104.981888196 -0.030532985 0 230 249
5.736252130 104.883468907 -0.024306982 0 230 249
5.735278528 104.786348901 -0.026306903 0 230 249
5.738941097 104.691239032 -0.041067023 0 230 249
5.743001713 104.596297942 -0.056921825 0 230 252
5.742735229 104.499479890 -0.060864869 0 230 252
5.739697781 104.401462780 -0.057179333 0 230 252
5.736589484 104.303416469 -0.053297510 0 230 249
5.734478428 104.205802147 -0.052159502 0 230 249
5.733029506 104.108474139 -0.052842923 0 230 249
5.728866303 104.009976596 -0.046053491 0 230 249
5.720723128 103.909767623 -0.028306888 0 230 249
5.712597205 103.809571350 -0.010606264 0 230 249
5.709267350 103.711441806 -0.006106731 0 230 249
5.709489516 103.614839292 -0.011383984 0 230 249
5.708881603 103.517879566 -0.014375048 0 230 249
5.706640131 103.420219130 -0.012867991 0 230 249
5.704896242 103.322772626 -0.012729496 0 230 249
5.705652578 103.226396476 -0.019472681 0 230 249
5.707299821 103.130399777 -0.028667374 0 230 249
5.708067927 103.034025403 -0.035440788 0 230 249
5.708307151 102.937423841 -0.040757110 0 230 249
5.708326543 102.840727476 -0.045467120 0 230 249
5.706719275 102.743337199 -0.045697779 0 230 249
5.704459917 102.645669693 -0.044132011 0 230 249
5.702199958 102.548002762 -0.042563360 0 230 249
5.699094936 102.449977595 -0.038666947 0 230 249
5.696513590 102.352176211 -0.036211004 0 230 249
5.692711693 102.253858218 -0.030393480 0 230 249
5.684958286 102.153867726 -0.013695543 0 230 249
5.676263107 102.053483497 0.005596755 0 230 249
5.671472750 101.954756735 0.014139813 0 230 249
5.672590562 101.858529667 0.006417698 0 230 249
5.675365793 101.763000715 -0.005866621 0 230 249
5.675596757 101.666395436 -0.011144879 0 230 249
5.674689707 101.569309446 -0.013288741 0 230 249
5.676193339 101.473238427 -0.022068787 0 230 249
5.678542904 101.377521303 -0.033176907 0 230 249
5.678716072 101.280886669 -0.038291605 0 230 249
5.677974226 101.183866747 -0.040885807 0 230 249
5.678312724 101.087299819 -0.046453462 0 230 249
5.680272652 100.991411486 -0.056484479 0 230 252
5.677753860 100.893644945 -0.054182563 0 230 252
5.677971287 100.797024429 -0.059413482 0 230 252
5.668811030 100.696482273 -0.038821966 0 230 249
5.663277857 100.597461214 -0.028216111 0 230 249
5.660269203 100.499497009 -0.024560225 0 230 249
5.656281953 100.401126195 -0.018208455 0 230 249
5.650491432 100.302006355 -0.006889926 0 230 249
5.645950963 100.203410284 0.000987849 0 230 249
5.644579639 100.106134530 0.000140316 0 230 249
5.646813273 100.010356538 -0.010632810 0 230 249
5.651190957 99.915465862 -0.027308898 0 230 249
5.654677605 99.820201515 -0.041530409 0 230 249
5.656435912 99.724217622 -0.050991587 0 230 249
5.657113228 99.627784096 -0.057474955 0 230 252
5.656917634 99.530988214 -0.061553446 0 230 252
5.656521730 99.434108853 -0.065079191 0 230 252
5.656670988 99.337453952 -0.070105051 0 230 252
5.656287274 99.240578277 -0.073662079 0 230 252
5.651801517 99.142011928 -0.065921600 0 230 252
5.644813179 99.042417962 -0.051288024 0 230 249
5.639846571 98.943659876 -0.042220617 0 230 249
5.638840292 98.846531898 -0.044058241 0 230 249
5.639594411 98.750126459 -0.050742705 0 230 249
5.638546586 98.652980571 -0.052463603 0 230 249
5.638412575 98.556209039 -0.056699945 0 230 252
5.641012528 98.460555924 -0.068464473 0 230 252
5.642578835 98.364477230 -0.077381303 0 230 252
5.641178557 98.267184332 -0.078126985 0 230 252
5.638231974 98.169260395 -0.074612864 0 230 252
5.634708470 98.071102536 -0.069508595 0 230 252
5.630240981 97.972561845 -0.061803205 0 230 252
5.627554855 97.874748848 -0.059002586 0 230 252
5.629286182 97.778733637 -0.068367042 0 230 252
5.634846777 97.684272190 -0.088276886 0 230 252
5.639489364 97.589433001 -0.105657465 0 230 252
5.637862222 97.492046622 -0.105768962 0 230 252
5.632571638 97.393176226 -0.095789291 0 230 252
5.630258131 97.295514137 -0.094007884 0 230 252
5.632162159 97.199558649 -0.103841499 0 230 252
5.634549197 97.103796020 -0.115004416 0 230 252
5.631775693 97.005947548 -0.111952531 0 230 252
5.622243069 96.905374405 -0.090282467 0 230 252
5.612431596 96.804695279 -0.067842781 0 230 252
5.606497022 96.705583328 -0.056080009 0 230 252
5.605111953 96.608304641 -0.056847062 0 230 252
5.606371223 96.512088586 -0.064896582 0 230 252
5.607896003 96.415977296 -0.073676358 0 230 252
5.608703925 96.319576520 -0.080480500 0 230 252
5.608063788 96.222594125 -0.083294871 0 230 252
5.605079169 96.124672955 -0.079650159 0 230 252
5.601147605 96.026374528 -0.073395789 0 230 252
5.600552611 95.929411199 -0.076330913 0 230 252
5.604865894 95.834406479 -0.092785140 0 230 252
5.609796797 95.739643907 -0.110939712 0 230 252
5.610936432 95.643366431 -0.118649838 0 230 252
5.609361761 95.546006984 -0.118881931 0 230 252
5.607377625 95.448485074 -0.117984884 0 230 252
5.605641583 95.351062366 -0.117770042 0 230 252
5.604582619 95.253908822 -0.119419149 0 230 252
5.604782238 95.157254219 -0.124534139 0 230 252
5.604701579 95.060487599 -0.128875905 0 230 252
5.602194194 94.962759910 -0.126531455 0 230 252
5.595046260 94.863198719 -0.111401987 0 230 252
5.585249067 94.762595768 -0.088972824 0 230 252
5.586000404 94.666161565 -0.095601665 0 230 252
5.578317065 94.566401046 -0.078992993 0 230 252
5.573877829 94.467923082 -0.071319998 0 230 252
5.574971785 94.371624592 -0.078889138 0 230 252
5.579456094 94.276657024 -0.095797383 0 230 252
5.584672674 94.181972752 -0.114722051 0 230 252
5.580695699 94.083677069 -0.108317813 0 230 252
5.583588628 93.988075995 -0.120838817 0 230 252
5.580150987 93.889993218 -0.115917996 0 230 252
5.579576909 93.793032313 -0.118885118 0 230 252
5.568376720 93.691918526 -0.092575506 0 230 252
5.558939257 93.591500557 -0.071120711 0 230 252
5.554800544 93.493155532 -0.064262995 0 230 252
5.557950732 93.397652869 -0.077485835 0 230 252
5.564628337 93.303520065 -0.100426228 0 230 252
5.569895168 93.208832722 -0.119478836 0 230 252
5.570072373 93.112163200 -0.124507656 0 230 252
5.566192807 93.013918168 -0.118358096 0 230 252
5.561741573 92.915453576 -0.110632157 0 230 252
5.559390886 92.817805199 -0.108692433 0 230 252
5.558943339 92.720894254 -0.111995153 0 230 252
5.558341209 92.623923044 -0.114870798 0 230 252
5.555040125 92.525909039 -0.110308810 0 230 252
5.548687304 92.426719189 -0.097336966 0 230 252
5.541404778 92.327174946 -0.081802034 0 230 252
5.536073092 92.228386637 -0.071640971 0 230 252
5.535771303 92.131536591 -0.075337970 0 230 252
5.539590684 92.036269830 -0.090389417 0 230 252
5.543989769 91.941221909 -0.107037231 0 230 252
5.545465941 91.845048663 -0.115630095 0 230 252
5.543782278 91.747662632 -0.115514994 0 230 252
5.541342489 91.649987586 -0.113315176 0 230 252
5.540091003 91.552768001 -0.114388530 0 230 252
5.539947357 91.455971785 -0.118513411 0 230 252
5.540466668 91.359427875 -0.124463983 0 230 252
5.541206449 91.262966798 -0.131020966 0 230 252
5.540896528 91.166104476 -0.134684273 0 229 255
5.538226352 91.068343390 -0.131842426 0 230 252
5.532763115 90.969521693 -0.121302605 0 230 252
5.525620281 90.870065431 -0.106132972 0 230 252
5.518142242 90.770486579 -0.090038165 0 230 252
5.510861106 90.670987196 -0.074484506 0 230 252
5.503548424 90.571480560 -0.058842461 0 230 252
5.499879775 90.473357034 -0.053241100 0 230 249
5.502000250 90.377423062 -0.063592106 0 230 252
5.503552408 90.281272106 -0.072375885 0 230 252
5.502500796 90.184137201 -0.073983029 0 230 252
5.501695411 90.087095025 -0.076267563 0 230 252
5.505132723 89.991649423 -0.090243291 0 230 252
5.508747460 89.896267088 -0.104706987 0 230 252
5.508280454 89.799348060 -0.107920747 0 230 252
5.503809056 89.700926011 -0.100097488 0 230 252
5.497623916 89.601864137 -0.087549894 0 230 252
5.493061257 89.503413689 -0.079472430 0 230 252
5.492829383 89.406585962 -0.083329317 0 230 252
5.497565574 89.311614178 -0.100877180 0 230 252
5.501723580 89.216422116 -0.116830594 0 230 252
5.501939554 89.119755900 -0.121918545 0 230 252
5.496691267 89.021052886 -0.111945388 0 230 252
5.486385398 88.920470654 -0.088031612 0 230 252
5.485223899 88.823295373 -0.089319358 0 230 252
5.483947013 88.726077288 -0.090287899 0 230 252
5.479055343 88.627518080 -0.081292269 0 230 252
5.484204981 88.532683770 -0.099971126 0 230 252
5.485997161 88.436601489 -0.109395175 0 230 252
5.485209050 88.339562544 -0.111706271 0 230 252
5.486645012 88.243345235 -0.120146319 0 230 252
5.493701981 88.149201010 -0.144078334 0 229 255
5.499622291 88.054631433 -0.164876523 0 229 255
5.497058925 87.956931220 -0.162290143 0 229 255
5.489384479 87.857351190 -0.145614661 0 229 255
5.480943044 87.757494190 -0.126823611 0 230 252
5.483773695 87.661782483 -0.139101239 0 229 255
5.479254575 87.563371366 -0.131118925 0 230 252
5.477067387 87.465817496 -0.129563079 0 230 252
5.475297834 87.368417365 -0.129157196 0 230 252
5.473972178 87.271180103 -0.129973695 0 230 252
5.474583974 87.174650883 -0.136129563 0 229 255
5.478991905 87.079505870 -0.152748392 0 229 255
5.483986256 86.984570493 -0.170982742 0 229 255
5.483817761 86.887750111 -0.174984540 0 229 255
5.478314842 86.788988183 -0.164280507 0 229 255
5.469752261 86.689117556 -0.145140866 0 229 255
5.460234198 86.588905695 -0.123365822 0 230 252
5.453461633 86.489696025 -0.109157568 0 230 252
5.452249119 86.392505182 -0.110275047 0 230 252
5.453807658 86.296317391 -0.119030247 0 230 252
5.453557864 86.199473778 -0.122799346 0 230 252
5.450828047 86.101733804 -0.119730574 0 230 252
5.447902950 86.003924626 -0.116122216 0 230 252
5.449030446 85.907577484 -0.123684635 0 230 252
5.455781796 85.813253477 -0.146749695 0 229 255
5.464409210 85.719598265 -0.174985802 0 229 255
5.466251205 85.623497819 -0.184514958 0 229 255
5.454899350 85.522659886 -0.157669748 0 229 255
5.443310226 85.421744687 -0.130168773 0 230 252
5.425620092 84.351107988 -0.130253138 0 230 252
5.406972763 81.538367580 -0.206967523 0 229 255
5.173480625 68.398320393 -0.146313020 0 229 255
5.139883967 65.484757496 -0.180350689 0 229 255
5.134576865 65.386466687 -0.169906203 0 229 255
5.129396261 65.288214542 -0.159809633 0 229 255
5.127033489 65.190752980 -0.157491781 0 229 255
5.125727137 65.093587247 -0.158089506 0 229 255
5.125283153 64.996662060 -0.161067080 0 229 255
5.128171544 64.900663827 -0.173244399 0 229 255
5.132691463 64.805116051 -0.189925465 0 229 255
5.132983548 64.708390688 -0.194932084 0 229 255
5.126808605 64.609871965 -0.182081347 0 229 255
5.118700631 64.510822158 -0.163891860 0 229 255
5.114409945 64.412832825 -0.156241057 0 229 255
5.116121760 64.316502756 -0.165162934 0 229 255
5.117130232 64.219976748 -0.172141666 0 229 255
5.113601630 64.122200365 -0.166591457 0 229 255
5.107554380 64.023733596 -0.154085392 0 229 255
5.102596203 63.925569599 -0.144585161 0 229 255
5.101727276 63.828529510 -0.146375150 0 229 255
5.104169934 63.732395787 -0.157308222 0 229 255
5.106425748 63.636208360 -0.167724307 0 229 255
5.105877250 63.539252961 -0.170395710 0 229 255
5.101514781 63.441257573 -0.162534253 0 229 255
5.096573327 63.343107133 -0.153072695 0 229 255
5.095688105 63.246062272 -0.154810640 0 229 255
5.099766904 63.150364770 -0.170255084 0 229 255
5.105750785 63.055179790 -0.190959264 0 229 255
5.108971931 62.959241659 -0.204033392 0 229 255
5.107472611 62.862024356 -0.204071140 0 229 255
5.103373021 62.764105558 -0.196927109 0 229 255
5.098277891 62.665920775 -0.187032604 0 229 255
5.092183584 62.567470165 -0.174377517 0 229 255
5.094943833 62.471403345 -0.186173226 0 229 255
5.090898604 62.373507076 -0.179174210 0 229 255
5.088403121 62.276028479 -0.176453637 0 229 255
5.086991903 62.178841203 -0.176726127 0 229 255
5.086698526 62.081952983 -0.180084466 0 229 255
5.084826917 61.984643027 -0.179083165 0 229 255
5.081212537 61.886869291 -0.173267736 0 229 255
5.076252445 61.788739428 -0.163734623 0 229 255
5.070355502 61.690363622 -0.151612889 0 229 255
5.065016462 61.592139580 -0.141030555 0 229 255
5.062492325 61.494664706 -0.138220874 0 229 255
5.062786817 61.397936769 -0.143194291 0 229 255
5.064939562 61.301698809 -0.153298630 0 229 255
5.066195318 61.205221790 -0.160924621 0 229 255
5.063086078 61.107593099 -0.156494280 0 229 255
5.058705814 61.009631646 -0.148552344 0 229 255
5.058758079 60.912837126 -0.152851028 0 229 255
5.063501028 60.817272191 -0.170103555 0 229 255
5.072737622 60.722879870 -0.199765962 0 229 255
5.075464663 60.626777216 -0.211448904 0 229 255
5.065566217 60.527374417 -0.188260421 0 229 255
5.054758651 60.427741307 -0.162559479 0 229 255
5.046179471 60.328695936 -0.143011656 0 229 255
5.041671197 60.230714852 -0.134706078 0 229 255
5.041506484 60.133864197 -0.138396050 0 229 255
5.042851172 60.037404226 -0.146253846 0 229 255
5.043615016 59.940792098 -0.152506247 0 229 255
5.044276117 59.844152065 -0.158473755 0 229 255
5.045064626 59.747543648 -0.164792054 0 229 255
5.045116331 59.650743965 -0.169074131 0 229 255
5.044224673 59.553700700 -0.170749413 0 229 255
5.040788713 59.456003532 -0.165395876 0 229 255
5.034017671 59.357452460 -0.150829135 0 229 255
5.028761779 59.259293980 -0.140446067 0 229 255
5.027626905 59.162193022 -0.141444620 0 229 255
5.027858450 59.065441215 -0.146216300 0 229 255
5.026511505 58.968285845 -0.146626733 0 229 255
5.023830068 58.870790857 -0.143349808 0 229 255
5.021661964 58.773427692 -0.141489593 0 229 255
5.021905543 58.676677805 -0.146289864 0 229 255
5.024182752 58.580442584 -0.156706456 0 229 255
5.026498554 58.484214635 -0.167228591 0 229 255
5.027279226 58.387596102 -0.173509159 0 229 255
5.025713700 58.290384027 -0.173307633 0 229 255
5.020956427 58.192367993 -0.164288184 0 229 255
5.013359249 58.093640185 -0.147422542 0 229 255
5.006213993 57.995030951 -0.131803853 0 230 252
5.003391297 57.897510836 -0.128124448 0 230 252
5.003226466 57.800657897 -0.131785961 0 230 252
5.003616405 57.703943078 -0.136978853 0 229 255
5.004410677 57.607328175 -0.143287570 0 229 255
5.004470131 57.510528674 -0.147565256 0 229 255
5.002012971 57.413101795 -0.144889654 0 229 255
4.997187258 57.315087221 -0.135669650 0 229 255
4.990963920 57.216728654 -0.122587327 0 230 252
4.985773152 57.118629969 -0.112356168 0 230 252
4.986948504 57.022109773 -0.119710577 0 230 252
4.994770006 56.927229975 -0.145424498 0 229 255
5.002869534 56.832412038 -0.171905608 0 229 255
5.006005103 56.736364512 -0.184672294 0 229 255
5.003050488 56.638816103 -0.180612957 0 229 255
4.996726882 56.540441948 -0.167244987 0 229 255
4.991768694 56.442406600 -0.157647854 0 229 255
4.987830544 56.344623955 -0.150867458 0 229 255
4.991746878 56.248763198 -0.165785501 0 229 255
4.986838471 56.150745278 -0.156322116 0 229 255
4.983845416 56.053196992 -0.152149058 0 229 255
4.980737324 55.955622243 -0.147656932 0 229 255
4.975519172 55.857536615 -0.137333892 0 229 255
4.970324515 55.759459900 -0.127074429 0 230 252
4.966633686 55.661750482 -0.120968458 0 230 252
4.966733213 55.564959377 -0.125333393 0 230 252
4.970590592 55.469074405 -0.140079629 0 229 255
4.974605531 55.373223699 -0.155260176 0 229 255
4.979168993 55.277501142 -0.171955231 0 229 255
4.982512303 55.181481254 -0.185278123 0 229 255
4.981067921 55.084309831 -0.185371924 0 229 255
4.973020931 54.985557770 -0.167221852 0 229 255
4.963191441 54.886384944 -0.144145337 0 229 255
4.957187001 54.788131834 -0.131635886 0 230 252
4.956665362 54.691189118 -0.134274113 0 229 255
4.958152681 54.594724017 -0.142461988 0 229 255
4.956050936 54.497404469 -0.140732028 0 229 255
4.950742969 54.399325370 -0.130141853 0 230 252
4.945641679 54.301298494 -0.120121410 0 230 252
4.942076333 54.203637843 -0.114343607 0 230 252
4.939852985 54.106295886 -0.112272638 0 230 252
4.939297774 54.009347940 -0.114809742 0 230 252
4.940536368 53.912821661 -0.122302249 0 230 252
4.942304168 53.816417975 -0.131255942 0 230 252
4.942987165 53.719757804 -0.137211042 0 229 255
4.941250564 53.622529894 -0.136479170 0 229 255
4.936941997 53.524701401 -0.128639175 0 230 252
4.932155221 53.426763843 -0.119476472 0 230 252
4.929640315 53.329358450 -0.116590230 0 230 252
4.928102328 53.232181435 -0.116402260 0 230 252
4.925014194 53.134644880 -0.111929573 0 230 252
4.921159993 53.036932325 -0.105338747 0 230 252
4.920064544 52.939860449 -0.106370002 0 230 252
4.923460710 52.843826498 -0.119811996 0 230 252
4.927183806 52.747864616 -0.134156390 0 229 255
4.927597608 52.651137003 -0.139354913 0 229 255
4.924609955 52.553626255 -0.135152715 0 229 255
4.920615672 52.455885967 -0.128167526 0 230 252
4.918020883 52.358468670 -0.125048471 0 230 252
4.917256807 52.261471416 -0.126987282 0 230 252
4.916885300 52.164563649 -0.130009780 0 230 252
4.916672175 52.067691520 -0.133468812 0 229 255
4.917101008 51.970964926 -0.138700751 0 229 255
4.916844125 51.874081418 -0.142036570 0 229 255
4.913388072 51.776471552 -0.136530184 0 229 255
4.906212676 51.678021173 -0.120743886 0 230 252
4.897225551 51.579165859 -0.099949313 0 230 252
4.898580674 51.482651163 -0.107735145 0 230 252
4.894344444 51.384874690 -0.100067506 0 230 252
4.894135877 51.288006770 -0.103529580 0 230 252
4.895619871 51.191518373 -0.111668162 0 230 252
4.896959268 51.094995668 -0.119406034 0 230 252
4.889546890 50.996512357 -0.102955612 0 230 252
4.892812859 50.900419905 -0.116015628 0 230 252
4.893922922 50.803843313 -0.123116280 0 230 252
4.890142783 50.706176183 -0.116700569 0 230 252
4.887469347 50.608757194 -0.113342247 0 230 252
4.887891733 50.512026494 -0.118538855 0 230 252
4.885003240 50.414561246 -0.114583740 0 230 252
4.883266401 50.317352135 -0.113810341 0 230 252
4.882626076 50.220385669 -0.116066320 0 230 252
4.885016883 50.124086965 -0.126698724 0 230 252
4.885910726 50.027456337 -0.133192658 0 229 255
4.882649729 49.929911757 -0.128201994 0 230 252
4.878442890 49.832161537 -0.120595862 0 230 252
4.873694380 49.734295215 -0.111491299 0 230 252
4.867090345 49.636026358 -0.097256869 0 230 252
4.861351226 49.537950420 -0.085411648 0 230 252
4.858804118 49.440573069 -0.082387723 0 230 252
4.859900189 49.343988711 -0.089432292 0 230 252
4.864607946 49.248186344 -0.106458483 0 230 252
4.870470295 49.152629688 -0.126675007 0 230 252
4.873321993 49.056416917 -0.138569020 0 229 255
4.872708477 48.959453375 -0.140883941 0 229 255
4.868635427 48.861744250 -0.133635288 0 229 255
4.862153769 48.763519502 -0.119727734 0 230 252
4.854819474 48.665115905 -0.103462015 0 230 252
4.849000591 48.567041882 -0.091383689 0 230 252
4.846325925 48.469644112 -0.087995101 0 230 252
4.845552075 48.372653500 -0.089859451 0 230 252
4.844234045 48.275546735 -0.090218419 0 230 252
4.842322648 48.178313973 -0.088936015 0 230 252
4.842236521 48.081469568 -0.092697849 0 230 252
4.844761620 47.985178054 -0.103676582 0 230 252
4.846194475 47.888652720 -0.111635019 0 230 252
4.844273544 47.791417092 -0.110321596 0 230 252
4.841388558 47.693978898 -0.106342041 0 230 252
4.841048265 47.597077742 -0.109395547 0 230 252
4.842458906 47.500543952 -0.117288045 0 230 252
4.843853770 47.404005022 -0.125135832 0 230 252
4.844600955 47.307328695 -0.131192113 0 230 252
4.843664740 47.210299297 -0.132593733 0 229 255
4.840026467 47.112706297 -0.126524642 0 230 252
4.834476549 47.014717337 -0.115169717 0 230 252
4.828963963 46.916739615 -0.103916655 0 230 252
4.825120822 46.819111625 -0.097277341 0 230 252
4.824321236 46.722115958 -0.099050545 0 230 252
4.826433696 46.625721954 -0.108872864 0 230 252
4.828791800 46.529376255 -0.119373190 0 230 252
4.829650894 46.432719359 -0.125728423 0 230 252
4.827755862 46.335495034 -0.124468690 0 230 252
4.822963635 46.237677084 -0.115198323 0 230 252
4.818734274 46.139977284 -0.107482723 0 230 252
4.817379183 46.042867379 -0.107711988 0 230 252
4.817411296 45.946040731 -0.111775125 0 230 252
4.816873906 45.849097348 -0.114262664 0 230 252
4.815482402 45.751980040 -0.114387731 0 230 252
4.816717661 45.655395871 -0.121773685 0 230 252
4.822345820 45.559699416 -0.141303426 0 229 255
4.829255637 45.464256913 -0.164375570 0 229 255
4.831511439 45.367869660 -0.174579868 0 229 255
4.659509999 37.685376291 -0.008659870 0 230 249
4.599657269 31.768029331 -0.077236206 0 230 252
4.592914931 31.670171617 -0.062382712 0 230 252
4.566048647 30.503966255 -0.033580452 0 230 249
4.504572009 26.330612057 -0.025243542 0 230 249
4.457986769 25.453037212 0.070112324 0 231 246
4.468571177 25.357484212 0.037087838 0 231 246
4.485985093 25.262760110 -0.014840310 0 230 249
4.494386843 25.166919909 -0.041821365 0 230 249
4.493748397 25.069970527 -0.043777421 0 230 249
4.495260019 24.973282154 -0.051683932 0 230 249
4.494184253 24.876278446 -0.052427137 0 230 249
4.491020919 24.779022725 -0.047390490 0 230 249
4.496250151 24.682778898 -0.065584497 0 230 252
4.490944918 24.585266296 -0.054616369 0 230 252
4.484888530 24.487667152 -0.041567592 0 230 249
4.478533986 24.390036337 -0.027692125 0 230 249
4.474618550 24.292699498 -0.020567295 0 230 249
4.473002416 24.195637276 -0.019806196 0 230 249
4.473233988 24.098793711 -0.024158812 0 230 249
4.474499262 24.002070880 -0.031371844 0 230 249
4.474114144 23.905152714 -0.034015030 0 230 249
4.470602421 23.807868490 -0.028001706 0 230 249
4.466764219 23.710548147 -0.021083338 0 230 249
4.466435406 23.613637661 -0.023878828 0 230 249
4.469786154 23.517152713 -0.036859421 0 230 249
4.470477863 23.420357589 -0.042477816 0 230 249
4.465646555 23.322925922 -0.032805359 0 230 249
4.459391049 23.225333928 -0.019188883 0 230 249
4.455087948 23.127969037 -0.010976101 0 230 249
4.453035270 23.030862947 -0.008992145 0 230 249
4.453232592 22.934013031 -0.013235948 0 230 249
4.456021821 22.837455379 -0.024654157 0 230 249
4.460503189 22.741085592 -0.040755912 0 230 249
4.464397980 22.644645726 -0.055232724 0 230 252
4.466232843 22.547971494 -0.064005623 0 230 252
4.466191740 22.451085785 -0.067583826 0 230 252
4.465753927 22.354155241 -0.070062587 0 230 252
4.464634071 22.257148697 -0.070651933 0 230 252
4.461273960 22.159894857 -0.065037863 0 230 252
4.452313248 22.062026480 -0.043916951 0 230 249
4.441822661 21.963996420 -0.018559032 0 230 249
4.437577196 21.866656135 -0.010489836 0 230 249
4.439874135 21.770030841 -0.020532722 0 230 249
4.442664972 21.673456635 -0.031941941 0 230 249
4.441889785 21.576493912 -0.033477075 0 230 249
4.437941002 21.479189050 -0.026224464 0 230 249
4.433607001 21.381845091 -0.017904043 0 230 249
4.432780448 21.284878964 -0.019293358 0 230 249
4.435425005 21.188282772 -0.030291951 0 230 249
4.438275355 21.091705665 -0.041859254 0 230 249
4.439705049 20.994975255 -0.049492088 0 230 249
4.438505098 20.897965665 -0.049843022 0 230 249
4.434690819 20.800681523 -0.042954346 0 230 249
4.429850183 20.703292085 -0.033222663 0 230 249
4.425602571 20.605967456 -0.025131644 0 230 249
4.422044638 20.508717003 -0.018948936 0 230 249
4.417529190 20.411369364 -0.010113793 0 230 249
4.410697324 20.313785440 0.005136409 0 230 249
4.401599824 20.215973107 0.026661168 0 231 246
4.401870091 20.119126283 0.022249267 0 230 249
4.396968500 20.021750852 0.032158756 0 231 246
4.395884089 19.924766394 0.031500164 0 231 246
4.397453116 19.828050694 0.023495618 0 230 249
4.399395667 19.731370718 0.014457915 0 230 249
4.402572631 19.634812553 0.002003290 0 230 249
4.397057069 19.537380988 0.013618904 0 230 249
4.400928064 19.440888993 -0.000755235 0 230 249
4.401991665 19.344114381 -0.007354718 0 230 249
4.401240282 19.247158583 -0.008927410 0 230 249
4.401875396 19.150339287 -0.014338154 0 230 249
4.401893646 19.053458176 -0.018039659 0 230 249
4.402079798 18.956592721 -0.022204946 0 230 249
4.402955122 18.859793517 -0.028277444 0 230 249
4.403541558 18.762964851 -0.033548873 0 230 249
4.401039128 18.665836385 -0.030265859 0 230 249
4.394648872 18.568334731 -0.016215867 0 230 249
4.396800092 18.471656376 -0.025816825 0 230 249
4.393299230 18.374435722 -0.019765383 0 230 249
4.390955407 18.277327070 -0.016916695 0 230 249
4.387324516 18.180097498 -0.010502702 0 230 249
4.381565205 18.082669079 0.001806498 0 230 249
4.376981060 17.985354766 0.010862768 0 230 249
4.377832962 17.888552073 0.004866813 0 230 249
4.381653916 17.792024770 -0.009349958 0 230 249
4.384073597 17.695363689 -0.019685247 0 230 249
4.384231996 17.598490917 -0.023757423 0 230 249
4.383257336 17.501512937 -0.024690726 0 230 249
4.383316011 17.404629702 -0.028484441 0 230 249
4.386502105 17.308031248 -0.040937715 0 230 249
4.389631711 17.211424465 -0.053233496 0 230 249
4.384643912 17.114079499 -0.043048618 0 230 249
4.373608465 17.016192289 -0.016114526 0 230 249
4.364004421 16.918441283 0.006857011 0 230 249
4.358836318 16.821093454 0.017545271 0 230 249
4.358933805 16.724217570 0.013652429 0 230 249
4.362140217 16.627616425 0.001150914 0 230 249
4.363097768 16.530813597 -0.005121547 0 230 249
4.360102290 16.433661916 -0.000445304 0 230 249
4.356545998 16.336462704 0.005785307 0 230 249
4.356745687 16.239592635 0.001615178 0 230 249
4.360346600 16.143016630 -0.011973357 0 230 249
4.362245709 16.046290176 -0.020847747 0 230 249
4.359701345 15.949179549 -0.017414907 0 230 249
4.354173079 15.851814755 -0.005716926 0 230 249
4.348932825 15.754477971 0.005184711 0 230 249
4.346774617 15.657405839 0.007551822 0 230 249
4.347875503 15.560609770 0.000893929 0 230 249
4.349619021 15.463866115 -0.007542659 0 230 249
4.350209364 15.367023889 -0.012784343 0 230 249
4.350989169 15.270196234 -0.018549629 0 230 249
4.353738040 15.173530464 -0.029767316 0 230 249
4.357990825 15.076985934 -0.045149191 0 230 249
4.361433760 14.980370877 -0.058287049 0 230 252
4.361800089 14.883500907 -0.062902765 0 230 252
4.358636426 14.786342663 -0.057740495 0 230 252
4.354036743 14.689069783 -0.048599688 0 230 249
4.348794577 14.591747878 -0.037678126 0 230 249
4.342986772 14.494383849 -0.025188610 0 230 249
4.339129987 14.397179278 -0.018101548 0 230 249
4.339502571 14.300312958 -0.022727438 0 230 249
4.341738164 14.203592914 -0.032512245 0 230 249
4.341984610 14.106713872 -0.036786517 0 230 249
4.339491364 14.009619338 -0.033471331 0 230 249
4.336321097 13.912473197 -0.028279724 0 230 249
4.334299624 13.815417807 -0.026268812 0 230 249
4.333942790 13.718491656 -0.028867437 0 230 249
4.335612735 13.621720637 -0.037078730 0 230 249
4.338406065 13.525033406 -0.048400517 0 230 249
4.339513506 13.428215129 -0.055051568 0 230 252
4.337238691 13.331139440 -0.052333105 0 230 249
4.335151536 13.234078855 -0.050133231 0 230 249
4.335059100 13.137168449 -0.053457311 0 230 249
4.336224561 13.040351051 -0.060264501 0 230 252
4.338399334 12.943606796 -0.069866292 0 230 252
4.341262253 12.846910848 -0.081373111 0 230 252
4.341424850 12.750013920 -0.085399109 0 230 252
4.336365917 12.652735178 -0.074960531 0 230 252
4.330049411 12.555368285 -0.061037206 0 230 252
4.327131389 12.458250801 -0.056526329 0 230 252
4.328638916 12.361452576 -0.064273024 0 230 252
4.331070033 12.264718405 -0.074576974 0 230 252
4.332003967 12.167875255 -0.080732595 0 230 252
4.330736394 12.070875077 -0.080788821 0 230 252
4.326413185 11.973660373 -0.072379568 0 230 252
4.319327654 11.876255153 -0.056317200 0 230 252
4.313192366 11.778920648 -0.042885738 0 230 249
4.311431706 11.681892490 -0.041571139 0 230 249
4.311324442 11.584978586 -0.044835453 0 230 249
4.311328032 11.488071583 -0.048405698 0 230 249
4.311941026 11.391205248 -0.053662933 0 230 252
4.311697965 11.294279818 -0.056547630 0 230 252
4.309231411 11.197204364 -0.053271706 0 230 249
4.306524955 11.100114006 -0.049329996 0 230 249
4.304215729 11.003051357 -0.046487470 0 230 249
4.301231166 10.905945099 -0.041772902 0 230 249
4.298275205 10.808842246 -0.037136336 0 230 249
4.306132893 10.712447047 -0.062455006 0 230 252
4.298548059 10.615042561 -0.044992964 0 230 249
4.300034370 10.518228541 -0.052659107 0 230 249
4.301233869 10.421394225 -0.059529594 0 230 252
4.303303121 10.324613698 -0.068808437 0 230 252
4.307263131 10.227950680 -0.083324177 0 230 252
4.312359225 10.131355452 -0.100986188 0 230 252
4.315125815 10.034609684 -0.112193674 0 230 252
4.313110944 9.937563441 -0.110153778 0 230 252
4.307492787 9.840295090 -0.098130268 0 230 252
4.301994508 9.743037650 -0.086437559 0 230 252
4.299772874 9.645983837 -0.083821140 0 230 252
4.299623571 9.549056776 -0.086944714 0 230 252
4.306479936 9.452551699 -0.109475765 0 230 252
4.298504445 9.355151533 -0.090915207 0 230 252
4.289388895 9.257688808 -0.069194792 0 230 252
4.283637963 9.160431415 -0.056794517 0 230 252
4.282659508 9.063458267 -0.057614981 0 230 252
4.284573449 8.966654064 -0.066447628 0 230 252
4.288733018 8.869977951 -0.081500701 0 230 252
4.294895188 8.773413341 -0.102100966 0 230 252
4.298087823 8.676673204 -0.114473058 0 230 252
4.292927801 8.579454744 -0.103702715 0 230 252
4.283192322 8.481980961 -0.080254511 0 230 252
4.275738179 8.384641893 -0.063125482 0 230 252
4.272814467 8.287560271 -0.058547050 0 230 252
4.271802041 8.190585920 -0.059262803 0 230 252
4.270477727 8.093594440 -0.059113262 0 230 252
4.269726304 7.996634487 -0.060549804 0 230 252
4.270798531 7.899773196 -0.067037861 0 230 252
4.270155968 7.802818034 -0.068773709 0 230 252
4.264889583 7.705615516 -0.057697308 0 230 252
4.259184703 7.608393005 -0.045404681 0 230 249
4.257634811 7.511392955 -0.044622969 0 230 249
4.258554670 7.414522473 -0.050683038 0 230 249
4.259030327 7.317627470 -0.055511221 0 230 252
4.259317312 7.220721622 -0.059815507 0 230 252
4.260191515 7.123844824 -0.065745690 0 230 252
4.261994289 7.027013730 -0.074247596 0 230 252
4.264137944 6.930197668 -0.083692907 0 230 252
4.262719098 6.833201103 -0.083266188 0 230 252
4.256645028 6.735973918 -0.069939576 0 230 252
4.249207177 6.638683486 -0.052832855 0 230 249
4.245138258 6.541562542 -0.045059525 0 230 249
4.246338621 6.444699313 -0.051885310 0 230 249
4.247810644 6.347847465 -0.059462713 0 230 252
4.246735627 6.250872245 -0.059981483 0 230 252
4.244225528 6.153829188 -0.056522628 0 230 252
4.242370085 6.056818016 -0.054876545 0 230 252
4.242332498 5.959892120 -0.058266385 0 230 252
4.243314800 5.863012576 -0.064481115 0 230 252
4.242975718 5.766071023 -0.067033250 0 230 252
4.241405546 5.669073077 -0.066172933 0 230 252
4.241579218 5.572154074 -0.070143560 0 230 252
4.243114320 5.475294943 -0.077885539 0 230 252
4.242798784 5.378351983 -0.080498305 0 230 252
4.240965424 5.281341919 -0.078904021 0 230 252
4.239539440 5.184350212 -0.078437387 0 230 252
4.238991518 5.087396682 -0.080402703 0 230 252
4.237854192 4.990417631 -0.080733591 0 230 252
4.234446788 4.893342581 -0.074772786 0 230 252
4.229233687 4.796193622 -0.063807025 0 230 252
4.224293273 4.699059229 -0.053595612 0 230 249
4.221911244 4.602033233 -0.050472458 0 230 249
4.221318410 4.505081308 -0.052306160 0 230 249
4.219194289 4.408067176 -0.049895307 0 230 249
4.214793856 4.310962766 -0.041175265 0 230 249
4.210750095 4.213875108 -0.033442351 0 230 249
4.208507086 4.116860507 -0.030698368 0 230 249
4.206160331 4.019842827 -0.027665679 0 230 249
4.202903005 3.922791117 -0.022108409 0 230 249
4.210341992 3.826148944 -0.046191631 0 230 249
4.210830690 3.729237988 -0.051013101 0 230 249
4.203313977 3.632026815 -0.033648565 0 230 249
4.203703104 3.535112970 -0.038191728 0 230 249
4.207771484 3.438332704 -0.052929920 0 230 249
4.200797841 3.341148714 -0.037066601 0 230 249
4.195251542 3.244020441 -0.025157526 0 230 249
4.195294374 3.147093763 -0.028736325 0 230 249
4.199787611 3.050322333 -0.044647449 0 230 249
4.201864486 2.953462900 -0.053861009 0 230 252
4.202491476 2.856551387 -0.059055349 0 230 252
4.203582593 2.759654372 -0.065534818 0 230 252
4.202774070 2.662692062 -0.066748572 0 230 252
4.200252352 2.565672819 -0.063213252 0 230 252
4.200131616 2.468733413 -0.066330772 0 230 252
4.202893904 2.371886695 -0.077437161 0 230 252
4.202996808 2.274952000 -0.081172215 0 230 252
4.198068752 2.177857402 -0.070963183 0 230 252
4.194301388 2.080802068 -0.063969661 0 230 252
4.195846280 1.983912742 -0.071697570 0 230 252
4.199292779 1.887079408 -0.084694609 0 230 252
4.199776448 1.790153534 -0.089479164 0 230 252
4.197413146 1.693141966 -0.086372229 0 230 252
4.196076554 1.596161547 -0.086109617 0 230 252
4.195334129 1.499198581 -0.087492566 0 230 252
4.189934454 1.402102441 -0.075966637 0 230 252
4.181767049 1.304931706 -0.056768517 0 230 252
4.174399334 1.207788683 -0.039785415 0 230 249
4.169438362 1.110716495 -0.029471432 0 230 249
4.168110128 1.013745504 -0.029224630 0 230 249
4.171314815 0.916895516 -0.041540098 0 230 249
4.176350876 0.820090393 -0.058930352 0 230 252
4.178903400 0.723216394 -0.069436145 0 230 252
4.176954317 0.626224933 -0.067464041 0 230 252
4.172601905 0.529173861 -0.058829549 0 230 252
4.170805867 0.432188561 -0.057279202 0 230 252
4.171583295 0.335266512 -0.062860475 0 230 252
4.173191276 0.238363002 -0.070742655 0 230 252
4.174775293 0.141456931 -0.078557303 0 230 252
4.173978408 0.044493665 -0.079771668 0 230 252
4.168765654 -0.052570474 -0.068745285 0 230 252
4.163477453 -0.149633078 -0.057508497 0 230 252
4.160748944 -0.246635972 -0.053365256 0 230 249
4.159690272 -0.343601373 -0.053849194 0 230 252
4.159716586 -0.440543643 -0.057339304 0 230 252
4.161234924 -0.537455523 -0.064963840 0 230 252
4.163650790 -0.634350922 -0.075075039 0 230 252
4.163785097 -0.731294859 -0.078861087 0 230 252
4.162305009 -0.828271540 -0.078171166 0 230 252
4.160559518 -0.925252990 -0.076744403 0 230 252
4.158535189 -1.022239160 -0.074543548 0 230 252
4.156089129 -1.119232387 -0.071172513 0 230 252
4.154114678 -1.216215916 -0.069107508 0 230 252
4.154204950 -1.313161884 -0.072764497 0 230 252
4.156377483 -1.410072357 -0.082192169 0 230 252
4.158965640 -1.506978168 -0.092770816 0 230 252
4.159941375 -1.603913624 -0.098878863 0 230 252
4.158010219 -1.700897967 -0.096928054 0 230 252
4.153861930 -1.797916881 -0.088830260 0 230 252
4.149641516 -1.894934503 -0.080531281 0 230 252
4.146140383 -1.991938761 -0.074224876 0 230 252
4.143275907 -2.088931702 -0.069682043 0 230 252
4.142577271 -2.185892064 -0.071141713 0 230 252
4.144241015 -2.282819585 -0.079148777 0 230 252
4.146062103 -2.379747003 -0.087590898 0 230 252
4.146141741 -2.476699628 -0.091204538 0 230 252
4.144023541 -2.573681322 -0.088724504 0 230 252
4.141461948 -2.670667687 -0.085014153 0 230 252
4.139692290 -2.767643285 -0.083497895 0 230 252
4.138881493 -2.864607074 -0.084638500 0 230 252
4.137750077 -2.961574637 -0.084889142 0 230 252
4.134283595 -3.058567633 -0.078665530 0 230 252
4.130012131 -3.155567233 -0.070209159 0 230 252
4.128728014 -3.252533949 -0.070032895 0 230 252
4.130997420 -3.349465673 -0.079706376 0 230 252
4.133893855 -3.446394007 -0.091116992 0 230 252
4.136145564 -3.543331142 -0.100739229 0 230 252
4.139400155 -3.640262107 -0.113140550 0 230 252
4.140937411 -3.737210506 -0.120779999 0 230 252
4.138635920 -3.834191061 -0.117776506 0 230 252
4.135332229 -3.931178123 -0.111993476 0 230 252
4.136039603 -4.028134926 -0.117328854 0 230 252
4.138843524 -4.125078946 -0.128475256 0 230 252
4.138808671 -4.222043873 -0.131750743 0 230 252
4.135755855 -4.319027512 -0.126658459 0 230 252
4.132187952 -4.416012449 -0.120136976 0 230 252
4.129417662 -4.512991280 -0.115825477 0 230 252
4.127229196 -4.609965959 -0.113125761 0 230 252
4.126847864 -4.706931737 -0.115434809 0 230 252
4.128260341 -4.803890745 -0.122715747 0 230 252
4.128847300 -4.900854620 -0.127706942 0 230 252
4.126470328 -4.997829412 -0.124479909 0 230 252
4.121619431 -5.094810300 -0.114393016 0 230 252
4.116177241 -5.191789721 -0.102665554 0 230 252
4.114210742 -5.288758358 -0.100572822 0 230 252
4.116122133 -5.385719506 -0.109230018 0 230 252
4.119098540 -5.482681440 -0.120838784 0 230 252
4.120432754 -5.579648023 -0.127893592 0 230 252
4.118546075 -5.676618299 -0.126017521 0 230 252
4.114796027 -5.773588285 -0.118974134 0 230 252
4.111231136 -5.870556197 -0.112442845 0 230 252
4.108833551 -5.967522797 -0.109146661 0 230 252
4.107324360 -6.064489164 -0.108312343 0 230 252
4.106139729 -6.161455573 -0.108376685 0 230 252
4.105067771 -6.258422034 -0.108752237 0 230 252
4.112727963 -6.355406700 -0.133336821 0 229 255
4.109074895 -6.452370014 -0.126553878 0 230 252
4.106250645 -6.549333664 -0.122067647 0 230 252
4.103310739 -6.646295543 -0.117259529 0 230 252
4.100344743 -6.743255844 -0.112377854 0 230 252
4.098797827 -6.840220325 -0.111429496 0 230 252
4.098443737 -6.937189626 -0.113787191 0 230 252
4.097520496 -7.034156707 -0.114565691 0 230 252
4.095277073 -7.131117042 -0.111682635 0 230 252
4.091969660 -7.228070531 -0.105848303 0 230 252
4.088475133 -7.325021147 -0.099493938 0 230 252
4.086870751 -7.421981772 -0.098379094 0 230 252
4.085738835 -7.518945096 -0.098573059 0 230 252
4.082943307 -7.615896556 -0.094153156 0 230 252
4.078970631 -7.712837866 -0.086468141 0 230 252
4.075753120 -7.809782819 -0.080875743 0 230 252
4.076168676 -7.906755946 -0.085355656 0 230 252
4.080715165 -8.003765708 -0.101288460 0 230 252
4.086480360 -8.100790677 -0.120599385 0 230 252
4.091257369 -8.197811573 -0.137169278 0 229 255
4.094152697 -8.294818544 -0.148520645 0 229 255
4.096774064 -8.391825725 -0.159111289 0 229 255
4.098797064 -8.488829390 -0.168041694 0 229 255
4.097062759 -8.585794403 -0.166552701 0 229 255
4.091669745 -8.682717557 -0.154917563 0 229 255
4.089445586 -8.779674331 -0.152067856 0 229 255
4.090723552 -8.876672385 -0.158927809 0 229 255
4.092020469 -8.973672423 -0.165839189 0 229 255
4.092366036 -9.070662028 -0.170111477 0 229 255
4.089085420 -9.167604788 -0.164327647 0 229 255
4.079393680 -9.264458694 -0.140765202 0 229 255
4.070684220 -9.361319664 -0.119925127 0 230 252
4.067250899 -9.458250460 -0.113714016 0 230 252
4.068206098 -9.555244067 -0.119670763 0 230 252
4.071002303 -9.652267011 -0.130731396 0 230 252
4.072368972 -9.749270706 -0.137826895 0 229 255
4.070789638 -9.846229417 -0.136752099 0 229 255
4.067905968 -9.943166466 -0.132059215 0 230 252
4.066527123 -10.040127134 -0.131537985 0 230 252
4.065627149 -10.137095674 -0.132343485 0 230 252
4.056432560 -10.233919805 -0.110146682 0 230 252
4.027748885 -10.330390696 -0.033904492 0 230 249
3.982227341 -10.426534154 0.089032329 0 231 246
3.945906626 -10.522814342 0.186457291 0 232 240
3.914840282 -10.619167043 0.269313706 0 232 237
3.898026005 -10.715772277 0.312649398 0 232 237
3.900405073 -10.812743870 0.302760743 0 232 237
3.904106093 -10.909744632 0.289207207 0 232 237
3.903741380 -11.006665710 0.286929688 0 232 237
3.904242468 -11.103605348 0.282252307 0 232 237
3.904705846 -11.200545339 0.277680643 0 232 237
3.896505879 -11.297299017 0.297135314 0 232 237
3.893304946 -11.394157253 0.302727941 0 232 237
3.894234898 -11.491106348 0.296865915 0 232 237
3.903377206 -11.588244049 0.268230216 0 232 237
3.909430328 -11.685317957 0.248162548 0 232 240
3.903767386 -11.782121335 0.260587539 0 232 240
3.897449455 -11.878905465 0.274830282 0 232 237
3.887923725 -11.975607512 0.297970468 0 232 237
3.883562606 -12.072430604 0.306789041 0 232 237
3.880157492 -12.169275106 0.312957569 0 232 237
3.878607407 -12.266165013 0.313982734 0 232 237
3.882436466 -12.363193565 0.300090924 0 232 237
3.888983304 -12.460297126 0.278662850 0 232 237
3.896396328 -12.557429534 0.254833560 0 232 240
3.892796640 -12.654271029 0.261547490 0 232 240
3.895365571 -12.751279466 0.251154767 0 232 240
3.885693211 -12.847950717 0.274712953 0 232 237
3.880691054 -12.944746800 0.285320193 0 232 237
3.875166332 -13.041524906 0.297377991 0 232 237
3.872962795 -13.138395594 0.300226013 0 232 237
3.877422329 -13.235460607 0.284595631 0 232 237
3.874265534 -13.332303714 0.290089786 0 232 237
3.864396770 -13.428943350 0.314200542 0 232 237
3.861094904 -13.525776168 0.320099577 0 232 237
3.862501326 -13.622752410 0.312941464 0 232 237
3.862789938 -13.719695604 0.308884712 0 232 237
3.860221307 -13.816549496 0.312753689 0 232 237
3.856600768 -13.913368543 0.319541363 0 232 237
3.855750271 -14.010275250 0.318647469 0 232 237
3.860021130 -14.107349814 0.303550446 0 232 237
3.867010188 -14.204518495 0.280915419 0 232 237
3.870318585 -14.301569933 0.268489936 0 232 237
3.861428277 -14.398211110 0.289899524 0 232 237
3.845415343 -14.494602034 0.331065730 0 232 237
3.830291709 -14.591012283 0.369766959 0 233 234
3.822102844 -14.687654791 0.389235322 0 233 234
3.827062718 -14.784757736 0.372235258 0 233 234
3.841460706 -14.882203327 0.329058328 0 232 237
3.852481616 -14.979538469 0.295249111 0 232 237
3.848226209 -15.076323927 0.303812058 0 232 237
3.837604645 -15.172871537 0.330033875 0 232 237
3.831761848 -15.269590277 0.343002318 0 233 234
3.831985479 -15.366534237 0.339145623 0 232 237
3.833311781 -15.463521175 0.332231589 0 232 237
3.828396222 -15.560269567 0.342631832 0 233 234
3.822138353 -15.656962764 0.356756549 0 233 234
3.820948206 -15.753850947 0.356826002 0 233 234
3.823939262 -15.850904790 0.345299004 0 233 234
3.824427958 -15.947861512 0.340714047 0 232 237
3.819053462 -16.044582386 0.352393410 0 233 234
3.818138418 -16.141481875 0.351704468 0 233 234
3.821289566 -16.238548913 0.339737902 0 232 237
3.822777687 -16.335550005 0.332385337 0 232 237
3.821798675 -16.432449505 0.331877270 0 232 237
3.821315651 -16.529370025 0.329994589 0 232 237
3.822810302 -16.626375436 0.322627308 0 232 237
3.823269890 -16.723338151 0.318132259 0 232 237
3.820119381 -16.820144994 0.323652262 0 232 237
3.815317582 -16.916877749 0.333753960 0 232 237
3.816358004 -17.013866143 0.327651254 0 232 237
3.825054394 -17.111197859 0.300312824 0 232 237
3.832020263 -17.208459107 0.277775672 0 232 237
3.829479008 -17.305294793 0.281611473 0 232 237
3.823920075 -17.401991128 0.293819295 0 232 237
3.819943679 -17.498757042 0.301638538 0 232 237
3.817659042 -17.595599441 0.304766165 0 232 237
3.817211746 -17.692527104 0.302798275 0 232 237
3.819523995 -17.789585788 0.293176648 0 232 237
3.822452051 -17.886676396 0.281847882 0 232 237
3.820452619 -17.983533062 0.284189020 0 232 237
3.814276917 -18.080186530 0.298116345 0 232 237
3.811663980 -18.177010099 0.302161794 0 232 237
3.815144885 -18.274132501 0.289303961 0 232 237
3.819324634 -18.371293026 0.274508588 0 232 237
3.818360831 -18.468200315 0.273982735 0 232 237
3.809305416 -18.564699896 0.295904666 0 232 237
3.794801165 -18.660916644 0.332943458 0 232 237
3.787622632 -18.757497809 0.349661570 0 233 234
3.776498086 -18.853870858 0.377327657 0 233 234
3.767908263 -18.950367763 0.397963549 0 233 234
3.762907938 -19.047046615 0.408643060 0 233 234
3.761234377 -19.143897698 0.410094917 0 233 234
3.762073156 -19.240881615 0.404578345 0 233 234
3.764641221 -19.337959396 0.394265585 0 233 234
3.769349267 -19.435155141 0.378017249 0 233 234
3.775524354 -19.532434823 0.357700134 0 233 234
3.781954474 -19.629733943 0.336676541 0 232 237
3.781903939 -19.726682379 0.333632593 0 232 237
3.769257049 -19.822934009 0.365534752 0 233 234
3.751893849 -19.918913729 0.410522506 0 233 234
3.744682724 -20.015450878 0.427347539 0 233 231
