ply
format ascii 1.0
comment coordinate_system ground
comment units millimeter
element vertex 1422
property double x
property double y
property double z
property uchar red
property uchar green
property uchar blue
comment color_mapping zg_high_contrast_from_zg
comment color_zg_range_mm -0.260455040 0.502994697
end_header
6.407329603 147.076716846 0.203575907 250 218 0
6.410321390 146.981965222 0.190304226 248 222 0
6.415325024 146.888416217 0.171494232 245 228 0
6.418125182 146.793542265 0.158751711 243 232 0
6.415577438 146.695463341 0.160734228 244 231 0
6.409475720 146.595258866 0.172502827 246 227 0
6.402715201 146.494664005 0.186086370 247 223 0
6.397493617 146.394992768 0.195433821 249 221 0
6.394584494 146.296705326 0.198415337 249 220 0
6.394120102 146.199877984 0.194666622 249 221 0
6.395674666 146.104254019 0.185359883 247 223 0
6.398111813 146.009153817 0.173623896 246 227 0
6.397961163 145.912509239 0.169013947 245 228 0
6.392759191 145.812856773 0.178313247 247 225 0
6.385259380 145.711840196 0.193940519 249 221 0
6.380363839 145.612376487 0.202398200 250 218 0
6.377862104 145.514337634 0.204265676 250 218 0
6.374544963 145.415815438 0.208379309 251 216 0
6.372438259 145.318012904 0.209161007 251 216 0
6.374163313 145.222483072 0.199392910 250 219 0
6.376348529 145.127223532 0.188358584 248 223 0
6.374860491 145.029785824 0.187439495 248 223 0
6.369772429 144.930217476 0.196434169 249 220 0
6.364403109 144.830485548 0.206204343 251 217 0
6.360514982 144.731632129 0.211896992 252 215 0
6.365419812 144.637974667 0.193378440 249 221 0
6.363559633 144.540318796 0.193488796 249 221 0
6.357631605 144.440263420 0.204801410 251 217 0
6.354117609 144.341634704 0.209467725 251 216 0
6.353627597 144.244789273 0.205808040 251 217 0
6.353082562 144.147910731 0.202300774 250 218 0
6.352233192 144.050852437 0.199632456 250 219 0
6.352874829 143.954670492 0.192859273 249 221 0
6.354837610 143.859263372 0.182448911 247 224 0
6.353004121 143.761624164 0.182493269 247 224 0
6.346717498 143.661371675 0.194801350 249 221 0
6.340598805 143.561221380 0.206648071 251 217 0
6.337671646 143.462945373 0.209707114 251 216 0
6.338599716 143.366928790 0.202150658 250 218 0
6.341783676 143.272230998 0.188382798 248 223 0
6.344935688 143.177511018 0.174703713 246 227 0
6.345945534 143.081535189 0.166924589 245 229 0
6.344268281 142.983987577 0.166546182 245 229 0
6.342950148 142.886649844 0.165179749 244 230 0
6.342426148 142.789775406 0.161627307 244 231 0
6.342145929 142.693042443 0.157404429 243 232 0
6.337952945 142.594028534 0.163957836 244 230 0
6.327660749 142.491464863 0.187309010 248 223 0
6.320436962 142.390693665 0.202211185 250 218 0
6.319805429 142.293760874 0.198959729 250 219 0
6.323305630 142.199228895 0.184330532 247 223 0
6.326061665 142.104260954 0.171751542 245 228 0
6.326224794 142.007784796 0.166314217 245 229 0
6.324995903 141.910499978 0.164711423 244 230 0
6.323175061 141.812871879 0.164739807 244 230 0
6.320424421 141.714705456 0.167329842 245 229 0
6.318865105 141.617229751 0.166639881 245 229 0
6.321069528 141.521931674 0.155585265 243 233 0
6.321924151 141.425850444 0.148248941 242 234 0
6.317659509 141.326809645 0.155012458 243 233 0
6.311711279 141.226798908 0.166413794 245 229 0
6.307881849 141.128014237 0.171980757 246 227 0
6.306262797 141.030506029 0.171461027 245 228 0
6.305989192 140.933773329 0.167236666 245 229 0
6.306305380 140.837379432 0.161388821 244 231 0
6.305436140 140.740302012 0.158806756 243 232 0
6.300922325 140.641128097 0.166263523 245 229 0
6.294193569 140.540683522 0.179821759 247 225 0
6.290959836 140.442250435 0.183754983 247 224 0
6.291868326 140.346196336 0.176280481 246 226 0
6.293723893 140.250683742 0.166198350 245 229 0
6.293329145 140.153878739 0.162315063 244 231 0
6.288566438 140.054570809 0.170463332 245 228 0
6.279996609 139.953085994 0.189098642 248 223 0
6.269819217 139.850686976 0.212162860 252 215 0
6.260165560 139.748594067 0.233785737 255 209 0
6.265047211 139.654811858 0.215374402 252 214 0
6.265918369 139.558735110 0.208010206 251 216 0
6.262788298 139.460373683 0.211667811 252 215 0
6.269995065 139.367907510 0.186854627 247 223 0
6.273591233 139.273377470 0.171987216 246 227 0
6.272004188 139.175892191 0.171397394 245 228 0
6.268104619 139.077091140 0.177178240 246 226 0
6.265799819 138.979198898 0.178567381 247 225 0
6.266366740 138.882939322 0.172047411 246 227 0
6.266367678 138.786356846 0.167087319 245 229 0
6.263433424 138.688107531 0.170213129 245 228 0
6.262843747 138.591189118 0.166881749 245 229 0
6.265839728 138.496302337 0.153674476 242 234 0
6.266417005 138.400042321 0.147130452 242 235 0
6.260023494 138.299835325 0.159788798 243 232 0
6.255975595 138.200958887 0.165987066 244 230 0
6.247267196 138.099450167 0.185024145 247 223 0
6.244433852 138.001265638 0.187878910 248 223 0
6.244477002 137.904705960 0.182811006 247 224 0
6.248162369 137.810199800 0.167711016 245 229 0
6.254121203 137.716971410 0.146349205 242 235 0
6.256482141 137.621710601 0.134899137 240 239 0
6.255426522 137.524523568 0.132861432 239 240 0
6.252891726 137.426504142 0.134899354 240 239 0
6.250854974 137.328765613 0.135566290 240 239 0
6.249304547 137.231300828 0.134894499 240 239 0
6.245136980 137.132366817 0.141433210 241 237 0
6.235639569 137.030444570 0.162655384 244 231 0
6.223493581 136.927043506 0.191174975 248 222 0
6.213760917 136.825002839 0.213047644 252 215 0
6.210674789 136.726690081 0.216611616 252 214 0
6.215039217 136.632547534 0.199651661 250 219 0
6.221488372 136.539566339 0.176949412 246 226 0
6.223058217 136.443852749 0.167689634 245 229 0
6.217596215 136.344210351 0.177802489 246 226 0
6.211321459 136.244117549 0.190155453 248 222 0
6.211715860 136.147747482 0.184136707 247 223 0
6.216195679 136.053652731 0.166863911 245 229 0
6.215897699 135.956892891 0.162754355 244 231 0
6.208869288 135.856386774 0.177187632 246 226 0
6.200115359 135.754925387 0.196375747 249 220 0
6.195493516 135.655765997 0.204181274 250 218 0
6.196554139 135.559764907 0.196332758 249 220 0
6.200037440 135.465106525 0.181810656 247 224 0
6.202446848 135.369848895 0.170247946 245 228 0
6.201993226 135.273001673 0.166573800 245 229 0
6.199948083 135.175272333 0.167285285 245 229 0
6.198421603 135.077830590 0.166568797 245 229 0
6.195975198 134.979880201 0.168387727 245 229 0
6.191066334 134.880569665 0.176991927 246 226 0
6.186107432 134.781234210 0.185735045 247 223 0
6.184021969 134.683487467 0.186562567 247 223 0
6.184108814 134.586939446 0.181406073 247 224 0
6.184737197 134.490688829 0.174758474 246 227 0
6.183777683 134.393562115 0.172486681 246 227 0
6.180679381 134.295257898 0.176108566 246 226 0
6.178192793 134.197291490 0.178046070 247 225 0
6.179329370 134.101317453 0.170001999 245 228 0
6.183044790 134.006758034 0.154853532 243 233 0
6.184685399 133.911055928 0.145422460 242 235 0
6.183716469 133.813920199 0.143182186 241 236 0
6.182557969 133.716680290 0.141465171 241 237 0
6.181138850 133.619297500 0.140467183 241 237 0
6.176958197 133.520403194 0.147078990 242 235 0
6.169987145 133.419984736 0.161380246 244 231 0
6.162300294 133.319179310 0.177654887 246 226 0
6.163283828 133.223114768 0.170040827 245 228 0
6.156296856 133.122697761 0.184389216 247 223 0
6.151804343 133.023645721 0.191865576 248 222 0
6.151920434 132.927108205 0.186644516 247 223 0
6.154876361 132.832116487 0.173599493 246 227 0
6.155759333 132.735993149 0.166267147 245 229 0
6.153918708 132.638386637 0.166440368 245 229 0
6.153037824 132.541302213 0.163970050 244 230 0
6.155241686 132.445893061 0.153000790 242 234 0
6.157011270 132.350245505 0.143229026 241 236 0
6.156044485 132.253111319 0.140998157 241 237 0
6.153272867 132.154998566 0.143741455 241 236 0
6.149272677 132.056221446 0.149871107 242 234 0
6.145398880 131.957514789 0.155653513 243 233 0
6.140592910 131.858305864 0.164005604 244 230 0
6.135176763 131.758769785 0.174040134 246 227 0
6.132354448 131.660637880 0.176928248 246 226 0
6.132952997 131.564353597 0.170390863 245 228 0
6.133765091 131.468183050 0.163265936 244 230 0
6.131404846 131.370300984 0.164883669 244 230 0
6.126639783 131.271124429 0.173129191 246 227 0
6.122725137 131.172408239 0.179032327 247 225 0
6.121053104 131.074900260 0.178756610 247 225 0
6.122413651 130.979022527 0.170125047 245 228 0
6.126506855 130.884610492 0.153963999 242 234 0
6.129567184 130.789639987 0.140650054 241 237 0
6.128936433 130.692686481 0.137508538 240 238 0
6.128142321 130.595644914 0.134818144 240 239 0
6.128064594 130.498986648 0.130154517 239 241 0
6.125370546 130.400927195 0.132701792 239 240 0
6.116762917 130.299706097 0.151546612 242 234 0
6.104951479 130.196778317 0.179221665 247 225 0
6.095828774 130.095294486 0.199488348 250 219 0
6.093628039 129.997510732 0.200680468 250 219 0
6.096693870 129.902536330 0.187359750 248 223 0
6.098781340 129.807037225 0.176736092 246 226 0
6.096969365 129.709458945 0.176859666 246 226 0
6.095554438 129.612092356 0.175890000 246 226 0
6.097967697 129.516761610 0.164371201 244 230 0
6.102968202 129.422802908 0.145723019 242 235 0
6.104141458 129.326807085 0.137623252 240 238 0
6.099753474 129.227858392 0.144850851 241 236 0
6.094136350 129.128260301 0.155466967 243 233 0
6.089963792 129.029430948 0.162102990 244 231 0
6.085318115 128.930353279 0.170043973 245 228 0
6.076816308 128.829237832 0.188613536 248 223 0
6.070345579 128.729201782 0.201586585 250 219 0
6.069869657 128.632337064 0.198038859 249 220 0
6.071730769 128.536705629 0.188051089 248 223 0
6.073280336 128.440907436 0.178922832 247 225 0
6.073804106 128.344566278 0.172622634 246 227 0
6.075454975 128.248817544 0.163216959 244 230 0
6.079776369 128.154472487 0.146451908 242 235 0
6.082250292 128.059151269 0.134779519 240 239 0
6.078231925 127.960414256 0.141001629 241 237 0
6.069803286 127.859362566 0.159380174 243 232 0
6.061265330 127.758258938 0.178061191 247 225 0
6.063806828 127.662972569 0.166206393 245 229 0
6.062910242 127.565881159 0.163828490 244 230 0
6.061256908 127.468393089 0.163537300 244 230 0
6.055263431 127.368633640 0.175209511 246 226 0
6.046474367 127.267415616 0.194588140 249 221 0
6.039941433 127.167382477 0.207749486 251 217 0
6.040321514 127.070963787 0.201857813 250 218 0
6.046276396 126.977453261 0.180601316 247 225 0
6.052380121 126.884014865 0.158935318 243 232 0
6.056543518 126.789559706 0.142618227 241 236 0
6.057345574 126.693350013 0.135566913 240 239 0
6.053959362 126.594959319 0.140060817 241 237 0
6.048516314 126.495500718 0.150225132 242 234 0
6.043251041 126.396137672 0.159900526 243 232 0
6.037743572 126.296651919 0.170244595 245 228 0
6.033782627 126.197971802 0.176326916 246 226 0
6.032067570 126.100458150 0.176219679 246 226 0
6.033583889 126.004618965 0.167206353 245 229 0
6.040433477 125.911538712 0.143493040 241 236 0
6.043392423 125.816439580 0.130504865 239 240 0
6.035655824 125.715808273 0.146999569 242 235 0
6.028985306 125.615732594 0.160556791 244 231 0
6.030342205 125.519804629 0.151987512 242 234 0
6.036996006 125.426606816 0.128818106 239 241 0
6.039514924 125.331271790 0.117047391 237 245 0
6.034466269 125.232036301 0.126137943 238 242 0
6.026328123 125.131213672 0.143745960 241 236 0
6.021045263 125.031864693 0.153484329 242 234 0
6.022531939 124.935997627 0.144562919 241 236 0
6.026235820 124.841267051 0.129530431 239 241 0
6.027441826 124.745250957 0.121384475 238 243 0
6.028092665 124.648948330 0.114769817 237 246 0
6.028121325 124.552325470 0.109871207 236 246 0
6.025485307 124.454337340 0.112319170 236 246 0
6.017727269 124.353729771 0.128887934 239 241 0
6.005573829 124.250880084 0.157574662 243 232 0
5.995246649 124.148971651 0.181228214 247 224 0
5.993715695 124.051560360 0.180634205 247 225 0
5.996177820 123.956186124 0.169033288 245 228 0
5.995479745 123.859198281 0.166145143 245 229 0
5.992187766 123.760888871 0.170408758 245 228 0
5.990295352 123.663293330 0.170815106 245 228 0
5.993495848 123.568288386 0.157182309 243 232 0
5.996153989 123.473004445 0.145045527 241 236 0
5.994892027 123.375726877 0.143716669 241 236 0
5.990797245 123.277011875 0.150198437 242 234 0
5.986256989 123.178073173 0.157909374 243 232 0
5.985544794 123.081076538 0.155067897 243 233 0
5.985677216 122.984507123 0.149898869 242 234 0
5.983950117 122.886995926 0.149857295 242 234 0
5.980642190 122.788685956 0.154174930 243 233 0
5.977436185 122.690429051 0.158212613 243 232 0
5.971394306 122.590742202 0.170069689 245 228 0
5.966637463 122.491707165 0.178385086 247 225 0
5.960887893 122.392174475 0.189438493 248 223 0
5.961495407 122.295846795 0.182966576 247 224 0
5.964304896 122.200625842 0.170424719 245 228 0
5.964624633 122.104149817 0.164748026 244 230 0
5.963564209 122.006979110 0.162877422 244 231 0
5.966880446 121.912005797 0.148941111 242 234 0
5.965263973 121.814554191 0.148605454 242 234 0
5.968501085 121.719536174 0.134889060 240 239 0
5.963900809 121.620588556 0.142781942 241 236 0
5.966280616 121.525137582 0.131431048 239 240 0
5.960341777 121.425522902 0.143016570 241 236 0
5.955538924 121.326479598 0.151471139 242 234 0
5.952042164 121.228091329 0.156325695 243 233 0
5.951341606 121.131100252 0.153471695 242 234 0
5.954108055 121.035837687 0.141059489 241 237 0
5.957389080 120.940828499 0.127229358 238 242 0
5.957629196 120.844301777 0.121784508 238 243 0
5.955159984 120.746425963 0.123810831 238 243 0
5.953058202 120.648733772 0.124825078 238 242 0
5.952041354 120.551581218 0.122848890 238 243 0
5.949245952 120.453545655 0.125777636 238 242 0
5.943049004 120.353824091 0.138086445 240 238 0
5.934170010 120.252777019 0.157791588 243 232 0
5.924376326 120.151282783 0.180020032 247 225 0
5.917519754 120.051248563 0.194151119 249 221 0
5.919118623 119.955399752 0.184968790 247 223 0
5.927796528 119.863046605 0.156267911 243 233 0
5.934103146 119.769515163 0.134106254 240 239 0
5.935547259 119.673579101 0.125353175 238 242 0
5.935332436 119.576823220 0.121175359 238 244 0
5.936312849 119.480655338 0.113702733 237 246 0
5.938381407 119.385021379 0.103230539 235 249 0
5.936057053 119.287224388 0.104872454 235 248 0
5.928579537 119.186895762 0.120725035 238 244 0
5.919241299 119.085658180 0.141709683 241 237 0
5.912716031 118.985807063 0.154938812 243 233 0
5.910704082 118.888172880 0.155723580 243 233 0
5.911917778 118.792119621 0.147614573 242 235 0
5.914572741 118.696770079 0.135532138 240 239 0
5.915802045 118.600720227 0.127381898 239 241 0
5.914480822 118.503421880 0.126265818 238 242 0
5.912375668 118.405740755 0.127312476 239 241 0
5.910149497 118.308001260 0.128693865 239 241 0
5.908395845 118.210492963 0.128773246 239 241 0
5.907899800 118.113597864 0.125385624 238 242 0
5.907190540 118.016598421 0.122586938 238 243 0
5.905193799 117.918972254 0.123339647 238 243 0
5.903128589 117.821313412 0.124282183 238 242 0
5.901733125 117.723980548 0.123378786 238 243 0
5.900304547 117.626631764 0.122567698 238 243 0
5.899236404 117.529457958 0.120763630 238 244 0
5.899940885 117.433143053 0.114072137 237 246 0
5.901435004 117.337209054 0.105203962 235 248 0
5.900631096 117.240161155 0.102674087 235 249 0
5.896217019 117.141367627 0.110101202 236 246 0
5.887437821 117.040467900 0.129567459 239 241 0
5.875591604 116.938093538 0.157493150 243 232 0
5.874078892 116.840711211 0.156922263 243 233 0
5.870937999 116.742544465 0.160842620 244 231 0
5.873127817 116.646946185 0.150062759 242 234 0
5.876103299 116.551723366 0.137117042 240 238 0
5.870247805 116.452251584 0.148526890 242 234 0
5.877275433 116.358972452 0.124407680 238 242 0
5.875479535 116.261451573 0.124623629 238 242 0
5.874779722 116.164456885 0.121817678 238 243 0
5.874996653 116.067901188 0.116484385 237 245 0
5.876851544 115.972128811 0.106634639 236 247 0
5.871622571 115.872964491 0.116322804 237 245 0
5.879222969 115.779937220 0.090629008 233 253 0
5.886578181 115.686786127 0.065612172 211 255 9
5.887441809 115.590529725 0.058499879 200 255 14
5.880129766 115.490372156 0.073937161 222 255 4
5.867206402 115.387544920 0.104851818 235 248 0
5.857662645 115.286336048 0.126446696 238 242 0
5.845816146 115.184037821 0.154393914 243 233 0
5.845694343 115.087322271 0.150004836 242 234 0
5.851538422 114.993440147 0.129162273 239 241 0
5.856329457 114.899052804 0.111224908 236 246 0
5.860044618 114.804150617 0.096255749 234 251 0
5.863739644 114.709235162 0.081342974 229 255 1
5.865980293 114.613627277 0.070442441 215 255 8
5.859073186 114.513688349 0.084773806 232 255 0
5.849446939 114.412468206 0.106606200 236 247 0
5.844794322 114.313604084 0.114721608 237 246 0
5.842740541 114.215969332 0.115669983 237 245 0
5.841175232 114.118565638 0.115272064 237 246 0
5.839164523 114.020952340 0.116103668 237 245 0
5.837679302 113.923587126 0.115486865 237 245 0
5.837204476 113.826697547 0.112084126 236 246 0
5.836959312 113.729915407 0.108048889 236 247 0
5.837795838 113.633640679 0.101031002 235 249 0
5.840617965 113.538296390 0.088537148 233 253 0
5.844280936 113.443343401 0.073724856 222 255 4
5.845725091 113.347346995 0.065033664 211 255 9
5.842272419 113.249055808 0.069850566 215 255 8
5.835875241 113.149388806 0.082790560 232 255 0
5.832001535 113.050905406 0.088771000 233 253 0
5.835135686 112.955697281 0.075422070 222 255 4
5.838480813 112.860584344 0.061492055 204 255 12
5.834999848 112.762284856 0.066392168 211 255 9
5.827937730 112.662318547 0.081171743 229 255 1
5.820928933 112.562381555 0.095805402 234 251 0
5.815992210 112.463412889 0.104724475 235 248 0
5.814676664 112.366130195 0.103655699 235 248 0
5.817488599 112.270764469 0.091202276 233 253 0
5.819716508 112.175124712 0.080360777 229 255 1
5.529532684 92.130050118 -0.064801312 51 255 80
5.522267677 92.030513304 -0.049227022 69 255 72
5.506691482 91.927783220 -0.010700070 116 255 51
5.500552500 91.828691878 0.001767211 131 255 44
5.500848365 91.732075518 -0.003534427 127 255 46
5.501651776 91.635652837 -0.010236689 116 255 51
5.502223770 91.539140042 -0.016298894 109 255 54
5.502836046 91.442641425 -0.022471356 102 255 57
5.503477537 91.346152708 -0.028723512 95 255 60
5.502493738 91.249041647 -0.030486263 95 255 60
5.498445771 91.150760835 -0.023785890 102 255 57
5.492625938 91.051806598 -0.012191138 116 255 51
5.490132287 90.954123167 -0.009780987 120 255 49
5.492285846 90.858209508 -0.020203823 106 255 56
5.492311035 90.761484177 -0.024747827 102 255 57
5.490104581 90.663910383 -0.023127705 102 255 57
5.485835360 90.565554757 -0.015809743 113 255 52
5.480777076 90.466902475 -0.006311477 124 255 48
5.477006152 90.368740745 -0.000367417 131 255 44
5.474902189 90.271211699 0.000974015 131 255 44
5.475601707 90.174742944 -0.005426056 124 255 48
5.479223208 90.079376014 -0.019895030 106 255 56
5.480804330 89.983235972 -0.028727985 95 255 60
5.478049173 89.885460112 -0.025583989 98 255 59
5.473593162 89.787045354 -0.017741443 109 255 54
5.477945877 89.691945396 -0.034226069 87 255 64
5.476280040 89.594580549 -0.034087438 87 255 64
5.476658266 89.497983207 -0.039593193 84 255 65
5.478041281 89.401761438 -0.047873061 73 255 70
5.480390281 89.305899563 -0.058819915 58 255 76
5.479620642 89.208868386 -0.061152421 55 255 78
5.473820727 89.109957045 -0.049590638 69 255 72
5.467985037 89.011035969 -0.037928878 84 255 65
5.463825754 88.912743779 -0.030896104 91 255 62
5.461425622 88.815109389 -0.028720926 95 255 60
5.461558726 88.718418902 -0.033541431 91 255 62
5.463219990 88.622295713 -0.042581707 80 255 67
5.462182655 88.525168091 -0.044167456 76 255 68
5.457274335 88.426604101 -0.035060403 87 255 64
5.451855745 88.327853908 -0.024542815 102 255 57
5.448425620 88.229843365 -0.019516314 106 255 56
5.445832275 88.132144175 -0.016799953 109 255 54
5.443719623 88.034623794 -0.015410223 113 255 52
5.444894888 87.938317963 -0.023100973 102 255 57
5.450966700 87.843816136 -0.044315562 76 255 68
5.460284203 87.750504556 -0.074494325 40 255 84
5.467827429 87.656532126 -0.099771537 7 255 99
5.465575920 87.558952343 -0.097993379 11 255 97
5.457343044 87.459176851 -0.079692596 33 255 88
5.449817588 87.359666366 -0.063344593 55 255 78
5.444797241 87.261078901 -0.053914973 66 255 73
5.443739124 87.163945043 -0.055428720 62 255 75
5.446337597 87.068148481 -0.067041757 47 255 81
5.448925930 86.972345435 -0.078625844 33 255 88
5.449447411 86.875785307 -0.084499827 29 255 89
5.446856649 86.778089336 -0.081775957 29 255 89
5.441450803 86.679369305 -0.071274944 44 255 83
5.434604207 86.580128438 -0.056792983 62 255 75
5.427078300 86.480645112 -0.040433347 80 255 67
5.419841583 86.381271722 -0.024871323 98 255 59
5.414413693 86.282559060 -0.014304677 113 255 52
5.412763665 86.185218416 -0.014172660 113 255 52
5.413971795 86.088912620 -0.021934871 102 255 57
5.414639711 85.992409807 -0.028203827 95 255 60
5.413455439 85.895236784 -0.029355307 95 255 60
5.412392731 85.798107726 -0.030841555 91 255 62
5.414570358 85.702146439 -0.041277944 80 255 67
5.417732611 85.606537163 -0.054433350 66 255 73
5.418611573 85.510103567 -0.061280349 55 255 78
5.418299834 85.413240764 -0.064837083 51 255 80
5.418066137 85.316405410 -0.068608386 47 255 81
5.417172347 85.219332816 -0.070555165 44 255 83
5.413895081 85.121406603 -0.065916523 51 255 80
5.408908472 85.022870645 -0.056554673 62 255 75
5.404928651 84.924697454 -0.049972957 69 255 72
5.402617253 84.827122048 -0.047999222 73 255 70
5.399318947 84.729195714 -0.043298006 76 255 68
5.391200067 84.629554081 -0.025278449 98 255 59
5.378261134 84.528202850 0.006058218 138 255 41
5.380154693 84.432132514 -0.003580141 127 255 46
5.382941590 84.336377115 -0.015685496 113 255 52
5.382738231 84.239558272 -0.019528915 106 255 56
5.387129896 84.144366717 -0.036065775 87 255 64
5.386923880 84.047543911 -0.039899877 80 255 67
5.381590513 83.948907867 -0.029567717 95 255 60
5.384771708 83.853281895 -0.042757538 76 255 68
5.385225869 83.756690734 -0.048412429 73 255 70
5.382854486 83.659102792 -0.046260116 73 255 70
5.387782378 83.564085151 -0.064272712 51 255 80
5.388087669 83.467437609 -0.069513328 47 255 81
5.385390607 83.369734534 -0.066458131 51 255 80
5.389894359 83.274559112 -0.083296116 29 255 89
5.384346012 83.175856548 -0.072361317 44 255 83
5.379495405 83.077401697 -0.063353067 55 255 78
5.377405792 82.979915285 -0.061971803 55 255 78
5.376692948 82.882910614 -0.064393252 51 255 80
5.373876048 82.785171509 -0.061000466 55 255 78
5.367938933 82.686346186 -0.048985845 69 255 72
5.361588980 82.587380864 -0.035829415 87 255 64
5.357694685 82.489273667 -0.029456515 95 255 60
5.357207039 82.392352173 -0.032494747 91 255 62
5.357979345 82.295867510 -0.039013099 84 255 65
5.357754529 82.199035816 -0.042775465 76 255 68
5.356652352 82.101899703 -0.044112705 76 255 68
5.356544262 82.005107489 -0.048195520 73 255 70
5.359085689 81.909229999 -0.059597879 58 255 76
5.364149012 81.814220159 -0.077967277 36 255 86
5.369433940 81.719282067 -0.096948095 11 255 97
5.371077650 81.623085256 -0.105867273 0 255 102
5.368452269 81.525417915 -0.102989825 4 255 100
5.365274753 81.427562077 -0.098585702 11 255 97
5.365398699 81.330841004 -0.103302628 4 255 100
5.365457548 81.234096733 -0.107838667 0 255 102
5.359417024 81.135262864 -0.095520551 15 255 96
5.353385148 81.036435777 -0.083225137 29 255 89
5.348049845 80.937850521 -0.072853247 40 255 84
5.342438136 80.839174212 -0.061716440 55 255 78
5.336890889 80.740523377 -0.050756572 69 255 72
5.332345382 80.642217131 -0.042563494 80 255 67
5.330224335 80.544738293 -0.041068488 80 255 67
5.331526379 80.448423410 -0.049031061 69 255 72
5.333848204 80.352452869 -0.059810515 58 255 76
5.334233079 80.255823103 -0.065236795 51 255 80
5.332197266 80.158372513 -0.063973128 51 255 80
5.330660170 80.061091391 -0.064086467 51 255 80
5.332064106 79.964804372 -0.072325584 44 255 83
5.333461289 79.868513222 -0.080545061 33 255 88
5.331754190 79.771173719 -0.080185515 33 255 88
5.326210477 79.672542816 -0.069223160 47 255 81
5.317796106 79.572949805 -0.050327076 69 255 72
5.309264697 79.473323112 -0.031106315 91 255 62
5.305159269 79.375187462 -0.024114820 102 255 57
5.308394415 79.279514790 -0.037406860 84 255 65
5.314130522 79.184676259 -0.057609070 62 255 75
5.317478658 79.089033924 -0.071211515 44 255 83
5.316135648 78.991821109 -0.071849498 44 255 83
5.312352531 78.893794315 -0.065743375 51 255 80
5.309200198 78.795979869 -0.061379252 55 255 78
5.306860131 78.698437468 -0.059258672 58 255 76
5.304326362 78.600831660 -0.056601713 62 255 75
5.300026870 78.502640507 -0.049064125 69 255 72
5.293204299 78.403614759 -0.034552886 87 255 64
5.286121808 78.304507302 -0.019322138 106 255 56
5.283182053 78.206775767 -0.015538695 113 255 52
5.283852610 78.110239379 -0.021731363 106 255 56
5.283148047 78.013247567 -0.024122816 102 255 57
5.288421251 77.918227389 -0.043033150 76 255 68
5.285022766 77.820345204 -0.037977742 84 255 65
5.286123405 77.723945519 -0.045354945 76 255 68
5.282231003 77.625902884 -0.038932364 84 255 65
5.286860583 77.530660569 -0.056060153 62 255 75
5.288821334 77.434538673 -0.065811388 51 255 80
5.287153056 77.337225708 -0.065532296 51 255 80
5.282446980 77.238919278 -0.056856692 62 255 75
5.284987140 77.142983850 -0.068206164 47 255 81
5.280043063 77.044602591 -0.058870581 58 255 76
5.276578038 76.946706578 -0.053621494 66 255 73
5.275197924 76.849491428 -0.054133387 66 255 73
5.276460373 76.753136155 -0.061947545 55 255 78
5.278778419 76.657122116 -0.072678116 40 255 84
5.280875629 76.561033864 -0.082797389 29 255 89
5.282578382 76.464815375 -0.091825504 18 255 94
5.282372433 76.367976841 -0.095577391 15 255 96
5.278307150 76.269889646 -0.088661813 22 255 92
5.271852394 76.171032975 -0.075141026 40 255 84
5.265819815 76.072316656 -0.062785858 55 255 78
5.260772611 75.973921692 -0.053152913 66 255 73
5.256759299 75.875862568 -0.046376327 73 255 70
5.254397507 75.778336654 -0.044163193 76 255 68
5.254333755 75.681549654 -0.048300487 73 255 70
5.256478096 75.585470090 -0.058539701 58 255 76
5.259902792 75.489798252 -0.072316739 44 255 83
5.263239229 75.394094788 -0.085848901 25 255 91
5.264922655 75.297859756 -0.094811305 15 255 96
5.263901184 75.200759300 -0.096296505 15 255 96
5.260427134 75.102876957 -0.091001788 18 255 94
5.254960190 75.004361908 -0.080197617 33 255 88
5.248688776 74.905594403 -0.067168704 47 255 81
5.244651939 74.807540746 -0.060314988 58 255 76
5.245083726 74.710907192 -0.065811529 51 255 80
5.247786239 74.614992122 -0.077583437 36 255 86
5.249945931 74.518902405 -0.087854003 22 255 92
5.249971503 74.422135601 -0.092224743 18 255 94
5.246987231 74.324417640 -0.088274989 22 255 92
5.241133568 74.225796263 -0.076392844 36 255 86
5.234846460 74.127042051 -0.063311409 55 255 78
5.231211505 74.029126252 -0.057559657 62 255 75
5.230756466 73.932211665 -0.060596506 58 255 76
5.230984356 73.835510987 -0.065520033 51 255 80
5.230202287 73.738492779 -0.067650837 47 255 81
5.230393277 73.641779043 -0.072470302 44 255 83
5.232436453 73.545643567 -0.082408552 29 255 89
5.235185580 73.449726241 -0.094297223 15 255 96
5.236225613 73.353272918 -0.101460620 7 255 99
5.233645487 73.255690153 -0.098616026 11 255 97
5.229004025 73.157467154 -0.090072275 22 255 92
5.226413819 73.059884439 -0.087197581 25 255 91
5.225784906 72.962911735 -0.089743348 22 255 92
5.223307151 72.865365548 -0.087177319 25 255 91
5.217450437 72.766774197 -0.075269697 40 255 84
5.211208814 72.668067507 -0.062296866 55 255 78
5.208638862 72.570498930 -0.059472566 58 255 76
5.208568402 72.473702642 -0.063556639 55 255 78
5.209064705 72.377080269 -0.069206418 47 255 81
5.212389048 72.281327045 -0.082672955 29 255 89
5.219418146 72.186709198 -0.106379962 0 255 102
5.226750952 72.092178449 -0.130925704 0 251 126
5.231426096 71.996826510 -0.148123716 0 248 144
4.845928593 51.954565065 0.060437693 204 255 12
4.859419593 51.860838000 0.019051646 153 255 35
4.873558449 51.767247054 -0.024126553 102 255 57
4.873406452 51.670403473 -0.027756302 98 255 59
4.865605403 51.571827420 -0.010217280 116 255 51
4.857431559 51.473172312 0.008354677 142 255 40
4.851373905 51.375000210 0.021071597 156 255 33
4.847572976 51.277340348 0.027544471 164 255 30
4.845003593 51.179959591 0.030610303 167 255 28
4.843817104 51.082890508 0.029850197 167 255 28
4.845022385 50.986357621 0.022472085 156 255 33
4.849592435 50.890575886 0.005783133 138 255 41
4.855142366 50.795008768 -0.013616684 113 255 52
4.856073500 50.698406788 -0.020233129 106 255 56
4.852278502 50.600751348 -0.013768958 113 255 52
4.847804818 50.502947245 -0.005425347 124 255 48
4.845683699 50.405667671 -0.003591352 127 255 46
4.845158264 50.308742322 -0.006172362 124 255 48
4.844113676 50.211701857 -0.007315515 120 255 49
4.842396950 50.114513110 -0.006597387 124 255 48
4.842411767 50.017706380 -0.010670347 116 255 51
4.845252414 49.921520334 -0.022563016 102 255 57
4.847322721 49.825162248 -0.032322701 91 255 62
4.844278831 49.727681038 -0.027927191 95 255 60
4.838312005 49.629561949 -0.015440898 113 255 52
4.832892538 49.531566204 -0.004468279 124 255 48
4.828642240 49.433828735 0.003269675 135 255 43
4.825067413 49.336240761 0.009139317 142 255 40
4.821597587 49.238677577 0.014719511 149 255 36
4.818271493 49.141147463 0.019903048 156 255 33
4.815418466 49.043721547 0.023778420 160 255 32
4.813053594 48.946402548 0.026303845 164 255 30
4.811022910 48.849156693 0.027905447 164 255 30
4.810036105 48.752136418 0.026618953 164 255 30
4.809948769 48.655309486 0.022844012 156 255 33
4.808721180 48.558237208 0.022226121 156 255 33
4.803754453 48.460364246 0.031958541 171 255 27
4.796718302 48.362051878 0.047419960 189 255 19
4.794670195 48.264808691 0.049076544 189 255 19
4.798366401 48.168790081 0.034834849 175 255 25
4.801865579 48.072725995 0.021139462 156 255 33
4.798851251 47.975275828 0.025473623 160 255 32
4.793944157 47.877426150 0.035047903 175 255 25
4.793877738 47.780603325 0.031224849 167 255 28
4.795895399 47.684219808 0.021634293 156 255 33
4.793788147 47.586964686 0.023462224 160 255 32
4.785424191 47.488394235 0.042609504 182 255 22
4.784981904 47.391492834 0.039831205 178 255 24
4.781038262 47.293857136 0.046745642 189 255 19
4.780139533 47.196860750 0.045232966 186 255 20
4.779426896 47.099903162 0.043206274 182 255 22
4.779055853 47.003016574 0.040235127 178 255 24
4.779373429 46.906272800 0.035358930 175 255 25
4.778913114 46.809366471 0.032637026 171 255 27
4.776494639 46.712053802 0.035336497 175 255 25
4.773607995 46.614645353 0.039333022 178 255 24
4.774078345 46.517931723 0.034038243 171 255 27
4.778932195 46.422120688 0.016610548 149 255 36
4.783579478 46.326262685 -0.000244418 131 255 44
4.785280757 46.229795279 -0.008943537 120 255 49
4.784645084 46.132846712 -0.011172626 116 255 51
4.778034487 46.034675216 0.003138884 135 255 43
4.773266352 45.936884345 0.012351393 146 255 38
4.771238864 45.839655097 0.013978484 149 255 36
4.766999066 45.741976473 0.021730805 156 255 33
4.760873546 45.643917342 0.034704382 171 255 27
4.757034648 45.546325688 0.041349309 182 255 22
4.757340636 45.449574890 0.036521371 175 255 25
4.758543326 45.353004201 0.029212193 167 255 28
4.756902363 45.255858633 0.029776034 167 255 28
4.752069480 45.158071377 0.039177111 178 255 24
4.746446284 45.060128360 0.050767205 193 255 17
4.743819330 44.962789421 0.054063999 197 255 16
4.746237366 44.866460970 0.043395773 182 255 22
4.750025907 44.770403559 0.028934529 167 255 28
4.750987787 44.673779199 0.022299427 156 255 33
4.748324000 44.576432209 0.025702524 160 255 32
4.743406724 44.478639145 0.035345271 175 255 25
4.739791811 44.381107134 0.041383764 182 255 22
4.739001733 44.284135754 0.039603138 178 255 24
4.738465502 44.187214328 0.037120841 175 255 25
4.738061709 44.090318649 0.034272980 171 255 27
4.738969317 43.993680357 0.027795650 164 255 30
4.740532959 43.897169350 0.019503156 153 255 35
4.740640717 43.800371273 0.015242260 149 255 36
4.739716719 43.703370694 0.013838832 146 255 38
4.739101692 43.606430344 0.011581107 146 255 38
4.737901135 43.509375713 0.010945511 146 255 38
4.734181787 43.411831813 0.017284362 153 255 35
4.728039772 43.313820175 0.030331640 167 255 28
4.722345070 43.215899058 0.042141744 182 255 22
4.718148981 43.118271024 0.049804051 193 255 17
4.715183993 43.020882783 0.054059132 197 255 16
4.713267735 42.923697835 0.055411851 197 255 16
4.713427727 42.826912282 0.051017354 193 255 17
4.717408996 42.730858155 0.036044230 175 255 25
4.723444276 42.635193073 0.015385244 149 255 36
4.725882055 42.538835960 0.004687393 135 255 43
4.722701038 42.441405902 0.009547121 142 255 40
4.716425063 42.343389146 0.022976958 160 255 32
4.711662560 42.245663582 0.032217692 171 255 27
4.709085720 42.148354750 0.035408156 175 255 25
4.706046028 42.050959675 0.039881269 178 255 24
4.701039710 41.953195306 0.049800602 193 255 17
4.696529525 41.855527385 0.058347471 200 255 14
4.696588605 41.758720336 0.054244310 197 255 16
4.700698809 41.662671805 0.038925547 178 255 24
4.704414530 41.566545591 0.024699981 160 255 32
4.703842927 41.469615477 0.022346148 156 255 33
4.700676075 41.372201590 0.027179176 164 255 30
4.699460944 41.275152205 0.026609366 164 255 30
4.700919569 41.178599036 0.018637436 153 255 35
4.703256820 41.082206669 0.008233734 142 255 40
4.703614875 40.985446092 0.003311186 135 255 43
4.701283263 40.888188583 0.005837085 138 255 41
4.699148026 40.790968237 0.007820371 138 255 41
4.701121022 40.694503085 -0.001570573 127 255 46
4.706758335 40.598707078 -0.021106745 106 255 56
4.708041368 40.502109848 -0.028585242 95 255 60
4.702767987 40.404314580 -0.017908271 109 255 54
4.696547654 40.306350170 -0.004608001 124 255 48
4.694172597 40.209088446 -0.001954008 127 255 46
4.692588509 40.111971201 -0.001489074 127 255 46
4.688322743 40.014369209 0.006402573 138 255 41
4.691576245 39.918127344 -0.006525654 124 255 48
4.685532656 39.820207187 0.006291128 138 255 41
4.677690978 39.721967626 0.024088154 160 255 32
4.667215377 39.623260770 0.049179981 189 255 19
4.659465760 39.525049184 0.066724687 211 255 9
4.659176403 39.428175475 0.063612496 207 255 11
4.662222347 39.331895780 0.051265564 193 255 17
4.664598345 39.235493836 0.040774778 182 255 22
4.667054769 39.139103599 0.030062284 167 255 28
4.671504644 39.043063794 0.013830625 146 255 38
4.674420852 38.946748791 0.001846889 131 255 44
4.671978632 38.849485867 0.004702589 135 255 43
4.665039141 38.751432699 0.020013240 156 255 33
4.657444526 38.653269059 0.037139328 175 255 25
4.652559454 38.555585184 0.046763369 189 255 19
4.650965707 38.458479672 0.047274164 189 255 19
4.650772292 38.361618893 0.043908201 186 255 20
4.649961875 38.264650119 0.042251957 182 255 22
4.648329536 38.167538469 0.042872931 182 255 22
4.646935681 38.070468642 0.042834589 182 255 22
4.645611147 37.973411115 0.042605385 182 255 22
4.641655538 37.875899927 0.049663571 189 255 19
4.636388917 37.778165333 0.060353560 204 255 12
4.632721688 37.680708723 0.066615497 211 255 9
4.629787564 37.583379802 0.070848373 218 255 6
4.626444810 37.485982499 0.076214051 222 255 4
4.622729282 37.388523401 0.082613245 232 255 0
4.620395594 37.291301621 0.085186742 232 255 0
4.622059840 37.194759908 0.076689438 226 255 3
4.626554643 37.098695847 0.060354133 204 255 12
4.630994760 37.002618351 0.044171224 186 255 20
4.631997639 36.905956847 0.037508544 175 255 25
4.627789154 36.808416662 0.045279619 186 255 20
4.622818749 36.710750990 0.055162005 197 255 16
4.619553780 36.613374116 0.060322400 204 255 12
4.616833060 36.516089969 0.063976650 207 255 11
4.613197964 36.418654644 0.070164435 215 255 8
4.609833093 36.321266312 0.075604992 222 255 4
4.607748434 36.224092346 0.077501099 226 255 3
4.605180645 36.126839196 0.080736393 229 255 1
4.600213857 36.029190803 0.090617049 233 253 0
4.594347085 35.931397070 0.102991505 235 249 0
4.588492378 35.833609057 0.115333777 237 245 0
4.582069745 35.735731566 0.129250222 239 241 0
4.583411971 35.639129561 0.121662089 238 243 0
4.580345492 35.541805633 0.126285553 238 242 0
4.583044975 35.445422938 0.114940406 237 246 0
4.589531049 35.349653055 0.093108619 233 252 0
4.585724785 35.252208054 0.099784319 234 250 0
4.585086237 35.155277799 0.097687556 234 250 0
4.588142390 35.058943730 0.085358605 232 255 0
4.582590934 34.961220302 0.096871407 234 251 0
4.578963904 34.863809563 0.103055264 235 249 0
4.576288139 34.766553320 0.106605520 236 247 0
4.574946192 34.669511654 0.106462545 236 247 0
4.574688339 34.572643197 0.103317973 235 249 0
4.574266908 34.475748153 0.100627557 235 249 0
4.572778386 34.378683270 0.100893867 235 249 0
4.569747081 34.281374435 0.105434535 235 248 0
4.565722616 34.183910254 0.112727258 237 246 0
4.563706380 34.086764914 0.114458657 237 246 0
4.564399459 33.990046341 0.108686735 236 247 0
4.563980489 33.893152065 0.105996113 235 248 0
4.560316809 33.795749682 0.112294086 236 246 0
4.555795403 33.698215475 0.120969060 238 244 0
4.554866085 33.601243250 0.119695417 238 244 0
4.556790330 33.504714184 0.110518675 236 246 0
4.557258534 33.407957305 0.105376121 235 248 0
4.556021501 33.310935769 0.104958073 235 248 0
4.554725537 33.213905341 0.104704370 235 248 0
4.554301027 33.117009168 0.102037855 235 249 0
4.554439242 33.020198889 0.097813670 234 250 0
4.553500289 32.923222922 0.096574335 234 251 0
4.550893645 32.825992367 0.099955660 234 250 0
4.546723629 32.728525021 0.107668748 236 247 0
4.542263499 32.631016051 0.116186657 237 245 0
4.537892242 32.533523202 0.124459575 238 242 0
4.532672869 32.435904786 0.135083049 240 239 0
4.528560204 32.338456418 0.142642040 241 236 0
4.529814320 32.241817298 0.135335607 240 239 0
4.537252866 32.146103885 0.110898525 236 246 0
4.544258407 32.050319259 0.087661800 233 254 0
4.539916442 31.952835525 0.095860353 234 251 0
4.534203876 31.855150395 0.107856900 236 247 0
4.621759934 28.671167531 -0.260455040 0 229 255
4.585340523 28.472450694 -0.167134036 0 245 162
4.575908311 28.374297370 -0.144790687 0 248 141
4.571944340 28.276886857 -0.137596755 0 250 132
4.569957578 28.179744113 -0.135879883 0 250 132
4.558421304 27.984451206 -0.111488462 0 254 108
4.547129415 27.886074869 -0.083986039 29 255 89
4.536089256 27.787739833 -0.057179712 62 255 75
4.529264374 27.689970437 -0.042051541 80 255 67
4.525689177 27.592634404 -0.035926260 87 255 64
4.522104374 27.495299087 -0.029773187 95 255 60
4.518011394 27.397899075 -0.022210882 102 255 57
4.514242616 27.300543856 -0.015545693 113 255 52
4.510161562 27.203150028 -0.008014058 120 255 49
4.502982708 27.105355642 0.008102291 142 255 40
4.500666196 27.008196567 0.010747049 142 255 40
4.490750340 26.910055894 0.034449768 171 255 27
4.485907839 26.812576109 0.044096140 186 255 20
4.482722097 26.715312228 0.049153007 189 255 19
4.480120541 26.618124895 0.052592307 193 255 17
4.479868019 26.521238937 0.049523749 189 255 19
4.478390516 26.424196366 0.049850628 193 255 17
4.472113708 26.326544625 0.063477290 207 255 11
4.464216623 26.228691764 0.081594939 229 255 1
4.456679694 26.130889657 0.098715898 234 250 0
4.450451549 26.033257283 0.112211501 236 246 0
4.446881526 25.935962449 0.118342667 238 244 0
4.446305042 25.839044063 0.116179838 237 245 0
4.448284647 25.742444133 0.106935080 236 247 0
4.451740130 25.646025424 0.093601608 233 252 0
4.453765939 25.549426112 0.084230844 232 255 0
4.452082271 25.452366139 0.085140357 232 255 0
4.446410090 25.354815391 0.097103536 234 251 0
4.437402517 25.256858648 0.118310676 238 244 0
4.426770805 25.158709223 0.144019829 241 236 0
4.419113650 25.060930170 0.161487453 244 231 0
4.420150164 24.964213801 0.154864915 243 233 0
4.426648391 24.868158205 0.133108137 239 240 0
4.432894513 24.772066404 0.112050884 236 246 0
4.435721593 24.675557065 0.100469352 235 249 0
4.433549044 24.578444254 0.102743807 235 249 0
4.428689082 24.481010568 0.112466806 237 246 0
4.423476553 24.383537764 0.123168060 238 243 0
4.418539660 24.286100984 0.133106681 239 240 0
4.414815586 24.188811050 0.139685484 241 237 0
4.412824860 24.091728101 0.141461884 241 237 0
4.411539989 23.994729082 0.141283295 241 237 0
4.409986078 23.897698694 0.141851405 241 237 0
4.407675028 23.800580107 0.144518910 241 236 0
4.403813862 23.703281673 0.151483430 242 234 0
4.399624797 23.605947303 0.159357859 243 232 0
4.400797348 23.509236843 0.152374540 242 234 0
4.406636394 23.413063831 0.132459697 239 240 0
4.409817822 23.316579583 0.119911042 238 244 0
4.408243091 23.219546319 0.120544578 238 244 0
4.406265357 23.122467407 0.122296122 238 243 0
4.406446890 23.025635397 0.118064556 237 245 0
4.406439173 22.928780989 0.114358559 237 246 0
4.403909145 22.831640226 0.117644100 237 245 0
4.403541934 22.734744710 0.114936619 237 246 0
4.405756130 22.638139033 0.105075916 235 248 0
4.407808574 22.541512773 0.095664528 234 251 0
4.409111298 22.444800440 0.088332012 233 254 0
4.408489738 22.347872146 0.086333731 233 254 0
4.405532933 22.250684511 0.090808752 233 253 0
4.402031214 22.153438139 0.096795188 234 251 0
4.400468231 22.056407276 0.097409475 234 251 0
4.400992631 21.959606015 0.092239549 233 252 0
4.403439159 21.863013880 0.081743342 229 255 1
4.403007156 21.766105294 0.079226289 226 255 3
4.393285184 21.668187042 0.102458540 235 249 0
4.384244294 21.570349203 0.123804430 238 243 0
4.372395721 21.472214655 0.152933538 242 234 0
4.365735841 21.374646147 0.167682779 245 229 0
4.363469597 21.277552563 0.170255580 245 228 0
4.364243812 21.180784443 0.164402330 244 230 0
4.366071896 21.084127040 0.155629134 243 233 0
4.367613712 20.987437145 0.147650420 242 235 0
4.367953906 20.890618449 0.143003308 241 236 0
4.366617806 20.793622399 0.143003514 241 236 0
4.365181279 20.696616086 0.143283194 241 236 0
4.366335447 20.599880651 0.136383197 240 238 0
4.369837445 20.503387850 0.122976582 238 243 0
4.371996251 20.406752371 0.113293998 237 246 0
4.370109925 20.309696703 0.114824761 237 246 0
4.366541862 20.212468676 0.121018126 238 244 0
4.364556451 20.115404862 0.122825821 238 243 0
4.363907972 20.018478349 0.120928878 238 244 0
4.361477413 19.921370250 0.123972712 238 243 0
4.355968077 19.823951172 0.135551678 240 239 0
4.348971105 19.726385328 0.151255433 242 234 0
4.344699387 19.629098238 0.159406326 243 232 0
4.346834968 19.532455772 0.149797920 242 234 0
4.352276677 19.436140972 0.131026183 239 240 0
4.354759979 19.339527030 0.120455915 238 244 0
4.353601024 19.242549595 0.119982837 238 244 0
4.353307089 19.145657652 0.117113061 237 245 0
4.356633473 19.049121057 0.104208908 235 248 0
4.361066506 18.952689516 0.088238113 233 254 0
4.362487972 18.855960082 0.080616377 229 255 1
4.358243006 18.758678285 0.088703176 233 253 0
4.353079294 18.661310069 0.099337971 234 250 0
4.349934395 18.564139634 0.104377733 235 248 0
4.347841337 18.467071827 0.106502890 236 247 0
4.345121798 18.369944956 0.110365838 236 246 0
4.340198741 18.272609545 0.120338299 238 244 0
4.334205272 18.175175605 0.133279275 240 239 0
4.330957337 18.078004874 0.138610542 240 238 0
4.332779016 17.981312872 0.129889327 239 241 0
4.336275343 17.884775641 0.116526770 237 245 0
4.334220654 17.787716921 0.118553512 238 244 0
4.327794024 17.690252675 0.132701183 239 240 0
4.322849178 17.592929741 0.142742322 241 236 0
4.324549924 17.496222399 0.134361746 240 239 0
4.331716062 17.400014680 0.110830958 236 246 0
4.337388474 17.303664170 0.091442004 233 253 0
4.338408551 17.206885061 0.084951386 232 255 0
4.334658089 17.109671982 0.091686984 233 252 0
4.328696008 17.012261387 0.104554976 235 248 0
4.324832510 16.915043215 0.111606341 236 246 0
4.324167230 16.818113467 0.109792477 236 246 0
4.323357257 16.721170572 0.108380847 236 247 0
4.319670912 16.623972312 0.114944560 237 246 0
4.314500980 16.526645041 0.125622462 238 242 0
4.310099598 16.429388571 0.134170898 240 239 0
4.305571214 16.332123586 0.143072630 241 236 0
4.300887260 16.234847740 0.152406866 242 234 0
4.301376847 16.138023865 0.147399216 242 235 0
4.306678932 16.041614811 0.129050426 239 241 0
4.310623154 15.945084089 0.114467141 237 246 0
4.311600281 15.848295400 0.108110911 236 247 0
4.310100425 15.751293951 0.108623044 236 247 0
4.306013133 15.654073210 0.116309870 237 245 0
4.300874244 15.556765955 0.126913418 238 242 0
4.297419469 15.459603567 0.132848998 239 240 0
4.296883479 15.362687518 0.130693411 239 240 0
4.297317358 15.265851973 0.125849943 238 242 0
4.296271377 15.168892523 0.125110502 238 242 0
4.293755167 15.071811663 0.128448447 239 241 0
4.299893821 14.975443579 0.107791430 236 247 0
4.296592530 14.878297481 0.113308251 237 246 0
4.293735031 14.781189297 0.117595794 237 245 0
4.292621410 14.684223918 0.117049423 237 245 0
4.292238313 14.587317572 0.114478704 237 246 0
4.290754692 14.490322377 0.114960420 237 246 0
4.287915899 14.393219243 0.119200663 238 244 0
4.285933859 14.296185666 0.121066586 238 244 0
4.286459591 14.199351351 0.115980427 237 245 0
4.287862892 14.102584999 0.108462117 236 247 0
4.287503196 14.005678604 0.105833104 235 248 0
4.284255781 13.908546452 0.111211986 236 246 0
4.279008835 13.811260808 0.122136182 238 243 0
4.274434296 13.714030356 0.131197198 239 240 0
4.270947172 13.616886221 0.137244289 240 238 0
4.269662932 13.519912462 0.137184486 240 238 0
4.271371771 13.423166676 0.128826659 239 241 0
4.276445658 13.326673586 0.111139296 236 246 0
4.285627186 13.230485264 0.082063190 229 255 1
4.295271992 13.134323865 0.051703334 193 255 17
4.291071857 13.037122008 0.059733984 204 255 12
4.293369999 12.940404637 0.049747115 193 255 17
4.282711500 12.842728594 0.075688199 222 255 4
4.274882702 12.745267686 0.093784258 233 252 0
4.272977016 12.648244573 0.095457500 234 251 0
4.275324900 12.551531163 0.085337153 232 255 0
4.278221585 12.454854846 0.073696049 222 255 4
4.279399539 12.358052001 0.066821863 211 255 9
4.278922121 12.261129132 0.064538976 207 255 11
4.276165941 12.164043809 0.068576088 215 255 8
4.271041857 12.066792345 0.079180479 226 255 3
4.260489003 11.969162132 0.104839970 235 248 0
4.248493816 11.871438323 0.134500414 240 239 0
4.246148131 11.774394376 0.137404118 240 238 0
4.062367559 -4.610256749 0.054476616 197 255 16
4.042315967 -8.294361400 -0.018834377 109 255 54
4.042559705 -8.391326707 -0.022883490 102 255 57
4.041592172 -8.488280227 -0.023569226 102 255 57
4.036695029 -8.585190892 -0.013345803 113 255 52
4.028795360 -8.682064654 0.005213471 138 255 41
4.022128771 -8.778947546 0.020351149 156 255 33
4.018530296 -8.875863128 0.026973314 164 255 30
4.016762042 -8.972799521 0.028516129 164 255 30
4.014796278 -9.069732805 0.030608345 167 255 28
4.013401704 -9.166672914 0.031116112 167 255 28
4.015408767 -9.263659005 0.022182212 156 255 33
4.019140257 -9.360671536 0.008462389 142 255 40
4.022458423 -9.457681776 -0.004109072 124 255 48
4.023367125 -9.554659799 -0.009990879 116 255 51
4.022790785 -9.651616826 -0.011749135 116 255 51
4.022784051 -9.748583035 -0.015087531 113 255 52
4.022541164 -9.845546268 -0.017769272 109 255 54
4.019768912 -9.942468901 -0.013428282 113 255 52
4.012603171 -10.039316948 0.003110467 135 255 43
4.012764846 -10.136285247 -0.000690970 131 255 44
4.007350256 -10.233157214 0.010988885 146 255 38
4.012764661 -10.330218805 -0.007392432 120 255 49
4.010974421 -10.427154170 -0.005771880 124 255 48
4.011964218 -10.524140626 -0.011867940 116 255 51
4.006208723 -10.621000646 0.000762957 131 255 44
4.002658411 -10.717899719 0.007273160 138 255 41
4.004204526 -10.814897460 -0.000364007 131 255 44
4.011410899 -10.912011081 -0.023714046 102 255 57
4.014637994 -11.009049411 -0.036015939 87 255 64
4.020002832 -11.106135664 -0.054251657 66 255 73
4.020829278 -11.203130263 -0.059886841 58 255 76
4.019447463 -11.300078452 -0.059390304 58 255 76
4.018168353 -11.397028629 -0.059177782 58 255 76
4.017250988 -11.493986724 -0.059968442 58 255 76
4.017137420 -11.590963235 -0.062989555 55 255 78
4.016528762 -11.687928961 -0.064635066 51 255 80
4.009899084 -11.784753043 -0.049563286 69 255 72
4.004620663 -11.881605200 -0.038241766 84 255 65
3.996847291 -11.978393352 -0.019992201 106 255 56
3.993261488 -12.075279879 -0.013367486 113 255 52
3.990715058 -12.172190541 -0.009627262 120 255 49
3.989647656 -12.269137746 -0.009992218 116 255 51
3.991763296 -12.366167296 -0.019193417 106 255 56
3.996154339 -12.463259019 -0.034711014 87 255 64
3.999754792 -12.560333830 -0.048032645 73 255 70
3.998556768 -12.657282480 -0.048030666 73 255 70
3.994189189 -12.754144101 -0.039227491 84 255 65
3.993913033 -12.851116895 -0.041782760 80 255 67
3.999210080 -12.948247335 -0.059810754 58 255 76
4.006444395 -13.045437970 -0.083216595 29 255 89
4.012319476 -13.142595594 -0.102847642 4 255 100
4.008944723 -13.239487174 -0.096795527 11 255 97
4.010522788 -13.336524141 -0.104493840 4 255 100
4.006532554 -13.433395487 -0.096730537 11 255 97
4.006059419 -13.530371781 -0.098731437 11 255 97
4.002495757 -13.627253094 -0.092150203 18 255 94
4.003528559 -13.724276116 -0.098330216 11 255 97
4.003042923 -13.821252678 -0.100293093 7 255 99
3.998003345 -13.918083832 -0.089610390 22 255 92
3.991025547 -14.014849097 -0.073544774 40 255 84
3.985243450 -14.111648999 -0.060797905 55 255 78
3.981922309 -14.208526886 -0.054882988 62 255 75
3.982633646 -14.305538328 -0.060163707 58 255 76
3.987621748 -14.402696258 -0.077318523 36 255 86
3.994099738 -14.499909945 -0.098609339 11 255 97
3.998670064 -14.597063182 -0.114602239 0 253 111
3.999268299 -14.694081327 -0.119564836 0 253 114
3.996253762 -14.790972553 -0.114494694 0 253 111
3.991460705 -14.887798477 -0.104484903 4 255 100
3.987617617 -14.984655939 -0.097111729 11 255 97
3.987722991 -15.081655861 -0.100701314 7 255 99
3.989337641 -15.178712512 -0.108480742 0 254 105
3.986278644 -15.275596421 -0.103281388 4 255 100
3.979723825 -15.372346701 -0.088373654 22 255 92
3.973576939 -15.469108305 -0.074597416 40 255 84
3.969493329 -15.565945512 -0.066549298 51 255 80
3.967604876 -15.662865830 -0.064595598 51 255 80
3.967272669 -15.759846670 -0.066962238 47 255 81
3.967300447 -15.856842334 -0.070327418 44 255 83
3.967254461 -15.953835853 -0.073486678 40 255 84
3.968538050 -16.050883927 -0.080336953 33 255 88
3.971580622 -16.148005631 -0.092070718 18 255 94
3.971872844 -16.245017052 -0.096165964 15 255 96
3.965936116 -16.341770253 -0.082962720 29 255 89
3.957776492 -16.438426319 -0.063585354 55 255 78
3.951845692 -16.535171380 -0.050396054 69 255 72
3.950740943 -16.632119084 -0.050607357 69 255 72
3.953702254 -16.729242193 -0.062108968 55 255 78
3.955767720 -16.826329362 -0.071121809 44 255 83
3.954181505 -16.923258522 -0.069992829 44 255 83
3.951446799 -17.020136369 -0.065673325 51 255 80
3.951390530 -17.117132603 -0.068790810 47 255 81
3.954726876 -17.214282498 -0.081328708 33 255 88
3.959539080 -17.311502833 -0.097964180 11 255 97
3.963894058 -17.408706693 -0.113328940 0 254 108
3.966798721 -17.505847648 -0.124665066 0 252 120
3.967083672 -17.602869522 -0.128724945 0 251 123
3.963553867 -17.699713139 -0.122189684 0 252 117
3.957159551 -17.796419126 -0.107698093 0 255 102
3.950613496 -17.893113746 -0.092783843 18 255 94
3.946078143 -17.989900934 -0.083452394 29 255 89
3.943170607 -18.086764425 -0.078640482 33 255 88
3.939882582 -18.183607864 -0.072770718 40 255 84
3.935304907 -18.280385993 -0.063318153 55 255 78
3.930784901 -18.377164262 -0.054024543 66 255 73
3.930570626 -18.474155415 -0.056687760 62 255 75
3.934367392 -18.571349543 -0.070489545 44 255 83
3.937716257 -18.668524609 -0.083046410 29 255 89
3.937241427 -18.765507204 -0.084982829 25 255 91
3.932258231 -18.862257593 -0.074397114 40 255 84
3.925944260 -18.958935768 -0.060114216 58 255 76
3.923616226 -19.055818620 -0.056900275 62 255 75
3.928331672 -19.153072033 -0.073247257 40 255 84
3.934103242 -19.250385978 -0.092526497 18 255 94
3.936907066 -19.347546313 -0.103562325 4 255 100
3.935674166 -19.444491997 -0.103385668 4 255 100
3.929765559 -19.541183690 -0.090221661 22 255 92
3.921094952 -19.637720632 -0.069385246 47 255 81
3.915010528 -19.734394092 -0.055730407 62 255 75
3.912535978 -19.831263803 -0.052100469 66 255 73
3.919035854 -19.928633394 -0.073395290 40 255 84
3.917959243 -20.025582909 -0.073645882 40 255 84
3.917967387 -20.122593778 -0.076908232 36 255 86
3.919621644 -20.219699234 -0.084741543 25 255 91
3.915015304 -20.316447644 -0.075185062 40 255 84
3.917926078 -20.413627377 -0.086506195 25 255 91
3.919205096 -20.510715288 -0.093294090 18 255 94
3.916706803 -20.607583954 -0.089589338 22 255 92
3.911484300 -20.704291047 -0.078316822 36 255 86
3.916326262 -20.801591547 -0.094997722 15 255 96
3.913559390 -20.898442581 -0.090543587 18 255 94
3.915018835 -20.995546067 -0.097827251 11 255 97
3.918583587 -21.092778695 -0.110957571 0 254 105
3.916394866 -21.189664948 -0.108105986 0 255 102
3.917335831 -21.286741850 -0.113946358 0 254 108
3.914568201 -21.383591876 -0.109484537 0 254 105
3.918904068 -21.480880764 -0.124752602 0 252 120
3.912744172 -21.577519333 -0.110865980 0 254 105
3.904743634 -21.674038487 -0.091865399 18 255 94
3.896483949 -21.770535931 -0.072143686 44 255 83
3.888777870 -21.867062981 -0.053958429 66 255 73
3.883462165 -21.963737623 -0.042411669 80 255 67
3.881883003 -22.060649135 -0.041242804 80 255 67
3.882752431 -22.157718546 -0.046874378 73 255 70
3.885086958 -22.254884711 -0.056574587 62 255 75
3.888550203 -22.352127310 -0.069409100 47 255 81
3.891069666 -22.449311252 -0.079620998 33 255 88
3.890637407 -22.546302538 -0.081632590 29 255 89
3.886420766 -22.643042329 -0.073130780 40 255 84
3.878317465 -22.739519415 -0.053831303 66 255 73
3.870512766 -22.836011179 -0.035359999 87 255 64
3.866669657 -22.932766061 -0.027892121 95 255 60
3.867620506 -23.029845322 -0.033740040 91 255 62
3.871040135 -23.127095215 -0.046444877 73 255 70
3.872443693 -23.224209656 -0.053548294 66 255 73
3.871218812 -23.321143907 -0.053349107 66 255 73
3.869283242 -23.418028509 -0.051174566 69 255 72
3.868190790 -23.514971467 -0.051341021 69 255 72
3.867197175 -23.611921340 -0.051780927 66 255 73
3.863580004 -23.708685486 -0.044931590 76 255 68
3.858122583 -23.805316645 -0.032968904 91 255 62
3.855737895 -23.902164326 -0.029541008 95 255 60
3.856328053 -23.999225027 -0.034376094 87 255 64
3.856035071 -24.096223089 -0.036756739 87 255 64
3.855422005 -24.193198443 -0.038247091 84 255 65
3.855633738 -24.290234419 -0.042027675 80 255 67
3.856181181 -24.387296025 -0.046739804 73 255 70
3.855057614 -24.484235398 -0.046808683 73 255 70
3.851994136 -24.581030642 -0.041487223 80 255 67
3.848963979 -24.677826815 -0.036257166 87 255 64
3.846774992 -24.774684567 -0.033362810 91 255 62
3.845374597 -24.871600901 -0.032658117 91 255 62
3.845311359 -24.968618308 -0.035667113 87 255 64
3.846705451 -25.065747484 -0.042723708 80 255 67
3.847126741 -25.162804042 -0.047076657 73 255 70
3.845398441 -25.259696307 -0.045456595 76 255 68
3.844463700 -25.356649409 -0.046040062 73 255 70
3.845594923 -25.453763151 -0.052362095 66 255 73
3.845104633 -25.550751914 -0.054178163 66 255 73
3.838359496 -25.647250170 -0.038615732 84 255 65
3.828784410 -25.743520836 -0.015189755 113 255 52
3.822293035 -25.840029342 -0.000329779 131 255 44
3.821046686 -25.936951367 -0.000040649 131 255 44
3.823427567 -26.034163494 -0.009827881 120 255 49
3.825121029 -26.131322973 -0.017704242 109 255 54
3.823454661 -26.228213100 -0.016244916 109 255 54
3.819616547 -26.324926447 -0.008750651 120 255 49
3.817666517 -26.421791634 -0.006500939 124 255 48
3.821931223 -26.519165385 -0.021516811 106 255 56
3.830334797 -26.616883961 -0.048030998 73 255 70
3.836900598 -26.714457781 -0.069438305 47 255 81
3.837854299 -26.811571090 -0.075252097 40 255 84
3.834137515 -26.908296025 -0.068088344 47 255 81
3.829862687 -27.004972098 -0.059372927 58 255 76
3.825306774 -27.101622000 -0.049875344 69 255 72
3.818026585 -27.198038628 -0.032807309 91 255 62
3.815857811 -27.294885026 -0.029939848 95 255 60
3.811667902 -27.391557942 -0.021455585 106 255 56
3.815309556 -27.488900286 -0.034730008 87 255 64
3.816097877 -27.586000348 -0.040075470 80 255 67
3.819832996 -27.683356876 -0.053607587 66 255 73
3.818529712 -27.780279029 -0.053139394 66 255 73
3.815480761 -27.877048536 -0.047819684 73 255 70
3.814597584 -27.974006455 -0.048516527 73 255 70
3.816745509 -28.071231513 -0.057634385 62 255 75
3.819840702 -28.168542831 -0.069383276 47 255 81
3.788957280 -28.262837908 0.013281537 146 255 38
3.772169308 -28.358368017 0.056782562 200 255 14
3.580295344 -48.523825629 -0.040510253 80 255 67
3.588096942 -48.622264422 -0.065128543 51 255 80
3.588894343 -48.719519086 -0.070264457 44 255 83
3.585883402 -48.816126158 -0.064806728 51 255 80
3.581248398 -48.912454318 -0.054830630 62 255 75
3.578157068 -49.009043966 -0.049146988 69 255 72
3.578004067 -49.106136171 -0.051635040 69 255 72
3.578174822 -49.203284731 -0.055022542 62 255 75
3.576645783 -49.300141276 -0.053681028 66 255 73
3.575156253 -49.397004268 -0.052448303 66 255 73
3.575643014 -49.494209035 -0.056711549 62 255 75
3.576896464 -49.591547997 -0.063106308 55 255 78
3.577062712 -49.688699678 -0.066475939 51 255 80
3.575615474 -49.785571109 -0.065356514 51 255 80
3.574107016 -49.882431534 -0.064065696 51 255 80
3.574907551 -49.979695760 -0.069196419 47 255 81
3.576691411 -50.077133901 -0.077061306 36 255 86
3.576400162 -50.174209395 -0.079153043 33 255 88
3.572018222 -50.270564710 -0.069864964 44 255 83
3.560826275 -50.365714946 -0.041632770 80 255 67
3.547009648 -50.460392888 -0.006098288 124 255 48
3.540392489 -50.556337808 0.009411170 142 255 40
3.540330601 -50.653443528 0.006687252 138 255 41
3.544952925 -50.751384350 -0.009065599 120 255 49
3.551250864 -50.849628638 -0.029478560 95 255 60
3.555819539 -50.947569230 -0.045080314 76 255 68
3.557688939 -51.045030229 -0.053172481 66 255 73
3.557999059 -51.142213328 -0.056926127 62 255 75
3.558743784 -51.239475715 -0.061887680 55 255 78
3.560164921 -51.336861522 -0.068729805 47 255 81
3.561273539 -51.434192714 -0.074701545 40 255 84
3.560425774 -51.531171063 -0.075230004 40 255 84
3.558034408 -51.627869262 -0.071463377 44 255 83
3.558896730 -51.725158497 -0.076746792 36 255 86
3.560171057 -51.822524328 -0.083175292 29 255 89
3.556861461 -51.919054266 -0.076851005 36 255 86
3.549246241 -52.014793979 -0.058547933 58 255 76
3.540676373 -52.110353435 -0.037587889 84 255 65
3.538713796 -52.207122152 -0.035007269 87 255 64
3.542317147 -52.304915862 -0.047909371 73 255 70
3.546660401 -52.402849784 -0.062868849 55 255 78
3.548468677 -52.500318747 -0.070775264 44 255 83
3.547235485 -52.597225897 -0.070219492 44 255 83
3.545335606 -52.694009012 -0.067807936 47 255 81
3.544728469 -52.791032182 -0.068991623 47 255 81
3.546483962 -52.888496537 -0.076747015 36 255 86
3.549024200 -52.986109776 -0.086684543 25 255 91
3.548427624 -53.083138043 -0.087894446 22 255 92
3.544978957 -53.179631170 -0.081168711 33 255 88
3.540069415 -53.275847598 -0.070377623 44 255 83
3.536508348 -53.372315258 -0.063336855 55 255 78
3.534367931 -53.469049342 -0.060247261 58 255 76
3.529347451 -53.565237407 -0.049144013 69 255 72
3.528644548 -53.662241344 -0.050051422 69 255 72
3.539981094 -53.761533775 -0.084452649 29 255 89
3.546068927 -53.859836141 -0.104250621 4 255 100
3.543796889 -53.956548665 -0.100789513 7 255 99
3.536243540 -54.052250359 -0.082633961 29 255 89
3.530550282 -54.148303431 -0.069652195 44 255 83
3.531523471 -54.245632792 -0.075216351 40 255 84
3.535962284 -54.343630396 -0.090421442 22 255 92
3.538187190 -54.441205470 -0.099466084 7 255 99
3.535820729 -54.537896263 -0.095735615 15 255 96
3.533828091 -54.634658377 -0.093044077 18 255 94
3.535731004 -54.732175159 -0.101189734 7 255 99
3.538813693 -54.829923437 -0.112616805 0 254 108
3.540578935 -54.927418402 -0.120377419 0 252 117
3.540703813 -55.024595540 -0.123573089 0 252 120
3.539325303 -55.121479726 -0.122584853 0 252 117
3.535863898 -55.217955732 -0.115800294 0 253 111
3.528674342 -55.313698308 -0.098641720 11 255 97
3.528692278 -55.410853220 -0.101535447 7 255 99
3.526696944 -55.507612335 -0.098826525 11 255 97
3.527369568 -55.604897321 -0.103539673 4 255 100
3.534943917 -55.703548564 -0.127454863 0 251 123
3.540733198 -55.801852726 -0.146402466 0 248 141
3.539634471 -55.898794612 -0.146184063 0 248 141
3.531736410 -55.994383898 -0.127046106 0 251 123
3.530381211 -56.091271950 -0.126111820 0 252 120
3.523216718 -56.186999669 -0.109012509 0 254 105
3.518770275 -56.283266493 -0.099474757 7 255 99
3.515759130 -56.379818417 -0.093929477 15 255 96
3.514474353 -56.476715560 -0.093186616 18 255 94
3.514595139 -56.573895361 -0.096353611 15 255 96
3.513370882 -56.670804864 -0.095776975 15 255 96
3.509467570 -56.767173033 -0.087744763 22 255 92
3.505993643 -56.863625895 -0.080906163 33 255 88
3.504662765 -56.960511441 -0.080029510 33 255 88
3.505734122 -57.057884805 -0.085836092 25 255 91
3.510130296 -57.155936555 -0.100893139 7 255 99
3.516895428 -57.254475604 -0.122541037 0 252 117
3.522536360 -57.352790970 -0.141059873 0 249 135
3.523606252 -57.450175766 -0.146858433 0 248 141
3.520787883 -57.546764739 -0.141836444 0 249 138
3.518974773 -57.643558893 -0.139610580 0 249 135
3.519758253 -57.740886986 -0.144608976 0 248 141
3.518263614 -57.837746625 -0.143267127 0 249 138
3.512352942 -57.933693413 -0.129635841 0 251 126
3.506384395 -58.029624462 -0.115842296 0 253 111
3.506419860 -58.126796958 -0.118754838 0 253 114
3.511043423 -58.224923634 -0.134433639 0 250 129
3.515394680 -58.322997985 -0.149353755 0 248 144
3.517340507 -58.420574812 -0.157579265 0 246 153
3.515730454 -58.517410952 -0.155908667 0 247 150
3.511237341 -58.613643136 -0.146214117 0 248 141
3.504581235 -58.709419038 -0.130499277 0 251 126
3.497146104 -58.805026931 -0.112615347 0 254 108
3.491307716 -58.900965983 -0.099173574 11 255 97
3.488150752 -58.997466769 -0.093192479 18 255 94
3.489175041 -59.094849240 -0.098845925 11 255 97
3.496002535 -59.193461508 -0.120647710 0 252 117
3.505566230 -59.292659992 -0.150063047 0 248 144
3.511113243 -59.391013444 -0.168299710 0 244 165
3.509902206 -59.487933856 -0.167728654 0 245 162
3.506024806 -59.584285701 -0.159736315 0 246 156
3.502571087 -59.680725838 -0.152921882 0 247 147
3.499974000 -59.777347391 -0.148490233 0 248 144
3.496884374 -59.873862166 -0.142686759 0 249 138
3.492426044 -59.970081457 -0.133073122 0 250 129
3.486642777 -60.066013094 -0.119771074 0 253 114
3.480647844 -60.161895455 -0.105878755 0 255 102
3.475102182 -60.257870980 -0.093235535 18 255 94
3.471261958 -60.354211859 -0.085337337 25 255 91
3.470477567 -60.451212635 -0.085942383 25 255 91
3.473161440 -60.548966356 -0.096198604 15 255 96
3.477422601 -60.647065887 -0.110843483 0 254 105
3.478805725 -60.744542628 -0.117477707 0 253 114
3.475463920 -60.840990264 -0.110961153 0 254 105
3.470607342 -60.937105015 -0.100227731 7 255 99
3.467608651 -61.033623635 -0.094663784 15 255 96
3.467110399 -61.130689220 -0.096057673 15 255 96
3.468424817 -61.228153531 -0.102495357 4 255 100
3.469753058 -61.325622694 -0.108970494 0 254 105
3.467223673 -61.422243027 -0.104708299 4 255 100
3.459836441 -61.517789123 -0.086924854 25 255 91
3.455242464 -61.613948415 -0.076914250 36 255 86
3.455614049 -61.711205664 -0.080722516 33 255 88
3.457190744 -61.808731592 -0.087883790 22 255 92
3.457773044 -61.906038339 -0.092276444 18 255 94
3.457591810 -62.003176195 -0.094542978 15 255 96
3.458261604 -62.100504665 -0.099177058 11 255 97
3.459421811 -62.197944099 -0.105175042 4 255 100
3.459659873 -62.295178680 -0.108605434 0 254 105
3.458424007 -62.392083537 -0.107932437 0 255 102
3.456129960 -62.488750407 -0.104313136 4 255 100
3.454930891 -62.585662823 -0.103740368 4 255 100
3.458174164 -62.683576963 -0.115530932 0 253 111
3.465927732 -62.782513317 -0.139874136 0 249 135
3.473027114 -62.881308408 -0.162395670 0 245 159
3.473966512 -62.978713416 -0.167770948 0 245 162
3.466215504 -63.074146641 -0.148956642 0 248 144
3.454141586 -63.168591426 -0.118108797 0 253 114
3.448132681 -63.264409532 -0.104140868 4 255 100
3.451583232 -63.362382667 -0.116501204 0 253 111
3.456735007 -63.460748173 -0.133595787 0 250 129
3.460241083 -63.558741590 -0.146108770 0 248 141
3.458346068 -63.655499599 -0.143587168 0 249 138
3.451088475 -63.751024799 -0.126137967 0 252 120
3.446448730 -63.847147697 -0.115974221 0 253 111
3.445806508 -63.944189389 -0.116936327 0 253 111
3.446291654 -64.041491714 -0.121035388 0 252 117
3.446153898 -64.138651123 -0.123399556 0 252 120
3.445252301 -64.235634240 -0.123636503 0 252 120
3.443067952 -64.332319753 -0.120301786 0 252 117
3.430455505 -64.426580195 -0.087938861 22 255 92
3.381080291 -64.512271434 0.046756837 189 255 19
3.284724463 -64.684101517 0.309489739 255 139 0
3.253025251 -64.773818163 0.394989561 255 71 36
3.241852712 -64.868322460 0.423352940 255 51 73
3.245215346 -64.966231479 0.411257166 255 59 58
3.247988581 -65.064005277 0.400803030 255 67 44
3.248787337 -65.161316917 0.395846137 255 69 40
3.242179848 -65.256882565 0.411506793 255 59 58
3.228652008 -65.350808477 0.446432710 255 35 102
3.217137529 -65.445201322 0.475755457 255 18 135
3.216352903 -65.542130048 0.475210803 255 18 135
3.222084714 -65.640606474 0.456527291 255 29 113
3.226057649 -65.738669740 0.442740916 255 39 95
3.225275997 -65.835604078 0.442191050 255 39 95
3.223697461 -65.932348438 0.443860588 255 37 98
3.228562318 -66.030632483 0.427594282 255 49 76
3.237329350 -66.129855283 0.400466082 255 67 44
3.241919323 -66.228084006 0.384966794 255 76 25
3.242224290 -66.325287890 0.381397080 255 78 22
3.237117686 -66.421190962 0.392893270 255 71 36
3.228487703 -66.516241923 0.414199159 255 57 62
3.228043110 -66.613262450 0.412719422 255 59 58
3.229114085 -66.710649771 0.407021613 255 63 51
3.225085731 -66.806804117 0.415520729 255 57 62
3.218488378 -66.902333177 0.431172810 255 47 80
3.211600354 -66.997787337 0.447635316 255 35 102
3.210584834 -67.094665550 0.447750492 255 35 102
3.212434899 -67.192241973 0.439889159 255 41 91
3.219431502 -67.291076561 0.417701158 255 55 66
3.229530300 -67.390675586 0.386877653 255 75 29
3.231523521 -67.488298873 0.378620601 255 80 18
3.225130723 -67.583868275 0.393711073 255 71 36
3.219851940 -67.679707114 0.405701347 255 63 51
3.221138970 -67.777157639 0.399413533 255 67 44
3.226211417 -67.875542493 0.382588054 255 78 22
3.230990540 -67.973859676 0.366580114 255 88 3
3.230428829 -68.070861485 0.365442230 255 90 0
3.223970576 -68.166404192 0.380721740 255 80 18
3.218401388 -68.262163100 0.393527248 255 71 36
3.201989475 -68.355226445 0.436521036 255 43 87
3.209159658 -68.454142019 0.413861391 255 57 62
3.206632186 -68.550648678 0.418201973 255 55 66
3.197138784 -68.645416596 0.441937698 255 39 95
3.196633478 -68.742423428 0.440650609 255 39 95
3.198325144 -68.839980365 0.433247873 255 45 84
3.199504356 -68.937410974 0.427272899 255 49 76
3.196990620 -69.033916413 0.431580769 255 45 84
3.192264356 -69.129864538 0.442049855 255 39 95
3.190461448 -69.226545770 0.444380888 255 37 98
3.192080564 -69.324089229 0.437185355 255 43 87
3.193299542 -69.421533679 0.431104902 255 47 80
3.192522627 -69.518475069 0.430582519 255 47 80
3.192136565 -69.615515648 0.428972965 255 47 80
3.191000081 -69.712366345 0.429453847 255 47 80
3.186931778 -69.808472062 0.438098824 255 41 91
3.183541455 -69.904747940 0.444857254 255 37 98
3.183163275 -70.001789609 0.443230080 255 39 95
3.185856195 -70.099615602 0.433053028 255 45 84
3.186503953 -70.196921688 0.428571368 255 47 80
3.186549626 -70.294074924 0.425767155 255 49 76
3.188756760 -70.391783150 0.416945693 255 55 66
3.192897897 -70.489990462 0.402740228 255 65 47
3.196769192 -70.588132364 0.389287047 255 75 29
3.199046234 -70.685867449 0.380273849 255 80 18
3.201137427 -70.783557141 0.371779120 255 84 11
3.202461300 -70.881051020 0.365421927 255 90 0
3.198794854 -70.977255699 0.372960994 255 84 11
3.192306180 -71.072727127 0.388359569 255 75 29
3.184613785 -71.167881995 0.407111079 255 63 51
3.176929494 -71.263033815 0.425841269 255 49 76
3.172528319 -71.359034905 0.435430890 255 43 87
3.177052587 -71.457359636 0.420168718 255 53 69
3.179410671 -71.555123231 0.410939252 255 59 58
3.170611003 -71.649972749 0.432779896 255 45 84
3.160071872 -71.744360884 0.459465432 255 27 117
3.156692784 -71.840618856 0.466214723 255 24 124
3.158287176 -71.938180848 0.459116133 255 27 117
3.161865912 -72.036266634 0.446492970 255 35 102
3.165427842 -72.134351540 0.433917555 255 45 84
3.164703709 -72.231309658 0.433278110 255 45 84
3.159665727 -72.327128685 0.444652179 255 37 98
3.160647844 -72.424536873 0.439263629 255 41 91
3.168504571 -72.523767537 0.414732709 255 57 62
3.175159581 -72.622686277 0.393549002 255 71 36
3.178925497 -72.720843449 0.380411359 255 80 18
3.183168336 -72.819131189 0.365946580 255 88 3
3.189690075 -72.918030138 0.345136671 255 107 0
3.181325452 -73.012963093 0.365781926 255 90 0
3.161553998 -73.104842526 0.418193382 255 55 66
3.141677903 -73.196679477 0.470897796 255 20 131
3.129202486 -73.290484999 0.502994697 255 0 168
3.128741905 -73.387505882 0.501634424 255 0 168
3.137053159 -73.486884521 0.475847561 255 18 135
3.145876215 -73.586408097 0.448636260 255 35 102
3.146751505 -73.683797258 0.443558771 255 37 98
3.139422571 -73.778973578 0.461329597 255 25 120
3.129639506 -73.873481709 0.485936003 255 10 150
3.130637176 -73.970901079 0.480521008 255 14 142
3.150304336 -74.073382466 0.423115108 255 51 73
3.168441854 -74.175464616 0.369969595 255 86 7
