ply
format ascii 1.0
comment coordinate_system ground
comment units millimeter
element vertex 1801
property double x
property double y
property double z
property uchar red
property uchar green
property uchar blue
comment color_mapping zg_high_contrast_from_zg
comment color_zg_range_mm -0.065801885 20.050975409
end_header
6.078413858 139.664550425 0.637081418 0 233 231
6.070313843 139.563322157 0.654845953 0 234 228
6.079577106 139.471974111 0.624975423 0 233 231
6.090630746 139.381635930 0.590192465 0 233 231
6.087943863 139.283484563 0.593106059 0 233 231
6.087809681 139.186783398 0.589016289 0 233 231
6.093139838 139.093181077 0.569934691 0 233 231
6.101238411 139.001143278 0.543257337 0 233 234
6.105050970 138.906670815 0.528338635 0 233 234
6.096186828 138.805018679 0.548199956 0 233 234
6.083617813 138.701276614 0.578226673 0 233 231
6.070433928 138.597195679 0.609941079 0 233 231
6.058701397 138.493943899 0.637674058 0 233 231
6.055105255 138.395293906 0.643083280 0 234 228
6.058874889 138.300801738 0.628282448 0 233 231
6.064060894 138.207104619 0.609595074 0 233 231
6.066333513 138.111761329 0.598901229 0 233 231
6.065037188 138.014406029 0.597999911 0 233 231
6.062884040 137.916568861 0.599449625 0 233 231
6.059348569 137.817955291 0.604692384 0 233 231
6.049774140 137.715950078 0.626505921 0 233 231
6.041537442 137.614702594 0.644649222 0 234 228
6.031375151 137.512379958 0.668076792 0 234 228
6.032386521 137.416330709 0.660843787 0 234 228
6.038777120 137.323294765 0.638849655 0 233 231
6.044342478 137.229791112 0.619119657 0 233 231
6.060564313 137.142246921 0.570146626 0 233 231
6.056537015 137.043364138 0.576739301 0 233 231
6.042061612 136.938643806 0.612003611 0 233 231
6.021053227 136.830284550 0.665196625 0 234 228
6.008870573 136.726866818 0.694170865 0 234 228
6.009284444 136.630484069 0.688577402 0 234 228
6.011904120 136.535329906 0.676930458 0 234 228
6.010821080 136.438110427 0.675444777 0 234 228
6.006675590 136.339186240 0.682363545 0 234 228
6.000132311 136.238930556 0.695862944 0 234 228
5.995225446 136.139588831 0.704871648 0 234 228
5.998386767 136.044732435 0.691737890 0 234 228
6.010602674 135.954899884 0.653753902 0 234 228
6.027777720 135.867808771 0.602158960 0 233 231
6.037075328 135.776336559 0.572182823 0 233 231
6.035573024 135.678872962 0.571846889 0 233 231
6.030065224 135.579192059 0.582504320 0 233 231
6.028646991 135.481777345 0.581937802 0 233 231
6.032701361 135.387388911 0.566351099 0 233 231
6.031272918 135.289967230 0.565812501 0 233 231
6.023598316 135.189096996 0.582417599 0 233 231
6.016212401 135.088391131 0.598230722 0 233 231
6.011367766 134.989091427 0.607069070 0 233 231
6.004801286 134.888845864 0.620633691 0 233 231
5.994341823 134.786460818 0.644884066 0 234 228
5.981761383 134.682915792 0.674956705 0 234 228
5.975058654 134.582611757 0.688896558 0 234 228
5.976947966 134.487033701 0.679252596 0 234 228
5.979806355 134.391985702 0.666948456 0 234 228
5.983364783 134.297319020 0.652722562 0 234 228
5.990405995 134.204558937 0.628936342 0 233 231
5.998899664 134.112588838 0.601162749 0 233 231
6.003851008 134.018671683 0.583112380 0 233 231
6.002770510 133.921449024 0.581619308 0 233 231
5.995850979 133.821033123 0.596154752 0 233 231
5.984342209 133.718113609 0.623288426 0 233 231
5.972959083 133.615270677 0.650077813 0 234 228
5.964914592 133.514257744 0.667702749 0 234 228
5.954253467 133.411823070 0.692511239 0 234 228
5.942874603 133.309004542 0.719290646 0 234 228
5.949152679 133.215810602 0.697598086 0 234 228
5.951885951 133.120681922 0.685636592 0 234 228
5.967499808 133.032556086 0.638313998 0 233 231
5.980192197 132.942829930 0.599010950 0 233 231
5.989015642 132.850992157 0.570328779 0 233 231
5.991216788 132.755552742 0.559826703 0 233 234
5.983553234 132.654760556 0.576406874 0 233 231
5.972205055 132.551976362 0.603103276 0 233 231
5.965880839 132.451921135 0.616007269 0 233 231
5.962473390 132.353448679 0.620903670 0 233 231
5.954643239 132.252585965 0.637942768 0 233 231
5.948503957 132.152642365 0.650339937 0 234 228
5.947119412 132.055270835 0.649683000 0 234 228
5.936154810 131.952728855 0.675328998 0 234 228
5.928223002 131.851830234 0.692648694 0 234 228
5.919862729 131.750705951 0.711145222 0 234 228
5.918250478 131.653221873 0.711114299 0 234 228
5.921955834 131.558600469 0.696482870 0 234 228
5.926550239 131.464453766 0.679410141 0 234 228
5.933696349 131.371674414 0.655330803 0 234 228
5.941339464 131.279155927 0.629886423 0 233 231
5.939086615 131.181319502 0.631613963 0 233 231
5.947396518 131.089149473 0.604338122 0 233 231
5.951512683 130.994724734 0.588577215 0 233 231
5.953160868 130.898974347 0.579592839 0 233 231
5.935875880 130.793088517 0.622597037 0 233 231
5.923308593 130.689738265 0.652647716 0 234 228
5.923228141 130.593070659 0.648410657 0 234 228
5.932097694 130.501182581 0.619596960 0 233 231
5.945614633 130.411767515 0.578021040 0 233 231
5.971653572 130.329020042 0.502058687 0 233 234
5.996086512 130.245396278 0.430505338 0 232 237
6.015906823 130.159296765 0.371617475 0 232 240
6.040130358 130.075525018 0.300637086 0 231 243
6.066752049 129.993009692 0.223070056 0 231 246
6.090557315 129.908976785 0.153236099 0 230 249
6.100738944 129.817690099 0.120813429 0 230 249
6.098902421 129.720017082 0.121394049 0 230 249
6.093753276 129.620588017 0.131071852 0 230 249
6.092093166 129.523011121 0.131168274 0 230 249
6.092659731 129.426613953 0.125149779 0 230 249
6.088079069 129.327491821 0.133266936 0 230 249
6.080738907 129.226913197 0.148962752 0 230 249
6.076645113 129.128054904 0.155743371 0 230 249
6.077531806 129.031828987 0.148846017 0 230 249
6.080743366 128.936828498 0.135563644 0 230 249
6.082153555 128.840875028 0.127228400 0 230 249
6.079969507 128.743025908 0.128764411 0 230 249
6.075618145 128.644036547 0.136252978 0 230 249
6.072185669 128.545533268 0.141218071 0 230 249
6.070423526 128.447910141 0.141595752 0 230 249
6.068066986 128.349975345 0.143606065 0 230 249
6.064981079 128.251658688 0.147619763 0 230 249
6.064008929 128.154452682 0.145827995 0 230 249
6.063591125 128.057537358 0.142513700 0 230 249
6.069039128 127.963694819 0.123088141 0 230 249
6.065956647 127.865381487 0.127092741 0 230 249
6.065174084 127.768273008 0.124780332 0 230 249
6.068570385 127.673349056 0.110989785 0 230 249
6.073828402 127.579394418 0.092085411 0 230 249
6.067758060 127.479521436 0.104297213 0 230 249
6.070718077 127.384363015 0.091704749 0 230 249
6.070984843 127.287797759 0.086510038 0 230 252
6.069344149 127.190238029 0.086554833 0 230 252
6.068372086 127.093026882 0.084763078 0 230 252
6.068226024 126.996245417 0.080702438 0 230 252
6.070080482 126.900503171 0.071146534 0 230 252
6.066860417 126.802123202 0.075530039 0 230 252
6.060402507 126.702064502 0.088808039 0 230 252
6.052115669 126.601061440 0.107110495 0 230 249
6.045866889 126.501120175 0.119814786 0 230 249
6.045093920 126.404018741 0.117477003 0 230 249
6.045151847 126.307347193 0.112856728 0 230 249
6.043704976 126.209896747 0.112370330 0 230 249
6.042133700 126.112382420 0.112225783 0 230 249
6.041580796 126.015394448 0.109283697 0 230 249
6.037293215 125.916479138 0.116601559 0 230 249
6.028282386 125.815130989 0.136895511 0 230 249
6.017407315 125.712828416 0.162311527 0 230 249
6.011274676 125.612975058 0.174699349 0 231 246
6.016630603 125.519036349 0.155524851 0 230 249
6.024511650 125.426391098 0.129412764 0 230 249
6.027960625 125.331462319 0.115476805 0 230 249
6.025886521 125.233694961 0.116714706 0 230 249
6.023964612 125.136006553 0.117534602 0 230 249
6.023775142 125.039206958 0.113594860 0 230 249
6.023152681 124.942185032 0.110844784 0 230 249
6.019715604 124.843722244 0.115827890 0 230 249
6.013460561 124.743820063 0.128553611 0 230 249
6.008760813 124.644716814 0.137006454 0 230 249
6.007066945 124.547151569 0.137200715 0 230 249
6.006688879 124.450258420 0.133779804 0 230 249
6.003738168 124.352052927 0.137427598 0 230 249
5.997057157 124.251948080 0.151325134 0 230 249
5.989675343 124.151490735 0.167148641 0 230 249
5.984249884 124.052033723 0.177597092 0 231 246
5.983911271 123.955166534 0.174068578 0 231 246
5.985440065 123.859247699 0.165408940 0 230 249
5.985205451 123.762431749 0.161594724 0 230 249
5.985213418 123.665738359 0.157113987 0 230 249
5.987986313 123.570445938 0.145035736 0 230 249
5.993372430 123.476474504 0.125776631 0 230 249
5.998162164 123.382196440 0.108156092 0 230 249
5.999155264 123.285993703 0.100968140 0 230 249
5.995674149 123.187528123 0.106075001 0 230 249
5.988620798 123.087260312 0.120998436 0 230 249
5.979372531 122.985889412 0.141953893 0 230 249
5.969450222 122.884184885 0.164762168 0 230 249
5.970104715 122.787817065 0.158505527 0 230 249
5.964278373 122.688184666 0.170058665 0 231 246
5.959805794 122.589237153 0.177891888 0 231 246
5.957520583 122.491392123 0.179714241 0 231 246
5.959889835 122.395886608 0.168745614 0 230 249
5.964571050 122.301539312 0.151423251 0 230 249
5.965694658 122.205403093 0.143877699 0 230 249
5.962313052 122.107006960 0.148713459 0 230 249
5.957429451 122.007860340 0.157677295 0 230 249
5.956139803 121.910515597 0.156764275 0 230 249
5.962010272 121.816752277 0.136173244 0 230 249
5.971280342 121.724682867 0.106238797 0 230 249
5.963598000 121.624139835 0.122895002 0 230 249
5.961249157 121.526263427 0.124893225 0 230 249
5.951065204 121.424481211 0.148425633 0 230 249
5.948369682 121.326437206 0.151377235 0 230 249
5.950580312 121.230837256 0.140844713 0 230 249
5.953167896 121.135422492 0.129276088 0 230 249
5.953667409 121.038967051 0.123446457 0 230 249
5.953432132 120.942145542 0.119636449 0 230 249
5.953293306 120.845371406 0.115561411 0 230 249
5.952364253 120.748204743 0.113658441 0 230 249
5.950727268 120.650687235 0.113701400 0 230 249
5.949632467 120.553438795 0.112254244 0 230 249
5.948846335 120.456343250 0.109958784 0 230 249
5.946417917 120.358435528 0.112177537 0 230 249
5.942166647 120.259628270 0.119406963 0 230 249
5.937149904 120.160445601 0.128740749 0 230 249
5.931674831 120.061039920 0.139334700 0 230 249
5.926178036 119.961626984 0.149988710 0 230 249
5.922309483 119.863019590 0.156167342 0 230 249
5.921453294 119.765897192 0.154065745 0 230 249
5.923312373 119.670110253 0.144500363 0 230 249
5.925504371 119.574484848 0.134019806 0 230 249
5.926563175 119.478300607 0.126654258 0 230 249
5.927838776 119.382221272 0.118692768 0 230 249
5.931661877 119.287389419 0.103728318 0 230 249
5.936393847 119.192999305 0.086265294 0 230 252
5.934184624 119.095206675 0.087883484 0 230 252
5.925438694 118.994217268 0.107471483 0 230 249
5.916072555 118.892930610 0.128765012 0 230 249
5.909987563 118.793253011 0.141038943 0 230 249
5.907163220 118.695170749 0.144349368 0 230 249
5.906085918 118.597941959 0.142857153 0 230 249
5.904910754 118.500665614 0.141634107 0 230 249
5.902769563 118.402919083 0.143066988 0 230 249
5.900540146 118.305130564 0.144742612 0 230 249
5.898402097 118.207387470 0.146167233 0 230 249
5.896233415 118.109630431 0.147676261 0 230 249
5.895504437 118.012573221 0.145227311 0 230 249
5.899684143 117.917896830 0.129282957 0 230 249
5.909781392 117.826084655 0.097069164 0 230 249
5.916322109 117.732541769 0.074633176 0 230 252
5.913059005 117.634249058 0.079151416 0 230 252
5.904317162 117.533308963 0.098733215 0 230 249
5.896646504 117.432892344 0.115370396 0 230 249
5.894754137 117.335270491 0.116120852 0 230 249
5.894133057 117.238262662 0.113376100 0 230 249
5.892549031 117.140790460 0.113279098 0 230 249
5.891413863 117.043534967 0.111948113 0 230 249
5.889632366 116.945968594 0.112394398 0 230 249
5.884479041 116.846781402 0.122112008 0 230 249
5.873755160 116.744920687 0.147146875 0 230 249
5.868388302 116.645639502 0.157452480 0 230 249
5.873435678 116.551358026 0.139122739 0 230 249
5.874885538 116.455347473 0.130684912 0 230 249
5.871444669 116.356992468 0.135695235 0 230 249
5.873048448 116.261053885 0.126834335 0 230 249
5.865909351 116.160932145 0.142014336 0 230 249
5.861493896 116.062116671 0.149705338 0 230 249
5.859435195 115.964429188 0.150916011 0 230 249
5.859242256 115.867632767 0.146996325 0 230 249
5.860279401 115.771422240 0.139694179 0 230 249
5.862456390 115.675753227 0.129257630 0 230 249
5.866716316 115.581073330 0.113093176 0 230 249
5.870571072 115.486196833 0.098042816 0 230 249
5.870223782 115.389319828 0.094547841 0 230 249
5.867725373 115.291420954 0.096968540 0 230 249
5.865021288 115.193425704 0.099955074 0 230 249
5.862276010 115.095412291 0.103055130 0 230 249
5.859611507 114.997438538 0.105933292 0 230 249
5.856494914 114.899252133 0.110054977 0 230 249
5.850799441 114.799847702 0.121269144 0 230 249
5.842802239 114.699359146 0.138813785 0 230 249
5.834927823 114.598933935 0.156021264 0 230 249
5.827852033 114.498890809 0.171032875 0 231 246
5.823263270 114.400024855 0.179205077 0 231 246
5.824653663 114.303978291 0.170933462 0 231 246
5.830608837 114.210078601 0.150107510 0 230 249
5.809755312 113.039844936 0.154102181 0 230 249
5.829966442 112.565691936 0.076280239 0 230 252
5.776373460 108.382242934 0.032712614 0 230 252
5.734581776 107.299673595 0.098909830 0 230 249
5.731878095 105.170557185 0.008808253 0 229 255
5.614313839 100.961214684 0.142130475 0 230 249
5.605720470 98.733049767 0.064178130 0 230 252
5.578317660 95.819968187 0.007307326 0 229 255
5.536572248 94.255664194 0.051828577 0 230 252
5.545715796 94.162521416 0.022234751 0 230 252
5.550875318 94.067808017 0.003617244 0 229 255
5.550245738 93.970821058 0.000949515 0 229 255
5.550174214 93.874052403 -0.003255451 0 229 255
5.548756391 93.776756476 -0.003750862 0 229 255
5.542420000 93.677538769 0.009305683 0 229 255
5.533057202 93.577143613 0.030701207 0 230 252
5.523506113 93.476681430 0.052616222 0 230 252
5.517466344 93.377594034 0.064857307 0 230 252
5.515779155 93.280204920 0.065106290 0 230 252
5.515543941 93.183381078 0.061354969 0 230 252
5.516333589 93.086954914 0.054780084 0 230 252
5.519627290 92.991499401 0.041305876 0 230 252
5.525724373 92.897127758 0.020107427 0 230 252
5.530439505 92.802215453 0.002716827 0 229 255
5.533122708 92.706512517 -0.009074887 0 229 255
5.533552068 92.609935463 -0.014656114 0 229 255
5.530468856 92.512000677 -0.010558334 0 229 255
5.524194787 92.412836295 0.002332215 0 229 255
5.516744308 92.313222493 0.018464927 0 230 252
5.509732765 92.213782695 0.033388753 0 230 252
5.505007085 92.115226972 0.042014351 0 230 252
5.504583748 92.018327759 0.038784996 0 230 252
5.507654161 91.922769684 0.025928570 0 230 252
5.510784764 91.827231680 0.012906434 0 230 252
5.511098501 91.730611156 0.007646710 0 229 255
5.510154115 91.633508055 0.005854215 0 229 255
5.509366355 91.536464887 0.003630432 0 229 255
5.507798454 91.439123558 0.003556803 0 229 255
5.504181079 91.341000458 0.009131313 0 229 255
5.498286851 91.242011215 0.020980701 0 230 252
5.492080832 91.142906985 0.033689863 0 230 252
5.489325394 91.045119921 0.036890488 0 230 252
5.489982485 90.948631630 0.030687217 0 230 252
5.490362962 90.852037095 0.025246507 0 230 252
5.487422027 90.754181378 0.028959412 0 230 252
5.479743348 90.654531411 0.045729400 0 230 252
5.478394994 90.557283627 0.045054241 0 230 252
5.471496726 90.457936751 0.059674592 0 230 252
5.470272004 90.360738466 0.058659525 0 230 252
5.473039335 90.265047511 0.046642816 0 230 252
5.479003939 90.170559596 0.025814631 0 230 252
5.480517255 90.074389384 0.017254293 0 230 252
5.488785039 89.980759603 -0.009921333 0 229 255
5.490024711 89.884480262 -0.017727172 0 229 255
5.485666710 89.786096672 -0.010105185 0 229 255
5.478828142 89.686784881 0.004353966 0 229 255
5.479284638 89.590212258 -0.001292334 0 229 255
5.475516290 89.492056456 0.004705895 0 229 255
5.474324089 89.394866578 0.003604310 0 229 255
5.474485301 89.298182723 -0.001227175 0 229 255
5.475673378 89.201881433 -0.008888617 0 229 255
5.477955244 89.105986501 -0.019564533 0 229 255
5.476608664 89.008737232 -0.020239364 0 229 255
5.471088744 88.909934943 -0.009411003 0 229 255
5.467453345 88.811836874 -0.003776383 0 229 255
5.467732374 88.715194887 -0.008930679 0 229 255
5.469401327 88.619067758 -0.017915772 0 229 255
5.471017294 88.522919031 -0.026754585 0 229 255
5.472011792 88.426538250 -0.033880155 0 229 255
5.467135936 88.327984398 -0.024824462 0 229 255
5.460080859 88.228628222 -0.009761407 0 229 255
5.458528648 88.131308215 -0.009866045 0 229 255
5.458413698 88.034518748 -0.013932058 0 229 255
5.457335755 87.937373897 -0.015343281 0 229 255
5.456658765 87.840376737 -0.017859368 0 229 255
5.457133842 87.743802962 -0.023550807 0 229 255
5.453882876 87.645859654 -0.018970947 0 229 255
5.443873045 87.545438331 0.004240641 0 229 255
5.438150991 87.446595449 0.015633353 0 230 252
5.438594560 87.350013674 0.010030399 0 229 255
5.441610525 87.254371738 -0.002663397 0 229 255
5.443208723 87.158208800 -0.011448695 0 229 255
5.440895609 87.060616339 -0.009451520 0 229 255
5.436249205 86.962174184 -0.001021743 0 229 255
5.430191598 86.863220850 0.011298856 0 229 255
5.423277739 86.763959866 0.025980522 0 230 252
5.417064048 86.664957932 0.038732630 0 230 252
5.413350453 86.566867803 0.044593115 0 230 252
5.413256095 86.470092567 0.040476556 0 230 252
5.416312090 86.374458206 0.027675360 0 230 252
5.419334880 86.278808809 0.014965928 0 230 252
5.419358041 86.182071814 0.010526301 0 229 255
5.416488650 86.084289316 0.014061465 0 230 252
5.413463775 85.986452198 0.018025756 0 230 252
5.413624175 85.889764784 0.013208940 0 230 252
5.417034672 85.794246786 -0.000567891 0 229 255
5.419634493 85.698433915 -0.012109491 0 229 255
5.417921123 85.601068637 -0.011759413 0 229 255
5.414419037 85.503061952 -0.006477385 0 229 255
5.412542566 85.405640081 -0.005676729 0 229 255
5.412154319 85.308751964 -0.008978748 0 229 255
5.411419798 85.211739552 -0.011325681 0 229 255
5.409517621 85.114309676 -0.010452879 0 229 255
5.407556485 85.016859495 -0.009417070 0 229 255
5.405734456 84.919459717 -0.008764347 0 229 255
5.402938024 84.821713480 -0.005424589 0 229 255
5.399835719 84.723859811 -0.001240995 0 229 255
5.398873455 84.626768593 -0.002957426 0 229 255
5.400689719 84.530664129 -0.012334463 0 229 255
5.401417824 84.434171567 -0.018710876 0 229 255
5.398013401 84.336213328 -0.013692462 0 229 255
5.391771518 84.237252555 -0.000849830 0 229 255
5.386619824 84.138681319 0.008987466 0 229 255
5.385079081 84.041388776 0.008868773 0 229 255
5.386334290 83.945083242 0.001041114 0 229 255
5.386363835 83.848344048 -0.003406600 0 229 255
5.382389368 83.750194372 0.003186711 0 229 255
5.377190884 83.651616517 0.013155707 0 230 252
5.382420285 83.556705504 -0.005628906 0 229 255
5.377966647 83.458391584 0.002287213 0 229 255
5.374314205 83.360361216 0.007994637 0 229 255
5.375207076 83.263924631 0.001168920 0 229 255
5.377474624 83.167967536 -0.009447124 0 229 255
5.376426588 83.070849458 -0.010920010 0 229 255
5.374469125 82.973414040 -0.009884648 0 229 255
5.375622359 82.877064004 -0.017426793 0 229 255
5.376511506 82.780620409 -0.024240326 0 229 255
5.372820163 82.682581845 -0.018422238 0 229 255
5.364068524 82.582786785 0.001350903 0 229 255
5.354429575 82.482689638 0.023571748 0 230 252
5.350730933 82.384659022 0.029411907 0 230 252
5.355151227 82.289442819 0.012862981 0 230 252
5.363772128 82.195675998 -0.015269819 0 229 255
5.371507206 82.101595752 -0.040959645 0 229 255
5.374111417 82.005737496 -0.052499638 0 229 255
5.370103923 81.907596386 -0.045805673 0 229 255
5.360370643 81.807485145 -0.023320510 0 229 255
5.349597289 81.707022691 0.002033854 0 229 255
5.342776838 81.607926442 0.016487597 0 230 252
5.341906779 81.510877733 0.014531630 0 230 252
5.344769929 81.415109354 0.002280344 0 229 255
5.346144077 81.318827975 -0.005864083 0 229 255
5.343574577 81.221195289 -0.003131812 0 229 255
5.339223909 81.122954991 0.004513381 0 229 255
5.337298898 81.025545530 0.005469296 0 229 255
5.339342440 80.929490376 -0.004519517 0 229 255
5.344558064 80.834513656 -0.023256607 0 229 255
5.350742917 80.739862098 -0.044666612 0 229 255
5.352476322 80.643691952 -0.053799093 0 229 255
5.346511589 80.544905880 -0.041699185 0 229 255
5.338664642 80.445485240 -0.024407253 0 229 255
5.334186641 80.347211217 -0.016406475 0 229 255
5.332582905 80.249912565 -0.016332669 0 229 255
5.330906736 80.152589937 -0.016058564 0 229 255
5.326161168 80.054231488 -0.007317981 0 229 255
5.320493272 79.955564862 0.003967226 0 229 255
5.317544006 79.857817710 0.007754550 0 229 255
5.316932142 79.760858647 0.005095337 0 229 255
5.316827690 79.664069894 0.001037040 0 229 255
5.316819870 79.567312952 -0.003287322 0 229 255
5.318643629 79.471169559 -0.012663259 0 229 255
5.321506818 79.375372266 -0.024905877 0 229 255
5.322719051 79.279019657 -0.032594235 0 229 255
5.322203116 79.182087808 -0.035515259 0 229 255
5.322055841 79.085278715 -0.039452687 0 229 255
5.322230574 78.988576400 -0.044277859 0 229 255
5.321457544 78.891557547 -0.046488228 0 229 255
5.320173545 78.794368565 -0.047288609 0 229 255
5.318515778 78.697055629 -0.047057428 0 229 255
5.315371566 78.599249815 -0.042725365 0 229 255
5.311165280 78.501093524 -0.035462956 0 229 255
5.307800481 78.403218407 -0.030521145 0 229 255
5.306268610 78.305951481 -0.030634915 0 229 255
5.306148854 78.209151608 -0.034643537 0 229 255
5.304680217 78.111905913 -0.034930660 0 229 255
5.301746389 78.014177591 -0.031175349 0 229 255
5.300858644 77.917124534 -0.033063792 0 229 255
5.302336079 77.820849363 -0.041476384 0 229 255
5.302078606 77.724002386 -0.045102509 0 229 255
5.295469571 77.625070633 -0.031206173 0 229 255
5.283958440 77.524536434 -0.003785611 0 229 255
5.286140347 77.428493209 -0.014139423 0 229 255
5.286627817 77.331893512 -0.019818285 0 229 255
5.278647507 77.232526912 -0.002136029 0 229 255
5.278387417 77.135684367 -0.005751382 0 229 255
5.285865624 77.041362962 -0.030714674 0 229 255
5.282708339 76.943573432 -0.026336273 0 229 255
5.277119169 76.844994960 -0.015248030 0 229 255
5.272706823 76.746802165 -0.007405738 0 229 255
5.272119640 76.649852686 -0.010115946 0 229 255
5.270891940 76.552695427 -0.011058478 0 229 255
5.265752706 76.454272661 -0.001208795 0 229 255
5.259696260 76.355556633 0.011172170 0 229 255
5.258209907 76.258319837 0.010945156 0 229 255
5.263531853 76.163278763 -0.008065295 0 229 255
5.272166633 76.069299869 -0.036215537 0 229 255
5.279488738 75.974891418 -0.060743855 0 229 255
5.279427194 75.878104272 -0.064900122 0 229 255
5.272654645 75.779162722 -0.050539769 0 229 255
5.268592413 75.681094379 -0.043656591 0 229 255
5.268160878 75.584190823 -0.046790177 0 229 255
5.270805720 75.488270650 -0.058411305 0 229 255
5.271917440 75.391858057 -0.065801885 0 229 255
5.267301066 75.293616498 -0.057387231 0 229 255
5.261841504 75.195109050 -0.046645331 0 229 255
5.258073954 75.097143535 -0.040571262 0 229 255
5.254745350 74.999319696 -0.035707644 0 229 255
5.248972055 74.900721468 -0.024097834 0 229 255
5.242124032 74.801786084 -0.009521774 0 229 255
5.237848822 74.703670105 -0.002044007 0 229 255
5.235991472 74.606321572 -0.001237129 0 229 255
5.235565919 74.509426151 -0.004380418 0 229 255
5.238463929 74.413579252 -0.016693988 0 229 255
5.245527969 74.319042646 -0.040502690 0 229 255
5.246936005 74.222719198 -0.048704015 0 229 255
5.164197544 71.584527528 0.063334572 0 230 252
4.926090721 54.293824556 -0.032350239 0 229 255
4.923243708 54.196352644 -0.028638649 0 229 255
4.903326736 54.094853123 0.022242663 0 230 252
4.886752259 53.994155668 0.063889472 0 230 252
4.884598884 53.896862902 0.065688001 0 230 252
4.883184426 53.799744574 0.065445680 0 230 252
4.881759299 53.702624058 0.065233835 0 230 252
4.882000248 53.605893932 0.060419028 0 230 252
4.882788892 53.509290877 0.054091676 0 230 252
4.882193485 53.412363471 0.051589911 0 230 252
4.879032324 53.314837982 0.056179336 0 230 252
4.882426195 53.218838833 0.042655503 0 230 252
4.877877302 53.120991878 0.051081850 0 230 252
4.875800757 53.023720806 0.052677083 0 230 252
4.874069885 52.926530559 0.053318087 0 230 252
4.869830575 52.828761229 0.060892162 0 230 252
4.864739447 52.730797856 0.070821356 0 230 252
4.861910890 52.633358696 0.074499010 0 230 252
4.862117225 52.536618742 0.069790658 0 230 252
4.865702972 52.440653607 0.055744045 0 230 252
4.870917358 52.345058203 0.037197413 0 230 252
4.867424426 52.247465933 0.042715079 0 230 252
4.860582004 52.149110516 0.057490541 0 230 252
4.854276863 52.050882061 0.070782376 0 230 252
4.850217102 51.953168792 0.077869958 0 230 252
4.848436371 51.855975790 0.078660173 0 230 252
4.849006896 51.759316833 0.072953291 0 230 252
4.852227482 51.663256912 0.059923386 0 230 252
4.856117523 51.567345143 0.045044174 0 230 252
4.859592766 51.471336004 0.031312212 0 230 252
4.863237229 51.375361580 0.017113440 0 230 252
4.865215089 51.279008665 0.007521634 0 229 255
4.860537230 51.181158645 0.016325719 0 230 252
4.853603824 51.082805701 0.031364847 0 230 252
4.848151645 50.984788820 0.042311371 0 230 252
4.844810999 50.887247148 0.047423139 0 230 252
4.841809474 50.789782902 0.051598741 0 230 252
4.838094157 50.692161223 0.057748276 0 230 252
4.833343487 50.594311443 0.066760543 0 230 252
4.828397134 50.496421089 0.076314834 0 230 252
4.825413140 50.398968485 0.080446477 0 230 252
4.826477730 50.302412780 0.073389150 0 230 252
4.831867888 50.206810494 0.054377090 0 230 252
4.838390839 50.111452994 0.032234850 0 230 252
4.841330931 50.015301455 0.019996412 0 230 252
4.838082139 49.917787599 0.024865023 0 230 252
4.830743098 49.819378643 0.041040323 0 230 252
4.821720262 49.720605973 0.061870996 0 230 252
4.811615952 49.621603119 0.085692283 0 230 252
4.801623501 49.522631596 0.109205776 0 230 249
4.795403432 49.424488285 0.122293379 0 230 249
4.796929309 49.328032521 0.113971460 0 230 249
4.804037679 49.232786041 0.090219723 0 230 252
4.812583844 49.137844774 0.062494512 0 230 252
4.816877969 49.041976905 0.046523414 0 230 252
4.814746351 48.944718165 0.048315145 0 230 252
4.807930856 48.846451176 0.063055168 0 230 252
4.798387232 48.747601900 0.085337622 0 230 252
4.789879359 48.648981484 0.104758393 0 230 249
4.786661573 48.551500441 0.109557323 0 230 249
4.788683716 48.455141989 0.099872782 0 230 249
4.791692187 48.358991837 0.087462719 0 230 252
4.792084353 48.262280943 0.082285874 0 230 252
4.791416961 48.165343532 0.080039024 0 230 252
4.791562823 48.068578586 0.075545130 0 230 252
4.793277195 47.972145294 0.066716353 0 230 252
4.795733404 47.875866915 0.055837858 0 230 252
4.795952155 47.779113235 0.051145541 0 230 252
4.794001008 47.681901058 0.052452748 0 230 252
4.789491623 47.584151129 0.060833133 0 230 252
4.784222597 47.486244264 0.071314716 0 230 252
4.770325064 47.386531063 0.105650730 0 230 249
4.762630278 47.288126171 0.122840929 0 230 249
4.760352779 47.190858364 0.125056363 0 230 249
4.762325087 47.094477932 0.115524271 0 230 249
4.767540327 46.998770387 0.097027990 0 230 249
4.774595896 46.903440534 0.073444940 0 230 252
4.781031523 46.807975927 0.051576612 0 230 252
4.783490578 46.711682282 0.040702688 0 230 252
4.781429689 46.614451853 0.042325556 0 230 252
4.777834558 46.516905726 0.048191149 0 230 252
4.774891232 46.419495779 0.052255943 0 230 252
4.771562962 46.322008186 0.057386147 0 230 252
4.766378357 46.224141542 0.067649685 0 230 252
4.759786634 46.125989954 0.081804713 0 230 252
4.752906146 46.027783602 0.096759407 0 230 249
4.747021585 45.929784892 0.108961970 0 230 249
4.744454271 45.832465348 0.111994507 0 230 249
4.746651272 45.736115271 0.101856067 0 230 249
4.750064739 45.640009508 0.088355404 0 230 252
4.750052012 45.543206651 0.084328407 0 230 252
4.746167182 45.445620508 0.091008094 0 230 252
4.741807802 45.347940831 0.099001051 0 230 249
4.738714365 45.250518575 0.103495134 0 230 249
4.736662451 45.153307196 0.105110758 0 230 249
4.734668341 45.056108200 0.106567732 0 230 249
4.731364655 44.958647792 0.111646703 0 230 249
4.726057156 44.860788760 0.122267245 0 230 249
4.720521264 44.762887456 0.133520563 0 230 249
4.716767685 44.665344350 0.139847187 0 230 249
4.715161623 44.568229956 0.140237254 0 230 249
4.716555665 44.471710863 0.132333276 0 230 249
4.720662263 44.375726733 0.116930183 0 230 249
4.726183275 44.280018057 0.097617219 0 230 249
4.731565841 44.184277100 0.078688007 0 230 252
4.735061470 44.088160000 0.064977193 0 230 252
4.736491067 43.991633752 0.056980065 0 230 252
4.737376472 43.894998980 0.050488738 0 230 252
4.737764228 43.798265412 0.045374548 0 230 252
4.735831294 43.701077716 0.046678398 0 230 252
4.729524551 43.603038512 0.060077519 0 230 252
4.720533448 43.504481339 0.080900599 0 230 252
4.711401806 43.405902973 0.102113741 0 230 249
4.702834529 43.307440113 0.121767771 0 230 249
4.696096325 43.209336604 0.136365500 0 230 249
4.693766706 43.112088031 0.138773948 0 230 249
4.695827328 43.015685816 0.129043613 0 230 249
4.700437521 42.919771207 0.112264183 0 230 249
4.704926008 42.823828958 0.095822306 0 230 249
4.706923942 42.727405792 0.086268474 0 230 252
4.705026909 42.630236277 0.087486412 0 230 252
4.701292579 42.532717160 0.093786237 0 230 249
4.697474688 42.435184215 0.100318407 0 230 249
4.694181165 42.337752973 0.105401802 0 230 249
4.691775232 42.240491666 0.108031961 0 230 249
4.690013345 42.143353218 0.108882329 0 230 249
4.687518635 42.046077024 0.111760446 0 230 249
4.692639829 41.950236457 0.093578777 0 230 249
4.686554964 41.852284750 0.106387522 0 230 249
4.679958619 41.754240958 0.120612104 0 230 249
4.675717958 41.656642431 0.128323538 0 230 249
4.675263899 41.559753812 0.125564544 0 230 249
4.679642904 41.463765875 0.109440968 0 230 249
4.685510929 41.368050872 0.089200546 0 230 252
4.690545363 41.272175824 0.071266425 0 230 252
4.685950277 41.174511777 0.079964027 0 230 252
4.688706444 41.078209860 0.068332734 0 230 252
4.690430111 40.981714522 0.059557970 0 230 252
4.692010335 40.885190672 0.051181035 0 230 252
4.691487223 40.788278293 0.048622193 0 230 252
4.688535370 40.690920116 0.052781493 0 230 252
4.683824066 40.593241411 0.061808057 0 230 252
4.683820910 40.496425375 0.057814908 0 230 252
4.674323696 40.397878276 0.080080271 0 230 252
4.665513679 40.299462623 0.100446585 0 230 249
4.661496264 40.201922707 0.107559512 0 230 249
4.663616029 40.105496548 0.097700086 0 230 249
4.669888232 40.009818430 0.076357285 0 230 252
4.676924580 39.914272549 0.052902069 0 230 252
4.676765825 39.817425691 0.049347725 0 230 252
4.671074025 39.719584562 0.061097715 0 230 252
4.664558388 39.621599370 0.075127658 0 230 252
4.659679662 39.523911073 0.084631645 0 230 252
4.655111899 39.426281206 0.093276925 0 230 249
4.651399198 39.328806289 0.099558598 0 230 249
4.649577036 39.231669316 0.100612637 0 230 249
4.649481895 39.134839133 0.096891222 0 230 249
4.650540853 39.038212407 0.089978912 0 230 252
4.651045954 38.941486323 0.084599696 0 230 252
4.649992652 38.844484571 0.083532097 0 230 252
4.647588880 38.747245482 0.086201064 0 230 252
4.643909758 38.649783778 0.092398886 0 230 249
4.639626069 38.552218304 0.100270264 0 230 249
4.636187068 38.454802814 0.105806607 0 230 249
4.633213466 38.357470257 0.110056989 0 230 249
4.628325709 38.259806408 0.119603288 0 230 249
4.622544535 38.161990528 0.131622198 0 230 249
4.621812388 38.065052209 0.129676639 0 230 249
4.627149396 37.969161851 0.110944623 0 230 249
4.634792115 37.873663966 0.085835897 0 230 252
4.640879187 37.777891979 0.065031255 0 230 252
4.641734805 37.681217049 0.058698448 0 230 252
4.637304876 37.583635908 0.066987350 0 230 252
4.631082531 37.485751226 0.080235721 0 230 252
4.625595684 37.387995853 0.091451032 0 230 249
4.622683723 37.290681706 0.095545169 0 230 249
4.621529194 37.193667152 0.094779242 0 230 249
4.618874204 37.096398714 0.098165192 0 230 249
4.614000750 36.998756847 0.107689255 0 230 249
4.608166205 36.900955968 0.119873343 0 230 249
4.602854611 36.803246683 0.130612255 0 230 249
4.599015341 36.705787643 0.137279734 0 230 249
4.596434882 36.608541430 0.140466345 0 230 249
4.594749696 36.511445897 0.141177690 0 230 249
4.593765748 36.414467694 0.139950492 0 230 249
4.592086590 36.317373903 0.140647777 0 230 249
4.588070711 36.219893104 0.147810592 0 230 249
4.582944351 36.122230856 0.158046814 0 230 249
4.587313844 36.026139228 0.142015190 0 230 249
4.584554938 35.928869512 0.145704767 0 230 249
4.584269120 35.832007466 0.142554089 0 230 249
4.588882272 35.735947920 0.125851984 0 230 249
4.587454085 35.638896046 0.125864105 0 230 249
4.590920798 35.542643140 0.112335950 0 230 249
4.587247496 35.445224554 0.118561712 0 230 249
4.584987784 35.348037553 0.120878173 0 230 249
4.576219951 35.249797075 0.141200827 0 230 249
4.575105673 35.152799586 0.140351212 0 230 249
4.578044700 35.056455770 0.128289238 0 230 249
4.578867873 34.959768546 0.122082113 0 230 249
4.575747364 34.862446996 0.126786766 0 230 249
4.569273447 34.764590142 0.140770346 0 230 249
4.561432305 34.666519068 0.158538018 0 230 249
4.555467393 34.568752164 0.171116400 0 231 246
4.554981161 34.471859929 0.168538670 0 230 249
4.557443692 34.375434895 0.157804013 0 230 249
4.551997098 34.277755994 0.168952605 0 230 249
4.545444657 34.179905949 0.183162222 0 231 246
4.248154632 14.293015989 0.231651131 0 231 246
4.322776621 14.202056418 0.021327440 0 230 252
4.309472524 14.104119780 0.054538569 0 230 252
4.298631381 14.006385422 0.080929574 0 230 252
4.294736696 13.909199909 0.088081903 0 230 252
4.292104016 13.812114465 0.091740126 0 230 249
4.282043465 13.714457104 0.115973681 0 230 249
4.275293854 13.617060883 0.131038045 0 230 249
4.275683913 13.520214509 0.126328004 0 230 249
4.282621849 13.423864802 0.103482459 0 230 249
4.290490837 13.327579431 0.078059142 0 230 252
4.292579967 13.230852330 0.068646542 0 230 252
4.286142834 13.133484516 0.082852181 0 230 252
4.277323100 13.035943386 0.103658944 0 230 249
4.273067490 12.938746444 0.111824904 0 230 249
4.274748622 12.841989641 0.103547762 0 230 249
4.277050263 12.745276284 0.093553088 0 230 249
4.274409600 12.648199829 0.097249751 0 230 249
4.266147264 12.550716644 0.116519821 0 230 249
4.255010989 12.453031540 0.143752298 0 230 249
4.243806695 12.355349299 0.171174830 0 231 246
4.237450866 12.258021157 0.185168510 0 231 246
4.240106217 12.161337277 0.174202123 0 231 246
4.248641824 12.065066085 0.146948223 0 230 249
4.257516461 11.968811414 0.118756273 0 230 249
4.260409854 11.872131125 0.107134027 0 230 249
4.259299582 11.775169550 0.106603593 0 230 249
4.258321291 11.678217175 0.105708881 0 230 249
4.256820073 11.581228827 0.106264074 0 230 249
4.253107699 11.484089693 0.112945842 0 230 249
4.248086483 11.386863650 0.123254719 0 230 249
4.245072960 11.289776394 0.128003360 0 230 249
4.245378078 11.192913734 0.123560098 0 230 249
4.246389497 11.096097272 0.117161521 0 230 249
4.246118575 10.999194051 0.114316580 0 230 249
4.245306150 10.902254489 0.112973030 0 230 249
4.245675719 10.805392415 0.108356377 0 230 249
4.245766270 10.708511064 0.104513963 0 230 249
4.243176753 10.611454883 0.108097365 0 230 249
4.238976035 10.514295930 0.116145622 0 230 249
4.236089289 10.417223715 0.120555186 0 230 249
4.236567923 10.320367552 0.115642949 0 230 249
4.240079907 10.223702530 0.102328610 0 230 249
4.244858244 10.127113835 0.085507244 0 230 252
4.248483009 10.030448469 0.071882851 0 230 252
4.248749398 9.933570529 0.067563585 0 230 252
4.245053948 9.836446541 0.074221403 0 230 252
4.241542926 9.739335947 0.080369670 0 230 252
4.242024639 9.642471193 0.075457819 0 230 252
4.242481613 9.545603796 0.070615780 0 230 252
4.240593255 9.448593790 0.072272605 0 230 252
4.238606352 9.351578549 0.074203781 0 230 252
4.238733262 9.254689958 0.070280060 0 230 252
4.240521349 9.157898805 0.061755375 0 230 252
4.240652977 9.061008116 0.057821128 0 230 252
4.235743166 8.963822066 0.067855477 0 230 252
4.226637174 8.866395493 0.089516843 0 230 252
4.216353605 8.768907231 0.114442279 0 230 249
4.208690990 8.671576159 0.132107818 0 230 249
4.206433719 8.574557650 0.134799002 0 230 249
4.208051708 8.477759050 0.126754821 0 230 249
4.210617961 8.381011653 0.116084629 0 230 249
4.212597095 8.284228797 0.107042329 0 230 249
4.214924509 8.187462930 0.097036314 0 230 249
4.217421612 8.090703837 0.086561374 0 230 252
4.218998823 7.993891847 0.078636344 0 230 252
4.219583651 7.897024086 0.073462099 0 230 252
4.219217853 7.800103941 0.070922990 0 230 252
4.217650001 7.703119069 0.071715674 0 230 252
4.215021324 7.606078342 0.075448897 0 230 252
4.212778936 7.509059201 0.078113180 0 230 252
4.211025955 7.412066596 0.079422792 0 230 252
4.207353652 7.314974933 0.086051661 0 230 252
4.202076560 7.217802624 0.097128372 0 230 249
4.196735039 7.120630287 0.108385027 0 230 249
4.200227037 7.023909646 0.095167397 0 230 249
4.197587229 6.926876664 0.098940894 0 230 249
4.197981606 6.829996618 0.094308612 0 230 249
4.198369186 6.733115162 0.089696427 0 230 252
4.196315865 6.636112476 0.091848827 0 230 249
4.192115061 6.539005696 0.099952892 0 230 249
4.187168825 6.441865234 0.110123833 0 230 249
4.182444091 6.344738437 0.119682433 0 230 249
4.178488392 6.247651165 0.127111525 0 230 249
4.175044452 6.150590362 0.133123968 0 230 249
4.171946682 6.053547669 0.138178570 0 230 249
4.170581674 5.956587234 0.138433166 0 230 249
4.171308126 5.859723624 0.132893761 0 230 249
4.172939582 5.762900119 0.124847885 0 230 249
4.174630830 5.666077307 0.116637558 0 230 249
4.175733127 5.569225915 0.110060433 0 230 249
4.176536660 5.472359572 0.104312420 0 230 249
4.178224743 5.375530984 0.096114567 0 230 249
4.178176851 5.278624177 0.092728356 0 230 249
4.176167965 5.181631359 0.094777383 0 230 249
4.173977218 5.084631468 0.097331677 0 230 249
4.171633386 4.987625943 0.100311505 0 230 249
4.169843503 4.890644892 0.101757632 0 230 249
4.169045500 4.793706053 0.100456494 0 230 249
4.168871435 4.696792991 0.097427651 0 230 249
4.169533403 4.599913725 0.092083346 0 230 249
4.171147377 4.503072028 0.084102166 0 230 252
4.172220396 4.406206455 0.077621269 0 230 252
4.170515060 4.309228043 0.078840836 0 230 252
4.165954371 4.212136929 0.087974348 0 230 252
4.160920471 4.115029950 0.098420601 0 230 249
4.155953549 4.017928658 0.108682646 0 230 249
4.150312726 3.920804445 0.120813606 0 230 249
4.146000316 3.823734427 0.129264661 0 230 249
4.144727370 3.726781657 0.129294042 0 230 249
4.146190568 3.629931312 0.121742199 0 230 249
4.148821953 3.533122271 0.110954238 0 230 249
4.151218755 3.436301858 0.100817566 0 230 249
4.152805820 3.339449515 0.092926104 0 230 249
4.153790103 3.242573588 0.086706351 0 230 252
4.153400629 3.145647442 0.084294929 0 230 252
4.150749733 3.048641530 0.088151891 0 230 252
4.147433051 2.951613786 0.093855298 0 230 249
4.145859972 2.854647610 0.094727928 0 230 249
4.146316825 2.757750709 0.089976192 0 230 252
4.147220795 2.660867679 0.083986580 0 230 252
4.146990296 2.563945578 0.081142248 0 230 252
4.146109534 2.467001576 0.080101315 0 230 252
4.145869725 2.370078231 0.077285322 0 230 252
4.146482906 2.273181593 0.072106600 0 230 252
4.146336858 2.176259709 0.069033267 0 230 252
4.142044094 2.079207647 0.077453592 0 230 252
4.134045943 1.982043786 0.096144614 0 230 249
4.126520074 1.884899667 0.113528198 0 230 249
4.122032731 1.787851954 0.122492002 0 230 249
4.122114826 1.690942626 0.118792965 0 230 249
4.125025160 1.594115385 0.107256680 0 230 249
4.126883474 1.497254701 0.098637277 0 230 249
4.126599267 1.400330645 0.095957161 0 230 249
4.124268041 1.303348370 0.098951722 0 230 249
4.119204898 1.206291195 0.109519282 0 230 249
4.112164849 1.109182950 0.125567380 0 230 249
4.107040846 1.012131098 0.136306421 0 230 249
4.106732648 0.915210684 0.133699325 0 230 249
4.111874699 0.818432833 0.115987477 0 230 249
4.118191873 0.721680675 0.095019757 0 230 249
4.118963822 0.624781560 0.089422507 0 230 252
4.112166543 0.527691044 0.104805764 0 230 249
4.103505061 0.430558871 0.125357412 0 230 249
4.099988425 0.333557789 0.131650659 0 230 249
4.102594986 0.236705326 0.120973601 0 230 249
4.108552154 0.139929085 0.101010833 0 230 249
4.112917645 0.043110593 0.085460853 0 230 252
4.110490412 -0.053866948 0.088739607 0 230 252
4.100703990 -0.151008439 0.112417457 0 230 249
4.097606294 -0.247995768 0.117557286 0 230 249
4.091408439 -0.345048645 0.131291374 0 230 249
4.090753082 -0.441979621 0.129664256 0 230 249
4.092990561 -0.538850424 0.120020041 0 230 249
4.096599016 -0.635695595 0.106576936 0 230 249
4.101308906 -0.732522132 0.090082010 0 230 252
4.097325760 -0.829524693 0.097683850 0 230 249
4.101287180 -0.926371153 0.083265932 0 230 252
4.100718788 -1.023307392 0.081405147 0 230 252
4.104933399 -1.120155024 0.066287772 0 230 252
4.100338771 -1.217167098 0.075589683 0 230 252
4.097902446 -1.314137943 0.078910369 0 230 252
4.096340070 -1.411092446 0.079809854 0 230 252
4.093981106 -1.508060119 0.082918697 0 230 252
4.089657370 -1.605059531 0.091475055 0 230 249
4.083817959 -1.702081106 0.104234134 0 230 249
4.079313321 -1.799077737 0.113294670 0 230 249
4.080404383 -1.895984781 0.106845431 0 230 249
4.088072400 -1.992793801 0.082166196 0 230 252
4.092621043 -2.089655527 0.066134912 0 230 252
4.087470710 -2.186661007 0.076990374 0 230 252
4.077739599 -2.283727443 0.100545221 0 230 249
4.069653139 -2.380764802 0.119542542 0 230 249
4.067535073 -2.477717757 0.121996623 0 230 249
4.070751959 -2.574601306 0.109663181 0 230 249
4.074130205 -2.671486082 0.096883596 0 230 249
4.075257272 -2.768401421 0.090345628 0 230 252
4.075886877 -2.865324219 0.085187878 0 230 252
4.078150892 -2.962229773 0.075500590 0 230 252
4.082359416 -3.059116572 0.060424077 0 230 252
4.085566103 -3.156017939 0.048125921 0 230 252
4.084379994 -3.252967206 0.048006371 0 230 252
4.078774663 -3.349959583 0.060138845 0 230 252
4.072373182 -3.446955924 0.074479764 0 230 252
4.069053875 -3.543920334 0.080277733 0 230 252
4.068796641 -3.640856528 0.077588353 0 230 252
4.068424898 -3.737794243 0.075217656 0 230 252
4.066819326 -3.834742158 0.076268644 0 230 252
4.065189661 -3.931689796 0.077387692 0 230 252
4.063613253 -4.028636580 0.078360368 0 230 252
4.061087040 -4.125589313 0.081967418 0 230 252
4.057603198 -4.222546953 0.088230565 0 230 252
4.054654565 -4.319499511 0.093011278 0 230 249
4.053962636 -4.416438008 0.091537042 0 230 249
4.056251656 -4.513361281 0.081799948 0 230 252
4.060608673 -4.610277144 0.066330885 0 230 252
4.064957330 -4.707197155 0.050886130 0 230 252
4.066752626 -4.804131586 0.042521286 0 230 252
4.065423117 -4.901079591 0.042820678 0 230 252
4.062305384 -4.998033203 0.048078935 0 230 252
4.058185496 -5.094988097 0.056116849 0 230 252
4.053293531 -5.191942542 0.066296588 0 230 252
4.048868191 -5.288893022 0.075184009 0 230 252
4.047158174 -5.385836157 0.076544754 0 230 252
4.047028690 -5.482776611 0.073524854 0 230 252
4.048202740 -5.579716469 0.066892208 0 230 252
4.053721810 -5.676655431 0.048214408 0 230 252
4.059976524 -5.773599243 0.027498167 0 230 252
-3.192042228 -8.412171867 20.050975409 255 0 168
-3.171734188 -8.506583121 19.991357944 255 0 168
-3.162131305 -8.600889948 19.961451687 255 2 164
-3.159991896 -8.695117844 19.952260101 255 2 164
-3.159096505 -8.789333149 19.946522211 255 2 164
-3.160939875 -8.883515852 19.948386522 255 2 164
-3.162990969 -8.977695236 19.950828536 255 2 164
-3.162091540 -9.071912742 19.945082880 255 2 164
-3.158925235 -9.166162481 19.933046852 255 2 164
-3.155696988 -9.260416269 19.920839983 255 2 164
-3.155545744 -9.354629140 19.917174181 255 2 164
-3.160250438 -9.448771348 19.926986881 255 2 164
-3.166518713 -9.542887070 19.941140482 255 2 164
-3.169432583 -9.637050729 19.945985349 255 2 164
-3.167108240 -9.731296103 19.936292890 255 2 164
-3.162920876 -9.825574319 19.921430731 255 2 164
-3.161644602 -9.919808036 19.914649344 255 2 164
-3.163090436 -10.013997124 19.915424305 255 2 164
-3.165131732 -10.108175489 19.917853162 255 2 164
-3.167367786 -10.202349578 19.920823762 255 2 164
-3.171058644 -10.296496256 19.927833437 255 2 164
-3.175048972 -10.390635299 19.935675533 255 2 164
-3.175887908 -10.484831757 19.934771954 255 2 164
-3.174851572 -10.579064584 19.928664559 255 2 164
-3.175307941 -10.673269531 19.926701425 255 2 164
-3.176845553 -10.767453151 19.927740542 255 2 164
-3.178076363 -10.861642633 19.927929270 255 2 164
-3.179834705 -10.955820919 19.929583395 255 2 164
-3.183585579 -11.049956270 19.936769256 255 2 164
-3.187425434 -11.144087575 19.944203327 255 2 164
-3.189382398 -11.238258150 19.946412342 255 2 164
-3.188824178 -11.332484325 19.941641198 255 2 164
-3.185112451 -11.426783539 19.928118022 255 2 164
-3.178905322 -11.521144174 19.907669416 255 2 164
-3.173931396 -11.615481282 19.890644829 255 4 161
-3.175956100 -11.709655443 19.893047497 255 4 161
-3.183986351 -11.803682756 19.912121141 255 2 164
-3.191463189 -11.897718338 19.929659989 255 2 164
-3.194741093 -11.991854278 19.935544922 255 2 164
-3.193355673 -12.086107238 19.928486739 255 2 164
-3.189878082 -12.180416108 19.915622249 255 2 164
-3.188768193 -12.274666280 19.909331065 255 2 164
-3.191480736 -12.368816306 19.913651305 255 2 164
-3.195292622 -12.462935320 19.921024317 255 2 164
-3.197598235 -12.557093422 19.924217393 255 2 164
-3.198041597 -12.651302231 19.922242340 255 2 164
-3.197578772 -12.745536971 19.917752988 255 2 164
-3.196674535 -12.839785421 19.912039453 255 2 164
-3.196054974 -12.934027089 19.907117252 255 2 164
-3.197679072 -13.028204237 19.908424307 255 2 164
-3.202841278 -13.122275853 19.919553951 255 2 164
-3.209784666 -13.216290700 19.935629253 255 2 164
-3.214843546 -13.310358375 19.946474599 255 2 164
-3.216835866 -13.404517500 19.948808615 255 2 164
-3.218414469 -13.498688772 19.949995347 255 2 164
-3.221610077 -13.592808482 19.955671984 255 2 164
-3.218530326 -13.687127255 19.943929597 255 2 164
-3.220047780 -13.781300314 19.944950030 255 2 164
-3.220161703 -13.875518946 19.942075426 255 2 164
-3.220058693 -13.969745437 19.938599740 255 2 164
-3.220236072 -14.063963366 19.935903541 255 2 164
-3.220879373 -14.158166118 19.934501884 255 2 164
-3.220189621 -14.252414849 19.929400756 255 2 164
-3.218424809 -14.346702147 19.921316313 255 2 164
-3.218152065 -14.440939246 19.917375026 255 2 164
-3.221479299 -14.535049716 19.923428650 255 2 164
-3.227236583 -14.629071329 19.936229498 255 2 164
-3.230408991 -14.723182885 19.941855738 255 2 164
-3.227980381 -14.817497732 19.931934136 255 2 164
-3.225933226 -14.911801096 19.923072567 255 2 164
-3.230483300 -15.005860304 19.932526832 255 2 164
-3.236444903 -15.099863501 19.945900935 255 2 164
-3.237455885 -15.194051646 19.945532602 255 2 164
-3.234478185 -15.288393390 19.934092168 255 2 164
-3.230723215 -15.382768410 19.920494949 255 2 164
-3.226402524 -15.477169292 19.905328226 255 2 164
-3.220996815 -15.571617285 19.887150309 255 4 161
-3.217206350 -15.666005498 19.873457646 255 4 161
-3.218697466 -15.760183839 19.874428820 255 4 161
-3.225713276 -15.854136306 19.890738944 255 4 161
-3.234389653 -15.948015736 19.911660495 255 2 164
-3.240996897 -16.041975307 19.926838932 255 2 164
-3.244017164 -16.136081097 19.932060232 255 2 164
-3.243080421 -16.230352906 19.926296956 255 2 164
-3.239378587 -16.324744355 19.912858081 255 2 164
-3.235276091 -16.419156679 19.898307889 255 2 164
-3.233645041 -16.513465402 19.890620218 255 4 161
-3.235575015 -16.607619863 19.892820158 255 4 161
-3.239552124 -16.701682981 19.900704780 255 2 164
-3.243801780 -16.795731637 19.909347290 255 2 164
-3.247804621 -16.889788907 19.917305760 255 2 164
-3.251262643 -16.983868611 19.923752818 255 2 164
-3.251809212 -17.078079772 19.922117764 255 2 164
-3.256845266 -17.172083922 19.932948401 255 2 164
3.763914491 -25.738010199 0.179157604 0 231 246
3.775959878 -25.835958544 0.142606012 0 230 249
3.797112256 -25.934641302 0.080785138 0 230 252
3.812845070 -26.032907908 0.034003443 0 230 252
3.813054223 -26.129940669 0.030298131 0 230 252
3.811005661 -26.226792191 0.032858747 0 230 252
3.811486782 -26.323848020 0.028401051 0 230 252
3.812743043 -26.420968143 0.021793574 0 230 252
3.809420070 -26.517715229 0.027893985 0 230 252
3.803412253 -26.614239776 0.041445726 0 230 252
3.799793173 -26.710957833 0.048370240 0 230 252
3.799084717 -26.807915461 0.047219261 0 230 252
3.799086243 -26.904932526 0.044099291 0 230 252
3.796494483 -27.001733152 0.048176623 0 230 252
3.791704009 -27.098347558 0.058356433 0 230 252
3.788552878 -27.195097643 0.063988384 0 230 252
3.790531721 -27.292281697 0.055386079 0 230 252
3.796077865 -27.389772333 0.036885733 0 230 252
3.799783333 -27.487110295 0.023494244 0 230 252
3.796936871 -27.583887993 0.028285303 0 230 252
3.789093880 -27.680232345 0.046942896 0 230 252
3.783894194 -27.776800984 0.058266597 0 230 252
3.780460575 -27.873520444 0.064690672 0 230 252
3.776834643 -27.970221205 0.071649621 0 230 252
3.775751917 -28.067143725 0.071552277 0 230 252
3.780057896 -28.164542381 0.056502163 0 230 252
3.788259997 -28.262290909 0.030641145 0 230 252
3.794452491 -28.359867388 0.010357905 0 229 255
3.793403097 -28.456801119 0.010172436 0 229 255
3.785914589 -28.553155938 0.027857198 0 230 252
3.777206109 -28.649395645 0.048928791 0 230 252
3.769887268 -28.745755449 0.066145311 0 230 252
3.762781815 -28.842129847 0.082770943 0 230 252
3.756236546 -28.938550796 0.097843277 0 230 249
3.751789924 -29.035160204 0.107092832 0 230 249
3.749555262 -29.131970934 0.110205079 0 230 249
3.749554909 -29.228987602 0.107117923 0 230 249
3.752017538 -29.326234042 0.097196697 0 230 249
3.756123729 -29.423636590 0.082715378 0 230 252
3.760568616 -29.521074821 0.067295171 0 230 252
3.762733856 -29.618302677 0.058202492 0 230 252
3.760620056 -29.715128578 0.060986133 0 230 252
3.757395487 -29.811848237 0.066853578 0 230 252
3.757406203 -29.908874444 0.063743564 0 230 252
3.761533839 -30.006295260 0.049209252 0 230 252
3.765494079 -30.103703950 0.035140569 0 230 252
3.764809604 -30.200668590 0.033963217 0 230 252
3.758864789 -30.297124235 0.047385858 0 230 252
3.753003532 -30.393584221 0.060577866 0 230 252
3.753152457 -30.490626948 0.057091141 0 230 252
3.757568931 -30.588088626 0.041761836 0 230 252
3.761820363 -30.685538244 0.026891635 0 230 252
3.764206314 -30.782807732 0.017199792 0 230 252
3.764325642 -30.879855183 0.013799649 0 230 252
3.761019835 -30.976562721 0.019906532 0 230 252
3.753849144 -31.072882479 0.036741004 0 230 252
3.745861660 -31.169115621 0.055843664 0 230 252
3.740443132 -31.265601972 0.067817838 0 230 252
3.738183117 -31.362404057 0.071027192 0 230 252
3.736474213 -31.459261079 0.072708186 0 230 252
3.734347761 -31.556075067 0.075549217 0 230 252
3.734260661 -31.653096592 0.072731397 0 230 252
3.736211807 -31.750327888 0.064257739 0 230 252
3.737865569 -31.847530849 0.056610554 0 230 252
3.736846151 -31.944459630 0.056383723 0 230 252
3.731724406 -32.040962926 0.067543838 0 230 252
3.721894401 -32.136972933 0.091772787 0 230 249
3.712376762 -32.233008814 0.115136135 0 230 249
3.703040436 -32.329057184 0.137997606 0 230 249
3.704927647 -32.426280488 0.129709551 0 230 249
3.712956584 -32.524154819 0.104376242 0 230 249
3.715698220 -32.621475529 0.093718893 0 230 249
3.716936002 -32.718639108 0.087236616 0 230 252
3.717298541 -32.815710954 0.083184724 0 230 252
3.719087299 -32.912936712 0.075175454 0 230 252
3.719224812 -33.009987024 0.071750399 0 230 252
3.716503615 -33.106729654 0.076260997 0 230 252
3.716602267 -33.203776434 0.072946124 0 230 252
3.714014586 -33.300532047 0.077088513 0 230 252
3.714908829 -33.397666306 0.071567730 0 230 252
3.713651454 -33.494566483 0.072020096 0 230 252
3.716241828 -33.591889189 0.061793821 0 230 252
3.719691297 -33.689309375 0.049184137 0 230 252
3.712070227 -33.785508289 0.067303141 0 230 252
3.714817227 -33.882853105 0.056645524 0 230 252
3.704983707 -33.978799407 0.080908000 0 230 252
3.697354734 -34.074985362 0.099052780 0 230 249
3.694963512 -34.171753723 0.102660639 0 230 249
3.696185282 -34.268927660 0.096241211 0 230 249
3.696422849 -34.365992171 0.092554747 0 230 249
3.692810487 -34.462621394 0.099555649 0 230 249
3.686255784 -34.558914087 0.114724842 0 230 249
3.680563534 -34.655300920 0.127501399 0 230 249
3.679894052 -34.752259101 0.126337405 0 230 249
3.681806515 -34.849514087 0.118007792 0 230 249
3.681666647 -34.946534825 0.115376042 0 230 249
3.678920267 -35.043254878 0.119980478 0 230 249
3.676443692 -35.140004903 0.123837209 0 230 249
3.678986004 -35.237337934 0.113763869 0 230 249
3.686994252 -35.335311952 0.088519424 0 230 252
3.694647004 -35.433251253 0.064262794 0 230 252
3.696855001 -35.530557251 0.055120699 0 230 252
3.692792219 -35.627126271 0.063386151 0 230 252
3.685107220 -35.723264427 0.081707434 0 230 252
3.677489755 -35.819405480 0.099842576 0 230 249
3.673866814 -35.916017104 0.106890898 0 230 249
3.675149372 -36.013212723 0.100323546 0 230 249
3.679836588 -36.110818124 0.084306512 0 230 252
3.686676654 -36.208686731 0.062314560 0 230 252
3.692047653 -36.306384189 0.044401593 0 230 252
3.692151813 -36.403449307 0.041109774 0 230 252
3.688824945 -36.500098843 0.047343246 0 230 252
3.685756935 -36.596778124 0.052859384 0 230 252
3.684771258 -36.693710175 0.052596390 0 230 252
3.683382256 -36.790592833 0.053454174 0 230 252
3.678888316 -36.887093572 0.062932212 0 230 252
3.670826195 -36.983151701 0.082316537 0 230 252
3.661590054 -37.079059217 0.104961208 0 230 249
3.655198961 -37.175313390 0.119709509 0 230 249
3.654741708 -37.272301889 0.117986955 0 230 249
3.658410232 -37.369805846 0.104812525 0 230 249
3.662167715 -37.467324539 0.091392250 0 230 249
3.665177372 -37.564752973 0.080049040 0 230 252
3.667729835 -37.662126900 0.069976119 0 230 252
3.668862219 -37.759324117 0.063846470 0 230 252
3.667738056 -37.856236965 0.063982177 0 230 252
3.665846209 -37.953052132 0.066250183 0 230 252
3.664571347 -38.049945304 0.066806623 0 230 252
3.664674793 -38.147014568 0.063538012 0 230 252
3.665998265 -38.244241206 0.056883719 0 230 252
3.666964600 -38.341423689 0.051222006 0 230 252
3.666822339 -38.438464624 0.048638986 0 230 252
3.666163281 -38.535439338 0.047491809 0 230 252
3.665178990 -38.632372105 0.047248692 0 230 252
3.663198294 -38.729175157 0.049772879 0 230 252
3.660123602 -38.825834604 0.055335325 0 230 252
3.657117613 -38.922501469 0.060708271 0 230 252
3.654437335 -39.019209592 0.065178236 0 230 252
3.650748930 -39.115783623 0.072448119 0 230 252
3.645315970 -39.212125100 0.084562385 0 230 252
3.639027725 -39.308349851 0.099052338 0 230 249
3.632127101 -39.404489171 0.115243655 0 230 249
3.624325385 -39.500503876 0.133937875 0 230 249
3.618785291 -39.596815664 0.146354738 0 230 249
3.620423015 -39.694086141 0.138845833 0 230 249
3.629057307 -39.792299210 0.111914173 0 230 249
3.638640462 -39.890647610 0.082349325 0 230 252
3.643764016 -39.988401218 0.065166331 0 230 252
3.643214478 -40.085390369 0.063734209 0 230 252
3.638672712 -40.181837068 0.073386633 0 230 252
3.631497906 -40.277922043 0.090350287 0 230 252
3.626367174 -40.374281784 0.101640388 0 230 249
3.625819902 -40.471266842 0.100206864 0 230 249
3.627144410 -40.568509633 0.093577959 0 230 249
3.628099216 -40.665703246 0.087976609 0 230 252
3.628378961 -40.762805030 0.084250587 0 230 252
3.629172763 -40.859979086 0.079098568 0 230 252
3.631979934 -40.957434466 0.068357991 0 230 252
3.636794414 -41.055172647 0.052045635 0 230 252
3.640202439 -41.152718673 0.039639154 0 230 252
3.638009487 -41.249482892 0.042783954 0 230 252
3.631603471 -41.345653958 0.057626869 0 230 252
3.627369237 -41.442127013 0.066441467 0 230 252
3.628593382 -41.539369098 0.060102910 0 230 252
3.628894226 -41.636482046 0.056328937 0 230 252
3.623164944 -41.732739059 0.069298041 0 230 252
3.621975250 -41.829639319 0.069664790 0 230 252
3.618646639 -41.926233837 0.075971225 0 230 252
3.621183348 -42.023666862 0.065994407 0 230 252
3.617439695 -42.120200459 0.073455609 0 230 252
3.620071494 -42.217650222 0.063217124 0 230 252
3.617379712 -42.314333980 0.067760330 0 230 252
3.617598391 -42.411437883 0.064224053 0 230 252
3.608686315 -42.507217100 0.086040029 0 230 252
3.600121626 -42.603040819 0.106892861 0 230 249
3.594289964 -42.699257626 0.120158885 0 230 249
3.594725557 -42.796387854 0.116025298 0 230 249
3.600901882 -42.894361472 0.095953827 0 230 249
3.608054509 -42.992484229 0.073172765 0 230 252
3.612016072 -43.090142617 0.059252775 0 230 252
3.611600270 -43.187157538 0.057487696 0 230 252
3.608540960 -43.283781005 0.063063557 0 230 252
3.605415520 -43.380393069 0.068824280 0 230 252
3.601554101 -43.476893833 0.076629720 0 230 252
3.595747165 -43.573101734 0.089838239 0 230 252
3.589636119 -43.669260398 0.103892441 0 230 249
3.586322075 -43.765835189 0.110181890 0 230 249
3.586904309 -43.862994836 0.105654288 0 230 249
3.589151602 -43.960407039 0.096504701 0 230 249
3.590443018 -44.057677095 0.090010350 0 230 252
3.589639964 -44.154631163 0.089332674 0 230 252
3.587666949 -44.251407446 0.091904728 0 230 249
3.587309545 -44.348429340 0.089992085 0 230 252
3.588792229 -44.445733020 0.082971416 0 230 252
3.588557734 -44.542775462 0.080719890 0 230 252
3.586069504 -44.639472253 0.084727378 0 230 252
3.584712547 -44.736342146 0.085594958 0 230 252
3.584563707 -44.833398307 0.083109234 0 230 252
3.582708067 -44.930190945 0.085363925 0 230 252
3.578287514 -45.026584938 0.094741776 0 230 249
3.574977386 -45.123149043 0.101037607 0 230 249
3.575273088 -45.220273665 0.097322411 0 230 249
3.576330376 -45.317518343 0.091493716 0 230 249
3.574937451 -45.414380648 0.092469736 0 230 249
3.571201712 -45.510874628 0.099952312 0 230 249
3.567707429 -45.607404537 0.106765700 0 230 249
3.567473996 -45.704447290 0.104525831 0 230 249
3.567283815 -45.801497483 0.102167068 0 230 249
3.376087910 -65.771006274 0.064960797 0 230 252
3.369910780 -65.866701961 0.079495437 0 230 252
3.365569579 -65.962830919 0.088930684 0 230 252
3.370719886 -66.061221599 0.071996882 0 230 252
3.374684870 -66.159333753 0.058357521 0 230 252
3.376454643 -66.256924315 0.050818416 0 230 252
3.377928977 -66.354446159 0.044101412 0 230 252
3.379143810 -66.451907573 0.038106662 0 230 252
3.376476593 -66.548437088 0.042898855 0 230 252
3.367648634 -66.643481361 0.064809080 0 230 252
3.356280330 -66.737906717 0.093778734 0 230 249
3.347166911 -66.832868937 0.116484964 0 230 249
3.346524827 -66.929875148 0.115656046 0 230 249
3.352039162 -67.028373969 0.097723541 0 230 249
3.356484776 -67.126618294 0.082761593 0 230 252
3.355482093 -67.223541879 0.082938404 0 230 252
3.350593954 -67.319519087 0.093911878 0 230 249
3.345032986 -67.415329141 0.106756112 0 230 249
3.339607278 -67.511168706 0.119225914 0 230 249
3.334731182 -67.607139336 0.130170037 0 230 249
3.334844973 -67.704329972 0.127251464 0 230 249
3.338343692 -67.802352379 0.114929377 0 230 249
3.342654669 -67.900577923 0.100351744 0 230 249
3.347281557 -67.998885314 0.084897624 0 230 252
3.351410782 -68.097074258 0.070827485 0 230 252
3.353619277 -68.194792653 0.062095266 0 230 252
3.351235030 -68.291377211 0.066125081 0 230 252
3.344928903 -68.386988868 0.081053053 0 230 252
3.338200783 -68.482491683 0.097154917 0 230 249
3.335270894 -68.578934148 0.102704848 0 230 249
3.338077979 -68.676803282 0.092315985 0 230 249
3.342111935 -68.774981205 0.078519537 0 230 252
3.341539240 -68.872012625 0.077523934 0 230 252
3.336262477 -68.967867862 0.089599939 0 230 252
3.328685152 -69.063143525 0.108069475 0 230 249
3.329780137 -69.160589691 0.102444194 0 230 249
3.328791679 -69.257513966 0.102609112 0 230 249
3.326281254 -69.354055234 0.107004193 0 230 249
3.330914120 -69.452395561 0.091552670 0 230 249
3.331295907 -69.549667190 0.087914231 0 230 252
3.325660608 -69.645418790 0.100995895 0 230 249
3.322580542 -69.741813708 0.106979067 0 230 249
3.317275129 -69.837642733 0.119146873 0 230 249
3.314587792 -69.934133254 0.124041532 0 230 249
3.313060095 -70.030917369 0.125715378 0 230 249
3.316829595 -70.129050304 0.112671818 0 230 249
3.320364162 -70.227126939 0.100282312 0 230 249
3.327284706 -70.326072077 0.078485814 0 230 252
3.324836874 -70.422626221 0.082721545 0 230 252
3.322918490 -70.519314884 0.085487488 0 230 252
3.314562121 -70.614350589 0.106143466 0 230 249
3.310687147 -70.710532404 0.114348753 0 230 249
3.309558478 -70.807418880 0.114924436 0 230 249
3.307942085 -70.904179488 0.116856652 0 230 249
3.304846418 -71.000557672 0.122900578 0 230 249
3.302101713 -71.097024949 0.127970654 0 230 249
3.301638978 -71.194081743 0.126701269 0 230 249
3.302026624 -71.291359438 0.123070278 0 230 249
3.302109911 -71.388559113 0.120286310 0 230 249
3.302602360 -71.485866002 0.116366729 0 230 249
3.304011318 -71.583412730 0.109901775 0 230 249
3.305768800 -71.681052188 0.102469682 0 230 249
3.306804596 -71.778505184 0.097044226 0 230 249
3.306170514 -71.875522806 0.096260165 0 230 249
3.304946585 -71.972386115 0.097116436 0 230 249
3.304355807 -72.069415351 0.096214698 0 230 249
3.300905508 -72.165693410 0.103260084 0 230 249
3.297778698 -72.262054674 0.109407943 0 230 249
3.296678801 -72.358948467 0.109924919 0 230 249
3.297916548 -72.456459141 0.103947537 0 230 249
3.299060787 -72.553946776 0.098231295 0 230 249
3.297084983 -72.650610105 0.101186167 0 230 249
3.293406276 -72.746821206 0.108874332 0 230 249
3.289863850 -72.843066382 0.116185170 0 230 249
3.287689382 -72.939673248 0.119696141 0 230 249
3.289803553 -73.037421015 0.111291308 0 230 249
3.296296646 -73.136338700 0.090719739 0 230 252
3.301194783 -73.234836218 0.074581462 0 230 252
3.298913980 -73.331418555 0.078393183 0 230 252
3.290383698 -73.426326325 0.099572261 0 230 249
3.282474252 -73.521394746 0.119027608 0 230 249
3.279563674 -73.617800285 0.124593487 0 230 249
3.281219589 -73.715432429 0.117471288 0 230 249
3.284556854 -73.813519400 0.105678234 0 230 249
3.284786316 -73.910771449 0.102522507 0 230 249
3.281125848 -74.006973741 0.110177557 0 230 249
3.278427556 -74.103434188 0.115160251 0 230 249
3.277605780 -74.200401561 0.114929760 0 230 249
3.277182052 -74.297476991 0.113594491 0 230 249
3.276863680 -74.394581433 0.111967789 0 230 249
3.276864412 -74.491773151 0.109455671 0 230 249
3.277353151 -74.589098523 0.105588780 0 230 249
3.278362299 -74.686566950 0.100277061 0 230 249
3.278661044 -74.783842808 0.096940786 0 230 249
3.276503263 -74.880447614 0.100432232 0 230 249
3.271540123 -74.976282971 0.111720816 0 230 249
3.264820089 -75.071633265 0.127893021 0 230 249
3.259252082 -75.167295580 0.140865273 0 230 249
3.257688432 -75.264055910 0.142711178 0 230 249
3.258729133 -75.361533201 0.137321160 0 230 249
3.259252433 -75.458869274 0.133370280 0 230 249
3.259262201 -75.556064603 0.130847797 0 230 249
3.261227374 -75.653801586 0.122892711 0 230 249
3.265499966 -75.752179993 0.108526771 0 230 249
3.269502431 -75.850487467 0.094912795 0 230 249
3.271950470 -75.948366932 0.085619775 0 230 252
3.275350810 -76.046513897 0.073681676 0 230 252
3.279310735 -76.144820067 0.060189818 0 230 252
3.280205873 -76.242275100 0.055216169 0 230 252
3.274339917 -76.337842984 0.069032677 0 230 252
3.264889217 -76.432404374 0.092812504 0 230 249
3.255405806 -76.526950041 0.116684703 0 230 249
3.247810074 -76.622018581 0.135312536 0 230 249
3.243866981 -76.718107888 0.143791134 0 230 249
3.243585622 -76.815224734 0.142095152 0 230 249
3.246218628 -76.913162862 0.132301471 0 230 249
3.250540265 -77.011579951 0.117816384 0 230 249
3.252651491 -77.109376845 0.109475362 0 230 249
3.251271472 -77.206188790 0.110837897 0 230 249
3.247193750 -77.302236465 0.119698777 0 230 249
3.241480752 -77.397818016 0.133105537 0 230 249
3.242328698 -77.495258811 0.128280581 0 230 249
3.248481063 -77.594209157 0.108715747 0 230 249
3.253351223 -77.692799883 0.092715514 0 230 249
3.254981869 -77.790471490 0.085719353 0 230 252
3.252632373 -77.887008805 0.089785558 0 230 252
3.247023549 -77.982613289 0.102911012 0 230 249
3.241941228 -78.078364876 0.114574691 0 230 249
3.242819406 -78.175821746 0.109675093 0 230 249
3.249735169 -78.275012902 0.087997903 0 230 252
3.255949969 -78.374008622 0.068270036 0 230 252
3.253860886 -78.470620066 0.071620673 0 230 252
3.246078331 -78.565589900 0.090795372 0 230 252
3.240319377 -78.661138376 0.104347728 0 230 249
3.239036413 -78.757976430 0.105462238 0 230 249
3.238446170 -78.855014625 0.104652960 0 230 249
3.235134347 -78.951264593 0.111408632 0 230 249
3.230751218 -79.047201934 0.121142987 0 230 249
3.229107251 -79.143932280 0.123266250 0 230 249
3.231108993 -79.241722479 0.115258953 0 230 249
3.233654545 -79.339673304 0.105741661 0 230 249
3.233510520 -79.436842412 0.103700425 0 230 249
3.230488922 -79.533171801 0.109657752 0 230 249
3.227764271 -79.629586393 0.114791205 0 230 249
3.226420377 -79.726403862 0.116088687 0 230 249
3.223171573 -79.822662525 0.122681605 0 230 249
3.221660352 -79.919429472 0.124446866 0 230 249
3.209498176 -80.013065170 0.155814449 0 230 249
3.200821463 -80.107718079 0.177496789 0 231 246
3.198495104 -80.204236547 0.181531688 0 231 246
3.201143208 -80.302221880 0.171742917 0 231 246
3.206748935 -80.401083874 0.153735633 0 230 249
3.214769835 -80.500665449 0.129017389 0 230 249
3.223096299 -80.600344414 0.103451217 0 230 249
3.221054589 -80.696954900 0.106701721 0 230 249
3.225101097 -80.795372842 0.093033102 0 230 249
3.226305059 -80.892949203 0.087265877 0 230 252
3.223379553 -80.989297469 0.092976738 0 230 249
3.222473897 -81.086246448 0.093075350 0 230 249
3.213641929 -81.180828945 0.115204469 0 230 249
3.207238919 -81.276131464 0.130584382 0 230 249
3.203041988 -81.372090095 0.139834465 0 230 249
3.201319676 -81.468787869 0.142208341 0 230 249
3.201542222 -81.566068661 0.139178312 0 230 249
3.202316495 -81.663516102 0.134616244 0 230 249
3.203001479 -81.760937966 0.130303687 0 230 249
3.202960409 -81.858142324 0.128010396 0 230 249
3.201622386 -81.954956131 0.129323070 0 230 249
3.198935458 -82.051362199 0.134386123 0 230 249
3.195111914 -82.147423170 0.142609563 0 230 249
3.191803241 -82.243637787 0.149403426 0 230 249
3.190045067 -82.340320624 0.151889370 0 230 249
3.190240363 -82.437595797 0.148947385 0 230 249
3.192841175 -82.535602957 0.139321063 0 230 249
3.195473567 -82.633622417 0.129608311 0 230 249
3.194794392 -82.730635504 0.129100837 0 230 249
3.192646650 -82.827200696 0.132676371 0 230 249
3.192008667 -82.924226132 0.132057160 0 230 249
3.191817554 -83.021388448 0.130197318 0 230 249
3.191004614 -83.118360866 0.130067118 0 230 249
3.190517651 -83.215433303 0.129032291 0 230 249
3.191847296 -83.313063793 0.122949827 0 230 249
3.194175079 -83.411002827 0.114094537 0 230 249
3.196288330 -83.508878306 0.105836858 0 230 249
3.198420997 -83.606762079 0.097526564 0 230 249
3.200542302 -83.704644670 0.089249202 0 230 252
3.201890491 -83.802290726 0.083121972 0 230 252
3.201039307 -83.899258166 0.083109003 0 230 252
3.196642835 -83.995127600 0.092951147 0 230 249
3.187972136 -84.089668888 0.114674482 0 230 249
3.177875773 -84.183761535 0.140361797 0 230 249
3.170574542 -84.278716019 0.158281789 0 230 249
3.166637877 -84.374712809 0.166851700 0 230 249
3.163382556 -84.470919584 0.173529282 0 231 246
3.159922480 -84.567060647 0.180777374 0 231 246
3.160400820 -84.664430130 0.177080299 0 231 246
3.165322033 -84.763190372 0.161035900 0 230 249
3.170049819 -84.861894501 0.145530455 0 230 249
3.170978851 -84.959411792 0.140584781 0 230 249
3.168424162 -85.055836763 0.145323304 0 230 249
3.164060183 -85.151691725 0.155092071 0 230 249
3.158235078 -85.247084161 0.168923410 0 230 249
3.151807379 -85.342282912 0.184431085 0 231 246
3.148251391 -85.438383385 0.191958355 0 231 246
3.152898880 -85.537073060 0.176685629 0 231 246
3.168075039 -85.639096762 0.132150011 0 230 249
3.179298999 -85.739881377 0.098600774 0 230 249
2.991246837 -105.709187019 0.169167018 0 230 249
2.995414130 -105.808124863 0.155558114 0 230 249
2.993993491 -105.904849728 0.157487281 0 230 249
2.990620017 -106.000798576 0.164847804 0 230 249
2.993483851 -106.099224423 0.154868364 0 230 249
2.994445626 -106.196896246 0.150179098 0 230 249
2.989845478 -106.292354372 0.160955685 0 230 249
2.983514227 -106.387119407 0.176547202 0 231 246
2.982327318 -106.483932669 0.177837521 0 231 246
2.986041760 -106.582703051 0.165502191 0 230 249
2.990741909 -106.681870845 0.150428067 0 230 249
2.993496924 -106.780264392 0.140763917 0 230 249
2.992570579 -106.877186015 0.141337089 0 230 249
2.989672734 -106.973316990 0.147393586 0 230 249
2.987988362 -107.069933206 0.150078047 0 230 249
2.988745935 -107.167529536 0.145974854 0 230 249
2.991351235 -107.265869874 0.136736136 0 230 249
2.994404628 -107.364393048 0.126253387 0 230 249
2.995619521 -107.462178417 0.120884192 0 230 249
2.992108152 -107.558059407 0.128657636 0 230 249
2.985597909 -107.652727769 0.144770978 0 230 249
2.980833868 -107.748097077 0.156031109 0 230 249
2.980228290 -107.845144846 0.155730977 0 230 249
2.982424012 -107.943326531 0.147643987 0 230 249
2.985043342 -108.041682014 0.138381051 0 230 249
2.987042275 -108.139788394 0.130844917 0 230 249
2.988710257 -108.237762447 0.124230819 0 230 249
2.989071375 -108.335207261 0.121252185 0 230 249
2.985529547 -108.431065498 0.129127199 0 230 249
2.979110856 -108.525750352 0.145002977 0 230 249
2.975404035 -108.621535744 0.153340549 0 230 249
2.977898125 -108.719847834 0.144438892 0 230 249
2.983566376 -108.819458136 0.126713604 0 230 249
2.985025821 -108.917353446 0.120692426 0 230 249
2.982158217 -109.013480540 0.126704159 0 230 249
2.979294187 -109.109607357 0.132707864 0 230 249
2.976675491 -109.205832968 0.138031337 0 230 249
2.974468146 -109.302225751 0.142212985 0 230 249
2.973871457 -109.399278554 0.141918208 0 230 249
2.975540894 -109.497262593 0.135324496 0 230 249
2.978249010 -109.595675609 0.125844684 0 230 249
2.980088436 -109.693733527 0.118782104 0 230 249
2.981075143 -109.791441923 0.114092360 0 230 249
2.981712771 -109.889007551 0.110375109 0 230 249
2.980011136 -109.985608340 0.113163974 0 230 249
2.974153259 -110.080490728 0.127511012 0 230 249
2.967976833 -110.175237299 0.142745721 0 230 249
2.965151972 -110.271367167 0.148663467 0 230 249
2.964832982 -110.368533747 0.147615647 0 230 249
2.961834202 -110.464588996 0.154020832 0 230 249
2.954514321 -110.558848391 0.172442686 0 231 246
2.948330629 -110.653574749 0.187707363 0 231 246
2.947442763 -110.750499544 0.188249027 0 231 246
2.951397938 -110.849440385 0.175326590 0 231 246
2.954748660 -110.948132835 0.164086745 0 230 249
2.952982682 -111.044694157 0.167075761 0 230 249
2.946612022 -111.139332197 0.182870030 0 231 246
2.947726600 -111.237093598 0.177853560 0 231 246
2.946040961 -111.333685106 0.180625033 0 231 246
2.946607435 -111.431218571 0.177136439 0 231 246
2.954286292 -111.531733145 0.153873743 0 230 249
2.957369494 -111.630326625 0.143391222 0 230 249
2.956971280 -111.727461452 0.142590750 0 230 249
2.955320166 -111.824069971 0.145275930 0 230 249
2.955819664 -111.921582113 0.141983257 0 230 249
2.957414551 -112.019556172 0.135646783 0 230 249
2.957627598 -112.116949680 0.133154490 0 230 249
2.955480305 -112.213348393 0.137227133 0 230 249
2.954019228 -112.310035533 0.139393705 0 230 249
2.955770552 -112.408079167 0.132630065 0 230 249
2.959411360 -112.506923582 0.120614611 0 230 249
2.961404305 -112.605073759 0.113183046 0 230 249
2.959026131 -112.701374118 0.117907488 0 230 249
2.954697186 -112.796845894 0.128058112 0 230 249
2.953119561 -112.893482445 0.130560568 0 230 249
2.954922042 -112.991554053 0.123666465 0 230 249
2.958128185 -113.090224277 0.112871381 0 230 249
2.960682037 -113.188619796 0.103891987 0 230 249
2.960069577 -113.285669010 0.103718655 0 230 249
2.955483436 -113.381024052 0.114596346 0 230 249
2.952563805 -113.477087110 0.120842220 0 230 249
2.953605074 -113.574840052 0.116076569 0 230 249
2.955965128 -113.673157973 0.107645940 0 230 249
2.955799739 -113.770397551 0.106239448 0 230 249
2.952693522 -113.866377975 0.113012124 0 230 249
2.948094857 -113.961716686 0.123936673 0 230 249
2.942521592 -114.056634131 0.137573201 0 230 249
2.946050956 -114.155456492 0.125901173 0 230 249
2.944182544 -114.251962014 0.129240088 0 230 249
2.944302843 -114.349322014 0.127051236 0 230 249
2.943938942 -114.446474027 0.126210750 0 230 249
2.942605092 -114.543208158 0.128069302 0 230 249
2.942041510 -114.640273908 0.127788074 0 230 249
2.943904433 -114.738387205 0.120761729 0 230 249
2.939980654 -114.834001845 0.129827880 0 230 249
2.942394596 -114.932354890 0.121273397 0 230 249
2.945431269 -115.030979754 0.110989358 0 230 249
2.946524942 -115.128765518 0.106110039 0 230 249
2.944427713 -115.225168785 0.110105377 0 230 249
2.943403599 -115.322036597 0.111118840 0 230 249
2.944809193 -115.419959521 0.105378264 0 230 249
2.947478376 -115.518433331 0.096126155 0 230 249
2.948538267 -115.616209236 0.091350890 0 230 252
2.948074719 -115.713322773 0.090813753 0 230 252
2.947559604 -115.810413857 0.090422044 0 230 252
2.945999149 -115.907048800 0.092939071 0 230 249
2.941190677 -116.002264421 0.104489670 0 230 249
2.936933127 -116.097717535 0.114510430 0 230 249
2.935344040 -116.194335200 0.117113243 0 230 249
2.944194329 -116.295523258 0.090690017 0 230 252
2.946561456 -116.393877137 0.082296122 0 230 252
2.942042568 -116.489212638 0.093051780 0 230 249
2.940672790 -116.585927615 0.095052972 0 230 249
2.938261563 -116.682184272 0.099952127 0 230 249
2.925063384 -116.773695242 0.134848089 0 230 249
2.913195596 -116.865782043 0.166046880 0 230 249
2.907503879 -116.960581127 0.180074257 0 231 246
2.910362186 -117.059146460 0.170328973 0 231 246
2.919394571 -117.160439290 0.143417702 0 230 249
2.928712072 -117.261865382 0.115715680 0 230 249
2.930744954 -117.360078339 0.108271785 0 230 249
2.928483692 -117.456393046 0.112770534 0 230 249
2.926309691 -117.552745020 0.117028727 0 230 249
2.925278418 -117.649602222 0.118111457 0 230 249
2.926668593 -117.747533287 0.112463012 0 230 249
2.930885288 -117.846720880 0.098957005 0 230 249
2.935068848 -117.945897349 0.085545208 0 230 252
2.936996487 -118.044073928 0.078408474 0 230 252
2.937315448 -118.141536162 0.075747037 0 230 252
2.936112266 -118.238320752 0.077320286 0 230 252
2.932071347 -118.333839224 0.086786484 0 230 252
2.927151780 -118.428962744 0.098698051 0 230 249
2.923049252 -118.524447827 0.108339810 0 230 249
2.920390970 -118.620575855 0.113967680 0 230 249
2.918998677 -118.717268723 0.116077332 0 230 249
2.919494302 -118.814806452 0.112939354 0 230 249
2.921654725 -118.913091200 0.105174170 0 230 249
2.922168091 -119.010638977 0.101991065 0 230 249
2.919862048 -119.106921434 0.106650022 0 230 249
2.917950716 -119.203379851 0.110213526 0 230 249
2.919261046 -119.301286300 0.104820633 0 230 249
2.923335337 -119.400438442 0.091744065 0 230 249
2.926218299 -119.499057255 0.081982350 0 230 252
2.924656317 -119.595674064 0.084582877 0 230 252
2.918471216 -119.690203314 0.100041141 0 230 249
2.910466309 -119.783906041 0.120561952 0 230 249
2.905292113 -119.878882782 0.133213501 0 230 249
2.904973349 -119.976053021 0.132365545 0 230 249
2.906640537 -120.074122780 0.125997315 0 230 249
2.907619112 -120.171882010 0.121546062 0 230 249
2.909078742 -120.269860556 0.115759253 0 230 249
2.913162972 -120.369032261 0.102676249 0 230 249
2.918061084 -120.468577291 0.087332180 0 230 252
2.921028948 -120.567248487 0.077357757 0 230 252
2.923663179 -120.665770412 0.068313218 0 230 252
2.930081485 -120.766018684 0.048748283 0 230 252
2.937854769 -120.866890053 0.025417644 0 230 252
2.937545396 -120.964079088 0.024564918 0 230 252
2.928887846 -121.057455176 0.046928512 0 230 252
2.918972623 -121.150249980 0.072791601 0 230 252
2.911869084 -121.244323854 0.090838315 0 230 252
2.908926290 -121.340297792 0.097317191 0 230 249
2.908022037 -121.437204013 0.098129543 0 230 249
2.907079646 -121.534092350 0.099050117 0 230 249
2.906654551 -121.631217735 0.098534379 0 230 249
2.907292119 -121.728831331 0.095065790 0 230 249
2.907866859 -121.826416829 0.091774077 0 230 249
2.908098641 -121.923845233 0.089438227 0 230 252
2.908633602 -122.021413759 0.086261476 0 230 252
2.907587262 -122.118254037 0.087484147 0 230 252
2.903230459 -122.213566455 0.097914679 0 230 249
2.896577011 -122.307815322 0.114733896 0 230 249
2.889738471 -122.401973816 0.132070045 0 230 249
2.886341538 -122.497719169 0.139838017 0 230 249
2.889697971 -122.596588403 0.128828457 0 230 249
2.897642747 -122.697586270 0.105061831 0 230 249
2.906428202 -122.798980345 0.078959635 0 230 252
2.912385990 -122.899069245 0.060722785 0 230 252
2.912604878 -122.996497581 0.058446822 0 230 252
2.908865403 -123.092086384 0.067180458 0 230 252
2.906415150 -123.188272358 0.072331248 0 230 252
2.905449234 -123.285147841 0.073356603 0 230 252
2.903994553 -123.381795097 0.075743327 0 230 252
2.903381649 -123.478834095 0.075791444 0 230 252
2.905843823 -123.577308219 0.067290568 0 230 252
2.909774566 -123.676470548 0.054708084 0 230 252
2.911141081 -123.774437322 0.049258437 0 230 252
2.907476754 -123.870051409 0.057800837 0 230 252
2.902444044 -123.965022129 0.070150699 0 230 252
2.900364662 -124.061373423 0.074290131 0 230 252
2.900276663 -124.158657482 0.072894109 0 230 252
2.900674172 -124.256169662 0.070150202 0 230 252
2.902005413 -124.354121116 0.064811973 0 230 252
2.905994829 -124.453323799 0.052084046 0 230 252
2.912694475 -124.553805275 0.031821659 0 230 252
2.916730499 -124.653037614 0.018968569 0 230 252
2.909407360 -124.746918833 0.037705593 0 230 252
2.895989200 -124.837919242 0.073394162 0 230 252
2.885290524 -124.930193573 0.101522631 0 230 249
2.880904091 -125.025442681 0.112100033 0 230 249
2.879688365 -125.122188159 0.113862439 0 230 249
2.878811908 -125.219093529 0.114683640 0 230 249
2.879732865 -125.316849893 0.110508747 0 230 249
2.882632867 -125.415545432 0.100832667 0 230 249
2.886073776 -125.514500089 0.089654646 0 230 252
2.889045929 -125.613235051 0.079782413 0 230 252
2.891357987 -125.711658846 0.071748062 0 230 252
2.893887256 -125.810187970 0.063111932 0 230 252
2.896922184 -125.908959975 0.053071890 0 230 252
2.899366976 -126.007453421 0.044675192 0 230 252
2.900068672 -126.105117927 0.041128059 0 230 252
2.899319953 -126.202091134 0.041616596 0 230 252
2.896893157 -126.298262645 0.046773914 0 230 252
2.893539834 -126.393989707 0.054510064 0 230 252
2.891293918 -126.490244102 0.059168949 0 230 252
2.891413777 -126.587629484 0.057251204 0 230 252
2.893232894 -126.685829269 0.050610310 0 230 252
2.894151231 -126.783598786 0.046476649 0 230 252
2.892135581 -126.879961354 0.050504331 0 230 252
2.887757003 -126.975187826 0.061105329 0 230 252
2.886376237 -127.071851962 0.063372070 0 230 252
2.889612240 -127.170735952 0.052802399 0 230 252
2.893255492 -127.269818697 0.041102500 0 230 252
2.893266591 -127.367154575 0.039505493 0 230 252
2.889993118 -127.462906981 0.047044812 0 230 252
2.886961430 -127.558773751 0.053914067 0 230 252
2.886577841 -127.655917249 0.053421556 0 230 252
2.889258772 -127.754541797 0.044409233 0 230 252
2.892837550 -127.853602908 0.032902392 0 230 252
2.894822490 -127.951895424 0.025830151 0 230 252
2.895080659 -128.049353101 0.023562187 0 230 252
2.893462770 -128.145901560 0.026513666 0 230 252
2.890441643 -128.241768065 0.033369733 0 230 252
2.886850629 -128.337355690 0.041812935 0 230 252
2.883188655 -128.432906259 0.050455805 0 230 252
2.879788178 -128.528581397 0.058373812 0 230 252
2.878286726 -128.625178524 0.061013133 0 230 252
2.879170560 -128.722936724 0.057021501 0 230 252
2.881575603 -128.821437467 0.048801836 0 230 252
2.883540194 -128.919725338 0.041809357 0 230 252
2.882832721 -129.016710081 0.042249998 0 230 252
2.881740194 -129.113506288 0.043763782 0 230 252
2.882522679 -129.211218893 0.040065641 0 230 252
2.883250937 -129.308905744 0.036520636 0 230 252
2.879640433 -129.404467937 0.045043752 0 230 252
2.872773713 -129.498431175 0.062624541 0 230 252
2.866687650 -129.592772318 0.078036759 0 230 252
2.861914810 -129.687753769 0.089799364 0 230 252
2.858558118 -129.783427620 0.097626116 0 230 249
2.861083971 -129.881992035 0.089096201 0 230 252
2.868537950 -129.982984065 0.066863791 0 230 252
2.873931905 -130.082967320 0.050362541 0 230 252
2.872217408 -130.179450829 0.053631843 0 230 252
2.864326638 -130.272886248 0.074079405 0 230 252
2.855669619 -130.365937446 0.096660286 0 230 249
2.854153788 -130.462510601 0.099384241 0 230 249
2.849254120 -130.557409493 0.111520886 0 230 249
2.846636643 -130.653434161 0.117313232 0 230 249
2.847404818 -130.751133737 0.113692583 0 230 249
2.845942382 -130.847728480 0.116277559 0 230 249
2.851436821 -130.947773043 0.099518074 0 230 249
2.853084617 -131.045912476 0.093458343 0 230 249
2.850340954 -131.141871674 0.099613497 0 230 249
2.853691327 -131.240858746 0.088823711 0 230 252
2.850479370 -131.336583359 0.096285948 0 230 249
2.851522330 -131.434424386 0.091917773 0 230 249
2.849944658 -131.530960407 0.094839894 0 230 249
2.854215429 -131.630412097 0.081500030 0 230 252
2.854486183 -131.727870789 0.079286502 0 230 252
2.852531334 -131.824218161 0.083264724 0 230 252
2.852030803 -131.921291147 0.083200920 0 230 252
2.853492471 -132.019345496 0.077682676 0 230 252
2.855980313 -132.117914857 0.069313055 0 230 252
2.858043040 -132.216273273 0.062128071 0 230 252
2.857940698 -132.313547810 0.060966512 0 230 252
2.856415475 -132.410108397 0.063764373 0 230 252
2.856324718 -132.507388308 0.062575417 0 230 252
2.859637780 -132.606378936 0.051922889 0 230 252
2.863838274 -132.705818581 0.038804830 0 230 252
2.865284587 -132.803875293 0.033348529 0 230 252
2.863099394 -132.900103959 0.037993834 0 230 252
2.857646117 -132.994683587 0.051730088 0 230 252
2.851538672 -133.088929107 0.067288036 0 230 252
2.853091814 -133.187037729 0.061544337 0 230 252
2.852513362 -133.284070640 0.061731027 0 230 252
2.855877922 -133.383097009 0.050954619 0 230 252
2.854866075 -133.479911461 0.052351440 0 230 252
2.855513610 -133.577565590 0.049135948 0 230 252
2.858504575 -133.676407994 0.039405797 0 230 252
2.857346656 -133.773148529 0.041216154 0 230 252
2.848541620 -133.866006779 0.064295673 0 230 252
2.844903418 -133.961482906 0.073008640 0 230 252
2.849510505 -134.061147801 0.058793782 0 230 252
2.850546599 -134.158999667 0.054512350 0 230 252
2.857110574 -134.259666766 0.034860239 0 230 252
2.860416163 -134.358678862 0.024272199 0 230 252
2.860630990 -134.456117661 0.022282063 0 230 252
2.857556635 -134.551878342 0.029441661 0 230 252
2.850381513 -134.645542661 0.048008055 0 230 252
2.847219624 -134.741252475 0.055416039 0 230 252
2.837075491 -134.833389026 0.082244335 0 230 252
2.831960781 -134.928091974 0.095088155 0 230 249
2.834502698 -135.026712779 0.086641103 0 230 252
2.844462178 -135.129137743 0.057568016 0 230 252
2.854903157 -135.231817444 0.027158347 0 230 252
2.850427748 -135.326847900 0.038234097 0 230 252
2.849554395 -135.423725497 0.039294897 0 230 252
2.841400890 -135.516859604 0.060604562 0 230 252
2.834826183 -135.610799807 0.077526046 0 230 252
2.827403536 -135.704298419 0.096808209 0 230 249
2.820613154 -135.798117174 0.114334537 0 230 249
2.819373580 -135.894793124 0.116426285 0 230 249
2.822844082 -135.993898819 0.105421543 0 230 249
2.829453485 -136.094628288 0.085689836 0 230 252
2.837371241 -136.196039089 0.062322022 0 230 252
2.837855193 -136.293611256 0.059630495 0 230 252
2.832999019 -136.388419864 0.071792647 0 230 252
2.831883981 -136.485162602 0.073553003 0 230 252
2.833353704 -136.583244373 0.068127490 0 230 252
2.831729693 -136.679722473 0.071308340 0 230 252
2.827502912 -136.774848199 0.081730167 0 230 252
2.825310028 -136.871027361 0.086498118 0 230 252
2.826343339 -136.968882182 0.082296322 0 230 252
2.829030259 -137.067598194 0.073498239 0 230 252
2.830885979 -137.165883538 0.067014292 0 230 252
2.830276728 -137.262885971 0.067388108 0 230 252
2.826489313 -137.358230755 0.076603145 0 230 252
2.820162685 -137.452247635 0.092882465 0 230 249
2.813103788 -137.545877279 0.111200836 0 230 249
2.807098116 -137.640051933 0.126592666 0 230 249
2.804016362 -137.735751150 0.133855383 0 230 249
2.805643764 -137.833912641 0.128024068 0 230 249
2.810609699 -137.933823980 0.112910528 0 230 249
2.813460810 -138.032630714 0.103681031 0 230 249
2.813144331 -138.129778202 0.103263405 0 230 249
2.811053146 -138.225993917 0.107783940 0 230 249
2.808736871 -138.322089807 0.112933015 0 230 249
2.806731919 -138.418347590 0.117218823 0 230 249
2.802445721 -138.513403771 0.127851550 0 230 249
2.795597363 -138.607107826 0.145612466 0 230 249
2.791591977 -138.702304391 0.155469367 0 230 249
2.794614273 -138.801203007 0.145784109 0 230 249
2.803689255 -138.903297376 0.119268259 0 230 249
2.810591462 -139.004251543 0.098797677 0 230 249
2.808113045 -139.100254571 0.104418115 0 230 249
2.803673334 -139.195218648 0.115495689 0 230 249
2.802200753 -139.291749345 0.118323935 0 230 249
2.803182073 -139.389578321 0.114330185 0 230 249
2.803814743 -139.487223300 0.111308634 0 230 249
2.801837793 -139.583484889 0.115547291 0 230 249
2.798852331 -139.679209753 0.122593312 0 230 249
2.799321326 -139.776766865 0.120034676 0 230 249
2.802293107 -139.875654447 0.110518076 0 230 249
2.801367088 -139.972471310 0.111844283 0 230 249
2.795073336 -140.066430615 0.128101379 0 230 249
2.787800978 -140.159863844 0.147082714 0 230 249
2.784956486 -140.255651485 0.153752211 0 230 249
2.786908449 -140.353995251 0.147084747 0 230 249
2.790240814 -140.453077311 0.136580795 0 230 249
2.790621006 -140.550585017 0.134289801 0 230 249
2.787493563 -140.646218042 0.141756588 0 230 249
2.786395554 -140.742934219 0.143581858 0 230 249
2.789154579 -140.841714215 0.134682803 0 230 249
2.793226234 -140.941199470 0.122135744 0 230 249
2.795830231 -141.039901056 0.113673036 0 230 249
2.795706175 -141.137141128 0.112800004 0 230 249
2.794237088 -141.233658999 0.115670292 0 230 249
2.789525578 -141.328433777 0.127560818 0 230 249
2.773114304 -141.416914911 0.171992698 0 231 246
2.720079850 -141.485679960 0.318282302 0 231 243
2.703385408 -141.573969109 0.363507528 0 232 240
2.686315944 -141.662043288 0.409778530 0 232 237
2.671210768 -141.751163329 0.450589243 0 232 237
2.654590709 -141.839454323 0.495615900 0 233 234
2.638041278 -141.927770587 0.540448895 0 233 234
2.638350568 -142.025183151 0.538396992 0 233 234
2.644877673 -142.125957904 0.519054679 0 233 234
2.648015274 -142.224903603 0.509141906 0 233 234
2.626311049 -142.310400428 0.568322139 0 233 231
2.609664154 -142.398620826 0.613439671 0 233 231
2.609353048 -142.495686371 0.613126416 0 233 231
2.617888429 -142.597552002 0.588211727 0 233 231
2.625724095 -142.699044181 0.565245749 0 233 231
2.632274617 -142.799843978 0.545856686 0 233 234
2.637375478 -142.899860444 0.530502099 0 233 234
2.646399203 -143.002015473 0.504239819 0 233 234
2.647595328 -143.099914817 0.499750444 0 233 234
2.643662860 -143.195020230 0.509527459 0 233 234
2.640423234 -143.290500363 0.517380196 0 233 234
2.641988562 -143.388600038 0.511871948 0 233 234
2.643509520 -143.486676610 0.506489758 0 233 234
2.635056106 -143.579303465 0.528851208 0 233 234
2.626148496 -143.671675336 0.552478592 0 233 234
2.623798558 -143.767628960 0.557870260 0 233 234
2.619047575 -143.862265783 0.569942479 0 233 231
2.619988847 -143.960018343 0.566185857 0 233 231
2.630165826 -144.062836467 0.536745215 0 233 234
