ply
format ascii 1.0
comment coordinate_system ground
comment units millimeter
element vertex 1422
property double x
property double y
property double z
property uchar red
property uchar green
property uchar blue
comment color_mapping zg_high_contrast_from_zg
comment color_zg_range_mm -0.262071065 0.528249364
end_header
6.400280919 147.048576753 0.334498077 255 134 0
6.403282157 146.953882572 0.321042591 255 147 0
6.408293535 146.860385245 0.302075405 255 164 0
6.411103400 146.765569170 0.289146607 255 175 0
6.408569832 146.667563055 0.290872991 255 172 0
6.402485446 146.567441335 0.302338739 255 164 0
6.395742779 146.466930892 0.315611281 255 150 0
6.390537679 146.367339555 0.324668431 255 142 0
6.387642983 146.269125334 0.327390489 255 142 0
6.387190983 146.172364274 0.323414443 255 145 0
6.388756107 146.076800775 0.313907290 255 153 0
6.391203121 145.981758519 0.301982436 255 164 0
6.391064450 145.885178947 0.297150294 255 166 0
6.385878878 145.785605485 0.306161477 255 158 0
6.378397321 145.684674075 0.321471349 255 145 0
6.373517845 145.585288163 0.329645821 255 139 0
6.371030108 145.487320321 0.331261602 255 137 0
6.367727604 145.388871227 0.335113387 255 134 0
6.365634485 145.291138309 0.335649293 255 134 0
6.367369778 145.195667373 0.325685545 255 142 0
6.369564977 145.100465451 0.314461339 255 153 0
6.368089881 145.003095254 0.313305493 255 153 0
6.363017899 144.903604207 0.322016935 255 145 0
6.357664886 144.803950193 0.331500621 255 137 0
6.353791674 144.705170412 0.336926593 255 131 0
6.358704108 144.611562571 0.318254514 255 150 0
6.356857152 144.513974597 0.318124726 255 150 0
6.350945795 144.413998048 0.329145165 255 139 0
6.347446403 144.315441443 0.333550725 255 137 0
6.346968426 144.218659796 0.329669400 255 139 0
6.346435445 144.121845060 0.325940096 255 142 0
6.345598336 144.024851255 0.323046210 255 145 0
6.346250992 143.928729679 0.316066722 255 150 0
6.348223716 143.833379297 0.305467037 255 161 0
6.346403378 143.735806938 0.305273765 255 161 0
6.340133427 143.635632982 0.317288332 255 150 0
6.334031329 143.535560650 0.328843867 255 139 0
6.331118111 143.437353942 0.331652606 255 137 0
6.332056964 143.341396297 0.323894900 255 145 0
6.335249752 143.246751305 0.309954792 255 156 0
6.338410610 143.152084125 0.296103234 255 169 0
6.339431058 143.056166679 0.288124749 255 175 0
6.337766624 142.958684456 0.287513250 255 175 0
6.336461022 142.861411051 0.285918490 255 177 0
6.335948863 142.764598715 0.282148070 255 180 0
6.335680278 142.667927102 0.277710527 255 186 0
6.331502061 142.568984657 0.284000529 255 180 0
6.321229659 142.466508301 0.307011972 255 158 0
6.314023037 142.365816139 0.321613672 255 145 0
6.313403422 142.268945109 0.318144278 255 150 0
6.316911989 142.174463922 0.303349547 255 161 0
6.319677104 142.079548692 0.290595572 255 172 0
6.319851421 141.983131892 0.284951065 255 177 0
6.318634797 141.885909908 0.283124086 255 180 0
6.316826613 141.788346009 0.282921403 255 180 0
6.314089510 141.690246142 0.285268718 255 177 0
6.312542655 141.592833735 0.284351425 255 180 0
6.314756426 141.497589122 0.273116624 255 188 0
6.315621572 141.401564787 0.265583317 255 196 0
6.311371605 141.302593923 0.272086585 255 188 0
6.305439324 141.202657242 0.283207387 255 180 0
6.301624020 141.103941003 0.288520661 255 175 0
6.300017469 141.006495546 0.287774409 255 175 0
6.299755115 140.909821964 0.283340827 255 180 0
6.300082208 140.813485658 0.277290891 255 186 0
6.299224742 140.716468689 0.274492584 255 188 0
6.294725613 140.617364340 0.281688571 255 180 0
6.288013237 140.516994747 0.294959372 255 169 0
6.284793097 140.418627676 0.298648358 255 166 0
6.285711875 140.322629040 0.290980626 255 172 0
6.287576931 140.227169411 0.280717164 255 183 0
6.287193470 140.130422938 0.276625201 255 186 0
6.282445512 140.031184367 0.284511735 255 177 0
6.273893433 139.929778275 0.302839281 255 164 0
6.263734988 139.827461776 0.325576797 255 142 0
6.254099846 139.725449890 0.346879848 255 123 0
6.258988593 139.631712457 0.328325399 255 139 0
6.259869862 139.535690283 0.320769974 255 147 0
6.256753213 139.437393335 0.324187632 255 145 0
6.263965128 139.344965895 0.299260253 255 166 0
6.267569381 139.250483505 0.284234792 255 180 0
6.265994365 139.153058501 0.283424805 255 180 0
6.262108653 139.054323308 0.288957790 255 175 0
6.259816400 138.956492848 0.290118749 255 175 0
6.260393699 138.860287948 0.283405211 255 180 0
6.260405421 138.763761418 0.278245042 255 183 0
6.257484212 138.665575098 0.281135818 255 183 0
6.256905740 138.568713842 0.277597835 255 186 0
6.259910104 138.473875377 0.264227234 255 196 0
6.260497629 138.377669466 0.257491120 255 202 0
6.254119767 138.277533371 0.269874255 255 191 0
6.250085694 138.178722011 0.275825688 255 186 0
6.241394662 138.077289451 0.294560841 255 169 0
6.238574205 137.979166799 0.297183886 255 166 0
6.238627878 137.882661882 0.291919150 255 172 0
6.242321100 137.788201722 0.276665431 255 186 0
6.248285979 137.695013779 0.255177186 255 205 0
6.250655682 137.599801948 0.243558229 254 211 0
6.249611496 137.502671997 0.241311199 254 211 0
6.247089145 137.404713009 0.243122855 254 211 0
6.245064554 137.307033671 0.243569408 254 211 0
6.243525831 137.209626765 0.242683460 254 211 0
6.239371992 137.110756744 0.248977324 255 209 0
6.229892248 137.008910898 0.269892531 255 191 0
6.217765991 136.905592344 0.298074320 255 166 0
6.208051146 136.803628265 0.319638237 255 147 0
6.204977736 136.705376267 0.322971974 255 145 0
6.209349299 136.611276913 0.305869150 255 161 0
6.215804120 136.518334024 0.283048252 255 180 0
6.217383133 136.422670000 0.273613378 255 188 0
6.211935623 136.323093511 0.283469159 255 180 0
6.205675987 136.223068383 0.295555863 255 169 0
6.206080465 136.126750328 0.289348930 255 175 0
6.210567253 136.032697993 0.271935781 255 191 0
6.210279796 135.935991562 0.267630547 255 194 0
6.203266987 135.835554344 0.281790140 255 180 0
6.194529937 135.734165682 0.300684976 255 164 0
6.189921803 135.635069294 0.308245685 255 158 0
6.190991906 135.539118020 0.300218328 255 164 0
6.194482930 135.444503833 0.285545417 255 177 0
6.196900754 135.349292734 0.273819935 255 188 0
6.196457730 135.252498544 0.269950025 255 191 0
6.194424329 135.154825753 0.270447741 255 191 0
6.192909186 135.057439258 0.269523751 255 191 0
6.190474724 134.959546066 0.271125051 255 191 0
6.185579717 134.860298256 0.279483376 255 183 0
6.180634576 134.761025438 0.287980723 255 175 0
6.178560839 134.663334754 0.288595430 255 175 0
6.178657771 134.566837760 0.283251307 255 180 0
6.179295735 134.470636799 0.276422758 255 186 0
6.178347011 134.373563248 0.273951979 255 188 0
6.175261058 134.275316892 0.277350762 255 186 0
6.172786350 134.177406850 0.279072451 255 183 0
6.173932246 134.081481015 0.270853746 255 191 0
6.177654934 133.986963868 0.255560556 255 205 0
6.179304461 133.891308668 0.245960988 254 210 0
6.178346233 133.794225504 0.243523149 254 211 0
6.177198600 133.697038499 0.241606573 254 211 0
6.175790460 133.599709049 0.240406517 253 211 0
6.171622835 133.500874116 0.246785193 254 210 0
6.164666854 133.400521079 0.260822099 255 199 0
6.156995501 133.299782461 0.276824938 255 186 0
6.157988250 133.203765508 0.269036972 255 191 0
6.151016128 133.103413435 0.283122448 255 180 0
6.146536832 133.004420814 0.290363774 255 175 0
6.146662628 132.907932415 0.284960133 255 177 0
6.149626320 132.812983585 0.271764227 255 191 0
6.150518522 132.716907567 0.264258031 255 196 0
6.148689058 132.619354204 0.264227231 255 196 0
6.147818660 132.522320749 0.261563801 255 199 0
6.150030760 132.426955767 0.250436127 255 207 0
6.151808986 132.331353297 0.240501010 253 211 0
6.150852582 132.234269912 0.238077124 253 211 0
6.148092744 132.136211813 0.240607272 253 211 0
6.144105144 132.037491847 0.246510582 254 210 0
6.140243893 131.938841979 0.252068209 255 207 0
6.135450990 131.839691649 0.260185871 255 199 0
6.130048406 131.740215380 0.269979363 255 191 0
6.127237793 131.642137614 0.272655433 255 188 0
6.127845672 131.545900101 0.265943836 255 194 0
6.128666872 131.449775748 0.258647432 255 202 0
6.126317949 131.351946513 0.260059046 255 199 0
6.121565870 131.252827759 0.268072373 255 194 0
6.117663516 131.154167404 0.273753193 255 188 0
6.116002286 131.056710460 0.273279774 255 188 0
6.117371538 130.960877296 0.264483838 255 196 0
6.121471448 130.866503962 0.248188691 255 209 0
6.124539303 130.771574319 0.234729223 252 213 0
6.123918473 130.674669240 0.231402564 252 214 0
6.123134533 130.577676422 0.228525082 252 215 0
6.123066406 130.481065282 0.223682571 251 216 0
6.120383706 130.383058277 0.226022919 252 215 0
6.111791628 130.281901859 0.244596623 254 210 0
6.099997753 130.179045141 0.271966798 255 191 0
6.090890904 130.077626720 0.291957747 255 172 0
6.088701135 129.979893879 0.292949619 255 172 0
6.091774285 129.884959432 0.279485773 255 183 0
6.093869701 129.789502205 0.268708702 255 194 0
6.092068473 129.691973798 0.268636699 255 194 0
6.090663844 129.594656079 0.267476439 255 194 0
6.093084910 129.499366350 0.255808027 255 205 0
6.098091368 129.405443271 0.237038378 253 212 0
6.099273183 129.309490812 0.228776240 252 215 0
6.094897595 129.210596736 0.235781983 253 212 0
6.089293647 129.111055611 0.246163544 254 210 0
6.085133233 129.012280150 0.252580884 255 207 0
6.080500027 128.913257219 0.260298403 255 199 0
6.072013242 128.812204136 0.278603904 255 183 0
6.065556229 128.712226255 0.291334682 255 172 0
6.065089850 128.615407475 0.287609004 255 175 0
6.066958936 128.519817212 0.277468257 255 186 0
6.068516728 128.424060763 0.268183764 255 194 0
6.069049386 128.327763311 0.261716712 255 199 0
6.070708407 128.232055966 0.252156221 255 207 0
6.075036092 128.137746877 0.235264905 253 212 0
6.077517482 128.042465207 0.223447042 251 216 0
6.073511014 127.943780593 0.229455176 252 214 0
6.065097159 127.842789882 0.247573781 255 209 0
6.056574113 127.741747335 0.265993943 255 194 0
6.059122974 127.646499994 0.253995379 255 205 0
6.058236203 127.549454393 0.251437360 255 207 0
6.056593044 127.452013453 0.250958730 255 207 0
6.050612617 127.352309541 0.262398356 255 199 0
6.041838515 127.251152424 0.281515363 255 180 0
6.035318894 127.151175568 0.294439426 255 169 0
6.035707779 127.054799610 0.288382624 255 175 0
6.041667760 126.961320893 0.267019245 255 194 0
6.047776516 126.867913986 0.245247917 254 210 0
6.051946210 126.773494023 0.228805466 252 214 0
6.052756798 126.677325981 0.221593969 251 217 0
6.049381705 126.578984858 0.225884918 252 215 0
6.043951246 126.479579747 0.235824926 253 212 0
6.038698371 126.380269693 0.245278356 254 210 0
6.033203490 126.280837296 0.255398172 255 205 0
6.029253994 126.182207392 0.261272836 255 199 0
6.027549055 126.084739628 0.260980955 255 199 0
6.029073256 125.988940011 0.251816792 255 207 0
6.035927296 125.895889130 0.228007465 252 215 0
6.038893264 125.800826740 0.214883312 250 219 0
6.031170550 125.700252351 0.231132773 252 214 0
6.024513196 125.600231425 0.244456098 254 210 0
6.025878012 125.504342908 0.235735430 253 212 0
6.032536379 125.411174527 0.212468682 249 220 0
6.035062486 125.315876648 0.200558647 247 223 0
6.030025891 125.216692449 0.209432936 249 221 0
6.021901812 125.115926792 0.226793507 252 215 0
6.016631057 125.016629250 0.236314142 253 212 0
6.018125574 124.920800918 0.227243755 252 215 0
6.021835890 124.826104885 0.212084879 249 220 0
6.023049845 124.730127877 0.203787599 248 223 0
6.023709050 124.633865327 0.197015992 247 224 0
6.023746430 124.537283600 0.191954441 247 225 0
6.021120803 124.439341434 0.194212838 247 225 0
6.013376363 124.338789155 0.210540819 249 220 0
6.001239292 124.236002703 0.238942959 253 211 0
5.990927261 124.134153960 0.262330891 255 199 0
5.989405915 124.036786114 0.261559805 255 199 0
5.991875168 123.941447959 0.249821901 255 209 0
5.991186150 123.844501867 0.246765471 254 210 0
5.987904850 123.746238842 0.250835111 255 207 0
5.986022184 123.648687020 0.251061839 255 207 0
5.989229230 123.553716468 0.237300404 253 212 0
5.991894377 123.458467902 0.225029393 251 216 0
5.990641679 123.361232630 0.223527996 251 216 0
5.986558023 123.262564996 0.229809042 252 214 0
5.982029173 123.163674360 0.237315101 253 212 0
5.981325897 123.066718760 0.234307219 252 213 0
5.981466737 122.970188798 0.228980268 252 214 0
5.979749288 122.872720342 0.228762368 252 215 0
5.976451790 122.774455747 0.232888843 252 213 0
5.973256332 122.676244029 0.236736120 253 212 0
5.967226656 122.576607261 0.248375393 255 209 0
5.962481152 122.477619877 0.256486118 255 205 0
5.956743488 122.378136469 0.267325507 255 194 0
5.957359064 122.281846764 0.260701993 255 199 0
5.960175260 122.186659832 0.248030280 255 209 0
5.960503135 122.090222102 0.242199772 254 211 0
5.959451757 121.993092070 0.240161876 253 211 0
5.962774291 121.898151645 0.226101372 252 215 0
5.961167240 121.800741555 0.225593265 251 216 0
5.964410625 121.705756401 0.211752396 249 220 0
5.959821504 121.606855300 0.219444425 250 218 0
5.962208231 121.511438609 0.207960695 249 221 0
5.956281319 121.411872564 0.219332967 250 218 0
5.951489650 121.312875789 0.227585735 252 215 0
5.948003308 121.214531700 0.232251330 252 213 0
5.947311434 121.117579864 0.229235744 252 214 0
5.950084446 121.022350481 0.216695667 250 218 0
5.953371751 120.927373546 0.202742684 248 223 0
5.953619990 120.830884240 0.197145795 247 224 0
5.951160391 120.733050340 0.198994584 247 223 0
5.949068069 120.635399378 0.199834866 247 223 0
5.948060066 120.538286136 0.197695241 247 224 0
5.945274545 120.440292815 0.200443788 247 223 0
5.939089475 120.340619160 0.212540194 249 220 0
5.930223977 120.239624433 0.232007577 252 213 0
5.920444176 120.138183880 0.253990333 255 205 0
5.913599823 120.038198297 0.267903860 255 194 0
5.915205874 119.942383780 0.258584724 255 202 0
5.923886658 119.850052924 0.229814736 252 214 0
5.930197658 119.756547771 0.207561227 249 221 0
5.931649052 119.660646106 0.198670204 247 223 0
5.931442429 119.563927299 0.194339053 247 225 0
5.932430257 119.467794385 0.186724796 246 227 0
5.934505655 119.372193550 0.176121232 244 231 0
5.932190687 119.274436897 0.177590568 244 230 0
5.924725585 119.174157060 0.193222222 247 225 0
5.915400889 119.072971242 0.213968662 250 219 0
5.908887387 118.973167056 0.226986740 252 215 0
5.906884674 118.875572321 0.227602806 252 215 0
5.908105608 118.779553073 0.219355854 250 218 0
5.910766931 118.684235096 0.207149224 248 222 0
5.912003436 118.588219090 0.198861559 247 223 0
5.910690904 118.490958693 0.197584367 247 224 0
5.908594962 118.393316748 0.198462621 247 223 0
5.906377941 118.295616482 0.199675054 247 223 0
5.904633187 118.198146574 0.199590034 247 223 0
5.904145390 118.101287784 0.196049690 247 224 0
5.903444406 118.004324875 0.193096748 247 225 0
5.901456618 117.906737210 0.193683638 247 225 0
5.899400520 117.809116957 0.194459601 247 225 0
5.898013610 117.711821441 0.193396508 247 225 0
5.896593711 117.614510030 0.192425329 247 225 0
5.895534015 117.517372931 0.190464764 246 226 0
5.896245911 117.421091817 0.183633344 245 228 0
5.897746899 117.325190239 0.174632925 244 231 0
5.896951206 117.228178371 0.171949743 243 232 0
5.892547409 117.129426531 0.179190585 244 230 0
5.883781069 117.028575353 0.198430568 247 223 0
5.871949321 116.926254199 0.226102641 252 215 0
5.870445128 116.828908611 0.225373197 251 216 0
5.867313704 116.730781101 0.229120259 252 214 0
5.869510008 116.635213618 0.218215832 250 218 0
5.872491448 116.540020269 0.205153062 248 222 0
5.866646981 116.440591751 0.216365447 250 219 0
5.873678276 116.347335633 0.192166321 247 225 0
5.871891098 116.249851519 0.192222126 247 225 0
5.871199309 116.152891777 0.189266383 246 226 0
5.871423656 116.056369486 0.183792037 245 228 0
5.873285159 115.960627966 0.173815899 244 231 0
5.868066687 115.861505353 0.183314064 245 228 0
5.875670463 115.768499934 0.157546083 241 236 0
5.883029220 115.675371055 0.132452824 238 244 0
5.883899915 115.579146764 0.125206011 237 246 0
5.876599550 115.479033805 0.140435285 239 241 0
5.863690903 115.376259611 0.171092125 243 232 0
5.854159943 115.275098458 0.192460025 247 225 0
5.842327512 115.172851327 0.220160054 251 217 0
5.842213335 115.076168955 0.215628772 250 219 0
5.848061641 114.982310851 0.194697682 247 225 0
5.852857478 114.887949080 0.176662497 244 230 0
5.856578151 114.793074103 0.161585712 242 234 0
5.860278629 114.698185807 0.146565440 240 239 0
5.862525468 114.602607192 0.135544763 238 243 0
5.855629539 114.502711196 0.149675043 240 238 0
5.846016013 114.401537976 0.171282432 243 232 0
5.841373361 114.302713206 0.179217274 244 230 0
5.839328148 114.205113851 0.180008231 245 229 0
5.837771106 114.107744732 0.179457504 245 229 0
5.835768876 114.010166583 0.180132656 245 229 0
5.834291834 113.912835655 0.179364265 244 230 0
5.833824525 113.815978740 0.175819326 244 231 0
5.833586849 113.719228901 0.171643819 243 232 0
5.834430349 113.622984849 0.164495114 242 234 0
5.837258240 113.527668192 0.151888361 241 237 0
5.840926592 113.432741584 0.136970447 238 242 0
5.842377223 113.336774713 0.128154634 237 245 0
5.838933655 113.238520152 0.132804354 238 244 0
5.832547230 113.138894015 0.145551559 240 239 0
5.828682880 113.040447689 0.151361575 240 238 0
5.831822667 112.945266399 0.137903247 238 242 0
5.835173179 112.850179878 0.123866161 237 246 0
5.831701400 112.751916697 0.128599713 237 245 0
5.824650222 112.651991702 0.143182387 239 240 0
5.817652406 112.552095876 0.157619717 241 236 0
5.812725470 112.453165255 0.166360899 242 234 0
5.811417825 112.355915346 0.165145594 242 234 0
5.814235454 112.260576426 0.152581411 241 237 0
5.816469360 112.164964253 0.141624271 239 241 0
5.527667252 92.125167165 -0.029327221 87 255 64
5.520410115 92.025654889 -0.013896070 106 255 56
5.504844993 91.922956701 0.024433911 149 255 36
5.498713368 91.823888698 0.036766169 164 255 30
5.499014051 91.727289858 0.031371657 160 255 32
5.499822221 91.630884255 0.024579568 149 255 36
5.500398990 91.534388674 0.018426360 142 255 40
5.501015982 91.437907177 0.012163402 135 255 43
5.501662166 91.341435507 0.005821100 127 255 46
5.500683736 91.244342903 0.003957697 127 255 46
5.496642274 91.146083177 0.010537927 135 255 43
5.490829555 91.047151493 0.022001521 149 255 36
5.488341783 90.949487656 0.024302001 149 255 36
5.490499454 90.853589488 0.013799462 138 255 41
5.490529564 90.756881463 0.009162223 131 255 44
5.488328809 90.659326841 0.010675164 135 255 43
5.484066063 90.560992119 0.017872950 142 255 40
5.479014630 90.462361392 0.027245991 153 255 35
5.475249930 90.364219993 0.033073618 160 255 32
5.473151606 90.266709805 0.034309284 164 255 30
5.473855754 90.170257473 0.027821276 153 255 35
5.477480740 90.074904410 0.013283149 138 255 41
5.479066170 89.978779967 0.004368045 127 255 46
5.476316889 89.881023336 0.007402733 131 255 44
5.471867316 89.782629172 0.015125605 138 255 41
5.476223292 89.687542330 -0.001423255 120 255 49
5.474562868 89.590195623 -0.001386447 120 255 49
5.474945738 89.493614646 -0.006980981 113 255 52
5.476332960 89.397408334 -0.015343020 102 255 57
5.478685910 89.301561104 -0.026366146 91 255 62
5.477921377 89.204547149 -0.028794369 87 255 64
5.472128297 89.105657136 -0.017359278 102 255 57
5.466299556 89.006757391 -0.005824491 116 255 51
5.462146494 88.908485037 0.001092287 124 255 48
5.459751986 88.810868986 0.003162476 124 255 48
5.459889736 88.714194676 -0.001746968 120 255 49
5.461555118 88.618086375 -0.010866652 109 255 54
5.460522871 88.520975817 -0.012548391 106 255 56
5.455621112 88.422432045 -0.003561320 116 255 51
5.450209198 88.323702401 0.006833532 131 255 44
5.446784920 88.225710684 0.011750071 135 255 43
5.444197242 88.128029631 0.014361462 138 255 41
5.442089979 88.030526908 0.015649636 138 255 41
5.443269419 87.934236014 0.007877758 131 255 44
5.449343793 87.839745187 -0.013388214 106 255 56
5.458662515 87.746441902 -0.043597913 69 255 72
5.466207658 87.652479205 -0.068917067 40 255 84
5.463961639 87.554917025 -0.067240901 44 255 83
5.455736361 87.455163867 -0.049078392 62 255 75
5.448218156 87.355675044 -0.032863830 84 255 65
5.443204188 87.257107185 -0.023552222 95 255 60
5.442151007 87.159989716 -0.025159611 91 255 62
5.444753226 87.064206641 -0.036844258 76 255 68
5.447345235 86.968417032 -0.048499718 66 255 73
5.447871019 86.871871900 -0.054457199 58 255 76
5.445285767 86.774193374 -0.051835822 62 255 75
5.439886318 86.675492911 -0.041453832 73 255 70
5.433046730 86.576272716 -0.027099656 91 255 62
5.425528013 86.476810509 -0.010871505 109 255 54
5.418298309 86.377457916 0.004561224 127 255 46
5.412876863 86.278764606 0.015009476 138 255 41
5.411231826 86.181440282 0.015046277 138 255 41
5.412444099 86.085148608 0.007205671 131 255 44
5.413116286 85.988660276 0.000855375 124 255 48
5.411936886 85.891503104 -0.000388254 120 255 49
5.410878977 85.794389749 -0.001965696 120 255 49
5.413060332 85.698441663 -0.012474019 106 255 56
5.416225882 85.602844771 -0.025695166 91 255 62
5.417109012 85.506425298 -0.032621581 84 255 65
5.416801864 85.409577490 -0.036264708 80 255 67
5.416572665 85.312757009 -0.040121626 73 255 70
5.415683598 85.215699745 -0.042157786 73 255 70
5.412411881 85.117790621 -0.037622469 76 255 68
5.407431312 85.019272954 -0.028373577 87 255 64
5.403457251 84.921117265 -0.021898881 95 255 60
5.401151067 84.823558070 -0.020022259 98 255 59
5.397858263 84.725648619 -0.015423650 102 255 57
5.389746517 84.626027403 0.002465284 124 255 48
5.376816235 84.524700055 0.033643759 160 255 32
5.378713515 84.428642580 0.023933743 149 255 36
5.381503822 84.332899347 0.011762054 135 255 43
5.381304900 84.236094850 0.007834954 131 255 44
5.385699334 84.140914183 -0.008758437 113 255 52
5.385497707 84.044105635 -0.012675875 106 255 56
5.380170477 83.945487569 -0.002456698 120 255 49
5.383354871 83.849873281 -0.015709826 102 255 57
5.383813114 83.753295749 -0.021443611 95 255 60
5.381446810 83.655723469 -0.019386523 98 255 59
5.386377418 83.560716186 -0.037452327 76 255 68
5.386686840 83.464082275 -0.042772346 73 255 70
5.383994956 83.366394973 -0.039813822 73 255 70
5.388501415 83.271230075 -0.056706773 55 255 78
5.382959206 83.172545254 -0.045884765 69 255 72
5.378114333 83.074107530 -0.036984634 76 255 68
5.376029729 82.976636289 -0.035696039 80 255 67
5.375321262 82.879645703 -0.038201664 76 255 68
5.372509506 82.781922163 -0.034905114 80 255 67
5.366578583 82.683114575 -0.023004380 95 255 60
5.360234891 82.584167199 -0.009963791 109 255 54
5.356346040 82.486076157 -0.003692562 116 255 51
5.355862731 82.389168380 -0.006813026 113 255 52
5.356638982 82.292696520 -0.013406413 106 255 56
5.356418360 82.195878265 -0.017249124 102 255 57
5.355320658 82.098756164 -0.018671515 98 255 59
5.355216777 82.001977250 -0.022833909 95 255 60
5.357761471 81.906111158 -0.034300593 80 255 67
5.362827277 81.811110952 -0.052720148 58 255 76
5.368114605 81.716182315 -0.071749776 36 255 86
5.369761883 81.619997444 -0.080738094 25 255 91
5.367141429 81.522344940 -0.077953535 29 255 89
5.363969070 81.424504291 -0.073645375 36 255 86
5.364097103 81.327796101 -0.078439651 29 255 89
5.364159953 81.231064685 -0.083052987 22 255 92
5.358125443 81.132247804 -0.070846160 36 255 86
5.352099645 81.033437667 -0.058661966 51 255 80
5.346770092 80.934868799 -0.048396939 66 255 73
5.341164142 80.836208983 -0.037368112 76 255 68
5.335622784 80.737574597 -0.026516084 91 255 62
5.331082699 80.639284024 -0.018424715 98 255 59
5.328966304 80.541819187 -0.017017871 102 255 57
5.330272022 80.445516015 -0.025049916 91 255 62
5.332597050 80.349556423 -0.035892720 80 255 67
5.332985783 80.252938879 -0.041393011 73 255 70
5.330954597 80.155502084 -0.040216531 73 255 70
5.329421958 80.058234380 -0.040414141 73 255 70
5.330829407 79.961958795 -0.048721262 66 255 73
5.332230128 79.865679059 -0.057008738 55 255 78
5.330527515 79.768352969 -0.056733950 55 255 78
5.324989534 79.669737964 -0.045877228 69 255 72
5.316581670 79.570162631 -0.027101851 91 255 62
5.308056860 79.470553649 -0.008002345 113 255 52
5.303956623 79.372432768 -0.001107813 120 255 49
5.307194688 79.276770071 -0.014456971 106 255 56
5.312932853 79.181939846 -0.034702461 80 255 67
5.316283958 79.086307395 -0.048361493 66 255 73
5.314945150 78.989107380 -0.049080666 62 255 75
5.311167123 78.891094957 -0.043069108 69 255 72
5.308019583 78.793294399 -0.038795710 76 255 68
5.305684194 78.695765370 -0.036761709 76 255 68
5.303155034 78.598172972 -0.034191869 80 255 67
5.298860714 78.499996316 -0.026750754 91 255 62
5.292044083 78.400986611 -0.012349276 106 255 56
5.284967525 78.301895277 0.002770773 124 255 48
5.282032502 78.204177227 0.006465604 127 255 46
5.282706706 78.107652022 0.000203623 120 255 49
5.282006094 78.010672185 -0.002264016 120 255 49
5.287281488 77.915660234 -0.021218873 98 255 59
5.283887833 77.817791657 -0.016253871 102 255 57
5.284991924 77.721402739 -0.023697493 95 255 60
5.281104522 77.623373947 -0.017367699 102 255 57
5.285736429 77.528140132 -0.034542898 80 255 67
5.287700321 77.432028363 -0.044355555 69 255 72
5.286036369 77.334727760 -0.044157143 69 255 72
5.281335382 77.236435468 -0.035577623 80 255 67
5.283878540 77.140509726 -0.046985232 66 255 73
5.278939683 77.042142686 -0.037746844 76 255 68
5.275479410 76.944259937 -0.032586970 84 255 65
5.274103417 76.847056742 -0.033177007 84 255 65
5.275369181 76.750711781 -0.041055350 73 255 70
5.277690215 76.654707383 -0.051844468 62 255 75
5.279790493 76.558628883 -0.062023385 47 255 81
5.281496496 76.462420377 -0.071113284 36 255 86
5.281294265 76.365592911 -0.074936492 33 255 88
5.277233801 76.267519046 -0.068112004 40 255 84
5.270784587 76.168677090 -0.054694550 58 255 76
5.264757548 76.069975225 -0.042440671 73 255 70
5.259715438 75.971594029 -0.032903315 84 255 65
5.255706889 75.873548008 -0.026216743 91 255 62
5.253349469 75.776034210 -0.024085229 95 255 60
5.253289276 75.679257891 -0.028291822 87 255 64
5.255436701 75.583187735 -0.038589375 76 255 68
5.258863924 75.487524472 -0.052417601 58 255 76
5.262203054 75.391829657 -0.066001714 44 255 83
5.263889498 75.295604162 -0.075023994 33 255 88
5.262872012 75.198514845 -0.076583277 33 255 88
5.259402504 75.100644979 -0.071374584 36 255 86
5.253940682 75.002143518 -0.060666419 51 255 80
5.247674701 74.903390042 -0.047737632 66 255 73
5.243642590 74.805349061 -0.040972352 73 255 70
5.244077728 74.708725554 -0.046534317 66 255 73
5.246783021 74.612819229 -0.058360290 51 255 80
5.248945656 74.516738545 -0.068687595 40 255 84
5.248974668 74.419981925 -0.073125425 36 255 86
5.245994831 74.322275867 -0.069258176 40 255 84
5.240146274 74.223667930 -0.057472393 55 255 78
5.233864532 74.124927397 -0.044489690 69 255 72
5.230234048 74.027023693 -0.038822800 76 255 68
5.229782703 73.930119418 -0.041928809 73 255 70
5.230013985 73.833428604 -0.046917668 66 255 73
5.229235626 73.736420804 -0.049118821 62 255 75
5.229430005 73.639716887 -0.054003542 58 255 76
5.231476007 73.543590160 -0.063997611 47 255 81
5.234227781 73.447681173 -0.075938559 33 255 88
5.235271069 73.351237149 -0.083162981 22 255 92
5.232695001 73.253665582 -0.080396665 25 255 91
5.228058338 73.155454928 -0.071941699 36 255 86
5.225472272 73.057883365 -0.069145256 40 255 84
5.224846965 72.960920709 -0.071759500 36 255 86
5.222373285 72.863385530 -0.069270807 40 255 84
5.216521563 72.764806981 -0.057456935 55 255 78
5.210285097 72.666113272 -0.044579715 69 255 72
5.207719240 72.568555633 -0.041832729 73 255 70
5.207652150 72.471768890 -0.045981651 66 255 73
5.208151649 72.375155724 -0.051693351 62 255 75
5.211478455 72.279410177 -0.065208032 44 255 83
5.218508924 72.184797982 -0.088944836 18 255 94
5.225843088 72.090272730 -0.113519038 0 253 111
5.230520332 71.994927695 -0.130758437 0 250 129
4.845653609 51.954132506 0.065764095 200 255 14
4.859143920 51.860405295 0.024388818 149 255 36
4.873282067 51.766814035 -0.018776512 98 255 59
4.873132073 51.669974300 -0.022444809 95 255 60
4.865334427 51.571404280 -0.004971595 116 255 51
4.857164077 51.472755286 0.013533327 138 255 41
4.851109583 51.374588673 0.026190768 153 255 35
4.847311339 51.276933614 0.032612506 160 255 32
4.844744353 51.179557272 0.035631875 164 255 30
4.843560001 51.082492187 0.034830343 164 255 30
4.844766982 50.985962602 0.027419382 153 255 35
4.849337994 50.890183176 0.010709925 135 255 43
4.854888833 50.794618110 -0.008707212 113 255 52
4.855821724 50.698019471 -0.015357279 102 255 57
4.852029272 50.600368664 -0.008943147 109 255 54
4.847558409 50.502569395 -0.000652274 120 255 49
4.845439509 50.405293937 0.001137883 124 255 48
4.844916055 50.308372252 -0.001481392 120 255 49
4.843873609 50.211335592 -0.002664726 120 255 49
4.842159036 50.114150793 -0.001988741 120 255 49
4.842175682 50.017347512 -0.006097642 113 255 52
4.845017692 49.921164133 -0.018016389 102 255 57
4.847089456 49.824808903 -0.027804654 87 255 64
4.844048004 49.727331944 -0.023455686 95 255 60
4.838084169 49.629217884 -0.011026095 109 255 54
4.832667539 49.531226982 -0.000107980 120 255 49
4.828419860 49.433494013 0.007579693 131 255 44
4.824847422 49.335910310 0.013401822 138 255 41
4.821380074 49.238351372 0.018934677 146 255 38
4.818056459 49.140825448 0.024071421 149 255 36
4.815205691 49.043403546 0.027902121 153 255 35
4.812843157 48.946088446 0.030384208 156 255 33
4.810814591 48.848846347 0.031944172 160 255 32
4.809829775 48.751829546 0.030619578 156 255 33
4.809744198 48.655005819 0.026809918 153 255 35
4.808518568 48.557937027 0.026153486 153 255 35
4.803554619 48.460068547 0.035834202 164 255 30
4.796521509 48.361761154 0.051237242 182 255 22
4.794475471 48.264521599 0.052852897 186 255 20
4.798172758 48.168505120 0.038589919 167 255 28
4.801673057 48.072443205 0.024872623 149 255 36
4.798661030 47.974996886 0.029162652 156 255 33
4.793756522 47.877151510 0.038686593 167 255 28
4.793691884 47.780331735 0.034829653 164 255 30
4.795710869 47.683950700 0.025212625 153 255 35
4.793605754 47.586699118 0.026999919 153 255 35
4.785244986 47.488133765 0.046085596 175 255 25
4.784804488 47.391235429 0.043272671 171 255 27
4.780863330 47.293603679 0.050140518 182 255 22
4.779966423 47.196610428 0.048591993 178 255 24
4.779255640 47.099655925 0.046529992 175 255 25
4.778886331 47.002772307 0.043524943 171 255 27
4.779205459 46.906031303 0.038617420 167 255 28
4.778746989 46.809127957 0.035861224 164 255 30
4.776330552 46.711818708 0.038520332 167 255 28
4.773446128 46.614413797 0.042474750 171 255 27
4.773918006 46.517702837 0.037149499 164 255 30
4.778772663 46.421893390 0.019705962 146 255 38
4.783420802 46.326037019 0.002834490 124 255 48
4.785123396 46.229571945 -0.005890767 113 255 52
4.784489504 46.132626280 -0.008153887 113 255 52
4.777881652 46.034459107 0.006103970 127 255 46
4.773116028 45.936672105 0.015268858 138 255 41
4.771090542 45.839446036 0.016857652 142 255 40
4.766853025 45.741771085 0.024564717 149 255 36
4.760730209 45.643716076 0.037486641 167 255 28
4.756893608 45.546127974 0.044087643 175 255 25
4.757201145 45.449379713 0.039229677 167 255 28
4.758405188 45.352811328 0.031893624 160 255 32
4.756766129 45.255668735 0.032421121 160 255 32
4.751935659 45.157885181 0.041775557 171 255 27
4.746314960 45.059946022 0.053316671 186 255 20
4.743690111 44.962610241 0.056574109 189 255 19
4.746109271 44.866283727 0.045883487 175 255 25
4.749898762 44.770227936 0.031404241 160 255 32
4.750861994 44.673605827 0.024742176 149 255 36
4.748200245 44.576261927 0.028106350 153 255 35
4.743285317 44.478472443 0.037703120 167 255 28
4.739672517 44.380943686 0.043700039 175 255 25
4.738884116 44.283974904 0.041887020 171 255 27
4.738349546 44.187056007 0.039373169 167 255 28
4.737947362 44.090162808 0.036494351 164 255 30
4.738856341 43.993526680 0.029990449 156 255 33
4.740421245 43.897017675 0.021673582 146 255 38
4.740530431 43.800221902 0.017383894 142 255 40
4.739608156 43.703223870 0.015948083 142 255 40
4.738994667 43.606285957 0.013659430 138 255 41
4.737795865 43.509233901 0.012990777 138 255 41
4.734078592 43.411693104 0.019288829 146 255 38
4.727939103 43.313685096 0.032287499 160 255 32
4.722246814 43.215767481 0.044050665 175 255 25
4.718052973 43.118142614 0.051670728 182 255 22
4.715089900 43.020757225 0.055887973 186 255 20
4.713175380 42.923574882 0.057206313 189 255 19
4.713336870 42.826791485 0.052783873 182 255 22
4.717318850 42.730738639 0.037795506 167 255 28
4.723354617 42.635074406 0.017127567 142 255 40
4.725793482 42.538718915 0.006409347 127 255 46
4.722614331 42.441291655 0.011231299 135 255 43
4.716340864 42.343278369 0.024613265 149 255 36
4.711580597 42.245555926 0.033811116 160 255 32
4.709005646 42.148249730 0.036965707 164 255 30
4.705967860 42.050857363 0.041401740 171 255 27
4.700963772 41.953096102 0.051277880 182 255 22
4.696455654 41.855431149 0.059783460 193 255 17
4.696516199 41.758626114 0.055653117 186 255 20
4.700627044 41.662578703 0.040320457 167 255 28
4.704343599 41.566453707 0.026079458 153 255 35
4.703773461 41.469525687 0.023696965 149 255 36
4.700608510 41.372114422 0.028493236 156 255 33
4.699394917 41.275067229 0.027893013 153 255 35
4.700854738 41.178515703 0.019898877 146 255 38
4.703192958 41.082124769 0.009476033 131 255 44
4.703552311 40.985366026 0.004528195 127 255 46
4.701222436 40.888110891 0.007020471 131 255 44
4.699088834 40.790892850 0.008971038 131 255 44
4.701062921 40.694429173 -0.000440061 120 255 49
4.706700666 40.598633873 -0.019984709 98 255 59
4.707984729 40.502038208 -0.027484898 87 255 64
4.702713542 40.404245838 -0.016850226 102 255 57
4.696495554 40.306284498 -0.003595074 116 255 51
4.694122235 40.209025054 -0.000974189 120 255 49
4.692539719 40.111909909 -0.000539711 120 255 49
4.688275974 40.014310540 0.007313227 131 255 44
4.691530234 39.918069778 -0.005630218 116 255 51
4.685488856 39.820152550 0.007142817 131 255 44
4.677649739 39.721916263 0.024890508 149 255 36
4.667177097 39.623213172 0.049925105 182 255 22
4.659429929 39.525004779 0.067421323 200 255 14
4.659141889 39.428132797 0.064283473 197 255 16
4.662188643 39.331854173 0.051921107 182 255 22
4.664565600 39.235453429 0.041412792 171 255 27
4.667022866 39.139064348 0.030683373 156 255 33
4.671473264 39.043025306 0.014440954 138 255 41
4.674390318 38.946711368 0.002441617 124 255 48
4.671949724 38.849450515 0.005265626 127 255 46
4.665012522 38.751400254 0.020531111 146 255 38
4.657420381 38.653239638 0.037609945 167 255 28
4.652537318 38.555558247 0.047195195 178 255 24
4.650944974 38.458454566 0.047677527 178 255 24
4.650752872 38.361595363 0.044287074 175 255 25
4.649943807 38.264628259 0.042604709 171 255 27
4.648312827 38.167518400 0.043197502 171 255 27
4.646920394 38.070450323 0.043131508 171 255 27
4.645597332 37.973394531 0.042874779 171 255 27
4.641643502 37.875885534 0.049897889 182 255 22
4.636378884 37.778153360 0.060548911 193 255 17
4.632713450 37.680698867 0.066776682 200 255 14
4.629780928 37.583371899 0.070977907 204 255 12
4.626439796 37.485976601 0.076310925 211 255 9
4.622726084 37.388519585 0.082676069 218 255 6
4.620393844 37.291299595 0.085220169 222 255 4
4.622059086 37.194758965 0.076705024 211 255 9
4.626554246 37.098695436 0.060360950 193 255 17
4.630994865 37.002618497 0.044168794 175 255 25
4.631998806 36.905958165 0.037486604 167 255 28
4.627792064 36.808420050 0.045223079 175 255 25
4.622823525 36.710756569 0.055068687 186 255 20
4.619560246 36.613381583 0.060197233 193 255 17
4.616840976 36.516099186 0.063821777 197 255 16
4.613207617 36.418665783 0.069976833 204 255 12
4.609844293 36.321279287 0.075385973 211 255 9
4.607761138 36.224106944 0.077254114 211 255 9
4.605194788 36.126855465 0.080460491 215 255 8
4.600229868 36.029209156 0.090305085 229 255 1
4.594365018 35.931417633 0.102641167 233 252 0
4.588512346 35.833631829 0.114944901 235 248 0
4.582091762 35.735756615 0.128821458 237 245 0
4.583434819 35.639155539 0.121216386 236 246 0
4.580369825 35.541833278 0.125810132 237 246 0
4.583070026 35.445451277 0.114451908 235 249 0
4.589556156 35.349681425 0.092618423 229 255 1
4.585751597 35.252238202 0.099262177 233 253 0
4.585114174 35.155309163 0.097143082 233 254 0
4.588170917 35.058975683 0.084802579 222 255 4
4.582621350 34.961254275 0.096278839 233 254 0
4.578995904 34.863845216 0.102431897 233 252 0
4.576321479 34.766590467 0.105954487 234 251 0
4.574980822 34.669550085 0.105787395 234 251 0
4.574723988 34.572682706 0.102622220 233 252 0
4.574303666 34.475788766 0.099910630 233 253 0
4.572816404 34.378725151 0.100152783 233 253 0
4.569786519 34.281417812 0.104665120 233 252 0
4.565763591 34.183955270 0.111926825 235 249 0
4.563748713 34.086811250 0.113632756 235 249 0
4.564442619 33.990093529 0.107843596 234 251 0
4.564024718 33.893200287 0.105132403 233 252 0
4.560362623 33.795799451 0.111400475 234 250 0
4.555842814 33.698266897 0.120043499 236 247 0
4.554914579 33.601295744 0.118748244 236 247 0
4.556839524 33.504767293 0.109558032 234 250 0
4.557308675 33.408011257 0.104397821 233 252 0
4.556072786 33.310990815 0.103957469 233 252 0
4.554777890 33.213961466 0.103681613 233 252 0
4.554354393 33.117066236 0.100995308 233 253 0
4.554493553 33.020256806 0.096752973 233 254 0
4.553555692 32.923281844 0.095492528 232 255 0
4.550950395 32.826052544 0.098848051 233 254 0
4.546781863 32.728586667 0.106531241 234 251 0
4.542323344 32.631079209 0.115018294 235 248 0
4.537953621 32.533587836 0.123260889 236 246 0
4.532735955 32.435971019 0.133851597 238 243 0
4.528624730 32.338524052 0.141381346 239 241 0
4.529879569 32.241885519 0.134060728 238 243 0
4.537317960 32.146171757 0.109626924 234 250 0
4.544323466 32.050386853 0.086392159 222 255 4
4.539982951 31.952904514 0.094561184 232 255 0
4.534272099 31.855220980 0.106524262 234 251 0
4.621842792 28.671245854 -0.262071065 0 229 255
4.585430007 28.472534830 -0.168879846 0 244 165
4.575999833 28.374383204 -0.146576762 0 248 144
4.572037141 28.276973651 -0.139407956 0 249 138
4.570051370 28.179831595 -0.137710653 0 249 135
4.558518102 27.984541017 -0.113378766 0 253 111
4.547228521 27.886166545 -0.085921153 22 255 92
4.536190508 27.787833306 -0.059158451 51 255 80
4.529367280 27.690065160 -0.044062540 69 255 72
4.525793279 27.592729946 -0.037960554 76 255 68
4.522209686 27.495395441 -0.031830747 84 255 65
4.518117880 27.397996282 -0.024292706 95 255 60
4.514350347 27.300641878 -0.017651128 102 255 57
4.510270522 27.203248886 -0.010143700 109 255 54
4.503093293 27.105455710 0.005940246 127 255 46
4.500777728 27.008297224 0.008565861 131 255 44
4.490863933 26.910158082 0.032228835 160 255 32
4.486022736 26.812679177 0.041849415 171 255 27
4.482837995 26.715415952 0.046885249 178 255 24
4.480237506 26.618229212 0.050304770 182 255 22
4.479985614 26.521343536 0.047223138 178 255 24
4.478508959 26.424301396 0.047533592 178 255 24
4.472233565 26.326650648 0.061131293 193 255 17
4.464338195 26.228798973 0.079215534 215 255 8
4.456802927 26.130997993 0.096304171 233 254 0
4.450576159 26.033366563 0.109771349 234 250 0
4.447007236 25.936072355 0.115881034 235 248 0
4.446431453 25.839154232 0.113704756 235 249 0
4.448411393 25.742554254 0.104453475 233 252 0
4.451867047 25.646135323 0.091117374 229 255 1
4.453893168 25.549535947 0.081740391 218 255 6
4.452210321 25.452476338 0.082633880 218 255 6
4.446539447 25.354926404 0.094570677 232 255 0
4.437533652 25.256970854 0.115742640 235 248 0
4.426903961 25.158822796 0.141412378 239 241 0
4.419248370 25.061044745 0.158848724 242 235 0
4.420285301 24.964328375 0.152217879 241 237 0
4.426783249 24.868272158 0.130467160 238 244 0
4.433029085 24.772179756 0.109415485 234 250 0
4.435856299 24.675670198 0.097830685 233 254 0
4.433684644 24.578557738 0.100088514 233 253 0
4.428825866 24.481124688 0.109788079 234 250 0
4.423614553 24.383652547 0.120465109 236 247 0
4.418678750 24.286216379 0.130380570 238 244 0
4.414955718 24.188926926 0.136939166 238 242 0
4.412965801 24.091844257 0.138699998 238 242 0
4.411681637 23.994845433 0.138507787 238 242 0
4.410128394 23.897815253 0.139061856 238 242 0
4.407818225 23.800696963 0.141713100 239 241 0
4.403957998 23.703398969 0.148657805 240 238 0
4.399769994 23.606065075 0.156511426 241 236 0
4.400942885 23.509354503 0.149521398 240 238 0
4.406781735 23.413180884 0.129611853 237 245 0
4.409963209 23.316696299 0.117061939 235 248 0
4.408389146 23.219663201 0.117681904 236 247 0
4.406412111 23.122584488 0.119418962 236 247 0
4.406594110 23.025752449 0.115178467 235 248 0
4.406586866 22.928898023 0.111463167 234 250 0
4.404057713 22.831757509 0.114732728 235 248 0
4.403690976 22.734861996 0.112015286 235 249 0
4.405905318 22.638256049 0.102151366 233 253 0
4.407957948 22.541629535 0.092736354 229 255 1
4.409260996 22.444917026 0.085398231 222 255 4
4.408639953 22.347988742 0.083389583 218 255 6
4.405683965 22.250801350 0.087848276 226 255 3
4.402183116 22.153555267 0.093817104 232 255 0
4.400620818 22.056524496 0.094418690 232 255 0
4.401145508 21.959723096 0.089241877 226 255 3
4.403592234 21.863130641 0.078743379 215 255 8
4.403160671 21.766222007 0.076217031 211 255 9
4.393440338 21.668304626 0.099416119 233 253 0
4.384400999 21.570467577 0.120730719 236 247 0
4.372554417 21.472334092 0.149821231 240 238 0
4.365895749 21.374766110 0.164545615 242 234 0
4.363630120 21.277672610 0.167104993 243 233 0
4.364404699 21.180904286 0.161245795 242 234 0
4.366232967 21.084246568 0.152469541 241 237 0
4.367774954 20.987556378 0.144487243 239 240 0
4.368115506 20.890737501 0.139833451 239 241 0
4.366779961 20.793741425 0.139822810 239 241 0
4.365343975 20.696735087 0.140091537 239 241 0
4.366498317 20.599999371 0.133187370 238 243 0
4.370000220 20.503506068 0.119782565 236 247 0
4.372159156 20.406870216 0.110098284 234 250 0
4.370273364 20.309814540 0.111617405 235 249 0
4.366706132 20.212586664 0.117794684 236 247 0
4.364721362 20.115522849 0.119590377 236 247 0
4.364073308 20.018596200 0.117685037 236 247 0
4.361643335 19.921488117 0.120716194 236 247 0
4.356135085 19.824069343 0.132274430 238 244 0
4.349139328 19.726503923 0.147953938 240 239 0
4.344868408 19.629216993 0.156087782 241 236 0
4.347004095 19.532574112 0.146478318 240 239 0
4.352445392 19.436258588 0.127714246 237 245 0
4.354928702 19.339644190 0.117144087 235 248 0
4.353770152 19.242666617 0.116662132 235 248 0
4.353476563 19.145774458 0.113785602 235 249 0
4.356802885 19.049237327 0.100883797 233 253 0
4.361235621 18.952805142 0.084918490 222 255 4
4.362657242 18.856075335 0.077294482 211 255 9
4.358413057 18.758793648 0.085364975 222 255 4
4.353250318 18.661425622 0.095981016 232 255 0
4.350106110 18.564255192 0.101007284 233 253 0
4.348013556 18.467187289 0.103121829 233 252 0
4.345294651 18.370060374 0.106972521 234 251 0
4.340372477 18.272725097 0.116927328 235 248 0
4.334379975 18.175291372 0.129848173 237 245 0
4.331132663 18.078120614 0.135166307 238 243 0
4.332954435 17.981428163 0.126444486 237 246 0
4.336450556 17.884890331 0.113085853 235 249 0
4.334396346 17.787831473 0.115102663 235 248 0
4.327970806 17.690367451 0.129229311 237 245 0
4.323026739 17.593044599 0.139253587 238 242 0
4.324727555 17.496336796 0.130872559 238 244 0
4.331893042 17.400128164 0.107355199 234 251 0
4.337564947 17.303776858 0.087976123 226 255 3
4.338585083 17.206997331 0.081483813 218 255 6
4.334835372 17.109784227 0.088205550 226 255 3
4.328874160 17.012373764 0.101054651 233 253 0
4.325011422 16.915155561 0.108092047 234 251 0
4.324346440 16.818225516 0.106272475 234 251 0
4.323536715 16.721282325 0.104855031 233 252 0
4.319851069 16.624084001 0.111405553 234 250 0
4.314681970 16.526756772 0.122066777 236 246 0
4.310281272 16.429500272 0.130600682 238 244 0
4.305753602 16.332235261 0.139487608 239 241 0
4.301070379 16.234959395 0.148806741 240 238 0
4.301560091 16.138135098 0.143796847 239 240 0
4.306861726 16.041725254 0.125457810 237 246 0
4.310805685 15.945193846 0.110880915 234 250 0
4.311782749 15.848404683 0.104524213 233 252 0
4.310283275 15.751402956 0.105029394 233 252 0
4.306196662 15.654182125 0.112702960 235 249 0
4.301058491 15.556874846 0.123290967 236 246 0
4.297604277 15.459712306 0.129215129 237 245 0
4.297068581 15.362795891 0.127055191 237 245 0
4.297502482 15.265959893 0.122210271 236 246 0
4.296456832 15.169000106 0.121465424 236 246 0
4.293941032 15.071919005 0.124794671 237 246 0
4.300079015 14.975550046 0.104150538 233 252 0
4.296778297 14.878403763 0.109656665 234 250 0
4.293921215 14.781295349 0.113934970 235 249 0
4.292807855 14.684329615 0.113383594 235 249 0
4.292424924 14.587422859 0.110809766 234 250 0
4.290941544 14.490427323 0.111285882 234 250 0
4.288103218 14.393323946 0.115517079 235 248 0
4.286121462 14.296290055 0.117376362 235 248 0
4.286647246 14.199455253 0.112289630 235 249 0
4.288050493 14.102688352 0.104772980 233 252 0
4.287690895 14.005781521 0.102141517 233 253 0
4.284444001 13.908649136 0.107510686 234 251 0
4.279197738 13.811363383 0.118420536 236 247 0
4.274623802 13.714132771 0.127468940 237 245 0
4.271137210 13.616988403 0.133506008 238 243 0
4.269853167 13.520014252 0.133441866 238 243 0
4.271561912 13.423267877 0.125086940 237 246 0
4.276635198 13.326773967 0.107411111 234 251 0
4.285815695 13.230584560 0.078356556 215 255 8
4.295459300 13.134422039 0.048019800 178 255 24
4.291259767 13.037219981 0.056039104 189 255 19
4.293557696 12.940501979 0.046057072 175 255 25
4.282900440 12.842826135 0.071971424 207 255 11
4.275072624 12.745365239 0.090047599 229 255 1
4.273167186 12.648341751 0.091715662 229 255 1
4.275514863 12.551627697 0.081600510 218 255 6
4.278411159 12.454950693 0.069966339 204 255 12
4.279588975 12.358147271 0.063094810 197 255 16
4.279111647 12.261223931 0.060810494 193 255 17
4.276355865 12.164138278 0.064840549 197 255 16
4.271232355 12.066886619 0.075432440 211 255 9
4.260680752 11.969256541 0.101066120 233 253 0
4.248687028 11.871532948 0.130697222 238 244 0
4.246341625 11.774488620 0.133595366 238 243 0
4.062523155 -4.610251468 0.051396564 182 255 22
4.042444944 -8.294370245 -0.021388687 95 255 60
4.042687777 -8.391335837 -0.025420358 91 255 62
4.041719557 -8.488289650 -0.026091859 91 255 62
4.036822209 -8.585200641 -0.015864164 102 255 57
4.028922654 -8.682074760 0.002691921 124 255 48
4.022256098 -8.778957996 0.017829426 142 255 40
4.018657176 -8.875873888 0.024459590 149 255 36
4.016888226 -8.972810566 0.026015201 153 255 35
4.014921922 -9.069744136 0.028119412 153 255 35
4.013526541 -9.166684519 0.028641242 156 255 33
4.015532484 -9.263670838 0.019729875 146 255 38
4.019262659 -9.360683569 0.006037031 127 255 46
4.022579520 -9.457694006 -0.006508306 113 255 52
4.023487193 -9.554672251 -0.012370031 106 255 56
4.022910070 -9.651629515 -0.014112118 106 255 56
4.022902440 -9.748595948 -0.017432693 102 255 57
4.022658592 -9.845559401 -0.020096889 98 255 59
4.019885810 -9.942482290 -0.015745119 102 255 57
4.012720153 -10.039330656 0.000792974 124 255 48
4.012880837 -10.136299157 -0.002989738 116 255 51
4.007466059 -10.233171412 0.008694240 131 255 44
4.012878766 -10.330233110 -0.009654527 109 255 54
4.011087859 -10.427168695 -0.008020298 113 255 52
4.012076596 -10.524155318 -0.014095306 106 255 56
4.006320905 -10.621015617 -0.001460783 120 255 49
4.002770114 -10.717914929 0.005058827 127 255 46
4.004315128 -10.814912812 -0.002555726 120 255 49
4.011519610 -10.912026464 -0.025868183 91 255 62
4.014745276 -11.009064887 -0.038142603 76 255 68
4.020108443 -11.106151185 -0.056345280 55 255 78
4.020933851 -11.203145909 -0.061959313 47 255 81
4.019551293 -11.300094262 -0.061447350 47 255 81
4.018271316 -11.397044594 -0.061218756 51 255 80
4.017353124 -11.494002833 -0.061992571 47 255 81
4.017238586 -11.590979465 -0.064994560 44 255 83
4.016629067 -11.687945318 -0.066622298 44 255 83
4.009999276 -11.784769652 -0.051548376 62 255 75
4.004720517 -11.881622030 -0.040220973 73 255 70
3.996947126 -11.978410457 -0.021971995 95 255 60
3.993360847 -12.075297164 -0.015337067 102 255 57
3.990813716 -12.172207976 -0.011583590 109 255 54
3.989745437 -12.269155292 -0.011931393 109 255 54
3.991859847 -12.366184873 -0.021107172 98 255 59
3.996249240 -12.463276560 -0.036592937 80 255 67
3.999848240 -12.560351348 -0.049884983 62 255 75
3.998649338 -12.657300085 -0.049865851 62 255 75
3.994281240 -12.754161869 -0.041053670 73 255 70
3.994004158 -12.851134720 -0.043589425 69 255 72
3.999299502 -12.948265061 -0.061582959 47 255 81
4.006531828 -13.045455534 -0.084949015 22 255 92
4.012405050 -13.142613019 -0.104543632 0 255 102
4.009029692 -13.239504707 -0.098479675 4 255 100
4.010606498 -13.336541639 -0.106152907 0 254 105
4.006615675 -13.433413099 -0.098379092 7 255 99
4.006141621 -13.530389405 -0.100360422 4 255 100
4.002577302 -13.627270812 -0.093767382 11 255 97
4.003608907 -13.724293788 -0.099923455 4 255 100
4.003122290 -13.821270343 -0.101866415 0 255 102
3.998082288 -13.918101621 -0.091175759 15 255 96
3.991104300 -14.014867066 -0.075107246 33 255 88
3.985321971 -14.111667113 -0.062354552 47 255 81
3.982000145 -14.208545062 -0.056426825 55 255 78
3.982710228 -14.305556431 -0.061683792 47 255 81
3.987696611 -14.402714147 -0.078803612 29 255 89
3.994172615 -14.499927557 -0.100055138 4 255 100
3.998741284 -14.597080571 -0.116013972 0 253 114
3.999338344 -14.694098615 -0.120952962 0 252 120
3.996323026 -14.790989851 -0.115868624 0 253 114
3.991529499 -14.887815844 -0.105849571 0 254 105
3.987685875 -14.984673342 -0.098464682 4 255 100
3.987790035 -15.081673151 -0.102031431 0 255 102
3.989403322 -15.178729631 -0.109784020 0 254 108
3.986343663 -15.275613530 -0.104570588 0 255 102
3.979788553 -15.372363920 -0.089657890 15 255 96
3.973641385 -15.469125618 -0.075875707 33 255 88
3.969557117 -15.565962837 -0.067815732 40 255 84
3.967667855 -15.662883086 -0.065844574 44 255 83
3.967334458 -15.759863786 -0.068188999 40 255 84
3.967361067 -15.856859293 -0.071531110 36 255 86
3.967313926 -15.953852649 -0.074667441 33 255 88
3.968596249 -16.050900505 -0.081491290 25 255 91
3.971637244 -16.148021909 -0.093193558 11 255 97
3.971928153 -16.245033126 -0.097264414 7 255 99
3.965991102 -16.341786372 -0.084054088 22 255 92
3.957831360 -16.438442567 -0.064675378 44 255 83
3.951900195 -16.535187667 -0.051478756 62 255 75
3.950794396 -16.632135205 -0.051669434 62 255 75
3.953754103 -16.729257971 -0.063139245 47 255 81
3.955818165 -16.826344830 -0.072122859 36 255 86
3.954230946 -16.923273820 -0.070974300 36 255 86
3.951495436 -17.020151544 -0.066638417 44 255 83
3.951437977 -17.117147531 -0.069732059 40 255 84
3.954772576 -17.214297018 -0.082236467 25 255 91
3.959582889 -17.311516872 -0.098834454 4 255 100
3.963936123 -17.408720264 -0.114163119 0 253 114
3.966839130 -17.505860799 -0.125466743 0 251 123
3.967122831 -17.602882365 -0.129501395 0 250 129
3.963592279 -17.699725841 -0.122951320 0 252 120
3.957197545 -17.796431812 -0.108452592 0 254 108
3.950651123 -17.893126421 -0.093531655 11 255 97
3.946115198 -17.989913504 -0.084188100 22 255 92
3.943206761 -18.086776804 -0.079359229 29 255 89
3.939917998 -18.183620068 -0.073473803 36 255 86
3.935339681 -18.280398076 -0.064008864 47 255 81
3.930819001 -18.377176217 -0.054702594 58 255 76
3.930603511 -18.474167026 -0.057341294 55 255 78
3.934398465 -18.571360601 -0.071107231 36 255 86
3.937745589 -18.668535127 -0.083629422 22 255 92
3.937269612 -18.765517366 -0.085541904 22 255 92
3.932285747 -18.862267614 -0.074944339 33 255 88
3.925971409 -18.958945718 -0.060653576 51 255 80
3.923642356 -19.055828284 -0.057420320 55 255 78
3.928355929 -19.153081044 -0.073728592 36 255 86
3.934125312 -19.250394258 -0.092965599 11 255 97
3.936927425 -19.347554010 -0.103967569 0 255 102
3.935693383 -19.444499316 -0.103768313 0 255 102
3.929784397 -19.541190884 -0.090595078 15 255 96
3.921113672 -19.637727841 -0.069756785 40 255 84
3.915028804 -19.734401174 -0.056092850 55 255 78
3.912553230 -19.831270550 -0.052443416 58 255 76
3.919050865 -19.928639302 -0.073693524 36 255 86
3.917973025 -20.025588387 -0.073920510 33 255 88
3.917979913 -20.122598763 -0.077156469 29 255 89
3.919632501 -20.219703614 -0.084958159 22 255 92
3.915025517 -20.316451776 -0.075388080 33 255 88
3.917934510 -20.413630817 -0.086674065 18 255 94
3.919211983 -20.510718120 -0.093431366 11 255 97
3.916712764 -20.607586395 -0.089706892 15 255 96
3.911489616 -20.704293246 -0.078422035 29 255 89
3.916329498 -20.801592897 -0.095061908 11 255 97
3.913561588 -20.898443525 -0.090588198 15 255 96
3.915019460 -20.995546346 -0.097840364 7 255 99
3.918582393 -21.092778174 -0.110933242 0 253 111
3.916392617 -21.189663964 -0.108060407 0 254 108
3.917331978 -21.286740197 -0.113870227 0 253 111
3.914563427 -21.383589784 -0.109388816 0 254 108
3.918897214 -21.480877770 -0.124616472 0 251 123
3.912736759 -21.577516092 -0.110719514 0 254 108
3.904736077 -21.674035123 -0.091714249 15 255 96
3.896476165 -21.770532449 -0.071988213 36 255 86
3.888769757 -21.867059341 -0.053796925 58 255 76
3.883453378 -21.963733668 -0.042237217 73 255 70
3.881873043 -22.060644617 -0.041044714 73 255 70
3.882740892 -22.157713292 -0.046645387 66 255 73
3.885073731 -22.254878620 -0.056310673 55 255 78
3.888534977 -22.352120285 -0.069106502 40 255 84
3.891052687 -22.449303351 -0.079282651 29 255 89
3.890619060 -22.546293947 -0.081266830 25 255 91
3.886401534 -22.643033293 -0.072748318 36 255 86
3.878298003 -22.739510203 -0.053443600 58 255 76
3.870492937 -22.836001761 -0.034965880 80 255 67
3.866648998 -22.932756165 -0.027480360 87 255 64
3.867598199 -23.029834598 -0.033296325 84 255 65
3.871015878 -23.127083481 -0.045962106 69 255 72
3.872417781 -23.224197043 -0.053032242 58 255 76
3.871191557 -23.321130587 -0.052807156 58 255 76
3.869254773 -23.418014527 -0.050608789 62 255 75
3.868161024 -23.514956755 -0.050749001 62 255 75
3.867166056 -23.611905880 -0.051162190 62 255 75
3.863547906 -23.708669461 -0.044293713 69 255 72
3.858089877 -23.805300192 -0.032317502 84 255 65
3.855704006 -23.902147202 -0.028866677 87 255 64
3.856292575 -23.999207003 -0.033670130 80 255 67
3.855998160 -24.096204223 -0.036021729 80 255 67
3.855383664 -24.193178746 -0.037483778 76 255 68
3.855593853 -24.290213820 -0.041233577 73 255 70
3.856139716 -24.387274489 -0.045913891 69 255 72
3.855014729 -24.484213036 -0.045955567 69 255 72
3.851950213 -24.581007603 -0.040612827 73 255 70
3.848918979 -24.677803087 -0.035361238 80 255 67
3.846728796 -24.774660075 -0.032442815 84 255 65
3.845327065 -24.871575575 -0.031711592 84 255 65
3.845262321 -24.968592033 -0.034690100 80 255 67
3.846654600 -25.065720125 -0.041711550 73 255 70
3.847074259 -25.162775670 -0.046032264 66 255 73
3.845344739 -25.259667092 -0.044386540 69 255 72
3.844408519 -25.356619267 -0.044941527 69 255 72
3.845538013 -25.453731907 -0.051228999 62 255 75
3.845046253 -25.550719690 -0.053015311 58 255 76
3.838300528 -25.647217474 -0.037441609 76 255 68
3.828725355 -25.743487907 -0.014012982 106 255 56
3.822233383 -25.839995913 0.000859041 124 255 48
3.820985662 -25.936916991 0.001175934 124 255 48
3.823364501 -26.034127844 -0.008572239 113 255 52
3.825056133 -26.131286103 -0.016411814 102 255 57
3.823388446 -26.228175286 -0.014925729 106 255 56
3.819549375 -26.324887872 -0.007411268 113 255 52
3.817597984 -26.421752116 -0.005135284 116 255 51
3.821860434 -26.519124375 -0.020106197 98 255 59
3.830261069 -26.616841071 -0.046562648 66 255 73
3.836824275 -26.714413162 -0.067917811 40 255 84
3.837776207 -26.811525222 -0.073696285 36 255 86
3.834058325 -26.908249314 -0.066511202 44 255 83
3.829782584 -27.004924594 -0.057776375 55 255 78
3.825225716 -27.101573716 -0.048259939 66 255 73
3.817944983 -27.197989805 -0.031181276 84 255 65
3.815774885 -27.294835190 -0.028287583 87 255 64
3.811584028 -27.391507276 -0.019783365 98 255 59
3.815223483 -27.488848051 -0.033013732 84 255 65
3.816009933 -27.585946786 -0.038323450 76 255 68
3.819742857 -27.683301710 -0.051811072 62 255 75
3.818438121 -27.780222716 -0.051313644 62 255 75
3.815387942 -27.876991229 -0.045969859 66 255 73
3.814503265 -27.973947943 -0.046636084 66 255 73
3.816649161 -28.071171489 -0.055713755 55 255 78
3.819742182 -28.168481189 -0.067419454 44 255 83
3.788861933 -28.262777943 0.015183698 138 255 41
3.772074836 -28.358308358 0.058666864 189 255 19
3.579786001 -48.523212657 -0.030292836 87 255 64
3.587583235 -48.621644916 -0.054825614 58 255 76
3.588377796 -48.718894741 -0.059904515 51 255 80
3.585364882 -48.815497901 -0.054405392 58 255 76
3.580728149 -48.911822520 -0.044394193 69 255 72
3.577634826 -49.008408241 -0.038669257 76 255 68
3.577479197 -49.105495770 -0.041103878 73 255 70
3.577647219 -49.202639545 -0.044436420 69 255 72
3.576115694 -49.299491693 -0.043046521 69 255 72
3.574623789 -49.396350280 -0.041765494 73 255 70
3.575107803 -49.493550132 -0.045972354 66 255 73
3.576358265 -49.590883949 -0.052307245 58 255 76
3.576521654 -49.688030723 -0.055621104 55 255 78
3.575072010 -49.784897655 -0.054452788 58 255 76
3.573561146 -49.881753577 -0.053113214 58 255 76
3.574358822 -49.979012694 -0.058185633 55 255 78
3.576139518 -50.076445434 -0.065987764 44 255 83
3.575845562 -50.173516041 -0.068025294 40 255 84
3.571461854 -50.269867525 -0.058700133 51 255 80
3.560269611 -50.365015695 -0.030459223 87 255 64
3.546453301 -50.459692263 0.005072915 127 255 46
3.539834808 -50.555633902 0.020610358 146 255 38
3.539770235 -50.652734616 0.017941693 142 255 40
3.544388688 -50.750669142 0.002264290 124 255 48
3.550682427 -50.848906665 -0.018066132 102 255 57
3.555247297 -50.946840922 -0.033592491 84 255 65
3.557113430 -51.044296271 -0.041620353 73 255 70
3.557420677 -51.141474123 -0.045316299 69 255 72
3.558162411 -51.238731119 -0.050218151 62 255 75
3.559580418 -51.336111330 -0.056997633 55 255 78
3.560685988 -51.433436990 -0.062907975 47 255 81
3.559835562 -51.530410308 -0.063383115 47 255 81
3.557441950 -51.627103892 -0.059569859 51 255 80
3.558301194 -51.724387581 -0.064792390 44 255 83
3.559572417 -51.821747740 -0.071158320 36 255 86
3.556260667 -51.918273239 -0.064790759 44 255 83
3.548644400 -52.014009719 -0.046463189 66 255 73
3.540073564 -52.109566175 -0.025482326 91 255 62
3.538108649 -52.206330059 -0.022852825 95 255 60
3.541708299 -52.304117332 -0.035681734 80 255 67
3.546047609 -52.402044567 -0.050564475 62 255 75
3.547852695 -52.499507562 -0.058405444 51 255 80
3.546616805 -52.596409546 -0.057796703 55 255 78
3.544714513 -52.693187689 -0.055335351 55 255 78
3.544104672 -52.790205500 -0.056463569 55 255 78
3.545856837 -52.887663781 -0.064152899 47 255 81
3.548393551 -52.985270689 -0.074020784 33 255 88
3.547794147 -53.082293502 -0.075174524 33 255 88
3.544343430 -53.178782005 -0.068405319 40 255 84
3.539432068 -53.274994198 -0.057576787 55 255 78
3.535868890 -53.371457219 -0.050492679 62 255 75
3.533726005 -53.468186226 -0.047353371 66 255 73
3.528703864 -53.564370069 -0.036213358 80 255 67
3.527998183 -53.661368474 -0.037064668 76 255 68
3.539329054 -53.760651763 -0.071356432 36 255 86
3.545412456 -53.858946506 -0.091067896 15 255 96
3.543138032 -53.955653889 -0.087557311 18 255 94
3.535583551 -54.051352010 -0.069375622 40 255 84
3.529888660 -54.147400927 -0.056359272 55 255 78
3.530858552 -54.244724091 -0.061858953 47 255 81
3.535293368 -54.342714445 -0.076984380 29 255 89
3.537514724 -54.440282895 -0.085958847 22 255 92
3.535145898 -54.536968458 -0.082178826 25 255 91
3.533150720 -54.633725191 -0.079435754 29 255 89
3.535050170 -54.731235376 -0.087512376 18 255 94
3.538129029 -54.828976648 -0.098864760 4 255 100
3.539890820 -54.926464998 -0.106556642 0 254 105
3.540012697 -55.023636015 -0.109690995 0 254 108
3.538631408 -55.120514499 -0.108647724 0 254 108
3.535167812 -55.216985450 -0.101817679 0 255 102
3.527976996 -55.312724131 -0.084630482 22 255 92
3.527991836 -55.409872849 -0.087462695 18 255 94
3.525993998 -55.506626404 -0.084701566 22 255 92
3.526663351 -55.603904939 -0.089349993 15 255 96
3.534232823 -55.702547521 -0.113169177 0 253 111
3.540017578 -55.800843536 -0.132028466 0 250 129
3.538916062 -55.897779461 -0.131753153 0 250 129
3.531016814 -55.993364941 -0.112589086 0 253 111
3.529658834 -56.090247066 -0.111598769 0 253 111
3.522493102 -56.185970744 -0.094470262 11 255 97
3.518044573 -56.282232596 -0.084890326 22 255 92
3.515031092 -56.378779085 -0.079296498 29 255 89
3.513743528 -56.475670205 -0.078497019 29 255 89
3.513861151 -56.572843495 -0.081600753 25 255 91
3.512634093 -56.669746910 -0.080967035 25 255 91
3.508728593 -56.766109845 -0.072889879 36 255 86
3.505252400 -56.862557320 -0.066004362 44 255 83
3.503918795 -56.959436763 -0.065071009 44 255 83
3.504986689 -57.056803172 -0.070809283 36 255 86
3.509378599 -57.154846832 -0.085782544 22 255 92
3.516138963 -57.253376978 -0.107335713 0 254 105
3.521775278 -57.351683753 -0.125764501 0 251 123
3.522841750 -57.449061480 -0.131494321 0 250 129
3.520020893 -57.545644669 -0.126421537 0 251 126
3.518205002 -57.642432670 -0.124139984 0 251 123
3.518985159 -57.739753721 -0.129070740 0 251 126
3.517487640 -57.836607048 -0.127671470 0 251 126
3.511575322 -57.932549047 -0.114003775 0 253 114
3.505605066 -58.028475297 -0.100173826 4 255 100
3.505637301 -58.125640901 -0.103021626 0 255 102
3.510256440 -58.223759059 -0.118613832 0 252 117
3.514603452 -58.321824973 -0.133448778 0 250 132
3.516545512 -58.419394142 -0.141599978 0 249 138
3.514932621 -58.516223849 -0.139871880 0 249 138
3.510437394 -58.612450591 -0.130133406 0 250 129
3.503779791 -58.708221813 -0.114385051 0 253 114
3.496343320 -58.803825281 -0.096471154 7 255 99
3.490503190 -58.899759331 -0.082991792 25 255 91
3.487343718 -58.996254129 -0.076960054 29 255 89
3.488364540 -59.093629122 -0.082543127 25 255 91
3.495187003 -59.192231786 -0.104246439 0 255 102
3.504744899 -59.291419622 -0.133549792 0 250 132
3.510287275 -59.389763859 -0.151693879 0 247 150
3.509073256 -59.486677450 -0.151062352 0 247 150
3.505193539 -59.583023416 -0.143022235 0 248 141
3.501737416 -59.679457507 -0.136157974 0 249 135
3.499137638 -59.776072667 -0.131672112 0 250 129
3.496045597 -59.872581241 -0.125817140 0 251 123
3.491585102 -59.968794792 -0.116158270 0 253 114
3.485799984 -60.064721157 -0.102817267 0 255 102
3.479803296 -60.160598319 -0.088887090 18 255 94
3.474255723 -60.256568455 -0.076203672 33 255 88
3.470413275 -60.352903324 -0.068257300 40 255 84
3.469625693 -60.449896892 -0.068798752 40 255 84
3.472305494 -60.547642085 -0.078974433 29 255 89
3.476562227 -60.645732473 -0.093531079 11 255 97
3.477941577 -60.743201101 -0.100090712 4 255 100
3.474597323 -60.839642402 -0.093522838 11 255 97
3.469738625 -60.935751358 -0.082745263 25 255 91
3.466737369 -61.032263470 -0.077128107 29 255 89
3.466235837 -61.129321557 -0.078456253 29 255 89
3.467546573 -61.226777666 -0.084819371 22 255 92
3.468871025 -61.324238568 -0.091219456 15 255 96
3.466338963 -61.420852121 -0.086901407 18 255 94
3.458950310 -61.516393290 -0.069085982 40 255 84
3.454354083 -61.612546538 -0.059029282 51 255 80
3.454722194 -61.709795813 -0.062767033 47 255 81
3.456295017 -61.807313252 -0.069851472 40 255 84
3.456873754 -61.904611877 -0.074172232 33 255 88
3.456689132 -62.001741878 -0.076370477 33 255 88
3.457355284 -62.099062122 -0.080931845 25 255 91
3.458511740 -62.196493113 -0.086854604 18 255 94
3.458746371 -62.293719602 -0.090214466 15 255 96
3.457507327 -62.390616896 -0.089477818 15 255 96
3.455210417 -62.487276606 -0.085800169 22 255 92
3.454008228 -62.584181410 -0.085163569 22 255 92
3.457247202 -62.682086129 -0.096867890 7 255 99
3.464995083 -62.781011168 -0.121101459 0 252 120
3.472089041 -62.879795178 -0.143516676 0 248 141
3.473024684 -62.977191566 -0.148816623 0 247 147
3.465272249 -63.072619678 -0.129970850 0 250 129
3.453198147 -63.167061122 -0.099113626 4 255 100
3.447187472 -63.262873413 -0.085105700 22 255 92
3.450633548 -63.360836801 -0.097377528 7 255 99
3.455780391 -63.459191821 -0.114374795 0 253 114
3.459281962 -63.557175387 -0.126798609 0 251 126
3.457383829 -63.653925730 -0.124215041 0 251 123
3.450124802 -63.749445524 -0.106731834 0 254 105
3.445482778 -63.845561882 -0.096520276 7 255 99
3.444837128 -63.942595328 -0.097413868 7 255 99
3.445318590 -64.039888920 -0.101438667 4 255 100
3.445177356 -64.137039836 -0.103731756 0 255 102
3.444272428 -64.234014740 -0.103901268 0 255 102
3.442085113 -64.330692560 -0.100505669 4 255 100
3.429472570 -64.424949717 -0.068135597 40 255 84
3.380107656 -64.510653371 0.066376905 200 255 14
3.283771562 -64.682507302 0.328757082 255 139 0
3.252077602 -64.772228894 0.414165579 255 71 36
3.240904585 -64.866729403 0.442543131 255 53 69
3.244262845 -64.964628445 0.430535902 255 61 55
3.247031742 -65.062392452 0.420167791 255 69 40
3.247826692 -65.159695111 0.415286930 255 71 36
3.241217500 -65.255254954 0.430985351 255 61 55
3.227689919 -65.349178053 0.465913201 255 39 95
3.216175112 -65.443567204 0.495248361 255 20 131
3.215387179 -65.540487570 0.494771636 255 20 131
3.221113821 -65.638952756 0.476190079 255 31 109
3.225082011 -65.737005491 0.462496905 255 41 91
3.224297051 -65.833931373 0.462015365 255 41 91
3.222715393 -65.930667591 0.463749283 255 39 95
3.227575221 -66.028940598 0.447581362 255 51 73
3.236336216 -66.128150606 0.420571906 255 67 44
3.240921297 -66.226368337 0.405169801 255 76 25
3.241222468 -66.323563073 0.401675267 255 78 22
3.236113790 -66.419459438 0.413217768 255 73 33
3.227482570 -66.514505218 0.434551923 255 59 58
3.227034494 -66.611516887 0.433143395 255 59 58
3.228101515 -66.708894625 0.427525017 255 63 51
3.224070694 -66.805041677 0.436076635 255 57 62
3.217471549 -66.900564576 0.451767846 255 47 80
3.210581824 -66.996012696 0.468267960 255 37 98
3.209562972 -67.092882184 0.468451796 255 37 98
3.211408860 -67.190448534 0.460674517 255 41 91
3.218399764 -67.289270634 0.438598235 255 57 62
3.228491915 -67.388855675 0.407903382 255 75 29
3.230480935 -67.486468702 0.399731629 255 80 18
3.224086279 -67.582031689 0.414862867 255 71 36
3.218805347 -67.677863586 0.426899831 255 63 51
3.220088326 -67.775304083 0.420693993 255 67 44
3.225155477 -67.873677064 0.403971377 255 78 22
3.229929576 -67.971982511 0.388064400 255 88 3
3.229364268 -68.068975031 0.386999208 255 88 3
3.222904136 -68.164511213 0.402319670 255 78 22
3.217332887 -68.260263177 0.415170760 255 71 36
3.200922028 -68.353324708 0.458151665 255 43 87
3.208086301 -68.452227210 0.435606997 255 59 58
3.205555846 -68.548725409 0.440009916 255 55 66
3.196061514 -68.643488188 0.463770189 255 39 95
3.195552540 -68.740485525 0.462556810 255 41 91
3.197239978 -68.838031897 0.455239626 255 45 84
3.198415118 -68.935452156 0.449347531 255 49 76
3.195898249 -69.031948965 0.453718654 255 47 80
3.191169658 -69.127889552 0.464238551 255 39 95
3.189363445 -69.224561771 0.466636781 255 37 98
3.190978287 -69.322094525 0.459527186 255 43 87
3.192193147 -69.419528439 0.453530512 255 47 80
3.191412635 -69.516460225 0.453081257 255 47 80
3.191022821 -69.613490967 0.451547204 255 47 80
3.189882940 -69.710332201 0.452099191 255 47 80
3.185812024 -69.806429862 0.460799425 255 41 91
3.182418858 -69.902697318 0.467617007 255 37 98
3.182036934 -69.999729036 0.466065746 255 39 95
3.184725161 -70.097543499 0.455981846 255 45 84
3.185368881 -70.194839054 0.451582016 255 47 80
3.185410711 -70.291982034 0.448856366 255 49 76
3.187613281 -70.389678859 0.440125837 255 55 66
3.191749308 -70.487873758 0.426022160 255 65 47
3.195615528 -70.586003329 0.412669567 255 73 33
3.197888008 -70.683726862 0.403748117 255 78 22
3.199974657 -70.781405047 0.395344350 255 84 11
3.201294214 -70.878887775 0.389073973 255 88 3
3.197624920 -70.975083829 0.396672024 255 82 14
3.191134356 -71.070548094 0.412113472 255 73 33
3.183440420 -71.165696404 0.430901152 255 61 55
3.175754492 -71.260841624 0.449667850 255 49 76
3.171350822 -71.356834429 0.459312171 255 43 87
3.175869684 -71.455146141 0.444155809 255 53 69
3.178223100 -71.552897826 0.435019849 255 59 58
3.169422243 -71.647741277 0.456890610 255 45 84
3.158882363 -71.742124226 0.483596656 255 27 117
3.155500414 -71.838373248 0.490406955 255 24 124
3.157090295 -71.935923600 0.483398123 255 27 117
3.160663937 -72.033996659 0.470876116 255 35 102
3.164220798 -72.132068808 0.458401885 255 43 87
3.163492882 -72.229016409 0.457839355 255 43 87
3.158452569 -72.324827231 0.469265387 255 37 98
3.159430285 -72.422223905 0.463963991 255 39 95
3.167280616 -72.521439343 0.439559527 255 55 66
3.173929433 -72.620343405 0.418496080 255 69 40
3.177690198 -72.718487452 0.405461851 255 76 25
3.181927594 -72.816761723 0.391103822 255 86 7
3.188443265 -72.915645934 0.370413824 255 104 0
3.180077240 -73.010572261 0.391092791 255 86 7
3.160308020 -73.102451337 0.443471583 255 53 69
3.140434149 -73.194287991 0.496142809 255 20 131
3.127958669 -73.288089159 0.528249364 255 0 168
3.127494184 -73.385099028 0.526968800 255 0 168
3.135798706 -73.484461738 0.501313066 255 16 139
3.144614927 -73.583969055 0.474235990 255 33 106
3.145485809 -73.681346309 0.469246730 255 37 98
3.138155093 -73.776515287 0.487057778 255 25 120
3.128371076 -73.871017452 0.511689905 255 10 150
3.129364368 -73.968424782 0.506363934 255 14 142
3.149021130 -74.070883527 0.449157278 255 49 76
3.167148649 -74.172943771 0.396202772 255 82 14
