ply
format ascii 1.0
comment coordinate_system ground
comment units millimeter
element vertex 818
property double x
property double y
property double z
property uchar red
property uchar green
property uchar blue
comment color_mapping zg_high_contrast_from_zg
comment color_zg_range_mm -0.245387230 19.988607431
end_header
3.647782884 -30.286916675 0.339745256 0 233 234
3.642294713 -30.383373432 0.351874682 0 233 234
3.639975181 -30.480136348 0.355199999 0 233 234
3.632525412 -30.576395074 0.372782945 0 233 234
3.622800216 -30.672424808 0.396690412 0 233 231
3.621206384 -30.769251686 0.398002642 0 233 231
3.626715663 -30.866783043 0.379576775 0 233 234
3.634911049 -30.964587033 0.353687234 0 233 234
3.641519266 -31.062239392 0.332209265 0 233 234
3.645614139 -31.159645309 0.317716767 0 233 234
3.643786566 -31.256458326 0.319683755 0 233 234
3.632985570 -31.352362972 0.346589198 0 233 234
3.620297211 -31.448068458 0.378741053 0 233 234
3.612653088 -31.544279146 0.396876156 0 233 231
3.611722668 -31.641171664 0.396354750 0 233 231
3.614965600 -31.738492863 0.384236392 0 233 234
3.618041776 -31.835800164 0.372582456 0 233 234
3.615944699 -31.932575362 0.375306507 0 233 234
3.610254278 -32.028976569 0.388018005 0 233 231
3.610433030 -32.125985982 0.384419551 0 233 234
3.615173848 -32.223473619 0.368143543 0 233 234
3.615837396 -32.320537562 0.363199852 0 233 234
3.613072324 -32.417241472 0.367785928 0 233 234
3.607293579 -32.513625283 0.380748698 0 233 234
3.604251281 -32.610295948 0.386107584 0 233 234
3.609425539 -32.707840492 0.368632109 0 233 234
3.612107650 -32.805123333 0.358083798 0 233 234
3.609446060 -32.901835588 0.362387896 0 233 234
3.610094796 -32.998903108 0.357492921 0 233 234
3.612773689 -33.096191347 0.346956671 0 233 234
3.615851115 -33.193525671 0.335313793 0 233 234
3.620269713 -33.291009148 0.319944406 0 233 234
3.618471280 -33.387817704 0.321854980 0 233 234
3.607875891 -33.483661358 0.348216191 0 233 234
3.592154158 -33.578933745 0.388826556 0 233 231
3.592779836 -33.675999405 0.384003375 0 233 234
3.599440351 -33.773734841 0.362408300 0 233 234
3.601923985 -33.871011907 0.352423214 0 233 234
3.613593233 -33.969316263 0.316908811 0 233 234
3.615506668 -34.066538458 0.308510430 0 233 234
3.605497574 -34.162423891 0.333250655 0 233 234
3.591063684 -34.257803772 0.370290596 0 233 234
3.590318036 -34.354721217 0.369286418 0 233 234
3.585538919 -34.451181233 0.379494157 0 233 234
3.580407557 -34.547598269 0.390682152 0 233 231
3.574972313 -34.643977444 0.402715991 0 233 231
3.571376675 -34.740564089 0.409637886 0 233 231
3.571253487 -34.837548110 0.406909270 0 233 231
3.572708619 -34.934714952 0.399794771 0 233 231
3.572351157 -35.031673866 0.397719465 0 233 231
3.573452429 -35.128802744 0.391590632 0 233 231
3.575395340 -35.226031354 0.383123464 0 233 234
3.577844985 -35.323321508 0.373248815 0 233 234
3.579526473 -35.420524232 0.365510333 0 233 234
3.574149474 -35.516898302 0.377392620 0 233 234
3.564196159 -35.612728669 0.401996498 0 233 231
3.552957015 -35.708399854 0.430175835 0 233 231
3.545160379 -35.804472331 0.448787629 0 233 231
3.543193162 -35.901234669 0.451196967 0 233 231
3.547817802 -35.998784794 0.435284295 0 233 231
3.558495044 -36.097065600 0.402548306 0 233 231
3.568748081 -36.195304350 0.370992264 0 233 234
3.573603472 -36.292899906 0.354440871 0 233 234
3.575994202 -36.390201388 0.344741483 0 233 234
3.579411825 -36.487630317 0.332188622 0 233 234
3.582992474 -36.585082552 0.319183572 0 233 234
3.586424987 -36.682520223 0.306591283 0 232 237
3.589814777 -36.779956091 0.294118740 0 232 237
3.590866098 -36.877107550 0.288147614 0 232 237
3.585479257 -36.973465737 0.300074311 0 232 237
3.574329836 -37.069106893 0.328021103 0 233 234
3.563675523 -37.164801781 0.354592952 0 233 234
3.555030390 -37.260739652 0.375580970 0 233 234
3.548760371 -37.356968567 0.389967833 0 233 231
3.546735266 -37.453725715 0.392555662 0 233 231
3.552200727 -37.551424205 0.374321774 0 233 234
3.562815680 -37.649777340 0.341773795 0 233 234
3.569821124 -37.747682691 0.319260691 0 233 234
3.570497392 -37.844790897 0.314343051 0 233 234
3.565566076 -37.941186519 0.325015156 0 233 234
3.555282837 -38.036895734 0.350566507 0 233 234
3.538682632 -38.131788764 0.393680094 0 233 231
3.527501959 -38.227366040 0.421729064 0 233 231
3.532837744 -38.325063639 0.403863937 0 233 231
3.544936010 -38.423640083 0.367200071 0 233 234
3.558015608 -38.522353835 0.327808845 0 233 234
3.566876443 -38.620529999 0.300146600 0 232 237
3.569473819 -38.717897102 0.289897833 0 232 237
3.569856102 -38.814977330 0.285808140 0 232 237
3.567964275 -38.911760386 0.288041679 0 232 237
3.562561196 -39.008080910 0.300037887 0 232 237
3.556167925 -39.104267444 0.314788138 0 233 234
3.550794090 -39.200584742 0.326705495 0 233 234
3.548205555 -39.297268304 0.330880612 0 233 234
3.550744590 -39.394633055 0.320801560 0 233 234
3.556121256 -39.492379286 0.302834497 0 232 237
3.550203591 -39.588618705 0.316268366 0 233 234
3.540402613 -39.684333096 0.340499732 0 233 234
3.549892858 -39.782637722 0.311099309 0 233 234
3.581962391 -39.883998758 0.218924857 0 232 240
3.628064589 -39.987285156 0.087736879 0 231 243
3.666019891 -40.089501702 -0.020801068 0 230 249
3.697757522 -40.190901669 -0.112052359 0 230 252
3.715904239 -40.290471101 -0.165517296 0 230 252
3.713568516 -40.387250654 -0.162035085 0 230 252
3.711675912 -40.484090056 -0.159783729 0 230 252
3.714211961 -40.581538623 -0.169844190 0 229 255
3.717081219 -40.679035954 -0.180830065 0 229 255
3.716003233 -40.775989725 -0.180840360 0 229 255
3.710066883 -40.872268869 -0.167341702 0 229 255
3.703644190 -40.968476528 -0.152489615 0 230 252
3.697372515 -41.064701131 -0.138056168 0 230 252
3.689075589 -41.160638159 -0.117990537 0 230 252
3.679642167 -41.256410047 -0.094763717 0 230 252
3.674333780 -41.352756187 -0.083004805 0 230 249
3.675573644 -41.450023405 -0.089451497 0 230 252
3.678037986 -41.547465699 -0.099301716 0 230 252
3.679859036 -41.644819386 -0.107362296 0 230 252
3.682605100 -41.742306921 -0.117993808 0 230 252
3.686843868 -41.840010381 -0.132774726 0 230 252
3.689275899 -41.937459386 -0.142531100 0 230 252
3.687572335 -42.034317727 -0.140787489 0 230 252
3.683681913 -42.130860967 -0.132962199 0 230 252
3.679669216 -42.227384377 -0.124795745 0 230 252
3.676770329 -42.324066584 -0.119725096 0 230 252
3.676616177 -42.421145375 -0.122285148 0 230 252
3.678733174 -42.518555062 -0.131159183 0 230 252
3.680091707 -42.615856611 -0.137923240 0 230 252
3.677678922 -42.712608774 -0.134199802 0 230 252
3.672211187 -42.808912180 -0.121980649 0 230 252
3.668314954 -42.905443087 -0.114130012 0 230 252
3.667455670 -43.002419195 -0.114722808 0 230 252
3.668850291 -43.099728354 -0.121581799 0 230 252
3.670527432 -43.197081226 -0.129225344 0 230 252
3.670222651 -43.294141927 -0.131356809 0 230 252
3.667504319 -43.390843916 -0.126775893 0 230 252
3.663147426 -43.487300070 -0.117637504 0 230 252
3.658905915 -43.583770937 -0.108818775 0 230 252
3.656800983 -43.680559854 -0.105940077 0 230 252
3.656334657 -43.777594395 -0.107616776 0 230 252
3.654968981 -43.874493771 -0.106791529 0 230 252
3.653497114 -43.971376845 -0.105669884 0 230 252
3.653856786 -44.068537162 -0.109640217 0 230 252
3.654282736 -44.165708627 -0.113793792 0 230 252
3.651768051 -44.262433296 -0.109769007 0 230 252
3.647371414 -44.358869443 -0.100509735 0 230 252
3.645065666 -44.455623105 -0.097063668 0 230 252
3.647306148 -44.553073536 -0.106258786 0 230 252
3.653569132 -44.651145404 -0.126638861 0 230 252
3.660767622 -44.749367194 -0.149619542 0 230 252
3.664552716 -44.847067507 -0.163107121 0 230 252
3.661495253 -44.943710823 -0.157565345 0 230 252
3.653540058 -45.039591468 -0.138402309 0 230 252
3.647963762 -45.135837392 -0.125853506 0 230 252
3.647874770 -45.232936786 -0.128563284 0 230 252
3.651193198 -45.330570367 -0.140747826 0 230 252
3.654494872 -45.428204676 -0.152884795 0 230 252
3.655586670 -45.525494655 -0.158875186 0 230 252
3.653145029 -45.622229011 -0.155038110 0 230 252
3.647115218 -45.718395011 -0.141221223 0 230 252
3.640024510 -45.814389037 -0.124452740 0 230 252
3.636254197 -45.910905905 -0.116917088 0 230 252
3.637437274 -46.008209506 -0.123155817 0 230 252
3.638866332 -46.105554086 -0.130077593 0 230 252
3.636651529 -46.202317472 -0.126864538 0 230 252
3.632902192 -46.298833805 -0.119382705 0 230 252
3.631461018 -46.395719184 -0.118318906 0 230 252
3.633728459 -46.493201997 -0.127568031 0 230 252
3.637824965 -46.590982863 -0.141902989 0 230 252
3.637930469 -46.688121355 -0.145137500 0 230 252
3.634313357 -46.784656433 -0.138017829 0 230 252
3.630166172 -46.881103275 -0.129422781 0 230 252
3.627510708 -46.977791027 -0.124975276 0 230 252
3.625429349 -47.074571393 -0.122123324 0 230 252
3.621926585 -47.171118030 -0.115317047 0 230 252
3.626564426 -47.268999918 -0.131150317 0 230 252
3.622614798 -47.365472324 -0.123098999 0 230 252
3.620252371 -47.462204421 -0.119460884 0 230 252
3.618836461 -47.559092064 -0.118454137 0 230 252
3.618436718 -47.656147895 -0.120272511 0 230 252
3.617000610 -47.753031994 -0.119207391 0 230 252
3.612380750 -47.849385481 -0.109286237 0 230 252
3.605775634 -47.945404770 -0.093842302 0 230 252
3.601291882 -48.041774755 -0.084297302 0 230 249
3.601509092 -48.138930542 -0.087826028 0 230 252
3.604264746 -48.236514027 -0.098413968 0 230 252
3.606822895 -48.334067157 -0.108451581 0 230 252
3.608438618 -48.431463904 -0.115866963 0 230 252
3.609923841 -48.528840608 -0.122918353 0 230 252
3.610380352 -48.626044738 -0.127107464 0 230 252
3.606972239 -48.722592910 -0.120546427 0 230 252
3.599966901 -48.818526229 -0.103978847 0 230 252
3.595127012 -48.914824817 -0.093433062 0 230 252
3.596047728 -49.012106622 -0.098908894 0 230 252
3.601293657 -49.110132025 -0.116414088 0 230 252
3.607380303 -49.208306837 -0.136256787 0 230 252
3.612815371 -49.306374843 -0.154286224 0 230 252
3.619904808 -49.404733593 -0.176916368 0 229 255
3.625495850 -49.502839212 -0.195377828 0 229 255
3.623515390 -49.599636295 -0.192778045 0 229 255
3.618902833 -49.695974976 -0.182855863 0 229 255
3.613032668 -49.792091743 -0.169434390 0 229 255
3.606875806 -49.888154718 -0.155214231 0 230 252
3.598746190 -49.983868442 -0.135505470 0 230 252
3.591523104 -50.079735732 -0.118317027 0 230 252
3.590868032 -50.176752975 -0.119396945 0 230 252
3.595317859 -50.274669967 -0.134675666 0 230 252
3.598872933 -50.372433192 -0.147464564 0 230 252
3.597422448 -50.469314150 -0.146328801 0 230 252
3.595100351 -50.566040212 -0.142767410 0 230 252
3.595498930 -50.663248844 -0.146772919 0 230 252
3.596659519 -50.760594313 -0.152897045 0 230 252
3.595747561 -50.857571516 -0.153254937 0 230 252
3.592797526 -50.954184225 -0.147942397 0 230 252
3.588468359 -51.050548218 -0.138792351 0 230 252
3.582431721 -51.146602910 -0.124891386 0 230 252
3.574373781 -51.242289827 -0.105366442 0 230 252
3.567572906 -51.338198150 -0.089337073 0 230 252
3.564744137 -51.434820254 -0.084355978 0 230 249
3.565176865 -51.532031966 -0.088446544 0 230 252
3.567379313 -51.629566169 -0.097459073 0 230 252
3.569180843 -51.727029913 -0.105355315 0 230 252
3.569696160 -51.824261295 -0.109672516 0 230 252
3.569266026 -51.921321101 -0.111358567 0 230 252
3.568152627 -52.018256251 -0.111142798 0 230 252
3.566187023 -52.115034953 -0.108555211 0 230 252
3.564159367 -52.211801530 -0.105793885 0 230 252
3.565443477 -52.309177646 -0.112244437 0 230 252
3.570984036 -52.407341582 -0.130535016 0 230 252
3.576648954 -52.505533600 -0.149170633 0 230 252
3.578704575 -52.603061480 -0.157764505 0 230 252
3.575361202 -52.699588481 -0.151337636 0 230 252
3.569197393 -52.795588516 -0.137063266 0 230 252
3.565529874 -52.892050394 -0.129732289 0 230 252
3.565175681 -52.989129771 -0.131617792 0 230 252
3.565436619 -53.086324929 -0.135213516 0 230 252
3.565635323 -53.183509404 -0.138635050 0 230 252
3.566305726 -53.280783574 -0.143367808 0 230 252
3.566789295 -53.378023838 -0.147579736 0 230 252
3.565143647 -53.474863053 -0.145867019 0 230 252
3.559480185 -53.570941263 -0.132975357 0 230 252
3.550547616 -53.666395837 -0.110987560 0 230 252
3.541130654 -53.761752263 -0.087650834 0 230 252
3.536954339 -53.858100297 -0.078892848 0 230 249
3.544911597 -53.956761387 -0.103890766 0 230 252
3.556045314 -54.056036805 -0.137725173 0 230 252
3.566170324 -54.155128331 -0.168752437 0 229 255
3.570770659 -54.253167786 -0.184408370 0 229 255
3.565972162 -54.349403499 -0.173914168 0 229 255
3.556337332 -54.444704068 -0.149963192 0 230 252
3.547887752 -54.540226936 -0.129308501 0 230 252
3.545342704 -54.636886792 -0.125080199 0 230 252
3.546821653 -54.734325798 -0.132046446 0 230 252
3.547475698 -54.831606464 -0.136716588 0 230 252
3.545949063 -54.928463887 -0.135318480 0 230 252
3.542795881 -55.025003641 -0.129393781 0 230 252
3.540512940 -55.121711857 -0.125889191 0 230 252
3.539371967 -55.218642757 -0.125560772 0 230 252
3.538192091 -55.315565943 -0.125123020 0 230 252
3.536038080 -55.412297492 -0.121973821 0 230 252
3.533263204 -55.508905871 -0.117096051 0 230 252
3.532276966 -55.605865956 -0.117193758 0 230 252
3.533505222 -55.703264036 -0.123451896 0 230 252
3.534898576 -55.800696576 -0.130168372 0 230 252
3.536143147 -55.898101449 -0.136469849 0 230 252
3.537124355 -55.995455691 -0.142037520 0 230 252
3.537713079 -56.092733261 -0.146512106 0 230 252
3.536934740 -56.189739089 -0.147181891 0 230 252
3.533125812 -56.286138753 -0.139418168 0 230 252
3.526893088 -56.382050392 -0.124909186 0 230 252
3.532363117 -56.480308536 -0.142961487 0 230 252
3.523891375 -56.575766102 -0.122220189 0 230 252
3.525002669 -56.673150086 -0.128142333 0 230 252
3.532141140 -56.771753258 -0.150834096 0 230 252
3.525854484 -56.867645582 -0.136169321 0 230 252
3.520542068 -56.963731414 -0.124214178 0 230 252
3.520036593 -57.060790544 -0.125633361 0 230 252
3.523850094 -57.158729205 -0.139069277 0 230 252
3.529500251 -57.257046160 -0.157614857 0 230 252
3.532356323 -57.354797382 -0.168384750 0 229 255
3.529610436 -57.451404854 -0.163565661 0 230 252
3.526678388 -57.547972826 -0.158227427 0 230 252
3.527280670 -57.645265556 -0.162722768 0 230 252
3.526202182 -57.742213543 -0.162540094 0 230 252
3.518978624 -57.837894093 -0.145256749 0 230 252
3.511082863 -57.933430974 -0.126101638 0 230 252
3.505913057 -58.029526887 -0.114530715 0 230 252
3.506398017 -58.126792428 -0.118694056 0 230 252
3.510884454 -58.224890602 -0.133991275 0 230 252
3.513145054 -58.322529671 -0.143093685 0 230 252
3.509872562 -58.419017300 -0.136797992 0 230 252
3.503629306 -58.514882476 -0.122234281 0 230 252
3.498965874 -58.611074342 -0.112065614 0 230 252
3.499060871 -58.708261329 -0.115137377 0 230 252
3.504324976 -58.806535223 -0.132592587 0 230 252
3.511030871 -58.905117451 -0.154059087 0 230 252
3.513249503 -59.002759405 -0.163037510 0 230 252
3.507769664 -59.098777503 -0.150591458 0 230 252
3.498230047 -59.193932947 -0.126846508 0 230 252
3.489380582 -59.289228165 -0.105020838 0 230 252
3.482732935 -59.384985055 -0.089321232 0 230 252
3.478157877 -59.481178663 -0.079388148 0 230 249
3.476034950 -59.577892298 -0.076277894 0 230 249
3.476734256 -59.675207840 -0.081020524 0 230 249
3.479579792 -59.772983917 -0.091734891 0 230 252
3.481786506 -59.870626058 -0.100670481 0 230 252
3.479343604 -59.967272296 -0.096665461 0 230 252
3.474227781 -60.063342466 -0.085220707 0 230 249
3.472676599 -60.160177663 -0.083695039 0 230 249
3.475895190 -60.258042178 -0.095442461 0 230 252
3.478544741 -60.355786904 -0.105605277 0 230 252
3.477764483 -60.452791383 -0.106221923 0 230 252
3.476358578 -60.549660266 -0.105096303 0 230 252
3.476807264 -60.646932096 -0.109130980 0 230 252
3.477346910 -60.744224881 -0.113417758 0 230 252
3.476466935 -60.841209120 -0.113752605 0 230 252
3.474880176 -60.938038984 -0.112119340 0 230 252
3.475270515 -61.035301343 -0.115987413 0 230 252
3.477780976 -61.133029855 -0.125754949 0 230 252
3.479674099 -61.230625446 -0.133803374 0 230 252
3.478383587 -61.327522492 -0.132990340 0 230 252
3.473851543 -61.423704545 -0.123154580 0 230 252
3.468969282 -61.519806536 -0.112342940 0 230 252
3.465052410 -61.616119181 -0.104216954 0 230 252
3.460936159 -61.712385403 -0.095534897 0 230 252
3.454565828 -61.808148721 -0.080578146 0 230 249
3.450475001 -61.904414970 -0.071964495 0 230 249
3.452846001 -62.002118713 -0.081334355 0 230 249
3.453652263 -62.099475813 -0.086348195 0 230 249
3.450790584 -62.196014194 -0.081152228 0 230 249
3.446199789 -62.292163872 -0.071142554 0 230 249
3.444278852 -62.388909832 -0.068562642 0 230 249
3.446258819 -62.486531842 -0.076838947 0 230 249
3.450331211 -62.584627259 -0.090938093 0 230 252
3.454184891 -62.682677286 -0.104427547 0 230 252
3.455379075 -62.780130274 -0.110513811 0 230 252
3.453028079 -62.876782719 -0.106731624 0 230 252
3.450089544 -62.973300962 -0.101312997 0 230 252
3.448862554 -63.070206366 -0.100657087 0 230 252
3.447757627 -63.167139380 -0.100339838 0 230 252
3.446805569 -63.264107166 -0.100447000 0 230 252
3.442477046 -63.360304421 -0.091155022 0 230 252
3.435958166 -63.455998397 -0.075765207 0 230 249
3.431621924 -63.552187949 -0.066449379 0 230 249
3.427859987 -63.648506685 -0.058730932 0 230 249
3.426482314 -63.745371135 -0.057647824 0 230 249
3.431409475 -63.843686384 -0.074112931 0 230 249
3.441218665 -63.943131719 -0.104166153 0 230 252
3.447651593 -64.041805756 -0.124820772 0 230 252
3.441651498 -64.137609677 -0.110867092 0 230 252
3.435266802 -64.233320653 -0.095841658 0 230 252
3.424761362 -64.328071153 -0.069344771 0 230 249
3.422789864 -64.424798193 -0.066601186 0 230 249
3.428920805 -64.523411172 -0.086410125 0 230 249
3.431302913 -64.621155305 -0.095783021 0 230 252
3.441125249 -64.720640278 -0.125865446 0 230 252
3.446906020 -64.819187859 -0.144696977 0 230 252
3.445379442 -64.916027887 -0.143186779 0 230 252
3.438931837 -65.011712167 -0.127977189 0 230 252
3.432819877 -65.107471198 -0.113700694 0 230 252
3.435645172 -65.205331494 -0.124301195 0 230 252
3.430544053 -65.301324620 -0.112836235 0 230 252
3.426030826 -65.397453536 -0.103006591 0 230 252
3.424095823 -65.494190051 -0.100352758 0 230 252
3.427968663 -65.592302874 -0.113865145 0 230 252
3.429943788 -65.689968807 -0.122093879 0 230 252
3.432647531 -65.787810368 -0.132349892 0 230 252
3.431210645 -65.884668292 -0.131078469 0 230 252
3.419131815 -65.978986325 -0.100181368 0 230 252
3.411765231 -66.074422170 -0.082400710 0 230 249
3.410105413 -66.171219375 -0.080505212 0 230 249
3.413411838 -66.269206973 -0.092433631 0 230 252
3.421802358 -66.368419017 -0.118514243 0 230 252
3.432904268 -66.468290597 -0.152142053 0 230 252
3.429688565 -66.564721663 -0.145911216 0 230 252
3.435799767 -66.663401983 -0.165643940 0 230 252
3.428166829 -66.758765512 -0.147113981 0 230 252
3.421160532 -66.854275658 -0.130327261 0 230 252
3.416479109 -66.950344961 -0.120011496 0 230 252
3.414063845 -67.046961850 -0.116003324 0 230 252
3.411706652 -67.143591793 -0.112155705 0 230 252
3.408566510 -67.240029938 -0.106127299 0 230 252
3.406630906 -67.336760404 -0.103451125 0 230 252
3.405099756 -67.433589025 -0.101899834 0 230 252
3.401206392 -67.529838957 -0.093771124 0 230 252
3.395579171 -67.625661539 -0.080814239 0 230 249
3.390718397 -67.721668793 -0.069989940 0 230 249
3.388958565 -67.818435819 -0.067797509 0 230 249
3.390470894 -67.916008386 -0.074713747 0 230 249
3.392273713 -68.013654585 -0.082437710 0 230 249
3.391458063 -68.110655872 -0.082870732 0 230 249
3.388750817 -68.207189126 -0.078036368 0 230 249
3.386248749 -68.303771942 -0.073772116 0 230 249
3.386449565 -68.401024697 -0.077031810 0 230 249
3.388687112 -68.498784868 -0.085960922 0 230 249
3.389715731 -68.596246465 -0.091523255 0 230 252
3.388460992 -68.693140079 -0.090727411 0 230 252
3.386594103 -68.789880581 -0.088226177 0 230 252
3.386435254 -68.887047804 -0.090479286 0 230 252
3.388182966 -68.984693474 -0.098039525 0 230 252
3.388780539 -69.082052614 -0.102396571 0 230 252
3.385562612 -69.178453896 -0.096129504 0 230 252
3.379292278 -69.274085018 -0.081362782 0 230 249
3.373196182 -69.369756021 -0.067079964 0 230 249
3.369608665 -69.466056594 -0.059780402 0 230 249
3.368942586 -69.563094058 -0.060613693 0 230 249
3.369289089 -69.660388282 -0.064265207 0 230 249
3.367304632 -69.757092228 -0.061425663 0 230 249
3.363700187 -69.853383835 -0.054074515 0 230 249
3.362087165 -69.950180180 -0.052266938 0 230 249
3.363722880 -70.047803987 -0.059503759 0 230 249
3.366837485 -70.145807300 -0.070857284 0 230 249
3.369707102 -70.243751180 -0.081527712 0 230 249
3.372392082 -70.341650794 -0.091683079 0 230 252
3.373919090 -70.439256377 -0.098613257 0 230 252
3.374096613 -70.536517412 -0.101784959 0 230 252
3.375422501 -70.634074683 -0.108153111 0 230 252
3.376333001 -70.731526781 -0.113363647 0 230 252
3.372391028 -70.827728760 -0.105061865 0 230 252
3.366394597 -70.923397778 -0.091038449 0 230 252
3.363594014 -71.019889730 -0.085912477 0 230 249
3.365113208 -71.117499516 -0.092813602 0 230 252
3.368359130 -71.215559303 -0.104521739 0 230 252
3.370636667 -71.313370734 -0.113532469 0 230 252
3.370529664 -71.410564137 -0.115902478 0 230 252
3.367370928 -71.506962858 -0.109773874 0 230 252
3.361685774 -71.602700478 -0.096609283 0 230 252
3.354706663 -71.698096246 -0.079840433 0 230 249
3.346894284 -71.793269268 -0.060750082 0 230 249
3.342481981 -71.889328467 -0.051126195 0 230 249
3.344738944 -71.987136150 -0.060072192 0 230 249
3.346592944 -72.084840400 -0.067895119 0 230 249
3.344829509 -72.181594266 -0.065643953 0 230 249
3.343009341 -72.278332591 -0.063233716 0 230 249
3.342931107 -72.375530352 -0.065673016 0 230 249
3.342557174 -72.472650626 -0.067287857 0 230 249
3.341336083 -72.569546998 -0.066542609 0 230 249
3.340059362 -72.666428454 -0.065641373 0 230 249
3.339344183 -72.763458882 -0.066302772 0 230 249
3.339399483 -72.860694516 -0.069108653 0 230 249
3.339001741 -72.957810275 -0.070651909 0 230 249
3.335403408 -73.054072558 -0.063281375 0 230 249
3.337130230 -73.151755706 -0.070738813 0 230 249
3.334263898 -73.248211922 -0.065404505 0 230 249
3.336130822 -73.345935071 -0.073250038 0 230 249
3.333103091 -73.442346940 -0.067464100 0 230 249
3.336671260 -73.540529839 -0.080045176 0 230 249
3.338095984 -73.638139416 -0.086656250 0 230 249
3.337961636 -73.735330685 -0.088924608 0 230 252
3.337794331 -73.832513736 -0.091100138 0 230 252
3.336211735 -73.929314906 -0.089333271 0 230 252
3.338653189 -74.027204830 -0.098771682 0 230 252
3.330464339 -74.122215998 -0.078605216 0 230 249
3.323218761 -74.217477668 -0.061064387 0 230 249
3.319900554 -74.313802098 -0.054459605 0 230 249
3.319758296 -74.410989289 -0.056698387 0 230 249
3.323317005 -74.509186041 -0.069242992 0 230 249
3.330679181 -74.608424622 -0.092379018 0 230 252
3.329914553 -74.705448010 -0.092881550 0 230 252
3.332219974 -74.803312045 -0.101932959 0 230 252
3.336833333 -74.901811353 -0.117410908 0 230 252
3.327382133 -74.996453823 -0.093718470 0 230 252
3.317690667 -75.091023720 -0.069355605 0 230 249
3.312883255 -75.186931515 -0.058593548 0 230 249
3.314404184 -75.284581042 -0.065454858 0 230 249
3.318095060 -75.382831596 -0.078358532 0 230 249
3.320748024 -75.480798835 -0.088370637 0 230 252
3.321311882 -75.578190532 -0.092563493 0 230 252
3.315978035 -75.673948389 -0.080329813 0 230 249
3.298956721 -75.766458208 -0.035544405 0 230 249
3.288691358 -75.860833869 -0.009573474 0 230 249
3.208454003 -84.200149462 -0.007367273 0 231 246
3.091648186 -95.835127446 0.022224080 0 231 246
3.092874453 -95.932872439 0.016401688 0 231 246
3.093863044 -96.030533923 0.011242867 0 231 246
3.094263556 -96.127985892 0.007724487 0 231 246
3.097539256 -96.226471662 -0.003808396 0 231 246
3.103899065 -96.326069697 -0.023938329 0 230 249
3.108755066 -96.425132055 -0.039875028 0 230 249
3.109181870 -96.522602798 -0.043462868 0 230 249
3.108337735 -96.619616113 -0.043506497 0 230 249
3.108386039 -96.716951792 -0.046037107 0 230 249
3.108736919 -96.814397623 -0.049410255 0 230 249
3.106448348 -96.910889214 -0.045423853 0 230 249
3.103474004 -97.007131310 -0.039524501 0 230 249
3.102267250 -97.104012901 -0.038551982 0 230 249
3.101068360 -97.200897140 -0.037600347 0 230 249
3.098579746 -97.297312418 -0.033051970 0 230 249
3.096749959 -97.393966205 -0.030339310 0 230 249
3.096964240 -97.491363812 -0.033324426 0 230 249
3.099014006 -97.589431559 -0.041425865 0 230 249
3.099768535 -97.687028850 -0.045915210 0 230 249
3.096621820 -97.783201969 -0.039526803 0 230 249
3.091694368 -97.878722018 -0.028172540 0 230 249
3.087933212 -97.974666035 -0.020068834 0 230 249
3.086969338 -98.071633214 -0.019763019 0 230 249
3.085539778 -98.168429491 -0.018157801 0 230 249
3.079815503 -98.263647818 -0.004577488 0 231 246
3.071979962 -98.358086093 0.014890405 0 231 246
3.069312889 -98.454421543 0.019949230 0 231 246
3.072332367 -98.552851078 0.009154300 0 231 246
3.075801320 -98.651449473 -0.002892896 0 231 246
3.077396820 -98.749359478 -0.009715698 0 230 249
3.076765209 -98.846448187 -0.010327975 0 230 249
3.073880017 -98.942703219 -0.004655842 0 231 246
3.070285460 -99.038693970 0.002995218 0 231 246
3.069531382 -99.135735940 0.002727544 0 231 246
3.073044238 -99.234361925 -0.009436240 0 230 249
3.079865236 -99.334220609 -0.030822969 0 230 249
3.087559353 -99.434410071 -0.054643331 0 230 249
3.092515628 -99.533586746 -0.070829080 0 230 249
3.093866446 -99.631424051 -0.076960965 0 230 249
3.093327082 -99.728557827 -0.077821518 0 230 249
3.090761807 -99.824935180 -0.073032215 0 230 249
3.083941243 -99.919720171 -0.056376784 0 230 249
3.073183950 -100.013027093 -0.028743312 0 230 249
3.064030335 -100.106927274 -0.005580144 0 231 246
3.060317921 -100.202861918 0.002412318 0 231 246
3.063277523 -100.301299463 -0.008198092 0 231 246
3.071382210 -100.401673770 -0.033153976 0 230 249
3.077811714 -100.501424812 -0.053438010 0 230 249
3.078926189 -100.599179804 -0.058900793 0 230 249
3.076533900 -100.695614297 -0.054584301 0 230 249
3.073653174 -100.791863318 -0.048904773 0 230 249
3.071203012 -100.888273480 -0.044424767 0 230 249
3.068077635 -100.984427113 -0.038060886 0 230 249
3.063892891 -101.080178008 -0.028741920 0 230 249
3.059473749 -101.175837551 -0.018768225 0 230 249
3.055220563 -101.271557335 -0.009256179 0 230 249
3.051164695 -101.367349463 -0.000293241 0 231 246
3.048951470 -101.463839557 0.003532574 0 231 246
3.052705641 -101.562599196 -0.009280782 0 230 249
3.061686058 -101.663353024 -0.036666816 0 230 249
3.067130995 -101.762766557 -0.054193211 0 230 249
3.064289807 -101.859022583 -0.048612352 0 230 249
3.054228399 -101.952518694 -0.022896281 0 230 249
3.041821861 -102.045110877 0.009360656 0 231 246
3.042512158 -102.142707836 0.005097053 0 231 246
3.043591995 -102.240455311 -0.000251839 0 231 246
3.048893790 -102.339823834 -0.017373225 0 230 249
3.047203709 -102.436512446 -0.014995916 0 230 249
3.053770343 -102.536374050 -0.035642675 0 230 249
3.060141442 -102.636166216 -0.055743316 0 230 249
3.065216315 -102.735464796 -0.072228359 0 230 249
3.068423388 -102.834047926 -0.083503809 0 230 249
3.070371430 -102.932148368 -0.091267276 0 230 252
3.071817944 -103.030057282 -0.097631166 0 230 252
3.071801017 -103.127402125 -0.099912952 0 230 252
3.069291979 -103.223783021 -0.095243877 0 230 252
3.064132443 -103.319135705 -0.083182146 0 230 249
3.055855344 -103.413275944 -0.062425120 0 230 249
3.050600212 -103.508583720 -0.050094483 0 230 249
3.041375109 -103.602345293 -0.026691278 0 230 249
3.037699165 -103.698259121 -0.018762367 0 230 249
3.036822098 -103.795260688 -0.018637924 0 230 249
3.035030231 -103.891905699 -0.015961235 0 230 249
3.030646914 -103.987538904 -0.006056344 0 231 246
3.026909978 -104.083421866 0.002046995 0 231 246
3.029325534 -104.181707953 -0.007007077 0 231 246
3.036521786 -104.281867478 -0.029393012 0 230 249
3.043563413 -104.381972709 -0.051346900 0 230 249
3.046452944 -104.480456007 -0.061720146 0 230 249
3.045461909 -104.577419121 -0.061269871 0 230 249
3.043267244 -104.673909275 -0.057461724 0 230 249
3.041972769 -104.770752449 -0.056163104 0 230 249
3.043254715 -104.868609559 -0.062048988 0 230 249
3.046725603 -104.967330912 -0.074038804 0 230 249
3.049584234 -105.065814155 -0.084320134 0 230 249
3.048605582 -105.162785256 -0.083898360 0 230 249
3.043319924 -105.258054115 -0.071463272 0 230 249
3.037868440 -105.353253974 -0.058564560 0 230 249
3.036860532 -105.450209903 -0.058058004 0 230 249
3.039538346 -105.548626672 -0.067830087 0 230 249
3.038811369 -105.645695320 -0.068105064 0 230 249
3.035535527 -105.741751820 -0.061270048 0 230 249
3.031783176 -105.837617046 -0.053104922 0 230 249
3.028073522 -105.933497048 -0.045057790 0 230 249
3.026379311 -106.030177644 -0.042630865 0 230 249
3.027829680 -106.128111361 -0.048973530 0 230 249
3.031192443 -106.226810106 -0.060649167 0 230 249
3.032155504 -106.324553531 -0.065630760 0 230 249
3.032385670 -106.422005337 -0.068567213 0 230 249
3.033768961 -106.519919551 -0.074718944 0 230 249
3.032868142 -106.616920430 -0.074498899 0 230 249
3.027841173 -106.712266616 -0.062769162 0 230 249
3.022783258 -106.807597175 -0.050951986 0 230 249
3.022606779 -106.904885860 -0.052749124 0 230 249
3.024132634 -107.002859753 -0.059293479 0 230 249
3.021333474 -107.099094380 -0.053773314 0 230 249
3.016505114 -107.194509836 -0.042592098 0 230 249
3.014332746 -107.290993531 -0.038818071 0 230 249
3.015887464 -107.388980991 -0.045438922 0 230 249
3.015399828 -107.486144979 -0.046362070 0 230 249
3.009724863 -107.581210941 -0.032815098 0 230 249
3.001888355 -107.675397985 -0.013237730 0 230 249
2.996585986 -107.770606694 -0.000727749 0 231 246
2.993878710 -107.866864741 0.004544723 0 231 246
2.992655466 -107.963723984 0.005678745 0 231 246
2.993521698 -108.061432229 0.000985449 0 231 246
2.997749482 -108.160509434 -0.013083568 0 230 249
3.003872823 -108.260362517 -0.032439181 0 230 249
3.008406643 -108.359573122 -0.047360112 0 230 249
3.011530446 -108.458212639 -0.058347015 0 230 249
3.014365365 -108.556737284 -0.068527179 0 230 249
3.016989280 -108.655178556 -0.078117834 0 230 249
3.017973992 -108.752951845 -0.083135056 0 230 249
3.014707956 -108.848985684 -0.076293917 0 230 249
3.005803510 -108.942706276 -0.053723378 0 230 249
2.998800968 -109.037201046 -0.036456996 0 230 249
2.997452771 -109.134013380 -0.034962360 0 230 249
2.996882742 -109.231145254 -0.035637423 0 230 249
2.995450337 -109.327922508 -0.033905841 0 230 249
2.994981592 -109.425096238 -0.034861416 0 230 249
2.998177783 -109.523781202 -0.046039592 0 230 249
3.004529741 -109.623771552 -0.066020138 0 230 249
3.010653476 -109.723673240 -0.085363201 0 230 249
3.012889812 -109.821973200 -0.093861099 0 230 252
3.009536402 -109.917962457 -0.086764777 0 230 249
3.004496762 -110.013251352 -0.074963408 0 230 249
3.001050140 -110.109197465 -0.067604882 0 230 249
2.999579643 -110.205961626 -0.065757994 0 230 249
3.000644918 -110.303778592 -0.070984058 0 230 249
3.004550271 -110.402777826 -0.084132084 0 230 249
3.007104224 -110.501218392 -0.093509218 0 230 252
3.005298674 -110.597845760 -0.090723668 0 230 252
3.001258234 -110.693540642 -0.081702354 0 230 249
2.996931479 -110.789113585 -0.071881200 0 230 249
2.991950648 -110.884410645 -0.060234237 0 230 249
2.986834885 -110.979648103 -0.048209730 0 230 249
2.982861542 -111.075360330 -0.039371198 0 230 249
2.980799466 -111.171870687 -0.035863605 0 230 249
2.981302918 -111.269455691 -0.039512285 0 230 249
2.984221570 -111.368055242 -0.049897947 0 230 249
2.987170392 -111.466670398 -0.060366861 0 230 249
2.987335832 -111.564118366 -0.063069674 0 230 249
2.985274822 -111.660630259 -0.059560035 0 230 249
2.983690448 -111.757341971 -0.057379103 0 230 249
2.984101369 -111.854894274 -0.060763772 0 230 249
2.987204639 -111.953583613 -0.071658820 0 230 249
2.993241322 -112.053514931 -0.090736896 0 230 252
2.998720924 -112.153216102 -0.108259928 0 230 252
2.997762532 -112.250198157 -0.107820571 0 230 252
2.990886934 -112.344674163 -0.090871544 0 230 252
2.982792946 -112.438629035 -0.070522101 0 230 249
2.976880377 -112.533503831 -0.056257554 0 230 249
2.974580604 -112.629908949 -0.052071493 0 230 249
2.975528509 -112.727693394 -0.056945381 0 230 249
2.981101756 -112.827447064 -0.074723030 0 230 249
2.993478430 -112.930102840 -0.111481511 0 230 252
3.002475438 -113.031328396 -0.138809949 0 230 252
3.001876601 -113.128467928 -0.139364814 0 230 252
2.994697651 -113.222797976 -0.121559803 0 230 252
2.985521651 -113.316269612 -0.098181715 0 230 252
2.976947511 -113.409992252 -0.076481645 0 230 249
2.969221474 -113.504072026 -0.057146658 0 230 249
2.963595598 -113.599046485 -0.043670161 0 230 249
2.963977367 -113.696594125 -0.046954576 0 230 249
2.969520438 -113.796358582 -0.064638729 0 230 249
2.974977356 -113.896090976 -0.082081656 0 230 249
2.975878965 -113.993869031 -0.086813708 0 230 249
2.971455281 -114.089355981 -0.076686332 0 230 249
2.965236281 -114.184066603 -0.061548596 0 230 249
2.962226845 -114.280157218 -0.055365030 0 230 249
2.965576216 -114.378990928 -0.066922791 0 230 249
2.973326519 -114.479729257 -0.090759221 0 230 252
2.978150205 -114.579208711 -0.106428919 0 230 252
2.974166409 -114.674880572 -0.097522723 0 230 252
2.966124707 -114.768792110 -0.077292834 0 230 249
2.961421897 -114.864145769 -0.066378172 0 230 249
2.964568414 -114.962902853 -0.077364251 0 230 249
2.968610279 -115.062051938 -0.090847714 0 230 252
2.968268200 -115.159298882 -0.092097737 0 230 252
2.966609793 -115.255973426 -0.089673791 0 230 252
2.965557798 -115.352911443 -0.088940913 0 230 252
2.964003284 -115.449630240 -0.086804822 0 230 249
2.960277327 -115.545401074 -0.078608602 0 230 249
2.954043094 -115.640074325 -0.063412285 0 230 249
2.947638206 -115.734668800 -0.047738630 0 230 249
2.921377873 -115.820572864 0.023340753 0 231 246
2.999022681 -115.951952552 -0.195516151 0 229 255
-4.145040216 -127.121853178 19.432795388 255 14 142
-4.267681549 -127.155656884 19.773306421 255 4 161
-4.279162402 -127.244631257 19.803408809 255 4 161
-4.291820047 -127.333011722 19.836798615 255 2 164
-4.297383375 -127.424915458 19.850378801 255 2 164
-4.297646880 -127.519456474 19.849160251 255 2 164
-4.296065783 -127.614917758 19.842791552 255 2 164
-4.294214476 -127.710515664 19.835669187 255 2 164
-4.291702960 -127.806445311 19.826704053 255 4 161
-4.289219146 -127.902363590 19.817817162 255 4 161
-4.288020188 -127.997641545 19.812519212 255 4 161
-4.288068734 -128.092296377 19.810705945 255 4 161
-4.288321850 -128.186849198 19.809464906 255 4 161
-4.287887683 -128.281746980 19.806305502 255 4 161
-4.287127013 -128.376809473 19.802235230 255 4 161
-4.287011448 -128.471549097 19.799967429 255 4 161
-4.286880742 -128.566296945 19.797658288 255 4 161
-4.283819779 -128.662519323 19.787166860 255 4 161
-4.278100569 -128.760082721 19.769252676 255 4 161
-4.275060009 -128.856301656 19.758819927 255 4 161
-4.279078633 -128.948964507 19.768102248 255 4 161
-4.287871034 -129.039216146 19.790717415 255 4 161
-4.293422934 -129.131097726 19.804283908 255 4 161
-4.292511190 -129.226241763 19.799800203 255 4 161
-4.287703297 -129.323357370 19.784436440 255 4 161
-4.283879657 -129.419979097 19.771822283 255 4 161
-4.285408476 -129.513893331 19.774157203 255 4 161
-4.289545202 -129.606484992 19.783776445 255 4 161
-4.292163478 -129.699844218 19.789155999 255 4 161
-4.292375297 -129.794423583 19.787815773 255 4 161
-4.293901259 -129.888335650 19.790146668 255 4 161
-4.297285895 -129.981302028 19.797669526 255 4 161
-4.299924584 -130.074645844 19.803110089 255 4 161
-4.301598958 -130.168479163 19.805858457 255 4 161
-4.303229730 -130.262333912 19.808486031 255 4 161
-4.305221709 -130.356003691 19.812123402 255 4 161
-4.307084784 -130.449738222 19.815401748 255 4 161
-4.307908125 -130.544002877 19.815777188 255 4 161
-4.308057756 -130.638611772 19.814271966 255 4 161
-4.309276532 -130.732674143 19.815753747 255 4 161
-4.312213465 -130.825856491 19.822035234 255 4 161
-4.314959137 -130.919135049 19.827783552 255 4 161
-4.314088492 -131.014266105 19.823432574 255 4 161
-4.310062746 -131.111017225 19.810270338 255 4 161
-4.308423592 -131.206546491 19.803774706 255 4 161
-4.308017706 -131.301443787 19.800724512 255 4 161
-4.305948345 -131.397197371 19.793029108 255 4 161
-4.303423292 -131.493187589 19.784061827 255 4 161
-4.303638441 -131.587768949 19.782748957 255 4 161
-4.306480591 -131.680996603 19.788774421 255 4 161
-4.309972897 -131.773887183 19.796616835 255 4 161
-4.313256124 -131.866883476 19.803876298 255 4 161
-4.317513554 -131.959374444 19.813857834 255 4 161
-4.324187851 -132.050613112 19.830591013 255 2 164
-4.331455261 -132.141540227 19.848981941 255 2 164
-4.336116162 -132.233811746 19.860093632 255 2 164
-4.337618609 -132.327716700 19.862384320 255 2 164
-4.339232155 -132.421563371 19.864986302 255 2 164
-4.337408110 -132.517193153 19.857987443 255 2 164
-4.337469688 -132.611845607 19.856256386 255 2 164
-4.332616997 -132.709052492 19.840799695 255 2 164
-4.333030580 -132.803524669 19.840053679 255 2 164
-4.331689072 -132.898910517 19.834406233 255 2 164
-4.333038467 -132.992896276 19.836276040 255 2 164
-4.336403631 -133.085830730 19.843777381 255 2 164
-4.338747965 -133.179295576 19.848428284 255 2 164
-4.337197477 -133.274792342 19.842200845 255 2 164
-4.333423012 -133.371452674 19.829762077 255 4 161
-4.329220539 -133.468340198 19.816128590 255 4 161
-4.327379935 -133.563995731 19.809093390 255 4 161
-4.327910913 -133.658411430 19.808683697 255 4 161
-4.329988183 -133.752016969 19.812594276 255 4 161
-4.331659025 -133.845834497 19.815370545 255 4 161
-4.331476574 -133.940623748 19.812970853 255 4 161
-4.331013002 -134.035561255 19.809786813 255 4 161
-4.331194502 -134.130160593 19.808405638 255 4 161
-4.329937587 -134.225516776 19.803007320 255 4 161
-4.326477671 -134.322033896 19.791455994 255 4 161
-4.324267158 -134.417896118 19.783395639 255 4 161
-4.326537194 -134.511398862 19.787852330 255 4 161
-4.330995054 -134.603746278 19.798421606 255 4 161
-4.332303318 -134.697753291 19.800193623 255 4 161
-4.328225211 -134.794605178 19.786919868 255 4 161
-4.322916007 -134.892111533 19.770207878 255 4 161
-4.321378583 -134.987627073 19.764033185 255 4 161
-4.325977452 -135.079895556 19.775001247 255 4 161
-4.333235390 -135.170752117 19.793398552 255 4 161
-4.338260718 -135.262787251 19.805560073 255 4 161
-4.339454432 -135.356851983 19.807018816 255 4 161
-4.339710200 -135.451414293 19.805858298 255 4 161
-4.342736694 -135.544504588 19.812438974 255 4 161
-4.342773769 -135.639182658 19.810669425 255 4 161
-4.359339187 -135.725065608 19.855074534 255 2 164
-4.407808142 -135.793946284 19.988607431 255 0 168
2.830966138 -140.039105671 -0.241015597 0 229 255
2.816655157 -140.128946303 -0.202993198 0 229 255
2.808123293 -140.221867819 -0.181113654 0 229 255
2.807434392 -140.318981808 -0.181142625 0 229 255
2.807116925 -140.416294736 -0.182208260 0 229 255
2.804190937 -140.512209442 -0.175985865 0 229 255
2.797500762 -140.606102867 -0.159246897 0 230 252
2.793040603 -140.701188852 -0.148736586 0 230 252
2.795893102 -140.800200796 -0.158653909 0 230 252
2.801766029 -140.900839434 -0.177008290 0 229 255
2.804854029 -140.999984673 -0.187581818 0 229 255
2.803592004 -141.096790542 -0.186002069 0 229 255
2.799091774 -141.191851053 -0.175374923 0 229 255
2.793354342 -141.286241418 -0.161290398 0 230 252
2.789229387 -141.381497915 -0.151709540 0 230 252
2.787601980 -141.478100365 -0.149105024 0 230 252
2.787995156 -141.575793933 -0.152144439 0 230 252
2.791265830 -141.675044378 -0.163221847 0 230 252
2.797163114 -141.775719284 -0.181636431 0 229 255
2.804657247 -141.877264040 -0.204511407 0 229 255
2.812765424 -141.979147881 -0.229101117 0 229 255
2.817901677 -142.079426726 -0.245387230 0 229 255
2.816208345 -142.176003458 -0.242592193 0 229 255
2.811008653 -142.270674997 -0.230000146 0 229 255
2.806625439 -142.365786723 -0.219688113 0 229 255
2.803112062 -142.461368608 -0.211805200 0 229 255
2.800365977 -142.557365855 -0.206064947 0 229 255
2.798628652 -142.653910876 -0.203142005 0 229 255
2.795806865 -142.749863922 -0.197188257 0 229 255
2.789701524 -142.844024239 -0.182059706 0 229 255
2.786200063 -142.939601565 -0.174204985 0 229 255
2.788861133 -143.038542761 -0.183566674 0 229 255
2.794362056 -143.139038795 -0.200861759 0 229 255
2.798665314 -143.238884449 -0.214809872 0 229 255
2.798056009 -143.336044822 -0.215031824 0 229 255
2.792621542 -143.430562057 -0.201771630 0 229 255
2.787807864 -143.525415825 -0.190244819 0 229 255
2.786731712 -143.622316561 -0.189159464 0 229 255
2.786455218 -143.719655893 -0.190307374 0 229 255
2.780610772 -143.813936794 -0.175897560 0 229 255
2.771486982 -143.906410872 -0.152324185 0 230 252
2.767064133 -144.001464365 -0.141884136 0 230 252
2.771090960 -144.101166446 -0.155051643 0 230 252
2.777907210 -144.202408789 -0.176012065 0 229 255
