ply
format ascii 1.0
comment coordinate_system ground
comment units millimeter
element vertex 1004
property double x
property double y
property double z
property uchar red
property uchar green
property uchar blue
comment color_mapping zg_high_contrast_from_zg
comment color_zg_range_mm -0.234918336 19.985910196
end_header
4.036684375 6.047284577 0.507883548 0 234 228
4.057487597 5.951408234 0.446646031 0 233 231
4.074900344 5.855358492 0.394813665 0 233 234
4.074453832 5.758476148 0.392520871 0 233 234
4.067183614 5.661283262 0.409157221 0 233 231
4.060112384 5.564104143 0.425242887 0 233 231
4.056505922 5.467084479 0.431718928 0 233 231
4.058615303 5.370320002 0.422340936 0 233 231
4.066179823 5.273792694 0.397831843 0 233 231
4.075024996 5.177314563 0.369771182 0 233 234
4.075431599 5.080464781 0.365119520 0 233 234
4.068067081 4.983281590 0.382025724 0 233 234
4.056802264 4.885937973 0.409752546 0 233 231
4.045784163 4.788612581 0.436796373 0 233 231
4.036934144 4.691385085 0.457827319 0 233 231
4.029763224 4.594232831 0.474201741 0 233 231
4.024168317 4.497149679 0.486205536 0 234 228
4.023364647 4.400263920 0.484919466 0 234 228
4.027936683 4.303593471 0.468721990 0 233 231
4.031506820 4.206878971 0.455304810 0 233 231
4.031015670 4.110001294 0.453154972 0 233 231
4.026906643 4.012982370 0.461042575 0 233 231
4.021139234 3.915901896 0.473531909 0 233 231
4.018413812 3.818941168 0.477583636 0 234 228
4.021491258 3.722201000 0.465538557 0 233 231
4.029421729 3.625639199 0.440031455 0 233 231
4.035365378 3.528997002 0.420036992 0 233 231
4.035648632 3.432142124 0.415746402 0 233 231
4.035160308 3.335258287 0.413597396 0 233 231
4.039133385 3.238534062 0.399072641 0 233 231
4.047600287 3.141965471 0.372082001 0 233 234
4.053427849 3.045296977 0.352414364 0 233 234
4.055357556 2.948487926 0.343561263 0 233 234
4.052907236 2.851526244 0.346860535 0 233 234
4.045855733 2.754409461 0.362925900 0 233 234
4.039989628 2.657337099 0.375703908 0 233 234
4.037161336 2.560369263 0.380055348 0 233 234
4.037624142 2.463510767 0.375277409 0 233 234
4.041593201 2.366764802 0.360773042 0 233 234
4.046352373 2.270040330 0.344077609 0 233 234
4.049160338 2.173249681 0.332796474 0 233 234
4.048017689 2.076332585 0.332476810 0 233 234
4.039605163 1.979191076 0.352327684 0 233 234
4.025811376 1.881891115 0.387109624 0 233 234
4.017641912 1.784770339 0.406288844 0 233 231
4.015619611 1.687837825 0.408414536 0 233 231
4.014961669 1.590946130 0.406756040 0 233 231
4.011309159 1.493967424 0.413406927 0 233 231
4.004808465 1.396909334 0.427961184 0 233 231
3.999846432 1.299898842 0.438247718 0 233 231
4.001654368 1.203079696 0.429752253 0 233 231
4.007193562 1.106360749 0.410905427 0 233 231
4.012972592 1.009643267 0.391394108 0 233 234
4.016612165 0.912863529 0.377819706 0 233 234
4.014498718 0.815929018 0.380208311 0 233 234
4.008255275 0.718888388 0.394056976 0 233 234
4.002571864 0.621866060 0.406353048 0 233 231
3.999955089 0.524924387 0.410141710 0 233 231
3.999073940 0.428026901 0.409115858 0 233 231
3.994627013 0.331042431 0.417984773 0 233 231
3.984457670 0.233923355 0.442732467 0 233 231
3.980363675 0.136954676 0.450624611 0 233 231
3.977688400 0.040021297 0.454581493 0 233 231
3.981917952 -0.056753150 0.439380931 0 233 231
3.989823206 -0.153449099 0.413982435 0 233 231
3.993402608 -0.250247339 0.400587730 0 233 231
4.003977431 -0.346897421 0.367783757 0 233 234
4.007677044 -0.443702824 0.354057380 0 233 234
3.996922397 -0.540814162 0.380438740 0 233 234
3.989342902 -0.637852836 0.398011228 0 233 231
3.986764544 -0.734785707 0.401708036 0 233 231
3.991773951 -0.831567400 0.384351645 0 233 234
3.990444689 -0.928476568 0.384584680 0 233 234
3.994224398 -1.025288430 0.370642445 0 233 234
3.993395136 -1.122189764 0.369490243 0 233 234
3.991174699 -1.219116603 0.372199427 0 233 234
3.992843291 -1.315973102 0.364118302 0 233 234
3.999485208 -1.412744797 0.342237948 0 233 234
4.006259679 -1.509520099 0.319990678 0 233 234
4.006518681 -1.606410170 0.315823986 0 232 237
3.998853446 -1.703430500 0.333647328 0 233 234
3.984720116 -1.800548776 0.369420356 0 233 234
3.973707638 -1.897608468 0.396534721 0 233 234
3.964720398 -1.994629780 0.418030555 0 233 231
3.967356912 -2.091473164 0.407272351 0 233 231
3.979757030 -2.188178774 0.369421489 0 233 234
3.990770678 -2.284914100 0.335418799 0 233 234
4.002701964 -2.381646143 0.298870456 0 232 237
4.003109923 -2.478540768 0.294300189 0 232 237
3.993694914 -2.575562846 0.316989934 0 232 237
3.986072835 -2.672556106 0.334705578 0 233 234
3.986926290 -2.769441768 0.328902502 0 233 234
3.990746665 -2.866294110 0.314867102 0 232 237
3.992201341 -2.963176964 0.307397676 0 232 237
3.982053616 -3.060188719 0.332126981 0 233 234
3.968992203 -3.157224249 0.364943429 0 233 234
3.957646406 -3.254233075 0.393000283 0 233 234
3.963009829 -3.351070289 0.374688291 0 233 234
4.011065328 -3.447510544 0.237900640 0 232 240
4.045164196 -3.544114456 0.139844602 0 231 243
4.078409419 -3.640752681 0.044157735 0 231 246
4.131493671 -3.737253273 -0.106585887 0 230 252
4.147676360 -3.834086094 -0.154920767 0 230 252
4.153642291 -3.931008683 -0.174901348 0 229 255
4.154264526 -4.027974630 -0.180051053 0 229 255
4.154562043 -4.124944018 -0.184298519 0 229 255
4.154954479 -4.221913812 -0.188808333 0 229 255
4.154121381 -4.318891992 -0.189915895 0 229 255
4.150203303 -4.415887521 -0.182460669 0 229 255
4.142934391 -4.512898228 -0.165704712 0 229 255
4.135923229 -4.609902900 -0.149662808 0 230 252
4.133804592 -4.706881315 -0.147197943 0 230 252
4.136947757 -4.803837610 -0.159335185 0 229 255
4.139409089 -4.900799591 -0.169579105 0 229 255
4.137004079 -4.997780184 -0.166316159 0 229 255
4.131659671 -5.094768217 -0.154894138 0 230 252
4.128202078 -5.191748197 -0.148707529 0 230 252
4.129111456 -5.288717021 -0.154639833 0 230 252
4.129361672 -5.385688472 -0.158741627 0 229 255
4.125689705 -5.482666225 -0.151956610 0 230 252
4.119148919 -5.579644740 -0.137208176 0 230 252
4.110982707 -5.676619981 -0.117947181 0 230 252
4.116872232 -5.773586813 -0.137696125 0 230 252
4.112025280 -5.870557060 -0.127645253 0 230 252
4.118374400 -5.967530629 -0.148667802 0 230 252
4.123941688 -6.064509112 -0.167519459 0 229 255
4.124879132 -6.161486508 -0.173519947 0 229 255
4.120263731 -6.258455912 -0.164107259 0 229 255
4.112990152 -6.355416992 -0.147315461 0 230 252
4.108635047 -6.452380502 -0.138622786 0 230 252
4.110913462 -6.549360427 -0.148340744 0 230 252
4.116725706 -6.646354346 -0.167866138 0 229 255
4.122224704 -6.743352369 -0.186521158 0 229 255
4.125177860 -6.840345181 -0.198108961 0 229 255
4.126816149 -6.937335263 -0.206046176 0 229 255
4.128390866 -7.034327079 -0.213805895 0 229 255
4.128625266 -7.131313968 -0.217844314 0 229 255
4.126264656 -7.228287428 -0.214678760 0 229 255
4.120664337 -7.325240650 -0.202519651 0 229 255
4.112336697 -7.422173141 -0.182789085 0 229 255
4.113071230 -7.519160710 -0.188211186 0 229 255
4.106379098 -7.616097044 -0.173017844 0 229 255
4.099984745 -7.713031249 -0.158649790 0 229 255
4.094280162 -7.809966744 -0.146195112 0 230 252
4.089417070 -7.906905570 -0.136074976 0 230 252
4.085769405 -8.003851919 -0.129327380 0 230 252
4.084662597 -8.100819115 -0.129631489 0 230 252
4.086808308 -8.197816758 -0.138962845 0 230 252
4.092043311 -8.294846999 -0.156868491 0 229 255
4.099651160 -8.391906121 -0.181359819 0 229 255
4.102746651 -8.488924337 -0.193324652 0 229 255
4.100708796 -8.585889676 -0.191039039 0 229 255
4.097949762 -8.682846084 -0.186750383 0 229 255
4.094704014 -8.779795473 -0.181109505 0 229 255
4.092895156 -8.876760495 -0.179456119 0 229 255
4.092256537 -8.973739482 -0.181050080 0 229 255
4.089892277 -9.070696615 -0.177852688 0 229 255
4.087929528 -9.167658026 -0.175768717 0 229 255
4.087243757 -9.264636083 -0.177228440 0 229 255
4.087392032 -9.361626063 -0.181002343 0 229 255
4.087711728 -9.458619404 -0.185251031 0 229 255
4.087971240 -9.555612886 -0.189331570 0 229 255
4.088128854 -9.652605810 -0.193128162 0 229 255
4.088728214 -9.749606495 -0.198149971 0 229 255
4.090001793 -9.846619146 -0.205042366 0 229 255
4.090389972 -9.943619139 -0.209475797 0 229 255
4.088128637 -10.040576043 -0.206552941 0 229 255
4.083474989 -10.137491197 -0.196987695 0 229 255
4.079853265 -10.234421559 -0.190285951 0 229 255
4.077129280 -10.331365926 -0.186075242 0 229 255
4.073571173 -10.428293802 -0.179547753 0 229 255
4.069490796 -10.525210023 -0.171569194 0 229 255
4.067080151 -10.622155579 -0.168224858 0 229 255
4.066551201 -10.719136493 -0.170103252 0 229 255
4.065877286 -10.816114926 -0.171578100 0 229 255
4.062058729 -10.913030342 -0.164321741 0 229 255
4.057576086 -11.009929993 -0.155220559 0 230 252
4.056598441 -11.106900216 -0.155848787 0 230 252
4.058867004 -11.203939540 -0.165488107 0 229 255
4.062075231 -11.301001743 -0.177735133 0 229 255
4.063564360 -11.398029299 -0.185208515 0 229 255
4.062790018 -11.495008021 -0.186396854 0 229 255
4.061386956 -11.591972593 -0.185838588 0 229 255
4.058841108 -11.688910368 -0.182106492 0 229 255
4.053893026 -11.785790335 -0.171703909 0 229 255
4.047507753 -11.882632853 -0.157310006 0 229 255
4.042653463 -11.979508528 -0.147165364 0 230 252
4.041661346 -12.076476773 -0.147742236 0 230 252
4.043259642 -12.173510096 -0.155509914 0 230 252
4.046198126 -12.270579603 -0.166997414 0 229 255
4.050091050 -12.367676854 -0.181133803 0 229 255
4.053372448 -12.464761817 -0.193571371 0 229 255
4.052060867 -12.561727690 -0.193255934 0 229 255
4.045723099 -12.658557476 -0.178984537 0 229 255
4.039678411 -12.755391219 -0.165525605 0 229 255
4.036944490 -12.852313147 -0.161257618 0 229 255
4.037508816 -12.949326719 -0.166145946 0 229 255
4.041323564 -13.046434366 -0.180057944 0 229 255
4.047427105 -13.143611991 -0.200323779 0 229 255
4.052691177 -13.240770462 -0.218257903 0 229 255
4.055204896 -13.337852025 -0.228554669 0 229 255
4.055189140 -13.434860162 -0.231827245 0 229 255
4.051769492 -13.531765302 -0.225647665 0 229 255
4.043953663 -13.628532895 -0.207260641 0 229 255
4.031564307 -13.725152336 -0.176173582 0 229 255
4.021454001 -13.821835158 -0.151413087 0 230 252
4.021622051 -13.918840133 -0.155190142 0 230 252
4.026806131 -14.016008571 -0.172893707 0 229 255
4.031317333 -14.113159712 -0.188727995 0 229 255
4.032343577 -14.210199499 -0.194884838 0 229 255
4.028747954 -14.307085766 -0.188207289 0 229 255
4.022822843 -14.403890998 -0.175060338 0 229 255
4.018272657 -14.500739662 -0.165729877 0 229 255
4.016495442 -14.597681867 -0.164097907 0 229 255
4.016176034 -14.694674652 -0.166512716 0 229 255
4.014303291 -14.791612874 -0.164613247 0 229 255
4.020688024 -14.888846558 -0.185641485 0 229 255
4.020063528 -14.985831892 -0.187205933 0 229 255
4.020712894 -15.082864194 -0.192306491 0 229 255
4.020156320 -15.179853149 -0.194057359 0 229 255
4.019629690 -15.276843585 -0.195890275 0 229 255
4.014066906 -15.373644145 -0.183737676 0 229 255
4.016802263 -15.470757904 -0.194626273 0 229 255
4.020709476 -15.567919723 -0.208767908 0 229 255
4.021413511 -15.664960629 -0.214013835 0 229 255
4.019264047 -15.761890680 -0.211334934 0 229 255
4.016291797 -15.858787207 -0.206370119 0 229 255
4.018549381 -15.955891865 -0.215926792 0 229 255
4.012103872 -16.052646864 -0.201314833 0 229 255
4.009737336 -16.149564331 -0.198028567 0 229 255
4.014565367 -16.246777430 -0.214719933 0 229 255
4.013599621 -16.343753901 -0.215321379 0 229 255
4.017824536 -16.440948436 -0.230335934 0 229 255
4.012676952 -16.537749746 -0.219322408 0 229 255
4.007232581 -16.634535200 -0.207483488 0 229 255
4.002702928 -16.731356736 -0.198183505 0 229 255
3.999138277 -16.828217598 -0.191562132 0 229 255
3.996540469 -16.925118977 -0.187624522 0 229 255
3.994537692 -17.022045515 -0.185338181 0 229 255
3.992636057 -17.118975824 -0.183331579 0 229 255
3.991086096 -17.215921315 -0.182300462 0 229 255
3.991288166 -17.312946047 -0.186133739 0 229 255
3.992463689 -17.410016349 -0.192669305 0 229 255
3.990824548 -17.506958236 -0.191387211 0 229 255
3.985816838 -17.603742650 -0.180749089 0 229 255
3.980042513 -17.700487984 -0.167980761 0 229 255
3.975291995 -17.797278179 -0.158054451 0 229 255
3.972880437 -17.894177227 -0.154622586 0 230 252
3.974213329 -17.991255488 -0.161588538 0 229 255
3.979538807 -18.088529317 -0.179641581 0 229 255
3.985862326 -18.185856843 -0.200465438 0 229 255
3.986887677 -18.282928835 -0.206574266 0 229 255
3.981502212 -18.379683914 -0.194877780 0 229 255
3.975483266 -18.476403933 -0.181420737 0 229 255
3.972472935 -18.573271900 -0.176318125 0 229 255
3.971165200 -18.670224894 -0.175942904 0 229 255
3.969403730 -18.767154435 -0.174306418 0 229 255
3.969309359 -18.864169438 -0.177298817 0 229 255
3.974387644 -18.961454057 -0.194656164 0 229 255
3.981136223 -19.058830837 -0.216651499 0 229 255
3.985323607 -19.156078482 -0.231532650 0 229 255
3.983926493 -19.253033396 -0.230902764 0 229 255
3.977612525 -19.349724877 -0.216615900 0 229 255
3.972021940 -19.446451293 -0.204336886 0 229 255
3.970041176 -19.543370179 -0.202082497 0 229 255
3.968519807 -19.640313452 -0.201102895 0 229 255
3.964729678 -19.737131438 -0.193820892 0 229 255
3.959210976 -19.833851473 -0.181736722 0 229 255
3.955453469 -19.930666378 -0.174542932 0 229 255
3.955846717 -20.027712497 -0.178876477 0 229 255
3.959251444 -20.124930136 -0.191573225 0 229 255
3.963248705 -20.222184943 -0.205914732 0 229 255
3.965776609 -20.319359329 -0.216174135 0 229 255
3.966090636 -20.416408610 -0.220283474 0 229 255
3.962841951 -20.513251829 -0.214496243 0 229 255
3.955989778 -20.609882497 -0.198699037 0 229 255
3.947905564 -20.706436131 -0.179478519 0 229 255
3.941182354 -20.803065029 -0.164036967 0 229 255
3.936898815 -20.899835117 -0.155370515 0 230 252
3.933512830 -20.996656606 -0.149195899 0 230 252
3.929864374 -21.093460424 -0.142291068 0 230 252
3.927132502 -21.190317975 -0.137930974 0 230 252
3.926898730 -21.287327108 -0.140508513 0 230 252
3.928492103 -21.384449377 -0.148160110 0 230 252
3.929541825 -21.481539975 -0.154300594 0 230 252
3.928470676 -21.578499928 -0.154548954 0 230 252
3.927222933 -21.675448773 -0.154305684 0 230 252
3.928702482 -21.772569603 -0.161636874 0 229 255
3.931261882 -21.869760938 -0.171966534 0 229 255
3.931065555 -21.966778971 -0.174640542 0 229 255
3.925918604 -22.063479453 -0.163561953 0 229 255
3.918157067 -22.160007721 -0.145219485 0 230 252
3.914466436 -22.256795599 -0.138183727 0 230 252
3.917329007 -22.354010184 -0.149350096 0 230 252
3.914103325 -22.450827094 -0.143603596 0 230 252
3.915034352 -22.547917468 -0.149402431 0 230 252
3.917397764 -22.645104717 -0.159179110 0 229 255
3.915256426 -22.741992927 -0.156441355 0 229 255
3.908785831 -22.838588727 -0.141676473 0 230 252
3.903881540 -22.935286435 -0.131261300 0 230 252
3.905430962 -23.032420762 -0.138772474 0 230 252
3.909881642 -23.129755805 -0.154341959 0 230 252
3.912603676 -23.226975988 -0.165108483 0 229 255
3.912641502 -23.324013129 -0.168417518 0 229 255
3.909183029 -23.420807572 -0.162013031 0 229 255
3.903310901 -23.517431111 -0.148902392 0 230 252
3.898282160 -23.614110323 -0.138133400 0 230 252
3.895908219 -23.710974436 -0.134738125 0 230 252
3.895979409 -23.808011582 -0.138134216 0 230 252
3.897210739 -23.905132611 -0.144752084 0 230 252
3.897171407 -24.002163949 -0.147839003 0 230 252
3.895007570 -24.099042364 -0.145022933 0 230 252
3.890741135 -24.195767000 -0.136364646 0 230 252
3.885973763 -24.292452531 -0.126313541 0 230 252
3.883247891 -24.389285228 -0.121932624 0 230 252
3.882211162 -24.486241415 -0.122243113 0 230 252
3.878662814 -24.583011084 -0.115575004 0 230 252
3.872715038 -24.679599716 -0.102239882 0 230 252
3.868997411 -24.776351899 -0.095099114 0 230 252
3.871428204 -24.873565695 -0.105038233 0 230 252
3.877366992 -24.971048052 -0.124722022 0 230 252
3.881376618 -25.068388800 -0.139045390 0 230 252
3.880035398 -25.165323730 -0.138502264 0 230 252
3.874090447 -25.261904166 -0.125168044 0 230 252
3.867924017 -25.358463701 -0.111217275 0 230 252
3.866115574 -25.455357990 -0.109372632 0 230 252
3.869886709 -25.552687467 -0.123028136 0 230 252
3.875808991 -25.650189475 -0.142659042 0 230 252
3.878906983 -25.747474073 -0.154442460 0 230 252
3.876117678 -25.844295246 -0.149868458 0 230 252
3.868867723 -25.940759825 -0.132900412 0 230 252
3.859770243 -26.037071781 -0.110798141 0 230 252
3.851615855 -26.133453376 -0.091314739 0 230 252
3.847115471 -26.230124715 -0.081981992 0 230 252
3.846826058 -26.327135225 -0.084347485 0 230 252
3.850187844 -26.424444104 -0.096856154 0 230 252
3.856362662 -26.521986878 -0.117179423 0 230 252
3.862620366 -26.619542016 -0.137732063 0 230 252
3.863502002 -26.716658085 -0.143347047 0 230 252
3.856511640 -26.813121479 -0.127089484 0 230 252
3.844627525 -26.909171755 -0.097233833 0 230 252
3.835531319 -27.005447507 -0.075122756 0 230 249
3.835678522 -27.102495828 -0.078692530 0 230 252
3.838813439 -27.199797925 -0.090562429 0 230 252
3.840636464 -27.296991691 -0.098786293 0 230 252
3.841317029 -27.394090085 -0.103834835 0 230 252
3.841816046 -27.491174223 -0.108377887 0 230 252
3.842074377 -27.588238800 -0.112251128 0 230 252
3.841421559 -27.685225507 -0.113591659 0 230 252
3.838932983 -27.782052906 -0.109830391 0 230 252
3.835401127 -27.878788084 -0.103169185 0 230 252
3.835769828 -27.975863460 -0.107344706 0 230 252
3.840195897 -28.073297345 -0.122792816 0 230 252
3.845293551 -28.170794849 -0.140106017 0 230 252
3.847770287 -28.268064168 -0.150135815 0 230 252
3.844963990 -28.364864693 -0.145485136 0 230 252
3.837568167 -28.461252494 -0.128080760 0 230 252
3.828736835 -28.557506190 -0.106686354 0 230 252
3.822157933 -28.653957513 -0.091549337 0 230 252
3.820031366 -28.750808778 -0.088782584 0 230 252
3.823624388 -28.848180650 -0.101907562 0 230 252
3.828944716 -28.945714220 -0.119831197 0 230 252
3.832965550 -29.043133206 -0.134142991 0 230 252
3.833889291 -29.140270152 -0.139847884 0 230 252
3.829183305 -29.236886697 -0.129908254 0 230 252
3.819691432 -29.333054904 -0.106668686 0 230 252
3.818535920 -29.429995848 -0.106592473 0 230 252
3.813054788 -29.526530704 -0.094495263 0 230 252
3.812096598 -29.623488400 -0.094965085 0 230 252
3.815238790 -29.720834165 -0.106827915 0 230 252
3.821452955 -29.818475018 -0.127226171 0 230 252
3.821009488 -29.915486332 -0.129123153 0 230 252
3.819303798 -30.012377206 -0.127511538 0 230 252
3.821586278 -30.109651090 -0.136981314 0 230 252
3.817044230 -30.206268621 -0.127485663 0 230 252
3.814503786 -30.303077482 -0.123551016 0 230 252
3.811131263 -30.399804211 -0.117302970 0 230 252
3.808526870 -30.496604194 -0.113188313 0 230 252
3.808501561 -30.593655946 -0.116239556 0 230 252
3.804692990 -30.690335934 -0.108776314 0 230 252
3.801342911 -30.787059117 -0.102586015 0 230 252
3.799300780 -30.883910323 -0.100029273 0 230 252
3.795285815 -30.980564215 -0.091988960 0 230 252
3.792755122 -31.077364258 -0.088072222 0 230 252
3.792550403 -31.174396666 -0.090618206 0 230 252
3.792795874 -31.271475084 -0.094414191 0 230 252
3.791967425 -31.368445848 -0.095224656 0 230 252
3.790616660 -31.465363735 -0.094582488 0 230 252
3.791939897 -31.562553945 -0.101370383 0 230 252
3.792828232 -31.659701473 -0.106948617 0 230 252
3.788768985 -31.756342367 -0.098776099 0 230 252
3.783779122 -31.852885006 -0.088016135 0 230 252
3.780520246 -31.949603710 -0.082065544 0 230 252
3.779140633 -32.046515875 -0.081336478 0 230 252
3.777762635 -32.143427945 -0.080610785 0 230 252
3.774739725 -32.240167660 -0.075312534 0 230 249
3.772847018 -32.337024528 -0.073154135 0 230 249
3.775270885 -32.434335668 -0.082991091 0 230 252
3.778901603 -32.531777125 -0.096181091 0 230 252
3.777807138 -32.628720547 -0.096237909 0 230 252
3.773171042 -32.725286586 -0.086450693 0 230 252
3.769480654 -32.821950982 -0.079290606 0 230 252
3.769600669 -32.919022246 -0.082719347 0 230 252
3.772990199 -33.016446521 -0.095233808 0 230 252
3.777306319 -33.113974350 -0.110322519 0 230 252
3.779595036 -33.211286391 -0.119775559 0 230 252
3.777363491 -33.308108954 -0.116664472 0 230 252
3.771791006 -33.404565649 -0.104266769 0 230 252
3.766337706 -33.501031923 -0.092199093 0 230 252
3.763736758 -33.597808576 -0.088057816 0 230 252
3.764095809 -33.694910780 -0.092142244 0 230 252
3.764429388 -33.792011237 -0.096154806 0 230 252
3.762202040 -33.888828081 -0.093048543 0 230 252
3.758921695 -33.985526558 -0.087014463 0 230 252
3.757661160 -34.082449383 -0.086593069 0 230 252
3.756336101 -34.179364791 -0.085991226 0 230 252
3.752917811 -34.276044080 -0.079570301 0 230 252
3.748002193 -34.372552220 -0.068986480 0 230 249
3.744508438 -34.469218712 -0.062353447 0 230 249
3.743437612 -34.566159166 -0.062453685 0 230 249
3.740632432 -34.662901473 -0.057732221 0 230 249
3.735670774 -34.759395248 -0.047015702 0 230 249
3.730097582 -34.855815678 -0.034598215 0 230 249
3.725770833 -34.952376447 -0.025644012 0 230 249
3.726450061 -35.049514242 -0.030602870 0 230 249
3.731366557 -35.147145549 -0.047338337 0 230 249
3.736511745 -35.244808090 -0.064708523 0 230 249
3.736953225 -35.341925399 -0.069003491 0 230 249
3.731908359 -35.438400239 -0.058047643 0 230 249
3.727815661 -35.534984064 -0.049737228 0 230 249
3.728683594 -35.632151293 -0.055214242 0 230 249
3.732083868 -35.729619983 -0.067729156 0 230 249
3.734662070 -35.826994386 -0.077958024 0 230 252
3.734859806 -35.924087738 -0.081569026 0 230 252
3.732380376 -36.020861804 -0.077737341 0 230 252
3.728342773 -36.117447777 -0.069573296 0 230 249
3.723987694 -36.213993224 -0.060525589 0 230 249
3.721290949 -36.310736402 -0.056086362 0 230 249
3.722524789 -36.407954523 -0.062571897 0 230 249
3.726128954 -36.505462487 -0.075645250 0 230 249
3.727169911 -36.602661500 -0.081592568 0 230 252
3.723648695 -36.699304112 -0.074857111 0 230 249
3.718324231 -36.795723564 -0.063107875 0 230 249
3.715632103 -36.892463709 -0.058674741 0 230 249
3.719109022 -36.989964242 -0.071389149 0 230 249
3.725762104 -37.087861616 -0.092931706 0 230 252
3.729037313 -37.185345262 -0.105083476 0 230 252
3.726737149 -37.282137432 -0.101735639 0 230 252
3.720036179 -37.378378517 -0.086153090 0 230 252
3.718806305 -37.475301257 -0.085778182 0 230 252
3.711339168 -37.571439375 -0.068063349 0 230 249
3.709349219 -37.668263535 -0.065573217 0 230 249
3.710348121 -37.765465180 -0.071390672 0 230 249
3.714356820 -37.863050416 -0.085574064 0 230 252
3.717888820 -37.960578848 -0.098431300 0 230 252
3.716142580 -38.057436788 -0.096614350 0 230 252
3.714992746 -38.154370573 -0.096454262 0 230 252
3.715723016 -38.251545802 -0.101519702 0 230 252
3.717111377 -38.348807188 -0.108413567 0 230 252
3.717529018 -38.445944992 -0.112607799 0 230 252
3.715838539 -38.542810665 -0.110940375 0 230 252
3.716047299 -38.639922747 -0.114551760 0 230 252
3.722262573 -38.737818972 -0.134860401 0 230 252
3.720421206 -38.834667185 -0.132770275 0 230 252
3.721003368 -38.931832647 -0.137416589 0 230 252
3.720269319 -39.028826219 -0.138402678 0 230 252
3.713914408 -39.125078481 -0.123761178 0 230 252
3.707241731 -39.221284609 -0.108235009 0 230 252
3.699478673 -39.317341714 -0.089676206 0 230 252
3.689358427 -39.413079948 -0.064562836 0 230 249
3.681559312 -39.509120989 -0.045901196 0 230 249
3.466456784 -58.798579063 -0.027213634 0 230 249
3.481232529 -59.481832949 -0.087944521 0 230 252
3.481125986 -59.578977633 -0.090445680 0 230 252
3.484334220 -59.676830972 -0.102170477 0 230 252
3.487663449 -59.774713468 -0.114231019 0 230 252
3.487703162 -59.871894246 -0.117136107 0 230 252
3.485191618 -59.968528026 -0.112940140 0 230 252
3.483128418 -60.065257110 -0.109990773 0 230 252
3.483711760 -60.162555725 -0.114405535 0 230 252
3.486532427 -60.260338589 -0.125045686 0 230 252
3.489515085 -60.358159458 -0.136135676 0 230 252
3.488327863 -60.455079995 -0.135619882 0 230 252
3.483640320 -60.551240701 -0.125361540 0 230 252
3.479719181 -60.647565224 -0.117234942 0 230 252
3.477472359 -60.744252205 -0.113766890 0 230 252
3.475802367 -60.841064113 -0.111903072 0 230 252
3.473708097 -60.937782787 -0.108857359 0 230 252
3.471876987 -61.034558267 -0.106542932 0 230 252
3.469984387 -61.131319641 -0.104056266 0 230 252
3.466472484 -61.227724526 -0.097061795 0 230 252
3.461541403 -61.323815100 -0.086116424 0 230 252
3.456509567 -61.419880450 -0.074889453 0 230 249
3.454200080 -61.516544071 -0.071238003 0 230 249
3.456767581 -61.614285896 -0.081158904 0 230 252
3.461477146 -61.712505323 -0.097040563 0 230 252
3.464895430 -61.810442443 -0.109327408 0 230 252
3.466651127 -61.908013170 -0.116985968 0 230 252
3.467266169 -62.005331880 -0.121468826 0 230 252
3.466666928 -62.102380818 -0.122571016 0 230 252
3.465874774 -62.199386955 -0.123135213 0 230 252
3.466133642 -62.296628684 -0.126623599 0 230 252
3.466723014 -62.393945561 -0.131030820 0 230 252
3.465289049 -62.490808937 -0.129805480 0 230 252
3.458081469 -62.586372139 -0.112509364 0 230 252
3.448710236 -62.681442620 -0.089189883 0 230 252
3.443775977 -62.777509023 -0.078218637 0 230 252
3.441578232 -62.874191674 -0.074862846 0 230 249
3.440021407 -62.971018708 -0.073289851 0 230 249
3.438370286 -63.067823923 -0.071453297 0 230 249
3.437915243 -63.164900709 -0.072944783 0 230 249
3.438445020 -63.262202316 -0.077176337 0 230 252
3.439404653 -63.359603229 -0.082603316 0 230 252
3.439193702 -63.456738070 -0.084771047 0 230 252
3.435253104 -63.553019471 -0.076556511 0 230 249
3.426610677 -63.648220118 -0.055253551 0 230 249
3.427527439 -63.745611270 -0.060556883 0 230 249
3.427217868 -63.842721678 -0.062445725 0 230 249
3.434030379 -63.941474549 -0.084157693 0 230 252
3.432820523 -64.038380916 -0.083538568 0 230 252
3.435535151 -64.136194911 -0.093842194 0 230 252
3.432324607 -64.232638962 -0.087651996 0 230 252
3.428978351 -64.329049833 -0.081082903 0 230 252
3.418881916 -64.423889728 -0.055723228 0 230 249
3.410407441 -64.519100304 -0.034877058 0 230 249
3.406364579 -64.615338753 -0.026365335 0 230 249
3.408104786 -64.712925932 -0.033950125 0 230 249
3.413393586 -64.811345648 -0.051411773 0 230 249
3.419081302 -64.909863741 -0.069982937 0 230 249
3.422606761 -65.007879358 -0.082534282 0 230 252
3.423423004 -65.105261371 -0.087543189 0 230 252
3.421306467 -65.201953984 -0.084387224 0 230 252
3.417620708 -65.298275517 -0.076861965 0 230 249
3.415894110 -65.395057993 -0.074789232 0 230 249
3.414839683 -65.491999038 -0.074586517 0 230 249
3.413656808 -65.588909606 -0.074025164 0 230 249
3.411419651 -65.685569682 -0.070527903 0 230 249
3.408231103 -65.782002518 -0.064381115 0 230 249
3.405584863 -65.878562892 -0.059742841 0 230 249
3.405010351 -65.975616408 -0.060870636 0 230 249
3.405875860 -66.073014470 -0.066006052 0 230 249
3.405631133 -66.170148190 -0.068049783 0 230 249
3.403637281 -66.266863080 -0.065223249 0 230 249
3.401825564 -66.363620968 -0.062902640 0 230 249
3.402115839 -66.460883917 -0.066432508 0 230 249
3.403486952 -66.558408312 -0.072970209 0 230 249
3.404385075 -66.655820404 -0.078190167 0 230 252
3.404212240 -66.752975103 -0.080427693 0 230 252
3.403944860 -66.850107568 -0.082400966 0 230 252
3.405100827 -66.947585773 -0.088335622 0 230 252
3.407084792 -67.045266765 -0.096574324 0 230 252
3.407082389 -67.142466859 -0.099282149 0 230 252
3.405493813 -67.239281265 -0.097573130 0 230 252
3.403885096 -67.336090319 -0.095806953 0 230 252
3.400916962 -67.432566645 -0.090255124 0 230 252
3.394978674 -67.528314344 -0.076433357 0 230 249
3.387257408 -67.623621070 -0.057646609 0 230 249
3.381125646 -67.719312981 -0.043283777 0 230 249
3.378904695 -67.815962885 -0.039807463 0 230 249
3.379897587 -67.913403607 -0.045277444 0 230 249
3.381515225 -68.011000035 -0.052485719 0 230 249
3.383301660 -68.108640213 -0.060162927 0 230 249
3.385199239 -68.206310068 -0.068148561 0 230 249
3.385435978 -68.303570458 -0.071509301 0 230 249
3.382299078 -68.399994199 -0.065476496 0 230 249
3.377231012 -68.495936086 -0.054066005 0 230 249
3.373790380 -68.592280171 -0.047185289 0 230 249
3.374300066 -68.689607760 -0.051301617 0 230 249
3.378284786 -68.787804688 -0.065091888 0 230 249
3.383104527 -68.886214413 -0.081206039 0 230 252
3.385789170 -68.984093592 -0.091374804 0 230 252
3.385153055 -69.081142170 -0.092297011 0 230 252
3.382008275 -69.177560440 -0.086233552 0 230 252
3.376928228 -69.273489853 -0.074780786 0 230 249
3.371555908 -69.369342439 -0.062513086 0 230 249
3.368895924 -69.465876607 -0.057795968 0 230 249
3.370562716 -69.563503812 -0.065124528 0 230 249
3.375126087 -69.661866796 -0.080516907 0 230 252
3.376682164 -69.759471179 -0.087535242 0 230 252
3.370252493 -69.855048593 -0.072317989 0 230 249
3.360584103 -69.949797713 -0.048081967 0 230 249
3.352947151 -70.045057857 -0.029500797 0 230 249
3.349944585 -70.141495726 -0.023822005 0 230 249
3.351946177 -70.239211205 -0.032075342 0 230 249
3.355056751 -70.337212917 -0.043415479 0 230 249
3.353304642 -70.433971083 -0.041215182 0 230 249
3.347009635 -70.529562185 -0.026364664 0 230 249
3.341453960 -70.625339340 -0.013571520 0 230 249
3.341070459 -70.722445063 -0.015178594 0 230 249
3.346826722 -70.821134914 -0.033880256 0 230 249
3.355089450 -70.920477458 -0.059560092 0 230 249
3.360841007 -71.019177517 -0.078246894 0 230 252
3.361903421 -71.116667893 -0.083876101 0 230 252
3.358071797 -71.212889989 -0.075877006 0 230 249
3.351641310 -71.308434567 -0.060640286 0 230 249
3.346596897 -71.404335689 -0.049261867 0 230 249
3.344984291 -71.501128145 -0.047438155 0 230 249
3.346067219 -71.598623727 -0.053119122 0 230 249
3.347716418 -71.696268956 -0.060375871 0 230 249
3.347551022 -71.793441197 -0.062578801 0 230 249
3.344679562 -71.889904624 -0.057245487 0 230 249
3.338944223 -71.985614667 -0.043936378 0 230 249
3.331692066 -72.080922219 -0.026402367 0 230 249
3.334121774 -72.178774536 -0.035827220 0 230 249
3.331878650 -72.275397185 -0.032239076 0 230 249
3.333756938 -72.373107382 -0.040126408 0 230 249
3.335174620 -72.470697985 -0.046730128 0 230 249
3.332640390 -72.567243684 -0.042328148 0 230 249
3.330524229 -72.663899108 -0.039089242 0 230 249
3.329997269 -72.760975855 -0.040274646 0 230 249
3.328690487 -72.857845515 -0.039287430 0 230 249
3.327480844 -72.954740829 -0.038569640 0 230 249
3.327823704 -73.052050215 -0.042174056 0 230 249
3.331101337 -73.150144808 -0.053949982 0 230 249
3.334838785 -73.248365752 -0.067005416 0 230 249
3.334813514 -73.345582074 -0.069581660 0 230 249
3.331060073 -73.441798686 -0.061774770 0 230 249
3.328644452 -73.538372709 -0.057692277 0 230 249
3.331977580 -73.636492790 -0.069617759 0 230 249
3.331356850 -73.733550609 -0.070531553 0 230 249
3.338886222 -73.832808436 -0.094140858 0 230 252
3.341231138 -73.930671577 -0.103311471 0 230 252
3.336915854 -74.026734583 -0.093933471 0 230 252
3.328269622 -74.121621104 -0.072493239 0 230 249
3.329663831 -74.219227140 -0.079013084 0 230 252
3.325459804 -74.315313267 -0.069941479 0 230 249
3.324841916 -74.412373130 -0.070855753 0 230 249
3.324790259 -74.509587653 -0.073345875 0 230 249
3.322655250 -74.606234185 -0.070032974 0 230 249
3.319966210 -74.702728391 -0.065176037 0 230 249
3.318558616 -74.799572108 -0.063886751 0 230 249
3.316565365 -74.896254962 -0.060965354 0 230 249
3.312741961 -74.992434619 -0.052945931 0 230 249
3.309208914 -75.088691928 -0.045734007 0 230 249
3.309216270 -75.185921976 -0.048380985 0 230 249
3.310565186 -75.283522665 -0.054763187 0 230 249
3.307812523 -75.379992823 -0.049721370 0 230 249
3.302284703 -75.475694403 -0.036949507 0 230 249
3.298461183 -75.571864328 -0.028923034 0 230 249
3.299235093 -75.669306648 -0.033699574 0 230 249
3.302492915 -75.767439933 -0.045392993 0 230 249
3.300812073 -75.864203523 -0.043330812 0 230 249
3.294572345 -75.959697426 -0.028570559 0 230 249
3.287973376 -76.055087138 -0.012808574 0 230 249
3.283566653 -76.151084532 -0.003151077 0 230 249
3.282517867 -76.248018020 -0.002844772 0 230 249
3.285155202 -76.345983363 -0.012803835 0 230 249
3.290675942 -76.444759810 -0.030792711 0 230 249
3.296807576 -76.543712785 -0.050482145 0 230 249
3.299267689 -76.641639216 -0.059944784 0 230 249
3.296823441 -76.738187825 -0.055746761 0 230 249
3.291525665 -76.833930999 -0.043599921 0 230 249
3.286092624 -76.929632677 -0.031075157 0 230 249
3.282780220 -77.025930317 -0.024455722 0 230 249
3.281451279 -77.122787550 -0.023359630 0 230 249
3.280912089 -77.219868360 -0.024462140 0 230 249
3.281394322 -77.317239409 -0.028408558 0 230 249
3.283897892 -77.415186045 -0.037983985 0 230 249
3.287617675 -77.513481492 -0.050945981 0 230 249
3.291286236 -77.611765992 -0.063764366 0 230 249
3.293769838 -77.709715977 -0.073281292 0 230 249
3.294598087 -77.807195667 -0.078186499 0 230 252
3.293960519 -77.904257373 -0.079007849 0 230 252
3.291920870 -78.000917658 -0.075922812 0 230 249
3.288727780 -78.097246228 -0.069623899 0 230 249
3.285626299 -78.193599422 -0.063579034 0 230 249
3.283202361 -78.290145899 -0.059420293 0 230 249
3.280842586 -78.386709759 -0.055439176 0 230 249
3.277816837 -78.483080478 -0.049601923 0 230 249
3.274569638 -78.579385673 -0.043146717 0 230 249
3.271870866 -78.675847742 -0.038218017 0 230 249
3.269370868 -78.772366062 -0.033841891 0 230 249
3.268361358 -78.869315438 -0.033616418 0 230 249
3.271517923 -78.967474502 -0.044994537 0 230 249
3.277419196 -79.066434814 -0.064017155 0 230 249
3.281691724 -79.164926262 -0.078501957 0 230 252
3.279060260 -79.261409083 -0.073754415 0 230 249
3.268669573 -79.355625621 -0.047391952 0 230 249
3.261270937 -79.450709478 -0.029362773 0 230 249
3.267396921 -79.549746858 -0.049006417 0 230 249
3.205938453 -80.698495057 0.091331125 0 231 243
3.161093323 -89.243061262 -0.005467161 0 230 249
3.163433729 -90.411287027 -0.041609806 0 230 249
-3.997499276 -90.557989240 19.852879674 255 2 164
-4.006088518 -90.649552826 19.874480728 255 2 164
-4.025258509 -90.737437703 19.925576801 255 0 168
-4.031796996 -90.829697969 19.941463969 255 0 168
-4.031825431 -90.924218677 19.939205410 255 0 168
-4.032607582 -91.018477568 19.939048873 255 0 168
-4.036215754 -91.111751224 19.946771032 255 0 168
-4.041529648 -91.204427408 19.959249097 255 0 168
-4.047610427 -91.296832206 19.973866061 255 0 168
-4.052767828 -91.389556028 19.985910196 255 0 168
-4.053388897 -91.483865248 19.985309996 255 0 168
-4.049606978 -91.579718381 19.972436998 255 0 168
-4.046115894 -91.675473068 19.960375649 255 0 168
-4.046232288 -91.769963587 19.958371563 255 0 168
-4.047971034 -91.863884040 19.960891043 255 0 168
-4.047775840 -91.958484885 19.958020399 255 0 168
-4.045715498 -92.053744116 19.949951325 255 0 168
-4.043414130 -92.149090708 19.941211302 255 0 168
-4.042811062 -92.243839761 19.937206582 255 0 168
-4.043985371 -92.337961332 19.938157681 255 0 168
-4.045068384 -92.432115024 19.938855308 255 0 168
-4.045551954 -92.526481066 19.937882878 255 0 168
-4.047184364 -92.620439761 19.940114154 255 0 168
-4.050794003 -92.713695497 19.947858537 255 0 168
-4.053920495 -92.807120962 19.954257115 255 0 168
-4.053736733 -92.901723219 19.951428469 255 0 168
-4.050932079 -92.997260418 19.941294282 255 0 168
-4.048395843 -93.092704720 19.931909331 255 0 168
-4.046134623 -93.188053456 19.923292017 255 0 168
-4.043658363 -93.283481533 19.914076154 255 0 168
-4.041371573 -93.378844406 19.905389450 255 2 164
-4.040601062 -93.473666405 19.900930883 255 2 164
-4.043315061 -93.567239711 19.906187721 255 2 164
-4.048384821 -93.659965629 19.918013261 255 0 168
-4.053429783 -93.752697236 19.929770802 255 0 168
-4.059443984 -93.845076819 19.944231650 255 0 168
-4.066022279 -93.937249217 19.960266318 255 0 168
-4.065619507 -94.031935026 19.956839286 255 0 168
-4.068558749 -94.125415214 19.962730663 255 0 168
-4.065467874 -94.221073326 19.951811292 255 0 168
-4.060726431 -94.317331742 19.936291080 255 0 168
-4.060417665 -94.411988963 19.933130065 255 0 168
-4.063470495 -94.505428213 19.939342233 255 0 168
-4.065567112 -94.599212886 19.942889538 255 0 168
-4.064943388 -94.693985127 19.938853471 255 0 168
-4.070254207 -94.786599804 19.951364230 255 0 168
-4.065851478 -94.882748213 19.936794090 255 0 168
-4.070569921 -94.975575757 19.947655416 255 0 168
-4.074599260 -95.068651811 19.956596579 255 0 168
-4.076005938 -95.162683516 19.958226588 255 0 168
-4.074250453 -95.257871210 19.951041145 255 0 168
-4.070866969 -95.353656936 19.939317582 255 0 168
-4.066922883 -95.449651418 19.926031890 255 0 168
-4.069594752 -95.543222547 19.931193441 255 0 168
-4.068896712 -95.638029874 19.926960175 255 0 168
-4.066422006 -95.733491589 19.917774217 255 0 168
-4.071528530 -95.826165890 19.929727177 255 0 168
-4.073374379 -95.920038175 19.932589818 255 0 168
-4.071974781 -96.015106615 19.926404473 255 0 168
-4.070284018 -96.110284321 19.919408253 255 0 168
-4.071522194 -96.204381591 19.920579613 255 0 168
-4.074258237 -96.297924453 19.925928453 255 0 168
-4.075268466 -96.392105024 19.926466320 255 0 168
-4.074555484 -96.486924344 19.922200399 255 0 168
-4.075669315 -96.581066947 19.923029173 255 0 168
-4.079805983 -96.674086390 19.932287599 255 0 168
-4.084128232 -96.767034302 19.942064597 255 0 168
-4.086658271 -96.860646752 19.946845413 255 0 168
-4.087347040 -96.954944103 19.946493180 255 0 168
-4.086799217 -97.049702919 19.942693891 255 0 168
-4.086455446 -97.144386646 19.939464564 255 0 168
-4.087881958 -97.238409550 19.941172476 255 0 168
-4.088415691 -97.332766125 19.940391992 255 0 168
-4.086048031 -97.428209831 19.931522220 255 0 168
-4.082946788 -97.523931139 19.920607839 255 0 168
-4.082158791 -97.618787205 19.916144737 255 0 168
-4.085594060 -97.712057628 19.923459021 255 0 168
-4.091926227 -97.804236415 19.938852311 255 0 168
-4.097303591 -97.896770499 19.951584314 255 0 168
-4.098897387 -97.990727213 19.953766982 255 0 168
-4.097316471 -98.085881224 19.947097969 255 0 168
-4.095397402 -98.181164863 19.939486964 255 0 168
-4.095319832 -98.275754430 19.937011999 255 0 168
-4.097613998 -98.369447106 19.941151736 255 0 168
-4.100493363 -98.462916980 19.946924393 255 0 168
-4.101254130 -98.557188775 19.946790251 255 0 168
-4.100066867 -98.652200198 19.941224873 255 0 168
-4.099062296 -98.747143795 19.936169917 255 0 168
-4.098442065 -98.841942645 19.932187709 255 0 168
-4.097424576 -98.936893931 19.927098676 255 0 168
-4.096292581 -99.031890332 19.921691299 255 0 168
-4.094384660 -99.127184359 19.914121099 255 0 168
-4.088327442 -99.224065395 19.894980843 255 2 164
-4.083437151 -99.320505635 19.879095611 255 2 164
-3.944517732 -99.468247602 19.489445340 255 12 146
3.100112679 -102.456828340 -0.162540002 0 229 255
3.086692307 -102.549028118 -0.127450611 0 230 252
3.061351923 -102.636631952 -0.059118942 0 230 249
3.045662333 -102.727933775 -0.017698581 0 230 249
3.049724970 -102.826839173 -0.031359689 0 230 249
3.060198632 -102.928222534 -0.062898347 0 230 249
3.065357532 -103.027561611 -0.079614906 0 230 252
3.060635030 -103.123084355 -0.068774031 0 230 249
3.049282856 -103.216037953 -0.039443580 0 230 249
3.045241214 -103.311816031 -0.030499124 0 230 249
3.040186039 -103.407198582 -0.018727055 0 230 249
3.040015103 -103.504474170 -0.020574929 0 230 249
3.043111831 -103.603020229 -0.031534637 0 230 249
3.049850274 -103.702986066 -0.052649465 0 230 249
3.049348129 -103.800138335 -0.053570768 0 230 249
3.053572303 -103.899133181 -0.067671966 0 230 249
3.053060059 -103.996283967 -0.068563138 0 230 249
3.047055586 -104.091289995 -0.054136246 0 230 249
3.040871559 -104.186221875 -0.039207450 0 230 249
3.046118328 -104.285622968 -0.056156651 0 230 249
3.046160100 -104.382989897 -0.058588790 0 230 249
3.041912878 -104.478675790 -0.049058315 0 230 249
3.034744286 -104.573212453 -0.031379256 0 230 249
3.031702162 -104.669365500 -0.025207466 0 230 249
3.035045668 -104.768028194 -0.036843783 0 230 249
3.040486015 -104.867519626 -0.054327193 0 230 249
3.043952752 -104.966238270 -0.066305397 0 230 249
3.043807985 -105.063535787 -0.068210257 0 230 249
3.039087021 -105.159027093 -0.057351106 0 230 249
3.031812716 -105.253506328 -0.039369539 0 230 249
3.028536875 -105.349562412 -0.032538596 0 230 249
3.031567637 -105.448113985 -0.043295924 0 230 249
3.038800149 -105.548334069 -0.065771217 0 230 249
3.046502546 -105.648746886 -0.089556234 0 230 252
3.050370067 -105.747643348 -0.102644693 0 230 252
3.048164807 -105.844129347 -0.098794731 0 230 252
3.041781913 -105.938951949 -0.083291874 0 230 252
3.033163033 -106.032879680 -0.061551438 0 230 249
3.025480545 -106.127174764 -0.042421497 0 230 249
3.023790903 -106.223856251 -0.040005243 0 230 249
3.027250692 -106.322594186 -0.051950494 0 230 249
3.027926394 -106.420222244 -0.056129557 0 230 249
3.024595900 -106.516248042 -0.049133651 0 230 249
3.021204366 -106.612247495 -0.041966410 0 230 249
3.019921646 -106.709090695 -0.040679994 0 230 249
3.019349024 -106.806218634 -0.041373165 0 230 249
3.017533188 -106.902847296 -0.038597719 0 230 249
3.013493174 -106.998580706 -0.029617460 0 230 249
3.008676731 -107.093999105 -0.018470442 0 230 249
3.006070276 -107.190304999 -0.013486553 0 230 249
3.007936701 -107.288413693 -0.020977714 0 230 249
3.013574676 -107.388047234 -0.038987879 0 230 249
3.019197646 -107.487679769 -0.056955343 0 230 249
3.020199522 -107.585448062 -0.062032251 0 230 249
3.015649044 -107.680969676 -0.051620841 0 230 249
3.008783751 -107.775550285 -0.034751505 0 230 249
3.003180374 -107.870638186 -0.021400932 0 230 249
3.001977554 -107.967509326 -0.020323996 0 230 249
3.005561189 -108.066325671 -0.032597287 0 230 249
3.011568090 -108.166131353 -0.051629117 0 230 249
3.015617040 -108.265145049 -0.065198580 0 230 249
3.010522340 -108.360435506 -0.053261677 0 230 249
3.001776512 -108.454233038 -0.031139076 0 230 249
2.996189688 -108.549314571 -0.017827124 0 230 249
2.994079642 -108.645813675 -0.014212364 0 230 249
2.994318518 -108.743272915 -0.017148805 0 230 249
2.995879567 -108.841274518 -0.023772438 0 230 249
2.997494863 -108.939300250 -0.030546438 0 230 249
2.997330026 -109.036597482 -0.032353788 0 230 249
2.995237809 -109.133103667 -0.028783676 0 230 249
2.993172074 -109.229619797 -0.025286386 0 230 249
2.991634626 -109.326352389 -0.023261734 0 230 249
2.988779150 -109.422541605 -0.017559333 0 230 249
2.984674661 -109.518214364 -0.008371651 0 230 249
2.983602697 -109.615135992 -0.007642363 0 230 249
2.986558568 -109.713721117 -0.018148094 0 230 249
2.988889168 -109.812050708 -0.026908647 0 230 249
2.989442018 -109.909647126 -0.030709013 0 230 249
2.989798694 -110.007163393 -0.033961146 0 230 249
2.992084879 -110.105480566 -0.042594950 0 230 249
2.994929203 -110.204031802 -0.052784842 0 230 249
2.995918887 -110.301815567 -0.057799969 0 230 249
2.995024788 -110.398817588 -0.057558967 0 230 249
2.992510946 -110.495145551 -0.052798356 0 230 249
2.990151186 -110.591536418 -0.048466534 0 230 249
2.990741576 -110.689156091 -0.052363767 0 230 249
2.993659159 -110.787748038 -0.062752285 0 230 249
2.995782338 -110.886011104 -0.070923697 0 230 249
2.993176103 -110.982299226 -0.065900226 0 230 249
2.985043444 -111.076273381 -0.045458215 0 230 249
2.977723218 -111.170582192 -0.027281524 0 230 249
2.974273172 -111.266508535 -0.019900689 0 230 249
2.973664204 -111.363625071 -0.020444857 0 230 249
2.974801542 -111.461475280 -0.025859911 0 230 249
2.976981634 -111.559765420 -0.034183122 0 230 249
2.980048879 -111.658431225 -0.044980425 0 230 249
2.984670997 -111.757754958 -0.060114702 0 230 249
2.989193364 -111.857040892 -0.074969814 0 230 249
2.987828836 -111.953846996 -0.073400263 0 230 249
2.980629937 -112.048188606 -0.055552356 0 230 249
2.972738314 -112.142232465 -0.035770638 0 230 249
2.971120779 -112.238925550 -0.033491987 0 230 249
2.978527412 -112.339439834 -0.056389206 0 230 249
2.987061057 -112.440438259 -0.082429933 0 230 252
2.991246011 -112.539598900 -0.096337190 0 230 252
2.991808179 -112.637224966 -0.100136067 0 230 252
2.992822376 -112.735044270 -0.105195126 0 230 252
2.992392683 -112.832250728 -0.106224768 0 230 252
2.989775871 -112.928526170 -0.101151308 0 230 252
2.986268363 -113.024420613 -0.093591729 0 230 252
2.984394651 -113.121009989 -0.090589434 0 230 252
2.984144020 -113.218291621 -0.092114589 0 230 252
2.981953360 -113.314744584 -0.088225941 0 230 252
2.977060125 -113.410040425 -0.076795848 0 230 249
2.969318353 -113.504113506 -0.057416961 0 230 249
2.962040888 -113.598380220 -0.039332356 0 230 249
2.960742032 -113.695206379 -0.037927609 0 230 249
2.964111576 -113.794036438 -0.049547294 0 230 249
2.970348748 -113.894102016 -0.069167173 0 230 249
2.978098995 -113.994823862 -0.093007941 0 230 252
2.984237533 -114.094858558 -0.112350976 0 230 252
2.984144131 -114.192213495 -0.114304939 0 230 252
2.977058017 -114.286553328 -0.096746886 0 230 252
2.966839436 -114.379536196 -0.070447438 0 230 249
2.958583322 -114.473359652 -0.049622457 0 230 249
2.955540280 -114.569431621 -0.043341969 0 230 249
2.956331612 -114.667161449 -0.047759264 0 230 249
2.958917821 -114.765670085 -0.057183764 0 230 249
2.961386242 -114.864130310 -0.066278684 0 230 249
2.960900086 -114.961310887 -0.067128576 0 230 249
2.956513501 -115.056797534 -0.057094122 0 230 249
2.953852393 -115.153031584 -0.051873185 0 230 249
2.956949013 -115.251769638 -0.062717113 0 230 249
2.960672586 -115.350783799 -0.075309539 0 230 249
2.961525814 -115.448550273 -0.079891823 0 230 252
2.960791858 -115.545625565 -0.080044330 0 230 252
2.960910324 -115.643073183 -0.082574410 0 230 252
2.961092983 -115.740549599 -0.085282633 0 230 252
2.957807394 -115.836509562 -0.078312091 0 230 252
2.950971840 -115.930913256 -0.061434624 0 230 249
2.951177769 -116.028398172 -0.064204715 0 230 249
2.947108537 -116.124008680 -0.055044271 0 230 249
2.949557896 -116.222478458 -0.064072530 0 230 249
2.958167370 -116.323657575 -0.090289425 0 230 252
2.959428266 -116.421612157 -0.095999549 0 230 252
2.963034010 -116.520600522 -0.108251989 0 230 252
2.961703489 -116.617417558 -0.106728897 0 230 252
2.959298101 -116.713760235 -0.102205366 0 230 252
2.956064727 -116.809736262 -0.095370275 0 230 252
2.954926750 -116.906636031 -0.094381404 0 230 252
2.955279108 -117.004194469 -0.097550378 0 230 252
2.950981732 -117.099696271 -0.087743012 0 230 252
2.948093845 -117.195819640 -0.081867841 0 230 252
2.937883107 -117.288695296 -0.055556561 0 230 249
2.934820894 -117.384735281 -0.049192717 0 230 249
2.939779767 -117.484335384 -0.065211557 0 230 249
2.949902230 -117.586234927 -0.095639185 0 230 252
2.952290935 -117.684702701 -0.104483971 0 230 252
2.956412066 -117.783944287 -0.118162434 0 230 252
2.953177836 -117.879912062 -0.111313695 0 230 252
2.955966627 -117.978564241 -0.121272188 0 230 252
2.953461829 -118.074856219 -0.116457019 0 230 252
2.953226304 -118.172160749 -0.117973668 0 230 252
2.951393967 -118.268751695 -0.115033089 0 230 252
2.945453865 -118.363503411 -0.100627843 0 230 252
2.938355934 -118.457732514 -0.082990268 0 230 252
2.933659745 -118.553033515 -0.072054202 0 230 249
2.932212100 -118.649789182 -0.070182957 0 230 249
2.933615912 -118.747824963 -0.076268478 0 230 249
2.937707985 -118.847070820 -0.089855423 0 230 252
2.943738623 -118.947192609 -0.108851645 0 230 252
2.948471821 -119.046735513 -0.124226126 0 230 252
2.950438613 -119.145036021 -0.131879194 0 230 252
2.948205350 -119.241444272 -0.127809655 0 230 252
2.939201497 -119.334794951 -0.104843371 0 230 252
2.924604133 -119.425612008 -0.066265151 0 230 249
2.914472879 -119.518437982 -0.040149950 0 230 249
2.983082651 -119.646894695 -0.233791014 0 229 255
2.810640634 -139.638322217 -0.176405344 0 229 255
2.809726361 -139.735315715 -0.175810461 0 229 255
2.811638153 -139.833816396 -0.183109181 0 229 255
2.813193917 -139.932129016 -0.189412446 0 229 255
2.814986160 -140.030569659 -0.196375417 0 229 255
2.819017456 -140.130209090 -0.209592328 0 229 255
2.822429191 -140.229520714 -0.221077636 0 229 255
2.819837911 -140.325621854 -0.215792401 0 229 255
2.810637099 -140.418180579 -0.192042064 0 229 255
2.800248216 -140.510095697 -0.164971602 0 229 255
2.794491597 -140.604488444 -0.150840549 0 230 252
2.795767086 -140.702652675 -0.156353271 0 229 255
2.801474839 -140.803199750 -0.174247083 0 229 255
2.805773862 -140.902994320 -0.188204645 0 229 255
2.806339317 -141.000783843 -0.191731164 0 229 255
2.805923735 -141.098046054 -0.192516092 0 229 255
2.807374213 -141.196313924 -0.198513200 0 229 255
2.810251739 -141.295352902 -0.208496105 0 229 255
2.811138437 -141.393320324 -0.212916408 0 229 255
2.807845588 -141.489031951 -0.205659428 0 229 255
2.802642180 -141.583709049 -0.193063896 0 229 255
2.800356682 -141.679960526 -0.188619112 0 229 255
2.802465529 -141.778588785 -0.196449942 0 229 255
2.806280518 -141.878143135 -0.209046407 0 229 255
2.810176261 -141.977744693 -0.221867634 0 229 255
2.813075435 -142.076809284 -0.231903843 0 229 255
2.813461578 -142.174512721 -0.234918336 0 229 255
2.811912507 -142.271165892 -0.232525323 0 229 255
2.810876202 -142.368097022 -0.231563905 0 229 255
2.810159332 -142.465201555 -0.231493964 0 229 255
2.808731592 -142.561919091 -0.229437026 0 229 255
2.806572380 -142.658237577 -0.225335502 0 229 255
2.803393660 -142.753999163 -0.218384636 0 229 255
2.798888213 -142.849035087 -0.207726064 0 229 255
2.793840681 -142.943772086 -0.195551927 0 229 255
2.788709267 -143.038459808 -0.183142376 0 229 255
2.783489459 -143.133095688 -0.170484801 0 229 255
2.780906614 -143.229170399 -0.165193610 0 229 255
2.785407548 -143.329121164 -0.179692969 0 229 255
2.793016589 -143.430778456 -0.202875366 0 229 255
2.798368379 -143.531204774 -0.219750368 0 229 255
2.801186416 -143.630245808 -0.229545358 0 229 255
2.801852868 -143.728108390 -0.233328013 0 229 255
2.796733971 -143.822793849 -0.220945563 0 229 255
2.784505133 -143.913567274 -0.188696886 0 229 255
2.769745298 -144.002939311 -0.149375344 0 230 252
2.768643806 -144.099819281 -0.148214238 0 230 252
2.769356787 -144.197698431 -0.152121876 0 230 252
