ply
format ascii 1.0
comment coordinate_system ground
comment units millimeter
element vertex 1208
property double x
property double y
property double z
property uchar red
property uchar green
property uchar blue
comment color_mapping zg_high_contrast_from_zg
comment color_zg_range_mm -0.209839137 20.021996609
end_header
6.402710072 145.432538490 0.130827525 0 231 243
6.399703881 145.334191525 0.134085524 0 231 243
6.402789279 145.239458004 0.120571313 0 231 243
6.411408451 145.148000419 0.091820568 0 231 246
6.415635328 145.053933937 0.075164766 0 231 246
6.413906789 144.956338432 0.074908225 0 231 246
6.408183289 144.856380245 0.085652988 0 231 246
6.399419664 144.754628326 0.104770023 0 231 246
6.389025534 144.651918821 0.128377953 0 231 243
6.384747552 144.552826675 0.135145630 0 231 243
6.383007280 144.455233817 0.134926435 0 231 243
6.380886709 144.357416979 0.135755384 0 231 243
6.381453006 144.261183744 0.129186592 0 231 243
6.386457748 144.167562397 0.110396682 0 231 243
6.393158802 144.074934322 0.086936411 0 231 246
6.396368160 143.980246775 0.073091898 0 231 246
6.393387060 143.881917753 0.076294901 0 231 246
6.385243718 143.780558176 0.093714278 0 231 246
6.376439385 143.678815764 0.112954989 0 231 243
6.374731308 143.581241134 0.112655503 0 231 243
6.379056331 143.487203026 0.095743192 0 231 246
6.383204149 143.393056749 0.079319626 0 231 246
6.379038808 143.294039796 0.085789605 0 231 246
6.366083920 143.189882953 0.116465386 0 231 243
6.362558715 143.091247758 0.121174707 0 231 243
6.359293235 142.992765911 0.125169781 0 231 243
6.360888562 142.897123550 0.115779864 0 231 243
6.362444936 142.801456172 0.106498063 0 231 243
6.360233100 142.703589255 0.107594346 0 231 243
6.355796729 142.604426643 0.114817744 0 231 243
6.351859325 142.505556902 0.120668057 0 231 243
6.349282204 142.407480727 0.122773248 0 231 243
6.347932107 142.310119063 0.121500250 0 231 243
6.347960779 142.213558708 0.116431104 0 231 243
6.349524423 142.117888820 0.107135570 0 231 243
6.350620424 142.021945231 0.099128768 0 231 246
6.348636680 141.924213273 0.099604481 0 231 246
6.344340868 141.825141475 0.106448638 0 231 243
6.340235831 141.726182392 0.112768420 0 231 243
6.336561101 141.627474481 0.117904132 0 231 243
6.333365958 141.529045764 0.121720032 0 231 243
6.332358663 141.431883357 0.119511405 0 231 243
6.331963551 141.335074364 0.115617694 0 231 243
6.329575770 141.237114023 0.117212930 0 231 243
6.327342868 141.139243806 0.118382577 0 231 243
6.330078334 141.044239227 0.105869582 0 231 246
6.335424112 140.950735750 0.086168189 0 231 246
6.338029606 140.855649051 0.074014754 0 231 246
6.335255722 140.757463433 0.076677966 0 231 246
6.327938533 140.656665882 0.091855351 0 231 246
6.319592243 140.555281363 0.109868223 0 231 243
6.312228921 140.454466717 0.125174923 0 231 243
6.306986438 140.354873949 0.134641420 0 231 243
6.305163333 140.257245493 0.134691101 0 231 243
6.305110183 140.160631956 0.129866788 0 231 243
6.303991484 140.063407008 0.127978208 0 231 243
6.299980703 139.964526235 0.134056253 0 231 243
6.292160661 139.863468229 0.150627259 0 231 243
6.287327164 139.764122545 0.158973443 0 231 243
6.291594885 139.669979257 0.142252689 0 231 243
6.296752138 139.576339550 0.123082607 0 231 243
6.298724869 139.480877890 0.112684672 0 231 243
6.299592509 139.384783574 0.105331441 0 231 246
6.299782974 139.288301691 0.099844308 0 231 246
6.297334831 139.190316124 0.101625928 0 231 246
6.290709314 139.089954252 0.114914867 0 231 243
6.280743523 138.987696873 0.137405555 0 231 243
6.270127433 138.885076471 0.161688677 0 231 243
6.266246847 138.786288226 0.167420147 0 231 243
6.272441810 138.693220018 0.145399495 0 231 243
6.279770832 138.600789233 0.120255775 0 231 243
6.284455791 138.506853272 0.102395902 0 231 246
6.286588561 138.411467186 0.091566922 0 231 246
6.285051191 138.314001120 0.090848416 0 231 246
6.279964259 138.214527465 0.099908406 0 231 246
6.273031985 138.114013568 0.114052620 0 231 243
6.266747914 138.013870051 0.126412400 0 231 243
6.261743979 137.914452891 0.135246984 0 231 243
6.265695181 137.820090126 0.119414456 0 231 243
6.260936595 137.720813407 0.127575163 0 231 243
6.258356196 137.622766338 0.129736735 0 231 243
6.257670211 137.525786682 0.126680780 0 231 243
6.257734311 137.429228498 0.121559496 0 231 243
6.257632275 137.332575830 0.116896772 0 231 243
6.258688767 137.236573095 0.109043530 0 231 243
6.262227259 137.141962025 0.094353891 0 231 246
6.264786873 137.046798021 0.082361628 0 231 246
6.261684769 136.948456616 0.085966936 0 231 246
6.253573857 136.847310097 0.103371447 0 231 246
6.245659227 136.746278618 0.120236392 0 231 243
6.242262749 136.647780223 0.124655799 0 231 243
6.244211274 136.552272101 0.114351628 0 231 243
6.245642965 136.456472673 0.105472105 0 231 246
6.241382223 136.357492472 0.112275318 0 231 243
6.234811716 136.257225590 0.125442684 0 231 243
6.231886043 136.158995185 0.128570033 0 231 243
6.231703130 136.062294411 0.124142330 0 231 243
6.230970170 135.965286443 0.121230879 0 231 243
6.228054087 135.867063103 0.124334726 0 231 243
6.222926254 135.767610962 0.133532832 0 231 243
6.217964262 135.668253864 0.142275119 0 231 243
6.216918533 135.571074449 0.140229231 0 231 243
6.218073273 135.475116023 0.132122002 0 231 243
6.218622851 135.378820077 0.125682880 0 231 243
6.218981996 135.282417154 0.119769298 0 231 243
6.222375158 135.187693293 0.105497780 0 231 246
6.226798401 135.093535940 0.088389143 0 231 246
6.226940243 134.997006261 0.083076848 0 231 246
6.223170107 134.898313321 0.088543292 0 231 246
6.219636982 134.799753137 0.093357772 0 231 246
6.217605732 134.702023566 0.094035435 0 231 246
6.216721718 134.604927291 0.091553283 0 231 246
6.216684418 134.508297364 0.086739256 0 231 246
6.216666543 134.411677152 0.081872622 0 231 246
6.215464892 134.314404373 0.080268414 0 231 246
6.213151103 134.216519783 0.081729304 0 231 246
6.210109593 134.118235947 0.085196198 0 231 246
6.206789818 134.019800570 0.089430779 0 231 246
6.204309975 133.921827743 0.091352164 0 231 246
6.203494648 133.824768804 0.088688384 0 231 246
6.202772714 133.727760670 0.085768219 0 231 246
6.196718349 133.627831221 0.097541324 0 231 246
6.184094617 133.524309477 0.127416059 0 231 243
6.172212989 133.421202256 0.155247360 0 231 243
6.166902671 133.321695025 0.164973851 0 231 243
6.169555467 133.226540537 0.152760340 0 231 243
6.175485250 133.133171776 0.131518415 0 231 243
6.179344035 133.038667833 0.115983591 0 231 243
6.180874188 132.942890636 0.106865844 0 231 243
6.180802872 132.846238936 0.102161650 0 231 246
6.177679830 132.747925141 0.105867142 0 231 246
6.169724627 132.646984268 0.122888308 0 231 243
6.169589524 132.550299216 0.118362799 0 231 243
6.165888591 132.451676347 0.123663703 0 231 243
6.171557959 132.358141580 0.103146039 0 231 246
6.173406598 132.262529030 0.093157091 0 231 246
6.180530670 132.169773617 0.068632550 0 231 246
6.182096059 132.074000828 0.059425753 0 231 246
6.178946246 131.975673570 0.063212713 0 231 246
6.170713820 131.874598489 0.081006057 0 231 246
6.167224447 131.776092425 0.085730798 0 231 246
6.155797932 131.673300800 0.112327956 0 231 243
6.150265131 131.573698104 0.122685713 0 231 243
6.149911984 131.476892458 0.118771473 0 231 243
6.152630257 131.381741601 0.106394501 0 231 243
6.155675371 131.286763731 0.093117715 0 231 246
6.156400755 131.190533970 0.086234125 0 231 246
6.155106774 131.093216523 0.084916124 0 231 246
6.153000959 130.995462723 0.085836237 0 231 246
6.151596218 130.898086086 0.084825392 0 231 246
6.151324063 130.801317416 0.080694431 0 231 246
6.150850083 130.704439718 0.077120579 0 231 246
6.149681639 130.607189187 0.075461421 0 231 246
6.148361381 130.509857251 0.074221584 0 231 246
6.145254200 130.411568968 0.077907054 0 231 246
6.138307780 130.311228756 0.092173648 0 231 246
6.130772706 130.210578244 0.108063584 0 231 243
6.128026031 130.112489778 0.110758738 0 231 243
6.128335252 130.016033291 0.105033375 0 231 246
6.125493289 129.917895060 0.107993094 0 231 243
6.121060055 129.818909990 0.115339136 0 231 243
6.120212290 129.721836714 0.112805145 0 231 243
6.123179700 129.626793384 0.099757911 0 231 246
6.123733776 129.530463456 0.093362429 0 231 246
6.120178566 129.431948462 0.098292699 0 231 246
6.115933402 129.333068816 0.105125469 0 231 246
6.113346954 129.235071599 0.107387958 0 231 243
6.113051124 129.138289989 0.103338598 0 231 246
6.113440523 129.041870714 0.097401700 0 231 246
6.111651074 128.944296476 0.097470597 0 231 246
6.108671426 128.846092871 0.100820671 0 231 246
6.108976278 128.749627189 0.095119614 0 231 246
6.114377456 128.655852970 0.075373829 0 231 246
6.118403980 128.561347887 0.059417425 0 231 246
6.117270954 128.464116619 0.057681877 0 231 246
6.111886911 128.364644047 0.067663427 0 231 246
6.104639356 128.264192840 0.082782077 0 231 246
6.100266201 128.165259413 0.089979713 0 231 246
6.101893128 128.069484819 0.080641447 0 231 246
6.106316782 127.975178235 0.063595897 0 231 246
6.108578385 127.879731566 0.052510087 0 231 246
6.107353734 127.782452165 0.051033837 0 231 246
6.104049321 127.684081787 0.055290757 0 231 246
6.099361131 127.584987622 0.063362665 0 231 246
6.092524662 127.484770811 0.077356752 0 231 246
6.084688702 127.384035093 0.094106797 0 231 246
6.080494152 127.285208935 0.100821399 0 231 246
6.080858853 127.188767888 0.094970595 0 231 246
6.079563637 127.091458678 0.093695891 0 231 246
6.075497938 126.992703610 0.100058400 0 231 246
6.072049444 126.894272550 0.104720755 0 231 246
6.070611896 126.796891108 0.103841346 0 231 246
6.068169210 126.698986377 0.105733402 0 231 246
6.072817203 126.604772287 0.088082110 0 231 246
6.071368536 126.507383529 0.087236198 0 231 246
6.072682844 126.411430567 0.078775470 0 231 246
6.071921347 126.314397838 0.076037359 0 231 246
6.068545076 126.216008071 0.080507577 0 231 246
6.066882730 126.118508522 0.080254533 0 231 246
6.069686797 126.023323250 0.067691107 0 231 246
6.063945401 125.923710884 0.078683651 0 231 246
6.064073107 125.827138144 0.073499337 0 231 246
6.068052853 125.732555628 0.057697900 0 231 246
6.057131403 125.630271757 0.082972299 0 231 246
6.046270130 125.528026305 0.108082080 0 231 243
6.038227518 125.427242029 0.125423416 0 231 243
6.034845631 125.328865147 0.129918468 0 231 243
5.956432692 120.650411407 0.115520792 0 231 243
-1.252223985 114.249284356 19.852181000 255 4 161
-1.265067901 114.149119223 19.882955451 255 2 164
-1.293946374 114.041187658 19.957952044 255 0 168
-1.304259283 113.942272747 19.981749202 255 0 168
-1.311358168 113.844920860 19.996683729 255 0 168
-1.319098251 113.747263293 20.013387759 255 0 168
-1.323902645 113.651029800 20.021996609 255 0 168
-1.321397962 113.558329402 20.010448711 255 0 168
-1.316739077 113.466665876 19.992960542 255 0 168
-1.315429494 113.373382729 19.984710378 255 0 168
-1.319185432 113.277656799 19.990431634 255 0 168
-1.325392261 113.180752775 20.002913439 255 0 168
-1.330407618 113.084425808 20.012110302 255 0 168
-1.331561218 112.989958200 20.010657514 255 0 168
-1.328431673 112.897547951 19.997392713 255 0 168
-1.324781166 112.805384473 19.982691935 255 0 168
-1.323974361 112.711853544 19.975835064 255 0 168
-1.326637710 112.616658217 19.978550018 255 0 168
-1.330559928 112.520861262 19.984738051 255 0 168
-1.333046918 112.425753073 19.986968658 255 0 168
-1.328122870 112.334188788 19.968759860 255 0 168
-1.332068294 112.238383133 19.975014934 255 0 168
-1.336719975 112.142242503 19.983219019 255 0 168
-1.340318834 112.046606636 19.988520348 255 0 168
-1.343493011 111.951175001 19.992651386 255 0 168
-1.345972479 111.856075686 19.994867334 255 0 168
-1.346886099 111.761722362 19.992765394 255 0 168
-1.347466037 111.667527479 19.989744067 255 0 168
-1.348700493 111.573021253 19.988529009 255 0 168
-1.349460105 111.478740459 19.986005206 255 0 168
-1.347770078 111.385621101 19.976725657 255 0 168
-1.345060491 111.292982713 19.964634797 255 0 168
-1.346168222 111.198533926 19.963074031 255 0 168
-1.352431113 111.101646159 19.975733689 255 0 168
-1.359346993 111.004453596 19.990195621 255 0 168
-1.363994780 110.908336744 19.998402574 255 0 168
-1.367145710 110.812929016 20.002481777 255 0 168
-1.368650781 110.718298969 20.002022168 255 0 168
-1.367800186 110.624779188 19.995065765 255 0 168
-1.366861044 110.531299570 19.987866046 255 0 168
-1.368977252 110.436380996 19.989095106 255 0 168
-1.372982291 110.340575291 19.995535349 255 0 168
-1.375995335 110.245237681 19.999240315 255 0 168
-1.377233622 110.150734380 19.998050767 255 0 168
-1.376805562 110.057012528 19.992265672 255 0 168
-1.374680785 109.964084451 19.981801180 255 0 168
-1.372781415 109.871048354 19.971959364 255 0 168
-1.373340460 109.776859950 19.968899966 255 0 168
-1.375263749 109.682033456 19.969604820 255 0 168
-1.376419753 109.587565886 19.968194106 255 0 168
-1.377887539 109.492952836 19.967644443 255 0 168
-1.382729902 109.396766624 19.976404722 255 0 168
-1.389293024 109.299781575 19.989912921 255 0 168
-1.393966921 109.203680071 19.998210684 255 0 168
-1.395349890 109.109111900 19.997431201 255 0 168
-1.395090337 109.015307241 19.992121634 255 0 168
-1.395069937 108.921390463 19.987472750 255 0 168
-1.396609358 108.826749093 19.987127802 255 0 168
-1.399253298 108.731595985 19.989830837 255 0 168
-1.399981793 108.637331268 19.987250828 255 0 168
-1.398192684 108.544231449 19.977726532 255 0 168
-1.397332397 108.450699871 19.970765478 255 0 168
-1.399260992 108.355878127 19.971499069 255 0 168
-1.402751016 108.260336099 19.976541227 255 0 168
-1.406562675 108.164647492 19.982471746 255 0 168
-1.409497901 108.069364889 19.985985470 255 0 168
-1.408603834 107.975847200 19.978936110 255 0 168
-1.404502685 107.883803737 19.963040041 255 0 168
-1.403452242 107.790353633 19.955561088 255 0 168
-1.409805881 107.693500442 19.968509519 255 0 168
-1.419288296 107.595215063 19.990090837 255 0 168
-1.424901620 107.498710550 20.000999184 255 0 168
-1.425124786 107.404679520 19.997037996 255 0 168
-1.422820171 107.311805204 19.986103960 255 0 168
-1.420306719 107.219023813 19.974594660 255 0 168
-1.417933470 107.126175556 19.963473053 255 0 168
-1.416184811 107.033039359 19.954075527 255 0 168
-1.416148676 106.939119457 19.949403634 255 0 168
-1.419248834 106.843768608 19.953385540 255 0 168
-1.416801305 106.750946730 19.942062686 255 2 164
-1.418901251 106.656052076 19.943287058 255 0 168
-1.420478810 106.561395758 19.943071195 255 0 168
-1.424342815 106.465700714 19.949164634 255 0 168
-1.428274642 106.369976958 19.955446269 255 0 168
-1.429551927 106.275459667 19.954405027 255 0 168
-1.428614276 106.181946532 19.947253685 255 0 168
-1.426538734 106.088947202 19.936963778 255 2 164
-1.424181456 105.996072933 19.925897443 255 2 164
-1.421923368 105.903151162 19.915105674 255 2 164
-1.420942434 105.809649820 19.907838597 255 2 164
-1.421291785 105.715546383 19.904242857 255 2 164
-1.422929282 105.620861379 19.904202244 255 2 164
-1.369784207 105.550863935 19.753009902 255 6 157
-1.323773248 105.477612981 19.621501161 255 10 150
5.698381263 106.802920527 0.158382788 0 231 243
5.670060797 106.693705926 0.231888431 0 232 240
5.769869975 106.641186663 -0.048157440 0 230 249
5.663074263 106.400617026 0.237254645 0 232 240
5.664059011 106.304384445 0.229901992 0 232 240
5.704324337 106.225465081 0.114159514 0 231 243
5.712757854 106.132494893 0.086253959 0 231 246
5.715921357 106.037198421 0.072891360 0 231 246
5.720241767 105.942407323 0.056337225 0 231 246
5.727680510 105.848981883 0.031179045 0 231 246
5.734851119 105.755432238 0.006761532 0 230 249
5.739934141 105.660960839 -0.011894546 0 230 249
5.742078564 105.565197215 -0.022440732 0 230 249
5.741356967 105.468176496 -0.025077180 0 230 249
5.739764469 105.370774565 -0.025309357 0 230 249
5.739227869 105.273834409 -0.028454304 0 230 249
5.740831058 105.177828059 -0.037503128 0 230 249
5.742767100 105.081964834 -0.047469551 0 230 249
5.741113511 104.984534749 -0.047529158 0 230 249
5.737145485 104.886097211 -0.041200817 0 230 249
5.736167780 104.788962889 -0.043123516 0 230 249
5.739828322 104.693844725 -0.057845047 0 230 252
5.743887215 104.598895933 -0.073665015 0 230 252
5.743616902 104.502064571 -0.077536991 0 230 252
5.740574522 104.404030701 -0.073757984 0 230 252
5.737461144 104.305967544 -0.069781977 0 230 252
5.735345551 104.208337749 -0.068558490 0 230 252
5.733892291 104.110995120 -0.069161812 0 230 252
5.729723647 104.012479601 -0.062270382 0 230 252
5.721573223 103.912247647 -0.044389158 0 230 249
5.713440029 103.812028485 -0.026554268 0 230 249
5.710105113 103.713882223 -0.021960322 0 230 249
5.710323802 103.617267530 -0.027172496 0 230 249
5.709712152 103.520294666 -0.030092124 0 230 249
5.707466138 103.422619050 -0.028500207 0 230 249
5.705717891 103.325158024 -0.028280995 0 230 249
5.706471115 103.228770589 -0.034964426 0 230 249
5.708115568 103.132763722 -0.044106565 0 230 249
5.708880581 103.036378156 -0.050820625 0 230 249
5.709116437 102.939764762 -0.056073311 0 230 252
5.709132383 102.843056339 -0.060718089 0 230 252
5.707520958 102.745652033 -0.060870476 0 230 252
5.705257097 102.647969714 -0.059221154 0 230 252
5.702992742 102.550288064 -0.057569419 0 230 252
5.699882894 102.452247164 -0.053583108 0 230 252
5.697296955 102.354430746 -0.051041703 0 230 249
5.693489942 102.256096279 -0.045129084 0 230 249
5.685729734 102.156084557 -0.028304537 0 230 249
5.677027332 102.055678023 -0.008878307 0 230 249
5.672231552 101.956933829 -0.000233250 0 230 249
5.673346496 101.860696559 -0.007900952 0 230 249
5.676119533 101.765159428 -0.020144143 0 230 249
5.676347312 101.668542968 -0.025361319 0 230 249
5.675436493 101.571444422 -0.027434882 0 230 249
5.676937473 101.475363827 -0.036164257 0 230 249
5.679284844 101.379638213 -0.047228827 0 230 249
5.679454714 101.282992438 -0.052282287 0 230 252
5.678709286 101.185960364 -0.054808407 0 230 252
5.679044654 101.089382610 -0.060316691 0 230 252
5.681002113 100.993485408 -0.070301260 0 230 252
5.678479041 100.895704744 -0.067917771 0 230 252
5.678693201 100.799073337 -0.073088553 0 230 252
5.669525728 100.698509239 -0.052362972 0 230 252
5.663986972 100.599470644 -0.041652254 0 230 249
5.660973785 100.501491932 -0.037911590 0 230 249
5.656981542 100.403105494 -0.031467402 0 230 249
5.651185405 100.303968028 -0.020042858 0 230 249
5.646639768 100.205355825 -0.012068906 0 230 249
5.645264673 100.108067724 -0.012845506 0 230 249
5.647496061 100.012281633 -0.023576134 0 230 249
5.651872481 99.917385416 -0.040226845 0 230 249
5.655357469 99.822114502 -0.054416031 0 230 252
5.657113372 99.726122055 -0.063831423 0 230 252
5.657787819 99.629678748 -0.070260647 0 230 252
5.657589055 99.532872138 -0.074278495 0 230 252
5.657189864 99.435981843 -0.077742090 0 230 252
5.657336134 99.339316703 -0.082710386 0 230 252
5.656949115 99.242430175 -0.086205587 0 230 252
5.652458386 99.143848331 -0.078371698 0 230 252
5.645463908 99.044236015 -0.063625177 0 230 252
5.640492126 98.945462004 -0.054461074 0 230 252
5.639482388 98.848322694 -0.056233041 0 230 252
5.640233814 98.751907975 -0.062865695 0 230 252
5.639182496 98.654750778 -0.064520866 0 230 252
5.639045349 98.557969002 -0.068698617 0 230 252
5.641643363 98.462308790 -0.080425928 0 230 252
5.643207300 98.366221861 -0.089297684 0 230 252
5.641803424 98.268917421 -0.089975609 0 230 252
5.638852618 98.170980255 -0.086382056 0 230 252
5.635324648 98.072808567 -0.081194100 0 230 252
5.630852377 97.974253074 -0.073398192 0 230 252
5.628162100 97.876427274 -0.070520605 0 230 252
5.629891209 97.780404267 -0.079842337 0 230 252
5.635451159 97.685939304 -0.099738800 0 230 252
5.640092702 97.591095586 -0.117099003 0 230 252
5.638461965 97.493697768 -0.117142492 0 230 252
5.633166332 97.394811951 -0.107067226 0 230 252
5.630848851 97.297137719 -0.105212675 0 230 252
5.632750776 97.201174827 -0.115005736 0 230 252
5.635135992 97.105405385 -0.126132108 0 230 252
5.632358353 97.007544394 -0.123004116 0 230 252
5.622818921 96.906951429 -0.101207214 0 230 252
5.613000622 96.806252293 -0.078639151 0 230 252
5.607060682 96.707124578 -0.066777226 0 230 252
5.605672267 96.609835189 -0.067480099 0 230 252
5.606929182 96.513611301 -0.075485268 0 230 252
5.608451703 96.417492489 -0.084222776 0 230 252
5.609257184 96.321083491 -0.090979682 0 230 252
5.608613990 96.224091334 -0.093735996 0 230 252
5.605625346 96.126157914 -0.090015752 0 230 252
5.601689425 96.027846289 -0.083679079 0 230 252
5.601091340 95.930873347 -0.086556813 0 230 252
5.605403587 95.835864318 -0.102990665 0 230 252
5.610333798 95.741098148 -0.121129814 0 230 252
5.611471035 95.644812989 -0.128795827 0 230 252
5.609892984 95.547443051 -0.128964016 0 230 252
5.607905353 95.449910276 -0.128000313 0 230 252
5.606165859 95.352476986 -0.127720668 0 230 252
5.605103716 95.255313612 -0.129310158 0 230 252
5.605300758 95.158650581 -0.134375281 0 229 255
5.605217344 95.061875245 -0.138665060 0 229 255
5.602706259 94.964136340 -0.136250871 0 229 255
5.595552795 94.864559136 -0.121017623 0 230 252
5.585748903 94.763937429 -0.098465083 0 230 252
5.586497908 94.667495583 -0.105048988 0 230 252
5.578808906 94.567718705 -0.088333518 0 230 252
5.574365219 94.469227776 -0.080577597 0 230 252
5.575456941 94.372922097 -0.088104674 0 230 252
5.579940436 94.277950894 -0.104996039 0 230 252
5.585156410 94.183263725 -0.123909046 0 230 252
5.581175233 94.084955728 -0.117426052 0 230 252
5.584066701 93.989349442 -0.129918772 0 230 252
5.580625174 93.891255026 -0.124923745 0 230 252
5.580048302 93.794285437 -0.127837625 0 230 252
5.568841065 93.693152150 -0.101397338 0 230 252
5.559397332 93.592716587 -0.079825243 0 230 252
5.555254505 93.494359437 -0.072889181 0 230 252
5.558403282 93.398852006 -0.086086289 0 230 252
5.565081010 93.304718073 -0.109027026 0 230 252
5.570347381 93.210028177 -0.128069735 0 230 252
5.570522152 93.113351001 -0.133051950 0 229 255
5.566638474 93.015094239 -0.126826353 0 230 252
5.562183042 92.916617445 -0.119020820 0 230 252
5.559828932 92.818958996 -0.117016714 0 230 252
5.559378685 92.722039910 -0.120268865 0 230 252
5.558773854 92.625060461 -0.123093132 0 230 252
5.555469093 92.527035599 -0.118460719 0 230 252
5.549111293 92.427831870 -0.105396425 0 230 252
5.541823498 92.328272913 -0.089762808 0 230 252
5.536487299 92.229471872 -0.079517250 0 230 252
5.536183031 92.132614127 -0.083166139 0 230 252
5.540001441 92.037343709 -0.098198783 0 230 252
5.544399775 91.942292715 -0.114832001 0 230 252
5.545874172 91.846113592 -0.123389812 0 230 252
5.544187469 91.748718609 -0.123217155 0 230 252
5.541744316 91.651033898 -0.120954468 0 230 252
5.540489929 91.553805845 -0.121973568 0 230 252
5.540343850 91.457002284 -0.126052313 0 230 252
5.540861031 91.360451721 -0.131961711 0 229 255
5.541598760 91.263984230 -0.138479190 0 229 255
5.541286373 91.167114504 -0.142095655 0 229 255
5.538612836 91.069343779 -0.139190459 0 229 255
5.533145105 90.970509779 -0.128567580 0 230 252
5.525997239 90.871039700 -0.113303563 0 230 252
5.518514113 90.771446795 -0.097112456 0 230 252
5.511227925 90.671933592 -0.081464013 0 230 252
5.503910253 90.572413192 -0.065727408 0 230 252
5.500237958 90.474279398 -0.060057124 0 230 252
5.502356954 90.378340661 -0.070379779 0 230 252
5.503907404 90.282184421 -0.079131306 0 230 252
5.502853102 90.185041804 -0.080688144 0 230 252
5.502045236 90.087992225 -0.082924549 0 230 252
5.505481588 89.992543198 -0.096881602 0 230 252
5.509095387 89.897157605 -0.111327821 0 230 252
5.508625999 89.800231558 -0.114496083 0 230 252
5.504150705 89.701798786 -0.106599646 0 230 252
5.497961080 89.602724663 -0.093967342 0 230 252
5.493394522 89.504263516 -0.085816556 0 230 252
5.493160393 89.407429147 -0.089630299 0 230 252
5.497896129 89.312455316 -0.107169291 0 230 252
5.502053522 89.217260707 -0.123110076 0 230 252
5.502267442 89.120588344 -0.128158389 0 230 252
5.497015025 89.021874183 -0.118108001 0 230 252
5.486703271 88.921276273 -0.094082790 0 230 252
5.485539207 88.824093699 -0.095321923 0 230 252
5.484259616 88.726868210 -0.096240929 0 230 252
5.479364089 88.628298418 -0.087171681 0 230 252
5.484513475 88.533462631 -0.105845464 0 230 252
5.486304248 88.437375877 -0.115241804 0 230 252
5.485513780 88.340330151 -0.117507694 0 230 252
5.486948116 88.244108063 -0.125917586 0 230 252
5.494005591 88.149964159 -0.149858008 0 229 255
5.499925958 88.055393875 -0.170656835 0 229 255
5.497359595 87.957685386 -0.168013643 0 229 255
5.489680347 87.858092575 -0.151247007 0 229 255
5.481233725 87.758222128 -0.132359558 0 229 255
5.484063347 87.662507068 -0.144617432 0 229 255
5.479540558 87.564086111 -0.136565875 0 229 255
5.477350547 87.466524507 -0.134956711 0 229 255
5.475578364 87.369117060 -0.134500588 0 229 255
5.474250291 87.271872925 -0.135270127 0 229 255
5.474860277 87.175338531 -0.141391949 0 229 255
5.479267755 87.080191693 -0.158002308 0 229 255
5.484261931 86.985255039 -0.176232382 0 229 255
5.484091419 86.888428890 -0.180195404 0 229 255
5.478584544 86.789656563 -0.169416942 0 229 255
5.470016945 86.689772939 -0.150182722 0 229 255
5.460493559 86.589547326 -0.128307081 0 230 252
5.453716570 86.490326308 -0.114016561 0 230 252
5.452501788 86.393129026 -0.115089465 0 230 252
5.454058903 86.296937156 -0.123818248 0 230 252
5.453807147 86.200087971 -0.127549316 0 230 252
5.451074431 86.102340307 -0.124426041 0 230 252
5.448146426 86.004523330 -0.120762215 0 230 252
5.449272408 85.908171864 -0.128296012 0 230 252
5.456024260 85.813848350 -0.151369797 0 229 255
5.464652859 85.720195238 -0.179627137 0 229 255
5.466493543 85.624091100 -0.189132499 0 229 255
5.455135896 85.523238396 -0.162177121 0 229 255
5.443540780 85.422308253 -0.134564404 0 229 255
5.425824699 84.351602435 -0.134155450 0 229 255
5.407123239 81.538720045 -0.209839137 0 229 255
5.173420058 68.398199194 -0.145150878 0 229 255
5.139800279 65.484596374 -0.178742560 0 229 255
5.134491406 65.386302342 -0.168263665 0 229 255
5.129309068 65.288047065 -0.158133495 0 229 255
5.126945296 65.190583834 -0.155796623 0 229 255
5.125638315 65.093417015 -0.156381115 0 229 255
5.125193869 64.996491177 -0.159349812 0 229 255
5.128082668 64.900493998 -0.171535373 0 229 255
5.132603390 64.804948098 -0.188232995 0 229 255
5.132895226 64.708222491 -0.193234816 0 229 255
5.126718421 64.609700293 -0.180346628 0 229 255
5.118607992 64.510646043 -0.162109777 0 229 255
5.114315838 64.412654209 -0.154431170 0 229 255
5.116027750 64.316324662 -0.163355843 0 229 255
5.117036267 64.219798870 -0.170334250 0 229 255
5.113506475 64.122020437 -0.164760668 0 229 255
5.107457364 64.023550382 -0.152218577 0 229 255
5.102497551 63.925383649 -0.142687824 0 229 255
5.101628205 63.828342907 -0.144468498 0 229 255
5.104071246 63.732210161 -0.155408899 0 229 255
5.106327350 63.636023612 -0.165831327 0 229 255
5.105778436 63.539067727 -0.168495086 0 229 255
5.101414639 63.441070018 -0.160607118 0 229 255
5.096471590 63.342916965 -0.151115963 0 229 255
5.095585926 63.245871514 -0.152845081 0 229 255
5.099665634 63.150175865 -0.168305871 0 229 255
5.105650825 63.054993638 -0.189035751 0 229 255
5.108872504 62.959056905 -0.202121629 0 229 255
5.107372675 62.861838773 -0.202148070 0 229 255
5.103271817 62.763917883 -0.194979608 0 229 255
5.098175183 62.665730556 -0.185055899 0 229 255
5.092079127 62.567276949 -0.172366812 0 229 255
5.094839924 62.471211388 -0.184172793 0 229 255
5.090793483 62.373313139 -0.177150251 0 229 255
5.088297192 62.275833318 -0.174413999 0 229 255
5.086885356 62.178645324 -0.174676059 0 229 255
5.086591756 62.081756956 -0.178029917 0 229 255
5.084719530 61.984446121 -0.177016443 0 229 255
5.081104137 61.886670714 -0.171180477 0 229 255
5.076142657 61.788538557 -0.161620222 0 229 255
5.070244035 61.690160027 -0.149466730 0 229 255
5.064903566 61.591933574 -0.138855836 0 229 255
5.062378597 61.494457586 -0.136031250 0 229 255
5.062673070 61.397729884 -0.141003990 0 229 255
5.064826232 61.301493019 -0.151116768 0 229 255
5.066082197 61.205016691 -0.158746929 0 229 255
5.062972106 61.107386699 -0.154299582 0 229 255
5.058590619 61.009423362 -0.146334411 0 229 255
5.058642817 60.912629019 -0.150631747 0 229 255
5.063386977 60.817066439 -0.167906179 0 229 255
5.072625773 60.722678486 -0.197612094 0 229 255
5.075353409 60.626577235 -0.209306920 0 229 255
5.065452481 60.527170135 -0.186069164 0 229 255
5.054642132 60.427532327 -0.160314538 0 229 255
5.046060776 60.328483311 -0.140724195 0 229 255
5.041551258 60.230500418 -0.132395765 0 229 255
5.041386474 60.133649943 -0.136084284 0 229 255
5.042731464 60.037190837 -0.143948008 0 229 255
5.043495476 59.940579323 -0.150203644 0 229 255
5.044156814 59.843939888 -0.156174235 0 229 255
5.044945475 59.747332105 -0.162495998 0 229 255
5.044997191 59.650532746 -0.166778195 0 229 255
5.044105279 59.553489388 -0.168449058 0 229 255
5.040668515 59.455791037 -0.163079194 0 229 255
5.033895746 59.357237306 -0.148479969 0 229 255
5.028638656 59.259076895 -0.138072268 0 229 255
5.027503488 59.161975797 -0.139065746 0 229 255
5.027735117 59.065224468 -0.143839096 0 229 255
5.026387889 58.968068901 -0.144243807 0 229 255
5.023705812 58.870573142 -0.140954815 0 229 255
5.021537236 58.773209452 -0.139085211 0 229 255
5.021781006 58.676460110 -0.143887876 0 229 255
5.024058785 58.580226288 -0.154316300 0 229 255
5.026375169 58.483999758 -0.164850535 0 229 255
5.027156117 58.387382008 -0.171136173 0 229 255
5.025590254 58.290169707 -0.170928559 0 229 255
5.020832002 58.192152134 -0.161888380 0 229 255
5.013232973 58.093421553 -0.144988207 0 229 255
5.006086108 57.994809794 -0.129337658 0 230 252
5.003262842 57.897289000 -0.125646910 0 230 252
5.003098122 57.800436525 -0.129309821 0 230 252
5.003488208 57.703722385 -0.134506544 0 229 255
5.004282801 57.607108358 -0.140821290 0 229 255
5.004342377 57.510309425 -0.145101574 0 229 255
5.001884844 57.412882099 -0.142417159 0 229 255
4.997058064 57.314866075 -0.133177005 0 229 255
4.990833384 57.216505511 -0.120068297 0 230 252
4.985641554 57.118405284 -0.109815814 0 230 252
4.986817273 57.021886164 -0.117178487 0 230 252
4.994640876 56.927010217 -0.142932155 0 229 255
5.002742446 56.832196208 -0.169454013 0 229 255
5.005878906 56.736150576 -0.182238454 0 229 255
5.002923826 56.638601598 -0.178168837 0 229 255
4.996598799 56.540225476 -0.164774614 0 229 255
4.991639705 56.442188782 -0.155158242 0 229 255
4.987700726 56.344405182 -0.148363012 0 229 255
4.991618266 56.248546699 -0.163303208 0 229 255
4.986708903 56.150527478 -0.153820993 0 229 255
4.983715364 56.052978682 -0.149638140 0 229 255
4.980606729 55.955403381 -0.145135710 0 229 255
4.975387513 55.857316365 -0.134792692 0 229 255
4.970191877 55.759238308 -0.124513713 0 230 252
4.966500439 55.661528168 -0.118395320 0 230 252
4.966600261 55.564737857 -0.122765399 0 230 252
4.970458755 55.468855157 -0.137533944 0 229 255
4.974474907 55.373006799 -0.152737752 0 229 255
4.979039626 55.277286784 -0.169458413 0 229 255
4.982384001 55.181268980 -0.182801641 0 229 255
4.980939505 55.084097751 -0.182893764 0 229 255
4.972890936 54.985343333 -0.164712144 0 229 255
4.963059415 54.886167471 -0.141596013 0 229 255
4.957053880 54.787912846 -0.129064690 0 230 252
4.956532405 54.690970750 -0.131706086 0 229 255
4.958020395 54.594507062 -0.139906464 0 229 255
4.955918455 54.497187539 -0.138172691 0 229 255
4.950609489 54.399107231 -0.127564091 0 230 252
4.945507413 54.301079280 -0.117526751 0 230 252
4.941941504 54.203418123 -0.111738764 0 230 252
4.939717943 54.106076195 -0.109663906 0 230 252
4.939162951 54.009128930 -0.112204883 0 230 252
4.940402136 53.912604009 -0.119709330 0 230 252
4.942170676 53.816201891 -0.128677505 0 230 252
4.942854216 53.719542893 -0.134642420 0 229 255
4.941117541 53.622315237 -0.133909388 0 229 255
4.936808320 53.524486044 -0.126056801 0 230 252
4.932020804 53.426547627 -0.116879548 0 230 252
4.929505791 53.329142262 -0.113989376 0 230 252
4.927967742 53.231965607 -0.113801463 0 230 252
4.924879331 53.134428877 -0.109322383 0 230 252
4.921024619 53.036715862 -0.102721686 0 230 252
4.919929261 52.939644549 -0.103755423 0 230 252
4.923326614 52.843612834 -0.117220224 0 230 252
4.927050972 52.747653309 -0.131588950 0 229 255
4.927465228 52.650926827 -0.136796975 0 229 255
4.924477383 52.553416002 -0.132589580 0 229 255
4.920482608 52.455675264 -0.125594629 0 230 252
4.917887600 52.358258027 -0.122472017 0 230 252
4.917123861 52.261261539 -0.124415886 0 230 252
4.916752672 52.164354659 -0.127444973 0 230 252
4.916539941 52.067483489 -0.130911493 0 229 255
4.916969300 51.970758087 -0.136153807 0 229 255
4.916712837 51.873875540 -0.139497189 0 229 255
4.913256408 51.776265480 -0.133984124 0 229 255
4.906079800 51.677813594 -0.118174874 0 230 252
4.897091124 51.578956164 -0.097349714 0 230 252
4.898447100 51.482443051 -0.105150800 0 230 252
4.894210364 51.384666165 -0.097473644 0 230 252
4.894002205 51.287799266 -0.100944021 0 230 252
4.895487103 51.191312514 -0.109098727 0 230 252
4.896827268 51.094791382 -0.116851879 0 230 252
4.889413740 50.996306597 -0.100378632 0 230 252
4.892680842 50.900216385 -0.113462342 0 230 252
4.893791705 50.803641316 -0.120577751 0 230 252
4.890011201 50.705973999 -0.114155328 0 230 252
4.887337723 50.608555233 -0.110795440 0 230 252
4.887760696 50.511825819 -0.116003898 0 230 252
4.884872118 50.414360736 -0.112046490 0 230 252
4.883135478 50.317152199 -0.111275982 0 230 252
4.882495506 50.220186670 -0.113539461 0 230 252
4.884887403 50.123889955 -0.124192777 0 230 252
4.885782005 50.027260806 -0.130701207 0 230 252
4.882520778 49.929716284 -0.125706934 0 230 252
4.878313603 49.831965832 -0.118093492 0 230 252
4.873564570 49.734099094 -0.108979212 0 230 252
4.866959729 49.635829235 -0.094727528 0 230 252
4.861219915 49.537752584 -0.082868699 0 230 252
4.858672778 49.440375591 -0.079844925 0 230 252
4.859769745 49.343792840 -0.086905745 0 230 252
4.864479073 49.247993257 -0.103963456 0 230 252
4.870343320 49.152439780 -0.124216721 0 230 252
4.873196189 49.056229171 -0.136134423 0 229 255
4.872583224 48.959266676 -0.138458622 0 229 255
4.868509853 48.861557438 -0.131204193 0 229 255
4.862027366 48.763331801 -0.117280723 0 230 252
4.854692168 48.664927075 -0.100995895 0 230 252
4.848872643 48.566852418 -0.088904872 0 230 252
4.846197953 48.469455036 -0.085516928 0 230 252
4.845424624 48.372465463 -0.087390481 0 230 252
4.844106929 48.275359550 -0.087756230 0 230 252
4.842195766 48.178127460 -0.086478257 0 230 252
4.842110309 48.081284328 -0.090252472 0 230 252
4.844636612 47.984994922 -0.101254658 0 230 252
4.846070451 47.888471348 -0.109232028 0 230 252
4.844149802 47.791236415 -0.107923472 0 230 252
4.841264826 47.693798600 -0.103944625 0 230 252
4.840925134 47.596898649 -0.107009809 0 230 252
4.842336720 47.500366613 -0.114921368 0 230 252
4.843732553 47.403829438 -0.122788302 0 230 252
4.844480655 47.307154679 -0.128861307 0 230 252
4.843544980 47.210126321 -0.130272598 0 230 252
4.839906537 47.112533490 -0.124201534 0 230 252
4.834356152 47.014544135 -0.112837017 0 230 252
4.828843155 46.916566051 -0.101574777 0 230 252
4.824999912 46.818938219 -0.094933272 0 230 252
4.824200866 46.721943658 -0.096717114 0 230 252
4.826314513 46.625551666 -0.106562417 0 230 252
4.828673800 46.529208042 -0.117086667 0 230 252
4.829533833 46.432552775 -0.123459833 0 230 252
4.827639114 46.335329229 -0.122206499 0 230 252
4.822846620 46.237511185 -0.112930636 0 230 252
4.818617142 46.139811480 -0.105212086 0 230 252
4.817262514 46.042702543 -0.105450387 0 230 252
4.817295397 45.945877289 -0.109528452 0 230 252
4.816758670 45.848935133 -0.112028668 0 230 252
4.815367708 45.751818811 -0.112163119 0 230 252
4.816603969 45.655236399 -0.119569173 0 230 252
4.822234099 45.559543024 -0.139137416 0 229 255
4.829146151 45.464103978 -0.162253415 0 229 255
4.831403250 45.367718794 -0.172482460 0 229 255
4.659444751 37.685298632 -0.007389897 0 230 249
4.599660414 31.768032544 -0.077297008 0 230 252
4.592918181 31.670174983 -0.062446598 0 230 252
4.566064487 30.503982071 -0.033890225 0 230 249
4.504644645 26.330676275 -0.026664515 0 230 249
4.458066188 25.453105529 0.068558444 0 231 246
4.468654212 25.357555428 0.035462991 0 231 246
4.486072981 25.262835266 -0.016560400 0 230 249
4.494478080 25.166997608 -0.043605223 0 230 249
4.493841160 25.070049341 -0.045592545 0 230 249
4.495354810 24.973362419 -0.053538322 0 230 252
4.494280579 24.876359757 -0.054311625 0 230 252
4.491118440 24.779104764 -0.049297857 0 230 249
4.496350360 24.682862932 -0.067544457 0 230 252
4.491045951 24.585350724 -0.056591812 0 230 252
4.484990188 24.487751853 -0.043555776 0 230 249
4.478636179 24.390121263 -0.029691990 0 230 249
4.474721755 24.292785018 -0.022587638 0 230 249
4.473107142 24.195723742 -0.021855470 0 230 249
4.473340518 24.098881385 -0.026243458 0 230 249
4.474607853 24.002159917 -0.033495772 0 230 249
4.474224426 23.905242854 -0.036172284 0 230 249
4.470713782 23.807959262 -0.030181211 0 230 249
4.466876629 23.710639504 -0.023284103 0 230 249
4.466549551 23.613730118 -0.026113422 0 230 249
4.469902779 23.517246807 -0.039141085 0 230 249
4.470596377 23.420452912 -0.044796946 0 230 249
4.465765974 23.323021672 -0.035142636 0 230 249
4.459511146 23.225429902 -0.021539467 0 230 249
4.455209074 23.128065515 -0.013346936 0 230 249
4.453157777 23.030960240 -0.011391056 0 230 249
4.453357020 22.934111468 -0.015671270 0 230 249
4.456148555 22.837555311 -0.027134820 0 230 249
4.460632541 22.741187248 -0.043287932 0 230 249
4.464529841 22.644749012 -0.057814101 0 230 252
4.466366929 22.548076120 -0.066629441 0 230 252
4.466327566 22.451191465 -0.070243156 0 230 252
4.465891506 22.354261921 -0.072756340 0 230 252
4.464773290 22.257256278 -0.073377815 0 230 252
4.461414445 22.160003027 -0.067788173 0 230 252
4.452453992 22.062134467 -0.046672169 0 230 249
4.441963327 21.964104012 -0.021313745 0 230 249
4.437718928 21.866764188 -0.013266024 0 230 249
4.440018116 21.770140237 -0.023353319 0 230 249
4.442811372 21.673567441 -0.034808965 0 230 249
4.442037925 21.576605634 -0.036378032 0 230 249
4.438090315 21.479301257 -0.029148356 0 230 249
4.433757362 21.381957722 -0.020849453 0 230 249
4.432932493 21.284992482 -0.022272603 0 230 249
4.435579441 21.188397640 -0.033317424 0 230 249
4.438432259 21.091821903 -0.044931849 0 230 249
4.439864108 20.995092659 -0.052606756 0 230 252
4.438665765 20.898083876 -0.052990458 0 230 252
4.434852677 20.800800198 -0.046125659 0 230 249
4.430013049 20.703411088 -0.036414361 0 230 249
4.425766583 20.606086864 -0.028345958 0 230 249
4.422209970 20.508836907 -0.022188478 0 230 249
4.417695655 20.411489635 -0.013375271 0 230 249
4.410864387 20.313905767 0.001861285 0 230 249
4.401767235 20.216093219 0.023379732 0 230 249
4.402039430 20.119247355 0.018929239 0 230 249
4.397138855 20.021872226 0.028817942 0 231 246
4.396056249 19.924888557 0.028124983 0 231 246
4.397627460 19.828173959 0.020077086 0 230 249
4.399572333 19.731495131 0.010994477 0 230 249
4.402751784 19.634938250 -0.001509235 0 230 249
4.397237157 19.537506887 0.010087297 0 230 249
4.401110852 19.441016252 -0.004338706 0 230 249
4.402176606 19.344242640 -0.010980280 0 230 249
4.401426996 19.247287607 -0.012588693 0 230 249
4.402064177 19.150469241 -0.018040149 0 230 249
4.402084496 19.053588988 -0.021780611 0 230 249
4.402272613 18.956724389 -0.025985127 0 230 249
4.403150078 18.859926120 -0.032099450 0 230 249
4.403738581 18.763098345 -0.037411704 0 230 249
4.401237739 18.665970399 -0.034159111 0 230 249
4.394848220 18.568468785 -0.020125752 0 230 249
4.397001815 18.471791484 -0.029773214 0 230 249
4.393502309 18.374571210 -0.023748807 0 230 249
4.391160055 18.277463070 -0.020931233 0 230 249
4.387530594 18.180233862 -0.014544240 0 230 249
4.381772257 18.082805548 -0.002254566 0 230 249
4.377189225 17.985491466 0.006778246 0 230 249
4.378043330 17.888689635 0.000739712 0 230 249
4.381866980 17.792163522 -0.013529824 0 230 249
4.384289077 17.695503455 -0.023913032 0 230 249
4.384449613 17.598631442 -0.028025748 0 230 249
4.383476802 17.501654076 -0.028995522 0 230 249
4.383537537 17.404771565 -0.032829402 0 230 249
4.386726205 17.308174173 -0.045333551 0 230 249
4.389858389 17.211568435 -0.057680121 0 230 252
4.384871757 17.114223604 -0.047518242 0 230 249
4.373836339 17.016335853 -0.020586273 0 230 249
4.364232641 16.918584471 0.002377946 0 230 249
4.359065679 16.821236753 0.013043551 0 230 249
4.359165213 16.724361546 0.009110006 0 230 249
4.362374275 16.627761409 -0.003443086 0 230 249
4.363334121 16.530959339 -0.009759594 0 230 249
4.360340131 16.433807973 -0.005113616 0 230 249
4.356785220 16.336609009 0.001088606 0 230 249
4.356987079 16.239739591 -0.003123190 0 230 249
4.360590671 16.143164581 -0.016764856 0 230 249
4.362492299 16.046438942 -0.025687002 0 230 249
4.359949520 15.949328640 -0.022286345 0 230 249
4.354422370 15.851963859 -0.010610564 0 230 249
4.349183262 15.754627112 0.000267869 0 230 249
4.347026723 15.657555329 0.002601220 0 230 249
4.348129916 15.560759942 -0.004101816 0 230 249
4.349875913 15.464017030 -0.012585972 0 230 249
4.350468479 15.367175413 -0.017871199 0 230 249
4.351250475 15.270348372 -0.023680558 0 230 249
4.354002015 15.173683414 -0.034949481 0 230 249
4.358257654 15.077139830 -0.050387577 0 230 249
4.361703362 14.980525628 -0.063579129 0 230 252
4.362071891 14.883656193 -0.068237989 0 230 252
4.358909776 14.786498122 -0.063106767 0 230 252
4.354311456 14.689225271 -0.053992354 0 230 252
4.349070443 14.591903320 -0.043094794 0 230 249
4.343263687 14.494539185 -0.030627417 0 230 249
4.339408438 14.397334704 -0.023569622 0 230 249
4.339783210 14.300468870 -0.028239028 0 230 249
4.342021367 14.203749485 -0.038073906 0 230 249
4.342269957 14.106870893 -0.042391330 0 230 249
4.339778425 14.009776543 -0.039110156 0 230 249
4.336609772 13.912630516 -0.033950372 0 230 249
4.334590135 13.815575344 -0.031975319 0 230 249
4.334235415 13.718649556 -0.034615507 0 230 249
4.335907874 13.621879084 -0.042875462 0 230 249
4.338703911 13.525192492 -0.054249794 0 230 252
4.339813669 13.428374679 -0.060947443 0 230 252
4.337540659 13.331299138 -0.058264335 0 230 252
4.335455334 13.234238710 -0.056100498 0 230 252
4.335365031 13.137328631 -0.059467351 0 230 252
4.336532985 13.040511674 -0.066322057 0 230 252
4.338710360 12.943767933 -0.075974676 0 230 252
4.341575985 12.847072549 -0.087534693 0 230 252
4.341740787 12.750175930 -0.091604670 0 230 252
4.336683126 12.652897022 -0.081192273 0 230 252
4.330367732 12.555529852 -0.067291089 0 230 252
4.327451403 12.458412383 -0.062813961 0 230 252
4.328961385 12.361614549 -0.070609508 0 230 252
4.331395279 12.264880849 -0.080965965 0 230 252
4.332331549 12.168038016 -0.087168566 0 230 252
4.331066035 12.071037963 -0.087264631 0 230 252
4.326744247 11.973823108 -0.078884587 0 230 252
4.319659726 11.876417500 -0.062842298 0 230 252
4.313525575 11.779082682 -0.049434118 0 230 249
4.311766779 11.682054570 -0.048157646 0 230 249
4.311661762 11.585140846 -0.051466029 0 230 249
4.311667654 11.488234026 -0.055080882 0 230 252
4.312282986 11.391367907 -0.060384669 0 230 252
4.312042119 11.294442613 -0.063313085 0 230 252
4.309577443 11.197367108 -0.060073585 0 230 252
4.306872740 11.100276666 -0.056167317 0 230 252
4.304565358 11.003213959 -0.053361710 0 230 252
4.301582541 10.906107581 -0.048681885 0 230 249
4.298628319 10.809004602 -0.044080196 0 230 249
4.306489754 10.712610130 -0.069470872 0 230 252
4.298905869 10.615205135 -0.052028150 0 230 252
4.300394762 10.518391312 -0.059744635 0 230 252
4.301596787 10.421557159 -0.066664538 0 230 252
4.303668684 10.324776847 -0.075995729 0 230 252
4.307631735 10.228114182 -0.090570490 0 230 252
4.312731014 10.131519375 -0.108295313 0 230 252
4.315500427 10.034773839 -0.119557879 0 230 252
4.313487538 9.937727453 -0.117556833 0 230 252
4.307870718 9.840458679 -0.105559936 0 230 252
4.302373718 9.743200814 -0.093894098 0 230 252
4.300153998 9.646146817 -0.091315935 0 230 252
4.300007066 9.549219720 -0.094485139 0 230 252
4.306866989 9.452715106 -0.117085614 0 230 252
4.298892400 9.355314305 -0.098543909 0 230 252
4.289777490 9.257850856 -0.076838378 0 230 252
4.284027898 9.160592984 -0.064464811 0 230 252
4.283051561 9.063619687 -0.065328102 0 230 252
4.284968260 8.966815536 -0.074213838 0 230 252
4.289130908 8.870139617 -0.089327500 0 230 252
4.295296634 8.773575332 -0.109995588 0 230 252
4.298492246 8.676835294 -0.122425315 0 230 252
4.293333652 8.579616337 -0.111684002 0 230 252
4.283598724 8.482141735 -0.088249131 0 230 252
4.276145566 8.384802002 -0.071141364 0 230 252
4.273223691 8.287720019 -0.066599823 0 230 252
4.272213429 8.190745426 -0.067359004 0 230 252
4.270891288 8.093753677 -0.067252066 0 230 252
4.270142190 7.996793484 -0.068733365 0 230 252
4.271216927 7.899932055 -0.075272065 0 230 252
4.270576638 7.802976634 -0.077052972 0 230 252
4.265311736 7.705773548 -0.066006039 0 230 252
4.259608236 7.608550433 -0.053741384 0 230 252
4.258060417 7.511550035 -0.053001721 0 230 252
4.258982850 7.414679355 -0.059112478 0 230 252
4.259461010 7.317784113 -0.063989921 0 230 252
4.259750511 7.220878004 -0.068343023 0 230 252
4.260627320 7.124000970 -0.074324043 0 230 252
4.262432813 7.027169681 -0.082879869 0 230 252
4.264579377 6.930353437 -0.092380687 0 230 252
4.263162665 6.833356455 -0.091997008 0 230 252
4.257089921 6.736128561 -0.078697692 0 230 252
4.249653089 6.638837331 -0.061613513 0 230 252
4.245585896 6.541715788 -0.053874562 0 230 252
4.246788882 6.444852259 -0.060752620 0 230 252
4.248263700 6.348000120 -0.068383626 0 230 252
4.247190899 6.251024442 -0.068947039 0 230 252
4.244682810 6.153980836 -0.065528140 0 230 252
4.242829460 6.056969141 -0.063924211 0 230 252
4.242794344 5.960042817 -0.067362611 0 230 252
4.243779343 5.863162891 -0.073629560 0 230 252
4.243442679 5.766220868 -0.076229355 0 230 252
4.241874712 5.669222372 -0.075412587 0 230 252
4.242050855 5.572302903 -0.079432642 0 230 252
4.243588747 5.475443369 -0.087228965 0 230 252
4.243275687 5.378499894 -0.089889876 0 230 252
4.241444407 5.281489216 -0.088338273 0 230 252
4.240020679 5.184496911 -0.087916056 0 230 252
4.239475209 5.087542820 -0.089928962 0 230 252
4.238340108 4.990563159 -0.090305150 0 230 252
4.234934623 4.893487376 -0.084382236 0 230 252
4.229722993 4.796337577 -0.073447920 0 230 252
4.224784208 4.699202354 -0.063269249 0 230 252
4.222404265 4.602175648 -0.060187628 0 230 252
4.221813888 4.505223094 -0.062069167 0 230 252
4.219691858 4.408208243 -0.059700736 0 230 252
4.215293143 4.311102992 -0.051015507 0 230 249
4.211251141 4.214014501 -0.043318621 0 230 249
4.209010286 4.116999148 -0.040617072 0 230 249
4.206665618 4.019980698 -0.037626393 0 230 249
4.203410240 3.922928165 -0.032108156 0 230 249
4.210853149 3.826285657 -0.056267126 0 230 252
4.211344476 3.729374027 -0.061140567 0 230 252
4.203828881 3.632161799 -0.043800516 0 230 249
4.204220711 3.535247255 -0.048395680 0 230 249
4.208292406 3.438466439 -0.063198379 0 230 252
4.201319971 3.341281391 -0.047361555 0 230 249
4.195775190 3.244152118 -0.035484066 0 230 249
4.195820623 3.147224676 -0.039113824 0 230 249
4.200317307 3.050452659 -0.055091309 0 230 252
4.202397174 2.953592521 -0.064362985 0 230 252
4.203026862 2.856680226 -0.069610458 0 230 252
4.204120774 2.759782434 -0.076144748 0 230 252
4.203314664 2.662819254 -0.077406772 0 230 252
4.200795068 2.565799060 -0.073913967 0 230 252
4.200676916 2.468858789 -0.077082369 0 230 252
4.203442295 2.372011307 -0.088249543 0 230 252
4.203547877 2.275075730 -0.092036524 0 230 252
4.198621409 2.177980037 -0.081861724 0 230 252
4.194856005 2.080923648 -0.074906927 0 230 252
4.196403797 1.984033457 -0.082691783 0 230 252
4.199853542 1.887199313 -0.095752370 0 230 252
4.200339900 1.790272505 -0.100590312 0 230 252
4.197978826 1.693259886 -0.097527201 0 230 252
4.196644585 1.596278440 -0.097311824 0 230 252
4.195904724 1.499314459 -0.098744407 0 230 252
4.190506651 1.402217125 -0.087251839 0 230 252
4.182340280 1.305045089 -0.068077458 0 230 252
4.174973869 1.207900792 -0.051121252 0 230 249
4.170014568 1.110827400 -0.040842302 0 230 249
4.168688722 1.013855319 -0.040643219 0 230 249
4.171896749 0.917004379 -0.053022393 0 230 252
4.176936378 0.820198344 -0.070482436 0 230 252
4.179492027 0.723323336 -0.081049580 0 230 252
4.177545240 0.626330708 -0.079123369 0 230 252
4.173194699 0.529278384 -0.070526596 0 230 252
4.171400936 0.432291899 -0.069022659 0 230 252
4.172181273 0.335368734 -0.074659720 0 230 252
4.173792182 0.238464113 -0.082600248 0 230 252
4.175379204 0.141556918 -0.090473453 0 230 252
4.174584850 0.044592444 -0.091738125 0 230 252
4.169373805 -0.052473041 -0.080746835 0 230 252
4.164087298 -0.149537001 -0.069544938 0 230 252
4.161360958 -0.246541193 -0.065445495 0 230 252
4.160304783 -0.343507857 -0.065979114 0 230 252
4.160333759 -0.440451375 -0.069522612 0 230 252
4.161855143 -0.537364477 -0.077206064 0 230 252
4.164274159 -0.634261092 -0.087379179 0 230 252
4.164411279 -0.731206316 -0.091219551 0 230 252
4.162933525 -0.828184341 -0.090577927 0 230 252
4.161190487 -0.925167152 -0.089199071 0 230 252
4.159168480 -1.022154703 -0.087045000 0 230 252
4.156724721 -1.119149332 -0.083719505 0 230 252
4.154752599 -1.216134265 -0.081701569 0 230 252
4.154845565 -1.313081605 -0.085412796 0 230 252
4.157021253 -1.409993418 -0.094902194 0 230 252
4.159612712 -1.506900576 -0.105544279 0 230 252
4.160591375 -1.603837429 -0.111710027 0 230 252
4.158662640 -1.700823243 -0.109806979 0 230 252
4.154516219 -1.797843687 -0.101748912 0 230 252
4.150297762 -1.894862849 -0.093489754 0 230 252
4.146798761 -1.991868644 -0.087225841 0 230 252
4.143936453 -2.088863122 -0.082727544 0 230 252
4.143240488 -2.185824993 -0.084239612 0 230 252
4.144907368 -2.282753996 -0.092307421 0 230 252
4.146731579 -2.379682910 -0.100810785 0 230 252
4.146813968 -2.476637076 -0.104479546 0 230 252
4.144698160 -2.573620361 -0.102047182 0 230 252
4.142138897 -2.670608336 -0.098383071 0 230 252
4.140371609 -2.767585546 -0.096915576 0 230 252
4.139563439 -2.864550945 -0.098108559 0 230 252
4.138434683 -2.961520135 -0.098410785 0 230 252
4.134970301 -3.058514805 -0.092230326 0 230 252
4.130700836 -3.155516101 -0.083814501 0 230 252
4.129419193 -3.252484487 -0.083689026 0 230 252
4.131691955 -3.349417849 -0.093426365 0 230 252
4.134591706 -3.446347833 -0.104902664 0 230 252
4.136846723 -3.543286641 -0.114588720 0 230 252
4.140104696 -3.640219286 -0.127057122 0 230 252
4.141645097 -3.737169401 -0.134757955 0 229 255
4.139346048 -3.834151725 -0.131802512 0 229 255
4.136044503 -3.931140580 -0.126063786 0 230 252
4.136754804 -4.028099152 -0.131457655 0 229 255
4.139562149 -4.125044939 -0.142670255 0 229 255
4.139530145 -4.222011673 -0.146001937 0 229 255
4.136479572 -4.318997157 -0.140955210 0 229 255
4.132913848 -4.415983954 -0.134477625 0 229 255
4.130145915 -4.512964652 -0.130212963 0 230 252
4.127959861 -4.609941209 -0.127562030 0 230 252
4.127581304 -4.706908866 -0.129926336 0 230 252
4.128996856 -4.803869759 -0.137268793 0 229 255
4.129586811 -4.900835540 -0.142318888 0 229 255
4.127212308 -4.997812267 -0.139140478 0 229 255
4.122363282 -5.094795111 -0.129093195 0 230 252
4.116922876 -5.191776501 -0.117403388 0 230 252
4.114958876 -5.288747108 -0.115360764 0 230 252
4.116873583 -5.385710231 -0.124082017 0 230 252
4.119853514 -5.482674155 -0.135758689 0 229 255
4.121190806 -5.579642749 -0.142875312 0 229 255
4.119306636 -5.676615056 -0.141049864 0 229 255
4.115558844 -5.773587086 -0.134050859 0 229 255
4.111996094 -5.870557055 -0.127564247 0 230 252
4.109600934 -5.967525725 -0.124317095 0 230 252
4.108094354 -6.064494176 -0.123535055 0 230 252
4.106912437 -6.161462683 -0.123652997 0 230 252
4.105843188 -6.258431257 -0.124082534 0 230 252
4.113507870 -6.355418075 -0.148752412 0 229 255
4.109856968 -6.452383528 -0.142014303 0 229 255
4.107035113 -6.549349334 -0.137576093 0 229 255
4.104097489 -6.646313381 -0.132815393 0 229 255
4.101133908 -6.743275861 -0.127981485 0 230 252
4.099589530 -6.840242543 -0.127085574 0 230 252
4.099238397 -6.937214066 -0.129500544 0 230 252
4.098317926 -7.034183381 -0.130334140 0 230 252
4.096076975 -7.131145956 -0.127501424 0 230 252
4.092771811 -7.228101693 -0.121713660 0 230 252
4.089279605 -7.325054567 -0.115405554 0 230 252
4.087677813 -7.422017477 -0.114343485 0 230 252
4.086548626 -7.518983106 -0.114592100 0 230 252
4.083755527 -7.615936871 -0.110221041 0 230 252
4.079785015 -7.712880488 -0.102580632 0 230 252
4.076569823 -7.809827768 -0.097035610 0 230 252
4.076988529 -7.906803274 -0.101576266 0 230 252
4.081538865 -8.003815476 -0.117584335 0 230 252
4.087308222 -8.100842920 -0.136975193 0 229 255
4.092089204 -8.197866302 -0.153621586 0 229 255
4.094988141 -8.294875756 -0.165042807 0 229 255
4.097613016 -8.391885436 -0.175702270 0 229 255
4.099639409 -8.488891610 -0.184699429 0 229 255
4.097907793 -8.585859099 -0.183263847 0 229 255
4.092516685 -8.682784691 -0.171668851 0 229 255
4.090295089 -8.779743962 -0.168870828 0 229 255
4.091576305 -8.876744580 -0.175795119 0 229 255
4.092876486 -8.973747201 -0.182771006 0 229 255
4.093225222 -9.070739392 -0.187104699 0 229 255
4.089946867 -9.167684691 -0.181368728 0 229 255
4.080256236 -9.264541041 -0.157831401 0 229 255
4.071547996 -9.361404477 -0.137019809 0 229 255
4.068117016 -9.458337845 -0.130856476 0 229 255
4.069075465 -9.555334121 -0.136876995 0 229 255
4.071875364 -9.652359789 -0.148008338 0 229 255
4.073245287 -9.749366197 -0.155169028 0 229 255
4.071668763 -9.846327581 -0.154149226 0 229 255
4.068787500 -9.943267288 -0.149506280 0 229 255
4.067411434 -10.040230663 -0.149040693 0 229 255
4.066514292 -10.137201934 -0.149903512 0 229 255
4.057320977 -10.234028627 -0.127734304 0 230 252
4.028634483 -10.330501640 -0.051448693 0 230 249
3.983106757 -10.426646817 0.071591999 0 231 246
3.946781707 -10.522928918 0.169087181 0 231 243
3.915712162 -10.619283643 0.251994393 0 232 240
3.898897481 -10.715891239 0.295329788 0 232 237
3.901280095 -10.812865677 0.285371759 0 232 237
3.904984985 -10.909869338 0.271743868 0 232 237
3.904623265 -11.006793230 0.269406673 0 232 237
3.905127497 -11.103735721 0.264666509 0 232 237
3.905594082 -11.200678582 0.260031931 0 232 240
3.897395498 -11.297434907 0.279454995 0 232 237
3.894196927 -11.394295940 0.284998070 0 232 237
3.895130251 -11.491247967 0.279071084 0 232 237
3.904277484 -11.588388856 0.250341056 0 232 240
3.910334947 -11.685465887 0.230189970 0 232 240
3.904673906 -11.782272057 0.242573951 0 232 240
3.898357770 -11.879058971 0.256777922 0 232 240
3.888833149 -11.975763712 0.279890968 0 232 237
3.884474293 -12.072589672 0.288663403 0 232 237
3.881071580 -12.169437083 0.294782447 0 232 237
3.879524302 -12.266329976 0.295751286 0 232 237
3.883357296 -12.363361710 0.281783533 0 232 237
3.889908543 -12.460468563 0.260269807 0 232 240
3.897326249 -12.557604321 0.236351338 0 232 240
3.893728910 -12.654448804 0.243016222 0 232 240
3.896301512 -12.751460463 0.232551813 0 232 240
3.886630237 -12.848134514 0.256082980 0 232 240
3.881630231 -12.944933578 0.266645865 0 232 237
3.876107480 -13.041714658 0.278661360 0 232 237
3.873906651 -13.138588456 0.281454790 0 232 237
3.878370246 -13.235656847 0.265745537 0 232 237
3.875216010 -13.332503064 0.271188321 0 232 237
3.865348276 -13.429145558 0.295272532 0 232 237
3.862048972 -13.525981507 0.301120531 0 232 237
3.863458769 -13.622961078 0.293894592 0 232 237
3.863750584 -13.719907576 0.289773862 0 232 237
3.861184587 -13.816764674 0.293589176 0 232 237
3.857566506 -13.913586899 0.300326862 0 232 237
3.856719048 -14.010496916 0.299372772 0 232 237
3.860993897 -14.107575022 0.284197044 0 232 237
3.867987666 -14.204747390 0.261472811 0 232 240
3.871299915 -14.301802376 0.248971793 0 232 240
3.862410931 -14.398446583 0.270350560 0 232 237
3.846397824 -14.494840227 0.311512086 0 232 237
3.831274270 -14.591253240 0.350205107 0 233 234
3.823086885 -14.687898832 0.369639888 0 233 234
3.828050944 -14.785005476 0.352558050 0 233 234
3.842455218 -14.882455236 0.309264164 0 232 237
3.853481598 -14.979794418 0.275350543 0 232 237
3.849228560 -15.076583216 0.283865050 0 232 237
3.838607934 -15.173133868 0.310062129 0 232 237
3.832767100 -15.269855893 0.322988093 0 232 237
3.832993976 -15.366803449 0.319066455 0 232 237
3.834323775 -15.463794059 0.312083278 0 232 237
3.829410412 -15.560545828 0.322437355 0 232 237
3.823154468 -15.657242346 0.336520790 0 232 237
3.821967366 -15.754134125 0.336530019 0 232 237
3.824962276 -15.851191798 0.324927453 0 232 237
3.825454339 -15.948152241 0.320276007 0 232 237
3.820081900 -16.044876539 0.331910760 0 232 237
3.819169932 -16.141779710 0.331160407 0 232 237
3.822325044 -16.238850667 0.319117181 0 232 237
3.823816713 -16.335855609 0.311694234 0 232 237
3.822840687 -16.432758838 0.311125000 0 232 237
3.822360867 -16.529683139 0.309178931 0 232 237
3.823859063 -16.626692458 0.301741045 0 232 237
3.824322008 -16.723659042 0.297179091 0 232 237
3.821174176 -16.820469570 0.302645357 0 232 237
3.816374631 -16.917205925 0.312699632 0 232 237
3.817418508 -17.014198275 0.306527738 0 232 237
3.826120049 -17.111534425 0.279091209 0 232 237
3.833090715 -17.208800032 0.256462270 0 232 240
3.830552239 -17.305639529 0.260241818 0 232 240
3.824995364 -17.402339503 0.272404876 0 232 237
3.821021369 -17.499109167 0.280173351 0 232 237
3.818739573 -17.595955439 0.283243583 0 232 237
3.818295531 -17.692887109 0.281211285 0 232 237
3.820611527 -17.789949987 0.271515063 0 232 237
3.823543529 -17.887044855 0.260109119 0 232 240
3.821547065 -17.983905488 0.262391358 0 232 240
3.815373339 -18.080562664 0.276275749 0 232 237
3.812763142 -18.177390188 0.280264775 0 232 237
3.816248083 -18.274516963 0.267327484 0 232 237
3.820432070 -18.371681933 0.252449772 0 232 240
3.819471405 -18.468593346 0.251860945 0 232 240
3.810417404 -18.565096521 0.273750434 0 232 237
3.795913375 -18.661316500 0.310777407 0 232 237
3.788736630 -18.757901403 0.327455968 0 232 237
3.777612961 -18.854277925 0.355097548 0 233 234
3.769024690 -18.950778495 0.375698948 0 233 234
3.764026577 -19.047461268 0.386330654 0 233 234
3.762355996 -19.144316525 0.387721926 0 233 234
3.763198291 -19.241304812 0.382135204 0 233 234
3.765770341 -19.338387113 0.371745395 0 233 234
3.770482739 -19.435587552 0.355412064 0 233 234
3.776662611 -19.532872067 0.335003948 0 232 237
3.783097422 -19.630176058 0.313888680 0 232 237
3.783050245 -19.727128912 0.310777464 0 232 237
3.770404058 -19.823384038 0.342660125 0 232 237
3.753040432 -19.919366899 0.387646598 0 233 234
3.745831099 -20.015907963 0.404431572 0 233 234
