ply
format ascii 1.0
comment coordinate_system ground
comment units millimeter
element vertex 948
property double x
property double y
property double z
property uchar red
property uchar green
property uchar blue
comment color_mapping zg_high_contrast_from_zg
comment color_zg_range_mm -0.213394330 20.106316226
end_header
4.029797077 -1.024682477 0.282302595 0 232 237
4.029297227 -1.121590204 0.280280606 0 232 237
4.022461824 -1.218613703 0.295821454 0 232 237
3.998808909 -1.315932590 0.357980834 0 233 234
3.986767192 -1.413031542 0.387956301 0 233 234
3.989864917 -1.509863690 0.375967074 0 233 234
3.981459158 -1.606890869 0.395866439 0 233 234
3.975365134 -1.703874695 0.409359042 0 233 234
3.973159666 -1.800792732 0.412073808 0 233 234
3.971740873 -1.897697625 0.412609091 0 233 234
3.965082851 -1.994681566 0.427668929 0 233 231
3.957180182 -2.091679549 0.446180325 0 233 231
3.958503808 -2.188539542 0.439117122 0 233 231
3.972345115 -2.285226067 0.397355013 0 233 234
3.985018844 -2.381939860 0.358830404 0 233 234
3.988857311 -2.478781053 0.344798885 0 233 234
3.987875455 -2.575687896 0.344130882 0 233 234
3.984837281 -2.672620389 0.349164418 0 233 234
3.982987877 -2.769536955 0.350903747 0 233 234
3.984559000 -2.866412844 0.343162061 0 233 234
3.987953218 -2.963270068 0.330367576 0 232 237
3.986289329 -3.060185970 0.331596096 0 232 237
3.982897547 -3.157119597 0.337615839 0 232 237
3.975351792 -3.254093633 0.355152459 0 233 234
3.973142527 -3.351010430 0.357896537 0 233 234
3.977719001 -3.447862494 0.341830234 0 232 237
3.984802208 -3.544696219 0.318815726 0 232 237
3.986803585 -3.641580029 0.309890277 0 232 237
3.981470105 -3.738526678 0.321300035 0 232 237
3.973081370 -3.835494054 0.341181078 0 232 237
3.966132626 -3.932444986 0.357071426 0 233 234
3.961390049 -4.029375688 0.366846949 0 233 234
3.959346365 -4.126285381 0.369141560 0 233 234
3.960848077 -4.223171803 0.361608377 0 233 234
3.962425352 -4.320059692 0.353866818 0 233 234
3.958133409 -4.416982259 0.362397895 0 233 234
3.947868666 -4.513933297 0.387489009 0 233 234
3.938388273 -4.610873468 0.410407035 0 233 234
3.936520500 -4.707773472 0.412221279 0 233 234
3.938919407 -4.804655575 0.402207745 0 233 234
3.940350252 -4.901543823 0.394879178 0 233 234
3.941528311 -4.998434761 0.388252552 0 233 234
3.945209586 -5.095320134 0.374687036 0 233 234
3.950242739 -5.192205706 0.357374568 0 233 234
3.952694454 -5.289101384 0.347220071 0 233 234
3.951675891 -5.386005749 0.346687911 0 233 234
3.948987828 -5.482912367 0.350785590 0 233 234
3.945515696 -5.579818456 0.357058310 0 233 234
3.943434471 -5.676721830 0.359475962 0 233 234
3.945450781 -5.773623522 0.350534301 0 233 234
3.949589569 -5.870527898 0.335709104 0 232 237
3.950800501 -5.967434579 0.329002570 0 232 237
3.946390092 -6.064337664 0.337882638 0 232 237
3.938541977 -6.161233584 0.356295255 0 233 234
3.928241252 -6.258120070 0.381509300 0 233 234
3.915111146 -6.354993514 0.414569525 0 233 234
3.904357738 -6.451863544 0.441041589 0 233 231
3.901042363 -6.548747350 0.446892156 0 233 231
3.904050393 -6.645649873 0.435211398 0 233 231
3.909025959 -6.742562597 0.418076424 0 233 234
3.913486443 -6.839477839 0.402370636 0 233 234
3.916090405 -6.936389117 0.391813433 0 233 234
3.916018036 -7.033290385 0.388677940 0 233 234
3.917079835 -7.130198213 0.382398891 0 233 234
3.921111039 -7.227124071 0.367887673 0 233 234
3.926630252 -7.324062600 0.349251683 0 233 234
3.933220570 -7.421012880 0.327646839 0 232 237
3.939789577 -7.517968837 0.306102095 0 232 237
3.941393924 -7.614895487 0.298324105 0 232 237
3.931987414 -7.711742044 0.321077702 0 232 237
3.915336821 -7.808525378 0.363918944 0 233 234
3.901759467 -7.905321986 0.398240349 0 233 234
3.899371123 -8.002205238 0.401538270 0 233 234
3.900007279 -8.099114612 0.396450997 0 233 234
3.901317647 -8.196031560 0.389495383 0 233 234
3.904389718 -8.292967466 0.377655959 0 233 234
3.902093476 -8.389852073 0.380703168 0 233 234
3.894647237 -8.486681504 0.398031840 0 233 234
3.890447705 -8.583541401 0.406359116 0 233 234
3.890687953 -8.680448961 0.402376603 0 233 234
3.892369615 -8.777374296 0.394398326 0 233 234
3.892863956 -8.874287378 0.389713501 0 233 234
3.891393661 -8.971177172 0.390477606 0 233 234
3.892058070 -9.068093977 0.385323490 0 233 234
3.892386510 -9.165007623 0.381102129 0 233 234
3.888782680 -9.261868863 0.387785955 0 233 234
3.889534891 -9.358788965 0.382391814 0 233 234
3.881123401 -9.455578882 0.402409644 0 233 234
3.875342400 -9.552401885 0.415134485 0 233 234
3.871497582 -9.649250501 0.422491551 0 233 231
3.871674427 -9.746159288 0.418697670 0 233 234
3.879744026 -9.843194368 0.393018027 0 233 234
3.891482690 -9.940296098 0.357164888 0 233 234
3.896721476 -10.037299353 0.339337179 0 232 237
3.890409404 -10.134110609 0.353541793 0 233 234
3.881861814 -10.230878855 0.373946987 0 233 234
3.886890004 -10.327883006 0.356706637 0 233 234
3.901439221 -10.425064932 0.313064572 0 232 237
3.924265837 -10.522412486 0.246469315 0 232 240
3.947956052 -10.619794676 0.177480017 0 231 243
3.978235859 -10.717323213 0.090217877 0 231 246
4.017304058 -10.815049032 -0.021414616 0 230 249
4.047687998 -10.912630994 -0.108963977 0 230 252
4.060233072 -11.009871574 -0.147043455 0 229 255
4.061339851 -11.106883835 -0.153402249 0 229 255
4.059741821 -11.203840230 -0.152259118 0 229 255
4.059454230 -11.300824524 -0.154748840 0 229 255
4.061291844 -11.397856162 -0.163130930 0 229 255
4.062725509 -11.494880931 -0.170391692 0 229 255
4.060607909 -11.591826652 -0.167803046 0 229 255
4.056416999 -11.688723484 -0.159463511 0 229 255
4.052810059 -11.785631628 -0.152742194 0 229 255
4.049603443 -11.882547359 -0.147129824 0 229 255
4.045026729 -11.979428084 -0.137716632 0 229 255
4.038637222 -12.076261292 -0.123274862 0 230 252
4.031929103 -12.173082379 -0.107948191 0 230 252
4.027975641 -12.269969253 -0.100259612 0 230 252
4.030955545 -12.367033110 -0.111797963 0 230 252
4.038670090 -12.464224238 -0.136465757 0 229 255
4.045958062 -12.561410697 -0.159949539 0 229 255
4.048412595 -12.658473001 -0.170027707 0 229 255
4.045275109 -12.755384818 -0.164596325 0 229 255
4.039191477 -12.852213191 -0.150993072 0 229 255
4.034572919 -12.949078915 -0.141451679 0 229 255
4.034618545 -13.046074966 -0.144844478 0 229 255
4.037350736 -13.143149515 -0.155686961 0 229 255
4.039662803 -13.240214620 -0.165363191 0 229 255
4.040186059 -13.337229167 -0.170077250 0 229 255
4.039273096 -13.434201702 -0.170806959 0 229 255
4.037977080 -13.531162644 -0.170473132 0 229 255
4.037066171 -13.628135239 -0.171206192 0 229 255
4.036786858 -13.725127625 -0.173689771 0 229 255
4.037419287 -13.822149382 -0.178700860 0 229 255
4.038315677 -13.919180839 -0.184442896 0 229 255
4.039000878 -14.016206919 -0.189598075 0 229 255
4.040040381 -14.113245902 -0.195734769 0 229 255
4.041200228 -14.210290441 -0.202204106 0 229 255
4.040819801 -14.307285012 -0.204400370 0 229 255
4.038825137 -14.404225338 -0.202118365 0 229 255
4.036190200 -14.501142954 -0.198059353 0 229 255
4.032559455 -14.598024798 -0.191237219 0 229 255
4.026502178 -14.694819574 -0.177683744 0 229 255
4.018092416 -14.791527114 -0.157604204 0 229 255
4.019061108 -14.888564910 -0.163535157 0 229 255
4.019868314 -14.985598376 -0.169017088 0 229 255
4.014107797 -15.082392944 -0.156281668 0 229 255
4.015512004 -15.179448745 -0.163417108 0 229 255
4.016498449 -15.276490791 -0.169392713 0 229 255
4.018632655 -15.373577678 -0.178550654 0 229 255
4.017881653 -15.470556991 -0.179704961 0 229 255
4.018915193 -15.567605212 -0.185807799 0 229 255
4.011012242 -15.664307486 -0.167122685 0 229 255
4.008631526 -15.761221333 -0.163753128 0 229 255
4.008137082 -15.858208924 -0.165614296 0 229 255
4.005719721 -15.955119921 -0.162140709 0 229 255
4.003499457 -16.052037804 -0.159212606 0 229 255
4.007689308 -16.149216315 -0.174063180 0 229 255
4.015891025 -16.246564050 -0.200040524 0 229 255
4.019542009 -16.343729670 -0.213394330 0 229 255
4.014709780 -16.440542958 -0.203216746 0 229 255
4.005504891 -16.537168185 -0.180909165 0 229 255
3.997710234 -16.633847373 -0.162511878 0 229 255
3.995329170 -16.730754706 -0.159129429 0 229 255
3.998055061 -16.827883078 -0.169911456 0 229 255
4.001317470 -16.925037851 -0.182180588 0 229 255
4.001416405 -17.022055901 -0.185673726 0 229 255
4.000679289 -17.119037480 -0.186846649 0 229 255
4.002021365 -17.216112876 -0.193785757 0 229 255
4.003223987 -17.313183743 -0.200336919 0 229 255
4.002844276 -17.410183853 -0.202497777 0 229 255
3.999701198 -17.507056855 -0.196992236 0 229 255
3.993226058 -17.603773095 -0.182242709 0 229 255
3.987550964 -17.700522695 -0.169711122 0 229 255
3.984350124 -17.797385805 -0.164041618 0 229 255
3.983031860 -17.894337043 -0.163593019 0 229 255
3.983415857 -17.991369905 -0.167865201 0 229 255
3.984803149 -18.088452469 -0.174919328 0 229 255
3.985549214 -18.185505542 -0.180193596 0 229 255
3.983979226 -18.282445919 -0.179042071 0 229 255
3.982318777 -18.379381377 -0.177638425 0 229 255
3.982274931 -18.476397176 -0.180718032 0 229 255
3.982063063 -18.573405250 -0.183330394 0 229 255
3.981041072 -18.670372802 -0.183694309 0 229 255
3.980049742 -18.767341912 -0.184142102 0 229 255
3.979552917 -18.864336524 -0.185960500 0 229 255
3.978314387 -18.961293017 -0.185720210 0 229 255
3.975532578 -19.058168608 -0.181197601 0 229 255
3.973775616 -19.155096840 -0.179516770 0 229 255
3.972745235 -19.252063063 -0.179850345 0 229 255
3.971693700 -19.349028138 -0.180124062 0 229 255
3.970516484 -19.445986415 -0.180047953 0 229 255
3.969410564 -19.542948429 -0.180168451 0 229 255
3.967852631 -19.639885685 -0.179033835 0 229 255
3.965076714 -19.736755541 -0.174519180 0 229 255
3.962028423 -19.833608960 -0.169247710 0 229 255
3.960112703 -19.930523966 -0.167116947 0 229 255
3.959057490 -20.027486589 -0.167372183 0 229 255
3.957277143 -20.124408188 -0.165614593 0 229 255
3.953230118 -20.221200200 -0.157567616 0 229 255
3.948743085 -20.317964672 -0.148298725 0 229 255
3.948709038 -20.414983312 -0.151382119 0 229 255
3.954173988 -20.512321977 -0.169719810 0 229 255
3.959277629 -20.609644491 -0.187054096 0 229 255
3.959453993 -20.706681836 -0.190717877 0 229 255
3.956302867 -20.803523065 -0.185149210 0 229 255
3.953164504 -20.900363413 -0.179614729 0 229 255
3.950238117 -20.997214842 -0.174667109 0 229 255
3.944311649 -21.093883711 -0.161395184 0 229 255
3.936304484 -21.190422416 -0.142349486 0 229 255
3.929894794 -21.287053405 -0.127734347 0 230 252
3.926450761 -21.383862678 -0.121345612 0 230 252
3.925734404 -21.480838917 -0.122523141 0 230 252
3.928033930 -21.578003210 -0.132066612 0 230 252
3.932048979 -21.675277542 -0.146368449 0 229 255
3.934475082 -21.772455552 -0.156260897 0 229 255
3.933257087 -21.869405052 -0.156042143 0 229 255
3.928044646 -21.966099490 -0.144740069 0 229 255
3.920810541 -22.062660919 -0.127827821 0 230 252
3.913876231 -22.159236935 -0.111746007 0 230 252
3.917686681 -22.256506438 -0.125473411 0 230 252
3.914923016 -22.353350031 -0.120960295 0 230 252
3.914049680 -22.450316535 -0.121690582 0 230 252
3.914174397 -22.547349131 -0.125188751 0 230 252
3.913062189 -22.644300344 -0.125253964 0 230 252
3.910863153 -22.741178790 -0.122302625 0 230 252
3.910010509 -22.838146890 -0.123085633 0 230 252
3.910276076 -22.935190759 -0.126969950 0 230 252
3.910126905 -23.032207392 -0.129702421 0 230 252
3.909277162 -23.129176754 -0.130489989 0 230 252
3.907430420 -23.226077646 -0.128510186 0 230 252
3.904959306 -23.322934700 -0.124796845 0 230 252
3.904004265 -23.419896104 -0.125288722 0 230 252
3.904751577 -23.516976634 -0.130502711 0 230 252
3.905927987 -23.614088693 -0.136906126 0 229 255
3.905488138 -23.711088131 -0.138823969 0 229 255
3.903493412 -23.807977452 -0.136426503 0 229 255
3.903380364 -23.905000532 -0.139248751 0 229 255
3.905601393 -24.002192051 -0.148546006 0 229 255
3.906626282 -24.099299625 -0.154523315 0 229 255
3.905363679 -24.196242604 -0.154152541 0 229 255
3.902697732 -24.293082918 -0.149886813 0 229 255
3.899282074 -24.389866930 -0.143539685 0 229 255
3.895803700 -24.486644471 -0.137017315 0 229 255
3.893573178 -24.583512673 -0.133956103 0 230 252
3.894801678 -24.680637828 -0.140491401 0 229 255
3.899649461 -24.778035927 -0.157067982 0 229 255
3.903702766 -24.875378680 -0.171439059 0 229 255
3.902113656 -24.972298154 -0.170152971 0 229 255
3.894913761 -25.068790261 -0.153297304 0 229 255
3.885979628 -25.165144997 -0.131628258 0 230 252
3.878300265 -25.261590091 -0.113439532 0 230 252
3.873158549 -25.358226080 -0.102290853 0 230 252
3.870893215 -25.455082176 -0.099122229 0 230 252
3.870867395 -25.552112012 -0.102166578 0 230 252
3.871806018 -25.649218208 -0.107885909 0 230 252
3.872984693 -25.746344812 -0.114270202 0 230 252
3.874220203 -25.843477595 -0.120811074 0 230 252
3.875848317 -25.940643332 -0.128440225 0 230 252
3.877365397 -26.037802219 -0.135760153 0 229 255
3.877461852 -26.134848957 -0.139136946 0 229 255
3.876083280 -26.231777520 -0.138419605 0 229 255
3.875240813 -26.328749268 -0.139188700 0 229 255
3.874630832 -26.425740084 -0.140601746 0 229 255
3.872876083 -26.522637516 -0.138837026 0 229 255
3.869614894 -26.619410505 -0.132890903 0 230 252
3.864314751 -26.716013325 -0.121285649 0 230 252
3.857099642 -26.812453921 -0.104365248 0 230 252
3.850467148 -26.908938334 -0.089060248 0 230 252
3.847118457 -27.005693497 -0.082866325 0 230 252
3.848033278 -27.102805629 -0.088502231 0 230 252
3.851481373 -27.200133380 -0.101166746 0 230 252
3.854399892 -27.297419585 -0.112360614 0 230 252
3.854141646 -27.394437834 -0.114737921 0 230 252
3.850231921 -27.491143796 -0.106981242 0 230 252
3.844292100 -27.587672812 -0.093589806 0 230 252
3.838477900 -27.684208907 -0.080545686 0 230 252
3.834132124 -27.780868824 -0.071575207 0 230 252
3.831847255 -27.877705929 -0.068322578 0 230 252
3.831484579 -27.974710443 -0.070402933 0 230 252
3.832189454 -28.071809383 -0.075444642 0 230 252
3.832471534 -28.168872279 -0.079311928 0 230 252
3.829524822 -28.265649608 -0.074217918 0 230 252
3.823235028 -28.362127464 -0.059845340 0 230 252
3.818613073 -28.458750574 -0.050099894 0 230 249
3.816954890 -28.555637366 -0.048578004 0 230 249
3.817704257 -28.652741033 -0.053736171 0 230 249
3.818583065 -28.749857788 -0.059252418 0 230 252
3.819317135 -28.846962816 -0.064365859 0 230 252
3.820275390 -28.944089683 -0.070100310 0 230 252
3.820949724 -29.041191993 -0.075045697 0 230 252
3.820827725 -29.138222171 -0.077779988 0 230 252
3.820210871 -29.235207214 -0.079139814 0 230 252
3.819452646 -29.332179417 -0.080106141 0 230 252
3.817533670 -29.429043451 -0.077849987 0 230 252
3.815585000 -29.525904006 -0.075510234 0 230 252
3.815417864 -29.622931529 -0.078113436 0 230 252
3.816990881 -29.720124159 -0.085544807 0 230 252
3.818042004 -29.817269250 -0.091526673 0 230 252
3.817128516 -29.914228745 -0.092055127 0 230 252
3.814608201 -30.011034609 -0.088123046 0 230 252
3.818636942 -30.108468307 -0.102365152 0 230 252
3.813537355 -30.205025658 -0.091272536 0 230 252
3.808585860 -30.301594209 -0.080589661 0 230 252
3.804056272 -30.398200744 -0.071076445 0 230 252
3.801734717 -30.495020035 -0.067689966 0 230 252
3.802742800 -30.592164500 -0.073543099 0 230 252
3.805117989 -30.689444966 -0.083189268 0 230 252
3.806416218 -30.786621704 -0.089845401 0 230 252
3.804973887 -30.883528590 -0.088894395 0 230 252
3.799114038 -30.979995615 -0.075682010 0 230 252
3.791172144 -31.076250961 -0.056689897 0 230 252
3.784631976 -31.172641533 -0.041586788 0 230 249
3.781108543 -31.269331493 -0.034855018 0 230 249
3.780688568 -31.366333075 -0.036735375 0 230 249
3.782683393 -31.463580014 -0.045316643 0 230 249
3.785508754 -31.560913809 -0.056201883 0 230 252
3.786999624 -31.658114187 -0.063382234 0 230 252
3.787471813 -31.755212004 -0.067734169 0 230 252
3.787698006 -31.852285634 -0.071402210 0 230 252
3.788130077 -31.949381490 -0.075640509 0 230 252
3.788935724 -32.046517202 -0.080914512 0 230 252
3.787836023 -32.143455957 -0.080899125 0 230 252
3.781683949 -32.239866739 -0.066859759 0 230 252
3.773055270 -32.336013852 -0.045945290 0 230 249
3.767985163 -32.432529674 -0.034906347 0 230 249
3.768939682 -32.529678815 -0.040587635 0 230 249
3.773551676 -32.627217239 -0.056419220 0 230 252
3.778264301 -32.724770689 -0.072529036 0 230 252
3.779902974 -32.822000267 -0.080105886 0 230 252
3.777781464 -32.918828887 -0.077245012 0 230 252
3.775689697 -33.015659856 -0.074465499 0 230 252
3.774883199 -33.112628730 -0.075252153 0 230 252
3.773471106 -33.209532161 -0.074356756 0 230 252
3.769718915 -33.306180896 -0.066965015 0 230 252
3.765013952 -33.402723586 -0.056927522 0 230 252
3.761974136 -33.499445738 -0.051510594 0 230 249
3.760912601 -33.596383668 -0.051583423 0 230 249
3.762048855 -33.693563856 -0.057755344 0 230 252
3.765720699 -33.791026202 -0.070964032 0 230 252
3.770014978 -33.888561242 -0.085899289 0 230 252
3.769425235 -33.985556295 -0.087277080 0 230 252
3.765088563 -34.082132841 -0.078253460 0 230 252
3.760342652 -34.178660934 -0.068092679 0 230 252
3.756639472 -34.275303517 -0.060824954 0 230 252
3.755857415 -34.372273922 -0.061664173 0 230 252
3.760555154 -34.469865451 -0.077712562 0 230 252
3.768729823 -34.567856688 -0.103410853 0 230 252
3.774952816 -34.665632325 -0.123690802 0 230 252
3.773679508 -34.762555437 -0.123161970 0 230 252
3.765043103 -34.858632691 -0.102193880 0 230 252
3.756201732 -34.954680472 -0.080655518 0 230 252
3.749959432 -35.051022744 -0.066330233 0 230 252
3.745749509 -35.147596761 -0.057645101 0 230 252
3.741264437 -35.244136300 -0.048194977 0 230 249
3.736844158 -35.340680739 -0.038923462 0 230 249
3.737827259 -35.437855592 -0.044649471 0 230 249
3.743034803 -35.535528511 -0.062100635 0 230 252
3.748385074 -35.633223037 -0.079946913 0 230 252
3.750999405 -35.730598769 -0.090197613 0 230 252
3.749421361 -35.827479694 -0.088809831 0 230 252
3.743239290 -35.923811964 -0.074640760 0 230 252
3.734269624 -36.019807265 -0.052732421 0 230 249
3.728544683 -36.116185309 -0.039829696 0 230 249
3.727307767 -36.213099312 -0.039383958 0 230 249
3.726870446 -36.310109581 -0.041156638 0 230 249
3.726176264 -36.407089214 -0.042215132 0 230 249
3.728215693 -36.504400890 -0.050860732 0 230 249
3.732413795 -36.601977752 -0.065497519 0 230 252
3.735667767 -36.699443295 -0.077512384 0 230 252
3.735898007 -36.796541617 -0.081132457 0 230 252
3.732659911 -36.893214590 -0.075123463 0 230 252
3.727324846 -36.989627303 -0.063292150 0 230 252
3.722079544 -37.086047799 -0.051708758 0 230 249
3.719810973 -37.182834353 -0.048387455 0 230 249
3.722355590 -37.280218939 -0.058426311 0 230 252
3.728032400 -37.377997257 -0.077159011 0 230 252
3.733111109 -37.475705818 -0.094230316 0 230 252
3.731313891 -37.572555436 -0.092212904 0 230 252
3.723450203 -37.668640168 -0.073353652 0 230 252
3.716265779 -37.764805476 -0.056378742 0 230 252
3.720767093 -37.862447244 -0.071842656 0 230 252
3.717500163 -37.959105617 -0.065740449 0 230 252
3.716538884 -38.056056276 -0.066037653 0 230 252
3.717316050 -38.153229330 -0.071159735 0 230 252
3.714086223 -38.249889707 -0.065156944 0 230 252
3.706181979 -38.345946911 -0.046176332 0 230 249
3.699318199 -38.442133101 -0.030082841 0 230 249
3.696543523 -38.538844093 -0.025339873 0 230 249
3.699402014 -38.636285055 -0.036234053 0 230 249
3.705875358 -38.734199674 -0.057162420 0 230 252
3.708911236 -38.831671133 -0.068546867 0 230 252
3.707446872 -38.928556276 -0.067436892 0 230 252
3.701457684 -39.024846690 -0.053764130 0 230 249
3.692099167 -39.120689390 -0.030736275 0 230 249
3.683930096 -39.216682839 -0.011009187 0 230 249
3.681985576 -39.313495623 -0.008561308 0 230 249
3.689294276 -39.411537410 -0.031800990 0 230 249
3.702931302 -39.510429027 -0.072608322 0 230 252
3.713504664 -39.608922390 -0.104909321 0 230 252
3.711450342 -39.705731933 -0.102152201 0 230 252
3.701242492 -39.801444579 -0.076757874 0 230 252
3.691431104 -39.897203611 -0.052462851 0 230 249
3.689182230 -39.993978339 -0.049161880 0 230 249
3.692158798 -40.091460604 -0.060366875 0 230 252
3.692118695 -40.188535761 -0.063195695 0 230 252
3.687635762 -40.285005874 -0.053688852 0 230 249
3.682700807 -40.381411513 -0.042925829 0 230 249
3.681570917 -40.478335890 -0.042725534 0 230 249
3.682470524 -40.575539241 -0.048158558 0 230 249
3.683419692 -40.672750894 -0.053728042 0 230 249
3.685881289 -40.770173180 -0.063495369 0 230 252
3.692394654 -40.868159936 -0.084510602 0 230 252
3.699337188 -40.966212142 -0.106716293 0 230 252
3.699198612 -41.063283179 -0.109261382 0 230 252
3.693919360 -41.159636177 -0.097533012 0 230 252
3.687602847 -41.255840482 -0.082923577 0 230 252
3.682150203 -41.352162150 -0.070711286 0 230 252
3.679565077 -41.448884614 -0.066459055 0 230 252
3.680847922 -41.546152586 -0.072944611 0 230 252
3.682199502 -41.643432061 -0.079619870 0 230 252
3.680373028 -41.740261709 -0.077470431 0 230 252
3.677959375 -41.837007061 -0.073689555 0 230 252
3.677192034 -41.933986561 -0.074478339 0 230 252
3.677775673 -42.031159795 -0.079016858 0 230 252
3.678265039 -42.128320713 -0.083292490 0 230 252
3.676926407 -42.225219491 -0.082491631 0 230 252
3.674575875 -42.321971882 -0.078880100 0 230 252
3.670989191 -42.418544248 -0.071835232 0 230 252
3.664299538 -42.514664131 -0.056173822 0 230 252
3.656071202 -42.610555666 -0.036238990 0 230 249
3.650667549 -42.706853929 -0.024145574 0 230 249
3.649309864 -42.803740893 -0.023284571 0 230 249
3.648172117 -42.900659861 -0.023033053 0 230 249
3.645991906 -42.997425378 -0.019885928 0 230 249
3.645858512 -43.094491881 -0.022420672 0 230 249
3.649517512 -43.192119853 -0.035484006 0 230 249
3.653508166 -43.289800582 -0.049467093 0 230 249
3.654927917 -43.387103008 -0.056310828 0 230 252
3.655136414 -43.484226793 -0.059790304 0 230 252
3.654848404 -43.581277331 -0.061890041 0 230 252
3.653990627 -43.678243077 -0.062406615 0 230 252
3.651884058 -43.775021398 -0.059454629 0 230 252
3.648746592 -43.871643663 -0.053639064 0 230 249
3.645135242 -43.968192763 -0.046506496 0 230 249
3.642541103 -44.064893799 -0.042197118 0 230 249
3.642568899 -44.161991404 -0.045166680 0 230 249
3.643022866 -44.259154626 -0.049318407 0 230 249
3.643360601 -44.356301248 -0.053146250 0 230 249
3.643813356 -44.453466489 -0.057292318 0 230 252
3.644079892 -44.550604315 -0.060920168 0 230 252
3.644040856 -44.647696174 -0.063698396 0 230 252
3.643382943 -44.744693461 -0.064757045 0 230 252
3.640421443 -44.841335337 -0.059418189 0 230 252
3.634169087 -44.937466331 -0.044940414 0 230 249
3.626047608 -45.033303263 -0.025271358 0 230 249
3.618930393 -45.129290950 -0.008389551 0 230 249
3.617145830 -45.226105516 -0.006313782 0 230 249
3.619350600 -45.323543113 -0.015314156 0 230 249
3.620808861 -45.420866196 -0.022240544 0 230 249
3.619740655 -45.517794287 -0.022150429 0 230 249
3.622725588 -45.615360604 -0.033313731 0 230 249
3.616041132 -45.711403579 -0.017626279 0 230 249
3.613633738 -45.808119014 -0.013814001 0 230 249
3.617314535 -45.905799135 -0.026906134 0 230 249
3.621870417 -46.003622007 -0.042427092 0 230 249
3.621291404 -46.100630670 -0.043688393 0 230 249
3.614375670 -46.196627177 -0.027352657 0 230 249
3.605714915 -46.292339654 -0.006170027 0 230 249
3.600527238 -46.388603852 0.005369769 0 230 249
3.596971631 -46.485127493 0.012378817 0 230 249
3.590011557 -46.581099976 0.028842780 0 231 246
3.630891412 -46.976135531 -0.096116249 0 230 252
3.386783497 -66.646887899 0.025747385 0 231 246
3.389216907 -66.744648862 0.016365537 0 230 249
3.385179935 -66.840848930 0.024962206 0 231 246
3.381066249 -66.937028081 0.033773233 0 231 246
3.384950686 -67.035143660 0.020363279 0 230 249
3.394331447 -67.134597465 -0.008316707 0 230 249
3.404148164 -67.234165250 -0.038206886 0 230 249
3.407012371 -67.332047951 -0.048778900 0 230 249
3.401357528 -67.427855393 -0.035680094 0 230 249
3.393469940 -67.523113703 -0.016376472 0 230 249
3.385011240 -67.618226937 0.004515243 0 230 249
3.376322926 -67.713278139 0.026046222 0 231 246
3.369840225 -67.808864861 0.041450242 0 231 246
3.370014703 -67.906084167 0.038358629 0 231 246
3.375442389 -68.004597997 0.020672186 0 230 249
3.379200304 -68.102704918 0.007626296 0 230 249
3.381273085 -68.200399210 -0.000736331 0 230 249
3.383626048 -68.298165166 -0.009876307 0 230 249
3.386085741 -68.395960131 -0.019311699 0 230 249
3.389425661 -68.493976192 -0.031191686 0 230 249
3.392956577 -68.592043047 -0.043601232 0 230 249
3.395604264 -68.689893490 -0.053555581 0 230 249
3.394474095 -68.786804778 -0.053011912 0 230 249
3.389870648 -68.882848611 -0.042816434 0 230 249
3.385932814 -68.979056125 -0.034469170 0 230 249
3.383292172 -69.075586290 -0.029725009 0 230 249
3.380786713 -69.172149087 -0.025355269 0 230 249
3.377668425 -69.268556730 -0.019281548 0 230 249
3.375552530 -69.365214967 -0.015991851 0 230 249
3.376076249 -69.462537574 -0.020035345 0 230 249
3.377284221 -69.560034044 -0.025978939 0 230 249
3.376667551 -69.657070935 -0.026851453 0 230 249
3.375414942 -69.753947095 -0.025955782 0 230 249
3.374223974 -69.850838670 -0.025230212 0 230 249
3.372686487 -69.947642081 -0.023540622 0 230 249
3.370947357 -70.044393774 -0.021289568 0 230 249
3.370064120 -70.141362887 -0.021415532 0 230 249
3.370687273 -70.238716350 -0.025726026 0 230 249
3.371795656 -70.336195010 -0.031383642 0 230 249
3.373055186 -70.433713943 -0.037460093 0 230 249
3.375306199 -70.531488665 -0.046290375 0 230 249
3.378293556 -70.629454839 -0.057165563 0 230 252
3.378781012 -70.726781526 -0.061093263 0 230 252
3.372955190 -70.822484248 -0.047477344 0 230 249
3.363943351 -70.917361903 -0.025007293 0 230 249
3.356722668 -71.012695809 -0.007512996 0 230 249
3.352429169 -71.108781765 0.001848832 0 230 249
3.349180414 -71.205135698 0.008308852 0 230 249
3.344640881 -71.301153139 0.018356764 0 230 249
3.340215884 -71.397197582 0.028087630 0 231 246
3.340938578 -71.494578283 0.023515748 0 230 249
3.345532023 -71.592968557 0.008189291 0 230 249
3.351304157 -71.691670593 -0.010411301 0 230 249
3.354702821 -71.789757735 -0.022415564 0 230 249
3.353268884 -71.886583843 -0.020990196 0 230 249
3.348226225 -71.982464024 -0.009535952 0 230 249
3.341083339 -72.077789955 0.007755521 0 230 249
3.332285535 -72.172676235 0.029646871 0 231 246
3.331186921 -72.269582743 0.030145270 0 231 246
3.326298519 -72.365490306 0.041175791 0 231 246
3.325865579 -72.462570857 0.039826800 0 231 246
3.329569059 -72.560745201 0.026984768 0 231 246
3.327243043 -72.657327036 0.030898541 0 231 246
3.334406458 -72.756423473 0.008444346 0 230 249
3.340314126 -72.855192781 -0.010519286 0 230 249
3.339583926 -72.952202573 -0.011036514 0 230 249
3.331418435 -73.047232873 0.009108667 0 230 249
3.326874991 -73.143223410 0.019190120 0 230 249
3.318597027 -73.238213992 0.039650366 0 231 246
3.314382223 -73.334285468 0.048821050 0 231 246
3.313415633 -73.431224290 0.048966687 0 231 246
3.315428387 -73.528962102 0.040834371 0 231 246
3.320633010 -73.627559416 0.023833483 0 230 249
3.327351493 -73.726568619 0.002626918 0 230 249
3.330278469 -73.824562563 -0.008042503 0 230 249
3.324297426 -73.920156874 0.006043340 0 230 249
3.314196792 -74.014634624 0.031578222 0 231 246
3.306725592 -74.109816564 0.049807539 0 231 246
3.302952666 -74.205995245 0.057761039 0 231 246
3.302770602 -74.303145799 0.055737130 0 231 246
3.304519703 -74.400821530 0.048347882 0 231 246
3.306668368 -74.498608038 0.039849426 0 231 246
3.308569251 -74.596329440 0.032040672 0 231 246
3.311317477 -74.694284191 0.021878372 0 230 249
3.315147179 -74.792537228 0.008711878 0 230 249
3.318678978 -74.890712455 -0.003625640 0 230 249
3.321739081 -74.988761918 -0.014651227 0 230 249
3.321261136 -75.085843880 -0.015843706 0 230 249
3.316245817 -75.181679729 -0.004425959 0 230 249
3.309726065 -75.277098589 0.011173745 0 230 249
3.306369801 -75.373384662 0.017983524 0 230 249
3.308490417 -75.471179790 0.009574507 0 230 249
3.311835738 -75.569315616 -0.002236773 0 230 249
3.310115464 -75.666053416 0.000030176 0 230 249
3.302362466 -75.761119428 0.019063066 0 230 249
3.293922007 -75.855989505 0.040007662 0 231 246
3.286138064 -75.951036199 0.059129087 0 231 246
3.280154272 -76.046578401 0.073249166 0 231 246
3.279097048 -76.143489089 0.073679538 0 231 246
3.283061619 -76.241800510 0.060155486 0 231 246
3.286334440 -76.339922489 0.048554940 0 231 246
3.284974594 -76.436751893 0.049829772 0 231 246
3.281292795 -76.532930606 0.057558535 0 231 246
3.279252757 -76.629567710 0.060726006 0 231 246
3.280095855 -76.727013764 0.055882333 0 231 246
3.281529266 -76.824627229 0.049399309 0 231 246
3.281138142 -76.921728671 0.047987893 0 231 246
3.278541069 -77.018208417 0.052708083 0 231 246
3.276225142 -77.114766297 0.056648144 0 231 246
3.277330805 -77.212290729 0.051080586 0 231 246
3.280193094 -77.310314181 0.040632407 0 231 246
3.280401080 -77.407587908 0.037561850 0 231 246
3.278845258 -77.504361702 0.039394206 0 231 246
3.277199162 -77.601109363 0.041478621 0 231 246
3.275431065 -77.697821755 0.043903265 0 231 246
3.273550986 -77.794501592 0.046640301 0 231 246
3.272970797 -77.891551814 0.045765999 0 231 246
3.273863646 -77.989023418 0.040799139 0 231 246
3.274222482 -78.086343577 0.037317515 0 231 246
3.272158806 -78.182970356 0.040569481 0 231 246
3.269050580 -78.279296468 0.046725562 0 231 246
3.268963713 -78.376489284 0.044486105 0 231 246
3.273222713 -78.474933472 0.030170091 0 231 246
3.279601205 -78.573992456 0.009964856 0 230 249
3.282896787 -78.672167466 -0.001671446 0 230 249
3.278920296 -78.768244500 0.006903486 0 230 249
3.270408125 -78.863006889 0.028084954 0 231 246
3.260383028 -78.957325137 0.053472354 0 231 246
3.250633654 -79.051716386 0.078094776 0 231 246
3.243947825 -79.146990780 0.094204367 0 231 246
3.243821641 -79.244168767 0.092084773 0 231 246
3.248450746 -79.342732388 0.076750524 0 231 246
3.251829035 -79.440935511 0.064893648 0 231 246
3.252604278 -79.538381806 0.060272265 0 231 246
3.253112636 -79.635751386 0.056393762 0 231 246
3.254402037 -79.733350768 0.050345742 0 231 246
3.254097724 -79.830484627 0.048728132 0 231 246
3.252002591 -79.927093259 0.052088748 0 231 246
3.251245031 -80.024094183 0.051733147 0 231 246
3.252853620 -80.121791684 0.044802669 0 231 246
3.253869306 -80.219316411 0.039521145 0 231 246
3.253453930 -80.316420335 0.038218026 0 231 246
3.254301680 -80.413897902 0.033405551 0 231 246
3.257302850 -80.512013980 0.022609364 0 230 249
3.258882409 -80.609711932 0.015765315 0 230 249
3.257163552 -80.706433381 0.018089526 0 230 249
3.254549342 -80.802888289 0.022903328 0 230 249
3.253305185 -80.899749378 0.023910591 0 230 249
3.254141973 -80.997229926 0.019135536 0 230 249
3.254269824 -81.094500452 0.016331962 0 230 249
3.252892755 -81.191322485 0.017712133 0 230 249
3.252312172 -81.288382290 0.016879821 0 230 249
3.251928311 -81.385501257 0.015501936 0 230 249
3.250223713 -81.482224802 0.017795924 0 230 249
3.246874190 -81.578454112 0.024662824 0 230 249
3.242712673 -81.674437573 0.033787699 0 231 246
3.239460848 -81.770692254 0.040385471 0 231 246
3.237177826 -81.867237014 0.044291833 0 231 246
3.233739044 -81.963432112 0.051411608 0 231 246
3.227268198 -82.058709523 0.066959671 0 231 246
3.230085644 -82.156791558 0.056693740 0 231 246
3.226845048 -82.253042131 0.063266269 0 231 246
3.225878450 -82.349980363 0.063519781 0 231 246
3.224622042 -82.446830595 0.064579946 0 231 246
3.222127934 -82.543304381 0.069081290 0 231 246
3.220285752 -82.639975371 0.071771890 0 231 246
3.221730593 -82.737647283 0.065327845 0 231 246
3.225941226 -82.836164879 0.051197810 0 231 246
3.231043254 -82.934958743 0.034591392 0 231 246
3.228005652 -83.031267556 0.040609147 0 231 246
3.229056939 -83.128827005 0.035263532 0 231 246
3.226173932 -83.225181557 0.040853975 0 231 246
3.231867794 -83.324167943 0.022607183 0 230 249
3.226679775 -83.419814205 0.034606489 0 231 246
3.234117304 -83.519343294 0.011515634 0 230 249
3.237452749 -83.617614636 -0.000172794 0 230 249
3.232162962 -83.713227808 0.012112897 0 230 249
3.228888850 -83.809460369 0.018797422 0 230 249
3.219947554 -83.903938065 0.041234604 0 231 246
3.217001599 -84.000266475 0.047009471 0 231 246
3.217966256 -84.097806035 0.041916273 0 231 246
3.219953612 -84.195664589 0.033981708 0 231 246
3.219522230 -84.292773464 0.032771012 0 231 246
3.213852017 -84.388252085 0.046122506 0 231 246
3.208858078 -84.483937814 0.057595553 0 231 246
3.206994471 -84.580597167 0.060369211 0 231 246
3.205704460 -84.677435000 0.061549761 0 231 246
3.202044778 -84.773531324 0.069317903 0 231 246
3.196731248 -84.869107586 0.081684065 0 231 246
3.192681974 -84.965076902 0.090537480 0 231 246
3.191189296 -85.061846466 0.092286090 0 231 246
3.191904616 -85.159309650 0.087898779 0 231 246
3.194598556 -85.257396813 0.078013072 0 231 246
3.197789652 -85.355643416 0.066746667 0 231 246
3.199155894 -85.453317460 0.060553578 0 231 246
3.198647826 -85.550401215 0.059571283 0 231 246
3.196166251 -85.646861146 0.064075530 0 231 246
3.192460646 -85.742932294 0.071983168 0 231 246
3.190052160 -85.839412527 0.076286645 0 231 246
3.189848346 -85.936591413 0.074463379 0 231 246
3.189565754 -86.033745816 0.072860242 0 231 246
3.187641985 -86.130378513 0.075819971 0 231 246
3.186996360 -86.227417616 0.075228236 0 231 246
3.188647609 -86.325189529 0.068253421 0 231 246
3.189145126 -86.422594988 0.064486603 0 231 246
3.186082520 -86.518863282 0.070616479 0 231 246
3.182364587 -86.614920151 0.078569063 0 231 246
3.078991528 -96.500478557 0.129140938 0 231 243
-4.135436138 -97.687511350 20.106316226 255 0 168
-3.990207385 -97.836555538 19.699980860 255 10 150
-4.076705330 -97.898633790 19.938496091 255 4 161
-4.082315462 -97.991073246 19.951918293 255 2 164
-4.086152052 -98.084176861 19.960406190 255 2 164
-4.086916036 -98.178436351 19.960344681 255 2 164
-4.086484118 -98.273147143 19.956956283 255 2 164
-4.089219935 -98.366662437 19.962384274 255 2 164
-4.096733540 -98.458369822 19.981109214 255 2 164
-4.103051195 -98.550524707 19.996507180 255 2 164
-4.105785999 -98.644032786 20.001935756 255 2 164
-4.106183925 -98.738425665 20.000862260 255 2 164
-4.105471864 -98.833240274 19.996700930 255 2 164
-4.103990473 -98.928348439 19.990399761 255 2 164
-4.102958469 -99.023287441 19.985350270 255 2 164
-4.103673158 -99.117562762 19.985162690 255 2 164
-4.105700656 -99.211337766 19.988629596 255 2 164
-4.107403517 -99.305235722 19.991194194 255 2 164
-4.107954560 -99.399572942 19.990554537 255 2 164
-4.108509465 -99.493908906 19.989926734 255 2 164
-4.108760767 -99.588361279 19.988455146 255 2 164
-4.107373525 -99.683441830 19.982424775 255 2 164
-4.105627135 -99.778661822 19.975396030 255 2 164
-4.105637732 -99.873209343 19.973257888 255 2 164
-4.108315436 -99.966732643 19.978543132 255 2 164
-4.113074263 -100.059454034 19.989621061 255 2 164
-4.117294704 -100.152379693 19.999201851 255 2 164
-4.118296935 -100.246543080 19.999827784 255 2 164
-4.117629621 -100.341350442 19.995808628 255 2 164
-4.117833330 -100.435822584 19.994214553 255 2 164
-4.118559650 -100.530093182 19.994075970 255 2 164
-4.118434764 -100.624693238 19.991569651 255 2 164
-4.117403471 -100.719645115 19.986541975 255 2 164
-4.116781440 -100.814439743 19.982654340 255 2 164
-4.116955525 -100.908926509 19.980983341 255 2 164
-4.117722175 -101.003183569 19.980962515 255 2 164
-4.119165862 -101.097177389 19.982826951 255 2 164
-4.120985805 -101.191024270 19.985739597 255 2 164
-4.122846419 -101.284854537 19.988766545 255 2 164
-4.125657298 -101.378313368 19.994439149 255 2 164
-4.131523607 -101.470577765 20.008615996 255 2 164
-4.140231123 -101.561727914 20.030700961 255 0 168
-4.146954359 -101.653648220 20.047264923 255 0 168
-4.147160060 -101.748116096 20.045691936 255 0 168
-4.143399866 -101.844138929 20.033083081 255 0 168
-4.140951881 -101.939650449 20.024127153 255 2 164
-4.140721034 -102.034293745 20.021342557 255 2 164
-4.141234190 -102.128645369 20.020629608 255 2 164
-4.141053507 -102.223270258 20.017986824 255 2 164
-4.139095531 -102.318595970 20.010398965 255 2 164
-4.136887110 -102.414022566 20.002115214 255 2 164
-4.136185793 -102.508856700 19.998026810 255 2 164
-4.136339412 -102.603354269 19.996318783 255 2 164
-4.136699793 -102.697770588 19.995187278 255 2 164
-4.137344509 -102.792074713 19.994848185 255 2 164
-4.139439699 -102.885804294 19.998546867 255 2 164
-4.142366965 -102.979202899 20.004562341 255 2 164
-4.144942454 -103.072739521 20.009599935 255 2 164
-4.147841162 -103.166146352 20.015538177 255 2 164
-4.150976699 -103.259457380 20.022136638 255 2 164
-4.154107653 -103.352768442 20.028723471 255 0 168
-4.155678940 -103.446699261 20.030970837 255 0 168
-4.155682008 -103.541255052 20.028854921 255 0 168
-4.155300158 -103.635965155 20.025668871 255 2 164
-4.154157440 -103.730980270 20.020366401 255 2 164
-4.151550413 -103.826582689 20.010989810 255 2 164
-4.148492791 -103.922368173 20.000360289 255 2 164
-4.146666704 -104.017663009 19.993159266 255 2 164
-4.146989706 -104.112097643 19.991940338 255 2 164
-4.150431474 -104.205280177 19.999402176 255 2 164
-4.157328884 -104.297071587 20.016482361 255 2 164
-4.159323847 -104.390830869 20.019919930 255 2 164
-4.164135156 -104.483454953 20.031196668 255 0 168
-4.162141163 -104.578819398 20.023534980 255 2 164
-4.156672315 -104.675588169 20.006203652 255 2 164
-4.152659861 -104.771773528 19.992926646 255 2 164
-4.157029892 -104.864573646 20.002979717 255 2 164
-4.156825149 -104.959222310 20.000302013 255 2 164
-4.157392298 -105.053559087 19.999773641 255 2 164
-4.157606774 -105.148039033 19.998264862 255 2 164
-4.156018232 -105.243251150 19.991739252 255 2 164
-4.152975598 -105.339055780 19.981167892 255 2 164
-4.150468701 -105.434645539 19.972088620 255 2 164
-4.151424455 -105.528828594 19.972647279 255 2 164
-4.155544951 -105.621722303 19.982014792 255 2 164
-4.160928734 -105.714098337 19.994899278 255 2 164
-4.159430961 -105.809279487 19.988632896 255 2 164
-4.163111870 -105.902346772 19.996780374 255 2 164
-4.165846894 -105.995798616 20.002296490 255 2 164
-4.165303641 -106.090590757 19.998689944 255 2 164
-4.161084324 -106.186889947 19.984853637 255 2 164
-4.158207978 -106.282642289 19.974756047 255 2 164
-4.167015350 -106.373601839 19.997176595 255 2 164
-4.204567505 -106.452745718 20.099598531 255 0 168
2.997731800 -109.799997973 0.056173404 0 231 246
2.990532512 -109.894361957 0.074089345 0 231 246
2.979920542 -109.987312074 0.101495119 0 231 246
2.984985625 -110.086732961 0.085313652 0 231 246
2.993755158 -110.187690589 0.058833503 0 231 246
2.998223291 -110.286874768 0.044314111 0 231 246
2.995360570 -110.383025154 0.050178581 0 231 246
2.989661870 -110.477997647 0.063929399 0 231 246
2.985020738 -110.573405418 0.074740954 0 231 246
2.982900253 -110.669857663 0.078545273 0 231 246
2.982483415 -110.767017478 0.077613926 0 231 246
2.982506158 -110.864360579 0.075461533 0 231 246
2.984098826 -110.962358489 0.068945263 0 231 246
2.987679233 -111.061187280 0.056903416 0 231 246
2.989374166 -111.159232301 0.050105137 0 231 246
2.985479606 -111.254943633 0.058849163 0 231 246
2.977711350 -111.349032433 0.078364911 0 231 246
2.971459487 -111.443750652 0.093665652 0 231 246
2.971472739 -111.541089800 0.091547864 0 231 246
2.977850735 -111.641098893 0.071734495 0 231 246
2.985635107 -111.741703859 0.048011953 0 231 246
2.988162157 -111.840106477 0.038908201 0 231 246
2.984148960 -111.935761147 0.047990342 0 231 246
2.979775065 -112.031261494 0.058076574 0 231 246
2.977686495 -112.127721919 0.061809787 0 231 246
2.976893304 -112.224727597 0.061942450 0 231 246
2.975586596 -112.321516510 0.063504093 0 231 246
2.972728906 -112.417649763 0.069379339 0 231 246
2.968631601 -112.513257228 0.078702461 0 231 246
2.965787412 -112.609392504 0.084542543 0 231 246
2.965010847 -112.706402087 0.084634862 0 231 246
2.965172428 -112.803809449 0.082119880 0 231 246
2.966822576 -112.901849271 0.075467167 0 231 246
2.969318451 -113.000250204 0.066464104 0 231 246
2.970118432 -113.097932609 0.062177578 0 231 246
2.966490711 -113.193732002 0.070203295 0 231 246
2.959533470 -113.288111026 0.087487831 0 231 246
2.954515590 -113.383312075 0.099381236 0 231 246
2.954385410 -113.480595463 0.097685701 0 231 246
2.958974967 -113.579895100 0.082868213 0 231 246
2.965228272 -113.679910067 0.063425880 0 231 246
2.969700186 -113.779168244 0.048937823 0 231 246
2.971058210 -113.877096938 0.043109027 0 231 246
2.968638384 -113.973407961 0.047785631 0 231 246
2.963083562 -114.068372744 0.061180220 0 231 246
2.958209194 -114.163626021 0.072684019 0 231 246
2.953577308 -114.258980344 0.083514793 0 231 246
2.945885542 -114.353015413 0.102854743 0 231 246
2.946581367 -114.450656467 0.098874231 0 231 246
2.943168770 -114.546528152 0.106318352 0 231 243
2.947736027 -114.645839706 0.091575666 0 231 246
2.945295095 -114.742129848 0.096320418 0 231 246
2.948835562 -114.841003224 0.084435052 0 231 246
2.954708679 -114.940888726 0.066064911 0 231 246
2.960557445 -115.040768786 0.047763645 0 231 246
2.961240922 -115.138416068 0.043825640 0 231 246
2.957145992 -115.233992375 0.053175184 0 231 246
2.951444446 -115.328868805 0.066993130 0 231 246
2.946096796 -115.423895155 0.079828266 0 231 246
2.949737694 -115.522826084 0.067671811 0 231 246
2.948682372 -115.619716720 0.068574425 0 231 246
2.948152547 -115.716836003 0.068017063 0 231 246
2.946020199 -115.813256842 0.071916719 0 231 246
2.942346071 -115.909003890 0.080104510 0 231 246
2.941796656 -116.006113287 0.079605145 0 231 246
2.945446395 -116.105058274 0.067431103 0 231 246
2.951346907 -116.204991314 0.048999901 0 231 246
2.948892285 -116.301271026 0.053801517 0 231 246
2.952707886 -116.400297358 0.041169790 0 231 246
2.951317188 -116.497043521 0.043015482 0 231 246
2.945378569 -116.591792546 0.057507983 0 231 246
2.947857720 -116.690236393 0.048595796 0 231 246
2.943202234 -116.785544962 0.059522875 0 231 246
2.941817795 -116.882290353 0.061355879 0 231 246
2.942223987 -116.979824128 0.058211138 0 231 246
2.942088407 -117.077119889 0.056573990 0 231 246
2.940836741 -117.173923548 0.058041335 0 231 246
2.938318443 -117.270167316 0.063031783 0 231 246
2.936314192 -117.366636970 0.066594083 0 231 246
2.937084388 -117.464333298 0.062443078 0 231 246
2.941107011 -117.563471186 0.049249715 0 231 246
2.942378886 -117.661393449 0.043706105 0 231 246
2.939529569 -117.757488926 0.049622842 0 231 246
2.936874528 -117.853669034 0.055000566 0 231 246
2.934178351 -117.949829377 0.060493856 0 231 246
2.930339785 -118.045480076 0.069164804 0 231 246
2.925629480 -118.140740299 0.080260864 0 231 246
2.923066695 -118.236954313 0.085386802 0 231 246
2.923693865 -118.334589472 0.081644043 0 231 246
2.924646490 -118.432370933 0.076997508 0 231 246
2.924197414 -118.529527516 0.076249665 0 231 246
2.923642220 -118.626636865 0.075798061 0 231 246
2.925402446 -118.724782466 0.068909449 0 231 246
2.929817208 -118.824118874 0.054640885 0 231 246
2.934503244 -118.923580832 0.039619196 0 231 246
2.937933566 -119.022483583 0.028090273 0 231 246
2.940698471 -119.121090736 0.018412754 0 230 249
2.943562407 -119.219745074 0.008461043 0 230 249
2.944437495 -119.317507590 0.004040628 0 230 249
2.943575850 -119.414489484 0.004450492 0 230 249
2.942831926 -119.511524307 0.004534200 0 230 249
2.941498872 -119.608293438 0.006257201 0 230 249
2.941110630 -119.705488519 0.005354259 0 230 249
2.944086815 -119.804203633 -0.004902553 0 230 249
2.944340380 -119.901690673 -0.007587747 0 230 249
2.944907663 -119.999320409 -0.011144085 0 230 249
2.946250899 -120.097302537 -0.016856845 0 230 249
2.943226159 -120.193306416 -0.010422937 0 230 249
2.945154112 -120.291555276 -0.017759208 0 230 249
2.945971481 -120.389301927 -0.022006240 0 230 249
2.941875919 -120.484817241 -0.012591291 0 230 249
2.933799313 -120.578519368 0.007894481 0 230 249
2.925846164 -120.672272014 0.028038188 0 231 246
2.923040934 -120.768364316 0.033868834 0 231 246
2.926172479 -120.867161903 0.023192893 0 230 249
2.931149992 -120.966804828 0.007385240 0 230 249
2.931473233 -121.064326404 0.004520393 0 230 249
2.924714637 -121.158611595 0.021348445 0 230 249
2.920430642 -121.254024237 0.031296826 0 231 246
2.921305493 -121.351796248 0.026901698 0 231 246
2.925156459 -121.450933315 0.014232357 0 230 249
2.931124286 -121.551044776 -0.004321956 0 230 249
2.933200620 -121.649375041 -0.012054413 0 230 249
2.930631761 -121.745573355 -0.006869276 0 230 249
2.925645668 -121.840658775 0.005038409 0 230 249
2.919012414 -121.934982886 0.021527394 0 230 249
2.913576384 -122.029853832 0.034688571 0 231 246
2.911968068 -122.126485542 0.037207550 0 231 246
2.910427015 -122.223147577 0.039540676 0 231 246
2.907683368 -122.319253686 0.045218929 0 231 246
2.906984570 -122.416303164 0.045212423 0 231 246
2.909584180 -122.514878139 0.036035481 0 231 246
2.914637908 -122.614591611 0.020035751 0 230 249
2.918421616 -122.713721142 0.007568631 0 230 249
2.918814785 -122.811282085 0.004530467 0 230 249
2.916161528 -122.907430205 0.009964421 0 230 249
2.912032260 -123.002891318 0.019503778 0 230 249
2.909120129 -123.098915511 0.025659929 0 231 246
2.908663035 -123.196080049 0.024990725 0 231 246
2.908827015 -123.293533917 0.022595723 0 230 249
2.907001724 -123.390061512 0.025733310 0 231 246
2.902891621 -123.485522713 0.035225285 0 231 246
2.899888814 -123.581498082 0.041639467 0 231 246
2.902252688 -123.679978520 0.033132078 0 231 246
2.909895835 -123.780929358 0.009946162 0 230 249
2.916392258 -123.881350061 -0.010049957 0 230 249
2.915493240 -123.978313227 -0.009480950 0 230 249
2.907614163 -124.072004986 0.010498189 0 230 249
2.901276216 -124.166414048 0.026193219 0 231 246
2.899526002 -124.262972340 0.029132633 0 231 246
2.898385611 -124.359816303 0.030377529 0 231 246
2.897414266 -124.456739388 0.031153548 0 231 246
2.897833930 -124.554316821 0.028062846 0 231 246
2.898528707 -124.652024659 0.024208331 0 230 249
2.897551130 -124.748945285 0.025005200 0 231 246
2.897802223 -124.846445275 0.022386756 0 230 249
2.900906482 -124.945293002 0.011835860 0 230 249
2.906862345 -125.045491018 -0.006643140 0 230 249
2.914100962 -125.146300724 -0.028687833 0 230 249
2.913014265 -125.243176377 -0.027581682 0 230 249
2.908738378 -125.338541124 -0.017606374 0 230 249
2.907246745 -125.435222939 -0.015371884 0 230 249
2.907371231 -125.532670844 -0.017630066 0 230 249
2.907157666 -125.629958841 -0.018947074 0 230 249
2.903767018 -125.725737445 -0.011428579 0 230 249
2.896333906 -125.819591427 0.007331763 0 230 249
2.888628344 -125.913310514 0.026850894 0 231 246
2.884743282 -126.008844072 0.035747750 0 231 246
2.885959295 -126.106807010 0.030461468 0 231 246
2.891581771 -126.206873800 0.012923524 0 230 249
2.898395056 -126.307514034 -0.007924462 0 230 249
2.893592741 -126.402609039 0.003527640 0 230 249
2.880218677 -126.493601194 0.038816005 0 231 246
2.882460131 -126.592058077 0.030684194 0 231 246
