ply
format ascii 1.0
comment coordinate_system ground
comment units millimeter
element vertex 1233
property double x
property double y
property double z
property uchar red
property uchar green
property uchar blue
comment color_mapping zg_high_contrast_from_zg
comment color_zg_range_mm -0.280734225 49.944695996
end_header
4.732116439 50.574004343 0.318779891 0 231 246
4.734643530 50.477801784 0.307750409 0 230 249
4.737391827 50.381645612 0.296109721 0 230 249
4.728422343 50.282891747 0.316899498 0 231 246
4.720236140 50.184317139 0.335522808 0 231 246
4.718767468 50.087230462 0.335556149 0 231 246
4.720180258 49.990778937 0.327615895 0 231 246
4.720569124 49.894100402 0.322510474 0 231 246
4.719676534 49.797139495 0.320952676 0 231 246
4.717491224 49.699895216 0.322973732 0 231 246
4.712707314 49.602083359 0.332187900 0 231 246
4.705666488 49.503781523 0.347649630 0 231 246
4.698325530 49.405418884 0.363943282 0 231 246
4.696337625 49.308226056 0.365422636 0 231 246
4.702010741 49.212698287 0.345699718 0 231 246
4.713182483 49.118357862 0.310759092 0 231 246
4.727839089 49.024762545 0.266174067 0 230 249
4.740968689 48.930825297 0.225816054 0 230 249
4.742830945 48.834446746 0.216643961 0 230 249
4.735117615 48.736004094 0.233975864 0 230 249
4.724350683 48.636910216 0.259760748 0 230 249
4.716307287 48.538408196 0.278008799 0 230 249
4.715445788 48.441449826 0.276380019 0 230 249
4.719170650 48.345471941 0.262058090 0 230 249
4.717057217 48.248244443 0.263896564 0 230 249
4.706424434 48.149202857 0.289316445 0 230 249
4.694679489 48.049932137 0.317815992 0 231 246
4.690226037 47.952217439 0.326134965 0 231 246
4.692694384 47.855972070 0.315296330 0 231 246
4.695286538 47.759750249 0.304116000 0 230 249
4.693254385 47.662549374 0.305736370 0 230 249
4.685137138 47.564066891 0.324200997 0 231 246
4.680761901 47.466377045 0.332309221 0 231 246
4.687580154 47.371040219 0.309435479 0 231 246
4.696350311 47.276106549 0.281159788 0 230 249
4.696777336 47.179419896 0.275978614 0 230 249
4.689006803 47.081020225 0.293489356 0 230 249
4.680309372 46.982432526 0.313567046 0 231 246
4.675708221 46.884703041 0.322307408 0 231 246
4.673146371 46.787399860 0.325404085 0 231 246
4.670933066 46.690170143 0.327537102 0 231 246
4.671217853 46.593458282 0.322756341 0 231 246
4.670653468 46.496570062 0.320327218 0 231 246
4.665986952 46.398835825 0.329254282 0 231 246
4.654661225 46.299734084 0.356615994 0 231 246
4.650465677 46.202104758 0.364241833 0 231 246
4.647035345 46.104634766 0.369750628 0 231 246
4.641951911 46.006828369 0.379836623 0 231 246
4.638932043 45.909446588 0.384211520 0 231 246
4.643192647 45.813550614 0.368433883 0 231 246
4.648415315 45.717846399 0.349994005 0 231 246
4.646442381 45.620675991 0.351473994 0 231 246
4.644452210 45.523502846 0.353002816 0 231 246
4.646256572 45.427098252 0.344028584 0 231 246
4.649386914 45.330959317 0.331384715 0 231 246
4.647707744 45.233847765 0.332055835 0 231 246
4.633932404 45.134303089 0.366213658 0 231 246
4.620295183 45.034795928 0.399990574 0 231 246
4.618069209 44.937585570 0.402179078 0 231 246
4.621291605 44.841466085 0.389285868 0 231 246
4.624360366 44.745312710 0.376818945 0 231 246
4.623844874 44.648441964 0.374275466 0 231 246
4.618619167 44.550634003 0.384772654 0 231 246
4.619615607 44.454064487 0.378045798 0 231 246
4.627371799 44.358832799 0.352606342 0 231 246
4.634966830 44.263562561 0.327613892 0 231 246
4.640060330 44.167792039 0.309547581 0 231 246
4.640703553 44.071140220 0.303802490 0 230 249
4.636979732 43.973628571 0.310148371 0 231 246
4.637004433 43.876854567 0.306117788 0 230 249
4.638784556 43.780423577 0.297228426 0 230 249
4.636894492 43.683273102 0.298500950 0 230 249
4.631282694 43.585397296 0.310078219 0 231 246
4.622785942 43.486963343 0.329643751 0 231 246
4.613939784 43.388467239 0.350177923 0 231 246
4.612673630 43.291447140 0.349727836 0 231 246
4.617306071 43.195568920 0.332948245 0 231 246
4.623894929 43.100064322 0.310753113 0 231 246
4.628714635 43.004212871 0.293456912 0 230 249
4.622756394 42.906283290 0.306001455 0 230 249
4.607403829 42.806553621 0.344556479 0 231 246
4.593316175 42.707077342 0.379610926 0 231 246
4.586981966 42.609093965 0.393200327 0 231 246
4.588191136 42.512554503 0.385905958 0 231 246
4.594401815 42.416966104 0.364765101 0 231 246
4.603241848 42.321872068 0.336345292 0 231 246
4.612748508 42.226896999 0.306080619 0 230 249
4.619797743 42.131448614 0.282620644 0 230 249
4.620673061 42.034827455 0.276255412 0 230 249
4.616716616 41.937293706 0.283269103 0 230 249
4.612336385 41.839682475 0.291457329 0 230 249
4.606504944 41.741801283 0.303664803 0 230 249
4.599183640 41.643644549 0.319998607 0 231 246
4.593681435 41.545832924 0.331296972 0 231 246
4.590743487 41.448503419 0.335496621 0 231 246
4.595405170 41.352591109 0.318655405 0 231 246
4.612268651 41.258942841 0.268030372 0 230 249
4.628772966 41.165214297 0.218400413 0 230 249
4.650374004 41.072415987 0.154658945 0 230 249
4.681899959 40.981434109 0.063437087 0 230 252
4.712065056 40.890176474 -0.024016508 0 230 252
4.738920675 40.798286109 -0.102306242 0 229 255
4.759875501 40.705291015 -0.164256847 0 229 255
4.770076030 40.610308659 -0.196429058 0 229 255
4.768146456 40.513099812 -0.195012900 0 229 255
4.761464334 40.415024522 -0.180436015 0 229 255
4.753674911 40.316751969 -0.162791791 0 229 255
4.746254956 40.218551752 -0.146169337 0 229 255
4.741580851 40.120854326 -0.137148868 0 229 255
4.739718774 40.023668513 -0.135913745 0 229 255
4.736169327 39.926178714 -0.130005128 0 229 255
4.730923957 39.828385323 -0.119399264 0 229 255
4.728190511 39.731046803 -0.115747844 0 229 255
4.730240097 39.634567721 -0.125339824 0 229 255
4.735029297 39.538576774 -0.142517011 0 229 255
4.739185198 39.442468281 -0.157939596 0 229 255
4.741277564 39.345988015 -0.167647072 0 229 255
4.740916356 39.249068965 -0.170559284 0 229 255
4.736598221 39.151447110 -0.162513144 0 229 255
4.728947911 39.053237639 -0.145238512 0 229 255
4.723005349 38.955335074 -0.132691642 0 229 255
4.721738856 38.858260910 -0.133092409 0 229 255
4.724488593 38.761893675 -0.144613793 0 229 255
4.728414756 38.665730145 -0.159391948 0 229 255
4.731491333 38.569414013 -0.171816454 0 229 255
4.733401242 38.472890823 -0.181009197 0 229 255
4.733145513 38.375987657 -0.184203733 0 229 255
4.727748929 38.278189154 -0.173160815 0 229 255
4.717349197 38.179525127 -0.148261581 0 229 255
4.707404557 38.080947162 -0.124621274 0 229 255
4.701001872 37.982988474 -0.110788369 0 229 255
4.698589232 37.885722305 -0.108003923 0 229 255
4.701190841 37.789320386 -0.119104456 0 229 255
4.704993644 37.693122040 -0.133530513 0 229 255
4.703065647 37.595937911 -0.132084960 0 229 255
4.696641115 37.497985624 -0.118185704 0 229 255
4.692397477 37.400409584 -0.110324938 0 229 255
4.692890409 37.303642338 -0.115580445 0 229 255
4.694564011 37.207074495 -0.124104660 0 229 255
4.694358851 37.110186237 -0.127424756 0 229 255
4.691759945 37.012892644 -0.124114432 0 229 255
4.696851000 36.916897579 -0.142099974 0 229 255
4.689668644 36.818832042 -0.126093751 0 229 255
4.680712846 36.720473421 -0.105174738 0 229 255
4.674537579 36.622586782 -0.091955082 0 229 255
4.672750496 36.525437686 -0.090887305 0 229 255
4.673296607 36.428678352 -0.096280252 0 229 255
4.672879171 36.331757508 -0.099003558 0 229 255
4.670194075 36.234459748 -0.095445380 0 229 255
4.667332774 36.137134101 -0.091398047 0 229 255
4.666176070 36.040091588 -0.092070579 0 229 255
4.667494419 35.943457283 -0.099596901 0 229 255
4.670783208 35.847145342 -0.112579536 0 229 255
4.673613777 35.750754934 -0.124292091 0 229 255
4.672539610 35.653722290 -0.125188961 0 229 255
4.666367881 35.555857048 -0.111966271 0 229 255
4.659322989 35.457853480 -0.096323975 0 229 255
4.656490461 35.360539398 -0.092347296 0 229 255
4.658518571 35.264015120 -0.101831932 0 229 255
4.663028673 35.167890165 -0.118189935 0 229 255
4.664616778 35.071289297 -0.126453882 0 229 255
4.659499075 34.973606480 -0.116143513 0 229 255
4.653445350 34.875776434 -0.103239388 0 229 255
4.650808818 34.778497996 -0.099798827 0 229 255
4.650490472 34.681591509 -0.102777970 0 229 255
4.648892452 34.584480377 -0.102211610 0 229 255
4.644250536 34.486885309 -0.093213146 0 229 255
4.638998753 34.389196217 -0.082524264 0 230 252
4.638733554 34.292300138 -0.085646147 0 229 255
4.644528951 34.196361036 -0.105553843 0 229 255
4.651216244 34.100557319 -0.127931049 0 229 255
4.654627841 34.004232705 -0.141234117 0 229 255
4.652805957 33.907083882 -0.140040076 0 229 255
4.647312799 33.809361283 -0.128675860 0 229 255
4.640332868 33.711410076 -0.113192191 0 229 255
4.632343344 33.613306263 -0.094910762 0 229 255
4.624531829 33.515235455 -0.077121111 0 230 252
4.619522290 33.417603987 -0.067091514 0 230 252
4.619575191 33.320757998 -0.071083494 0 230 252
4.623619788 33.224526606 -0.086131317 0 229 255
4.627681778 33.128294041 -0.101226359 0 229 255
4.627383697 33.031388767 -0.104243009 0 229 255
4.621380374 32.933609950 -0.091454939 0 229 255
4.613446461 32.835540290 -0.073317826 0 230 252
4.607693124 32.737807949 -0.061219726 0 230 252
4.605811550 32.640667272 -0.059845419 0 230 252
4.606177868 32.543867814 -0.064696817 0 230 252
4.604718941 32.446791513 -0.064491061 0 230 252
4.601711830 32.349482223 -0.059995560 0 230 252
4.604136220 32.252991067 -0.070544798 0 230 252
4.611265085 32.157202788 -0.094125044 0 229 255
4.616177138 32.061076716 -0.111563519 0 229 255
4.615844637 31.964163667 -0.114472810 0 229 255
4.610763871 31.866543515 -0.104227506 0 229 255
4.603564998 31.768612103 -0.088113434 0 229 255
4.594933523 31.670473350 -0.068029497 0 230 252
4.594471756 31.573546831 -0.070576089 0 230 252
4.588303485 31.475779439 -0.057313276 0 230 252
4.587800185 31.378848199 -0.059742559 0 230 252
4.589828907 31.282287576 -0.069185098 0 230 252
4.590246070 31.185489140 -0.074162169 0 230 252
4.590879679 31.088721179 -0.079737793 0 230 252
4.592249866 30.992059055 -0.087352899 0 229 255
4.593009204 30.895306562 -0.093274729 0 229 255
4.594129420 30.798604919 -0.100195251 0 229 255
4.593067877 30.701587004 -0.101070525 0 229 255
4.588221153 30.604024685 -0.091458409 0 229 255
4.586366893 30.506894611 -0.090135304 0 229 255
4.588182058 30.410290205 -0.098976773 0 229 255
4.591423990 30.313887246 -0.111769920 0 229 255
4.593422416 30.217304087 -0.121117067 0 229 255
4.591239401 30.120125181 -0.118878841 0 229 255
4.584737942 30.022335936 -0.104675519 0 229 255
4.577065485 29.924385609 -0.087226754 0 229 255
4.569825960 29.826501345 -0.070976125 0 230 252
4.560077021 29.728269549 -0.047771950 0 230 252
4.549724679 29.629959971 -0.022894710 0 230 252
4.544606656 29.532388440 -0.012517808 0 230 252
4.547102063 29.435880238 -0.023232822 0 230 252
4.554379818 29.340033484 -0.047196471 0 230 252
4.560240980 29.243984230 -0.067234509 0 230 252
4.560627294 29.147173647 -0.072103251 0 230 252
4.556863553 29.049790469 -0.065472904 0 230 252
4.551722814 28.952220302 -0.055026287 0 230 252
4.548735416 28.854948224 -0.050544500 0 230 252
4.549307118 28.758163748 -0.055922439 0 230 252
4.550186861 28.661420031 -0.062152787 0 230 252
4.548176047 28.564282328 -0.060373391 0 230 252
4.543336788 28.466762368 -0.050756218 0 230 252
4.538397947 28.369231908 -0.040861930 0 230 252
4.535736892 28.272011195 -0.037277447 0 230 252
4.536034219 28.175189003 -0.041888592 0 230 252
4.538220854 28.078618795 -0.051733393 0 230 252
4.539093772 27.981870762 -0.057937231 0 230 252
4.537521763 27.884795815 -0.057365768 0 230 252
4.534440121 27.787520916 -0.052610368 0 230 252
4.532521783 27.690401599 -0.051077052 0 230 252
4.532868305 27.593581912 -0.055818028 0 230 252
4.532390127 27.496652674 -0.058272865 0 230 252
4.530740501 27.399569334 -0.057480757 0 230 252
4.528192201 27.302368923 -0.054197467 0 230 252
4.525523837 27.205154043 -0.050580352 0 230 252
4.521791864 27.107802108 -0.044014991 0 230 252
4.517620444 27.010395282 -0.036230802 0 230 252
4.515334521 26.913234692 -0.033669898 0 230 252
4.515293989 26.816364570 -0.037329580 0 230 252
4.516425399 26.719644361 -0.044235520 0 230 252
4.519498778 26.623171402 -0.056521443 0 230 252
4.524995668 26.527004991 -0.075521753 0 230 252
4.529972308 26.430767343 -0.093079553 0 229 255
4.531545623 26.334092884 -0.101205947 0 229 255
4.529871222 26.237005225 -0.100331986 0 229 255
4.526164645 26.139661544 -0.093825774 0 229 255
4.520815750 26.042113243 -0.082767522 0 230 252
4.512910724 25.944247544 -0.064624980 0 230 252
4.502361207 25.846056329 -0.039153194 0 230 252
4.495541647 25.748337597 -0.024015895 0 230 252
4.495711417 25.651492299 -0.028245130 0 230 252
4.497022406 25.554787563 -0.035635687 0 230 252
4.497297522 25.457953070 -0.040154714 0 230 252
4.497251557 25.361078059 -0.043782927 0 230 252
4.497192167 25.264200677 -0.047372856 0 230 252
4.496615715 25.167259287 -0.049528868 0 230 252
4.495188624 25.070213775 -0.049326549 0 230 252
4.493189686 24.973099033 -0.047538441 0 230 252
4.499662877 24.877012453 -0.069226843 0 230 252
4.496937090 24.779808148 -0.065422361 0 230 252
4.492905548 24.682447826 -0.057998229 0 230 252
4.488064166 24.584992555 -0.048328679 0 230 252
4.486184624 24.487894871 -0.046865818 0 230 252
4.486974703 24.391116497 -0.052799966 0 230 252
4.487031249 24.294249491 -0.056700255 0 230 252
4.486115226 24.197266348 -0.057904227 0 230 252
4.484475693 24.100197626 -0.057102056 0 230 252
4.481421527 24.002962724 -0.052378408 0 230 252
4.476825141 23.905548283 -0.043379645 0 230 252
4.472955535 23.808221676 -0.036393812 0 230 252
4.472339496 23.711276883 -0.038423492 0 230 252
4.475442130 23.614764255 -0.050757785 0 230 252
4.478660990 23.518261966 -0.063413188 0 230 252
4.477793562 23.421284379 -0.064742992 0 230 252
4.474045137 23.323974968 -0.058087355 0 230 252
4.470319691 23.226670304 -0.051494219 0 230 252
4.470929949 23.129863646 -0.056915912 0 230 252
4.475077418 23.033458988 -0.072139648 0 230 252
4.476052247 22.936689944 -0.078569649 0 230 252
4.471071980 22.839245097 -0.068494347 0 230 252
4.463931079 22.741559480 -0.052429711 0 230 252
4.460223676 22.644264719 -0.045879664 0 230 252
4.460629941 22.547433106 -0.050729428 0 230 252
4.460380925 22.450527228 -0.053762013 0 230 252
4.455613396 22.353117795 -0.044270366 0 230 252
4.447527482 22.255343131 -0.025580500 0 230 252
4.438818806 22.157505051 -0.005163320 0 230 252
4.431671833 22.059844928 0.010926826 0 230 252
4.430148226 21.962806882 0.011432677 0 230 252
4.437069096 21.866693094 -0.011464958 0 230 252
4.445932022 21.770784972 -0.039744306 0 230 252
4.449812185 21.674327992 -0.054212520 0 230 252
4.445371222 21.576966480 -0.045616691 0 230 252
4.437653642 21.479254152 -0.027938053 0 230 252
4.431644321 21.381730593 -0.014992831 0 230 252
4.430541147 21.284736354 -0.015644583 0 230 252
4.433138139 21.188137095 -0.026550908 0 230 252
4.434539336 21.091407926 -0.034141845 0 230 252
4.431290161 20.994184180 -0.028842258 0 230 252
4.423817025 20.896516215 -0.011833847 0 230 252
4.419053634 20.799138256 -0.002334853 0 230 252
4.418294148 20.702182832 -0.003932481 0 230 252
4.419828403 20.605466758 -0.011886717 0 230 252
4.423400771 20.508960803 -0.025489117 0 230 252
4.426848137 20.412438395 -0.038744053 0 230 252
4.426744303 20.315545824 -0.042154765 0 230 252
4.420343548 20.218004644 -0.028110462 0 230 252
4.410608657 20.120125813 -0.004823233 0 230 252
4.404243310 20.022597806 0.009125477 0 230 252
4.405600735 19.925859684 0.001668994 0 230 252
4.411241313 19.829553923 -0.017658809 0 230 252
4.413773995 19.732929241 -0.028370945 0 230 252
4.410452189 19.635712904 -0.022854006 0 230 252
4.404113762 19.538196034 -0.008974074 0 230 252
4.399574998 19.440862923 -0.000081427 0 230 252
4.399408061 19.343967307 -0.003306032 0 230 252
4.401792655 19.247323832 -0.013602285 0 230 252
4.404210489 19.150681050 -0.023989664 0 230 252
4.404498422 19.053826282 -0.028471977 0 230 252
4.401646568 18.956663087 -0.024249732 0 230 252
4.398616550 18.859483936 -0.019532457 0 230 252
4.399221597 18.762659504 -0.024890510 0 230 252
4.403185419 18.666158878 -0.039558156 0 230 252
4.407426879 18.569681217 -0.054994454 0 230 252
4.408749014 18.472919276 -0.062337228 0 230 252
4.405923370 18.375758941 -0.058180980 0 230 252
4.399758321 18.278281965 -0.044766433 0 230 252
4.401688531 18.181576836 -0.053791561 0 230 252
4.398096705 18.084347780 -0.047507910 0 230 252
4.397881014 17.987438375 -0.050582181 0 230 252
4.398818101 17.890636399 -0.056851033 0 230 252
4.397574537 17.793629433 -0.057073715 0 230 252
4.392219916 17.696240566 -0.045898711 0 230 252
4.386162450 17.598789981 -0.032774058 0 230 252
4.382958627 17.501606312 -0.027559036 0 230 252
4.380734957 17.404514306 -0.025060044 0 230 252
4.378538888 17.307425763 -0.022636423 0 230 252
4.376806592 17.210380356 -0.021497354 0 230 252
4.374192545 17.113255586 -0.017912715 0 230 252
4.369461638 17.015940983 -0.008458414 0 230 252
4.363568127 16.918524745 0.004220169 0 230 252
4.358792472 16.821212302 0.013800961 0 230 252
4.355663464 16.724049492 0.018817948 0 230 252
4.353490678 16.626973162 0.021185140 0 230 252
4.354208122 16.530153078 0.015540777 0 230 252
4.358823899 16.433674597 -0.000910083 0 230 252
4.364054432 16.337245661 -0.019064318 0 230 252
4.366658491 16.240582930 -0.029936027 0 230 252
4.367382520 16.143754224 -0.035594542 0 230 252
4.368229798 16.046934853 -0.041593689 0 230 252
4.368921351 15.950100670 -0.047160045 0 230 252
4.368333351 15.853155577 -0.049177858 0 230 252
4.365571674 15.756024790 -0.045168166 0 230 252
4.360508410 15.658699946 -0.034776254 0 230 252
4.353077034 15.561178066 -0.017817585 0 230 252
4.343916823 15.463515657 0.003935546 0 230 252
4.336087674 15.365970980 0.021999636 0 230 252
4.333369538 15.268857639 0.025894649 0 230 252
4.335427975 15.172142010 0.016547621 0 230 252
4.338148963 15.075478770 0.005364667 0 230 252
4.341178901 14.978838084 -0.006673863 0 230 252
4.344141496 14.882188802 -0.018524678 0 230 252
4.343789092 14.785266462 -0.021183376 0 230 252
4.340554412 14.688109956 -0.015849583 0 230 252
4.338922913 14.591084522 -0.014959621 0 230 252
4.340215696 14.494294412 -0.022176475 0 230 252
4.342139536 14.397552983 -0.031141974 0 230 252
4.343763408 14.300785457 -0.039274739 0 230 252
4.346738213 14.204122859 -0.051152153 0 230 252
4.351120080 14.107568058 -0.066929900 0 230 252
4.352654887 14.010785951 -0.074812655 0 230 252
4.349239568 13.913615750 -0.068969113 0 230 252
4.344087373 13.816312574 -0.058308522 0 230 252
4.339346694 13.719044365 -0.048787734 0 230 252
4.334368688 13.621760782 -0.038607683 0 230 252
4.328925481 13.524444670 -0.027136524 0 230 252
4.324854028 13.427236343 -0.019467700 0 230 252
4.324037193 13.330276779 -0.020822056 0 230 252
4.325844156 13.233514721 -0.029450585 0 230 252
4.328354869 13.136803256 -0.040029452 0 230 252
4.329431334 13.039982161 -0.046630374 0 230 252
4.328647057 12.943021449 -0.048070698 0 230 252
4.327378714 12.846024849 -0.048167668 0 230 252
4.326862891 12.749083700 -0.050350164 0 230 252
4.327572708 12.652231689 -0.055930123 0 230 252
4.327985664 12.555356802 -0.060685853 0 230 252
4.325508135 12.458271955 -0.057425449 0 230 252
4.318967791 12.360896200 -0.042898003 0 230 252
4.309674410 12.263327854 -0.020735288 0 230 252
4.301859447 12.165870998 -0.002670824 0 230 252
4.300356336 12.068865810 -0.002107626 0 230 252
4.305171870 11.972305517 -0.019064788 0 230 252
4.311428625 11.875841605 -0.040017497 0 230 252
4.313940528 11.779111556 -0.050584787 0 230 252
4.311850894 11.682060391 -0.048390897 0 230 252
4.311217733 11.585110290 -0.050234720 0 230 252
4.316148468 11.488540664 -0.067506402 0 230 252
4.322659474 11.392074033 -0.089159325 0 229 255
4.325334068 11.295342047 -0.100172680 0 229 255
4.323069844 11.198274938 -0.097489233 0 229 255
4.317621910 11.100995802 -0.085975884 0 229 255
4.310116426 11.003583207 -0.068755473 0 230 252
4.300595764 10.906042320 -0.045945423 0 230 252
4.298364760 10.808987272 -0.043349307 0 230 252
4.290989439 10.711596885 -0.026486039 0 230 252
4.289624162 10.614601952 -0.026288377 0 230 252
4.292993515 10.517913168 -0.039219602 0 230 252
4.296887193 10.421254709 -0.053603893 0 230 252
4.298646133 10.324456223 -0.062067124 0 230 252
4.299023902 10.227567980 -0.066699019 0 230 252
4.298708691 10.130634974 -0.069408041 0 230 252
4.296968770 10.033612129 -0.068164887 0 230 252
4.296890544 9.936693381 -0.071528927 0 230 252
4.297561546 9.839820318 -0.076969704 0 230 252
4.296522268 9.742840725 -0.077666302 0 230 252
4.294153497 9.645779853 -0.074674696 0 230 252
4.292165001 9.548743139 -0.072736565 0 230 252
4.291396566 9.451780858 -0.074180936 0 230 252
4.291844669 9.354891398 -0.078998088 0 230 252
4.291345218 9.257944329 -0.081186256 0 230 252
4.288499681 9.160857892 -0.076866748 0 230 252
4.284835751 9.063724699 -0.070276356 0 230 252
4.281576882 8.966617230 -0.064808178 0 230 252
4.278267253 8.869508540 -0.059198048 0 230 252
4.274618060 8.772382021 -0.052644987 0 230 252
4.271944540 8.675313460 -0.048796718 0 230 252
4.272145508 8.578409855 -0.052919566 0 230 252
4.273600527 8.481576255 -0.060519410 0 230 252
4.272365029 8.384589630 -0.060656101 0 230 252
4.268455123 8.287453971 -0.053374204 0 230 252
4.264493410 8.190317669 -0.045947433 0 230 252
4.261946940 8.093261508 -0.042444681 0 230 252
4.260078448 7.996243575 -0.040821174 0 230 252
4.258388752 7.899236005 -0.039692436 0 230 252
4.258420424 7.802321702 -0.043336894 0 230 252
4.262430553 7.705619424 -0.058014844 0 230 252
4.266389105 7.608910565 -0.072548767 0 230 252
4.265137105 7.511923166 -0.072629680 0 230 252
4.260509753 7.414759278 -0.063347528 0 230 252
4.256635340 7.317637289 -0.056152544 0 230 252
4.257332986 7.220753314 -0.061637659 0 230 252
4.262143551 7.124078592 -0.078529556 0 230 252
4.266207640 7.027361484 -0.093350016 0 229 255
4.266458390 6.930448192 -0.097592487 0 229 255
4.263914604 6.833394085 -0.094082664 0 229 255
4.260365874 6.736291251 -0.087784256 0 229 255
4.255348944 6.639118014 -0.077412278 0 230 252
4.250024720 6.541932826 -0.066186725 0 230 252
4.247693444 6.444896142 -0.063261656 0 230 252
4.246919731 6.347935437 -0.064655763 0 230 252
4.244182029 6.250880782 -0.060601080 0 230 252
4.237813035 6.153655467 -0.046472767 0 230 252
4.229747540 6.056354561 -0.027637420 0 230 252
4.227203732 5.959316355 -0.024116970 0 230 252
4.229402715 5.862498505 -0.033751105 0 230 252
4.229749298 5.765593304 -0.038245929 0 230 252
4.227203144 5.668555600 -0.034715613 0 230 252
4.221854861 5.571392803 -0.023411372 0 230 252
4.218144342 5.474306510 -0.016648886 0 230 252
4.217996684 5.377380112 -0.019768262 0 230 252
4.220619707 5.280574726 -0.030572199 0 230 252
4.226674544 5.183915947 -0.050894752 0 230 252
4.235708889 5.087380313 -0.079481384 0 230 252
4.243307031 4.990775565 -0.104083207 0 229 255
4.223251083 4.602210564 -0.062536715 0 230 252
4.160034947 2.273681894 0.028683236 0 230 252
4.141515724 -1.119432450 -0.041517316 0 230 252
4.061515535 -7.615779415 -0.048488952 0 230 252
3.975304419 -14.984209667 -0.062921050 0 230 252
3.979331208 -15.081348493 -0.077399312 0 230 252
3.983482249 -15.178495798 -0.092221622 0 229 255
3.983019595 -15.275474549 -0.094231689 0 229 255
3.982379555 -15.372447031 -0.095748099 0 229 255
3.982420848 -15.469445813 -0.099155341 0 229 255
3.982765505 -15.566457109 -0.103403895 0 229 255
3.983014278 -15.663465725 -0.107385117 0 229 255
3.981474190 -15.760404993 -0.106397850 0 229 255
3.978443059 -15.857284676 -0.101269022 0 229 255
3.975954484 -15.954184568 -0.097645645 0 229 255
3.973274971 -16.051075611 -0.093490903 0 229 255
3.969120715 -16.147905144 -0.085239773 0 229 255
3.964291858 -16.244704459 -0.075114129 0 230 252
3.961763049 -16.341596579 -0.071374367 0 230 252
3.962332017 -16.438617659 -0.076235833 0 230 252
3.963121857 -16.535649326 -0.081709585 0 230 252
3.962240043 -16.632610893 -0.082540125 0 230 252
3.960404979 -16.729531437 -0.080722391 0 230 252
3.959553412 -16.826494181 -0.081634701 0 230 252
3.960846771 -16.923551268 -0.088502406 0 229 255
3.963606787 -17.020675118 -0.099442019 0 229 255
3.966260476 -17.117797125 -0.110085350 0 229 255
3.966920505 -17.214832100 -0.115191155 0 229 255
3.964133825 -17.311711695 -0.110724126 0 229 255
3.958471860 -17.408458136 -0.098271021 0 229 255
3.952177513 -17.505171787 -0.084060495 0 230 252
3.948644685 -17.602010106 -0.077517768 0 230 252
3.949715099 -17.699062820 -0.083757655 0 230 252
3.953163534 -17.796229809 -0.096600588 0 229 255
3.955936282 -17.893367965 -0.107566045 0 229 255
3.957932129 -17.990471638 -0.116372907 0 229 255
3.960295270 -18.087595458 -0.126198784 0 229 255
3.960914054 -18.184636562 -0.131179221 0 229 255
3.957362865 -18.281473368 -0.124577705 0 229 255
3.950723192 -18.378154802 -0.109397607 0 229 255
3.944211903 -18.474838354 -0.094572798 0 229 255
3.942029849 -18.571736100 -0.091770097 0 229 255
3.946997134 -18.668996377 -0.108821842 0 229 255
3.953427269 -18.766336181 -0.129935377 0 229 255
3.955094962 -18.863435972 -0.137821325 0 229 255
3.952925507 -18.960338364 -0.135049310 0 229 255
3.951230086 -19.057264705 -0.133592698 0 229 255
3.951808563 -19.154310489 -0.138450321 0 229 255
3.951834919 -19.251328171 -0.141773450 0 229 255
3.949674860 -19.348229647 -0.139023042 0 229 255
3.947163484 -19.445111318 -0.135295755 0 229 255
3.944807155 -19.542000270 -0.131997942 0 229 255
3.940432530 -19.638777858 -0.123093378 0 229 255
3.934643242 -19.735474993 -0.110258510 0 229 255
3.930540482 -19.832261975 -0.102106608 0 229 255
3.928961745 -19.929187499 -0.100963830 0 229 255
3.928695520 -20.026186376 -0.103465364 0 229 255
3.927438507 -20.123129769 -0.103213930 0 229 255
3.924730427 -20.219990313 -0.098931072 0 229 255
3.924706696 -20.317003544 -0.102102818 0 229 255
3.926627881 -20.414129857 -0.110675490 0 229 255
3.928983903 -20.511283714 -0.120454903 0 229 255
3.927715600 -20.608228105 -0.120166618 0 229 255
3.921440224 -20.704877415 -0.105969847 0 229 255
3.916528847 -20.801603556 -0.095560412 0 229 255
3.914795131 -20.898516311 -0.093975947 0 229 255
3.914183633 -20.995495914 -0.095507405 0 229 255
3.912438245 -21.092407316 -0.093888277 0 229 255
3.910429298 -21.189302141 -0.091535954 0 229 255
3.909362874 -21.286253899 -0.091800470 0 229 255
3.915309601 -21.383637535 -0.111543878 0 229 255
3.909609585 -21.480304795 -0.098935759 0 229 255
3.904012560 -21.576974891 -0.086612478 0 229 255
3.900491990 -21.673771752 -0.080055693 0 230 252
3.901087100 -21.770826487 -0.084929828 0 229 255
3.905847203 -21.868146972 -0.101372021 0 229 255
3.910827166 -21.965485953 -0.118423972 0 229 255
3.910183689 -22.062468115 -0.119854558 0 229 255
3.903352157 -22.159050472 -0.104095197 0 229 255
3.894994384 -22.255529105 -0.084095038 0 230 252
3.888791377 -22.352143089 -0.070079027 0 230 252
3.885041068 -22.448914512 -0.062874838 0 230 252
3.883854087 -22.545853524 -0.062789881 0 230 252
3.885640379 -22.642990372 -0.070963010 0 230 252
3.887346070 -22.740123989 -0.078911208 0 230 252
3.886598009 -22.837094459 -0.080042241 0 230 252
3.885186406 -22.934020206 -0.079328947 0 230 252
3.883426126 -23.030921913 -0.077645957 0 230 252
3.879119404 -23.127648633 -0.068888124 0 230 252
3.872840390 -23.224236982 -0.054650277 0 230 252
3.866923158 -23.320846360 -0.041416176 0 230 252
3.862167404 -23.417532885 -0.031407329 0 230 252
3.859102058 -23.514334937 -0.026093116 0 230 252
3.857531109 -23.611240663 -0.024929097 0 230 252
3.856971656 -23.708217593 -0.026573853 0 230 252
3.858326441 -23.805331158 -0.033535216 0 230 252
3.862395367 -23.902640813 -0.048035388 0 230 252
3.866468000 -23.999954656 -0.062544884 0 230 252
3.865737236 -24.096924944 -0.063709500 0 230 252
3.862059951 -24.193681182 -0.056687497 0 230 252
3.859405023 -24.290510132 -0.052504462 0 230 252
3.857106324 -24.387364016 -0.049309903 0 230 252
3.852930425 -24.484078248 -0.040899207 0 230 252
3.847634546 -24.580706896 -0.029375923 0 230 252
3.845256786 -24.677550091 -0.025958229 0 230 252
3.848019135 -24.774777914 -0.036819175 0 230 252
3.853758770 -24.872233181 -0.055950380 0 230 252
3.856297296 -24.969451016 -0.066187541 0 230 252
3.854054566 -25.066307353 -0.063140647 0 230 252
3.851321071 -25.163125185 -0.058729188 0 230 252
3.850154948 -25.260062321 -0.058671009 0 230 252
3.848930756 -25.356994866 -0.058450392 0 230 252
3.846263932 -25.453815146 -0.054220738 0 230 252
3.841013106 -25.550432354 -0.042811015 0 230 252
3.836889232 -25.647134773 -0.034531000 0 230 252
3.838043151 -25.744251085 -0.040912791 0 230 252
3.841485811 -25.841550475 -0.053652241 0 230 252
3.843399051 -25.938731503 -0.062141559 0 230 252
3.842842395 -26.035717146 -0.063767780 0 230 252
3.841094280 -26.132607354 -0.062082676 0 230 252
3.838976924 -26.229467182 -0.059370580 0 230 252
3.836250186 -26.326276710 -0.054964289 0 230 252
3.830781397 -26.422861295 -0.042938499 0 230 252
3.823791476 -26.519317824 -0.026685246 0 230 252
3.817893232 -26.615859653 -0.013463800 0 230 252
3.814790112 -26.712628941 -0.008007025 0 230 252
3.815247939 -26.809692547 -0.012442792 0 230 252
3.816581645 -26.906830422 -0.019311037 0 230 252
3.819831033 -27.004130778 -0.031500801 0 230 252
3.824920799 -27.101589482 -0.048802938 0 230 252
3.829125974 -27.198978026 -0.063646346 0 230 252
3.829244829 -27.296023182 -0.067135115 0 230 252
3.824315459 -27.392638088 -0.056596461 0 230 252
3.815982997 -27.488958059 -0.036601155 0 230 252
3.809984827 -27.585473573 -0.023090372 0 230 252
3.808513940 -27.682377139 -0.022157457 0 230 252
3.808232948 -27.779383821 -0.024529578 0 230 252
3.808719073 -27.876458072 -0.029032075 0 230 252
3.817105388 -27.974226413 -0.055484591 0 230 252
3.814634886 -28.071045580 -0.051769880 0 230 252
3.810604563 -28.167725636 -0.043719937 0 230 252
3.808542238 -28.264578271 -0.041137073 0 230 252
3.810169541 -28.361759404 -0.048805093 0 230 252
3.811804017 -28.458943228 -0.056492008 0 230 252
3.809506322 -28.555775150 -0.053251832 0 230 252
3.806293067 -28.652523336 -0.047466497 0 230 252
3.803927557 -28.749346811 -0.044035591 0 230 252
3.799998383 -28.846026708 -0.036258634 0 230 252
3.794067858 -28.942521153 -0.022919367 0 230 252
3.790096086 -29.039191919 -0.015021648 0 230 252
3.788491478 -29.136078968 -0.013700409 0 230 252
3.787696089 -29.233040599 -0.014626649 0 230 252
3.787591837 -29.330066754 -0.017472278 0 230 252
3.789541578 -29.427285622 -0.026024363 0 230 252
3.793278286 -29.524674508 -0.039540987 0 230 252
3.796473238 -29.622016007 -0.051551210 0 230 252
3.798295264 -29.719230843 -0.059745364 0 230 252
3.800465416 -29.816480954 -0.068905863 0 230 252
3.802974239 -29.913765838 -0.079006448 0 230 252
3.804868646 -30.010994599 -0.087398660 0 229 255
3.805518070 -30.108105891 -0.092330230 0 229 255
3.803197279 -30.204931707 -0.089006925 0 229 255
3.798709146 -30.301546449 -0.079659713 0 230 252
3.794256284 -30.398161971 -0.070409317 0 230 252
3.788178841 -30.494616141 -0.056643172 0 230 252
3.779552383 -30.590816413 -0.035792298 0 230 252
3.771127787 -30.687030729 -0.015501071 0 230 252
3.767415684 -30.783705221 -0.008304278 0 230 252
3.767866653 -30.880790801 -0.012675294 0 230 252
3.766429385 -30.977689411 -0.011797892 0 230 252
3.762102691 -31.074298746 -0.002889716 0 230 252
3.758861678 -31.171014547 0.003002550 0 230 252
3.759991476 -31.268169134 -0.003250532 0 230 252
3.761661018 -31.365379990 -0.011002528 0 230 252
3.759093922 -31.462162712 -0.006979727 0 230 252
3.755362258 -31.558825553 0.000280607 0 230 252
3.752953376 -31.655621663 0.003866029 0 230 252
3.751956267 -31.752561709 0.003529171 0 230 252
3.750931812 -31.849498967 0.003269414 0 230 252
3.750036941 -31.946449644 0.002650632 0 230 252
3.749703561 -32.043458744 0.000472507 0 230 252
3.749845502 -32.140517931 -0.003025510 0 230 252
3.750625263 -32.237644757 -0.008295044 0 230 252
3.751911673 -32.334826182 -0.014971578 0 230 252
3.752265796 -32.431911140 -0.019056090 0 230 252
3.749795612 -32.528698427 -0.015290269 0 230 252
3.744786859 -32.625215119 -0.004468131 0 230 252
3.740672694 -32.721824071 0.003868972 0 230 252
3.740130401 -32.818812595 0.002280241 0 230 252
3.742328403 -32.916095570 -0.006923322 0 230 252
3.744454003 -33.013373236 -0.015924644 0 230 252
3.745529853 -33.110539876 -0.022007415 0 230 252
3.746097320 -33.207653000 -0.026676201 0 230 252
3.745723955 -33.304664949 -0.028729085 0 230 252
3.743673949 -33.401494260 -0.026120992 0 230 252
3.740825661 -33.498235286 -0.021293087 0 230 252
3.739191539 -33.595108485 -0.019838597 0 230 252
3.740046720 -33.692256018 -0.025301609 0 230 252
3.742753569 -33.789610124 -0.035910010 0 230 252
3.745510313 -33.886972657 -0.046656087 0 230 252
3.747422039 -33.984243854 -0.055052530 0 230 252
3.746232747 -34.081170231 -0.054828995 0 230 252
3.740506188 -34.177586904 -0.041993433 0 230 252
3.733593388 -34.273866287 -0.025859578 0 230 252
3.728441067 -34.370340230 -0.014617599 0 230 252
3.724569822 -34.466956368 -0.006935091 0 230 252
3.721858822 -34.563702421 -0.002476261 0 230 252
3.722330363 -34.660810745 -0.006862075 0 230 252
3.726585034 -34.758353849 -0.021761993 0 230 252
3.735299452 -34.856413912 -0.049056824 0 230 252
3.748330763 -34.954979597 -0.088349682 0 229 255
3.567713384 -47.356433284 0.029593934 0 230 252
-14.301331181 -47.664201535 49.631507940 255 2 164
-14.377960348 -47.740754118 49.842018460 255 0 168
-14.389185144 -47.828963564 49.870591225 255 0 168
-14.398538798 -47.917500974 49.893960210 255 0 168
-14.400143497 -48.007425854 49.895774366 255 0 168
-14.397001959 -48.098205844 49.884386420 255 0 168
-14.394237226 -48.188920910 49.874047654 255 0 168
-14.393935286 -48.279192962 49.870560998 255 0 168
-14.395138844 -48.369192837 49.871263482 255 0 168
-14.395823397 -48.459286875 49.870523248 255 0 168
-14.395776080 -48.549514460 49.867748102 255 0 168
-14.395664282 -48.639754583 49.864794628 255 0 168
-14.396178357 -48.729881005 49.863583340 255 0 168
-14.398429809 -48.819689208 49.867206387 255 0 168
-14.403418473 -48.908993477 49.878445329 255 0 168
-14.409255020 -48.998138518 49.892044239 255 0 168
-14.410749894 -49.088080865 49.893565939 255 0 168
-14.408457051 -49.178723111 49.884551351 255 0 168
-14.406522647 -49.269301440 49.876534936 255 0 168
-14.405376290 -49.359735676 49.870711880 255 0 168
-14.402986779 -49.450402808 49.861431360 255 0 168
-14.400844920 -49.541026339 49.852840808 255 0 168
-14.402380202 -49.630965290 49.854481264 255 0 168
-14.406301187 -49.720457177 49.862760004 255 0 168
-14.410604330 -49.809875084 49.872103099 255 0 168
-14.415018868 -49.899269465 49.881757276 255 0 168
-14.417862344 -49.988957097 49.887041761 255 0 168
-14.417197420 -50.079305453 49.882566579 255 0 168
-14.414053830 -50.170123835 49.871196445 255 0 168
-14.411955056 -50.260747358 49.862734114 255 0 168
-14.413281675 -50.350722749 49.863802782 255 0 168
-14.416582295 -50.440322226 49.870364562 255 0 168
-14.418600503 -50.530164404 49.873359571 255 0 168
-14.418718200 -50.620368854 49.871068076 255 0 168
-14.419500863 -50.710446641 49.870627720 255 0 168
-14.420963080 -50.800394197 49.872079114 255 0 168
-14.422004649 -50.890422207 49.872361257 255 0 168
-14.423009574 -50.980457198 49.872542525 255 0 168
-14.424549142 -51.070388968 49.874212398 255 0 168
-14.425458540 -51.160442132 49.874130051 255 0 168
-14.425033859 -51.250753798 49.870336977 255 0 168
-14.425244868 -51.340943109 49.868313631 255 0 168
-14.428009913 -51.430636174 49.873397503 255 0 168
-14.432825545 -51.519928168 49.884187931 255 0 168
-14.437303900 -51.609283045 49.894041118 255 0 168
-14.439613378 -51.699059594 49.897860869 255 0 168
-14.440281246 -51.789156945 49.897114152 255 0 168
-14.441004331 -51.879243660 49.896522143 255 0 168
-14.443700902 -51.968942103 49.901422244 255 0 168
-14.447736049 -52.058375207 49.910047952 255 0 168
-14.448784369 -52.148396128 49.910364171 255 0 168
-14.444582794 -52.239456371 49.896073916 255 0 168
-14.438875265 -52.330819315 49.877594343 255 0 168
-14.435095880 -52.421804151 49.864480676 255 0 168
-14.435745517 -52.511910623 49.863691661 255 0 168
-14.440638050 -52.601170750 49.874709575 255 0 168
-14.444348278 -52.690664191 49.882438890 255 0 168
-14.443220674 -52.781124501 49.876707954 255 0 168
-14.438151001 -52.872377508 49.860009069 255 0 168
-14.432032394 -52.963846053 49.840392381 255 0 168
-14.429100435 -53.054678079 49.829643647 255 0 168
-14.432056086 -53.144324747 49.835278640 255 0 168
-14.438780808 -53.233207671 49.851402566 255 0 168
-14.445003530 -53.322187849 49.866130853 255 0 168
-14.446553182 -53.412112560 49.867856968 255 0 168
-14.442150321 -53.503247416 49.853020498 255 0 168
-14.435738719 -53.594795697 49.832595340 255 0 168
-14.434040531 -53.685387404 49.825286900 255 0 168
-14.438988389 -53.774621801 49.836473261 255 0 168
-14.445125800 -53.863609347 49.850970961 255 0 168
-14.447188138 -53.953429522 49.854130157 255 0 168
-14.446985438 -54.043714727 49.850987502 255 0 168
-14.446701696 -54.134017514 49.847620371 255 0 168
-14.445771357 -54.224454741 49.842454968 255 0 168
-14.443801324 -54.315108465 49.834397371 255 0 168
-14.442358917 -54.405655091 49.827809036 255 0 168
-14.444830970 -54.495390847 49.832114809 255 0 168
-14.453545423 -54.583826994 49.853793035 255 0 168
-14.462432969 -54.672221081 49.875954231 255 0 168
-14.469878800 -54.760910033 49.894104675 255 0 168
-14.470286471 -54.851066053 49.892670309 255 0 168
-14.466136763 -54.942177447 49.878554487 255 0 168
-14.462387833 -55.033208628 49.865554917 255 0 168
-14.461606590 -55.123619279 49.860815007 255 0 168
-14.465958360 -55.212949737 49.870360746 255 0 168
-14.463385193 -55.303739307 49.860636205 255 0 168
-14.462125484 -55.394253827 49.854567890 255 0 168
-14.465856269 -55.483712783 49.862388798 255 0 168
-14.467887493 -55.573530302 49.865481067 255 0 168
-14.476171263 -55.662017532 49.885975027 255 0 168
-14.483302586 -55.750744585 49.903263025 255 0 168
-14.487254548 -55.840145325 49.911704148 255 0 168
-14.486098952 -55.930635641 49.905932085 255 0 168
-14.482072632 -56.021742381 49.892171774 255 0 168
-14.477635738 -56.112941037 49.877269763 255 0 168
-14.476862560 -56.203356367 49.872564953 255 0 168
-14.503697476 -56.287828383 49.944695996 255 0 168
3.388434863 -61.016287091 0.125683705 0 230 249
3.476888313 -61.132834046 -0.123270579 0 229 255
3.459237894 -61.226134799 -0.076927116 0 230 252
3.444228124 -61.320004011 -0.037931391 0 230 252
3.441211884 -61.416507146 -0.032313875 0 230 252
3.442190094 -61.513891109 -0.037812386 0 230 252
3.440977344 -61.610791802 -0.037212065 0 230 252
3.435233273 -61.706687907 -0.023999178 0 230 252
3.425764110 -61.801753209 -0.000417441 0 230 252
3.425427967 -61.898843540 -0.002253467 0 230 252
3.420260108 -61.994857783 0.009359291 0 230 252
3.419326400 -62.091813939 0.009188619 0 230 252
3.422786145 -62.189752525 -0.003209029 0 230 252
3.429008036 -62.288313242 -0.023293478 0 230 252
3.426580916 -62.384939002 -0.019304494 0 230 252
3.430090257 -62.482897917 -0.031837248 0 230 252
3.430510207 -62.580164794 -0.035770349 0 230 252
3.427684773 -62.676700878 -0.030669499 0 230 252
3.430204140 -62.774443017 -0.040443826 0 230 252
3.423380779 -62.870073681 -0.024213211 0 230 252
3.415150769 -62.965381015 -0.004066164 0 230 252
3.407743904 -63.060869704 0.013791042 0 230 252
3.404750027 -63.157357217 0.019366489 0 230 252
3.409032795 -63.255501105 0.004689334 0 230 252
3.416538829 -63.354384715 -0.018958527 0 230 252
3.419597528 -63.452258207 -0.030226752 0 230 252
3.416416263 -63.548705934 -0.024125505 0 230 252
3.414159384 -63.645364036 -0.020596100 0 230 252
3.417393525 -63.743282840 -0.032349588 0 230 252
3.422814306 -63.841708191 -0.050188552 0 230 252
3.422439689 -63.938802460 -0.051895222 0 230 252
3.412318717 -64.033646575 -0.026471903 0 230 252
3.400632910 -64.128121715 0.003308465 0 230 252
3.396727258 -64.224391253 0.011433969 0 230 252
3.399644368 -64.322241997 0.000569237 0 230 252
3.403492370 -64.420312184 -0.012885699 0 230 252
3.406360285 -64.518157918 -0.023611556 0 230 252
3.408712279 -64.615886324 -0.032900330 0 230 252
3.409843750 -64.713332194 -0.038790684 0 230 252
3.409921351 -64.810533115 -0.041746461 0 230 252
3.408449098 -64.907371610 -0.040386995 0 230 252
3.404282700 -65.003577229 -0.031526946 0 230 252
3.398784557 -65.099467245 -0.018958640 0 230 252
3.396393105 -65.196085597 -0.015037084 0 230 252
3.398747351 -65.293822584 -0.024324849 0 230 252
3.401873580 -65.391744616 -0.035760580 0 230 252
3.403064359 -65.489211712 -0.041807643 0 230 252
3.401787491 -65.586095453 -0.040984486 0 230 252
3.398022289 -65.682388069 -0.033233424 0 230 252
3.392977663 -65.778374239 -0.021919636 0 230 252
3.388180032 -65.874416156 -0.011292238 0 230 252
3.383429569 -65.970466418 -0.000794968 0 230 252
3.378944919 -66.066577341 0.008963517 0 230 252
3.376365982 -66.163141840 0.013418075 0 230 252
3.376849974 -66.260439615 0.009347180 0 230 252
3.378900474 -66.358114799 0.000916461 0 230 252
3.378899643 -66.455298873 -0.001802718 0 230 252
3.375512713 -66.551667848 0.004905500 0 230 252
3.371766120 -66.647948200 0.012616103 0 230 252
3.370802491 -66.744899160 0.012580465 0 230 252
3.372433969 -66.842478468 0.005321444 0 230 252
3.374806991 -66.940239645 -0.004000942 0 230 252
3.376388439 -67.037811185 -0.011118678 0 230 252
3.377285334 -67.135218205 -0.016329670 0 230 252
3.377672840 -67.232502593 -0.020121532 0 230 252
3.377431951 -67.329634716 -0.022162939 0 230 252
3.377328441 -67.426801021 -0.024585748 0 230 252
3.378460413 -67.524270496 -0.030447050 0 230 252
3.380781535 -67.622033208 -0.039617901 0 230 252
3.382279791 -67.719596419 -0.046496909 0 230 252
3.381343730 -67.816562810 -0.046597755 0 230 252
3.378189339 -67.912982773 -0.040521647 0 230 252
3.374878792 -68.009362561 -0.034009666 0 230 252
3.374053982 -68.106354873 -0.034416959 0 230 252
3.375588497 -68.203931296 -0.041391681 0 230 252
3.377021270 -68.301484472 -0.048082142 0 230 252
3.376924925 -68.398659886 -0.050514392 0 230 252
3.376364184 -68.495720533 -0.051652668 0 230 252
3.376691883 -68.593002806 -0.055263401 0 230 252
3.377062003 -68.690296701 -0.058991196 0 230 252
3.376054274 -68.787247446 -0.058881831 0 230 252
3.373531692 -68.883819165 -0.054553814 0 230 252
3.369602697 -68.980037279 -0.046308995 0 230 252
3.365592953 -69.076232882 -0.037838207 0 230 252
3.363749055 -69.172970607 -0.035396395 0 230 252
3.362121480 -69.269762157 -0.033555776 0 230 252
3.358747520 -69.366112900 -0.026851749 0 230 252
3.354949165 -69.462354655 -0.018964975 0 230 252
3.353259875 -69.559127677 -0.016949206 0 230 252
3.354768815 -69.656710294 -0.023837037 0 230 252
3.357686811 -69.754652320 -0.034647055 0 230 252
3.358332355 -69.852020019 -0.039128953 0 230 252
3.356306124 -69.948709147 -0.036170809 0 230 252
3.354867881 -70.045547344 -0.034848705 0 230 252
3.355494953 -70.142912346 -0.039276019 0 230 252
3.354630663 -70.239897402 -0.039549851 0 230 252
3.347664502 -70.335320488 -0.022832881 0 230 252
3.337492984 -70.429917168 0.002810190 0 230 252
3.328258772 -70.524747459 0.025844765 0 230 252
3.331517911 -70.622784190 0.014094294 0 230 252
3.329591551 -70.719488721 0.016783290 0 230 252
3.331447551 -70.817168140 0.008941723 0 230 252
3.327327588 -70.913306081 0.017740790 0 230 252
3.331280363 -71.011530072 0.004062953 0 230 252
3.331952015 -71.108907795 -0.000477810 0 230 252
3.330896690 -71.205838712 -0.000208834 0 230 252
3.330569420 -71.302958794 -0.001966041 0 230 252
3.334436353 -71.401170937 -0.015400922 0 230 252
3.337361707 -71.499141443 -0.026213026 0 230 252
3.335499896 -71.595865449 -0.023694213 0 230 252
3.331696143 -71.692081166 -0.015766904 0 230 252
3.328594757 -71.788478605 -0.009794226 0 230 252
3.334340696 -71.887194004 -0.028456313 0 230 252
3.331636050 -71.983695806 -0.023586249 0 230 252
3.331852023 -72.080964279 -0.026847782 0 230 252
3.325547884 -72.176516725 -0.011952387 0 230 252
3.333950638 -72.275943613 -0.038008754 0 230 252
3.329953941 -72.372102981 -0.029536494 0 230 252
3.326295962 -72.468349635 -0.022006290 0 230 252
3.326719118 -72.565675258 -0.025839481 0 230 252
3.331875755 -72.664257622 -0.042852786 0 230 252
3.330138758 -72.761013442 -0.040668647 0 230 252
3.333450038 -72.859111737 -0.052541299 0 230 252
3.331778013 -72.955885699 -0.050535976 0 230 252
3.327511957 -73.051967037 -0.041305928 0 230 252
3.329489576 -73.149714151 -0.049461665 0 230 252
3.323726971 -73.245392426 -0.036061888 0 230 252
3.319552423 -73.341492583 -0.027083269 0 230 252
3.319445563 -73.438681880 -0.029431060 0 230 252
3.320567150 -73.536202010 -0.035198764 0 230 252
3.317987183 -73.632727600 -0.030657388 0 230 252
3.314146894 -73.728912306 -0.022605149 0 230 252
3.312133579 -73.825587926 -0.019639563 0 230 252
3.314429349 -73.923427453 -0.028672965 0 230 252
3.316291545 -74.021152177 -0.036497947 0 230 252
3.313750746 -74.117685657 -0.032060214 0 230 252
3.311176450 -74.214208862 -0.027528088 0 230 252
3.307211810 -74.310352924 -0.019122907 0 230 252
3.301939865 -74.406138835 -0.007075868 0 230 252
3.296646819 -74.501915703 0.005031115 0 230 252
3.291651158 -74.597770446 0.016311085 0 230 252
3.287846397 -74.693947671 0.024275643 0 230 252
3.287954189 -74.791193838 0.021345073 0 230 252
3.289876125 -74.888938208 0.013363216 0 230 252
3.288146047 -74.985682245 0.015553122 0 230 252
3.270579737 -76.925254069 0.012131927 0 230 252
3.263792803 -79.548691983 -0.038966819 0 230 252
3.192938467 -86.432390038 -0.022014512 0 230 252
3.145515446 -88.654256541 0.052810568 0 230 252
3.161133154 -89.632209031 -0.015467792 0 230 252
3.093332334 -94.960003305 0.039209345 0 230 252
3.096361083 -95.058377173 0.028353234 0 230 252
3.095315370 -95.155307927 0.028856344 0 230 252
3.092354118 -95.251557959 0.034700424 0 230 252
3.092765655 -95.349006181 0.031143261 0 230 252
3.096569229 -95.447663363 0.018131066 0 230 252
3.101649996 -95.546779526 0.001559318 0 230 252
3.104670399 -95.645165060 -0.009267785 0 230 252
3.103706214 -95.742130116 -0.008985899 0 230 252
3.099408881 -95.837903057 0.000589070 0 230 252
3.093802987 -95.933204888 0.013813140 0 230 252
3.088355951 -96.028560049 0.026595505 0 230 252
3.084437246 -96.124460105 0.035118333 0 230 252
3.083180077 -96.221313874 0.036222392 0 230 252
3.084372800 -96.319048344 0.030497612 0 230 252
3.086753520 -96.417212111 0.021461862 0 230 252
3.087779773 -96.514890354 0.016203124 0 230 252
3.085029733 -96.611207837 0.021473190 0 230 252
3.080930600 -96.707036716 0.030505449 0 230 252
3.079592290 -96.803861243 0.031841939 0 230 252
3.080458531 -96.901483304 0.027033389 0 230 252
3.080937127 -96.998966320 0.023306550 0 230 252
3.079323656 -97.095691680 0.025413258 0 230 252
3.077243011 -97.192246899 0.028823475 0 230 252
3.076800896 -97.289396767 0.027666601 0 230 252
3.076822507 -97.386715742 0.025217892 0 230 252
3.075653471 -97.483601789 0.026089701 0 230 252
3.075439608 -97.580835928 0.024299530 0 230 252
3.078372038 -97.679219036 0.013738474 0 230 252
3.083680847 -97.778473447 -0.003447051 0 230 252
3.088276101 -97.877471690 -0.018642285 0 230 252
3.090002467 -97.975423725 -0.025838020 0 230 252
3.090262981 -98.072840508 -0.028945901 0 230 252
3.091189607 -98.170502639 -0.033909954 0 230 252
3.093488047 -98.268670115 -0.042697755 0 230 252
3.095620954 -98.366779224 -0.051023085 0 230 252
3.094948612 -98.463858089 -0.051526106 0 230 252
3.088602646 -98.558846490 -0.036209312 0 230 252
3.078768983 -98.652544171 -0.011167157 0 230 252
3.071460708 -98.747167492 0.006835092 0 230 252
3.069163080 -98.843638060 0.010868023 0 230 252
3.069322676 -98.941016833 0.008050840 0 230 252
3.067142347 -99.037529685 0.011758822 0 230 252
3.062879263 -99.133269258 0.021275015 0 230 252
3.061129338 -99.229939131 0.023785091 0 230 252
3.063035797 -99.327967027 0.016101382 0 230 252
3.063562659 -99.425483945 0.012265284 0 230 252
3.061509579 -99.522041323 0.015623717 0 230 252
3.059412740 -99.618581516 0.019105224 0 230 252
3.058824643 -99.715683768 0.018380996 0 230 252
3.059772539 -99.813360008 0.013374988 0 230 252
3.062729163 -99.911788780 0.002769012 0 230 252
3.065496854 -100.010149842 -0.007309229 0 230 252
3.064374079 -100.107056069 -0.006538614 0 230 252
3.058943981 -100.202346593 0.006243338 0 230 252
3.050708119 -100.296580181 0.026849916 0 230 252
3.048829370 -100.393197395 0.029731717 0 230 252
3.045600851 -100.489306042 0.036378252 0 230 252
3.046938169 -100.587132486 0.030294510 0 230 252
3.059438971 -100.689169389 -0.006916634 0 230 252
3.067018972 -100.789359608 -0.030405816 0 230 252
3.067606627 -100.886914833 -0.034396478 0 230 252
3.064371973 -100.983025747 -0.027727840 0 230 252
3.061454861 -101.079255077 -0.021943567 0 230 252
3.058990432 -101.175654401 -0.017420509 0 230 252
3.058317090 -101.272731942 -0.017890805 0 230 252
3.058656323 -101.370194166 -0.021183643 0 230 252
3.057689566 -101.467160950 -0.020833713 0 230 252
3.053545967 -101.562918933 -0.011624052 0 230 252
3.047628148 -101.657998653 0.002534201 0 230 252
3.042099212 -101.753222768 0.015609191 0 230 252
3.042283265 -101.850623695 0.012754292 0 230 252
3.036944573 -101.945915558 0.025300990 0 230 252
3.036204304 -102.042962562 0.025025718 0 230 252
3.040437517 -102.141913630 0.010882403 0 230 252
3.043356629 -102.240365118 0.000404506 0 230 252
3.042283743 -102.337288282 0.001059736 0 230 252
3.039462038 -102.433539815 0.006592821 0 230 252
3.037587148 -102.530153792 0.009486647 0 230 252
3.039766999 -102.628327095 0.001074205 0 230 252
3.044007892 -102.727296584 -0.013084877 0 230 252
3.047043770 -102.825805497 -0.023882648 0 230 252
3.046441039 -102.922913276 -0.024532486 0 230 252
3.041608791 -103.018387423 -0.013386382 0 230 252
3.034887028 -103.113127877 0.003030200 0 230 252
3.027301136 -103.207529344 0.021857789 0 230 252
3.020175128 -103.302103828 0.039404072 0 230 252
3.016974211 -103.398195846 0.046005365 0 230 252
3.018186923 -103.495999628 0.040299097 0 230 252
3.021162956 -103.594490326 0.029676258 0 230 252
3.024927965 -103.693290954 0.016854045 0 230 252
3.028624157 -103.792068403 0.004224657 0 230 252
3.031269490 -103.890439807 -0.005473156 0 230 252
3.034634260 -103.989094669 -0.017176436 0 230 252
3.039363037 -104.088285569 -0.032682819 0 230 252
3.043487642 -104.187244634 -0.046503366 0 230 252
3.043732565 -104.284689328 -0.049503036 0 230 252
3.037139356 -104.379456244 -0.033430868 0 230 252
3.024916089 -104.472011135 -0.001655811 0 230 252
3.013485989 -104.564868575 0.027908479 0 230 252
3.010346550 -104.660975152 0.034351948 0 230 252
3.016233254 -104.760629747 0.015623055 0 230 252
3.022270434 -104.860348840 -0.003524660 0 230 252
3.025664992 -104.959031984 -0.015301328 0 230 252
3.028566067 -105.057523809 -0.025700764 0 230 252
3.031227439 -105.155923937 -0.035430744 0 230 252
3.032039378 -105.253595907 -0.040001702 0 230 252
3.030577435 -105.350369656 -0.038229768 0 230 252
3.028322176 -105.446828826 -0.034244214 0 230 252
3.025342276 -105.542999714 -0.028236540 0 230 252
3.022450794 -105.639204069 -0.022474395 0 230 252
3.020966404 -105.735965704 -0.020635666 0 230 252
3.019519020 -105.832741594 -0.018899110 0 230 252
3.015746549 -105.928591849 -0.010676618 0 230 252
3.009977908 -106.023644777 0.003114513 0 230 252
3.005395340 -106.119166813 0.013598682 0 230 252
3.004899909 -106.216317112 0.012684370 0 230 252
3.007794666 -106.314822010 0.002315321 0 230 252
3.011564250 -106.413679653 -0.010492843 0 230 252
3.013705146 -106.511889029 -0.018757403 0 230 252
3.013365761 -106.609107064 -0.020103047 0 230 252
3.011912759 -106.705878940 -0.018341582 0 230 252
3.011517938 -106.803075146 -0.019530576 0 230 252
3.012427031 -106.900795647 -0.024355478 0 230 252
3.011950797 -106.997960383 -0.025315398 0 230 252
3.009045725 -107.094147652 -0.019499659 0 230 252
3.005891556 -107.190232982 -0.012988054 0 230 252
3.005116299 -107.287276087 -0.013110822 0 230 252
3.008056934 -107.385819520 -0.023597286 0 230 252
3.013711207 -107.485462567 -0.041651991 0 230 252
3.018478033 -107.584751700 -0.057230471 0 230 252
3.017958404 -107.681904734 -0.058062410 0 230 252
3.013150959 -107.777320256 -0.046933146 0 230 252
3.009747282 -107.873302211 -0.039718375 0 230 252
3.009278561 -107.970473986 -0.040689199 0 230 252
3.010054501 -108.068151975 -0.045130846 0 230 252
3.009654250 -108.165352732 -0.046290663 0 230 252
3.005294130 -108.260941307 -0.036403784 0 230 252
2.998986515 -108.355733365 -0.021083419 0 230 252
2.995934396 -108.451849457 -0.014842886 0 230 252
2.997471328 -108.549837976 -0.021402190 0 230 252
2.999780298 -108.648143958 -0.030114103 0 230 252
2.998666647 -108.745052005 -0.029277783 0 230 252
2.997365159 -108.841882942 -0.027916472 0 230 252
2.998179190 -108.939580781 -0.032455365 0 230 252
2.998890263 -109.037237686 -0.036706084 0 230 252
2.997450429 -109.134012418 -0.034955826 0 230 252
2.995752832 -109.230680747 -0.032485501 0 230 252
2.996994035 -109.328557721 -0.038212060 0 230 252
3.000253329 -109.427267537 -0.049567240 0 230 252
3.001103014 -109.524987167 -0.054199735 0 230 252
2.997251939 -109.620768361 -0.045718089 0 230 252
2.990570100 -109.715378034 -0.029338658 0 230 252
2.983533888 -109.809836697 -0.011969500 0 230 252
2.977263461 -109.904607475 0.003264577 0 230 252
2.973928419 -110.000589908 0.010311149 0 230 252
2.974379617 -110.098140164 0.006796514 0 230 252
2.978248976 -110.197109900 -0.006252650 0 230 252
2.983499899 -110.296657165 -0.023155039 0 230 252
2.986911556 -110.395444497 -0.034925590 0 230 252
2.986442223 -110.492620116 -0.035868441 0 230 252
2.984202024 -110.589058431 -0.031870082 0 230 252
2.982870430 -110.685874494 -0.030405433 0 230 252
2.983514424 -110.783514615 -0.034451134 0 230 252
2.985757479 -110.881823819 -0.042956840 0 230 252
2.988635932 -110.980401081 -0.053234225 0 230 252
2.991291722 -111.078888069 -0.062889510 0 230 252
2.991719491 -111.176444575 -0.066328166 0 230 252
2.987927517 -111.272232994 -0.057993600 0 230 252
2.984698368 -111.368255320 -0.051228124 0 230 252
2.982902410 -111.464877776 -0.048459931 0 230 252
2.982865699 -111.562239104 -0.050598720 0 230 252
2.985032971 -111.660528490 -0.058885306 0 230 252
2.988959593 -111.759561226 -0.072079305 0 230 252
2.992421916 -111.858401943 -0.083977079 0 230 252
2.991960998 -111.955590582 -0.084928539 0 229 255
2.988275594 -112.051417692 -0.076882997 0 230 252
2.984020739 -112.147001887 -0.067247652 0 230 252
2.979154532 -112.242324776 -0.055905584 0 230 252
2.973170745 -112.337171255 -0.041444420 0 230 252
2.967202560 -112.432020373 -0.027025646 0 230 252
2.964544544 -112.528269970 -0.021840991 0 230 252
2.964721166 -112.625721952 -0.024563864 0 230 252
2.964904197 -112.723177460 -0.027303636 0 230 252
2.966765201 -112.821347657 -0.034723975 0 230 252
2.968957392 -112.919660990 -0.043067394 0 230 252
2.970411707 -113.017662189 -0.049351186 0 230 252
2.973563447 -113.116389313 -0.060369915 0 230 252
2.978035165 -113.215683167 -0.075070549 0 230 252
2.980554485 -113.314146728 -0.084322985 0 230 252
2.979305993 -113.411001143 -0.083062002 0 230 252
2.978074869 -113.507862686 -0.081848456 0 230 252
2.979538728 -113.605878860 -0.088153183 0 229 255
2.980234490 -113.703567365 -0.092313880 0 229 255
2.977791537 -113.799909549 -0.087716181 0 229 255
2.973239108 -113.895344033 -0.077231694 0 230 252
2.969486701 -113.991119732 -0.068978291 0 230 252
2.968873357 -114.088244500 -0.069482325 0 230 252
2.970096732 -114.186160842 -0.075110142 0 230 252
2.969747139 -114.283400430 -0.076348115 0 230 252
2.967516853 -114.379828603 -0.072337571 0 230 252
2.965965756 -114.476549136 -0.070221073 0 230 252
2.965504392 -114.573740349 -0.071144160 0 230 252
2.963085861 -114.670084772 -0.066605276 0 230 252
2.955079613 -114.764007372 -0.046474171 0 230 252
2.930062561 -114.850548737 0.021122872 0 230 252
2.909218523 -114.938882343 0.077077648 0 230 252
2.819768632 -134.964530253 -0.106752136 0 229 255
2.825776666 -135.065080219 -0.125536399 0 229 255
2.843272009 -135.171548273 -0.176402646 0 229 255
2.856650830 -135.275909951 -0.215771330 0 229 255
2.860071162 -135.375148859 -0.227326196 0 229 255
2.861838970 -135.473538419 -0.234264817 0 229 255
2.864218715 -135.572245814 -0.242911636 0 229 255
2.864811616 -135.670032367 -0.246567002 0 229 255
2.862756724 -135.766450825 -0.242826243 0 229 255
2.859093309 -135.862035876 -0.234591924 0 229 255
2.853672440 -135.956708520 -0.221448017 0 229 255
2.847162582 -136.050813126 -0.205261478 0 229 255
2.842179495 -136.145705006 -0.193338124 0 229 255
2.840654574 -136.242388349 -0.191072447 0 229 255
2.841343328 -136.340220802 -0.194988661 0 229 255
2.842111636 -136.438095662 -0.199126147 0 229 255
2.843928849 -136.536517251 -0.206192360 0 229 255
2.848825367 -136.636543743 -0.221858405 0 229 255
2.854306017 -136.736878863 -0.239155154 0 229 255
2.854831946 -136.834635667 -0.242612065 0 229 255
2.851661144 -136.930464706 -0.235742660 0 229 255
2.849212495 -137.026668844 -0.230889292 0 229 255
2.847758167 -137.123391132 -0.228812195 0 229 255
2.846244665 -137.220081862 -0.226568834 0 229 255
2.840664372 -137.314643845 -0.212965289 0 229 255
2.832832873 -137.408023107 -0.193072650 0 229 255
2.828685504 -137.503327503 -0.183469336 0 229 255
2.828149037 -137.600522920 -0.183950938 0 229 255
2.830291143 -137.699124250 -0.191913406 0 229 255
2.831586683 -137.797283115 -0.197510334 0 229 255
2.831843999 -137.894897789 -0.200206346 0 229 255
2.834888778 -137.993979390 -0.210687495 0 229 255
2.842416343 -138.095423575 -0.233689362 0 229 255
2.852424360 -138.198180779 -0.263619051 0 229 255
2.857845011 -138.298527945 -0.280734225 0 229 255
2.846583388 -138.390078931 -0.251250041 0 229 255
2.831512040 -138.479610329 -0.211122896 0 229 255
2.827975480 -138.575224770 -0.203214811 0 229 255
2.830340042 -138.673957042 -0.211789501 0 229 255
2.833655440 -138.773194756 -0.223019326 0 229 255
2.835335658 -138.871569715 -0.229680642 0 229 255
2.833796042 -138.968240317 -0.227346869 0 229 255
2.830792046 -139.064133688 -0.220921540 0 229 255
2.828745041 -139.160533069 -0.217168451 0 229 255
2.827949183 -139.257595789 -0.216909334 0 229 255
2.826922380 -139.354535653 -0.216004130 0 229 255
2.824748525 -139.450865171 -0.211893745 0 229 255
2.823078945 -139.547461883 -0.209191034 0 229 255
2.820626708 -139.643640938 -0.204301019 0 229 255
2.817760015 -139.739597675 -0.198252236 0 229 255
2.816938054 -139.836643319 -0.197914362 0 229 255
2.819192210 -139.935330787 -0.206168646 0 229 255
2.821718830 -140.034166044 -0.215183178 0 229 255
2.822155298 -140.131886448 -0.218357951 0 229 255
2.822895506 -140.229770168 -0.222380301 0 229 255
2.825736853 -140.328779768 -0.232271355 0 229 255
2.828384339 -140.427688212 -0.241619979 0 229 255
2.829128531 -140.525578821 -0.245650746 0 229 255
2.828988865 -140.622996304 -0.247211465 0 229 255
2.829888136 -140.720971962 -0.251673609 0 229 255
2.829095921 -140.818040004 -0.251409494 0 229 255
2.824693420 -140.913166776 -0.241058660 0 229 255
2.818369879 -141.007256979 -0.225340105 0 229 255
2.812294532 -141.101476388 -0.210313823 0 229 255
2.808089233 -141.196699202 -0.200510721 0 229 255
2.804500487 -141.292251688 -0.192429022 0 229 255
2.801640798 -141.388195273 -0.186383048 0 229 255
2.801040764 -141.485357333 -0.186648848 0 229 255
2.802761902 -141.583773746 -0.193398362 0 229 255
2.804905074 -141.682420204 -0.201326029 0 229 255
2.806104847 -141.780558269 -0.206617209 0 229 255
2.807999936 -141.879074299 -0.213850016 0 229 255
2.810982205 -141.978181472 -0.224119243 0 229 255
2.812523447 -142.076509921 -0.230361720 0 229 255
2.810168910 -142.172725710 -0.225719354 0 229 255
2.804290033 -142.267026026 -0.211229731 0 229 255
2.801008409 -142.362733855 -0.203995240 0 229 255
2.803864944 -142.461778094 -0.213908613 0 229 255
2.809865299 -142.562536145 -0.232604407 0 229 255
2.815428458 -142.663061208 -0.250077960 0 229 255
2.817745462 -142.761821725 -0.258481439 0 229 255
2.816005690 -142.858371759 -0.255549963 0 229 255
2.811050784 -142.953165973 -0.243634822 0 229 255
2.804454139 -143.047060043 -0.227131791 0 229 255
2.797675966 -143.140850223 -0.210120494 0 229 255
2.793341760 -143.235972453 -0.199936327 0 229 255
2.795097020 -143.334425097 -0.206764631 0 229 255
2.800315178 -143.434776479 -0.223267167 0 229 255
2.803887125 -143.534229982 -0.235169467 0 229 255
2.804110623 -143.631849906 -0.237715481 0 229 255
2.801740190 -143.728046535 -0.233013193 0 229 255
2.797245861 -143.823075049 -0.222375777 0 229 255
2.791534070 -143.917431257 -0.208335729 0 229 255
2.789136038 -144.013606427 -0.203553290 0 229 255
2.789669884 -144.111394199 -0.206961596 0 229 255
2.789940511 -144.209037838 -0.209633540 0 229 255
