ply
format ascii 1.0
comment coordinate_system ground
comment units millimeter
element vertex 1448
property double x
property double y
property double z
property uchar red
property uchar green
property uchar blue
comment color_mapping zg_high_contrast_from_zg
comment color_zg_range_mm -0.176809756 0.507751360
end_header
6.412300174 147.055762884 0.301536833 255 175 0
6.412432726 146.959350117 0.295948112 255 180 0
6.414297630 146.863970484 0.285609652 255 191 0
6.416411059 146.768736548 0.274590639 255 202 0
6.415618774 146.671766905 0.271541462 255 205 0
6.412598052 146.573468493 0.274604916 255 202 0
6.409649870 146.475214353 0.277470697 255 199 0
6.407068684 146.377179681 0.279331236 255 196 0
6.403871359 146.278779219 0.282882833 255 194 0
6.399730576 146.179819073 0.289023239 255 186 0
6.395145484 146.080596863 0.296383555 255 180 0
6.391965191 145.982210997 0.299892336 255 175 0
6.392498682 145.886029981 0.293216643 255 183 0
6.396337011 145.791807121 0.277477806 255 199 0
6.400005183 145.697479335 0.262206583 254 210 0
6.401090241 145.601617759 0.254021148 253 212 0
6.400332624 145.504663551 0.250890835 252 214 0
6.398182416 145.406885012 0.251581288 252 213 0
6.394041975 145.307930439 0.257731863 253 211 0
6.388328950 145.208048799 0.268197161 255 207 0
6.382482618 145.108091563 0.279029525 255 196 0
6.377831451 145.008842664 0.286585064 255 188 0
6.375245880 144.910813973 0.288476124 255 188 0
6.375126585 144.814239255 0.283603486 255 191 0
6.375063781 144.717696703 0.278577010 255 196 0
6.373706966 144.620391507 0.277101158 255 199 0
6.372436917 144.523137173 0.275388479 255 199 0
6.371693819 144.426192314 0.272231509 255 205 0
6.370345963 144.328891620 0.270734606 255 205 0
6.368421347 144.231252212 0.270821013 255 205 0
6.367960013 144.134471433 0.266894608 255 209 0
6.365073712 144.036268240 0.269621485 255 207 0
6.358208843 143.935735192 0.283263701 255 191 0
6.358018276 143.839113760 0.278598148 255 196 0
6.353282949 143.739832162 0.286401224 255 188 0
6.351343353 143.642187673 0.286536137 255 188 0
6.349964579 143.544871179 0.285133749 255 191 0
6.346093046 143.446098852 0.290571052 255 186 0
6.339823978 143.345929077 0.302587020 255 172 0
6.333652409 143.245819706 0.314336957 255 161 0
6.330288852 143.147350430 0.318384736 255 156 0
6.331465900 143.051527256 0.309976831 255 164 0
6.336224394 142.957786742 0.291744333 255 183 0
6.339366531 142.863101220 0.277947200 255 196 0
6.336240816 142.764768438 0.281347087 255 194 0
6.331962721 142.665767353 0.287909875 255 188 0
6.329114320 142.567598376 0.290551507 255 186 0
6.326964212 142.469835529 0.291278555 255 183 0
6.324180624 142.371705823 0.293744865 255 183 0
6.322109469 142.273989868 0.294257753 255 180 0
6.322263588 142.177562915 0.288666386 255 186 0
6.322439007 142.081147009 0.283017680 255 194 0
6.321090406 141.983848429 0.281551604 255 194 0
6.318654327 141.885921195 0.283070499 255 194 0
6.315791522 141.787748168 0.285761486 255 191 0
6.311672752 141.688851198 0.291899884 255 183 0
6.305941465 141.589026037 0.302464122 255 172 0
6.300931938 141.489620084 0.311049353 255 164 0
6.298095870 141.391468805 0.313672187 255 161 0
6.298264276 141.295048153 0.308052203 255 166 0
6.301228566 141.200234732 0.294761529 255 180 0
6.305479292 141.106157545 0.277941860 255 196 0
6.309530047 141.011961106 0.261671813 254 211 0
6.311583336 140.916613549 0.250883785 252 214 0
6.309445725 140.818858522 0.251596838 252 213 0
6.302605724 140.718407452 0.265214876 255 209 0
6.293868331 140.616873069 0.284041053 255 191 0
6.288416338 140.517225594 0.293853206 255 180 0
6.287724740 140.420305465 0.290603435 255 186 0
6.287546264 140.323678176 0.285946705 255 188 0
6.286900447 140.226782767 0.282573583 255 194 0
6.284277897 140.128757640 0.284626248 255 191 0
6.278847077 140.029130390 0.294386822 255 180 0
6.275603912 139.930753969 0.298145212 255 177 0
6.277068690 139.835062583 0.288984757 255 186 0
6.280484026 139.740480122 0.274472328 255 202 0
6.281361833 139.644449353 0.266924770 255 209 0
6.278889441 139.546510808 0.268572565 255 207 0
6.279645735 139.450408613 0.261360713 254 211 0
6.285659859 139.357292004 0.239720083 250 218 0
6.292792547 139.264804828 0.215010403 246 226 0
6.294343127 139.169143811 0.205621569 245 229 0
6.287555051 139.068752217 0.219119407 247 224 0
6.278489836 138.967074248 0.238868446 250 218 0
6.272925752 138.867384582 0.249009952 252 214 0
6.271649260 138.770124329 0.247385107 252 215 0
6.268062945 138.671557641 0.252101057 252 213 0
6.259331777 138.570084914 0.270939186 255 205 0
6.251570718 138.469165521 0.287116246 255 188 0
6.257359533 138.375898338 0.266104290 255 209 0
6.255783197 138.278471578 0.265308573 255 209 0
6.252341072 138.179993238 0.269635204 255 207 0
6.248791741 138.081455977 0.274257388 255 202 0
6.245766908 137.983215498 0.277441215 255 199 0
6.241910696 137.884508510 0.282908322 255 194 0
6.238639594 137.786132213 0.286770690 255 188 0
6.239168990 137.689892223 0.280202366 255 196 0
6.242551610 137.595252462 0.265803254 255 209 0
6.243333816 137.499150182 0.258543084 253 211 0
6.242736794 137.402272954 0.255069931 253 212 0
6.241626517 137.305107503 0.253006805 252 213 0
6.236150768 137.205497645 0.262928175 254 210 0
6.227134146 137.103909675 0.282570826 255 194 0
6.219191944 137.002928110 0.299265705 255 175 0
6.215276392 136.904201288 0.304908536 255 169 0
6.215284443 136.807667123 0.299781871 255 175 0
6.219155540 136.713287389 0.284051654 255 191 0
6.223278564 136.619044100 0.267630778 255 207 0
6.223993347 136.522897384 0.260567135 254 211 0
6.223278470 136.425952892 0.257429313 253 211 0
6.224145889 136.329888350 0.249948840 252 214 0
6.227010751 136.234932839 0.236985896 250 219 0
6.229832835 136.139950284 0.224141366 247 223 0
6.230430163 136.043728962 0.217405499 247 225 0
6.227847563 135.945741292 0.219400746 247 224 0
6.224943905 135.847576400 0.222278665 247 223 0
6.223803912 135.750390055 0.220315873 247 224 0
6.222934768 135.653353471 0.217610660 247 225 0
6.217384090 135.553725344 0.227759559 248 222 0
6.206920698 135.451383100 0.251397655 252 213 0
6.199513234 135.350736699 0.266647332 255 209 0
6.201094673 135.255059718 0.257219111 253 211 0
6.207915771 135.162272545 0.233406115 249 220 0
6.211141761 135.067496112 0.219464584 247 224 0
6.206765761 134.968525855 0.226396124 248 223 0
6.201149253 134.868874482 0.236734996 250 219 0
6.196148339 134.769565099 0.245385059 251 216 0
6.189207274 134.669191149 0.259363559 254 211 0
6.180257068 134.567716899 0.278860081 255 196 0
6.172698852 134.467012954 0.294536140 255 180 0
6.169505008 134.368709431 0.298230122 255 177 0
6.167751123 134.271197144 0.297971543 255 177 0
6.167134168 134.174308345 0.294592358 255 180 0
6.170650214 134.079683056 0.279865712 255 196 0
6.178616150 133.987490078 0.252921178 252 213 0
6.186869662 133.895447321 0.225187733 248 223 0
6.188018106 133.799512996 0.216964950 247 225 0
6.184609204 133.701086990 0.221257449 247 224 0
6.180821598 133.602455717 0.226591149 248 223 0
6.177268213 133.503953990 0.231282992 249 221 0
6.174321328 133.405784506 0.234310668 249 220 0
6.172996215 133.308499703 0.232886148 249 220 0
6.172009213 133.211398888 0.230534331 249 221 0
6.168372990 133.112856426 0.235458708 250 219 0
6.163340238 133.013556366 0.244219436 251 216 0
6.160506688 132.915453832 0.246942195 252 215 0
6.156106602 132.816501851 0.253968202 253 212 0
6.155398474 132.719555144 0.250856681 252 214 0
6.144947463 132.617325643 0.274502519 255 202 0
6.138530108 132.517288325 0.287072565 255 188 0
6.140546310 132.421820786 0.276483105 255 199 0
6.151541382 132.331208514 0.241235934 251 217 0
6.155246619 132.236645574 0.226009648 248 223 0
6.156852520 132.140944534 0.216549822 247 225 0
6.158234600 132.045120365 0.207705731 245 229 0
6.151169630 131.944736687 0.222061694 247 223 0
6.147704335 131.846298016 0.226532884 248 223 0
6.143753604 131.747599345 0.232338597 249 220 0
6.138433013 131.648165054 0.241907928 251 217 0
6.131984043 131.548126615 0.254577756 253 212 0
6.124115556 131.447328778 0.271147790 255 205 0
6.116962660 131.346920261 0.285753936 255 191 0
6.113717654 131.248614160 0.289628199 255 186 0
6.114928157 131.152699859 0.281266171 255 194 0
6.119626255 131.058653385 0.263326040 254 210 0
6.126008302 130.965504480 0.240761565 251 217 0
6.129832507 130.870980281 0.225223491 248 223 0
6.129415872 130.774183282 0.221334704 247 224 0
6.126549456 130.676075822 0.224175953 247 223 0
6.122213965 130.577184613 0.231053660 249 221 0
6.117626712 130.478161201 0.238624246 250 218 0
6.114201685 130.379760223 0.243003767 251 217 0
6.111852781 130.281934461 0.244428643 251 216 0
6.110404255 130.184589073 0.243381543 251 216 0
6.110364598 130.087993741 0.238465627 250 218 0
6.111296848 129.991914416 0.230881090 249 221 0
6.113136119 129.896315503 0.220806098 247 224 0
6.115890450 129.801200248 0.208218504 245 229 0
6.117976743 129.705727227 0.197466988 243 233 0
6.116490141 129.608356249 0.196531261 243 233 0
6.111029441 129.508878683 0.206513711 245 229 0
6.102652247 129.407859256 0.224509354 248 223 0
6.093197275 129.306274578 0.245467303 251 216 0
6.088866471 129.207406483 0.252350177 252 213 0
6.088206362 129.110480886 0.249150470 252 214 0
6.085499189 129.012473452 0.251575539 252 213 0
6.081980012 128.914038405 0.256232598 253 212 0
6.082877757 128.817934694 0.248756708 252 214 0
6.084989696 128.722469230 0.237946211 250 218 0
6.083333398 128.625016385 0.237489079 250 219 0
6.078650428 128.525970731 0.245348296 251 216 0
6.073895210 128.426889561 0.253407360 252 213 0
6.071167372 128.328876461 0.255897877 253 212 0
6.067892795 128.230577228 0.259891743 254 211 0
6.066796716 128.133422728 0.257901703 253 211 0
6.071396497 128.039255134 0.240263930 250 218 0
6.075168942 127.944649446 0.224900120 248 223 0
6.077227595 127.849142383 0.214245828 246 226 0
6.075643906 127.751726665 0.213599850 246 227 0
6.070140995 127.652261629 0.223723185 247 223 0
6.063811468 127.552367754 0.236119085 250 219 0
6.067145321 127.457523573 0.221965652 247 223 0
6.062099205 127.358303201 0.230837893 249 221 0
6.057060029 127.259089214 0.239692442 250 218 0
6.053881112 127.160847264 0.243437040 251 216 0
6.054959286 127.064823188 0.235485849 250 219 0
6.058246012 126.969946339 0.221467314 247 224 0
6.060156132 126.874350261 0.211232261 246 227 0
6.059069376 126.777194732 0.209232868 245 228 0
6.053605178 126.677766422 0.219262818 247 224 0
6.046990056 126.577744126 0.232456667 249 220 0
6.043076689 126.479126377 0.238228046 250 218 0
6.039847192 126.380864807 0.242121578 251 217 0
6.035955987 126.282262113 0.247834675 252 215 0
6.035707432 126.185545547 0.243539483 251 216 0
6.040384177 126.091373975 0.225711116 248 223 0
6.049378204 125.999427765 0.196020041 243 233 0
6.055348380 125.905913019 0.174639087 239 240 0
6.043983750 125.803452194 0.200894726 244 231 0
6.030560292 125.699937836 0.232809772 249 220 0
6.025100392 125.600533833 0.242842459 251 217 0
6.026487912 125.504656778 0.234059386 249 220 0
6.030358294 125.410054453 0.218454249 247 225 0
6.031003341 125.313790777 0.211713625 246 227 0
6.028172517 125.215740756 0.214526260 246 226 0
6.025612984 125.117831050 0.216594605 247 225 0
6.025757740 125.021308841 0.211232311 246 227 0
6.027579378 124.925644666 0.201262711 244 231 0
6.026854652 124.828674401 0.198292146 243 232 0
6.022927818 124.730065447 0.204122960 244 230 0
6.020474201 124.632211586 0.205906272 245 229 0
6.024018543 124.537422609 0.191206591 242 234 0
6.031411394 124.444594486 0.165930899 238 243 0
6.035725553 124.350189338 0.149117314 235 249 0
6.032482561 124.251927914 0.153074537 236 247 0
6.024556078 124.151282439 0.169905157 238 242 0
6.016935934 124.050797845 0.185895357 241 236 0
6.011477915 123.951417608 0.195944558 243 233 0
6.006650631 123.852361020 0.204261594 244 230 0
6.001300601 123.753041597 0.214016763 246 226 0
5.994932788 123.653208722 0.226570733 248 223 0
5.988631880 123.553413567 0.238942256 250 218 0
5.984520380 123.454731523 0.245297443 251 216 0
5.983861858 123.357799879 0.242163067 251 217 0
5.987671769 123.263128485 0.226747766 248 223 0
5.992577436 123.169007175 0.208321555 245 228 0
5.992413832 123.072320225 0.203830033 244 230 0
5.986171935 122.972564019 0.216047065 246 226 0
5.977477325 122.871574294 0.235007383 250 219 0
5.970018091 122.771212821 0.250573517 252 214 0
5.966568420 122.672875491 0.255119732 253 212 0
5.967853917 122.576922960 0.246651174 252 215 0
5.970983247 122.481895752 0.233115297 249 220 0
5.971636518 122.385620849 0.226386716 248 223 0
5.969037030 122.287711027 0.228600668 248 222 0
5.966277107 122.189721660 0.231256888 249 221 0
5.966490334 122.093224138 0.225741395 248 223 0
5.970038410 121.998396314 0.211059684 246 227 0
5.973070188 121.903306320 0.197798220 243 232 0
5.973727841 121.807025317 0.191064199 242 234 0
5.972650352 121.709875421 0.189101208 242 235 0
5.971228712 121.612553429 0.188085483 242 235 0
5.971593626 121.516123254 0.182159589 241 237 0
5.973006644 121.420214561 0.173353469 239 241 0
5.972051030 121.323123307 0.171060052 239 241 0
5.967384749 121.224183833 0.178968949 240 238 0
5.962301951 121.125039615 0.188024275 242 235 0
5.967577147 121.031048785 0.168604878 238 242 0
5.963164112 120.932239130 0.175821369 239 240 0
5.956781899 120.832454121 0.188452946 242 235 0
5.953041995 120.733983841 0.193821556 242 234 0
5.953530444 120.637611565 0.187566507 242 235 0
5.954537453 120.541494802 0.179886877 240 238 0
5.953781551 120.444503668 0.177055159 240 239 0
5.950896567 120.346459050 0.180078216 240 238 0
5.946503001 120.247670034 0.187250212 242 235 0
5.942395394 120.149024567 0.193637329 242 234 0
5.940261409 120.051355147 0.194599426 242 234 0
5.939989828 119.954604696 0.190442145 242 234 0
5.939847804 119.857917296 0.185929789 241 236 0
5.939187954 119.760974068 0.182842331 241 237 0
5.936943175 119.663250623 0.184113841 241 237 0
5.932964316 119.564675437 0.190154538 242 234 0
5.930181002 119.466689533 0.192909303 242 234 0
5.929185230 119.369582126 0.190750296 242 234 0
5.929819675 119.273274029 0.184109970 241 237 0
5.930474250 119.176974332 0.177415387 240 239 0
5.929781742 119.080013495 0.174425942 239 240 0
5.929696749 118.983349466 0.169767172 238 242 0
5.931115603 118.887419809 0.160974369 237 245 0
5.932659369 118.791549124 0.151839149 235 248 0
5.932242268 118.694719025 0.148096917 235 249 0
5.928409514 118.596222084 0.153748171 236 247 0
5.921959960 118.496451556 0.166596467 238 243 0
5.914633076 118.396257618 0.181858730 241 237 0
5.907851635 118.296333689 0.195622584 243 233 0
5.904723909 118.198190692 0.199340556 243 232 0
5.905302109 118.101849854 0.192868805 242 234 0
5.907024692 118.006063244 0.183251164 241 237 0
5.907761351 117.909796022 0.176345828 240 239 0
5.906164618 117.812396078 0.175858388 239 240 0
5.904321193 117.714876867 0.176050557 239 240 0
5.904267587 117.618224395 0.171321869 239 241 0
5.906084405 117.522475617 0.161450530 237 245 0
5.906753095 117.426169634 0.154737684 236 247 0
5.902064669 117.327275260 0.162758580 237 245 0
5.895551303 117.227502897 0.175799663 239 240 0
5.890838585 117.128602644 0.183890123 241 237 0
5.888115863 117.030663680 0.186509083 241 236 0
5.885917234 116.932978094 0.187687933 242 235 0
5.883674694 116.835272078 0.188988780 242 235 0
5.882163061 116.737918079 0.188280680 242 235 0
5.882426315 116.641416639 0.182692342 241 237 0
5.885252325 116.546143818 0.170056763 238 242 0
5.890110539 116.451842313 0.151832961 235 248 0
5.893114352 116.356647700 0.138710309 233 253 0
5.892237282 116.259591937 0.136262515 233 253 0
5.887846790 116.160855205 0.143479184 234 251 0
5.879251101 116.060110835 0.162263254 237 245 0
5.871262099 115.959661752 0.179380218 240 238 0
5.868998938 115.861950243 0.180749935 240 238 0
5.869051154 115.765343557 0.175752451 239 240 0
5.870061224 115.669192252 0.168121501 238 243 0
5.871058151 115.573032963 0.160527781 237 245 0
5.869938169 115.475864923 0.158757837 237 246 0
5.872732578 115.380557402 0.146222197 234 250 0
5.860279645 115.278005033 0.175627078 239 240 0
5.850535189 115.176746493 0.197583670 243 232 0
5.849281750 115.079520781 0.196185925 243 233 0
5.856306222 114.986217292 0.172019420 239 241 0
5.870464211 114.896284821 0.128231532 229 255 1
5.876071019 114.802295440 0.107966119 200 255 14
5.883076955 114.708962202 0.083852936 167 255 28
5.878736958 114.610263966 0.090950620 178 255 24
5.874129539 114.511441852 0.098785262 189 255 19
5.861971432 114.409061748 0.127391850 226 255 3
5.851412289 114.307443265 0.151601673 235 248 0
5.845755080 114.208139610 0.162328538 237 245 0
5.845388786 114.111328206 0.158502031 237 246 0
5.849038035 114.016403579 0.143630228 234 251 0
5.855405651 113.922751941 0.121281319 218 255 6
5.862901659 113.829624061 0.095829092 182 255 22
5.865959566 113.734408526 0.082586809 167 255 28
5.859496767 113.634729058 0.095537054 182 255 22
5.847544236 113.532483534 0.123591192 222 255 4
5.837633735 113.431201294 0.146029302 234 250 0
5.832701327 113.332252305 0.154773858 236 247 0
5.830967535 113.234799888 0.154720030 236 247 0
5.829506223 113.137474981 0.153917781 236 247 0
5.826837760 113.039587394 0.156437791 236 246 0
5.823899380 112.941575129 0.159701651 237 246 0
5.823483797 112.844738498 0.156026040 236 246 0
5.826584047 112.749536517 0.142678714 234 251 0
5.827800899 112.653455951 0.134514081 233 254 0
5.824334618 112.555198848 0.139235103 233 252 0
5.820900352 109.653820751 0.004743805 58 255 76
5.517165995 92.701419665 0.027055939 91 255 62
5.519234816 92.605506239 0.016778018 76 255 68
5.521074637 92.509501924 0.007132260 62 255 75
5.523670291 92.413787061 -0.004595484 47 255 81
5.524474730 92.317378765 -0.011385647 36 255 86
5.521868697 92.219655381 -0.008775450 40 255 84
5.516042221 92.120693913 0.002711610 58 255 76
5.510711651 92.021926649 0.012833328 69 255 72
5.509139554 91.924605968 0.012597809 69 255 72
5.511187511 91.828674489 0.002386305 58 255 76
5.514712391 91.733306676 -0.011894708 36 255 86
5.517554888 91.637674053 -0.024293991 22 255 92
5.518232264 91.541210226 -0.030724858 11 255 97
5.516398962 91.443785609 -0.030234760 11 255 97
5.513230759 91.345851924 -0.026064200 18 255 94
5.510538860 91.248101447 -0.023205162 22 255 92
5.508544041 91.150617754 -0.022266188 22 255 92
5.506414386 91.053083405 -0.020954348 25 255 91
5.504220542 90.955525417 -0.019464354 25 255 91
5.499658373 90.857068612 -0.011445310 36 255 86
5.491979444 90.757431667 0.005165882 62 255 75
5.485465762 90.658241451 0.018566723 80 255 67
5.480546169 90.559659052 0.027575088 91 255 62
5.480459620 90.462908095 0.023263030 84 255 65
5.487410450 90.368816237 -0.000445816 51 255 80
5.495559779 90.275170789 -0.027457378 15 255 96
5.498088936 90.179398353 -0.038976400 0 255 102
5.493975596 90.081120092 -0.032184529 11 255 97
5.487428974 89.981928111 -0.018684007 29 255 89
5.482139846 89.883213156 -0.008648367 40 255 84
5.477349685 89.784688827 0.000013221 55 255 78
5.473888797 89.686666177 0.005011927 58 255 76
5.478113111 89.591526708 -0.011172988 36 255 86
5.476565780 89.494221430 -0.011446799 36 255 86
5.475869259 89.397234831 -0.014064769 33 255 88
5.476071768 89.300583966 -0.019159879 25 255 91
5.477888620 89.204534917 -0.028704070 15 255 96
5.481812183 89.109269512 -0.044054736 0 254 108
5.480790252 89.012157349 -0.045771146 0 254 108
5.474382838 88.913040267 -0.032640049 7 255 99
5.466747463 88.813470541 -0.016122343 33 255 88
5.460853898 88.714552873 -0.004404947 47 255 81
5.460319712 88.617627876 -0.007460885 44 255 83
5.464014541 88.522270361 -0.022174292 22 255 92
5.466732721 88.426547478 -0.034194248 7 255 99
5.467061493 88.329937628 -0.039625914 0 255 102
5.465610980 88.232669044 -0.040151179 0 255 102
5.462609589 88.134828088 -0.036399629 4 255 100
5.459467513 88.036936680 -0.032258952 11 255 97
5.458484303 87.939842307 -0.034068879 7 255 99
5.460360053 87.843800210 -0.043759678 0 254 108
5.463557589 87.748241892 -0.057093563 0 251 123
5.465018559 87.652042407 -0.065638715 0 250 132
5.462823736 87.554499466 -0.064103671 0 250 129
5.456188314 87.455329541 -0.050324447 0 253 114
5.447876993 87.355550111 -0.031923221 11 255 97
5.442349722 87.256794607 -0.021196378 25 255 91
5.439767078 87.159118541 -0.018586842 29 255 89
5.438164506 87.061801383 -0.018678251 29 255 89
5.435495046 86.964095538 -0.015826873 33 255 88
5.432230301 86.866174025 -0.011332935 36 255 86
5.431023099 86.769002935 -0.012510783 36 255 86
5.433191535 86.673059102 -0.022994830 22 255 92
5.438392287 86.578214000 -0.041838654 0 254 105
5.443961813 86.483497896 -0.061698355 0 251 126
5.445856324 86.387444910 -0.071424090 0 249 138
5.440943054 86.288925108 -0.062377653 0 250 129
5.430100888 86.188264083 -0.036981963 4 255 100
5.421402903 86.088385065 -0.017496907 29 255 89
5.416513230 85.989886166 -0.008511270 40 255 84
5.413926460 85.892220346 -0.005874295 44 255 83
5.412401249 85.794937951 -0.006163234 44 255 83
5.409858878 85.697289969 -0.003646214 47 255 81
5.406375910 85.599305074 0.001465712 55 255 78
5.403955844 85.501703557 0.003647992 58 255 76
5.404491805 85.405163085 -0.002319738 51 255 80
5.408233201 85.309769633 -0.017125400 29 255 89
5.411876679 85.214337471 -0.031660060 11 255 97
5.411994035 85.117641257 -0.036470234 4 255 100
5.407895988 85.019438881 -0.029654957 15 255 96
5.402483477 84.920769917 -0.019213598 25 255 91
5.399325316 84.822907513 -0.014987520 33 255 88
5.398835307 84.725996390 -0.018117991 29 255 89
5.397087392 84.628637547 -0.017778415 29 255 89
5.392848572 84.530394478 -0.010568486 40 255 84
5.390609145 84.432863194 -0.008870986 40 255 84
5.395327217 84.337798686 -0.026359160 18 255 94
5.405076688 84.244511101 -0.057721710 0 251 123
5.413163079 84.150627109 -0.084497103 0 246 153
5.414118022 84.054216725 -0.091604678 0 245 162
5.409135141 83.955709313 -0.082335784 0 247 150
5.403257674 83.856889498 -0.070598423 0 249 138
5.398608950 83.758506017 -0.062248362 0 250 129
5.395603939 83.660703443 -0.058430112 0 251 123
5.394646033 83.563621648 -0.060256296 0 251 126
5.396088228 83.467382204 -0.068700572 0 249 135
5.396825723 83.370893755 -0.075200250 0 248 144
5.393828114 83.273095722 -0.071397573 0 249 138
5.386816861 83.173894912 -0.056524093 0 251 123
5.378154803 83.074121674 -0.037096250 4 255 100
5.381670418 82.978605482 -0.051253176 0 252 117
5.380075451 82.881303609 -0.051313913 0 252 117
5.381225743 82.784958423 -0.058945038 0 251 123
5.383495690 82.689001142 -0.069663165 0 249 135
5.386414124 82.593266719 -0.082168836 0 247 150
5.379535594 82.494127701 -0.067652273 0 249 135
5.387020809 82.399974798 -0.092751526 0 245 162
5.382911475 82.301798510 -0.085870310 0 246 153
5.377987195 82.203342500 -0.076740008 0 248 144
5.376598142 82.106111487 -0.077359236 0 248 144
5.375842476 82.009099423 -0.079724294 0 247 147
5.373743730 81.911623851 -0.078383633 0 247 147
5.371074170 81.813952383 -0.075467288 0 248 144
5.369796232 81.716761074 -0.076388188 0 248 144
5.370434974 81.620228844 -0.082594688 0 247 150
5.370517781 81.523504398 -0.087266621 0 246 156
5.368293877 81.425987811 -0.085574704 0 246 153
5.365277280 81.328200483 -0.081695015 0 247 150
5.363327511 81.230779769 -0.080756789 0 247 150
5.363323808 81.134025051 -0.085185390 0 246 153
5.364065540 81.037524089 -0.091669084 0 245 162
5.360839959 80.939668395 -0.087208026 0 246 156
5.353043858 80.840256949 -0.070138031 0 249 138
5.347053065 80.741465077 -0.058046498 0 251 123
5.343848343 80.643624167 -0.053639002 0 252 117
5.342008774 80.546248491 -0.052996059 0 252 117
5.340440582 80.448965456 -0.053100509 0 252 117
5.338338160 80.351501775 -0.051730039 0 252 117
5.337056412 80.254316648 -0.052622252 0 252 117
5.335824170 80.157148418 -0.053649842 0 252 117
5.333605023 80.059647026 -0.051953723 0 252 117
5.331666113 79.962241038 -0.051029451 0 253 114
5.331916446 79.865573365 -0.056143387 0 252 120
5.332592138 79.769047850 -0.062429632 0 250 129
5.331983948 79.672089385 -0.065172887 0 250 132
5.329201413 79.574400413 -0.061916515 0 250 129
5.324181004 79.475962102 -0.052485123 0 252 117
5.318414975 79.377276978 -0.040995368 0 254 105
5.313912890 79.279018423 -0.032991214 7 255 99
5.313500710 79.182129673 -0.036269081 4 255 100
5.319871823 79.087505402 -0.058259867 0 251 123
5.330399468 78.994261780 -0.091717060 0 245 162
5.339323752 78.900475188 -0.120750016 0 239 195
5.341550472 78.804452290 -0.131304261 0 238 204
5.337174674 78.706232317 -0.123641629 0 239 198
5.330579186 78.607277913 -0.109853674 0 242 180
5.324143731 78.508380783 -0.096505828 0 244 165
5.318959534 78.409902206 -0.086608776 0 246 156
5.315192494 78.311895645 -0.080620314 0 247 150
5.311486171 78.213911205 -0.074798075 0 248 141
5.306780645 78.115598932 -0.066217692 0 250 132
5.301619416 78.017139171 -0.056378655 0 252 120
5.296900442 77.918828178 -0.047758485 0 253 111
5.294330265 77.821226840 -0.045065755 0 254 108
5.292649547 77.723918909 -0.044825917 0 254 108
5.291192065 77.626684715 -0.045200815 0 254 108
5.290049626 77.529554099 -0.046443768 0 253 111
5.288603643 77.432324150 -0.046847999 0 253 111
5.288403180 77.335501856 -0.050687686 0 253 114
5.290108422 77.239301468 -0.059784516 0 251 126
5.293109724 77.143521883 -0.072456428 0 249 138
5.296715836 77.047936329 -0.086796147 0 246 156
5.298718484 76.951825232 -0.096710443 0 244 168
5.295634277 76.854057755 -0.092587453 0 245 162
5.287449318 76.754635188 -0.074388516 0 248 141
5.287232138 76.657802795 -0.078174034 0 247 147
5.281293268 76.559115814 -0.066170109 0 250 132
5.280845773 76.462209777 -0.069317679 0 249 135
5.284444995 76.366611418 -0.083630667 0 246 153
5.279124586 76.268129543 -0.073329506 0 248 141
5.279097115 76.171357883 -0.077632619 0 248 144
5.283126711 76.075892300 -0.093129965 0 245 162
5.278148259 75.977524603 -0.083768665 0 246 153
5.276165071 75.880122443 -0.082671497 0 247 150
5.278988440 75.784263792 -0.094836978 0 244 165
5.286985665 75.690060920 -0.121278952 0 239 195
5.286370332 75.593093262 -0.123953118 0 239 198
5.287475356 75.496675505 -0.131373598 0 237 207
5.279237696 75.397271510 -0.113010792 0 241 186
5.275226060 75.299221407 -0.106308785 0 242 177
5.267694655 75.200051810 -0.089892120 0 245 159
5.267486400 75.103218223 -0.093683532 0 245 162
5.271069253 75.007589325 -0.107936099 0 242 180
5.271124282 74.910836616 -0.112451873 0 241 183
5.265638230 74.812325564 -0.101674591 0 243 171
5.258749772 74.713373605 -0.087025640 0 246 156
5.255659159 74.615627782 -0.082856477 0 247 150
5.256963189 74.519272372 -0.090814374 0 245 159
5.259631239 74.423345728 -0.102535624 0 243 174
5.258982196 74.326370458 -0.105101202 0 242 177
5.252739667 74.227633523 -0.092228389 0 245 162
5.243971612 74.128106221 -0.072384034 0 249 138
5.236303413 74.028930289 -0.055573659 0 252 120
5.230959614 73.930488679 -0.045176993 0 254 108
5.228613989 73.832989882 -0.043053758 0 254 105
5.230010087 73.736663205 -0.051256305 0 252 117
5.231137402 73.640250642 -0.058715928 0 251 123
5.229160998 73.542867339 -0.057608181 0 251 123
5.227671861 73.445636695 -0.057844081 0 251 123
5.229537021 73.349451155 -0.067336779 0 249 135
5.233059189 73.253778878 -0.081401846 0 247 150
5.234351833 73.157410385 -0.089312244 0 245 159
5.232062150 73.059928405 -0.087333974 0 246 156
5.227733208 72.961815301 -0.079725877 0 247 147
5.227671837 72.865025802 -0.083895549 0 246 153
5.241328247 72.772476942 -0.125927291 0 239 198
5.252038502 72.679007092 -0.159826473 0 232 237
4.919943861 52.648780174 -0.110956131 0 241 183
4.859044355 52.537958034 0.053282869 127 255 46
4.876426371 52.445154712 0.001144758 55 255 78
4.876429778 52.348353922 -0.002955661 51 255 80
4.871991404 52.250535930 0.005222902 62 255 75
4.870341524 52.153357592 0.005694849 62 255 75
4.872851187 52.057128416 -0.005329830 47 255 81
4.875412683 51.960908359 -0.016496729 29 255 89
4.875428547 51.864106935 -0.020625832 25 255 91
4.872934687 51.766735205 -0.017816266 29 255 89
4.869064022 51.669052698 -0.011199594 36 255 86
4.864711243 51.571263337 -0.003248930 47 255 81
4.860353429 51.473475390 0.004716954 58 255 76
4.856888744 51.375891311 0.010215239 66 255 73
4.855528948 51.278782750 0.009896146 66 255 73
4.856033329 51.182093226 0.004424973 58 255 76
4.856964027 51.085498155 -0.002223573 51 255 80
4.857069402 50.988716834 -0.006589479 44 255 83
4.856159558 50.891707768 -0.008147752 44 255 83
4.854999362 50.794642770 -0.009012762 40 255 84
4.854553529 50.697737002 -0.011851411 36 255 86
4.856012043 50.601254240 -0.019953410 25 255 91
4.858144841 50.504919269 -0.029918364 11 255 97
4.858494021 50.408186673 -0.034951419 7 255 99
4.856908087 50.311024982 -0.034633675 7 255 99
4.854468474 50.213675217 -0.031954693 11 255 97
4.850052483 50.115890864 -0.023810664 22 255 92
4.844064641 50.017763203 -0.011319818 36 255 86
4.840066548 49.920076454 -0.004328468 47 255 81
4.838153144 49.822849162 -0.003099191 47 255 81
4.835063357 49.725365028 0.001383568 55 255 78
4.830285162 49.627513502 0.010535449 69 255 72
4.826250588 49.529827079 0.017632780 76 255 68
4.823451811 49.432412093 0.021314805 84 255 65
4.820256003 49.334912162 0.026095754 87 255 64
4.815680458 49.237114481 0.034692558 102 255 57
4.813678316 49.139877004 0.036175869 102 255 57
4.816241239 49.043627483 0.025039078 87 255 64
4.821099657 48.947870766 0.007556812 62 255 75
4.823920541 48.851670513 -0.004291103 47 255 81
4.822934541 48.754648459 -0.005612653 47 255 81
4.821826310 48.657600144 -0.006595075 44 255 83
4.822591821 48.560953531 -0.012756920 36 255 86
4.823380532 48.464310532 -0.018981786 29 255 89
4.821029101 48.366995492 -0.016523416 29 255 89
4.816591949 48.269236808 -0.008297010 44 255 83
4.813108599 48.171683727 -0.002706485 51 255 80
4.810799083 48.074381902 -0.000360261 51 255 80
4.806304029 47.976617619 0.008030102 66 255 73
4.799851543 47.878441663 0.021834018 84 255 65
4.794946588 47.780596844 0.031360405 95 255 60
4.792715412 47.683318927 0.033495091 98 255 59
4.793109516 47.586594645 0.028372032 91 255 62
4.795887006 47.490370158 0.016659939 76 255 68
4.800035240 47.394430321 0.001158715 55 255 78
4.801770412 47.297981296 -0.007669201 44 255 83
4.798967003 47.200581606 -0.003946434 47 255 81
4.795184899 47.102979111 0.002483780 58 255 76
4.793314495 47.005776829 0.003629178 58 255 76
4.790646600 46.908409442 0.006980967 62 255 75
4.784563809 46.810334814 0.019776747 80 255 67
4.788091883 46.714254427 0.005998095 62 255 75
4.784108383 46.616617836 0.012991465 69 255 72
4.779001414 46.518751710 0.023092762 84 255 65
4.773892977 46.420888413 0.033199449 98 255 59
4.771938573 46.323676622 0.034585755 102 255 57
4.771868345 46.226852168 0.030763021 95 255 60
4.771399333 46.129945328 0.028044189 91 255 62
4.769977343 46.032843268 0.027961795 91 255 62
4.766806985 45.935384785 0.032715400 98 255 59
4.764254029 45.838053698 0.035762939 102 255 57
4.764810681 45.741355916 0.030212529 95 255 60
4.768029903 45.645197177 0.017300244 76 255 68
4.771786171 45.549143978 0.002903860 58 255 76
4.774871589 45.452951544 -0.009636326 40 255 84
4.777396358 45.356642878 -0.020625037 25 255 91
4.778097377 45.259964266 -0.026569213 18 255 94
4.776399275 45.162802153 -0.025877602 18 255 94
4.774256707 45.065551407 -0.023955624 22 255 92
4.772849756 44.968448823 -0.024066768 22 255 92
4.770333299 44.871124816 -0.021108368 25 255 91
4.766306267 44.773500659 -0.013971199 33 255 88
4.762794044 44.675981300 -0.008256466 44 255 83
4.759336456 44.578474713 -0.002691563 51 255 80
4.754092340 44.480615696 0.007815400 66 255 73
4.748320841 44.382655526 0.019782223 80 255 67
4.746588664 44.285496993 0.020579179 80 255 67
4.749171797 44.189189892 0.009442772 66 255 73
4.751107556 44.092752655 0.000097841 55 255 78
4.749022376 43.995523415 0.001874566 55 255 78
4.741780075 43.897284048 0.017915484 76 255 68
4.733922596 43.798929084 0.035659210 102 255 57
4.731614862 43.701663038 0.038055308 106 255 56
4.733142481 43.605145447 0.029845043 95 255 60
4.737441377 43.509164952 0.013971203 73 255 70
4.744078161 43.413634248 -0.008367684 40 255 84
4.750188435 43.317995706 -0.029249418 15 255 96
4.750950926 43.221317694 -0.035339302 4 255 100
4.746014924 43.123538653 -0.025667071 18 255 94
4.741726972 43.025887428 -0.017785920 29 255 89
4.741442717 42.929008280 -0.020977114 25 255 91
4.742601603 42.832405427 -0.028158691 15 255 96
4.741369626 42.735343192 -0.028726301 15 255 96
4.735704809 42.637434153 -0.017031913 29 255 89
4.726446798 42.538843495 0.004602324 58 255 76
4.718042554 42.440421616 0.023876573 87 255 64
4.713329758 42.342706486 0.032941866 98 255 59
4.712348028 42.245701387 0.031688417 95 255 60
4.715422315 42.149463518 0.019217230 80 255 67
4.720075342 42.053520571 0.002380279 58 255 76
4.721177721 41.956904374 -0.004634488 47 255 81
4.717758496 41.859436436 0.000858804 55 255 78
4.711913345 41.761515157 0.013063623 73 255 70
4.704532987 41.663310103 0.029516302 95 255 60
4.697868329 41.565243663 0.043990691 113 255 52
4.696832453 41.468231259 0.042896593 113 255 52
4.701117536 41.372209156 0.027085202 91 255 62
4.705205430 41.276146395 0.011820279 69 255 72
4.706504831 41.179562917 0.004269797 58 255 76
4.706458049 41.082728690 0.000444204 55 255 78
4.709080227 40.986386376 -0.010763105 40 255 84
4.715017273 40.890651892 -0.031138968 11 255 97
4.718824221 40.794520563 -0.045621540 0 254 108
4.717133283 40.697377054 -0.044894606 0 254 108
4.710627692 40.599352732 -0.030847887 11 255 97
4.703892615 40.501290692 -0.016164972 33 255 88
4.700878515 40.403911330 -0.011773999 36 255 86
4.700156686 40.306950491 -0.013722914 33 255 88
4.699455085 40.209993112 -0.015726613 33 255 88
4.697322026 40.112776203 -0.013769235 33 255 88
4.693692437 40.015289642 -0.007670689 44 255 83
4.689341042 39.917674887 0.000425923 55 255 78
4.693620489 39.821616247 -0.015352519 33 255 88
4.691484907 39.724401318 -0.013383326 36 255 86
4.688375217 39.627012660 -0.008718109 40 255 84
4.684026673 39.529404039 -0.000624413 51 255 80
4.680065087 39.431867036 0.006400073 62 255 75
4.677844291 39.334642315 0.008609974 66 255 73
4.678368353 39.237906316 0.003227449 58 255 76
4.679361945 39.141252415 -0.003452908 47 255 81
4.677097388 39.044020474 -0.001118376 51 255 80
4.671635750 38.946225009 0.010062269 66 255 73
4.666823060 38.848547285 0.019448890 80 255 67
4.664200424 38.751257486 0.022777851 84 255 65
4.661473476 38.653950630 0.026396637 87 255 64
4.659362337 38.556752882 0.028312954 91 255 62
4.660358690 38.460098725 0.021633187 84 255 65
4.663189618 38.363762764 0.009878909 66 255 73
4.664528738 38.267164463 0.002253029 55 255 78
4.663568287 38.170165379 0.000990434 55 255 78
4.660471142 38.072796344 0.005640615 62 255 75
4.655599017 37.975122289 0.015202915 73 255 70
4.649951309 37.877317508 0.026912365 91 255 62
4.645711153 37.779758353 0.034728805 102 255 57
4.645357233 37.682868557 0.031794212 98 255 59
4.647320195 37.586374963 0.022450465 84 255 65
4.645171604 37.489176700 0.024483653 87 255 64
4.637585697 37.391052493 0.041562140 109 255 54
4.629779466 37.292895846 0.059251641 135 255 43
4.626093059 37.195443499 0.065543592 142 255 40
4.627603696 37.098873119 0.057457253 131 255 44
4.631664029 37.002731538 0.042317291 109 255 54
4.632341884 36.906015989 0.036537341 102 255 57
4.626990557 36.808285265 0.047440785 116 255 51
4.619979482 36.710279387 0.062937981 138 255 41
4.615508385 36.612703297 0.071408556 149 255 36
4.612653785 36.515399845 0.075407622 156 255 33
4.609413478 36.418033538 0.080475182 164 255 30
4.606151106 36.320665274 0.085605050 171 255 27
4.611117921 36.224663746 0.067965816 146 255 38
4.621820129 36.129606819 0.034457539 102 255 57
4.627738666 36.033751125 0.014186757 73 255 70
4.626897326 35.936776610 0.012621961 69 255 72
4.621902411 35.839119352 0.022551627 84 255 65
4.614820779 35.741123001 0.038256769 106 255 56
4.606160837 35.642873113 0.058330675 131 255 44
4.596153481 35.544409178 0.082134515 164 255 30
4.586576242 35.446022154 0.104749652 197 255 16
4.589976227 35.349749660 0.091456013 178 255 24
4.591711577 35.253204045 0.082769779 167 255 28
4.587373412 35.155674420 0.090891305 178 255 24
4.588601289 35.059045098 0.083611643 167 255 28
4.590884603 34.962583905 0.073412447 153 255 35
4.586430813 34.865038720 0.081857603 164 255 30
4.588409390 34.768526285 0.072503957 153 255 35
4.586033923 34.671315962 0.075200279 156 255 33
4.592151344 34.575460296 0.054395446 127 255 46
4.596635258 34.479339468 0.038112008 106 255 56
4.597500477 34.382640467 0.031843706 98 255 59
4.594424703 34.285316439 0.036482618 102 255 57
4.588338112 34.187518732 0.049454805 120 255 49
4.590631496 34.091044516 0.039237763 106 255 56
4.586464779 33.993552975 0.046899456 116 255 51
4.582979337 33.896170615 0.052677068 124 255 48
4.576547170 33.798329508 0.066610800 146 255 38
4.569589937 33.700410671 0.081998991 164 255 30
4.564976623 33.602861011 0.090901850 178 255 24
4.561748478 33.505529063 0.095972577 186 255 20
4.559167378 33.408298979 0.099253858 189 255 19
4.556118509 33.310997875 0.103830931 193 255 17
4.550495661 33.213301859 0.115532830 211 255 9
4.544502579 33.115552489 0.128260705 229 255 1
4.542845525 33.018471517 0.128989672 229 255 1
4.547550663 32.922363750 0.112111938 207 255 11
4.557063014 32.826984752 0.081930787 164 255 30
4.559949952 32.730589842 0.070087072 149 255 36
4.547028201 32.631793132 0.101996986 193 255 17
4.254033250 12.646945455 0.144731281 234 250 0
4.321694069 12.554979932 -0.046351283 0 253 111
4.312843933 12.457437055 -0.025439342 18 255 94
4.296243412 12.359343502 0.016948737 76 255 68
4.291653955 12.262120001 0.026058114 87 255 64
4.287474772 12.164928400 0.034031982 98 255 59
4.285779901 12.067914817 0.035123490 102 255 57
4.284093131 11.970902332 0.036193749 102 255 57
4.282949311 11.873928330 0.035760769 102 255 57
4.283831025 11.777095271 0.029716455 95 255 60
4.286144470 11.680359769 0.019706093 80 255 67
4.286327705 11.583475245 0.015599438 73 255 70
4.282746167 11.486332370 0.021925827 84 255 65
4.277744256 11.389094884 0.032189232 98 255 59
4.273583115 11.291917307 0.040124202 109 255 54
4.269967463 11.194778823 0.046548911 116 255 51
4.264642023 11.097528037 0.057712669 131 255 44
4.257801820 11.000179875 0.073075144 153 255 35
4.254511498 10.903070777 0.078602198 160 255 32
4.258441475 10.806437824 0.064122847 142 255 40
4.266374041 10.710062543 0.038553219 106 255 56
4.271574859 10.613503028 0.020554354 80 255 67
4.268947433 10.516433414 0.024249069 87 255 64
4.263875743 10.419208190 0.034718258 102 255 57
4.261633039 10.322166538 0.037349356 106 255 56
4.262968961 10.225352741 0.030064914 95 255 60
4.267044813 10.128709833 0.015188913 73 255 70
4.271709420 10.032099914 -0.001317558 51 255 80
4.275275986 9.935417294 -0.014780167 33 255 88
4.277684160 9.838659499 -0.025031630 18 255 94
4.278884467 9.741824816 -0.031934798 11 255 97
4.276447435 9.644766169 -0.028757115 15 255 96
4.269931186 9.547460902 -0.014273885 33 255 88
4.261332435 9.450034188 0.005981749 62 255 75
4.254680919 9.352730046 0.020842552 80 255 67
4.253205212 9.255738592 0.021361260 84 255 65
4.255260580 9.158956523 0.012095632 69 255 72
4.256581792 9.062128933 0.004865654 58 255 76
4.255220852 8.965142844 0.005069799 62 255 75
4.252073447 8.868053328 0.010225964 66 255 73
4.249197505 8.770981107 0.014631062 73 255 70
4.248854355 8.674055399 0.012018192 69 255 72
4.252030060 8.577329402 -0.000345464 51 255 80
4.256720391 8.480685804 -0.016905611 29 255 89
4.258795190 8.383891028 -0.026216132 18 255 94
4.256730886 8.286863137 -0.024054530 22 255 92
4.252961331 8.189741643 -0.017165798 29 255 89
4.249865836 8.092659327 -0.012143901 36 255 86
4.247665412 7.995627483 -0.009601387 40 255 84
4.245512202 7.898599115 -0.007188511 44 255 83
4.242998124 7.801552197 -0.003774293 47 255 81
4.240239027 7.704493337 0.000320207 55 255 78
4.236535984 7.607385723 0.007032064 62 255 75
4.230527061 7.510158685 0.020135910 80 255 67
4.221942506 7.412800759 0.040379475 109 255 54
4.213148265 7.315437749 0.061205593 138 255 41
4.212582234 7.218504775 0.059228295 135 255 43
4.219409831 7.121949693 0.036760332 102 255 57
4.221644474 7.025155413 0.027023020 91 255 62
4.216808627 6.928002368 0.036883217 102 255 57
4.207425568 6.830624861 0.059347734 135 255 43
4.203154865 6.733507467 0.067644219 146 255 38
4.201107622 6.636502058 0.069779381 149 255 36
4.206870124 6.539879022 0.050269972 120 255 49
4.206728983 6.442964617 0.047124395 116 255 51
4.213251007 6.346370000 0.025511936 87 255 64
4.217436055 6.249658121 0.010377803 69 255 72
4.218083510 6.152774842 0.005049810 62 255 75
4.215734065 6.055749609 0.008029456 66 255 73
4.212287336 5.958674314 0.014051677 73 255 70
4.208584370 5.861589054 0.020785364 80 255 67
4.204645298 5.764495046 0.028174731 91 255 62
4.201954281 5.667459961 0.032106055 98 255 59
4.201507764 5.570527234 0.029817367 95 255 60
4.201715828 5.473623303 0.025715490 87 255 64
4.200104580 5.376637912 0.026657519 91 255 62
4.204424428 5.279913244 0.011160881 69 255 72
4.198340114 5.182731937 0.024503769 87 255 64
4.191955932 5.085541590 0.038679167 106 255 56
4.186664306 4.988402047 0.049827494 120 255 49
4.185249050 4.891429947 0.050232337 120 255 49
4.188003024 4.794633125 0.039081769 106 255 56
4.189585119 4.697784692 0.031180605 95 255 60
4.186432808 4.600739217 0.036403876 102 255 57
4.180119023 4.503566341 0.050391739 120 255 49
4.173344680 4.406378906 0.065657572 142 255 40
4.170438001 4.309350793 0.070203775 149 255 36
4.171336410 4.212475077 0.064203646 142 255 40
4.169934411 4.115507528 0.064581323 142 255 40
4.165924240 4.018438816 0.072190014 153 255 35
4.162912199 3.921410851 0.077033150 156 255 33
4.164817151 3.824571939 0.068247528 146 255 38
4.170870875 3.727887426 0.047962496 120 255 49
4.177047009 3.631202079 0.027339146 91 255 62
4.180606603 3.534414448 0.013969982 73 255 70
4.179890716 3.437466816 0.012453787 69 255 72
4.175131863 3.340372517 0.022146181 84 255 65
4.169590932 3.243253062 0.034007853 98 255 59
4.165963274 3.146204915 0.040567031 109 255 54
4.163948723 3.049215350 0.042655735 113 255 52
4.163137170 2.952268287 0.041410771 109 255 54
4.164525385 2.855396540 0.034068903 98 255 59
4.167276953 2.758569207 0.022948721 84 255 65
4.169148874 2.661709489 0.014268156 73 255 70
4.168789772 2.564773588 0.011773503 69 255 72
4.165858258 2.467752880 0.016411246 76 255 68
4.162294941 2.370713179 0.022801712 84 255 65
4.160666446 2.273737366 0.023829667 87 255 64
4.161706073 2.176846408 0.017462146 76 255 68
4.164999106 2.080024283 0.004848749 58 255 76
4.166907766 1.983156140 -0.003925732 47 255 81
4.165136341 1.886173606 -0.002496902 51 255 80
4.161971111 1.789149711 0.002797159 58 255 76
4.158189228 1.692109147 0.009802008 66 255 73
4.156144142 1.595121642 0.011993159 69 255 72
4.159343500 1.498286727 -0.000353807 51 255 80
4.167293394 1.401584269 -0.025869797 18 255 94
4.172422633 1.304795465 -0.043564973 0 254 108
4.169166520 1.207768886 -0.038011888 0 255 102
4.161144012 1.110613371 -0.019243311 25 255 91
4.151458457 1.013418278 0.004137267 58 255 76
4.140966377 0.916208339 0.029755294 95 255 60
4.130427716 0.819004441 0.055503919 127 255 46
4.121624683 0.721852761 0.076442073 156 255 33
4.117630761 0.624829669 0.084048575 167 255 28
4.121155719 0.527997692 0.070810473 149 255 36
4.127556639 0.431233364 0.049599895 120 255 49
4.130875045 0.334388306 0.036936559 102 255 57
4.130785381 0.237458258 0.033723179 98 255 59
4.130661674 0.140526702 0.030605341 95 255 60
4.132678581 0.043644125 0.021553746 84 255 65
4.136448695 -0.053200772 0.007642418 62 255 75
4.139934938 -0.150055699 -0.005480797 47 255 81
4.140499077 -0.246978502 -0.010501228 40 255 84
4.138555468 -0.343956845 -0.008567595 40 255 84
4.134510026 -0.440979206 -0.000805240 51 255 80
4.128839900 -0.538033198 0.011462986 69 255 72
4.122510814 -0.635097140 0.025559562 87 255 64
4.116148747 -0.732157672 0.039748910 106 255 56
4.110841451 -0.829193271 0.051015074 124 255 48
4.106394345 -0.926208919 0.059897520 135 255 43
4.101598041 -1.023228563 0.069749450 149 255 36
4.109296140 -1.120012896 0.044959574 113 255 52
4.106329720 -1.216998190 0.049740170 120 255 49
4.115837228 -1.313759515 0.019935396 80 255 67
4.122815157 -1.410573045 -0.002854621 51 255 80
4.122720227 -1.507513422 -0.006032507 44 255 83
4.118919011 -1.604516342 0.001067351 55 255 78
4.115666944 -1.701508173 0.006645805 62 255 75
4.114695557 -1.798461980 0.005901691 62 255 75
4.116458393 -1.895373339 -0.002422659 51 255 80
4.120230153 -1.992256384 -0.016316231 33 255 88
4.123724494 -2.089147191 -0.029439508 15 255 96
4.125278188 -2.186069372 -0.037180656 4 255 100
4.123894928 -2.283034646 -0.036777005 4 255 100
4.117938425 -2.380061925 -0.023691273 22 255 92
4.107960738 -2.477138644 0.000545958 55 255 78
4.099583906 -2.574187916 0.020345648 80 255 67
4.103905087 -2.671073189 0.004936535 58 255 76
4.101054399 -2.768049240 0.009415347 66 255 73
4.098612512 -2.865019098 0.012761820 69 255 72
4.099386824 -2.961951449 0.007191221 62 255 75
4.105076203 -3.058831408 -0.012007415 36 255 86
4.103712274 -3.155790950 -0.011646567 36 255 86
4.108122881 -3.252691486 -0.027297098 15 255 96
4.109143100 -3.349629366 -0.033545125 7 255 99
4.106292480 -3.446605210 -0.029058244 15 255 96
4.101437474 -3.543597730 -0.019011971 29 255 89
4.106419463 -3.640502324 -0.036242524 4 255 100
4.108090825 -3.737438844 -0.044291599 0 254 108
4.111321033 -3.834365150 -0.056662289 0 251 123
4.111688660 -3.931316147 -0.061093836 0 251 126
4.107850641 -4.028298088 -0.053861734 0 252 120
4.100355389 -4.125302452 -0.036486602 4 255 100
4.092509151 -4.222304074 -0.018136800 29 255 89
4.089820268 -4.319269738 -0.014087505 33 255 88
4.091780058 -4.416208210 -0.022928289 22 255 92
4.094631451 -4.513144333 -0.034240490 7 255 99
4.095653671 -4.610092211 -0.040479059 0 254 105
4.097462123 -4.707038172 -0.048896834 0 253 114
4.099986826 -4.803983401 -0.059299777 0 251 126
4.100807498 -4.900937575 -0.064976055 0 250 132
4.099798496 -4.997899146 -0.065577177 0 250 132
4.098096003 -5.094862725 -0.064253932 0 250 129
4.094585468 -5.191830310 -0.057915408 0 251 123
4.087853348 -5.288802825 -0.042641465 0 254 105
4.080366588 -5.385772271 -0.025273390 18 255 94
4.076419744 -5.482731950 -0.017721044 29 255 89
4.076144869 -5.579685802 -0.020350787 25 255 91
4.076702181 -5.676639729 -0.025287254 18 255 94
4.078274299 -5.773594650 -0.033036927 7 255 99
4.080859803 -5.870551731 -0.043595908 0 254 108
4.082045128 -5.967510789 -0.050270660 0 253 114
4.080706244 -6.064469157 -0.049943842 0 253 114
4.078186562 -6.161425711 -0.046341082 0 253 111
4.075368632 -6.258380603 -0.041909961 0 254 105
4.071658846 -6.355332246 -0.035004173 7 255 99
4.067821836 -6.452281510 -0.027744296 15 255 96
4.066398783 -6.549235509 -0.027178008 15 255 96
4.068359152 -6.646200162 -0.035994116 4 255 100
4.071471210 -6.743171270 -0.048003222 0 253 111
4.073570271 -6.840141483 -0.057201776 0 251 123
4.072760824 -6.937101310 -0.058332668 0 251 123
4.069310176 -7.034048685 -0.052137156 0 252 117
4.064958459 -7.130989545 -0.043441321 0 254 108
4.061097654 -7.227930568 -0.036105751 4 255 100
4.060633337 -7.324889532 -0.038189044 0 255 102
3.861030718 -27.395726271 -0.157039444 0 233 234
3.847109001 -27.491580894 -0.121523189 0 239 195
3.824923798 -27.586714198 -0.063067137 0 250 129
3.816114206 -27.682987920 -0.041738390 0 254 105
3.820914224 -27.780437789 -0.058187019 0 251 123
3.818483325 -27.877261281 -0.054562320 0 252 120
3.817156614 -27.974180449 -0.054001533 0 252 120
3.816345419 -28.071144756 -0.054870592 0 252 120
3.807742609 -28.167420488 -0.034109513 7 255 99
3.803549058 -28.264081850 -0.025586923 18 255 94
3.807002655 -28.361422619 -0.038291192 0 255 102
3.815176952 -28.459189548 -0.064098830 0 250 129
3.815032217 -28.556215406 -0.066812105 0 250 132
3.818243789 -28.653545060 -0.078841249 0 247 147
3.816507456 -28.750429202 -0.077133980 0 248 144
3.812523512 -28.847108080 -0.069186158 0 249 135
3.812971856 -28.944190089 -0.073541160 0 248 141
3.806340238 -29.040622936 -0.058240909 0 251 123
3.802847443 -29.137340983 -0.051652822 0 252 117
3.804718346 -29.234553907 -0.059953347 0 251 126
3.810154015 -29.332100582 -0.078148713 0 247 147
3.814866563 -29.429584688 -0.094335592 0 244 165
3.813881379 -29.526538927 -0.094704123 0 244 165
3.809484654 -29.623171990 -0.085600774 0 246 153
3.807579933 -29.720038050 -0.083414198 0 246 153
3.806796631 -29.817009881 -0.084339595 0 246 153
3.802942772 -29.913689258 -0.076739613 0 248 144
3.799312037 -30.010387813 -0.069757816 0 249 135
3.798107027 -30.107317412 -0.069508911 0 249 135
3.799640448 -30.204511012 -0.076861093 0 248 144
3.802680678 -30.301852495 -0.088395273 0 246 156
3.804788187 -30.399106417 -0.097338967 0 244 168
3.804606276 -30.496139277 -0.099925732 0 243 171
3.799652156 -30.592705147 -0.089262833 0 245 159
3.789131256 -30.688720363 -0.063144222 0 250 129
3.779663117 -30.784832257 -0.039946894 0 255 102
3.775885148 -30.881501812 -0.032545336 7 255 99
3.775593888 -30.978516277 -0.034822437 7 255 99
3.775698052 -31.075570813 -0.038196162 0 255 102
3.775550587 -31.172600978 -0.040870147 0 254 105
3.776342539 -31.269726397 -0.046151034 0 253 111
3.779075112 -31.367049336 -0.056818450 0 251 123
3.781574277 -31.464351482 -0.066836753 0 250 132
3.780831534 -31.561326206 -0.067853494 0 249 135
3.776062590 -31.657889607 -0.057691150 0 251 123
3.768292075 -31.754142175 -0.039194269 0 255 102
3.761614432 -31.850502109 -0.023730220 22 255 92
3.759077017 -31.947285666 -0.019759502 25 255 91
3.760872895 -32.044517645 -0.027818259 15 255 96
3.764707924 -32.141964136 -0.041537279 0 254 105
3.765326805 -32.239078211 -0.046326043 0 253 111
3.761875975 -32.335766624 -0.039814655 0 255 102
3.758540403 -32.432465308 -0.033622040 7 255 99
3.758975641 -32.529560682 -0.037897421 0 255 102
3.763844022 -32.627127333 -0.054479809 0 252 120
3.766304569 -32.724442222 -0.064376004 0 250 129
3.764740964 -32.821329918 -0.063098385 0 250 129
3.762365540 -32.918130167 -0.059565621 0 251 126
3.761035619 -33.015041865 -0.058934421 0 251 123
3.759416762 -33.111922131 -0.057499820 0 251 123
3.756302906 -33.208639944 -0.051913234 0 252 117
3.754808471 -33.305532253 -0.050821688 0 253 114
3.756753797 -33.402799570 -0.059279359 0 251 126
3.758912241 -33.500092506 -0.068327624 0 249 135
3.756617025 -33.596898455 -0.065009226 0 250 132
3.749429388 -33.693163899 -0.048105802 0 253 111
3.741768177 -33.789372203 -0.029886181 11 255 97
3.737675424 -33.885971675 -0.021573156 25 255 91
3.738175905 -33.983080616 -0.026012167 18 255 94
3.741693819 -34.080528121 -0.038828064 0 255 102
3.745231429 -34.177981324 -0.051697552 0 252 117
3.747373201 -34.275280884 -0.060690314 0 251 126
3.748041809 -34.372416458 -0.065591616 0 250 132
3.745404944 -34.469178655 -0.061313858 0 251 126
3.740395215 -34.565669738 -0.050446419 0 253 114
3.736356349 -34.662268554 -0.042273417 0 254 105
3.734477050 -34.759112330 -0.040095456 0 255 102
3.734785997 -34.856206849 -0.043992229 0 254 108
3.736553633 -34.953470536 -0.051938088 0 252 117
3.738029574 -35.050702631 -0.059072891 0 251 123
3.735547174 -35.147477327 -0.055215637 0 252 120
3.729318351 -35.243814736 -0.040954635 0 254 105
3.723546445 -35.340201517 -0.027961051 15 255 96
3.719347585 -35.436768999 -0.019334041 25 255 91
3.717670853 -35.533630580 -0.017708959 29 255 89
3.719392246 -35.630892499 -0.025518267 18 255 94
3.722630306 -35.728336013 -0.037537786 4 255 100
3.727279524 -35.825950342 -0.053474589 0 252 117
3.731300441 -35.923494192 -0.067665694 0 249 135
3.732886272 -36.020750936 -0.075094125 0 248 141
3.733905173 -36.117941723 -0.080947206 0 247 150
3.736397391 -36.215311264 -0.090890179 0 245 159
3.737422224 -36.312506471 -0.096757462 0 244 168
3.734356057 -36.409208114 -0.091263840 0 245 162
3.728758441 -36.505600834 -0.078739721 0 247 147
3.722245958 -36.601878611 -0.063673933 0 250 129
3.721814930 -36.698895223 -0.065493851 0 250 132
3.715636114 -36.795207800 -0.051352075 0 252 117
3.711984552 -36.891827147 -0.044226754 0 254 108
3.710909772 -36.988762284 -0.044255492 0 254 108
3.714222633 -37.086240218 -0.056466836 0 252 120
3.721225075 -37.184179371 -0.078922484 0 247 147
3.721589848 -37.281298385 -0.082945238 0 247 150
3.721564816 -37.378369789 -0.085884399 0 246 153
3.719740433 -37.475216582 -0.083825826 0 246 153
3.720041472 -37.572329798 -0.087668113 0 246 156
3.721369476 -37.669573453 -0.094361015 0 244 165
3.724142337 -37.767001556 -0.105065008 0 242 177
3.720310463 -37.863595149 -0.097427130 0 244 168
3.716940430 -37.960245321 -0.091070512 0 245 159
3.714146525 -38.056967181 -0.086312539 0 246 156
3.713003028 -38.153898841 -0.086136438 0 246 156
3.712972244 -38.250973202 -0.089049106 0 245 159
3.710397857 -38.347720933 -0.084897131 0 246 153
3.704748671 -38.444070527 -0.072205317 0 249 138
3.698387303 -38.540324354 -0.057534514 0 251 123
3.694894706 -38.636946633 -0.050828981 0 253 114
3.695969039 -38.734161851 -0.056804594 0 251 123
3.700593610 -38.831842459 -0.072638108 0 248 141
3.706076728 -38.929639889 -0.090854738 0 245 159
3.708550521 -39.027046889 -0.100713332 0 243 171
3.707018488 -39.123928669 -0.099446496 0 243 171
3.703628256 -39.220564461 -0.093018170 0 245 162
3.700328680 -39.317210452 -0.086840380 0 246 156
3.697649152 -39.413937122 -0.082383276 0 247 150
3.696179115 -39.510823771 -0.081283808 0 247 150
3.695451490 -39.607809341 -0.082244892 0 247 150
3.694028487 -39.704701896 -0.081273674 0 247 150
3.694822311 -39.801892248 -0.086457619 0 246 156
3.697246802 -39.899303905 -0.096168959 0 244 165
3.698200543 -39.996519304 -0.101794733 0 243 171
3.695907333 -40.093295849 -0.098402172 0 244 168
3.691531032 -40.189788098 -0.089223383 0 245 159
3.688768063 -40.286497819 -0.084523806 0 246 153
3.687756655 -40.383445780 -0.084687377 0 246 153
3.687018342 -40.480431209 -0.085608198 0 246 153
3.685738321 -40.577342346 -0.085023430 0 246 153
3.684520483 -40.674261862 -0.084610170 0 246 153
3.684402817 -40.771333400 -0.087251115 0 246 156
3.685508094 -40.868575254 -0.093287257 0 245 162
3.686778041 -40.965841646 -0.099779580 0 243 171
3.686581102 -41.062905216 -0.102196903 0 243 174
3.684983665 -41.159773559 -0.100723561 0 243 171
3.682370845 -41.256499068 -0.096429071 0 244 165
3.679037920 -41.353122093 -0.090133465 0 245 159
3.675201818 -41.449672394 -0.082439182 0 247 150
3.670485760 -41.546096117 -0.072299793 0 249 138
3.665354892 -41.642458193 -0.061007114 0 251 126
3.663389316 -41.739267081 -0.058504101 0 251 123
3.665190593 -41.836612175 -0.066461552 0 250 132
3.667188103 -41.933987485 -0.074962872 0 248 141
3.669224162 -42.031370640 -0.083570128 0 246 153
3.671363251 -42.128770949 -0.092462401 0 245 162
3.671850832 -42.225935743 -0.096766775 0 244 168
3.668615279 -42.322563846 -0.090729599 0 245 159
3.662908310 -42.418832273 -0.077827224 0 248 144
3.656668725 -42.515019749 -0.063444312 0 250 129
3.652841497 -42.611554490 -0.055760123 0 252 120
3.653982535 -42.708812435 -0.061873450 0 250 129
3.658394781 -42.806550891 -0.077071036 0 248 144
3.663112970 -42.904338424 -0.093117255 0 245 162
3.664785484 -43.001682194 -0.100703334 0 243 171
3.663509895 -43.098593084 -0.100100198 0 243 171
3.663265640 -43.195656334 -0.102360322 0 243 174
3.664201966 -43.292895266 -0.107898257 0 242 180
3.664674748 -43.390066780 -0.112147583 0 241 183
3.662757799 -43.486883199 -0.109758416 0 242 180
3.658008111 -43.583275561 -0.099500259 0 243 171
3.651584072 -43.679414172 -0.084590405 0 246 153
3.644588959 -43.775462841 -0.068093125 0 249 135
3.638706821 -43.871674544 -0.054685816 0 252 120
3.635287513 -43.968254383 -0.048117732 0 253 111
3.632551159 -44.064935763 -0.043445332 0 254 108
3.630775402 -44.161761607 -0.041439793 0 254 105
3.633313928 -44.259243271 -0.051416069 0 252 117
3.640409132 -44.357422702 -0.074047522 0 248 141
3.646756118 -44.455493955 -0.094599715 0 244 165
3.648516744 -44.552867789 -0.102412048 0 243 174
3.645920698 -44.649574215 -0.098122376 0 244 168
3.640941217 -44.745912222 -0.087211367 0 246 156
3.635103286 -44.842114599 -0.073914697 0 248 141
3.631165500 -44.938607483 -0.065894563 0 250 132
3.631699813 -45.035792284 -0.070294848 0 249 138
3.634795899 -45.133376901 -0.081809548 0 247 150
3.636141054 -45.230691558 -0.088459745 0 246 156
3.635184081 -45.327648043 -0.088714386 0 245 159
3.632279452 -45.424299269 -0.083557999 0 246 153
3.626298505 -45.520465633 -0.069855523 0 249 138
3.619633825 -45.616520478 -0.054252608 0 252 120
3.618622170 -45.713463652 -0.054350540 0 252 120
3.621799116 -45.811069861 -0.066081796 0 250 132
3.625214473 -45.908717127 -0.078474167 0 247 147
3.628728062 -46.006383426 -0.091138288 0 245 159
3.631973831 -46.104010506 -0.103057380 0 243 174
3.631583206 -46.201059657 -0.104874596 0 242 177
3.624811488 -46.297086946 -0.088965898 0 245 159
3.624263885 -46.394109403 -0.090344683 0 245 159
3.620049528 -46.490541935 -0.081537097 0 247 150
3.619916322 -46.587630579 -0.084064593 0 246 153
3.619575595 -46.684686336 -0.086014487 0 246 156
3.615222126 -46.781092005 -0.076816848 0 248 144
3.607503322 -46.876948175 -0.058269900 0 251 123
3.601943049 -46.973150831 -0.045717534 0 254 108
3.602151658 -47.070291993 -0.049188548 0 253 114
3.606776773 -47.168156964 -0.064926486 0 250 132
3.611191651 -47.265991781 -0.080079336 0 247 147
3.611570448 -47.363167074 -0.084019691 0 246 153
3.608996361 -47.459856728 -0.079756366 0 247 147
3.607686172 -47.556753996 -0.079002703 0 247 147
3.608156875 -47.653945947 -0.083194853 0 247 150
3.607101828 -47.750885801 -0.083147579 0 247 150
3.603107398 -47.847336621 -0.074934000 0 248 141
3.597535016 -47.943522033 -0.062335878 0 250 129
3.593753465 -48.040003251 -0.054711167 0 252 120
3.594238597 -48.137197084 -0.058937499 0 251 123
3.597327756 -48.234829291 -0.070396327 0 249 138
3.600876160 -48.332541939 -0.083129771 0 247 150
3.602915625 -48.430003585 -0.091670442 0 245 162
3.601148571 -48.526824076 -0.089635878 0 245 159
3.596068103 -48.623082574 -0.078395777 0 247 147
3.591100658 -48.719357143 -0.067468393 0 249 135
3.588888937 -48.816097719 -0.064194946 0 250 129
3.590628350 -48.913511404 -0.071896279 0 249 138
3.595866788 -49.011525454 -0.089316547 0 245 159
3.600930991 -49.109514455 -0.106251712 0 242 177
3.602004374 -49.206822734 -0.112099492 0 241 183
3.599263150 -49.303476019 -0.107349303 0 242 180
3.594447369 -49.399770093 -0.096834851 0 244 168
3.589811639 -49.496092378 -0.086819332 0 246 156
3.584082241 -49.592222368 -0.073764369 0 248 141
3.576526386 -49.688031544 -0.055634250 0 252 120
3.570929897 -49.784176721 -0.042945964 0 254 105
3.570332669 -49.881190420 -0.044144454 0 254 108
3.573482818 -49.978859552 -0.055752074 0 252 120
3.577544092 -50.076691519 -0.069889711 0 249 138
3.578997484 -50.174069478 -0.076781453 0 248 144
3.576194352 -50.270700310 -0.071847237 0 249 138
3.570989891 -50.366906280 -0.060240783 0 251 126
3.565447228 -50.463049256 -0.047693527 0 253 111
3.560224896 -50.559245492 -0.036034918 4 255 100
3.555368825 -50.655503508 -0.025392557 18 255 94
3.553363656 -50.752265730 -0.022669023 22 255 92
3.555582000 -50.849780149 -0.031677643 11 255 97
3.561027177 -50.947873567 -0.049649622 0 253 114
3.565456777 -51.045790117 -0.064799127 0 250 132
3.565177645 -51.142865960 -0.066866105 0 250 132
3.561977048 -51.239417048 -0.060815712 0 251 126
3.558955144 -51.335998655 -0.055260533 0 252 120
3.558439266 -51.433031268 -0.056666252 0 251 123
3.560787121 -51.530582510 -0.066026694 0 250 132
3.564349432 -51.628356581 -0.078759959 0 247 147
3.566961103 -51.725961405 -0.088851078 0 245 159
3.566651100 -51.823036918 -0.090824151 0 245 159
3.562493281 -51.919410726 -0.082106116 0 247 150
3.556607262 -52.015466047 -0.068585576 0 249 135
3.552514727 -52.111846323 -0.060046431 0 251 126
3.548954211 -52.208321942 -0.052984116 0 252 117
3.545441711 -52.304804442 -0.046053979 0 253 111
3.542976221 -52.401478118 -0.042031455 0 254 105
3.543784378 -52.498755688 -0.047102698 0 253 111
3.547498907 -52.596572908 -0.060247398 0 251 126
3.552994480 -52.694724291 -0.078339173 0 247 147
3.559978634 -52.793157502 -0.100565519 0 243 171
3.566781095 -52.891563002 -0.122286000 0 239 195
3.569707272 -52.989250678 -0.133236060 0 237 207
3.568273015 -53.086125468 -0.132070515 0 237 207
3.564849533 -53.182626951 -0.125377159 0 239 198
3.561147095 -53.279074168 -0.117907559 0 240 189
3.556990747 -53.375433860 -0.109175635 0 242 180
3.552629405 -53.471752462 -0.099872944 0 243 171
3.549858480 -53.568369143 -0.094987704 0 244 165
3.549579417 -53.665456492 -0.097024461 0 244 168
3.551632803 -53.762987125 -0.105540375 0 242 177
3.555953769 -53.860951393 -0.120355261 0 240 192
3.556654240 -53.958229777 -0.125110058 0 239 198
3.551790256 -54.054446878 -0.114403664 0 241 186
3.544700054 -54.150235038 -0.097510782 0 244 168
3.539050007 -54.246294648 -0.084617902 0 246 153
3.537008421 -54.343043933 -0.081749455 0 247 150
3.540309079 -54.440820808 -0.093722656 0 245 162
3.546950724 -54.539245423 -0.114977324 0 241 186
3.552855513 -54.637533510 -0.134183633 0 237 210
3.555929500 -54.735278721 -0.145523734 0 235 222
3.556366247 -54.832515351 -0.149535368 0 234 225
3.556984696 -54.929788421 -0.154050693 0 233 231
3.559138784 -55.027361896 -0.162831525 0 232 240
3.561579536 -55.124993759 -0.172407702 0 230 252
3.562158456 -55.222264148 -0.176809756 0 229 255
3.558765794 -55.318757491 -0.170175811 0 230 249
3.553238516 -55.414829885 -0.157609703 0 233 234
3.547080441 -55.510774709 -0.143289689 0 235 219
3.539959185 -55.606525720 -0.126292226 0 238 201
3.533730817 -55.702448376 -0.111774358 0 241 183
3.532804116 -55.799416123 -0.111985893 0 241 183
3.535262431 -55.897055069 -0.121601529 0 239 195
3.537304813 -55.994614057 -0.130060361 0 238 204
3.538190470 -56.091945162 -0.135304079 0 237 210
3.537608525 -56.188985057 -0.136468878 0 237 210
3.533542567 -56.285329161 -0.127952059 0 238 201
3.529256417 -56.381626834 -0.118822198 0 240 192
3.529431614 -56.478816814 -0.122087182 0 239 195
3.529318586 -56.575949784 -0.124550153 0 239 198
3.526887696 -56.672616761 -0.120571631 0 240 192
3.531527525 -56.770708994 -0.136238408 0 237 210
3.529521552 -56.867462383 -0.133438205 0 237 207
3.531982973 -56.965119631 -0.143049845 0 235 219
3.527330623 -57.061336308 -0.132894083 0 237 207
3.527553474 -57.158541137 -0.136283326 0 237 210
3.526544804 -57.255496115 -0.136249491 0 237 210
3.526012631 -57.352548314 -0.137538480 0 236 213
3.526326363 -57.449773797 -0.141176750 0 236 216
3.527205943 -57.547116183 -0.146386140 0 235 222
3.526861313 -57.644208829 -0.148192744 0 234 225
3.533661207 -57.742770692 -0.169850265 0 230 249
3.531922463 -57.839579980 -0.167780830 0 231 246
3.529359769 -57.936218691 -0.163420726 0 232 240
3.523732237 -58.032222630 -0.150543257 0 234 228
3.515528928 -58.127689548 -0.130507282 0 238 204
3.508166157 -58.223325338 -0.112805592 0 241 186
3.504599743 -58.319745420 -0.105651538 0 242 177
3.504920538 -58.416973095 -0.109297661 0 242 180
3.507877998 -58.514751923 -0.120269147 0 240 192
3.512031290 -58.612783765 -0.134562386 0 237 210
3.515898106 -58.710759582 -0.148058476 0 234 225
3.518133389 -58.808396850 -0.157019869 0 233 234
3.518455275 -58.905634444 -0.160663309 0 232 237
3.516390793 -59.002370562 -0.157674492 0 233 234
3.513840287 -59.099003337 -0.153333941 0 233 231
3.512877850 -59.195970545 -0.153405041 0 233 231
3.514147516 -59.293410373 -0.159677451 0 232 237
3.515964111 -59.390967958 -0.167468503 0 231 246
3.514708376 -59.487874868 -0.166721097 0 231 246
3.507576662 -59.583530727 -0.149644425 0 234 225
3.498138850 -59.678690072 -0.126158295 0 238 201
3.489983200 -59.774116860 -0.106233718 0 242 177
3.483799570 -59.869960219 -0.091787720 0 245 162
3.481200656 -59.966568212 -0.087301750 0 246 156
3.483679885 -60.064265761 -0.096925876 0 244 168
3.490451054 -60.162889546 -0.118475458 0 240 192
3.498179738 -60.261725718 -0.142684736 0 235 219
3.501649208 -60.359648817 -0.155057250 0 233 231
3.499034161 -60.456259047 -0.150520675 0 234 228
3.492610826 -60.552042699 -0.135400197 0 237 210
3.485731880 -60.647723266 -0.119012368 0 240 192
3.480267413 -60.743706950 -0.106553930 0 242 177
3.475734756 -60.839890221 -0.096683634 0 244 168
3.471312327 -60.936094835 -0.087118417 0 246 156
3.465625912 -61.032020455 -0.074039475 0 248 141
3.460343843 -61.128031036 -0.062082918 0 250 129
3.460287661 -61.225184959 -0.064647442 0 250 132
3.466131009 -61.323636317 -0.083605158 0 246 153
3.473463008 -61.422420715 -0.106698634 0 242 177
3.478116867 -61.520620811 -0.122348653 0 239 195
3.478513228 -61.617884553 -0.126166228 0 238 201
3.475421166 -61.714377256 -0.120288497 0 240 192
3.469842380 -61.810316990 -0.107499054 0 242 180
3.463437213 -61.906069660 -0.092411874 0 245 162
3.459411220 -62.002347516 -0.083935094 0 246 153
3.458616159 -62.099343139 -0.084435793 0 246 153
3.459588497 -62.196733509 -0.089846899 0 245 159
3.460169781 -62.294037939 -0.094170115 0 244 165
3.458903699 -62.390929723 -0.093358340 0 245 162
3.456053137 -62.487465724 -0.088142095 0 246 156
3.451809403 -62.583687119 -0.079052997 0 247 147
3.446140642 -62.679585127 -0.066002481 0 250 132
3.443518852 -62.776166841 -0.061418353 0 251 126
3.447033460 -62.874133835 -0.073886321 0 248 141
3.453334053 -62.972734870 -0.094095548 0 244 165
3.456985284 -63.070740854 -0.106940970 0 242 177
3.455134864 -63.167500961 -0.104495874 0 243 174
3.446933190 -63.262815567 -0.084399035 0 246 153
3.430117494 -63.356161715 -0.040361863 0 255 102
3.409778895 -63.448691556 0.013467264 73 255 70
3.389096111 -63.541127818 0.068254494 146 255 38
3.369076137 -63.633700734 0.121201277 218 255 6
3.350550484 -63.726601832 0.169996708 238 242 0
3.335665204 -63.820325997 0.208676540 245 228 0
3.323165053 -63.914588494 0.240729166 251 217 0
3.302769737 -64.007021760 0.294725157 255 180 0
3.281388110 -64.099212307 0.351463854 255 123 0
3.261229659 -64.191670134 0.404804708 255 75 29
3.247210617 -64.285535861 0.441084434 255 47 80
3.241476512 -64.381314572 0.454339942 255 37 98
3.242991318 -64.478774958 0.447450366 255 43 87
3.249265068 -64.577345526 0.427335752 255 59 58
3.258267740 -64.676558239 0.399637932 255 78 22
3.266176502 -64.775523052 0.374981419 255 98 0
3.270435941 -64.873640658 0.360468321 255 115 0
3.271472900 -64.971006908 0.354912392 255 120 0
3.270144801 -65.067819404 0.355930706 255 117 0
3.264432805 -65.163600618 0.369134184 255 104 0
3.255439482 -65.258605221 0.391458603 255 84 11
3.249147734 -65.354241119 0.406275901 255 73 33
3.248383268 -65.451179252 0.405732563 255 75 29
3.252693768 -65.549318925 0.391085595 255 84 11
3.260392033 -65.648265942 0.367024151 255 107 0
3.270650167 -65.747827594 0.335849154 255 139 0
3.277792690 -65.846656767 0.313334440 255 161 0
3.273757432 -65.942828964 0.321887295 255 153 0
3.262977940 -66.037389335 0.349185735 255 126 0
3.253421042 -66.132234413 0.373087524 255 101 0
3.253888769 -66.229472954 0.369128838 255 104 0
3.267236613 -66.329801271 0.329373106 255 145 0
3.274728482 -66.428734102 0.305894171 255 169 0
3.264731005 -66.523466061 0.331025274 255 145 0
3.250852920 -66.617256041 0.366943308 255 107 0
3.240732598 -66.711943000 0.392418533 255 84 11
3.240402492 -66.808989461 0.390684371 255 84 11
3.247771009 -66.907900330 0.367553964 255 107 0
3.256765340 -67.007211876 0.339905883 255 134 0
3.263688560 -67.106028076 0.318015304 255 156 0
3.263677237 -67.203163454 0.315399634 255 158 0
3.253046551 -67.297712215 0.342300614 255 131 0
3.235879905 -67.390658578 0.387369076 255 88 3
3.218006106 -67.483419650 0.434404496 255 53 69
3.219002465 -67.580787166 0.428992988 255 57 62
3.220001265 -67.678156808 0.423575850 255 61 55
3.227798516 -67.777197477 0.399263942 255 78 22
3.228024312 -67.874382667 0.395997593 255 80 18
3.216665883 -67.968715139 0.424930274 255 59 58
3.208015424 -68.063707752 0.446337585 255 43 87
3.197049172 -68.158122216 0.474182889 255 24 124
3.187503399 -68.252880560 0.498081330 255 6 157
3.185467179 -68.349493779 0.501108309 255 4 161
3.195749470 -68.449164428 0.469897171 255 27 117
3.214999592 -68.551073575 0.413761029 255 69 40
3.225880977 -68.650914200 0.380886831 255 93 0
3.228173236 -68.748621681 0.371887220 255 101 0
3.225169468 -68.845008730 0.377609116 255 96 0
3.217439019 -68.940211677 0.396470125 255 80 18
3.214741388 -69.036670512 0.401343549 255 76 25
3.205280164 -69.131430667 0.425017830 255 59 58
3.198394098 -69.226831541 0.441535647 255 47 80
3.193528034 -69.322736361 0.452440024 255 39 95
3.192915853 -69.419710641 0.451521706 255 41 91
3.198603104 -69.518275780 0.433094875 255 53 69
3.205804075 -69.617228840 0.410461661 255 71 36
3.202407868 -69.713504314 0.417285181 255 65 47
3.191446657 -69.807859080 0.445137477 255 45 84
3.183111509 -69.902873275 0.465691718 255 29 113
3.183040841 -69.999984448 0.463275285 255 31 109
3.190529441 -70.099022446 0.439848244 255 49 76
3.194234322 -70.197101404 0.426939546 255 59 58
3.190763377 -70.293350027 0.433978005 255 53 69
3.185355370 -70.389100931 0.446401978 255 43 87
3.181002449 -70.485118892 0.455894442 255 37 98
3.174011385 -70.580456978 0.472721213 255 25 120
3.163538176 -70.674895140 0.499228386 255 6 157
3.159535379 -70.770992104 0.507751360 255 0 168
3.166538129 -70.869924863 0.485683858 255 16 139
3.178707872 -70.970198218 0.449254956 255 41 91
3.192582323 -71.070922610 0.408088610 255 73 33
3.198180950 -71.169514707 0.389927352 255 86 7
3.191542227 -71.362080234 0.403186439 255 76 25
3.187267505 -71.458111724 0.412473399 255 69 40
3.187403825 -71.555290077 0.409500230 255 71 36
3.186932702 -71.652310772 0.408216733 255 73 33
3.177711113 -71.747044987 0.431258147 255 55 66
3.170239185 -71.842230793 0.449437297 255 41 91
3.167408018 -71.938628003 0.454717681 255 37 98
3.168732441 -72.036114618 0.448447846 255 43 87
3.171039374 -72.133861288 0.439448042 255 49 76
3.169531914 -72.230606283 0.441052403 255 47 80
3.163360298 -72.326121161 0.455623128 255 37 98
3.152470761 -72.420386339 0.483309780 255 18 135
3.145691434 -72.515730714 0.499572337 255 6 157
3.148816184 -72.613693280 0.488305066 255 14 142
3.151276643 -72.711482838 0.478885509 255 20 131
3.153902562 -72.809318983 0.469007148 255 27 117
3.163500408 -72.909012149 0.439749468 255 49 76
3.171642049 -73.008325598 0.414540811 255 67 44
