ply
format ascii 1.0
comment coordinate_system ground
comment units millimeter
element vertex 870
property double x
property double y
property double z
property uchar red
property uchar green
property uchar blue
comment color_mapping zg_high_contrast_from_zg
comment color_zg_range_mm -0.382971242 49.886093345
end_header
3.844410278 -18.178938110 0.192374501 0 230 249
3.760927261 -18.271789884 0.420964945 0 231 243
3.770343887 -18.369193567 0.391555781 0 231 246
3.779616936 -18.466598084 0.362546192 0 231 246
3.783138771 -18.563720378 0.349509991 0 231 246
3.789800345 -18.661005765 0.327754896 0 231 246
3.801308916 -18.758545300 0.292539258 0 231 246
3.804699153 -18.855675561 0.279871356 0 231 246
3.808832328 -18.952847838 0.265141082 0 231 246
3.797460318 -19.049212110 0.293474581 0 231 246
3.772780535 -19.144866434 0.358769543 0 231 246
3.755281701 -19.240884161 0.404122291 0 231 243
3.754538209 -19.337785976 0.402941033 0 231 243
3.761356391 -19.435095610 0.380759310 0 231 246
3.769418045 -19.532478778 0.355124885 0 231 246
3.777923610 -19.629893197 0.328258411 0 231 246
3.788485546 -19.727428155 0.295681403 0 231 246
3.794174882 -19.824701882 0.276638470 0 231 246
3.789923506 -19.921425843 0.285206170 0 231 246
3.783625644 -20.018032302 0.299459082 0 231 246
3.779899320 -20.114780243 0.306570890 0 231 246
3.777323664 -20.211591674 0.310487925 0 231 246
3.773743897 -20.308344322 0.317195022 0 231 246
3.766489011 -20.404882798 0.334110959 0 231 246
3.759095307 -20.501408424 0.351413740 0 231 246
3.758629660 -20.598334536 0.349474908 0 231 246
3.761344641 -20.695448407 0.338702832 0 231 246
3.763125447 -20.792509778 0.330526488 0 231 246
3.760826806 -20.889329913 0.333682138 0 231 246
3.752925064 -20.985812619 0.352402023 0 231 246
3.745761899 -21.082334682 0.369071732 0 231 246
3.745157836 -21.179250934 0.367524073 0 231 246
3.750535787 -21.276533613 0.349361717 0 231 246
3.754137705 -21.373711840 0.336133476 0 231 246
3.752481138 -21.470567768 0.337512467 0 231 246
3.746424286 -21.567148847 0.351115104 0 231 246
3.738248345 -21.663593122 0.370605137 0 231 246
3.730923220 -21.760085613 0.387733164 0 231 246
3.725534428 -21.856696235 0.399483907 0 231 246
3.723159176 -21.953496042 0.402865104 0 231 243
3.725899721 -22.050623622 0.392037129 0 231 246
3.733011965 -22.148036761 0.369066691 0 231 246
3.739100673 -22.245389584 0.348940280 0 231 246
3.740302347 -22.342428143 0.342389860 0 231 246
3.740651207 -22.439412295 0.338209426 0 231 246
3.740595603 -22.536370736 0.335153583 0 231 246
3.738283072 -22.633179666 0.338368146 0 231 246
3.732837981 -22.729777852 0.350285565 0 231 246
3.726668870 -22.826323889 0.364215422 0 231 246
3.723688761 -22.923081970 0.369287945 0 231 246
3.720643431 -23.019834112 0.374542804 0 231 246
3.716060495 -23.116479385 0.384070112 0 231 246
3.713976756 -23.213294080 0.386656121 0 231 246
3.717660911 -23.310507488 0.373220586 0 231 246
3.726394645 -23.408076225 0.345758703 0 231 246
3.735791472 -23.505698904 0.316455636 0 231 246
3.739282373 -23.602913710 0.303559755 0 231 246
3.737061069 -23.699727551 0.306533145 0 231 246
3.733609779 -23.796452921 0.312924549 0 231 246
3.732462528 -23.893341335 0.312916530 0 231 246
3.735304238 -23.990516688 0.301828285 0 231 246
3.739499197 -24.087792912 0.286981694 0 231 246
3.741147248 -24.184887933 0.279211457 0 231 246
3.741090848 -24.281860406 0.276177295 0 231 246
3.740574357 -24.378799816 0.274422373 0 231 246
3.739353842 -24.475687614 0.274624370 0 231 246
3.735345139 -24.572368215 0.282573298 0 231 246
3.730593219 -24.668991054 0.292588145 0 231 246
3.726857512 -24.765687282 0.299781047 0 231 246
3.725342693 -24.862548916 0.300805232 0 231 246
3.727885301 -24.959717723 0.290558452 0 231 246
3.728163543 -25.056716775 0.286603431 0 231 246
3.718480353 -25.152954134 0.310323967 0 231 246
3.705933470 -25.248964488 0.342001686 0 231 246
3.698676616 -25.345375093 0.358984117 0 231 246
3.697535142 -25.442256192 0.358978056 0 231 246
3.699690482 -25.539394697 0.349813843 0 231 246
3.701746976 -25.636527895 0.340925269 0 231 246
3.701587311 -25.733488678 0.338194750 0 231 246
3.699685378 -25.830312050 0.340305782 0 231 246
3.695387055 -25.926943910 0.349075764 0 231 246
3.698032352 -26.024128912 0.338555597 0 231 246
3.696310476 -26.120965589 0.340169741 0 231 246
3.701014367 -26.218320888 0.323932237 0 231 246
3.695698444 -26.314867227 0.335533977 0 231 246
3.694274639 -26.411727719 0.336323320 0 231 246
3.701152489 -26.509268187 0.314048875 0 231 246
3.698958010 -26.606067822 0.316981555 0 231 246
3.697323867 -26.702912913 0.318358552 0 231 246
3.696588629 -26.799832240 0.317239163 0 231 246
3.697795055 -26.896913891 0.310726143 0 231 246
3.698291800 -26.993937747 0.306185965 0 231 246
3.694073118 -27.090565505 0.314748341 0 231 246
3.685418225 -27.186815360 0.335637676 0 231 246
3.675152614 -27.282922419 0.361003633 0 231 246
3.668791424 -27.379355833 0.375522625 0 231 246
3.669999139 -27.476434468 0.369012779 0 231 246
3.675835070 -27.573913648 0.349644490 0 231 246
3.690435733 -27.672156747 0.305924214 0 231 246
3.732659014 -27.772813383 0.185454489 0 230 249
3.769882592 -27.873066679 0.078876582 0 230 249
3.807919766 -27.973420748 -0.029961865 0 230 252
3.837804847 -28.073086708 -0.116149127 0 230 252
3.844734349 -28.170745372 -0.138552231 0 230 252
3.844663615 -28.267788101 -0.141503643 0 230 252
3.844008875 -28.364779452 -0.142831249 0 230 252
3.842516698 -28.461696036 -0.141830841 0 230 252
3.839211143 -28.558449038 -0.135790602 0 230 252
3.836301818 -28.655236116 -0.130850180 0 230 252
3.835039575 -28.752171283 -0.130485282 0 230 252
3.833262986 -28.849059384 -0.128690069 0 230 252
3.829158677 -28.945733809 -0.120425727 0 230 252
3.824761149 -29.042378918 -0.111345429 0 230 252
3.824836237 -29.139434361 -0.114692050 0 230 252
3.830093568 -29.236971083 -0.132437625 0 230 252
3.834732526 -29.334455080 -0.148463967 0 230 252
3.834382350 -29.431477084 -0.150625784 0 230 252
3.829820997 -29.528104359 -0.141084636 0 230 252
3.825233272 -29.624726441 -0.131469004 0 230 252
3.822751402 -29.721545065 -0.127703908 0 230 252
3.820666827 -29.818400326 -0.125041674 0 230 252
3.819377563 -29.915330652 -0.124588328 0 230 252
3.819790771 -30.012423849 -0.128864757 0 230 252
3.820878109 -30.109582988 -0.135013420 0 230 252
3.821251199 -30.206674801 -0.139176241 0 230 252
3.819467869 -30.303558669 -0.137345575 0 230 252
3.816686109 -30.400344798 -0.132739259 0 230 252
3.814378758 -30.497175938 -0.129450125 0 230 252
3.818249814 -30.594612122 -0.143329109 0 230 252
3.808657915 -30.690726366 -0.119794553 0 230 252
3.799750518 -30.786901700 -0.098160851 0 230 252
3.796108375 -30.883593509 -0.091157728 0 230 252
3.798538328 -30.980888245 -0.101027587 0 230 252
3.804485785 -31.078537429 -0.120671505 0 230 252
3.810035755 -31.176152079 -0.139209892 0 230 252
3.811836413 -31.273393947 -0.147327985 0 230 252
3.809317041 -31.370200973 -0.143439594 0 230 252
3.808785928 -31.467208763 -0.145075499 0 230 252
3.812037539 -31.564602519 -0.157222679 0 230 252
3.816015195 -31.662073859 -0.171386593 0 230 252
3.813803445 -31.758913405 -0.168348718 0 230 252
3.803746383 -31.854943318 -0.143506901 0 230 252
3.795097110 -31.951111960 -0.122576121 0 230 252
3.791840863 -32.047834834 -0.116631867 0 230 252
3.791765805 -32.144887603 -0.119527380 0 230 252
3.790056318 -32.241770114 -0.117879505 0 230 252
3.782971114 -32.338087625 -0.101290559 0 230 252
3.776404845 -32.434455177 -0.086142554 0 230 252
3.774805217 -32.531343828 -0.084796493 0 230 252
3.777779948 -32.628717661 -0.096162341 0 230 252
3.782981028 -32.726331785 -0.113714682 0 230 252
3.786547815 -32.823775955 -0.126724020 0 230 252
3.787141044 -32.920904564 -0.131468165 0 230 252
3.785657728 -33.017810788 -0.130440011 0 230 252
3.783227110 -33.114614283 -0.126777946 0 230 252
3.780184688 -33.211350348 -0.121414362 0 230 252
3.777124631 -33.308082953 -0.116000610 0 230 252
3.775582975 -33.404979868 -0.114805793 0 230 252
3.776396392 -33.502134560 -0.120155347 0 230 252
3.778868971 -33.599473193 -0.130115203 0 230 252
3.782070771 -33.696895025 -0.142100802 0 230 252
3.784705189 -33.794257267 -0.152508453 0 230 252
3.783825058 -33.891231662 -0.153146874 0 230 252
3.777280401 -33.987574342 -0.138040315 0 230 252
3.767675596 -34.083570273 -0.114427142 0 230 252
3.760590653 -34.179842628 -0.097816363 0 230 252
3.759393046 -34.276773816 -0.097567707 0 230 252
3.762164949 -34.374153759 -0.108350942 0 230 252
3.764014116 -34.471431934 -0.116568475 0 230 252
3.762738896 -34.568356618 -0.116100866 0 230 252
3.760611352 -34.665183757 -0.113263134 0 230 252
3.758900416 -34.762057810 -0.111582229 0 230 252
3.757106564 -34.858921811 -0.109669735 0 230 252
3.754138235 -34.955649711 -0.104491639 0 230 252
3.750114318 -35.052253919 -0.096378353 0 230 252
3.747324745 -35.148999210 -0.091694793 0 230 252
3.747726519 -35.246115081 -0.095880607 0 230 252
3.751017593 -35.343569897 -0.108096368 0 230 252
3.754676508 -35.441071196 -0.121333582 0 230 252
3.755508884 -35.538243437 -0.126713184 0 230 252
3.752222775 -35.634930806 -0.120643959 0 230 252
3.747222320 -35.731413358 -0.109808333 0 230 252
3.743863673 -35.828087991 -0.103535126 0 230 252
3.745832737 -35.925396085 -0.112069922 0 230 252
3.751209847 -36.023114160 -0.130076908 0 230 252
3.754151913 -36.120544958 -0.141314333 0 230 252
3.753587827 -36.217556720 -0.142804750 0 230 252
3.751323530 -36.314363510 -0.139567994 0 230 252
3.749546065 -36.411228341 -0.137683360 0 230 252
3.749171424 -36.508263107 -0.139697073 0 230 252
3.748584102 -36.605272453 -0.141118501 0 230 252
3.745085987 -36.701926126 -0.134447547 0 230 252
3.738295571 -36.798173957 -0.118623587 0 230 252
3.732465821 -36.894535604 -0.105468812 0 230 252
3.733611070 -36.991754734 -0.111701881 0 230 252
3.737480818 -37.089312972 -0.125507495 0 230 252
3.737525829 -37.186399825 -0.128680045 0 230 252
3.733200123 -37.282942839 -0.119701645 0 230 252
3.727203363 -37.379274439 -0.106076780 0 230 252
3.723606214 -37.475903108 -0.099121268 0 230 252
3.723350373 -37.572950055 -0.101453006 0 230 252
3.724496270 -37.670174446 -0.107680340 0 230 252
3.724867448 -37.767302483 -0.111752986 0 230 252
3.723592758 -37.864222702 -0.111249194 0 230 252
3.721038720 -37.960979866 -0.107187798 0 230 252
3.725427369 -38.058622418 -0.122425529 0 230 252
3.719481844 -38.154945540 -0.108933756 0 230 252
3.718648762 -38.251921659 -0.109653187 0 230 252
3.722808792 -38.349541300 -0.124252282 0 230 252
3.726260784 -38.447073440 -0.136882071 0 230 252
3.723689964 -38.543828362 -0.132767410 0 230 252
3.716109207 -38.639930795 -0.114723865 0 230 252
3.709959533 -38.736214794 -0.100657506 0 230 252
3.708928371 -38.833164227 -0.100819628 0 230 252
3.713560413 -38.930856442 -0.116724709 0 230 252
3.720288422 -39.028828732 -0.138455786 0 230 252
3.723443287 -39.126335603 -0.150252310 0 230 252
3.721664197 -39.223192879 -0.148330944 0 230 252
3.718361097 -39.319847355 -0.142171535 0 230 252
3.717423733 -39.416814927 -0.142588013 0 230 252
3.718873363 -39.514101162 -0.149639580 0 230 252
3.719651999 -39.611299500 -0.154824640 0 230 252
3.718105186 -39.708187079 -0.153543510 0 230 252
3.717408442 -39.805188706 -0.154624612 0 230 252
3.718705257 -39.902459738 -0.161247105 0 230 252
3.717942800 -39.999453764 -0.162143355 0 230 252
3.712582630 -40.095823750 -0.150255846 0 230 252
3.704482330 -40.191817317 -0.130748912 0 230 252
3.698929492 -40.288153294 -0.118323272 0 230 252
3.699076932 -40.385266332 -0.121744677 0 230 252
3.701771849 -40.482730090 -0.132247705 0 230 252
3.702403436 -40.579912604 -0.137013076 0 230 252
3.700245210 -40.676711178 -0.134020869 0 230 252
3.697784376 -40.773466991 -0.130186184 0 230 252
3.698356062 -40.870642785 -0.134781765 0 230 252
3.702121782 -40.968264551 -0.148256799 0 230 252
3.702506046 -41.065417888 -0.152329211 0 230 252
3.695962950 -41.161602440 -0.137139942 0 230 252
3.687847744 -41.257562046 -0.117578359 0 230 252
3.682227248 -41.353867405 -0.104951772 0 230 252
3.679027018 -41.450510889 -0.099053288 0 230 252
3.677758260 -41.547426104 -0.098523959 0 230 252
3.679548875 -41.644775365 -0.106499913 0 230 252
3.684019068 -41.742508152 -0.121925273 0 230 252
3.688765576 -41.840284611 -0.138117963 0 230 252
3.691218696 -41.937737373 -0.147932998 0 230 252
3.690737305 -42.034771808 -0.149587655 0 230 252
3.687935624 -42.131472887 -0.144789654 0 230 252
3.682868741 -42.227845877 -0.133692076 0 230 252
3.676075861 -42.323966147 -0.117794106 0 230 252
3.670109205 -42.420201800 -0.104192239 0 230 252
3.667364036 -42.516902049 -0.099546662 0 230 252
3.666866522 -42.613928649 -0.101149701 0 230 252
3.666605754 -42.710990270 -0.103409947 0 230 252
3.665994943 -42.808001194 -0.104695790 0 230 252
3.665384834 -42.905012552 -0.105982496 0 230 252
3.664845464 -43.002034662 -0.107464812 0 230 252
3.664592454 -43.099099455 -0.109742307 0 230 252
3.666398406 -43.196469764 -0.117743974 0 230 252
3.670031046 -43.294113478 -0.130824020 0 230 252
3.671255020 -43.391402240 -0.137205374 0 230 252
3.668672512 -43.488124653 -0.133001050 0 230 252
3.665583796 -43.584770136 -0.127387971 0 230 252
3.665356093 -43.681843233 -0.129729404 0 230 252
3.666506657 -43.779124243 -0.135902345 0 230 252
3.665706094 -43.876112745 -0.136648668 0 230 252
3.660684949 -43.972463414 -0.125657491 0 230 252
3.651239287 -44.068140473 -0.102361556 0 230 252
3.639784632 -44.163505821 -0.073477728 0 230 252
3.632618882 -44.259516448 -0.056519092 0 230 252
3.631012791 -44.356371361 -0.055019540 0 230 252
3.631934387 -44.453612808 -0.060547924 0 230 252
3.632263471 -44.550764828 -0.064427584 0 230 252
3.630646206 -44.647618434 -0.062893681 0 230 252
3.627918034 -44.744300242 -0.058269386 0 230 252
3.626304308 -44.841153079 -0.056743084 0 230 252
3.627840678 -44.938493793 -0.063975737 0 230 252
3.630170782 -45.035959839 -0.073414656 0 230 252
3.629259716 -45.132923548 -0.073839151 0 230 252
3.625542465 -45.229449111 -0.066458751 0 230 252
3.627024942 -45.326786665 -0.073537324 0 230 252
3.632759662 -45.424793515 -0.092440162 0 230 252
3.638587602 -45.522820248 -0.111601324 0 230 252
3.641701045 -45.620424161 -0.123212606 0 230 252
3.640563461 -45.717359200 -0.123000820 0 230 252
3.636625052 -45.813850286 -0.114998820 0 230 252
3.632335830 -45.910283408 -0.106020029 0 230 252
3.627574537 -46.006638850 -0.095727207 0 230 252
3.622480034 -46.102938236 -0.084506519 0 230 252
3.627968703 -46.200928034 -0.102717071 0 230 252
3.625583611 -46.297659857 -0.099029188 0 230 252
3.624397638 -46.394583454 -0.098675028 0 230 252
3.626157530 -46.491981742 -0.106512516 0 230 252
3.622750102 -46.588547347 -0.099978074 0 230 252
3.627138268 -46.686373597 -0.115123016 0 230 252
3.626262949 -46.783349599 -0.115628513 0 230 252
3.621351878 -46.879669045 -0.104908871 0 230 252
3.625112472 -46.977399871 -0.118305381 0 230 252
3.620659118 -47.073791525 -0.108856450 0 230 252
3.617972434 -47.170470058 -0.104319787 0 230 252
3.617407680 -47.267495863 -0.105683510 0 230 252
3.617412213 -47.364615763 -0.108629462 0 230 252
3.615790378 -47.461468074 -0.107051040 0 230 252
3.612162277 -47.557988077 -0.099891582 0 230 252
3.609280305 -47.654629793 -0.094806144 0 230 252
3.609994114 -47.751867643 -0.099720409 0 230 252
3.613605531 -47.849589488 -0.112692704 0 230 252
3.615343216 -47.947002094 -0.120452619 0 230 252
3.612027624 -48.043571239 -0.114156765 0 230 252
3.605258016 -48.139559318 -0.098253011 0 230 252
3.599344066 -48.235686827 -0.084727883 0 230 252
3.596643713 -48.332352047 -0.080139680 0 230 252
3.595206270 -48.429229265 -0.079062955 0 230 252
3.593647760 -48.526085685 -0.077648393 0 230 252
3.592927010 -48.623083828 -0.078562861 0 230 252
3.593868786 -48.720364901 -0.084100403 0 230 252
3.595419271 -48.817751234 -0.091329980 0 230 252
3.595924480 -48.914961026 -0.095651164 0 230 252
3.594189767 -49.011788562 -0.093741075 0 230 252
3.590072716 -49.108206819 -0.085203498 0 230 252
3.584378878 -49.204351565 -0.072278955 0 230 252
3.578993102 -49.300545819 -0.060210063 0 230 252
3.576191695 -49.397183118 -0.055328384 0 230 252
3.576223275 -49.494309486 -0.058325554 0 230 252
3.578885444 -49.591893081 -0.068638707 0 230 252
3.583740304 -49.689860799 -0.085049922 0 230 252
3.588338467 -49.787788324 -0.100746182 0 230 252
3.588419397 -49.884931240 -0.103876520 0 230 252
3.583061364 -49.981122991 -0.091876892 0 230 252
3.575724051 -50.076964204 -0.074370506 0 230 252
3.570513238 -50.173174422 -0.062777945 0 230 252
3.568788022 -50.269995569 -0.060879779 0 230 252
3.566664559 -50.366745864 -0.057872727 0 230 252
3.565058158 -50.463586827 -0.056302836 0 230 252
3.568919657 -50.561397080 -0.069941665 0 230 252
3.578473196 -50.660222781 -0.099412919 0 230 252
3.588560959 -50.759151798 -0.130369403 0 230 252
3.590643946 -50.856660495 -0.139058220 0 230 252
3.584453917 -50.952691635 -0.124732886 0 230 252
3.575951054 -51.048304174 -0.103972656 0 230 252
3.570511651 -51.144461345 -0.091732877 0 230 252
3.572579793 -51.241966827 -0.100376013 0 230 252
3.580486114 -51.340528090 -0.125258576 0 230 252
3.585361442 -51.438548193 -0.141708734 0 230 252
3.581697349 -51.535025498 -0.134403077 0 230 252
3.571815597 -51.630371737 -0.109799946 0 230 252
3.559290560 -51.725230163 -0.077842354 0 230 252
3.547888107 -51.820284450 -0.049006206 0 230 252
3.541185865 -51.916189679 -0.033243944 0 230 252
3.540270802 -52.013150333 -0.033579545 0 230 252
3.544119778 -52.110985342 -0.047166996 0 230 252
3.550461785 -52.209282578 -0.067688809 0 230 252
3.555105940 -52.307272616 -0.083486476 0 230 252
3.556168408 -52.404605609 -0.089319272 0 230 252
3.555758900 -52.501667826 -0.091056106 0 230 252
3.555775004 -52.598809453 -0.093975893 0 230 252
3.555927262 -52.695977192 -0.097273392 0 230 252
3.555192085 -52.792980601 -0.098101018 0 230 252
3.554743322 -52.890037686 -0.099724359 0 230 252
3.556814508 -52.987566403 -0.108357096 0 230 252
3.560039627 -53.085313723 -0.120199071 0 230 252
3.560468657 -53.182539362 -0.124261304 0 230 252
3.557009850 -53.279034691 -0.117506407 0 230 252
3.552630514 -53.375354617 -0.108189408 0 230 252
3.552429452 -53.472461267 -0.110495418 0 230 252
3.555720576 -53.570229603 -0.122515866 0 230 252
3.557256703 -53.667668392 -0.129652789 0 230 252
3.553335231 -53.764071884 -0.121605132 0 230 252
3.545557365 -53.859738716 -0.102827400 0 230 252
3.538252037 -53.955490529 -0.085363057 0 230 252
3.535810701 -54.052167593 -0.081429744 0 230 252
3.538276315 -54.149783759 -0.091147165 0 230 252
3.539856799 -54.247232691 -0.098401017 0 230 252
3.537192300 -54.343867018 -0.093843564 0 230 252
3.533288867 -54.440261276 -0.085838027 0 230 252
3.532004408 -54.537159164 -0.085117841 0 230 252
3.533119904 -54.634521322 -0.091073749 0 230 252
3.532283181 -54.731506576 -0.091597107 0 230 252
3.526691632 -54.827568121 -0.078890307 0 230 252
3.526571925 -54.924691444 -0.081406357 0 230 252
3.522416811 -55.021028284 -0.072693758 0 230 252
3.520166722 -55.117735069 -0.069280304 0 230 252
3.518389324 -55.214533491 -0.067180893 0 230 252
3.517127138 -55.311432440 -0.066513852 0 230 252
3.518163925 -55.408783220 -0.072242195 0 230 252
3.521263975 -55.506542056 -0.083710194 0 230 252
3.525334146 -55.604495564 -0.097876425 0 230 252
3.530370741 -55.702644136 -0.114730643 0 230 252
3.527341433 -55.799199102 -0.109141580 0 230 252
3.532839136 -55.897445475 -0.127276815 0 230 252
3.534531908 -55.994939990 -0.134824298 0 230 252
3.530899768 -56.091375303 -0.127554661 0 230 252
3.530546971 -56.188463483 -0.129408396 0 230 252
3.522075580 -56.283927819 -0.108671566 0 230 252
3.517379620 -56.380143269 -0.098438414 0 230 252
3.517811960 -56.477385921 -0.102473392 0 230 252
3.518884093 -56.574758455 -0.108287532 0 230 252
3.517325803 -56.671602262 -0.106781511 0 230 252
3.515185046 -56.768328004 -0.103653672 0 230 252
3.514371167 -56.865321444 -0.104216780 0 230 252
3.514771576 -56.962561285 -0.108157599 0 230 252
3.515429021 -57.059854454 -0.112812584 0 230 252
3.516088521 -57.157149345 -0.117472248 0 230 252
3.517020804 -57.254501172 -0.122889905 0 230 252
3.518934540 -57.352055047 -0.131037503 0 230 252
3.521211701 -57.449685589 -0.140195360 0 230 252
3.522594061 -57.547135169 -0.146862333 0 230 252
3.522325627 -57.644247413 -0.148934746 0 230 252
3.518185348 -57.740563185 -0.140232152 0 230 252
3.510370255 -57.836118643 -0.121302664 0 230 252
3.501746497 -57.931501779 -0.100121671 0 230 252
3.495651702 -58.027402605 -0.085976676 0 230 252
3.493609514 -58.124140052 -0.083107612 0 230 252
3.495383156 -58.221669609 -0.090855761 0 230 252
3.499328800 -58.319653484 -0.104646962 0 230 252
3.501243854 -58.417217700 -0.112786628 0 230 252
3.497605864 -58.513623908 -0.105472591 0 230 252
3.490594729 -58.609322007 -0.088770758 0 230 252
3.485396365 -58.705395664 -0.077112205 0 230 252
3.484262890 -58.802320149 -0.076764161 0 230 252
3.485439153 -58.899730727 -0.082842561 0 230 252
3.486685044 -58.997157691 -0.089113691 0 230 252
3.487245792 -59.094441671 -0.093477167 0 230 252
3.488813363 -59.191939967 -0.100641424 0 230 252
3.492904653 -59.289975370 -0.114827795 0 230 252
3.497140392 -59.388045407 -0.129415195 0 230 252
3.495856002 -59.484944823 -0.128639820 0 230 252
3.490838229 -59.581048142 -0.117473767 0 230 252
3.485341329 -59.677046061 -0.104973162 0 230 252
3.480027643 -59.773079738 -0.092981223 0 230 252
3.475740307 -59.869330104 -0.083844343 0 230 252
3.474059736 -59.966137704 -0.081960770 0 230 252
3.475066813 -60.063522953 -0.087555695 0 230 252
3.476813344 -60.161069126 -0.095207468 0 230 252
3.477869526 -60.258468405 -0.100937000 0 230 252
3.477331705 -60.355524561 -0.102229406 0 230 252
3.475770051 -60.452359279 -0.100671404 0 230 252
3.476195707 -60.549624916 -0.104643029 0 230 252
3.478554220 -60.647311931 -0.113992816 0 230 252
3.480196480 -60.744845552 -0.121348245 0 230 252
3.479206984 -60.841806991 -0.121378324 0 230 252
3.474415353 -60.937937382 -0.110825704 0 230 252
3.467733013 -61.033650866 -0.095009894 0 230 252
3.462794557 -61.129742522 -0.084046257 0 230 252
3.462727354 -61.226901572 -0.086638678 0 230 252
3.466600111 -61.324928650 -0.100195445 0 230 252
3.470580535 -61.422983252 -0.114050910 0 230 252
3.473222661 -61.520746093 -0.124180741 0 230 252
3.473508857 -61.617990442 -0.127752643 0 230 252
3.470714411 -61.714552926 -0.122749519 0 230 252
3.466428673 -61.810782905 -0.113594715 0 230 252
3.464319293 -61.907494479 -0.110495996 0 230 252
3.467863271 -62.005464929 -0.123130692 0 230 252
3.472712436 -62.103730238 -0.139397063 0 230 252
3.471186978 -62.200574741 -0.137920374 0 230 252
3.462625117 -62.295842839 -0.116858472 0 230 252
3.453595250 -62.391000123 -0.094492699 0 230 252
3.448949226 -62.487136518 -0.084327114 0 230 252
3.447180611 -62.583917938 -0.082169039 0 230 252
3.444847635 -62.680571512 -0.078439069 0 230 252
3.442599017 -62.777243137 -0.074942777 0 230 252
3.442685958 -62.874442347 -0.077946022 0 230 252
3.444583579 -62.972052865 -0.085987969 0 230 252
3.446817027 -63.069741895 -0.094963641 0 230 252
3.447117161 -63.166993705 -0.098557179 0 230 252
3.445128011 -63.263724954 -0.095777702 0 230 252
3.441057045 -63.359980344 -0.087202591 0 230 252
3.434558384 -63.455678394 -0.071869032 0 230 252
3.427889896 -63.551333335 -0.056061545 0 230 252
3.408439722 -63.644052059 -0.004675751 0 230 252
3.472201563 -63.755875877 -0.184905297 0 230 252
3.430555979 -64.232229181 -0.082728985 0 230 252
3.184183123 -83.803594518 0.070377241 0 230 249
3.199429622 -83.905571188 0.025366109 0 230 249
3.224030041 -84.010464448 -0.045706179 0 230 252
3.225996616 -84.108341788 -0.053715612 0 230 252
3.219643651 -84.203632075 -0.038544038 0 230 252
3.216385283 -84.299882556 -0.031993526 0 230 252
3.215631287 -84.396912665 -0.032419680 0 230 252
3.215505976 -84.494139350 -0.034596464 0 230 252
3.215688107 -84.591462861 -0.037628833 0 230 252
3.216235284 -84.688901594 -0.041677295 0 230 252
3.217453369 -84.786551877 -0.047594090 0 230 252
3.217443970 -84.883818505 -0.050089742 0 230 252
3.215887433 -84.980599576 -0.048273547 0 230 252
3.213820263 -85.077219501 -0.045033488 0 230 252
3.210940247 -85.173582458 -0.039527480 0 230 252
3.207394539 -85.269733930 -0.032165513 0 230 252
3.204605034 -85.366122285 -0.026909487 0 230 252
3.203451268 -85.463026562 -0.026210159 0 230 252
3.203193104 -85.560214295 -0.028005274 0 230 252
3.203348940 -85.657533840 -0.030952930 0 230 252
3.204386667 -85.755134193 -0.036356883 0 230 252
3.205580824 -85.852785821 -0.042195720 0 230 252
3.203978033 -85.949549159 -0.040240005 0 230 252
3.199989632 -86.045552007 -0.031635814 0 230 252
3.197497202 -86.142029694 -0.027198978 0 230 252
3.198502354 -86.239623175 -0.032507018 0 230 252
3.200744774 -86.337613795 -0.041261704 0 230 252
3.201199723 -86.435034688 -0.045034612 0 230 252
3.198974816 -86.531597760 -0.041339016 0 230 252
3.194551514 -86.627454401 -0.031516419 0 230 252
3.188732030 -86.722859803 -0.017802149 0 230 252
3.183307106 -86.818388381 -0.005186171 0 230 252
3.180795256 -86.914851704 -0.000686533 0 230 252
3.180769083 -87.012115337 -0.003112371 0 230 252
3.179699466 -87.109042846 -0.002629517 0 230 252
3.176580098 -87.205307763 0.003566263 0 230 252
3.172801650 -87.301357739 0.011599760 0 230 249
3.171383073 -87.398170129 0.013058261 0 230 249
3.174252656 -87.496373170 0.002568194 0 230 252
3.178777748 -87.595116838 -0.012534274 0 230 252
3.181075859 -87.693140648 -0.021429950 0 230 252
3.180408604 -87.790201644 -0.022061087 0 230 252
3.176894169 -87.886334904 -0.014756923 0 230 252
3.172564321 -87.982200119 -0.005179318 0 230 252
3.169354969 -88.078428804 0.001276902 0 230 252
3.167587295 -88.175127313 0.003716636 0 230 252
3.167644952 -88.272422954 0.001070683 0 230 252
3.168997748 -88.370144016 -0.005183509 0 230 252
3.170096795 -88.467783584 -0.010729568 0 230 252
3.170420838 -88.565170061 -0.014114851 0 230 252
3.170057759 -88.662331462 -0.015584240 0 230 252
3.171313699 -88.760026650 -0.021564517 0 230 252
3.174206724 -88.858263461 -0.032106093 0 230 252
3.173848806 -88.955429860 -0.033586829 0 230 252
3.168859077 -89.051065607 -0.022158309 0 230 252
3.162703168 -89.146312292 -0.007478637 0 230 252
3.156458025 -89.241525398 0.007450902 0 230 252
3.151034473 -89.337006968 0.020091933 0 230 249
3.151126821 -89.434317001 0.017361779 0 230 249
3.154211046 -89.532622656 0.006294499 0 230 252
3.159580146 -89.631692054 -0.011139652 0 230 252
3.166386954 -89.731245505 -0.032579743 0 230 252
3.169761681 -89.829659816 -0.044453894 0 230 252
3.166151983 -89.925744350 -0.036861659 0 230 252
3.158155045 -90.020359591 -0.017041101 0 230 252
3.149689016 -90.114812331 0.004088043 0 230 252
3.144138654 -90.210236627 0.017092412 0 230 249
3.142043216 -90.306816832 0.020468962 0 230 249
3.140440604 -90.403561744 0.022473057 0 230 249
3.136674202 -90.499578329 0.030508824 0 230 249
3.140559303 -90.598169435 0.017220429 0 230 249
3.136977613 -90.694246919 0.024743525 0 230 249
3.136885370 -90.791500168 0.022542310 0 230 249
3.138270188 -90.889253214 0.016225384 0 230 249
3.140599493 -90.987327598 0.007277044 0 230 252
3.142271516 -91.085181915 0.000161598 0 230 252
3.140327923 -91.181812298 0.003124386 0 230 252
3.135169812 -91.277350709 0.015047622 0 230 249
3.129700701 -91.372780180 0.027838823 0 230 249
3.128594922 -91.469690731 0.028469764 0 230 249
3.132901064 -91.568444601 0.014017646 0 230 249
3.138379735 -91.667602391 -0.003701652 0 230 252
3.142038515 -91.766143855 -0.016347624 0 230 252
3.143668646 -91.863995532 -0.023338343 0 230 252
3.135940827 -91.958647186 -0.004245127 0 230 252
3.136765595 -92.056223365 -0.008989011 0 230 252
3.140548175 -92.154815291 -0.021976140 0 230 252
3.132440455 -92.249328561 -0.001820633 0 230 252
3.129403764 -92.345579309 0.004201606 0 230 252
3.132425473 -92.443913180 -0.006661732 0 230 252
3.137464454 -92.542945067 -0.023146932 0 230 252
3.139603235 -92.640981372 -0.031547394 0 230 252
3.136407089 -92.737178098 -0.025076560 0 230 252
3.133515190 -92.833478254 -0.019452674 0 230 252
3.133336585 -92.930715822 -0.021390680 0 230 252
3.131853821 -93.027502195 -0.019692458 0 230 252
3.127404464 -93.123259301 -0.009724080 0 230 252
3.123710267 -93.219275895 -0.001859517 0 230 252
3.122542072 -93.316168378 -0.001034902 0 230 252
3.123855248 -93.413924150 -0.007125927 0 230 252
3.128177399 -93.512729889 -0.021603358 0 230 252
3.132329106 -93.611480268 -0.035604777 0 230 252
3.130748906 -93.708233382 -0.033627690 0 230 252
3.125676795 -93.803765505 -0.021915855 0 230 252
3.121841759 -93.899727305 -0.013651233 0 230 252
3.120963501 -93.996722623 -0.013627578 0 230 252
3.119666469 -94.093571141 -0.012435539 0 230 252
3.116190416 -94.189654399 -0.005168325 0 230 252
3.114447307 -94.286344759 -0.002730692 0 230 252
3.115352068 -94.383966144 -0.007673132 0 230 252
3.117128982 -94.481896164 -0.015045782 0 230 252
3.118701896 -94.579756360 -0.021848792 0 230 252
3.120925863 -94.677848332 -0.030465713 0 230 252
3.124305871 -94.776351297 -0.042304285 0 230 252
3.126803708 -94.874545516 -0.051682753 0 230 252
3.125997906 -94.971572363 -0.051850880 0 230 252
3.121505623 -95.067292264 -0.041741302 0 230 252
3.116864576 -95.162956617 -0.031215886 0 230 252
3.114989215 -95.259600835 -0.028399209 0 230 252
3.113781293 -95.356481753 -0.027442096 0 230 252
3.110529463 -95.452634627 -0.020786101 0 230 252
3.105096119 -95.548008031 -0.008047539 0 230 252
3.099012572 -95.643145918 0.006504774 0 230 252
3.095748174 -95.739287005 0.013199164 0 230 249
3.096790084 -95.836966445 0.007889666 0 230 252
3.099969301 -95.935412656 -0.003377190 0 230 252
3.102342134 -96.033573032 -0.012395081 0 230 252
3.103333245 -96.131240196 -0.017560046 0 230 252
3.104401719 -96.228936646 -0.022939700 0 230 252
3.103625190 -96.325971216 -0.023174810 0 230 252
3.099283634 -96.421722603 -0.013470149 0 230 252
3.093759104 -96.517045061 -0.000466397 0 230 252
3.088711876 -96.612536156 0.011207853 0 230 249
3.084083376 -96.708175288 0.021715877 0 230 249
3.081741369 -96.804638179 0.025850530 0 230 249
3.084042021 -96.902780195 0.017042943 0 230 249
3.088734976 -97.001791439 0.001566756 0 230 252
3.092418059 -97.100440779 -0.011093083 0 230 252
3.094220945 -97.198411057 -0.018510115 0 230 252
3.096088269 -97.296406876 -0.026105831 0 230 252
3.097691540 -97.394308793 -0.032964413 0 230 252
3.097057489 -97.491397776 -0.033584403 0 230 252
3.094978810 -97.587960257 -0.030175745 0 230 252
3.093502618 -97.684741763 -0.028445761 0 230 252
3.092604955 -97.781734240 -0.028327683 0 230 252
3.089130990 -97.877784390 -0.021025746 0 230 252
3.083597027 -97.973078273 -0.007979332 0 230 252
3.081250645 -98.069537011 -0.003818941 0 230 252
3.083623850 -98.167726460 -0.012816046 0 230 252
3.087008781 -98.266290104 -0.024632985 0 230 252
3.088181820 -98.364043747 -0.030282024 0 230 252
3.087270947 -98.461031929 -0.030119895 0 230 252
3.085215362 -98.557598314 -0.026765130 0 230 252
3.082448337 -98.653901396 -0.021425712 0 230 252
3.080181108 -98.750387612 -0.017478719 0 230 252
3.077530951 -98.846731243 -0.012462992 0 230 252
3.073501357 -98.942563100 -0.003600070 0 230 252
3.070371930 -99.038726000 0.002754126 0 230 252
3.070151580 -99.135965916 0.000998306 0 230 252
3.071253546 -99.233697223 -0.004443402 0 230 252
3.071898556 -99.331260303 -0.008610032 0 230 252
3.071773382 -99.428538113 -0.010628209 0 230 252
3.070920840 -99.525545702 -0.010617288 0 230 252
3.068571773 -99.621995522 -0.006432623 0 230 252
3.065788215 -99.718282117 -0.001035406 0 230 252
3.064857952 -99.815259520 -0.000804642 0 230 252
3.066778045 -99.913302694 -0.008520518 0 230 252
3.069048272 -100.011479124 -0.017211719 0 230 252
3.068729903 -100.108688125 -0.018684103 0 230 252
3.066541702 -100.205196276 -0.014941735 0 230 252
3.063215201 -100.301276063 -0.008024316 0 230 252
3.060678458 -100.397650817 -0.003307942 0 230 252
3.061579481 -100.495317719 -0.008176309 0 230 252
3.065912700 -100.594278666 -0.022614020 0 230 252
3.070645687 -100.693394399 -0.038165552 0 230 252
3.072137555 -100.791291332 -0.044678587 0 230 252
3.070327443 -100.887942706 -0.041983298 0 230 252
3.066365381 -100.983779592 -0.033286355 0 230 252
3.060167406 -101.078767704 -0.018353550 0 230 252
3.050742300 -101.172528828 0.005579193 0 230 252
3.041494743 -101.266350715 0.029018091 0 230 249
3.046967821 -101.365755835 0.011409742 0 230 249
3.047518325 -101.463294811 0.007528919 0 230 252
3.045373992 -101.559809561 0.011163706 0 230 249
3.043076960 -101.656265199 0.015225363 0 230 249
3.044398809 -101.754099528 0.009196647 0 230 252
3.048330917 -101.852931806 -0.004109970 0 230 252
3.043049650 -101.948247949 0.008276514 0 230 252
3.044236161 -102.046034174 0.002628166 0 230 252
3.044040275 -102.143292823 0.000835742 0 230 252
3.044899839 -102.240956481 -0.003898913 0 230 252
3.045578399 -102.338552081 -0.008127834 0 230 252
3.043354501 -102.435034435 -0.004261857 0 230 252
3.039901113 -102.531043200 0.003033799 0 230 252
3.046703566 -102.630995958 -0.018269568 0 230 252
3.047141291 -102.728503381 -0.021822922 0 230 252
3.048828891 -102.826493710 -0.028860799 0 230 252
3.043847266 -102.921912301 -0.017299220 0 230 252
3.045201659 -103.019775355 -0.023405876 0 230 252
3.045570672 -103.117259127 -0.026763603 0 230 252
3.048431646 -103.215708470 -0.037069775 0 230 252
3.053623416 -103.315063833 -0.053875040 0 230 252
3.055640370 -103.413192566 -0.061825606 0 230 252
3.052006235 -103.509129592 -0.054015572 0 230 252
3.026767598 -103.596668435 0.014046065 0 230 249
3.006205781 -103.686007777 0.069066610 0 230 249
3.001822525 -103.781631833 0.078969584 0 230 249
2.976216169 -112.338461009 -0.049940974 0 230 252
-14.934902771 -116.425761025 49.673448663 255 2 164
-14.960089061 -116.504336440 49.741890390 255 0 168
-14.985589410 -116.582743924 49.811210579 255 0 168
-14.997536006 -116.667563467 49.842690499 255 0 168
-15.002652867 -116.755617656 49.855103064 255 0 168
-15.006431019 -116.844304658 49.863779012 255 0 168
-15.009431967 -116.933358939 49.870286031 255 0 168
-15.010953105 -117.023115887 49.872662386 255 0 168
-15.011335035 -117.113414947 49.871858994 255 0 168
-15.012096281 -117.203533357 49.872115632 255 0 168
-15.013006421 -117.293580638 49.872788958 255 0 168
-15.011932138 -117.384575517 49.867922561 255 0 168
-15.007755958 -117.477054458 49.854396256 255 0 168
-15.003799464 -117.569432065 49.841484178 255 0 168
-15.004216834 -117.659719152 49.840785336 255 0 168
-15.006356597 -117.749181116 49.844896617 255 0 168
-15.006558161 -117.839571407 49.843597138 255 0 168
-15.004321459 -117.931132285 49.835490556 255 0 168
-15.002345359 -118.022570240 49.828112507 255 0 168
-15.003124559 -118.112685714 49.828428684 255 0 168
-15.004938061 -118.202303485 49.831633807 255 0 168
-15.003999804 -118.293245323 49.827156402 255 0 168
-15.002737448 -118.384344580 49.821774951 255 0 168
-15.003617888 -118.474411915 49.822377624 255 0 168
-15.005723561 -118.563887701 49.826402432 255 0 168
-15.008689157 -118.652946976 49.832829373 255 0 168
-15.012428395 -118.741630446 49.841417566 255 0 168
-15.016986961 -118.829915107 49.852294606 255 0 168
-15.019243027 -118.919311642 49.856743401 255 0 168
-15.018731438 -119.010048150 49.853465003 255 0 168
-15.018153674 -119.100817658 49.850002747 255 0 168
-15.018539991 -119.191120173 49.849233470 255 0 168
-15.017904708 -119.281919157 49.845612459 255 0 168
-15.015167485 -119.373741016 49.836122961 255 0 168
-15.012253601 -119.465651460 49.826141024 255 0 168
-15.010788075 -119.556859415 49.820204352 255 0 168
-15.012147998 -119.646692102 49.822158410 255 0 168
-15.017087263 -119.734778545 49.834108505 255 0 168
-15.024206081 -119.821797810 49.852145946 255 0 168
-15.030518824 -119.909205805 49.867933582 255 0 168
-15.034256195 -119.997868439 49.876530670 255 0 168
-15.036129234 -120.087440825 49.879922681 255 0 168
-15.037747406 -120.177137051 49.882603963 255 0 168
-15.038602616 -120.267206404 49.883155644 255 0 168
-15.038728683 -120.357633186 49.881672137 255 0 168
-15.039904517 -120.447545121 49.883121082 255 0 168
-15.041625499 -120.537188857 49.886093345 255 0 168
-15.041654321 -120.627663614 49.884341132 255 0 168
-15.039902831 -120.719014735 49.877618198 255 0 168
-15.038235033 -120.810326504 49.871129875 255 0 168
-15.036782988 -120.901533749 49.865244953 255 0 168
-15.032916754 -120.993933179 49.852619036 255 0 168
-15.026615646 -121.087537817 49.833194264 255 0 168
-15.021992234 -121.180319182 49.818455459 255 0 168
-15.022113873 -121.270759069 49.816968744 255 0 168
-15.026652390 -121.359014294 49.827817826 255 0 168
-15.032254753 -121.446739778 49.841638941 255 0 168
-15.036359932 -121.535203229 49.851279963 255 0 168
-15.038655674 -121.624561229 49.855868805 255 0 168
-15.038608287 -121.715080737 49.853914946 255 0 168
-15.036798553 -121.806476040 49.847040257 255 0 168
-15.035260788 -121.897738058 49.840925997 255 0 168
-15.034918852 -121.988406922 49.838152288 255 0 168
-15.035855975 -122.078439803 49.838951619 255 0 168
-15.039010087 -122.167367928 49.845943474 255 0 168
-15.044465405 -122.255146724 49.859363140 255 0 168
-15.046974637 -122.344391806 49.864556030 255 0 168
-15.043896221 -122.436425724 49.854144615 255 0 168
-15.042077297 -122.527833077 49.847251605 255 0 168
-15.042889389 -122.617926432 49.847707504 255 0 168
-15.045384512 -122.707177221 49.852864827 255 0 168
-15.048947293 -122.795891736 49.861004978 255 0 168
-15.053121324 -122.884297534 49.870853307 255 0 168
-15.054752114 -122.973976517 49.873599660 255 0 168
-15.050954787 -123.066380118 49.861186730 255 0 168
-15.044916505 -123.159913182 49.842515816 255 0 168
-15.041479117 -123.252143514 49.831109811 255 0 168
-15.041655079 -123.342558553 49.829796555 255 0 168
-15.042719102 -123.432526665 49.830964555 255 0 168
-15.042230001 -123.523277254 49.827795677 255 0 168
-15.041050686 -123.614376858 49.822699953 255 0 168
-15.043042663 -123.703876951 49.826462555 255 0 168
-15.048506660 -123.791621905 49.839923545 255 0 168
-15.053723874 -123.879487856 49.852696335 255 0 168
-15.056278185 -123.968697593 49.858032592 255 0 168
-15.056476244 -124.059098943 49.856788699 255 0 168
-15.055962800 -124.149861168 49.853558466 255 0 168
-15.054890629 -124.240907619 49.848768577 255 0 168
-15.053498923 -124.332117548 49.843087099 255 0 168
-15.053363224 -124.422691078 49.840914673 255 0 168
-15.055391334 -124.512165296 49.844786951 255 0 168
-15.057082617 -124.601809750 49.847719405 255 0 168
-15.055543967 -124.693097675 49.841631157 255 0 168
-15.053087818 -124.784854707 49.832981077 255 0 168
-15.053314963 -124.875245999 49.831826759 255 0 168
-15.058488884 -124.963113470 49.844490633 255 0 168
-15.059046938 -125.053334441 49.844262540 255 0 168
2.919388892 -134.918232650 -0.382971242 0 229 255
2.820490539 -134.964901281 -0.108768325 0 230 252
2.834428780 -135.069530378 -0.149700692 0 230 252
2.847119055 -135.173528472 -0.187147019 0 229 255
2.844450877 -135.269625498 -0.181698062 0 230 252
2.838541757 -135.364050243 -0.167196418 0 230 252
2.834934265 -135.459658326 -0.159121954 0 230 252
2.835918122 -135.557634586 -0.163869814 0 230 252
2.840380219 -135.657409258 -0.178331306 0 230 252
2.845224441 -135.757385507 -0.193859220 0 229 255
2.847333870 -135.855950919 -0.201748094 0 229 255
2.842764092 -135.951059723 -0.190981128 0 229 255
2.835961778 -136.045008530 -0.173977625 0 230 252
2.832392266 -136.140629164 -0.166002265 0 230 252
2.831871346 -136.237829787 -0.166540665 0 230 252
2.831340183 -136.335025206 -0.167049497 0 230 252
2.830744750 -136.432187325 -0.167377862 0 230 252
2.830835087 -136.529706220 -0.169620664 0 230 252
2.831856487 -136.627710380 -0.174463049 0 230 252
2.835057455 -136.726851301 -0.185392241 0 230 252
2.840834921 -136.827338459 -0.203516980 0 229 255
2.845970180 -136.927495567 -0.219847160 0 229 255
2.846013459 -137.024998571 -0.221953986 0 229 255
2.840922266 -137.119819332 -0.209718589 0 229 255
2.833326587 -137.213327067 -0.190486717 0 229 255
2.825887567 -137.306911388 -0.171691286 0 230 252
2.821993569 -137.402346867 -0.162796588 0 230 252
2.823786197 -137.500759968 -0.169784658 0 230 252
2.826243066 -137.599523335 -0.178627182 0 230 252
2.825006995 -137.696350926 -0.177153663 0 230 252
2.819854469 -137.791121038 -0.164739636 0 230 252
2.812397625 -137.884676468 -0.145888033 0 230 252
2.804706591 -137.978103423 -0.126381152 0 230 252
2.799388850 -138.072774192 -0.113502361 0 230 252
2.798886078 -138.169977771 -0.114072023 0 230 252
2.800668202 -138.268385995 -0.121023096 0 230 252
2.802157837 -138.366641805 -0.127156261 0 230 252
2.803181983 -138.464653523 -0.131988264 0 230 252
2.804209181 -138.562668153 -0.136827875 0 230 252
2.806539229 -138.661372936 -0.145305867 0 230 252
2.812518621 -138.762010953 -0.163976857 0 230 252
2.820432464 -138.863678421 -0.188050671 0 229 255
2.825541164 -138.963866120 -0.204287928 0 229 255
2.824212557 -139.060644709 -0.202542502 0 229 255
2.818793625 -139.155252151 -0.189370202 0 229 255
2.814351799 -139.250374780 -0.178926285 0 230 252
2.812808839 -139.347035047 -0.176579070 0 230 252
2.814004838 -139.445151289 -0.181881975 0 230 252
2.817428564 -139.544454608 -0.193407001 0 229 255
2.822126628 -139.644439816 -0.208490983 0 229 255
2.827899581 -139.745002091 -0.226576808 0 229 255
2.833799547 -139.845637098 -0.245016647 0 229 255
2.835710161 -139.944147747 -0.252311453 0 229 255
2.829647047 -140.038401053 -0.237330705 0 229 255
2.819235532 -140.130325664 -0.210201526 0 229 255
2.810345502 -140.223056583 -0.187321467 0 229 255
2.803848147 -140.317061963 -0.171124291 0 230 252
2.797676950 -140.411237510 -0.155837153 0 230 252
2.791407042 -140.505355827 -0.140273171 0 230 252
2.786638458 -140.600275219 -0.128902167 0 230 252
2.788163326 -140.698570286 -0.135111455 0 230 252
2.794360900 -140.799377575 -0.154373541 0 230 252
2.799220807 -140.899470947 -0.169897909 0 230 252
2.801187585 -140.998011915 -0.177339129 0 230 252
2.801419928 -141.095620995 -0.179934063 0 230 252
2.799881141 -141.192276392 -0.177580142 0 230 252
2.796641150 -141.288013744 -0.170472648 0 230 252
2.796069040 -141.385188680 -0.170817340 0 230 252
2.798437164 -141.483951384 -0.179375191 0 230 252
2.799743859 -141.582142823 -0.184966844 0 230 252
2.799763270 -141.679639620 -0.186961284 0 229 255
2.799287850 -141.776869124 -0.187572367 0 229 255
2.797689351 -141.873490524 -0.185044910 0 230 252
2.794035782 -141.968997418 -0.176775117 0 230 252
2.791586050 -142.065154831 -0.171867540 0 230 252
2.793192510 -142.163512206 -0.178291063 0 230 252
2.796909744 -142.263017694 -0.190610752 0 229 255
2.799979528 -142.362174657 -0.201120751 0 229 255
2.802056100 -142.460794280 -0.208855036 0 229 255
2.803850649 -142.559262492 -0.215800517 0 229 255
2.805341277 -142.657567034 -0.221895999 0 229 255
2.805709230 -142.755261282 -0.224853995 0 229 255
2.803084441 -142.851323906 -0.219449754 0 229 255
2.796886119 -142.945434394 -0.204060505 0 229 255
2.788075484 -143.038113620 -0.181371658 0 230 252
2.775951387 -143.128975278 -0.149424172 0 230 252
2.764523550 -143.220208828 -0.119420746 0 230 252
2.765261813 -143.318093567 -0.123407284 0 230 252
2.773197109 -143.419921737 -0.147500972 0 230 252
2.781437923 -143.521924019 -0.172447521 0 230 252
2.785428697 -143.621601782 -0.185518890 0 230 252
2.789826361 -143.721506472 -0.199726260 0 229 255
2.724827324 -143.783292953 -0.020039306 0 230 252
