ply
format ascii 1.0
comment coordinate_system ground
comment units millimeter
element vertex 1243
property double x
property double y
property double z
property uchar red
property uchar green
property uchar blue
comment color_mapping zg_high_contrast_from_zg
comment color_zg_range_mm -0.159210477 0.717720504
end_header
6.423947711 147.086691200 0.157822695 149 255 36
6.419199556 146.987290613 0.165860601 156 255 33
6.413011560 146.887029411 0.177863762 171 255 27
6.410248981 146.788823868 0.180436935 175 255 25
6.411024226 146.692737377 0.173270471 167 255 28
6.410991352 146.596165684 0.168329852 160 255 32
6.409013555 146.498429982 0.168745083 160 255 32
6.405256663 146.399631578 0.174059674 167 255 28
6.403658592 146.302124109 0.173431306 167 255 28
6.405221892 146.206503427 0.164099511 156 255 33
6.406331456 146.110609840 0.156017854 149 255 36
6.405567182 146.013597445 0.153096435 146 255 38
6.401946643 145.914883193 0.158040346 149 255 36
6.395323513 145.814383238 0.171252618 164 255 30
6.388908047 145.714010754 0.183894187 178 255 24
6.385492973 145.615425812 0.188275436 182 255 22
6.385025932 145.518593884 0.184540395 178 255 24
6.385696165 145.422436471 0.177674807 171 255 27
6.385809661 145.325947101 0.172343049 164 255 30
6.384692826 145.228726975 0.170399893 164 255 30
6.381572395 145.130319251 0.173974588 167 255 28
6.378166735 145.031743883 0.178335651 171 255 27
6.378554239 144.935414997 0.172253055 164 255 30
6.381297169 144.840477890 0.159685528 153 255 35
6.381464895 144.744015427 0.154209826 146 255 38
6.374713463 144.643464526 0.167787532 160 255 32
6.365135505 144.541249081 0.189149467 182 255 22
6.358369032 144.440698466 0.202770814 197 255 16
6.364322931 144.347651461 0.181365987 175 255 25
6.362926001 144.250267805 0.180203486 175 255 25
6.362821397 144.153645060 0.175483279 167 255 28
6.365602570 144.058719388 0.162817460 156 255 33
6.370042374 143.964765877 0.145585081 135 255 43
6.362323506 143.863662612 0.161834923 153 255 35
6.369198199 143.771134793 0.137899224 127 255 46
6.364487349 143.671800988 0.145867789 138 255 41
6.357869912 143.571351410 0.159087662 149 255 36
6.348894825 143.469523844 0.178801051 171 255 27
6.339773282 143.367616230 0.198918911 193 255 17
6.333450138 143.267352626 0.211331702 207 255 11
6.330825211 143.169256244 0.213561366 207 255 11
6.328972663 143.071612336 0.213665002 207 255 11
6.327435325 142.974152920 0.212901545 207 255 11
6.329068766 142.878544920 0.203407142 197 255 16
6.337333428 142.786803854 0.175652026 167 255 28
6.348763844 142.696901416 0.139179416 131 255 44
6.354220303 142.603508012 0.119159071 109 255 54
6.350250471 142.504619986 0.125098711 113 255 52
6.339503034 142.401789543 0.149704451 142 255 40
6.327096156 142.298001086 0.178881425 171 255 27
6.317983275 142.196135492 0.198988114 193 255 17
6.315562125 142.098162510 0.200667074 197 255 16
6.318056208 142.003043344 0.188810468 182 255 22
6.324120952 141.909992446 0.167121047 160 255 32
6.331146189 141.817492658 0.142787116 135 255 43
6.332477717 141.721688044 0.134134577 124 255 48
6.327662017 141.622322541 0.142412699 135 255 43
6.321743090 141.522321363 0.153730227 146 255 38
6.318190821 141.423691948 0.158530851 149 255 36
6.315168202 141.325370196 0.161873768 153 255 35
6.311490008 141.226671144 0.167023200 160 255 32
6.310327443 141.129425416 0.165245271 156 255 33
6.313011560 141.034397694 0.152873953 146 255 38
6.316657855 140.939921344 0.137853460 127 255 46
6.317327975 140.843727217 0.131030664 120 255 49
6.315234345 140.745940961 0.131820637 120 255 49
6.311670040 140.647309411 0.136662112 127 255 46
6.305610703 140.547245498 0.148376460 138 255 41
6.294479600 140.444272075 0.174060724 167 255 28
6.281704846 140.340362623 0.204273248 200 255 14
6.278958718 140.242214324 0.206865560 200 255 14
6.287986697 140.150816301 0.177029662 171 255 27
6.295813119 140.058722052 0.150503837 142 255 40
6.296321199 139.962431288 0.144135660 135 255 43
6.288933070 139.861621765 0.159517095 153 255 35
6.282188328 139.761184637 0.173127542 167 255 28
6.284482209 139.665915594 0.161843520 153 255 35
6.290321860 139.572668203 0.140793968 131 255 44
6.291351423 139.476670847 0.132993976 124 255 48
6.285002082 139.376464308 0.145519305 135 255 43
6.274093115 139.273663446 0.170604822 164 255 30
6.265444777 139.172157091 0.189464829 182 255 22
6.269672718 139.077983460 0.172858998 164 255 30
6.265896072 138.979253634 0.178302256 171 255 27
6.263635480 138.881387187 0.179570596 171 255 27
6.264061031 138.785046889 0.173440954 167 255 28
6.260820345 138.686624542 0.177410867 171 255 27
6.253389855 138.585827389 0.192922679 186 255 20
6.244301137 138.484095019 0.213003263 207 255 11
6.237833801 138.383853229 0.225864295 222 255 4
6.236691082 138.286629073 0.224059426 218 255 6
6.238568847 138.191113206 0.213935329 207 255 11
6.240450468 138.095597052 0.203801462 197 255 16
6.241947162 137.999860996 0.194728768 189 255 19
6.243481424 137.904143972 0.185553449 178 255 24
6.244167360 137.807946201 0.178715822 171 255 27
6.243217555 137.710824767 0.176384976 167 255 28
6.241689470 137.613377248 0.175648038 167 255 28
6.239166024 137.515369506 0.177653955 171 255 27
6.231469017 137.414452091 0.193912455 189 255 19
6.222659551 137.312914070 0.213236595 207 255 11
6.218596426 137.214048315 0.219487028 215 255 8
6.220952784 137.118788787 0.208054458 204 255 12
6.225318696 137.024653920 0.191086891 186 255 20
6.227478359 136.929277699 0.180197817 175 255 25
6.227920772 136.832936628 0.174040246 167 255 28
6.228743075 136.736806901 0.166837049 160 255 32
6.229690433 136.640745493 0.159290231 149 255 36
6.228982482 136.543756753 0.156304393 149 255 36
6.227699707 136.446446324 0.154903038 146 255 38
6.227536918 136.349761245 0.150417222 142 255 40
6.227012817 136.252873645 0.146927692 138 255 41
6.222007329 136.153486417 0.155784822 146 255 38
6.213551893 136.052179455 0.174147296 167 255 28
6.205702454 135.951215367 0.190841460 186 255 20
6.202059163 135.852596944 0.195949095 189 255 19
6.204742660 135.757498718 0.183627754 178 255 24
6.211895269 135.664881088 0.158994990 149 255 36
6.217600745 135.571453321 0.138349751 127 255 46
6.220217808 135.476306193 0.126213818 116 255 51
6.219700327 135.379417643 0.122714421 113 255 52
6.215240281 135.280343428 0.130077821 120 255 49
6.208991607 135.180280977 0.142370006 135 255 43
6.204952257 135.081445029 0.148576481 138 255 41
6.204706040 134.984709030 0.144333642 135 255 43
6.206231931 134.888951642 0.135209411 124 255 48
6.206156767 134.792307789 0.130497114 120 255 49
6.203464694 134.694218612 0.132995618 124 255 48
6.197861182 134.594524647 0.143516509 135 255 43
6.192662080 134.495056832 0.152924272 146 255 38
6.190982477 134.397530482 0.152636323 146 255 38
6.189723247 134.300235778 0.151191136 142 255 40
6.186573294 134.201901058 0.154956199 146 255 38
6.181941828 134.102753402 0.162804143 156 255 33
6.177243186 134.003571361 0.170838225 164 255 30
6.174107255 133.905249648 0.174567727 167 255 28
6.175291031 133.809298731 0.166396366 160 255 32
6.180720541 133.715673134 0.146527770 138 255 41
6.184265673 133.621010227 0.131851916 120 255 49
6.183007952 133.523714666 0.130410138 120 255 49
6.177504058 133.424096431 0.140668833 131 255 44
6.171311275 133.324104822 0.152826721 146 255 38
6.167163638 133.225234044 0.159350638 149 255 36
6.164035860 133.126922108 0.163065527 156 255 33
6.166606052 133.031719628 0.151081419 142 255 40
6.155311966 132.928956898 0.177299546 171 255 27
6.145607647 132.827067720 0.199138489 193 255 17
6.144238197 132.729721845 0.198012632 193 255 17
6.151776639 132.637221459 0.172342684 164 255 30
6.160072461 132.545126029 0.144586514 135 255 43
6.159010653 132.447940324 0.142615566 135 255 43
6.189372890 132.367811690 0.054057509 40 255 84
6.200145675 132.277033080 0.019477942 4 255 100
5.955738963 119.876853170 0.079220581 66 255 73
5.822961778 112.369981056 0.080801347 69 255 72
5.818884016 112.271412518 0.087353019 73 255 70
5.813022865 112.172018653 0.098825278 87 255 64
5.812689919 112.075191523 0.095048962 84 255 65
5.819027601 111.981454062 0.072872416 58 255 76
5.827781673 111.888829413 0.044030903 29 255 89
5.834766192 111.795378782 0.020071539 4 255 100
5.836765823 111.699618297 0.009864175 0 254 108
5.831560027 111.600528325 0.019534605 4 255 100
5.823132034 111.499954825 0.038094953 22 255 92
5.816791405 111.400349107 0.050898251 36 255 86
5.812529775 111.301704934 0.057967478 44 255 83
5.808052101 111.202963699 0.065633788 51 255 80
5.800632922 111.102872365 0.081415845 69 255 72
5.795865492 111.004004180 0.089883737 76 255 68
5.799556044 110.909021645 0.075019684 62 255 75
5.808196612 110.816305994 0.046500799 33 255 88
5.817376770 110.723830189 0.016494051 0 255 102
5.821239089 110.628911273 0.001158565 0 252 117
5.817293246 110.530415853 0.007364776 0 253 111
5.810808214 110.430761704 0.020577118 4 255 100
5.806210752 110.331973853 0.028583210 11 255 97
5.805155310 110.234805261 0.026818665 11 255 97
5.806288845 110.138634845 0.019016132 4 255 100
5.807541741 110.042517079 0.010885237 0 254 108
5.807569629 109.945839771 0.006134884 0 253 111
5.805694088 109.848295714 0.006636795 0 253 111
5.803151441 109.750449006 0.008980192 0 254 108
5.802063063 109.653263789 0.007312463 0 253 111
5.802220892 109.556643993 0.002207569 0 253 114
5.800079490 109.458980807 0.003447033 0 253 114
5.794742277 109.359870717 0.013504557 0 254 105
5.789944982 109.261008192 0.022073604 4 255 100
5.788307534 109.163577415 0.021925857 4 255 100
5.786067494 109.065874737 0.023441665 7 255 99
5.780437119 108.966642280 0.034312419 18 255 94
5.774435405 108.867245739 0.046208830 29 255 89
5.772009145 108.769464364 0.048241635 33 255 88
5.773019297 108.673231460 0.040794299 25 255 91
5.773345102 108.576689002 0.035236052 18 255 94
5.781446208 108.483640891 0.008226206 0 253 111
5.778654887 108.385693093 0.011270168 0 254 108
5.776470403 108.288018901 0.012640860 0 254 105
5.773632020 108.190052287 0.015816769 0 255 102
5.770174811 108.091809713 0.020701146 4 255 100
5.765016360 107.992807336 0.030280558 15 255 96
5.759309786 107.893562862 0.041373446 25 255 91
5.754823427 107.794867177 0.049100694 33 255 88
5.754265316 107.697928057 0.045990302 29 255 89
5.758032570 107.602918180 0.030946371 15 255 96
5.762649750 107.508283426 0.013558181 0 254 105
5.763180687 107.411824400 0.007445693 0 253 111
5.761961668 107.314585396 0.006162708 0 253 111
5.762376045 107.218072679 0.000373778 0 252 117
5.766367114 107.123147649 -0.015283238 0 250 129
5.770642788 107.028345038 -0.031724700 0 248 144
5.771678131 106.932101332 -0.039224278 0 247 150
5.769229159 106.834312130 -0.037108604 0 247 150
5.764228173 106.735394147 -0.027950049 0 248 141
5.759309152 106.636515368 -0.019016542 0 249 135
5.754982652 106.537901337 -0.011716891 0 251 126
5.751376789 106.439607948 -0.006404645 0 251 123
5.749726892 106.342179380 -0.006488579 0 251 123
5.751099076 106.246083341 -0.014910609 0 250 129
5.755525399 106.151330497 -0.031759333 0 248 144
5.757272903 106.055394643 -0.041215205 0 246 153
5.749805187 105.955405068 -0.025241294 0 249 138
5.742605624 105.855538119 -0.010006146 0 251 126
5.737148811 105.756440682 0.000421120 0 252 117
5.733084871 105.657957340 0.007005910 0 253 111
5.730516905 105.560131674 0.009463657 0 254 108
5.727982211 105.462321673 0.011830639 0 254 108
5.724520785 105.364107422 0.016756014 0 255 102
5.720592465 105.265690926 0.022970883 7 255 99
5.719308026 105.168430911 0.021890904 4 255 100
5.721690731 105.072770730 0.010692193 0 254 108
5.723325978 104.976782104 0.001557065 0 252 117
5.720966495 104.879051809 0.003446728 0 253 114
5.716134578 104.780246739 0.012160402 0 254 105
5.711833095 104.681675080 0.019411397 4 255 100
5.710464322 104.584379591 0.018570256 0 255 102
5.713684398 104.489075588 0.005066483 0 253 114
5.718296316 104.394371730 -0.012277434 0 250 129
5.718169630 104.297610836 -0.016543440 0 250 132
5.713465868 104.198868232 -0.008177099 0 251 123
5.707231325 104.099466424 0.004414880 0 253 114
5.704396046 104.001537126 0.007626965 0 253 111
5.705437587 103.905282594 0.000141078 0 252 117
5.706800031 103.809164815 -0.008229470 0 251 123
5.705867089 103.712056081 -0.010264334 0 251 126
5.701916066 103.613647885 -0.003968927 0 252 120
5.697046658 103.514846824 0.004862141 0 253 114
5.694012702 103.416837413 0.008628816 0 253 111
5.694506600 103.320344225 0.002660278 0 253 114
5.697071610 103.224738298 -0.009023241 0 251 126
5.696619209 103.127836282 -0.012378220 0 250 129
5.691950495 103.029128222 -0.004095709 0 252 120
5.686700377 102.930174122 0.005792532 0 253 111
5.681805310 102.831374950 0.014701999 0 254 105
5.677103199 102.732661071 0.023080048 7 255 99
5.676274338 102.635602660 0.020769306 4 255 100
5.677806533 102.539550608 0.011943180 0 254 108
5.677003112 102.442501708 0.009564206 0 254 108
5.672761665 102.343989488 0.016675106 0 255 102
5.675377169 102.248395094 0.004861991 0 253 114
5.671252550 102.149934667 0.011652560 0 254 108
5.671410015 102.053293934 0.006625595 0 253 111
5.674720434 101.957989206 -0.007102647 0 251 123
5.672847455 101.860485137 -0.006523574 0 251 123
5.680495150 101.767011516 -0.032221117 0 248 144
5.685332471 101.672342736 -0.050161045 0 245 162
5.685738854 101.575797302 -0.055870337 0 244 165
5.678620837 101.476074428 -0.040810519 0 246 153
5.674256041 101.377517312 -0.033348729 0 247 147
5.668215354 101.278256512 -0.021260143 0 249 135
5.667649739 101.181304420 -0.024282411 0 249 138
5.667611514 101.084573743 -0.028759360 0 248 141
5.665680472 100.987046845 -0.028010811 0 248 141
5.661811677 100.888707023 -0.021912650 0 249 135
5.658519161 100.790611040 -0.017404038 0 250 132
5.657757710 100.693577456 -0.019880645 0 249 135
5.657919272 100.596930083 -0.024903977 0 249 138
5.657016058 100.499836330 -0.026987276 0 248 141
5.655061361 100.402302973 -0.026167194 0 248 141
5.653213628 100.304814932 -0.025641317 0 248 141
5.652839514 100.207942225 -0.029182023 0 248 144
5.654760558 100.112025583 -0.039057069 0 247 150
5.658089985 100.016693116 -0.052818770 0 245 162
5.659859939 99.920708480 -0.062274912 0 243 171
5.656383354 99.822540916 -0.057247832 0 244 168
5.648478238 99.722536116 -0.039995302 0 246 153
5.641876182 99.623077136 -0.026338496 0 248 141
5.640034136 99.525595430 -0.025820011 0 248 141
5.641740409 99.429583760 -0.035095292 0 247 147
5.644280209 99.333914828 -0.046670521 0 245 159
5.646402021 99.238070344 -0.057091002 0 244 168
5.648207868 99.142092922 -0.066638351 0 243 174
5.648678351 99.045562313 -0.072498535 0 242 180
5.645623655 98.947577347 -0.068626557 0 242 177
5.639123743 98.848174988 -0.055243003 0 244 165
5.632867948 98.748877197 -0.042532158 0 246 153
5.629900197 98.650934997 -0.038896865 0 247 150
5.628801539 98.553761865 -0.040420196 0 246 153
5.627185147 98.456376305 -0.040513275 0 246 153
5.625862107 98.359111403 -0.041415132 0 246 153
5.626267286 98.262554484 -0.047086849 0 245 159
5.627757545 98.166440416 -0.055753053 0 244 165
5.630002627 98.070632952 -0.066502079 0 243 174
5.633271590 97.975241115 -0.080076728 0 241 186
5.636206704 97.879709737 -0.092728845 0 239 198
5.634783701 97.782398700 -0.093348806 0 239 198
5.629041234 97.683328729 -0.082043135 0 240 189
5.623054757 97.584163023 -0.070062672 0 242 177
5.619789933 97.486107428 -0.065594700 0 243 174
5.619942773 97.389441501 -0.070560819 0 242 180
5.620971947 97.293130201 -0.077945268 0 241 186
5.618348035 97.195336457 -0.075243537 0 241 183
5.611450835 97.095813273 -0.060743244 0 243 171
5.607059663 96.997308468 -0.053160321 0 244 165
5.607104443 96.900599293 -0.057822972 0 244 168
5.607460428 96.804014937 -0.063343805 0 243 174
5.603334588 96.705621250 -0.056490187 0 244 168
5.594685344 96.605406597 -0.037147130 0 247 150
5.588286521 96.506103952 -0.024015879 0 249 138
5.583206238 96.407335830 -0.014523745 0 250 129
5.577380330 96.308271066 -0.002971899 0 252 120
5.580899073 96.212962299 -0.017218373 0 250 132
5.578476225 96.115266425 -0.015059837 0 250 129
5.576862074 96.017895693 -0.015132972 0 250 129
5.576462464 95.921011685 -0.018558325 0 250 132
5.577454560 95.824683883 -0.025825090 0 248 141
5.579028979 95.728587228 -0.034698650 0 247 147
5.574201988 95.629932680 -0.025897172 0 248 141
5.574751299 95.533425521 -0.031938434 0 248 144
5.581329541 95.439319682 -0.054624580 0 244 165
5.577329480 95.340996535 -0.048103102 0 245 159
5.577135842 95.244189594 -0.052090142 0 245 162
5.579819701 95.148525387 -0.064021066 0 243 174
5.578893298 95.051425113 -0.065982941 0 243 174
5.573561945 94.952577726 -0.055781424 0 244 165
5.568939865 94.854014611 -0.047537114 0 245 159
5.568086196 94.756945877 -0.049696627 0 245 162
5.568308059 94.660302302 -0.054824784 0 244 165
5.566106513 94.562700312 -0.053260609 0 244 165
5.563011454 94.464746519 -0.049228258 0 245 159
5.561600284 94.367458247 -0.049844298 0 245 162
5.561910105 94.270848186 -0.055211250 0 244 165
5.563143283 94.174600458 -0.063126768 0 243 171
5.563596729 94.078044408 -0.068888329 0 242 177
5.561091432 93.980325039 -0.066479185 0 243 174
5.555227657 93.881288875 -0.054795455 0 244 165
5.547358007 93.781470013 -0.037571853 0 247 150
5.542587118 93.682869947 -0.028903497 0 248 141
5.542811772 93.586227273 -0.034028044 0 247 147
5.542767709 93.489478576 -0.038409594 0 247 150
5.539382855 93.391424519 -0.033565222 0 247 147
5.534267535 93.292697140 -0.023941398 0 249 138
5.532067168 93.195108915 -0.022365564 0 249 138
5.532962994 93.098727078 -0.029338312 0 248 144
5.534605364 93.002634133 -0.038371560 0 247 150
5.536195746 92.906518920 -0.047260294 0 245 159
5.538713087 92.810761540 -0.058707762 0 244 168
5.541438432 92.715082100 -0.070728686 0 242 180
5.542394083 92.618714100 -0.077861828 0 241 186
5.541007444 92.521437930 -0.078525936 0 241 186
5.537888361 92.423492089 -0.074404961 0 241 183
5.234406831 72.384888695 -0.139261343 0 232 240
5.239577498 72.289693988 -0.157832180 0 229 255
5.230920115 72.190244412 -0.138175942 0 232 237
5.222710861 72.090938239 -0.119757241 0 235 222
5.217799890 71.992648797 -0.110455122 0 236 213
5.213845539 71.894655262 -0.103796345 0 237 207
5.209580895 71.796569080 -0.096278637 0 238 201
5.205970852 71.698685331 -0.090569396 0 239 195
5.205824164 71.601860125 -0.094433391 0 238 201
5.207799312 71.505680757 -0.104162152 0 237 207
5.210277930 71.409652321 -0.115281779 0 235 219
5.212276170 71.313475227 -0.125072427 0 234 228
5.207508832 71.215242209 -0.116158416 0 235 219
5.195288421 71.114752592 -0.086638843 0 240 192
5.188305431 71.015857310 -0.071597077 0 242 180
5.190412359 70.919715346 -0.081683869 0 240 189
5.196155385 70.824669160 -0.101822009 0 237 207
5.197751272 70.728366910 -0.110494074 0 236 213
5.194162263 70.630500718 -0.104830878 0 237 210
5.190005168 70.532465578 -0.097595996 0 238 204
5.188975014 70.435372453 -0.099004854 0 238 204
5.191003681 70.339197318 -0.108869255 0 236 213
5.193206332 70.243072016 -0.119213688 0 235 222
5.195004773 70.146823268 -0.128439630 0 233 231
5.194825073 70.049980992 -0.132195612 0 233 234
5.190358612 69.951858147 -0.124098866 0 234 225
5.184663239 69.853371485 -0.112603343 0 236 216
5.181133556 69.755533383 -0.107094206 0 237 210
5.178605407 69.657995100 -0.104352940 0 237 207
5.184531030 69.562969200 -0.124983341 0 234 228
5.181564608 69.465299995 -0.121028244 0 235 222
5.180999013 69.368343629 -0.123709840 0 234 225
5.181015564 69.271559191 -0.127999912 0 234 228
5.178590681 69.174052466 -0.125538793 0 234 228
5.172966457 69.075602557 -0.114230886 0 236 216
5.167332410 68.977153281 -0.102894624 0 237 207
5.163464293 68.879227398 -0.096439738 0 238 201
5.159323665 68.781223584 -0.089230247 0 239 195
5.153986047 68.682870707 -0.078710038 0 241 186
5.149659404 68.584817596 -0.070983905 0 242 180
5.148408271 68.487667700 -0.071760179 0 242 180
5.150764843 68.391573151 -0.082510482 0 240 189
5.156017963 68.296322095 -0.101268649 0 237 207
5.162341428 68.201378496 -0.122985396 0 234 225
5.168196776 68.106292930 -0.143406947 0 231 243
5.171532940 68.010469182 -0.156862078 0 229 255
5.168354094 67.912749091 -0.152302173 0 230 249
5.157781167 67.812885024 -0.127296295 0 234 228
5.145919210 67.712654703 -0.098724861 0 238 204
5.141785199 67.614669293 -0.091520257 0 239 198
5.145238949 67.518879427 -0.105295192 0 237 210
5.148444700 67.423014574 -0.118383446 0 235 222
5.147514742 67.325954290 -0.120035109 0 235 222
5.142473621 67.227710378 -0.110317878 0 236 213
5.135192953 67.128825657 -0.094406835 0 238 201
5.128204988 67.030029775 -0.079303913 0 241 186
5.123055132 66.931765538 -0.069282407 0 242 177
5.120689934 66.834301901 -0.066959769 0 242 177
5.123790012 66.738402290 -0.079748509 0 241 186
5.128696847 66.643015564 -0.097532337 0 238 201
5.131955292 66.547154174 -0.110757114 0 236 213
5.133900577 66.450915495 -0.120349760 0 235 222
5.134592905 66.354318155 -0.126476696 0 234 228
5.132732697 66.256994411 -0.125544200 0 234 228
5.128192015 66.158910891 -0.117198386 0 235 219
5.124887097 66.061180182 -0.112268638 0 236 216
5.123962394 65.964124669 -0.113919753 0 236 216
5.123977749 65.867334714 -0.118169353 0 235 222
5.122536442 65.770132962 -0.118389770 0 235 222
5.117846132 65.672016028 -0.109624514 0 236 213
5.109909589 65.572988411 -0.091881112 0 239 198
5.101972607 65.473965970 -0.074135233 0 241 183
5.100048420 65.376636257 -0.073015745 0 242 180
5.102956304 65.280661481 -0.085257741 0 240 192
5.106133321 65.184759048 -0.098243038 0 238 204
5.108784193 65.088706373 -0.109772367 0 236 213
5.112578373 64.992970025 -0.124462472 0 234 225
5.114355754 64.896667875 -0.133574289 0 233 234
5.111197954 64.798989900 -0.129037049 0 233 231
5.103512984 64.700055168 -0.111978890 0 236 216
5.091112911 64.599816696 -0.081879895 0 240 189
5.085471033 64.501460333 -0.070469335 0 242 180
5.078185300 64.402652460 -0.054511459 0 244 165
5.077603840 64.305702725 -0.057093232 0 244 168
5.081651894 64.210030691 -0.072477084 0 242 180
5.088493646 64.115124967 -0.095586150 0 238 201
5.086126154 64.017677994 -0.093225503 0 239 198
5.086474741 63.920978757 -0.098375307 0 238 204
5.088451991 63.824725614 -0.108028314 0 236 213
5.084911157 63.726957417 -0.102419419 0 237 207
5.084436995 63.630030723 -0.105290666 0 237 210
5.086486826 63.533793656 -0.115141329 0 235 219
5.088047522 63.437420729 -0.123638223 0 234 225
5.088203292 63.340662835 -0.128248548 0 234 228
5.079886962 63.241597607 -0.109426650 0 236 213
5.080610914 63.144995657 -0.115606198 0 235 219
5.079577131 63.047915209 -0.116923327 0 235 219
5.083267095 62.952115379 -0.131303989 0 233 231
5.074878480 62.853042131 -0.112277457 0 236 216
5.066614368 62.754008186 -0.093593985 0 239 198
5.059304516 62.655237396 -0.077548504 0 241 186
5.052678473 62.556655763 -0.063393043 0 243 174
5.048442535 62.458721816 -0.055846900 0 244 165
5.048006202 62.361811697 -0.058808596 0 244 168
5.049994308 62.265551929 -0.068474816 0 242 177
5.050081503 62.168780361 -0.072882423 0 242 180
5.046795298 62.071105046 -0.067958650 0 242 177
5.041982745 61.973023522 -0.058812058 0 244 168
5.038890758 61.875404128 -0.054423171 0 244 165
5.039807521 61.778854725 -0.061120947 0 243 171
5.040615525 61.682274920 -0.067516883 0 242 177
5.039478612 61.585176876 -0.068532298 0 242 177
5.038553336 61.488135105 -0.070132010 0 242 177
5.037802086 61.391139397 -0.072211995 0 242 180
5.033830447 61.293291374 -0.065383423 0 243 174
5.026641408 61.194595515 -0.049654420 0 245 162
5.020956469 61.096301231 -0.038084504 0 247 150
5.017563597 60.998614399 -0.032853262 0 247 147
5.015092229 60.901171827 -0.030169781 0 248 144
5.013219094 60.803887538 -0.029139915 0 248 144
5.012631657 60.706941179 -0.031665258 0 248 144
5.012738869 60.610176462 -0.036110984 0 247 150
5.011527506 60.513066032 -0.036908378 0 247 150
5.007661222 60.415262389 -0.030360932 0 248 144
5.002745496 60.317187261 -0.020909459 0 249 135
5.001082228 60.219962086 -0.020453497 0 249 135
5.003505074 60.123799907 -0.031299184 0 248 144
5.005583374 60.027545662 -0.041190826 0 246 153
5.004964800 59.930589885 -0.043621484 0 246 156
5.004524858 59.833680067 -0.046545203 0 245 159
5.006304681 59.737343627 -0.055608154 0 244 165
5.007916897 59.640961810 -0.064206475 0 243 174
5.006743840 59.543860152 -0.065099111 0 243 174
5.003875406 59.446322328 -0.061300858 0 243 171
5.002773482 59.349239875 -0.062388080 0 243 171
5.003717459 59.252682457 -0.069133718 0 242 177
5.001564186 59.155330033 -0.067310488 0 242 177
4.993218911 59.056394444 -0.048357274 0 245 159
4.982944377 58.956971662 -0.024065863 0 249 138
4.985260109 58.860767227 -0.034601792 0 247 147
4.986154879 58.764198382 -0.041205881 0 246 153
4.982765734 58.666538720 -0.035958155 0 247 150
4.982357688 58.569637830 -0.038956076 0 247 150
4.982207912 58.472801976 -0.042667410 0 246 153
4.979874992 58.375412819 -0.040338265 0 246 153
4.982697203 58.279327737 -0.052269165 0 245 162
4.982657824 58.182517520 -0.056282749 0 244 165
4.985641920 58.086468504 -0.068659511 0 242 177
4.988933353 57.990493787 -0.081885535 0 240 189
4.981151857 57.891733838 -0.064477815 0 243 174
4.977157573 57.793929130 -0.057546042 0 244 168
4.975984689 57.696833411 -0.058418465 0 244 168
4.974344975 57.599621081 -0.057998321 0 244 168
4.974137342 57.502766855 -0.061538949 0 243 171
4.976131941 57.406461117 -0.071171055 0 242 180
4.978195467 57.310170259 -0.080992856 0 240 189
4.977832769 57.213273992 -0.084101381 0 240 192
4.974504098 57.115641138 -0.079003274 0 241 186
4.970138251 57.017753057 -0.071034588 0 242 180
4.966332597 56.920006159 -0.064614559 0 243 174
4.962475995 56.822248827 -0.058052416 0 244 168
4.956663021 56.724011133 -0.046076567 0 246 156
4.949629661 56.625476574 -0.030723137 0 248 144
4.944168593 56.527333249 -0.019718443 0 249 135
4.942548758 56.430136406 -0.019339955 0 249 135
4.944925859 56.333919811 -0.030018618 0 248 144
4.948526952 56.238000214 -0.044082704 0 246 156
4.949704521 56.141484887 -0.051440654 0 245 162
4.945891700 56.043750334 -0.044990559 0 246 156
4.939891525 55.945485096 -0.032487475 0 247 147
4.936444656 55.847844702 -0.027047528 0 248 141
4.936609760 55.751083308 -0.031599910 0 248 144
4.938495191 55.654738137 -0.040911008 0 246 153
4.940720049 55.558472938 -0.051160228 0 245 162
4.942064502 55.461992499 -0.058972549 0 244 168
4.939589705 55.364588656 -0.056216674 0 244 165
4.931797199 55.265904766 -0.038746459 0 247 150
4.922495823 55.166863122 -0.017100157 0 250 132
4.917126050 55.068772059 -0.006330744 0 251 123
4.916062728 54.971716953 -0.007475547 0 251 123
4.916680769 54.875064424 -0.013271409 0 250 129
4.917117830 54.778367410 -0.018565481 0 250 132
4.920192211 54.682298669 -0.031155758 0 248 144
4.923866845 54.586369838 -0.045405926 0 246 156
4.921794638 54.489070433 -0.043753946 0 246 156
4.914681347 54.390574651 -0.028152376 0 248 141
4.907476033 54.292061729 -0.012294929 0 250 129
4.904860245 54.194640019 -0.009135387 0 251 126
4.905180667 54.097913510 -0.014099214 0 250 129
4.905179232 54.001110057 -0.018171414 0 250 132
4.904034277 53.904036460 -0.019078403 0 249 135
4.900199605 53.806330368 -0.012541741 0 250 129
4.893234189 53.707891303 0.002659031 0 253 114
4.887194226 53.609673765 0.015300256 0 254 105
4.885667588 53.512516441 0.015453952 0 254 105
4.887457851 53.416134590 0.006430552 0 253 111
4.886908560 53.319204828 0.003881969 0 253 114
4.887027444 53.222430356 -0.000514471 0 252 117
4.877736267 53.123466972 0.021129109 4 255 100
4.876907245 53.026474357 0.019357910 4 255 100
4.882287020 52.930920573 0.000407003 0 252 117
4.886291956 52.835043819 -0.014738568 0 250 129
4.884947555 52.737927576 -0.015080527 0 250 129
4.874792883 52.638779834 0.008958481 0 254 108
4.856460412 52.537756307 0.055628632 40 255 84
4.845159387 52.438362212 0.082842666 69 255 72
4.841169968 52.340653778 0.089825012 76 255 68
4.537747512 32.436671604 0.121025829 109 255 54
4.544239893 32.340819743 0.099207672 87 255 64
4.550247757 32.244889318 0.078732582 66 255 73
4.552017278 32.148317961 0.069999163 55 255 78
4.550864826 32.051307433 0.069361061 55 255 78
4.548610138 31.954132584 0.071777432 58 255 76
4.546662230 31.857004359 0.073345106 58 255 76
4.545769767 31.760033530 0.071990128 58 255 76
4.545664387 31.663179155 0.068455872 55 255 78
4.543636173 31.566040171 0.070249354 55 255 78
4.538381582 31.468426794 0.080981762 69 255 72
4.532546568 31.370731418 0.093323305 80 255 67
4.530035064 31.273526705 0.096459107 84 255 65
4.530555856 31.176766285 0.091195782 80 255 67
4.529724554 31.079807641 0.089679196 76 255 68
4.524420902 30.982198731 0.100553445 87 255 64
4.514831746 30.883971778 0.123301088 113 255 52
4.503877328 30.785553984 0.149832289 142 255 40
4.500049745 30.688171667 0.156621126 149 255 36
4.508354150 30.592536590 0.129801267 120 255 49
4.520424602 30.497434675 0.092548931 80 255 67
4.527990737 30.401678315 0.067776004 55 255 78
4.527958068 30.304831118 0.064055613 51 255 80
4.523085390 30.207294409 0.073745093 62 255 75
4.517252789 30.109624433 0.086095172 73 255 70
4.511456817 30.011963350 0.098345006 87 255 64
4.504810656 29.914185931 0.112951482 102 255 57
4.496874137 29.816231186 0.131134101 120 255 49
4.489803641 29.718403346 0.146918720 138 255 41
4.496014529 29.622439751 0.125908676 116 255 51
4.491058572 29.524911396 0.135837313 127 255 46
4.494288696 29.428525988 0.123087489 113 255 52
4.496927035 29.332055174 0.111978211 102 255 57
4.496663307 29.235179695 0.108910238 98 255 59
4.492820821 29.137809428 0.115758505 106 255 56
4.495390940 29.041324487 0.104841371 95 255 60
4.494003466 28.944293300 0.104890092 95 255 60
4.494334588 28.847497789 0.100178387 87 255 64
4.487673103 28.749746276 0.114841553 106 255 56
4.492677232 28.653587835 0.097184921 84 255 65
4.487896084 28.556095904 0.106640707 95 255 60
4.481739478 28.458420606 0.119908620 109 255 54
4.481114737 28.361496295 0.117850817 106 255 56
4.485523060 28.265249452 0.101849092 91 255 62
4.490894509 28.169127806 0.083179790 69 255 72
4.484520220 28.071428613 0.097055440 84 255 65
4.490379195 27.975366819 0.077037357 62 255 75
4.482638255 27.877489249 0.094701974 84 255 65
4.476301161 27.779803201 0.108478170 98 255 59
4.476498798 27.682986205 0.104149420 91 255 62
4.481265507 27.586771332 0.087161857 73 255 70
4.485358035 27.490463334 0.072043254 58 255 76
4.483859129 27.393417765 0.072418392 58 255 76
4.479349255 27.295978653 0.081137494 69 255 72
4.474856866 27.198544517 0.089809349 76 255 68
4.472829257 27.101433650 0.091652875 80 255 67
4.473246707 27.004640667 0.086722618 73 255 70
4.471727358 26.907596174 0.087160052 73 255 70
4.467211382 26.810165764 0.095901920 84 255 65
4.463424751 26.712831800 0.102624049 91 255 62
4.462131349 26.615819497 0.102438830 91 255 62
4.462348753 26.519000466 0.098068389 87 255 64
4.462057407 26.422115702 0.095108735 84 255 65
4.460540628 26.325074766 0.095545789 84 255 65
4.458054944 26.227911547 0.098668767 87 255 64
4.454808322 26.130653413 0.103901437 91 255 62
4.451059349 26.033333780 0.110527289 98 255 59
4.447060545 25.935984912 0.117846604 106 255 56
4.443068914 25.838639244 0.125147230 116 255 51
4.440783593 25.741508670 0.127720790 116 255 51
4.441836421 25.644794114 0.121045306 109 255 54
4.444011327 25.548217071 0.111261519 98 255 59
4.445161696 25.451511012 0.104317823 91 255 62
4.444607618 25.354593362 0.102098354 91 255 62
4.440505897 25.257239736 0.109710876 98 255 59
4.432772927 25.159443973 0.127387222 116 255 51
4.427105598 25.061905445 0.139340687 131 255 44
4.428069994 24.965177244 0.132917892 124 255 48
4.435381538 24.869217247 0.108907169 98 255 59
4.442312420 24.773204881 0.085952207 73 255 70
4.445608793 24.676748488 0.073070044 58 255 76
4.447437448 24.580112514 0.064256215 51 255 80
4.448983127 24.483440501 0.056227602 40 255 84
4.447331153 24.386384895 0.057061459 44 255 83
4.442552187 24.288957775 0.066562099 51 255 80
4.437335995 24.191481704 0.077275614 66 255 73
4.434328100 24.094269901 0.081870560 69 255 72
4.433404639 23.997305236 0.080690102 69 255 72
4.432489298 23.900341474 0.079488247 66 255 73
4.430604198 23.803264136 0.080975001 69 255 72
4.426426042 23.705919942 0.088817692 76 255 68
4.420593271 23.608385768 0.101247078 91 255 62
4.417650819 23.511190316 0.105667603 95 255 60
4.421543565 23.414786005 0.091146440 80 255 67
4.430294592 23.318937357 0.063162099 47 255 81
4.437371126 23.222889086 0.039819279 25 255 91
4.435915247 23.125858715 0.040124148 25 255 91
4.428605902 23.028161430 0.056652567 44 255 83
4.422002416 22.930549176 0.071226019 58 255 76
4.419167212 22.833367901 0.075357129 62 255 75
4.418160918 22.736394426 0.074420633 62 255 75
4.415282457 22.639210410 0.078673916 66 255 73
4.410028337 22.541761569 0.089512473 76 255 68
4.403944439 22.444223305 0.102651989 91 255 62
4.398319705 22.346740052 0.114520166 102 255 57
4.395915690 22.249617633 0.117463252 106 255 56
4.396860233 22.152866481 0.111126799 98 255 59
4.397955126 22.056130411 0.104374696 91 255 62
4.396728597 21.959137885 0.104057631 91 255 62
4.391214467 21.861676463 0.115625142 106 255 56
4.389843769 21.764670220 0.115709945 106 255 56
4.394361029 21.668303919 0.099476711 87 255 64
4.399831230 21.572036561 0.080603236 69 255 72
4.403483308 21.475568132 0.066769876 51 255 80
4.404606762 21.378824348 0.059945972 44 255 83
4.404118007 21.281906266 0.057591625 44 255 83
4.402313893 21.184847419 0.058884132 44 255 83
4.397577243 21.087477344 0.068305865 55 255 78
4.397613804 20.990615897 0.064498851 51 255 80
4.388163786 20.892752113 0.086987095 73 255 70
4.380541774 20.795087096 0.104409924 91 255 62
4.375106304 20.697656325 0.115773493 106 255 56
4.373254624 20.600603199 0.117204863 106 255 56
4.377231977 20.504157208 0.102480573 91 255 62
4.384811538 20.408080821 0.077772682 66 255 73
4.390872877 20.311841071 0.057273880 44 255 83
4.390806651 20.214965420 0.053760499 40 255 84
4.382470245 20.117241259 0.073171764 58 255 76
4.370158984 20.019116766 0.103602028 91 255 62
4.362208673 19.921444654 0.121945762 113 255 52
4.359556319 19.824314893 0.125605520 116 255 51
4.357115425 19.727207756 0.128680288 120 255 49
4.353865983 19.630020388 0.133997418 124 255 48
4.352383253 19.533011800 0.134418540 124 255 48
4.354726699 19.436385566 0.124234894 113 255 52
4.359920501 19.340040246 0.106151239 95 255 60
4.366726754 19.243849931 0.083598878 69 255 72
4.372009357 19.147503283 0.065270924 51 255 80
4.370495395 19.050483712 0.065783877 51 255 80
4.362720638 18.952851487 0.083652862 69 255 72
4.357580730 18.855481448 0.094219311 80 255 67
4.356676576 18.758526101 0.093045360 80 255 67
4.355899416 18.661582974 0.091520486 80 255 67
4.351932967 18.564332272 0.098837586 87 255 64
4.346017636 18.466896743 0.111558310 102 255 57
4.342227480 18.369668195 0.118389118 109 255 54
4.342224011 18.272802430 0.114724062 102 255 57
4.344913904 18.176191389 0.103593799 91 255 62
4.347051555 18.079525354 0.093995421 80 255 67
4.342889113 17.982264139 0.101862774 91 255 62
4.336461462 17.884793082 0.116010818 106 255 56
4.333641130 17.787662837 0.120160047 109 255 54
4.334064827 17.690835498 0.115317413 106 255 56
4.335256477 17.594078153 0.108346938 98 255 59
4.335166086 17.497200960 0.104931590 95 255 60
4.334584012 17.400277940 0.102880380 91 255 62
4.335142903 17.303458900 0.097667244 84 255 65
4.336593587 17.206719848 0.089982911 76 255 68
4.335395891 17.109738860 0.089641609 76 255 68
4.329502737 17.012334204 0.102318505 91 255 62
4.323373014 16.914912036 0.115652479 106 255 56
4.321133725 16.817841979 0.118202259 106 255 56
4.323901845 16.721219102 0.106871079 95 255 60
4.326216692 16.624553124 0.096797524 84 255 65
4.323151731 16.527409315 0.101639641 91 255 62
4.316348860 16.429938287 0.116845734 106 255 56
4.309453792 16.332463630 0.132308699 124 255 48
4.307174484 16.235395980 0.134976288 124 255 48
4.310992659 16.138858672 0.120740394 109 255 54
4.316349358 16.042450657 0.102240061 91 255 62
4.319466605 15.945845071 0.089949365 76 255 68
4.321192528 15.849117143 0.081517028 69 255 72
4.323013970 15.752395276 0.072820899 58 255 76
4.323542289 15.655561463 0.067710939 55 255 78
4.323729231 15.558697628 0.063548507 51 255 80
4.324473211 15.461879754 0.057842766 44 255 83
4.325078604 15.365048939 0.052522324 36 255 86
4.322513315 15.267952557 0.055993714 40 255 84
4.315979356 15.170528028 0.070469520 58 255 76
4.309503783 15.073112562 0.084784708 73 255 70
4.306367638 14.975975863 0.089842393 76 255 68
4.306829725 14.879135274 0.084924891 73 255 70
4.310654225 14.782567454 0.070685881 58 255 76
4.314672041 14.686011612 0.055911860 40 255 84
4.316531423 14.589277767 0.047123314 33 255 88
4.313085297 14.492115667 0.053045990 36 255 86
4.303382116 14.394455356 0.076318406 62 255 75
4.294777966 14.296889130 0.096544938 84 255 65
4.294806128 14.200012042 0.092838254 80 255 67
4.300382260 14.103571207 0.073749899 62 255 75
4.304810570 14.007035357 0.057845036 44 255 83
4.305507988 13.910204308 0.052285809 36 255 86
4.301239956 13.812986513 0.060495460 47 255 81
4.294802029 13.715603614 0.074722854 62 255 75
4.291224337 13.618444718 0.081020791 69 255 72
4.298298736 13.522102435 0.057784185 44 255 83
4.299794059 13.425329435 0.050017999 36 255 86
4.297432533 13.328262519 0.052947088 36 255 86
4.302625281 13.231765694 0.034930805 18 255 94
4.301657784 13.134802447 0.033996697 18 255 94
4.296818532 13.037550490 0.043799422 29 255 89
4.294310710 12.940474418 0.047138669 33 255 88
4.295112626 12.843643745 0.041301632 25 255 91
4.297401555 12.746920859 0.031342356 15 255 96
4.302862960 12.650427139 0.012587188 0 254 105
4.317911723 12.554624961 -0.032751828 0 247 147
4.337921937 12.459169024 -0.091847842 0 239 198
4.046022390 -7.712628502 -0.008864431 0 251 126
4.044863131 -7.809578964 -0.009025712 0 251 126
4.051391247 -7.906592591 -0.030524224 0 248 144
4.055231484 -8.003588855 -0.044560871 0 246 156
4.055759132 -8.100559042 -0.049401478 0 245 159
4.054312672 -8.197511897 -0.048761278 0 245 159
4.053546814 -8.294471071 -0.050009176 0 245 162
4.053008534 -8.391432750 -0.051887691 0 245 162
4.050895430 -8.488378213 -0.049393640 0 245 159
4.048016350 -8.585314476 -0.044772200 0 246 156
4.046407843 -8.682263671 -0.043676549 0 246 156
4.044935203 -8.779214002 -0.042956923 0 246 156
4.040615419 -8.876129630 -0.034332783 0 247 147
4.032771685 -8.972998851 -0.015925261 0 250 132
4.026005844 -9.069876672 -0.000508596 0 252 117
4.024741320 -9.166822801 -0.000361990 0 252 117
4.025500819 -9.263796273 -0.005832863 0 251 123
4.024941226 -9.360752665 -0.007640915 0 251 123
4.025726458 -9.457728734 -0.013181076 0 250 129
4.029546311 -9.554750959 -0.027144268 0 248 141
4.033149125 -9.651773614 -0.040503974 0 246 153
4.033046312 -9.748742306 -0.043575793 0 246 156
4.028047407 -9.845633837 -0.033054797 0 247 147
4.021198677 -9.942492188 -0.017397379 0 250 132
4.016653114 -10.039384465 -0.008132428 0 251 123
4.014618195 -10.136316855 -0.005836005 0 251 123
4.014271082 -10.233277902 -0.008223945 0 251 123
4.013817627 -10.330237572 -0.010315574 0 251 126
4.014908270 -10.427225789 -0.016692704 0 250 132
4.018303372 -10.524258468 -0.029466253 0 248 144
4.018639625 -10.621236500 -0.033747010 0 247 147
4.014914816 -10.718136966 -0.026752544 0 248 141
4.010328331 -10.815018348 -0.017364731 0 250 132
4.005099927 -10.911884077 -0.006193629 0 251 123
4.007933693 -11.008911918 -0.017403473 0 250 132
4.006389605 -11.105851258 -0.016458465 0 250 132
4.011188318 -11.202925146 -0.033121371 0 247 147
4.011509075 -11.299906511 -0.037351450 0 247 150
4.014735548 -11.396952960 -0.049647452 0 245 162
4.009948338 -11.493822949 -0.039694351 0 246 153
4.007287159 -11.590738545 -0.035642487 0 247 147
3.998863862 -11.687519237 -0.015592148 0 250 132
3.996855810 -11.784445509 -0.013351175 0 250 129
4.000538460 -11.881507384 -0.026908267 0 248 141
4.004187294 -11.978572048 -0.040370492 0 246 153
4.002408495 -12.075506077 -0.038762742 0 247 150
3.998884038 -12.172395689 -0.032307288 0 248 144
3.998450481 -12.269362189 -0.034432144 0 247 147
4.000147712 -12.366384289 -0.042471794 0 246 153
4.001317636 -12.463394629 -0.049046392 0 245 159
4.000589630 -12.560356077 -0.050350500 0 245 162
3.997300325 -12.657248516 -0.044542243 0 246 156
3.993348897 -12.754121064 -0.036894468 0 247 150
3.993356045 -12.851101412 -0.040236308 0 246 153
3.998748091 -12.948234315 -0.058528058 0 244 168
4.005907176 -13.045422623 -0.081725018 0 240 189
4.011838864 -13.142581680 -0.101513226 0 237 207
4.014705392 -13.239656161 -0.112790070 0 236 216
4.013640577 -13.336616796 -0.113150448 0 236 216
4.009189675 -13.433475473 -0.104108126 0 237 207
4.004739010 -13.530331527 -0.095065260 0 238 201
4.002924170 -13.627266319 -0.093339718 0 239 198
4.001506006 -13.724212904 -0.092714445 0 239 198
3.997849243 -13.821088363 -0.085872379 0 240 192
3.992435437 -13.917905541 -0.074150523 0 241 183
3.987037127 -14.014719852 -0.062470464 0 243 171
3.982848160 -14.111570460 -0.054147070 0 244 165
3.982399974 -14.208542732 -0.056209295 0 244 165
3.986919278 -14.305682139 -0.072063432 0 242 180
3.989154123 -14.402748268 -0.081573424 0 240 189
3.986193764 -14.499638579 -0.076656953 0 241 183
3.981820092 -14.596478352 -0.067814978 0 242 177
3.981617929 -14.693461942 -0.070554873 0 242 180
3.986163257 -14.790614585 -0.086476148 0 240 192
3.986865847 -14.887633707 -0.091726190 0 239 198
3.982092154 -14.984455678 -0.081768897 0 240 189
3.977646935 -15.081286803 -0.072722484 0 242 180
3.976717678 -15.178245433 -0.073437911 0 242 180
3.978452415 -15.275303759 -0.081549585 0 240 189
3.979896559 -15.372353227 -0.088853302 0 239 195
3.979370317 -15.469329396 -0.090684572 0 239 195
3.975206397 -15.566165731 -0.082413525 0 240 189
3.970186390 -15.662966329 -0.071764060 0 242 180
3.966793792 -15.759827843 -0.065632463 0 243 174
3.964901432 -15.856747098 -0.063665658 0 243 174
3.964603218 -15.953729585 -0.066124480 0 243 174
3.966481347 -16.050800701 -0.074625696 0 241 183
3.969267816 -16.147911153 -0.085648258 0 240 192
3.970691386 -16.244968336 -0.092885144 0 239 198
3.969748678 -16.341928923 -0.093549973 0 239 198
3.967014394 -16.438814326 -0.089238573 0 239 195
3.964509536 -16.535708143 -0.085563121 0 240 192
3.962726869 -16.632631714 -0.083892030 0 240 192
3.960981706 -16.729556325 -0.082323957 0 240 189
3.959925378 -16.826510375 -0.082667653 0 240 189
3.962402609 -16.923619602 -0.092823001 0 239 198
3.968241064 -17.020880440 -0.112311563 0 236 216
3.970535159 -17.117988156 -0.121956345 0 234 225
3.967473932 -17.214857045 -0.116728055 0 235 219
3.962628002 -17.311643245 -0.106542345 0 237 210
3.959110865 -17.408487428 -0.100045595 0 238 204
3.957532097 -17.505419301 -0.098930716 0 238 204
3.957333488 -17.602415079 -0.101647569 0 237 207
3.958302411 -17.699466360 -0.107605718 0 237 210
3.958807049 -17.796497179 -0.112273427 0 236 216
3.955713164 -17.893357309 -0.106946411 0 237 210
3.951548107 -17.990164283 -0.098643403 0 238 204
3.949510120 -18.087072072 -0.096246461 0 238 201
3.946795665 -18.183945999 -0.091969698 0 239 198
3.941908185 -18.280711510 -0.081656833 0 240 189
3.936756231 -18.377460919 -0.070608254 0 242 180
3.933353161 -18.474294720 -0.064415514 0 243 174
3.931507793 -18.571205281 -0.062547725 0 243 171
3.931429323 -18.668205031 -0.065585946 0 243 174
3.933878464 -18.765334966 -0.075642954 0 241 183
3.935454729 -18.862422533 -0.083274715 0 240 189
3.933828876 -18.959345642 -0.082012185 0 240 189
3.931221960 -19.056216917 -0.078023804 0 241 186
3.930166020 -19.153168799 -0.078341844 0 241 186
3.928935409 -19.250111380 -0.078173652 0 241 186
3.924802487 -19.346898475 -0.069943593 0 242 177
3.920492687 -19.443673653 -0.061221081 0 243 171
3.919328285 -19.540617070 -0.061233349 0 243 171
3.921480884 -19.637741732 -0.070457133 0 242 180
3.925028682 -19.734945653 -0.083554932 0 240 189
3.927321101 -19.832083492 -0.093165022 0 239 198
3.924755137 -19.928952668 -0.089280240 0 239 195
3.918492339 -20.025612874 -0.075126530 0 241 183
3.914902185 -20.122420312 -0.068394743 0 242 177
3.917328842 -20.219568599 -0.078373335 0 241 186
3.923301146 -20.316922922 -0.098198915 0 238 204
3.925658750 -20.414073895 -0.107983727 0 236 213
3.920753684 -20.510805305 -0.097595322 0 238 204
3.917315623 -20.607619577 -0.091280356 0 239 198
3.908561533 -20.704118906 -0.070198704 0 242 180
3.907816018 -20.801087056 -0.071360023 0 242 180
3.913469010 -20.898437188 -0.090292548 0 239 195
3.918709398 -20.995767680 -0.108078103 0 236 213
3.917226476 -21.092696682 -0.107188062 0 237 210
3.910509752 -21.189307034 -0.091759424 0 239 198
3.904321326 -21.285945353 -0.077796936 0 241 186
3.901439192 -21.382783328 -0.073016889 0 242 180
3.902994859 -21.479894887 -0.080562347 0 240 189
3.909633419 -21.577325368 -0.102225348 0 237 207
3.914972208 -21.674680198 -0.120277097 0 235 222
3.911662960 -21.771494048 -0.114306316 0 236 216
3.904380448 -21.868053825 -0.097297807 0 238 201
3.899246878 -21.964746096 -0.086257177 0 240 192
3.898617899 -22.061724743 -0.087727881 0 239 195
3.898620839 -22.158744557 -0.090952795 0 239 198
3.897475157 -22.255690459 -0.090986031 0 239 198
3.897111479 -22.352687437 -0.093190385 0 239 198
3.897793332 -22.449753736 -0.098297910 0 238 204
3.899366657 -22.546880361 -0.105880702 0 237 210
3.899316834 -22.643900923 -0.108953653 0 236 213
3.892721924 -22.740483968 -0.093844403 0 239 198
3.883903353 -22.836912984 -0.072556915 0 242 180
3.879719880 -22.933649957 -0.064143736 0 243 174
3.879683095 -23.030666958 -0.067248311 0 242 177
3.877441955 -23.127533730 -0.064228372 0 243 174
3.871468833 -23.224142505 -0.050840236 0 245 162
3.866735892 -23.320833389 -0.040895968 0 246 153
3.867467607 -23.417902049 -0.046130874 0 246 156
3.871296933 -23.515189006 -0.059969683 0 243 171
3.871042507 -23.612192125 -0.062463060 0 243 171
3.865129170 -23.708795173 -0.049235112 0 245 159
3.857838039 -23.805296389 -0.032178447 0 248 144
3.854619892 -23.902084309 -0.026435207 0 248 141
3.855729721 -23.999181973 -0.032713927 0 247 147
3.859100623 -24.096444851 -0.045272889 0 246 156
3.862732155 -24.193730067 -0.058554899 0 244 168
3.864455679 -24.290879377 -0.066535398 0 243 174
3.863716918 -24.387849846 -0.067674498 0 242 177
3.861674770 -24.484724252 -0.065191599 0 243 174
3.858582951 -24.581519934 -0.059791494 0 244 168
3.853599603 -24.678172842 -0.049135372 0 245 159
3.846666946 -24.774676460 -0.033062646 0 247 147
3.839840667 -24.871183569 -0.017284182 0 250 132
3.839267325 -24.968160185 -0.018875967 0 249 135
3.844845754 -25.065605808 -0.037557191 0 247 150
3.850171839 -25.163037193 -0.055536433 0 244 165
3.852629179 -25.260252714 -0.065544860 0 243 174
3.852185399 -25.357246562 -0.067492408 0 242 177
3.850531861 -25.454146844 -0.066077911 0 243 174
3.849051389 -25.551060167 -0.065143104 0 243 174
3.848310264 -25.648031177 -0.066261253 0 243 174
3.847822750 -25.745022415 -0.068082895 0 242 177
3.847175165 -25.842001388 -0.069458727 0 242 177
3.846708437 -25.938995062 -0.071335928 0 242 180
3.845450790 -26.035925880 -0.071014639 0 242 180
3.843432499 -26.132795366 -0.068578943 0 242 177
3.840564351 -26.229595434 -0.063780947 0 243 174
3.837977914 -26.326416962 -0.059764476 0 244 168
3.837040734 -26.423371813 -0.060329050 0 243 171
3.836561387 -26.520364257 -0.062164537 0 243 171
3.832919491 -26.617096757 -0.055212218 0 244 165
3.824611617 -26.713441314 -0.035294875 0 247 147
3.815130356 -26.809682777 -0.012116102 0 250 129
3.817215963 -26.906883376 -0.021073429 0 249 135
3.818665732 -27.004033049 -0.028263108 0 248 141
3.816383277 -27.100870189 -0.025082022 0 249 138
3.820364612 -27.198236507 -0.039303385 0 247 150
3.816136944 -27.294908758 -0.030715408 0 248 144
3.800402958 -27.390595876 0.009843739 0 254 108
3.782535201 -27.486088647 0.056333039 40 255 84
3.774527572 -27.582418149 0.075427547 62 255 75
3.587188096 -47.650966983 -0.033361961 0 247 147
3.589522619 -47.748465659 -0.042783581 0 246 156
3.586334184 -47.845046994 -0.036843267 0 247 150
3.583523628 -47.941689762 -0.031952796 0 248 144
3.584045351 -48.038888779 -0.036329297 0 247 150
3.586872317 -48.136475637 -0.047116377 0 245 159
3.590300369 -48.234166520 -0.059574289 0 244 168
3.593531548 -48.331827673 -0.071483651 0 242 180
3.596548357 -48.429455912 -0.082795791 0 240 189
3.598987865 -48.526989562 -0.092501253 0 239 198
3.598879111 -48.624093585 -0.095117993 0 238 201
3.594295937 -48.720437530 -0.085288482 0 240 192
3.587715990 -48.816438462 -0.069903923 0 242 177
3.582663190 -48.912695967 -0.058765778 0 244 168
3.579694896 -49.009307223 -0.053424374 0 244 165
3.577380949 -49.106029261 -0.049901863 0 245 162
3.574107810 -49.202585377 -0.043710260 0 246 156
3.569737444 -49.298950675 -0.034465582 0 247 147
3.565150624 -49.395276019 -0.024617654 0 249 138
3.562224125 -49.491886053 -0.019386742 0 249 135
3.562030153 -49.588968723 -0.021755282 0 249 135
3.563190228 -49.686287488 -0.027889084 0 248 141
3.563624553 -49.783481473 -0.032003142 0 248 144
3.564236532 -49.880707621 -0.036610300 0 247 150
3.566273284 -49.978184431 -0.045179525 0 246 156
3.567068077 -50.075445741 -0.050293117 0 245 162
3.565014047 -50.172207616 -0.047481367 0 245 159
3.561697868 -50.268746327 -0.041157676 0 246 153
3.559535597 -50.365487039 -0.038042579 0 247 150
3.560185196 -50.462724487 -0.042747984 0 246 156
3.562233443 -50.560211284 -0.051342903 0 245 162
3.563285909 -50.657523475 -0.057166875 0 244 168
3.562543211 -50.754517524 -0.057996230 0 244 168
3.561988715 -50.851545395 -0.059348020 0 244 168
3.563432187 -50.948931056 -0.066256502 0 243 174
3.563847818 -51.046134363 -0.070304789 0 242 180
3.561844872 -51.142904268 -0.067624172 0 242 177
3.558864237 -51.239497402 -0.062222749 0 243 171
3.556460035 -51.336193046 -0.058423685 0 244 168
3.552222833 -51.432556203 -0.049524494 0 245 159
3.547549646 -51.528837895 -0.039411309 0 246 153
3.546120902 -51.625705933 -0.038322339 0 247 150
3.547553115 -51.723094283 -0.045190927 0 246 156
3.548759212 -51.820443302 -0.051429472 0 245 162
3.549560653 -51.917720103 -0.056541296 0 244 168
3.551463632 -52.015200043 -0.064716399 0 243 174
3.554530160 -52.112895775 -0.076127330 0 241 183
3.556463945 -52.210386360 -0.084386119 0 240 192
3.555234220 -52.307296255 -0.083843337 0 240 189
3.551805039 -52.403799834 -0.077180772 0 241 186
3.549091610 -52.500434023 -0.072508218 0 242 180
3.548086280 -52.597383667 -0.072586350 0 242 180
3.549109904 -52.694710366 -0.078307843 0 241 186
3.550651516 -52.792135106 -0.085469322 0 240 192
3.549334459 -52.889028423 -0.084677030 0 240 192
3.544546355 -52.985272511 -0.074227224 0 241 183
3.540534951 -53.081659235 -0.065937009 0 243 174
3.540663086 -53.178820866 -0.069161888 0 242 177
3.541897287 -53.276191485 -0.075462814 0 241 183
3.542612258 -53.373465970 -0.080318193 0 241 186
3.541189248 -53.470337928 -0.079224544 0 241 186
3.536688414 -53.566626985 -0.069567077 0 242 177
3.532197148 -53.662915188 -0.059935048 0 243 171
3.533401393 -53.760283227 -0.066147292 0 243 174
3.541553329 -53.858976160 -0.091687736 0 239 198
3.549108950 -53.957562378 -0.115568315 0 235 219
3.552432175 -54.055345909 -0.127672931 0 234 228
3.551735483 -54.152362573 -0.128592568 0 233 231
3.548671485 -54.248925006 -0.122924899 0 234 225
3.543912126 -54.345159733 -0.112539293 0 236 216
3.536452569 -54.440871107 -0.094640042 0 238 201
3.529562836 -54.536687589 -0.078324896 0 241 186
3.528657909 -54.633657796 -0.078659522 0 241 186
3.534517715 -54.731939884 -0.097814088 0 238 204
3.542575032 -54.830654265 -0.123081756 0 234 225
3.548934737 -54.929045154 -0.143625385 0 231 243
3.551129476 -55.026629281 -0.152580070 0 230 252
3.546746550 -55.122930253 -0.143232844 0 231 243
3.537201818 -55.218217752 -0.119522780 0 235 222
3.528705058 -55.313704335 -0.098727183 0 238 204
3.526044053 -55.410332547 -0.094167237 0 238 201
3.528220469 -55.507912466 -0.103065480 0 237 207
3.529136763 -55.605246135 -0.108456625 0 236 213
3.526969709 -55.701971520 -0.105267746 0 237 210
3.530696019 -55.799863825 -0.118475289 0 235 222
3.526286925 -55.896144607 -0.109046031 0 236 213
3.524392612 -55.992923039 -0.106612724 0 237 210
3.526465057 -56.090491423 -0.115215463 0 235 219
3.531067012 -56.188567333 -0.130855372 0 233 231
3.531657110 -56.285844895 -0.135331592 0 232 237
3.526144398 -56.381900306 -0.122825992 0 234 225
3.517884408 -56.477400473 -0.102674977 0 237 207
3.512091020 -56.573391441 -0.089385951 0 239 195
3.510687943 -56.670263925 -0.088311720 0 239 195
3.511245296 -56.767532146 -0.092691297 0 239 198
3.512697534 -56.864982713 -0.099559864 0 238 204
3.514550452 -56.962516446 -0.107542313 0 237 210
3.516556384 -57.060083493 -0.115949524 0 235 219
3.518480233 -57.157636175 -0.124127323 0 234 225
3.514417051 -57.253970178 -0.115644775 0 235 219
3.510442620 -57.350319980 -0.107408018 0 237 210
3.512463925 -57.447894874 -0.115853817 0 235 219
3.516866732 -57.545960547 -0.130925404 0 233 231
3.519655565 -57.643698780 -0.141504967 0 232 240
3.515522106 -57.740014926 -0.132821315 0 233 234
3.508793398 -57.835793422 -0.116914821 0 235 219
3.506871492 -57.932560768 -0.114382808 0 236 216
3.512552518 -58.030901373 -0.133006190 0 233 234
3.519142755 -58.129435728 -0.154158715 0 230 252
3.519947295 -58.226773759 -0.159210477 0 229 255
3.514317101 -58.322773661 -0.146355158 0 231 246
3.506164951 -58.418244042 -0.126480712 0 234 228
3.500327557 -58.514192592 -0.113046362 0 236 216
3.498208322 -58.610915764 -0.109957533 0 236 213
3.498231564 -58.708087410 -0.112829606 0 236 216
3.498287606 -58.805266762 -0.115791900 0 235 219
3.496682829 -58.902097374 -0.114131415 0 236 216
3.493573429 -58.998610262 -0.108282754 0 236 213
3.489796426 -59.094980513 -0.100575130 0 238 204
3.487094385 -59.191576157 -0.095857791 0 238 201
3.486618398 -59.288642502 -0.097334097 0 238 201
3.485509355 -59.385574807 -0.097047626 0 238 201
3.482026199 -59.482001841 -0.090153205 0 239 195
3.480224848 -59.578785524 -0.087937914 0 239 195
3.483615233 -59.676677417 -0.100169607 0 238 204
3.488803213 -59.774957328 -0.117402886 0 235 219
3.492982682 -59.873025869 -0.131828630 0 233 234
3.495185230 -59.970673930 -0.140751774 0 232 240
3.494784838 -60.067764559 -0.142430057 0 231 243
3.491864469 -60.164312623 -0.137094257 0 232 237
3.488088342 -60.260674486 -0.129375768 0 233 231
3.483901293 -60.356945364 -0.120512529 0 235 222
3.478865745 -60.453029977 -0.109286742 0 236 213
3.473497401 -60.549039273 -0.097133590 0 238 201
3.471791832 -60.645841609 -0.095172865 0 238 201
3.475474376 -60.743817021 -0.108206409 0 236 213
3.480090976 -60.841999876 -0.123838527 0 234 225
3.481633174 -60.939515075 -0.130913427 0 233 231
3.475587291 -61.035370707 -0.116869028 0 235 219
3.464422871 -61.130099699 -0.088578017 0 239 195
3.458894572 -61.226059357 -0.075971614 0 241 183
3.458456556 -61.323136047 -0.077530907 0 241 186
3.458682496 -61.420359604 -0.080937015 0 240 189
3.460406806 -61.517915115 -0.088512268 0 239 195
3.464339831 -61.615961500 -0.102233727 0 237 207
3.466668347 -61.713656044 -0.111488601 0 236 216
3.461517584 -61.809692381 -0.099926213 0 238 204
3.453461806 -61.905079352 -0.080277386 0 241 186
3.446979852 -62.000811591 -0.065007584 0 243 174
3.443216502 -62.097146446 -0.057303061 0 244 168
3.442371997 -62.194131834 -0.057721242 0 244 168
3.443951056 -62.291660198 -0.064883750 0 243 174
3.446757247 -62.389465901 -0.075460685 0 241 183
3.448855348 -62.487115419 -0.084065825 0 240 192
3.448236297 -62.584155614 -0.085107325 0 240 192
3.444266406 -62.680440431 -0.076821326 0 241 183
3.439029667 -62.776436787 -0.065008121 0 243 174
3.437396965 -62.873245474 -0.063224974 0 243 171
3.441891350 -62.971442588 -0.078494553 0 241 186
3.447074510 -63.069800361 -0.095680310 0 238 201
3.448890509 -63.167397057 -0.103493075 0 237 207
3.446668843 -63.264076014 -0.100066440 0 238 204
3.439317163 -63.359583262 -0.082359797 0 240 189
3.410387905 -63.450152805 -0.004592541 0 252 120
3.375419430 -63.539317889 0.089986265 76 255 68
3.336969250 -63.627658170 0.194258175 189 255 19
3.282491252 -63.712286970 0.343144880 246 226 0
3.252092046 -63.802416301 0.425011508 255 196 0
3.248912648 -63.898798121 0.431114141 255 191 0
3.256199443 -63.997595149 0.408085314 255 209 0
3.260357326 -64.095674852 0.393766699 253 212 0
3.255979097 -64.191780795 0.403209480 254 210 0
3.247112933 -64.286842600 0.425145751 255 196 0
3.235814939 -64.381333044 0.453852423 255 175 0
3.222546485 -64.475356743 0.488045344 255 147 0
3.213125019 -64.570268254 0.511531286 255 128 0
3.212413269 -64.667208063 0.510774272 255 128 0
3.217908325 -64.765600550 0.492741060 255 142 0
3.216053195 -64.862275238 0.495168833 255 139 0
3.215970449 -64.959365403 0.492664051 255 142 0
3.214672988 -65.056170637 0.493541653 255 142 0
3.223593319 -65.155382463 0.465977548 255 164 0
3.239549948 -65.256262077 0.418827557 255 202 0
3.250721459 -65.356023967 0.384998430 252 215 0
3.250024612 -65.452985938 0.384207923 252 215 0
3.244682522 -65.548846806 0.396349475 253 211 0
3.245242238 -65.646105899 0.392063249 252 213 0
3.250139935 -65.744398067 0.375702284 251 217 0
3.253833152 -65.842407836 0.362695205 249 221 0
3.254647222 -65.939734175 0.357703929 248 223 0
3.251457670 -66.036104979 0.363858852 249 221 0
3.241694232 -66.130900271 0.388315191 252 214 0
3.220831829 -66.223027360 0.443670115 255 183 0
3.204471495 -66.316220448 0.486493728 255 147 0
3.203266421 -66.413047529 0.487129243 255 147 0
3.216916927 -66.513453934 0.446410317 255 180 0
3.236131121 -66.615214385 0.390203611 252 213 0
3.245679362 -66.714653975 0.360906143 248 222 0
3.252371027 -66.813410120 0.339561829 246 227 0
3.255841120 -66.911391006 0.327186892 244 231 0
3.250183901 -67.007158513 0.340222464 246 227 0
3.234418538 -67.100463477 0.381399459 251 216 0
3.215419978 -67.192969293 0.431578909 255 191 0
3.209019776 -67.288535710 0.446686806 255 180 0
3.204063725 -67.384450961 0.457775466 255 169 0
3.198891966 -67.480310369 0.469465831 255 161 0
3.193983098 -67.576231035 0.480425496 255 153 0
3.196406986 -67.673949484 0.470971984 255 161 0
3.205266841 -67.773253624 0.443601671 255 183 0
3.212350582 -67.872127840 0.421176913 255 199 0
3.211743519 -67.969110695 0.420164480 255 199 0
3.212003773 -68.066308204 0.416738462 255 202 0
3.213351449 -68.163775850 0.410286033 255 207 0
3.218588529 -68.262209491 0.393006234 253 212 0
3.227622283 -68.361590609 0.365157072 249 220 0
3.235678547 -68.460736416 0.340030153 246 227 0
3.228616619 -68.556123984 0.356994824 248 223 0
3.213454031 -68.649486263 0.396513989 253 211 0
3.219611874 -68.748164016 0.376675551 251 217 0
3.230189607 -68.847953217 0.344532349 247 225 0
3.240611333 -68.947712275 0.312824266 242 234 0
3.239422219 -69.044566035 0.313443614 242 234 0
3.225608449 -69.138246212 0.349213499 247 224 0
3.217555469 -69.233366825 0.368945576 250 219 0
3.221884327 -69.331603978 0.354205175 247 223 0
3.223924703 -69.429267355 0.345837370 247 225 0
3.220552712 -69.525564236 0.352539912 247 223 0
3.210660293 -69.620207684 0.377398138 251 217 0
3.208702751 -69.716857240 0.380164823 251 216 0
3.196967710 -69.811021895 0.410155941 255 207 0
3.192522127 -69.907033129 0.419852397 255 199 0
3.188999410 -70.003276903 0.426980470 255 194 0
3.186023092 -70.099658199 0.432588333 255 191 0
3.188012006 -70.197307167 0.424372443 255 196 0
3.192617848 -70.295628390 0.408871103 255 209 0
3.192486081 -70.392739296 0.406561912 255 209 0
3.185116867 -70.487992510 0.424405540 255 196 0
3.172987277 -70.582016653 0.455505143 255 172 0
3.161147675 -70.676106903 0.485798667 255 147 0
3.155130755 -70.771690641 0.499880786 255 137 0
3.160743658 -70.870274686 0.481581701 255 150 0
3.178334257 -70.971962501 0.429932323 255 194 0
3.196937651 -71.073927086 0.375463450 251 217 0
3.207242672 -71.173753606 0.344101682 246 226 0
3.205119731 -71.270359333 0.347346106 247 225 0
3.197274519 -71.365475005 0.366525258 249 220 0
3.190355841 -71.460826891 0.383125718 252 215 0
3.185720319 -71.556770163 0.393369912 253 212 0
3.183633359 -71.653376845 0.396518719 253 211 0
3.181959277 -71.750090787 0.398518944 253 211 0
3.180395619 -71.846833170 0.400212776 254 211 0
3.180440883 -71.943997570 0.397427534 253 211 0
3.185217493 -72.042406887 0.381468499 251 216 0
3.192550132 -72.141493766 0.358392871 248 222 0
3.190826833 -72.238198853 0.360535362 248 222 0
3.186249359 -72.431308276 0.367972686 249 220 0
3.186491840 -72.528531976 0.364644445 249 221 0
3.190122281 -72.626655350 0.351882912 247 223 0
3.186719886 -72.722914032 0.358706506 248 222 0
3.172118842 -72.816191620 0.396715995 253 211 0
3.145607571 -72.906285566 0.467893357 255 161 0
3.066317983 -72.982278161 0.686045120 255 18 135
3.053993423 -73.076102976 0.717720504 255 0 168
