ply
format ascii 1.0
comment coordinate_system ground
comment units millimeter
element vertex 1514
property double x
property double y
property double z
property uchar red
property uchar green
property uchar blue
comment color_mapping zg_high_contrast_from_zg
comment color_zg_range_mm -0.349377690 19.830379230
end_header
6.450472636 147.102611728 0.084793911 0 232 240
6.451658100 147.006760226 0.076494804 0 232 240
6.455876124 146.912724583 0.059847171 0 232 240
6.461862690 146.819744107 0.038331040 0 231 243
6.464986349 146.725043980 0.024697977 0 231 243
6.465180354 146.628587529 0.019131884 0 231 243
6.464619546 146.531678499 0.015644899 0 231 243
6.464311586 146.434919878 0.011462644 0 231 243
6.465834627 146.339253808 0.002239927 0 231 243
6.466898086 146.243311202 -0.005716566 0 231 243
6.462817230 146.144298559 0.000491965 0 231 243
6.459114431 146.045513250 0.005660567 0 231 243
6.456844295 145.947583020 0.006885480 0 231 243
6.454165355 145.849410065 0.009236954 0 231 243
6.450191234 145.750467556 0.015155572 0 231 243
6.446053764 145.651429854 0.021524971 0 231 243
6.443039571 145.553061573 0.024802486 0 231 243
6.442519488 145.456175366 0.021213524 0 231 243
6.443034591 145.359902706 0.014775100 0 231 243
6.439925849 145.261479653 0.018315796 0 231 243
6.431632251 145.159985264 0.036134046 0 231 243
6.425816672 145.059963644 0.047130137 0 232 240
6.425896459 144.963434530 0.041894140 0 231 243
6.428322876 144.868292226 0.030197444 0 231 243
6.429116312 144.772181746 0.022998096 0 231 243
6.424784082 144.673041785 0.029913592 0 231 243
6.417376497 144.572088549 0.045298416 0 232 240
6.410115058 144.471226073 0.060281922 0 232 240
6.403189479 144.370566042 0.074341700 0 232 240
6.398603120 144.271288434 0.081961182 0 232 240
6.400130524 144.175613075 0.072746442 0 232 240
6.406283028 144.082657021 0.050796501 0 232 240
6.411768325 143.989302855 0.030684549 0 231 243
6.411713922 143.892687915 0.025828048 0 231 243
6.405041941 143.792185490 0.039195425 0 231 243
6.396958500 143.690858653 0.056450684 0 232 240
6.395140887 143.593211978 0.056452528 0 232 240
6.399024678 143.498907486 0.040754964 0 231 243
6.402788598 143.404528745 0.025388274 0 231 243
6.405237250 143.309376118 0.013644348 0 231 243
6.405534758 143.212962109 0.007825092 0 231 243
6.402814243 143.114782368 0.010317838 0 231 243
6.399991348 143.016543802 0.013093496 0 231 243
6.399322881 142.919564212 0.009937142 0 231 243
6.399093958 142.822840524 0.005571251 0 231 243
6.397583760 142.725368811 0.004734749 0 231 243
6.396026727 142.627869880 0.004028165 0 231 243
6.397308677 142.532024341 -0.004495807 0 231 243
6.402278424 142.438322944 -0.023174873 0 231 243
6.402821825 142.342042378 -0.029663263 0 231 243
6.394605001 142.240668797 -0.012025432 0 231 243
6.381791083 142.136630261 0.018273845 0 231 243
6.368170120 142.032131948 0.050797000 0 232 240
6.365554750 141.934026933 0.053011952 0 232 240
6.358192471 141.833171105 0.068300980 0 232 240
6.355129027 141.734810162 0.071751964 0 232 240
6.358053136 141.639916853 0.058713889 0 232 240
6.360727270 141.544875633 0.046365071 0 232 240
6.358276237 141.446868100 0.048132213 0 232 240
6.352264506 141.346804035 0.059706839 0 232 240
6.344725768 141.245861769 0.075488095 0 232 240
6.339841733 141.146456012 0.083959081 0 232 240
6.340787075 141.050414410 0.076376162 0 232 240
6.345323301 140.956440343 0.058904245 0 232 240
6.347435168 140.861065607 0.048110197 0 232 240
6.347558236 140.764543635 0.042794515 0 231 243
6.348871270 140.668704894 0.034202317 0 231 243
6.347965941 140.571589097 0.031720837 0 231 243
6.341912606 140.471516080 0.043419095 0 231 243
6.334840571 140.370861887 0.057924189 0 232 240
6.332990878 140.273207592 0.058046683 0 232 240
6.336189595 140.178447538 0.044265403 0 231 243
6.340314451 140.084214535 0.027934071 0 231 243
6.341344779 139.988205826 0.020126798 0 231 243
6.337893927 139.889631653 0.024663017 0 231 243
6.333170650 139.790331598 0.032704928 0 231 243
6.330016664 139.691930661 0.036425501 0 231 243
6.326578711 139.593368941 0.040929219 0 231 243
6.321682428 139.493976712 0.049450739 0 232 240
6.318800043 139.395735454 0.052426232 0 232 240
6.319774425 139.299692951 0.044779579 0 232 240
6.319922446 139.203178108 0.039409952 0 231 243
6.317250819 139.105057595 0.041807785 0 231 243
6.313511186 139.006330729 0.047148378 0 232 240
6.313027015 138.909455695 0.043522900 0 231 243
6.316162246 138.814635464 0.029928742 0 231 243
6.315080812 138.717418741 0.027950210 0 231 243
6.308350462 138.616998039 0.041532655 0 231 243
6.298097978 138.514585189 0.064818040 0 232 240
6.286565008 138.411453846 0.091631799 0 232 240
6.278465009 138.310273310 0.108990472 0 232 240
6.277067859 138.212889189 0.107886766 0 232 240
6.280121140 138.118020673 0.094524882 0 232 240
6.285112036 138.024243287 0.075826440 0 232 240
6.289735559 137.930253693 0.058140730 0 232 240
6.292675724 137.835309957 0.045092829 0 232 240
6.293915595 137.739404452 0.036729467 0 231 243
6.296302621 137.644143212 0.025206944 0 231 243
6.297196498 137.548038534 0.017798406 0 231 243
6.295240815 137.450329026 0.018240424 0 231 243
6.291249832 137.351475721 0.024290070 0 231 243
6.284568333 137.251112824 0.037752380 0 231 243
6.274881071 137.149066413 0.059495900 0 232 240
6.266660189 137.047849068 0.077201095 0 232 240
6.274979690 136.955910841 0.049342461 0 232 240
6.271190161 136.857180545 0.054842282 0 232 240
6.275852374 136.763184415 0.037060253 0 231 243
6.272129662 136.664491998 0.042377922 0 231 243
6.265202899 136.564009803 0.056523231 0 232 240
6.249760946 136.458773723 0.094127700 0 232 240
6.242509970 136.358122207 0.109168531 0 232 240
6.244630946 136.262704921 0.098391915 0 232 240
6.248397454 136.168202612 0.083082885 0 232 240
6.249587677 136.072260754 0.074872076 0 232 240
6.248519891 135.975059528 0.072882780 0 232 240
6.247418633 135.877839464 0.070986636 0 232 240
6.251050331 135.783251304 0.056052378 0 232 240
6.256313871 135.689566240 0.036623254 0 231 243
6.256294723 135.592942364 0.031748585 0 231 243
6.252043432 135.493968734 0.038534362 0 231 243
6.245846472 135.393918252 0.050681516 0 232 240
6.240529817 135.294359345 0.060404504 0 232 240
6.237803216 135.196237935 0.062992858 0 232 240
6.237256173 135.099323873 0.059577407 0 232 240
6.238197311 135.003232291 0.052062837 0 232 240
6.237900430 134.906454727 0.047960004 0 232 240
6.236012226 134.808797459 0.048242343 0 232 240
6.237156325 134.712814253 0.040171310 0 231 243
6.240121330 134.617833494 0.027084325 0 231 243
6.241272470 134.521849708 0.018995627 0 231 243
6.236812511 134.422773465 0.026367276 0 231 243
6.229007337 134.321858344 0.042956620 0 231 243
6.225359654 134.223234915 0.048092439 0 232 240
6.226215179 134.127088460 0.040822028 0 231 243
6.229247687 134.032136106 0.027554442 0 231 243
6.229703073 133.935765870 0.021388251 0 231 243
6.224863643 133.836489997 0.029811496 0 231 243
6.220727753 133.737602432 0.036297362 0 231 243
6.221002509 133.641132952 0.030631712 0 231 243
6.224965104 133.546680881 0.014805892 0 231 243
6.230518838 133.453095132 -0.005403203 0 231 243
6.234633812 133.358717711 -0.021647300 0 231 243
6.235230852 133.262414545 -0.028197508 0 231 243
6.232001096 133.164021058 -0.024202650 0 231 243
6.225481433 133.063834472 -0.011141876 0 231 243
6.217667844 132.962946536 0.005485266 0 231 243
6.213671212 132.864142680 0.011596330 0 231 243
6.212864715 132.767077351 0.008918297 0 231 243
6.206241280 132.666847510 0.022269349 0 231 243
6.194941815 132.564079958 0.048506042 0 232 240
6.186170252 132.462693133 0.067778468 0 232 240
6.183858846 132.364818615 0.069251299 0 232 240
6.186399981 132.269577016 0.057354007 0 232 240
6.187049992 132.173307407 0.050668552 0 232 240
6.184231292 132.075157415 0.053542087 0 232 240
6.184087095 131.978456249 0.049046948 0 232 240
6.190251252 131.885166434 0.027169781 0 231 243
6.198244268 131.792859485 0.000253822 0 231 243
6.197078775 131.695598521 -0.001424498 0 231 243
6.187537563 131.593816515 0.019978179 0 231 243
6.175488387 131.490688015 0.048293016 0 232 240
6.166154377 131.389031180 0.069127171 0 232 240
6.173066311 131.296130934 0.045194646 0 232 240
6.167175096 131.196333207 0.056543820 0 232 240
6.171373459 131.101965800 0.040090607 0 231 243
6.172481197 131.005933047 0.032154962 0 231 243
6.169328120 130.907609962 0.035961705 0 231 243
6.168446697 130.810507539 0.033509449 0 231 243
6.164251638 130.711627552 0.040189603 0 231 243
6.169628623 130.617880032 0.020492762 0 231 243
6.166210798 130.519417087 0.025033006 0 231 243
6.164073378 130.421641033 0.026045775 0 231 243
6.166472232 130.326291719 0.014558548 0 231 243
6.158048859 130.225155749 0.032896036 0 231 243
6.149638665 130.124032242 0.051198377 0 232 240
6.142505193 130.023595513 0.065983469 0 232 240
6.140344158 129.925815030 0.067066450 0 232 240
6.143490258 129.830863488 0.053524716 0 232 240
6.147373158 129.736300947 0.037953285 0 231 243
6.148134523 129.640073318 0.030985263 0 231 243
6.146102924 129.542358892 0.031715273 0 231 243
6.145802974 129.445565227 0.027673994 0 231 243
6.149085908 129.350673389 0.013759468 0 231 243
6.149487693 129.254249229 0.007786063 0 231 243
6.139959295 129.152558235 0.029180753 0 231 243
6.126122196 129.048590436 0.062451325 0 232 240
6.119709202 128.948563223 0.075262479 0 232 240
6.122197513 128.853249736 0.063542714 0 232 240
6.127335530 128.759334375 0.044521162 0 231 243
6.130535431 128.664390117 0.030841901 0 231 243
6.132480946 128.568780167 0.020620622 0 231 243
6.136368917 128.474192593 0.005046681 0 231 243
6.142396400 128.380729070 -0.016423105 0 231 243
6.146855580 128.286433755 -0.033569754 0 231 243
6.145504677 128.189075339 -0.034702393 0 231 246
6.140737781 128.089919922 -0.026419172 0 231 243
6.137425574 127.991531880 -0.022144201 0 231 243
6.137231872 127.894783576 -0.026463274 0 231 243
6.134947912 127.796937209 -0.025020313 0 231 243
6.126377034 127.695793805 -0.006248472 0 231 243
6.117080932 127.594275814 0.014523413 0 231 243
6.109639677 127.493735480 0.030184157 0 231 243
6.104637363 127.394476407 0.039123777 0 231 243
6.102007162 127.296460858 0.041526363 0 231 243
6.100188299 127.198870391 0.041693700 0 231 243
6.097380306 127.100763751 0.044588336 0 231 243
6.092559125 127.001607628 0.053032901 0 232 240
6.085601903 126.901340250 0.067366114 0 232 240
6.080364352 126.801973370 0.076960507 0 232 240
6.082630611 126.706517093 0.065873016 0 232 240
6.089225746 126.613310727 0.042854519 0 231 243
6.092555946 126.518400666 0.028836093 0 231 243
6.091212879 126.421058859 0.027699771 0 231 243
6.088196625 126.322848356 0.031176373 0 231 243
6.086841206 126.225500902 0.030076067 0 231 243
6.089801851 126.130391242 0.017079861 0 231 243
6.097340666 126.037650244 -0.008534914 0 231 243
6.103725816 125.944305296 -0.030968959 0 231 243
6.101399086 125.846447687 -0.029388298 0 231 243
6.091788299 125.744825461 -0.007728303 0 231 243
6.080348830 125.642264969 0.018973659 0 231 243
6.073023029 125.541835622 0.034337541 0 231 243
6.062467182 125.439744839 0.058606266 0 232 240
6.059072705 125.341352244 0.063135665 0 232 240
6.064740591 125.247628747 0.042685239 0 231 243
6.066619103 125.151949752 0.032681237 0 231 243
6.073126458 125.058648888 0.009918340 0 231 243
6.070023375 124.960403341 0.013648270 0 231 243
6.066023080 124.861698471 0.019852491 0 231 243
6.055565881 124.759682424 0.043857022 0 231 243
6.049036828 124.659687566 0.057034317 0 232 240
6.046153422 124.561564667 0.060162960 0 232 240
6.047158866 124.465434084 0.052572350 0 232 240
6.051041026 124.370773557 0.037052459 0 231 243
6.056401366 124.276864824 0.017458493 0 231 243
6.062060716 124.183103815 -0.002958975 0 231 243
6.063506014 124.087186394 -0.011758680 0 231 243
6.058635173 123.988045115 -0.003145527 0 231 243
6.053550320 123.888797513 0.006058688 0 231 243
6.047525234 123.789073948 0.017855996 0 231 243
6.039304688 123.688236644 0.035706836 0 231 243
6.031062486 123.587393640 0.053618558 0 232 240
6.029533038 123.489967316 0.053025638 0 232 240
6.034260365 123.395718459 0.035184839 0 231 243
6.041039023 123.302505967 0.011689639 0 231 243
6.044265849 123.207486426 -0.002012919 0 231 243
6.042361344 123.109863612 -0.001568198 0 231 243
6.039248560 123.011629571 0.002208611 0 231 243
6.036418487 122.913539985 0.005207044 0 231 243
6.032212367 122.814755988 0.012000151 0 231 243
6.025426368 122.714671041 0.025906876 0 231 243
6.020482036 122.615519929 0.034737362 0 231 243
6.017546666 122.517384931 0.038030305 0 231 243
6.014293040 122.419090830 0.042201697 0 231 243
6.009675562 122.320111401 0.050134257 0 232 240
6.005866262 122.221541261 0.055839744 0 232 240
6.005111836 122.124509264 0.053123931 0 232 240
6.008116367 122.029365711 0.040045504 0 231 243
6.014995679 121.936164466 0.016284967 0 231 243
6.024619458 121.844334006 -0.015041502 0 231 243
6.031434518 121.751087168 -0.038623447 0 231 246
6.030428591 121.653916218 -0.040641452 0 231 246
6.023853926 121.553957512 -0.027304865 0 231 243
6.017900983 121.454313864 -0.015681307 0 231 243
6.017937607 121.357667504 -0.020570693 0 231 243
6.019404758 121.261734644 -0.029403318 0 231 243
6.017163757 121.163949162 -0.028011043 0 231 243
6.011827538 121.064620949 -0.018083680 0 231 243
6.004380795 120.964244206 -0.002336082 0 231 243
5.997030700 120.863920327 0.013146200 0 231 243
5.993698851 120.765600326 0.017550430 0 231 243
5.995491429 120.669829558 0.007826422 0 231 243
5.999508283 120.575161457 -0.008029593 0 231 243
6.001097715 120.479284421 -0.017191715 0 231 243
5.998700227 120.381427694 -0.015359868 0 231 243
5.992696450 120.281784481 -0.003583381 0 231 243
5.983596358 120.180611466 0.016731744 0 231 243
5.974232360 120.079313856 0.037775757 0 231 243
5.969660836 119.980392273 0.045606495 0 232 240
5.973747578 119.885751364 0.029564369 0 231 243
5.979511577 119.791934529 0.008898246 0 231 243
5.979894185 119.695457494 0.003071488 0 231 243
5.976450360 119.597092947 0.007796678 0 231 243
5.971974113 119.498221544 0.015369739 0 231 243
5.977409684 119.404231272 -0.004387283 0 231 243
5.975560838 119.306653291 -0.004057127 0 231 243
5.978180001 119.211271572 -0.016046327 0 231 243
5.973648036 119.112375288 -0.008315594 0 231 243
5.974852757 119.016296426 -0.016402635 0 231 243
5.974858416 118.919627827 -0.021182342 0 231 243
5.978277003 118.824630371 -0.035372314 0 231 246
5.983271593 118.730400914 -0.053907319 0 231 246
5.982261305 118.633229394 -0.055882775 0 231 246
5.972638662 118.531848191 -0.034108140 0 231 246
5.968446774 118.433125770 -0.027308001 0 231 243
5.960147201 118.332401004 -0.009179465 0 231 243
5.956715541 118.234055417 -0.004473529 0 231 243
5.955170863 118.136630972 -0.004970121 0 231 243
5.952180920 118.038503126 -0.001480204 0 231 243
5.945152113 117.938411758 0.013148531 0 231 243
5.938305222 117.838413262 0.027276762 0 231 243
5.936987328 117.741104686 0.026158936 0 231 243
5.795613373 107.426268952 -0.082043345 0 231 246
5.821077963 106.857285558 -0.180175545 0 230 249
5.628231162 97.876455454 -0.070711261 0 231 246
5.644870700 97.786510684 -0.121195503 0 230 249
5.652433444 97.692855693 -0.146621225 0 230 249
5.647110948 97.593951238 -0.136474139 0 230 249
5.640966742 97.494715981 -0.124057416 0 230 249
5.638061085 97.396799845 -0.120580218 0 230 249
5.637294434 97.299752990 -0.123007150 0 230 249
5.636043857 97.202509728 -0.124097073 0 230 249
5.633571421 97.104771759 -0.121812715 0 230 249
5.629498697 97.006387368 -0.115109271 0 230 249
5.625060439 96.907857499 -0.107395557 0 231 246
5.623801068 96.810613953 -0.108456979 0 231 246
5.625182109 96.714435843 -0.116807048 0 230 249
5.625834653 96.617962214 -0.123144912 0 230 249
5.625632868 96.521143228 -0.127123131 0 230 249
5.625990327 96.424548565 -0.132644345 0 230 249
5.627227216 96.328306281 -0.140592563 0 230 249
5.628215735 96.231962496 -0.147854101 0 230 249
5.628237443 96.135229278 -0.152445406 0 230 249
5.627718311 96.038278456 -0.155542508 0 230 249
5.626915083 95.941213452 -0.157854230 0 230 249
5.626402472 95.844264495 -0.160967311 0 230 249
5.626449463 95.747538751 -0.165624418 0 230 249
5.625256132 95.650316930 -0.166856038 0 230 249
5.620410287 95.551638260 -0.158002102 0 230 249
5.613661358 95.452204074 -0.143892625 0 230 249
5.606933716 95.352782688 -0.129840729 0 230 249
5.599729835 95.253176190 -0.114472737 0 230 249
5.592084803 95.153399067 -0.097885502 0 231 246
5.586883805 95.054597187 -0.088045165 0 231 246
5.586440200 94.957685232 -0.091339168 0 231 246
5.589559346 94.862184423 -0.104469214 0 231 246
5.596039891 94.768010983 -0.126879498 0 230 249
5.603298815 94.674139601 -0.151438164 0 230 249
5.604671553 94.577936384 -0.159743539 0 230 249
5.601140648 94.479795866 -0.154508310 0 230 249
5.597929630 94.381783358 -0.150155239 0 230 249
5.596916781 94.284638408 -0.151870593 0 230 249
5.597031610 94.187937212 -0.156698647 0 230 249
5.596973160 94.091166984 -0.161047246 0 230 249
5.595664359 93.993904861 -0.161942362 0 230 249
5.591872956 93.895668731 -0.155981414 0 230 249
5.584956457 93.796209558 -0.141390221 0 230 249
5.579604414 93.697367553 -0.131117688 0 230 249
5.587667313 93.603777586 -0.157886267 0 230 249
5.588795593 93.507470041 -0.165505632 0 230 249
5.580560103 93.407504260 -0.147267872 0 230 249
5.581258982 93.311029417 -0.153699455 0 230 249
5.578059234 93.213033782 -0.149364678 0 230 249
5.581888165 93.117776441 -0.164437385 0 230 249
5.575761160 93.018642746 -0.152017329 0 230 249
5.570279397 92.919763646 -0.141377847 0 230 249
5.566416722 92.821516466 -0.135208131 0 230 249
5.565571137 92.724441544 -0.137368689 0 230 249
5.568886850 92.628978754 -0.151019281 0 230 249
5.573098259 92.533859322 -0.167142366 0 230 249
5.571533685 92.436502359 -0.167314535 0 230 249
5.566733420 92.337895805 -0.158550440 0 230 249
5.562567019 92.239536725 -0.151535603 0 230 249
5.560644647 92.142045185 -0.150716495 0 230 249
5.561017908 92.045438496 -0.156235716 0 230 249
5.563528047 91.949652946 -0.167654961 0 230 249
5.569377556 91.855148332 -0.188295031 0 230 249
5.576141274 91.760989525 -0.211458894 0 230 252
5.573093714 91.663060758 -0.207527560 0 230 252
5.560931258 91.561640148 -0.178423721 0 230 249
5.549181509 91.460386019 -0.150458251 0 230 249
5.541073329 91.360532924 -0.132547994 0 230 249
5.535782351 91.261761696 -0.122416519 0 230 249
5.532040948 91.163585219 -0.116563240 0 230 249
5.529539767 91.065883747 -0.114133897 0 230 249
5.528246072 90.968643392 -0.115038139 0 230 249
5.527836684 90.871739773 -0.118383503 0 230 249
5.528005294 90.775055419 -0.123324101 0 230 249
5.527758770 90.678212451 -0.127117223 0 230 249
5.525995885 90.580793488 -0.126721578 0 230 249
5.524474185 90.483466487 -0.126990969 0 230 249
5.525613248 90.387147427 -0.134607647 0 230 249
5.529057881 90.291698894 -0.148590773 0 230 249
5.530540607 90.195505485 -0.157154660 0 230 249
5.528033806 90.097803935 -0.154699370 0 230 249
5.525108124 89.999945507 -0.151086136 0 230 249
5.523402805 89.902548310 -0.150842230 0 230 249
5.521278061 89.804993739 -0.149438886 0 230 249
5.516972094 89.706619813 -0.142010288 0 230 249
5.510483730 89.607428586 -0.128553094 0 230 249
5.504995462 89.508616790 -0.117856843 0 230 249
5.505352122 89.411999468 -0.123302439 0 230 249
5.510096219 89.317024120 -0.140864697 0 230 249
5.515890617 89.222437278 -0.161326921 0 230 249
5.519238021 89.126930707 -0.175029885 0 230 249
5.516631983 89.029198090 -0.172288880 0 230 249
5.508248270 88.929311790 -0.153589118 0 230 249
5.497738426 88.828638921 -0.129015797 0 230 249
5.490981211 88.729370000 -0.114805868 0 230 249
5.494062321 88.633763521 -0.127768174 0 230 249
5.503320524 88.540448308 -0.157790766 0 230 249
5.510000829 88.446168684 -0.180692393 0 230 249
5.511529978 88.349973752 -0.189365497 0 230 249
5.507781784 88.251822676 -0.183461325 0 230 249
5.500271613 88.152282049 -0.167165196 0 230 249
5.491785957 88.052385876 -0.148173472 0 230 249
5.483645128 87.952622668 -0.130132942 0 230 249
5.485472201 87.856540735 -0.139623634 0 230 249
5.483289203 87.758979343 -0.138037046 0 230 249
5.484034295 87.662496377 -0.144537184 0 230 249
5.485893111 87.566421478 -0.154112612 0 230 249
5.479068733 87.467155502 -0.139702631 0 230 249
5.481647840 87.371343731 -0.151265596 0 230 249
5.481699096 87.274602782 -0.155845201 0 230 249
5.479393772 87.176998249 -0.153914422 0 230 249
5.483583296 87.081769972 -0.169922807 0 230 249
5.477864452 86.982917793 -0.158561008 0 230 249
5.475853688 86.885422469 -0.157440694 0 230 249
5.477081483 86.789108583 -0.165265083 0 230 249
5.478073199 86.692706984 -0.172436378 0 230 249
5.478262418 86.596011875 -0.177389957 0 230 249
5.476398417 86.498569618 -0.176670895 0 230 249
5.472383085 86.400346945 -0.170008091 0 230 249
5.468149860 86.302047515 -0.162742265 0 230 249
5.465642852 86.204375906 -0.160243730 0 230 249
5.465278436 86.107480832 -0.163662741 0 230 249
5.466013195 86.010982621 -0.170117072 0 230 249
5.466546744 85.914410389 -0.176014590 0 230 249
5.465565881 85.817290612 -0.177727680 0 230 249
5.462940931 85.719578290 -0.174898063 0 230 249
5.459854651 85.621701097 -0.170792960 0 230 249
5.457831667 85.524207846 -0.169624065 0 230 249
5.457773037 85.427421012 -0.173880562 0 230 249
5.458221974 85.330815574 -0.179538192 0 230 249
5.457325403 85.233726670 -0.181477857 0 230 249
5.455432951 85.136281037 -0.180665353 0 230 249
5.453037526 85.038656136 -0.178462305 0 230 249
5.448341073 84.940210041 -0.169901494 0 230 249
5.443348256 84.841660949 -0.160520813 0 230 249
5.440239402 84.743786633 -0.156343553 0 230 249
5.439123583 84.646623790 -0.157671111 0 230 249
5.439559122 84.550012987 -0.163283399 0 230 249
5.441339799 84.453879154 -0.172610778 0 230 249
5.443737321 84.357962179 -0.183641302 0 230 249
5.445087531 84.261671143 -0.191777538 0 230 252
5.443150045 84.164213522 -0.190830030 0 230 249
5.438619504 84.065838909 -0.182717705 0 230 249
5.433428035 83.967233312 -0.172778299 0 230 249
5.429236094 83.868983853 -0.165599124 0 230 249
5.428435058 83.771932959 -0.167786902 0 230 249
5.431600572 83.676279592 -0.180932124 0 230 249
5.434067516 83.580377129 -0.192146453 0 230 252
5.431095015 83.482559431 -0.188331995 0 230 249
5.424486369 83.383466091 -0.174470616 0 230 249
5.419218562 83.284847433 -0.164312476 0 230 249
5.417882690 83.187610015 -0.165016302 0 230 249
5.418598799 83.091091194 -0.171388306 0 230 249
5.418637345 82.994334093 -0.175887324 0 230 249
5.417991196 82.897336995 -0.178493627 0 230 249
5.417369914 82.800348279 -0.181167597 0 230 249
5.414767806 82.702668814 -0.178367773 0 230 249
5.408833769 82.603830443 -0.166361139 0 230 249
5.403379708 82.505162745 -0.155679440 0 230 249
5.402239989 82.407997287 -0.156916701 0 230 249
5.402962069 82.311478019 -0.163296921 0 230 249
5.403365373 82.214846909 -0.168795384 0 230 249
5.403624560 82.118164800 -0.173894651 0 230 249
5.401640875 82.020705923 -0.172795931 0 230 249
5.394547570 81.921482357 -0.157578355 0 230 249
5.384245713 81.821156061 -0.133494348 0 230 249
5.386397652 81.725130223 -0.143818974 0 230 249
5.383865871 81.627489054 -0.141201419 0 230 249
5.384253413 81.530853227 -0.146648967 0 230 249
5.386616291 81.434895047 -0.157553462 0 230 249
5.392770287 81.340235465 -0.178932111 0 230 249
5.392758025 81.243456375 -0.183272054 0 230 249
5.396313768 81.147898398 -0.197469708 0 230 252
5.390768675 81.049223753 -0.186519855 0 230 249
5.387457479 80.951315862 -0.181741351 0 230 249
5.378559582 80.851502903 -0.161524918 0 230 249
5.376180263 80.753918333 -0.159319023 0 230 249
5.377381496 80.657554150 -0.167005694 0 230 249
5.379901946 80.561637023 -0.178336611 0 230 249
5.381473993 80.465394935 -0.187045957 0 230 249
5.377264274 80.367188504 -0.179778112 0 230 249
5.369968530 80.267938264 -0.163981754 0 230 249
5.366058083 80.169839214 -0.157538544 0 230 249
5.367047350 80.073399745 -0.164633330 0 230 249
5.368626895 79.977158182 -0.173358217 0 230 249
5.366795580 79.879763474 -0.172656975 0 230 249
5.361119892 79.781073379 -0.161331533 0 230 249
5.354063837 79.681922015 -0.146190528 0 230 249
5.350877967 79.584077003 -0.141742866 0 230 249
5.353630032 79.488228620 -0.153702591 0 230 249
5.358830480 79.393199012 -0.172427107 0 230 249
5.363228966 79.297895830 -0.188934636 0 230 249
5.364363869 79.201495773 -0.196422755 0 230 252
5.362840549 79.104205037 -0.196564175 0 230 252
5.361522317 79.006983196 -0.197271269 0 230 252
5.360108278 78.909729610 -0.197712547 0 230 252
5.357556551 78.812097129 -0.195008836 0 230 252
5.355655543 78.714682453 -0.194102256 0 230 252
5.357701443 78.618580949 -0.204101731 0 230 252
5.363659084 78.523776419 -0.224910243 0 230 252
5.367872653 78.428387922 -0.240898171 0 230 252
5.363225735 78.330059113 -0.232399201 0 230 252
5.355261283 78.230634923 -0.214731009 0 230 252
5.349606670 78.131979737 -0.203444879 0 230 252
5.343062210 78.033034214 -0.189698435 0 230 249
5.334345635 77.933376394 -0.169948004 0 230 249
5.333045993 77.836168230 -0.170693557 0 230 249
5.317750330 76.766567385 -0.176061886 0 230 249
-2.021696005 66.670193163 19.765669853 255 0 168
-2.009683640 66.579674450 19.728318866 255 2 164
-2.023120398 66.481684555 19.761334614 255 0 168
-2.029814811 66.385678337 19.775709300 255 0 168
-2.031211493 66.291225641 19.775436996 255 0 168
-2.030715862 66.197325888 19.769933496 255 0 168
-2.033238120 66.102544819 19.772775552 255 0 168
-2.039935576 66.006548793 19.787163298 255 0 168
-2.045264137 65.910955331 19.797767194 255 0 168
-2.047523237 65.816256902 19.799885008 255 0 168
-2.047002018 65.722366102 19.794316114 255 0 168
-2.043892973 65.629223974 19.781592652 255 0 168
-2.039671698 65.536400566 19.765794701 255 0 168
-2.036383083 65.443303661 19.752576588 255 0 168
-2.034642988 65.349756589 19.743641282 255 2 164
-2.034394443 65.255777540 19.738831324 255 2 164
-2.036094325 65.161236716 19.739410114 255 2 164
-2.040572231 65.065897872 19.747671714 255 2 164
-2.045982827 64.970293943 19.758513540 255 0 168
-2.049738030 64.875167989 19.764779050 255 0 168
-2.052095421 64.780444366 19.767180442 255 0 168
-2.054904853 64.685592541 19.770832932 255 0 168
-2.058741306 64.590448845 19.777326502 255 0 168
-2.061169874 64.495708814 19.779928044 255 0 168
-2.059574138 64.402115959 19.771402380 255 0 168
-2.056936575 64.308817439 19.759996753 255 0 168
-2.057098191 64.214721124 19.756332666 255 0 168
-2.058812564 64.120183756 19.756963486 255 0 168
-2.059502176 64.025937224 19.754761584 255 0 168
-2.059956033 63.931757160 19.751908795 255 0 168
-2.061776349 63.837190674 19.752835803 255 0 168
-2.064838108 63.742274599 19.757196949 255 0 168
-2.069200932 63.646993560 19.765157167 255 0 168
-2.075304551 63.551225327 19.777932535 255 0 168
-2.081227879 63.455511663 19.790210532 255 0 168
-2.084613595 63.360513798 19.795472145 255 0 168
-2.083673955 63.266729767 19.788773368 255 0 168
-2.079510447 63.173846393 19.773160133 255 0 168
-2.076199925 63.080720732 19.759906727 255 0 168
-2.076493679 62.986585979 19.756621835 255 0 168
-2.080851312 62.891318180 19.764576635 255 0 168
-2.081241446 62.797157111 19.761560430 255 0 168
-2.087892752 62.701255507 19.775860705 255 0 168
-2.091289848 62.606261393 19.781162555 255 0 168
-2.094115813 62.511427416 19.784886044 255 0 168
-2.096258109 62.416784071 19.786719916 255 0 168
-2.095958155 62.322816630 19.781800644 255 0 168
-2.093333506 62.229489849 19.770453236 255 0 168
-2.090710508 62.136159864 19.759111361 255 0 168
-2.090889174 62.042055986 19.755518797 255 0 168
-2.093396008 61.947311570 19.758366144 255 0 168
-2.095954909 61.852554031 19.761358596 255 0 168
-2.097705758 61.758019187 19.762117359 255 0 168
-2.098884683 61.663641480 19.761295451 255 0 168
-2.100039127 61.569270619 19.760406907 255 0 168
-2.101723385 61.474755279 19.760984744 255 0 168
-2.104359295 61.379981085 19.764195671 255 0 168
-2.107370457 61.285106018 19.768445558 255 0 168
-2.110524166 61.190193758 19.773090816 255 0 168
-2.114370239 61.095095235 19.779652116 255 0 168
-2.119180410 60.999737588 19.788881041 255 0 168
-2.124531633 60.904236426 19.799607576 255 0 168
-2.128520181 60.809106911 19.806566406 255 0 168
-2.127978326 60.715202458 19.800996118 255 0 168
-2.122555201 60.622612443 19.781926090 255 0 168
-2.116029452 60.530314301 19.759807260 255 0 168
-2.112856369 60.437109383 19.746962292 255 2 164
-2.114373731 60.342642505 19.747091453 255 2 164
-2.117785526 60.247668348 19.752461483 255 0 168
-2.120566707 60.152864810 19.756088433 255 0 168
-2.122043498 60.058411223 19.756108669 255 0 168
-2.124352211 59.963736023 19.758431026 255 0 168
-2.129756385 59.868237009 19.769316353 255 0 168
-2.137066743 59.772234173 19.785475290 255 0 168
-2.143914988 59.676358960 19.800357285 255 0 168
-2.149998109 59.580691234 19.813124190 255 0 168
-2.155662556 59.485138333 19.824734251 255 0 168
-2.159170004 59.390159661 19.830379230 255 0 168
-2.158758086 59.296218322 19.825184277 255 0 168
-2.155951785 59.202907546 19.813367398 255 0 168
-2.154354500 59.109275415 19.804895687 255 0 168
-2.154900832 59.015077488 19.802354364 255 0 168
-2.155951673 58.920746727 19.801209608 255 0 168
-2.156092181 58.826654775 19.797547856 255 0 168
-2.156484403 58.732496267 19.794583420 255 0 168
-2.158817267 58.637829834 19.796988093 255 0 168
-2.162142702 58.542905258 19.802139458 255 0 168
-2.163866553 58.448400074 19.802861738 255 0 168
-2.162758687 58.354632722 19.795752113 255 0 168
-2.161770268 58.260832727 19.788973910 255 0 168
-2.163958685 58.166206550 19.790984463 255 0 168
-2.162122515 58.072624522 19.781863282 255 0 168
-2.136295187 57.985249980 19.706378284 255 2 164
-2.100855931 57.900339167 19.604304780 255 4 161
5.109511744 59.570346746 -0.349377690 0 229 255
4.879902938 59.414418067 0.281636007 0 233 231
4.954142780 59.336743343 0.072136494 0 232 240
4.985825318 59.248091580 -0.019639373 0 231 243
4.995443278 59.153761829 -0.050378368 0 231 246
5.001672280 59.058557006 -0.071741743 0 231 246
5.007964463 58.963362807 -0.093279018 0 231 246
5.011859873 58.867551730 -0.108185186 0 231 246
4.980626198 58.762790356 -0.025911714 0 231 243
4.978296076 58.665402109 -0.023593538 0 231 243
4.979880863 58.569008932 -0.032104289 0 231 243
4.987750507 58.474207196 -0.058000296 0 231 246
5.008952186 58.382773692 -0.120777048 0 230 249
5.020986921 58.289006134 -0.158193894 0 230 249
5.023393649 58.192798657 -0.168974959 0 230 249
5.021127889 58.095411102 -0.166828933 0 230 249
5.017826758 57.997763999 -0.161817500 0 230 249
5.014015254 57.899990436 -0.155392996 0 230 249
5.008779573 57.801861763 -0.145027393 0 230 249
4.999913666 57.702827048 -0.124617625 0 230 249
4.992340539 57.604121666 -0.107783034 0 231 246
4.991506116 57.507104052 -0.109589891 0 231 246
4.992510388 57.410544762 -0.116482473 0 230 249
4.990913219 57.313336324 -0.116177039 0 230 249
4.986731926 57.215486025 -0.108721388 0 231 246
4.991240052 57.119794745 -0.125304444 0 230 249
4.988207048 57.022230554 -0.121023414 0 230 249
4.987654851 56.925281728 -0.123604639 0 230 249
4.989938020 56.829033015 -0.134029151 0 230 249
4.993781560 56.733166679 -0.148769637 0 230 249
4.988665727 56.635090182 -0.138721829 0 230 249
4.988304510 56.538185966 -0.141827197 0 230 249
4.986863578 56.441016189 -0.141944291 0 230 249
4.986265641 56.344053400 -0.144392591 0 230 249
4.984730581 56.246860955 -0.144247086 0 230 249
4.989360446 56.151175423 -0.161157039 0 230 249
4.983290057 56.052874914 -0.148461434 0 230 249
4.975621148 55.954188886 -0.131341924 0 230 249
4.969260740 55.855826214 -0.117841440 0 230 249
4.967593711 55.758607376 -0.117325201 0 230 249
4.970832332 55.662578460 -0.130380706 0 230 249
4.975342591 55.566854146 -0.146953608 0 230 249
4.977679990 55.470600470 -0.157513699 0 230 249
4.975704240 55.373303449 -0.156139094 0 230 249
4.971066820 55.275365912 -0.147398982 0 230 249
4.968525331 55.177935331 -0.144456810 0 230 249
4.969625146 55.081380448 -0.151588497 0 230 249
4.971809122 54.985083934 -0.161718899 0 230 249
4.971470770 54.888181151 -0.164869306 0 230 249
4.968628673 54.790679432 -0.161091026 0 230 249
4.965570247 54.693127507 -0.156713051 0 230 249
4.961567868 54.595352263 -0.149722081 0 230 249
4.955658881 54.497125794 -0.137454463 0 230 249
4.950809244 54.399154671 -0.128116806 0 230 249
4.949838866 54.302106303 -0.129511766 0 230 249
4.950660377 54.205482110 -0.135863776 0 230 249
4.949637173 54.108420548 -0.137110426 0 230 249
4.946222936 54.010794821 -0.131739969 0 230 249
4.941855681 53.912946435 -0.123731333 0 230 249
4.937942018 53.815207317 -0.116976628 0 230 249
4.936051052 53.717945398 -0.115817677 0 230 249
4.937236919 53.621405486 -0.123171431 0 230 249
4.939828938 53.525193027 -0.134415106 0 230 249
4.940679792 53.428570976 -0.140839822 0 230 249
4.939624616 53.331502867 -0.141989307 0 230 249
4.937718164 53.234236543 -0.140782116 0 230 249
4.934131187 53.136580160 -0.134923569 0 230 249
4.928796076 53.038519947 -0.124226507 0 230 249
4.922692785 52.940285024 -0.111402560 0 231 246
4.916980063 52.842144380 -0.099658160 0 231 246
4.915269611 52.744931857 -0.098987610 0 231 246
4.917486620 52.648625617 -0.109184069 0 231 246
4.918505411 52.552041061 -0.116063795 0 230 249
4.916131700 52.454675207 -0.113554631 0 230 249
4.911621891 52.356820246 -0.105133222 0 231 246
4.907341210 52.259020468 -0.097344690 0 231 246
4.903924552 52.161420814 -0.091945976 0 231 246
4.901016899 52.063939234 -0.087954674 0 231 246
4.900107536 51.966914614 -0.089492119 0 231 246
4.902337622 51.870604342 -0.099716345 0 231 246
4.906201754 51.774662831 -0.114461530 0 230 249
4.907658467 51.678171626 -0.122543597 0 230 249
4.903893398 51.580496280 -0.116174077 0 230 249
4.898105104 51.482365750 -0.104204369 0 231 246
4.894145993 51.384651640 -0.097295507 0 231 246
4.893469850 51.287679344 -0.099470778 0 231 246
4.893909049 51.190957635 -0.104731591 0 231 246
4.890735220 51.093423706 -0.099992547 0 231 246
4.894239517 50.997388149 -0.113733713 0 230 249
4.890365556 50.899698368 -0.107054881 0 231 246
4.889691698 50.802725556 -0.109231087 0 231 246
4.891552064 50.706317571 -0.118419650 0 230 249
4.894147760 50.610071090 -0.129642234 0 230 249
4.895567071 50.513560470 -0.137608168 0 230 249
4.893006629 50.416165194 -0.134558994 0 230 249
4.887495346 50.318117672 -0.123342110 0 230 249
4.882259964 50.220134600 -0.112887583 0 231 246
4.879090060 50.122610589 -0.108148212 0 231 246
4.879190761 50.025808760 -0.112459375 0 231 246
4.881655068 49.929525899 -0.123310994 0 230 249
4.884132279 49.833243236 -0.134197338 0 230 249
4.884611613 49.736520087 -0.139553313 0 230 249
4.884077662 49.639574141 -0.142103830 0 230 249
4.884302604 49.542793586 -0.146753627 0 230 249
4.883488823 49.445785657 -0.148527529 0 230 249
4.879197000 49.348020691 -0.140674231 0 230 249
4.871723746 49.249567109 -0.124014516 0 230 249
4.864162154 49.151099329 -0.107109042 0 231 246
4.858707845 49.053092757 -0.096034675 0 231 246
4.855178180 48.955505510 -0.090286007 0 231 246
4.853897614 48.858405370 -0.090761132 0 231 246
4.855617533 48.761951558 -0.099539803 0 231 246
4.857284229 48.665484239 -0.108170152 0 231 246
4.853668679 48.567881494 -0.102179315 0 231 246
4.847820777 48.469802622 -0.090008596 0 231 246
4.844030612 48.372167418 -0.083532103 0 231 246
4.844052998 48.275348040 -0.087606960 0 231 246
4.846805095 48.179109429 -0.099236187 0 231 246
4.849513017 48.082858569 -0.110742159 0 231 246
4.849172527 47.985957785 -0.113809514 0 230 249
4.846141354 47.888486372 -0.109428280 0 231 246
4.845625002 47.791548436 -0.112006688 0 231 246
4.847462924 47.695107198 -0.121100459 0 230 249
4.847657300 47.598317431 -0.125643994 0 230 249
4.842215778 47.500341171 -0.114586608 0 230 249
4.832129780 47.401393058 -0.090672280 0 231 246
4.822128643 47.302469689 -0.066991503 0 231 246
4.818034470 47.204789057 -0.059659796 0 231 246
4.821712062 47.108733826 -0.073839180 0 231 246
4.827802522 47.013178005 -0.094696461 0 231 246
4.830944654 46.917003314 -0.107391789 0 231 246
4.829978517 46.819972224 -0.108714271 0 231 246
4.828060846 46.722743861 -0.107401762 0 231 246
4.826947280 46.625682601 -0.108313960 0 231 246
4.826577996 46.528775167 -0.111285301 0 231 246
4.827333125 46.432099074 -0.117368054 0 230 249
4.830040510 46.335823386 -0.128853835 0 230 249
4.832177357 46.239427689 -0.138759305 0 230 249
4.829559916 46.142054909 -0.135503229 0 230 249
4.821319172 46.043532667 -0.116679846 0 230 249
4.808998199 45.944182583 -0.086560405 0 231 246
4.796142682 45.844732190 -0.054959843 0 231 246
4.786120388 45.745867392 -0.031200779 0 231 243
4.786466467 45.649115358 -0.036142219 0 231 246
4.781821616 45.551350539 -0.027266586 0 231 243
4.782981379 45.454763020 -0.034458322 0 231 246
4.788665584 45.359087608 -0.054173819 0 231 246
4.794993591 45.263536874 -0.075670628 0 231 246
4.792256803 45.166156778 -0.072072654 0 231 246
4.795959393 45.070071119 -0.086299635 0 231 246
4.794223232 44.972891798 -0.085469516 0 231 246
4.788900951 44.874995661 -0.074710754 0 231 246
4.784468185 44.777280446 -0.066413254 0 231 246
4.790590908 44.681671386 -0.087335850 0 231 246
4.787425022 44.584209392 -0.082543308 0 231 246
4.782249218 44.486350062 -0.072185403 0 231 246
4.775273474 44.388137304 -0.056843351 0 231 246
4.770345300 44.290334041 -0.047168544 0 231 246
4.770442941 44.193525744 -0.051406099 0 231 246
4.772374127 44.097077808 -0.060718636 0 231 246
4.771158525 44.000008966 -0.061318447 0 231 246
4.767120018 43.902386378 -0.054102059 0 231 246
4.763419223 43.804832263 -0.047819443 0 231 246
4.761752489 43.707677804 -0.047166932 0 231 246
4.760789282 43.610661109 -0.048461025 0 231 246
4.759778427 43.513635123 -0.049622113 0 231 246
4.761668716 43.417172888 -0.058814011 0 231 246
4.768315936 43.321630974 -0.081174667 0 231 246
4.775604120 43.226207285 -0.105308985 0 231 246
4.777110389 43.129660399 -0.113434796 0 230 249
4.771400413 43.031720430 -0.101580799 0 231 246
4.762915449 42.933250161 -0.082042749 0 231 246
4.755262703 42.834945429 -0.064807489 0 231 246
4.750638837 42.737226244 -0.055956788 0 231 246
4.748871311 42.640056132 -0.055013069 0 231 246
4.746939435 42.542855250 -0.053613209 0 231 246
4.743220470 42.445314668 -0.047264374 0 231 246
4.738363461 42.347559827 -0.037763487 0 231 246
4.734380067 42.249973694 -0.030680172 0 231 243
4.734093876 42.153089899 -0.033832163 0 231 243
4.736929994 42.056795569 -0.045627891 0 231 246
4.738487052 41.960257115 -0.053881249 0 231 246
4.737055118 41.863154197 -0.053857809 0 231 246
4.734105165 41.765766515 -0.049630224 0 231 246
4.732060065 41.668549937 -0.047906830 0 231 246
4.732368003 41.571774307 -0.052697386 0 231 246
4.735205121 41.475469809 -0.064489695 0 231 246
4.740496787 41.379619638 -0.083077216 0 231 246
4.746535506 41.283903550 -0.103732282 0 231 246
4.749083027 41.187534401 -0.114719853 0 230 249
4.746160032 41.090149744 -0.110559323 0 231 246
4.740460137 40.992253517 -0.098708757 0 231 246
4.735902079 40.894571422 -0.090018586 0 231 246
4.732278485 40.797063995 -0.083914664 0 231 246
4.727356703 40.699320226 -0.074214996 0 231 246
4.722678757 40.601624145 -0.065189290 0 231 246
4.720918036 40.504464292 -0.064240025 0 231 246
4.722760815 40.407962540 -0.073267582 0 231 246
4.724884532 40.311509781 -0.083072031 0 231 246
4.722607893 40.214255106 -0.080690948 0 231 246
4.715243235 40.116078878 -0.064220010 0 231 246
4.706289484 40.017620007 -0.043347581 0 231 246
4.699626550 39.919580842 -0.028817169 0 231 243
4.697974791 39.822448882 -0.028161658 0 231 243
4.702370275 39.726404650 -0.044250185 0 231 246
4.708746280 39.630711621 -0.065821961 0 231 246
4.711366269 39.534340552 -0.076992127 0 231 246
4.709085232 39.437091207 -0.074589880 0 231 246
4.703302268 39.339218606 -0.062489282 0 231 246
4.697194356 39.241291876 -0.049487631 0 231 246
4.692730259 39.143660829 -0.041036695 0 231 246
4.689970265 39.046334260 -0.037303489 0 231 246
4.691255084 38.949723885 -0.044769893 0 231 246
4.695954788 38.853713978 -0.061691695 0 231 246
4.696016003 38.756883517 -0.065767683 0 231 246
4.692229404 38.659376650 -0.059187212 0 231 246
4.683378859 38.560984726 -0.038582377 0 231 246
4.676198436 38.462890784 -0.022601193 0 231 243
4.675721269 38.365970862 -0.025181722 0 231 243
4.677683755 38.269475180 -0.034517208 0 231 246
4.675991960 38.172342605 -0.033731966 0 231 243
4.670753162 38.074595920 -0.023122928 0 231 243
4.662860918 37.976393693 -0.005164475 0 231 243
4.655989863 37.878372928 0.009967267 0 231 243
4.436424142 22.060368483 -0.002244482 0 231 243
4.366968501 18.759525998 0.064515885 0 232 240
4.348904438 17.982830126 0.085187483 0 232 240
4.348347682 17.885906915 0.083060453 0 232 240
4.352035906 17.789379532 0.069166748 0 232 240
4.354224609 17.692709194 0.059430957 0 232 240
4.353388312 17.595756425 0.058082060 0 232 240
4.354507605 17.498983794 0.051312973 0 232 240
4.357193747 17.402353371 0.040201294 0 231 243
4.359983116 17.305729564 0.028804450 0 231 243
4.362314774 17.209061195 0.018677502 0 231 243
4.363272762 17.112265761 0.012359738 0 231 243
4.361123576 17.015188371 0.014656955 0 231 243
4.356709318 16.917908280 0.023234742 0 231 243
4.352075739 16.820611179 0.032421753 0 231 243
4.347710706 16.723340794 0.040865477 0 231 243
4.343875544 16.626120005 0.047841428 0 232 240
4.342346274 16.529105110 0.048425848 0 232 240
4.342528505 16.432241175 0.044266508 0 231 243
4.342364643 16.335346026 0.041067737 0 231 243
4.342566048 16.238482091 0.036857399 0 231 243
4.343071518 16.141643635 0.031805145 0 231 243
4.342241891 16.044688633 0.030455393 0 231 243
4.338915014 15.947518613 0.036030174 0 231 243
4.334918595 15.850293020 0.043462391 0 231 243
4.331617545 15.753129028 0.048967926 0 232 240
4.328579850 15.655989160 0.053744490 0 232 240
4.325471939 15.558844920 0.058716888 0 232 240
4.323740339 15.461818093 0.059874647 0 232 240
4.324671250 15.365014822 0.053651712 0 232 240
4.325259595 15.268181514 0.048379606 0 232 240
4.323100325 15.171118976 0.050726413 0 232 240
4.317249789 15.073752413 0.063308558 0 232 240
4.310276265 14.976297235 0.079005497 0 232 240
4.308665410 14.879285503 0.079835322 0 232 240
4.312738160 14.782737201 0.064907994 0 232 240
4.316958044 14.686196944 0.049573689 0 232 240
4.319253766 14.589497431 0.039575310 0 231 243
4.319818242 14.492656365 0.034378048 0 231 243
4.320587048 14.395830434 0.028615321 0 231 243
4.325438302 14.299327869 0.011534437 0 231 243
4.330965855 14.202874357 -0.007420647 0 231 243
4.332042435 14.106065224 -0.014033671 0 231 243
4.328375872 14.008882679 -0.007494355 0 231 243
4.322535876 13.911532630 0.005072440 0 231 243
4.317736166 13.814267043 0.014756052 0 231 243
4.315775818 13.717223687 0.016568078 0 231 243
4.314912860 13.620265412 0.015338452 0 231 243
4.313948205 13.523299256 0.014391915 0 231 243
4.315875001 13.426553095 0.005429138 0 231 243
4.319945624 13.329967003 -0.009476992 0 231 243
4.323155145 13.233312164 -0.021994483 0 231 243
4.326470056 13.136661998 -0.034803207 0 231 246
4.329965563 13.040021994 -0.048111701 0 231 246
4.330546077 12.943162316 -0.053336385 0 231 246
4.326070853 12.845928335 -0.044541157 0 231 246
4.318602297 12.748477266 -0.027444593 0 231 243
4.310408662 12.650978201 -0.008336181 0 231 243
4.302719000 12.553521258 0.009376068 0 231 243
4.296145020 12.456150062 0.023995920 0 231 243
4.299189950 12.359474552 0.011944504 0 231 243
4.296570210 12.262390932 0.015601876 0 231 243
4.298441905 12.165627960 0.006805863 0 231 243
4.292329770 12.068298077 0.020149783 0 231 243
4.299928674 11.971936665 -0.004525504 0 231 243
4.292924462 11.874546947 0.011294455 0 231 243
4.285136569 11.777107297 0.029288842 0 231 243
4.279696733 11.679835332 0.040773308 0 231 243
4.276896739 11.582748433 0.044938629 0 232 240
4.278133407 11.485939155 0.037911247 0 231 243
4.285191576 11.389524320 0.014741524 0 231 243
4.295464557 11.293320849 -0.017342229 0 231 243
4.299324435 11.196677239 -0.031641066 0 231 243
4.293490325 11.099381363 -0.019056486 0 231 243
4.286046413 11.001982107 -0.002006493 0 231 243
4.280539654 10.904715901 0.009672806 0 231 243
4.276939510 10.807578512 0.016066018 0 231 243
4.274807547 10.710539087 0.018388914 0 231 243
4.274253699 10.613603083 0.016336565 0 231 243
4.275157564 10.516760910 0.010242807 0 231 243
4.276968201 10.419975509 0.001635447 0 231 243
4.279454780 10.323231103 -0.008845412 0 231 243
4.281724268 10.226470250 -0.018723211 0 231 243
4.281882360 10.129573722 -0.022744578 0 231 243
4.278974023 10.032484078 -0.018260882 0 231 243
4.276105649 9.935398383 -0.013886849 0 231 243
4.274097112 9.838367361 -0.011896227 0 231 243
4.272116522 9.741338830 -0.009981971 0 231 243
4.270737803 9.644347855 -0.009735752 0 231 243
4.270179569 9.547407031 -0.011763881 0 231 243
4.269372694 9.450450852 -0.013101345 0 231 243
4.268129683 9.353468351 -0.013228147 0 231 243
4.268273071 9.256568696 -0.017198818 0 231 243
4.271543760 9.159853423 -0.029841593 0 231 243
4.277630848 9.063300640 -0.050294348 0 231 246
4.282427922 8.966666993 -0.067168456 0 231 246
4.279134194 8.869558901 -0.061602437 0 231 246
4.269298266 8.772075029 -0.037890904 0 231 246
4.259487072 8.674599342 -0.014246618 0 231 243
4.253912505 8.577371643 -0.002351093 0 231 243
4.252668944 8.480392401 -0.002466251 0 231 243
4.252504334 8.383473953 -0.005572750 0 231 243
4.252870056 8.286584449 -0.010149034 0 231 243
4.253598598 8.189714000 -0.015730530 0 231 243
4.252815753 8.092759057 -0.017119091 0 231 243
4.250788046 7.995735923 -0.015053874 0 231 243
4.250798033 7.898824137 -0.018639168 0 231 243
4.252100772 7.801981222 -0.025808916 0 231 243
4.250783277 7.704996375 -0.025710184 0 231 243
4.247978429 7.607932774 -0.021485017 0 231 243
4.247799054 7.511008985 -0.024540722 0 231 243
4.249662729 7.414191505 -0.033261988 0 231 243
4.249975952 7.317291264 -0.037681830 0 231 246
4.246941977 7.220217373 -0.032816648 0 231 243
4.241535256 7.123023566 -0.021369099 0 231 243
4.236017840 7.025827507 -0.009613287 0 231 243
4.232062179 6.928713662 -0.002188066 0 231 243
4.228972416 6.831645411 0.002836603 0 231 243
4.225931381 6.734581178 0.007727280 0 231 243
4.223256666 6.637536557 0.011603054 0 231 243
4.221980196 6.540561582 0.011601609 0 231 243
4.223032789 6.443699802 0.005141027 0 231 243
4.225131546 6.346886795 -0.004220318 0 231 243
4.224804609 6.249955593 -0.006852282 0 231 243
4.220635075 6.152841875 0.001175434 0 231 243
4.215799212 6.055699278 0.011052622 0 231 243
4.213167984 5.958662343 0.014815753 0 231 243
4.213824823 5.861778604 0.009459467 0 231 243
4.216467451 5.764984600 -0.001404037 0 231 243
4.217490553 5.668114196 -0.007774182 0 231 243
4.215295889 5.571097234 -0.005217570 0 231 243
4.208767146 5.473887535 0.009362459 0 231 243
4.204780518 5.376794676 0.016892159 0 231 243
4.199170330 5.279632804 0.028926678 0 231 243
4.200384194 5.182771515 0.022032961 0 231 243
4.204828373 5.086047903 0.006179569 0 231 243
4.199334400 4.988895117 0.017895194 0 231 243
4.201419063 4.892066958 0.008589103 0 231 243
4.202539986 4.795195955 0.001957442 0 231 243
4.202647861 4.698281164 -0.001862965 0 231 243
4.201169324 4.601300107 -0.001281559 0 231 243
4.198980050 4.504290380 0.001272579 0 231 243
4.203703307 4.407561271 -0.015347801 0 231 243
4.198181706 4.310417141 -0.003547404 0 231 243
4.192577416 4.213273188 0.008483610 0 231 243
4.189324359 4.116225197 0.013993345 0 231 243
4.189513602 4.019312941 0.009954975 0 231 243
4.191540147 3.922470592 0.000820805 0 231 243
4.195199405 3.825688230 -0.012841685 0 231 243
4.198988571 3.728907197 -0.026863575 0 231 243
4.197799858 3.631936322 -0.027075087 0 231 243
4.190625906 3.534744038 -0.010681440 0 231 243
4.183289566 3.437550532 0.006163980 0 231 243
4.179899240 3.340504914 0.012063683 0 231 243
4.181348155 3.243634684 0.004539506 0 231 243
4.184293522 3.146815667 -0.007135111 0 231 243
4.184224981 3.049887834 -0.010447438 0 231 243
4.184113344 2.952957784 -0.013639120 0 231 243
4.184369952 2.856039688 -0.017851322 0 231 243
4.184454073 2.759114766 -0.021583923 0 231 243
4.182371022 2.662116262 -0.019303080 0 231 243
4.177508607 2.565026355 -0.009310300 0 231 243
4.172388300 2.467930943 0.001399166 0 231 243
4.167700383 2.370852698 0.010910267 0 231 243
4.164077144 2.273811377 0.017468798 0 231 243
4.163780518 2.176877345 0.014799306 0 231 243
4.167341980 2.080063393 0.001427142 0 231 243
4.171273696 1.983257370 -0.012971260 0 231 243
4.171517698 1.886335086 -0.017137500 0 231 243
4.168803034 1.789322737 -0.013094110 0 231 243
4.166414641 1.692321395 -0.009954776 0 231 243
4.165651209 1.595368801 -0.011322646 0 231 243
4.166131140 1.498452033 -0.016139059 0 231 243
4.165697923 1.401508021 -0.018420904 0 231 243
4.164400930 1.304539209 -0.018305123 0 231 243
4.164201310 1.207601141 -0.021232877 0 231 243
4.165581218 1.110705781 -0.028541949 0 231 243
4.166293743 1.013790536 -0.033998307 0 231 243
4.165597362 0.916836399 -0.035544542 0 231 246
4.165152917 0.819888642 -0.037788683 0 231 246
4.166206813 0.722979256 -0.044188963 0 231 246
4.164588851 0.626000112 -0.043174920 0 231 246
4.157833161 0.528892307 -0.027904678 0 231 243
4.151468600 0.431798586 -0.013718394 0 231 243
4.146257670 0.334737079 -0.002731735 0 231 243
4.140415614 0.237663655 0.010007292 0 231 243
4.134578662 0.140594055 0.022733400 0 231 243
4.133008724 0.043627216 0.023621261 0 231 243
4.137462048 -0.053201668 0.007797698 0 231 243
4.144360185 -0.149979859 -0.014808479 0 231 243
4.148962415 -0.246814776 -0.031043317 0 231 243
4.147837919 -0.343778168 -0.031387198 0 231 243
4.141662589 -0.440849052 -0.017715299 0 231 243
4.134782136 -0.537930726 -0.002085621 0 231 243
4.132383693 -0.634915874 0.001108876 0 231 243
4.136947795 -0.731759673 -0.015014892 0 231 243
4.144853215 -0.828541706 -0.040409108 0 231 246
4.149733504 -0.925389211 -0.057408349 0 231 246
4.148283440 -1.022361504 -0.056841153 0 231 246
4.141903971 -1.119425223 -0.042594630 0 231 246
4.133951260 -1.216513511 -0.023981373 0 231 243
4.126766002 -1.313582780 -0.007496379 0 231 243
4.121212093 -1.410618825 0.004463137 0 231 243
4.118179470 -1.507608321 0.009427643 0 231 243
4.117837831 -1.604551334 0.006926143 0 231 243
4.118406299 -1.701480015 0.001900284 0 231 243
4.119921359 -1.798394828 -0.005751214 0 231 243
4.124342400 -1.895266400 -0.021465552 0 231 243
4.132700014 -1.992082443 -0.048102674 0 231 246
4.143409157 -2.088870916 -0.081264322 0 231 246
4.068481296 -2.186901347 0.123214634 0 232 240
4.102856299 -3.155810223 -0.006543074 0 231 243
3.944855088 -21.967659977 -0.212944000 0 230 252
3.893518454 -22.061396984 -0.073562982 0 231 246
3.899147816 -22.158778630 -0.092416603 0 231 246
3.901466154 -22.255950040 -0.102072062 0 231 246
3.895153497 -22.352559335 -0.087751554 0 231 246
3.888941741 -22.449171214 -0.073710078 0 231 246
3.886693879 -22.546041501 -0.070678258 0 231 246
3.887279445 -22.643099498 -0.075516030 0 231 246
3.888434725 -22.740196888 -0.081935303 0 231 246
3.890834933 -22.837379800 -0.091811740 0 231 246
3.892717787 -22.934530310 -0.100250025 0 231 246
3.893110103 -23.031581532 -0.104546761 0 231 246
3.892739433 -23.128581586 -0.106722944 0 231 246
3.893967783 -23.225692295 -0.113339943 0 230 249
3.895670098 -23.322837571 -0.121272522 0 230 249
3.895861411 -23.419879706 -0.125006626 0 230 249
3.893844358 -23.516768119 -0.122604956 0 230 249
3.888522196 -23.613423033 -0.111020728 0 231 246
3.881587685 -23.709960492 -0.094956234 0 231 246
3.875221239 -23.806533857 -0.080468542 0 231 246
3.870422019 -23.903215294 -0.070333333 0 231 246
3.867835324 -24.000053043 -0.066343313 0 231 246
3.867435789 -24.097047817 -0.068428106 0 231 246
3.868955694 -24.194182669 -0.075844069 0 231 246
3.872052712 -24.291434784 -0.087640274 0 231 246
3.874519034 -24.388643721 -0.097683377 0 231 246
3.872149339 -24.485498079 -0.094290675 0 231 246
3.866041128 -24.582073785 -0.080510923 0 231 246
3.862027321 -24.678801929 -0.072548380 0 231 246
3.862081179 -24.775832979 -0.075885067 0 231 246
3.863381730 -24.872958882 -0.082684143 0 231 246
3.862949863 -24.969955266 -0.084669277 0 231 246
3.860630887 -25.066808349 -0.081410649 0 231 246
3.856707782 -25.163537624 -0.073694348 0 231 246
3.851297452 -25.260150237 -0.061845086 0 231 246
3.847041191 -25.356848738 -0.053200823 0 231 246
3.847201460 -25.453888009 -0.056825380 0 231 246
3.850742688 -25.551192262 -0.069841900 0 231 246
3.851886706 -25.648311881 -0.076197432 0 231 246
3.848863615 -25.745104510 -0.070974671 0 231 246
3.846545947 -25.841951519 -0.067710596 0 231 246
3.846563834 -25.938983546 -0.070934183 0 231 246
3.847214068 -26.036066985 -0.075913527 0 231 246
3.847679473 -26.133136858 -0.080378299 0 231 246
3.848841618 -26.230264175 -0.086777763 0 231 246
3.850651206 -26.327445739 -0.094974985 0 231 246
3.852077389 -26.424598218 -0.102105948 0 231 246
3.852108785 -26.521638292 -0.105360660 0 231 246
3.849222207 -26.618438952 -0.100507100 0 231 246
3.843293183 -26.714986536 -0.087199317 0 231 246
3.836919654 -26.811493423 -0.072655289 0 231 246
3.832043181 -26.908121185 -0.062269435 0 231 246
3.828147582 -27.004828258 -0.054607650 0 231 246
3.824784587 -27.101578006 -0.048424484 0 231 246
3.821597281 -27.198340834 -0.042728287 0 231 246
3.819287532 -27.295176619 -0.039469184 0 231 246
3.816917710 -27.392006294 -0.036042026 0 231 246
3.812787328 -27.488683909 -0.027722037 0 231 243
3.816843212 -27.586064575 -0.042146382 0 231 246
3.813171250 -27.682780259 -0.035097847 0 231 246
3.810993324 -27.779623810 -0.032199350 0 231 243
3.811833225 -27.876730015 -0.037684865 0 231 246
3.814005022 -27.973954482 -0.046870063 0 231 246
3.816602228 -28.071218891 -0.057236268 0 231 246
3.814348774 -28.168056916 -0.054123523 0 231 246
3.821061021 -28.265690719 -0.075921662 0 231 246
3.821829382 -28.362800006 -0.081203190 0 231 246
3.815273871 -28.459254234 -0.066133409 0 231 246
3.816385246 -28.556394358 -0.072365831 0 231 246
3.813166528 -28.653144694 -0.066565409 0 231 246
3.814875312 -28.750340691 -0.074455669 0 231 246
3.811811524 -28.847103691 -0.069083482 0 231 246
3.818262451 -28.944736230 -0.090148538 0 231 246
3.820884040 -29.042022468 -0.100572111 0 231 246
3.817989579 -29.138802269 -0.095667154 0 231 246
3.819856089 -29.236022011 -0.103990476 0 231 246
3.814014462 -29.332526434 -0.090893867 0 231 246
3.811736279 -29.429360256 -0.087697952 0 231 246
3.813048871 -29.526530148 -0.094478821 0 231 246
3.816928627 -29.623943785 -0.108392229 0 231 246
3.812233290 -29.720549762 -0.098476253 0 231 246
3.814511409 -29.817815489 -0.107936958 0 231 246
3.812852986 -29.914708232 -0.106457705 0 231 246
3.818391993 -30.012289873 -0.124977785 0 230 249
3.815953206 -30.109109385 -0.121327872 0 230 249
3.814138604 -30.205988085 -0.119411334 0 230 249
3.811183012 -30.302755587 -0.114323005 0 230 249
3.807439281 -30.399444914 -0.107043371 0 231 246
3.802864911 -30.496051006 -0.097454293 0 231 246
3.798190752 -30.592644591 -0.087586712 0 231 246
3.794942419 -30.689375783 -0.081680192 0 231 246
3.793921630 -30.786325482 -0.081962718 0 231 246
3.792584989 -30.883243848 -0.081366403 0 231 246
3.785794280 -30.979618626 -0.065612298 0 231 246
3.775124895 -31.075601080 -0.039078166 0 231 246
3.766121864 -31.171743420 -0.017173462 0 231 243
3.764102670 -31.268583450 -0.014675570 0 231 243
3.770902972 -31.366314924 -0.036686107 0 231 246
3.779662080 -31.464251335 -0.064139336 0 231 246
3.782499228 -31.561591648 -0.075134315 0 231 246
3.779436436 -31.658331286 -0.069732002 0 231 246
3.776782626 -31.755111370 -0.065465121 0 231 246
3.775694644 -31.852051624 -0.065548664 0 231 246
3.774344294 -31.948964692 -0.064901953 0 231 246
3.772595150 -32.045836105 -0.063145835 0 231 246
3.771353017 -32.142759822 -0.062797637 0 231 246
3.770622328 -32.239736890 -0.063869707 0 231 246
3.769170791 -32.336638500 -0.062937333 0 231 246
3.767349246 -32.433500798 -0.060975528 0 231 246
3.765978463 -32.530410174 -0.060265345 0 231 246
3.765529405 -32.627417144 -0.062115701 0 231 246
3.765914390 -32.724513430 -0.066282949 0 231 246
3.766474127 -32.821629497 -0.070934803 0 231 246
3.767664737 -32.918814495 -0.077338939 0 231 246
3.769743223 -33.016096829 -0.086209657 0 231 246
3.771818374 -33.113381200 -0.095070087 0 231 246
3.773036543 -33.210575011 -0.101547705 0 231 246
3.773015597 -33.307635679 -0.104580422 0 231 246
3.770709597 -33.404447520 -0.101261207 0 231 246
3.765250949 -33.500912793 -0.089178652 0 231 246
3.758488068 -33.597231195 -0.073469983 0 231 246
3.753902370 -33.693785533 -0.063811193 0 231 246
3.753537918 -33.790804747 -0.065883546 0 231 246
3.755622169 -33.888096674 -0.074760659 0 231 246
3.756710284 -33.985279891 -0.080868109 0 231 246
3.755364490 -34.082192323 -0.080209716 0 231 246
3.752501056 -34.178934070 -0.075332070 0 231 246
3.749732937 -34.275685156 -0.070718191 0 231 246
3.747443221 -34.372489011 -0.067432854 0 231 246
3.744027196 -34.469164107 -0.061015860 0 231 246
3.738414427 -34.565587276 -0.048491933 0 231 246
3.735345076 -34.662297474 -0.043036147 0 231 246
3.737678161 -34.759625333 -0.052595211 0 231 246
3.741317494 -34.857106009 -0.065783983 0 231 246
3.742904015 -34.954353414 -0.073265953 0 231 246
3.743642210 -35.051504625 -0.078388943 0 231 246
3.745087939 -35.148739389 -0.085477495 0 231 246
3.746690744 -35.245994370 -0.093001614 0 231 246
3.747784970 -35.343191917 -0.099111068 0 231 246
3.747028573 -35.440174008 -0.100075521 0 231 246
3.741778601 -35.536627441 -0.088548553 0 231 246
3.732117622 -35.632556784 -0.064759498 0 231 246
3.726049638 -35.728905140 -0.050956276 0 231 246
3.726483210 -35.826022333 -0.055223775 0 231 246
3.730816625 -35.923605654 -0.070330402 0 231 246
3.735194504 -36.021198426 -0.085559667 0 231 246
3.736326859 -36.118405893 -0.091766467 0 231 246
3.734261098 -36.215230017 -0.089082455 0 231 246
3.729629952 -36.311743523 -0.079266308 0 231 246
3.720008928 -36.407649709 -0.055578518 0 231 246
3.720246027 -36.504747466 -0.059292306 0 231 246
3.716796528 -36.601396713 -0.052757237 0 231 246
3.716274092 -36.698402118 -0.054357517 0 231 246
3.714547332 -36.795260156 -0.052608967 0 231 246
3.711665076 -36.891975447 -0.047647269 0 231 246
3.709098152 -36.988728253 -0.043560975 0 231 246
3.709284259 -37.085820846 -0.047126444 0 231 246
3.712849795 -37.183334221 -0.060085050 0 231 246
3.717786780 -37.281022049 -0.076855083 0 231 246
3.714403793 -37.377674450 -0.070495905 0 231 246
3.717994827 -37.475199508 -0.083522384 0 231 246
3.718029705 -37.572280861 -0.086662211 0 231 246
3.722859420 -37.669967945 -0.103130078 0 231 246
3.718566753 -37.766505181 -0.094237671 0 231 246
3.716374750 -37.863306545 -0.091183741 0 231 246
3.714980891 -37.960208636 -0.090347463 0 231 246
3.711309079 -38.056819570 -0.083177494 0 231 246
3.707550925 -38.153417420 -0.075766329 0 231 246
3.705527486 -38.250236031 -0.073176443 0 231 246
3.704669965 -38.347204113 -0.073826660 0 231 246
3.702950141 -38.444060897 -0.072078582 0 231 246
3.700833749 -38.540865755 -0.069226920 0 231 246
3.699139314 -38.637724641 -0.067547181 0 231 246
3.698093035 -38.734667536 -0.067668217 0 231 246
3.698923193 -38.831855815 -0.073004741 0 231 246
3.701129732 -38.929226057 -0.082166637 0 231 246
3.701677969 -39.026380660 -0.086717314 0 231 246
3.699439481 -39.123168839 -0.083519587 0 231 246
3.696075553 -39.219807187 -0.077191889 0 231 246
3.692938430 -39.316473844 -0.071493573 0 231 246
3.690615189 -39.413247200 -0.068056797 0 231 246
3.690670370 -39.510337009 -0.071231238 0 231 246
3.694302086 -39.607906384 -0.084347932 0 231 246
3.699677622 -39.705713437 -0.102311765 0 231 246
3.703421039 -39.803305711 -0.115737078 0 230 249
3.703107613 -39.900353971 -0.117882600 0 230 249
3.698936798 -39.996880538 -0.109302693 0 231 246
3.693265431 -40.093200959 -0.096549734 0 231 246
3.687525523 -40.189508484 -0.083604989 0 231 246
3.682330259 -40.285886762 -0.072173266 0 231 246
3.678987201 -40.382515463 -0.065889950 0 231 246
3.679083886 -40.479614717 -0.069168909 0 231 246
3.682531799 -40.577176306 -0.081764178 0 231 246
3.686201400 -40.674771960 -0.094974826 0 231 246
3.690918532 -40.772516289 -0.111096970 0 231 246
3.697222180 -40.870485342 -0.131629200 0 230 249
3.701021616 -40.968111366 -0.145197961 0 230 249
3.697279819 -41.064688188 -0.137798441 0 230 249
3.687267830 -41.160385059 -0.112964300 0 230 249
3.677474875 -41.256105777 -0.088737817 0 231 246
3.670472977 -41.352212676 -0.072270247 0 231 246
3.666447401 -41.448735130 -0.064076809 0 231 246
3.665985555 -41.545759719 -0.065790866 0 231 246
3.667348446 -41.643043742 -0.072577406 0 231 246
3.667895150 -41.740213458 -0.077093541 0 231 246
3.667800568 -41.837292884 -0.079825549 0 231 246
3.667250636 -41.934307884 -0.081290392 0 231 246
3.665219313 -42.031110726 -0.078635158 0 231 246
3.660655971 -42.127548561 -0.068938514 0 231 246
3.654537548 -42.223759380 -0.054916751 0 231 246
3.648845904 -42.320028014 -0.042080425 0 231 246
3.645085188 -42.416573072 -0.034611902 0 231 246
3.644144600 -42.513526067 -0.034983731 0 231 246
3.644838245 -42.610717378 -0.039898559 0 231 246
3.645440511 -42.707896666 -0.044558251 0 231 246
3.646310358 -42.805116434 -0.049960922 0 231 246
3.648619525 -42.902549156 -0.059364728 0 231 246
3.650242793 -42.999883412 -0.066860301 0 231 246
3.649913988 -43.096931390 -0.068926844 0 231 246
3.649310558 -43.193939246 -0.070228669 0 231 246
3.647303242 -43.290739000 -0.067625676 0 231 246
3.646403863 -43.387702935 -0.068102375 0 231 246
3.651163355 -43.485511528 -0.084313536 0 231 246
3.657161091 -43.583509862 -0.103966939 0 231 246
3.661291224 -43.681233449 -0.118426160 0 230 249
3.663366744 -43.778652007 -0.127171099 0 230 249
3.663533987 -43.875785228 -0.130608600 0 230 249
3.661682720 -43.972614245 -0.128432049 0 230 249
3.657759353 -44.069128607 -0.120492351 0 230 249
3.653489640 -44.165588126 -0.111588366 0 231 246
3.650068839 -44.262174468 -0.105043847 0 231 246
3.646238751 -44.358696477 -0.097360018 0 231 246
3.641615650 -44.455094934 -0.087469791 0 231 246
3.638163694 -44.551670378 -0.080835131 0 231 246
3.637391322 -44.648656251 -0.081650824 0 231 246
3.638929224 -44.745998685 -0.088889981 0 231 246
3.640826984 -44.843398748 -0.097128829 0 231 246
3.640504458 -44.940456893 -0.099192292 0 231 246
3.636652170 -45.036967058 -0.091438758 0 231 246
3.630478441 -45.133113410 -0.077228319 0 231 246
3.624236981 -45.229245232 -0.062828295 0 231 246
3.620805228 -45.325812928 -0.056240665 0 231 246
3.623060937 -45.423271382 -0.065468448 0 231 246
3.626838382 -45.520971783 -0.078927121 0 231 246
3.627647588 -45.618207769 -0.084130207 0 231 246
3.626381139 -45.715117025 -0.083559861 0 231 246
3.627190172 -45.812355032 -0.088760346 0 231 246
3.632254523 -45.910270491 -0.105793913 0 231 246
3.638280955 -46.008343863 -0.125502125 0 230 249
3.640507002 -46.105815997 -0.134640376 0 230 249
3.637558764 -46.202462649 -0.129387615 0 230 249
3.632356153 -46.298746216 -0.117864130 0 230 249
3.623195876 -46.394390221 -0.095332822 0 231 246
3.621393415 -46.491213879 -0.093263031 0 231 246
3.611864095 -46.586788589 -0.069702848 0 231 246
3.606230658 -46.682987687 -0.056976290 0 231 246
3.601810903 -46.779380267 -0.047623932 0 231 246
3.596488571 -46.875623380 -0.035760186 0 231 246
3.591889415 -46.971981148 -0.025906503 0 231 243
3.590374183 -47.068840353 -0.024628578 0 231 243
3.594898167 -47.166688847 -0.040145778 0 231 246
3.604367761 -47.265353973 -0.069416793 0 231 246
3.612165893 -47.363752001 -0.094038292 0 231 246
3.613195751 -47.461039891 -0.099834775 0 231 246
3.608278273 -47.557345618 -0.089089210 0 231 246
3.600998006 -47.653256616 -0.071770914 0 231 246
3.595162863 -47.749402963 -0.058470642 0 231 246
3.594939696 -47.846480384 -0.060777664 0 231 246
3.598850133 -47.944248546 -0.074580407 0 231 246
3.601523319 -48.041813483 -0.084941003 0 231 246
3.602418628 -48.139083091 -0.090355743 0 231 246
3.603472294 -48.236380810 -0.096209890 0 231 246
3.604806094 -48.333727342 -0.102842146 0 231 246
3.604924541 -48.430870457 -0.106093029 0 231 246
3.604683108 -48.527953550 -0.108341886 0 231 246
3.605657605 -48.625243537 -0.113971649 0 230 249
3.606279915 -48.722475193 -0.118620795 0 230 249
3.603763507 -48.819173236 -0.114538799 0 230 249
3.596376952 -48.915038310 -0.096909685 0 231 246
3.585231292 -49.010254984 -0.068823561 0 231 246
3.574114930 -49.105468902 -0.040817563 0 231 246
3.571349238 -49.202111020 -0.036037366 0 231 246
3.577626672 -49.300310325 -0.056409358 0 231 246
3.585762505 -49.398836262 -0.081949584 0 231 246
3.592082962 -49.497055003 -0.102439469 0 231 246
3.594597682 -49.594619124 -0.112342700 0 231 246
3.594552553 -49.691740868 -0.115124614 0 230 249
3.592923954 -49.788587429 -0.113500955 0 230 249
3.589891848 -49.885188409 -0.107972239 0 231 246
3.586186548 -49.981670019 -0.100569837 0 231 246
3.582407768 -50.078136686 -0.092961881 0 231 246
3.580217962 -50.174880598 -0.089772655 0 231 246
3.579838193 -50.271942542 -0.091617140 0 231 246
3.579306126 -50.368978101 -0.093036912 0 231 246
3.578452382 -50.465957125 -0.093560811 0 231 246
3.577930573 -50.562995160 -0.095006955 0 231 246
3.576777498 -50.659921397 -0.094696045 0 231 246
3.573991850 -50.756556752 -0.089842735 0 231 246
3.571443482 -50.853233117 -0.085648327 0 231 246
3.571958139 -50.950456264 -0.089973240 0 231 246
3.576197366 -51.048348331 -0.104657829 0 231 246
3.580116188 -51.146186901 -0.118450181 0 230 249
3.580149509 -51.243329722 -0.121433077 0 230 249
3.577033951 -51.339905214 -0.115655471 0 230 249
3.573191479 -51.436347668 -0.107854605 0 231 246
3.569933064 -51.532893795 -0.101677296 0 231 246
3.567613481 -51.629608690 -0.098110482 0 231 246
3.566739201 -51.726585603 -0.098563115 0 231 246
3.566558971 -51.823689207 -0.100945385 0 231 246
3.563746209 -51.920312399 -0.096003299 0 231 246
3.557206180 -52.016251659 -0.080691345 0 231 246
3.551455084 -52.112331460 -0.067572866 0 231 246
3.549493498 -52.209104512 -0.064995147 0 231 246
3.548697740 -52.306091695 -0.065659525 0 231 246
3.546916148 -52.402897012 -0.063580315 0 231 246
3.546591385 -52.499971348 -0.065552782 0 231 246
3.549193610 -52.597589009 -0.075666873 0 231 246
3.552928100 -52.695419877 -0.088929871 0 231 246
3.554993939 -52.792943704 -0.097549784 0 231 246
3.553468667 -52.889799842 -0.096178300 0 231 246
3.549112500 -52.986126286 -0.086930192 0 231 246
3.546433396 -53.082764395 -0.082346498 0 231 246
3.548956702 -53.180377992 -0.092234860 0 231 246
3.553157729 -53.278309971 -0.106789696 0 231 246
3.555738885 -53.375940608 -0.116837027 0 230 249
3.557369702 -53.473394509 -0.124239470 0 230 249
3.557778337 -53.570619119 -0.128240698 0 230 249
3.556580955 -53.667540219 -0.127772803 0 230 249
3.555107419 -53.764408709 -0.126535527 0 230 249
3.554395281 -53.861421870 -0.127415444 0 230 249
3.553469145 -53.958394443 -0.127698908 0 230 249
3.550714934 -54.055017543 -0.122895336 0 230 249
3.545996735 -54.151263013 -0.112626521 0 231 246
3.541637867 -54.247574635 -0.103356237 0 231 246
3.539356929 -54.344283435 -0.099865938 0 231 246
3.537896208 -54.441149380 -0.098656516 0 231 246
3.535105405 -54.537758102 -0.093745438 0 231 246
3.532501594 -54.634401661 -0.089353477 0 231 246
3.533324647 -54.731708531 -0.094494701 0 231 246
3.536964922 -54.829564221 -0.107473078 0 231 246
3.539800099 -54.927266774 -0.118210500 0 230 249
3.538253006 -55.024117459 -0.116754287 0 230 249
3.533917294 -55.120422699 -0.107538255 0 231 246
3.527910583 -55.216398145 -0.093671833 0 231 246
3.531057038 -55.314165856 -0.105271112 0 231 246
3.529335195 -55.410979625 -0.103324247 0 231 246
3.531619821 -55.508582129 -0.112523612 0 231 246
3.526406772 -55.604707282 -0.100860843 0 231 246
3.528772019 -55.702327960 -0.110282422 0 231 246
3.528489123 -55.799426521 -0.112334882 0 231 246
3.527486929 -55.896382854 -0.112384908 0 231 246
3.526206795 -55.993283924 -0.111660507 0 231 246
3.533746679 -56.091942720 -0.135475941 0 230 249
3.530898931 -56.188533768 -0.130387698 0 230 249
3.527223168 -56.284957750 -0.122994418 0 230 249
3.522536145 -56.381176975 -0.112786199 0 231 246
3.519923445 -56.477810015 -0.108348527 0 231 246
3.520550913 -56.575093880 -0.112925427 0 230 249
3.521366898 -56.672417035 -0.118025828 0 230 249
3.521540258 -56.769611802 -0.121337085 0 230 249
3.523981457 -56.867266495 -0.130957589 0 230 249
3.530015007 -56.965652319 -0.150572931 0 230 249
3.525750596 -57.061951420 -0.141532831 0 230 249
3.528006257 -57.159575187 -0.150634040 0 230 249
3.528003474 -57.256740916 -0.153449970 0 230 249
3.524743004 -57.353241831 -0.147200047 0 230 249
3.523676306 -57.450190106 -0.147053363 0 230 249
3.512461750 -57.545057127 -0.118668054 0 230 249
3.503031583 -57.640282951 -0.095246670 0 231 246
3.493326627 -57.735445734 -0.071059340 0 231 246
3.475190580 -57.828862951 -0.023409914 0 231 243
3.444381376 -57.919648309 0.059506192 0 232 240
3.400354737 -58.007674489 0.179204030 0 232 237
3.365014477 -58.097469114 0.274732590 0 233 234
3.333864278 -58.188107942 0.358603446 0 233 231
3.322944878 -58.282935056 0.386179592 0 234 228
3.335104381 -58.382567840 0.349534710 0 233 231
3.342981483 -58.481316016 0.324807395 0 233 231
3.343499958 -58.578530686 0.320558196 0 233 231
3.338306721 -58.674548722 0.332204426 0 233 231
3.331457187 -58.770215563 0.348460965 0 233 231
3.326757658 -58.866330465 0.358735717 0 233 231
3.329208597 -58.963950366 0.349113257 0 233 231
3.336811759 -59.062661394 0.325154067 0 233 231
3.343494649 -59.161184311 0.303756700 0 233 231
3.346322570 -59.258895818 0.293088014 0 233 231
3.344322612 -59.355584796 0.295855631 0 233 231
3.339437057 -59.451658977 0.306654617 0 233 231
3.335120276 -59.547851440 0.315871953 0 233 231
3.330710968 -59.644021610 0.325347955 0 233 231
3.327530856 -59.740452169 0.331404381 0 233 231
3.333424274 -59.838825898 0.312210964 0 233 231
3.339235030 -59.937187217 0.293248489 0 233 231
3.342385269 -60.034981504 0.281691019 0 233 231
3.345361446 -60.132741505 0.270618929 0 233 234
3.348238110 -60.230483114 0.259824760 0 233 234
3.349151879 -60.327803224 0.254494298 0 233 234
3.345590446 -60.424155263 0.261619390 0 233 234
3.340730404 -60.520223501 0.272359688 0 233 234
3.336579017 -60.616442866 0.281128959 0 233 234
3.332457533 -60.712666339 0.289816173 0 233 231
3.327909764 -60.808794415 0.299690930 0 233 231
3.321309063 -60.904471045 0.315280325 0 233 231
3.310646448 -60.999253955 0.342175605 0 233 231
3.310914638 -61.096427139 0.338650700 0 233 231
3.309393236 -61.193208083 0.340107481 0 233 231
3.305634819 -61.289496227 0.347791254 0 233 231
3.299384535 -61.385232788 0.362411395 0 234 228
3.297072253 -61.481835208 0.366072693 0 234 228
3.301392864 -61.579904369 0.351274667 0 233 231
3.305730801 -61.677981498 0.336429359 0 233 231
3.303360138 -61.774573109 0.340256317 0 233 231
3.301876988 -61.871361102 0.341614262 0 233 231
3.302443117 -61.968605372 0.337269707 0 233 231
3.300665195 -62.065327660 0.339450232 0 233 231
3.296314932 -62.161474209 0.348791309 0 233 231
3.293711127 -62.258009369 0.353272717 0 233 231
3.296530307 -62.355760046 0.342661605 0 233 231
3.303240342 -62.454388164 0.321222119 0 233 231
3.308611290 -62.552720775 0.303510586 0 233 231
3.306707072 -62.649417607 0.306049014 0 233 231
3.297988195 -62.744574276 0.327555953 0 233 231
3.286540227 -62.839107438 0.356660156 0 233 231
3.281038028 -62.934980348 0.369216554 0 234 228
3.290934668 -63.034346344 0.338913582 0 233 231
3.299069498 -63.133320043 0.313515187 0 233 231
3.298059902 -63.230217375 0.313570133 0 233 231
3.295444317 -63.326748200 0.318096273 0 233 231
3.296822552 -63.424190818 0.311507073 0 233 231
3.300886847 -63.522250383 0.297442432 0 233 231
3.302338793 -63.619714657 0.290650059 0 233 231
3.302028721 -63.716775993 0.288763201 0 233 231
3.297988365 -63.812979356 0.297260531 0 233 231
3.288724134 -63.907976102 0.320299584 0 233 231
3.277581686 -64.002532773 0.348567941 0 233 231
3.271068573 -64.098152442 0.363951852 0 234 228
3.274506566 -64.196073482 0.351637869 0 233 231
3.278751645 -64.294185274 0.337078296 0 233 231
3.279467045 -64.391480607 0.332344692 0 233 231
3.278112714 -64.488295346 0.333373347 0 233 231
3.279445304 -64.585736519 0.326923844 0 233 231
3.281527907 -64.683354732 0.318387631 0 233 231
3.277190960 -64.779473118 0.327721881 0 233 231
3.263811649 -64.873469483 0.362227740 0 234 228
3.253184401 -64.968102444 0.389074291 0 234 228
3.250268556 -65.064541446 0.394456401 0 234 228
3.252506698 -65.162193014 0.385492727 0 234 228
3.256160774 -65.260181169 0.372588559 0 234 228
3.256408878 -65.357368029 0.369166479 0 234 228
3.251564779 -65.453350508 0.379920571 0 234 228
3.245338734 -65.549002390 0.394522773 0 234 228
3.243393914 -65.645666961 0.397208463 0 234 228
3.246719724 -65.743584519 0.385223235 0 234 228
3.248503696 -65.841138089 0.377531053 0 234 228
3.244677429 -65.937355020 0.385457425 0 234 228
3.240713118 -66.033536792 0.393769231 0 234 228
3.241493654 -66.130852251 0.388873558 0 234 228
3.249085632 -66.229802442 0.365017239 0 234 228
3.259171876 -66.329358354 0.334218204 0 233 231
3.258241811 -66.426272696 0.334087421 0 233 231
3.250542850 -66.521556135 0.352801217 0 233 231
3.244736442 -66.617291167 0.366247682 0 234 228
3.240795868 -66.713473523 0.374501122 0 234 228
3.234986261 -66.809201119 0.387958873 0 234 228
3.223627127 -66.903579294 0.416867099 0 234 228
3.215955953 -66.998845225 0.435509750 0 234 228
3.212228404 -67.095065375 0.443174931 0 234 225
3.219079859 -67.193861029 0.421390058 0 234 228
3.225802875 -67.292631415 0.399963623 0 234 228
3.249232238 -67.395491204 0.332028333 0 233 231
3.265064008 -67.496509902 0.285244939 0 233 231
3.269509823 -67.594749823 0.270160470 0 233 234
