ply
format ascii 1.0
comment coordinate_system ground
comment units millimeter
element vertex 1004
property double x
property double y
property double z
property uchar red
property uchar green
property uchar blue
comment color_mapping zg_high_contrast_from_zg
comment color_zg_range_mm -0.212199362 20.030656635
end_header
4.036262461 6.047145091 0.516234469 0 234 228
4.057059433 5.951267928 0.455115138 0 233 231
4.074466675 5.855217587 0.403389452 0 233 234
4.074017707 5.758335640 0.401144023 0 233 234
4.066746342 5.661143536 0.417804696 0 233 234
4.059673911 5.563965193 0.433915472 0 233 231
4.056065700 5.466946130 0.440428088 0 233 231
4.058172227 5.370181959 0.431106091 0 233 231
4.065732915 5.273654684 0.406671346 0 233 234
4.074573953 5.177176536 0.378689626 0 233 234
4.074978033 5.080327195 0.374088390 0 233 234
4.067612318 4.983144853 0.391019182 0 233 234
4.056347096 4.885802291 0.418757331 0 233 234
4.045328512 4.788477942 0.445813493 0 233 231
4.036477596 4.691251382 0.466864187 0 233 231
4.029305374 4.594099983 0.483264339 0 233 231
4.023709023 4.497017620 0.495298811 0 233 231
4.022902974 4.400132424 0.494059715 0 233 231
4.027471746 4.303462297 0.477927036 0 233 231
4.031038729 4.206748182 0.464571571 0 233 231
4.030545056 4.109871090 0.462470181 0 233 231
4.026434254 4.012852935 0.470393903 0 233 231
4.020665451 3.915773319 0.482913635 0 233 231
4.017937987 3.818813314 0.487006284 0 233 231
4.021012365 3.722073619 0.475021581 0 233 231
4.028938800 3.625512086 0.449591455 0 233 231
4.034878890 3.528870270 0.429667068 0 233 231
4.035159515 3.432016035 0.425427870 0 233 231
4.034668733 3.335132889 0.423327633 0 233 231
4.038638582 3.238409177 0.408866613 0 233 234
4.047101352 3.141840921 0.381955162 0 233 234
4.052925326 3.045172897 0.362357733 0 233 234
4.054852080 2.948364493 0.353561978 0 233 234
4.052399608 2.851403654 0.356903860 0 233 234
4.045346930 2.754287916 0.372995986 0 233 234
4.039479303 2.657216554 0.385805183 0 233 234
4.036648881 2.560249603 0.390198270 0 233 234
4.037109057 2.463391877 0.385472863 0 233 234
4.041074877 2.366646560 0.371032843 0 233 234
4.045830546 2.269922718 0.354404835 0 233 234
4.048635435 2.173132793 0.343184409 0 233 234
4.047490378 2.076216583 0.342912308 0 233 234
4.039076763 1.979076243 0.362786244 0 233 234
4.025282899 1.881777655 0.397573063 0 233 234
4.017112312 1.784658048 0.416776288 0 233 234
4.015087838 1.687726491 0.418946593 0 233 234
4.014427414 1.590835715 0.417337539 0 233 234
4.010772989 1.493858046 0.424027766 0 233 231
4.004270889 1.396801100 0.438611841 0 233 231
3.999307145 1.299791707 0.448933519 0 233 231
4.001112040 1.202973441 0.440496351 0 233 231
4.006647587 1.106255267 0.421720287 0 233 231
4.012423018 1.009538573 0.402280365 0 233 234
4.016059284 0.912759706 0.388770486 0 233 234
4.013943515 0.815826264 0.391204394 0 233 234
4.007698580 0.718786845 0.405084241 0 233 234
4.002013675 0.621765721 0.417413169 0 233 234
3.999394640 0.524825163 0.421245689 0 233 231
3.998511071 0.427928756 0.420269195 0 233 234
3.994062338 0.330945481 0.429175566 0 233 231
3.983892125 0.233827773 0.453941726 0 233 231
3.979796235 0.136860295 0.461872708 0 233 231
3.977118868 0.039928090 0.465873109 0 233 231
3.981344993 -0.056845364 0.450739671 0 233 231
3.989246071 -0.153540402 0.425421040 0 233 231
3.992822085 -0.250337596 0.412091644 0 233 234
4.003392316 -0.346986796 0.379376583 0 233 234
4.007088544 -0.443791118 0.365716023 0 233 234
3.996333266 -0.540900990 0.392113874 0 233 234
3.988752433 -0.637938275 0.409714049 0 233 234
3.986171935 -0.734869870 0.413455262 0 233 234
3.991177725 -0.831650458 0.396169339 0 233 234
3.989845951 -0.928558355 0.396451536 0 233 234
3.993622209 -1.025369049 0.382575898 0 233 234
3.992790449 -1.122269093 0.381474393 0 233 234
3.990567693 -1.219194598 0.384229807 0 233 234
3.992233328 -1.316049835 0.376208000 0 233 234
3.998871250 -1.412820359 0.354404321 0 233 234
4.005641765 -1.509594471 0.332234099 0 232 237
4.005898006 -1.606483200 0.328122309 0 232 237
3.998231427 -1.703502017 0.345973677 0 233 234
3.984098008 -1.800618647 0.381752558 0 233 234
3.973084838 -1.897676750 0.408883581 0 233 234
3.964096537 -1.994696507 0.430403035 0 233 231
3.966729918 -2.091538537 0.419707905 0 233 234
3.979124864 -2.188242950 0.381954160 0 233 234
3.990133792 -2.284977027 0.348043458 0 233 234
4.002060034 -2.381707814 0.311590805 0 232 237
4.002465133 -2.478600971 0.307076711 0 232 237
3.993049137 -2.575621410 0.329788873 0 232 237
3.985425751 -2.672613053 0.347533106 0 233 234
3.986276247 -2.769497217 0.341787940 0 233 234
3.990093194 -2.866348086 0.327820464 0 232 237
3.991544795 -2.963229417 0.320411157 0 232 237
3.981396179 -3.060239479 0.345160747 0 233 234
3.968334519 -3.157273270 0.377987279 0 233 234
3.956988010 -3.254280379 0.406060581 0 233 234
3.962347733 -3.351116070 0.387822019 0 233 234
4.010391292 -3.447555276 0.251255553 0 232 240
4.044480825 -3.544157926 0.153373353 0 231 243
4.077716786 -3.640794837 0.057858165 0 231 246
4.130787927 -3.737294273 -0.092643560 0 230 252
4.146964653 -3.834125512 -0.140865530 0 229 255
4.152926542 -3.931046392 -0.160768872 0 229 255
4.153545846 -4.028010560 -0.165860307 0 229 255
4.153840416 -4.124978153 -0.170050366 0 229 255
4.154229957 -4.221946136 -0.174502567 0 229 255
4.153394213 -4.318922480 -0.175556806 0 229 255
4.149473965 -4.415916137 -0.168058757 0 229 255
4.142203650 -4.512924939 -0.151272076 0 229 255
4.135190979 -4.609927699 -0.135198323 0 229 255
4.133069932 -4.706904221 -0.132684411 0 230 252
4.136209597 -4.803858636 -0.144753767 0 229 255
4.138667562 -4.900818716 -0.154932135 0 229 255
4.136260168 -4.997797371 -0.151620888 0 229 255
4.130913940 -5.094783441 -0.140160884 0 229 255
4.127454121 -5.191761453 -0.133929451 0 229 255
4.128360460 -5.288728310 -0.139801516 0 229 255
4.128607757 -5.385697775 -0.143845319 0 229 255
4.124933650 -5.482673520 -0.137016186 0 229 255
4.118391251 -5.579650012 -0.122233652 0 230 252
4.110223697 -5.676623219 -0.102944134 0 230 252
4.116109182 -5.773588012 -0.122614805 0 230 252
4.111260276 -5.870556203 -0.112523635 0 230 252
4.117605256 -5.967527695 -0.133466101 0 229 255
4.123168545 -6.064504082 -0.152240320 0 229 255
4.124102808 -6.161479368 -0.158179509 0 229 255
4.119485495 -6.258446657 -0.148725713 0 229 255
4.112210428 -6.355405618 -0.131901936 0 230 252
4.107853265 -6.452366991 -0.123166851 0 230 252
4.110128219 -6.549344744 -0.132818453 0 230 252
4.115936451 -6.646336457 -0.152265219 0 229 255
4.121431372 -6.743332255 -0.170842279 0 229 255
4.124381005 -6.840322833 -0.182361273 0 229 255
4.126015999 -6.937310669 -0.190234211 0 229 255
4.127587493 -7.034300223 -0.197929977 0 229 255
4.127818841 -7.131284840 -0.201908909 0 229 255
4.125455764 -7.228256030 -0.198693299 0 229 255
4.119853596 -7.325206994 -0.186495618 0 229 255
4.111524635 -7.422137238 -0.166736163 0 229 255
4.112256102 -7.519122474 -0.172096986 0 229 255
4.105562271 -7.616056525 -0.156868634 0 229 255
4.099166305 -7.712988435 -0.142464848 0 229 255
4.093459832 -7.809921617 -0.129971522 0 230 252
4.088594779 -7.906858113 -0.119809932 0 230 252
4.084944864 -8.003802105 -0.113016337 0 230 252
4.083835243 -8.100766902 -0.113265122 0 230 252
4.085977588 -8.197762093 -0.122529678 0 230 252
4.091208563 -8.294789824 -0.140357219 0 229 255
4.098811827 -8.391846384 -0.164761570 0 229 255
4.101903705 -8.488862076 -0.176655779 0 229 255
4.099863279 -8.585824941 -0.174318009 0 229 255
4.097101775 -8.682778872 -0.169979618 0 229 255
4.093853589 -8.779725777 -0.164290523 0 229 255
4.092042149 -8.876688279 -0.162584076 0 229 255
4.091400640 -8.973664714 -0.164120490 0 229 255
4.089033791 -9.070619306 -0.160871592 0 229 255
4.087068420 -9.167578155 -0.158734742 0 229 255
4.086379791 -9.264553615 -0.160136964 0 229 255
4.086524945 -9.361540964 -0.163850025 0 229 255
4.086841611 -9.458531656 -0.168037528 0 229 255
4.087098037 -9.555522473 -0.172056845 0 229 255
4.087252546 -9.652512716 -0.175792410 0 229 255
4.087848729 -9.749510694 -0.180751566 0 229 255
4.089118921 -9.846520606 -0.187578593 0 229 255
4.089504051 -9.943517863 -0.191950240 0 229 255
4.087240026 -10.040472068 -0.188974675 0 229 255
4.082584347 -10.137384562 -0.179365850 0 229 255
4.078960206 -10.234312227 -0.172616228 0 229 255
4.076233811 -10.331253867 -0.168354840 0 229 255
4.072673289 -10.428179017 -0.161779173 0 229 255
4.068590724 -10.525092515 -0.153754617 0 229 255
4.066177491 -10.622035291 -0.150357975 0 229 255
4.065645591 -10.719013366 -0.152177204 0 229 255
4.064968645 -10.815988943 -0.153593045 0 229 255
4.061147811 -10.912901571 -0.146289410 0 229 255
4.056663045 -11.009798439 -0.137143373 0 229 255
4.055682440 -11.106765769 -0.137713550 0 229 255
4.057947473 -11.203802096 -0.147283150 0 229 255
4.061151942 -11.300861255 -0.159456841 0 229 255
4.062637592 -11.397885794 -0.166862899 0 229 255
4.061860259 -11.494861548 -0.167992209 0 229 255
4.060454442 -11.591823155 -0.167377454 0 229 255
4.057906011 -11.688757983 -0.163592827 0 229 255
4.052955840 -11.785635061 -0.153146473 0 229 255
4.046568699 -11.882474721 -0.138713819 0 229 255
4.041712289 -11.979347481 -0.128524926 0 230 252
4.040717247 -12.076312673 -0.129043278 0 230 252
4.042312122 -12.173342843 -0.136742957 0 229 255
4.045246834 -12.270409130 -0.148157241 0 229 255
4.049135757 -12.367503108 -0.162216726 0 229 255
4.052413303 -12.464584798 -0.174579622 0 229 255
4.051098851 -12.561547538 -0.174206472 0 229 255
4.044759228 -12.658374352 -0.159895794 0 229 255
4.038712722 -12.755205104 -0.146396717 0 229 255
4.035976212 -12.852123907 -0.142076069 0 229 255
4.036537214 -12.949134215 -0.146899349 0 229 255
4.040348046 -13.046238460 -0.160734426 0 229 255
4.046447063 -13.143412570 -0.180914406 0 229 255
4.051706881 -13.240567538 -0.198765947 0 229 255
4.054216851 -13.337645679 -0.208990062 0 229 255
4.054197892 -13.434650474 -0.212199362 0 229 255
4.050775815 -13.531552394 -0.205969275 0 229 255
4.042958402 -13.628316929 -0.187547840 0 229 255
4.030568472 -13.724933493 -0.156443473 0 229 255
4.020457132 -13.821613338 -0.131657187 0 230 252
4.020621964 -13.918614893 -0.135370091 0 229 255
4.025801710 -14.015779674 -0.152990577 0 229 255
4.030308712 -14.112927166 -0.168744177 0 229 255
4.031331584 -14.209963435 -0.174833512 0 229 255
4.027733430 -14.306846368 -0.168105284 0 229 255
4.021806412 -14.403648359 -0.154916672 0 229 255
4.017253910 -14.500493705 -0.145539030 0 229 255
4.015473929 -14.597432454 -0.143849837 0 229 255
4.015151325 -14.694421695 -0.146201565 0 229 255
4.013275749 -14.791356430 -0.144244866 0 229 255
4.019655886 -14.888586215 -0.165184820 0 229 255
4.019028191 -14.985567961 -0.166686936 0 229 255
4.019674238 -15.082596599 -0.171720734 0 229 255
4.019114528 -15.179581929 -0.173409098 0 229 255
4.018584691 -15.276568718 -0.175179154 0 229 255
4.013019908 -15.373365873 -0.162982967 0 229 255
4.015751374 -15.470475785 -0.173796332 0 229 255
4.019654507 -15.567633678 -0.187858400 0 229 255
4.020355060 -15.664670798 -0.193036520 0 229 255
4.018202840 -15.761597200 -0.190300846 0 229 255
4.015227969 -15.858490103 -0.185282197 0 229 255
4.017481715 -15.955590836 -0.194764930 0 229 255
4.011034292 -16.052342366 -0.180112058 0 229 255
4.008664986 -16.149256127 -0.176769439 0 229 255
4.013488729 -16.246465106 -0.193377203 0 229 255
4.012519846 -16.343437754 -0.193916672 0 229 255
4.016740535 -16.440628156 -0.208849556 0 229 255
4.011590851 -16.537425850 -0.197790187 0 229 255
4.006144365 -16.634207687 -0.185906283 0 229 255
4.001612369 -16.731025540 -0.176557702 0 229 255
3.998045127 -16.827882646 -0.169883900 0 229 255
3.995444599 -16.924780200 -0.165890350 0 229 255
3.993438877 -17.021702857 -0.163545476 0 229 255
3.991534388 -17.118629267 -0.161480208 0 229 255
3.989981399 -17.215570816 -0.160388756 0 229 255
3.990180165 -17.312591486 -0.164155239 0 229 255
3.991351996 -17.409657638 -0.170619728 0 229 255
3.989709898 -17.506595536 -0.169277589 0 229 255
3.984700018 -17.603376160 -0.158592405 0 229 255
3.978923569 -17.700117733 -0.145779559 0 229 255
3.974170740 -17.796904091 -0.135804866 0 229 255
3.971756412 -17.893799137 -0.132315748 0 230 252
3.973085556 -17.990873127 -0.139209591 0 229 255
3.978406557 -18.088142407 -0.157175518 0 229 255
3.984725245 -18.185465285 -0.177907941 0 229 255
3.985747053 -18.282532966 -0.183945968 0 229 255
3.980359425 -18.379284147 -0.172203224 0 229 255
3.974338458 -18.476000298 -0.158702324 0 229 255
3.971325379 -18.572864174 -0.153544030 0 229 255
3.970014583 -18.669812944 -0.153106677 0 229 255
3.968250098 -18.766738274 -0.151409598 0 229 255
3.968152291 -18.863748926 -0.154334756 0 229 255
3.973226074 -18.961028810 -0.171604998 0 229 255
3.979969755 -19.058400707 -0.193506576 0 229 255
3.984152835 -19.155643630 -0.208303859 0 229 255
3.982752579 -19.252594201 -0.207611486 0 229 255
3.976436598 -19.349281686 -0.193281283 0 229 255
3.970843837 -19.446004040 -0.180956065 0 229 255
3.968860163 -19.542918583 -0.178641578 0 229 255
3.967335647 -19.639857453 -0.177599658 0 229 255
3.963542953 -19.736671196 -0.170264320 0 229 255
3.958022118 -19.833387107 -0.158133630 0 229 255
3.954261940 -19.930197731 -0.150886004 0 229 255
3.954651692 -20.027239235 -0.155149755 0 229 255
3.958052234 -20.124452001 -0.167764836 0 229 255
3.962045107 -20.221701861 -0.182022069 0 229 255
3.964568962 -20.318871393 -0.192202884 0 229 255
3.964879478 -20.415915976 -0.196242334 0 229 255
3.961628063 -20.512754765 -0.190399061 0 229 255
3.954773978 -20.609381279 -0.174559922 0 229 255
3.946688243 -20.705930855 -0.155302569 0 229 255
3.939963087 -20.802555565 -0.139818474 0 229 255
3.935676981 -20.899321247 -0.131099654 0 230 252
3.932288346 -20.996138244 -0.124869427 0 230 252
3.928637241 -21.092937573 -0.117909802 0 230 252
3.925902492 -21.189790541 -0.113491198 0 230 252
3.925665274 -21.286794858 -0.116000325 0 230 252
3.927254817 -21.383912137 -0.123576326 0 230 252
3.928300851 -21.480997770 -0.129643330 0 230 252
3.927226364 -21.577952915 -0.129826145 0 230 252
3.925975447 -21.674896955 -0.129518305 0 230 252
3.927451193 -21.772012718 -0.136774052 0 229 255
3.930006486 -21.869198864 -0.147023750 0 229 255
3.929806641 -21.966211930 -0.149628528 0 229 255
3.924657347 -22.062907875 -0.138500402 0 229 255
3.916894108 -22.159431833 -0.120118846 0 230 252
3.913200809 -22.256215014 -0.113027700 0 230 252
3.916059243 -22.353424282 -0.124112682 0 230 252
3.912830754 -22.450236413 -0.118308737 0 230 252
3.913758004 -22.547321601 -0.124033488 0 230 252
3.916117342 -22.644503510 -0.133730382 0 229 255
3.913972994 -22.741386785 -0.130930807 0 230 252
3.907500379 -22.837978043 -0.116121307 0 230 252
3.902593690 -22.934671046 -0.105655172 0 230 252
3.904139185 -23.031800025 -0.113089435 0 230 252
3.908585217 -23.129129413 -0.128570175 0 230 252
3.911303059 -23.226344087 -0.139254936 0 229 255
3.911337348 -23.323375961 -0.142492977 0 229 255
3.907876152 -23.420165464 -0.136031468 0 229 255
3.902001820 -23.516784284 -0.122873337 0 230 252
3.896970643 -23.613458676 -0.112053320 0 230 252
3.894593687 -23.710317687 -0.108596403 0 230 252
3.894661304 -23.807349467 -0.111920985 0 230 252
3.895888796 -23.904464989 -0.118462615 0 230 252
3.895845863 -24.001490923 -0.121478173 0 230 252
3.893678910 -24.098364133 -0.118599219 0 230 252
3.889409913 -24.195083770 -0.109886656 0 230 252
3.884640038 -24.291764333 -0.099783084 0 230 252
3.881911213 -24.388591834 -0.095341479 0 230 252
3.880871097 -24.485542624 -0.095584278 0 230 252
3.877319993 -24.582307148 -0.088858709 0 230 252
3.871369997 -24.678890873 -0.075475716 0 230 252
3.867649674 -24.775637898 -0.068278130 0 230 252
3.870076280 -24.872845848 -0.078135301 0 230 252
3.876009988 -24.970321945 -0.097722611 0 230 252
3.880015114 -25.067656626 -0.111957575 0 230 252
3.878670596 -25.164586050 -0.111347580 0 230 252
3.872723404 -25.261161469 -0.097965109 0 230 252
3.866554721 -25.357715994 -0.083966771 0 230 252
3.864743098 -25.454604776 -0.082057024 0 230 252
3.868509740 -25.551928095 -0.095624590 0 230 252
3.874426956 -25.649423668 -0.115158475 0 230 252
3.877520516 -25.746702123 -0.126856227 0 230 252
3.874728244 -25.843517811 -0.122220794 0 230 252
3.867476347 -25.939977401 -0.105209463 0 230 252
3.858377388 -26.036284573 -0.083071511 0 230 252
3.850221315 -26.132661263 -0.063548569 0 230 252
3.845718260 -26.229327247 -0.054160921 0 230 252
3.845425324 -26.326331899 -0.056454584 0 230 252
3.848782573 -26.423634452 -0.068875935 0 230 252
3.854952283 -26.521170543 -0.089100471 0 230 252
3.861204760 -26.618718951 -0.109553637 0 230 252
3.862082451 -26.715828910 -0.115091220 0 230 252
3.855090147 -26.812287140 -0.098789057 0 230 252
3.843205131 -26.908332828 -0.068908626 0 230 252
3.834107474 -27.004603650 -0.046761539 0 230 249
3.834250988 -27.101645887 -0.050256976 0 230 249
3.837381363 -27.198941493 -0.062039706 0 230 252
3.839200287 -27.296128916 -0.070182098 0 230 252
3.839876887 -27.393221074 -0.075153439 0 230 252
3.840372068 -27.490298984 -0.079620204 0 230 252
3.840626605 -27.587357339 -0.083418037 0 230 252
3.839970236 -27.684337918 -0.084686942 0 230 252
3.837478578 -27.781159407 -0.080861707 0 230 252
3.833943880 -27.877888790 -0.074140794 0 230 252
3.834308740 -27.974957841 -0.078240115 0 230 252
3.838729915 -28.072384841 -0.093594796 0 230 252
3.843822648 -28.169875356 -0.110812020 0 230 252
3.846295017 -28.267137993 -0.120756480 0 230 252
3.843485602 -28.363932511 -0.116042447 0 230 252
3.836087848 -28.460314905 -0.098594129 0 230 252
3.827254907 -28.556563370 -0.077161692 0 230 252
3.820673905 -28.653009153 -0.061977306 0 230 252
3.818544042 -28.749854250 -0.059144122 0 230 252
3.822132435 -28.847219161 -0.072178711 0 230 252
3.827447667 -28.944745502 -0.090004447 0 230 252
3.831463672 -29.042157402 -0.104223565 0 230 252
3.832383402 -29.139287668 -0.109848929 0 230 252
3.827674801 -29.235898294 -0.099853550 0 230 252
3.818181521 -29.332061237 -0.076578529 0 230 252
3.817022518 -29.428995732 -0.076431437 0 230 252
3.811538969 -29.525524729 -0.064281643 0 230 252
3.810577157 -29.622475900 -0.064679404 0 230 252
3.813714759 -29.719814539 -0.076452815 0 230 252
3.819923576 -29.817447796 -0.096748485 0 230 252
3.819476361 -29.914452438 -0.098570979 0 230 252
3.817767306 -30.011336807 -0.096890380 0 230 252
3.820045378 -30.108603578 -0.106273937 0 230 252
3.815500661 -30.205214974 -0.096721256 0 230 252
3.812956971 -30.302017380 -0.092720756 0 230 252
3.809581476 -30.398737764 -0.086410545 0 230 252
3.806973936 -30.495531270 -0.082230424 0 230 252
3.806944809 -30.592576138 -0.085205017 0 230 252
3.803133266 -30.689249777 -0.077681008 0 230 252
3.799780204 -30.785966532 -0.071428209 0 230 252
3.797734795 -30.882811098 -0.068803382 0 230 252
3.793716938 -30.979458617 -0.060703110 0 230 252
3.791183083 -31.076252054 -0.056720256 0 230 252
3.790974540 -31.173277470 -0.059189833 0 230 252
3.791216024 -31.270348798 -0.062907251 0 230 252
3.790383870 -31.367312617 -0.063643747 0 230 252
3.789029652 -31.464223628 -0.062930128 0 230 252
3.790348639 -31.561406511 -0.069634602 0 230 252
3.791232860 -31.658546756 -0.075131282 0 230 252
3.787170715 -31.755181121 -0.066898489 0 230 252
3.782178296 -31.851717371 -0.056082528 0 230 252
3.778916345 -31.948429384 -0.050068159 0 230 249
3.777533144 -32.045334534 -0.049266990 0 230 249
3.776151592 -32.142239572 -0.048469221 0 230 249
3.773125605 -32.238972504 -0.043106154 0 230 249
3.771229462 -32.335822378 -0.040877759 0 230 249
3.773648825 -32.433125801 -0.050625911 0 230 249
3.777274676 -32.530559311 -0.063721583 0 230 252
3.776176472 -32.627495526 -0.063704419 0 230 252
3.771537705 -32.724054938 -0.053859108 0 230 249
3.767844387 -32.820712531 -0.046636692 0 230 249
3.767960371 -32.917776324 -0.049985996 0 230 249
3.771345126 -33.015192564 -0.062406849 0 230 252
3.775656097 -33.112712158 -0.077397390 0 230 252
3.777940278 -33.210016285 -0.086761327 0 230 252
3.775705358 -33.306831677 -0.083580961 0 230 252
3.770130341 -33.403281749 -0.071128607 0 230 252
3.764674554 -33.499741371 -0.059005921 0 230 252
3.762070265 -33.596510850 -0.054796666 0 230 252
3.762425350 -33.693605362 -0.058800358 0 230 252
3.762754797 -33.790698088 -0.062731739 0 230 252
3.760524045 -33.887507631 -0.059555745 0 230 252
3.757240597 -33.984198973 -0.053456620 0 230 249
3.755976441 -34.081114287 -0.052961176 0 230 249
3.754647747 -34.178022170 -0.052285419 0 230 249
3.751226361 -34.274694283 -0.045799807 0 230 249
3.746308062 -34.371195497 -0.035157985 0 230 249
3.742811214 -34.467854785 -0.028460455 0 230 249
3.741736638 -34.564787577 -0.028485270 0 230 249
3.738928172 -34.661522514 -0.023696086 0 230 249
3.733963825 -34.758009294 -0.012921515 0 230 249
3.728388130 -34.854422825 -0.000448737 0 230 249
3.724058461 -34.950976439 0.008566628 0 230 249
3.724733496 -35.048106146 0.003691276 0 230 249
3.729644634 -35.145728549 -0.012941456 0 230 249
3.734784475 -35.243382118 -0.030207947 0 230 249
3.735221819 -35.340491297 -0.034420171 0 230 249
3.730174177 -35.436958998 -0.023405952 0 230 249
3.726078562 -35.533535501 -0.015033142 0 230 249
3.726942181 -35.630694441 -0.020425106 0 230 249
3.730337483 -35.728154336 -0.032843480 0 230 249
3.732910977 -35.825520075 -0.042979544 0 230 249
3.733104632 -35.922605190 -0.046508406 0 230 249
3.730621795 -36.019371502 -0.042606530 0 230 249
3.726581151 -36.115949996 -0.034379171 0 230 249
3.722223218 -36.212488018 -0.025269820 0 230 249
3.719523156 -36.309223426 -0.020761311 0 230 249
3.720752513 -36.406432974 -0.027159305 0 230 249
3.724351631 -36.503931879 -0.040134425 0 230 249
3.725388189 -36.601122304 -0.045994980 0 230 249
3.721863870 -36.697757212 -0.039193708 0 230 249
3.716536792 -36.794169300 -0.027386853 0 230 249
3.713841226 -36.890901523 -0.022883700 0 230 249
3.717313134 -36.988392887 -0.035500029 0 230 249
3.723960217 -37.086280403 -0.056929449 0 230 252
3.727230454 -37.183754851 -0.068983777 0 230 252
3.724926806 -37.280538924 -0.065563976 0 230 252
3.718223517 -37.376772785 -0.049929586 0 230 249
3.716989833 -37.473687163 -0.049477577 0 230 249
3.709520586 -37.569818178 -0.031714355 0 230 249
3.707527081 -37.666634096 -0.029150650 0 230 249
3.708521558 -37.763826848 -0.034880503 0 230 249
3.712524974 -37.861402533 -0.048962173 0 230 249
3.716051859 -37.958921484 -0.061719879 0 230 252
3.714302014 -38.055771029 -0.059827965 0 230 252
3.713148262 -38.152696251 -0.059589661 0 230 252
3.713874171 -38.249862503 -0.064568270 0 230 252
3.715257964 -38.347114741 -0.071372082 0 230 252
3.715671300 -38.444243576 -0.075480683 0 230 252
3.713977111 -38.541100706 -0.073737422 0 230 252
3.714181676 -38.638203817 -0.077264135 0 230 252
3.720390999 -38.736089731 -0.097459647 0 230 252
3.718545986 -38.832929357 -0.095294213 0 230 252
3.719123722 -38.930085667 -0.099853486 0 230 252
3.718385726 -39.027070362 -0.100758945 0 230 252
3.712028362 -39.123314948 -0.086062977 0 230 252
3.705353323 -39.219513456 -0.070483811 0 230 252
3.697588273 -39.315563174 -0.051877286 0 230 249
3.687466700 -39.411294532 -0.026727286 0 230 249
3.679665561 -39.507328161 -0.008017919 0 230 249
3.463702671 -58.794453439 0.028214295 0 231 246
3.478436713 -59.477592708 -0.031697402 0 230 249
3.478325108 -59.574721878 -0.034094587 0 230 249
3.481526873 -59.672558113 -0.045694813 0 230 249
3.484849650 -59.770423420 -0.057630082 0 230 252
3.484884216 -59.867588493 -0.060429883 0 230 252
3.482368307 -59.964207671 -0.056143517 0 230 252
3.480300605 -60.060921923 -0.053101042 0 230 249
3.480878514 -60.158204459 -0.057406707 0 230 252
3.483692941 -60.255970171 -0.067924126 0 230 252
3.486669246 -60.353773757 -0.078890112 0 230 252
3.485477153 -60.450678903 -0.078275379 0 230 252
3.480786156 -60.546825849 -0.067939658 0 230 252
3.476861166 -60.643136202 -0.059730652 0 230 252
3.474609922 -60.739808210 -0.056170052 0 230 252
3.472935245 -60.836604829 -0.054209956 0 230 252
3.470836537 -60.933308403 -0.051070724 0 230 249
3.469000753 -61.030068595 -0.048660704 0 230 249
3.467103562 -61.126814693 -0.046078909 0 230 249
3.463587684 -61.223205045 -0.038999200 0 230 249
3.458653224 -61.319281754 -0.027977431 0 230 249
3.453617983 -61.415333248 -0.016674455 0 230 249
3.451304018 -61.511981665 -0.012930049 0 230 249
3.453865268 -61.609705909 -0.022728009 0 230 249
3.458567738 -61.707906663 -0.038473253 0 230 249
3.461979401 -61.805825685 -0.050631463 0 230 249
3.463729081 -61.903379075 -0.058171471 0 230 252
3.464338539 -62.000680963 -0.062542729 0 230 252
3.463734209 -62.097713646 -0.063540849 0 230 252
3.462936925 -62.194703559 -0.064001758 0 230 252
3.463190382 -62.291928537 -0.067380547 0 230 252
3.463774203 -62.389228458 -0.071675962 0 230 252
3.462335321 -62.486075813 -0.070350957 0 230 252
3.455125143 -62.581625866 -0.052991498 0 230 249
3.445752111 -62.676684254 -0.029622106 0 230 249
3.440814374 -62.772736329 -0.018573210 0 230 249
3.438612070 -62.869403245 -0.015122481 0 230 249
3.437050505 -62.966214203 -0.013450626 0 230 249
3.435394662 -63.063003353 -0.011515670 0 230 249
3.434934386 -63.160063421 -0.012901006 0 230 249
3.435458455 -63.257347751 -0.017019844 0 230 249
3.436412365 -63.354731163 -0.022331700 0 230 249
3.436196046 -63.451849037 -0.024391310 0 230 249
3.432251623 -63.548115370 -0.016092410 0 230 249
3.423607014 -63.643303301 0.005265714 0 230 249
3.424518058 -63.740676828 0.000077631 0 230 249
3.424203123 -63.837770178 -0.001703285 0 230 249
3.431007552 -63.936502267 -0.023262115 0 230 249
3.429792699 -64.033391962 -0.022540583 0 230 249
3.432500841 -64.131187210 -0.032716822 0 230 249
3.429286125 -64.227615571 -0.026436897 0 230 249
3.425935639 -64.324010768 -0.019778563 0 230 249
3.415837728 -64.418838538 0.005626968 0 230 249
3.407361091 -64.514036109 0.026529510 0 231 246
3.403314343 -64.610259194 0.035125950 0 231 246
3.405048410 -64.707827919 0.027662947 0 231 246
3.410329599 -64.806227229 0.010346209 0 230 249
3.416009652 -64.904724672 -0.008077582 0 230 249
3.419528175 -65.002720712 -0.020494935 0 230 249
3.420338578 -65.100084561 -0.025387235 0 230 249
3.418217411 -65.196760559 -0.022133619 0 230 249
3.414527481 -65.293066255 -0.014520318 0 230 249
3.412796149 -65.389831853 -0.012347397 0 230 249
3.411736549 -65.486755580 -0.012039578 0 230 249
3.410548561 -65.583648865 -0.011373882 0 230 249
3.408306787 -65.680292216 -0.007779246 0 230 249
3.405113941 -65.776708801 -0.001541023 0 230 249
3.402463261 -65.873252613 0.003192078 0 230 249
3.401883356 -65.970288364 0.002173037 0 230 249
3.402743007 -66.067667853 -0.002844439 0 230 249
3.402492735 -66.164783541 -0.004776997 0 230 249
3.400494125 -66.261481353 -0.001850863 0 230 249
3.398677627 -66.358222039 0.000570479 0 230 249
3.398962152 -66.455466547 -0.002844439 0 230 249
3.400327124 -66.552971865 -0.009260105 0 230 249
3.401219251 -66.650365090 -0.014360878 0 230 249
3.401040959 -66.747501509 -0.016486449 0 230 249
3.400768054 -66.844615682 -0.018347984 0 230 249
3.401917856 -66.942074733 -0.024161224 0 230 249
3.403895431 -67.039736082 -0.032273217 0 230 249
3.403887399 -67.136917610 -0.034867215 0 230 249
3.402293848 -67.233714317 -0.033054797 0 230 249
3.400680106 -67.330505635 -0.031185099 0 230 249
3.397707518 -67.426964975 -0.025538744 0 230 249
3.391766044 -67.522697383 -0.011642275 0 230 249
3.384042275 -67.617989813 0.007207476 0 230 249
3.377907313 -67.713666477 0.021644048 0 230 249
3.375681656 -67.810298862 0.025219949 0 231 246
3.376668393 -67.907720125 0.019871455 0 230 249
3.378279700 -68.005296704 0.012788747 0 230 249
3.380059725 -68.102916887 0.005238400 0 230 249
3.381950842 -68.200566633 -0.002619478 0 230 249
3.382181813 -68.297807848 -0.005863492 0 230 249
3.379040500 -68.394214358 0.000263581 0 230 249
3.373968778 -68.490140116 0.011755538 0 230 249
3.370523842 -68.586467085 0.018728655 0 230 249
3.371027629 -68.683775183 0.014731315 0 230 249
3.375004991 -68.781950496 0.001083667 0 230 249
3.379817026 -68.880338050 -0.014882038 0 230 249
3.382494782 -68.978196268 -0.024916437 0 230 249
3.381853190 -69.075225844 -0.025726720 0 230 249
3.378703982 -69.171626590 -0.019568275 0 230 249
3.373620262 -69.267539608 -0.008033455 0 230 249
3.368244461 -69.363375965 0.004314168 0 230 249
3.365579807 -69.459892213 0.009129871 0 230 249
3.367240125 -69.557498824 0.001929451 0 230 249
3.371795737 -69.655839372 -0.013314672 0 230 249
3.373345424 -69.753423139 -0.020205425 0 230 249
3.366912699 -69.848984804 -0.004915065 0 230 249
3.357242520 -69.943720128 0.019372185 0 230 249
3.349603027 -70.038965230 0.038018225 0 231 246
3.346595943 -70.135385156 0.043793778 0 231 246
3.348590808 -70.233079521 0.035671928 0 231 246
3.351694262 -70.331059396 0.024470845 0 230 249
3.349937122 -70.427798725 0.026776764 0 231 246
3.343638929 -70.523373783 0.041701882 0 231 246
3.338079760 -70.619134406 0.054574751 0 231 246
3.337690589 -70.716220315 0.053083135 0 231 246
3.343438611 -70.814886438 0.034539424 0 231 246
3.351691892 -70.914203566 0.009035513 0 230 249
3.357435143 -71.012879754 -0.009492738 0 230 249
3.358491235 -71.110349184 -0.014995747 0 230 249
3.354655376 -71.206553420 -0.006904386 0 230 249
3.348221793 -71.302081782 0.008406479 0 230 249
3.343173636 -71.397965757 0.019868901 0 230 249
3.341555879 -71.494738843 0.021800447 0 230 249
3.342632381 -71.592213244 0.016246582 0 230 249
3.344274961 -71.689836892 0.009120889 0 230 249
3.344103705 -71.786988675 0.007036502 0 230 249
3.341227578 -71.883433374 0.012469401 0 230 249
3.335488843 -71.979126535 0.025857955 0 231 246
3.328233871 -72.074418153 0.043460993 0 231 246
3.330656555 -72.172248152 0.034173411 0 231 246
3.328408510 -72.268851529 0.037865818 0 231 246
3.330280023 -72.366539679 0.030112106 0 231 246
3.331691133 -72.464108490 0.023638895 0 230 249
3.329152109 -72.560634988 0.028143382 0 231 246
3.327030914 -72.657270882 0.031488004 0 231 246
3.326498119 -72.754326973 0.030419975 0 231 246
3.325185970 -72.851176491 0.031518784 0 231 246
3.323970893 -72.948051551 0.032349022 0 231 246
3.324307616 -73.045339591 0.028868278 0 231 246
3.327577789 -73.143410803 0.017237174 0 230 249
3.331307642 -73.241608017 0.004329831 0 230 249
3.331276369 -73.338803090 0.001875120 0 230 249
3.327518596 -73.435000953 0.009776888 0 230 249
3.325098022 -73.531555273 0.013964001 0 230 249
3.328423632 -73.629651674 0.002184559 0 230 249
3.327797154 -73.726688478 0.001388496 0 230 249
3.335317131 -73.825919627 -0.022044198 0 230 249
3.337654855 -73.923759570 -0.031075064 0 230 249
3.333335500 -74.019803980 -0.021605688 0 230 249
3.324687082 -74.114674865 -0.000105193 0 230 249
3.326074602 -74.212258259 -0.006492064 0 230 249
3.321866372 -74.308325594 0.002672144 0 230 249
3.321242589 -74.405364104 0.001876783 0 230 249
3.321184934 -74.502556873 -0.000490620 0 230 249
3.319044726 -74.599183035 0.002930348 0 230 249
3.316350819 -74.695657246 0.007891177 0 230 249
3.314937754 -74.792480018 0.009293852 0 230 249
3.312939253 -74.889142290 0.012324586 0 230 249
3.309111544 -74.985302660 0.020439734 0 230 249
3.305573969 -75.081540416 0.027749830 0 231 246
3.305575116 -75.178748329 0.025227238 0 231 246
3.306917323 -75.276325905 0.018979079 0 230 249
3.304159763 -75.372775831 0.024125109 0 230 249
3.298628274 -75.468459131 0.036980960 0 231 246
3.294800352 -75.564609530 0.045103891 0 231 246
3.295567816 -75.662028982 0.040457593 0 231 246
3.298817932 -75.760137512 0.028913226 0 231 246
3.297131662 -75.856879887 0.031088098 0 231 246
3.290888669 -75.952355880 0.045927216 0 231 246
3.284286529 -76.047727900 0.061765644 0 231 246
3.279875601 -76.143705964 0.071515937 0 231 246
3.278821140 -76.240617644 0.071939803 0 231 246
3.281451064 -76.338558411 0.062125892 0 231 246
3.286963066 -76.437308099 0.044303780 0 231 246
3.293085726 -76.536233805 0.024785754 0 230 249
3.295538430 -76.634135590 0.015467724 0 230 249
3.293089026 -76.730663146 0.019773920 0 230 249
3.287787469 -76.826387373 0.032007539 0 231 246
3.282350694 -76.922070172 0.044618161 0 231 246
3.279033641 -77.018347334 0.051339202 0 231 246
3.277699015 -77.115182530 0.052552168 0 231 246
3.277153827 -77.212240681 0.051572419 0 231 246
3.277629621 -77.309588263 0.047756463 0 231 246
3.280125759 -77.407509838 0.038326985 0 231 246
3.283837546 -77.505779244 0.025520270 0 231 246
3.287498111 -77.604037673 0.012857036 0 230 249
3.289974219 -77.701962417 0.003486630 0 230 249
3.290795774 -77.799418085 -0.001284491 0 230 249
3.290152215 -77.896456849 -0.001982776 0 230 249
3.288107126 -77.993095195 0.001215097 0 230 249
3.284909229 -78.089402703 0.007617925 0 230 249
3.281802932 -78.185734738 0.013767387 0 230 249
3.279373762 -78.282259465 0.018036230 0 230 249
3.277008819 -78.378801514 0.022127768 0 230 249
3.273978118 -78.475150873 0.028070722 0 231 246
3.270726113 -78.571434855 0.034629906 0 231 246
3.268022257 -78.667875240 0.039666905 0 231 246
3.265517077 -78.764371682 0.044152948 0 231 246
3.264501671 -78.861297965 0.044499875 0 231 246
3.267650322 -78.959430591 0.033275410 0 231 246
3.273542434 -79.058362247 0.014427569 0 230 249
3.277806547 -79.156826255 0.000105315 0 230 249
3.275169953 -79.253287063 0.004962398 0 230 249
3.264777722 -79.347487704 0.031374938 0 231 246
3.257376255 -79.442553301 0.049476900 0 231 246
3.263492842 -79.541561533 0.030010896 0 231 246
3.201986612 -80.690065636 0.171440455 0 231 243
3.156567136 -89.232291149 0.086414670 0 231 246
3.158820234 -90.400156262 0.052042011 0 231 246
-3.999289946 -90.552550438 19.897284273 255 2 164
-4.007879631 -90.644105057 19.918909135 255 2 164
-4.027047082 -90.731988451 19.969968030 255 0 168
-4.033586570 -90.824238315 19.985890633 255 0 168
-4.033617975 -90.918743942 19.983705455 255 0 168
-4.034402859 -91.012988266 19.983617957 255 0 168
-4.038012939 -91.106249356 19.991392791 255 0 168
-4.043328274 -91.198914172 20.003913707 255 0 168
-4.049410184 -91.291308173 20.018568815 255 0 168
-4.054569042 -91.384020501 20.030656635 255 0 168
-4.055192950 -91.478314908 20.030126821 255 0 168
-4.051415148 -91.574150001 20.017350062 255 0 168
-4.047927997 -91.669886847 20.005383138 255 0 168
-4.048047389 -91.764362076 20.003452752 255 0 168
-4.049788631 -91.858268406 20.006036391 255 0 168
-4.049596443 -91.952853701 20.003241220 255 0 168
-4.047539690 -92.048095962 19.995258841 255 0 168
-4.045242057 -92.143425340 19.986607279 255 0 168
-4.044642103 -92.238158439 19.982680748 255 0 168
-4.045819066 -92.332265322 19.983699750 255 0 168
-4.046904771 -92.426404225 19.984465929 255 0 168
-4.047391258 -92.520754985 19.983565830 255 0 168
-4.049026190 -92.614699250 19.985862508 255 0 168
-4.052637746 -92.707942022 19.993660477 255 0 168
-4.055766380 -92.801354112 20.000115793 255 0 168
-4.055585656 -92.895940503 19.997363547 255 0 168
-4.052784894 -92.991459790 19.987321820 255 0 168
-4.050252452 -93.086886345 19.978027814 255 0 168
-4.047994934 -93.182217504 19.969499902 255 0 168
-4.045522527 -93.277627768 19.960375120 255 0 168
-4.043239490 -93.372972946 19.951778370 255 0 168
-4.042472272 -93.467778376 19.947400681 255 2 164
-4.045188457 -93.561337787 19.952717153 255 0 168
-4.050259808 -93.654051569 19.964588345 255 0 168
-4.055306290 -93.746771036 19.976391487 255 0 168
-4.061321693 -93.839139227 19.990891950 255 0 168
-4.067901045 -93.931300652 20.006962857 255 0 168
-4.067501450 -94.025970025 20.003614818 255 0 168
-4.070442916 -94.119436338 20.009564959 255 0 168
-4.067356021 -94.215075843 19.998741241 255 0 168
-4.062619170 -94.311314265 19.983327307 255 0 168
-4.062313638 -94.405954946 19.980245397 255 0 168
-4.065368567 -94.499380325 19.986515692 255 0 168
-4.067467620 -94.593150330 19.990127210 255 0 168
-4.066847184 -94.687905702 19.986172336 255 0 168
-4.072159464 -94.780508219 19.998727523 255 0 168
-4.067761252 -94.876636646 19.984262436 255 0 168
-4.072481323 -94.969451516 19.995171926 255 0 168
-4.076512531 -95.062514314 20.004165651 255 0 168
-4.077921906 -95.156530621 20.005864692 255 0 168
-4.076170091 -95.251700330 19.998768141 255 0 168
-4.072790851 -95.347466681 19.987144009 255 0 168
-4.068851063 -95.443441328 19.973961105 255 0 168
-4.071525335 -95.536997916 19.979184410 255 0 168
-4.070830581 -95.631787979 19.975033739 255 0 168
-4.068359845 -95.727230886 19.965942077 255 0 168
-4.073467949 -95.819892588 19.977941430 255 0 168
-4.075316304 -95.913749602 19.980870884 255 0 168
-4.073920309 -96.008800026 19.974773248 255 0 168
-4.072233266 -96.103959424 19.967866789 255 0 168
-4.073474284 -96.198040770 19.969109492 255 0 168
-4.076212554 -96.291568981 19.974519797 255 0 168
-4.077225630 -96.385733404 19.975130422 255 0 168
-4.076516085 -96.480535081 19.970948507 255 0 168
-4.077632740 -96.574661557 19.971849580 255 0 168
-4.081771282 -96.667667389 19.981160988 255 0 168
-4.086095393 -96.760601813 19.990989931 255 0 168
-4.088627812 -96.854199256 19.995834122 255 0 168
-4.089319489 -96.948480030 19.995557044 255 0 168
-4.088775115 -97.043221128 19.991841399 255 0 168
-4.088434669 -97.137887296 19.988694343 255 0 168
-4.089863930 -97.231894126 19.990473124 255 0 168
-4.090400705 -97.326233827 19.989769404 255 0 168
-4.088037026 -97.421658121 19.980995398 255 0 168
-4.084939975 -97.517359346 19.970181648 255 0 168
-4.084155479 -97.612197265 19.965804380 255 0 168
-4.087592922 -97.705453163 19.973177072 255 0 168
-4.093926231 -97.797619965 19.988609565 255 0 168
-4.099305054 -97.890141216 20.001387049 255 0 168
-4.100901637 -97.984081731 20.003640354 255 0 168
-4.099324450 -98.079216758 19.997062710 255 0 168
-4.097409228 -98.174481069 19.989545462 255 0 168
-4.097334959 -98.269052871 19.987152375 255 0 168
-4.099631704 -98.362729826 19.991358544 255 0 168
-4.102513362 -98.456184508 19.997193555 255 0 168
-4.103277152 -98.550439187 19.997135983 255 0 168
-4.102093542 -98.645431726 19.991660196 255 0 168
-4.101092612 -98.740356542 19.986693874 255 0 168
-4.100475813 -98.835136947 19.982797633 255 0 168
-4.099461987 -98.930069352 19.977797619 255 0 168
-4.098333662 -99.025046740 19.972480064 255 0 168
-4.096429683 -99.120321004 19.965005067 255 0 168
-4.090377780 -99.217178465 19.945988042 255 2 164
-4.085492499 -99.313596095 19.930218653 255 2 164
-3.946623597 -99.461192152 19.541594952 255 12 146
3.094579291 -102.441549179 -0.049991191 0 230 249
3.081159234 -102.533729460 -0.014871152 0 230 249
3.055826860 -102.621330468 0.053368611 0 231 246
3.040139060 -102.712615994 0.094796127 0 231 246
3.044190868 -102.811477436 0.081344967 0 231 246
3.054649478 -102.912807697 0.050082802 0 231 246
3.059796803 -103.012101054 0.033588190 0 231 246
3.055069095 -103.107591936 0.044549263 0 231 246
3.043715973 -103.200523002 0.073931540 0 231 246
3.039668606 -103.296268151 0.083003558 0 231 246
3.034608461 -103.391619205 0.094892511 0 231 246
3.034429271 -103.488856256 0.093212548 0 231 246
3.037515722 -103.587359084 0.082454557 0 231 246
3.044241505 -103.687276388 0.061579577 0 231 246
3.043731251 -103.784390334 0.060823526 0 231 246
3.047944322 -103.883340033 0.046936746 0 231 246
3.047424070 -103.980452399 0.046210822 0 231 246
3.041415126 -104.075427846 0.060745894 0 231 246
3.035226758 -104.170329373 0.075781020 0 231 246
3.040461715 -104.269683521 0.059057794 0 231 246
3.040495095 -104.367010966 0.056797342 0 231 246
3.036242259 -104.462663532 0.066454776 0 231 246
3.029070019 -104.557171099 0.084230076 0 231 246
3.026021384 -104.653288930 0.090541938 0 231 246
3.029354291 -104.751907054 0.079112672 0 231 246
3.034782687 -104.851350759 0.061858570 0 231 246
3.038238638 -104.950024424 0.050089520 0 231 246
3.038085513 -105.047282209 0.048355788 0 231 246
3.033359192 -105.142740464 0.059337904 0 231 246
3.026081273 -105.237190401 0.077415344 0 231 246
3.022799058 -105.333211185 0.084384866 0 231 246
3.025819353 -105.431718071 0.073832876 0 231 246
3.033038645 -105.531887134 0.051607684 0 231 246
3.040727331 -105.632248044 0.028078598 0 231 246
3.044583807 -105.731098263 0.015205254 0 230 249
3.042371393 -105.827546971 0.019206253 0 230 249
3.035984211 -105.922338530 0.034815457 0 231 246
3.027362568 -106.016238559 0.056638322 0 231 246
3.019676648 -106.110504488 0.075860838 0 231 246
3.017979576 -106.207147740 0.078433815 0 231 246
3.021428514 -106.305839592 0.066700528 0 231 246
3.022095158 -106.403425670 0.062704006 0 231 246
3.018758354 -106.499415527 0.069839444 0 231 246
3.015360535 -106.595379073 0.077145710 0 231 246
3.014069979 -106.692183041 0.078594326 0 231 246
3.013489136 -106.789270633 0.078070890 0 231 246
3.011665971 -106.885860806 0.081002678 0 231 246
3.007620041 -106.981559048 0.090115635 0 231 246
3.002798145 -107.076943399 0.101387222 0 231 246
3.000184878 -107.173211846 0.106519303 0 231 243
3.002041395 -107.271276094 0.099225097 0 231 246
3.007666846 -107.370859240 0.081453177 0 231 246
3.013277361 -107.470441318 0.063723941 0 231 246
3.014269873 -107.568166218 0.058835430 0 231 246
3.009713722 -107.663652982 0.069375216 0 231 246
3.002844479 -107.758202370 0.086347376 0 231 246
2.997236217 -107.853257009 0.099814797 0 231 246
2.996025432 -107.950087915 0.101056910 0 231 246
2.999597974 -108.048856493 0.089000888 0 231 246
3.005592034 -108.148610458 0.070213361 0 231 246
3.009629441 -108.247575400 0.056867168 0 231 246
3.004529463 -108.342831468 0.068927261 0 231 246
2.995780798 -108.436600329 0.091133208 0 231 246
2.990189091 -108.531648199 0.104562904 0 231 243
2.988071758 -108.628108062 0.108333779 0 231 243
2.988301614 -108.725524206 0.105579787 0 231 243
2.989852775 -108.823480543 0.099153246 0 231 246
2.991458196 -108.921460858 0.092577009 0 231 246
2.991284694 -109.018715437 0.090948002 0 231 246
2.989185041 -109.115181952 0.094675586 0 231 246
2.987111881 -109.211658318 0.098330692 0 231 246
2.985566641 -109.308350231 0.100519160 0 231 246
2.982704311 -109.404500843 0.106370821 0 231 243
2.978593852 -109.500136972 0.115693950 0 231 243
2.977513740 -109.597016966 0.116592721 0 231 243
2.980458664 -109.695553835 0.106301489 0 231 243
2.982778808 -109.793836118 0.097748553 0 231 246
2.983322363 -109.891388011 0.094136394 0 231 246
2.983669886 -109.988859997 0.091070452 0 231 246
2.985945468 -110.087129602 0.082644908 0 231 246
2.988778927 -110.185632316 0.072669404 0 231 246
2.989758949 -110.283370481 0.067848359 0 231 246
2.988856477 -110.380329919 0.068262570 0 231 246
2.986335409 -110.476617912 0.073178311 0 231 246
2.983968398 -110.572968528 0.077666891 0 231 246
2.984549334 -110.670542931 0.073960148 0 231 246
2.987455898 -110.769085684 0.063788372 0 231 246
2.989568591 -110.867300777 0.055825044 0 231 246
2.986955175 -110.963548729 0.061003425 0 231 246
2.978819244 -111.057491913 0.081537899 0 231 246
2.971495170 -111.151768359 0.099816291 0 231 246
2.968038557 -111.247655806 0.107342700 0 231 243
2.967420943 -111.344728576 0.106976656 0 231 243
2.968548493 -111.442532038 0.101759472 0 231 246
2.970717928 -111.540773527 0.093646566 0 231 246
2.973773894 -111.639389090 0.083069880 0 231 246
2.978383665 -111.738659857 0.068174103 0 231 246
2.982893673 -111.837892852 0.053556871 0 231 246
2.981520947 -111.934655940 0.055297366 0 231 246
2.974318102 -112.028964476 0.073249337 0 231 246
2.966423025 -112.122976411 0.093127240 0 231 246
2.964797540 -112.219626772 0.095574078 0 231 246
2.972189729 -112.320082733 0.072948904 0 231 246
2.980707990 -112.421020709 0.047193910 0 231 246
2.984880781 -112.520128318 0.033522429 0 231 246
2.985433330 -112.617707492 0.029918004 0 231 246
2.986437645 -112.715479065 0.025058633 0 231 246
2.985999040 -112.812640187 0.024212403 0 230 249
2.983374956 -112.908874053 0.029443969 0 231 246
2.979860755 -113.004728384 0.037151648 0 231 246
2.977979075 -113.101274693 0.040321358 0 231 246
2.977719406 -113.198510392 0.038982306 0 231 246
2.975521165 -113.294920773 0.043034557 0 231 246
2.970622161 -113.390178657 0.054597371 0 231 246
2.962876823 -113.484218807 0.074075539 0 231 246
2.955595373 -113.578451703 0.092265100 0 231 246
2.954288164 -113.675233429 0.093844609 0 231 246
2.957645957 -113.774010709 0.082454344 0 231 246
2.963869238 -113.874018292 0.063097808 0 231 246
2.971604465 -113.974679314 0.039538506 0 231 246
2.977729176 -114.074655936 0.020458372 0 230 249
2.977626449 -114.171963794 0.018694663 0 230 249
2.970536304 -114.266269071 0.036360521 0 231 246
2.960315906 -114.359222930 0.062731227 0 231 246
2.952056446 -114.453013792 0.083650799 0 231 246
2.949006318 -114.549043788 0.090087057 0 231 246
2.949787696 -114.646724642 0.085871001 0 231 246
2.952362532 -114.745180932 0.076669403 0 231 246
2.954819734 -114.843588953 0.067796054 0 231 246
2.954324595 -114.940722618 0.067132858 0 231 246
2.949931772 -115.036169311 0.077308363 0 231 246
2.947263256 -115.132360256 0.082690610 0 231 246
2.950348084 -115.231044571 0.072076814 0 231 246
2.954059428 -115.330003757 0.059722148 0 231 246
2.954902610 -115.427720435 0.055343601 0 231 246
2.954159712 -115.524748727 0.055376335 0 231 246
2.954268550 -115.622147676 0.053041981 0 231 246
2.954441615 -115.719575258 0.050530212 0 231 246
2.951148943 -115.815492682 0.057656156 0 231 246
2.944309081 -115.909860407 0.074646318 0 231 246
2.944505323 -116.007296197 0.072073635 0 231 246
2.940429636 -116.102865459 0.081380327 0 231 246
2.942867539 -116.201281738 0.072576993 0 231 246
2.951460999 -116.302395782 0.046659142 0 231 246
2.952711369 -116.400298884 0.041160104 0 231 246
2.956304774 -116.499231259 0.029147365 0 231 246
2.954965686 -116.596001499 0.030850721 0 231 246
2.952552463 -116.692299293 0.035541920 0 231 246
2.949311925 -116.788231953 0.042534672 0 231 246
2.948165218 -116.885084339 0.043706641 0 231 246
2.948507736 -116.982592504 0.040738944 0 231 246
2.944203973 -117.078052740 0.050691577 0 231 246
2.941308571 -117.174131781 0.056729393 0 231 246
2.931096045 -117.266977065 0.083113989 0 231 246
2.928026518 -117.362972980 0.089638354 0 231 246
2.932971906 -117.462513583 0.073878031 0 231 246
2.943076961 -117.564343619 0.043772177 0 231 246
2.945454044 -117.662756528 0.035155482 0 231 246
2.949562289 -117.761939841 0.021726378 0 230 249
2.946320811 -117.857863418 0.028734697 0 231 246
2.949097784 -117.956459718 0.019009594 0 230 249
2.946585171 -118.052705937 0.023993622 0 230 249
2.946340031 -118.149960213 0.022673999 0 230 249
2.944499341 -118.246503939 0.025792063 0 231 246
2.938554041 -118.341216359 0.040324413 0 231 246
2.931451810 -118.435408381 0.058074882 0 231 246
2.926749519 -118.530667591 0.069153367 0 231 246
2.925293205 -118.627375027 0.071207387 0 231 246
2.926686041 -118.725356861 0.065340326 0 231 246
2.930765108 -118.824543413 0.052005187 0 231 246
2.936781294 -118.924601987 0.033284924 0 231 246
2.941500836 -119.024084013 0.018171240 0 230 249
2.943456269 -119.122329063 0.010744513 0 230 249
2.941214878 -119.218690066 0.014988507 0 230 249
2.932208225 -119.312006898 0.038044982 0 231 246
2.917612350 -119.402801172 0.076643954 0 231 246
2.907479190 -119.495595512 0.102835253 0 231 246
2.976025142 -119.623863085 -0.089745393 0 230 252
2.801449505 -139.602884320 0.012103691 0 230 249
2.800523824 -139.699807174 0.012937386 0 230 249
2.802421473 -139.798228852 0.005921503 0 230 249
2.803963270 -139.896463289 -0.000103691 0 230 249
2.805741373 -139.994824956 -0.006784789 0 230 249
2.809756347 -140.094378703 -0.019684697 0 230 249
2.813152355 -140.193606309 -0.030862280 0 230 249
2.810551216 -140.289640989 -0.025362633 0 230 249
2.801347160 -140.382152765 -0.001501309 0 230 249
2.790956180 -140.474024405 0.025661654 0 231 246
2.785192845 -140.568359881 0.039957860 0 231 246
2.786454683 -140.666445890 0.034720549 0 231 246
2.792144315 -140.766901376 0.017172195 0 230 249
2.796426479 -140.866608316 0.003538739 0 230 249
2.796978898 -140.964321274 0.000277637 0 230 249
2.796551275 -141.061509747 -0.000257122 0 230 249
2.797987783 -141.159698132 -0.005974219 0 230 249
2.800849873 -141.258653184 -0.015654192 0 230 249
2.801723143 -141.356542540 -0.019802752 0 230 249
2.798421045 -141.452188583 -0.012339863 0 230 249
2.793210322 -141.546805794 0.000431435 0 230 249
2.790914540 -141.642988459 0.005098456 0 230 249
2.793008749 -141.741534521 -0.002440414 0 230 249
2.796807208 -141.841001261 -0.014717031 0 230 249
2.800686399 -141.940514841 -0.027216944 0 230 249
2.803569989 -142.039494315 -0.036947245 0 230 249
2.803943125 -142.137120190 -0.039695672 0 230 249
2.802383023 -142.233701609 -0.037067261 0 230 249
2.801335093 -142.330559271 -0.035861844 0 230 249
2.800606235 -142.427589228 -0.035542479 0 230 249
2.799167194 -142.524234243 -0.033247167 0 230 249
2.796997545 -142.620482422 -0.028919115 0 230 249
2.793809324 -142.716176696 -0.021757598 0 230 249
2.789295745 -142.811149329 -0.010909552 0 230 249
2.784240556 -142.905824596 0.001445700 0 230 249
2.779101706 -143.000450847 0.014034762 0 230 249
2.773874487 -143.095025424 0.026870725 0 231 246
2.771281465 -143.191030520 0.032383082 0 231 246
2.775764999 -143.290889513 0.018219192 0 230 249
2.783353469 -143.392445170 -0.004577223 0 230 249
2.788686969 -143.492776702 -0.021102161 0 230 249
2.791489218 -143.591730663 -0.030587405 0 230 249
2.792142153 -143.689512813 -0.034094999 0 230 249
2.787015612 -143.784135862 -0.021530785 0 230 249
2.774786567 -143.874869259 0.010784114 0 230 249
2.760029087 -143.964209207 0.050130910 0 231 246
2.758915823 -144.061013945 0.051539166 0 231 246
2.759615188 -144.158812029 0.047908319 0 231 246
