ply
format ascii 1.0
comment coordinate_system ground
comment units millimeter
element vertex 1243
property double x
property double y
property double z
property uchar red
property uchar green
property uchar blue
comment color_mapping zg_high_contrast_from_zg
comment color_zg_range_mm -0.143348742 0.742375696
end_header
6.416884589 147.058503834 0.288964685 236 246 0
6.412152660 146.959182775 0.296716164 238 244 0
6.405982128 146.859005028 0.308414260 239 241 0
6.403234015 146.760873062 0.310727985 239 240 0
6.404020586 146.664849973 0.303349181 238 242 0
6.403999738 146.568343860 0.298185790 238 244 0
6.402035712 146.470679145 0.298352728 238 244 0
6.398294013 146.371956536 0.303396244 238 242 0
6.396709350 146.274518708 0.302525219 238 243 0
6.398283260 146.178958642 0.292992660 237 245 0
6.399403760 146.083126809 0.284704662 236 247 0
6.398652064 145.986181317 0.281552514 235 248 0
6.395046588 145.887541838 0.286228533 236 246 0
6.388440947 145.787124783 0.299134451 238 244 0
6.382042877 145.686834508 0.311472521 239 240 0
6.378642619 145.588323285 0.315589736 240 239 0
6.378187770 145.491556719 0.311629583 239 240 0
6.378869251 145.395461431 0.304553806 238 242 0
6.378994532 145.299035657 0.299004679 238 244 0
6.377890350 145.201882301 0.296828916 238 244 0
6.374784430 145.103546829 0.300144890 238 243 0
6.371393347 145.005044260 0.304244317 238 242 0
6.371792298 144.908777700 0.297949142 238 244 0
6.374544620 144.813896341 0.285199806 236 247 0
6.374724013 144.717496628 0.279508993 235 248 0
6.367989910 144.617027115 0.292783230 237 245 0
6.358431721 144.514900613 0.313805583 240 239 0
6.351682556 144.414431066 0.327124161 241 236 0
6.357643103 144.321430532 0.305579986 238 242 0
6.356259046 144.224113199 0.304183901 238 242 0
6.356166095 144.127553090 0.299247277 238 244 0
6.358956588 144.032682221 0.286401925 236 246 0
6.363404268 143.938778932 0.269011520 234 251 0
6.355703419 143.837758471 0.284948367 236 247 0
6.362583968 143.745274166 0.260886017 233 254 0
6.357888623 143.646014833 0.268580517 234 251 0
6.351288174 143.545644616 0.281502697 235 248 0
6.342332043 143.443902541 0.300888808 238 243 0
6.333229507 143.342080586 0.320678166 241 237 0
6.326923110 143.241895060 0.332798174 242 234 0
6.324311766 143.143866737 0.334782485 242 234 0
6.322472211 143.046288746 0.334650670 242 234 0
6.320947476 142.948894221 0.333656356 242 234 0
6.322591061 142.853342725 0.323970899 241 236 0
6.330860351 142.761640582 0.296108590 238 244 0
6.342292695 142.671768645 0.259568961 233 254 0
6.347756095 142.578421466 0.239406187 215 255 8
6.343800899 142.479604282 0.245085195 222 255 4
6.333073542 142.376862207 0.269345887 234 251 0
6.320688210 142.273166314 0.298157216 238 244 0
6.311593960 142.171384366 0.317940608 240 238 0
6.309186138 142.073477549 0.319379880 240 238 0
6.311689472 141.978411630 0.307345399 239 241 0
6.317760506 141.885404612 0.285522942 236 247 0
6.324791371 141.792946232 0.261067714 233 254 0
6.326132982 141.697197584 0.252223551 229 255 1
6.321332435 141.597903852 0.260233580 233 254 0
6.315429472 141.497977096 0.271269866 234 251 0
6.311891225 141.399415858 0.275819028 235 249 0
6.308882215 141.301160804 0.278917297 235 248 0
6.305218224 141.202530041 0.283814074 236 247 0
6.304067727 141.105345983 0.281815170 235 248 0
6.306760735 141.010369967 0.269270826 234 251 0
6.310415301 140.915942881 0.254088911 229 255 1
6.311095958 140.819805438 0.247068504 222 255 4
6.309015046 140.722082761 0.247627152 226 255 3
6.305464683 140.623518423 0.252219354 229 255 1
6.299421252 140.523527882 0.263654177 233 253 0
6.288310095 140.420640465 0.288997124 236 246 0
6.275556405 140.316820853 0.318849224 240 238 0
6.272823462 140.218737059 0.321203953 241 237 0
6.281855345 140.127373942 0.291274327 237 246 0
6.289686537 140.035317523 0.264640401 233 253 0
6.290205120 139.939082799 0.258075157 233 254 0
6.282833770 139.838348934 0.273163510 234 250 0
6.276105240 139.737985669 0.286489248 236 246 0
6.278408296 139.642767932 0.275030380 234 250 0
6.284254206 139.549562899 0.253849506 229 255 1
6.285293878 139.453619795 0.245859808 222 255 4
6.278960423 139.353485646 0.258106354 233 254 0
6.268070868 139.250768242 0.282858471 236 247 0
6.259440095 139.149339550 0.301413051 238 243 0
6.263675527 139.055211776 0.284657453 236 247 0
6.259912651 138.956547389 0.289854583 237 246 0
6.257664542 138.858742483 0.290895614 237 246 0
6.258100529 138.762457074 0.284571074 236 247 0
6.254873147 138.664098472 0.288302245 236 246 0
6.247459160 138.563375112 0.303525525 238 242 0
6.238388199 138.461720387 0.323298201 241 237 0
6.231936535 138.361549686 0.335883236 242 234 0
6.230805362 138.264383581 0.333866318 242 234 0
6.232692397 138.168918395 0.323566276 241 237 0
6.234583187 138.073452774 0.313256947 239 240 0
6.236089357 137.977768103 0.304004352 238 242 0
6.237633059 137.882102283 0.294649773 237 245 0
6.238329182 137.785957719 0.287622732 236 246 0
6.237390650 137.688893224 0.285083724 236 247 0
6.235874279 137.591503922 0.284132006 236 247 0
6.233363391 137.493556710 0.285911378 236 246 0
6.225682862 137.392712012 0.301882535 238 243 0
6.216890630 137.291249141 0.320906844 241 237 0
6.212841020 137.192447058 0.326914087 241 236 0
6.215206123 137.097235944 0.315313898 240 239 0
6.219579260 137.003144668 0.298202492 238 244 0
6.221747739 136.907817132 0.287144003 236 246 0
6.222200341 136.811528752 0.280796825 235 248 0
6.223032460 136.715450683 0.273408907 234 250 0
6.223989537 136.619440550 0.265679030 233 252 0
6.223292531 136.522506862 0.262491018 233 253 0
6.222021138 136.425252731 0.260880981 233 254 0
6.221868883 136.328621229 0.256199804 232 255 0
6.221355601 136.231787961 0.252510868 229 255 1
6.216364159 136.132465311 0.261117003 233 254 0
6.207925414 136.031230833 0.279188517 235 248 0
6.200092256 135.930337690 0.295599037 237 245 0
6.196461922 135.831780238 0.300472692 238 243 0
6.199153801 135.736728347 0.287990547 236 246 0
6.206311305 135.644146600 0.263249290 233 253 0
6.212022891 135.550758076 0.242478515 218 255 6
6.214648255 135.455657168 0.230181753 204 255 12
6.214141388 135.358821938 0.226485552 200 255 14
6.209694990 135.259810024 0.233606614 207 255 11
6.203461081 135.159813717 0.245636748 222 255 4
6.199435010 135.061038821 0.251606504 229 255 1
6.199199097 134.964355032 0.247171266 222 255 4
6.200734100 134.868645802 0.237874856 215 255 8
6.200669180 134.772053626 0.232972341 207 255 11
6.197989215 134.674021917 0.235251051 211 255 9
6.192399962 134.574391887 0.245519096 222 255 4
6.187214886 134.474986998 0.254678781 232 255 0
6.185546625 134.377515473 0.254183484 229 255 1
6.184298329 134.280274493 0.252536247 229 255 1
6.181160830 134.181997705 0.256077609 232 255 0
6.176542821 134.082911138 0.263685501 233 253 0
6.171857543 133.983790133 0.271479461 234 251 0
6.168733994 133.885525935 0.274986425 234 250 0
6.169926927 133.789622770 0.266641927 233 252 0
6.175362451 133.696035390 0.246648544 222 255 4
6.178915082 133.601414885 0.231826391 207 255 11
6.177668252 133.504172234 0.230184486 204 255 12
6.172178299 133.404616170 0.240195477 215 255 8
6.165999957 133.304688120 0.252098223 229 255 1
6.161865240 133.205876244 0.258390454 233 254 0
6.158749640 133.107620849 0.261885412 233 253 0
6.161327908 133.012462318 0.249745551 226 255 3
6.150051726 132.909773698 0.275653139 235 249 0
6.140364241 132.807955026 0.297199593 238 244 0
6.139005618 132.710661334 0.295874862 237 245 0
6.146548545 132.618193694 0.270105576 234 251 0
6.154848310 132.526129325 0.242258585 218 255 6
6.153797074 132.428994888 0.240092772 215 255 8
6.184147538 132.348849496 0.151689658 124 255 48
6.194922467 132.258096509 0.117046994 87 255 64
5.951812561 119.863812561 0.153032915 124 255 48
5.819698508 112.359754324 0.142362748 113 255 52
5.815630112 112.261222470 0.148744223 120 255 49
5.809779239 112.161867732 0.160031277 131 255 44
5.809453648 112.065071765 0.156117499 127 255 46
5.815795021 111.971355858 0.133861267 106 255 56
5.824551645 111.878749365 0.104960475 73 255 70
5.831539599 111.785319350 0.080926852 47 255 81
5.833545321 111.689586510 0.070602561 36 255 86
5.828349406 111.590534294 0.080094634 47 255 81
5.819932920 111.490002962 0.098449580 66 255 73
5.813602739 111.390436387 0.111065483 80 255 67
5.809350377 111.291828306 0.117965532 87 255 64
5.804882073 111.193123373 0.125461101 95 255 60
5.797473781 111.093072349 0.141047766 113 255 52
5.792715905 110.994240703 0.149342892 120 255 49
5.796411539 110.899282845 0.134378047 106 255 56
5.805054597 110.806584958 0.105800359 76 255 68
5.814237043 110.714126184 0.075739190 44 255 83
5.818104412 110.619231624 0.060304444 25 255 91
5.814167506 110.520771206 0.066346149 33 255 88
5.807692883 110.421155540 0.079372420 47 255 81
5.803104694 110.322403412 0.087209020 55 255 78
5.802056799 110.225265652 0.085304668 55 255 78
5.803196638 110.129122960 0.077381166 44 255 83
5.804455838 110.033032726 0.069130274 36 255 86
5.804490632 109.936384549 0.064249900 33 255 88
5.802622917 109.838872120 0.064606215 33 255 88
5.800088477 109.741057889 0.066798542 33 255 88
5.799007550 109.643903103 0.064992090 33 255 88
5.799172207 109.547311997 0.059758977 25 255 91
5.797038748 109.449680508 0.060851445 29 255 89
5.791711172 109.350606367 0.070735483 36 255 86
5.786923102 109.251778915 0.079136147 47 255 81
5.785293331 109.154378926 0.078846246 47 255 81
5.783061258 109.056707763 0.080215151 47 255 81
5.777440472 108.957511221 0.090911495 58 255 76
5.771448622 108.858151035 0.102630464 73 255 70
5.769030314 108.760401140 0.104515794 73 255 70
5.770046773 108.664195136 0.096949171 66 255 73
5.770379091 108.567680365 0.091266546 58 255 76
5.778482924 108.474649695 0.064195868 29 255 89
5.775699750 108.376733613 0.067089988 33 255 88
5.773523115 108.279090270 0.068315992 36 255 86
5.770692854 108.181155265 0.071342217 40 255 84
5.767244084 108.082945037 0.076072055 44 255 83
5.762094803 107.983977094 0.085483616 55 255 78
5.756397801 107.884767736 0.096404099 66 255 73
5.751920371 107.786105480 0.103969205 73 255 70
5.751369101 107.689194564 0.100729127 69 255 72
5.755141141 107.594207284 0.085590455 55 255 78
5.759762728 107.499594007 0.068114382 36 255 86
5.760300059 107.403161662 0.061881176 29 255 89
5.759088177 107.305951474 0.060463838 25 255 91
5.759508995 107.209465464 0.054553596 22 255 92
5.763504721 107.114562503 0.038804268 4 255 100
5.767784870 107.019781538 0.022272998 0 253 114
5.768826296 106.923563573 0.014657631 0 252 120
5.766385114 106.825804483 0.016629713 0 252 117
5.761393099 106.726919745 0.025624621 0 253 111
5.756483078 106.628074055 0.034395191 0 255 102
5.752165187 106.529492237 0.041537159 7 255 99
5.748567620 106.431230092 0.046697599 11 255 97
5.746925039 106.333830223 0.046477730 11 255 97
5.748303111 106.237759047 0.037943877 4 255 100
5.752733748 106.143027154 0.021007984 0 253 114
5.754486892 106.047115569 0.011443697 0 251 123
5.747029285 105.947161696 0.027236248 0 254 108
5.739839637 105.847329992 0.042292628 7 255 99
5.734391917 105.748265555 0.052555132 18 255 94
5.730336306 105.649813365 0.058986657 25 255 91
5.727775978 105.552016939 0.061303069 29 255 89
5.725248993 105.454236107 0.063528939 29 255 89
5.721795598 105.356052041 0.068306455 36 255 86
5.717875560 105.257666240 0.074369936 40 255 84
5.716598055 105.160433574 0.073159738 40 255 84
5.718985973 105.064796219 0.061859603 29 255 89
5.720626867 104.968831316 0.052617110 18 255 94
5.718274752 104.871129470 0.054368846 22 255 92
5.713451569 104.772355861 0.062924988 29 255 89
5.709158416 104.673814876 0.070023233 36 255 86
5.707796577 104.576546443 0.069052385 36 255 86
5.711021443 104.481263919 0.055454633 22 255 92
5.715637462 104.386579811 0.038027727 4 255 100
5.715517105 104.289844312 0.033642128 0 255 102
5.710821908 104.191132557 0.041853400 7 255 99
5.704596521 104.091763292 0.054279074 22 255 92
5.701768794 103.993862399 0.057351355 25 255 91
5.702816103 103.897631611 0.049755636 15 255 96
5.704184143 103.801537136 0.041277917 7 255 99
5.703257811 103.704454346 0.039118540 4 255 100
5.699314880 103.606075629 0.045266241 11 255 97
5.694453919 103.507305023 0.053942980 22 255 92
5.691427530 103.409323823 0.057569679 25 255 91
5.691927439 103.312854673 0.051488097 18 255 94
5.694497420 103.217270276 0.039707699 4 255 100
5.694051392 103.120393271 0.036232940 0 255 102
5.689390976 103.021715066 0.044363804 11 255 97
5.684149408 102.922791413 0.054096253 22 255 92
5.679262718 102.824022192 0.062852893 29 255 89
5.674568863 102.725337950 0.071079896 36 255 86
5.673746511 102.628304645 0.068647557 36 255 86
5.675284057 102.532274891 0.059718050 25 255 91
5.674487094 102.435250940 0.057218086 22 255 92
5.670253609 102.336767523 0.064182434 29 255 89
5.672873994 102.241194037 0.052274466 18 255 94
5.668757333 102.142762171 0.058919601 25 255 91
5.668920787 102.046145040 0.053779628 18 255 94
5.672235721 101.950860263 0.039962277 4 255 100
5.670369622 101.853381988 0.040413485 7 255 99
5.678019828 101.759923302 0.014659626 0 252 120
5.682860980 101.665272630 -0.003357706 0 249 135
5.683273268 101.568750294 -0.009177596 0 248 141
5.676164367 101.469058850 0.005716185 0 251 126
5.671807513 101.370530017 0.013032517 0 252 120
5.665775566 101.271299322 0.024963288 0 253 111
5.665216181 101.174371119 0.021824226 0 253 114
5.665183853 101.077663649 0.017234816 0 252 117
5.663259567 100.980162013 0.017857011 0 252 117
5.659398530 100.881849597 0.023814299 0 253 111
5.656113329 100.783780235 0.028187013 0 254 108
5.655358095 100.686770423 0.025593282 0 253 111
5.655525485 100.590145759 0.020459720 0 253 114
5.654628524 100.493075815 0.018258639 0 252 117
5.652680653 100.395567405 0.018953086 0 252 117
5.650839524 100.298104063 0.019354772 0 253 114
5.650471415 100.201254407 0.015700700 0 252 120
5.652397460 100.105358268 0.005729192 0 251 126
5.655731287 100.010044736 -0.008118619 0 249 138
5.657506272 99.914080667 -0.017671997 0 247 147
5.654037051 99.815939311 -0.012780329 0 248 144
5.646141216 99.715965421 0.004304850 0 250 129
5.639547862 99.616535859 0.017804072 0 252 117
5.637712422 99.519078372 0.018199784 0 252 117
5.639423682 99.423087030 0.008827795 0 251 126
5.641968198 99.327437528 -0.002838246 0 249 135
5.644094837 99.231612850 -0.013352254 0 248 144
5.645905571 99.135655496 -0.022995083 0 246 153
5.646381622 99.039146372 -0.028960529 0 246 156
5.643334054 98.941186593 -0.025219143 0 246 153
5.636842646 98.841812952 -0.011990427 0 248 144
5.630595166 98.742543507 0.000567814 0 250 132
5.627634450 98.644626172 0.004073931 0 250 129
5.626541925 98.547475841 0.002435250 0 250 129
5.624931903 98.450113573 0.002223247 0 250 129
5.623615046 98.352871575 0.001204897 0 250 132
5.624025755 98.256335738 -0.004571076 0 249 135
5.625521063 98.160241568 -0.013333629 0 248 144
5.627770804 98.064453146 -0.024173331 0 246 153
5.631044013 97.969079259 -0.037831339 0 244 165
5.633983517 97.873566140 -0.050569085 0 242 177
5.632566769 97.776277824 -0.051305480 0 242 177
5.626832334 97.677234940 -0.040146469 0 244 168
5.620853902 97.578096460 -0.028313903 0 246 156
5.617596092 97.480065277 -0.023974730 0 246 153
5.617754417 97.383420174 -0.029045155 0 246 156
5.618788682 97.287128746 -0.036527540 0 244 165
5.616171427 97.189358554 -0.033949350 0 245 162
5.609282752 97.089863227 -0.019602579 0 247 150
5.604898899 96.991383601 -0.012154949 0 248 144
5.604949118 96.894695052 -0.016921611 0 247 147
5.605310568 96.798131022 -0.022544576 0 246 153
5.601191920 96.699762058 -0.015823797 0 247 147
5.592551783 96.599576608 0.003355060 0 250 129
5.586160989 96.500300774 0.016338426 0 252 117
5.581088381 96.401558150 0.025691536 0 253 111
5.575270322 96.302519500 0.037099789 4 255 100
5.578792997 96.207227484 0.022774726 0 253 111
5.576376550 96.109554213 0.024813682 0 253 111
5.574768563 96.012205268 0.024626451 0 253 111
5.574374456 95.915341730 0.021095980 0 253 114
5.575371636 95.819033042 0.013733400 0 252 120
5.576950726 95.722954816 0.004768625 0 250 129
5.572131162 95.624324972 0.013434716 0 252 120
5.572685635 95.527837176 0.007295299 0 251 126
5.579266574 95.433744778 -0.015447592 0 247 147
5.575273439 95.335445300 -0.009054892 0 248 141
5.575085273 95.238658311 -0.013144794 0 248 144
5.577773394 95.143011208 -0.025158706 0 246 153
5.576852723 95.045931487 -0.027228064 0 246 156
5.571528781 94.947108804 -0.017163534 0 247 147
5.566913877 94.848569662 -0.009051320 0 248 141
5.566065899 94.751521239 -0.011317273 0 248 141
5.566292959 94.654896871 -0.016544267 0 247 147
5.564097601 94.557316362 -0.015095227 0 248 144
5.561009095 94.459384846 -0.011183886 0 248 141
5.559603701 94.362117153 -0.011909119 0 248 144
5.559918706 94.265526026 -0.017373785 0 247 147
5.561156598 94.169296276 -0.025380400 0 246 153
5.561615116 94.072758915 -0.031238300 0 245 159
5.559116099 93.975060984 -0.028945288 0 246 156
5.553259851 93.876049320 -0.017399750 0 247 147
5.545398560 93.776256779 -0.000327618 0 250 132
5.540634718 93.677680028 0.008210448 0 251 126
5.540864487 93.581055972 0.002988981 0 250 129
5.540825587 93.484326075 -0.001490983 0 250 132
5.537447181 93.386293854 0.003233000 0 250 129
5.532339058 93.287589879 0.012724956 0 252 120
5.530144777 93.190022317 0.014188352 0 252 120
5.531045342 93.093658189 0.007124185 0 251 126
5.532692192 92.997582238 -0.001995513 0 249 135
5.534287032 92.901484012 -0.010970813 0 248 141
5.536808535 92.805742757 -0.022498806 0 246 153
5.539537928 92.710079203 -0.034598686 0 245 162
5.540498323 92.613728667 -0.041822345 0 244 168
5.539117359 92.516472053 -0.042592286 0 244 168
5.536004572 92.418547267 -0.038588207 0 244 165
5.233486819 72.382950539 -0.121624445 0 232 237
5.238659443 72.287762547 -0.140234513 0 229 255
5.230007738 72.188327046 -0.120684729 0 232 237
5.221804165 72.089034694 -0.102370421 0 235 222
5.216897843 71.990757226 -0.093156085 0 236 213
5.212947886 71.892775119 -0.086580299 0 237 207
5.208687780 71.794700506 -0.079147091 0 238 201
5.205082057 71.696827929 -0.073518914 0 239 195
5.204938644 71.600012005 -0.077446808 0 239 198
5.206916629 71.503840818 -0.087229493 0 237 207
5.209397900 71.407820260 -0.098400397 0 235 219
5.211398835 71.311651245 -0.108244307 0 234 225
5.206636119 71.213429834 -0.099416271 0 235 219
5.194422297 71.112955637 -0.070018150 0 240 192
5.187444436 71.014072988 -0.055072344 0 242 180
5.189554028 70.917938915 -0.065211377 0 240 189
5.195298726 70.822898721 -0.085384260 0 237 207
5.196897421 70.726604584 -0.094110866 0 236 213
5.193312641 70.628749145 -0.088526922 0 237 210
5.189159921 70.530725009 -0.081373831 0 238 204
5.188133209 70.433641227 -0.082849195 0 238 204
5.190164550 70.337473865 -0.092765600 0 236 213
5.192369885 70.241356240 -0.103161282 0 235 222
5.194171010 70.145115319 -0.112440003 0 233 231
5.193994522 70.048281845 -0.116258034 0 233 234
5.189532474 69.950169947 -0.108243643 0 234 225
5.183841798 69.851694797 -0.096835999 0 236 216
5.180316274 69.753867091 -0.091404472 0 237 210
5.177791945 69.656338647 -0.088735750 0 237 210
5.183719145 69.561318344 -0.109398851 0 234 228
5.180756615 69.463659125 -0.105518016 0 234 225
5.180194413 69.366711561 -0.108262862 0 234 225
5.180214079 69.269935572 -0.112613003 0 233 231
5.177792915 69.172438459 -0.110223150 0 234 228
5.172173349 69.073999729 -0.099001566 0 235 219
5.166543831 68.975561555 -0.087751138 0 237 207
5.162679877 68.877645899 -0.081373970 0 238 204
5.158543438 68.779652396 -0.074243187 0 239 198
5.153210270 68.681310358 -0.063806939 0 240 189
5.148887761 68.583267539 -0.056159776 0 242 180
5.147640113 68.486126460 -0.057001083 0 241 183
5.149999116 68.390038928 -0.067799334 0 240 192
5.155253961 68.294793490 -0.086592142 0 237 207
5.161578822 68.199854964 -0.108338399 0 234 225
5.167435785 68.104774710 -0.128791823 0 231 243
5.170774117 68.008957433 -0.142290083 0 229 255
5.167599075 67.911246878 -0.137803011 0 230 252
5.157031934 67.811395842 -0.112903911 0 233 231
5.145176015 67.711179082 -0.084444683 0 238 204
5.141046108 67.613203552 -0.077316908 0 239 198
5.144502007 67.517419962 -0.091133920 0 237 210
5.147709878 67.421561456 -0.104265051 0 235 222
5.146783160 67.324509451 -0.105978493 0 234 225
5.141746306 67.226275700 -0.096341527 0 236 216
5.134470484 67.127402143 -0.080520761 0 238 201
5.127487200 67.028617220 -0.065506350 0 240 189
5.122341613 66.930363066 -0.055565025 0 242 180
5.119979979 66.832908191 -0.053309850 0 242 177
5.123082212 66.737014794 -0.066141252 0 240 189
5.127990798 66.641633450 -0.083959678 0 238 204
5.131251343 66.545778160 -0.097226214 0 236 216
5.133199093 66.449546171 -0.106866533 0 234 225
5.133894148 66.352956054 -0.113046527 0 233 231
5.132037359 66.255640681 -0.112178560 0 234 228
5.127500737 66.157566704 -0.103909049 0 235 222
5.124199535 66.059844936 -0.099049838 0 235 219
5.123277955 65.962797262 -0.100760755 0 235 219
5.123296260 65.866014712 -0.105066028 0 235 222
5.121858123 65.768820952 -0.105348094 0 234 225
5.117171862 65.670713450 -0.096658985 0 236 216
5.109240181 65.571696673 -0.079005972 0 238 201
5.101307975 65.472685003 -0.061350046 0 241 186
5.099387122 65.375363376 -0.060293912 0 241 183
5.102297183 65.279394538 -0.072577941 0 239 195
5.105476214 65.183497877 -0.085603742 0 237 207
5.108129349 65.087451221 -0.097176147 0 236 216
5.111925379 64.991720336 -0.111903860 0 234 228
5.113705220 64.895424542 -0.121062381 0 232 237
5.110550993 64.797755023 -0.116593122 0 233 234
5.102870654 64.698830664 -0.099622481 0 235 219
5.090476430 64.598604577 -0.069631574 0 240 192
5.084838657 64.500257607 -0.058299137 0 241 183
5.077557456 64.401459804 -0.042426446 0 244 168
5.076978934 64.304517237 -0.045064200 0 243 171
5.081028800 64.208850369 -0.060483845 0 241 186
5.087871641 64.113948590 -0.083616398 0 238 204
5.085507475 64.016509468 -0.081319086 0 238 204
5.085858715 63.919816897 -0.086520313 0 237 207
5.087838323 63.823569734 -0.096217879 0 236 216
5.084300990 63.725809773 -0.090676746 0 237 210
5.083829715 63.628890027 -0.093602758 0 236 213
5.085881808 63.532658821 -0.103497170 0 235 222
5.087444892 63.436291941 -0.112039855 0 234 228
5.087603348 63.339540648 -0.116701807 0 233 234
5.079291690 63.240485510 -0.097967620 0 236 216
5.080018107 63.143889847 -0.104195896 0 235 222
5.078987286 63.046816411 -0.105569378 0 234 225
5.082679136 62.951021633 -0.119986269 0 232 237
5.074295154 62.851958354 -0.101047013 0 235 219
5.066035662 62.752934288 -0.082450137 0 238 204
5.058730131 62.654172926 -0.066486806 0 240 189
5.052108314 62.555600420 -0.052410602 0 242 177
5.047876065 62.457674599 -0.044933516 0 243 171
5.047442488 62.360771028 -0.047947980 0 243 174
5.049432731 62.264516790 -0.057656504 0 241 183
5.049522556 62.167751512 -0.062114473 0 241 186
5.046239733 62.070083806 -0.057255041 0 241 183
5.041430864 61.972010458 -0.048178916 0 243 174
5.038342252 61.874398544 -0.043853391 0 243 171
5.039261346 61.777854969 -0.050597318 0 242 177
5.040071807 61.681281040 -0.057040050 0 241 183
5.038937785 61.584189617 -0.058110241 0 241 183
5.038015237 61.487154326 -0.059763421 0 241 183
5.037266714 61.390165016 -0.061896153 0 241 186
5.033298629 61.292324652 -0.055133837 0 242 180
5.026113742 61.193637639 -0.039483907 0 244 165
5.020432645 61.095351588 -0.027986756 0 246 156
5.017043134 60.997672075 -0.022818772 0 246 153
5.014574920 60.900236438 -0.020194623 0 247 150
5.012704718 60.802958803 -0.019221275 0 247 150
5.012119946 60.706018584 -0.021797799 0 247 150
5.012229598 60.609259699 -0.026291561 0 246 156
5.011021050 60.512155604 -0.027142518 0 246 156
5.007158166 60.414359279 -0.020659357 0 247 150
5.002246015 60.316291821 -0.011276153 0 248 141
5.000585608 60.219073057 -0.010875089 0 248 141
5.003010386 60.122915717 -0.021758876 0 247 150
5.005090735 60.026666434 -0.031690049 0 245 159
5.004474820 59.929716615 -0.034171146 0 245 162
5.004037432 59.832812648 -0.037144297 0 244 165
5.005819292 59.736481202 -0.046247516 0 243 171
5.007433679 59.640104447 -0.054886964 0 242 180
5.006263320 59.543008844 -0.055831666 0 242 180
5.003397994 59.445477688 -0.052092312 0 242 177
5.002298687 59.348401197 -0.053230910 0 242 177
5.003244932 59.251848991 -0.060019859 0 241 183
5.001094587 59.154502890 -0.058252249 0 241 183
4.992753564 59.055575857 -0.039379302 0 244 165
4.982483702 58.956162295 -0.015175691 0 248 144
4.984801272 58.859962439 -0.025748636 0 246 156
4.985698316 58.763398703 -0.032395694 0 245 159
4.982312321 58.665745665 -0.027207781 0 246 156
4.981906722 58.568850283 -0.030253363 0 245 159
4.981759378 58.472019832 -0.034011339 0 245 162
4.979429287 58.374636820 -0.031737208 0 245 159
4.982253301 58.278556037 -0.043702800 0 243 171
4.982216305 58.181751115 -0.047762236 0 243 174
4.985202091 58.085706287 -0.060172675 0 241 183
4.988495256 57.989735659 -0.073431385 0 239 195
4.980717735 57.890983667 -0.056099631 0 242 180
4.976726671 57.793185559 -0.049228879 0 243 174
4.975556385 57.696095415 -0.050151044 0 242 177
4.973919371 57.598888801 -0.049782374 0 243 174
4.973714121 57.502039767 -0.053368719 0 242 177
4.975710561 57.405738412 -0.063037613 0 241 186
4.977775974 57.309451912 -0.072896016 0 239 195
4.977415625 57.212560814 -0.076050408 0 239 198
4.974089985 57.114934145 -0.071009801 0 239 195
4.969727431 57.017052589 -0.063102650 0 241 186
4.965924851 56.919311972 -0.056741563 0 242 180
4.962071263 56.821560892 -0.050238238 0 242 177
4.956261897 56.723330136 -0.038329168 0 244 165
4.949232184 56.624802845 -0.023046491 0 246 153
4.943774574 56.526666255 -0.012106698 0 248 144
4.942157269 56.429474789 -0.011777799 0 248 141
4.944536228 56.333262243 -0.022490990 0 246 153
4.948138782 56.237346233 -0.036584421 0 244 165
4.949318353 56.140835300 -0.043981074 0 243 171
4.945508481 56.043106768 -0.037588515 0 244 165
4.939511882 55.944848295 -0.025151703 0 246 153
4.936067892 55.847213745 -0.019767644 0 247 150
4.936235149 55.750456981 -0.024362042 0 246 153
4.938122394 55.654115857 -0.033708537 0 245 162
4.940348977 55.557854571 -0.043991731 0 243 171
4.941695438 55.461378343 -0.051841580 0 242 177
4.939223298 55.363979911 -0.049137313 0 243 174
4.931434575 55.265303151 -0.031738886 0 245 159
4.922137278 55.166269090 -0.010169882 0 248 141
4.916770747 55.068184292 0.000537384 0 250 132
4.915709878 54.971134053 -0.000653400 0 250 132
4.916329860 54.874485787 -0.006488334 0 249 138
4.916769044 54.777793112 -0.011822471 0 248 141
4.919844884 54.681727816 -0.024442445 0 246 153
4.923520921 54.585802240 -0.038720160 0 244 165
4.921451362 54.488507927 -0.037117475 0 244 165
4.914341534 54.390018765 -0.021583433 0 247 150
4.907139811 54.291512487 -0.005794000 0 249 138
4.904526689 54.194095941 -0.002685160 0 249 135
4.904849124 54.097373635 -0.007688449 0 249 138
4.904849821 54.000574481 -0.011801367 0 248 141
4.903707248 53.903505527 -0.012753301 0 248 144
4.899875355 53.805804861 -0.006271091 0 249 138
4.892913405 53.707372185 0.008863565 0 251 126
4.886876784 53.609160730 0.021442095 0 253 114
4.885352466 53.512008040 0.021550272 0 253 114
4.887144522 53.415629814 0.012493338 0 252 120
4.886597307 53.318704337 0.009903169 0 251 123
4.886718302 53.221933963 0.005467241 0 251 126
4.877430951 53.122977495 0.027037207 0 254 108
4.876604130 53.025989201 0.025223519 0 253 111
4.881984951 52.930437854 0.006252802 0 251 126
4.885991130 52.834563924 -0.008917353 0 248 141
4.884648933 52.737452085 -0.009303173 0 248 141
4.874498319 52.638311402 0.014659531 0 252 120
4.856171435 52.537297325 0.061223972 29 255 89
4.844874606 52.437910528 0.088358219 55 255 78
4.840887926 52.340207177 0.095287602 62 255 75
4.537809856 32.436737065 0.119808735 91 255 62
4.544302226 32.340885013 0.097991040 66 255 73
4.550310089 32.244954459 0.077515271 44 255 83
4.552080252 32.148383611 0.068769186 36 255 86
4.550928950 32.051374038 0.068110001 36 255 86
4.548675388 31.954200272 0.070502769 36 255 86
4.546728728 31.857073097 0.072047327 40 255 84
4.545837260 31.760103136 0.070672570 36 255 86
4.545732751 31.663249502 0.067120853 33 255 88
4.543705724 31.566111539 0.068891440 36 255 86
4.538452775 31.468499645 0.079592016 47 255 81
4.532619428 31.370805816 0.091900362 58 255 76
4.530109084 31.273602145 0.095012457 62 255 75
4.530630758 31.176842338 0.089733549 58 255 76
4.529800324 31.079884465 0.088198251 55 255 78
4.524498340 30.982276986 0.099040949 69 255 72
4.514911329 30.884052046 0.121745583 91 255 62
4.503959313 30.785636450 0.148229952 120 255 49
4.500133069 30.688255289 0.154992001 127 255 46
4.508437137 30.592619642 0.128178952 98 255 59
4.520506760 30.497516627 0.090943826 58 255 76
4.528072686 30.401759801 0.066175733 33 255 88
4.528040797 30.304913196 0.062439396 29 255 89
4.523169596 30.207377751 0.072099558 40 255 84
4.517338598 30.109709160 0.084417787 51 255 80
4.511544212 30.012049440 0.096636016 66 255 73
4.504899824 29.914273498 0.111208455 80 255 67
4.496965224 29.816320388 0.129353698 98 255 59
4.489896472 29.718494041 0.145103586 116 255 51
4.496107288 29.622530111 0.124095273 95 255 60
4.491152787 29.525002940 0.133995138 106 255 56
4.494383199 29.428617586 0.121239148 91 255 62
4.497021945 29.332146907 0.110122047 80 255 67
4.496759077 29.235271955 0.107038235 76 255 68
4.492917902 29.137902682 0.113861076 84 255 65
4.495488393 29.041417858 0.102936270 73 255 70
4.494101785 28.944387304 0.102966723 73 255 70
4.494433614 28.847592199 0.098241300 66 255 73
4.487773805 28.749842012 0.112871752 84 255 65
4.492777981 28.653683341 0.095214330 62 255 75
4.487998303 28.556192474 0.104642546 73 255 70
4.481843155 28.458518381 0.117879806 87 255 64
4.481219285 28.361594562 0.115805986 84 255 65
4.485627749 28.265347545 0.099802082 69 255 72
4.490999176 28.169225592 0.081133371 47 255 81
4.484626394 28.071527596 0.094978048 62 255 75
4.490485359 27.975465432 0.074961789 44 255 83
4.482746127 27.877589215 0.092591861 62 255 75
4.476410621 27.779904336 0.106337226 76 255 68
4.476608867 27.683087653 0.101995627 69 255 72
4.481375696 27.586872525 0.085007245 55 255 78
4.485468274 27.490564332 0.069886521 36 255 86
4.483970261 27.393519280 0.070244293 36 255 86
4.479461674 27.296081052 0.078938041 47 255 81
4.474970588 27.198647789 0.087584629 55 255 78
4.472943961 27.101537479 0.089409569 58 255 76
4.473361907 27.004744721 0.084467800 51 255 80
4.471843479 26.907700708 0.084888145 51 255 80
4.467328735 26.810271124 0.093605231 62 255 75
4.463543257 26.712937890 0.100304568 69 255 72
4.462250656 26.615925999 0.100103357 69 255 72
4.462468754 26.519107202 0.095720773 66 255 73
4.462177981 26.422222703 0.092748214 62 255 75
4.460662046 26.325182186 0.093168870 62 255 75
4.458177309 26.228019492 0.096273023 66 255 73
4.454931837 26.130761976 0.101484640 69 255 72
4.451183922 26.033442993 0.108088630 76 255 68
4.447186291 25.936094804 0.115385280 84 255 65
4.443195722 25.838749791 0.122663653 91 255 62
4.440911292 25.741619668 0.125219419 95 255 60
4.441964615 25.644905169 0.118534930 87 255 64
4.444139845 25.548328045 0.108745237 76 255 68
4.445290625 25.451622012 0.101793129 69 255 72
4.444737223 25.354704586 0.099560702 69 255 72
4.440636636 25.257351585 0.107150997 76 255 68
4.432905246 25.159556850 0.124795716 95 255 60
4.427239253 25.062019105 0.136723028 106 255 56
4.428204010 24.965290908 0.130291908 102 255 57
4.435515170 24.869330198 0.106289390 76 255 68
4.442445684 24.773317158 0.083341792 51 255 80
4.445742234 24.676860510 0.070457305 36 255 86
4.447571250 24.580224440 0.061637381 29 255 89
4.449117234 24.483552347 0.053602253 18 255 94
4.447465977 24.386497013 0.054421275 22 255 92
4.442688151 24.289070507 0.063898907 29 255 89
4.437473248 24.191595099 0.074588102 40 255 84
4.434466216 24.094383689 0.079164988 47 255 81
4.433543410 23.997419188 0.077971838 44 255 83
4.432628700 23.900455578 0.076757444 44 255 83
4.430744392 23.803378497 0.078229103 47 255 81
4.426567319 23.706034799 0.086050808 55 255 78
4.420735780 23.608501284 0.098455164 66 255 73
4.417794216 23.511306173 0.102858199 73 255 70
4.421686874 23.414901452 0.088337675 55 255 78
4.430437315 23.319051889 0.060366338 25 255 91
4.437513362 23.223002867 0.037032557 4 255 100
4.436058233 23.125972666 0.037323926 4 255 100
4.428750266 23.028276147 0.053824036 18 255 94
4.422148149 22.930664582 0.068370894 36 255 86
4.419313714 22.833483579 0.072485604 40 255 84
4.418308088 22.736510192 0.071537164 40 255 84
4.415430405 22.639326437 0.075774080 44 255 83
4.410177505 22.541878111 0.086589828 55 255 78
4.404094775 22.444340419 0.099704916 69 255 72
4.398471250 22.346857692 0.111549670 80 255 67
4.396067979 22.249735454 0.114477880 84 255 65
4.397012826 22.152984137 0.108135296 76 255 68
4.398108043 22.056247886 0.101377408 69 255 72
4.396882040 21.959255398 0.101048911 69 255 72
4.391369061 21.861794445 0.112593812 80 255 67
4.389998933 21.764788243 0.112666893 80 255 67
4.394516098 21.668421402 0.096436914 66 255 73
4.399985957 21.572153394 0.077569562 44 255 83
4.403637957 21.475684497 0.063737626 29 255 89
4.404761689 21.378940494 0.056908616 22 255 92
4.404273454 21.282022352 0.054544990 22 255 92
4.402469893 21.184963553 0.055825277 22 255 92
4.397734317 21.087593822 0.065226934 33 255 88
4.397771238 20.990732235 0.061412468 29 255 89
4.388322815 20.892869223 0.083868937 51 255 80
4.380702147 20.795204789 0.101264837 69 255 72
4.375267697 20.697774376 0.112607290 80 255 67
4.373416630 20.600721265 0.114026655 84 255 65
4.377393885 20.504274734 0.099305233 69 255 72
4.384972819 20.408197460 0.074609677 40 255 84
4.391033683 20.311956962 0.054119522 22 255 92
4.390967863 20.215081145 0.050598907 18 255 94
4.382632868 20.117357579 0.069982019 36 255 86
4.370323519 20.019234038 0.100374122 69 255 72
4.362374509 19.921562455 0.118691082 87 255 64
4.359722794 19.824432727 0.122337606 91 255 62
4.357282601 19.727325607 0.125399507 95 255 60
4.354033919 19.630138318 0.130701915 102 255 57
4.352551620 19.533129633 0.131113166 102 255 57
4.354895116 19.436502962 0.120929140 91 255 62
4.360088582 19.340156945 0.102852471 73 255 70
4.366894281 19.243965786 0.080311300 47 255 81
4.372176543 19.147618432 0.061990684 29 255 89
4.370663087 19.050598757 0.062493828 29 255 89
4.362889563 18.952966969 0.080337380 47 255 81
4.357750647 18.855597134 0.090884911 58 255 76
4.356846898 18.758641608 0.089702992 58 255 76
4.356070073 18.661698281 0.088170691 55 255 78
4.352104424 18.564447657 0.095472203 66 255 73
4.346190081 18.467012361 0.108172655 76 255 68
4.342400715 18.369783863 0.114988451 84 255 65
4.342397454 18.272917806 0.111318299 80 255 67
4.345087319 18.176306251 0.100189516 69 255 72
4.347224927 18.079639739 0.090591529 58 255 76
4.343063230 17.982378575 0.098443476 66 255 73
4.336636635 17.884907755 0.112570420 80 255 67
4.333816866 17.787777434 0.116707818 87 255 64
4.334240841 17.690949755 0.111861249 80 255 67
4.335432489 17.594191986 0.104889347 73 255 70
4.335342349 17.497314480 0.101469162 69 255 72
4.334760622 17.400391187 0.099411852 69 255 72
4.335319633 17.303571770 0.094195789 62 255 75
4.336770357 17.206832267 0.086510747 55 255 78
4.335573031 17.109851041 0.086162165 55 255 78
4.329680859 17.012446522 0.098820007 66 255 73
4.323552047 16.915024494 0.112134703 80 255 67
4.321313313 16.817954270 0.114674666 84 255 65
4.324081242 16.721330813 0.103346607 73 255 70
4.326396006 16.624664293 0.093274965 62 255 75
4.323331625 16.527520365 0.098105630 66 255 73
4.316529720 16.430049496 0.113291223 84 255 65
4.309635734 16.332575006 0.128733259 98 255 59
4.307356851 16.235507151 0.131391750 102 255 57
4.311174743 16.138969169 0.117161894 87 255 64
4.316530962 16.042560359 0.098671524 66 255 73
4.319648011 15.945954151 0.086385269 55 255 78
4.321373869 15.849225702 0.077954075 44 255 83
4.323195242 15.752503306 0.069259380 36 255 86
4.323723678 15.655669062 0.064147621 29 255 89
4.323910783 15.558804819 0.059982600 25 255 91
4.324654721 15.461986481 0.054276105 22 255 92
4.325260251 15.365155224 0.048954185 15 255 96
4.322695377 15.268058623 0.052416579 18 255 94
4.316162398 15.170634167 0.066873374 33 255 88
4.309687648 15.073218750 0.081170202 47 255 81
4.306552033 14.976081860 0.086217582 55 255 78
4.307014197 14.879240814 0.081298812 47 255 81
4.310838418 14.782672297 0.067066792 33 255 88
4.314855817 14.686115736 0.052300632 18 255 94
4.316715037 14.589381323 0.043514684 11 255 97
4.313269472 14.492219037 0.049426649 15 255 96
4.303567508 14.394558968 0.072673216 40 255 84
4.294964566 14.296992906 0.092876379 62 255 75
4.294992755 14.200115362 0.089168125 58 255 76
4.300568358 14.103673694 0.070091667 36 255 86
4.304996183 14.007137083 0.054196198 22 255 92
4.305693578 13.910305531 0.048637178 15 255 96
4.301426195 13.813087576 0.056834626 22 255 92
4.294989126 13.715704654 0.071044686 36 255 86
4.291411856 13.618545528 0.077332681 44 255 83
4.298485516 13.522202305 0.054112154 22 255 92
4.299980666 13.425428732 0.046348641 11 255 97
4.297619567 13.328361509 0.049270575 15 255 96
4.302811642 13.231863858 0.031266382 0 254 105
4.301844382 13.134900206 0.030328758 0 254 105
4.297005785 13.037648090 0.040118618 7 255 99
4.294498244 12.940571695 0.043451083 7 255 99
4.295300073 12.843740484 0.037615416 4 255 100
4.297588747 12.747016963 0.027661214 0 254 108
4.303049591 12.650522410 0.008918811 0 251 123
4.318096455 12.554718775 -0.036383160 0 244 165
4.338104298 12.459261080 -0.095430045 0 236 216
4.046155894 -7.712635495 -0.011508041 0 248 141
4.044995961 -7.809586280 -0.011656023 0 248 141
4.051522418 -7.906600169 -0.033121506 0 245 162
4.055361392 -8.003596707 -0.047132048 0 243 174
4.055888076 -8.100567187 -0.051954611 0 242 177
4.054440974 -8.197520347 -0.051301549 0 242 177
4.053674358 -8.294479816 -0.052534699 0 242 177
4.053135329 -8.391441785 -0.054397912 0 242 180
4.051021685 -8.488387547 -0.051892557 0 242 177
4.048142033 -8.585324113 -0.047261359 0 243 174
4.046532934 -8.682273596 -0.046153013 0 243 171
4.045059624 -8.779224209 -0.045420110 0 243 171
4.040739471 -8.876140146 -0.036789774 0 244 165
4.032895907 -8.973009716 -0.018385302 0 247 147
4.026130048 -9.069887872 -0.002968715 0 249 135
4.024864751 -9.166834269 -0.002807837 0 249 135
4.025623333 -9.263807982 -0.008259483 0 249 138
4.025062949 -9.360764624 -0.010051511 0 248 141
4.025847187 -9.457740922 -0.015572027 0 247 147
4.029665588 -9.554763327 -0.029507477 0 245 159
4.033267091 -9.651786159 -0.042840228 0 244 168
4.033163307 -9.748755072 -0.045894215 0 243 171
4.028164146 -9.845646891 -0.035368225 0 245 162
4.021315464 -9.942505557 -0.019710721 0 247 150
4.016769502 -10.039398109 -0.010439242 0 248 141
4.014733974 -10.136330737 -0.008130052 0 249 138
4.014385954 -10.233291988 -0.010500560 0 248 141
4.013931659 -10.330251860 -0.012575112 0 248 144
4.015021168 -10.427240248 -0.018930825 0 247 150
4.018414976 -10.524273052 -0.031677280 0 245 159
4.018750219 -10.621251254 -0.035938499 0 245 162
4.015024938 -10.718151957 -0.028935028 0 246 156
4.010438143 -10.815033589 -0.019540533 0 247 150
4.005209473 -10.911899577 -0.008364245 0 249 138
4.008041889 -11.008927523 -0.019547742 0 247 150
4.006496973 -11.105867043 -0.018587591 0 247 147
4.011294161 -11.202940983 -0.035219083 0 245 162
4.011613917 -11.299922481 -0.039429196 0 244 165
4.014838998 -11.396968996 -0.051697523 0 242 177
4.010051386 -11.493839209 -0.041737496 0 244 168
4.007389625 -11.590754985 -0.037673351 0 244 165
3.998966457 -11.687535975 -0.017625644 0 247 147
3.996957661 -11.784462403 -0.015370343 0 247 147
4.000638864 -11.881524305 -0.028898231 0 246 156
4.004286177 -11.978588986 -0.042331032 0 244 168
4.002506649 -12.075523151 -0.040708268 0 244 168
3.998981582 -12.172412931 -0.034242020 0 245 162
3.998547096 -12.269379526 -0.036348126 0 244 165
4.000243112 -12.366401662 -0.044363329 0 243 171
4.001411830 -12.463412042 -0.050914621 0 242 177
4.000682910 -12.560373572 -0.052200471 0 242 177
3.997393061 -12.657266153 -0.046380751 0 243 171
3.993441075 -12.754138854 -0.038722915 0 244 165
3.993447207 -12.851119249 -0.042044347 0 244 168
3.998837575 -12.948252053 -0.060301489 0 241 183
4.005994574 -13.045440199 -0.083458569 0 238 204
4.011924443 -13.142599117 -0.103210333 0 235 222
4.014789639 -13.239673536 -0.114459004 0 233 231
4.013723857 -13.336634206 -0.114801168 0 233 231
4.009272442 -13.433493009 -0.105749599 0 234 225
4.004821330 -13.530349188 -0.096697604 0 236 216
4.003005726 -13.627284026 -0.094955942 0 236 216
4.001586674 -13.724230637 -0.094313225 0 236 213
3.997929327 -13.821106185 -0.087459646 0 237 207
3.992515076 -13.917923498 -0.075730643 0 239 198
3.987116433 -14.014737945 -0.064043654 0 240 189
3.982926943 -14.111588647 -0.055709963 0 242 180
3.982477723 -14.208560891 -0.057751788 0 241 183
3.986995329 -14.305700106 -0.073572155 0 239 195
3.989228763 -14.402766106 -0.083054351 0 238 204
3.986267777 -14.499656452 -0.078124198 0 238 201
3.981893559 -14.596496299 -0.069271973 0 240 192
3.981690285 -14.693479819 -0.071990331 0 239 195
3.986233903 -14.790632226 -0.087877332 0 237 207
3.986935298 -14.887651234 -0.093103354 0 236 213
3.982161103 -14.984473270 -0.083136604 0 238 204
3.977715360 -15.081304447 -0.074079856 0 239 195
3.976785034 -15.178262999 -0.074775206 0 239 198
3.978518426 -15.275321147 -0.082859766 0 238 204
3.979961258 -15.372370439 -0.090137055 0 237 210
3.979433978 -15.469346497 -0.091947175 0 236 213
3.975269403 -15.566182844 -0.083664462 0 238 204
3.970248979 -15.662983487 -0.073005930 0 239 195
3.966855666 -15.759844979 -0.066860580 0 240 189
3.964962377 -15.856764148 -0.064875862 0 240 189
3.964663080 -15.953746486 -0.067312550 0 240 192
3.966539740 -16.050817355 -0.075785388 0 239 198
3.969324680 -16.147927520 -0.086777198 0 237 207
3.970746914 -16.244984460 -0.093986974 0 236 213
3.969803148 -16.341944889 -0.094630950 0 236 213
3.967068039 -16.438830200 -0.090303489 0 237 210
3.964562388 -16.535723913 -0.086611464 0 237 207
3.962778745 -16.632647341 -0.084921524 0 237 207
3.961032651 -16.729571802 -0.083334575 0 238 204
3.959975239 -16.826525666 -0.083657277 0 238 204
3.962450912 -16.923634548 -0.093781901 0 236 213
3.968287329 -17.020894886 -0.113230370 0 233 231
3.970579920 -17.118002247 -0.122844829 0 232 240
3.967517906 -17.214871005 -0.117600821 0 233 234
3.962671374 -17.311657147 -0.107404080 0 234 225
3.959153525 -17.408501211 -0.100892783 0 235 219
3.957573751 -17.505432870 -0.099757875 0 235 219
3.957373978 -17.602428367 -0.102450914 0 235 222
3.958341454 -17.699479299 -0.108381613 0 234 225
3.958844773 -17.796509786 -0.113023251 0 233 231
3.955750086 -17.893369745 -0.107680110 0 234 225
3.951584422 -17.990176595 -0.099364010 0 235 219
3.949545494 -18.087084152 -0.096947913 0 236 216
3.946830154 -18.183957872 -0.092653700 0 236 213
3.941942043 -18.280723273 -0.082329226 0 238 204
3.936789508 -18.377472582 -0.071269747 0 239 195
3.933385715 -18.474306197 -0.065061476 0 240 189
3.931539263 -18.571216482 -0.063173365 0 241 186
3.931459552 -18.668215865 -0.066186522 0 240 189
3.933907112 -18.765345298 -0.076211385 0 239 198
3.935481869 -18.862432394 -0.083813215 0 238 204
3.933854907 -18.959355185 -0.082529483 0 238 204
3.931247107 -19.056226191 -0.078522822 0 238 201
3.930189978 -19.153177712 -0.078817929 0 238 201
3.928958222 -19.250119934 -0.078627282 0 238 201
3.924824628 -19.346906821 -0.070383017 0 240 192
3.920514039 -19.443681788 -0.061646345 0 241 186
3.919348540 -19.540624826 -0.061635938 0 241 186
3.921499492 -19.637748916 -0.070827425 0 239 195
3.925045487 -19.734952180 -0.083889027 0 238 204
3.927336304 -19.832089422 -0.093466431 0 236 213
3.924769298 -19.928958255 -0.089562229 0 237 210
3.918506103 -20.025618325 -0.075399813 0 239 198
3.914915084 -20.122425467 -0.068651470 0 240 192
3.917340040 -20.219573111 -0.078596482 0 238 201
3.923310161 -20.316926575 -0.098378408 0 235 219
3.925666056 -20.414076884 -0.108129595 0 234 225
3.920760375 -20.510808047 -0.097728269 0 236 216
3.917321456 -20.607621980 -0.091396065 0 237 210
3.908567277 -20.704121279 -0.070312255 0 240 192
3.907820491 -20.801088917 -0.071448485 0 239 195
3.913471313 -20.898438144 -0.090337673 0 237 210
3.918709580 -20.995767740 -0.108080922 0 234 225
3.917225496 -21.092696244 -0.107167664 0 234 225
3.910508288 -21.189306410 -0.091730503 0 236 213
3.904319418 -21.285944513 -0.077758254 0 238 201
3.901436235 -21.382782054 -0.072958570 0 239 195
3.902990306 -21.479892898 -0.080471874 0 238 201
3.909626519 -21.577322329 -0.102087995 0 235 222
3.914963170 -21.674676178 -0.120096533 0 232 237
3.911652883 -21.771489581 -0.114106912 0 233 231
3.904370114 -21.868049177 -0.097091519 0 236 216
3.899235821 -21.964741112 -0.086037336 0 237 207
3.898605538 -22.061719127 -0.087481643 0 237 207
3.898606978 -22.158738252 -0.090677974 0 237 210
3.897460034 -22.255683536 -0.090686071 0 237 210
3.897094997 -22.352679837 -0.092862999 0 236 213
3.897775344 -22.449745378 -0.097940009 0 236 216
3.899346965 -22.546871171 -0.105489432 0 234 225
3.899295705 -22.643891003 -0.108533726 0 234 225
3.892700316 -22.740473759 -0.093414767 0 236 213
3.883881570 -22.836902637 -0.072123927 0 239 195
3.879697226 -22.933639144 -0.063693820 0 241 186
3.879659027 -23.030655386 -0.066769522 0 240 189
3.877416784 -23.127521545 -0.063727022 0 241 186
3.871443037 -23.224129960 -0.050326952 0 242 177
3.866709293 -23.320820390 -0.040367088 0 244 168
3.867439464 -23.417888201 -0.045570565 0 243 171
3.871266759 -23.515174072 -0.059368714 0 241 183
3.871010849 -23.612176386 -0.061833141 0 241 186
3.865096939 -23.708779040 -0.048592965 0 243 174
3.857805376 -23.805279957 -0.031527883 0 245 159
3.854586215 -23.902067271 -0.025764289 0 246 156
3.855694361 -23.999163996 -0.032009802 0 245 159
3.859063281 -24.096425756 -0.044528926 0 243 171
3.862692757 -24.193709817 -0.057770127 0 241 183
3.864414480 -24.290858103 -0.065715269 0 240 189
3.863674313 -24.387827728 -0.066826279 0 240 189
3.861630979 -24.484701383 -0.064319142 0 240 189
3.858538012 -24.581496379 -0.058897511 0 241 183
3.853553931 -24.678148751 -0.048225776 0 243 174
3.846620732 -24.774651975 -0.032142876 0 245 159
3.839793954 -24.871158681 -0.016354040 0 247 147
3.839219127 -24.968134387 -0.017916713 0 247 147
3.844795167 -25.065578598 -0.036550522 0 244 165
3.850118987 -25.163008581 -0.054483214 0 242 180
3.852574365 -25.260222909 -0.064453175 0 240 189
3.852129065 -25.357215788 -0.066370843 0 240 189
3.850474180 -25.454115190 -0.064929984 0 240 189
3.848992418 -25.551027617 -0.063968457 0 240 189
3.848249838 -25.647997655 -0.065057455 0 240 189
3.847760800 -25.744987888 -0.066849028 0 240 189
3.847111754 -25.841965861 -0.068195302 0 240 192
3.846643489 -25.938958507 -0.070042195 0 240 192
3.845384401 -26.035888352 -0.069692839 0 240 192
3.843364850 -26.132756925 -0.067231476 0 240 189
3.840495523 -26.229556142 -0.062410175 0 241 186
3.837907856 -26.326376785 -0.058369468 0 241 183
3.836969196 -26.423330599 -0.058904758 0 241 183
3.836488345 -26.520321959 -0.060709636 0 241 186
3.832845350 -26.617053638 -0.053735993 0 242 180
3.824537164 -26.713397787 -0.033811607 0 245 162
3.815055791 -26.809638945 -0.010629358 0 248 141
3.817139451 -26.906838194 -0.019547917 0 247 150
3.818587335 -27.003986557 -0.026700567 0 246 156
3.816303538 -27.100822712 -0.023493631 0 246 153
3.820282627 -27.198187468 -0.037670167 0 244 165
3.816054029 -27.294858901 -0.029062441 0 246 156
3.800320750 -27.390546245 0.011481798 0 251 123
3.782454196 -27.486039457 0.057949283 25 255 91
3.774446082 -27.582368472 0.077052525 44 255 83
3.586701113 -47.650392983 -0.023594549 0 246 153
3.589032508 -47.747886670 -0.032954069 0 245 162
3.585842146 -47.844464313 -0.026973891 0 246 156
3.583029570 -47.941103281 -0.022041932 0 247 150
3.583548467 -48.038297668 -0.026363132 0 246 156
3.586372242 -48.135879341 -0.037085820 0 244 165
3.589796840 -48.233564845 -0.049476402 0 243 174
3.593024771 -48.331220669 -0.061319555 0 241 186
3.596038214 -48.428843578 -0.072565772 0 239 195
3.598474531 -48.526372020 -0.082207676 0 238 204
3.598363141 -48.623471440 -0.084771173 0 237 207
3.593778281 -48.719811863 -0.074906597 0 239 198
3.587197094 -48.815809756 -0.059495138 0 241 183
3.582142625 -48.912063817 -0.048323514 0 243 174
3.579172308 -49.008671113 -0.042940294 0 244 168
3.576856141 -49.105389003 -0.039373058 0 244 165
3.573581051 -49.201941206 -0.033140771 0 245 162
3.569208865 -49.298302832 -0.023859567 0 246 153
3.564620445 -49.394624577 -0.013976433 0 248 144
3.561691865 -49.491230558 -0.008703071 0 248 141
3.561495176 -49.588308455 -0.011017680 0 248 141
3.562652242 -49.685622084 -0.017091862 0 247 147
3.563083756 -49.782811101 -0.021149306 0 247 150
3.563692891 -49.880032215 -0.025699031 0 246 153
3.565726477 -49.977503600 -0.034204765 0 245 162
3.566518285 -50.074759766 -0.039259664 0 244 165
3.564461935 -50.171517222 -0.036401114 0 244 165
3.561143767 -50.268051835 -0.030035972 0 245 159
3.558979224 -50.364788128 -0.026874449 0 246 156
3.559625907 -50.462020394 -0.031521509 0 245 159
3.561670891 -50.559501613 -0.040052000 0 244 168
3.562720388 -50.656808477 -0.045815816 0 243 171
3.561975023 -50.753797635 -0.046592195 0 243 174
3.561417867 -50.850820554 -0.047890265 0 243 174
3.562858286 -50.948200717 -0.054736638 0 242 180
3.563270956 -51.045398753 -0.058726666 0 241 183
3.561265697 -51.142164037 -0.055998237 0 242 180
3.558282846 -51.238752774 -0.050552734 0 242 177
3.555876358 -51.335443860 -0.046707237 0 243 174
3.551637379 -51.431802958 -0.037769604 0 244 165
3.546962386 -51.528080673 -0.027619421 0 246 156
3.545531119 -51.624943833 -0.026479611 0 246 156
3.546960148 -51.722326494 -0.033285012 0 245 162
3.548163171 -51.819669874 -0.039461389 0 244 165
3.548961620 -51.916941122 -0.044512639 0 243 171
3.550861257 -52.014415160 -0.052622052 0 242 177
3.553924218 -52.112104646 -0.063962282 0 240 189
3.555854736 -52.209589284 -0.072155231 0 239 195
3.554622333 -52.306494072 -0.071559762 0 239 195
3.551191089 -52.402993166 -0.064854234 0 240 189
3.548475465 -52.499622657 -0.060135644 0 241 183
3.547467475 -52.596567087 -0.060160074 0 241 183
3.548487950 -52.693887966 -0.065818908 0 240 189
3.550026291 -52.791306715 -0.072915361 0 239 195
3.548706638 -52.888194839 -0.072070406 0 239 195
3.543916763 -52.984434721 -0.061583039 0 241 186
3.539903385 -53.080816997 -0.053251757 0 242 177
3.540028522 -53.177972949 -0.056417249 0 242 180
3.541259536 -53.275337556 -0.062654040 0 241 186
3.541971407 -53.372606149 -0.067447345 0 240 192
3.540545823 -53.469472825 -0.066300980 0 240 189
3.536043096 -53.565757480 -0.056604128 0 242 180
3.531549910 -53.662041259 -0.046932548 0 243 174
3.532750857 -53.759403161 -0.053079971 0 242 177
3.540897997 -53.858087886 -0.078525176 0 238 201
3.548448781 -53.956666000 -0.102312432 0 235 222
3.551768285 -54.054442682 -0.114342623 0 233 231
3.551068734 -54.151453663 -0.115205298 0 233 231
3.548002476 -54.248011114 -0.109491211 0 234 228
3.543241342 -54.344241374 -0.099066896 0 235 219
3.535780507 -54.439949059 -0.081140512 0 238 204
3.528889447 -54.535761686 -0.064795902 0 240 189
3.527981737 -54.632726188 -0.065074207 0 240 189
3.533837104 -54.731000461 -0.084141976 0 238 204
3.541889510 -54.829706322 -0.109312955 0 234 228
3.548244638 -54.928089163 -0.129767111 0 231 246
3.550435839 -55.025666509 -0.138650999 0 230 252
3.546050857 -55.121962707 -0.129262231 0 231 243
3.536505401 -55.217247050 -0.105534105 0 234 225
3.528007750 -55.312730158 -0.084715930 0 237 207
3.525344319 -55.409353024 -0.080106650 0 238 201
3.527517155 -55.506926053 -0.088933622 0 237 210
3.528430078 -55.604253183 -0.094258814 0 236 213
3.526260556 -55.700973018 -0.091018310 0 237 210
3.529982857 -55.798857847 -0.104147032 0 235 222
3.525571750 -55.895133733 -0.094675923 0 236 213
3.523674827 -55.991906449 -0.092189275 0 236 213
3.525743637 -56.089467804 -0.100720315 0 235 219
3.530341469 -56.187535863 -0.116277173 0 233 234
3.530928305 -56.284806820 -0.120688244 0 232 237
3.525413851 -56.380857596 -0.108145464 0 234 225
3.517152739 -56.476354002 -0.087969694 0 237 207
3.511357656 -56.572340398 -0.074644635 0 239 198
3.509951850 -56.669206862 -0.073514238 0 239 195
3.510505849 -56.766468365 -0.077828122 0 238 201
3.511954646 -56.863911919 -0.084627125 0 237 207
3.513803991 -56.961438471 -0.092537944 0 236 213
3.515806306 -57.058998256 -0.100872665 0 235 219
3.517726497 -57.156543663 -0.108978061 0 234 228
3.513661154 -57.252872375 -0.100450842 0 235 219
3.509684514 -57.349216834 -0.092168867 0 236 213
3.511702245 -57.446784367 -0.100541800 0 235 219
3.516100708 -57.544841807 -0.115528781 0 233 231
3.518885652 -57.642572330 -0.126031265 0 232 240
3.514750006 -57.738883096 -0.117302743 0 233 234
3.508019849 -57.834657102 -0.101363732 0 235 219
3.506095222 -57.931418282 -0.098776413 0 235 219
3.511771645 -58.029750081 -0.117308727 0 233 234
3.518356988 -58.128275265 -0.138365545 0 230 252
3.519158101 -58.225606096 -0.143348742 0 229 255
3.513526161 -58.321601028 -0.130455318 0 231 246
3.505372806 -58.417067285 -0.110554378 0 234 228
3.499533696 -58.513010907 -0.097082756 0 236 216
3.497411779 -58.609727824 -0.093938909 0 236 213
3.497431756 -58.706892431 -0.096745606 0 236 216
3.497484576 -58.804064717 -0.099642402 0 235 219
3.495876937 -58.900888814 -0.097924047 0 236 216
3.492765109 -58.997395710 -0.092024743 0 236 213
3.488985709 -59.093760161 -0.084269206 0 238 204
3.486281180 -59.190349639 -0.079499260 0 238 201
3.485801985 -59.287408967 -0.080911807 0 238 201
3.484689981 -59.384334475 -0.080564747 0 238 201
3.481204392 -59.480755532 -0.073620815 0 239 195
3.479400328 -59.577532639 -0.071348284 0 239 195
3.482786451 -59.675415999 -0.083497064 0 238 204
3.487969833 -59.773686712 -0.100638960 0 235 219
3.492144843 -59.871746361 -0.114977679 0 233 231
3.494343550 -59.969386245 -0.123823499 0 232 240
3.493939879 -60.066469602 -0.125436628 0 232 240
3.491016953 -60.163011318 -0.120047998 0 232 237
3.487238548 -60.259367144 -0.112280919 0 233 231
3.483049181 -60.355632087 -0.103370618 0 235 222
3.478011663 -60.451711093 -0.092102192 0 236 213
3.472641340 -60.547714871 -0.079907706 0 238 201
3.470932949 -60.644510319 -0.077888024 0 238 201
3.474611144 -60.742476761 -0.090835838 0 237 210
3.479223140 -60.840650255 -0.106377459 0 234 225
3.480761594 -60.938157235 -0.113376933 0 233 231
3.474713928 -61.034007503 -0.099294188 0 235 219
3.463549055 -61.128733072 -0.070989921 0 239 195
3.458018907 -61.224687162 -0.058342755 0 241 183
3.457577527 -61.321756273 -0.059835661 0 241 183
3.457800075 -61.418972002 -0.063172409 0 241 186
3.459520490 -61.516519053 -0.070670477 0 240 192
3.463449035 -61.614556089 -0.084303681 0 238 204
3.465773576 -61.712241891 -0.093478317 0 236 213
3.460620767 -61.808272363 -0.081872566 0 238 204
3.452563657 -61.903654579 -0.062194602 0 241 186
3.446080067 -61.999381461 -0.046888122 0 243 174
3.442314277 -62.095709856 -0.039133112 0 244 165
3.441466624 -62.192687626 -0.039486365 0 244 165
3.443041726 -62.290207349 -0.046571283 0 243 174
3.445843790 -62.388003928 -0.057064793 0 241 183
3.447937789 -62.485644532 -0.065589451 0 240 189
3.447315474 -62.582676893 -0.066564282 0 240 189
3.443343209 -62.678955194 -0.058228339 0 241 183
3.438104422 -62.774945523 -0.046371460 0 243 171
3.436468655 -62.871746700 -0.044526289 0 243 171
3.440958290 -62.969933788 -0.059702725 0 241 183
3.446136577 -63.068281228 -0.076791851 0 239 198
3.447948540 -63.165868909 -0.084524659 0 238 204
3.445723953 -63.262540478 -0.081038484 0 238 201
3.438370811 -63.358042436 -0.063298472 0 241 186
3.409445993 -63.448615568 0.014392430 0 252 120
3.374483662 -63.537786759 0.108864074 76 255 68
3.336040606 -63.626134615 0.213011144 186 255 20
3.281573945 -63.710777581 0.361692426 246 227 0
3.251179628 -63.800911215 0.443475302 255 199 0
3.247997600 -63.897286098 0.449632090 255 194 0
3.255278942 -63.996071838 0.426710435 254 210 0
3.259432190 -64.094141497 0.412483430 252 213 0
3.255051678 -64.190240926 0.421974527 254 211 0
3.246184491 -64.285298083 0.443936250 255 199 0
3.234886047 -64.379784869 0.472656269 255 175 0
3.221617772 -64.473805756 0.506852249 255 150 0
3.212195347 -64.568712813 0.530361096 255 131 0
3.211480384 -64.665644514 0.529671075 255 131 0
3.216970441 -64.764026216 0.511736925 255 145 0
3.215112224 -64.860693175 0.514226609 255 142 0
3.215026062 -64.957774870 0.511792470 255 145 0
3.213725440 -65.054572107 0.512734809 255 145 0
3.222639712 -65.153771504 0.485288329 255 166 0
3.238588364 -65.254635609 0.438292440 255 202 0
3.249753260 -65.354383995 0.404592976 252 215 0
3.249053000 -65.451337535 0.403871188 252 215 0
3.243708841 -65.547191982 0.416057321 253 212 0
3.244264816 -65.644442051 0.411846459 252 213 0
3.249157577 -65.742723266 0.395583505 250 218 0
3.252846150 -65.840722560 0.382668470 249 221 0
3.253656317 -65.938039640 0.377754552 248 223 0
3.250464155 -66.034402966 0.383965549 249 221 0
3.240699802 -66.129193640 0.408444047 252 214 0
3.219839779 -66.221321082 0.463762544 255 183 0
3.203480444 -66.314512504 0.506573597 255 150 0
3.202272125 -66.411331160 0.507275884 255 147 0
3.215915061 -66.511722421 0.466702241 255 180 0
3.235120204 -66.613465175 0.410670239 252 213 0
3.244662044 -66.712891328 0.381497151 248 222 0
3.251348132 -66.811635279 0.360262335 246 227 0
3.254813618 -66.909605402 0.347979880 244 230 0
3.249154367 -67.005366271 0.361059709 246 227 0
3.233389786 -67.098669190 0.402227501 251 216 0
3.214393105 -67.191174489 0.452380071 255 191 0
3.207990986 -67.286734563 0.467528573 255 180 0
3.203032712 -67.382642818 0.478665273 255 172 0
3.197858833 -67.478495321 0.490402467 255 161 0
3.192947659 -67.574408915 0.501410723 255 153 0
3.195367220 -67.672116887 0.492044808 255 161 0
3.204220699 -67.771407462 0.464797252 255 183 0
3.211298736 -67.870268928 0.442485542 255 199 0
3.210688074 -67.967242567 0.441545361 255 199 0
3.210944600 -68.064430452 0.438196033 255 202 0
3.212288119 -68.161887900 0.431826595 255 207 0
3.217519972 -68.260309480 0.414650762 253 212 0
3.226547248 -68.359676646 0.386926729 249 220 0
3.234597457 -68.458808945 0.361919516 246 226 0
3.227533769 -68.554190167 0.378922336 248 223 0
3.212371940 -68.647550014 0.418435235 253 211 0
3.218524144 -68.746215036 0.398706941 251 217 0
3.229095035 -68.845989342 0.366697954 247 225 0
3.239509854 -68.945733491 0.335123842 242 234 0
3.238317338 -69.042577954 0.335813612 242 234 0
3.224503806 -69.136254947 0.371585046 247 224 0
3.216449469 -69.231369586 0.391349958 250 219 0
3.220773138 -69.329594637 0.376710906 248 223 0
3.222809093 -69.427247017 0.368431789 247 225 0
3.219434312 -69.523535543 0.375193258 247 223 0
3.209541061 -69.618173845 0.400074456 251 216 0
3.207580241 -69.714814289 0.402908186 251 216 0
3.195844936 -69.808974697 0.432912087 255 207 0
3.191396860 -69.904978032 0.442661816 255 199 0
3.187871308 -70.001213407 0.449848524 255 194 0
3.184892089 -70.097586033 0.455517852 255 188 0
3.186876537 -70.195223789 0.447391317 255 196 0
3.191477106 -70.293532436 0.431994114 255 207 0
3.191341519 -70.390633127 0.429762744 255 209 0
3.183970609 -70.485879755 0.447644053 255 196 0
3.171840811 -70.579899733 0.478754628 255 172 0
3.160000993 -70.673985690 0.509060515 255 147 0
3.153981982 -70.769562125 0.523187900 255 137 0
3.159589295 -70.868132892 0.504999260 255 150 0
3.177170593 -70.969801193 0.453528070 255 191 0
3.195764424 -71.071745659 0.399243444 251 217 0
3.206062360 -71.171556260 0.368019667 247 225 0
3.203936098 -71.268152469 0.371332128 247 224 0
3.196089391 -71.363261604 0.390546776 250 219 0
3.189168834 -71.458606428 0.407188297 252 214 0
3.184530793 -71.554541442 0.417486381 253 211 0
3.182440563 -71.651138513 0.420703536 254 211 0
3.180762971 -71.747842568 0.422774869 254 211 0
3.179195842 -71.844574997 0.424540335 254 210 0
3.179237170 -71.941728569 0.421835924 254 211 0
3.184008303 -72.040124484 0.405985117 252 215 0
3.191334634 -72.139196536 0.383032673 249 221 0
3.189607893 -72.235891611 0.385246446 249 221 0
3.185023806 -72.428981510 0.392820355 250 219 0
3.185262165 -72.526194032 0.389575203 250 219 0
3.188887422 -72.624304356 0.376916456 248 223 0
3.185482088 -72.720553781 0.383802219 249 221 0
3.170881626 -72.813828195 0.421809112 254 211 0
3.144374683 -72.903925476 0.492914907 255 161 0
3.065106097 -72.979950256 0.710689956 255 18 135
3.052781379 -73.073770735 0.742375696 255 0 168
