ply
format ascii 1.0
comment coordinate_system ground
comment units millimeter
element vertex 1667
property double x
property double y
property double z
property uchar red
property uchar green
property uchar blue
comment color_mapping zg_high_contrast_from_zg
comment color_zg_range_mm -0.309234815 20.003038103
end_header
5.603774008 105.117987791 0.340713713 0 233 231
5.577920665 105.010054297 0.407436111 0 234 228
5.575160781 104.912204835 0.410431807 0 234 228
5.595287201 104.824322806 0.350271466 0 233 231
5.608184622 104.733279370 0.310060789 0 233 234
5.607723398 104.636418211 0.306715649 0 233 234
5.597501068 104.535317085 0.330308692 0 233 231
5.587297824 104.434231180 0.353850339 0 233 231
5.579839894 104.334342456 0.369817088 0 233 231
5.571881026 104.234241569 0.387167467 0 233 231
5.564336448 104.134325199 0.403375738 0 233 231
5.562433211 104.036853141 0.404016697 0 233 231
5.563204856 103.940537329 0.397276733 0 233 231
5.560927406 103.842903923 0.398952455 0 233 231
5.555167525 103.743769519 0.410239905 0 234 228
5.559072011 103.648802967 0.394857013 0 233 231
5.558526472 103.551916802 0.391756125 0 233 231
5.563903187 103.457577552 0.372311972 0 233 231
5.562366719 103.360262414 0.371947777 0 233 231
5.569865963 103.266827259 0.346647548 0 233 231
5.571958740 103.171066231 0.336269112 0 233 231
5.564704079 103.071296380 0.351689237 0 233 231
5.559196083 102.972279178 0.362289972 0 233 231
5.551291853 102.872240110 0.379505196 0 233 231
5.551513191 102.775679613 0.374295828 0 233 231
5.556515721 102.681160070 0.355891730 0 233 231
5.562234570 102.586941527 0.335511476 0 233 231
5.555306208 102.487326001 0.350037696 0 233 231
5.547372616 102.387286743 0.367339498 0 233 231
5.541553016 102.288152317 0.378807940 0 233 231
5.536488869 102.189342685 0.388192489 0 233 231
5.536912386 102.092867216 0.382432178 0 233 231
5.535978625 101.995814530 0.380418954 0 233 231
5.527522718 101.895572056 0.399168134 0 233 231
5.523259276 101.797111342 0.406347126 0 234 228
5.521051358 101.699523084 0.407853849 0 234 228
5.520389276 101.602589389 0.405094991 0 234 228
5.521236031 101.506292859 0.398172605 0 233 231
5.512868380 101.406105164 0.416683932 0 234 228
5.503368314 101.305445410 0.438322088 0 234 228
5.501902830 101.208177573 0.437784962 0 234 228
5.509422367 101.114692595 0.412448848 0 234 228
5.519781606 101.022395444 0.379275458 0 233 231
5.521750898 100.926563893 0.369260515 0 233 231
5.516960006 100.827891778 0.377905923 0 233 231
5.511194737 100.728813761 0.389241936 0 233 231
5.508173002 100.630889066 0.393006338 0 233 231
5.504638403 100.532751101 0.398187440 0 233 231
5.499062777 100.433761189 0.409003379 0 234 228
5.500300682 100.337622331 0.401013306 0 233 231
5.508456691 100.244370404 0.373928278 0 233 231
5.515783807 100.150765632 0.349131993 0 233 231
5.519416924 100.055614796 0.334533064 0 233 231
5.520512882 99.959403845 0.326938396 0 233 231
5.520777991 99.862845562 0.321638110 0 233 234
5.519004581 99.765438926 0.321965832 0 233 234
5.514260730 99.666799267 0.330494101 0 233 231
5.509157379 99.568013236 0.340015854 0 233 231
5.506485246 99.470238025 0.342827615 0 233 231
5.505006096 99.372958066 0.342347323 0 233 231
5.500146142 99.274279601 0.351200516 0 233 231
5.494403512 99.175239139 0.362491409 0 233 231
5.492964116 99.077979396 0.361904581 0 233 231
5.499796497 98.984132890 0.338484815 0 233 231
5.506086569 98.890056793 0.316562877 0 233 234
5.502242057 98.791801220 0.322618225 0 233 234
5.492273211 98.691027819 0.345580963 0 233 231
5.482577679 98.590373540 0.367790488 0 233 231
5.478741783 98.492132368 0.373825528 0 233 231
5.480841031 98.396328586 0.363477385 0 233 231
5.485252639 98.301470296 0.346746743 0 233 231
5.487893552 98.205882617 0.334905117 0 233 231
5.486777810 98.108754967 0.333435015 0 233 231
5.484309556 98.011074441 0.335699696 0 233 231
5.486590617 97.915334649 0.324854357 0 233 234
5.494173288 97.821755514 0.299374113 0 233 234
5.500712499 97.727744407 0.276775275 0 233 234
5.504376299 97.632556421 0.262115295 0 233 234
5.505561311 97.536356225 0.254299350 0 233 234
5.505564895 97.439674040 0.249745931 0 233 234
5.505631595 97.343016659 0.245019256 0 232 237
5.503298209 97.245384578 0.246919552 0 233 234
5.493444760 97.144705085 0.269581847 0 233 234
5.480616883 97.042827686 0.300457087 0 233 234
5.475957398 96.944264186 0.308782643 0 233 234
5.480479041 96.849414614 0.291762223 0 233 234
5.490939579 96.756959134 0.258346578 0 233 234
5.499147242 96.663585914 0.231151395 0 232 237
5.497262316 96.566137520 0.231820851 0 232 237
5.489275287 96.466232443 0.249338291 0 233 234
5.483567724 96.367249696 0.260563680 0 233 234
5.483175551 96.270406913 0.257115127 0 233 234
5.481216066 96.172934247 0.257994749 0 233 234
5.472303020 96.072672680 0.278073493 0 233 234
5.461415426 95.971625704 0.303605046 0 233 234
5.465853098 95.876722589 0.286825963 0 233 234
5.469795664 95.781617213 0.271414712 0 233 234
5.481192895 95.689487249 0.235422344 0 232 237
5.504764211 95.602208481 0.165818371 0 232 240
5.531545014 95.516191148 0.087353385 0 231 243
5.559585598 95.430654617 0.005410384 0 231 246
5.594442331 95.347809569 -0.095351876 0 230 249
5.607543463 95.256284004 -0.136046360 0 230 249
5.614690645 95.162381763 -0.160301131 0 230 252
5.621709342 95.068422249 -0.184200357 0 230 252
5.625780215 94.973287460 -0.199959641 0 230 252
5.624811498 94.876151971 -0.201803318 0 230 252
5.619993296 94.777492632 -0.193017174 0 230 252
5.614877268 94.678718371 -0.183407560 0 230 252
5.611794554 94.580750503 -0.179411038 0 230 252
5.609241715 94.482993306 -0.176876490 0 230 252
5.606699131 94.385241282 -0.174369184 0 230 252
5.605555881 94.288041621 -0.175724605 0 230 252
5.606590070 94.191698946 -0.183091302 0 230 252
5.607603316 94.095346433 -0.190399204 0 230 252
5.605490495 93.997764449 -0.189074401 0 230 252
5.600871138 93.899199678 -0.180827430 0 230 252
5.597626724 93.801176626 -0.176375871 0 230 252
5.596494946 93.703982635 -0.177756748 0 230 252
5.594941977 93.606623895 -0.177973572 0 230 252
5.592808386 93.509038569 -0.176586088 0 230 252
5.590157264 93.411251959 -0.173768487 0 230 252
5.585103700 93.312529317 -0.164315920 0 230 252
5.586891416 93.216476023 -0.173753213 0 230 252
5.581872251 93.117770244 -0.164393441 0 230 252
5.581015311 93.020686485 -0.166525905 0 230 252
5.580555356 92.923756832 -0.169753563 0 230 252
5.581053875 92.827198810 -0.175626924 0 230 252
5.585335057 92.732106635 -0.191944734 0 230 252
5.586359934 92.635748725 -0.199269667 0 230 252
5.592861587 92.541509118 -0.221717340 0 230 252
5.597159602 92.446411621 -0.238078982 0 229 255
5.595783423 92.349118049 -0.238770714 0 229 255
5.589941078 92.250101103 -0.227128226 0 230 252
5.587388095 92.152355999 -0.224568089 0 230 252
5.579169819 92.052429962 -0.206362181 0 230 252
5.575716199 91.954342739 -0.201312690 0 230 252
5.575895585 91.857653875 -0.206294742 0 230 252
5.575646849 91.760799656 -0.210093519 0 230 252
5.573451918 91.663198179 -0.208516759 0 230 252
5.571969596 91.565870681 -0.208906856 0 230 252
5.573061470 91.469529104 -0.216404762 0 230 252
5.573390930 91.372894266 -0.221796217 0 230 252
5.570653888 91.275086614 -0.218718190 0 230 252
5.568025723 91.177321801 -0.215939754 0 230 252
5.569518523 91.081129724 -0.224540869 0 230 252
5.574575814 90.986293669 -0.242984912 0 229 255
5.578100894 90.890869806 -0.257196638 0 229 255
5.574941699 90.792901031 -0.252947608 0 229 255
5.568281273 90.693603995 -0.239028141 0 229 255
5.563803285 90.595139348 -0.231134745 0 229 255
5.560862585 90.497260040 -0.227485783 0 230 252
5.558605848 90.399641175 -0.225724664 0 230 252
5.557018319 90.302276387 -0.225810659 0 230 252
5.556092573 90.205162106 -0.227723299 0 230 252
5.555398405 90.108135156 -0.230274473 0 229 255
5.553098232 90.010502211 -0.228389163 0 230 252
5.546980769 89.911431948 -0.215960142 0 230 252
5.539910454 89.812006895 -0.200898327 0 230 252
5.535175602 89.713464598 -0.192285483 0 230 252
5.534887301 89.616595380 -0.195952225 0 230 252
5.540041505 89.521767890 -0.214649442 0 230 252
5.546660418 89.427484744 -0.237391154 0 229 255
5.545735255 89.330370568 -0.239296079 0 229 255
5.540769455 89.231744659 -0.230040089 0 229 255
5.536158056 89.133254183 -0.221761780 0 230 252
5.533172192 89.035373308 -0.217971959 0 230 252
5.532743299 88.938447567 -0.221243288 0 230 252
5.533500126 88.841963131 -0.227788519 0 230 252
5.531956750 88.744621175 -0.227979639 0 230 252
5.527710966 88.646274783 -0.220705665 0 230 252
5.522641978 88.547625058 -0.211156859 0 230 252
5.518051517 88.449155958 -0.202928605 0 230 252
5.515451000 88.351427184 -0.200195519 0 230 252
5.514615532 88.254353183 -0.202336512 0 230 252
5.516806691 88.158398612 -0.212836227 0 230 252
5.522060982 88.063573498 -0.231795620 0 229 255
5.526559153 87.968464455 -0.248665675 0 229 255
5.526700876 87.871744653 -0.253501854 0 229 255
5.522914727 87.773576957 -0.247487750 0 229 255
5.516838139 87.674568450 -0.235146014 0 229 255
5.510174462 87.575347948 -0.221181463 0 230 252
5.505675033 87.476926539 -0.213193732 0 230 252
5.505467336 87.380082245 -0.217059411 0 230 252
5.508235945 87.284328077 -0.229145220 0 230 252
5.509727573 87.188103495 -0.237702807 0 229 255
5.507528112 87.090527072 -0.236063801 0 229 255
5.502193755 86.991806230 -0.225764388 0 230 252
5.495666997 86.892653483 -0.212170098 0 230 252
5.491230169 86.794266855 -0.204347556 0 230 252
5.490837291 86.697355601 -0.207694415 0 230 252
5.493745654 86.601644885 -0.220159258 0 230 252
5.500494785 86.507327015 -0.243232567 0 229 255
5.506984154 86.412908895 -0.265587512 0 229 255
5.509513486 86.317048846 -0.277002660 0 229 255
5.509093110 86.220117426 -0.280268732 0 229 255
5.506639805 86.122449800 -0.277918082 0 229 255
5.504019199 86.024722767 -0.275104198 0 229 255
5.502401277 85.927359051 -0.275059040 0 229 255
5.500281571 85.829814749 -0.273626688 0 229 255
5.496607226 85.731711005 -0.267898689 0 229 255
5.493140325 85.633683950 -0.262742627 0 229 255
5.490495639 85.535954429 -0.259856780 0 229 255
5.486712419 85.437817128 -0.253824684 0 229 255
5.491452619 85.342740601 -0.271337260 0 229 255
5.487717094 85.244621330 -0.265434800 0 229 255
5.484466698 85.146677837 -0.260871392 0 229 255
5.480337055 85.048421512 -0.253877935 0 229 255
5.475238587 84.949821353 -0.244206933 0 229 255
5.468940173 84.850795971 -0.231219856 0 229 255
5.462689486 84.751791617 -0.218363430 0 230 252
5.460144521 84.654111170 -0.215743177 0 230 252
5.463057213 84.558373735 -0.228199137 0 230 252
5.468785097 84.463633875 -0.248431443 0 229 255
5.473933138 84.368682987 -0.267061009 0 229 255
5.472694305 84.271462202 -0.268045083 0 229 255
5.464937247 84.171932293 -0.251020509 0 229 255
5.456399849 84.072131349 -0.231838882 0 229 255
5.452883650 83.974111208 -0.226527969 0 230 252
5.453717682 83.877629181 -0.233234305 0 229 255
5.454737085 83.781211119 -0.240451773 0 229 255
5.456471987 83.685043612 -0.249644982 0 229 255
5.460066388 83.589528521 -0.263974534 0 229 255
5.461290881 83.493176614 -0.271755702 0 229 255
5.455057596 83.394203594 -0.258931787 0 229 255
5.447320154 83.294706810 -0.241951021 0 229 255
5.444374560 83.196894521 -0.238207916 0 229 255
5.446525355 83.100867859 -0.248544057 0 229 255
5.451757161 83.005916210 -0.267391533 0 229 255
5.456288367 82.910715046 -0.284302497 0 229 255
5.458322951 82.814638465 -0.294314776 0 229 255
5.458191115 82.717804418 -0.298340566 0 229 255
5.456003548 82.620253923 -0.296685595 0 229 255
5.452804367 82.522352473 -0.292234562 0 229 255
5.450553321 82.424782073 -0.290402033 0 229 255
5.451437057 82.328300479 -0.297229580 0 229 255
5.453729832 82.232305870 -0.307949219 0 229 255
5.452608471 82.135126510 -0.309234815 0 229 255
5.448073168 82.036766371 -0.301086757 0 229 255
5.444628714 81.938785802 -0.295951545 0 229 255
5.442736197 81.841342691 -0.295103208 0 229 255
5.439807048 81.743542863 -0.291389577 0 229 255
5.433387492 81.644542513 -0.278030770 0 229 255
5.424592079 81.544729021 -0.258106181 0 229 255
5.418768165 81.445942464 -0.246390726 0 229 255
5.420702944 81.349822502 -0.256111857 0 229 255
5.422528020 81.253662669 -0.265528908 0 229 255
5.419868501 81.155964878 -0.262553634 0 229 255
5.415224979 81.057589652 -0.254095251 0 229 255
5.410380435 80.959148497 -0.245080270 0 229 255
5.405836855 80.860812977 -0.236895732 0 229 255
5.404498474 80.763572890 -0.237566493 0 229 255
5.404919710 80.666932279 -0.243098304 0 229 255
5.404139775 80.569881962 -0.245310059 0 229 255
5.403513744 80.472883752 -0.247946036 0 229 255
5.403694299 80.376158995 -0.252809737 0 229 255
5.403739693 80.279387496 -0.257298944 0 229 255
5.399995992 80.181332030 -0.251316968 0 229 255
5.390905164 80.081469912 -0.230558421 0 229 255
5.393747146 79.985645801 -0.242772093 0 229 255
5.391348415 79.888050009 -0.240503277 0 229 255
5.390063997 79.790830918 -0.241312544 0 229 255
5.387601278 79.693215250 -0.238864745 0 229 255
5.385985833 79.595885663 -0.238757144 0 229 255
5.384843639 79.498715526 -0.239956227 0 229 255
5.382720375 79.401216241 -0.238443214 0 229 255
5.380805849 79.303787766 -0.237505940 0 229 255
5.378222938 79.206136177 -0.234720585 0 229 255
5.374488332 79.108100597 -0.228751554 0 230 252
5.371744033 79.010397913 -0.225518012 0 230 252
5.370893366 78.913328416 -0.227516269 0 230 252
5.372443671 78.817059037 -0.236148403 0 229 255
5.375330373 78.721232609 -0.248472623 0 229 255
5.378121132 78.625371295 -0.260530762 0 229 255
5.380837805 78.529482463 -0.272383224 0 229 255
5.380327927 78.432520287 -0.275318198 0 229 255
5.373963638 78.333617598 -0.262073441 0 229 255
5.367647951 78.234735074 -0.248961795 0 229 255
5.365498413 78.137234052 -0.247362233 0 229 255
5.365211380 78.040348983 -0.250908703 0 229 255
5.364324725 77.943265558 -0.252797050 0 229 255
5.362391328 77.845837143 -0.251791595 0 229 255
5.360888549 77.748551144 -0.251975115 0 229 255
5.360541339 77.651645376 -0.255351099 0 229 255
5.360849430 77.554954260 -0.260537050 0 229 255
5.362293132 77.458634567 -0.268860394 0 229 255
5.364513449 77.362567398 -0.279329042 0 229 255
5.365520296 77.266100713 -0.286443108 0 229 255
5.363657092 77.168694501 -0.285624294 0 229 255
5.359308408 77.070477584 -0.277935305 0 229 255
5.355562480 76.972459739 -0.271911007 0 229 255
5.353324782 76.874935165 -0.270053898 0 229 255
5.352670569 76.777926615 -0.272572023 0 229 255
5.353463622 76.681388018 -0.279088980 0 229 255
5.353256943 76.584523599 -0.282841912 0 229 255
5.349474597 76.486499522 -0.276711478 0 229 255
5.343503020 76.387768759 -0.264529344 0 229 255
5.337934629 76.289172160 -0.253460337 0 229 255
5.335452184 76.191575801 -0.250919133 0 229 255
5.337767521 76.095528422 -0.261637083 0 229 255
5.341855524 76.000049722 -0.277253440 0 229 255
5.344078957 75.903967003 -0.287715480 0 229 255
5.343951292 75.807125992 -0.291678421 0 229 255
5.341627836 75.709579247 -0.289571416 0 229 255
5.337716663 75.611524299 -0.283075021 0 229 255
5.333866100 75.513490977 -0.276745013 0 229 255
5.330796714 75.415709756 -0.272572981 0 229 255
5.327044377 75.317711854 -0.266512199 0 229 255
5.321248838 75.219063879 -0.254802960 0 229 255
5.315313739 75.120375060 -0.242706788 0 229 255
5.313648138 75.023049503 -0.242410246 0 229 255
5.316093305 74.927031840 -0.253474789 0 229 255
5.317608413 74.830716096 -0.261967677 0 229 255
5.316568599 74.733587799 -0.263397702 0 229 255
5.314821038 74.636235240 -0.262870428 0 229 255
5.313580976 74.539043872 -0.263744827 0 229 255
5.312825658 74.442005922 -0.265958031 0 229 255
5.311806625 74.344884507 -0.267441253 0 229 255
5.311725759 74.248058968 -0.271516598 0 229 255
5.312832152 74.151606692 -0.278872630 0 229 255
5.312329764 74.054646664 -0.281780790 0 229 255
5.308463712 73.956629296 -0.275390264 0 229 255
5.301123113 73.857523639 -0.259394414 0 229 255
5.294158051 73.758540529 -0.244435374 0 229 255
5.290828416 73.660700148 -0.239524090 0 229 255
5.292398410 73.564393648 -0.248155219 0 229 255
5.297123626 73.469070614 -0.265507065 0 229 255
5.298573757 73.372721582 -0.273804935 0 229 255
5.295875413 73.275078194 -0.270634441 0 229 255
5.293605267 73.177569339 -0.268646487 0 229 255
5.293449400 73.080718546 -0.272501867 0 229 255
5.293302935 72.983870019 -0.276382202 0 229 255
5.290460384 72.886184970 -0.272808724 0 229 255
5.291981141 72.789852406 -0.281295665 0 229 255
5.287690511 72.691720648 -0.273717064 0 229 255
5.285452778 72.594225502 -0.271812208 0 229 255
5.283294063 72.496755671 -0.270124691 0 229 255
5.278223440 72.398389498 -0.260386498 0 229 255
5.273522392 72.300140158 -0.251668779 0 229 255
5.269833590 72.202204758 -0.245748139 0 229 255
5.266402042 72.104350375 -0.240537518 0 229 255
5.265310583 72.007215299 -0.241794762 0 229 255
5.268783921 71.911478086 -0.255670034 0 229 255
5.275365119 71.816687935 -0.278135896 0 229 255
5.280459166 71.721437742 -0.296489731 0 229 255
5.280173856 71.624541822 -0.299971558 0 229 255
5.276532205 71.526622720 -0.294173764 0 229 255
5.271432750 71.428262012 -0.284344720 0 229 255
5.266079328 71.329827242 -0.273812405 0 229 255
5.263306726 71.232179175 -0.270413670 0 229 255
5.263227469 71.135348970 -0.274459708 0 229 255
5.264101363 71.038806652 -0.281139757 0 229 255
5.263609632 70.941849938 -0.284043418 0 229 255
5.256961720 70.843033572 -0.269926705 0 229 255
5.245522974 70.742776438 -0.242564002 0 229 255
5.235618463 70.642989459 -0.219441519 0 230 252
5.232207709 70.545163048 -0.214270580 0 230 252
5.233373306 70.448713614 -0.221750511 0 230 252
5.235562059 70.352569580 -0.232058120 0 229 255
5.237498406 70.256347455 -0.241666934 0 229 255
5.240176445 70.160345106 -0.253325316 0 229 255
5.242199482 70.064144126 -0.263171849 0 229 255
5.241022954 69.966985508 -0.264171507 0 229 255
5.236261209 69.868757915 -0.255257931 0 229 255
5.230685835 69.770290879 -0.244093708 0 229 255
5.227574125 69.672560112 -0.239739731 0 229 255
5.227886599 69.575848120 -0.244851726 0 229 255
5.229155713 69.479418932 -0.252607602 0 229 255
5.228254050 69.382344829 -0.254360706 0 229 255
5.225427570 69.284701078 -0.250790982 0 229 255
5.222971636 69.187168226 -0.248244638 0 229 255
5.221743446 69.089998846 -0.249091710 0 229 255
5.220629075 68.992863188 -0.250252402 0 229 255
5.219021201 68.895582336 -0.250047554 0 229 255
5.216315480 68.797979180 -0.246806198 0 229 255
5.211808671 68.699848490 -0.238583899 0 229 255
5.205210649 68.601107256 -0.224578409 0 230 252
5.198616511 68.502371431 -0.210582431 0 230 252
5.199986522 68.405969177 -0.218605654 0 230 252
5.204706228 68.310543531 -0.235889642 0 229 255
5.206464340 68.214249591 -0.244984001 0 229 255
5.205275297 68.117094954 -0.245928531 0 229 255
5.201108429 68.019074072 -0.238638300 0 229 255
5.193556702 67.920072086 -0.221987735 0 230 252
5.195576461 67.823852585 -0.231801341 0 229 255
5.186311525 67.724360456 -0.210411313 0 230 252
5.191183140 67.628966036 -0.228108338 0 230 252
5.196010977 67.533554479 -0.245683412 0 229 255
5.197684574 67.437227982 -0.254535843 0 229 255
5.195432531 67.339767780 -0.252532504 0 229 255
5.189235337 67.241172751 -0.239619276 0 229 255
5.190823253 67.144819998 -0.248231645 0 229 255
5.185812496 67.046570595 -0.238596762 0 229 255
5.183331197 66.949049571 -0.235955041 0 229 255
5.181858148 66.851818407 -0.236100191 0 229 255
5.181798514 66.754991819 -0.240152609 0 229 255
5.184777886 66.659032464 -0.252607435 0 229 255
5.190677966 66.563903120 -0.273137674 0 229 255
5.188410374 66.466442032 -0.271081594 0 229 255
5.195782755 66.371724079 -0.295681233 0 229 255
5.186254466 66.272198659 -0.273545418 0 229 255
5.175666995 66.172379266 -0.248479372 0 229 255
5.169168406 66.073725627 -0.234718896 0 229 255
5.164951391 65.975721715 -0.227266418 0 230 252
5.161447077 65.877921633 -0.221783620 0 230 252
5.158712728 65.780340724 -0.218428885 0 230 252
5.156119093 65.682800792 -0.215462152 0 230 252
5.152900322 65.585086163 -0.210765583 0 230 252
5.150601854 65.487631855 -0.208612858 0 230 252
5.149331444 65.390467055 -0.209301994 0 230 252
5.147637421 65.293183743 -0.208818596 0 230 252
5.144019870 65.195362611 -0.203014774 0 230 252
5.139433263 65.097272634 -0.194529957 0 230 252
5.137804804 65.000011057 -0.194224536 0 230 252
5.139461381 64.903665604 -0.203002625 0 230 252
5.141356433 64.807384506 -0.212439215 0 230 252
5.142731895 64.710956771 -0.220437898 0 230 252
5.145197175 64.614829744 -0.231449462 0 229 255
5.151236953 64.519690941 -0.252345341 0 229 255
5.159091685 64.425049187 -0.278259639 0 229 255
5.159847534 64.328438252 -0.284540917 0 229 255
5.154993857 64.230277417 -0.275307763 0 229 255
5.148597711 64.131694303 -0.261807635 0 229 255
5.142826014 64.033287221 -0.250033246 0 229 255
5.139332303 63.935510036 -0.244557628 0 229 255
5.138013337 63.838331797 -0.245095346 0 229 255
5.136561827 63.741117468 -0.245265419 0 229 255
5.134245511 63.643666730 -0.243042672 0 229 255
5.132670294 63.546419608 -0.242868433 0 229 255
5.131651661 63.449324879 -0.244232428 0 229 255
5.128536093 63.351658495 -0.239795911 0 229 255
5.123602285 63.253498730 -0.230329578 0 229 255
5.120170112 63.155750207 -0.225015137 0 230 252
5.118566246 63.058499891 -0.224756133 0 230 252
5.116591712 62.961149553 -0.223470870 0 230 252
5.112016486 62.863095919 -0.214991661 0 230 252
5.105261431 62.764455741 -0.200482400 0 230 252
5.098623318 62.665851531 -0.186295339 0 230 252
5.094617048 62.567961094 -0.179386160 0 230 252
5.094817583 62.471205374 -0.184111001 0 230 252
5.097215916 62.375039523 -0.194913504 0 230 252
5.099594642 62.278865819 -0.205660797 0 230 252
5.101184324 62.182478044 -0.214224743 0 230 252
5.100629349 62.085514257 -0.216855873 0 230 252
5.098034339 61.988004878 -0.213843471 0 230 252
5.093177809 61.889893132 -0.204574849 0 230 252
5.096463600 61.793954382 -0.217825870 0 230 252
5.091828091 61.695904249 -0.209166323 0 230 252
5.089308276 61.598419144 -0.206357451 0 230 252
5.090806078 61.502001357 -0.214659949 0 230 252
5.094661931 61.406206522 -0.229483700 0 230 252
5.095840741 61.309699624 -0.236901899 0 229 255
5.094116894 61.212424118 -0.236290387 0 229 255
5.092300091 61.115124644 -0.235420664 0 229 255
5.091077210 61.017982275 -0.236192635 0 229 255
5.089103890 60.920642658 -0.234887794 0 229 255
5.084560117 60.822628542 -0.226471881 0 230 252
5.077996174 60.724087219 -0.212466900 0 230 252
5.072146406 60.625737217 -0.200436142 0 230 252
5.067194814 60.527625844 -0.190888596 0 230 252
5.062743722 60.429648210 -0.182724296 0 230 252
5.060608107 60.332277064 -0.180963680 0 230 252
5.062943357 60.236071028 -0.191568912 0 230 252
5.068019523 60.140575154 -0.209754909 0 230 252
5.072569496 60.044938025 -0.226484468 0 230 252
5.073995832 59.948486832 -0.234572616 0 229 255
5.072013976 59.851151487 -0.233232092 0 229 255
5.067018562 59.753037906 -0.223554386 0 230 252
5.058659787 59.654059253 -0.204571743 0 230 252
5.052820524 59.555735587 -0.192557341 0 230 252
5.035307489 58.776716419 -0.177178294 0 230 252
5.011270138 56.059701597 -0.225874549 0 230 252
4.922182495 51.390978022 -0.174883474 0 230 252
4.857712398 46.922572930 -0.181485714 0 230 252
4.723769919 39.633406938 -0.107423454 0 230 249
4.712254626 39.534499588 -0.079452060 0 230 249
4.703892796 39.436163628 -0.060211524 0 231 246
4.705545848 39.339618543 -0.068702003 0 231 246
4.713056094 39.244113296 -0.093410757 0 230 249
4.716823951 39.147937304 -0.107755457 0 230 249
4.715643161 39.050881218 -0.108395640 0 230 249
4.713094020 38.953583455 -0.105245529 0 230 249
4.710616343 38.856299492 -0.102292173 0 230 249
4.707096130 38.758833223 -0.096450697 0 230 249
4.702238197 38.661134013 -0.086903633 0 230 249
4.697053821 38.563380574 -0.076451372 0 230 249
4.691656987 38.465593205 -0.065409551 0 231 246
4.695727456 38.369460638 -0.080583830 0 230 249
4.692318258 38.272022352 -0.075043988 0 230 249
4.693246454 38.175339197 -0.081514429 0 230 249
4.694821727 38.078766710 -0.089775767 0 230 249
4.691271888 37.981306105 -0.083843086 0 230 249
4.686496344 37.883636001 -0.074514873 0 230 249
4.680944513 37.785835165 -0.063035659 0 231 246
4.676408763 37.688212344 -0.054369105 0 231 246
4.675508563 37.591215284 -0.055769496 0 231 246
4.676462931 37.494535280 -0.062304787 0 231 246
4.674268983 37.397316656 -0.060120127 0 231 246
4.669601948 37.299677965 -0.051085368 0 231 246
4.666338979 37.202280567 -0.045937851 0 231 246
4.666425861 37.105452592 -0.050066345 0 231 246
4.668054380 37.008884460 -0.058463247 0 231 246
4.667216146 36.911898191 -0.060027557 0 231 246
4.663605102 36.814445098 -0.053911563 0 231 246
4.658892291 36.716808990 -0.044743073 0 231 246
4.654860202 36.619289790 -0.037458640 0 231 246
4.652100257 36.521985584 -0.033696242 0 231 246
4.651833974 36.425098649 -0.036838956 0 231 246
4.654239321 36.328655739 -0.047379775 0 231 246
4.656001124 36.232103393 -0.056137259 0 231 246
4.654873860 36.135070400 -0.056892258 0 231 246
4.651001101 36.037583801 -0.050042290 0 231 246
4.645098962 35.939764816 -0.037570582 0 231 246
4.639453556 35.841991823 -0.025808694 0 231 246
4.636582722 35.744677732 -0.021730089 0 231 246
4.636435428 35.647811005 -0.025193549 0 231 246
4.635896136 35.550879607 -0.027570235 0 231 246
4.632887671 35.453545482 -0.023107059 0 231 246
4.629427803 35.356139516 -0.017392488 0 231 246
4.629695951 35.259340122 -0.022002200 0 231 246
4.632979437 35.163027702 -0.034962441 0 231 246
4.634662406 35.066453640 -0.043488723 0 231 246
4.633264586 34.969381372 -0.043481018 0 231 246
4.629339566 34.871903376 -0.036472502 0 231 246
4.626576644 34.774613898 -0.032681538 0 231 246
4.628601667 34.678091393 -0.042150948 0 231 246
4.631518233 34.581708807 -0.054088725 0 231 246
4.631096117 34.484791920 -0.056778027 0 231 246
4.628764470 34.387571452 -0.054177199 0 231 246
4.627505862 34.290521956 -0.054547369 0 231 246
4.626533076 34.193517827 -0.055708113 0 231 246
4.625330903 34.096477535 -0.056232390 0 231 246
4.623571411 33.999349783 -0.055211858 0 231 246
4.621031372 33.902100199 -0.052028182 0 231 246
4.619018941 33.804934355 -0.050304784 0 231 246
4.617064283 33.707778314 -0.048740283 0 231 246
4.613728038 33.610407905 -0.043347765 0 231 246
4.609457497 33.512894184 -0.035366140 0 231 246
4.606537491 33.415592218 -0.031124241 0 231 246
4.605800352 33.318629094 -0.032927658 0 231 246
4.604773092 33.221621053 -0.033926350 0 231 246
4.600056385 33.124045662 -0.024704197 0 231 246
4.593153374 33.026137740 -0.009424761 0 231 246
4.597367457 32.929935485 -0.024938650 0 231 246
4.596449135 32.832945854 -0.026234641 0 231 246
4.588025117 32.734813390 -0.006738389 0 231 246
4.595759266 32.639140602 -0.031999964 0 231 246
4.592364288 32.541775189 -0.026432148 0 231 246
4.586940673 32.444105075 -0.015243658 0 231 246
4.578840452 32.346034924 0.003360533 0 231 246
4.571874112 32.248140686 0.018825035 0 231 243
4.570252634 32.151052542 0.019484832 0 231 243
4.574451226 32.054835437 0.004023309 0 231 246
4.582805632 31.959234395 -0.022949518 0 231 246
4.587815601 31.863128513 -0.040656836 0 231 246
4.587465199 31.766222401 -0.043513991 0 231 246
4.585191954 31.669031130 -0.041043401 0 231 246
4.581308958 31.571603139 -0.034112322 0 231 246
4.574379225 31.473728632 -0.018739906 0 231 246
4.566036237 31.375651064 0.000548834 0 231 246
4.561337832 31.278113121 0.009742452 0 231 243
4.561103482 31.181230374 0.006570640 0 231 246
4.562409456 31.084571559 -0.000867225 0 231 246
4.562575240 30.987745241 -0.005145386 0 231 246
4.560696811 30.890621654 -0.003759374 0 231 246
4.559426391 30.793586672 -0.004056618 0 231 246
4.561244482 30.696997341 -0.012908969 0 231 246
4.563624384 30.600486676 -0.023316712 0 231 246
4.564267549 30.503724286 -0.028912048 0 231 246
4.564910561 30.406960628 -0.034505906 0 231 246
4.565188641 30.310143649 -0.039087698 0 231 246
4.561872218 30.212814169 -0.033710192 0 231 246
4.552751546 30.114662687 -0.012251308 0 231 246
4.542490643 30.016356035 0.012367838 0 231 243
4.535972574 29.918584826 0.026619013 0 231 243
4.535773347 29.821707415 0.023365333 0 231 243
4.538101707 29.725184269 0.013110115 0 231 243
4.537045198 29.628184654 0.012233655 0 231 243
4.533956335 29.530901310 0.016988937 0 231 243
4.532962591 29.433911319 0.015940819 0 231 243
4.535558969 29.337419884 0.004947262 0 231 246
4.537163315 29.240788325 -0.003296822 0 231 246
4.534717850 29.143595496 -0.000319639 0 231 246
4.530012768 29.046092589 0.008919118 0 231 243
4.525083173 28.948561693 0.018781110 0 231 243
4.520951144 28.851143043 0.026434580 0 231 243
4.518926444 28.754014601 0.028250644 0 231 243
4.519884635 28.657293191 0.021803365 0 231 243
4.522248128 28.560761141 0.011463548 0 231 243
4.524258152 28.464178660 0.002104081 0 231 246
4.523988308 28.367286007 -0.000937607 0 231 246
4.519836884 28.269870115 0.006776409 0 231 246
4.512804362 28.172069781 0.022474262 0 231 243
4.505957373 28.074298914 0.037659327 0 231 243
4.501727197 27.976881904 0.045595189 0 231 243
4.499820815 27.879776738 0.047093625 0 231 243
4.498983477 27.782814187 0.045631137 0 231 243
4.499302104 27.686004528 0.040966839 0 231 243
4.500721682 27.589339173 0.033253121 0 231 243
4.504023950 27.492919734 0.020323895 0 231 243
4.509959082 27.396842486 0.000100506 0 231 246
4.515158526 27.300663687 -0.018083512 0 231 246
4.516016827 27.203913849 -0.024238018 0 231 246
4.511014436 27.106400311 -0.014152392 0 231 246
4.497776520 27.007821819 0.018753937 0 231 243
4.488618685 26.909780265 0.040356315 0 231 243
4.482751243 26.812169161 0.052842713 0 231 243
4.485202793 26.715631090 0.042279241 0 231 243
4.490011181 26.619392427 0.025186184 0 231 243
4.492155165 26.522808891 0.015476943 0 231 243
4.493059402 26.426065027 0.009203989 0 231 243
4.494725995 26.329416539 0.000819630 0 231 246
4.494943887 26.232582578 -0.003549389 0 231 246
4.494532343 26.135668232 -0.006173180 0 231 246
4.493386885 26.038661075 -0.006762207 0 231 246
4.490585353 25.941446240 -0.002761127 0 231 246
4.486371288 25.844056092 0.005155270 0 231 246
4.481427247 25.746577377 0.015095652 0 231 243
4.477711464 25.649254395 0.021633683 0 231 243
4.476641139 25.552261393 0.020842152 0 231 243
4.474530562 25.455139916 0.022934349 0 231 243
4.470000344 25.357721245 0.031732734 0 231 243
4.465561931 25.260316557 0.040277919 0 231 243
4.462335246 25.163062842 0.045466458 0 231 243
4.462691899 25.066248123 0.040726252 0 231 243
4.466011240 24.969792783 0.027777065 0 231 243
4.468093058 24.873184074 0.018258243 0 231 243
4.467593970 24.776261023 0.015892585 0 231 243
4.463882193 24.678950463 0.022430989 0 231 243
4.457902725 24.581369592 0.035254806 0 231 243
4.453731467 24.484009049 0.043068922 0 231 243
4.453060687 24.387068735 0.041183598 0 231 243
4.454236194 24.290347832 0.034182859 0 231 243
4.453853788 24.193440520 0.031500544 0 231 243
4.448265129 24.095917335 0.043247262 0 231 243
4.439758897 23.998053913 0.063080639 0 231 243
4.434674564 23.900598112 0.073432220 0 231 243
4.436556096 23.803960850 0.064480427 0 231 243
4.442414547 23.707785396 0.044508319 0 231 243
4.447359784 23.611498500 0.027067957 0 231 243
4.449485755 23.514880282 0.017441721 0 231 243
4.449149931 23.417975275 0.014639045 0 231 243
4.447409932 23.320908085 0.015728962 0 231 243
4.445194170 23.223786868 0.018138531 0 231 243
4.443693214 23.126748348 0.018568222 0 231 243
4.444451697 23.029967784 0.012737171 0 231 243
4.447948924 22.933497038 -0.000683078 0 231 246
4.451412739 22.837019073 -0.014009741 0 231 246
4.451035739 22.740104271 -0.016690744 0 231 246
4.446894689 22.642765675 -0.008938674 0 231 246
4.442063595 22.545352149 0.000727037 0 231 246
4.438349687 22.448066351 0.007297672 0 231 246
4.436914302 22.351036274 0.007554522 0 231 246
4.438331641 22.254323000 -0.000093930 0 231 246
4.441275354 22.157776625 -0.011971755 0 231 246
4.443646236 22.061164130 -0.022260946 0 231 246
4.443844858 21.964310577 -0.026528546 0 231 246
4.441828602 21.867213798 -0.024656344 0 231 246
4.437233551 21.769836663 -0.015635616 0 231 246
4.428772253 21.672042266 0.004102063 0 231 246
4.417497917 21.573949063 0.031637747 0 231 243
4.408636320 21.476123997 0.052487571 0 231 243
4.407296832 21.379113501 0.052490024 0 231 243
4.410286211 21.282566920 0.040495405 0 231 243
4.411434820 21.185820837 0.033603813 0 231 243
4.408244984 21.088611761 0.038738122 0 231 243
4.405217280 20.991421546 0.043424219 0 231 243
4.406708074 20.894709931 0.035587446 0 231 243
4.411562891 20.798350285 0.018427523 0 231 243
4.414702030 20.701806343 0.006023977 0 231 246
4.412337847 20.604684541 0.008875344 0 231 243
4.408167226 20.507375840 0.016734902 0 231 243
4.407640533 20.410447307 0.014495443 0 231 243
4.408629065 20.313674906 0.008057168 0 231 246
4.406568953 20.216587296 0.010070237 0 231 243
4.402602858 20.119305114 0.017367508 0 231 243
4.401422958 20.022309763 0.016943062 0 231 243
4.402558036 19.925550097 0.010102933 0 231 243
4.401014261 19.828517261 0.010689297 0 231 243
4.400718001 19.731610823 0.007818811 0 231 246
4.417302266 19.636402015 -0.041841748 0 231 246
4.433398934 19.541130884 -0.090150103 0 230 249
4.285914634 11.292674629 0.009140441 0 231 243
-2.861018817 8.454787511 19.741028730 255 6 157
-2.862113035 8.360543217 19.740592875 255 6 157
-2.906289969 8.263829373 19.859645732 255 2 164
-2.938749151 8.167815832 19.946202154 255 0 168
-2.935522284 8.073844709 19.933786227 255 0 168
-2.936983828 7.979606998 19.934374537 255 0 168
-2.937727497 7.885409708 19.932972945 255 0 168
-2.936841635 7.791302529 19.927052922 255 0 168
-2.940489427 7.696944457 19.933708171 255 0 168
-2.937636613 7.602943637 19.922334901 255 2 164
-2.936748655 7.508833271 19.916412269 255 2 164
-2.937868268 7.414613316 19.916058830 255 2 164
-2.939295741 7.320377001 19.916560378 255 2 164
-2.940338668 7.226161453 19.915996469 255 2 164
-2.943645611 7.131826581 19.921713166 255 2 164
-2.944440985 7.037624957 19.920464886 255 2 164
-2.949107773 6.943222031 19.929955605 255 0 168
-2.952039644 6.848911414 19.934635478 255 0 168
-2.954105588 6.754646625 19.936914720 255 0 168
-2.956468924 6.660367557 19.940019970 255 0 168
-2.959443537 6.566058724 19.944821860 255 0 168
-2.963253911 6.471709595 19.951943061 255 0 168
-2.967422531 6.377344843 19.960059123 255 0 168
-2.970790360 6.283021997 19.965955198 255 0 168
-2.972548618 6.188779684 19.967387907 255 0 168
-2.972672112 6.094617275 19.964287300 255 0 168
-2.971870850 6.000498719 19.958622718 255 0 168
-2.971098356 5.906377426 19.953038991 255 0 168
-2.971074286 5.812219341 19.949532300 255 0 168
-2.972368610 5.717998549 19.949683666 255 0 168
-2.974609497 5.623733890 19.952461755 255 0 168
-2.976681745 5.529477992 19.954773203 255 0 168
-2.978357027 5.435241124 19.955984666 255 0 168
-2.980720050 5.340973532 19.959104957 255 0 168
-2.984160867 5.246658429 19.965216064 255 0 168
-2.987431910 5.152352797 19.970857412 255 0 168
-2.989481731 5.058103020 19.973112371 255 0 168
-2.990212833 4.963911975 19.971710444 255 0 168
-2.989939197 4.869764479 19.967522539 255 0 168
-2.990106743 4.775596985 19.964559522 255 0 168
-2.990224726 4.681430988 19.961460108 255 0 168
-2.988212816 4.587354603 19.952453503 255 0 168
-2.985676989 4.493297929 19.941994584 255 0 168
-2.984609725 4.399177444 19.935610479 255 0 168
-2.986087196 4.304950459 19.936286561 255 0 168
-2.990037528 4.210622836 19.943823557 255 0 168
-2.995317933 4.116243663 19.955051423 255 0 168
-3.000836766 4.021858227 19.966941924 255 0 168
-3.005514002 3.927509681 19.976499008 255 0 168
-3.008403709 3.833234251 19.981098541 255 0 168
-3.009600503 3.739026198 19.981002929 255 0 168
-3.010131918 3.644843961 19.979062592 255 0 168
-3.010856982 3.550653989 19.977660559 255 0 168
-3.011574199 3.456464116 19.976237859 255 0 168
-3.013356379 3.362234209 19.977770628 255 0 168
-3.017601158 3.267913751 19.986136187 255 0 168
-3.022968480 3.173554668 19.997617077 255 0 168
-3.026150990 3.079278152 20.003038103 255 0 168
-3.025507112 2.985140575 19.997845107 255 0 168
-3.023628340 2.891045576 19.989227305 255 0 168
-3.022309734 2.796928720 19.982164564 255 0 168
-3.021659421 2.702786898 19.976956878 255 0 168
-3.022513019 2.608592184 19.975922500 255 0 168
-3.025856712 2.514312823 19.981797432 255 0 168
-3.031411716 2.419961035 19.993808353 255 0 168
-3.035884148 2.325648680 20.002817121 255 0 168
-3.037031813 2.231448068 20.002603140 255 0 168
-3.035595857 2.137331347 19.995222460 255 0 168
-3.032075849 2.043279542 19.982060946 255 0 168
-3.028155482 1.949236960 19.967789680 255 0 168
-3.025768391 1.855142671 19.957773263 255 0 168
-3.025770298 1.760972007 19.954385858 255 0 168
-3.028299640 1.666723491 19.958011642 255 0 168
-3.032426566 1.572428037 19.966070930 255 0 168
-3.034551939 1.478194517 19.968578255 255 0 168
-3.031947036 1.384100733 19.957962864 255 0 168
-3.029549187 1.289998201 19.947922945 255 0 168
-3.029773997 1.195818096 19.945160517 255 0 168
-3.032132682 1.101577223 19.948319565 255 0 168
-3.035233071 1.007316767 19.953537612 255 0 168
-3.038669267 0.913048719 19.959688522 255 0 168
-3.044435731 0.818719502 19.972305976 255 0 168
-3.043529463 0.724571934 19.966410960 255 0 168
-3.045620312 0.630344123 19.968832642 255 0 168
-3.044868643 0.536190801 19.963368723 255 0 168
-3.045160657 0.442009511 19.960801641 255 0 168
-3.047475072 0.347776846 19.963846974 255 0 168
-3.049611015 0.253549620 19.966398265 255 0 168
-3.049799585 0.159370741 19.963547485 255 0 168
-3.048778723 0.065220267 19.957342070 255 0 168
-3.047379295 -0.028922807 19.950087324 255 0 168
-3.046072233 -0.123069853 19.943089907 255 0 168
-3.049078442 -0.217317174 19.948061430 255 0 168
-2.993487155 -0.310247005 19.790444728 255 4 161
-2.960120466 -0.403710792 19.694494085 255 6 157
4.127812848 -0.441144038 0.020713884 0 231 243
4.154213370 -0.731411792 -0.062922771 0 231 246
4.151223598 -0.828415793 -0.058085497 0 231 246
4.136617164 -0.925643433 -0.021013257 0 231 246
4.125259831 -1.022798921 0.007044844 0 231 246
4.122627936 -1.119784051 0.010892843 0 231 243
4.120412447 -1.216760349 0.013586541 0 231 243
4.116156271 -1.313772147 0.021943975 0 231 243
4.112937675 -1.410763338 0.027423472 0 231 243
4.112987174 -1.507697014 0.023835595 0 231 243
4.114528164 -1.604606600 0.016110090 0 231 243
4.115634516 -1.701525236 0.009591702 0 231 243
4.114573212 -1.798480032 0.009089423 0 231 243
4.112800566 -1.895445851 0.010562179 0 231 243
4.110721658 -1.992415733 0.012885927 0 231 243
4.109441704 -2.089372989 0.012993757 0 231 243
4.110776062 -2.186292402 0.005848081 0 231 246
4.114024789 -2.283186788 -0.006608886 0 231 246
4.115663572 -2.380106388 -0.014597270 0 231 246
4.112974285 -2.477085358 -0.010574188 0 231 246
4.107137939 -2.574103527 0.002183206 0 231 246
4.107163688 -2.671044838 -0.001325674 0 231 246
4.095988581 -2.768122442 0.026249443 0 231 243
4.088657866 -2.865147224 0.043157525 0 231 243
4.087008115 -2.962102796 0.044301789 0 231 243
4.087488669 -3.059034563 0.039535397 0 231 243
4.088708370 -3.155959669 0.032718870 0 231 243
4.090902700 -3.252876568 0.023198688 0 231 243
4.093492706 -3.349792052 0.012581476 0 231 243
4.095265063 -3.446717998 0.004234376 0 231 246
4.095309468 -3.543661685 0.000683647 0 231 246
4.093386218 -3.640623196 0.002594578 0 231 246
4.093047692 -3.737570919 0.000108746 0 231 246
4.096150998 -3.834492044 -0.011927752 0 231 246
4.099196139 -3.931416764 -0.023801828 0 231 246
4.097326892 -4.028379549 -0.022036374 0 231 246
4.090400355 -4.125375707 -0.006234607 0 231 246
4.083659265 -4.222366154 0.009053771 0 231 243
4.081426989 -4.319325333 0.011830265 0 231 243
4.084470985 -4.416254151 -0.000035214 0 231 246
4.089523654 -4.513175649 -0.017474346 0 231 246
4.091653419 -4.610115864 -0.026800580 0 231 246
4.089246753 -4.707078577 -0.023535743 0 231 246
4.085061155 -4.804047416 -0.015332632 0 231 246
4.081221815 -4.901012558 -0.008089307 0 231 246
4.077730367 -4.997974395 -0.001810317 0 231 246
4.075037841 -5.094932024 0.002252545 0 231 246
4.074892223 -5.191881976 -0.000752088 0 231 246
4.077784813 -5.288826137 -0.012187877 0 231 246
4.082832656 -5.385769543 -0.029604375 0 231 246
4.088033055 -5.482717394 -0.047443333 0 231 246
4.088768388 -5.579674370 -0.052888821 0 231 246
4.084682589 -5.676635544 -0.044952415 0 231 246
4.080217999 -5.773594444 -0.035963493 0 231 246
4.076385913 -5.870550810 -0.028728867 0 231 246
4.072030367 -5.967504726 -0.020040192 0 231 246
4.066590442 -6.064455059 -0.008340611 0 231 246
4.061090201 -6.161401921 0.003527611 0 231 246
4.057592604 -6.258348769 0.009838657 0 231 243
4.057279357 -6.355300379 0.007312563 0 231 246
4.058540399 -6.452256430 0.000418028 0 231 246
4.059025302 -6.549212010 -0.004321225 0 231 246
4.057897436 -6.646163512 -0.004583022 0 231 246
4.055731064 -6.743111164 -0.001961224 0 231 246
4.056362845 -6.840069158 -0.007104883 0 231 246
4.062214006 -6.937051356 -0.026734539 0 231 246
4.068044394 -7.034038726 -0.046305611 0 231 246
4.069314894 -7.131007814 -0.053219071 0 231 246
4.065608970 -7.227951062 -0.046318566 0 231 246
4.062051921 -7.324893132 -0.039830109 0 231 246
4.064485953 -7.421871075 -0.049969898 0 231 246
4.069555067 -7.518869313 -0.067422893 0 231 246
4.067749507 -7.615823551 -0.065792741 0 231 246
4.057728286 -7.712715868 -0.041356930 0 231 246
4.049769456 -7.809617464 -0.022644450 0 231 246
4.047314180 -7.906559034 -0.019207243 0 231 246
4.048441301 -8.003530362 -0.025712827 0 231 246
4.050093487 -8.100508063 -0.033674826 0 231 246
4.050157707 -8.197472917 -0.037227901 0 231 246
4.048649955 -8.294423252 -0.036416384 0 231 246
4.046431293 -8.391365999 -0.033630371 0 231 246
4.043684500 -8.488302264 -0.029377205 0 231 246
4.040042978 -8.585227438 -0.022639239 0 231 246
4.036452733 -8.682151181 -0.016042427 0 231 246
4.034376903 -8.779090645 -0.013648277 0 231 246
4.033097273 -8.876038908 -0.013463160 0 231 246
4.031478811 -8.972982754 -0.012336354 0 231 246
4.030842353 -9.069938745 -0.013934393 0 231 246
4.030380455 -9.166897339 -0.016015896 0 231 246
4.030127369 -9.263859202 -0.018675955 0 231 246
4.030893858 -9.360835914 -0.024165232 0 231 246
4.032080636 -9.457820037 -0.030820156 0 231 246
4.031694715 -9.554782653 -0.033108225 0 231 246
4.029921098 -9.651724753 -0.031542945 0 231 246
4.032210854 -9.748729339 -0.041256543 0 231 246
4.036925587 -9.845775033 -0.057700940 0 231 246
4.039128898 -9.942784225 -0.067172550 0 231 246
4.037265354 -10.039728093 -0.065353291 0 231 246
4.031434097 -10.136603647 -0.052518228 0 231 246
4.023023499 -10.233430531 -0.032521439 0 231 246
4.014165240 -10.330243767 -0.011280585 0 231 246
4.007912625 -10.427098428 0.002728021 0 231 246
4.012746467 -10.524155168 -0.014039563 0 231 246
4.012341288 -10.621117000 -0.016261922 0 231 246
4.013826404 -10.718115897 -0.023730939 0 231 246
4.015086675 -10.815112281 -0.030574707 0 231 246
4.013546598 -10.912054061 -0.029643140 0 231 246
4.008763508 -11.008928936 -0.019707205 0 231 246
4.002225852 -11.105764270 -0.004899010 0 231 246
3.996609533 -11.202614974 0.007352609 0 231 246
3.996314480 -11.299577407 0.004832362 0 231 246
4.000623260 -11.396641882 -0.010468192 0 231 246
4.004116887 -11.493692168 -0.023504697 0 231 246
4.007575018 -11.590745112 -0.036441664 0 231 246
4.011903254 -11.687821676 -0.051793306 0 231 246
4.008941547 -11.784730466 -0.046904873 0 231 246
4.012136142 -11.881785284 -0.059107130 0 231 246
4.009624322 -11.978704415 -0.055465488 0 231 246
4.008604129 -12.075659291 -0.055963965 0 231 246
3.999872572 -12.172420514 -0.035051813 0 231 246
3.993544208 -12.269237095 -0.020810498 0 231 246
3.991615235 -12.366163464 -0.018782342 0 231 246
3.992888874 -12.463173253 -0.025644777 0 231 246
3.993842233 -12.560176272 -0.031616935 0 231 246
3.992558655 -12.657120339 -0.031377344 0 231 246
3.989249310 -12.754008671 -0.025512210 0 231 246
3.985574550 -12.850885091 -0.018631347 0 231 246
3.984161674 -12.947823223 -0.018029346 0 231 246
3.986670159 -13.044873080 -0.028313807 0 231 246
3.990969081 -13.141977483 -0.043568390 0 231 246
3.993607634 -13.239037267 -0.054211978 0 231 246
3.994402376 -13.336045068 -0.059735173 0 231 246
3.993942559 -13.433016501 -0.061773979 0 231 246
3.993047338 -13.529975095 -0.062602765 0 231 246
3.993885288 -13.626987291 -0.068242701 0 231 246
3.998082603 -13.724105910 -0.083209107 0 230 249
4.003450899 -13.821265585 -0.101425876 0 230 249
4.006161061 -13.918345052 -0.112261122 0 230 249
4.004793969 -14.015295264 -0.111774391 0 230 249
4.000050569 -14.112134508 -0.101911784 0 230 249
3.995847478 -14.208988822 -0.093548210 0 230 249
3.993854207 -14.305914851 -0.091319347 0 230 249
3.992859185 -14.402874019 -0.091861156 0 230 249
3.992149385 -14.499843001 -0.093193825 0 230 249
3.988880309 -14.596723398 -0.087419060 0 230 249
3.981452096 -14.693456122 -0.070094404 0 231 246
3.973295294 -14.790158085 -0.050745372 0 231 246
3.969232819 -14.887001395 -0.042763907 0 231 246
3.969772555 -14.984009173 -0.047560441 0 231 246
3.971387005 -15.081057519 -0.055340134 0 231 246
3.972036047 -15.178072161 -0.060438064 0 231 246
3.972726577 -15.275089641 -0.065650129 0 231 246
3.973917431 -15.372127342 -0.072250434 0 230 249
3.974336863 -15.469137306 -0.076707586 0 230 249
3.973069440 -15.566083358 -0.076479556 0 230 249
3.970595629 -15.662982261 -0.072900456 0 230 249
3.967414026 -15.759852227 -0.067354766 0 231 246
3.962089286 -15.856635461 -0.055856690 0 231 246
3.954886930 -15.953340136 -0.039143462 0 231 246
3.950882005 -16.050169458 -0.031307901 0 231 246
3.952583843 -16.147229615 -0.039318328 0 231 246
3.956612424 -16.244387808 -0.053788909 0 231 246
3.957483572 -16.341418478 -0.059490518 0 231 246
3.953926458 -16.438264612 -0.052893992 0 231 246
3.951108053 -16.535140115 -0.048347658 0 231 246
3.951312263 -16.632143519 -0.052193903 0 231 246
3.952012029 -16.729169254 -0.057415226 0 231 246
3.951357287 -16.826137345 -0.058874006 0 231 246
3.949717581 -16.923062461 -0.057596422 0 231 246
3.947959388 -17.019981859 -0.055988668 0 231 246
3.946341291 -17.116906958 -0.054768836 0 231 246
3.942672106 -17.213739155 -0.047851882 0 231 246
3.937347774 -17.310494087 -0.036337280 0 231 246
3.935327014 -17.407397159 -0.033995763 0 231 246
3.938345197 -17.504532393 -0.045646758 0 231 246
3.941837786 -17.601692846 -0.058614233 0 231 246
3.941251897 -17.698665113 -0.060254262 0 231 246
3.938745859 -17.795546750 -0.056560669 0 231 246
3.937078162 -17.892467293 -0.055194129 0 231 246
3.936384605 -17.989434245 -0.056531809 0 231 246
3.935625893 -18.086398293 -0.057687442 0 231 246
3.934853989 -18.183361904 -0.058805333 0 231 246
3.935383426 -18.280389864 -0.063536218 0 231 246
3.936966740 -18.377471377 -0.071192883 0 231 246
3.937683375 -18.474511509 -0.076441537 0 230 249
3.936715764 -18.571468014 -0.077011559 0 230 249
3.934518266 -18.668362049 -0.074164752 0 230 249
3.931153447 -18.765195402 -0.068074830 0 231 246
3.926464756 -18.861958650 -0.058306956 0 231 246
3.921492068 -18.958704325 -0.047749131 0 231 246
3.919293939 -19.055592270 -0.044895917 0 231 246
3.921706281 -19.152722530 -0.054846360 0 231 246
3.925813794 -19.249945509 -0.069503856 0 231 246
3.926497947 -19.346989216 -0.074652489 0 230 249
3.922674144 -19.443791242 -0.067279794 0 231 246
3.918954284 -19.540596766 -0.060194606 0 231 246
3.917398390 -19.637518534 -0.059118426 0 231 246
3.917333346 -19.734521978 -0.062181825 0 231 246
3.914962715 -19.831398342 -0.058840546 0 231 246
3.906881172 -19.927954870 -0.039636421 0 231 246
3.907527809 -20.024996578 -0.044673089 0 231 246
3.907381734 -20.121994713 -0.047506958 0 231 246
3.912232790 -20.219278245 -0.064219165 0 231 246
3.918860014 -20.316668177 -0.085863709 0 230 249
3.933554255 -20.414529816 -0.129913527 0 230 249
3.733895239 -33.691576961 -0.008204542 0 231 246
3.668871884 -37.371982819 0.056075934 0 231 243
3.666110285 -38.730497352 0.021244978 0 231 243
3.654038457 -40.379099258 0.003474108 0 231 246
3.648886354 -40.475468182 0.014788563 0 231 243
3.644628226 -40.571957041 0.023618718 0 231 243
3.647652009 -40.669448934 0.012204143 0 231 243
3.648673411 -40.766666688 0.006357810 0 231 246
3.644959204 -40.863228478 0.013679076 0 231 243
3.639363909 -40.959526292 0.026231581 0 231 243
3.635922008 -41.056121262 0.032798107 0 231 243
3.636948172 -41.153339945 0.026942925 0 231 243
3.638680293 -41.250659330 0.019125959 0 231 243
3.637835970 -41.347618144 0.018473553 0 231 243
3.635567019 -41.444376008 0.021783288 0 231 243
3.632642244 -41.541040097 0.026917623 0 231 243
3.629665379 -41.637695342 0.032197942 0 231 243
3.628694267 -41.734634548 0.031902517 0 231 243
3.631101510 -41.832055901 0.022214803 0 231 243
3.635127904 -41.929711584 0.008026084 0 231 246
3.639598525 -42.027434900 -0.007396838 0 231 246
3.641837011 -42.124841355 -0.016612352 0 231 246
3.639749076 -42.221626290 -0.013797173 0 231 246
3.637585684 -42.318399506 -0.010771057 0 231 246
3.640495243 -42.415907485 -0.021849364 0 231 246
3.646704780 -42.513898304 -0.042102452 0 231 246
3.648768645 -42.611290349 -0.050827307 0 231 246
3.641597605 -42.707334971 -0.033872734 0 231 246
3.628627126 -42.802524972 -0.000791004 0 231 246
3.622149039 -42.898659744 0.014239338 0 231 243
3.611102818 -42.994117359 0.041973180 0 231 243
3.607398706 -43.090651729 0.049292658 0 231 243
3.611940715 -43.188405202 0.033683739 0 231 243
3.614717876 -43.285900940 0.022983215 0 231 243
3.624753295 -43.384480069 -0.007899173 0 231 246
3.625997453 -43.481755688 -0.014334996 0 231 246
3.620312307 -43.577996249 -0.001501454 0 231 246
3.614951952 -43.674281957 0.010430163 0 231 243
3.620007558 -43.772130876 -0.006600971 0 231 246
3.614556490 -43.868400265 0.005585178 0 231 246
3.605958997 -43.964190622 0.026521984 0 231 243
3.599394360 -44.060283245 0.041807185 0 231 243
3.598231502 -44.157192348 0.042072460 0 231 243
3.600712367 -44.254656376 0.032206391 0 231 243
3.602401802 -44.352002258 0.024542138 0 231 243
3.601764094 -44.448993975 0.023350283 0 231 243
3.601360029 -44.546021860 0.021509790 0 231 243
3.602445203 -44.643279373 0.015529033 0 231 243
3.603651214 -44.740557161 0.009213281 0 231 243
3.604470211 -44.837776833 0.003974807 0 231 246
3.605906568 -44.935093639 -0.002979429 0 231 246
3.606791316 -45.032326630 -0.008398663 0 231 246
3.605588456 -45.129235882 -0.008011393 0 231 246
3.603007027 -45.225929716 -0.003789318 0 231 246
3.600496648 -45.322633487 0.000236307 0 231 246
3.598789167 -45.419462135 0.002030246 0 231 246
3.596369891 -45.516178284 0.005804779 0 231 246
3.591967799 -45.612580660 0.015094618 0 231 243
3.585946233 -45.708724415 0.028889393 0 231 243
3.579290787 -45.804763877 0.044448219 0 231 243
3.572927303 -45.900845398 0.059196342 0 231 243
3.568216379 -45.997185993 0.069349876 0 231 243
3.567449474 -46.094153369 0.068536098 0 231 243
3.570979599 -46.191808570 0.055773105 0 231 243
3.576058005 -46.289715644 0.038705202 0 231 243
3.580661796 -46.387551116 0.022958180 0 231 243
3.584870084 -46.485327188 0.008312036 0 231 243
3.589502375 -46.583175803 -0.007512350 0 231 246
3.592883844 -46.680826222 -0.019857099 0 231 246
3.591749430 -46.777746976 -0.019641559 0 231 246
3.585732227 -46.873873149 -0.005845135 0 231 246
3.577193082 -46.969584159 0.014966458 0 231 243
3.569812363 -47.065478781 0.032557557 0 231 243
3.566660698 -47.162061541 0.038388100 0 231 243
3.567001860 -47.259216392 0.034505516 0 231 243
3.567948500 -47.356471994 0.028940025 0 231 243
3.567443235 -47.453489523 0.027413665 0 231 243
3.565144139 -47.550210744 0.030877472 0 231 243
3.562107069 -47.646808642 0.036394906 0 231 243
3.560509856 -47.743644279 0.037908849 0 231 243
3.562882696 -47.841140764 0.028382047 0 231 243
3.567588604 -47.939029387 0.012367286 0 231 243
3.569033571 -48.036376760 0.005423170 0 231 246
3.565731705 -48.132929900 0.011682572 0 231 243
3.560532252 -48.229162302 0.023220965 0 231 243
3.556113366 -48.325523020 0.032589530 0 231 243
3.553651936 -48.422211703 0.036514876 0 231 243
3.553526418 -48.519294672 0.033944296 0 231 243
3.555170620 -48.616678573 0.026452500 0 231 243
3.557570833 -48.714193086 0.016858951 0 231 243
3.559457506 -48.811622733 0.008694778 0 231 243
3.559495955 -48.908738953 0.005672331 0 231 246
3.557917784 -49.005579259 0.007147489 0 231 246
3.556423141 -49.102433481 0.008391429 0 231 243
3.556621476 -49.199578472 0.004927500 0 231 246
3.557786829 -49.296891075 -0.001225114 0 231 246
3.560390910 -49.394453884 -0.011378512 0 231 246
3.564160941 -49.492221341 -0.024774020 0 231 246
3.566118058 -49.589677966 -0.033125896 0 231 246
3.563479930 -49.686337863 -0.028694901 0 231 246
3.558638247 -49.782612519 -0.018133469 0 231 246
3.556112367 -49.879288709 -0.014012402 0 231 246
3.555492049 -49.976297301 -0.015190672 0 231 246
3.552547140 -50.072898427 -0.009901795 0 231 246
3.547741581 -50.169170968 0.000563818 0 231 246
3.545206703 -50.265840686 0.004714455 0 231 246
3.548298376 -50.363502783 -0.006784767 0 231 246
3.553570010 -50.461553836 -0.024346886 0 231 246
3.554131306 -50.558774376 -0.028805527 0 231 246
3.551687987 -50.655462125 -0.024905264 0 231 246
3.550443027 -50.752362244 -0.024337331 0 231 246
3.550487612 -50.849492394 -0.027355425 0 231 246
3.548082271 -50.946185111 -0.023557467 0 231 246
3.541333263 -51.042098065 -0.007675496 0 231 246
3.531109149 -51.137382282 0.017874554 0 231 243
3.526051798 -51.233589674 0.029053291 0 231 243
3.517125558 -51.329095906 0.050995562 0 231 243
3.518513937 -51.426461106 0.044246158 0 231 243
3.521435648 -51.524106015 0.033232375 0 231 243
3.533376942 -51.623391807 -0.002871138 0 231 246
3.538367220 -51.721422713 -0.019637444 0 231 246
3.536044332 -51.818124660 -0.016058830 0 231 246
3.529106627 -51.913982298 0.000358610 0 231 246
3.527985829 -52.010900624 0.000595497 0 231 246
3.523264149 -52.107158080 0.010850661 0 231 243
3.526664885 -52.204906389 -0.001488601 0 231 246
3.526058213 -52.301919623 -0.002678694 0 231 246
3.533634728 -52.400444361 -0.026632600 0 231 246
3.536844766 -52.498167705 -0.038438435 0 231 246
3.537370667 -52.595396582 -0.042776196 0 231 246
3.538673860 -52.692771102 -0.049275293 0 231 246
3.539301227 -52.790021581 -0.053893238 0 231 246
3.534407264 -52.886243096 -0.043149927 0 231 246
3.526106180 -52.981824579 -0.022926847 0 231 246
3.520033918 -53.077818068 -0.008903077 0 231 246
3.525645734 -53.176001361 -0.027383373 0 231 246
3.522533056 -53.272548394 -0.021590957 0 231 246
3.517564114 -53.368743885 -0.010633191 0 231 246
3.510993159 -53.464633718 0.004782658 0 231 246
3.505401359 -53.560704632 0.017475668 0 231 243
3.502129849 -53.657212141 0.023714653 0 231 243
3.501631649 -53.754245026 0.022239170 0 231 243
3.504360001 -53.851892813 0.011788146 0 231 243
3.508505421 -53.949813923 -0.002604343 0 231 246
3.510505785 -54.047328855 -0.011028047 0 231 246
3.509821780 -54.144331796 -0.011982427 0 231 246
3.509472117 -54.241399199 -0.013865919 0 231 246
3.510397746 -54.338712463 -0.019296427 0 231 246
3.510923611 -54.435950182 -0.023613678 0 231 246
3.511592884 -54.533216803 -0.028328872 0 231 246
3.513971722 -54.630815590 -0.037799398 0 231 246
3.516598957 -54.728465177 -0.047960022 0 231 246
3.517231420 -54.825730004 -0.052569718 0 231 246
3.516095583 -54.922651855 -0.052258510 0 231 246
3.514001931 -55.019386789 -0.049281312 0 231 246
3.510631889 -55.115871430 -0.042751720 0 231 246
3.506289343 -55.212163817 -0.033515189 0 231 246
3.500701535 -55.308209302 -0.020812778 0 231 246
3.493444456 -55.403923082 -0.003464713 0 231 246
3.487250262 -55.499841453 0.010927305 0 231 243
3.487668568 -55.597061039 0.006922277 0 231 246
3.495593482 -55.695766311 -0.017967785 0 231 246
3.505629696 -55.794896850 -0.048731422 0 231 246
3.512146695 -55.893337224 -0.069702448 0 231 246
3.510220871 -55.990103939 -0.067181275 0 231 246
3.503453259 -56.085904956 -0.051187140 0 231 246
3.498855384 -56.182134839 -0.041228897 0 231 246
3.498357246 -56.279182252 -0.042676742 0 231 246
3.499497556 -56.376558532 -0.048682416 0 231 246
3.500961757 -56.474001543 -0.055588279 0 231 246
3.501761939 -56.571312855 -0.060645498 0 231 246
3.500052379 -56.668119565 -0.058718345 0 231 246
3.496605466 -56.764574797 -0.051955891 0 231 246
3.493007646 -56.860997628 -0.044772383 0 231 246
3.490354494 -56.957610041 -0.040216291 0 231 246
3.489886288 -57.054665107 -0.041738780 0 231 246
3.491170522 -57.152077318 -0.048136460 0 231 246
3.492019661 -57.249402585 -0.053322435 0 231 246
3.491172615 -57.346382741 -0.053787596 0 231 246
3.489060781 -57.443104133 -0.050732276 0 231 246
3.487420601 -57.539921427 -0.048988273 0 231 246
3.486185105 -57.636821406 -0.048369251 0 231 246
3.484021011 -57.733530069 -0.045165185 0 231 246
3.481196505 -57.830101653 -0.040122308 0 231 246
3.479360418 -57.926876095 -0.037828733 0 231 246
3.479546902 -58.024068628 -0.041162215 0 231 246
3.480314739 -58.121382675 -0.046112368 0 231 246
3.479810235 -58.218433734 -0.047520936 0 231 246
3.477958355 -58.315204713 -0.045179066 0 231 246
3.475814561 -58.411914180 -0.042023771 0 231 246
3.474506726 -58.508797460 -0.041193622 0 231 246
3.473777867 -58.605801726 -0.041973526 0 231 246
3.472216969 -58.702631736 -0.040436983 0 231 246
3.470297425 -58.799385987 -0.037901304 0 231 246
3.468635360 -58.896193751 -0.036081032 0 231 246
3.465907772 -58.992776340 -0.031294508 0 231 246
3.461017667 -59.088900776 -0.020488955 0 231 246
3.457164548 -59.185241708 -0.012567975 0 231 246
3.458901706 -59.282765766 -0.020202733 0 231 246
3.462721952 -59.380734436 -0.033633426 0 231 246
3.465053022 -59.478389953 -0.042918974 0 231 246
3.465576765 -59.575662767 -0.047173934 0 231 246
3.463641618 -59.672411635 -0.044585000 0 231 246
3.459503870 -59.768688546 -0.035865311 0 231 246
3.456804326 -59.865271330 -0.031146872 0 231 246
3.455516316 -59.962155924 -0.030355522 0 231 246
3.452690898 -60.058709605 -0.025284544 0 231 246
3.447200991 -60.154687710 -0.012797248 0 231 246
3.450228251 -60.252501096 -0.024011864 0 231 246
3.460850750 -60.351960232 -0.056363009 0 231 246
3.467471138 -60.450561277 -0.077575472 0 230 249
3.400323337 -67.335221110 -0.085891223 0 230 249
3.340137864 -71.402654741 -0.031276737 0 231 246
3.187552742 -80.304132610 0.152818422 0 232 240
3.189029549 -80.401792824 0.146135579 0 232 240
3.198117017 -80.501711884 0.118252552 0 232 240
3.214837483 -80.603905245 0.069106822 0 231 243
3.233735715 -80.706759799 0.013894986 0 231 243
3.238471109 -80.805413327 -0.001862040 0 231 246
3.238724571 -80.902735242 -0.005132512 0 231 246
3.236572403 -80.999340084 -0.001700384 0 231 246
3.236106169 -81.096447904 -0.002963844 0 231 246
3.237892355 -81.194230178 -0.010501074 0 231 246
3.237656941 -81.291408846 -0.012405497 0 231 246
3.232476066 -81.387104327 -0.000531625 0 231 246
3.235054880 -81.485127688 -0.010273923 0 231 246
3.235236459 -81.582432721 -0.013336886 0 231 246
3.239513224 -81.680972076 -0.027807507 0 231 246
3.234739662 -81.776786170 -0.017063989 0 231 246
3.235319205 -81.874213761 -0.021232545 0 231 246
3.232511756 -81.970618524 -0.015964212 0 231 246
3.237809084 -82.069475461 -0.033274104 0 231 246
3.234344953 -82.165681496 -0.026174186 0 231 246
3.232811257 -82.262471516 -0.024451251 0 231 246
3.234559683 -82.360258527 -0.031871131 0 231 246
3.236929032 -82.458236588 -0.041019906 0 231 246
3.236285264 -82.555299255 -0.041773182 0 231 246
3.234110337 -82.651895108 -0.038259594 0 231 246
3.231643010 -82.748400734 -0.033930283 0 231 246
3.228881554 -82.844815267 -0.028780426 0 231 246
3.226109017 -82.941225036 -0.023598593 0 231 246
3.224332263 -83.037938731 -0.021189968 0 231 246
3.224642834 -83.135292591 -0.024595703 0 231 246
3.227734049 -83.233502141 -0.035747527 0 231 246
3.232759269 -83.332310048 -0.052286727 0 231 246
3.237451184 -83.431019898 -0.067896402 0 231 246
3.231146834 -83.526341463 -0.052868213 0 231 246
3.231712701 -83.623781239 -0.056980195 0 231 246
3.238515357 -83.723151272 -0.078467789 0 230 249
3.231693941 -83.818308097 -0.061995648 0 231 246
3.223375228 -83.912996136 -0.041350567 0 231 246
3.216789830 -84.008216636 -0.025533582 0 231 246
3.211458814 -84.103822730 -0.013210359 0 231 246
3.205967137 -84.199375461 -0.000438330 0 231 246
3.201144463 -84.295133185 0.010470876 0 231 243
3.200422576 -84.392167420 0.009955454 0 231 243
3.205591658 -84.491042167 -0.006972657 0 231 246
3.211550518 -84.590168699 -0.026100404 0 231 246
3.211170816 -84.687315564 -0.027566269 0 231 246
3.205608575 -84.782837888 -0.014591025 0 231 246
3.198973673 -84.878019918 0.001374154 0 231 246
3.193432865 -84.973541483 0.014292042 0 231 243
3.189626340 -85.069605328 0.022378810 0 231 243
3.187751077 -85.166275531 0.025085546 0 231 243
3.186611158 -85.263177035 0.025744425 0 231 243
3.185575425 -85.360111327 0.026114062 0 231 243
3.185017255 -85.457196611 0.025154078 0 231 243
3.185076120 -85.554477604 0.022475832 0 231 243
3.185508894 -85.651877942 0.018756749 0 231 243
3.187057008 -85.749633406 0.011930872 0 231 243
3.191087622 -85.848179779 -0.001811343 0 231 246
3.195197910 -85.946755380 -0.015774645 0 231 246
3.195694476 -86.044183655 -0.019667528 0 231 246
3.195259259 -86.141315864 -0.020963006 0 231 246
3.196141385 -86.238869191 -0.025928207 0 231 246
3.196509221 -86.336259519 -0.029459335 0 231 246
3.194318042 -86.432831677 -0.025858715 0 231 246
3.190053564 -86.528738378 -0.016479711 0 231 246
3.184968762 -86.624379295 -0.004813703 0 231 246
3.178690168 -86.719633487 0.010180024 0 231 243
3.174395577 -86.815521780 0.019646391 0 231 243
3.176588468 -86.913496866 0.011036012 0 231 243
3.181719986 -87.012421952 -0.005762148 0 231 246
3.185159692 -87.110805589 -0.017845006 0 231 246
3.184465256 -87.207856403 -0.018406656 0 231 246
3.181479191 -87.304165849 -0.012581339 0 231 246
3.178555155 -87.400493836 -0.006927774 0 231 246
3.176099611 -87.496972285 -0.002578634 0 231 246
3.175067098 -87.593911742 -0.002193919 0 231 246
3.177247739 -87.691895922 -0.010762195 0 231 246
3.180086568 -87.790096808 -0.021163671 0 231 246
3.180713727 -87.887579800 -0.025400916 0 231 246
3.177610675 -87.983846812 -0.019242097 0 231 246
3.172089922 -88.079322313 -0.006344684 0 231 246
3.168210006 -88.175330993 0.001981298 0 231 246
3.167537526 -88.272387775 0.001370052 0 231 246
3.168417063 -88.369953633 -0.003565273 0 231 246
3.168852294 -88.467375081 -0.007261411 0 231 246
3.169619531 -88.564906725 -0.011881769 0 231 246
3.168853362 -88.661935191 -0.012227811 0 231 246
3.164764584 -88.757869324 -0.003313282 0 231 246
3.158671848 -88.853140152 0.011187085 0 231 243
3.154003071 -88.948877182 0.021720269 0 231 243
3.151580149 -89.045353757 0.025995705 0 231 243
3.150531907 -89.142284163 0.026441165 0 231 243
3.149373141 -89.239177887 0.027195690 0 231 243
3.147773604 -89.335925248 0.029179656 0 231 243
3.147042449 -89.432960522 0.028744578 0 231 243
3.147855445 -89.530509412 0.024007103 0 231 243
3.149480685 -89.628330065 0.017006953 0 231 243
3.150351328 -89.725901235 0.012110809 0 231 243
3.150531207 -89.823243346 0.009140801 0 231 243
3.151091205 -89.920713322 0.005112426 0 231 246
3.149470338 -90.017455120 0.007163115 0 231 246
3.144115859 -90.112946317 0.019620467 0 231 243
3.137903075 -90.208146407 0.034471088 0 231 243
3.136175625 -90.304847696 0.036822125 0 231 243
3.138193799 -90.402806857 0.028735003 0 231 243
3.139975438 -90.500688763 0.021308088 0 231 243
3.139801437 -90.597914219 0.019332657 0 231 243
3.139787648 -90.695194302 0.016911722 0 231 243
3.141800847 -90.793159286 0.008842401 0 231 243
3.143868508 -90.891144977 0.000622256 0 231 246
3.144817559 -90.988754584 -0.004479222 0 231 246
3.142849751 -91.085377757 -0.001450021 0 231 246
3.138900821 -91.181328401 0.007101930 0 231 246
3.136362260 -91.277755502 0.011724076 0 231 243
3.138125150 -91.375643233 0.004358417 0 231 246
3.142747842 -91.474506083 -0.010977069 0 231 246
3.144257513 -91.572312882 -0.017635046 0 231 246
3.139802743 -91.668087652 -0.007667877 0 231 246
3.135014577 -91.763745897 0.003229677 0 231 246
3.133212472 -91.860421770 0.005805508 0 231 246
3.140703493 -91.960276836 -0.017519873 0 231 246
3.137382581 -92.056434719 -0.010708714 0 231 246
3.134889598 -92.152874708 -0.006204118 0 231 246
3.133940995 -92.249843745 -0.006003074 0 231 246
3.133410237 -92.346956411 -0.006965648 0 231 246
3.131922262 -92.443740022 -0.005259124 0 231 246
3.128433600 -92.539834000 0.002025030 0 231 246
3.123229484 -92.635334394 0.014091847 0 231 243
3.118715014 -92.731069612 0.024237529 0 231 243
3.115100642 -92.827113198 0.031875442 0 231 243
3.112028176 -92.923342248 0.038003967 0 231 243
3.109949321 -93.019913874 0.041364004 0 231 243
3.108756197 -93.116791814 0.042256221 0 231 243
3.110366707 -93.214642994 0.035334579 0 231 243
3.115151006 -93.313599330 0.019567192 0 231 243
3.120121062 -93.412624746 0.003282912 0 231 246
3.123956517 -93.511259493 -0.009837828 0 231 246
3.125119029 -93.608965760 -0.015506898 0 231 246
3.121554226 -93.705023186 -0.007997668 0 231 246
3.115670747 -93.800268161 0.005975971 0 231 246
3.110806119 -93.895865825 0.017110721 0 231 243
3.110214460 -93.992957268 0.016335616 0 231 243
3.115668644 -94.092169168 -0.001291460 0 231 246
3.124287365 -94.192497002 -0.027738959 0 231 246
3.130946775 -94.292143627 -0.048723965 0 231 246
3.132523058 -94.390007669 -0.055538535 0 231 246
3.130596190 -94.486639744 -0.052586794 0 231 246
3.124606351 -94.581838382 -0.038308050 0 231 246
3.114020877 -94.675410832 -0.011217286 0 231 246
3.103830658 -94.769115505 0.014772943 0 231 243
3.099979909 -94.865055800 0.023092300 0 231 243
3.102296533 -94.963178125 0.014220284 0 231 243
3.105180444 -95.061504110 0.003767815 0 231 246
3.105101789 -95.158781524 0.001574967 0 231 246
3.102733396 -95.255246003 0.005766214 0 231 246
3.099733227 -95.351484648 0.011719739 0 231 243
3.097089386 -95.447848592 0.016681015 0 231 243
3.095062043 -95.544430995 0.019924744 0 231 243
3.093878736 -95.641313776 0.020816585 0 231 243
3.093536006 -95.738496679 0.019366147 0 231 243
3.093379723 -95.835746730 0.017396960 0 231 243
3.094720664 -95.933533451 0.011254858 0 231 243
3.098788447 -96.032299305 -0.002488136 0 231 246
3.102866183 -96.131072609 -0.016257969 0 231 246
3.102434226 -96.228229926 -0.017454687 0 231 246
3.096265192 -96.323324670 -0.002656375 0 231 246
3.088350248 -96.417786888 0.017010434 0 231 243
3.083874904 -96.513483199 0.027089343 0 231 243
3.087413596 -96.612067806 0.014827288 0 231 243
3.096826737 -96.712777341 -0.013811125 0 231 246
3.102630747 -96.812190116 -0.032386884 0 231 246
3.098641990 -96.908064034 -0.023660440 0 231 246
3.089898525 -97.002212986 -0.001677126 0 231 246
3.081386699 -97.096439907 0.019661628 0 231 243
3.075049957 -97.191450670 0.034937596 0 231 243
3.072707152 -97.287908873 0.039079798 0 231 243
3.075405957 -97.386200340 0.029167196 0 231 243
3.081864690 -97.485864101 0.008772908 0 231 243
3.088435460 -97.585574438 -0.011932891 0 231 246
3.091637521 -97.684060994 -0.023245848 0 231 246
3.090868142 -97.781099623 -0.023485406 0 231 246
3.088340881 -97.877495385 -0.018822893 0 231 246
3.086129347 -97.974005521 -0.015039565 0 231 246
3.084805082 -98.070839900 -0.013728936 0 231 246
3.082257460 -98.167225077 -0.009006449 0 231 246
3.075415009 -98.262031398 0.007691480 0 231 246
3.067892289 -98.356582998 0.026287255 0 231 243
3.065362860 -98.452967533 0.030962364 0 231 243
3.068413924 -98.551407177 0.020079420 0 231 243
3.074306191 -98.650897956 0.001275736 0 231 246
3.079949086 -98.750301934 -0.016831805 0 231 246
3.083457295 -98.848921917 -0.028986622 0 231 246
3.083653506 -98.946319773 -0.031906077 0 231 246
3.080000791 -99.042292765 -0.024092986 0 231 246
3.074613465 -99.137620435 -0.011442342 0 231 246
3.070809950 -99.233532560 -0.003206559 0 231 246
3.070034107 -99.330567500 -0.003411517 0 231 246
3.071857623 -99.428569448 -0.010863093 0 231 246
3.074180869 -99.526759607 -0.019707081 0 231 246
3.074802663 -99.624318071 -0.023806017 0 231 246
3.073957964 -99.721330534 -0.023814967 0 231 246
3.072621440 -99.818159353 -0.022451532 0 231 246
3.070390502 -99.914653424 -0.018593157 0 231 246
3.066815159 -100.010643278 -0.010985084 0 231 246
3.063923706 -100.106887322 -0.005282824 0 231 246
3.064487700 -100.204425879 -0.009214467 0 231 246
3.067773845 -100.302987642 -0.020735449 0 231 246
3.069164927 -100.400840415 -0.026971368 0 231 246
3.069718851 -100.498380014 -0.030872000 0 231 246
3.071449778 -100.596364039 -0.038053591 0 231 246
3.076576117 -100.695630213 -0.054702018 0 231 246
3.080104518 -100.794298019 -0.066893847 0 231 246
3.078731358 -100.891117551 -0.065417072 0 231 246
3.075962156 -100.987408793 -0.060046468 0 231 246
3.074873803 -101.084334899 -0.059361765 0 231 246
3.075487685 -101.181905925 -0.063422669 0 231 246
3.074875402 -101.279013016 -0.064063438 0 231 246
3.071896454 -101.375221680 -0.058103742 0 231 246
3.072303495 -101.472715780 -0.061584837 0 231 246
3.077451885 -101.572014953 -0.078286307 0 230 249
3.074492338 -101.668230676 -0.072377614 0 230 249
3.061602461 -101.760658710 -0.038776612 0 231 246
3.048427589 -101.852968701 -0.004379548 0 231 246
3.042936434 -101.948204696 0.008592227 0 231 243
3.045515286 -102.046523348 -0.000938789 0 231 246
3.050645977 -102.145821592 -0.017584931 0 231 246
3.054527629 -102.244645882 -0.030747114 0 231 246
3.055684018 -102.342428502 -0.036308644 0 231 246
3.055316959 -102.439627755 -0.037620853 0 231 246
3.054817995 -102.536776731 -0.038564214 0 231 246
3.051974218 -102.633023855 -0.032967657 0 231 246
3.043934378 -102.727268270 -0.012879869 0 231 246
3.044403477 -102.824787592 -0.016519685 0 231 246
3.043206916 -102.921665181 -0.015513473 0 231 246
3.047290504 -103.020582280 -0.029231072 0 231 246
3.045894940 -103.117384518 -0.027667898 0 231 246
3.050880557 -103.216656386 -0.043899157 0 231 246
3.053009975 -103.314826147 -0.052164302 0 231 246
3.049646027 -103.410867651 -0.045108773 0 231 246
3.041642143 -103.505105850 -0.025112387 0 231 246
3.041871269 -103.602538114 -0.028074965 0 231 246
3.036611355 -103.697835948 -0.015728675 0 231 246
3.037892772 -103.795677609 -0.021623843 0 231 246
3.043461297 -103.895192029 -0.039474064 0 231 246
3.047988237 -103.994305065 -0.054418610 0 231 246
3.048458240 -104.091837820 -0.058048051 0 231 246
3.044622624 -104.187688356 -0.049668685 0 231 246
3.039434167 -104.283007202 -0.037515303 0 231 246
3.038083880 -104.379826238 -0.036065048 0 231 246
3.044036996 -104.479508683 -0.054982286 0 231 246
3.050638521 -104.579450942 -0.075707036 0 230 249
3.046831768 -104.675309732 -0.067402950 0 231 246
3.035551852 -104.768227264 -0.038255505 0 231 246
3.027627656 -104.862457775 -0.018465741 0 231 246
3.028511968 -104.960153834 -0.023241466 0 231 246
3.035400832 -105.060219693 -0.044762828 0 231 246
3.040705841 -105.159666243 -0.061865992 0 231 246
3.041112678 -105.257181785 -0.065307239 0 231 246
3.038385818 -105.353458648 -0.060007538 0 231 246
3.036104902 -105.449910683 -0.055950523 0 231 246
3.035772890 -105.547134142 -0.057328043 0 231 246
3.036865513 -105.644923279 -0.062677949 0 231 246
3.040081723 -105.743557339 -0.073949730 0 230 249
3.045993518 -105.843266180 -0.092738817 0 230 249
3.050049793 -105.942241940 -0.106351824 0 230 249
3.046578293 -106.038223135 -0.098968118 0 230 249
3.036250716 -106.131468821 -0.072460863 0 230 249
3.024263762 -106.224044963 -0.041324113 0 231 246
3.015985636 -106.318094089 -0.020530541 0 231 246
3.015077683 -106.415084540 -0.020292387 0 231 246
3.020070967 -106.514436942 -0.036512809 0 231 246
3.026718354 -106.614456600 -0.057345970 0 231 246
3.029774600 -106.713041967 -0.068161883 0 231 246
3.026244566 -106.808986583 -0.060606318 0 231 246
3.019700651 -106.903718180 -0.044643268 0 231 246
3.016354403 -106.999731454 -0.037598117 0 231 246
3.017893055 -107.097709357 -0.044177112 0 231 246
3.022568960 -107.196953334 -0.059505785 0 231 246
3.027133058 -107.296156525 -0.074521717 0 230 249
3.026365237 -107.393211252 -0.074664493 0 230 249
3.020406667 -107.488168363 -0.060327670 0 231 246
3.012897976 -107.582494502 -0.041665921 0 231 246
3.006119586 -107.677111206 -0.025040033 0 231 246
3.001936789 -107.772775303 -0.015652976 0 231 246
3.002217277 -107.870247482 -0.018714511 0 231 246
3.006212484 -107.969228970 -0.032136779 0 231 246
3.010788101 -108.068450146 -0.047177137 0 231 246
3.014050480 -108.167141281 -0.058553479 0 231 246
3.015803768 -108.265221089 -0.065719441 0 231 246
3.016875102 -108.363024968 -0.070982196 0 231 246
3.015532970 -108.459845668 -0.069511787 0 231 246
3.011740699 -108.555665404 -0.061205819 0 231 246
3.007855015 -108.651444699 -0.052638188 0 231 246
3.004785334 -108.747555541 -0.046345681 0 231 246
3.002318942 -108.843911763 -0.041734967 0 231 246
3.000754320 -108.940636423 -0.039638680 0 231 246
2.999924325 -109.037661988 -0.039590611 0 231 246
2.999175742 -109.134721026 -0.039768623 0 231 246
2.998910981 -109.231979063 -0.041295266 0 231 246
2.999673104 -109.329660125 -0.045685448 0 231 246
3.001212997 -109.427662801 -0.052244293 0 231 246
3.003059882 -109.525793912 -0.059658561 0 231 246
3.004476753 -109.623749686 -0.065872322 0 231 246
3.005202889 -109.721421937 -0.070158256 0 231 246
3.005049816 -109.818731941 -0.071990562 0 230 249
3.002378635 -109.915000475 -0.066797303 0 231 246
2.997729406 -110.010448305 -0.056084949 0 231 246
2.995345568 -110.106832412 -0.051691128 0 231 246
2.996791182 -110.204804480 -0.057979133 0 231 246
2.996189612 -110.301928017 -0.058555204 0 231 246
2.991018393 -110.397151922 -0.046382381 0 231 246
2.983188408 -110.491266075 -0.026791273 0 231 246
2.975248318 -110.585328971 -0.006891816 0 231 246
2.970992619 -110.680922460 0.002730396 0 231 246
2.973247105 -110.779230038 -0.005808004 0 231 246
2.980377849 -110.879576801 -0.027949014 0 231 246
2.987773201 -110.980040392 -0.050827408 0 231 246
2.993624966 -111.079864452 -0.069398738 0 231 246
2.996604118 -111.178490517 -0.079955243 0 230 249
2.995852450 -111.275555450 -0.080102589 0 230 249
2.993130558 -111.371793709 -0.074752367 0 230 249
2.990302934 -111.467986117 -0.069106110 0 231 246
2.988691772 -111.564688408 -0.066852528 0 231 246
2.987978658 -111.661768010 -0.067103337 0 231 246
2.986539697 -111.758542016 -0.065328124 0 231 246
2.986654754 -111.855970697 -0.067887403 0 231 246
2.991305078 -111.955313813 -0.083098596 0 230 249
2.997526817 -112.055324879 -0.102693012 0 230 249
3.001585134 -112.154426891 -0.116250832 0 230 249
3.002233287 -112.252089815 -0.120293654 0 230 249
3.000875054 -112.348904191 -0.118737808 0 230 249
2.998856400 -112.445438230 -0.115338392 0 230 249
2.996396428 -112.541784127 -0.110706680 0 230 249
2.994414728 -112.638331887 -0.107408284 0 230 249
2.995611423 -112.736229773 -0.112976544 0 230 249
2.998985347 -112.835055542 -0.124618327 0 230 249
3.000901959 -112.933264019 -0.132193282 0 230 249
3.000732553 -113.030585543 -0.133947249 0 230 249
2.999941998 -113.127642610 -0.133967190 0 230 249
2.998309988 -113.224340428 -0.131638419 0 230 249
2.992599582 -113.319294603 -0.117929622 0 230 249
2.984637553 -113.413281830 -0.097937481 0 230 249
2.980347238 -113.508835621 -0.088188578 0 230 249
2.980622433 -113.606343278 -0.091176836 0 230 249
2.983642915 -113.705029357 -0.101823790 0 230 249
2.986820056 -113.803785694 -0.112906934 0 230 249
2.985711725 -113.900703643 -0.112032088 0 230 249
2.976735962 -113.994237624 -0.089204866 0 230 249
2.966527235 -114.087234528 -0.062936248 0 231 246
2.965728420 -114.184278652 -0.062921754 0 231 246
2.973323088 -114.284942598 -0.086325707 0 230 249
2.983214299 -114.386604392 -0.116136699 0 230 249
2.988582766 -114.486320521 -0.133327505 0 230 249
2.985920445 -114.582568757 -0.128109695 0 230 249
2.980965236 -114.677823191 -0.116493117 0 230 249
2.977631100 -114.773776685 -0.109398638 0 230 249
2.977008431 -114.870903908 -0.109868819 0 230 249
2.980191317 -114.969682821 -0.120956576 0 230 249
2.985212930 -115.069263532 -0.137174020 0 230 249
2.987378947 -115.167607316 -0.145422617 0 230 249
2.986542385 -115.264646889 -0.145292125 0 230 249
2.987035240 -115.362265463 -0.148870145 0 230 249
2.989275660 -115.460646861 -0.157323505 0 230 252
2.989616910 -115.558202032 -0.160476574 0 230 252
2.985398853 -115.653767108 -0.150906508 0 230 252
2.978391390 -115.748110371 -0.133551840 0 230 249
2.970660426 -115.842132338 -0.114177155 0 230 249
2.964026605 -115.936629346 -0.097862769 0 230 249
2.958287833 -116.031514105 -0.084044798 0 230 249
2.944512765 -116.122870096 -0.047800937 0 231 246
2.918290149 -116.208751351 0.023178496 0 231 243
2.888182654 -116.292905879 0.105000190 0 232 240
2.858100496 -116.377048848 0.186752938 0 232 237
2.811793194 -116.454027142 0.313783503 0 233 234
2.791058566 -116.542236678 0.369455682 0 233 231
2.783458407 -116.636222498 0.388477455 0 233 231
2.780206287 -116.732122045 0.395367085 0 233 231
2.777698279 -116.828348410 0.400181305 0 233 231
2.773540462 -116.923844058 0.409600443 0 234 228
2.764798227 -117.017308482 0.431813783 0 234 228
2.763324701 -117.113986042 0.433744431 0 234 228
2.771527062 -117.214952260 0.408674665 0 234 228
2.786307932 -117.318844180 0.365247674 0 233 231
2.805455403 -117.424687242 0.309635790 0 233 234
2.822025274 -117.529400194 0.261217530 0 233 234
2.830841377 -117.630677490 0.234437804 0 232 237
2.838434005 -117.731417546 0.211073126 0 232 237
2.843864973 -117.831200870 0.193741703 0 232 237
2.841869918 -117.927677039 0.197134751 0 232 237
2.831999236 -118.020636713 0.222507259 0 232 237
2.808360355 -118.107438069 0.286303943 0 233 234
2.793932349 -118.198340489 0.324397278 0 233 234
2.789938434 -118.293902141 0.333373247 0 233 231
2.789871127 -118.391220210 0.331392149 0 233 231
2.792454911 -118.489727418 0.322013492 0 233 234
2.799997336 -118.590462282 0.298797341 0 233 234
2.810516229 -118.692540375 0.267275315 0 233 234
2.812158602 -118.790637343 0.260526513 0 233 234
2.804123432 -118.884382490 0.280786765 0 233 234
2.791391055 -118.976007034 0.314157241 0 233 234
2.777864582 -119.067264466 0.349745203 0 233 231
2.768009648 -119.160168055 0.375087801 0 233 231
2.768162696 -119.257582542 0.372500802 0 233 231
2.780057140 -119.360302765 0.337146101 0 233 231
2.784960049 -119.459871225 0.321304608 0 233 234
2.776645956 -119.553462164 0.342351194 0 233 231
2.770291963 -119.647935172 0.357928514 0 233 231
2.774341844 -119.747120694 0.344470618 0 233 231
2.777194845 -119.845766890 0.334354002 0 233 231
2.778162605 -119.943559748 0.329499890 0 233 231
2.782193043 -120.042746080 0.316098932 0 233 234
2.791012431 -120.144114772 0.289333045 0 233 234
2.801554895 -120.246275472 0.257758837 0 233 234
2.803915417 -120.344716466 0.249021082 0 233 234
2.802600145 -120.441483430 0.250543400 0 233 234
2.801127337 -120.538178085 0.252506410 0 233 234
2.800428380 -120.635225763 0.252310593 0 233 234
2.794363437 -120.729819911 0.267092461 0 233 234
2.788984006 -120.824723691 0.279962156 0 233 234
2.791024404 -120.923022410 0.272123709 0 233 234
2.794900959 -121.022165057 0.259161322 0 233 234
2.793840549 -121.119046229 0.259979343 0 233 234
2.785968684 -121.212799427 0.279809857 0 233 234
2.778610136 -121.306783044 0.298208809 0 233 234
2.776292789 -121.403080362 0.302538270 0 233 234
2.777142358 -121.500834411 0.298029443 0 233 234
2.777334588 -121.598286871 0.295356303 0 233 234
2.774251768 -121.694229862 0.301825347 0 233 234
2.769367926 -121.789339865 0.313322421 0 233 234
2.766606341 -121.885426982 0.318896959 0 233 234
2.762550016 -121.980914016 0.328086424 0 233 231
2.754939709 -122.074754139 0.347196907 0 233 231
2.753411609 -122.171405477 0.349331704 0 233 231
2.760872705 -122.272222391 0.326376462 0 233 231
2.766642788 -122.372261333 0.308142060 0 233 234
2.762745618 -122.467817458 0.316892390 0 233 234
2.749718075 -122.559128957 0.351129241 0 233 231
2.742285336 -122.653032619 0.369750643 0 233 231
2.741917413 -122.750219103 0.368653125 0 233 231
2.747701905 -122.850271649 0.350383227 0 233 231
2.757743314 -122.952313781 0.320231683 0 233 234
2.766449290 -123.053741247 0.293808514 0 233 234
2.773405535 -123.154359035 0.272270220 0 233 234
2.774776707 -123.252372682 0.266322728 0 233 234
2.768475615 -123.346799437 0.281792395 0 233 234
2.758630061 -123.439562672 0.307157183 0 233 234
2.748657717 -123.532259469 0.332877110 0 233 231
2.739742503 -123.625444812 0.355647366 0 233 231
2.744103339 -123.724854081 0.341359607 0 233 231
2.745892264 -123.823059384 0.334252056 0 233 231
2.746306792 -123.920620628 0.330982001 0 233 231
2.746740115 -124.018191638 0.327660439 0 233 231
2.744255321 -124.114389629 0.332485707 0 233 231
2.748379725 -124.213700714 0.318862458 0 233 234
2.750965263 -124.312289852 0.309535831 0 233 234
2.750138601 -124.409271033 0.309735334 0 233 234
2.750479914 -124.506803911 0.306675383 0 233 234
2.750978158 -124.604411846 0.303178311 0 233 234
2.751434947 -124.702001152 0.299797918 0 233 234
2.754009992 -124.800594521 0.290505219 0 233 234
2.753847470 -124.897893035 0.288855569 0 233 234
2.745783617 -124.991444170 0.309264210 0 233 234
2.740001013 -125.086072592 0.323305671 0 233 234
2.728193204 -125.177834498 0.354168330 0 233 231
2.723062961 -125.272762986 0.366390935 0 233 231
2.730819346 -125.373820631 0.342639723 0 233 231
2.742865252 -125.476927874 0.306914405 0 233 234
2.733001023 -125.569601357 0.332355649 0 233 231
2.705369764 -125.653792028 0.407398042 0 234 228
2.690429996 -125.744021229 0.447011304 0 234 228
2.694048685 -125.843107122 0.434816084 0 234 228
