ply
format ascii 1.0
comment coordinate_system ground
comment units millimeter
element vertex 948
property double x
property double y
property double z
property uchar red
property uchar green
property uchar blue
comment color_mapping zg_high_contrast_from_zg
comment color_zg_range_mm -0.234825725 20.056911451
end_header
4.030405985 -1.024601023 0.270245643 0 232 237
4.029908691 -1.121510049 0.268171801 0 232 237
4.023074762 -1.218535001 0.283682149 0 232 237
3.999420146 -1.315855714 0.345868551 0 233 234
3.987378872 -1.412956237 0.375831309 0 233 234
3.990479946 -1.509789645 0.363777409 0 233 234
3.982075340 -1.606818333 0.383651448 0 233 234
3.975982912 -1.703803631 0.397110739 0 233 234
3.973779736 -1.800723073 0.399778950 0 233 231
3.972363346 -1.897629369 0.400265031 0 233 231
3.965706880 -1.994614820 0.415293127 0 233 231
3.957805478 -2.091614346 0.433777131 0 233 231
3.959132104 -2.188475727 0.426654963 0 233 231
3.972978699 -2.285163443 0.384791183 0 233 234
3.985657540 -2.381878474 0.346168621 0 233 234
3.989499491 -2.478721071 0.332069234 0 233 234
3.988520239 -2.575629413 0.331349764 0 233 234
3.985484193 -2.672563452 0.336339080 0 233 234
3.983637295 -2.769481555 0.338029619 0 233 234
3.985211410 -2.866358948 0.330227773 0 233 234
3.988609098 -2.963217665 0.317366419 0 232 237
3.986947637 -3.060135146 0.318545641 0 232 237
3.983558049 -3.157070386 0.324521724 0 233 234
3.976013650 -3.254046101 0.342029062 0 233 234
3.973806765 -3.350964519 0.344725401 0 233 234
3.978386876 -3.447818140 0.328588000 0 233 234
3.985474209 -3.544653413 0.305493633 0 232 237
3.987478723 -3.641538845 0.296505840 0 232 237
3.982147045 -3.738487209 0.307878356 0 232 237
3.973759504 -3.835456338 0.327732719 0 233 234
3.966812225 -3.932409019 0.343591367 0 233 234
3.962071552 -4.029341457 0.353327463 0 233 234
3.960030384 -4.126252874 0.355573005 0 233 234
3.961535178 -4.223141007 0.347978751 0 233 234
3.963115553 -4.320030623 0.340175784 0 233 234
3.958825643 -4.416954973 0.348665533 0 233 234
3.948561782 -4.513907844 0.373735940 0 233 234
3.939082382 -4.610849848 0.396630590 0 233 234
3.937217123 -4.707751650 0.398394913 0 233 234
3.939619286 -4.804635544 0.388316858 0 233 234
3.941053211 -4.901525605 0.380927020 0 233 234
3.942234336 -4.998418373 0.374239839 0 233 234
3.945919155 -5.095305584 0.360605024 0 233 234
3.950956105 -5.192193008 0.343218510 0 233 234
3.953411217 -5.289090565 0.332998578 0 233 234
3.952395303 -5.385996834 0.332413195 0 233 234
3.949709566 -5.482905374 0.336463397 0 233 234
3.946239681 -5.579813398 0.342691112 0 233 234
3.944160863 -5.676718719 0.345059163 0 233 234
3.946180462 -5.773622370 0.336053334 0 233 234
3.950322955 -5.870528723 0.321156480 0 233 234
3.951536956 -5.967437399 0.314388613 0 232 237
3.947128643 -6.064342489 0.323226579 0 233 234
3.939281878 -6.161240420 0.341609244 0 233 234
3.928982049 -6.258128919 0.366801771 0 233 234
3.915852216 -6.355004375 0.399850477 0 233 231
3.905099689 -6.451876428 0.426302262 0 233 231
3.901786588 -6.548762289 0.432106732 0 233 231
3.904798087 -6.645666904 0.420357885 0 233 231
3.909777473 -6.742581749 0.403147968 0 233 231
3.914241732 -6.839499128 0.387368797 0 233 234
3.916849087 -6.936412554 0.376744669 0 233 234
3.916779645 -7.033315973 0.373551386 0 233 234
3.917844627 -7.130225975 0.367210420 0 233 234
3.921879442 -7.227154044 0.352627232 0 233 234
3.927402657 -7.324094814 0.333913693 0 233 234
3.933997217 -7.421047367 0.312227358 0 232 237
3.940570431 -7.518005618 0.290601179 0 232 237
3.942178133 -7.614934540 0.282758801 0 232 237
3.932772698 -7.711783286 0.305487047 0 232 237
3.916121716 -7.808568743 0.348328472 0 233 234
3.902544672 -7.905367507 0.382638901 0 233 234
3.900158850 -8.002253038 0.385886428 0 233 234
3.900798082 -8.099164739 0.380738182 0 233 234
3.902111672 -8.196084040 0.373719119 0 233 234
3.905187294 -8.293022336 0.361810020 0 233 234
3.902893571 -8.389909284 0.364806328 0 233 234
3.895448780 -8.486741004 0.382102353 0 233 234
3.891251447 -8.583603242 0.390385179 0 233 234
3.891494649 -8.680513218 0.386342839 0 233 234
3.893179693 -8.777441009 0.378299185 0 233 234
3.893677051 -8.874356544 0.373553470 0 233 234
3.892209512 -8.971248781 0.374263212 0 233 234
3.892877074 -9.068168076 0.369047192 0 233 234
3.893208524 -9.165084224 0.364765266 0 233 234
3.889606956 -9.261947916 0.371402291 0 233 234
3.890362345 -9.358870559 0.365945730 0 233 234
3.881952224 -9.455662869 0.385933514 0 233 234
3.876173057 -9.552488323 0.398619098 0 233 234
3.872330464 -9.649339437 0.405929974 0 233 231
3.872510291 -9.746250813 0.402075713 0 233 231
3.880584565 -9.843288658 0.376307270 0 233 234
3.892328590 -9.940393253 0.340352283 0 233 234
3.897571462 -10.037399265 0.322445671 0 233 234
3.891261105 -10.134213051 0.336612639 0 233 234
3.882714908 -10.230983789 0.356987758 0 233 234
3.887747109 -10.327990745 0.339669160 0 233 234
3.902302236 -10.425175717 0.295914759 0 232 237
3.925136536 -10.522526548 0.229176988 0 232 240
3.948834611 -10.619912077 0.160041723 0 231 243
3.979123562 -10.717444157 0.072609596 0 231 246
4.018202838 -10.815173796 -0.039225705 0 230 249
4.048596165 -10.912759414 -0.126947186 0 230 252
4.061146846 -11.010003223 -0.165133695 0 229 255
4.062257017 -11.107018435 -0.171558188 0 229 255
4.060661804 -11.203977726 -0.170470874 0 229 255
4.060377165 -11.300964964 -0.173020897 0 229 255
4.062218336 -11.397999628 -0.181471612 0 229 255
4.063655427 -11.495027430 -0.188799459 0 229 255
4.061540484 -11.591976095 -0.186264825 0 229 255
4.057351828 -11.688875825 -0.177971817 0 229 255
4.053747313 -11.785786900 -0.171299365 0 229 255
4.050543057 -11.882705584 -0.165736977 0 229 255
4.045968515 -11.979589235 -0.156369050 0 229 255
4.039580819 -12.076425323 -0.141965973 0 230 252
4.032874440 -12.173249292 -0.126676860 0 230 252
4.028923309 -12.270139149 -0.119036080 0 230 252
4.031906974 -12.367206238 -0.130647780 0 230 252
4.039626292 -12.464400782 -0.155406544 0 230 252
4.046918949 -12.561590668 -0.178979844 0 229 255
4.049377128 -12.658656252 -0.189129681 0 229 255
4.046242215 -12.755571171 -0.183749616 0 229 255
4.040160464 -12.852402550 -0.170186621 0 229 255
4.035544139 -12.949271348 -0.160691086 0 229 255
4.035592929 -13.046270658 -0.164146943 0 229 255
4.038328889 -13.143348589 -0.175062632 0 229 255
4.040644578 -13.240417079 -0.184810425 0 229 255
4.041171124 -13.337434962 -0.189589600 0 229 255
4.040261223 -13.434410797 -0.190379364 0 229 255
4.038968122 -13.531375038 -0.190104043 0 229 255
4.038060125 -13.628350962 -0.190896869 0 229 255
4.037784008 -13.725346725 -0.193443049 0 229 255
4.038419783 -13.822371913 -0.198520087 0 229 255
4.039319578 -13.919406832 -0.204329137 0 229 255
4.040008149 -14.016436384 -0.209550640 0 229 255
4.041051067 -14.113478872 -0.215754965 0 229 255
4.042214331 -14.210526939 -0.222292394 0 229 255
4.041837113 -14.307524995 -0.224551383 0 229 255
4.039845186 -14.404468745 -0.222325764 0 229 255
4.037212980 -14.501389776 -0.218321154 0 229 255
4.033584680 -14.598275003 -0.211549539 0 229 255
4.027529350 -14.695073062 -0.198037582 0 229 255
4.019121010 -14.791783787 -0.177990720 0 229 255
4.020093174 -14.888825227 -0.183989744 0 229 255
4.020903749 -14.985862345 -0.189539015 0 229 255
4.015145319 -15.082660268 -0.176846649 0 229 255
4.016553001 -15.179719786 -0.184051743 0 229 255
4.017543005 -15.276765554 -0.190095987 0 229 255
4.019680920 -15.373856237 -0.199326698 0 229 255
4.018932970 -15.470839218 -0.200542860 0 229 255
4.019970023 -15.567891219 -0.206714572 0 229 255
4.012068689 -15.664596829 -0.188064712 0 229 255
4.009690624 -15.761514306 -0.184750892 0 229 255
4.009199374 -15.858505650 -0.186675369 0 229 255
4.006784789 -15.955420314 -0.183257868 0 229 255
4.004567396 -16.052341892 -0.180386802 0 229 255
4.008761360 -16.149524462 -0.195318367 0 229 255
4.016968167 -16.246876507 -0.221392330 0 229 255
4.020623306 -16.344046211 -0.234825725 0 229 255
4.015793324 -16.440863122 -0.224695356 0 229 255
4.006589754 -16.537491736 -0.202418466 0 229 255
3.998796658 -16.634174399 -0.184057102 0 229 255
3.996418417 -16.731085538 -0.180731461 0 229 255
3.999148228 -16.828218031 -0.191589766 0 229 255
4.002414684 -16.925376980 -0.203937336 0 229 255
4.002516881 -17.022399034 -0.207496656 0 229 255
4.001782963 -17.119384591 -0.208732967 0 229 255
4.003128674 -17.216464110 -0.215743430 0 229 255
4.004334874 -17.313539111 -0.222365414 0 229 255
4.003958483 -17.410543281 -0.224591351 0 229 255
4.000818053 -17.507420184 -0.219140181 0 229 255
3.994344804 -17.604140128 -0.204432224 0 229 255
3.988671801 -17.700893498 -0.191945397 0 229 255
3.985473580 -17.797760548 -0.186330151 0 229 255
3.984158458 -17.894715871 -0.185943395 0 229 255
3.984545846 -17.991752942 -0.190283677 0 229 255
3.985936839 -18.088839804 -0.197410078 0 229 255
3.986686481 -18.185897154 -0.202754278 0 229 255
3.985119454 -18.282841668 -0.201663541 0 229 255
3.983462027 -18.379781278 -0.200320619 0 229 255
3.983421560 -18.476801358 -0.203467249 0 229 255
3.983213056 -18.573813721 -0.206146115 0 229 255
3.982194180 -18.670785522 -0.206573274 0 229 255
3.981206034 -18.767758906 -0.207084672 0 229 255
3.980712435 -18.864757840 -0.208968457 0 229 255
3.979477137 -18.961718630 -0.208791228 0 229 255
3.976698045 -19.058598417 -0.204325275 0 229 255
3.974944052 -19.155530937 -0.202705203 0 229 255
3.973916935 -19.252501525 -0.203102786 0 229 255
3.972868558 -19.349470978 -0.203440212 0 229 255
3.971694442 -19.446433640 -0.203427304 0 229 255
3.970591783 -19.543400071 -0.203611746 0 229 255
3.969036843 -19.640341719 -0.202538910 0 229 255
3.966263719 -19.737215897 -0.198081553 0 229 255
3.963218265 -19.834073638 -0.192866663 0 229 255
3.961305462 -19.930993062 -0.190796477 0 229 255
3.960253512 -20.027960195 -0.191116134 0 229 255
3.958476216 -20.124886264 -0.189420058 0 229 255
3.954431723 -20.221682583 -0.181425761 0 229 255
3.949947135 -20.318451344 -0.172207912 0 229 255
3.949916532 -20.415474645 -0.175359828 0 229 255
3.955386103 -20.512818432 -0.193787490 0 229 255
3.960494368 -20.610146072 -0.211210679 0 229 255
3.960674323 -20.707188167 -0.214944320 0 229 255
3.957525848 -20.804033881 -0.209431976 0 229 255
3.954390289 -20.900878740 -0.203954340 0 229 255
3.951466767 -20.997734716 -0.199064490 0 229 255
3.945542401 -21.094407890 -0.185838336 0 229 255
3.937536835 -21.190950734 -0.166830178 0 229 255
3.931129189 -21.287586015 -0.152259143 0 230 252
3.927687895 -21.384399850 -0.145926310 0 230 252
3.926974848 -21.481380902 -0.147170424 0 230 252
3.929278397 -21.578550292 -0.156792535 0 229 255
3.933297889 -21.675829899 -0.171179964 0 229 255
3.935728039 -21.773013065 -0.181151713 0 229 255
3.934513287 -21.869967420 -0.180997981 0 229 255
3.929303129 -21.966666371 -0.169745016 0 229 255
3.922070881 -22.063232146 -0.152874006 0 230 252
3.915138478 -22.159812547 -0.136834608 0 230 252
3.918953311 -22.257087433 -0.150647188 0 230 252
3.916192526 -22.353935829 -0.146193210 0 230 252
3.915322527 -22.450907329 -0.146990277 0 230 252
3.915450862 -22.547945039 -0.150559412 0 230 252
3.914341923 -22.644901265 -0.150690552 0 230 252
3.912145883 -22.741784638 -0.147800804 0 230 252
3.911296546 -22.838757814 -0.148650838 0 230 252
3.911565800 -22.935806894 -0.152607052 0 230 252
3.911420083 -23.032828708 -0.155409458 0 230 252
3.910573739 -23.129803213 -0.156264521 0 229 255
3.908730089 -23.226709164 -0.154348068 0 230 252
3.906261997 -23.323571240 -0.150695843 0 230 252
3.905310270 -23.420537830 -0.151254811 0 230 252
3.906061339 -23.517623738 -0.156542928 0 229 255
3.907241554 -23.614741239 -0.163022133 0 229 255
3.906805158 -23.711745978 -0.165009401 0 229 255
3.904813616 -23.808640470 -0.162675424 0 229 255
3.904704107 -23.905668926 -0.165568575 0 229 255
3.906929309 -24.002866089 -0.174946472 0 229 255
3.907957925 -24.099979195 -0.180999216 0 229 255
3.906698631 -24.196927499 -0.180695028 0 229 255
3.904035687 -24.293773011 -0.176490323 0 229 255
3.900622896 -24.390562164 -0.170201352 0 229 255
3.897147266 -24.487344847 -0.163736638 0 229 255
3.894919777 -24.584218343 -0.160738188 0 229 255
3.896152266 -24.681349193 -0.167350746 0 229 255
3.901004759 -24.778753392 -0.184019024 0 229 255
3.905062688 -24.876102193 -0.198478954 0 229 255
3.903476824 -24.973027120 -0.197258687 0 229 255
3.896278822 -25.069524080 -0.180445940 0 229 255
3.887346249 -25.165883494 -0.158813000 0 229 255
3.879668671 -25.262333412 -0.140665335 0 230 252
3.874529348 -25.358974521 -0.129568137 0 230 252
3.872267096 -25.455836079 -0.126462808 0 230 252
3.872245011 -25.552871657 -0.129580009 0 230 252
3.873187473 -25.649983719 -0.135375860 0 230 252
3.874370066 -25.747116240 -0.141837800 0 230 252
3.875609582 -25.844254976 -0.148456838 0 230 252
3.877241683 -25.941426726 -0.156165535 0 229 255
3.878762827 -26.038591647 -0.163564928 0 229 255
3.878862988 -26.135644273 -0.167015367 0 229 255
3.877487758 -26.232578572 -0.166365634 0 229 255
3.876648804 -26.329556142 -0.167204733 0 229 255
3.876042316 -26.426552824 -0.168688598 0 229 255
3.874290816 -26.523456007 -0.166990122 0 229 255
3.871032534 -26.620234587 -0.161104128 0 229 255
3.865734776 -26.716842766 -0.149550534 0 230 252
3.858521693 -26.813288511 -0.132674197 0 230 252
3.851891215 -26.909778145 -0.117415300 0 230 252
3.848545473 -27.006538959 -0.111281512 0 230 252
3.849464255 -27.103657288 -0.116995242 0 230 252
3.852916887 -27.200991573 -0.129748078 0 230 252
3.855839760 -27.298284267 -0.141028014 0 230 252
3.855585155 -27.395308636 -0.143478416 0 230 252
3.851678219 -27.492020279 -0.135779785 0 230 252
3.845740745 -27.588554739 -0.122438125 0 230 252
3.839928822 -27.685096301 -0.109444071 0 230 252
3.835585700 -27.781761890 -0.100529882 0 230 252
3.833304058 -27.878604957 -0.097342398 0 230 252
3.832944971 -27.975615693 -0.099495693 0 230 252
3.833653742 -28.072721022 -0.104615012 0 230 252
3.833939703 -28.169790283 -0.108558459 0 230 252
3.830996020 -28.266573566 -0.103526973 0 230 252
3.824708439 -28.363056952 -0.089202954 0 230 252
3.820089083 -28.459685826 -0.079513047 0 230 252
3.818434275 -28.556578802 -0.078059328 0 230 252
3.819187575 -28.653688994 -0.083295765 0 230 252
3.820070322 -28.750812314 -0.088890832 0 230 252
3.820808415 -28.847923922 -0.094082895 0 230 252
3.821770635 -28.945057414 -0.099896680 0 230 252
3.822448944 -29.042166340 -0.104920506 0 230 252
3.822330741 -29.139203050 -0.107729996 0 230 252
3.821717465 -29.236194571 -0.109162731 0 230 252
3.820962848 -29.333173260 -0.110201621 0 230 252
3.819047161 -29.430043636 -0.108013084 0 230 252
3.817101815 -29.526910552 -0.105741003 0 230 252
3.816938441 -29.623944710 -0.108419500 0 230 252
3.818515677 -29.721144249 -0.115933706 0 230 252
3.819570971 -29.818296207 -0.121996501 0 230 252
3.818661050 -29.915262300 -0.122597266 0 230 252
3.816143925 -30.012074552 -0.118730779 0 230 252
3.820177428 -30.109515607 -0.133066335 0 230 252
3.815080449 -30.206079019 -0.122028592 0 230 252
3.810131588 -30.302653669 -0.111401233 0 230 252
3.805604612 -30.399266368 -0.101945033 0 230 252
3.803286368 -30.496092184 -0.098625481 0 230 252
3.804298549 -30.593243686 -0.104559752 0 230 252
3.806678182 -30.690531419 -0.114293019 0 230 252
3.807980542 -30.787715285 -0.121031594 0 230 252
3.806541731 -30.884628916 -0.120151540 0 230 252
3.800684295 -30.981102036 -0.106991156 0 230 252
3.792744176 -31.077363163 -0.088041804 0 230 252
3.786206224 -31.173759753 -0.072987774 0 230 249
3.782685753 -31.270456209 -0.066318090 0 230 249
3.782269567 -31.367464792 -0.068274108 0 230 249
3.784268793 -31.464719131 -0.076941549 0 230 252
3.787098808 -31.562060488 -0.087916767 0 230 252
3.788593878 -31.659268233 -0.095181090 0 230 252
3.789070105 -31.756373292 -0.099612935 0 230 252
3.789300293 -31.853454152 -0.103359953 0 230 252
3.789736399 -31.950557294 -0.107678165 0 230 252
3.790546139 -32.047700373 -0.113033683 0 230 252
3.789450050 -32.144646214 -0.113091602 0 230 252
3.783300340 -32.241063290 -0.099103690 0 230 252
3.774673315 -32.337216301 -0.078229697 0 230 252
3.769605784 -32.433738617 -0.067246824 0 230 249
3.770564532 -32.530895267 -0.073010862 0 230 249
3.775181643 -32.628441825 -0.088941148 0 230 252
3.779899380 -32.726003453 -0.105150142 0 230 252
3.781542453 -32.823240737 -0.112813014 0 230 252
3.779424363 -32.920076460 -0.110021698 0 230 252
3.777335989 -33.016914554 -0.107311836 0 230 252
3.776533168 -33.113890786 -0.108173729 0 230 252
3.775124669 -33.210801504 -0.107351180 0 230 252
3.771375513 -33.307457154 -0.100022155 0 230 252
3.766673290 -33.404006611 -0.090043093 0 230 252
3.763636558 -33.500735823 -0.084691753 0 230 252
3.762578716 -33.597681186 -0.084839238 0 230 252
3.763719224 -33.694869208 -0.091095584 0 230 252
3.767396031 -33.792339863 -0.104400160 0 230 252
3.771695458 -33.889883355 -0.119434247 0 230 252
3.771109546 -33.986886026 -0.120889152 0 230 252
3.766775726 -34.083469553 -0.111926048 0 230 252
3.762032499 -34.180004565 -0.101823841 0 230 252
3.758332413 -34.276654287 -0.094619764 0 230 252
3.757554117 -34.373632361 -0.095535431 0 230 252
3.762257090 -34.471232572 -0.111684912 0 230 252
3.770437937 -34.569233155 -0.137500057 0 230 252
3.776666672 -34.667017832 -0.157888499 0 229 255
3.775397029 -34.763948640 -0.157434374 0 229 255
3.766762379 -34.860032266 -0.136508090 0 230 252
3.757922631 -34.956086386 -0.115010425 0 230 252
3.751682722 -35.052435498 -0.100737775 0 230 252
3.747475669 -35.149016741 -0.092114292 0 230 252
3.742993515 -35.245563488 -0.082724961 0 230 252
3.738576088 -35.342115155 -0.073514349 0 230 249
3.739563463 -35.439298267 -0.079325633 0 230 252
3.744776442 -35.536980274 -0.096881338 0 230 252
3.750132205 -35.634683951 -0.114832992 0 230 252
3.752751278 -35.732068345 -0.125176747 0 230 252
3.751176894 -35.828957163 -0.123863214 0 230 252
3.744997267 -35.925296469 -0.109747608 0 230 252
3.736029244 -36.021298277 -0.087879961 0 230 252
3.730306803 -36.117683467 -0.075032664 0 230 249
3.729073595 -36.214605505 -0.074662811 0 230 249
3.728640305 -36.311624001 -0.076515384 0 230 252
3.727950024 -36.408611829 -0.077652507 0 230 252
3.729994092 -36.505932262 -0.086389287 0 230 252
3.734197431 -36.603518340 -0.101127261 0 230 252
3.737456401 -36.700992944 -0.113239162 0 230 252
3.737690752 -36.798099749 -0.116942328 0 230 252
3.734455922 -36.894780546 -0.111000861 0 230 252
3.729123472 -36.991200673 -0.099227276 0 230 252
3.723880886 -37.087628628 -0.087702280 0 230 252
3.721615804 -37.184423258 -0.084453001 0 230 252
3.724165266 -37.281816927 -0.094586228 0 230 252
3.729847695 -37.379604989 -0.113427624 0 230 252
3.734931996 -37.477323225 -0.130605385 0 230 252
3.733138403 -37.574181122 -0.128662515 0 230 252
3.725276746 -37.670272908 -0.109849977 0 230 252
3.718094511 -37.766445423 -0.092924882 0 230 252
3.722601138 -37.864096839 -0.108492574 0 230 252
3.719337466 -37.960763277 -0.102458433 0 230 252
3.718380110 -38.057722512 -0.102834554 0 230 252
3.719161626 -38.154904526 -0.108043565 0 230 252
3.715935077 -38.251573044 -0.102109225 0 230 252
3.708032874 -38.347637423 -0.083175489 0 230 252
3.701171293 -38.443831008 -0.067133391 0 230 249
3.698400095 -38.540550306 -0.062461341 0 230 249
3.701263499 -38.638000793 -0.073452461 0 230 249
3.707742793 -38.735925756 -0.094494890 0 230 252
3.710783754 -38.833406862 -0.105977685 0 230 252
3.709323162 -38.930300692 -0.104944884 0 230 252
3.703336584 -39.026598839 -0.091328391 0 230 252
3.693979639 -39.122448536 -0.068340741 0 230 249
3.685812399 -39.218449247 -0.048659270 0 230 249
3.683871585 -39.315270701 -0.046286694 0 230 249
3.691186554 -39.413323238 -0.069645264 0 230 249
3.704831689 -39.512227069 -0.110601722 0 230 252
3.715412257 -39.610732005 -0.143037499 0 230 252
3.713361598 -39.707550319 -0.140355532 0 230 252
3.703155096 -39.803269910 -0.114997707 0 230 252
3.693345143 -39.899035985 -0.090741022 0 230 252
3.691099834 -39.995819490 -0.087514292 0 230 252
3.694081503 -40.093311761 -0.098818596 0 230 252
3.694045656 -40.190396263 -0.101732497 0 230 252
3.689565697 -40.286874720 -0.092289586 0 230 252
3.684633563 -40.383288614 -0.081588320 0 230 252
3.683507686 -40.480222166 -0.081468293 0 230 252
3.684411799 -40.577435179 -0.086991122 0 230 252
3.685365543 -40.674656542 -0.092650893 0 230 252
3.687832069 -40.772088912 -0.102515628 0 230 252
3.694351556 -40.870086747 -0.123647922 0 230 252
3.701300432 -40.968150188 -0.145973166 0 230 252
3.701166176 -41.065230812 -0.148603896 0 230 252
3.695889682 -41.161592182 -0.136936230 0 230 252
3.689575571 -41.257804619 -0.122382381 0 230 252
3.684125706 -41.354134664 -0.110230235 0 230 252
3.681544101 -41.450866205 -0.106051810 0 230 252
3.682831731 -41.548144236 -0.112630351 0 230 252
3.684187985 -41.645433800 -0.119398660 0 230 252
3.682365236 -41.742272785 -0.117326877 0 230 252
3.679955216 -41.839027364 -0.113621089 0 230 252
3.679192089 -41.936016536 -0.114493313 0 230 252
3.679780197 -42.033199784 -0.119121536 0 230 252
3.680274041 -42.130370726 -0.123486604 0 230 252
3.678939323 -42.227279097 -0.122766269 0 230 252
3.676592539 -42.324040871 -0.119230745 0 230 252
3.673009126 -42.420622317 -0.112255591 0 230 252
3.666321862 -42.516750523 -0.096648839 0 230 252
3.658095516 -42.612650016 -0.076761315 0 230 252
3.652694646 -42.708956962 -0.064728969 0 230 249
3.651340859 -42.805853649 -0.063948710 0 230 249
3.650207171 -42.902782436 -0.063779352 0 230 249
3.648030640 -42.999557520 -0.060709139 0 230 249
3.647901646 -43.096634159 -0.063331255 0 230 249
3.651566057 -43.194273260 -0.076500421 0 230 252
3.655562322 -43.291965255 -0.090591387 0 230 252
3.656986840 -43.389278300 -0.097530198 0 230 252
3.657199873 -43.486412438 -0.101099212 0 230 252
3.656916197 -43.583473219 -0.103285962 0 230 252
3.656062580 -43.680449084 -0.103886791 0 230 252
3.653959745 -43.777237213 -0.101012789 0 230 252
3.650825785 -43.873869048 -0.095270370 0 230 252
3.647217772 -43.970427611 -0.088208571 0 230 252
3.644627234 -44.067138399 -0.083974969 0 230 252
3.644659479 -44.164246493 -0.087033614 0 230 252
3.645118014 -44.261420346 -0.091276616 0 230 252
3.645460380 -44.358577614 -0.095195516 0 230 252
3.645917716 -44.455753547 -0.099433067 0 230 252
3.646188740 -44.552902039 -0.103151459 0 230 252
3.646154127 -44.650004515 -0.106018855 0 230 252
3.645500546 -44.747012292 -0.107163918 0 230 252
3.642542529 -44.843664027 -0.101899547 0 230 252
3.636292843 -44.939804021 -0.087480261 0 230 252
3.628173288 -45.035649425 -0.067859822 0 230 249
3.621058473 -45.131645904 -0.051032191 0 230 249
3.619277821 -45.228470751 -0.049037227 0 230 249
3.621487690 -45.325919772 -0.058138551 0 230 249
3.622950910 -45.423254114 -0.065162467 0 230 249
3.621886920 -45.520192787 -0.065157261 0 230 249
3.624877225 -45.617770850 -0.076425878 0 230 252
3.618195182 -45.713822854 -0.060794761 0 230 249
3.615791595 -45.810548569 -0.057060813 0 230 249
3.619478036 -45.908240736 -0.070262232 0 230 249
3.624039862 -46.006075949 -0.085897153 0 230 252
3.623465107 -46.103095489 -0.087246052 0 230 252
3.616551783 -46.199101083 -0.070965922 0 230 249
3.607892951 -46.294822164 -0.049830150 0 230 249
3.602708238 -46.391095988 -0.038354907 0 230 249
3.599156021 -46.487629739 -0.031418596 0 230 249
3.592198379 -46.583611373 -0.015010247 0 230 249
3.633109070 -46.978704128 -0.140545256 0 230 252
3.389943430 -66.652335081 -0.037986798 0 230 249
3.392383515 -66.750115814 -0.047498148 0 230 249
3.388350526 -66.846332024 -0.038988277 0 230 249
3.384240758 -66.942527293 -0.030263504 0 230 249
3.388132381 -67.040663572 -0.043812665 0 230 249
3.397522571 -67.140141266 -0.072668426 0 230 249
3.407348885 -67.239733259 -0.102737519 0 230 252
3.410219983 -67.337636280 -0.113442907 0 230 252
3.404568489 -67.433459170 -0.100420809 0 230 252
3.396683267 -67.528731647 -0.081178888 0 230 252
3.388226834 -67.623858770 -0.060345472 0 230 249
3.379540605 -67.718923723 -0.038871031 0 230 249
3.373060918 -67.814525502 -0.023538345 0 230 249
3.373241096 -67.911763753 -0.026745637 0 230 249
3.378676734 -68.010299666 -0.044583266 0 230 249
3.382441882 -68.108427740 -0.057769264 0 230 249
3.384521182 -68.206142241 -0.066260811 0 230 249
3.386880804 -68.303928627 -0.075531804 0 230 249
3.389347229 -68.401744140 -0.085099155 0 230 252
3.392694234 -68.499781318 -0.097117147 0 230 252
3.396232352 -68.597869465 -0.109666259 0 230 252
3.398886933 -68.695740740 -0.119754538 0 230 252
3.397762021 -68.792670631 -0.119319206 0 230 252
3.393162381 -68.888731020 -0.109208629 0 230 252
3.389228680 -68.984955529 -0.100950967 0 230 252
3.386592620 -69.081503479 -0.096305015 0 230 252
3.384091927 -69.178084209 -0.092034837 0 230 252
3.380978097 -69.274509435 -0.086056446 0 230 252
3.378867064 -69.371185892 -0.082868932 0 230 252
3.379396795 -69.468528376 -0.087032810 0 230 252
3.380611093 -69.566045192 -0.093101659 0 230 252
3.379999913 -69.663101338 -0.094086891 0 230 252
3.378752583 -69.759996416 -0.093299847 0 230 252
3.377566907 -69.856906983 -0.092683384 0 230 252
3.376034553 -69.953729206 -0.091100594 0 230 252
3.374300487 -70.050499627 -0.088955087 0 230 252
3.373422697 -70.147488044 -0.089192635 0 230 252
3.374051967 -70.244861797 -0.093625273 0 230 252
3.375166634 -70.342361085 -0.099408400 0 230 252
3.376432593 -70.439900809 -0.105611760 0 230 252
3.378690333 -70.537696959 -0.114575594 0 230 252
3.381684861 -70.635685111 -0.125589948 0 230 252
3.382178350 -70.733032227 -0.129639440 0 230 252
3.376355901 -70.828751427 -0.116101715 0 230 252
3.367346064 -70.923643559 -0.093687740 0 230 252
3.360128210 -71.018993114 -0.076262153 0 230 249
3.355838763 -71.115096602 -0.066989345 0 230 249
3.352594441 -71.211468748 -0.060625494 0 230 249
3.348058916 -71.307503641 -0.050665184 0 230 249
3.343637893 -71.403565615 -0.041022541 0 230 249
3.344366752 -71.500967193 -0.045718615 0 230 249
3.348968095 -71.599380913 -0.061196666 0 230 249
3.354748604 -71.698107210 -0.079957218 0 230 252
3.358154723 -71.796217158 -0.092105284 0 230 252
3.356726048 -71.893062944 -0.090789628 0 230 252
3.351687158 -71.988960499 -0.079419987 0 230 252
3.344547077 -72.084302440 -0.062198229 0 230 249
3.335751388 -72.179203672 -0.040365040 0 230 249
3.334658290 -72.276130236 -0.039979290 0 230 249
3.329773638 -72.372055362 -0.029034418 0 230 249
3.329346472 -72.469156476 -0.030500853 0 230 249
3.333057545 -72.567354180 -0.043489779 0 230 249
3.330736498 -72.663955415 -0.039680339 0 230 249
3.337909006 -72.763077624 -0.062306269 0 230 249
3.343825234 -72.861871935 -0.081432993 0 230 252
3.343100715 -72.958902341 -0.082066330 0 230 252
3.334937694 -73.053948300 -0.061984491 0 230 249
3.330398231 -73.149956941 -0.051992024 0 230 249
3.322122557 -73.244963114 -0.031594012 0 230 249
3.317911990 -73.341052999 -0.022515065 0 230 249
3.316950890 -73.438012423 -0.022483975 0 230 249
3.318970548 -73.535772938 -0.030752577 0 230 249
3.324183544 -73.634395206 -0.047912975 0 230 249
3.330910994 -73.733430446 -0.069289931 0 230 249
3.333845317 -73.831447901 -0.080102844 0 230 252
3.327867752 -73.927059652 -0.066096673 0 230 249
3.317768606 -74.021551975 -0.040611334 0 230 249
3.310300206 -74.116750363 -0.022450947 0 230 249
3.306531611 -74.212948052 -0.014592807 0 230 249
3.306355609 -74.310120183 -0.016738486 0 230 249
3.308111494 -74.407818848 -0.024263227 0 230 249
3.310267187 -74.505628637 -0.032900403 0 230 249
3.312175057 -74.603373219 -0.040846427 0 230 249
3.314930565 -74.701351776 -0.051152079 0 230 249
3.318768113 -74.799629460 -0.064470189 0 230 249
3.322307635 -74.897829184 -0.076957367 0 230 252
3.325375195 -74.995902853 -0.088129193 0 230 252
3.324903148 -75.093006566 -0.089442289 0 230 252
3.319891805 -75.188861003 -0.078112382 0 230 252
3.313375230 -75.284297369 -0.062589204 0 230 249
3.310023512 -75.380603226 -0.055879037 0 230 249
3.312151258 -75.478422144 -0.064428280 0 230 249
3.315504298 -75.576582705 -0.076389051 0 230 252
3.313789446 -75.673341634 -0.074234441 0 230 249
3.306039033 -75.768424413 -0.055269222 0 230 249
3.297600920 -75.863310797 -0.034387448 0 230 249
3.289819618 -75.958374295 -0.015333705 0 230 249
3.283839296 -76.053934638 -0.001294661 0 230 249
3.282787701 -76.150867075 -0.000981590 0 230 249
3.286760263 -76.249203993 -0.014660466 0 230 249
3.290040768 -76.347351022 -0.026410916 0 230 249
3.288686513 -76.444202124 -0.025251808 0 230 249
3.285009297 -76.540400874 -0.017621743 0 230 249
3.282974485 -76.637059236 -0.014564968 0 230 249
3.283824286 -76.734528774 -0.019541359 0 230 249
3.285264501 -76.832166165 -0.026161171 0 230 249
3.284879447 -76.929290251 -0.027696173 0 230 249
3.282287398 -77.025791024 -0.023083089 0 230 249
3.279976648 -77.122370187 -0.019252392 0 230 249
3.281089185 -77.219918551 -0.024955400 0 230 249
3.283959059 -77.317967284 -0.035552093 0 230 249
3.284173356 -77.415264328 -0.038751237 0 230 249
3.282623126 -77.512060175 -0.037034582 0 230 249
3.280982574 -77.608829860 -0.035065273 0 230 249
3.279219928 -77.705564214 -0.032754806 0 230 249
3.277345215 -77.802265959 -0.030131115 0 230 249
3.276771117 -77.899339161 -0.031129025 0 230 249
3.277670719 -77.996834916 -0.036230703 0 230 249
3.278035975 -78.094178841 -0.039843001 0 230 249
3.275977619 -78.190827572 -0.036703525 0 230 249
3.272874363 -78.287174906 -0.030652473 0 230 249
3.272793792 -78.384391302 -0.033019792 0 230 249
3.277061127 -78.482862504 -0.047496933 0 230 249
3.283448960 -78.581950224 -0.067879712 0 230 249
3.286752441 -78.680151630 -0.079670240 0 230 252
3.282780490 -78.776249429 -0.071194207 0 230 249
3.274270615 -78.871029015 -0.050076648 0 230 249
3.264247217 -78.965363321 -0.024741896 0 230 249
3.254499511 -79.059770815 -0.000173794 0 230 249
3.247816986 -79.155063947 0.015857421 0 231 246
3.247697070 -79.252265866 0.013609362 0 231 246
3.252334815 -79.350857287 -0.001890433 0 230 249
3.255721040 -79.449087245 -0.013903104 0 230 249
3.256503138 -79.546558399 -0.018660798 0 230 249
3.257018097 -79.643952638 -0.022673335 0 230 249
3.258314534 -79.741577377 -0.028861748 0 230 249
3.258016609 -79.838735394 -0.030607856 0 230 249
3.255926903 -79.935366752 -0.027361662 0 230 249
3.255175352 -80.032391510 -0.027842018 0 230 249
3.256791242 -80.130114863 -0.034916224 0 230 249
3.257813829 -80.227664978 -0.040336685 0 230 249
3.257404739 -80.324793197 -0.041767926 0 230 249
3.258259412 -80.422296149 -0.046718595 0 230 249
3.261268515 -80.520439427 -0.057669891 0 230 249
3.262855326 -80.618163470 -0.064658107 0 230 249
3.261142128 -80.714908340 -0.062452338 0 230 249
3.258533182 -80.811385984 -0.057750156 0 230 249
3.257294971 -80.908270990 -0.056865426 0 230 249
3.258138622 -81.005777206 -0.061779253 0 230 249
3.258273111 -81.103072896 -0.064716486 0 230 249
3.256901903 -81.199918871 -0.063458099 0 230 249
3.256327569 -81.297003330 -0.064418595 0 230 249
3.255950090 -81.394147176 -0.065926450 0 230 249
3.254251242 -81.490894540 -0.063752126 0 230 249
3.250906570 -81.587146293 -0.056991684 0 230 249
3.246749612 -81.683151580 -0.047967193 0 230 249
3.243502736 -81.779428877 -0.041476947 0 230 249
3.241225194 -81.875997131 -0.037686058 0 230 249
3.237791274 -81.972214765 -0.030672505 0 230 249
3.231323888 -82.067512183 -0.015206808 0 230 249
3.234149293 -82.165622188 -0.025629088 0 230 249
3.230913683 -82.261895593 -0.019164696 0 230 249
3.229953196 -82.358858654 -0.019037607 0 230 249
3.228702804 -82.455733526 -0.018101791 0 230 249
3.226214064 -82.552230916 -0.013714879 0 230 249
3.224377626 -82.648926133 -0.011144192 0 230 249
3.225829819 -82.746625167 -0.017734618 0 230 249
3.230049168 -82.845172351 -0.032033436 0 230 249
3.235160422 -82.943996672 -0.048816223 0 230 249
3.232127971 -83.040328872 -0.042909270 0 230 249
3.233186461 -83.137915344 -0.048398862 0 230 249
3.230308715 -83.234293517 -0.042920764 0 230 249
3.236012132 -83.333311139 -0.061349523 0 230 249
3.230828128 -83.428979048 -0.049443833 0 230 249
3.238276112 -83.528541057 -0.072731264 0 230 249
3.241620012 -83.626841769 -0.084583319 0 230 252
3.236334210 -83.722476638 -0.072390788 0 230 249
3.233065159 -83.818732749 -0.065816086 0 230 249
3.224126152 -83.913228980 -0.043442773 0 230 249
3.221185403 -84.009581295 -0.037780478 0 230 249
3.222157354 -84.107148358 -0.043018651 0 230 249
3.224152469 -84.205035379 -0.051106576 0 230 249
3.223727579 -84.302170576 -0.052450836 0 230 249
3.218061249 -84.397670833 -0.039190141 0 230 249
3.213071498 -84.493378831 -0.027813391 0 230 249
3.211213694 -84.590063347 -0.025161924 0 230 249
3.209929831 -84.686926928 -0.024108539 0 230 249
3.206275063 -84.783046868 -0.016448057 0 230 249
3.200965660 -84.878645285 -0.004176130 0 230 249
3.196921046 -84.974637915 0.004572855 0 231 246
3.195434476 -85.071433231 0.006195417 0 231 246
3.196156950 -85.168924228 0.001663884 0 230 249
3.198859095 -85.267041105 -0.008382713 0 230 249
3.202058687 -85.365317960 -0.019814421 0 230 249
3.203432434 -85.463020605 -0.026157679 0 230 249
3.202930904 -85.560131271 -0.027274682 0 230 249
3.200454979 -85.656616356 -0.022889168 0 230 249
3.196754244 -85.752711506 -0.015089726 0 230 249
3.194351443 -85.849217045 -0.010905772 0 230 249
3.194154337 -85.946423321 -0.012866781 0 230 249
3.193878484 -86.043605116 -0.014607335 0 230 249
3.191960605 -86.140263702 -0.011771391 0 230 249
3.191321547 -86.237329959 -0.012497787 0 230 249
3.192980559 -86.335131263 -0.019626715 0 230 249
3.193485242 -86.432565076 -0.023538108 0 230 249
3.190427949 -86.528858373 -0.017522943 0 230 249
3.186714908 -86.624939633 -0.009679408 0 230 249
3.084029015 -96.513538734 0.026659703 0 231 246
-4.133452900 -97.694074181 20.056911451 255 0 168
-3.988173179 -97.843262945 19.649539900 255 10 150
-4.074696389 -97.905282901 19.888544467 255 4 161
-4.080305113 -97.997735052 19.901922460 255 2 164
-4.084139724 -98.090852934 19.910354464 255 2 164
-4.084900654 -98.185129449 19.910216531 255 2 164
-4.084465407 -98.279858313 19.906744034 255 2 164
-4.087198773 -98.373388967 19.912108360 255 2 164
-4.094711625 -98.465107439 19.930801652 255 2 164
-4.101028129 -98.557274484 19.946160031 255 2 164
-4.103760550 -98.650797954 19.951525039 255 2 164
-4.104155360 -98.745208328 19.950372447 255 2 164
-4.103439745 -98.840041491 19.946124315 255 2 164
-4.101954616 -98.935168916 19.939731273 255 2 164
-4.100918948 -99.030126844 19.934592577 255 2 164
-4.101630542 -99.124419553 19.934327357 255 2 164
-4.103655440 -99.218210766 19.937725524 255 2 164
-4.105355542 -99.312125273 19.940218986 255 2 164
-4.105903423 -99.406480132 19.939500297 255 2 164
-4.106455218 -99.500833746 19.938793535 255 2 164
-4.106703252 -99.595304105 19.937240683 255 2 164
-4.105312221 -99.690404175 19.931117916 255 2 164
-4.103561976 -99.785644038 19.923994355 255 2 164
-4.103569214 -99.880209887 19.921772939 255 2 164
-4.106244475 -99.973749072 19.926993023 255 2 164
-4.111001592 -100.066484425 19.938020020 255 2 164
-4.115220127 -100.159424571 19.947546138 255 2 164
-4.116219285 -100.253605501 19.948095131 255 2 164
-4.115548419 -100.348431971 19.943987744 255 2 164
-4.115748804 -100.442922468 19.942311111 255 2 164
-4.116472054 -100.537210938 19.942093672 255 2 164
-4.116343756 -100.631829723 19.939502393 255 2 164
-4.115308725 -100.726801232 19.934383342 255 2 164
-4.114683140 -100.821615130 19.930407157 255 2 164
-4.114853888 -100.916120469 19.928652846 255 2 164
-4.115617392 -101.010395580 19.928552674 255 2 164
-4.117058149 -101.104406843 19.930342327 255 2 164
-4.118875380 -101.198270803 19.933182975 255 2 164
-4.120733194 -101.292118180 19.936137848 255 2 164
-4.123541622 -101.385593226 19.941744991 255 2 164
-4.129406634 -101.477870872 19.955877946 255 2 164
-4.138113703 -101.569031581 19.977938520 255 0 168
-4.144835945 -101.660964320 19.994464621 255 0 168
-4.145038270 -101.755451031 19.992807727 255 0 168
-4.141273379 -101.851496583 19.980087149 255 0 168
-4.138821039 -101.947029641 19.971028225 255 2 164
-4.138586658 -102.041692330 19.968156241 255 2 164
-4.139096575 -102.136062642 19.967361142 255 2 164
-4.138912415 -102.230706937 19.964631209 255 2 164
-4.136950256 -102.326053887 19.956943257 255 2 164
-4.134737585 -102.421502008 19.948557542 255 2 164
-4.134032584 -102.516356206 19.944377834 255 2 164
-4.134182818 -102.610873027 19.942584463 255 2 164
-4.134539815 -102.705308460 19.941368782 255 2 164
-4.135181347 -102.799631413 19.940947712 255 2 164
-4.137273805 -102.893378423 19.944574535 255 2 164
-4.140198608 -102.986793660 19.950523965 255 2 164
-4.142771529 -103.080347287 19.955492993 255 2 164
-4.145667794 -103.173770819 19.961364954 255 2 164
-4.148800927 -103.267098352 19.967898659 255 2 164
-4.151929569 -103.360425912 19.974420907 255 2 164
-4.153497906 -103.454374877 19.976592146 255 2 164
-4.153497410 -103.548950471 19.974388528 255 2 164
-4.153112009 -103.643680751 19.971112291 255 2 164
-4.151965332 -103.738716922 19.965713614 255 2 164
-4.149353834 -103.834341945 19.956230072 255 2 164
-4.146291596 -103.930150547 19.945490192 255 2 164
-4.144461322 -104.025467285 19.938187576 255 2 164
-4.144780842 -104.119921667 19.936882409 255 2 164
-4.148220300 -104.213120721 19.944280848 255 2 164
-4.155116709 -104.304925046 19.961323072 255 2 164
-4.157108831 -104.398702405 19.964686542 255 2 164
-4.161918419 -104.491341605 19.975910069 255 2 164
-4.159920071 -104.586728403 19.968144617 255 2 164
-4.154445708 -104.683523198 19.950684040 255 2 164
-4.150428137 -104.779733165 19.937287932 255 2 164
-4.154796184 -104.872549039 19.947283918 255 2 164
-4.154587827 -104.967218321 19.944515326 255 2 164
-4.155151602 -105.061574954 19.943901550 255 2 164
-4.155362567 -105.156075174 19.942304624 255 2 164
-4.153769777 -105.251309565 19.935677119 255 2 164
-4.150722486 -105.347138030 19.924993216 255 2 164
-4.148210968 -105.442751169 19.915804773 255 2 164
-4.149163555 -105.536953851 19.916280493 255 2 164
-4.153281954 -105.629863840 19.925588406 255 2 164
-4.158664077 -105.722254819 19.938422646 255 2 164
-4.157162172 -105.817458376 19.932054510 255 2 164
-4.160840804 -105.910542503 19.940138874 255 2 164
-4.163573243 -106.004012230 19.945584821 255 2 164
-4.163026101 -106.098825903 19.941883065 255 2 164
-4.158801596 -106.195150677 19.927923817 255 2 164
-4.155920474 -106.290927225 19.917712997 255 2 164
-4.164727494 -106.381898126 19.940108923 255 2 164
-4.202290200 -106.461021550 20.042724765 255 0 168
3.003852674 -109.818237011 -0.068651003 0 230 249
2.996657204 -109.912632868 -0.050836665 0 230 249
2.986046769 -110.005609342 -0.023494641 0 230 249
2.991124314 -110.105082327 -0.039915313 0 230 249
2.999908928 -110.206098271 -0.066676587 0 230 249
3.004389236 -110.305333848 -0.081429484 0 230 252
3.001533411 -110.401523561 -0.075715989 0 230 249
2.995839736 -110.496530792 -0.062084680 0 230 249
2.991204276 -110.591975059 -0.051404352 0 230 249
2.989091280 -110.688468058 -0.047759894 0 230 249
2.988683137 -110.785671531 -0.048870487 0 230 249
2.988714906 -110.883059107 -0.051207323 0 230 249
2.990317769 -110.981104219 -0.057926150 0 230 249
2.993909710 -111.079983608 -0.070193112 0 230 249
2.995614886 -111.178076174 -0.077195497 0 230 252
2.991726625 -111.273825735 -0.068592357 0 230 249
2.983961865 -111.367946263 -0.049173419 0 230 249
2.977714607 -111.462698815 -0.033986858 0 230 249
2.977736943 -111.560082955 -0.036290313 0 230 249
2.984128581 -111.660147930 -0.056362192 0 230 249
2.991927689 -111.760811327 -0.080359891 0 230 252
2.994465581 -111.859263485 -0.089678654 0 230 252
2.990458692 -111.954956676 -0.080737271 0 230 252
2.986090821 -112.050494969 -0.070787694 0 230 249
2.984009839 -112.146997280 -0.067217243 0 230 249
2.983225267 -112.244047177 -0.067262644 0 230 249
2.981926787 -112.340879488 -0.065873263 0 230 249
2.979076162 -112.437053514 -0.060152448 0 230 249
2.974985039 -112.532699675 -0.050969625 0 230 249
2.972147990 -112.628875893 -0.045284551 0 230 249
2.971380032 -112.725930056 -0.045371164 0 230 249
2.971551019 -112.823383756 -0.048076430 0 230 249
2.973211577 -112.921472559 -0.054936644 0 230 249
2.975718414 -113.019924013 -0.064157056 0 230 249
2.976528264 -113.117654127 -0.068641880 0 230 249
2.972907095 -113.213493504 -0.060762949 0 230 249
2.965954031 -113.307906738 -0.043586726 0 230 249
2.960941788 -113.403145468 -0.031824386 0 230 249
2.960820776 -113.500475194 -0.033707927 0 230 249
2.965422971 -113.599829600 -0.048768727 0 230 249
2.971690153 -113.699902405 -0.068474166 0 230 249
2.976174677 -113.799215395 -0.083204931 0 230 252
2.977543007 -113.897193462 -0.089240192 0 230 252
2.975130683 -113.993547197 -0.084725886 0 230 252
2.969581084 -114.088549166 -0.071457004 0 230 249
2.964712553 -114.183840943 -0.060087302 0 230 249
2.960086574 -114.279234203 -0.049393257 0 230 249
2.952398476 -114.373302771 -0.030154162 0 230 249
2.953104148 -114.470992448 -0.034334355 0 230 249
2.949698405 -114.566905451 -0.027041777 0 230 249
2.954278485 -114.666272829 -0.042030533 0 230 249
2.951845092 -114.762606177 -0.037449025 0 230 249
2.955397569 -114.861533692 -0.049568665 0 230 249
2.961284492 -114.961477710 -0.068201179 0 230 249
2.967147057 -115.061416366 -0.086764891 0 230 252
2.967840473 -115.159112926 -0.090904247 0 230 252
2.963751900 -115.254729843 -0.081699352 0 230 252
2.958055586 -115.349644024 -0.068007236 0 230 249
2.952713490 -115.444708847 -0.055302385 0 230 249
2.956366585 -115.543694805 -0.067696227 0 230 249
2.955319924 -115.640631906 -0.066975115 0 230 249
2.954799183 -115.737798712 -0.067720512 0 230 249
2.952674758 -115.834264204 -0.063989996 0 230 249
2.949007417 -115.930053125 -0.055953078 0 230 249
2.948467033 -116.027210213 -0.056640616 0 230 249
2.952129073 -116.126210840 -0.069053751 0 230 249
2.958043661 -116.226203865 -0.087751615 0 230 252
2.955596675 -116.322527996 -0.083116004 0 230 252
2.959424794 -116.421610630 -0.095989860 0 230 252
2.958042577 -116.518403382 -0.094323465 0 230 252
2.952109074 -116.613190546 -0.079955699 0 230 252
2.954599779 -116.711688473 -0.089094645 0 230 252
2.949950302 -116.807037686 -0.078307829 0 230 252
2.948574481 -116.903830020 -0.076655169 0 230 252
2.948990620 -117.001414192 -0.080002046 0 230 252
2.948864533 -117.098759390 -0.081834838 0 230 252
2.947621595 -117.195610481 -0.080549991 0 230 252
2.945111110 -117.291899364 -0.075726933 0 230 249
2.943114999 -117.388415154 -0.072338245 0 230 249
2.943895409 -117.486162981 -0.076696718 0 230 252
2.947930771 -117.585358714 -0.090137581 0 230 252
2.949213338 -117.683333671 -0.095895515 0 230 252
2.946371556 -117.779473998 -0.090142887 0 230 252
2.943724250 -117.875699420 -0.084931927 0 230 252
2.941035735 -117.971905045 -0.079604919 0 230 252
2.937203924 -118.067598867 -0.071086280 0 230 249
2.932499771 -118.162900610 -0.060132123 0 230 249
2.929944764 -118.259160361 -0.055174519 0 230 249
2.930582187 -118.356847547 -0.059125067 0 230 249
2.931545374 -118.454681785 -0.063983778 0 230 249
2.931105684 -118.551888455 -0.064926454 0 230 249
2.930559830 -118.649047780 -0.065571861 0 230 249
2.932331235 -118.747248008 -0.072683232 0 230 249
2.936759311 -118.846644398 -0.087207875 0 230 252
2.941458890 -118.946167000 -0.102489362 0 230 252
2.944901735 -119.045128013 -0.114262683 0 230 252
2.947678599 -119.143792201 -0.124176474 0 230 252
2.950554680 -119.242503926 -0.134366258 0 230 252
2.951440341 -119.340319971 -0.139000170 0 230 252
2.950587936 -119.437352038 -0.138782421 0 230 252
2.949853410 -119.534437379 -0.138892662 0 230 252
2.948529178 -119.631255880 -0.137356104 0 230 252
2.948150596 -119.728502346 -0.138457751 0 230 252
2.951139085 -119.827275687 -0.148955621 0 230 252
2.951402781 -119.924815568 -0.151847893 0 230 252
2.951980568 -120.022498925 -0.155615806 0 229 255
2.953334883 -120.120536318 -0.161550010 0 229 255
2.950317674 -120.216586669 -0.155282502 0 230 252
2.952257173 -120.314892160 -0.162848004 0 229 255
2.953085290 -120.412693322 -0.167310725 0 229 255
2.948996489 -120.508253195 -0.158049361 0 229 255
2.940923491 -120.601991819 -0.137666962 0 230 252
2.932974056 -120.695781254 -0.117628255 0 230 252
2.930176643 -120.791920923 -0.111967877 0 230 252
2.933320666 -120.890778092 -0.122889317 0 230 252
2.938312314 -120.990484592 -0.138966707 0 230 252
2.938645833 -121.088060215 -0.142042044 0 230 252
2.931891905 -121.182384952 -0.125334707 0 230 252
2.927614666 -121.277842347 -0.115538922 0 230 252
2.928500302 -121.375669809 -0.120152240 0 230 252
2.932364478 -121.474868617 -0.133078097 0 230 252
2.938347295 -121.575046378 -0.151916504 0 230 252
2.940435403 -121.673434925 -0.159883358 0 229 255
2.937874675 -121.769681969 -0.154873618 0 230 252
2.932894747 -121.864811124 -0.143110419 0 230 252
2.926266309 -121.959175564 -0.126744815 0 230 252
2.920836079 -122.054089405 -0.113722517 0 230 252
2.919236692 -122.150772128 -0.111391823 0 230 252
2.917704555 -122.247485365 -0.109247826 0 230 252
2.914968882 -122.343640231 -0.103743461 0 230 252
2.914279776 -122.440742890 -0.103950545 0 230 252
2.916891723 -122.539378107 -0.113370762 0 230 252
2.921959825 -122.639157162 -0.129645887 0 230 252
2.925756887 -122.738349708 -0.142372326 0 230 252
2.926160657 -122.835966560 -0.145626177 0 230 252
2.923515502 -122.932164167 -0.140368551 0 230 252
2.919393211 -123.027671719 -0.130986715 0 230 252
2.916488910 -123.123744954 -0.125003631 0 230 252
2.916041795 -123.220963945 -0.125878385 0 230 252
2.916216296 -123.318473705 -0.128487315 0 230 252
2.914399862 -123.415052981 -0.125537825 0 230 252
2.910296634 -123.510560955 -0.116203978 0 230 252
2.907301800 -123.606585643 -0.109963036 0 230 252
2.909677890 -123.705127027 -0.118713543 0 230 252
2.917337821 -123.806150495 -0.142212614 0 230 252
2.923850036 -123.906641462 -0.162507124 0 229 255
2.922960680 -124.003658886 -0.162139676 0 229 255
2.915085486 -124.097389727 -0.142270494 0 230 252
2.908752714 -124.191841290 -0.126705787 0 230 252
2.907011482 -124.288452197 -0.123957204 0 230 252
2.905880558 -124.385350184 -0.122911289 0 230 252
2.904918832 -124.482327756 -0.122336696 0 230 252
2.905349349 -124.579962865 -0.125647599 0 230 252
2.906055179 -124.677729072 -0.129726096 0 230 252
2.905087279 -124.774704469 -0.129131334 0 230 252
2.905349066 -124.872262039 -0.131968334 0 230 252
2.908466528 -124.971173843 -0.142776221 0 230 252
2.914437843 -125.071442343 -0.161550014 0 229 255
2.921693140 -125.172325611 -0.183907363 0 229 255
2.920616039 -125.269256304 -0.183003054 0 229 255
2.916347184 -125.364669082 -0.173187553 0 229 255
2.914864905 -125.461405235 -0.171150105 0 229 255
2.915000101 -125.558911193 -0.173627088 0 229 255
2.914796910 -125.656256552 -0.175158443 0 229 255
2.911414042 -125.752085479 -0.167812185 0 229 255
2.903985231 -125.845980678 -0.149169844 0 230 252
2.896283846 -125.939740456 -0.129765404 0 230 252
2.892406142 -126.035323391 -0.121034449 0 230 252
2.893633811 -126.133347358 -0.126555259 0 230 252
2.899271645 -126.233485305 -0.144387185 0 230 252
2.906101482 -126.334199644 -0.165546070 0 229 255
2.901305746 -126.429342283 -0.154248250 0 230 252
2.887930968 -126.520362495 -0.118998540 0 230 252
2.890185085 -126.618883307 -0.127380183 0 230 252
