ply
format ascii 1.0
comment coordinate_system ground
comment units millimeter
element vertex 1667
property double x
property double y
property double z
property uchar red
property uchar green
property uchar blue
comment color_mapping zg_high_contrast_from_zg
comment color_zg_range_mm -0.305897117 19.999603011
end_header
5.602931068 105.115493720 0.356702655 0 233 231
5.577093199 105.007606545 0.423141914 0 234 228
5.574338168 104.909773383 0.426046749 0 234 228
5.594458972 104.821878096 0.365985348 0 233 231
5.607354046 104.730830728 0.325813794 0 233 234
5.606896687 104.633982871 0.322396892 0 233 234
5.596682468 104.532907433 0.345838223 0 233 231
5.586487470 104.431847160 0.369228257 0 233 231
5.579036400 104.331980412 0.385066726 0 233 231
5.571084707 104.231902097 0.402284741 0 233 231
5.563546951 104.132007622 0.418364796 0 234 228
5.561648152 104.034550304 0.418923627 0 234 228
5.562422875 103.938245734 0.412124045 0 234 228
5.560149993 103.840627430 0.413715016 0 234 228
5.554396074 103.741512389 0.424889913 0 234 228
5.558302328 103.646553051 0.409473184 0 234 228
5.557760520 103.549679643 0.406302356 0 233 231
5.563138201 103.455345647 0.386836960 0 233 231
5.561605921 103.358044439 0.386394985 0 233 231
5.569105256 103.264611875 0.361090756 0 233 231
5.571200440 103.168860117 0.350664726 0 233 231
5.563952493 103.069111176 0.365961161 0 233 231
5.558450317 102.970112596 0.376452945 0 233 231
5.550552989 102.870095052 0.393540026 0 233 231
5.550777555 102.773545949 0.388268616 0 233 231
5.555781268 102.679031908 0.369840997 0 233 231
5.561500858 102.584817913 0.349443419 0 233 231
5.554578908 102.485222470 0.363850300 0 233 231
5.546652150 102.385204442 0.381025007 0 233 231
5.540838503 102.286088609 0.392383470 0 233 231
5.535779815 102.187296514 0.401664783 0 233 231
5.536206484 102.090831896 0.395845120 0 233 231
5.535276461 101.993791665 0.393761853 0 233 231
5.526827513 101.893570675 0.412381259 0 234 228
5.522569132 101.795126277 0.419464390 0 234 228
5.520365492 101.697551848 0.420891519 0 234 228
5.519706959 101.600630054 0.418065695 0 234 228
5.520556570 101.504343559 0.411088586 0 234 228
5.512195769 101.404176886 0.429472217 0 234 228
5.502703046 101.303539430 0.450973992 0 234 228
5.501241363 101.206284212 0.450364530 0 234 228
5.508760904 101.112801164 0.425027027 0 234 228
5.519118778 101.020502504 0.391875128 0 233 231
5.521090494 100.924679461 0.381815001 0 233 231
5.516304744 100.826023734 0.390362581 0 233 231
5.510545149 100.726963243 0.401593006 0 233 231
5.507527869 100.629052764 0.405273734 0 233 231
5.503997885 100.530929540 0.410367490 0 234 228
5.498427766 100.431956716 0.421080229 0 234 228
5.499668276 100.335826923 0.413040506 0 234 228
5.507823974 100.242575970 0.385959978 0 233 231
5.515151094 100.148973117 0.361161860 0 233 231
5.518785730 100.053828464 0.346532454 0 233 231
5.519884300 99.957626624 0.338887567 0 233 231
5.520152428 99.861078405 0.333530560 0 233 231
5.518382819 99.763684120 0.333786057 0 233 231
5.513644064 99.665060207 0.342219072 0 233 231
5.508545942 99.566290270 0.351643045 0 233 231
5.505877940 99.468528273 0.354376302 0 233 231
5.504402520 99.371260156 0.353826640 0 233 231
5.499547618 99.272597312 0.362584755 0 233 231
5.493810471 99.173573445 0.373773810 0 233 231
5.492374650 99.076325295 0.373118844 0 233 231
5.499207187 98.982480968 0.349694703 0 233 231
5.505497561 98.888407622 0.327764495 0 233 234
5.501657708 98.790166304 0.333733353 0 233 231
5.491695945 98.689413963 0.356563134 0 233 231
5.482007466 98.588780389 0.378641881 0 233 231
5.478176092 98.490553223 0.384591558 0 233 231
5.480277431 98.394756758 0.374203538 0 233 231
5.484690139 98.299903159 0.357450881 0 233 231
5.487332861 98.204322119 0.345573873 0 233 231
5.486220450 98.107205257 0.344039943 0 233 231
5.483756204 98.009537030 0.346230324 0 233 231
5.486039142 97.913804152 0.335347455 0 233 231
5.493621636 97.820226088 0.309869713 0 233 234
5.500161018 97.726217166 0.287265726 0 233 234
5.503826218 97.631034547 0.272578713 0 233 234
5.505013612 97.534842414 0.264717139 0 233 234
5.505020086 97.438169569 0.260109200 0 233 234
5.505089624 97.341521414 0.255328693 0 233 234
5.502760044 97.243901145 0.257157205 0 233 234
5.492913387 97.143241597 0.279691408 0 233 234
5.480093582 97.041387328 0.310416289 0 233 234
5.475438809 96.942837979 0.318653342 0 233 234
5.479961471 96.847992569 0.301613449 0 233 234
5.490420467 96.755534745 0.268223391 0 233 234
5.498627665 96.662161686 0.241036473 0 232 237
5.496746255 96.564724289 0.241638922 0 232 237
5.488765277 96.464836760 0.259043689 0 233 234
5.483062783 96.365869020 0.270173866 0 233 234
5.482673533 96.269035494 0.266669981 0 233 234
5.480717581 96.171573715 0.267482794 0 233 234
5.471810784 96.071330374 0.287443378 0 233 234
5.460930368 95.970303705 0.312842014 0 233 234
5.465368910 95.875404494 0.296044460 0 233 234
5.469312666 95.780303579 0.280610810 0 233 234
5.480707956 95.688170117 0.244651758 0 232 237
5.504272587 95.600875050 0.175170955 0 232 237
5.531045330 95.514838028 0.096853172 0 232 240
5.559077365 95.429280521 0.015066690 0 231 243
5.593922826 95.346407352 -0.085488482 0 230 249
5.607021372 95.254876637 -0.126137209 0 230 249
5.614168323 95.160975508 -0.150390272 0 230 252
5.621186932 95.067017271 -0.174288939 0 230 252
5.625258900 94.971886844 -0.190069446 0 230 252
5.624293324 94.874760984 -0.191971622 0 230 252
5.619479730 94.776115229 -0.183272061 0 230 252
5.614368440 94.677354813 -0.173751055 0 230 252
5.611289572 94.579398591 -0.169827724 0 230 252
5.608740460 94.481652482 -0.167362538 0 230 252
5.606201570 94.383911480 -0.164924275 0 230 252
5.605061348 94.286721311 -0.166337990 0 230 252
5.606097783 94.190385879 -0.173747090 0 230 252
5.607113239 94.094040584 -0.181097307 0 230 252
5.605003829 93.996468984 -0.179837472 0 230 252
5.600388982 93.897917166 -0.171673917 0 230 252
5.597148373 93.799905547 -0.167295095 0 230 252
5.596019699 93.702720842 -0.168733492 0 230 252
5.594469953 93.605371763 -0.169010627 0 230 252
5.592339687 93.507796599 -0.167687173 0 230 252
5.589692204 93.410020678 -0.164937501 0 230 252
5.584643233 93.311311114 -0.155570148 0 230 252
5.586432746 93.215263905 -0.165042571 0 230 252
5.581418118 93.116571064 -0.155767288 0 230 252
5.580563982 93.019495972 -0.157953665 0 230 252
5.580106765 92.922574588 -0.161232473 0 230 252
5.580607557 92.826023809 -0.167149678 0 230 252
5.584889547 92.730935078 -0.183483985 0 230 252
5.585916568 92.634583864 -0.190848961 0 230 252
5.592418114 92.540345438 -0.213296841 0 230 252
5.596716955 92.445251328 -0.229674676 0 229 255
5.595343804 92.347966747 -0.230423256 0 229 255
5.589506195 92.248963157 -0.218869417 0 230 252
5.586956641 92.151228101 -0.216374068 0 230 252
5.578744036 92.051317661 -0.198273427 0 230 252
5.575294170 91.953241269 -0.193294716 0 230 252
5.575475878 91.856559623 -0.198321377 0 230 252
5.575229604 91.759713002 -0.202167619 0 230 252
5.573038018 91.662121040 -0.200652408 0 230 252
5.571558618 91.564802268 -0.201098416 0 230 252
5.572652411 91.468466878 -0.208633771 0 230 252
5.572984200 91.371838984 -0.214068290 0 230 252
5.570250557 91.274041169 -0.211054629 0 230 252
5.567625699 91.176286031 -0.208339489 0 230 252
5.569120322 91.080099658 -0.216974861 0 230 252
5.574178067 90.985265856 -0.235427867 0 229 255
5.577704116 90.889845677 -0.249659098 0 229 255
5.574548508 90.791886989 -0.245476785 0 229 255
5.567892843 90.692603279 -0.231648064 0 229 255
5.563418966 90.594149893 -0.223830339 0 230 252
5.560481625 90.496280277 -0.220245609 0 230 252
5.558228006 90.398670420 -0.218543802 0 230 252
5.556643398 90.301313993 -0.218684428 0 230 252
5.555720275 90.204207394 -0.220646786 0 230 252
5.555028688 90.107187893 -0.223246045 0 230 252
5.552731546 90.009563815 -0.221419458 0 230 252
5.546618655 89.910505998 -0.209075880 0 230 252
5.539553196 89.811094201 -0.194105711 0 230 252
5.534822423 89.712562963 -0.185568329 0 230 252
5.534536356 89.615700555 -0.189279007 0 230 252
5.539690915 89.520874851 -0.207982742 0 230 252
5.546309551 89.426592091 -0.230720529 0 229 255
5.545386998 89.329485300 -0.232673864 0 229 255
5.540425140 89.230870406 -0.223493577 0 230 252
5.535817723 89.132390636 -0.215288801 0 230 252
5.532835138 89.034518892 -0.211560856 0 230 252
5.532408522 88.937599881 -0.214876147 0 230 252
5.533167180 88.841121058 -0.221457040 0 230 252
5.531626592 88.743786828 -0.221699790 0 230 252
5.527384472 88.645450543 -0.214495490 0 230 252
5.522319548 88.546811664 -0.205022079 0 230 252
5.517732822 88.448352873 -0.196865325 0 230 252
5.515135390 88.350632596 -0.194190186 0 230 252
5.514302337 88.253565455 -0.196376869 0 230 252
5.516494744 88.157614970 -0.206901359 0 230 252
5.521749214 88.062791192 -0.225864723 0 230 252
5.526247895 87.967684172 -0.242743976 0 229 255
5.526391570 87.870970222 -0.247618465 0 229 255
5.522608909 87.772811895 -0.241669486 0 229 255
5.516536572 87.673814727 -0.229408018 0 229 255
5.509877352 87.574606033 -0.215527474 0 230 252
5.505381578 87.476194459 -0.207608862 0 230 252
5.505175964 87.379356158 -0.211514474 0 230 252
5.507945659 87.283605360 -0.223620248 0 230 252
5.509438711 87.187385209 -0.232205966 0 229 255
5.507242132 87.089816482 -0.230620158 0 229 255
5.501911599 86.991105980 -0.220394328 0 230 252
5.495389174 86.891964596 -0.206881635 0 230 252
5.490955942 86.793587466 -0.199126518 0 230 252
5.490565190 86.696682143 -0.202513514 0 230 252
5.493474507 86.600974471 -0.214996342 0 230 252
5.500223201 86.506656296 -0.238061856 0 229 255
5.506712163 86.412238068 -0.260410512 0 229 255
5.509242574 86.316381347 -0.271845910 0 229 255
5.508824275 86.219455760 -0.275151631 0 229 255
5.506373733 86.121795671 -0.272853914 0 229 255
5.503756032 86.024076313 -0.270094150 0 229 255
5.502140548 85.926719341 -0.270095997 0 229 255
5.500023509 85.829182198 -0.268713974 0 229 255
5.496352329 85.731086885 -0.263046294 0 229 255
5.492888572 85.633068064 -0.257949153 0 229 255
5.490246672 85.535346019 -0.255116449 0 229 255
5.486466668 85.437217131 -0.249144919 0 229 255
5.491207136 85.342141812 -0.266661925 0 229 255
5.487474759 85.244030835 -0.260819292 0 229 255
5.484227263 85.146095162 -0.256312145 0 229 255
5.480100984 85.047847414 -0.249380980 0 229 255
5.475006130 84.949256569 -0.239778187 0 229 255
5.468711664 84.850241427 -0.226866743 0 229 255
5.462464954 84.751247243 -0.214085556 0 230 252
5.459922655 84.653573839 -0.211516111 0 230 252
5.462836151 84.557838913 -0.223987276 0 230 252
5.468563866 84.463099224 -0.244216387 0 229 255
5.473711902 84.368148964 -0.262846365 0 229 255
5.472475322 84.270934067 -0.263872404 0 229 255
5.464722625 84.171415313 -0.246931547 0 229 255
5.456190014 84.071626165 -0.227838883 0 229 255
5.452676739 83.973613621 -0.222583856 0 230 252
5.453512170 83.877135604 -0.229317739 0 229 255
5.454532964 83.780721400 -0.236561600 0 229 255
5.456269058 83.684557167 -0.245776614 0 229 255
5.459863879 83.589043780 -0.260115521 0 229 255
5.461089702 83.492695512 -0.267921484 0 229 255
5.454860257 83.393732104 -0.255170071 0 229 255
5.447127168 83.294246094 -0.238271245 0 229 255
5.444184206 83.196440658 -0.234578915 0 229 255
5.446335915 83.100416749 -0.244933116 0 229 255
5.451567639 83.005465394 -0.263779002 0 229 255
5.456098998 82.910265075 -0.280692773 0 229 255
5.458134581 82.814191312 -0.290723719 0 229 255
5.458004341 82.717361736 -0.294781518 0 229 255
5.455819163 82.619817350 -0.293171797 0 229 255
5.452622748 82.521922788 -0.288772395 0 229 255
5.450374054 82.424358464 -0.286985060 0 229 255
5.451259111 82.327880461 -0.293837836 0 229 255
5.453552785 82.231888338 -0.304573812 0 229 255
5.452433416 82.134714099 -0.305897117 0 229 255
5.447901166 82.036361689 -0.297807989 0 229 255
5.444459429 81.938387973 -0.292724723 0 229 255
5.442569119 81.840950478 -0.291918413 0 229 255
5.439642612 81.743157072 -0.288253438 0 229 255
5.433226718 81.644165759 -0.274964691 0 229 255
5.424435749 81.544363088 -0.255124846 0 229 255
5.418615396 81.445585051 -0.243475554 0 229 255
5.420551012 81.349467567 -0.253213669 0 229 255
5.422376993 81.253310290 -0.262648377 0 229 255
5.419719911 81.155618480 -0.259718822 0 229 255
5.415079414 81.057250692 -0.251318199 0 229 255
5.410237949 80.958817086 -0.242362018 0 229 255
5.405697348 80.860488848 -0.234234231 0 229 255
5.404360945 80.763253603 -0.234941797 0 229 255
5.404783500 80.666616452 -0.240499139 0 229 255
5.404005319 80.569570494 -0.242743871 0 229 255
5.403380939 80.472576484 -0.245411605 0 229 255
5.403562956 80.375855326 -0.250302156 0 229 255
5.403609719 80.279087459 -0.254818560 0 229 255
5.399868691 80.181038452 -0.248887235 0 229 255
5.390782308 80.081186747 -0.228212210 0 229 255
5.393624745 79.985364109 -0.240435436 0 229 255
5.391228204 79.887773667 -0.238208401 0 229 255
5.389945585 79.790559065 -0.239052383 0 229 255
5.387485080 79.692948741 -0.236646489 0 229 255
5.385871620 79.595623861 -0.236575582 0 229 255
5.384731109 79.498458008 -0.237807918 0 229 255
5.382609897 79.400963718 -0.236334172 0 229 255
5.380697402 79.303540074 -0.235434876 0 229 255
5.378116681 79.205893757 -0.232691289 0 229 255
5.374384688 79.107864275 -0.226771031 0 229 255
5.371642510 79.010166881 -0.223579605 0 230 252
5.370793476 78.913101315 -0.225608660 0 230 252
5.372344635 78.816834110 -0.234256880 0 229 255
5.375231800 78.721008890 -0.246589088 0 229 255
5.378022930 78.625148799 -0.258655376 0 229 255
5.380740074 78.529261258 -0.270516561 0 229 255
5.380231628 78.432302644 -0.273479482 0 229 255
5.373870739 78.333407709 -0.260298177 0 229 255
5.367558271 78.234532809 -0.247249036 0 229 255
5.365410720 78.137036443 -0.245686963 0 229 255
5.365125013 78.040154662 -0.249259400 0 229 255
5.364240001 77.943074970 -0.251177545 0 229 255
5.362308439 77.845650958 -0.250207664 0 229 255
5.360807373 77.748369037 -0.250424079 0 229 255
5.360461545 77.651466525 -0.253826010 0 229 255
5.360770732 77.554778158 -0.259033657 0 229 255
5.362215284 77.458460439 -0.267372116 0 229 255
5.364436100 77.362394653 -0.277850855 0 229 255
5.365443812 77.265930176 -0.284982113 0 229 255
5.363582442 77.168528171 -0.284197663 0 229 255
5.359236350 77.070317149 -0.276557623 0 229 255
5.355492740 76.972304724 -0.270578298 0 229 255
5.353256945 76.874784518 -0.268757217 0 229 255
5.352604161 76.777779229 -0.271301915 0 229 255
5.353398075 76.681242841 -0.277836439 0 229 255
5.353192654 76.584381327 -0.281612980 0 229 255
5.349412613 76.486362554 -0.275526974 0 229 255
5.343444067 76.387638571 -0.263402136 0 229 255
5.337878560 76.289048434 -0.252387809 0 229 255
5.335397977 76.191456391 -0.249882787 0 229 255
5.337713753 76.095410078 -0.260608776 0 229 255
5.341801653 75.999931240 -0.276222705 0 229 255
5.344025523 75.903849619 -0.286693077 0 229 255
5.343898916 75.807011238 -0.290677744 0 229 255
5.341577325 75.709468618 -0.288605553 0 229 255
5.337668441 75.611418810 -0.282152936 0 229 255
5.333820184 75.513390570 -0.275866291 0 229 255
5.330752766 75.415613850 -0.271732650 0 229 255
5.327002657 75.317620891 -0.265714226 0 229 255
5.321209923 75.218979166 -0.254058927 0 229 255
5.315277671 75.120296654 -0.242017322 0 229 255
5.313613701 75.022974588 -0.241750672 0 229 255
5.316059113 74.926957651 -0.252820821 0 229 255
5.317574787 74.830643241 -0.261324709 0 229 255
5.316536334 74.733517943 -0.262780453 0 229 255
5.314790296 74.636168807 -0.262282713 0 229 255
5.313551594 74.538980507 -0.263183574 0 229 255
5.312797601 74.441945324 -0.265420634 0 229 255
5.311779870 74.344826795 -0.266928827 0 229 255
5.311700002 74.248003509 -0.271023584 0 229 255
5.312807038 74.151552705 -0.278392114 0 229 255
5.312305735 74.054595156 -0.281321777 0 229 255
5.308441888 73.956582440 -0.274972196 0 229 255
5.301104386 73.857483581 -0.259036573 0 229 255
5.294142343 73.758507003 -0.244135513 0 229 255
5.290814724 73.660670829 -0.239261538 0 229 255
5.292385129 73.564365357 -0.247901561 0 229 255
5.297109942 73.469041378 -0.265244616 0 229 255
5.298560575 73.372693447 -0.273552048 0 229 255
5.295863933 73.275053750 -0.270414464 0 229 255
5.293595389 73.177548301 -0.268456934 0 229 255
5.293440434 73.080699546 -0.272330467 0 229 255
5.293294975 72.983853065 -0.276229061 0 229 255
5.290454082 72.886171682 -0.272688558 0 229 255
5.291975273 72.789840063 -0.281183905 0 229 255
5.287686780 72.691712846 -0.273646331 0 229 255
5.285450620 72.594220952 -0.271770911 0 229 255
5.283293414 72.496754290 -0.270112142 0 229 255
5.278225083 72.398393038 -0.260418714 0 229 255
5.273526290 72.300148383 -0.251743714 0 229 255
5.269839467 72.202217023 -0.245860029 0 229 255
5.266409701 72.104366460 -0.240684442 0 229 255
5.265319421 72.007233776 -0.241963735 0 229 255
5.268792576 71.911496146 -0.255835399 0 229 255
5.275372631 71.816703664 -0.278280106 0 229 255
5.280466002 71.721452054 -0.296621110 0 229 255
5.280181629 71.624557985 -0.300120115 0 229 255
5.276541814 71.526642722 -0.294357833 0 229 255
5.271444631 71.428286709 -0.284572286 0 229 255
5.266093595 71.329856769 -0.274084821 0 229 255
5.263322523 71.232211923 -0.270716186 0 229 255
5.263243998 71.135383301 -0.274777245 0 229 255
5.264118448 71.038842011 -0.281467221 0 229 255
5.263627572 70.941887096 -0.284387986 0 229 255
5.256982391 70.843076199 -0.270322474 0 229 255
5.245547640 70.742827299 -0.243036823 0 229 255
5.235646680 70.643047599 -0.219982699 0 230 252
5.232237611 70.545224604 -0.214844283 0 230 252
5.233403654 70.448775898 -0.222331731 0 230 252
5.235592488 70.352631958 -0.232640968 0 229 255
5.237528998 70.256410069 -0.242252733 0 229 255
5.240206949 70.160407502 -0.253909820 0 229 255
5.242230042 70.064206663 -0.263758435 0 229 255
5.241054577 69.967050064 -0.264777799 0 229 255
5.236294892 69.868826541 -0.255903269 0 229 255
5.230721752 69.770363999 -0.244782200 0 229 255
5.227611589 69.672636282 -0.240457872 0 229 255
5.227924562 69.575925328 -0.245580596 0 229 255
5.229194062 69.479496663 -0.253342354 0 229 255
5.228293278 69.382424278 -0.255112666 0 229 255
5.225468185 69.284783317 -0.251570347 0 229 255
5.223013545 69.187253025 -0.249049307 0 229 255
5.221786357 69.090085503 -0.249915084 0 229 255
5.220672953 68.992951621 -0.251093745 0 229 255
5.219066130 68.895672792 -0.250909258 0 229 255
5.216361779 68.798072262 -0.247694076 0 229 255
5.211856796 68.699945176 -0.239507354 0 229 255
5.205261243 68.601208708 -0.225548653 0 230 252
5.198669452 68.502477581 -0.211598935 0 230 252
5.200039730 68.406075597 -0.219626074 0 230 252
5.204758609 68.310648301 -0.236895560 0 229 255
5.206516811 68.214354378 -0.245991410 0 229 255
5.205328717 68.117201394 -0.246953165 0 229 255
5.201163480 68.019183750 -0.239695499 0 229 255
5.193614386 67.920186860 -0.223095519 0 230 252
5.195634153 67.823967173 -0.232908787 0 229 255
5.186372336 67.724481030 -0.211578148 0 230 252
5.191243103 67.629084815 -0.229259334 0 229 255
5.196070087 67.533671482 -0.246818692 0 229 255
5.197743749 67.437344936 -0.255672157 0 229 255
5.195492893 67.339886819 -0.253690616 0 229 255
5.189297917 67.241295978 -0.240819727 0 229 255
5.190885810 67.144943151 -0.249432970 0 229 255
5.185876894 67.046697235 -0.239833754 0 229 255
5.183396772 66.949178322 -0.237214333 0 229 255
5.181924627 66.851948711 -0.237376374 0 229 255
5.181865455 66.755122888 -0.241438005 0 229 255
5.184844490 66.659162673 -0.253886106 0 229 255
5.190743397 66.564030896 -0.274394145 0 229 255
5.188476904 66.466571729 -0.272358668 0 229 255
5.195847749 66.371850567 -0.296928378 0 229 255
5.186322500 66.272330872 -0.274850782 0 229 255
5.175738293 66.172517709 -0.249848087 0 229 255
5.169241805 66.073868095 -0.236129306 0 229 255
5.165026397 65.975867018 -0.228706848 0 229 255
5.161523432 65.878069358 -0.223250046 0 230 252
5.158790207 65.780490445 -0.219917136 0 230 252
5.156197672 65.682952420 -0.216971414 0 230 252
5.152980099 65.585239985 -0.212298773 0 230 252
5.150682675 65.487787402 -0.210165348 0 230 252
5.149412897 65.390623741 -0.210867991 0 230 252
5.147719743 65.293341805 -0.210400513 0 230 252
5.144103544 65.195523013 -0.204622298 0 230 252
5.139518464 65.097435828 -0.196167707 0 230 252
5.137890756 65.000175513 -0.195877226 0 230 252
5.139547246 64.903829647 -0.204653415 0 230 252
5.141442179 64.807548014 -0.214086883 0 230 252
5.142817604 64.711119984 -0.222084867 0 230 252
5.145282562 64.614992104 -0.233090089 0 229 255
5.151321024 64.519850626 -0.253961166 0 229 255
5.159174013 64.425205298 -0.279841485 0 229 255
5.159930005 64.328594366 -0.286124975 0 229 255
5.155077855 64.230436308 -0.276922251 0 229 255
5.148683759 64.131856753 -0.263460573 0 229 255
5.142913872 64.033452871 -0.251721089 0 229 255
5.139421325 63.935677716 -0.246268530 0 229 255
5.138102964 63.838500412 -0.246818199 0 229 255
5.136652157 63.741287088 -0.247000960 0 229 255
5.134336624 63.643837727 -0.244794757 0 229 255
5.132762084 63.546591626 -0.244633446 0 229 255
5.131744002 63.449497636 -0.246007507 0 229 255
5.128629456 63.351832983 -0.241591303 0 229 255
5.123697207 63.253675837 -0.232154477 0 229 255
5.120266158 63.155929167 -0.226861734 0 229 255
5.118662856 63.058679775 -0.226614889 0 229 255
5.116689041 62.961330543 -0.225343699 0 230 252
5.112115251 62.863279268 -0.216891582 0 230 252
5.105362128 62.764642460 -0.202419978 0 230 252
5.098725964 62.666041549 -0.188269953 0 230 252
5.094720828 62.568153089 -0.181384158 0 230 252
5.094921583 62.471397364 -0.186111782 0 230 252
5.097319502 62.375230432 -0.196905852 0 230 252
5.099697683 62.279055615 -0.207644361 0 230 252
5.101287205 62.182667145 -0.216203866 0 230 252
5.100732512 62.085703642 -0.218840814 0 230 252
5.098138276 61.988195492 -0.215844155 0 230 252
5.093283119 61.890086029 -0.206602400 0 230 252
5.096568301 61.794145745 -0.219840184 0 230 252
5.091934090 61.696097754 -0.211206122 0 230 252
5.089415031 61.598613783 -0.208412161 0 230 252
5.090912597 61.502195251 -0.216709747 0 230 252
5.094767575 61.406398558 -0.231516791 0 229 255
5.095946245 61.309891057 -0.238931536 0 229 255
5.094222928 61.212616265 -0.238330562 0 229 255
5.092406711 61.115317545 -0.237471813 0 229 255
5.091184182 61.018175622 -0.238251512 0 229 255
5.089211454 60.920836795 -0.236958103 0 229 255
5.084668953 60.822824642 -0.228566170 0 229 255
5.078106668 60.724286152 -0.214594551 0 230 252
5.072258472 60.625938659 -0.202593774 0 230 252
5.067308154 60.527829345 -0.193071484 0 230 252
5.062858251 60.429853535 -0.184929979 0 230 252
5.060723215 60.332483142 -0.183180701 0 230 252
5.063057883 60.236275822 -0.193775352 0 230 252
5.068132811 60.140777435 -0.211937484 0 230 252
5.072681695 60.045138034 -0.228645718 0 229 255
5.074107725 59.948685968 -0.236727614 0 229 255
5.072126414 59.851351265 -0.235397242 0 229 255
5.067132206 59.753239632 -0.225743887 0 230 252
5.058775610 59.654264435 -0.206802055 0 230 252
5.052937783 59.555943052 -0.194815824 0 230 252
5.035428829 58.776928699 -0.179517010 0 230 252
5.011393709 56.059908834 -0.228258107 0 229 255
4.922310355 51.391176678 -0.177354567 0 230 252
4.857827015 46.922737503 -0.183706283 0 230 252
4.723844937 39.633500091 -0.108881721 0 230 249
4.712330896 39.534594087 -0.080934559 0 230 249
4.703969600 39.436258653 -0.061705494 0 231 246
4.705621229 39.339711606 -0.070168265 0 230 249
4.713128925 39.244202956 -0.094826453 0 230 249
4.716894900 39.148024483 -0.109134945 0 230 249
4.715713283 39.050967154 -0.109758389 0 230 249
4.713163468 38.953668462 -0.106596472 0 230 249
4.710685234 38.856383574 -0.103631307 0 230 249
4.707164568 38.758916612 -0.097781712 0 230 249
4.702306459 38.661217035 -0.088231670 0 230 249
4.697122001 38.563463306 -0.077777674 0 230 249
4.691725062 38.465675682 -0.066734663 0 231 246
4.695793635 38.369540587 -0.081871136 0 230 249
4.692384030 38.272101579 -0.076322472 0 230 249
4.693310840 38.175416637 -0.082766847 0 230 249
4.694884630 38.078842218 -0.090999633 0 230 249
4.691334300 37.981380902 -0.085058115 0 230 249
4.686558561 37.883710384 -0.075725860 0 230 249
4.681006734 37.785909321 -0.064245626 0 231 246
4.676470643 37.688286000 -0.055573621 0 231 246
4.675569477 37.591287599 -0.056954707 0 231 246
4.676522416 37.494605801 -0.063463195 0 231 246
4.674327743 37.397386137 -0.061264017 0 231 246
4.669660462 37.299746981 -0.052224149 0 231 246
4.666396901 37.202348774 -0.047065832 0 231 246
4.666482619 37.105519227 -0.051170817 0 231 246
4.668109553 37.008949149 -0.059537890 0 231 246
4.667270356 36.911961529 -0.061082151 0 231 246
4.663658819 36.814507711 -0.054956447 0 231 246
4.658945640 36.716871111 -0.045782122 0 231 246
4.654913146 36.619351276 -0.038489419 0 231 246
4.652152515 36.522046137 -0.034713706 0 231 246
4.651885099 36.425157709 -0.037833611 0 231 246
4.654288705 36.328712689 -0.048341113 0 231 246
4.656048859 36.232158379 -0.057067583 0 231 246
4.654920636 36.135124096 -0.057802861 0 231 246
4.651047331 36.037636804 -0.050943209 0 231 246
4.645145166 35.939817595 -0.038469792 0 231 246
4.639499544 35.842044293 -0.026704719 0 231 246
4.636627995 35.744729279 -0.022612409 0 231 246
4.636479520 35.647861036 -0.026051922 0 231 246
4.635938990 35.550928189 -0.028405705 0 231 246
4.632929875 35.453593177 -0.023929207 0 231 246
4.629469440 35.356186421 -0.018202921 0 231 246
4.629736190 35.259385404 -0.022786432 0 231 246
4.633017741 35.163070715 -0.035709133 0 231 246
4.634699141 35.066494746 -0.044204016 0 231 246
4.633300249 34.969421227 -0.044176206 0 231 246
4.629374703 34.871942537 -0.037157204 0 231 246
4.626611017 34.774652110 -0.033351242 0 231 246
4.628634327 34.678127625 -0.042787463 0 231 246
4.631548997 34.581742871 -0.054688598 0 231 246
4.631125699 34.484824547 -0.057353959 0 231 246
4.628793161 34.387603036 -0.054736087 0 231 246
4.627533449 34.290552270 -0.055085078 0 231 246
4.626559484 34.193546809 -0.056223438 0 231 246
4.625356298 34.096505254 -0.056726453 0 231 246
4.623595761 33.999376336 -0.055686291 0 231 246
4.621054836 33.902125751 -0.052485853 0 231 246
4.619041407 33.804958795 -0.050743605 0 231 246
4.617085805 33.707801640 -0.049160139 0 231 246
4.613748875 33.610430404 -0.043753726 0 231 246
4.609477804 33.512916044 -0.035761543 0 231 246
4.606556992 33.415613156 -0.031503903 0 231 246
4.605818598 33.318648657 -0.033283266 0 231 246
4.604790102 33.221639297 -0.034258812 0 231 246
4.600072999 33.124063362 -0.025027554 0 231 246
4.593169875 33.026155318 -0.009746679 0 231 246
4.597381725 32.929950684 -0.025217699 0 231 246
4.596462198 32.832959726 -0.026489972 0 231 246
4.588038396 32.734827447 -0.006997770 0 231 246
4.595769689 32.639151597 -0.032203351 0 231 246
4.592373950 32.541785356 -0.026620709 0 231 246
4.586949979 32.444114822 -0.015424876 0 231 246
4.578849857 32.346044770 0.003177000 0 231 246
4.571883388 32.248150399 0.018643534 0 231 243
4.570260814 32.151061069 0.019325076 0 231 243
4.574457171 32.054841632 0.003906956 0 231 246
4.582808596 31.959237457 -0.023007178 0 231 246
4.587816127 31.863129095 -0.040667835 0 231 246
4.587464375 31.766221570 -0.043498260 0 231 246
4.585190138 31.669029262 -0.041007946 0 231 246
4.581306382 31.571600536 -0.034062796 0 231 246
4.574376562 31.473725895 -0.018687703 0 231 246
4.566033637 31.375648443 0.000598948 0 231 246
4.561334718 31.278109928 0.009803673 0 231 246
4.561098894 31.181225738 0.006659768 0 231 246
4.562403134 31.084565195 -0.000744548 0 231 246
4.562567445 30.987737377 -0.004993407 0 231 246
4.560687910 30.890612680 -0.003585465 0 231 246
4.559416255 30.793576472 -0.003858434 0 231 246
4.561232474 30.696985330 -0.012674977 0 231 246
4.563610443 30.600472761 -0.023044910 0 231 246
4.564251968 30.503708795 -0.028608636 0 231 246
4.564893455 30.406943581 -0.034171131 0 231 246
4.565169973 30.310125105 -0.038722540 0 231 246
4.561852639 30.212794794 -0.033327645 0 231 246
4.552732145 30.114643552 -0.011872471 0 231 246
4.542471629 30.016337340 0.012738947 0 231 243
4.535953305 29.918565887 0.026995985 0 231 243
4.535752536 29.821687064 0.023771533 0 231 243
4.538078897 29.725162052 0.013554756 0 231 243
4.537021115 29.628161205 0.012704240 0 231 243
4.533931239 29.530876982 0.017478496 0 231 243
4.532936183 29.433885750 0.016456777 0 231 243
4.535530546 29.337392428 0.005502806 0 231 246
4.537132983 29.240759158 -0.002705009 0 231 246
4.534686468 29.143565360 0.000293541 0 231 246
4.529980669 29.046061874 0.009545801 0 231 246
4.525050450 28.948530446 0.019420436 0 231 243
4.520917653 28.851111123 0.027089509 0 231 243
4.518891773 28.753981635 0.028928930 0 231 243
4.519848125 28.657258646 0.022516137 0 231 243
4.522209674 28.560724799 0.012215517 0 231 243
4.524217716 28.464140575 0.002894324 0 231 246
4.523946283 28.367246579 -0.000117172 0 231 246
4.519794137 28.269830040 0.007612711 0 231 246
4.512761215 28.172029525 0.023316724 0 231 243
4.505913922 28.074258459 0.038508363 0 231 243
4.501682909 27.976840795 0.046460438 0 231 243
4.499775355 27.879734593 0.047983252 0 231 243
4.498936521 27.782770810 0.046549400 0 231 243
4.499253408 27.685959724 0.041918044 0 231 243
4.500671160 27.589292779 0.034240954 0 231 243
4.503971238 27.492871438 0.021355225 0 231 243
4.509903573 27.396791840 0.001185167 0 231 246
4.515100412 27.300610833 -0.016948250 0 231 246
4.515956957 27.203859527 -0.023067787 0 231 246
4.510953805 27.106345488 -0.012967898 0 231 246
4.497716734 27.007767866 0.019923069 0 231 243
4.488558908 26.909726490 0.041525052 0 231 243
4.482690948 26.812115029 0.054022699 0 231 243
4.485140339 26.715575230 0.043500545 0 231 243
4.489946230 26.619334474 0.026457014 0 231 243
4.492088078 26.522749273 0.016788215 0 231 243
4.492990540 26.426003969 0.010550974 0 231 246
4.494655122 26.329353913 0.002205381 0 231 246
4.494871288 26.232518626 -0.002130025 0 231 246
4.494458197 26.135603070 -0.004722554 0 231 246
4.493311187 26.038594807 -0.005282480 0 231 246
4.490508478 25.941379143 -0.001258319 0 231 246
4.486293527 25.843988397 0.006676124 0 231 246
4.481348675 25.746509192 0.016632205 0 231 243
4.477631886 25.649185533 0.023190296 0 231 243
4.476560060 25.552191439 0.022428325 0 231 243
4.474448159 25.455069036 0.024546500 0 231 243
4.469917062 25.357649820 0.033362351 0 231 243
4.465477792 25.260244578 0.041925306 0 231 243
4.462249910 25.162990109 0.047136315 0 231 243
4.462604838 25.066174103 0.042430979 0 231 243
4.465921804 24.969717016 0.029527510 0 231 243
4.468001536 24.873106767 0.020049917 0 231 243
4.467500769 24.776182570 0.017716604 0 231 243
4.463787918 24.678871357 0.024276014 0 231 243
4.457807790 24.581290179 0.037112911 0 231 243
4.453635580 24.483929061 0.044946473 0 231 243
4.452963137 24.386987642 0.043093218 0 231 243
4.454136629 24.290265360 0.036131167 0 231 243
4.453752543 24.193356917 0.033481975 0 231 243
4.448163205 24.095833384 0.045243398 0 231 243
4.439656714 23.997970031 0.065081611 0 231 243
4.434571572 23.900513802 0.075449963 0 231 243
4.436450961 23.803875087 0.066539677 0 231 243
4.442306604 23.707697615 0.046622954 0 231 243
4.447249097 23.611408834 0.029235113 0 231 243
4.449372941 23.514789163 0.019651267 0 231 243
4.449035304 23.417883053 0.016882764 0 231 243
4.447293822 23.320814976 0.018001781 0 231 243
4.445076650 23.223692945 0.020438886 0 231 243
4.443574227 23.126653521 0.020898492 0 231 243
4.444330790 23.029871732 0.015105473 0 231 243
4.447825577 22.933399379 0.001732990 0 231 246
4.451286844 22.836919808 -0.011545644 0 231 246
4.450908154 22.740003970 -0.014192471 0 231 246
4.446765967 22.642664859 -0.006419000 0 231 246
4.441933940 22.545250924 0.003265559 0 231 246
4.438218891 22.447964564 0.009859051 0 231 246
4.436781943 22.350933611 0.010146830 0 231 246
4.438197209 22.254219075 0.002539336 0 231 246
4.441138512 22.157671229 -0.009291959 0 231 246
4.443507133 22.061057356 -0.019536684 0 231 246
4.443703839 21.964202727 -0.023767220 0 231 246
4.441686065 21.867105180 -0.021865621 0 231 246
4.437089996 21.769727636 -0.012824533 0 231 246
4.428628368 21.671933352 0.006920127 0 231 246
4.417354286 21.573840646 0.034452884 0 231 243
4.408492381 21.476015736 0.055308653 0 231 243
4.407151270 21.379004398 0.055343195 0 231 243
4.410138244 21.282456407 0.043395792 0 231 243
4.411284745 21.185709163 0.036545177 0 231 243
4.408093595 21.088499508 0.041705411 0 231 243
4.405064513 20.991308693 0.046418161 0 231 243
4.406553154 20.894595896 0.038623705 0 231 243
4.411405230 20.798234643 0.021517800 0 231 243
4.414541857 20.701689319 0.009162600 0 231 246
4.412176189 20.604566861 0.012043154 0 231 243
4.408004474 20.507257748 0.019925514 0 231 243
4.407475894 20.410328325 0.017721958 0 231 243
4.408462409 20.313554865 0.011324517 0 231 246
4.406400723 20.216466579 0.013368199 0 231 243
4.402433399 20.119183969 0.020689541 0 231 243
4.401251754 20.022187841 0.020298938 0 231 243
4.402384709 19.925427119 0.013500632 0 231 243
4.400839260 19.828393568 0.014119694 0 231 243
4.400541168 19.731486271 0.011286110 0 231 246
4.417120521 19.636274515 -0.038278852 0 231 246
4.433212300 19.541000511 -0.086492982 0 230 249
4.285575194 11.292513979 0.015816768 0 231 243
-2.860770874 8.454909507 19.735120109 255 6 157
-2.861866850 8.360663546 19.734726309 255 6 157
-2.906045058 8.263948439 19.853801864 255 2 164
-2.938505678 8.167933526 19.940386758 255 0 168
-2.935280614 8.073960728 19.928014755 255 0 168
-2.936743961 7.979721391 19.928645117 255 0 168
-2.937489399 7.885522483 19.927285766 255 0 168
-2.936605325 7.791413683 19.921408701 255 0 168
-2.940254861 7.697054040 19.928104966 255 0 168
-2.937403866 7.603051606 19.916775531 255 2 164
-2.936517669 7.508939655 19.910895791 255 2 164
-2.937639121 7.414718139 19.910584653 255 2 164
-2.939068325 7.320480281 19.911128080 255 2 164
-2.940113037 7.226263197 19.910606358 255 2 164
-2.943421725 7.131926819 19.916364223 255 2 164
-2.944218877 7.037723680 19.915158216 255 2 164
-2.948887445 6.943319279 19.924689658 255 0 168
-2.951820987 6.849007191 19.929410654 255 0 168
-2.953888776 6.754740926 19.931731852 255 0 168
-2.956253810 6.660460405 19.934878531 255 0 168
-2.959230145 6.566150132 19.939721676 255 0 168
-2.963042304 6.471799577 19.946883979 255 0 168
-2.967212633 6.377433416 19.955040790 255 0 168
-2.970582211 6.283109166 19.960978050 255 0 168
-2.972342205 6.188865448 19.962452548 255 0 168
-2.972467493 6.094701633 19.959394542 255 0 168
-2.971668078 6.000581673 19.953773076 255 0 168
-2.970897391 5.906458989 19.948232343 255 0 168
-2.970875060 5.812299535 19.944768168 255 0 168
-2.972171162 5.718077390 19.944961635 255 0 168
-2.974413810 5.623811398 19.947781398 255 0 168
-2.976487831 5.529554176 19.950134625 255 0 168
-2.978164850 5.435315994 19.951387926 255 0 168
-2.980529595 5.341047106 19.954549740 255 0 168
-2.983972216 5.246730720 19.960702173 255 0 168
-2.987245003 5.152423819 19.966384747 255 0 168
-2.989296604 5.058172774 19.968681521 255 0 168
-2.990029471 4.963980466 19.967321892 255 0 168
-2.989757628 4.869831710 19.963176763 255 0 168
-2.989926875 4.775662975 19.960256097 255 0 168
-2.990046675 4.681495743 19.957199373 255 0 168
-2.988036543 4.587418123 19.948236208 255 0 168
-2.985502562 4.493360221 19.937821136 255 0 168
-2.984437073 4.399238530 19.931480092 255 0 168
-2.985916309 4.305010367 19.932198187 255 0 168
-2.989868422 4.210681590 19.939776245 255 0 168
-2.995150548 4.116301286 19.951044476 255 0 168
-3.000671015 4.021914734 19.962975012 255 0 168
-3.005350045 3.927565072 19.972572913 255 0 168
-3.008241415 3.833288532 19.977213618 255 0 168
-3.009440043 3.739079363 19.977160326 255 0 168
-3.009973217 3.644896023 19.975262370 255 0 168
-3.010700005 3.550704960 19.973902544 255 0 168
-3.011419051 3.456514005 19.972522347 255 0 168
-3.013202925 3.362283038 19.974096819 255 0 168
-3.017449504 3.267961540 19.982503390 255 0 168
-3.022818519 3.173601437 19.994024551 255 0 168
-3.026002805 3.079323899 19.999486952 255 0 168
-3.025360695 2.985185292 19.994336833 255 0 168
-3.023483717 2.891089267 19.985762478 255 0 168
-3.022166936 2.796971399 19.978743054 255 0 168
-3.021518408 2.702828581 19.973578308 255 0 168
-3.022373707 2.608632893 19.972586032 255 0 168
-3.025719147 2.514352580 19.978502194 255 0 168
-3.031275913 2.419999862 19.990553492 255 0 168
-3.035750082 2.325686583 19.999603011 255 0 168
-3.036899507 2.231485042 19.999431179 255 0 168
-3.035465355 2.137367390 19.992093806 255 0 168
-3.031947105 2.043314658 19.978976325 255 0 168
-3.028028652 1.949271153 19.964749699 255 0 168
-3.025643320 1.855175966 19.954776879 255 0 168
-3.025647041 1.761004424 19.951432252 255 0 168
-3.028178156 1.666755054 19.955099668 255 0 168
-3.032306753 1.572458768 19.963199649 255 0 168
-3.034433917 1.478224415 19.965748820 255 0 168
-3.031830823 1.384129789 19.955177264 255 0 168
-3.029434797 1.290026426 19.945181147 255 0 168
-3.029661354 1.195845516 19.942461231 255 0 168
-3.032021771 1.101603858 19.945661865 255 0 168
-3.035123883 1.007342632 19.950921167 255 0 168
-3.038561784 0.913073827 19.957113143 255 0 168
-3.044330023 0.818743873 19.969770900 255 0 168
-3.043425558 0.724595550 19.963919015 255 0 168
-3.045518162 0.630367010 19.966382455 255 0 168
-3.044768193 0.536212961 19.960961326 255 0 168
-3.045061989 0.442030956 19.958436829 255 0 168
-3.047378224 0.347797596 19.961524013 255 0 168
-3.049515870 0.253569687 19.964116902 255 0 168
-3.049706266 0.159390128 19.961308876 255 0 168
-3.048687188 0.065238981 19.955146604 255 0 168
-3.047289587 -0.028904756 19.947935288 255 0 168
-3.045984243 -0.123052452 19.940980961 255 0 168
-3.048992183 -0.217300395 19.945993794 255 0 168
-2.993403650 -0.310231061 19.788446573 255 4 161
-2.960039427 -0.403695588 19.692555608 255 6 157
4.127201834 -0.441235454 0.032784602 0 231 243
4.153589217 -0.731500079 -0.050599975 0 231 246
4.150597239 -0.828502707 -0.045719217 0 231 246
4.135990857 -0.925728683 -0.008643877 0 231 246
4.124633017 -1.022882583 0.019428523 0 231 243
4.121998882 -1.119866322 0.023321329 0 231 243
4.119781122 -1.216841225 0.026061203 0 231 243
4.115523009 -1.313851574 0.034457946 0 231 243
4.112302313 -1.410841326 0.039980313 0 231 243
4.112349056 -1.507773621 0.036446791 0 231 243
4.113886987 -1.604681842 0.028780926 0 231 243
4.114990342 -1.701599090 0.022320801 0 231 243
4.113926504 -1.798552438 0.021869185 0 231 243
4.112151499 -1.895516783 0.023390084 0 231 243
4.110070198 -1.992485173 0.025761227 0 231 243
4.108787718 -2.089440938 0.025919235 0 231 243
4.110119031 -2.186358894 0.018832938 0 231 243
4.113364404 -2.283251840 0.006441929 0 231 246
4.115000172 -2.380169954 -0.001486119 0 231 246
4.112308617 -2.477147352 0.002582515 0 231 246
4.106470620 -2.574163887 0.015374516 0 231 243
4.106493529 -2.671103646 0.011920910 0 231 243
4.095317750 -2.768179515 0.039512277 0 231 243
4.087985747 -2.865202612 0.056449726 0 231 243
4.086333506 -2.962156573 0.057643515 0 231 243
4.086811189 -3.059086743 0.052934049 0 231 243
4.088027852 -3.156010248 0.046177161 0 231 243
4.090218954 -3.252925542 0.036720092 0 231 243
4.092805619 -3.349839409 0.026167552 0 231 243
4.094574872 -3.446763711 0.017882112 0 231 243
4.094616408 -3.543705718 0.014387349 0 231 243
4.092690700 -3.640665513 0.016347339 0 231 243
4.092349449 -3.737611522 0.013916063 0 231 243
4.095449334 -3.834530953 0.001946319 0 231 246
4.098491003 -3.931453962 -0.009860956 0 231 246
4.096619356 -4.028414972 -0.008046198 0 231 246
4.089691261 -4.125409300 0.007787582 0 231 246
4.082948737 -4.222397910 0.023108235 0 231 243
4.080713976 -4.319355277 0.025933364 0 231 243
4.083754613 -4.416282306 0.014134672 0 231 243
4.088803350 -4.513202012 -0.003230031 0 231 246
4.090929916 -4.610140396 -0.012492483 0 231 246
4.088520815 -4.707101234 -0.009179427 0 231 246
4.084333229 -4.804068178 -0.000934568 0 231 246
4.080491787 -4.901031415 0.006351906 0 231 246
4.076998155 -4.997991337 0.012675363 0 231 243
4.074303272 -5.094947040 0.016785611 0 231 243
4.074154825 -5.191895062 0.013837321 0 231 243
4.077043893 -5.288837288 0.002468925 0 231 246
4.082087919 -5.385778743 -0.014872852 0 231 246
4.087284358 -5.482724624 -0.032636148 0 231 246
4.088016680 -5.579679604 -0.038021878 0 231 246
4.083928829 -5.676638761 -0.030042735 0 231 246
4.079462193 -5.773595633 -0.021012169 0 231 246
4.075627957 -5.870549960 -0.013733660 0 231 246
4.071270417 -5.967501824 -0.005003045 0 231 246
4.065828586 -6.064450097 0.006735042 0 231 246
4.060326613 -6.161394887 0.018641167 0 231 243
4.056826712 -6.258339648 0.024997746 0 231 243
4.056510685 -6.355289152 0.022528098 0 231 243
4.057768559 -6.452243075 0.015695860 0 231 243
4.058250430 -6.549196513 0.011016272 0 231 246
4.057119789 -6.646145864 0.010808656 0 231 246
4.054950982 -6.743091353 0.013480636 0 231 243
4.055579697 -6.840047159 0.008397369 0 231 246
4.061426705 -6.937027122 -0.011153131 0 231 246
4.067253092 -7.034012236 -0.030645433 0 231 246
4.068520310 -7.130979074 -0.037495761 0 231 246
4.064812208 -7.227920092 -0.030550110 0 231 246
4.061252953 -7.324859917 -0.024015924 0 231 246
4.063683508 -7.421835555 -0.034088341 0 231 246
4.068748606 -7.518831446 -0.051464444 0 231 246
4.066940486 -7.615783379 -0.049782112 0 231 246
4.056918256 -7.712673454 -0.025323181 0 231 246
4.048958113 -7.809572781 -0.006580447 0 231 246
4.046500314 -7.906512016 -0.003092968 0 231 246
4.047624287 -8.003480957 -0.009535665 0 231 246
4.049273108 -8.100456246 -0.017432522 0 231 246
4.049334286 -8.197418689 -0.020926082 0 231 246
4.047823946 -8.294366618 -0.020061000 0 231 246
4.045602639 -8.391306951 -0.017223362 0 231 246
4.042853514 -8.488240797 -0.012920978 0 231 246
4.039209693 -8.585163549 -0.006136536 0 231 246
4.035617156 -8.682084856 0.000506942 0 231 246
4.033538720 -8.779021850 0.002953274 0 231 246
4.032256349 -8.875967615 0.003193421 0 231 246
4.030635157 -8.972908953 0.004374257 0 231 246
4.029995825 -9.069862406 0.002833689 0 231 246
4.029531084 -9.166818444 0.000810164 0 231 246
4.029275025 -9.263777730 -0.001790861 0 231 246
4.030038307 -9.360751829 -0.007217286 0 231 246
4.031221845 -9.457733316 -0.013807924 0 231 246
4.030832889 -9.554693306 -0.016036994 0 231 246
4.029056576 -9.651632790 -0.014417815 0 231 246
4.031342930 -9.748634667 -0.024063112 0 231 246
4.036053621 -9.845677581 -0.040429956 0 231 246
4.038253459 -9.942684025 -0.049833174 0 231 246
4.036387218 -10.039625212 -0.047960036 0 231 246
4.030554040 -10.136498156 -0.035085316 0 231 246
4.022142128 -10.233322479 -0.015058390 0 231 246
4.013282650 -10.330133155 0.006211029 0 231 246
4.007028209 -10.426985186 0.020257896 0 231 243
4.011858037 -10.524039021 0.003568586 0 231 246
4.011449811 -10.620998054 0.001405876 0 231 246
4.012931587 -10.717994088 -0.005996831 0 231 246
4.014188486 -10.814987595 -0.012774811 0 231 246
4.012645662 -10.911926554 -0.011787716 0 231 246
4.007860484 -11.008798678 -0.001807966 0 231 246
4.001321031 -11.105631294 0.013037905 0 231 243
3.995702810 -11.202479245 0.025330366 0 231 243
3.995404741 -11.299438766 0.022870440 0 231 243
3.999709545 -11.396500180 0.007647078 0 231 246
4.003199297 -11.493547405 -0.005314933 0 231 246
4.006653682 -11.590597270 -0.018177789 0 231 246
4.010977899 -11.687670708 -0.033451793 0 231 246
4.008013691 -11.784576572 -0.028512343 0 231 246
4.011204430 -11.881628257 -0.040640765 0 231 246
4.008690051 -11.978544417 -0.036946432 0 231 246
4.007666924 -12.075496257 -0.037386513 0 231 246
3.998933997 -12.172254680 -0.016444083 0 231 246
3.992603837 -12.269068374 -0.002163830 0 231 246
3.990672156 -12.365991696 -0.000080553 0 231 246
3.991942387 -12.462998313 -0.006875958 0 231 246
3.992892380 -12.559998150 -0.012782123 0 231 246
3.991605924 -12.656939098 -0.012484753 0 231 246
3.988294122 -12.753824365 -0.006569232 0 231 246
3.984616995 -12.850697720 0.000360695 0 231 246
3.983201211 -12.947632689 0.001020329 0 231 246
3.985706066 -13.044679222 -0.009192259 0 231 246
3.990000941 -13.141780212 -0.024368164 0 231 246
3.992635800 -13.238836624 -0.034939130 0 231 246
3.993427100 -13.335841100 -0.040396068 0 231 246
3.992964214 -13.432809243 -0.042373491 0 231 246
3.992066038 -13.529764547 -0.043142508 0 231 246
3.992900661 -13.626773367 -0.048716167 0 231 246
3.997093811 -13.723888447 -0.063603400 0 231 246
4.002457803 -13.821044516 -0.081736853 0 230 249
4.005164173 -13.918120464 -0.092498435 0 230 249
4.003794183 -14.015067311 -0.091953224 0 230 249
3.999048580 -14.111903319 -0.082044592 0 230 249
3.994843199 -14.208754361 -0.073633006 0 230 249
3.992847106 -14.305677005 -0.071347672 0 230 249
3.991849156 -14.402632730 -0.071829517 0 230 249
3.991136287 -14.499598236 -0.073100875 0 230 249
3.987864589 -14.596475255 -0.067274019 0 231 246
3.980434759 -14.693204783 -0.049913089 0 231 246
3.972276514 -14.789903574 -0.030530504 0 231 246
3.968211659 -14.886743505 -0.022499966 0 231 246
3.968748052 -14.983747671 -0.027230223 0 231 246
3.970358841 -15.080792329 -0.034939297 0 231 246
3.971004527 -15.177803314 -0.039970425 0 231 246
3.971691709 -15.274817118 -0.045115511 0 231 246
3.972879070 -15.371851095 -0.051646781 0 231 246
3.973295079 -15.468857352 -0.056037461 0 231 246
3.972024722 -15.565799770 -0.055749580 0 231 246
3.969548150 -15.662695081 -0.052114863 0 231 246
3.966364035 -15.759561479 -0.046516437 0 231 246
3.961037110 -15.856341239 -0.034973262 0 231 246
3.953833043 -15.953042531 -0.018222149 0 231 246
3.949825642 -16.049868282 -0.010336402 0 231 246
3.951523929 -16.146924548 -0.018275517 0 231 246
3.955548313 -16.244078695 -0.032665532 0 231 246
3.956416008 -16.341105475 -0.038298579 0 231 246
3.952856312 -16.437947945 -0.031649918 0 231 246
3.950035241 -16.534819731 -0.027048812 0 231 246
3.950236143 -16.631819228 -0.030828828 0 231 246
3.950932416 -16.728841005 -0.035981762 0 231 246
3.950274546 -16.825805200 -0.037377416 0 231 246
3.948631896 -16.922726461 -0.036040293 0 231 246
3.946870719 -17.019641989 -0.034373205 0 231 246
3.945249663 -17.116563195 -0.033093605 0 231 246
3.941578048 -17.213391611 -0.026124846 0 231 246
3.936251535 -17.310142844 -0.014564369 0 231 246
3.934227921 -17.407042000 -0.012164493 0 231 246
3.937242025 -17.504172981 -0.023737539 0 231 246
3.940730580 -17.601329136 -0.036625580 0 231 246
3.940141464 -17.698297337 -0.038201417 0 231 246
3.937632584 -17.795175011 -0.034450801 0 231 246
3.935961997 -17.892091527 -0.033024352 0 231 246
3.935265202 -17.989054364 -0.034297968 0 231 246
3.934503249 -18.086014283 -0.035389674 0 231 246
3.933728160 -18.182973749 -0.036443771 0 231 246
3.934254210 -18.279997462 -0.041106043 0 231 246
3.935833736 -18.377074630 -0.048689513 0 231 246
3.936546926 -18.474110460 -0.053868644 0 231 246
3.935576075 -18.571062752 -0.054375081 0 231 246
3.933375738 -18.667952647 -0.051469715 0 231 246
3.930008252 -18.764781921 -0.045325434 0 231 246
3.925317192 -18.861541167 -0.035508262 0 231 246
3.920342223 -18.958282847 -0.024902246 0 231 246
3.918141199 -19.055166586 -0.021990104 0 231 246
3.920549701 -19.152292293 -0.031863990 0 231 246
3.924652822 -19.249510563 -0.046437807 0 231 246
3.925333472 -19.346549794 -0.051516260 0 231 246
3.921507077 -19.443347654 -0.044090508 0 231 246
3.917784644 -19.540148991 -0.036951920 0 231 246
3.916225686 -19.637066392 -0.035813884 0 231 246
3.916157209 -19.734065336 -0.038809481 0 231 246
3.913783740 -19.830937362 -0.035409506 0 231 246
3.905700624 -19.927489973 -0.016168764 0 231 246
3.906343677 -20.024527074 -0.021134714 0 231 246
3.906194200 -20.121520643 -0.023900889 0 231 246
3.911040726 -20.218799196 -0.040525859 0 231 246
3.917663021 -20.316183981 -0.062076135 0 231 246
3.932350507 -20.414039798 -0.106000005 0 230 249
3.732232609 -33.690276771 0.025003877 0 231 243
3.667073291 -37.370387536 0.092063820 0 232 240
3.664254376 -38.728780263 0.058383014 0 231 243
3.652114328 -40.377229224 0.041991077 0 231 243
3.646959475 -40.473589950 0.053366170 0 231 243
3.642698298 -40.570070379 0.062261389 0 231 243
3.645716997 -40.667552124 0.050946550 0 231 243
3.646733773 -40.764760153 0.045190818 0 231 243
3.643016442 -40.861313324 0.052579711 0 231 243
3.637418438 -40.957602926 0.065191238 0 231 243
3.633973222 -41.054189157 0.071827108 0 231 243
3.634994871 -41.151398027 0.066062523 0 231 243
3.636722189 -41.248707387 0.058339872 0 231 243
3.635873776 -41.345656763 0.057769572 0 231 243
3.633601197 -41.442405511 0.061154488 0 231 243
3.630672945 -41.539060614 0.066361012 0 231 243
3.627692752 -41.635706883 0.071712956 0 231 243
3.626717524 -41.732636572 0.071499472 0 231 243
3.629119822 -41.830047576 0.061909692 0 231 243
3.633140739 -41.927692471 0.047827028 0 231 243
3.637605733 -42.025404852 0.032512501 0 231 243
3.639839250 -42.122800889 0.023394650 0 231 243
3.637747594 -42.219576449 0.026286595 0 231 243
3.635580414 -42.316340272 0.029389422 0 231 243
3.638484807 -42.413837577 0.018412321 0 231 243
3.644688208 -42.511816857 -0.001723322 0 231 246
3.646747124 -42.609198367 -0.010350768 0 231 246
3.639573852 -42.705234767 0.006656096 0 231 246
3.626602811 -42.800418001 0.039761855 0 231 243
3.620122253 -42.896544341 0.054848034 0 231 243
3.609074921 -42.991994679 0.082615319 0 231 243
3.605367533 -43.088519876 0.090004256 0 231 243
3.609903864 -43.186262033 0.074505251 0 231 243
3.612675770 -43.283746859 0.063906371 0 231 243
3.622703856 -43.382313165 0.033161310 0 231 243
3.623943275 -43.479578208 0.026819666 0 231 243
3.618255441 -43.575809977 0.039713271 0 231 243
3.612892254 -43.672086783 0.051706723 0 231 243
3.617941923 -43.769924031 0.034789031 0 231 243
3.612488143 -43.866184509 0.047036427 0 231 243
3.603888771 -43.961966757 0.068019208 0 231 243
3.597321699 -44.058050723 0.083360354 0 231 243
3.596154727 -44.154949696 0.083708615 0 231 243
3.598630418 -44.252402593 0.073943639 0 231 243
3.600314924 -44.349737525 0.066376631 0 231 243
3.599672996 -44.446718892 0.065270486 0 231 243
3.599264674 -44.543736341 0.063516860 0 231 243
3.600345097 -44.640982976 0.057630617 0 231 243
3.601546264 -44.738249814 0.051410244 0 231 243
3.602360521 -44.835458609 0.046265342 0 231 243
3.603792028 -44.932764348 0.039407655 0 231 243
3.604672016 -45.029986382 0.034082512 0 231 243
3.603465061 -45.126885231 0.034553378 0 231 243
3.600879960 -45.223569020 0.038852164 0 231 243
3.598365935 -45.320262710 0.042954790 0 231 243
3.596654483 -45.417081013 0.044830069 0 231 243
3.594231442 -45.513786992 0.048682443 0 231 243
3.589826205 -45.610179735 0.058040118 0 231 243
3.583801915 -45.706314284 0.071894784 0 231 243
3.577144080 -45.802344725 0.087509935 0 231 243
3.570778010 -45.898417107 0.102316194 0 232 240
3.566064066 -45.994748084 0.112536082 0 232 240
3.565292835 -46.091704671 0.111809005 0 232 240
3.568817409 -46.189347830 0.099154382 0 232 240
3.573889774 -46.287242374 0.082202903 0 231 243
3.578487633 -46.385065408 0.066570135 0 231 243
3.582690124 -46.482829120 0.052036332 0 231 243
3.587316440 -46.580665206 0.036326723 0 231 243
3.590692265 -46.678303414 0.024090639 0 231 243
3.589553694 -46.775213271 0.024391539 0 231 243
3.583533770 -46.871329953 0.038248533 0 231 243
3.574992739 -46.967032212 0.059107625 0 231 243
3.567609785 -47.062917725 0.076752173 0 231 243
3.564454542 -47.159490090 0.082658042 0 231 243
3.564791088 -47.256633482 0.078868708 0 231 243
3.565732810 -47.353877392 0.073399998 0 231 243
3.565223112 -47.450883642 0.071962922 0 231 243
3.562920250 -47.547594117 0.075506524 0 231 243
3.559879478 -47.644181440 0.081100457 0 231 243
3.558278190 -47.741006051 0.082698211 0 231 243
3.560645730 -47.838490270 0.073275840 0 231 243
3.565345538 -47.936365860 0.057377944 0 231 243
3.566785527 -48.033701185 0.050533587 0 231 243
3.563480015 -48.130243688 0.056868565 0 231 243
3.558277680 -48.226466047 0.068472230 0 231 243
3.553855578 -48.322816442 0.077910431 0 231 243
3.551390304 -48.419494168 0.081915717 0 231 243
3.551260212 -48.516565421 0.079437340 0 231 243
3.552899216 -48.613937006 0.072047282 0 231 243
3.555294002 -48.711438933 0.062559519 0 231 243
3.557175505 -48.808856137 0.054498289 0 231 243
3.557209242 -48.905960446 0.051569529 0 231 243
3.555627004 -49.002789348 0.053129590 0 231 243
3.554128193 -49.099632100 0.054459153 0 231 243
3.554321725 -49.196765032 0.051090121 0 231 243
3.555482111 -49.294065257 0.045037206 0 231 243
3.558080685 -49.391615175 0.034991446 0 231 243
3.561844834 -49.489369323 0.021709887 0 231 243
3.563796656 -49.586813193 0.013462453 0 231 243
3.561154656 -49.683461797 0.017973719 0 231 243
3.556309894 -49.779725874 0.028603531 0 231 243
3.553780100 -49.876390684 0.032805605 0 231 243
3.553155260 -49.973387239 0.031718548 0 231 243
3.550206614 -50.069977077 0.037086217 0 231 243
3.545397902 -50.166238921 0.047620791 0 231 243
3.542859163 -50.262897167 0.051852504 0 231 243
3.545945110 -50.360545871 0.040464669 0 231 243
3.551210360 -50.458582769 0.023025627 0 231 243
3.551766726 -50.555790687 0.018665123 0 231 243
3.549319460 -50.652466801 0.022647447 0 231 243
3.548070207 -50.749354858 0.023303838 0 231 243
3.548109957 -50.846472456 0.020381568 0 231 243
3.545700652 -50.943153441 0.024262021 0 231 243
3.538949145 -51.039056135 0.040202969 0 231 243
3.528723623 -51.134331262 0.065793373 0 231 243
3.523663118 -51.230527760 0.077040565 0 231 243
3.514735107 -51.326024436 0.099030080 0 232 240
3.516118262 -51.423376470 0.092384002 0 232 240
3.519034219 -51.521007641 0.081482044 0 231 243
3.530966800 -51.620276499 0.045539493 0 231 243
3.535950669 -51.718292857 0.028896520 0 231 243
3.533623833 -51.814982799 0.032558611 0 231 243
3.526683631 -51.910830023 0.049034612 0 231 243
3.525558411 -52.007735853 0.049361864 0 231 243
3.520833493 -52.103982065 0.059687807 0 231 243
3.524228314 -52.201716210 0.047463795 0 231 243
3.523616971 -52.298716659 0.046367352 0 231 243
3.531186209 -52.397225660 0.022551803 0 231 243
3.534390326 -52.494934775 0.010860771 0 231 246
3.534911259 -52.592150365 0.006622999 0 231 246
3.536209123 -52.689511264 0.000228562 0 231 246
3.536831468 -52.786748348 -0.004288573 0 231 246
3.531934338 -52.882958454 0.006525100 0 231 246
3.523631189 -52.978529747 0.026799851 0 231 243
3.517556017 -53.074512194 0.040887926 0 231 243
3.523161146 -53.172680141 0.022536326 0 231 243
3.520044608 -53.269214993 0.028409464 0 231 243
3.515072510 -53.365398981 0.039437477 0 231 243
3.508498888 -53.461277875 0.054914854 0 231 243
3.502904102 -53.557337469 0.067674840 0 231 243
3.499628862 -53.653832774 0.073993655 0 231 243
3.499125927 -53.750852375 0.072613722 0 231 243
3.501848443 -53.848485627 0.062276379 0 231 243
3.505987579 -53.946391633 0.048005540 0 231 243
3.507982341 -54.043892223 0.039691747 0 231 243
3.507293725 -54.140881822 0.038832116 0 231 243
3.506939312 -54.237935718 0.037045410 0 231 243
3.507859693 -54.335234942 0.031719127 0 231 243
3.508380464 -54.432458743 0.027503908 0 231 243
3.509044560 -54.529711349 0.022891750 0 231 243
3.511417670 -54.627295429 0.013533922 0 231 243
3.514039023 -54.724930161 0.003487717 0 231 246
3.514666319 -54.822180876 -0.001018811 0 231 246
3.513525999 -54.919089288 -0.000614567 0 231 246
3.511428090 -55.015811106 0.002450601 0 231 246
3.508054244 -55.112283108 0.009060944 0 231 246
3.503708170 -55.208563202 0.018372924 0 231 243
3.498117429 -55.304596896 0.031143284 0 231 243
3.490857864 -55.400299500 0.048550195 0 231 243
3.484660799 -55.496206250 0.063007191 0 231 243
3.485073985 -55.593411563 0.059104802 0 231 243
3.492991244 -55.692099532 0.034360205 0 231 243
3.503018949 -55.791211839 0.003754682 0 231 246
3.509528609 -55.889635332 -0.017078028 0 231 246
3.507598467 -55.986388552 -0.014467094 0 231 246
3.500828224 -56.082178011 0.001589032 0 231 246
3.496227002 -56.178395442 0.011621672 0 231 243
3.495723921 -56.275428671 0.010272348 0 231 246
3.496858812 -56.372790081 0.004374472 0 231 246
3.498317456 -56.470218046 -0.002421538 0 231 246
3.499112403 -56.567514567 -0.007372882 0 231 246
3.497398344 -56.664307458 -0.005353877 0 231 246
3.493947679 -56.760749590 0.001490050 0 231 246
3.490346020 -56.857159329 0.008754604 0 231 246
3.487688755 -56.953758241 0.013397130 0 231 243
3.487215690 -57.050798868 0.011973783 0 231 243
3.488494388 -57.148195856 0.005685706 0 231 246
3.489338140 -57.245506046 0.000606926 0 231 246
3.488486317 -57.342471807 0.000239137 0 231 246
3.486370130 -57.439179303 0.003384587 0 231 246
3.484725423 -57.535982468 0.005221578 0 231 246
3.483485290 -57.632868122 0.005935941 0 231 246
3.481316865 -57.729562819 0.009230053 0 231 246
3.478488305 -57.826120700 0.014359057 0 231 243
3.476647748 -57.922880973 0.016744811 0 231 243
3.476829117 -58.020058447 0.013515280 0 231 243
3.477591498 -58.117357121 0.008672975 0 231 246
3.477082150 -58.214393355 0.007364422 0 231 246
3.475225740 -58.311150026 0.009798907 0 231 246
3.473077647 -58.407845309 0.013044815 0 231 243
3.471765053 -58.504713974 0.013971050 0 231 243
3.471031315 -58.601703357 0.013290501 0 231 243
3.469465835 -58.698518817 0.014921559 0 231 243
3.467541902 -58.795258657 0.017549523 0 231 243
3.465875231 -58.892051840 0.019464039 0 231 243
3.463143554 -58.988620319 0.024338169 0 231 243
3.458250021 -59.084731554 0.035218841 0 231 243
3.454393114 -59.181058802 0.043221130 0 231 243
3.456124515 -59.278566650 0.035700987 0 231 243
3.459938163 -59.376518113 0.022397737 0 231 243
3.462263207 -59.474157056 0.013230778 0 231 243
3.462781561 -59.571414070 0.009083745 0 231 246
3.460841902 -59.668148214 0.011765985 0 231 243
3.456700476 -59.764411382 0.020565731 0 231 243
3.453996709 -59.860979735 0.025372992 0 231 243
3.452703954 -59.957849219 0.026261761 0 231 243
3.449874379 -60.054388469 0.031420896 0 231 243
3.444381289 -60.150353344 0.043980324 0 231 243
3.447402163 -60.248149518 0.032889615 0 231 243
3.458015502 -60.347587873 0.000708502 0 231 246
3.464628218 -60.446169939 -0.020357997 0 231 246
3.397119851 -67.329638482 -0.021293150 0 231 246
3.336717339 -71.396288954 0.037809072 0 231 243
3.183635527 -80.295816737 0.232260276 0 232 237
3.185105149 -80.393451204 0.225719776 0 232 237
3.194181861 -80.493338259 0.198038326 0 232 237
3.210887739 -80.595493212 0.149154539 0 232 240
3.229770379 -80.698307452 0.094222068 0 232 240
3.234496979 -80.796932230 0.078633999 0 231 243
3.234743848 -80.894229051 0.075497410 0 231 243
3.232586262 -80.990810751 0.079044613 0 231 243
3.232113677 -81.087893947 0.077909920 0 231 243
3.233892466 -81.185649683 0.070519192 0 231 243
3.233650717 -81.282803473 0.068745260 0 231 243
3.228465834 -81.378478153 0.080710905 0 231 243
3.231036784 -81.476474133 0.071122003 0 231 243
3.231211760 -81.573753773 0.068193377 0 231 243
3.235479842 -81.672264198 0.053889924 0 231 243
3.230702051 -81.768056975 0.064728869 0 231 243
3.231274752 -81.865458672 0.060698326 0 231 243
3.228462094 -81.961840364 0.066077937 0 231 243
3.233750231 -82.060667268 0.048944001 0 231 243
3.230281261 -82.156850715 0.056150054 0 231 243
3.228741688 -82.253616426 0.057994872 0 231 243
3.230482564 -82.351376241 0.050723385 0 231 243
3.232844158 -82.449326543 0.041727860 0 231 243
3.232194095 -82.546363990 0.041103915 0 231 243
3.230013655 -82.642935909 0.044734598 0 231 243
3.227540830 -82.739417774 0.049179108 0 231 243
3.224774173 -82.835808806 0.054441474 0 231 243
3.221996373 -82.932195024 0.059736003 0 231 243
3.220213813 -83.028884240 0.062265578 0 231 243
3.220517550 -83.126211748 0.058997720 0 231 243
3.223600541 -83.224392446 0.048006414 0 231 243
3.228616624 -83.323169745 0.031643433 0 231 243
3.233299454 -83.421849174 0.016207823 0 231 243
3.226991573 -83.517150018 0.031320849 0 231 243
3.227550470 -83.614562939 0.027349581 0 231 243
3.234342939 -83.713900475 0.006053862 0 231 246
3.227518229 -83.809036915 0.022606937 0 231 243
3.219197046 -83.903705906 0.043320578 0 231 243
3.212608264 -83.998905769 0.059220407 0 231 243
3.207273157 -84.094490048 0.071636972 0 231 243
3.201777579 -84.190021111 0.084500777 0 231 243
3.196950547 -84.285756494 0.095507623 0 232 240
3.196222312 -84.382764669 0.095123290 0 232 240
3.201382044 -84.481607950 0.078374809 0 231 243
3.207331117 -84.580702211 0.059433518 0 231 243
3.206944750 -84.677822484 0.058102428 0 231 243
3.201378595 -84.773322943 0.071169533 0 231 243
3.194740323 -84.868484061 0.087217782 0 231 243
3.189195557 -84.963983673 0.100227893 0 232 240
3.185384176 -85.060023931 0.108421315 0 232 240
3.183503070 -85.156668727 0.111250762 0 232 240
3.182356958 -85.253544106 0.112038481 0 232 240
3.181314935 -85.350452114 0.112538058 0 232 240
3.180750248 -85.447510628 0.111712051 0 232 240
3.180802232 -85.544764209 0.109173175 0 232 240
3.181227980 -85.642136749 0.105596576 0 232 240
3.182768393 -85.739863280 0.098922914 0 232 240
3.186790074 -85.838378345 0.085353670 0 231 243
3.190891378 -85.936922488 0.071564248 0 231 243
3.191380778 -86.034322631 0.067815337 0 231 243
3.190938993 -86.131427571 0.066655839 0 231 243
3.191813736 -86.228952285 0.061838177 0 231 243
3.192174446 -86.326314428 0.058450445 0 231 243
3.189977515 -86.422860802 0.062172944 0 231 243
3.185708343 -86.518743649 0.071656523 0 231 243
3.180619269 -86.614361459 0.083420270 0 231 243
3.174337026 -86.709593657 0.098501723 0 232 240
3.170037774 -86.805458026 0.108072550 0 232 240
3.172222650 -86.903402906 0.099621484 0 232 240
3.177344533 -87.002294854 0.083007940 0 231 243
3.180775468 -87.100646909 0.071095644 0 231 243
3.180074462 -87.197670101 0.070669547 0 231 243
3.177082981 -87.293954089 0.076611190 0 231 243
3.174153467 -87.390256507 0.082381784 0 231 243
3.171692226 -87.486708894 0.086851959 0 231 243
3.170653323 -87.583620868 0.087369790 0 231 243
3.172825850 -87.681574345 0.078962291 0 231 243
3.175656173 -87.779743800 0.068727522 0 231 243
3.176275923 -87.877197456 0.064638430 0 231 243
3.173167482 -87.973438785 0.070913437 0 231 243
3.167642664 -88.068890974 0.083906255 0 231 243
3.163757790 -88.164874671 0.092341857 0 232 240
3.163078633 -88.261903226 0.091867943 0 232 240
3.163950618 -88.359439238 0.087083589 0 231 243
3.164378591 -88.456831244 0.083534587 0 231 243
3.165138378 -88.554333050 0.079064420 0 231 243
3.164365562 -88.651333160 0.078855508 0 231 243
3.160271916 -88.747242238 0.087878528 0 231 243
3.154175385 -88.842490000 0.102470091 0 232 240
3.149502031 -88.938202484 0.113106925 0 232 240
3.147073324 -89.034652194 0.117505585 0 232 240
3.146018519 -89.131554277 0.118086431 0 232 240
3.144853249 -89.228419739 0.118975507 0 232 240
3.143247504 -89.325139257 0.121090141 0 232 240
3.142509640 -89.422145738 0.120793512 0 232 240
3.143315084 -89.519664190 0.116208134 0 232 240
3.144932211 -89.617453469 0.109367677 0 232 240
3.145795270 -89.714994021 0.104624460 0 232 240
3.145967879 -89.812306148 0.101801644 0 232 240
3.146520507 -89.909745722 0.097923654 0 232 240
3.144893338 -90.006459292 0.100106030 0 232 240
3.139534527 -90.101926084 0.112662497 0 232 240
3.133317976 -90.197102665 0.127604463 0 232 240
3.131584293 -90.293775709 0.130086495 0 232 240
3.133594183 -90.391702642 0.122163570 0 232 240
3.135367613 -90.489552483 0.114899093 0 232 240
3.135186505 -90.586747885 0.113068876 0 232 240
3.135165571 -90.683997702 0.110794581 0 232 240
3.137170415 -90.781930183 0.102890301 0 232 240
3.139229678 -90.879883242 0.094835901 0 232 240
3.140171015 -90.977461363 0.089890209 0 231 243
3.138196981 -91.074056065 0.093049700 0 232 240
3.134242951 -91.169980319 0.101714294 0 232 240
3.131698593 -91.266379506 0.106461530 0 232 240
3.133453163 -91.364234602 0.099259908 0 232 240
3.138066019 -91.463061691 0.084114051 0 231 243
3.139567610 -91.560836025 0.077617952 0 231 243
3.135108025 -91.656584707 0.087693775 0 231 243
3.130315137 -91.752217157 0.098697317 0 232 240
3.128506733 -91.848863979 0.101405818 0 232 240
3.135986296 -91.948679815 0.078296856 0 231 243
3.132659861 -92.044810162 0.085227498 0 231 243
3.130160996 -92.141221700 0.089858852 0 231 243
3.129205560 -92.238160513 0.090200958 0 231 243
3.128667787 -92.335242458 0.089383214 0 231 243
3.127173222 -92.431996310 0.091226344 0 232 240
3.123679157 -92.528062710 0.098628901 0 232 240
3.118470638 -92.623537396 0.110798539 0 232 240
3.113951316 -92.719246085 0.121053538 0 232 240
3.110331585 -92.815262102 0.128809031 0 232 240
3.107253533 -92.911462962 0.135059935 0 232 240
3.105168386 -93.008005193 0.138551912 0 232 240
3.103968516 -93.104852712 0.139584130 0 232 240
3.105570693 -93.202670268 0.132828244 0 232 240
3.110344935 -93.301589367 0.117255628 0 232 240
3.115304741 -93.400577221 0.101168313 0 232 240
3.119130472 -93.499175566 0.088234702 0 231 243
3.120284881 -93.596848417 0.082728141 0 231 243
3.116714694 -93.692877747 0.090356486 0 231 243
3.110827123 -93.788097212 0.104428061 0 232 240
3.105957742 -93.883668142 0.115670409 0 232 240
3.105358974 -93.980727955 0.115042164 0 232 240
3.110802578 -94.079901231 0.097617990 0 232 240
3.119408804 -94.180186678 0.071403224 0 231 243
3.126056826 -94.279793064 0.050633178 0 231 243
3.127624649 -94.377622650 0.043986644 0 231 243
3.125691428 -94.474224291 0.047073794 0 231 243
3.119697446 -94.569397115 0.061450624 0 231 243
3.109110539 -94.662949084 0.088596572 0 231 243
3.098918774 -94.756632842 0.114645342 0 232 240
3.095062610 -94.852544731 0.123082929 0 232 240
3.097370426 -94.950631452 0.114386331 0 232 240
3.100245094 -95.048921058 0.104115078 0 232 240
3.100158825 -95.146165470 0.102076162 0 232 240
3.097784220 -95.242599609 0.106399826 0 232 240
3.094778237 -95.338808623 0.112479868 0 232 240
3.092128399 -95.435142474 0.117571039 0 232 240
3.090094596 -95.531693969 0.120950853 0 232 240
3.088904337 -95.628544786 0.121986841 0 232 240
3.088554233 -95.725694691 0.120688410 0 232 240
3.088390354 -95.822911422 0.118873453 0 232 240
3.089722936 -95.920663010 0.112899564 0 232 240
3.093780591 -96.019390329 0.099351236 0 232 240
3.097848248 -96.118125023 0.085776248 0 231 243
3.097408968 -96.215249122 0.084731532 0 231 243
3.091235887 -96.310317486 0.099627780 0 232 240
3.083317874 -96.404755387 0.119376125 0 232 240
3.078837524 -96.500423215 0.129569066 0 232 240
3.082366453 -96.598969545 0.117497526 0 232 240
3.091766308 -96.699633541 0.089106040 0 231 243
3.097559084 -96.799005044 0.070743320 0 231 243
3.093565048 -96.894849651 0.079588967 0 231 243
3.084819036 -96.988975052 0.101646290 0 232 240
3.076304525 -97.083178115 0.123061292 0 232 240
3.069963836 -97.178162328 0.138434298 0 232 240
3.067614681 -97.274589007 0.142712004 0 232 240
3.070304061 -97.372842634 0.132983685 0 232 240
3.076751165 -97.472463826 0.112809977 0 232 240
3.083310225 -97.572131352 0.092326171 0 232 240
3.086502625 -97.670579211 0.081202886 0 231 243
3.085725825 -97.767583976 0.081115211 0 231 243
3.083192279 -97.863948045 0.085912513 0 231 243
3.080974277 -97.960426045 0.089833778 0 231 243
3.079643001 -98.057227114 0.091291096 0 232 240
3.077089034 -98.153580442 0.096148717 0 232 240
3.070242917 -98.248360320 0.112939893 0 232 240
3.062716914 -98.342886299 0.131622413 0 232 240
3.060181155 -98.439238839 0.136433013 0 232 240
3.063222595 -98.537639373 0.125739860 0 232 240
3.069103328 -98.637087270 0.107154457 0 232 240
3.074734984 -98.736448642 0.089262645 0 231 243
3.078233129 -98.835028612 0.077303266 0 231 243
3.078421304 -98.932390630 0.074546966 0 231 243
3.074762888 -99.028332666 0.082485612 0 231 243
3.069370968 -99.123631588 0.095244725 0 232 240
3.065561806 -99.219512850 0.103604858 0 232 240
3.064778497 -99.316512973 0.103554064 0 232 240
3.066592952 -99.414476668 0.096282441 0 232 240
3.068906852 -99.512627857 0.087623477 0 231 243
3.069520355 -99.610149495 0.083692921 0 231 243
3.068668141 -99.707126935 0.083838357 0 231 243
3.067324515 -99.803921353 0.085351139 0 231 243
3.065086937 -99.900382107 0.089350372 0 231 243
3.061505806 -99.996340366 0.097086003 0 232 240
3.058608140 -100.092551864 0.102922726 0 232 240
3.059163832 -100.190053280 0.099159913 0 232 240
3.062439925 -100.288574204 0.087835240 0 231 243
3.063822124 -100.386388566 0.081776965 0 231 243
3.064367596 -100.483890762 0.078046048 0 231 243
3.066089452 -100.581835787 0.071045805 0 231 243
3.071204449 -100.681058290 0.054613376 0 231 243
3.074722638 -100.779684520 0.042621415 0 231 243
3.073342172 -100.876468913 0.044249485 0 231 243
3.070566616 -100.972726865 0.049757262 0 231 243
3.069470947 -101.069617396 0.050595915 0 231 243
3.070076273 -101.167150421 0.046706744 0 231 243
3.069456267 -101.264221126 0.046225331 0 231 243
3.066471110 -101.360396562 0.052320549 0 231 243
3.066869752 -101.457852755 0.049009494 0 231 243
3.072006750 -101.557107485 0.032526275 0 231 243
3.069040924 -101.653289748 0.038571270 0 231 243
3.056151006 -101.745697851 0.072207988 0 231 243
3.042976319 -101.837988315 0.106637716 0 232 240
3.037480506 -101.933194231 0.119720155 0 232 240
3.040049516 -102.031471629 0.110382180 0 232 240
3.045168840 -102.130725050 0.093955039 0 232 240
3.049039844 -102.229506121 0.080999601 0 231 243
3.050187251 -102.327249184 0.075617396 0 231 243
3.049812155 -102.424410913 0.074469188 0 231 243
3.049305377 -102.521522537 0.073688250 0 231 243
3.046455190 -102.617735478 0.079423601 0 231 243
3.038412253 -102.711952922 0.099596987 0 232 240
3.038872755 -102.809433303 0.096130362 0 232 240
3.037668786 -102.906274265 0.097292465 0 232 240
3.041741453 -103.005147195 0.083785629 0 231 243
3.040338518 -103.101912914 0.085503233 0 231 243
3.045312601 -103.201139158 0.069492587 0 231 243
3.047432407 -103.299267276 0.061418573 0 231 243
3.044062346 -103.395274842 0.068608698 0 231 243
3.036055247 -103.489485615 0.088691983 0 231 243
3.036275932 -103.586878726 0.085901445 0 231 243
3.031011149 -103.682145188 0.098362898 0 232 240
3.032283417 -103.779946053 0.092651071 0 232 240
3.037839959 -103.879413428 0.075029149 0 231 243
3.042355605 -103.978480819 0.060302305 0 231 243
3.042816855 -104.075973644 0.056848763 0 231 243
3.038975433 -104.171790456 0.065358821 0 231 243
3.033781968 -104.267077455 0.077629077 0 231 243
3.032424134 -104.363859019 0.079236555 0 231 243
3.038365034 -104.463493354 0.060552946 0 231 243
3.044953810 -104.563386409 0.040069237 0 231 243
3.041141132 -104.659211091 0.048505267 0 231 243
3.029860202 -104.752105406 0.077706112 0 231 243
3.021932797 -104.846307772 0.097584560 0 232 240
3.022808092 -104.943962712 0.092990423 0 232 240
3.029683948 -105.043978520 0.071714317 0 231 243
3.034976927 -105.143377218 0.054840177 0 231 243
3.035375047 -105.240852083 0.051576183 0 231 243
3.032641491 -105.337092823 0.057020251 0 231 243
3.030353604 -105.433508024 0.061226426 0 231 243
3.030013396 -105.530691715 0.060018702 0 231 243
3.031096728 -105.628438832 0.054854312 0 231 243
3.034302263 -105.727027628 0.043790775 0 231 243
3.040201576 -105.826687069 0.025238943 0 231 243
3.044246596 -105.925616106 0.011843716 0 231 243
3.040768842 -106.021561808 0.019365066 0 231 243
3.030439695 -106.114782332 0.045936444 0 231 243
3.018452197 -106.207335769 0.077119789 0 231 243
3.010170980 -106.301356541 0.097999835 0 232 240
3.009255098 -106.398307474 0.098403241 0 232 240
3.014236493 -106.497611322 0.082411587 0 231 243
3.020870770 -106.597579757 0.061825576 0 231 243
3.023916343 -106.696119281 0.051218409 0 231 243
3.020380030 -106.792028029 0.058912069 0 231 243
3.013831891 -106.886728335 0.074980737 0 231 243
3.010479350 -106.982705405 0.082165844 0 231 243
3.012008290 -107.080639482 0.075780062 0 231 243
3.016672381 -107.179834718 0.060678717 0 231 243
3.021224672 -107.278989214 0.045889368 0 231 243
3.020448717 -107.376003430 0.045915417 0 231 243
3.014485506 -107.470928012 0.060364904 0 231 243
3.006973291 -107.565224020 0.079122347 0 231 243
3.000190797 -107.659809389 0.095852145 0 232 240
2.996002191 -107.755438087 0.105371267 0 232 240
2.996273775 -107.852867813 0.102490715 0 232 240
3.000257470 -107.951800915 0.089290385 0 231 243
3.004821309 -108.050972749 0.074478209 0 231 243
3.008072644 -108.149616441 0.063316407 0 231 243
3.009816017 -108.247651135 0.056348421 0 231 243
3.010877800 -108.345410852 0.051276657 0 231 243
3.009527850 -108.442191166 0.052911524 0 231 243
3.005729356 -108.537974308 0.061355391 0 231 243
3.001837618 -108.633717147 0.070059703 0 231 243
2.998761291 -108.729790169 0.076498067 0 231 243
2.996287690 -108.826107489 0.081261819 0 231 243
2.994715391 -108.922791807 0.083520801 0 231 243
2.993877142 -109.019775756 0.083740031 0 231 243
2.993120209 -109.116792961 0.083734346 0 231 243
2.992846811 -109.214008336 0.082385423 0 231 243
2.993599545 -109.311644987 0.078184638 0 231 243
2.995129501 -109.409601911 0.071824047 0 231 243
2.996966255 -109.507686695 0.064611603 0 231 243
2.998373217 -109.605596723 0.058595311 0 231 243
2.999089958 -109.703224281 0.054499265 0 231 243
2.998928089 -109.800490941 0.052847258 0 231 243
2.996249858 -109.896720170 0.058192890 0 231 243
2.991594961 -109.992131876 0.069035613 0 231 243
2.989203884 -110.088476099 0.073585216 0 231 243
2.990639568 -110.186401916 0.067496081 0 231 243
2.990029460 -110.283482474 0.067096229 0 231 243
2.984852949 -110.378670893 0.079393993 0 231 243
2.977019443 -110.472753874 0.099080491 0 232 240
2.969075977 -110.566785775 0.119073951 0 232 240
2.964814361 -110.662342144 0.128831551 0 232 240
2.967058228 -110.760601669 0.120502366 0 232 240
2.974174967 -110.860892176 0.098625717 0 232 240
2.981556083 -110.961298927 0.076015151 0 231 243
2.987394671 -111.061068594 0.057694616 0 231 243
2.990362622 -111.159644951 0.047356814 0 231 243
2.989602514 -111.256666408 0.047385742 0 231 243
2.986873441 -111.352864381 0.052890400 0 231 243
2.984038830 -111.449016673 0.058689683 0 231 243
2.982419745 -111.545676698 0.061110465 0 231 243
2.981697996 -111.642712412 0.061037447 0 231 243
2.980250992 -111.739443722 0.062982123 0 231 243
2.980356837 -111.836826966 0.060610380 0 231 243
2.984994782 -111.936116856 0.045638589 0 231 243
2.991202883 -112.036071841 0.026302242 0 231 243
2.995249194 -112.135121399 0.012977775 0 231 243
2.995887663 -112.232737571 0.009129758 0 231 246
2.994521250 -112.329508593 0.010857364 0 231 246
2.992494916 -112.426000360 0.014421016 0 231 243
2.990027518 -112.522304653 0.019212203 0 231 243
2.988037993 -112.618809895 0.022675873 0 231 243
2.989224640 -112.716659711 0.017309535 0 231 243
2.992586905 -112.815433519 0.005895166 0 231 246
2.994492868 -112.913592455 -0.001468862 0 231 246
2.994314360 -113.010868006 -0.003035953 0 231 246
2.993515133 -113.107880101 -0.002875990 0 231 246
2.991875116 -113.204534371 -0.000377075 0 231 246
2.986159621 -113.299452076 0.013454723 0 231 243
2.978194078 -113.393406725 0.033543906 0 231 243
2.973897621 -113.488921451 0.043432528 0 231 243
2.974163358 -113.586381929 0.040637293 0 231 243
2.977172260 -113.685015834 0.030215937 0 231 243
2.980337760 -113.783719642 0.019360326 0 231 243
2.979220989 -113.880592611 0.020412621 0 231 243
2.970242507 -113.974095537 0.043325402 0 231 243
2.960031932 -114.067063547 0.069665230 0 231 243
2.959224362 -114.164061935 0.069861358 0 231 243
2.966804127 -114.264665038 0.046737781 0 231 243
2.976678624 -114.366261678 0.017234909 0 231 243
2.982033686 -114.465920635 0.000299420 0 231 246
2.979363938 -114.562126091 0.005677955 0 231 246
2.974403023 -114.657341839 0.017428233 0 231 243
2.971062016 -114.753253676 0.024675570 0 231 243
2.970430369 -114.850334219 0.024390731 0 231 243
2.973601486 -114.949059469 0.013533501 0 231 243
2.978609922 -115.048583046 -0.002431223 0 231 246
2.980764796 -115.146874754 -0.010460465 0 231 246
2.979919370 -115.243867671 -0.010146220 0 231 246
2.980402402 -115.341437086 -0.013524572 0 231 246
2.982631699 -115.439766032 -0.021757246 0 231 246
2.982963138 -115.537272105 -0.024711757 0 231 246
2.978738739 -115.632796434 -0.014997578 0 231 246
2.971727009 -115.727104044 0.002467984 0 231 246
2.963992389 -115.821091690 0.021944764 0 231 243
2.957354039 -115.915552286 0.038374566 0 231 243
2.951609976 -116.010398891 0.052318993 0 231 243
2.937835768 -116.101731684 0.088592644 0 231 243
2.911623402 -116.187612945 0.159452327 0 232 240
2.881528991 -116.271774739 0.241107742 0 232 237
2.851459917 -116.355925003 0.322694317 0 233 234
2.805177899 -116.432940954 0.449363897 0 234 228
2.784449391 -116.521140510 0.504981568 0 234 225
2.776845480 -116.615091804 0.524106379 0 234 225
2.773586336 -116.710948636 0.531151340 0 234 225
2.771070741 -116.807130826 0.536129972 0 234 225
2.766906615 -116.902585353 0.545693697 0 234 225
2.758161498 -116.996017231 0.567996560 0 235 222
2.756679600 -117.092648488 0.570104439 0 235 222
2.764866292 -117.193550020 0.545328891 0 234 225
2.779626447 -117.297364597 0.502276296 0 234 225
2.798749898 -117.403121813 0.447092328 0 234 228
2.815297632 -117.507753570 0.399071643 0 233 231
2.824097355 -117.608964225 0.372596248 0 233 231
2.831674596 -117.709639863 0.349521252 0 233 231
2.837091829 -117.809362784 0.332453526 0 233 231
2.835088636 -117.905792688 0.336020146 0 233 231
2.825215891 -117.998721235 0.361469993 0 233 231
2.801585412 -118.085517994 0.425175912 0 234 228
2.787158780 -118.176398071 0.463290904 0 234 228
2.783158376 -118.271917238 0.472415802 0 234 228
2.783081461 -118.369185097 0.470632154 0 234 228
2.785653528 -118.467636823 0.461483864 0 234 228
2.793180511 -118.568306480 0.438559004 0 234 228
2.803681651 -118.670313402 0.407365330 0 233 231
2.805313056 -118.768356386 0.400836157 0 233 231
2.797274322 -118.862066399 0.421197121 0 234 228
2.784542139 -118.953665060 0.454610029 0 234 228
2.771016341 -119.044898106 0.490230951 0 234 225
2.761159318 -119.137770109 0.515651611 0 234 225
2.761302505 -119.235133226 0.513266507 0 234 225
2.773178002 -119.337778777 0.478259262 0 234 228
2.778067292 -119.437286204 0.462679301 0 234 228
2.769749902 -119.530842266 0.483823492 0 234 228
2.763391155 -119.625276496 0.499522613 0 234 225
2.767428045 -119.724402397 0.486316359 0 234 228
2.770269049 -119.822991275 0.476436609 0 234 228
2.771226235 -119.920730461 0.471796250 0 234 228
2.775243757 -120.019856906 0.458647355 0 234 228
2.784046357 -120.121155911 0.432194043 0 234 228
2.794570664 -120.223243289 0.400954467 0 233 231
2.796919482 -120.321627333 0.392449146 0 233 231
2.795595326 -120.418344649 0.394158208 0 233 231
2.794113865 -120.514989946 0.396305857 0 233 231
2.793405527 -120.611986563 0.396304901 0 233 231
2.787335374 -120.706540460 0.411214424 0 234 228
2.781950305 -120.801402597 0.424220166 0 234 228
2.783979149 -120.899644443 0.416611599 0 234 228
2.787842731 -120.998726372 0.403902437 0 233 231
2.786773165 -121.095556793 0.404911801 0 233 231
2.778897604 -121.189273180 0.424847451 0 234 228
2.771534884 -121.283218862 0.443358281 0 234 228
2.769209385 -121.379467828 0.447863511 0 234 228
2.770048288 -121.477166912 0.443570787 0 234 228
2.770230370 -121.574565671 0.441105629 0 234 228
2.767140098 -121.670461701 0.447740961 0 234 228
2.762250065 -121.765528337 0.459382008 0 234 228
2.759480688 -121.861567660 0.465127404 0 234 228
2.755417628 -121.957009538 0.474471286 0 234 228
2.747803360 -122.050811835 0.493691109 0 234 225
2.746266386 -122.147412567 0.496013142 0 234 225
2.753711413 -122.248159959 0.473360309 0 234 228
2.759466871 -122.348132824 0.455406796 0 234 228
2.755562737 -122.443643040 0.464314634 0 234 228
2.742535510 -122.534927788 0.498592066 0 234 225
2.735098703 -122.628792938 0.517325547 0 234 225
2.734721023 -122.725925928 0.516431006 0 234 225
2.740490651 -122.825911783 0.498443896 0 234 225
2.750513884 -122.927878102 0.468630037 0 234 228
2.759202640 -123.029232373 0.442528125 0 234 228
2.766143050 -123.129780526 0.421288982 0 234 228
2.767502944 -123.227736349 0.415568638 0 234 228
2.761196733 -123.322121586 0.431166449 0 234 228
2.751348996 -123.414850888 0.456613328 0 234 228
2.741374555 -123.507513990 0.482413759 0 234 228
2.732456410 -123.600663355 0.505278178 0 234 225
2.736803479 -123.700007976 0.491257276 0 234 225
2.738580784 -123.798154088 0.484383271 0 234 228
2.738984705 -123.895658962 0.481329401 0 234 228
2.739407431 -123.993173478 0.478224412 0 234 228
2.736914391 -124.089321205 0.483228455 0 234 228
2.741025113 -124.188567550 0.469870612 0 234 228
2.743598217 -124.287095177 0.460789587 0 234 228
2.742762029 -124.384022244 0.461189943 0 234 228
2.743092736 -124.481498309 0.458346690 0 234 228
2.743580163 -124.579048953 0.455068816 0 234 228
2.744026247 -124.676581000 0.451907077 0 234 228
2.746588881 -124.775112365 0.442861022 0 234 228
2.746416093 -124.872354753 0.441422526 0 234 228
2.738348562 -124.965867170 0.461938125 0 234 228
2.732560304 -125.060451746 0.476116942 0 234 228
2.720751984 -125.152183194 0.507037002 0 234 225
2.715615638 -125.247066347 0.519405443 0 234 225
2.723355194 -125.348049890 0.495970873 0 234 225
2.735380605 -125.451073254 0.460619778 0 234 228
2.725514173 -125.543711697 0.486144709 0 234 228
2.697895548 -125.627907101 0.561034738 0 234 225
2.682957719 -125.718112606 0.600664372 0 235 222
2.686562997 -125.817133202 0.588731866 0 235 222
