ply
format ascii 1.0
comment coordinate_system ground
comment units millimeter
element vertex 1579
property double x
property double y
property double z
property uchar red
property uchar green
property uchar blue
comment color_mapping zg_high_contrast_from_zg
comment color_zg_range_mm -0.372323708 0.631632393
end_header
5.875617636 126.502156595 0.631632393 255 0 168
5.876476907 126.406042955 0.624427873 255 2 164
5.895815581 126.319529656 0.566288054 255 31 109
5.905995841 126.228245428 0.533392778 255 49 76
5.898308895 126.127682234 0.549747422 255 39 95
5.888081614 126.025806866 0.573105458 255 27 117
5.881496300 125.925825158 0.586425881 255 22 128
5.878018509 125.827456271 0.591181696 255 20 131
5.875133996 125.729395989 0.594303199 255 18 135
5.872396835 125.631413120 0.597019547 255 16 139
5.871899539 125.534588401 0.593562731 255 18 135
5.875316215 125.439783415 0.579317965 255 25 120
5.879191073 125.345211205 0.563811040 255 33 106
5.882234214 125.250206412 0.550597598 255 39 95
5.876634274 125.150746841 0.561210121 255 33 106
5.867657566 125.049552704 0.581132039 255 24 124
5.867716922 124.953011480 0.576146492 255 27 117
5.867827333 124.856495497 0.571021138 255 29 113
5.860512450 124.756165478 0.586365381 255 22 128
5.851917796 124.655183381 0.605238630 255 12 146
5.850226576 124.557746641 0.605082768 255 12 146
5.858636756 124.465485930 0.577081792 255 25 120
5.870091359 124.374776595 0.540689034 255 45 84
5.873240658 124.279808497 0.527191996 255 51 73
5.864626120 124.178823003 0.546125186 255 41 91
5.854455835 124.077048364 0.569348320 255 29 113
5.847936656 123.977144303 0.582507576 255 24 124
5.854654184 123.883996178 0.559177730 255 35 102
5.854697823 123.787440247 0.554246935 255 37 98
5.853654376 123.690329655 0.552313930 255 39 95
5.865574275 123.599816595 0.514644678 255 57 62
5.871548283 123.506269628 0.493367675 255 69 40
5.869303381 123.408540421 0.494749477 255 67 44
5.862305251 123.308398256 0.509236144 255 61 55
5.859009937 123.210139385 0.513515854 255 59 58
5.844554868 123.106223569 0.548562514 255 41 91
5.828768652 123.001643370 0.587280353 255 22 128
5.819025601 122.900133811 0.609339240 255 10 150
5.819422111 122.803760378 0.603445525 255 14 142
5.824749080 122.709878168 0.583959849 255 24 124
5.831458852 122.616689481 0.560662656 255 35 102
5.829200760 122.518968105 0.562090173 255 33 106
5.816737508 122.416100211 0.591653975 255 20 131
5.811060668 122.316661229 0.602509080 255 14 142
5.813401277 122.221263389 0.591261222 255 20 131
5.822321024 122.129173721 0.561875487 255 33 106
5.836177998 122.039559064 0.518878379 255 55 66
5.845354126 121.947580898 0.488787086 255 71 36
5.844120209 121.850367941 0.487397520 255 71 36
5.835529587 121.749463997 0.506291869 255 61 55
5.830667342 121.650434835 0.514907970 255 57 62
5.830571136 121.553796024 0.510384721 255 59 58
5.830193957 121.457015706 0.506637094 255 61 55
5.829438294 121.360045429 0.503933948 255 63 51
5.831344245 121.264405113 0.493893322 255 69 40
5.838569562 121.171419093 0.469187264 255 80 18
5.841150997 121.076109095 0.457285913 255 86 7
5.836333631 120.977106615 0.465785298 255 82 14
5.831801568 120.878249039 0.473499131 255 78 22
5.833751116 120.782621261 0.463342849 255 82 14
5.841355683 120.689804625 0.437595271 255 98 0
5.843503663 120.594268524 0.426893555 255 107 0
5.837097288 120.494480308 0.439779295 255 96 0
5.827368939 120.393047048 0.461825759 255 84 11
5.815901658 120.290757742 0.488668191 255 71 36
5.802462833 120.187499089 0.520948052 255 55 66
5.792459237 120.085951033 0.543757238 255 43 87
5.791821084 119.989044321 0.540744024 255 45 84
5.799221200 119.896111992 0.515567476 255 57 62
5.807501230 119.803607878 0.487965417 255 71 36
5.809659427 119.708074033 0.477244264 255 76 25
5.807595756 119.610454787 0.478165333 255 76 25
5.805930840 119.513032763 0.477987882 255 76 25
5.807334866 119.417122798 0.469349064 255 80 18
5.812942899 119.323280069 0.449118883 255 90 0
5.812846515 119.226626592 0.444619122 255 93 0
5.796566070 119.122018743 0.484747281 255 73 33
5.778495879 119.016543496 0.529812058 255 49 76
5.769469169 118.915518549 0.549940973 255 39 95
5.771375680 118.819860114 0.539922651 255 45 84
5.779989319 118.727485261 0.511410163 255 59 58
5.789127696 118.635359815 0.481451391 255 75 29
5.797451141 118.542827867 0.453740522 255 88 3
5.807371618 118.451069261 0.421626438 255 109 0
5.817500090 118.359403773 0.388939456 255 131 0
5.826258890 118.267061239 0.360030130 255 153 0
5.831880417 118.173181278 0.339772872 255 166 0
5.833114974 118.077158550 0.331614020 255 172 0
5.831441879 117.979718308 0.331474335 255 172 0
5.827172713 117.881015455 0.338494716 255 166 0
5.819127834 117.780479518 0.355928336 255 156 0
5.805041519 117.677014274 0.390023509 255 131 0
5.790846510 117.573506091 0.424419795 255 107 0
5.785876035 117.474481435 0.433378838 255 101 0
5.788669943 117.379222198 0.420926926 255 109 0
5.794315228 117.285340589 0.400612526 255 123 0
5.800569710 117.191748521 0.378618898 255 139 0
5.809301932 117.099348642 0.349793005 255 158 0
5.826096448 117.010835843 0.298733735 255 194 0
5.855104294 116.928204571 0.213993029 247 223 0
5.883162705 116.845092396 0.131870806 238 243 0
5.903705421 116.758335946 0.070475719 222 255 4
5.913867379 116.666564143 0.037709482 193 255 17
5.918236420 116.571996348 0.020919940 178 255 24
5.922516167 116.477381391 0.004377481 164 255 30
5.926333568 116.382540158 -0.010889045 149 255 36
5.927244336 116.286299865 -0.018138527 142 255 40
5.925956030 116.189003204 -0.019322220 142 255 40
5.924055542 116.091413227 -0.018816567 142 255 40
5.921502717 115.993511402 -0.016510794 142 255 40
5.920980970 115.896582491 -0.019805620 138 255 41
5.923011367 115.800873305 -0.030138215 131 255 44
5.924725748 115.705010700 -0.039598348 120 255 49
5.924710371 115.608320173 -0.044286894 116 255 51
5.923712292 115.511160032 -0.046264177 116 255 51
5.923005932 115.414138785 -0.049045045 113 255 52
5.921777751 115.316868675 -0.050385726 113 255 52
5.918967919 115.218845998 -0.047363127 113 255 52
5.916239644 115.120863338 -0.044564428 116 255 51
5.914609378 115.023403493 -0.044793098 116 255 51
5.912853280 114.925884261 -0.044673704 116 255 51
5.910324488 114.827998972 -0.042422119 120 255 49
5.907713673 114.730075838 -0.039943271 120 255 49
5.905622975 114.632400098 -0.038897950 124 255 48
5.903649185 114.534780373 -0.038174058 124 255 48
5.900954725 114.436820530 -0.035461415 124 255 48
5.899183644 114.339298057 -0.035294589 124 255 48
5.900396938 114.243184747 -0.043358272 116 255 51
5.901929506 114.147220205 -0.052301662 109 255 54
5.901031033 114.050107935 -0.054538751 109 255 54
5.897998849 113.951990722 -0.050889546 109 255 54
5.894721131 113.853759401 -0.046562047 116 255 51
5.892282585 113.755924200 -0.044548161 116 255 51
5.890704883 113.658494341 -0.044907702 116 255 51
5.890070235 113.561507426 -0.047867471 113 255 52
5.890136571 113.464848854 -0.052759799 109 255 54
5.892240458 113.369144140 -0.063271422 98 255 59
5.895761814 113.274100622 -0.077692020 87 255 64
5.897554959 113.178245008 -0.087344722 76 255 68
5.895528496 113.080601631 -0.086460580 76 255 68
5.891452779 112.982001748 -0.079922763 84 255 65
5.889770882 112.884521270 -0.079987004 84 255 65
5.891344389 112.788559235 -0.089030017 76 255 68
5.890765873 112.691592410 -0.092135889 73 255 70
5.886124182 112.592733509 -0.084032703 80 255 67
5.878949640 112.492699040 -0.068941628 95 255 60
5.879255529 112.396146004 -0.074484021 87 255 64
5.871232882 112.295723975 -0.057051216 106 255 56
5.865706428 112.196465484 -0.046502990 116 255 51
5.863303626 112.098658602 -0.044570317 116 255 51
5.864440445 112.002492467 -0.052400799 109 255 54
5.867736083 111.907323877 -0.066185571 98 255 59
5.870266589 111.811798015 -0.077858805 87 255 64
5.871062952 111.715467949 -0.084747367 80 255 67
5.870123781 111.618335016 -0.086847345 76 255 68
5.865703368 111.519595790 -0.079342926 84 255 65
5.861060156 111.420756344 -0.071222797 91 255 62
5.861027004 111.324042967 -0.075819072 87 255 64
5.863444333 111.228456506 -0.087174422 76 255 68
5.863334394 111.131705178 -0.091556971 73 255 70
5.855728580 111.031508984 -0.075259781 87 255 64
5.845576685 110.930148847 -0.051937527 109 255 54
5.839573761 110.830698698 -0.040059843 120 255 49
5.837059566 110.732851197 -0.037805479 124 255 48
5.836063806 110.635700083 -0.039739048 120 255 49
5.835702112 110.538838973 -0.043420857 116 255 51
5.836618891 110.442561751 -0.050628708 113 255 52
5.839542345 110.347199596 -0.063371608 98 255 59
5.845026177 110.253002934 -0.083177201 80 255 67
5.850631908 110.158856812 -0.103318283 62 255 75
5.850065891 110.061893364 -0.106431747 58 255 76
5.843449090 109.962174715 -0.092851042 73 255 70
5.838272664 109.863115447 -0.083242968 80 255 67
5.838492868 109.766512078 -0.088522407 76 255 68
5.842402118 109.671582976 -0.103978553 62 255 75
5.847488552 109.577184171 -0.122681581 44 255 83
5.850421711 109.481804392 -0.135443079 33 255 88
5.846757243 109.383432861 -0.130001276 36 255 86
5.836726664 109.282181903 -0.106994631 58 255 76
5.826154953 109.180693001 -0.082493761 80 255 67
5.819881928 109.081153623 -0.069851589 95 255 60
5.817256650 108.983264981 -0.067272368 95 255 60
5.815381047 108.885715635 -0.066760457 95 255 60
5.813245670 108.788049767 -0.065530798 98 255 59
5.811965685 108.690769860 -0.066660164 95 255 60
5.812104270 108.594128331 -0.071702427 91 255 62
5.811090421 108.496967741 -0.073564082 91 255 62
5.808887516 108.399272956 -0.072144037 91 255 62
5.808904885 108.302575437 -0.076848900 87 255 64
5.812199462 108.207346595 -0.090594960 73 255 70
5.816395257 108.112518157 -0.106826714 58 255 76
5.817712379 108.016397002 -0.115114967 51 255 80
5.817600667 107.919634897 -0.119459914 47 255 81
5.817911286 107.823060748 -0.124969166 44 255 83
5.816580845 107.725752744 -0.125949476 40 255 84
5.810835300 107.626475168 -0.114746643 51 255 80
5.801556063 107.525625958 -0.093792477 73 255 70
5.794047998 107.425571780 -0.077724125 87 255 64
5.791645999 107.327794606 -0.075743436 87 255 64
5.792554716 107.231490370 -0.082896802 80 255 67
5.792489899 107.134752110 -0.087362980 76 255 68
5.791421431 107.037567569 -0.089058827 76 255 68
5.793218264 106.941653645 -0.098659883 66 255 73
5.798949326 106.847480688 -0.119115772 47 255 81
5.802881718 106.752506227 -0.134607740 33 255 88
5.799014648 106.654078025 -0.128577484 40 255 84
5.790096519 106.553419634 -0.108608481 58 255 76
5.780931010 106.452657944 -0.087955633 76 255 68
5.784356089 106.357457098 -0.102043795 62 255 75
5.783563234 106.260393521 -0.104492123 62 255 75
5.778977150 106.161659081 -0.096472374 69 255 72
5.784736915 106.067479841 -0.117000123 51 255 80
5.788598494 105.972460804 -0.132289127 36 255 86
5.787312554 105.875176788 -0.133372921 33 255 88
5.780318954 105.775387831 -0.118705586 47 255 81
5.778829455 105.678016971 -0.119225552 47 255 81
5.770243807 105.577537334 -0.100162685 66 255 73
5.766628602 105.479239203 -0.094814593 69 255 72
5.768381510 105.383290829 -0.104278873 62 255 75
5.771283026 105.287842195 -0.116911859 51 255 80
5.773277822 105.191994614 -0.127041807 40 255 84
5.775299388 105.096156337 -0.137244706 29 255 89
5.777398185 105.000349328 -0.147659813 22 255 92
5.772112470 104.901324157 -0.137695703 29 255 89
5.761613298 104.800033862 -0.113343333 55 255 78
5.753864823 104.699946454 -0.096580581 69 255 72
5.752529206 104.602649353 -0.097513826 69 255 72
5.754876689 104.506950672 -0.108610149 58 255 76
5.756014360 104.410724822 -0.116366875 51 255 80
5.755249611 104.313673163 -0.118872570 47 255 81
5.755902028 104.217234586 -0.125288220 40 255 84
5.758691500 104.121718764 -0.137600571 29 255 89
5.761633901 104.026266037 -0.150334063 18 255 94
5.761754380 103.929592117 -0.155278879 15 255 96
5.759368504 103.831836325 -0.153305782 15 255 96
5.755811409 103.733576830 -0.148099340 22 255 92
5.752194403 103.635293404 -0.142726469 25 255 91
5.749114617 103.537242962 -0.138835132 29 255 89
5.746422547 103.439360640 -0.136012753 33 255 88
5.744350188 103.341745609 -0.134899609 33 255 88
5.743628386 103.244710685 -0.137512754 29 255 89
5.743526356 103.147941104 -0.141835381 25 255 91
5.741913378 103.050523724 -0.141986994 25 255 91
5.734562770 102.950651899 -0.126302361 40 255 84
5.726857396 102.850633179 -0.109637411 55 255 78
5.724830086 102.753044502 -0.108642244 58 255 76
5.726425051 102.657002164 -0.117643270 47 255 81
5.729044565 102.561394556 -0.129471058 36 255 86
5.730470549 102.465275732 -0.138003841 29 255 89
5.729424151 102.368102829 -0.139711972 29 255 89
5.726719803 102.270224952 -0.136843164 33 255 88
5.724069642 102.172371312 -0.134122847 33 255 88
5.723213812 102.075280394 -0.136353859 33 255 88
5.724846786 101.979244632 -0.145453042 22 255 92
5.726010618 101.883008029 -0.153256436 15 255 96
5.722911442 101.784965272 -0.149292711 18 255 94
5.715579640 101.685134082 -0.133645544 33 255 88
5.706615634 101.584618012 -0.113492148 51 255 80
5.698249616 101.484360361 -0.094988016 69 255 72
5.692318470 101.385135156 -0.083203198 80 255 67
5.693810369 101.289041479 -0.091905821 73 255 70
5.709190607 101.198792662 -0.138941378 29 255 89
5.726927997 101.109522726 -0.192482509 0 252 120
5.727718693 100.916377811 -0.203828641 0 250 129
5.572141438 94.468350064 -0.074437426 87 255 64
5.618333880 94.002809177 -0.224537704 0 248 144
5.478347299 86.886332530 -0.164328681 7 255 99
5.426435074 81.158213646 -0.280697687 0 241 186
5.417682447 81.058430292 -0.260885499 0 243 171
5.401799151 80.956216324 -0.221369138 0 248 141
5.395234842 80.857194376 -0.207600929 0 250 129
5.399257726 80.761786156 -0.223085519 0 248 141
5.403770286 80.666540843 -0.239922259 0 246 156
5.402686079 80.569387461 -0.241293236 0 246 156
5.394621226 80.469862191 -0.223374296 0 248 144
5.385464799 80.369971805 -0.202437857 0 251 126
5.384083039 80.272723419 -0.202983265 0 251 126
5.388761832 80.177527665 -0.220274344 0 248 141
5.392073956 80.081865269 -0.233788086 0 247 150
5.393915975 79.985702845 -0.243238611 0 245 159
5.394679899 79.889174379 -0.249709092 0 245 162
5.392276964 79.791576946 -0.247427616 0 245 162
5.392862875 79.694987016 -0.253404150 0 244 165
5.380680566 79.594101216 -0.224096994 0 248 144
5.374535052 79.495252126 -0.211470155 0 250 132
5.376093135 79.398992200 -0.220129842 0 248 141
5.378836261 79.303127542 -0.232063254 0 247 150
5.377426644 79.205869555 -0.232520125 0 247 150
5.373110373 79.107639744 -0.224943715 0 248 144
5.370553398 79.010000163 -0.222227806 0 248 141
5.371517351 78.913536630 -0.229240601 0 247 147
5.370699459 78.816477687 -0.231328388 0 247 150
5.366303904 78.718227512 -0.223528448 0 248 144
5.363546557 78.620524678 -0.220254481 0 248 141
5.362526582 78.523400249 -0.221780599 0 248 141
5.363107793 78.426807055 -0.227730526 0 247 147
5.363651675 78.330200268 -0.233576288 0 247 150
5.361697741 78.232765476 -0.232518278 0 247 150
5.358054660 78.134772910 -0.226791176 0 248 144
5.354559910 78.036831332 -0.221472867 0 248 141
5.353385860 77.939657168 -0.222566830 0 248 141
5.354316947 77.843176737 -0.229477437 0 247 147
5.355370086 77.746734985 -0.236724350 0 246 153
5.353897297 77.649461318 -0.236989603 0 246 153
5.350446786 77.551538626 -0.231788120 0 247 150
5.346007064 77.453293366 -0.223851701 0 248 144
5.340808953 77.354802283 -0.213818211 0 249 135
5.335770142 77.256366511 -0.204223797 0 250 129
5.334153408 77.159052200 -0.204085725 0 250 129
5.335187862 77.062603785 -0.211273636 0 250 132
5.337242421 76.966486414 -0.221279816 0 248 141
5.339902062 76.870563757 -0.232957304 0 247 150
5.341731071 76.774368097 -0.242338198 0 246 156
5.339885162 76.676976250 -0.241561579 0 246 156
5.336042851 76.578937147 -0.235266311 0 246 153
5.333093983 76.481189807 -0.231439179 0 247 150
5.331358773 76.383836880 -0.230965227 0 247 147
5.329056462 76.286301110 -0.228922846 0 247 147
5.325767245 76.188447549 -0.224151747 0 248 144
5.323090583 76.090793346 -0.221072525 0 248 141
5.322533246 75.993823337 -0.223849681 0 248 144
5.324379320 75.897626534 -0.233268482 0 247 150
5.327694612 75.801899865 -0.246747039 0 245 159
5.330506459 75.706008238 -0.258833194 0 243 171
5.331242409 75.609447924 -0.265180829 0 243 174
5.329484000 75.512087255 -0.264633264 0 243 174
5.327919802 75.414789290 -0.264621403 0 243 174
5.327964304 75.318005833 -0.269054824 0 242 177
5.326765072 75.220824586 -0.270049592 0 242 177
5.322049415 75.122522426 -0.261324000 0 243 171
5.314162514 75.023213293 -0.243831973 0 245 159
5.306048903 74.923837302 -0.225712068 0 248 144
5.300411732 74.825253395 -0.214435819 0 249 135
5.298157634 74.727746393 -0.212509288 0 249 135
5.297881346 74.630867101 -0.216048412 0 249 138
5.298667943 74.534323666 -0.222524372 0 248 141
5.300624442 74.438148703 -0.232233017 0 247 150
5.301646392 74.341676389 -0.239357513 0 246 156
5.299106545 74.244079236 -0.236635855 0 246 153
5.296508969 74.146465064 -0.233753522 0 247 150
5.298636913 74.050338787 -0.243932021 0 245 159
5.300671542 73.954180792 -0.253851611 0 244 165
5.296269217 73.856000270 -0.245977496 0 245 159
5.287118804 73.756333986 -0.224977707 0 248 144
5.286766007 73.659428283 -0.228294849 0 247 147
5.279951866 73.560501617 -0.213750522 0 249 135
5.277679280 73.462997790 -0.211758789 0 249 135
5.281557285 73.367413520 -0.226767578 0 248 144
5.288854681 73.272890849 -0.251227459 0 244 165
5.286962815 73.175502383 -0.250285067 0 245 162
5.291015656 73.079962158 -0.265774349 0 243 174
5.289979179 72.982838291 -0.267194406 0 242 177
5.292152555 72.886709592 -0.277486385 0 241 183
5.282453627 72.786902237 -0.254958666 0 244 168
5.274652414 72.687688413 -0.237675539 0 246 153
5.271586768 72.589942513 -0.233481869 0 247 150
5.273077550 72.493603852 -0.241882653 0 246 156
5.275528732 72.397559202 -0.252937341 0 244 165
5.276557591 72.301074208 -0.260059222 0 243 171
5.275409733 72.203918628 -0.261162797 0 243 171
5.272490977 72.106219532 -0.257369822 0 244 168
5.270468767 72.008796769 -0.256054162 0 244 168
5.271243957 71.912231381 -0.262470646 0 243 171
5.272848791 71.815918363 -0.271179631 0 242 180
5.271881975 71.718817842 -0.272778388 0 242 180
5.267877269 71.620790527 -0.265977903 0 243 174
5.263803410 71.522744430 -0.258985099 0 243 171
5.262056382 71.425408739 -0.258423686 0 244 168
5.261369278 71.328395749 -0.260791373 0 243 171
5.260083626 71.231200830 -0.261503298 0 243 171
5.257447893 71.133596835 -0.258481785 0 244 168
5.251783646 71.035077115 -0.247086648 0 245 162
5.244242412 70.935993356 -0.230501239 0 247 147
5.239046380 70.837622872 -0.220398106 0 248 141
5.237655500 70.740403346 -0.220813538 0 248 141
5.238168725 70.643757729 -0.226492024 0 248 144
5.238310460 70.546999183 -0.231142454 0 247 150
5.238082594 70.450128701 -0.234770036 0 247 150
5.238006713 70.353303237 -0.238816762 0 246 153
5.237320303 70.256294073 -0.241174538 0 246 156
5.235438466 70.158926823 -0.240226271 0 246 156
5.232363949 70.061203677 -0.235979511 0 246 153
5.227892814 69.963065109 -0.227870370 0 247 147
5.221868438 69.864466013 -0.215465770 0 249 138
5.215721515 69.765834253 -0.202721155 0 251 126
5.213146679 69.668268882 -0.199851294 0 251 126
5.215822104 69.572264319 -0.211496116 0 250 132
5.221252042 69.477074135 -0.230755622 0 247 147
5.224450251 69.381217800 -0.243843953 0 245 159
5.222850512 69.283938505 -0.243665888 0 245 159
5.218686640 69.185901895 -0.236397348 0 246 153
5.215418065 69.088131940 -0.231603010 0 247 150
5.215373251 68.991313962 -0.235720789 0 246 153
5.217863927 68.895241656 -0.246847837 0 245 162
5.220112324 68.799095453 -0.257304044 0 244 168
5.219035178 68.701970327 -0.258564478 0 244 168
5.216031076 68.604280204 -0.254495973 0 244 165
5.214869743 68.507131274 -0.255521473 0 244 168
5.217413175 68.411066011 -0.266789365 0 242 177
5.221844437 68.315549463 -0.283276063 0 240 189
5.223255470 68.219147735 -0.291410998 0 239 195
5.220243448 68.121455604 -0.287315251 0 240 192
5.215904592 68.023378969 -0.279549687 0 241 186
5.211814540 67.925377176 -0.272470907 0 242 180
5.207773294 67.827391904 -0.265525925 0 243 174
5.204613162 67.729664301 -0.261016105 0 243 171
5.204071951 67.632696316 -0.263746621 0 243 174
5.205866198 67.536403016 -0.272933789 0 242 180
5.208436725 67.440331662 -0.284266444 0 240 189
5.210616643 67.344144979 -0.294518062 0 239 198
5.210467643 67.247285389 -0.298328981 0 238 201
5.204958914 67.148884164 -0.287318531 0 240 192
5.192687358 67.048544573 -0.257606721 0 244 168
5.183533046 66.949107451 -0.236513185 0 246 153
5.175184549 66.849907313 -0.217646565 0 249 138
5.171743196 66.752116153 -0.212347820 0 249 135
5.169414992 66.654644777 -0.210126013 0 250 132
5.165427111 66.556701040 -0.203313745 0 251 126
5.159802827 66.458293473 -0.191975303 0 252 120
5.154800056 66.360066232 -0.182354292 0 253 111
5.153377360 66.262859061 -0.182631913 0 253 111
5.155815744 66.166747580 -0.193585369 0 252 120
5.158863619 66.070806152 -0.206223267 0 250 129
5.163015570 65.975174011 -0.221913302 0 248 141
5.166802581 65.879434826 -0.236593241 0 246 153
5.167088601 65.782704122 -0.241590877 0 246 156
5.164266864 65.685096717 -0.237993483 0 246 153
5.161837463 65.587601109 -0.235479914 0 246 153
5.160953938 65.490541020 -0.237240148 0 246 153
5.159752964 65.393391755 -0.238121446 0 246 153
5.157449181 65.295933573 -0.235951970 0 246 153
5.154140572 65.198195162 -0.231002635 0 247 147
5.150455708 65.100353354 -0.225011659 0 248 144
5.149439465 65.003258446 -0.226399436 0 248 144
5.153790716 64.907659644 -0.242629674 0 246 156
5.160315703 64.812661818 -0.264870378 0 243 174
5.164025018 64.716875583 -0.279323545 0 241 186
5.158367276 64.618485585 -0.267871259 0 242 177
5.147409036 64.518629824 -0.241759217 0 246 156
5.139869732 64.419728110 -0.225100959 0 248 144
5.137551202 64.322274628 -0.222879670 0 248 141
5.139483144 64.225995539 -0.232412153 0 247 150
5.142658113 64.130056889 -0.245381312 0 245 159
5.146738106 64.034364204 -0.260852432 0 243 171
5.151197411 63.938771922 -0.277371644 0 241 183
5.151408407 63.842009177 -0.282140795 0 240 189
5.145971129 63.743697033 -0.271287949 0 242 180
5.139429442 63.645085928 -0.257379513 0 244 168
5.135618969 63.547225737 -0.251023423 0 244 165
5.135071741 63.450258579 -0.253691205 0 244 165
5.135644224 63.353596338 -0.259454680 0 243 171
5.135382591 63.256705820 -0.262910222 0 243 174
5.132780039 63.159178340 -0.259890432 0 243 171
5.127403185 63.060898926 -0.249196594 0 245 162
5.121299453 62.962425804 -0.236491210 0 246 153
5.117965244 62.864706334 -0.231444402 0 247 150
5.119406026 62.768279486 -0.239602921 0 246 156
5.122868549 62.672396550 -0.253352110 0 244 165
5.124236883 62.575945683 -0.261308272 0 243 171
5.123609903 62.478955899 -0.263744788 0 243 174
5.123666065 62.382149467 -0.268069685 0 242 177
5.124747572 62.285617460 -0.275229465 0 241 183
5.124765333 62.188798741 -0.279446078 0 241 186
5.121611626 62.091130374 -0.274889821 0 241 183
5.114889849 61.992509989 -0.260463614 0 243 171
5.106530482 61.893456912 -0.241506788 0 246 156
5.099537430 61.794773603 -0.226327770 0 248 144
5.095031053 61.696756662 -0.218025433 0 249 138
5.092194989 61.599186291 -0.214341884 0 249 135
5.089991719 61.501785251 -0.212407479 0 249 135
5.091020514 61.405241593 -0.219411711 0 248 141
5.099944287 61.310785445 -0.248252174 0 245 162
5.116382660 61.218307261 -0.297877085 0 238 201
5.130607981 61.125231871 -0.341380114 0 233 234
5.056274189 61.008813076 -0.139927142 29 255 89
5.033524504 57.808069232 -0.213483528 0 249 135
4.748401196 41.090564672 -0.116764796 51 255 80
4.748608117 40.993758915 -0.121269499 47 255 81
4.751069999 40.897368007 -0.132016877 36 255 86
4.753781444 40.801020382 -0.143454272 25 255 91
4.750754398 40.703616286 -0.139001271 29 255 89
4.744677875 40.605655002 -0.126103326 40 255 84
4.740503683 40.508045445 -0.118471596 47 255 81
4.740527159 40.411204249 -0.122461849 44 255 83
4.744266475 40.315038869 -0.136740093 33 255 88
4.748438551 40.218948510 -0.152215682 18 255 94
4.747048321 40.121845669 -0.152288291 18 255 94
4.739986833 40.023717014 -0.136656003 33 255 88
4.732444538 39.925506196 -0.119691085 47 255 81
4.728135180 39.827882870 -0.111677026 55 255 78
4.728277223 39.731062393 -0.115987953 51 255 80
4.730846559 39.634676524 -0.127019159 40 255 84
4.730702294 39.537802142 -0.130535182 36 255 86
4.725147609 39.439960598 -0.119068157 47 255 81
4.717064444 39.341671827 -0.100598267 66 255 73
4.709236290 39.243433845 -0.082833245 80 255 67
4.703190116 39.145517386 -0.070001486 95 255 60
4.701018852 39.048291089 -0.067898705 95 255 60
4.703080983 38.951813862 -0.077517768 87 255 64
4.706194488 38.855519713 -0.090047263 73 255 70
4.708929770 38.759155878 -0.101528402 66 255 73
4.710410884 38.662568989 -0.109535497 58 255 76
4.710507283 38.565737615 -0.113706980 51 255 80
4.709735081 38.468753567 -0.115472038 51 255 80
4.706300860 38.371305009 -0.109864214 55 255 78
4.698307024 38.273064712 -0.091628454 73 255 70
4.695607109 38.175749172 -0.088051733 76 255 68
4.686877015 38.077389987 -0.067774554 95 255 60
4.683901619 37.980031745 -0.063432572 98 255 59
4.684811376 37.883345305 -0.069848661 95 255 60
4.685157514 37.786560395 -0.074702856 87 255 64
4.681851041 37.689147101 -0.069440651 95 255 60
4.674220081 37.590994469 -0.052201228 109 255 54
4.666072445 37.492758572 -0.033529656 127 255 46
4.661362859 37.395114724 -0.024378077 135 255 43
4.660320913 37.298098064 -0.025382464 135 255 43
4.661850534 37.201518219 -0.033507486 127 255 46
4.664901582 37.105194281 -0.045844963 116 255 51
4.668169464 37.008903919 -0.058781965 102 255 57
4.670378921 36.912431750 -0.068786723 95 255 60
4.671500129 36.815773967 -0.075776600 87 255 64
4.672673497 36.719123334 -0.082909895 80 255 67
4.672025863 36.622165938 -0.084998891 80 255 67
4.667909519 36.524628419 -0.077480167 87 255 64
4.665066256 36.427305631 -0.073486089 91 255 62
4.664511122 36.330365021 -0.075827924 87 255 64
4.663425636 36.233336032 -0.076699834 87 255 64
4.659371249 36.135815350 -0.069348076 95 255 60
4.653698022 36.038029489 -0.057511628 106 255 56
4.647933738 35.940232202 -0.045421762 116 255 51
4.642528542 35.842497638 -0.034325198 127 255 46
4.638376519 35.744972114 -0.026698230 135 255 43
4.635391909 35.647640151 -0.022303381 138 255 41
4.631789906 35.550208870 -0.016197419 142 255 40
4.628349380 35.452805905 -0.010537523 149 255 36
4.627346560 35.355801145 -0.011628117 146 255 38
4.629408645 35.259293522 -0.021206452 138 255 41
4.631836699 35.162842789 -0.031797395 127 255 46
4.630851703 35.065838463 -0.032934150 127 255 46
4.629886419 34.968837312 -0.034124401 127 255 46
4.632848009 34.872467074 -0.046189996 116 255 51
4.633929782 34.775792509 -0.053047961 109 255 54
4.630553752 34.678403540 -0.047557781 113 255 52
4.625875332 34.580808640 -0.038459094 124 255 48
4.623879033 34.483643397 -0.036788143 124 255 48
4.624453465 34.386887050 -0.042236515 120 255 49
4.625495986 34.290203643 -0.048980357 113 255 52
4.626644113 34.193535370 -0.056015668 106 255 56
4.628131051 34.096918866 -0.063988396 98 255 59
4.628549429 34.000132464 -0.069000319 95 255 60
4.625285276 33.902767402 -0.063811002 98 255 59
4.619569285 33.805020463 -0.051829181 109 255 54
4.614741658 33.707415799 -0.042306820 120 255 49
4.610624880 33.609924751 -0.034752252 127 255 46
4.605550117 33.512287309 -0.024542939 135 255 43
4.598759161 33.414387101 -0.009578639 149 255 36
4.591826370 33.316469413 0.005779798 164 255 30
4.598644220 33.220676179 -0.016949497 142 255 40
4.591987031 33.122804715 -0.002352138 156 255 33
4.593341183 33.026166550 -0.009944995 149 255 36
4.596919374 32.929866920 -0.023697452 135 255 43
4.586694675 32.831456955 0.000785556 160 255 32
4.578743204 32.733400169 0.018972962 175 255 25
4.580197482 32.636777190 0.011107152 167 255 28
4.590463987 32.541487311 -0.021168168 138 255 41
4.593521667 32.445099515 -0.033473602 127 255 46
4.595528469 32.348550233 -0.042867007 120 255 49
4.592693868 32.251270790 -0.038848137 124 255 48
4.595006763 32.154764682 -0.049087355 113 255 52
4.595927333 32.058047790 -0.055468622 106 255 56
4.592504106 31.960681364 -0.049815832 113 255 52
4.591659513 31.863700537 -0.051305135 109 255 54
4.589589273 31.766537679 -0.049398072 113 255 52
4.577183217 31.667845453 -0.018857598 142 255 40
4.572717694 31.570334506 -0.010312683 149 255 36
4.572520914 31.473454934 -0.013591961 146 255 38
4.571613171 31.376470318 -0.014900620 146 255 38
4.568489893 31.279161026 -0.010070583 149 255 36
4.564372644 31.181708114 -0.002485818 156 255 33
4.560878486 31.084348416 0.003373994 160 255 32
4.558746955 30.987188721 0.005460097 164 255 30
4.558631440 30.890322201 0.001962343 160 255 32
4.559073000 30.793535570 -0.003077610 156 255 33
4.558684232 30.696628095 -0.005816214 153 255 35
4.557874334 30.599659586 -0.007387053 153 255 35
4.557885086 30.502808672 -0.011230294 149 255 36
4.558361887 30.406023674 -0.016363595 142 255 40
4.558134219 30.309137034 -0.019544178 138 255 41
4.556689029 30.212076548 -0.019350651 142 255 40
4.553567453 30.114778487 -0.014511713 146 255 38
4.549396311 30.017333498 -0.006763860 153 255 35
4.546415048 29.920058912 -0.002311319 156 255 33
4.544456296 29.822929801 -0.000690445 156 255 33
4.540723238 29.725552326 0.005847229 164 255 30
4.535312467 29.627942046 0.017034167 175 255 25
4.531491965 29.530557204 0.023816482 182 255 22
4.530158580 29.433520861 0.023709379 178 255 24
4.531538873 29.336861624 0.016085062 175 255 25
4.535081453 29.240500019 0.002471070 160 255 32
4.538149844 29.144069462 -0.009828178 149 255 36
4.538603740 29.047275734 -0.014882787 146 255 38
4.536089646 28.950073289 -0.011713262 146 255 38
4.531754549 28.852622617 -0.003497325 156 255 33
4.528469952 28.755317976 0.001809280 160 255 32
4.527172145 28.658285672 0.001612396 160 255 32
4.524163057 28.561021202 0.006157967 164 255 30
4.518219359 28.463360861 0.018835489 175 255 25
4.511579688 28.365610327 0.033442558 189 255 19
4.505794668 28.267979205 0.045682920 200 255 14
4.501379161 28.170535647 0.054130014 207 255 11
4.501286536 28.073673518 0.050600856 204 255 12
4.506851649 27.977566076 0.031396755 186 255 20
4.514169401 27.881686946 0.007337475 164 255 30
4.519220071 27.785500514 -0.010439412 149 255 36
4.520736744 27.688841690 -0.018423489 142 255 40
4.518997106 27.591751179 -0.017384018 142 255 40
4.516068653 27.494504796 -0.013049463 146 255 38
4.514069014 27.397381773 -0.011287315 149 255 36
4.511674454 27.300207855 -0.008429781 149 255 36
4.507220750 27.202766397 0.000134438 156 255 33
4.501351530 27.105143478 0.012622036 171 255 27
4.495842799 27.007571044 0.024112005 182 255 22
4.489876391 26.909942890 0.036871369 193 255 17
4.497088302 26.814017493 0.013116333 171 255 27
4.493533465 26.716701892 0.019195771 175 255 25
4.501943393 26.620921596 -0.007876964 149 255 36
4.511443840 26.525273445 -0.037970602 124 255 48
4.518548442 26.429312062 -0.061424676 102 255 57
4.519630256 26.332579551 -0.068188987 95 255 60
4.515253512 26.235154268 -0.059826749 102 255 57
4.509300133 26.137532541 -0.047094484 113 255 52
4.503864728 26.039979805 -0.035796285 124 255 48
4.498332760 25.942418355 -0.024229278 135 255 43
4.493064897 25.844893420 -0.013392888 146 255 38
4.489063676 25.747529723 -0.006065187 153 255 35
4.493093868 25.651166864 -0.020991766 138 255 41
4.486999365 25.553545250 -0.007861178 149 255 36
4.481445641 25.455994364 0.003772114 160 255 32
4.476374147 25.358506372 0.014070330 171 255 27
4.471302348 25.261021467 0.024370608 182 255 22
4.467153658 25.163652688 0.032114057 189 255 19
4.466263761 25.066684005 0.030828141 186 255 20
4.470018181 24.970280226 0.016673237 175 255 25
4.475520299 24.874084753 -0.002323847 156 255 33
4.478787455 24.777614141 -0.015126531 146 255 38
4.479519366 24.680834768 -0.020902581 138 255 41
4.477965177 24.583779474 -0.020342328 138 255 41
4.472676540 24.486277462 -0.009431985 149 255 36
4.466142752 24.388630127 0.004930178 164 255 30
4.460895334 24.291140076 0.015728754 171 255 27
4.457955154 24.193926894 0.020134601 178 255 24
4.457236207 24.096977766 0.018385967 175 255 25
4.457863244 24.000187019 0.012908322 171 255 27
4.458957910 23.903449951 0.006135802 164 255 30
4.459634573 23.806662358 0.000522743 160 255 32
4.459096357 23.709731742 -0.001722427 156 255 33
4.457761792 23.612708171 -0.001759549 156 255 33
4.457501459 23.515809377 -0.004772634 153 255 35
4.458908476 23.419102647 -0.012405473 146 255 38
4.459191875 23.322264704 -0.016923298 142 255 40
4.456622757 23.225098427 -0.013534600 146 255 38
4.452388741 23.127742929 -0.005530641 153 255 35
4.446692328 23.030223206 0.006527434 164 255 30
4.439939198 22.932587028 0.021515370 178 255 24
4.436409302 22.835320229 0.027571537 182 255 22
4.438617501 22.738702903 0.017725954 175 255 25
4.444478683 22.642493960 -0.002242768 156 255 33
4.449602193 22.546197091 -0.020166122 138 255 41
4.452828467 22.449683622 -0.032830338 127 255 46
4.454673824 22.353013205 -0.041666324 120 255 49
4.455804606 22.256261346 -0.048520817 113 255 52
4.456899111 22.159503851 -0.055273717 106 255 56
4.456609857 22.062592313 -0.058190398 106 255 56
4.452612506 21.965273140 -0.050828726 109 255 54
4.446182406 21.867690118 -0.036723291 124 255 48
4.440212281 21.770161405 -0.023891468 135 255 43
4.434708698 21.672687187 -0.012351475 146 255 38
4.429064877 21.575201241 -0.000421567 156 255 33
4.424340934 21.477818084 0.008960005 167 255 28
4.421865708 21.380679498 0.012110118 171 255 27
4.422051619 21.283827071 0.007885584 164 255 30
4.425346883 21.187305583 -0.004956017 153 255 35
4.431332692 21.091066929 -0.025254001 135 255 43
4.424335983 18.958884819 -0.087144742 76 255 68
4.339018027 14.009716935 -0.037001804 124 255 48
4.341612235 13.331607400 -0.069553963 95 255 60
4.270889324 11.873005242 0.072397783 226 255 3
4.295679126 11.099527797 -0.025126259 135 255 43
4.289402544 9.063993486 -0.082941855 80 255 67
4.273342893 8.772308434 -0.049108400 113 255 52
4.247026653 8.383166243 0.009619521 167 255 28
4.242360849 6.153870862 -0.059087486 102 255 57
4.159959244 1.110551554 -0.012943751 146 255 38
4.156113833 1.013515174 -0.005753955 153 255 35
4.157188936 0.916612179 -0.012215093 146 255 38
4.160562234 0.819767986 -0.025051620 135 255 43
4.163493203 0.722908975 -0.036659889 124 255 48
4.164849177 0.626006754 -0.043897214 116 255 51
4.163609372 0.529037479 -0.043931277 116 255 51
4.160944848 0.432033118 -0.040011195 120 255 49
4.159048556 0.335048742 -0.038221502 124 255 48
4.158591778 0.238099568 -0.040424789 120 255 49
4.158008245 0.141146976 -0.042275281 120 255 49
4.157048201 0.044185315 -0.043079981 116 255 51
4.156218453 -0.052773411 -0.044245100 116 255 51
4.154969026 -0.149741699 -0.044244637 116 255 51
4.151791989 -0.246752339 -0.038894522 124 255 48
4.147311582 -0.343789580 -0.029926764 131 255 44
4.145051337 -0.440776875 -0.027118136 135 255 43
4.146830712 -0.537678722 -0.035517237 124 255 48
4.151655098 -0.634520189 -0.052364444 109 255 54
4.156113435 -0.731373508 -0.068195001 95 255 60
4.155369083 -0.828333856 -0.069588292 95 255 60
4.148314945 -0.925416706 -0.053472146 109 255 54
4.138081030 -1.022555336 -0.028531468 131 255 44
4.131395173 -1.119620847 -0.013434639 146 255 38
4.130040568 -1.216584810 -0.013129865 146 255 38
4.131906836 -1.313491024 -0.021761391 138 255 41
4.134421493 -1.410388123 -0.032191071 127 255 46
4.135245247 -1.507316810 -0.037927697 124 255 48
4.133290618 -1.604293301 -0.035953564 124 255 48
4.130051285 -1.701290030 -0.030413372 131 255 44
4.129739446 -1.798238413 -0.032995544 127 255 46
4.133233976 -1.895128154 -0.046139016 116 255 51
4.137842070 -1.992004467 -0.062371568 102 255 57
4.140589357 -2.088912595 -0.073439508 91 255 62
4.139453034 -2.185879523 -0.073729554 91 255 62
4.135432394 -2.282886779 -0.066014559 98 255 59
4.131325328 -2.379892908 -0.058058538 106 255 56
4.127969836 -2.476886708 -0.052186948 109 255 54
4.125215041 -2.573870987 -0.047981124 113 255 52
4.123878845 -2.670836227 -0.047710803 113 255 52
4.124051837 -2.767782964 -0.051627430 109 255 54
4.123498479 -2.864739120 -0.053527312 109 255 54
4.119711520 -2.961732267 -0.046452608 116 255 51
4.115146194 -3.058731809 -0.037216677 124 255 48
4.115950910 -3.155671904 -0.042881954 120 255 49
4.118810332 -3.252592480 -0.054248213 109 255 54
4.119254935 -3.349539683 -0.058912030 102 255 57
4.117956995 -3.446504408 -0.058738970 102 255 57
4.117815917 -3.543458472 -0.061775263 102 255 57
4.124669981 -3.640352729 -0.084223172 80 255 67
4.129652854 -3.737268482 -0.101477283 66 255 73
4.127568503 -3.834244516 -0.099117508 66 255 73
4.118786182 -3.931269934 -0.078168317 87 255 64
4.107052639 -4.028310383 -0.049027500 113 255 52
4.111456107 -4.125234040 -0.064669316 98 255 59
4.108130530 -4.222210892 -0.058860128 102 255 57
4.115663966 -4.319121241 -0.083186397 80 255 67
4.120906811 -4.416050924 -0.101154760 66 255 73
4.121178710 -4.513011229 -0.105326355 62 255 75
4.115784332 -4.609999780 -0.093771223 73 255 70
4.111431258 -4.706980364 -0.085104813 80 255 67
4.098523217 -4.803992981 -0.052694324 109 255 54
4.092319182 -4.900971941 -0.038888336 124 255 48
4.095228924 -4.997917061 -0.050375099 113 255 52
4.103043323 -5.094851004 -0.075473109 87 255 64
4.109871580 -5.191794196 -0.097833317 66 255 73
4.111135355 -5.288755236 -0.104748964 62 255 75
4.107579213 -5.385726425 -0.098286300 66 255 73
4.102877255 -5.482697223 -0.088642325 76 255 68
4.099879035 -5.579663534 -0.083725761 80 255 67
4.100122936 -5.676626407 -0.087806390 76 255 68
4.103365929 -5.773589624 -0.100209819 66 255 73
4.106895976 -5.870556160 -0.113408967 55 255 78
4.108692472 -5.967525217 -0.121795663 44 255 83
4.108801768 -6.064494842 -0.125498488 40 255 84
4.103401548 -6.161458027 -0.113908447 51 255 80
4.093320570 -6.258409848 -0.089325568 76 255 68
4.087124138 -6.355362849 -0.075523078 87 255 64
4.085628093 -6.452323519 -0.074765551 87 255 64
4.087593143 -6.549293723 -0.083613433 80 255 67
4.091260581 -6.646271739 -0.097185410 69 255 72
4.094785612 -6.743252833 -0.110361139 55 255 78
4.093693010 -6.840218892 -0.110719099 55 255 78
4.090163074 -6.937174183 -0.104310807 62 255 75
4.088051594 -7.034134326 -0.101838462 62 255 75
4.087264375 -7.131100467 -0.103040670 62 255 75
4.087530352 -7.228072626 -0.107165098 58 255 76
4.085059195 -7.325029543 -0.103691030 62 255 75
4.079827137 -7.421967919 -0.092552383 73 255 70
4.076063891 -7.518912898 -0.085489508 80 255 67
4.074065206 -7.615868265 -0.083323380 80 255 67
4.071962090 -7.712822102 -0.080866242 84 255 65
4.068576725 -7.809765046 -0.074848757 87 255 64
4.064766813 -7.906702681 -0.067651654 95 255 60
4.062354074 -8.003650211 -0.064331605 98 255 59
4.062765630 -8.100622086 -0.068850060 95 255 60
4.066064243 -8.197622145 -0.081381354 84 255 65
4.070512173 -8.294636742 -0.097101947 69 255 72
4.076019825 -8.391666289 -0.115763186 51 255 80
4.082202858 -8.488707959 -0.136298242 33 255 88
4.085869815 -8.585727690 -0.149848110 18 255 94
4.085184844 -8.682701843 -0.151316589 18 255 94
4.081786568 -8.779644552 -0.145252138 22 255 92
4.077003080 -8.876568723 -0.135341300 33 255 88
4.071162381 -8.973476843 -0.122494524 44 255 83
4.065570655 -9.070384461 -0.110337634 55 255 78
4.063001789 -9.167328529 -0.106570788 58 255 76
4.066048275 -9.264347787 -0.118390749 47 255 81
4.073400831 -9.361430390 -0.142163220 25 255 91
4.078234699 -9.458483227 -0.158942973 11 255 97
4.075235286 -9.555424995 -0.153976626 15 255 96
4.066856613 -9.652283823 -0.134076242 33 255 88
4.058491245 -9.749137213 -0.114211484 51 255 80
4.054872530 -9.846060457 -0.107522288 58 255 76
4.055744836 -9.943054856 -0.113299208 55 255 78
4.056894769 -10.040055337 -0.119845773 47 255 81
4.055420266 -10.137012727 -0.119105654 47 255 81
4.051906795 -10.233934212 -0.112704051 55 255 78
4.049449616 -10.330872612 -0.109233644 58 255 76
4.049099413 -10.427848270 -0.111611298 55 255 78
4.049249528 -10.524833745 -0.115376806 51 255 80
4.049043121 -10.621813355 -0.118151474 47 255 81
4.047879579 -10.718775065 -0.118267900 47 255 81
4.044361116 -10.815690180 -0.111845545 55 255 78
4.039207607 -10.912570474 -0.100882824 66 255 73
4.035935458 -11.009486183 -0.095141903 69 255 72
4.035991964 -11.106469707 -0.098640860 66 255 73
4.037558868 -11.203486195 -0.106331937 58 255 76
4.037499020 -11.300469437 -0.109505722 58 255 76
4.035447441 -11.397409514 -0.107148875 58 255 76
4.033993280 -11.494362200 -0.106449480 58 255 76
4.034361172 -11.591356118 -0.110807486 55 255 78
4.035078469 -11.688359209 -0.116134469 51 255 80
4.035936483 -11.785366954 -0.121851060 44 255 83
4.038417967 -11.882415044 -0.132073859 36 255 86
4.041931907 -11.979490961 -0.145162085 22 255 92
4.042581920 -12.076499538 -0.150298068 18 255 94
4.038877004 -12.173400035 -0.143342136 25 255 91
4.032828477 -12.270238719 -0.129878280 36 255 86
4.027795176 -12.367099822 -0.119231839 47 255 81
4.025607995 -12.464032599 -0.116486144 51 255 80
4.025744056 -12.561026395 -0.120189585 47 255 81
4.025716125 -12.658016648 -0.123436636 44 255 83
4.024899062 -12.754986033 -0.124491624 44 255 83
4.026234468 -12.852015414 -0.131521735 36 255 86
4.030337908 -12.949124619 -0.146236156 22 255 92
4.033912653 -13.046222658 -0.159481689 11 255 97
4.033754335 -13.143216152 -0.162361410 7 255 99
4.029806789 -13.240099155 -0.154719217 15 255 96
4.023569682 -13.336911874 -0.140718820 29 255 89
4.017403414 -13.433722724 -0.126913860 40 255 84
4.014827737 -13.530639092 -0.123077098 44 255 83
4.018449057 -13.627745570 -0.136445525 33 255 88
4.026582193 -13.724996626 -0.162340367 7 255 99
4.033780801 -13.822225147 -0.185639541 0 253 114
4.036177871 -13.919306230 -0.195605865 0 252 120
4.034446149 -14.016256147 -0.194107102 0 252 120
4.031041338 -14.113150662 -0.187961661 0 253 114
4.027705472 -14.210045639 -0.182006476 0 253 111
4.024111928 -14.306930197 -0.175334639 0 254 105
4.018625376 -14.403748534 -0.163405360 7 255 99
4.012045479 -14.500525919 -0.148438976 22 255 92
4.016023401 -14.597665483 -0.162787193 7 255 99
4.014639833 -14.694620744 -0.162247130 7 255 99
4.015316110 -14.791648805 -0.167425565 4 255 100
4.018624270 -14.888772552 -0.179910983 0 254 108
4.016386201 -14.985698613 -0.176994911 0 254 108
4.021959594 -15.082909857 -0.195768282 0 252 120
4.021535193 -15.179904183 -0.197886183 0 251 123
4.014861595 -15.276665282 -0.182650269 0 253 111
4.013580792 -15.373625780 -0.182387833 0 253 111
4.006345360 -15.470358839 -0.165589356 4 255 100
4.003387646 -15.567252023 -0.160668106 7 255 99
4.002759084 -15.664234401 -0.162213384 7 255 99
4.001834607 -15.761205451 -0.162935847 7 255 99
4.000494935 -15.858160098 -0.162504258 7 255 99
3.999614868 -15.955132927 -0.163347820 7 255 99
3.998664232 -16.052103014 -0.163994313 7 255 99
3.996904107 -16.149040093 -0.162391817 7 255 99
3.994975309 -16.245969655 -0.160319795 11 255 97
3.992718833 -16.342884888 -0.157336700 11 255 97
3.990852329 -16.439815558 -0.155435390 15 255 96
3.991181231 -16.536838637 -0.159629519 11 255 97
3.994750051 -16.634001328 -0.172819756 0 254 105
3.999649301 -16.731224961 -0.189703602 0 252 117
4.001855893 -16.828335915 -0.199108969 0 251 123
3.998581019 -16.925208601 -0.193291170 0 252 120
3.993504346 -17.021999732 -0.182468545 0 253 111
3.989650143 -17.118842387 -0.175039556 0 254 105
3.988688093 -17.215813230 -0.175641062 0 254 105
3.992549615 -17.313003389 -0.189636877 0 252 117
3.998991661 -17.410315597 -0.210798051 0 250 132
3.999988026 -17.507381817 -0.216835113 0 249 138
3.994658636 -17.604154756 -0.205303773 0 250 129
3.988262781 -17.700874277 -0.190809497 0 252 117
3.984504351 -17.797714630 -0.183638466 0 253 111
3.982399051 -17.894631841 -0.181057251 0 253 111
3.980147102 -17.991541166 -0.178067624 0 254 108
3.976741154 -18.088393551 -0.171871990 0 255 102
3.972703070 -18.185213191 -0.163919617 7 255 99
3.969610227 -18.282077119 -0.158591184 11 255 97
3.967074563 -18.378967143 -0.154808995 15 255 96
3.963926483 -18.475825350 -0.149324831 18 255 94
3.961293672 -18.572707925 -0.145270527 22 255 92
3.961972238 -18.669757595 -0.150411637 18 255 94
3.966435206 -18.767002399 -0.166062008 4 255 100
3.970756449 -18.864244108 -0.181317805 0 253 111
3.968359427 -18.961140684 -0.177913978 0 254 108
3.964983192 -21.095582751 -0.239837053 0 246 156
3.828944172 -30.207417553 -0.160553935 7 255 99
3.683664691 -38.926935377 -0.033612729 127 255 46
3.681693054 -39.023751789 -0.031157733 127 255 46
3.692924469 -39.122309330 -0.065407274 98 255 59
3.706942543 -39.221245023 -0.107403237 58 255 76
3.706620116 -39.318289362 -0.109530247 58 255 76
3.697488585 -39.414161923 -0.087165726 76 255 68
3.691814258 -39.510489679 -0.074411409 87 255 64
3.690994767 -39.607463695 -0.075153068 87 255 64
3.693002544 -39.704817402 -0.083753917 80 255 67
3.696568713 -39.802383247 -0.096686361 69 255 72
3.700888046 -39.900054317 -0.111711768 55 255 78
3.702283326 -39.997333625 -0.118606742 47 255 81
3.699605658 -40.094061803 -0.114176977 51 255 80
3.697482960 -40.190864285 -0.111289013 55 255 78
3.695236116 -40.287648984 -0.108054766 58 255 76
3.694259365 -40.384606667 -0.108350577 58 255 76
3.694550477 -40.481738495 -0.112170298 55 255 78
3.691518310 -40.578413736 -0.106749278 58 255 76
3.685004213 -40.674606648 -0.091646285 73 255 70
3.679228783 -40.770897631 -0.078595775 84 255 65
3.677652523 -40.867768037 -0.077219113 87 255 64
3.679629608 -40.965132790 -0.085720852 80 255 67
3.681105491 -41.062429887 -0.092828055 73 255 70
3.680664161 -41.159460497 -0.094603661 69 255 72
3.681540018 -41.256676491 -0.100040470 66 255 73
3.685843797 -41.354376532 -0.115007210 51 255 80
3.690002800 -41.452060250 -0.129570452 36 255 86
3.691095804 -41.549313988 -0.135607964 33 255 88
3.690880427 -41.646383667 -0.138006564 29 255 89
3.691405016 -41.743559292 -0.142461526 25 255 91
3.692197617 -41.840774367 -0.147660623 22 255 92
3.692486201 -41.937918735 -0.151457268 18 255 94
3.689870290 -42.034647417 -0.147176929 22 255 92
3.683426234 -42.130824187 -0.132251284 36 255 86
3.676821094 -42.226973563 -0.116876500 51 255 80
3.673438981 -42.323584788 -0.110462185 55 255 78
3.675088175 -42.420923800 -0.118036476 47 255 81
3.679242727 -42.518629149 -0.132576023 36 255 86
3.680922458 -42.615977718 -0.140233200 29 255 89
3.678444184 -42.712720628 -0.136327677 33 255 88
3.673072506 -42.809038406 -0.124375627 44 255 83
3.666598375 -42.905190862 -0.109356877 58 255 76
3.662548314 -43.001696248 -0.101077305 66 255 73
3.664899321 -43.099144781 -0.110595590 55 255 78
3.669357801 -43.196908017 -0.125973010 40 255 84
3.667805978 -43.293783114 -0.124636858 44 255 83
3.660326352 -43.389775415 -0.106816295 58 255 76
3.653315498 -43.485832721 -0.090297974 73 255 70
3.651747685 -43.582699863 -0.088913870 76 255 68
3.653113721 -43.680006716 -0.095686854 69 255 72
3.654651801 -43.777341297 -0.102937209 62 255 75
3.653669648 -43.874297854 -0.103178418 62 255 75
3.649334789 -43.970747636 -0.094095477 69 255 72
3.644675901 -44.067145775 -0.084110300 80 255 67
3.642443082 -44.163909739 -0.080870299 84 255 65
3.640589859 -44.260730607 -0.078684747 84 255 65
3.636350878 -44.357186526 -0.069863738 95 255 60
3.632254307 -44.453661785 -0.061437564 102 255 57
3.632484505 -44.550798752 -0.065042241 98 255 59
3.635788938 -44.648409705 -0.077194839 87 255 64
3.638643076 -44.745954547 -0.088094245 76 255 68
3.637497029 -44.842883831 -0.087868643 76 255 68
3.632702679 -44.939247485 -0.077496417 87 255 64
3.627115821 -45.035485093 -0.064919111 98 255 59
3.623781066 -45.132070048 -0.058603491 102 255 57
3.625147900 -45.229387491 -0.065361493 98 255 59
3.628900687 -45.327080325 -0.078753659 84 255 65
3.629184844 -45.424232477 -0.082498755 80 255 67
3.625173568 -45.520709864 -0.074297326 87 255 64
3.624695199 -45.617742143 -0.075919669 87 255 64
3.619079911 -45.713962726 -0.063255187 98 255 59
3.614810434 -45.810393074 -0.054332198 109 255 54
3.612334184 -45.907105818 -0.050395029 113 255 52
3.610769168 -46.003962573 -0.048990898 113 255 52
3.608951193 -46.100778542 -0.046882167 113 255 52
3.604102084 -46.197108866 -0.036342548 124 255 48
3.597793425 -46.293202138 -0.021742618 138 255 41
3.597063724 -46.390188399 -0.022657018 138 255 41
3.602917053 -46.488235928 -0.041878404 120 255 49
3.611699169 -46.586761944 -0.069244168 95 255 60
3.619222558 -46.685091677 -0.093108418 73 255 70
3.623247671 -46.782860125 -0.107242600 58 255 76
3.623166849 -46.879964370 -0.109956583 55 255 78
3.621988389 -46.976890329 -0.109616784 55 255 78
3.620978019 -47.073843661 -0.109743374 55 255 78
3.616273058 -47.170191578 -0.099593492 66 255 73
3.609087599 -47.266129236 -0.082543642 80 255 67
3.602494465 -47.362159684 -0.067139918 95 255 60
3.598047553 -47.458540038 -0.057704095 106 255 56
3.599677709 -47.555922986 -0.065168916 98 255 59
3.605683036 -47.654033378 -0.084801202 80 255 67
3.607853109 -47.751511847 -0.093765688 73 255 70
3.606544334 -47.848413329 -0.093053490 73 255 70
3.605170995 -47.945303824 -0.092160620 73 255 70
3.603474219 -48.042139940 -0.090367065 73 255 70
3.599063690 -48.138520395 -0.081024567 84 255 65
3.593882424 -48.234768688 -0.069537200 95 255 60
3.590567354 -48.331328230 -0.063239180 98 255 59
3.589417694 -48.428251708 -0.062962804 98 255 59
3.589024087 -48.525303073 -0.064788201 98 255 59
3.587032328 -48.622083813 -0.062167433 102 255 57
3.584497799 -48.718771532 -0.058035880 106 255 56
3.584455184 -48.815882765 -0.060834252 102 255 57
3.588522008 -48.913696667 -0.075061686 87 255 64
3.593797902 -49.011721480 -0.092651125 73 255 70
3.595701723 -49.109172602 -0.100860350 66 255 73
3.594841957 -49.206150771 -0.101381720 66 255 73
3.593479473 -49.303042439 -0.100503700 66 255 73
3.591918586 -49.399899589 -0.099072719 66 255 73
3.591153386 -49.496894081 -0.099853842 66 255 73
3.592196441 -49.594202513 -0.105663588 58 255 76
3.594081758 -49.691659004 -0.113815077 51 255 80
3.595675715 -49.789066974 -0.121155121 47 255 81
3.596404880 -49.886325933 -0.126088666 40 255 84
3.595180081 -49.983244235 -0.125586057 40 255 84
3.592479985 -50.079903592 -0.120978677 47 255 81
3.588747307 -50.176380132 -0.113497926 51 255 80
3.583582500 -50.272602266 -0.102032372 62 255 75
3.577830946 -50.368717615 -0.088933505 76 255 68
3.573947877 -50.465159988 -0.081030877 84 255 65
3.573662688 -50.562238254 -0.083135158 80 255 67
3.575974673 -50.659778707 -0.092462850 73 255 70
3.579060106 -50.757459508 -0.103941025 62 255 75
3.579498279 -50.854670938 -0.108054342 58 255 76
3.575657516 -50.951118046 -0.100263839 66 255 73
3.570959348 -51.047409284 -0.090087106 73 255 70
3.568761856 -51.144146976 -0.086865408 76 255 68
3.569671759 -51.241443249 -0.092286586 73 255 70
3.571773642 -51.338956092 -0.101022531 66 255 73
3.572463992 -51.436216127 -0.105830896 58 255 76
3.571760491 -51.533224927 -0.106760815 58 255 76
3.571162819 -51.630253202 -0.107984047 58 255 76
3.570377402 -51.727247652 -0.108683925 58 255 76
3.567072248 -51.823782807 -0.102373236 62 255 75
3.560208843 -51.919665973 -0.086162897 76 255 68
3.550533832 -52.015029772 -0.062129828 102 255 57
3.541177437 -52.110445386 -0.038981785 120 255 49
3.538522106 -52.207086901 -0.034474010 127 255 46
3.541857605 -52.304831176 -0.046630975 116 255 51
3.547191306 -52.402947825 -0.064345779 98 255 59
3.551345769 -52.500851162 -0.078779115 84 255 65
3.552219982 -52.598150215 -0.084086047 80 255 67
3.552716604 -52.695380576 -0.088341500 76 255 68
3.554639018 -52.792877615 -0.096562405 69 255 72
3.556749816 -52.890412086 -0.105306377 62 255 75
3.556042516 -52.987422056 -0.106209422 58 255 76
3.553049448 -53.084004010 -0.100752373 66 255 73
3.551752967 -53.180902991 -0.100014116 66 255 73
3.552697671 -53.278223418 -0.105509801 62 255 75
3.553258178 -53.375472944 -0.109935595 55 255 78
3.552119261 -53.472402671 -0.109632452 55 255 78
3.548780931 -53.568915990 -0.103209293 62 255 75
3.542973927 -53.664959287 -0.089916934 76 255 68
3.535721566 -53.760724203 -0.072602234 91 255 62
3.529455285 -53.856672126 -0.058029664 106 255 56
3.526200148 -53.953190642 -0.051833234 109 255 54
3.528199973 -54.050712289 -0.060255670 102 255 57
3.534670335 -54.149092844 -0.081114795 84 255 65
3.541612143 -54.247569696 -0.103284667 62 255 75
3.545168701 -54.345401465 -0.116035305 51 255 80
3.544746847 -54.442469901 -0.117716284 47 255 81
3.542739562 -54.539232594 -0.114985202 51 255 80
3.541937861 -54.636227855 -0.115607197 51 255 80
3.542795344 -54.733545038 -0.120844337 47 255 81
3.542430447 -54.830626172 -0.122679485 44 255 83
3.538305004 -54.926975701 -0.114050765 51 255 80
3.530510956 -55.022607213 -0.095213835 69 255 72
3.529494059 -55.119558151 -0.095231574 69 255 72
3.524310754 -55.215693150 -0.083656052 80 255 67
3.521437150 -55.312278178 -0.078505630 84 255 65
3.521011799 -55.409343146 -0.080165893 84 255 65
3.521442513 -55.506577227 -0.084206944 80 255 67
3.523001899 -55.604035219 -0.091387303 73 255 70
3.525774978 -55.701735241 -0.101943574 62 255 75
3.527662722 -55.799262767 -0.110035525 55 255 78
3.526222640 -55.896131844 -0.108867167 58 255 76
3.525326387 -55.993108790 -0.109210860 58 255 76
3.525475985 -56.090294292 -0.112463456 55 255 78
3.523287100 -56.187013724 -0.109208341 58 255 76
3.518288291 -56.283170058 -0.098133665 66 255 73
3.512000520 -56.379064945 -0.083471322 80 255 67
3.507758891 -56.475366753 -0.074501071 87 255 64
3.505362703 -56.572037460 -0.070664551 91 255 62
3.504302481 -56.668976477 -0.070544220 91 255 62
3.505828824 -56.766437980 -0.077619933 87 255 64
3.509702090 -56.864376457 -0.091224985 73 255 70
3.514269916 -56.962459559 -0.106761713 58 255 76
3.518214820 -57.060420426 -0.120564197 47 255 81
3.522500826 -57.158454562 -0.135314858 33 255 88
3.528104755 -57.256761571 -0.153731791 15 255 96
3.524335700 -57.353158610 -0.146066689 22 255 92
3.525353800 -57.450533498 -0.151721156 18 255 94
3.525462267 -57.547723411 -0.154843437 15 255 96
3.512459393 -57.642220139 -0.121480724 44 255 83
3.502683145 -57.737371879 -0.097095139 69 255 72
3.501035255 -57.834193329 -0.095326619 69 255 72
3.504762496 -57.932124982 -0.108514182 58 255 76
3.508575260 -58.030078010 -0.121938764 44 255 83
3.509245120 -58.127382926 -0.126616662 40 255 84
3.505697510 -58.223812814 -0.119557548 47 255 81
3.499047274 -58.319594878 -0.103863557 62 255 75
3.492088088 -58.415308177 -0.087308602 76 255 68
3.486982552 -58.511404220 -0.075910642 87 255 64
3.482818268 -58.607694157 -0.067130761 95 255 60
3.477268692 -58.703691162 -0.054494762 109 255 54
3.469646855 -58.799249301 -0.036090911 124 255 48
3.469350698 -58.896344320 -0.038071670 124 255 48
3.480766724 -58.995909681 -0.072644135 91 255 62
3.283653777 -78.970998368 -0.078799106 84 255 65
3.277412717 -79.066432929 -0.063999105 98 255 59
3.274813837 -79.162923829 -0.059343340 102 255 57
3.274371348 -79.260042138 -0.060693208 102 255 57
3.271100064 -79.356335114 -0.054162240 109 255 54
3.265158438 -79.451845794 -0.040191708 120 255 49
3.259315632 -79.547381577 -0.026495254 135 255 43
3.258098918 -79.644269397 -0.025684075 135 255 43
3.262700534 -79.742864487 -0.041079460 120 255 49
3.268030269 -79.841677859 -0.058502204 106 255 56
3.269157233 -79.939259532 -0.064216630 98 255 59
3.264513277 -80.035142630 -0.053854260 109 255 54
3.256339142 -80.129981491 -0.033656823 127 255 46
3.248862355 -80.225020797 -0.015400729 146 255 38
3.245184539 -80.321178744 -0.007726181 149 255 36
3.245550170 -80.418532138 -0.011314362 149 255 36
3.248052317 -80.516520167 -0.020853254 138 255 41
3.248683598 -80.613955371 -0.025179445 135 255 43
3.246530074 -80.710563848 -0.021746859 138 255 41
3.244709352 -80.807270507 -0.019240286 142 255 40
3.246096715 -80.904932843 -0.025669630 135 255 43
3.251703834 -81.003856539 -0.043853311 116 255 51
3.260507875 -81.103740795 -0.070942086 91 255 62
3.269349558 -81.203643890 -0.098134923 66 255 73
3.274027071 -81.302306829 -0.113726305 51 255 80
3.272337256 -81.399063777 -0.111578435 55 255 78
3.267104573 -81.494755860 -0.099559589 66 255 73
3.263577033 -81.590957573 -0.092289867 73 255 70
3.262910121 -81.688018911 -0.092988380 73 255 70
3.263316180 -81.785404080 -0.096675020 69 255 72
3.263049667 -81.882587240 -0.098486918 66 255 73
3.261070187 -81.979253052 -0.095525597 69 255 72
3.256373166 -82.075095412 -0.084992316 80 255 67
3.249323780 -82.170221861 -0.067904329 95 255 60
3.241922576 -82.265236850 -0.049834975 113 255 52
3.235425540 -82.360521654 -0.034283381 127 255 46
3.238037302 -82.458573810 -0.044107523 116 255 51
3.232813538 -82.554241542 -0.032100976 127 255 46
3.231039444 -82.650958328 -0.029704063 131 255 44
3.234464149 -82.749262416 -0.041790035 120 255 49
3.233303336 -82.846167554 -0.041099657 120 255 49
3.239225264 -82.945241371 -0.060141061 102 255 57
3.241377859 -83.043164862 -0.068680003 95 255 60
3.241506891 -83.140469581 -0.071580180 91 255 62
3.241365537 -83.237692054 -0.073726010 91 255 62
3.242008160 -83.335156457 -0.078055044 87 255 64
3.244167082 -83.433089357 -0.086607640 76 255 68
3.246791542 -83.531168321 -0.096456308 69 255 72
3.245405307 -83.628011109 -0.095129670 69 255 72
3.241704640 -83.724137727 -0.087353610 76 255 68
3.237436888 -83.820086627 -0.077996433 87 255 64
3.234989878 -83.916597558 -0.073711026 91 255 62
3.236065141 -84.014200893 -0.079238239 84 255 65
3.234426052 -84.110962069 -0.077201720 87 255 64
3.235370103 -84.208526704 -0.082361314 80 255 67
3.228362078 -84.303614788 -0.065363605 98 255 59
3.225158068 -84.399885101 -0.058963589 102 255 57
3.225493667 -84.497259455 -0.062424707 102 255 57
3.225581058 -84.594557194 -0.065193233 98 255 59
3.224867852 -84.691605040 -0.065730047 98 255 59
3.225988066 -84.789227972 -0.071374256 91 255 62
3.230322826 -84.887861710 -0.085974173 80 255 67
3.233738637 -84.986210708 -0.098012691 66 255 73
3.226946649 -85.081350564 -0.081607956 84 255 65
3.217662043 -85.175700502 -0.058256721 106 255 56
3.212550090 -85.271360442 -0.046530723 116 255 51
3.211422989 -85.368275900 -0.045906837 116 255 51
3.213260852 -85.466128948 -0.053543425 109 255 54
3.216041319 -85.564282649 -0.063805498 98 255 59
3.219294642 -85.662589169 -0.075384189 87 255 64
3.222188404 -85.760784831 -0.085960046 80 255 67
3.222256915 -85.858085604 -0.088662574 76 255 68
3.219056026 -85.954346884 -0.082254058 80 255 67
3.215002820 -86.050334915 -0.073469485 91 255 62
3.212157118 -86.146705723 -0.068048461 95 255 60
3.210665142 -86.243507406 -0.066398475 98 255 59
3.210418813 -86.340706975 -0.068218418 95 255 60
3.210467689 -86.438001614 -0.070859924 91 255 62
3.211407820 -86.535582706 -0.075983911 87 255 64
3.213060649 -86.633393987 -0.083092856 80 255 67
3.213802300 -86.730914552 -0.087661770 76 255 68
3.212437654 -86.827758906 -0.086360345 76 255 68
3.209330701 -86.924041832 -0.080202787 84 255 65
3.206762069 -87.020496691 -0.075544200 87 255 64
3.207434337 -87.117996590 -0.079915627 84 255 65
3.209279606 -87.215876901 -0.087554750 76 255 68
3.207154160 -87.312474443 -0.084127983 80 255 67
3.201063480 -87.407786385 -0.069650443 95 255 60
3.194359439 -87.502895410 -0.053462495 109 255 54
3.189823944 -87.598704275 -0.043316369 116 255 51
3.186880774 -87.695028137 -0.037606402 124 255 48
3.184572663 -87.791557212 -0.033665050 127 255 46
3.184590115 -87.888843219 -0.036203278 124 255 48
3.188260147 -87.987321879 -0.048919204 113 255 52
3.193131466 -88.086196592 -0.064981868 98 255 59
3.196084243 -88.184448294 -0.075697144 87 255 64
3.197129826 -88.282078475 -0.081096580 84 255 65
3.195902694 -88.378965084 -0.080161480 84 255 65
3.192206979 -88.475041189 -0.072345912 91 255 62
3.188524507 -88.571119540 -0.064566131 98 255 59
3.188343569 -88.668347870 -0.066543345 95 255 60
3.191411938 -88.766647158 -0.077574781 87 255 64
3.193704769 -88.864693802 -0.086443975 76 255 68
3.195298538 -88.962512152 -0.093364023 73 255 70
3.196366834 -89.060158781 -0.098818666 66 255 73
3.193344363 -89.156453129 -0.092871856 73 255 70
3.182508343 -89.250156937 -0.065148451 98 255 59
3.169091666 -89.342997038 -0.030231699 131 255 44
3.160153719 -89.437314964 -0.007795421 149 255 36
3.159408543 -89.534350830 -0.008190553 149 255 36
3.162292810 -89.632595067 -0.018699685 142 255 40
3.162364304 -89.729904857 -0.021368804 138 255 41
3.159146907 -89.826118074 -0.014870871 146 255 38
3.156991133 -89.922684182 -0.011330553 149 255 36
3.158144110 -90.020355934 -0.017010626 142 255 40
3.161395282 -90.118731846 -0.028537387 131 255 44
3.164734853 -90.217140652 -0.040309581 120 255 49
3.168993374 -90.315861185 -0.054641982 109 255 54
3.174761993 -90.415093125 -0.073182182 91 255 62
3.177206671 -90.513212203 -0.082457496 80 255 67
3.172548228 -90.608941898 -0.071934957 91 255 62
3.164874785 -90.703652248 -0.053008219 109 255 54
3.159302126 -90.799066486 -0.039935349 120 255 49
3.157740910 -90.895832690 -0.038041644 124 255 48
3.156639787 -90.992754082 -0.037429214 124 255 48
3.153098070 -91.088848761 -0.030013470 131 255 44
3.146855651 -91.184025700 -0.015069360 146 255 38
3.143382083 -91.280138477 -0.007841299 149 255 36
3.145340970 -91.378095533 -0.015753326 142 255 40
3.151809626 -91.477589241 -0.036233954 124 255 48
3.160354691 -91.577795974 -0.062501094 102 255 57
3.168439900 -91.677853246 -0.087485718 76 255 68
3.172507498 -91.776545911 -0.101271546 66 255 73
3.171990268 -91.873675440 -0.102277453 62 255 75
3.169258348 -91.970047505 -0.097109427 69 255 72
3.165230382 -92.065974227 -0.088327893 76 255 68
3.160939017 -92.161808242 -0.078811069 84 255 65
3.158463924 -92.258263263 -0.074355589 87 255 64
3.158212049 -92.355481274 -0.076095813 87 255 64
3.160267332 -92.453493739 -0.084265787 80 255 67
3.164600276 -92.552293174 -0.098783387 66 255 73
3.169586505 -92.651322007 -0.115121008 51 255 80
3.169811323 -92.748711480 -0.118186001 47 255 81
3.161755910 -92.843239770 -0.098169936 66 255 73
3.150924633 -92.936802004 -0.070415258 91 255 62
3.144427577 -93.031858092 -0.054740460 106 255 56
3.145497425 -93.129534204 -0.060156512 102 255 57
3.148908037 -93.228024599 -0.072096265 91 255 62
3.147451414 -93.324826577 -0.070468001 91 255 62
3.142355334 -93.420361724 -0.058693898 102 255 57
3.140315606 -93.516958383 -0.055438098 106 255 56
3.142903873 -93.615168211 -0.065081629 98 255 59
3.146609545 -93.713770906 -0.077838960 87 255 64
3.146624662 -93.811087271 -0.080307961 84 255 65
3.139052191 -93.905749409 -0.061625472 102 255 57
3.136474071 -94.002155930 -0.056863639 106 255 56
3.130393101 -94.097332798 -0.042336403 120 255 49
3.127984680 -94.193795022 -0.038045402 124 255 48
3.127214551 -94.290831907 -0.038320163 124 255 48
3.129302619 -94.388874574 -0.046561324 116 255 51
3.134308778 -94.487947436 -0.062935955 98 255 59
3.134869611 -94.585457401 -0.066917909 95 255 60
3.127356328 -94.680118324 -0.048391357 113 255 52
3.117174183 -94.773831009 -0.022423808 138 255 41
3.108609376 -94.868108730 -0.000963536 156 255 33
3.103471056 -94.963594102 0.010946123 167 255 28
3.103394965 -95.060871062 0.008745132 167 255 28
3.109579991 -95.160371021 -0.010908814 149 255 36
3.119562085 -95.261225704 -0.041146953 120 255 49
3.128116619 -95.361581042 -0.067404722 95 255 60
3.129039994 -95.459226263 -0.072388197 91 255 62
3.124467061 -95.554913557 -0.062048466 102 255 57
3.120988451 -95.650988579 -0.054758293 106 255 56
3.120372413 -95.748084332 -0.055447166 106 255 56
3.121120243 -95.845668125 -0.059937156 102 255 57
3.123241325 -95.943744903 -0.068254473 95 255 60
3.126394490 -96.042193976 -0.079448068 84 255 65
3.127605705 -96.139949426 -0.085226952 80 255 67
3.125912247 -96.236663190 -0.082907151 80 255 67
3.122231881 -96.332661908 -0.075047129 87 255 64
3.118596753 -96.428674790 -0.067312119 95 255 60
3.118107853 -96.525819360 -0.068347235 95 255 60
3.119841771 -96.623766154 -0.075578255 87 255 64
3.120339618 -96.721268631 -0.079362286 84 255 65
3.118765305 -96.818023091 -0.077368350 87 255 64
3.116871120 -96.914661297 -0.074481592 87 255 64
3.115780315 -97.011589822 -0.073833528 91 255 62
3.113090364 -97.107938249 -0.068726115 95 255 60
3.106612976 -97.202910218 -0.053058445 109 255 54
3.098635115 -97.297332543 -0.033206338 127 255 46
3.093324545 -97.392719892 -0.020789348 138 255 41
3.093048656 -97.489937638 -0.022407832 138 255 41
3.096090870 -97.588365733 -0.033276167 127 255 46
3.098261236 -97.686478680 -0.041712845 120 255 49
3.097255211 -97.783433404 -0.041292711 120 255 49
3.094889983 -97.879890906 -0.037082034 124 255 48
3.094019869 -97.976894760 -0.037038739 124 255 48
3.095847794 -98.074887638 -0.044516714 116 255 51
3.100900867 -98.174066090 -0.060985682 102 255 57
3.108323125 -98.274119444 -0.084059268 80 255 67
3.113143072 -98.373222361 -0.099876529 66 255 73
3.112502985 -98.470319883 -0.100469704 66 255 73
3.108723141 -98.566260666 -0.092307812 73 255 70
3.105445224 -98.662384392 -0.085544255 80 255 67
3.103004483 -98.758815440 -0.081113779 84 255 65
3.096382856 -98.853699853 -0.065025230 98 255 59
3.087767355 -98.947842051 -0.043376223 116 255 51
3.095838583 -99.340156082 -0.075360334 87 255 64
3.057963643 -102.537985809 -0.047336335 113 255 52
2.999826576 -119.069858988 -0.267547668 0 242 177
2.987232722 -119.161617557 -0.234565153 0 247 150
2.982651167 -119.256980898 -0.223942377 0 248 144
2.979470357 -119.352973656 -0.217227776 0 249 138
2.974120333 -119.447984479 -0.204458142 0 250 129
2.969637213 -119.543383801 -0.194106814 0 252 120
2.969070543 -119.640552848 -0.194684776 0 252 120
2.968216207 -119.737591776 -0.194458902 0 252 120
2.962567827 -119.832457176 -0.180852264 0 253 111
2.956486807 -119.927122504 -0.166037041 4 255 100
2.956432059 -120.024520568 -0.168039648 4 255 100
2.962504719 -120.124704354 -0.187142584 0 253 114
2.969565303 -120.225342911 -0.209001956 0 250 132
2.973763251 -120.324684175 -0.222870981 0 248 141
2.974212745 -120.422321144 -0.226277237 0 248 144
2.972852248 -120.519133567 -0.224630842 0 248 144
2.973163414 -120.616708636 -0.227649076 0 247 147
2.974921413 -120.714945577 -0.234704493 0 247 150
2.974981444 -120.812408103 -0.237019883 0 246 153
2.970820706 -120.907939694 -0.227553915 0 247 147
2.961824588 -121.001253925 -0.204591004 0 250 129
2.961256695 -121.098425450 -0.205150725 0 250 129
2.959426417 -121.195017963 -0.202186030 0 251 126
2.955966455 -121.290861333 -0.194671697 0 252 120
2.961678217 -121.390917803 -0.212755648 0 249 135
2.964603562 -121.489697654 -0.223061521 0 248 141
2.962679519 -121.586247935 -0.219831172 0 248 141
2.962067758 -121.683401969 -0.220262580 0 248 141
2.954446941 -121.777324023 -0.201129565 0 251 126
2.951417223 -121.873359677 -0.194809960 0 252 120
2.953045384 -121.971545122 -0.201490340 0 251 126
2.955730692 -122.070221165 -0.211120498 0 250 132
2.953655844 -122.166697442 -0.207463130 0 250 129
2.948691171 -122.261834513 -0.195738573 0 252 120
2.946101746 -122.358069187 -0.190642813 0 252 117
2.949513250 -122.457086006 -0.202296131 0 251 126
2.954754795 -122.556955666 -0.219056696 0 249 138
2.956241872 -122.655085574 -0.225336656 0 248 144
2.955421488 -122.752144239 -0.225174885 0 248 144
2.954732675 -122.849264112 -0.225379376 0 248 144
2.955311011 -122.946974289 -0.229119896 0 247 147
2.956410432 -123.044928445 -0.234313976 0 247 150
2.956877870 -123.142589200 -0.237743036 0 246 153
2.957252297 -123.240207494 -0.240911511 0 246 156
2.960149455 -123.339005674 -0.251120893 0 244 165
2.956596725 -123.434789878 -0.243325294 0 245 159
2.962604120 -123.535047238 -0.262214690 0 243 171
2.955229657 -123.629040328 -0.243749090 0 245 159
2.948505075 -123.723333027 -0.227096426 0 248 144
2.947793345 -123.820442863 -0.227227078 0 247 147
2.950467025 -123.919142791 -0.236806918 0 246 153
2.953798232 -124.018154479 -0.248221314 0 245 162
2.955842405 -124.116563869 -0.256042108 0 244 168
2.954825819 -124.213534323 -0.255317944 0 244 168
2.954279810 -124.310726339 -0.255906396 0 244 168
2.952812638 -124.407484096 -0.253922436 0 244 165
2.953233221 -124.505132344 -0.257207169 0 244 168
2.955229317 -124.603525779 -0.264889040 0 243 174
2.956670388 -124.701658959 -0.271020616 0 242 180
2.955081409 -124.798360132 -0.268692713 0 242 177
2.948783374 -124.892830660 -0.253218152 0 244 165
2.940629429 -124.986417297 -0.232561544 0 247 150
2.934026817 -125.080734050 -0.216234456 0 249 138
2.930829402 -125.176662794 -0.209412203 0 250 132
2.932872641 -125.275079539 -0.217218804 0 249 138
2.938336785 -125.375125101 -0.234574393 0 247 150
2.940177462 -125.473451142 -0.241813728 0 246 156
2.942338588 -125.571931828 -0.249946725 0 245 162
2.946598017 -125.671414970 -0.263936575 0 243 174
2.952161199 -125.771523971 -0.281565225 0 241 186
2.955392295 -125.870524455 -0.292682585 0 239 195
2.951823300 -125.966278763 -0.284815210 0 240 189
2.941526585 -126.058813583 -0.258164884 0 244 168
2.931943350 -126.151682475 -0.233505178 0 247 150
2.930484131 -126.248435862 -0.231524435 0 247 150
2.933611115 -126.347387244 -0.242346243 0 246 156
2.936288451 -126.446125917 -0.251911856 0 244 165
2.937894338 -126.544352793 -0.258485320 0 244 168
2.940296172 -126.642963992 -0.267279977 0 242 177
2.943507354 -126.741966888 -0.278333275 0 241 186
2.944684088 -126.839993638 -0.283705880 0 240 189
2.943000594 -126.936644084 -0.281092281 0 241 186
2.939209456 -127.032277712 -0.272593464 0 242 180
2.934117788 -127.127281492 -0.260462700 0 243 171
2.928060193 -127.221815477 -0.245634100 0 245 159
2.920660291 -127.315696652 -0.227056829 0 248 144
2.912754327 -127.409327905 -0.207065535 0 250 129
2.907874913 -127.504418574 -0.195522923 0 252 120
2.910075837 -127.602935959 -0.203746953 0 250 129
2.918994812 -127.704712665 -0.230726408 0 247 147
2.930124232 -127.807569402 -0.263876560 0 243 174
2.936789283 -127.908267490 -0.284561707 0 240 189
2.935334529 -128.005025246 -0.282575823 0 240 189
2.928681206 -128.099254014 -0.266074640 0 243 174
2.920855415 -128.192907483 -0.246298806 0 245 159
2.915876792 -128.287942443 -0.234471125 0 247 150
2.916446766 -128.385679255 -0.238134138 0 246 153
2.920447927 -128.485091248 -0.251376187 0 244 165
2.922534719 -128.583572113 -0.259272373 0 243 171
2.921340706 -128.680451838 -0.258007461 0 244 168
2.920787886 -128.777644810 -0.258531813 0 244 168
2.923164780 -128.876271959 -0.267235189 0 242 177
2.928436773 -128.976319741 -0.284021048 0 240 189
2.933401931 -129.076221762 -0.299949363 0 238 201
2.934073826 -129.174021750 -0.303889549 0 238 204
2.928969372 -129.268986455 -0.291700471 0 239 195
2.920761153 -129.362422512 -0.270844156 0 242 180
2.913917611 -129.456523923 -0.253797064 0 244 165
2.909949093 -129.552035665 -0.244776389 0 245 159
2.908668294 -129.648868826 -0.243259255 0 245 159
2.910420336 -129.747196671 -0.250209408 0 245 162
2.913475335 -129.846169275 -0.260796768 0 243 171
2.913001161 -129.943402286 -0.261529026 0 243 171
2.910800292 -130.039782264 -0.257438984 0 244 168
2.912088205 -130.137886400 -0.263089458 0 243 174
2.916635440 -130.237605192 -0.277839862 0 241 183
2.918444610 -130.335971903 -0.284944010 0 240 189
2.915711834 -130.432089171 -0.279364866 0 241 186
2.913326565 -130.528377269 -0.274755036 0 241 183
2.914156636 -130.626260397 -0.279122398 0 241 186
2.912557462 -130.722937739 -0.276705602 0 241 183
2.904505941 -130.816405986 -0.256270728 0 244 168
2.897324758 -130.910301649 -0.238264979 0 246 153
2.894983852 -131.006602867 -0.233773866 0 247 150
2.894752176 -131.103954092 -0.235171484 0 246 153
2.891297709 -131.199698163 -0.227568882 0 247 147
2.885433354 -131.294237115 -0.213235884 0 249 135
2.884249434 -131.391110310 -0.211971457 0 249 135
2.889050676 -131.490975522 -0.227419111 0 247 147
2.893631412 -131.590734689 -0.242250183 0 246 156
2.894669804 -131.688724163 -0.247188623 0 245 162
2.892319293 -131.785016710 -0.242662779 0 246 156
2.890290468 -131.881469314 -0.239034217 0 246 156
2.893976212 -131.980789091 -0.251362467 0 244 165
2.900381923 -132.081478516 -0.271285336 0 242 180
2.903908389 -132.180726113 -0.283167109 0 240 189
2.903365187 -132.277929653 -0.283683400 0 240 189
2.901255701 -132.374344753 -0.279824830 0 241 186
2.902561639 -132.472479632 -0.285502968 0 240 189
2.911626708 -132.574528543 -0.312847971 0 237 210
2.922370654 -132.677432258 -0.344880620 0 232 237
2.927235787 -132.777375965 -0.360495536 0 231 246
2.925257292 -132.873865184 -0.356998172 0 231 246
2.920310028 -132.968851822 -0.345209212 0 232 237
2.914594717 -133.063446388 -0.331274319 0 234 225
2.904455979 -133.155796273 -0.304985341 0 238 204
2.891959494 -133.246943538 -0.272110822 0 242 180
2.883401488 -133.340079819 -0.250233840 0 245 162
2.882845968 -133.437273155 -0.250703963 0 245 162
2.886907118 -133.536812452 -0.264065992 0 243 174
2.889326190 -133.635520424 -0.272841353 0 242 180
2.888474537 -133.732566333 -0.272481661 0 242 180
2.890882633 -133.831272284 -0.281224546 0 241 186
2.896100053 -133.931412504 -0.297812219 0 238 201
2.897978764 -134.029854344 -0.305074921 0 238 204
2.896126399 -134.126393624 -0.301916750 0 238 204
2.896296425 -134.223965132 -0.304405645 0 238 204
2.900743726 -134.323724002 -0.318839067 0 236 216
2.905469988 -134.423629587 -0.334050730 0 234 228
2.905692812 -134.521233564 -0.336684349 0 234 228
2.900489243 -134.616057759 -0.324162121 0 235 219
2.897120509 -134.711819326 -0.316763188 0 236 213
2.896749978 -134.809117420 -0.317736719 0 236 216
2.895835200 -134.906136251 -0.317189291 0 236 213
2.894460255 -135.002918397 -0.315355709 0 236 213
2.892504003 -135.099401011 -0.311897623 0 237 210
2.886200580 -135.193645004 -0.296297379 0 239 198
2.876021448 -135.285888167 -0.269871557 0 242 177
2.877210403 -135.383984307 -0.275194614 0 241 183
2.871493629 -135.478519242 -0.261229564 0 243 171
2.876369961 -135.578519347 -0.276849319 0 241 183
2.880015058 -135.677887619 -0.289029466 0 240 192
2.881861666 -135.776329314 -0.296185642 0 239 198
2.881922204 -135.873848762 -0.298352467 0 238 201
2.879755550 -135.970215446 -0.294297825 0 239 198
2.877368378 -136.066466691 -0.289626278 0 240 192
2.878508699 -136.164546028 -0.294806057 0 239 198
2.883770872 -136.264766048 -0.311497350 0 237 210
2.891855571 -136.366456691 -0.336071246 0 234 228
2.897246188 -136.466753795 -0.353119690 0 231 243
2.893657958 -136.562385043 -0.345088849 0 232 237
2.881200867 -136.653397221 -0.312285587 0 237 210
2.867098464 -136.743543106 -0.274885571 0 241 183
2.850718005 -136.832490905 -0.231121418 0 247 147
2.846462109 -136.927752220 -0.221221171 0 248 141
2.853506805 -137.028910978 -0.242883833 0 246 156
2.864261389 -137.132014168 -0.274907947 0 241 183
2.864811304 -137.229790264 -0.278428220 0 241 186
2.865835536 -137.327815503 -0.283272407 0 240 189
2.870237182 -137.427610710 -0.297549379 0 239 198
2.870925059 -137.525463609 -0.301452266 0 238 201
2.868055243 -137.621451722 -0.295416888 0 239 198
2.874825409 -137.722497551 -0.316306989 0 236 213
2.876333035 -137.820785123 -0.322496869 0 235 219
2.871848111 -137.915924593 -0.311947241 0 237 210
2.867343292 -138.011050621 -0.301340990 0 238 201
2.861691692 -138.105569995 -0.287530423 0 240 192
2.864313357 -138.204443694 -0.296828256 0 239 198
2.862657847 -138.301065133 -0.294177845 0 239 198
2.865725610 -138.400177601 -0.304719951 0 238 204
2.870185413 -138.500027884 -0.319149590 0 236 216
2.869114861 -138.596960244 -0.318130334 0 236 216
2.862004714 -138.690698983 -0.300239510 0 238 201
2.853048661 -138.783455998 -0.277191309 0 241 183
2.845913284 -138.877170607 -0.259227747 0 243 171
2.844022547 -138.973659265 -0.255913295 0 244 168
2.846799443 -139.072622110 -0.265636339 0 243 174
2.849118840 -139.171344834 -0.274080536 0 242 180
2.848144618 -139.268320753 -0.273323426 0 242 180
2.846399425 -139.364886682 -0.270411706 0 242 180
2.847700756 -139.463072004 -0.276009263 0 241 183
2.853208811 -139.563497759 -0.293357161 0 239 195
2.858436626 -139.663779034 -0.309921416 0 237 210
2.859696096 -139.761949729 -0.315399410 0 236 213
2.860362646 -139.859805638 -0.319220182 0 236 216
2.860199712 -139.957219796 -0.320722872 0 236 216
2.858596284 -140.053864852 -0.318200590 0 236 216
2.853307505 -140.148539117 -0.305382232 0 238 204
2.846317686 -140.242299794 -0.287810896 0 240 192
2.841073806 -140.336990190 -0.275115804 0 241 183
2.838097877 -140.432891994 -0.268755290 0 242 177
2.837012130 -140.529805325 -0.267674120 0 242 177
2.838685767 -140.628198716 -0.274300542 0 241 183
2.843502738 -140.728281524 -0.289707264 0 240 192
2.850076388 -140.829312394 -0.310020633 0 237 210
2.856400044 -140.930214448 -0.329634834 0 234 225
2.860384914 -141.029863502 -0.342714553 0 233 234
2.861023246 -141.127714206 -0.346444405 0 232 237
2.859574325 -141.224441203 -0.344342272 0 233 234
2.858219787 -141.321218449 -0.342502841 0 233 234
2.857522712 -141.418349899 -0.342499181 0 233 234
2.855262809 -141.514637356 -0.338128505 0 233 231
2.849141403 -141.608836814 -0.322968945 0 235 219
2.840206810 -141.701510674 -0.299949054 0 238 201
2.832937234 -141.795079119 -0.281579610 0 241 186
2.831712340 -141.891915933 -0.280096321 0 241 186
2.834032592 -141.990673551 -0.288516328 0 240 192
2.835577348 -142.089012871 -0.294768903 0 239 198
2.835994898 -142.186742104 -0.297871417 0 238 201
2.837319255 -142.284964636 -0.303506433 0 238 204
2.839347537 -142.383571257 -0.311107175 0 237 210
2.840923169 -142.481933736 -0.317442411 0 236 216
2.841642427 -142.579831805 -0.321384190 0 235 219
2.840102334 -142.676500305 -0.319012789 0 236 216
2.838001665 -142.772862531 -0.315074251 0 236 213
2.837415344 -142.870049589 -0.315365608 0 236 213
2.838249650 -142.968012090 -0.319625071 0 236 216
2.838447097 -143.065627838 -0.322104305 0 235 219
2.836532598 -143.162089789 -0.318682047 0 236 216
2.833444896 -143.257908971 -0.311980983 0 237 210
2.830167199 -143.353622216 -0.304748077 0 238 204
2.825818827 -143.448746880 -0.294522757 0 239 198
2.822291068 -143.544318460 -0.286589149 0 240 192
2.822424625 -143.641896205 -0.288884099 0 240 192
2.824827409 -143.740720203 -0.297518278 0 239 198
2.828077211 -143.840011829 -0.308518141 0 237 207
2.832837622 -143.940136864 -0.323737786 0 235 219
2.839014914 -144.041045509 -0.342915397 0 233 234
2.844779746 -144.141732359 -0.360939806 0 230 249
2.848168189 -144.241115016 -0.372323708 0 229 255
