ply
format ascii 1.0
comment coordinate_system ground
comment units millimeter
element vertex 1422
property double x
property double y
property double z
property uchar red
property uchar green
property uchar blue
comment color_mapping zg_high_contrast_from_zg
comment color_zg_range_mm -0.260454922 0.502994655
end_header
6.407329599 147.076716844 0.203575916 250 218 0
6.410321355 146.981965201 0.190304322 248 222 0
6.415325005 146.888416206 0.171494284 245 228 0
6.418125237 146.793542298 0.158751558 243 232 0
6.415577419 146.695463329 0.160734282 244 231 0
6.409475732 146.595258873 0.172502792 246 227 0
6.402715225 146.494664019 0.186086304 247 223 0
6.397493641 146.394992782 0.195433756 249 221 0
6.394584475 146.296705315 0.198415387 249 220 0
6.394120126 146.199877999 0.194666555 249 221 0
6.395674647 146.104254008 0.185359933 247 223 0
6.398111827 146.009153826 0.173623856 246 227 0
6.397961116 145.912509211 0.169014076 245 228 0
6.392759200 145.812856778 0.178313222 247 225 0
6.385259365 145.711840187 0.193940561 249 221 0
6.380363861 145.612376501 0.202398137 250 218 0
6.377862160 145.514337668 0.204265522 250 218 0
6.374545017 145.415815470 0.208379159 251 216 0
6.372438308 145.318012933 0.209160873 251 216 0
6.374163278 145.222483051 0.199393006 250 219 0
6.376348554 145.127223547 0.188358514 248 223 0
6.374860438 145.029785792 0.187439642 248 223 0
6.369772413 144.930217467 0.196434213 249 220 0
6.364403146 144.830485570 0.206204240 251 217 0
6.360514953 144.731632112 0.211897071 252 215 0
6.365419823 144.637974674 0.193378409 249 221 0
6.363559625 144.540318791 0.193488819 249 221 0
6.357631631 144.440263435 0.204801337 251 217 0
6.354117652 144.341634729 0.209467607 251 216 0
6.353627639 144.244789298 0.205807924 251 217 0
6.353082591 144.147910748 0.202300696 250 218 0
6.352233176 144.050852428 0.199632499 250 219 0
6.352874785 143.954670466 0.192859394 249 221 0
6.354837574 143.859263351 0.182449012 247 224 0
6.353004155 143.761624184 0.182493175 247 224 0
6.346717443 143.661371643 0.194801502 249 221 0
6.340598752 143.561221349 0.206648216 251 217 0
6.337671610 143.462945352 0.209707213 251 216 0
6.338599746 143.366928807 0.202150577 250 218 0
6.341783694 143.272231008 0.188382750 248 223 0
6.344935692 143.177511020 0.174703701 246 227 0
6.345945523 143.081535182 0.166924618 245 229 0
6.344268273 142.983987572 0.166546204 245 229 0
6.342950166 142.886649855 0.165179699 244 230 0
6.342426171 142.789775420 0.161627244 244 231 0
6.342145966 142.693042464 0.157404328 243 232 0
6.337952937 142.594028529 0.163957858 244 230 0
6.327660761 142.491464870 0.187308976 248 223 0
6.320436909 142.390693634 0.202211332 250 218 0
6.319805465 142.293760895 0.198959629 250 219 0
6.323305581 142.199228867 0.184330665 247 223 0
6.326061649 142.104260944 0.171751586 245 228 0
6.326224820 142.007784811 0.166314146 245 229 0
6.324995935 141.910499997 0.164711334 244 230 0
6.323175026 141.812871859 0.164739902 244 230 0
6.320424464 141.714705481 0.167329724 245 229 0
6.318865130 141.617229766 0.166639813 245 229 0
6.321069478 141.521931645 0.155585402 243 233 0
6.321924123 141.425850427 0.148249019 242 234 0
6.317659544 141.326809666 0.155012361 243 233 0
6.311711320 141.226798931 0.166413681 245 229 0
6.307881803 141.128014211 0.171980884 246 227 0
6.306262830 141.030506048 0.171460935 245 228 0
6.305989149 140.933773304 0.167236785 245 229 0
6.306305401 140.837379444 0.161388761 244 231 0
6.305436161 140.740302024 0.158806700 243 232 0
6.300922365 140.641128120 0.166263413 245 229 0
6.294193583 140.540683530 0.179821722 247 225 0
6.290959843 140.442250439 0.183754961 247 224 0
6.291868331 140.346196339 0.176280467 246 226 0
6.293723860 140.250683723 0.166198440 245 229 0
6.293329100 140.153878714 0.162315186 244 231 0
6.288566401 140.054570788 0.170463435 245 228 0
6.279996598 139.953085987 0.189098672 248 223 0
6.269819196 139.850686964 0.212162916 252 215 0
6.260165547 139.748594060 0.233785772 255 209 0
6.265047244 139.654811877 0.215374312 252 214 0
6.265918318 139.558735080 0.208010348 251 216 0
6.262788350 139.460373712 0.211667669 252 215 0
6.269995059 139.367907507 0.186854641 247 223 0
6.273591285 139.273377499 0.171987072 246 227 0
6.272004195 139.175892195 0.171397374 245 228 0
6.268104622 139.077091142 0.177178232 246 226 0
6.265799772 138.979198872 0.178567509 247 225 0
6.266366727 138.882939315 0.172047445 246 227 0
6.266367679 138.786356847 0.167087317 245 229 0
6.263433433 138.688107535 0.170213107 245 228 0
6.262843761 138.591189126 0.166881712 245 229 0
6.265839716 138.496302331 0.153674508 242 234 0
6.266416970 138.400042301 0.147130550 242 235 0
6.260023464 138.299835308 0.159788883 243 232 0
6.255975582 138.200958880 0.165987101 244 230 0
6.247267174 138.099450155 0.185024205 247 223 0
6.244433893 138.001265661 0.187878798 248 223 0
6.244476967 137.904705940 0.182811103 247 224 0
6.248162398 137.810199817 0.167710935 245 229 0
6.254121236 137.716971428 0.146349116 242 235 0
6.256482146 137.621710604 0.134899123 240 239 0
6.255426563 137.524523590 0.132861321 239 240 0
6.252891701 137.426504128 0.134899424 240 239 0
6.250854996 137.328765625 0.135566229 240 239 0
6.249304548 137.231300828 0.134894497 240 239 0
6.245137010 137.132366834 0.141433129 241 237 0
6.235639542 137.030444555 0.162655457 244 231 0
6.223493592 136.927043512 0.191174947 248 222 0
6.213760919 136.825002840 0.213047638 252 215 0
6.210674736 136.726690051 0.216611762 252 214 0
6.215039162 136.632547503 0.199651813 250 219 0
6.221488423 136.539566367 0.176949272 246 226 0
6.223058206 136.443852742 0.167689665 245 229 0
6.217596190 136.344210337 0.177802558 246 226 0
6.211321462 136.244117550 0.190155445 248 222 0
6.211715873 136.147747489 0.184136672 247 223 0
6.216195664 136.053652722 0.166863953 245 229 0
6.215897643 135.956892860 0.162754509 244 231 0
6.208869258 135.856386757 0.177187715 246 226 0
6.200115374 135.754925396 0.196375704 249 220 0
6.195493514 135.655765996 0.204181278 250 218 0
6.196554135 135.559764905 0.196332770 249 220 0
6.200037485 135.465106550 0.181810529 247 224 0
6.202446848 135.369848895 0.170247947 245 228 0
6.201993250 135.273001686 0.166573733 245 229 0
6.199948112 135.175272349 0.167285206 245 229 0
6.198421632 135.077830606 0.166568719 245 229 0
6.195975170 134.979880186 0.168387803 245 229 0
6.191066367 134.880569683 0.176991834 246 226 0
6.186107417 134.781234201 0.185735087 247 223 0
6.184022004 134.683487486 0.186562471 247 223 0
6.184108869 134.586939476 0.181405922 247 224 0
6.184737175 134.490688816 0.174758535 246 227 0
6.183777644 134.393562093 0.172486791 246 227 0
6.180679336 134.295257873 0.176108690 246 226 0
6.178192738 134.197291459 0.178046222 247 225 0
6.179329401 134.101317470 0.170001914 245 228 0
6.183044744 134.006758008 0.154853660 243 233 0
6.184685425 133.911055942 0.145422390 242 235 0
6.183716465 133.813920197 0.143182197 241 236 0
6.182557977 133.716680294 0.141465148 241 237 0
6.181138808 133.619297477 0.140467298 241 237 0
6.176958173 133.520403181 0.147079055 242 235 0
6.169987190 133.419984760 0.161380124 244 231 0
6.162300346 133.319179338 0.177654745 246 226 0
6.163283871 133.223114791 0.170040709 245 228 0
6.156296809 133.122697735 0.184389346 247 223 0
6.151804389 133.023645746 0.191865448 248 222 0
6.151920384 132.927108178 0.186644653 247 223 0
6.154876320 132.832116465 0.173599608 246 227 0
6.155759291 132.735993126 0.166267263 245 229 0
6.153918664 132.638386614 0.166440488 245 229 0
6.153037803 132.541302202 0.163970107 244 230 0
6.155241650 132.445893042 0.153000889 242 234 0
6.157011325 132.350245534 0.143228877 241 236 0
6.156044433 132.253111291 0.140998301 241 237 0
6.153272842 132.154998553 0.143741524 241 236 0
6.149272638 132.056221425 0.149871214 242 234 0
6.145398891 131.957514795 0.155653483 243 233 0
6.140592855 131.858305835 0.164005755 244 230 0
6.135176730 131.758769766 0.174040226 246 227 0
6.132354425 131.660637868 0.176928310 246 226 0
6.132953035 131.564353618 0.170390759 245 228 0
6.133765127 131.468183069 0.163265837 244 230 0
6.131404882 131.370301004 0.164883569 244 230 0
6.126639815 131.271124446 0.173129104 246 227 0
6.122725090 131.172408214 0.179032457 247 225 0
6.121053073 131.074900243 0.178756696 247 225 0
6.122413668 130.979022537 0.170124999 245 228 0
6.126506835 130.884610481 0.153964053 242 234 0
6.129567234 130.789640014 0.140649915 241 237 0
6.128936391 130.692686459 0.137508655 240 238 0
6.128142337 130.595644922 0.134818102 240 239 0
6.128064607 130.498986655 0.130154482 239 241 0
6.125370505 130.400927174 0.132701903 239 240 0
6.116762957 130.299706119 0.151546503 242 234 0
6.104951435 130.196778293 0.179221787 247 225 0
6.095828827 130.095294515 0.199488202 250 219 0
6.093628086 129.997510757 0.200680338 250 219 0
6.096693896 129.902536343 0.187359680 248 223 0
6.098781307 129.807037208 0.176736182 246 226 0
6.096969414 129.709458971 0.176859532 246 226 0
6.095554407 129.612092340 0.175890087 246 226 0
6.097967723 129.516761624 0.164371128 244 230 0
6.102968205 129.422802909 0.145723011 242 235 0
6.104141440 129.326807076 0.137623299 240 238 0
6.099753498 129.227858405 0.144850784 241 236 0
6.094136382 129.128260318 0.155466880 243 233 0
6.089963802 129.029430953 0.162102961 244 231 0
6.085318131 128.930353288 0.170043929 245 228 0
6.076816296 128.829237826 0.188613570 248 223 0
6.070345633 128.729201810 0.201586439 250 219 0
6.069869667 128.632337070 0.198038829 249 220 0
6.071730753 128.536705620 0.188051134 248 223 0
6.073280344 128.440907440 0.178922811 247 225 0
6.073804122 128.344566287 0.172622591 246 227 0
6.075455030 128.248817572 0.163216810 244 230 0
6.079776401 128.154472503 0.146451822 242 235 0
6.082250246 128.059151244 0.134779645 240 239 0
6.078231901 127.960414243 0.141001694 241 237 0
6.069803247 127.859362546 0.159380279 243 232 0
6.061265360 127.758258954 0.178061109 247 225 0
6.063806774 127.662972541 0.166206543 245 229 0
6.062910281 127.565881179 0.163828384 244 230 0
6.061256912 127.468393091 0.163537291 244 230 0
6.055263415 127.368633632 0.175209554 246 226 0
6.046474421 127.267415644 0.194587991 249 221 0
6.039941426 127.167382473 0.207749508 251 217 0
6.040321514 127.070963787 0.201857815 250 218 0
6.046276379 126.977453253 0.180601362 247 225 0
6.052380121 126.884014865 0.158935317 243 232 0
6.056543529 126.789559712 0.142618197 241 236 0
6.057345631 126.693350042 0.135566757 240 239 0
6.053959318 126.594959296 0.140060937 241 237 0
6.048516311 126.495500717 0.150225139 242 234 0
6.043251027 126.396137665 0.159900564 243 232 0
6.037743602 126.296651934 0.170244514 245 228 0
6.033782590 126.197971782 0.176327019 246 226 0
6.032067615 126.100458173 0.176219556 246 226 0
6.033583891 126.004618966 0.167206348 245 229 0
6.040433475 125.911538712 0.143493043 241 236 0
6.043392470 125.816439604 0.130504738 239 240 0
6.035655867 125.715808295 0.146999449 242 235 0
6.028985341 125.615732612 0.160556694 244 231 0
6.030342186 125.519804619 0.151987566 242 234 0
6.036996003 125.426606815 0.128818113 239 241 0
6.039514902 125.331271778 0.117047453 237 245 0
6.034466242 125.232036287 0.126138016 238 242 0
6.026328138 125.131213679 0.143745920 241 236 0
6.021045214 125.031864667 0.153484465 242 234 0
6.022531912 124.935997613 0.144562994 241 236 0
6.026235835 124.841267059 0.129530389 239 241 0
6.027441810 124.745250948 0.121384521 238 243 0
6.028092690 124.648948343 0.114769747 237 246 0
6.028121361 124.552325488 0.109871109 236 246 0
6.025485342 124.454337358 0.112319073 236 246 0
6.017727275 124.353729774 0.128887917 239 241 0
6.005573823 124.250880081 0.157574679 243 232 0
5.995246603 124.148971627 0.181228342 247 224 0
5.993715648 124.051560335 0.180634335 247 225 0
5.996177823 123.956186126 0.169033279 245 228 0
5.995479745 123.859198281 0.166145142 245 229 0
5.992187768 123.760888872 0.170408751 245 228 0
5.990295321 123.663293315 0.170815190 245 228 0
5.993495792 123.568288358 0.157182461 243 232 0
5.996154032 123.473004467 0.145045409 241 236 0
5.994891983 123.375726854 0.143716792 241 236 0
5.990797221 123.277011863 0.150198502 242 234 0
5.986257007 123.178073183 0.157909324 243 232 0
5.985544768 123.081076525 0.155067969 243 233 0
5.985677183 122.984507107 0.149898959 242 234 0
5.983950166 122.886995951 0.149857161 242 234 0
5.980642136 122.788685929 0.154175081 243 233 0
5.977436225 122.690429071 0.158212503 243 232 0
5.971394361 122.590742230 0.170069535 245 228 0
5.966637485 122.491707177 0.178385025 247 225 0
5.960887859 122.392174458 0.189438587 248 223 0
5.961495402 122.295846792 0.182966590 247 224 0
5.964304926 122.200625857 0.170424637 245 228 0
5.964624611 122.104149806 0.164748088 244 230 0
5.963564207 122.006979109 0.162877426 244 231 0
5.966880407 121.912005778 0.148941219 242 234 0
5.965264013 121.814554212 0.148605342 242 234 0
5.968501032 121.719536147 0.134889208 240 239 0
5.963900775 121.620588539 0.142782038 241 236 0
5.966280632 121.525137590 0.131431004 239 240 0
5.960341803 121.425522915 0.143016499 241 236 0
5.955538928 121.326479600 0.151471129 242 234 0
5.952042190 121.228091342 0.156325622 243 233 0
5.951341629 121.131100263 0.153471632 242 234 0
5.954108061 121.035837690 0.141059472 241 237 0
5.957389103 120.940828511 0.127229294 238 242 0
5.957629253 120.844301805 0.121784351 238 243 0
5.955159946 120.746425944 0.123810935 238 243 0
5.953058152 120.648733747 0.124825215 238 242 0
5.952041343 120.551581213 0.122848922 238 243 0
5.949245963 120.453545660 0.125777606 238 242 0
5.943049015 120.353824097 0.138086413 240 238 0
5.934170062 120.252777045 0.157791446 243 232 0
5.924376290 120.151282765 0.180020131 247 225 0
5.917519742 120.051248557 0.194151154 249 221 0
5.919118642 119.955399761 0.184968737 247 223 0
5.927796481 119.863046582 0.156268040 243 233 0
5.934103133 119.769515157 0.134106288 240 239 0
5.935547302 119.673579122 0.125353056 238 242 0
5.935332481 119.576823243 0.121175233 238 244 0
5.936312830 119.480655329 0.113702785 237 246 0
5.938381399 119.385021375 0.103230559 235 249 0
5.936057022 119.287224373 0.104872539 235 248 0
5.928579497 119.186895742 0.120725146 238 244 0
5.919241311 119.085658186 0.141709650 241 237 0
5.912715995 118.985807045 0.154938913 243 233 0
5.910704130 118.888172903 0.155723447 243 233 0
5.911917811 118.792119637 0.147614482 242 235 0
5.914572731 118.696770074 0.135532165 240 239 0
5.915802009 118.600720209 0.127381996 239 241 0
5.914480776 118.503421858 0.126265945 238 242 0
5.912375690 118.405740766 0.127312417 239 241 0
5.910149468 118.308001246 0.128693943 239 241 0
5.908395803 118.210492943 0.128773361 239 241 0
5.907899836 118.113597882 0.125385524 238 242 0
5.907190571 118.016598437 0.122586851 238 243 0
5.905193770 117.918972240 0.123339727 238 243 0
5.903128635 117.821313434 0.124282057 238 242 0
5.901733087 117.723980529 0.123378890 238 243 0
5.900304545 117.626631763 0.122567705 238 243 0
5.899236425 117.529457968 0.120763573 238 244 0
5.899940925 117.433143073 0.114072029 237 246 0
5.901434978 117.337209042 0.105204032 235 248 0
5.900631047 117.240161131 0.102674223 235 249 0
5.896216964 117.141367600 0.110101353 236 246 0
5.887437872 117.040467924 0.129567319 239 241 0
5.875591657 116.938093564 0.157493004 243 232 0
5.874078890 116.840711209 0.156922270 243 233 0
5.870937984 116.742544458 0.160842661 244 231 0
5.873127834 116.646946193 0.150062712 242 234 0
5.876103274 116.551723354 0.137117112 240 238 0
5.870247831 116.452251597 0.148526820 242 234 0
5.877275427 116.358972449 0.124407698 238 242 0
5.875479586 116.261451597 0.124623490 238 242 0
5.874779763 116.164456905 0.121817563 238 243 0
5.874996603 116.067901164 0.116484523 237 245 0
5.876851527 115.972128803 0.106634687 236 247 0
5.871622520 115.872964467 0.116322943 237 245 0
5.879222950 115.779937211 0.090629062 233 253 0
5.886578224 115.686786148 0.065612051 211 255 9
5.887441817 115.590529728 0.058499858 200 255 14
5.880129806 115.490372174 0.073937053 222 255 4
5.867206418 115.387544928 0.104851774 235 248 0
5.857662628 115.286336040 0.126446742 238 242 0
5.845816122 115.184037810 0.154393980 243 233 0
5.845694377 115.087322287 0.150004740 242 234 0
5.851538418 114.993440145 0.129162283 239 241 0
5.856329413 114.899052783 0.111225028 236 246 0
5.860044656 114.804150635 0.096255642 234 251 0
5.863739698 114.709235188 0.081342826 229 255 1
5.865980308 114.613627284 0.070442399 215 255 8
5.859073139 114.513688327 0.084773935 232 255 0
5.849446906 114.412468191 0.106606292 236 247 0
5.844794294 114.313604070 0.114721686 237 246 0
5.842740557 114.215969340 0.115669940 237 245 0
5.841175270 114.118565656 0.115271959 237 246 0
5.839164566 114.020952361 0.116103550 237 245 0
5.837679349 113.923587149 0.115486733 237 245 0
5.837204426 113.826697523 0.112084262 236 246 0
5.836959271 113.729915388 0.108049001 236 247 0
5.837795889 113.633640703 0.101030860 235 249 0
5.840617980 113.538296396 0.088537108 233 253 0
5.844280992 113.443343427 0.073724702 222 255 4
5.845725093 113.347346996 0.065033659 211 255 9
5.842272367 113.249055784 0.069850708 215 255 8
5.835875219 113.149388796 0.082790621 232 255 0
5.832001519 113.050905399 0.088771046 233 253 0
5.835135727 112.955697300 0.075421958 222 255 4
5.838480779 112.860584328 0.061492149 204 255 12
5.834999898 112.762284880 0.066392029 211 255 9
5.827937725 112.662318545 0.081171757 229 255 1
5.820928964 112.562381569 0.095805315 234 251 0
5.815992207 112.463412887 0.104724485 235 248 0
5.814676680 112.366130202 0.103655655 235 248 0
5.817488627 112.270764483 0.091202198 233 253 0
5.819716548 112.175124731 0.080360668 229 255 1
5.529532652 92.130050106 -0.064801221 51 255 80
5.522267672 92.030513302 -0.049227007 69 255 72
5.506691533 91.927783239 -0.010700211 116 255 51
5.500552540 91.828691894 0.001767101 131 255 44
5.500848333 91.732075506 -0.003534339 127 255 46
5.501651815 91.635652852 -0.010236796 116 255 51
5.502223815 91.539140059 -0.016299019 109 255 54
5.502836062 91.442641431 -0.022471400 102 255 57
5.503477518 91.346152700 -0.028723460 95 255 60
5.502493751 91.249041652 -0.030486298 95 255 60
5.498445799 91.150760846 -0.023785968 102 255 57
5.492625934 91.051806596 -0.012191127 116 255 51
5.490132288 90.954123168 -0.009780991 120 255 49
5.492285849 90.858209509 -0.020203830 106 255 56
5.492311053 90.761484184 -0.024747877 102 255 57
5.490104561 90.663910375 -0.023127648 102 255 57
5.485835313 90.565554739 -0.015809613 113 255 52
5.480777098 90.466902483 -0.006311536 124 255 48
5.477006111 90.368740730 -0.000367304 131 255 44
5.474902135 90.271211679 0.000974165 131 255 44
5.475601688 90.174742937 -0.005426003 124 255 48
5.479223173 90.079376001 -0.019894934 106 255 56
5.480804348 89.983235979 -0.028728036 95 255 60
5.478049209 89.885460125 -0.025584088 98 255 59
5.473593159 89.787045353 -0.017741434 109 255 54
5.477945931 89.691945416 -0.034226217 87 255 64
5.476280083 89.594580565 -0.034087557 87 255 64
5.476658291 89.497983216 -0.039593263 84 255 65
5.478041231 89.401761419 -0.047872924 73 255 70
5.480390261 89.305899555 -0.058819860 58 255 76
5.479620667 89.208868396 -0.061152490 55 255 78
5.473820690 89.109957031 -0.049590536 69 255 72
5.467985054 89.011035975 -0.037928925 84 255 65
5.463825725 88.912743769 -0.030896025 91 255 62
5.461425606 88.815109383 -0.028720881 95 255 60
5.461558677 88.718418884 -0.033541295 91 255 62
5.463219944 88.622295696 -0.042581579 80 255 67
5.462182608 88.525168074 -0.044167326 76 255 68
5.457274366 88.426604113 -0.035060490 87 255 64
5.451855799 88.327853928 -0.024542963 102 255 57
5.448425600 88.229843358 -0.019516259 106 255 56
5.445832316 88.132144190 -0.016800065 109 255 54
5.443719629 88.034623796 -0.015410240 113 255 52
5.444894839 87.938317945 -0.023100836 102 255 57
5.450966746 87.843816153 -0.044315688 76 255 68
5.460284168 87.750504544 -0.074494228 40 255 84
5.467827377 87.656532107 -0.099771395 7 255 99
5.465575918 87.558952342 -0.097993374 11 255 97
5.457343074 87.459176862 -0.079692680 33 255 88
5.449817573 87.359666361 -0.063344552 55 255 78
5.444797218 87.261078893 -0.053914911 66 255 73
5.443739071 87.163945023 -0.055428574 62 255 75
5.446337630 87.068148493 -0.067041848 47 255 81
5.448925981 86.972345454 -0.078625986 33 255 88
5.449447381 86.875785296 -0.084499743 29 255 89
5.446856654 86.778089337 -0.081775971 29 255 89
5.441450747 86.679369285 -0.071274790 44 255 83
5.434604210 86.580128439 -0.056792992 62 255 75
5.427078323 86.480645121 -0.040433411 80 255 67
5.419841567 86.381271716 -0.024871278 98 255 59
5.414413717 86.282559069 -0.014304744 113 255 52
5.412763610 86.185218396 -0.014172507 113 255 52
5.413971817 86.088912628 -0.021934932 102 255 57
5.414639757 85.992409824 -0.028203953 95 255 60
5.413455474 85.895236797 -0.029355404 95 255 60
5.412392733 85.798107726 -0.030841560 91 255 62
5.414570387 85.702146449 -0.041278022 80 255 67
5.417732582 85.606537152 -0.054433271 66 255 73
5.418611573 85.510103567 -0.061280349 55 255 78
5.418299883 85.413240781 -0.064837220 51 255 80
5.418066176 85.316405424 -0.068608495 47 255 81
5.417172383 85.219332829 -0.070555265 44 255 83
5.413895130 85.121406621 -0.065916660 51 255 80
5.408908452 85.022870638 -0.056554617 62 255 75
5.404928639 84.924697450 -0.049972923 69 255 72
5.402617285 84.827122060 -0.047999311 73 255 70
5.399318985 84.729195727 -0.043298112 76 255 68
5.391200116 84.629554098 -0.025278584 98 255 59
5.378261095 84.528202836 0.006058326 138 255 41
5.380154678 84.432132508 -0.003580099 127 255 46
5.382941597 84.336377117 -0.015685516 113 255 52
5.382738283 84.239558291 -0.019529059 106 255 56
5.387129881 84.144366712 -0.036065733 87 255 64
5.386923874 84.047543909 -0.039899860 80 255 67
5.381590549 83.948907880 -0.029567815 95 255 60
5.384771718 83.853281898 -0.042757565 76 255 68
5.385225826 83.756690719 -0.048412311 73 255 70
5.382854450 83.659102779 -0.046260019 73 255 70
5.387782434 83.564085171 -0.064272868 51 255 80
5.388087693 83.467437618 -0.069513393 47 255 81
5.385390653 83.369734549 -0.066458256 51 255 80
5.389894362 83.274559113 -0.083296124 29 255 89
5.384346066 83.175856567 -0.072361467 44 255 83
5.379495353 83.077401678 -0.063352922 55 255 78
5.377405834 82.979915299 -0.061971918 55 255 78
5.376692917 82.882910603 -0.064393167 51 255 80
5.373876026 82.785171501 -0.061000405 55 255 78
5.367938951 82.686346193 -0.048985896 69 255 72
5.361588987 82.587380867 -0.035829434 87 255 64
5.357694683 82.489273666 -0.029456508 95 255 60
5.357207047 82.392352176 -0.032494769 91 255 62
5.357979392 82.295867526 -0.039013227 84 255 65
5.357754544 82.199035821 -0.042775508 76 255 68
5.356652339 82.101899699 -0.044112668 76 255 68
5.356544287 82.005107498 -0.048195590 73 255 70
5.359085677 81.909229996 -0.059597848 58 255 76
5.364149004 81.814220156 -0.077967255 36 255 86
5.369433928 81.719282063 -0.096948059 11 255 97
5.371077625 81.623085247 -0.105867205 0 255 102
5.368452218 81.525417897 -0.102989682 4 255 100
5.365274735 81.427562071 -0.098585654 11 255 97
5.365398721 81.330841011 -0.103302689 4 255 100
5.365457508 81.234096720 -0.107838559 0 255 102
5.359416986 81.135262851 -0.095520445 15 255 96
5.353385192 81.036435792 -0.083225259 29 255 89
5.348049880 80.937850534 -0.072853346 40 255 84
5.342438097 80.839174198 -0.061716333 55 255 78
5.336890940 80.740523394 -0.050756713 69 255 72
5.332345388 80.642217133 -0.042563512 80 255 67
5.330224307 80.544738284 -0.041068411 80 255 67
5.331526434 80.448423429 -0.049031212 69 255 72
5.333848198 80.352452867 -0.059810499 58 255 76
5.334233061 80.255823097 -0.065236745 51 255 80
5.332197249 80.158372507 -0.063973082 51 255 80
5.330660150 80.061091384 -0.064086410 51 255 80
5.332064072 79.964804361 -0.072325492 44 255 83
5.333461271 79.868513216 -0.080545011 33 255 88
5.331754168 79.771173712 -0.080185455 33 255 88
5.326210506 79.672542826 -0.069223239 47 255 81
5.317796079 79.572949796 -0.050327000 69 255 72
5.309264686 79.473323108 -0.031106286 91 255 62
5.305159259 79.375187459 -0.024114794 102 255 57
5.308394424 79.279514793 -0.037406885 84 255 65
5.314130467 79.184676240 -0.057608917 62 255 75
5.317478714 79.089033943 -0.071211672 44 255 83
5.316135603 78.991821093 -0.071849371 44 255 83
5.312352527 78.893794314 -0.065743364 51 255 80
5.309200144 78.795979851 -0.061379103 55 255 78
5.306860172 78.698437482 -0.059258785 58 255 76
5.304326379 78.600831665 -0.056601762 62 255 75
5.300026896 78.502640516 -0.049064196 69 255 72
5.293204341 78.403614773 -0.034553002 87 255 64
5.286121796 78.304507298 -0.019322104 106 255 56
5.283182061 78.206775770 -0.015538719 113 255 52
5.283852661 78.110239396 -0.021731505 106 255 56
5.283148034 78.013247563 -0.024122781 102 255 57
5.288421233 77.918227384 -0.043033103 76 255 68
5.285022760 77.820345202 -0.037977727 84 255 65
5.286123404 77.723945518 -0.045354942 76 255 68
5.282231054 77.625902901 -0.038932506 84 255 65
5.286860591 77.530660572 -0.056060177 62 255 75
5.288821313 77.434538666 -0.065811329 51 255 80
5.287153107 77.337225725 -0.065532437 51 255 80
5.282446963 77.238919273 -0.056856644 62 255 75
5.284987146 77.142983852 -0.068206180 47 255 81
5.280043080 77.044602597 -0.058870630 58 255 76
5.276578053 76.946706583 -0.053621536 66 255 73
5.275197937 76.849491432 -0.054133422 66 255 73
5.276460372 76.753136155 -0.061947543 55 255 78
5.278778396 76.657122108 -0.072678054 40 255 84
5.280875604 76.561033856 -0.082797320 29 255 89
5.282578426 76.464815389 -0.091825625 18 255 94
5.282372454 76.367976847 -0.095577450 15 255 96
5.278307117 76.269889635 -0.088661722 22 255 92
5.271852337 76.171032956 -0.075140870 40 255 84
5.265819871 76.072316675 -0.062786013 55 255 78
5.260772637 75.973921700 -0.053152984 66 255 73
5.256759278 75.875862561 -0.046376269 73 255 70
5.254397541 75.778336665 -0.044163287 76 255 68
5.254333712 75.681549640 -0.048300366 73 255 70
5.256478150 75.585470107 -0.058539850 58 255 76
5.259902765 75.489798243 -0.072316664 44 255 83
5.263239267 75.394094800 -0.085849006 25 255 91
5.264922605 75.297859740 -0.094811166 15 255 96
5.263901235 75.200759317 -0.096296646 15 255 96
5.260427142 75.102876959 -0.091001810 18 255 94
5.254960169 75.004361901 -0.080197557 33 255 88
5.248688818 74.905594416 -0.067168820 47 255 81
5.244651993 74.807540763 -0.060315137 58 255 76
5.245083711 74.710907187 -0.065811488 51 255 80
5.247786242 74.614992123 -0.077583446 36 255 86
5.249945964 74.518902415 -0.087854095 22 255 92
5.249971457 74.422135586 -0.092224616 18 255 94
5.246987250 74.324417646 -0.088275042 22 255 92
5.241133514 74.225796246 -0.076392694 36 255 86
5.234846484 74.127042059 -0.063311476 55 255 78
5.231211476 74.029126242 -0.057559576 62 255 75
5.230756520 73.932211682 -0.060596653 58 255 76
5.230984390 73.835510998 -0.065520127 51 255 80
5.230202340 73.738492796 -0.067650985 47 255 81
5.230393311 73.641779053 -0.072470399 44 255 83
5.232436434 73.545643561 -0.082408498 29 255 89
5.235185531 73.449726226 -0.094297089 15 255 96
5.236225668 73.353272935 -0.101460771 7 255 99
5.233645438 73.255690138 -0.098615892 11 255 97
5.229004047 73.157467161 -0.090072336 22 255 92
5.226413837 73.059884445 -0.087197629 25 255 91
5.225784942 72.962911746 -0.089743448 22 255 92
5.223307166 72.865365552 -0.087177362 25 255 91
5.217450420 72.766774192 -0.075269650 40 255 84
5.211208834 72.668067514 -0.062296922 55 255 78
5.208638888 72.570498938 -0.059472636 58 255 76
5.208568406 72.473702643 -0.063556649 55 255 78
5.209064677 72.377080260 -0.069206340 47 255 81
5.212389040 72.281327043 -0.082672935 29 255 89
5.219418092 72.186709181 -0.106379810 0 255 102
5.226750923 72.092178440 -0.130925622 0 251 126
5.231426106 71.996826514 -0.148123745 0 248 144
4.845928636 51.954565074 0.060437576 204 255 12
4.859419580 51.860837997 0.019051684 153 255 35
4.873558488 51.767247062 -0.024126661 102 255 57
4.873406502 51.670403484 -0.027756441 98 255 59
4.865605397 51.571827418 -0.010217265 116 255 51
4.857431528 51.473172305 0.008354763 142 255 40
4.851373932 51.375000216 0.021071523 156 255 33
4.847573027 51.277340359 0.027544330 164 255 30
4.845003621 51.179959598 0.030610224 167 255 28
4.843817120 51.082890511 0.029850153 167 255 28
4.845022412 50.986357627 0.022472011 156 255 33
4.849592379 50.890575873 0.005783289 138 255 41
4.855142363 50.795008767 -0.013616676 113 255 52
4.856073526 50.698406794 -0.020233201 106 255 56
4.852278456 50.600751338 -0.013768829 113 255 52
4.847804855 50.502947253 -0.005425451 124 255 48
4.845683668 50.405667664 -0.003591266 127 255 46
4.845158234 50.308742316 -0.006172279 124 255 48
4.844113716 50.211701866 -0.007315626 120 255 49
4.842396952 50.114513111 -0.006597393 124 255 48
4.842411737 50.017706373 -0.010670264 116 255 51
4.845252419 49.921520335 -0.022563031 102 255 57
4.847322717 49.825162247 -0.032322689 91 255 62
4.844278847 49.727681042 -0.027927235 95 255 60
4.838312057 49.629561960 -0.015441041 113 255 52
4.832892582 49.531566214 -0.004468403 124 255 48
4.828642285 49.433828745 0.003269551 135 255 43
4.825067361 49.336240750 0.009139461 142 255 40
4.821597556 49.238677571 0.014719596 149 255 36
4.818271516 49.141147468 0.019902986 156 255 33
4.815418417 49.043721537 0.023778555 160 255 32
4.813053650 48.946402560 0.026303692 164 255 30
4.811022918 48.849156694 0.027905427 164 255 30
4.810036133 48.752136424 0.026618875 164 255 30
4.809948759 48.655309484 0.022844041 156 255 33
4.808721127 48.558237197 0.022226267 156 255 33
4.803754502 48.460364257 0.031958407 171 255 27
4.796718347 48.362051888 0.047419835 189 255 19
4.794670180 48.264808688 0.049076587 189 255 19
4.798366385 48.168790077 0.034834895 175 255 25
4.801865570 48.072725993 0.021139485 156 255 33
4.798851254 47.975275829 0.025473616 160 255 32
4.793944123 47.877426143 0.035047998 175 255 25
4.793877742 47.780603326 0.031224839 167 255 28
4.795895364 47.684219801 0.021634389 156 255 33
4.793788149 47.586964686 0.023462219 160 255 32
4.785424165 47.488394230 0.042609574 182 255 22
4.784981880 47.391492829 0.039831272 178 255 24
4.781038313 47.293857147 0.046745500 189 255 19
4.780139550 47.196860754 0.045232921 186 255 20
4.779426948 47.099903173 0.043206129 182 255 22
4.779055887 47.003016581 0.040235032 178 255 24
4.779373390 46.906272791 0.035359037 175 255 25
4.778913162 46.809366481 0.032636892 171 255 27
4.776494626 46.712053799 0.035336533 175 255 25
4.773608027 46.614645360 0.039332936 178 255 24
4.774078329 46.517931720 0.034038288 171 255 27
4.778932188 46.422120687 0.016610567 149 255 36
4.783579496 46.326262689 -0.000244469 131 255 44
4.785280743 46.229795276 -0.008943499 120 255 49
4.784645098 46.132846715 -0.011172665 116 255 51
4.778034449 46.034675209 0.003138988 135 255 43
4.773266360 45.936884347 0.012351369 146 255 38
4.771238896 45.839655104 0.013978396 149 255 36
4.766999021 45.741976464 0.021730929 156 255 33
4.760873526 45.643917338 0.034704437 171 255 27
4.757034653 45.546325689 0.041349296 182 255 22
4.757340644 45.449574891 0.036521351 175 255 25
4.758543301 45.353004196 0.029212263 167 255 28
4.756902369 45.255858634 0.029776018 167 255 28
4.752069478 45.158071376 0.039177116 178 255 24
4.746446232 45.060128349 0.050767348 193 255 17
4.743819359 44.962789427 0.054063919 197 255 16
4.746237370 44.866460970 0.043395764 182 255 22
4.750025950 44.770403568 0.028934409 167 255 28
4.750987789 44.673779200 0.022299420 156 255 33
4.748324031 44.576432215 0.025702439 160 255 32
4.743406715 44.478639144 0.035345294 175 255 25
4.739791758 44.381107123 0.041383911 182 255 22
4.739001687 44.284135745 0.039603264 178 255 24
4.738465497 44.187214327 0.037120857 175 255 25
4.738061719 44.090318651 0.034272952 171 255 27
4.738969333 43.993680360 0.027795606 164 255 30
4.740532988 43.897169356 0.019503077 153 255 35
4.740640682 43.800371266 0.015242358 149 255 36
4.739716746 43.703370700 0.013838757 146 255 38
4.739101653 43.606430337 0.011581213 146 255 38
4.737901155 43.509375717 0.010945457 146 255 38
4.734181766 43.411831809 0.017284422 153 255 35
4.728039761 43.313820173 0.030331670 167 255 28
4.722345039 43.215899052 0.042141827 182 255 22
4.718149026 43.118271033 0.049803926 193 255 17
4.715183992 43.020882783 0.054059134 197 255 16
4.713267694 42.923697827 0.055411965 197 255 16
4.713427756 42.826912287 0.051017273 193 255 17
4.717408948 42.730858145 0.036044363 175 255 25
4.723444274 42.635193073 0.015385251 149 255 36
4.725882102 42.538835969 0.004687263 135 255 43
4.722700986 42.441405892 0.009547266 142 255 40
4.716425047 42.343389143 0.022977002 160 255 32
4.711662569 42.245663584 0.032217668 171 255 27
4.709085773 42.148354760 0.035408010 175 255 25
4.706046072 42.050959683 0.039881146 178 255 24
4.701039753 41.953195314 0.049800482 193 255 17
4.696529493 41.855527379 0.058347557 200 255 14
4.696588651 41.758720345 0.054244181 197 255 16
4.700698776 41.662671798 0.038925638 178 255 24
4.704414551 41.566545595 0.024699923 160 255 32
4.703842937 41.469615479 0.022346121 156 255 33
4.700676090 41.372201593 0.027179135 164 255 30
4.699460927 41.275152201 0.026609415 164 255 30
4.700919617 41.178599045 0.018637302 153 255 35
4.703256853 41.082206675 0.008233645 142 255 40
4.703614905 40.985446098 0.003311103 135 255 43
4.701283298 40.888188590 0.005836988 138 255 41
4.699148002 40.790968233 0.007820438 138 255 41
4.701121065 40.694503093 -0.001570691 127 255 46
4.706758381 40.598707087 -0.021106870 106 255 56
4.708041316 40.502109839 -0.028585099 95 255 60
4.702767948 40.404314573 -0.017908163 109 255 54
4.696547634 40.306350166 -0.004607947 124 255 48
4.694172616 40.209088449 -0.001954060 127 255 46
4.692588532 40.111971205 -0.001489139 127 255 46
4.688322796 40.014369219 0.006402427 138 255 41
4.691576274 39.918127350 -0.006525733 124 255 48
4.685532633 39.820207183 0.006291193 138 255 41
4.677690975 39.721967625 0.024088164 160 255 32
4.667215383 39.623260771 0.049179963 189 255 19
4.659465709 39.525049175 0.066724830 211 255 9
4.659176350 39.428175466 0.063612643 207 255 11
4.662222317 39.331895775 0.051265644 193 255 17
4.664598385 39.235493843 0.040774667 182 255 22
4.667054778 39.139103601 0.030062259 167 255 28
4.671504623 39.043063790 0.013830683 146 255 38
4.674420885 38.946748797 0.001846796 131 255 44
4.671978660 38.849485872 0.004702513 135 255 43
4.665039126 38.751432697 0.020013282 156 255 33
4.657444560 38.653269065 0.037139234 175 255 25
4.652559504 38.555585192 0.046763232 189 255 19
4.650965687 38.458479668 0.047274218 189 255 19
4.650772336 38.361618900 0.043908080 186 255 20
4.649961931 38.264650129 0.042251801 182 255 22
4.648329488 38.167538461 0.042873064 182 255 22
4.646935635 38.070468634 0.042834717 182 255 22
4.645611168 37.973411118 0.042605326 182 255 22
4.641655532 37.875899926 0.049663586 189 255 19
4.636388913 37.778165332 0.060353571 204 255 12
4.632721730 37.680708730 0.066615380 211 255 9
4.629787580 37.583379805 0.070848330 218 255 6
4.626444762 37.485982491 0.076214183 222 255 4
4.622729313 37.388523406 0.082613159 232 255 0
4.620395553 37.291301614 0.085186854 232 255 0
4.622059893 37.194759917 0.076689290 226 255 3
4.626554588 37.098695838 0.060354286 204 255 12
4.630994737 37.002618347 0.044171289 186 255 20
4.631997687 36.905956855 0.037508409 175 255 25
4.627789163 36.808416663 0.045279593 186 255 20
4.622818734 36.710750987 0.055162048 197 255 16
4.619553830 36.613374125 0.060322262 204 255 12
4.616833024 36.516089963 0.063976751 207 255 11
4.613197997 36.418654649 0.070164345 215 255 8
4.609833051 36.321266305 0.075605109 222 255 4
4.607748473 36.224092352 0.077500990 226 255 3
4.605180634 36.126839194 0.080736424 229 255 1
4.600213869 36.029190805 0.090617017 233 253 0
4.594347047 35.931397064 0.102991611 235 249 0
4.588492411 35.833609062 0.115333685 237 245 0
4.582069786 35.735731572 0.129250107 239 241 0
4.583411968 35.639129560 0.121662096 238 243 0
4.580345446 35.541805625 0.126285680 238 242 0
4.583044983 35.445422940 0.114940382 237 246 0
4.589531016 35.349653049 0.093108711 233 252 0
4.585724833 35.252208062 0.099784185 234 250 0
4.585086263 35.155277803 0.097687485 234 250 0
4.588142410 35.058943733 0.085358547 232 255 0
4.582590977 34.961220309 0.096871288 234 251 0
4.578963957 34.863809572 0.103055119 235 249 0
4.576288104 34.766553315 0.106605617 236 247 0
4.574946220 34.669511658 0.106462468 236 247 0
4.574688325 34.572643195 0.103318010 235 249 0
4.574266922 34.475748156 0.100627516 235 249 0
4.572778428 34.378683277 0.100893751 235 249 0
4.569747089 34.281374437 0.105434515 235 248 0
4.565722567 34.183910247 0.112727394 237 246 0
4.563706395 34.086764917 0.114458616 237 246 0
4.564399409 33.990046333 0.108686874 236 247 0
4.563980457 33.893152060 0.105996200 235 248 0
4.560316843 33.795749688 0.112293993 236 246 0
4.555795396 33.698215474 0.120969077 238 244 0
4.554866052 33.601243245 0.119695507 238 244 0
4.556790306 33.504714180 0.110518743 236 246 0
4.557258559 33.407957309 0.105376051 235 248 0
4.556021531 33.310935774 0.104957991 235 248 0
4.554725490 33.213905334 0.104704499 235 248 0
4.554300980 33.117009161 0.102037984 235 249 0
4.554439213 33.020198884 0.097813750 234 250 0
4.553500274 32.923222920 0.096574376 234 251 0
4.550893665 32.825992370 0.099955606 234 250 0
4.546723600 32.728525017 0.107668826 236 247 0
4.542263514 32.631016053 0.116186615 237 245 0
4.537892242 32.533523202 0.124459577 238 242 0
4.532672912 32.435904792 0.135082928 240 239 0
4.528560189 32.338456415 0.142642083 241 236 0
4.529814299 32.241817295 0.135335662 240 239 0
4.537252847 32.146103882 0.110898579 236 246 0
4.544258452 32.050319266 0.087661677 233 254 0
4.539916423 31.952835522 0.095860406 234 251 0
4.534203869 31.855150394 0.107856919 236 247 0
4.621759891 28.671167525 -0.260454922 0 229 255
4.585340534 28.472450695 -0.167134067 0 245 162
4.575908316 28.374297371 -0.144790700 0 248 141
4.571944346 28.276886858 -0.137596773 0 250 132
4.569957576 28.179744113 -0.135879878 0 250 132
4.558421284 27.984451203 -0.111488406 0 254 108
4.547129440 27.886074872 -0.083986110 29 255 89
4.536089211 27.787739827 -0.057179586 62 255 75
4.529264351 27.689970434 -0.042051477 80 255 67
4.525689170 27.592634403 -0.035926240 87 255 64
4.522104400 27.495299090 -0.029773260 95 255 60
4.518011354 27.397899070 -0.022210773 102 255 57
4.514242631 27.300543858 -0.015545733 113 255 52
4.510161579 27.203150030 -0.008014105 120 255 49
4.502982709 27.105355642 0.008102288 142 255 40
4.500666167 27.008196563 0.010747127 142 255 40
4.490750376 26.910055899 0.034449667 171 255 27
4.485907874 26.812576113 0.044096042 186 255 20
4.482722057 26.715312223 0.049153118 189 255 19
4.480120574 26.618124900 0.052592215 193 255 17
4.479868009 26.521238936 0.049523777 189 255 19
4.478390521 26.424196367 0.049850614 193 255 17
4.472113658 26.326544619 0.063477428 207 255 11
4.464216609 26.228691763 0.081594979 229 255 1
4.456679717 26.130889660 0.098715833 234 250 0
4.450451506 26.033257278 0.112211619 236 246 0
4.446881500 25.935962446 0.118342739 238 244 0
4.446305035 25.839044062 0.116179857 237 245 0
4.448284636 25.742444132 0.106935110 236 247 0
4.451740151 25.646025427 0.093601551 233 252 0
4.453765947 25.549426113 0.084230820 232 255 0
4.452082289 25.452366141 0.085140307 232 255 0
4.446410081 25.354815389 0.097103561 234 251 0
4.437402519 25.256858648 0.118310670 238 244 0
4.426770856 25.158709230 0.144019686 241 236 0
4.419113693 25.060930175 0.161487332 244 231 0
4.420150196 24.964213805 0.154864827 243 233 0
4.426648435 24.868158211 0.133108014 239 240 0
4.432894533 24.772066407 0.112050828 236 246 0
4.435721565 24.675557062 0.100469427 235 249 0
4.433549077 24.578444258 0.102743716 235 249 0
4.428689120 24.481010573 0.112466700 237 246 0
4.423476588 24.383537768 0.123167965 238 243 0
4.418539607 24.286100977 0.133106830 239 240 0
4.414815561 24.188811047 0.139685552 241 237 0
4.412824860 24.091728101 0.141461884 241 237 0
4.411540009 23.994729085 0.141283239 241 237 0
4.409986048 23.897698690 0.141851489 241 237 0
4.407675068 23.800580112 0.144518797 241 236 0
4.403813834 23.703281670 0.151483508 242 234 0
4.399624786 23.605947302 0.159357887 243 232 0
4.400797331 23.509236841 0.152374590 242 234 0
4.406636440 23.413063836 0.132459567 239 240 0
4.409817836 23.316579584 0.119911005 238 244 0
4.408243083 23.219546318 0.120544600 238 244 0
4.406265312 23.122467402 0.122296246 238 243 0
4.406446857 23.025635394 0.118064648 237 245 0
4.406439139 22.928780985 0.114358652 237 246 0
4.403909192 22.831640231 0.117643969 237 245 0
4.403541944 22.734744711 0.114936592 237 246 0
4.405756110 22.638139031 0.105075972 235 248 0
4.407808548 22.541512770 0.095664599 234 251 0
4.409111312 22.444800442 0.088331974 233 254 0
4.408489742 22.347872146 0.086333721 233 254 0
4.405532931 22.250684510 0.090808758 233 253 0
4.402031194 22.153438137 0.096795241 234 251 0
4.400468263 22.056407279 0.097409387 234 251 0
4.400992589 21.959606010 0.092239666 233 252 0
4.403439202 21.863013884 0.081743223 229 255 1
4.403007163 21.766105295 0.079226269 226 255 3
4.393285172 21.668187041 0.102458572 235 249 0
4.384244270 21.570349200 0.123804495 238 243 0
4.372395776 21.472214661 0.152933386 242 234 0
4.365735863 21.374646149 0.167682720 245 229 0
4.363469549 21.277552558 0.170255712 245 228 0
4.364243832 21.180784445 0.164402274 244 230 0
4.366071942 21.084127045 0.155629007 243 233 0
4.367613738 20.987437148 0.147650348 242 235 0
4.367953952 20.890618454 0.143003181 241 236 0
4.366617862 20.793622405 0.143003360 241 236 0
4.365181322 20.696616090 0.143283077 241 236 0
4.366335441 20.599880650 0.136383213 240 238 0
4.369837422 20.503387847 0.122976646 238 243 0
4.371996269 20.406752373 0.113293948 237 246 0
4.370109883 20.309696699 0.114824877 237 246 0
4.366541851 20.212468675 0.121018156 238 244 0
4.364556484 20.115404865 0.122825730 238 243 0
4.363908005 20.018478352 0.120928787 238 244 0
4.361477388 19.921370247 0.123972782 238 243 0
4.355968113 19.823951176 0.135551577 240 239 0
4.348971151 19.726385333 0.151255308 242 234 0
4.344699372 19.629098236 0.159406365 243 232 0
4.346835005 19.532455776 0.149797818 242 234 0
4.352276665 19.436140971 0.131026217 239 240 0
4.354759972 19.339527029 0.120455934 238 244 0
4.353600968 19.242549590 0.119982992 238 244 0
4.353307038 19.145657647 0.117113202 237 245 0
4.356633475 19.049121057 0.104208902 235 248 0
4.361066467 18.952689512 0.088238221 233 254 0
4.362487973 18.855960083 0.080616375 229 255 1
4.358242971 18.758678281 0.088703276 233 253 0
4.353079304 18.661310069 0.099337946 234 250 0
4.349934424 18.564139636 0.104377653 235 248 0
4.347841335 18.467071827 0.106502894 236 247 0
4.345121822 18.369944959 0.110365772 236 246 0
4.340198770 18.272609547 0.120338220 238 244 0
4.334205264 18.175175604 0.133279298 240 239 0
4.330957292 18.078004869 0.138610668 240 238 0
4.332779036 17.981312874 0.129889270 239 241 0
4.336275340 17.884775640 0.116526776 237 245 0
4.334220630 17.787716919 0.118553578 238 244 0
4.327794056 17.690252678 0.132701093 239 240 0
4.322849143 17.592929738 0.142742419 241 236 0
4.324549936 17.496222400 0.134361716 240 239 0
4.331716078 17.400014682 0.110830913 236 246 0
4.337388458 17.303664168 0.091442049 233 253 0
4.338408500 17.206885056 0.084951529 232 255 0
4.334658110 17.109671984 0.091686927 233 252 0
4.328695952 17.012261382 0.104555132 235 248 0
4.324832531 16.915043217 0.111606282 236 246 0
4.324167263 16.818113470 0.109792384 236 246 0
4.323357240 16.721170571 0.108380894 236 247 0
4.319670946 16.623972315 0.114944465 237 246 0
4.314501023 16.526645045 0.125622345 238 242 0
4.310099599 16.429388572 0.134170895 240 239 0
4.305571194 16.332123584 0.143072686 241 236 0
4.300887220 16.234847737 0.152406978 242 234 0
4.301376819 16.138023863 0.147399295 242 235 0
4.306678932 16.041614811 0.129050428 239 241 0
4.310623207 15.945084094 0.114466995 237 246 0
4.311600230 15.848295396 0.108111054 236 247 0
4.310100414 15.751293950 0.108623074 236 247 0
4.306013150 15.654073211 0.116309823 237 245 0
4.300874203 15.556765952 0.126913532 238 242 0
4.297419423 15.459603564 0.132849123 239 240 0
4.296883522 15.362687521 0.130693291 239 240 0
4.297317340 15.265851971 0.125849993 238 242 0
4.296271430 15.168892527 0.125110354 238 242 0
4.293755196 15.071811665 0.128448366 239 241 0
4.299893802 14.975443577 0.107791482 236 247 0
4.296592563 14.878297484 0.113308160 237 246 0
4.293735018 14.781189296 0.117595830 237 245 0
4.292621411 14.684223918 0.117049420 237 245 0
4.292238326 14.587317573 0.114478667 237 246 0
4.290754663 14.490322374 0.114960499 237 246 0
4.287915894 14.393219243 0.119200677 238 244 0
4.285933804 14.296185662 0.121066739 238 244 0
4.286459560 14.199351349 0.115980512 237 245 0
4.287862891 14.102584999 0.108462119 236 247 0
4.287503166 14.005678601 0.105833186 235 248 0
4.284255801 13.908546454 0.111211929 236 246 0
4.279008830 13.811260807 0.122136196 238 243 0
4.274434271 13.714030354 0.131197266 239 240 0
4.270947193 13.616886223 0.137244232 240 238 0
4.269662933 13.519912462 0.137184483 240 238 0
4.271371827 13.423166680 0.128826504 239 241 0
4.276445671 13.326673587 0.111139260 236 246 0
4.285627227 13.230485267 0.082063077 229 255 1
4.295271954 13.134323862 0.051703441 193 255 17
4.291071870 13.037122009 0.059733947 204 255 12
4.293370041 12.940404640 0.049746999 193 255 17
4.282711463 12.842728591 0.075688303 222 255 4
4.274882673 12.745267684 0.093784339 233 252 0
4.272976981 12.648244570 0.095457598 234 251 0
4.275324920 12.551531164 0.085337100 232 255 0
4.278221549 12.454854843 0.073696151 222 255 4
4.279399493 12.358051998 0.066821991 211 255 9
4.278922099 12.261129130 0.064539037 207 255 11
4.276165981 12.164043812 0.068575978 215 255 8
4.271041853 12.066792344 0.079180490 226 255 3
4.260488985 11.969162131 0.104840019 235 248 0
4.248493831 11.871438324 0.134500374 240 239 0
4.246148159 11.774394378 0.137404040 240 238 0
4.062367507 -4.610256749 0.054476759 197 255 16
4.042315953 -8.294361400 -0.018834339 109 255 54
4.042559663 -8.391326707 -0.022883375 102 255 57
4.041592171 -8.488280227 -0.023569222 102 255 57
4.036695059 -8.585190892 -0.013345885 113 255 52
4.028795364 -8.682064655 0.005213459 138 255 41
4.022128827 -8.778947547 0.020350993 156 255 33
4.018530315 -8.875863129 0.026973262 164 255 30
4.016762010 -8.972799520 0.028516217 164 255 30
4.014796330 -9.069732806 0.030608203 167 255 28
4.013401648 -9.166672913 0.031116268 167 255 28
4.015408725 -9.263659004 0.022182329 156 255 33
4.019140257 -9.360671536 0.008462388 142 255 40
4.022458427 -9.457681776 -0.004109084 124 255 48
4.023367110 -9.554659799 -0.009990836 116 255 51
4.022790811 -9.651616827 -0.011749207 116 255 51
4.022784081 -9.748583036 -0.015087615 113 255 52
4.022541108 -9.845546267 -0.017769118 109 255 54
4.019768882 -9.942468901 -0.013428198 113 255 52
4.012603223 -10.039316949 0.003110321 135 255 43
4.012764845 -10.136285247 -0.000690967 131 255 44
4.007350296 -10.233157214 0.010988774 146 255 38
4.012764620 -10.330218805 -0.007392320 120 255 49
4.010974413 -10.427154170 -0.005771858 124 255 48
4.011964210 -10.524140626 -0.011867917 116 255 51
4.006208718 -10.621000646 0.000762971 131 255 44
4.002658413 -10.717899719 0.007273155 138 255 41
4.004204570 -10.814897461 -0.000364127 131 255 44
4.011410928 -10.912011082 -0.023714126 102 255 57
4.014637963 -11.009049410 -0.036015853 87 255 64
4.020002782 -11.106135663 -0.054251516 66 255 73
4.020829261 -11.203130262 -0.059886793 58 255 76
4.019447492 -11.300078452 -0.059390385 58 255 76
4.018168320 -11.397028629 -0.059177692 58 255 76
4.017250985 -11.493986724 -0.059968433 58 255 76
4.017137413 -11.590963235 -0.062989534 55 255 78
4.016528799 -11.687928962 -0.064635168 51 255 80
4.009899134 -11.784753044 -0.049563425 69 255 72
4.004620680 -11.881605201 -0.038241813 84 255 65
3.996847273 -11.978393351 -0.019992153 106 255 56
3.993261527 -12.075279880 -0.013367594 113 255 52
3.990715066 -12.172190542 -0.009627284 120 255 49
3.989647654 -12.269137746 -0.009992212 116 255 51
3.991763349 -12.366167298 -0.019193563 106 255 56
3.996154328 -12.463259018 -0.034710986 87 255 64
3.999754818 -12.560333831 -0.048032717 73 255 70
3.998556782 -12.657282480 -0.048030706 73 255 70
3.994189140 -12.754144099 -0.039227353 84 255 65
3.993913053 -12.851116896 -0.041782815 80 255 67
3.999210127 -12.948247337 -0.059810885 58 255 76
4.006444446 -13.045437972 -0.083216737 29 255 89
4.012319488 -13.142595594 -0.102847676 4 255 100
4.008944735 -13.239487174 -0.096795561 11 255 97
4.010522804 -13.336524141 -0.104493885 4 255 100
4.006532512 -13.433395486 -0.096730420 11 255 97
4.006059457 -13.530371782 -0.098731543 11 255 97
4.002495733 -13.627253094 -0.092150135 18 255 94
4.003528545 -13.724276115 -0.098330175 11 255 97
4.003042938 -13.821252679 -0.100293135 7 255 99
3.998003345 -13.918083832 -0.089610389 22 255 92
3.991025511 -14.014849096 -0.073544673 40 255 84
3.985243499 -14.111649001 -0.060798040 55 255 78
3.981922320 -14.208526887 -0.054883019 62 255 75
3.982633590 -14.305538326 -0.060163551 58 255 76
3.987621734 -14.402696258 -0.077318486 36 255 86
3.994099706 -14.499909944 -0.098609249 11 255 97
3.998670094 -14.597063183 -0.114602322 0 253 111
3.999268346 -14.694081328 -0.119564966 0 253 114
3.996253740 -14.790972552 -0.114494631 0 253 111
3.991460689 -14.887798476 -0.104484859 4 255 100
3.987617672 -14.984655941 -0.097111880 11 255 97
3.987722973 -15.081655861 -0.100701264 7 255 99
3.989337609 -15.178712511 -0.108480653 0 254 105
3.986278674 -15.275596422 -0.103281472 4 255 100
3.979723820 -15.372346701 -0.088373640 22 255 92
3.973576966 -15.469108306 -0.074597491 40 255 84
3.969493293 -15.565945510 -0.066549199 51 255 80
3.967604926 -15.662865832 -0.064595737 51 255 80
3.967272637 -15.759846669 -0.066962149 47 255 81
3.967300408 -15.856842333 -0.070327309 44 255 83
3.967254423 -15.953835851 -0.073486573 40 255 84
3.968538087 -16.050883929 -0.080337055 33 255 88
3.971580666 -16.148005632 -0.092070839 18 255 94
3.971872790 -16.245017050 -0.096165816 15 255 96
3.965936111 -16.341770252 -0.082962704 29 255 89
3.957776441 -16.438426317 -0.063585213 55 255 78
3.951845655 -16.535171379 -0.050395952 69 255 72
3.950740895 -16.632119082 -0.050607223 69 255 72
3.953702200 -16.729242191 -0.062108818 55 255 78
3.955767742 -16.826329363 -0.071121869 44 255 83
3.954181509 -16.923258522 -0.069992840 44 255 83
3.951446832 -17.020136370 -0.065673416 51 255 80
3.951390575 -17.117132605 -0.068790937 47 255 81
3.954726848 -17.214282497 -0.081328630 33 255 88
3.959539043 -17.311502831 -0.097964076 11 255 97
3.963894101 -17.408706695 -0.113329061 0 254 108
3.966798740 -17.505847649 -0.124665118 0 252 120
3.967083715 -17.602869524 -0.128725064 0 251 123
3.963553914 -17.699713142 -0.122189815 0 252 117
3.957159537 -17.796419126 -0.107698053 0 255 102
3.950613454 -17.893113744 -0.092783728 18 255 94
3.946078150 -17.989900935 -0.083452414 29 255 89
3.943170563 -18.086764423 -0.078640360 33 255 88
3.939882600 -18.183607865 -0.072770768 40 255 84
3.935304908 -18.280385993 -0.063318156 55 255 78
3.930784863 -18.377164261 -0.054024440 66 255 73
3.930570610 -18.474155414 -0.056687715 62 255 75
3.934367365 -18.571349541 -0.070489469 44 255 83
3.937716233 -18.668524608 -0.083046344 29 255 89
3.937241471 -18.765507207 -0.084982952 25 255 91
3.932258194 -18.862257592 -0.074397011 40 255 84
3.925944262 -18.958935768 -0.060114223 58 255 76
3.923616176 -19.055818617 -0.056900136 62 255 75
3.928331706 -19.153072035 -0.073247351 40 255 84
3.934103202 -19.250385976 -0.092526386 18 255 94
3.936907016 -19.347546310 -0.103562186 4 255 100
3.935674112 -19.444491994 -0.103385517 4 255 100
3.929765608 -19.541183692 -0.090221799 22 255 92
3.921094978 -19.637720634 -0.069385319 47 255 81
3.915010573 -19.734394095 -0.055730530 62 255 75
3.912535975 -19.831263803 -0.052100460 66 255 73
3.919035857 -19.928633394 -0.073395299 40 255 84
3.917959200 -20.025582907 -0.073645762 40 255 84
3.917967427 -20.122593780 -0.076908344 36 255 86
3.919621593 -20.219699231 -0.084741401 25 255 91
3.915015301 -20.316447643 -0.075185055 40 255 84
3.917926060 -20.413627376 -0.086506144 25 255 91
3.919205072 -20.510715287 -0.093294024 18 255 94
3.916706857 -20.607583957 -0.089589488 22 255 92
3.911484327 -20.704291048 -0.078316896 36 255 86
3.916326270 -20.801591547 -0.094997743 15 255 96
3.913559336 -20.898442578 -0.090543437 18 255 94
3.915018794 -20.995546064 -0.097827138 11 255 97
3.918583622 -21.092778697 -0.110957668 0 254 105
3.916394918 -21.189664951 -0.108106130 0 255 102
3.917335805 -21.286741849 -0.113946287 0 254 108
3.914568250 -21.383591879 -0.109484671 0 254 105
3.918904064 -21.480880764 -0.124752590 0 252 120
3.912744120 -21.577519330 -0.110865837 0 254 105
3.904743688 -21.674038491 -0.091865547 18 255 94
3.896483990 -21.770535934 -0.072143801 44 255 83
3.888777879 -21.867062981 -0.053958453 66 255 73
3.883462146 -21.963737622 -0.042411616 80 255 67
3.881883001 -22.060649135 -0.041242799 80 255 67
3.882752400 -22.157718544 -0.046874292 73 255 70
3.885087006 -22.254884714 -0.056574721 62 255 75
3.888550190 -22.352127309 -0.069409062 47 255 81
3.891069705 -22.449311255 -0.079621108 33 255 88
3.890637458 -22.546302542 -0.081632732 29 255 89
3.886420762 -22.643042329 -0.073130769 40 255 84
3.878317495 -22.739519417 -0.053831388 66 255 73
3.870512740 -22.836011178 -0.035359927 87 255 64
3.866669694 -22.932766064 -0.027892225 95 255 60
3.867620495 -23.029845321 -0.033740009 91 255 62
3.871040141 -23.127095215 -0.046444893 73 255 70
3.872443720 -23.224209658 -0.053548369 66 255 73
3.871218790 -23.321143905 -0.053349046 66 255 73
3.869283199 -23.418028506 -0.051174447 69 255 72
3.868190772 -23.514971466 -0.051340969 69 255 72
3.867197143 -23.611921338 -0.051780839 66 255 73
3.863579948 -23.708685482 -0.044931434 76 255 68
3.858122605 -23.805316647 -0.032968966 91 255 62
3.855737879 -23.902164325 -0.029540962 95 255 60
3.856328038 -23.999225026 -0.034376051 87 255 64
3.856035086 -24.096223090 -0.036756781 87 255 64
3.855422009 -24.193198443 -0.038247104 84 255 65
3.855633746 -24.290234420 -0.042027696 80 255 67
3.856181210 -24.387296027 -0.046739884 73 255 70
3.855057579 -24.484235395 -0.046808587 73 255 70
3.851994133 -24.581030642 -0.041487213 80 255 67
3.848963977 -24.677826815 -0.036257160 87 255 64
3.846775002 -24.774684567 -0.033362836 91 255 62
3.845374601 -24.871600902 -0.032658129 91 255 62
3.845311392 -24.968618311 -0.035667205 87 255 64
3.846705429 -25.065747482 -0.042723648 80 255 67
3.847126706 -25.162804039 -0.047076558 73 255 70
3.845398483 -25.259696310 -0.045456710 76 255 68
3.844463684 -25.356649407 -0.046040020 73 255 70
3.845594916 -25.453763151 -0.052362076 66 255 73
3.845104652 -25.550751915 -0.054178216 66 255 73
3.838359479 -25.647250168 -0.038615685 84 255 65
3.828784430 -25.743520838 -0.015189809 113 255 52
3.822293053 -25.840029343 -0.000329828 131 255 44
3.821046727 -25.936951370 -0.000040763 131 255 44
3.823427516 -26.034163490 -0.009827740 120 255 49
3.825121001 -26.131322971 -0.017704162 109 255 54
3.823454657 -26.228213100 -0.016244905 109 255 54
3.819616601 -26.324926451 -0.008750803 120 255 49
3.817666518 -26.421791634 -0.006500941 124 255 48
3.821931232 -26.519165386 -0.021516835 106 255 56
3.830334775 -26.616883959 -0.048030937 73 255 70
3.836900616 -26.714457783 -0.069438354 47 255 81
3.837854324 -26.811571092 -0.075252166 40 255 84
3.834137499 -26.908296023 -0.068088299 47 255 81
3.829862733 -27.004972102 -0.059373055 58 255 76
3.825306798 -27.101622002 -0.049875411 69 255 72
3.818026580 -27.198038628 -0.032807293 91 255 62
3.815857792 -27.294885025 -0.029939796 95 255 60
3.811667935 -27.391557944 -0.021455677 106 255 56
3.815309610 -27.488900291 -0.034730161 87 255 64
3.816097843 -27.586000345 -0.040075375 80 255 67
3.819833014 -27.683356877 -0.053607637 66 255 73
3.818529745 -27.780279032 -0.053139485 66 255 73
3.815480762 -27.877048536 -0.047819687 73 255 70
3.814597624 -27.974006459 -0.048516639 73 255 70
3.816745541 -28.071231516 -0.057634471 62 255 75
3.819840736 -28.168542834 -0.069383370 47 255 81
3.788957322 -28.262837912 0.013281419 146 255 38
3.772169282 -28.358368014 0.056782635 200 255 14
3.580295311 -48.523825623 -0.040510163 80 255 67
3.588096902 -48.622264415 -0.065128432 51 255 80
3.588894315 -48.719519081 -0.070264379 44 255 83
3.585883433 -48.816126163 -0.064806813 51 255 80
3.581248382 -48.912454315 -0.054830585 62 255 75
3.578157080 -49.009043968 -0.049147022 69 255 72
3.578004116 -49.106136179 -0.051635178 69 255 72
3.578174878 -49.203284740 -0.055022698 62 255 75
3.576645728 -49.300141266 -0.053680877 66 255 73
3.575156210 -49.397004261 -0.052448184 66 255 73
3.575643050 -49.494209041 -0.056711649 62 255 75
3.576896512 -49.591548005 -0.063106441 55 255 78
3.577062667 -49.688699671 -0.066475816 51 255 80
3.575615441 -49.785571104 -0.065356421 51 255 80
3.574106984 -49.882431528 -0.064065609 51 255 80
3.574907583 -49.979695766 -0.069196510 47 255 81
3.576691427 -50.077133904 -0.077061352 36 255 86
3.576400164 -50.174209396 -0.079153049 33 255 88
3.572018246 -50.270564714 -0.069865030 44 255 83
3.560826281 -50.365714947 -0.041632788 80 255 67
3.547009667 -50.460392892 -0.006098339 124 255 48
3.540392471 -50.556337805 0.009411219 142 255 40
3.540330656 -50.653443538 0.006687099 138 255 41
3.544952919 -50.751384348 -0.009065581 120 255 49
3.551250852 -50.849628636 -0.029478529 95 255 60
3.555819540 -50.947569230 -0.045080315 76 255 68
3.557688894 -51.045030221 -0.053172358 66 255 73
3.557999018 -51.142213321 -0.056926012 62 255 75
3.558743732 -51.239475706 -0.061887536 55 255 78
3.560164880 -51.336861514 -0.068729690 47 255 81
3.561273525 -51.434192712 -0.074701507 40 255 84
3.560425737 -51.531171056 -0.075229902 40 255 84
3.558034418 -51.627869264 -0.071463408 44 255 83
3.558896700 -51.725158491 -0.076746708 36 255 86
3.560171060 -51.822524329 -0.083175300 29 255 89
3.556861407 -51.919054257 -0.076850854 36 255 86
3.549246257 -52.014793982 -0.058547977 58 255 76
3.540676319 -52.110353425 -0.037587741 84 255 65
3.538713817 -52.207122156 -0.035007329 87 255 64
3.542317162 -52.304915865 -0.047909414 73 255 70
3.546660345 -52.402849774 -0.062868696 55 255 78
3.548468731 -52.500318757 -0.070775414 44 255 83
3.547235444 -52.597225890 -0.070219378 44 255 83
3.545335606 -52.694009012 -0.067807936 47 255 81
3.544728523 -52.791032192 -0.068991775 47 255 81
3.546484000 -52.888496544 -0.076747120 36 255 86
3.549024215 -52.986109778 -0.086684583 25 255 91
3.548427589 -53.083138036 -0.087894349 22 255 92
3.544978990 -53.179631177 -0.081168803 33 255 88
3.540069410 -53.275847597 -0.070377607 44 255 83
3.536508330 -53.372315255 -0.063336806 55 255 78
3.534367878 -53.469049333 -0.060247114 58 255 76
3.529347501 -53.565237417 -0.049144150 69 255 72
3.528644599 -53.662241354 -0.050051565 69 255 72
3.539981088 -53.761533774 -0.084452630 29 255 89
3.546068887 -53.859836133 -0.104250508 4 255 100
3.543796893 -53.956548666 -0.100789524 7 255 99
3.536243597 -54.052250370 -0.082634118 29 255 89
3.530550333 -54.148303440 -0.069652338 44 255 83
3.531523434 -54.245632785 -0.075216250 40 255 84
3.535962292 -54.343630397 -0.090421464 22 255 92
3.538187171 -54.441205466 -0.099466032 7 255 99
3.535820780 -54.537896273 -0.095735757 15 255 96
3.533828131 -54.634658385 -0.093044189 18 255 94
3.535731046 -54.732175167 -0.101189852 7 255 99
3.538813662 -54.829923431 -0.112616717 0 254 108
3.540578901 -54.927418395 -0.120377323 0 252 117
3.540703839 -55.024595545 -0.123573160 0 252 120
3.539325253 -55.121479716 -0.122584714 0 252 117
3.535863862 -55.217955725 -0.115800193 0 253 111
3.528674353 -55.313698310 -0.098641750 11 255 97
3.528692246 -55.410853213 -0.101535357 7 255 99
3.526696978 -55.507612342 -0.098826620 11 255 97
3.527369555 -55.604897318 -0.103539638 4 255 100
3.534943937 -55.703548568 -0.127454920 0 251 123
3.540733181 -55.801852723 -0.146402421 0 248 141
3.539634480 -55.898794614 -0.146184088 0 248 141
3.531736386 -55.994383893 -0.127046038 0 251 123
3.530381165 -56.091271941 -0.126111692 0 252 120
3.523216771 -56.186999680 -0.109012655 0 254 105
3.518770249 -56.283266488 -0.099474686 7 255 99
3.515759131 -56.379818417 -0.093929477 15 255 96
3.514474359 -56.476715561 -0.093186632 18 255 94
3.514595126 -56.573895358 -0.096353572 15 255 96
3.513370885 -56.670804864 -0.095776983 15 255 96
3.509467544 -56.767173027 -0.087744693 22 255 92
3.505993620 -56.863625891 -0.080906098 33 255 88
3.504662818 -56.960511452 -0.080029659 33 255 88
3.505734119 -57.057884805 -0.085836083 25 255 91
3.510130271 -57.155936550 -0.100893068 7 255 99
3.516895478 -57.254475614 -0.122541177 0 252 117
3.522536370 -57.352790972 -0.141059900 0 249 135
3.523606282 -57.450175772 -0.146858516 0 248 141
3.520787894 -57.546764741 -0.141836475 0 249 138
3.518974730 -57.643558884 -0.139610459 0 249 135
3.519758272 -57.740886989 -0.144609028 0 248 141
3.518263570 -57.837746615 -0.143267002 0 249 138
3.512352957 -57.933693416 -0.129635884 0 251 126
3.506384393 -58.029624462 -0.115842290 0 253 111
3.506419844 -58.126796955 -0.118754793 0 253 114
3.511043370 -58.224923623 -0.134433494 0 250 129
3.515394712 -58.322997992 -0.149353845 0 248 144
3.517340497 -58.420574810 -0.157579239 0 246 153
3.515730431 -58.517410947 -0.155908604 0 247 150
3.511237296 -58.613643126 -0.146213991 0 248 141
3.504581232 -58.709419037 -0.130499271 0 251 126
3.497146103 -58.805026931 -0.112615345 0 254 108
3.491307726 -58.900965985 -0.099173601 11 255 97
3.488150699 -58.997466758 -0.093192329 18 255 94
3.489175043 -59.094849241 -0.098845933 11 255 97
3.496002535 -59.193461508 -0.120647708 0 252 117
3.505566179 -59.292659981 -0.150062906 0 248 144
3.511113280 -59.391013452 -0.168299813 0 244 165
3.509902241 -59.487933864 -0.167728751 0 245 162
3.506024815 -59.584285703 -0.159736341 0 246 156
3.502571097 -59.680725840 -0.152921909 0 247 147
3.499973951 -59.777347381 -0.148490096 0 248 144
3.496884417 -59.873862175 -0.142686879 0 249 138
3.492426075 -59.970081463 -0.133073209 0 250 129
3.486642766 -60.066013092 -0.119771042 0 253 114
3.480647834 -60.161895453 -0.105878727 0 255 102
3.475102135 -60.257870970 -0.093235406 18 255 94
3.471262013 -60.354211871 -0.085337490 25 255 91
3.470477563 -60.451212634 -0.085942373 25 255 91
3.473161416 -60.548966351 -0.096198538 15 255 96
3.477422627 -60.647065893 -0.110843556 0 254 105
3.478805703 -60.744542624 -0.117477648 0 253 114
3.475463930 -60.840990267 -0.110961183 0 254 105
3.470607314 -60.937105009 -0.100227654 7 255 99
3.467608638 -61.033623632 -0.094663748 15 255 96
3.467110354 -61.130689210 -0.096057548 15 255 96
3.468424827 -61.228153533 -0.102495386 4 255 100
3.469753027 -61.325622687 -0.108970407 0 254 105
3.467223689 -61.422243030 -0.104708342 4 255 100
3.459836463 -61.517789128 -0.086924915 25 255 91
3.455242412 -61.613948404 -0.076914106 36 255 86
3.455614036 -61.711205661 -0.080722481 33 255 88
3.457190703 -61.808731583 -0.087883674 22 255 92
3.457773022 -61.906038334 -0.092276383 18 255 94
3.457591784 -62.003176189 -0.094542903 15 255 96
3.458261556 -62.100504654 -0.099176925 11 255 97
3.459421773 -62.197944091 -0.105174934 4 255 100
3.459659921 -62.295178690 -0.108605566 0 254 105
3.458423999 -62.392083536 -0.107932415 0 255 102
3.456129929 -62.488750400 -0.104313051 4 255 100
3.454930883 -62.585662821 -0.103740347 4 255 100
3.458174220 -62.683576975 -0.115531087 0 253 111
3.465927707 -62.782513312 -0.139874066 0 249 135
3.473027108 -62.881308406 -0.162395652 0 245 159
3.473966513 -62.978713416 -0.167770950 0 245 162
3.466215453 -63.074146629 -0.148956501 0 248 144
3.454141536 -63.168591414 -0.118108656 0 253 114
3.448132717 -63.264409540 -0.104140968 4 255 100
3.451583264 -63.362382675 -0.116501292 0 253 111
3.456735059 -63.460748185 -0.133595933 0 250 129
3.460241137 -63.558741603 -0.146108920 0 248 141
3.458346019 -63.655499588 -0.143587031 0 249 138
3.451088521 -63.751024809 -0.126138094 0 252 120
3.446448754 -63.847147703 -0.115974287 0 253 111
3.445806480 -63.944189382 -0.116936250 0 253 111
3.446291639 -64.041491710 -0.121035347 0 252 117
3.446153935 -64.138651131 -0.123399661 0 252 120
3.445252328 -64.235634247 -0.123636579 0 252 120
3.443067981 -64.332319760 -0.120301867 0 252 117
3.430455478 -64.426580188 -0.087938785 22 255 92
3.381080300 -64.512271436 0.046756812 189 255 19
3.284724461 -64.684101516 0.309489746 255 139 0
3.253025243 -64.773818161 0.394989584 255 71 36
3.241852656 -64.868322447 0.423353095 255 51 73
3.245215378 -64.966231486 0.411257078 255 59 58
3.247988582 -65.064005277 0.400803029 255 67 44
3.248787298 -65.161316908 0.395846246 255 69 40
3.242179813 -65.256882557 0.411506888 255 59 58
3.228652010 -65.350808478 0.446432704 255 35 102
3.217137541 -65.445201325 0.475755424 255 18 135
3.216352943 -65.542130058 0.475210691 255 18 135
3.222084751 -65.640606483 0.456527186 255 29 113
3.226057628 -65.738669735 0.442740976 255 39 95
3.225276026 -65.835604085 0.442190969 255 39 95
3.223697508 -65.932348449 0.443860458 255 37 98
3.228562299 -66.030632479 0.427594334 255 49 76
3.237329374 -66.129855289 0.400466017 255 67 44
3.241919367 -66.228084017 0.384966671 255 76 25
3.242224244 -66.325287879 0.381397209 255 78 22
3.237117737 -66.421190975 0.392893127 255 71 36
3.228487688 -66.516241919 0.414199201 255 57 62
3.228043117 -66.613262452 0.412719405 255 59 58
3.229114081 -66.710649770 0.407021625 255 63 51
3.225085752 -66.806804122 0.415520672 255 57 62
3.218488366 -66.902333174 0.431172844 255 47 80
3.211600319 -66.997787328 0.447635414 255 35 102
3.210584831 -67.094665550 0.447750501 255 35 102
3.212434913 -67.192241977 0.439889120 255 41 91
3.219431503 -67.291076561 0.417701154 255 55 66
3.229530254 -67.390675575 0.386877781 255 75 29
3.231523542 -67.488298878 0.378620543 255 80 18
3.225130729 -67.583868277 0.393711056 255 71 36
3.219851966 -67.679707120 0.405701275 255 63 51
3.221139025 -67.777157653 0.399413380 255 67 44
3.226211369 -67.875542482 0.382588188 255 78 22
3.230990586 -67.973859688 0.366579984 255 88 3
3.230428845 -68.070861489 0.365442185 255 90 0
3.223970558 -68.166404188 0.380721792 255 80 18
3.218401416 -68.262163107 0.393527169 255 71 36
3.201989484 -68.355226447 0.436521012 255 43 87
3.209159608 -68.454142007 0.413861530 255 57 62
3.206632161 -68.550648672 0.418202041 255 55 66
3.197138790 -68.645416597 0.441937681 255 39 95
3.196633428 -68.742423416 0.440650747 255 39 95
3.198325133 -68.839980362 0.433247904 255 45 84
3.199504398 -68.937410985 0.427272782 255 49 76
3.196990565 -69.033916399 0.431580921 255 45 84
3.192264357 -69.129864538 0.442049850 255 39 95
3.190461400 -69.226545758 0.444381021 255 37 98
3.192080523 -69.324089219 0.437185469 255 43 87
3.193299552 -69.421533682 0.431104874 255 47 80
3.192522620 -69.518475067 0.430582537 255 47 80
3.192136510 -69.615515634 0.428973120 255 47 80
3.191000113 -69.712366353 0.429453759 255 47 80
3.186931806 -69.808472069 0.438098746 255 41 91
3.183541456 -69.904747941 0.444857251 255 37 98
3.183163260 -70.001789605 0.443230122 255 39 95
3.185856148 -70.099615590 0.433053159 255 45 84
3.186503919 -70.196921679 0.428571463 255 47 80
3.186549627 -70.294074924 0.425767153 255 49 76
3.188756737 -70.391783144 0.416945758 255 55 66
3.192897901 -70.489990463 0.402740219 255 65 47
3.196769188 -70.588132363 0.389287059 255 75 29
3.199046259 -70.685867456 0.380273782 255 80 18
3.201137452 -70.783557147 0.371779052 255 84 11
3.202461326 -70.881051027 0.365421857 255 90 0
3.198794826 -70.977255692 0.372961074 255 84 11
3.192306190 -71.072727129 0.388359539 255 75 29
3.184613815 -71.167882003 0.407110993 255 63 51
3.176929452 -71.263033805 0.425841387 255 49 76
3.172528358 -71.359034916 0.435430781 255 43 87
3.177052555 -71.457359628 0.420168805 255 53 69
3.179410648 -71.555123225 0.410939315 255 59 58
3.170611020 -71.649972754 0.432779849 255 45 84
3.160071829 -71.744360873 0.459465549 255 27 117
3.156692791 -71.840618858 0.466214703 255 24 124
3.158287132 -71.938180837 0.459116254 255 27 117
3.161865860 -72.036266620 0.446493114 255 35 102
3.165427813 -72.134351532 0.433917636 255 45 84
3.164703660 -72.231309645 0.433278246 255 45 84
3.159665766 -72.327128695 0.444652072 255 37 98
3.160647790 -72.424536859 0.439263780 255 41 91
3.168504597 -72.523767544 0.414732635 255 57 62
3.175159529 -72.622686263 0.393549147 255 71 36
3.178925512 -72.720843453 0.380411318 255 80 18
3.183168288 -72.819131177 0.365946711 255 88 3
3.189690075 -72.918030138 0.345136671 255 107 0
3.181325451 -73.012963093 0.365781929 255 90 0
3.161554011 -73.104842529 0.418193345 255 55 66
3.141677887 -73.196679473 0.470897841 255 20 131
3.129202501 -73.290485003 0.502994655 255 0 168
3.128741922 -73.387505886 0.501634376 255 0 168
3.137053151 -73.486884518 0.475847583 255 18 135
3.145876261 -73.586408110 0.448636132 255 35 102
3.146751507 -73.683797258 0.443558765 255 37 98
3.139422533 -73.778973568 0.461329701 255 25 120
3.129639474 -73.873481700 0.485936092 255 10 150
3.130637182 -73.970901080 0.480520992 255 14 142
3.150304379 -74.073382477 0.423114987 255 51 73
3.168441881 -74.175464623 0.369969522 255 86 7
