ply
format ascii 1.0
comment coordinate_system ground
comment units millimeter
element vertex 1560
property double x
property double y
property double z
property uchar red
property uchar green
property uchar blue
comment color_mapping zg_high_contrast_from_zg
comment color_zg_range_mm -0.179612276 0.650706541
end_header
5.806274148 118.440062673 0.484713900 255 104 0
5.796072980 118.338512489 0.507883127 255 86 7
5.790113630 118.239033436 0.519389367 255 78 22
5.787365958 118.141119751 0.522065114 255 76 25
5.787731190 118.044719797 0.516181758 255 80 18
5.790832360 117.949647010 0.502775726 255 88 3
5.792602946 117.853925346 0.493029791 255 96 0
5.789531795 117.755854149 0.496599816 255 93 0
5.787252036 117.658167658 0.497994741 255 93 0
5.787390284 117.561652310 0.492741194 255 96 0
5.786831356 117.464798691 0.489406073 255 98 0
5.784717007 117.367192823 0.490349704 255 98 0
5.782632226 117.269601860 0.491213246 255 98 0
5.778496440 117.171021848 0.497718634 255 93 0
5.772433701 117.071514926 0.509524852 255 84 11
5.769946723 116.973734291 0.511498345 255 82 14
5.775524153 116.879836663 0.491293973 255 98 0
5.780649758 116.785716515 0.472333113 255 112 0
5.777148016 116.687444960 0.477100860 255 109 0
5.765356991 116.585194139 0.504668061 255 88 3
5.749825366 116.481156240 0.542524938 255 65 47
5.744240618 116.381898610 0.553026109 255 59 58
5.749010731 116.287605445 0.535048703 255 69 40
5.747772326 116.190431184 0.533598143 255 71 36
5.742545787 116.091349121 0.543117901 255 65 47
5.745485017 115.996173156 0.530179356 255 73 33
5.751236304 115.902337057 0.509507278 255 84 11
5.746431654 115.803458059 0.517870282 255 78 22
5.752752068 115.709886713 0.495634764 255 93 0
5.756701869 115.615180094 0.479920591 255 107 0
5.757194052 115.518823377 0.473717815 255 112 0
5.752848979 115.420164173 0.480821513 255 107 0
5.747828954 115.321186464 0.489783089 255 98 0
5.734011347 115.218033099 0.522945152 255 76 25
5.724356319 115.116864702 0.544659109 255 63 51
5.725000620 115.020586622 0.538044225 255 67 44
5.726768841 114.924839637 0.528338838 255 73 33
5.720502259 114.825286305 0.540736258 255 65 47
5.707237545 114.722426155 0.572385435 255 47 80
5.692683056 114.618965409 0.607584340 255 25 120
5.683434245 114.518020653 0.628190062 255 12 146
5.676630022 114.418235624 0.642072644 255 4 161
5.671734326 114.319354767 0.650706541 255 0 168
5.670820224 114.222352704 0.648388794 255 0 168
5.677630116 114.128986845 0.624824026 255 14 142
5.684101033 114.035455416 0.602192591 255 27 117
5.689157363 113.941253219 0.583453488 255 39 95
5.692572102 113.846275245 0.569231293 255 49 76
5.694827534 113.750749687 0.558199350 255 55 66
5.698057542 113.655678459 0.544487331 255 63 51
5.700810834 113.560380479 0.532087769 255 71 36
5.701844716 113.464274522 0.524419452 255 75 29
5.699867995 113.366758552 0.525034709 255 75 29
5.695795251 113.268263457 0.531417629 255 71 36
5.695437672 113.171505541 0.527580864 255 73 33
5.694660525 113.074551161 0.524899552 255 75 29
5.686806115 112.974296573 0.541690402 255 65 47
5.673986872 112.871733949 0.572142172 255 47 80
5.671047283 112.773779099 0.575414232 255 45 84
5.685491517 112.683911198 0.530859818 255 71 36
5.698867333 112.593534867 0.489245469 255 98 0
5.708384666 112.501355707 0.458247588 255 126 0
5.714961693 112.407804126 0.435340191 255 145 0
5.717319303 112.312290455 0.424042753 255 153 0
5.714809372 112.214519254 0.426138793 255 153 0
5.711169513 112.116226019 0.431344968 255 147 0
5.707956647 112.018132069 0.435377603 255 145 0
5.705334203 111.920312441 0.437786998 255 142 0
5.703156569 111.822699235 0.438973760 255 142 0
5.699647838 111.724472647 0.443824267 255 137 0
5.692554375 111.624595345 0.458539552 255 126 0
5.678711060 111.521613591 0.491828880 255 96 0
5.661447325 111.417067265 0.534531605 255 69 40
5.655093576 111.317549788 0.547216327 255 61 55
5.653025662 111.220005312 0.548109443 255 61 55
5.658086206 111.125733942 0.529388734 255 73 33
5.654830642 111.027643258 0.533552158 255 71 36
5.656499101 110.931810858 0.524167431 255 76 25
5.656600534 110.835258660 0.519095779 255 78 22
5.657212720 110.738939151 0.512619785 255 82 14
5.662531497 110.644770001 0.493193457 255 96 0
5.675873623 110.554260961 0.451689488 255 131 0
5.684588309 110.461628817 0.422919903 255 156 0
5.677447173 110.361758202 0.437783543 255 142 0
5.659012581 110.256746019 0.483726628 255 104 0
5.648093145 110.155168406 0.508990941 255 84 11
5.637567594 110.053777304 0.533172988 255 71 36
5.632219882 109.954746726 0.543107596 255 65 47
5.628921847 109.856650133 0.547402958 255 61 55
5.627246268 109.759291335 0.547234634 255 61 55
5.627012890 109.662586765 0.543098569 255 65 47
5.628243113 109.566544479 0.534935772 255 69 40
5.627860134 109.469770137 0.531213663 255 71 36
5.624583813 109.371686614 0.535455392 255 69 40
5.618398978 109.272290338 0.547702925 255 61 55
5.614878251 109.174100672 0.552619922 255 59 58
5.620896429 109.080215984 0.531285758 255 71 36
5.640994827 108.992672410 0.471201404 255 115 0
5.727755840 108.741843930 0.218111108 235 248 0
5.740261461 108.650814796 0.178924702 215 255 8
5.794725943 108.578608361 0.024258483 40 255 84
5.807228163 108.487540995 -0.014918108 0 254 105
5.812423803 108.393189244 -0.033984467 0 251 123
5.809184328 108.295056156 -0.029834081 0 252 117
5.801147858 108.194778755 -0.012479594 0 255 102
5.792850652 108.094389979 0.005594043 22 255 92
5.786895711 107.995052558 0.017222451 33 255 88
5.784032093 107.897098060 0.020343757 36 255 86
5.784185584 107.800489890 0.015162016 33 255 88
5.785331156 107.704322596 0.007250761 22 255 92
5.786021463 107.607950895 0.000593685 15 255 96
5.786298299 107.511393890 -0.004924224 7 255 99
5.785708928 107.414450900 -0.008056779 4 255 100
5.782423888 107.316310767 -0.003768292 11 255 97
5.777007692 107.217226940 0.006387581 22 255 92
5.781989683 107.122754428 -0.012076875 0 255 102
5.776720075 107.023737943 -0.002321980 11 255 97
5.769404506 106.923819379 0.013066042 29 255 89
5.758290459 106.822226392 0.038911387 58 255 76
5.748647242 106.721290500 0.060709702 84 255 65
5.745167772 106.623080900 0.065542714 87 255 64
5.747185806 106.527296850 0.055243962 76 255 68
5.750441656 106.432055636 0.041538875 62 255 75
5.752742632 106.336390768 0.030463310 47 255 81
5.753345017 106.239976273 0.024064621 40 255 84
5.752465856 106.142909448 0.021745437 40 255 84
5.751543929 106.045823603 0.019545155 36 255 86
5.749724770 105.948343999 0.019815990 36 255 86
5.745524687 105.849821436 0.026642414 44 255 83
5.740545637 105.750960061 0.035614580 55 255 78
5.737185030 105.652809596 0.040132669 58 255 76
5.735830204 105.555537513 0.039130246 58 255 76
5.736077044 105.458965044 0.033719687 51 255 80
5.738189124 105.363205380 0.023175270 40 255 84
5.741099484 105.267791236 0.010434223 25 255 91
5.741374334 105.171225969 0.004949815 18 255 94
5.739204622 105.073595680 0.006196533 22 255 92
5.737791005 104.976294905 0.005362897 22 255 92
5.738959061 104.880115922 -0.002577138 11 255 97
5.742982362 104.785174548 -0.018376920 0 254 108
5.746617707 104.690060965 -0.033107650 0 252 120
5.748729431 104.594283507 -0.043642628 0 250 132
5.750738069 104.498458916 -0.053892755 0 248 141
5.750714931 104.401753030 -0.058547940 0 248 144
5.747360451 104.303606507 -0.054030044 0 248 141
5.741489340 104.204374929 -0.042581944 0 250 129
5.734537425 104.104680609 -0.028156684 0 252 117
5.727590445 104.004992782 -0.013743553 0 255 102
5.721588959 103.905716510 -0.001932216 11 255 97
5.717177404 103.807128017 0.005502895 22 255 92
5.713548928 103.708878622 0.010783234 25 255 91
5.709714929 103.610542797 0.016630761 33 255 88
5.706758341 103.512585523 0.020063715 36 255 86
5.706053882 103.415595248 0.017296826 33 255 88
5.704134591 103.318084180 0.017876103 33 255 88
5.700571792 103.219870217 0.022981978 40 255 84
5.697346734 103.121802489 0.027159174 44 255 83
5.695505921 103.024327740 0.027526085 44 255 83
5.696729506 102.928161625 0.019456217 36 255 86
5.698536976 102.832242715 0.009779657 25 255 91
5.698862763 102.735690160 0.004184112 18 255 94
5.697589667 102.638455748 0.002992407 18 255 94
5.695458873 102.540856571 0.004163690 18 255 94
5.693086308 102.443155366 0.006001960 22 255 92
5.690137565 102.345210416 0.009428084 25 255 91
5.686347953 102.246910086 0.015170991 33 255 88
5.683262465 102.148910178 0.018976233 36 255 86
5.683398901 102.052276110 0.013910340 29 255 89
5.687032517 101.957120675 -0.000784897 15 255 96
5.691869785 101.862470395 -0.018793773 0 254 108
5.695581379 101.767340146 -0.033701816 0 251 123
5.697366429 101.671393278 -0.043303484 0 250 129
5.698162240 101.575027128 -0.050179861 0 249 138
5.699403832 101.478847247 -0.058282773 0 248 144
5.699287302 101.382094014 -0.062644457 0 247 147
5.693970768 101.283153697 -0.052684544 0 249 138
5.683812685 101.182182779 -0.029389833 0 252 117
5.678523907 101.083262226 -0.019503486 0 254 108
5.669199160 100.982652502 0.001499320 15 255 96
5.664796508 100.884110940 0.008948096 25 255 91
5.663594464 100.786911427 0.007583560 22 255 92
5.664679568 100.690668347 -0.000078766 15 255 96
5.667619155 100.595198337 -0.012847432 0 255 102
5.670733210 100.499798036 -0.026095590 0 253 114
5.668402159 100.402123727 -0.024346173 0 253 114
5.661815596 100.302677242 -0.010875145 4 255 100
5.656587643 100.203800415 -0.001144543 15 255 96
5.653414402 100.105781206 0.002928320 18 255 94
5.651055911 100.008102057 0.004758451 18 255 94
5.649655458 99.910821529 0.003951140 18 255 94
5.649965503 99.814250617 -0.001566160 11 255 97
5.651326138 99.718113928 -0.009975980 4 255 100
5.651276011 99.621391274 -0.014499029 0 254 105
5.649049864 99.523767738 -0.013027441 0 255 102
5.644854514 99.425331259 -0.006130711 7 255 99
5.640278896 99.326740083 0.001814751 15 255 96
5.637828234 99.229027999 0.003908547 18 255 94
5.637574945 99.132222434 -0.000048931 15 255 96
5.638334715 99.035833282 -0.006795691 7 255 99
5.638553163 98.939220006 -0.012050288 0 255 102
5.641287219 98.843639511 -0.024232999 0 253 114
5.645262280 98.748565602 -0.039833064 0 251 126
5.647024546 98.652580101 -0.049336930 0 249 135
5.646043162 98.555467966 -0.051282183 0 249 138
5.643568921 98.457744454 -0.049114056 0 249 135
5.640172902 98.359644872 -0.044405549 0 250 132
5.635049447 98.260841004 -0.034937302 0 251 123
5.627268422 98.160955033 -0.018147002 0 254 108
5.619487298 98.061074046 -0.001354937 11 255 97
5.617035799 97.963370184 0.000757090 15 255 96
5.617414276 97.866819597 -0.004925444 7 255 99
5.615306303 97.769256377 -0.003757322 11 255 97
5.613981477 97.672012165 -0.004745360 7 255 99
5.616111927 97.576171050 -0.015250763 0 254 105
5.619967722 97.481027343 -0.030508119 0 252 120
5.622342143 97.385279473 -0.041683568 0 250 129
5.622913752 97.288798977 -0.047891502 0 249 135
5.622022505 97.191725423 -0.050068341 0 249 138
5.620712548 97.094482458 -0.051090502 0 249 138
5.621529751 96.998098477 -0.057971621 0 248 144
5.625388708 96.902939991 -0.073231484 0 245 159
5.627100485 96.806912393 -0.082574984 0 244 168
5.619949481 96.707314275 -0.067500617 0 246 153
5.607797383 96.605709054 -0.038646739 0 251 126
5.596474130 96.504445261 -0.012074645 0 255 102
5.589532726 96.404948433 0.002426864 18 255 94
5.587981591 96.307618073 0.002079200 18 255 94
5.590346136 96.211857140 -0.009055356 4 255 100
5.595164511 96.117075932 -0.026949476 0 253 114
5.600504554 96.022498852 -0.046279930 0 250 132
5.602654372 95.926642077 -0.056819884 0 248 144
5.601847430 95.829602438 -0.059212377 0 248 144
5.600032935 95.732160704 -0.058827684 0 248 144
5.598322767 95.634761051 -0.058729221 0 248 144
5.595968715 95.537105518 -0.056855486 0 248 144
5.588889848 95.437571884 -0.041962359 0 250 129
5.575846172 95.335672855 -0.010632944 4 255 100
5.573209933 95.237913925 -0.007977632 4 255 100
5.571374092 95.140473533 -0.007526438 7 255 99
5.577017958 95.045996949 -0.027683347 0 252 117
5.582681872 94.951523155 -0.047894589 0 249 135
5.573479405 94.851165785 -0.027142031 0 253 114
5.578354221 94.756375590 -0.045176873 0 250 132
5.573768772 94.657847264 -0.037143507 0 251 126
5.573788715 94.561137365 -0.041798830 0 250 129
5.576425314 94.465457290 -0.053663192 0 248 141
5.577438199 94.369135390 -0.061052365 0 247 147
5.575293384 94.271570442 -0.059739291 0 247 147
5.569765786 94.172677635 -0.049103532 0 249 135
5.564423014 94.073860684 -0.038975693 0 251 126
5.563158014 93.976645427 -0.040083205 0 251 126
5.566210139 93.881120960 -0.053085900 0 249 138
5.567969236 93.785087428 -0.062524459 0 247 147
5.565051173 93.687223568 -0.059073263 0 248 144
5.560461276 93.588708238 -0.051013750 0 249 138
5.558097264 93.491063866 -0.049086795 0 249 135
5.558563834 93.394523583 -0.054958929 0 248 141
5.557713349 93.297469299 -0.057200467 0 248 144
5.557600398 93.200701682 -0.061473306 0 247 147
5.562242673 93.105781120 -0.078849439 0 245 162
5.567647107 93.011152055 -0.098324996 0 242 180
5.567417047 92.914332814 -0.102271895 0 241 186
5.561850141 92.815445133 -0.091510056 0 243 174
5.555076061 92.716093561 -0.077420001 0 245 162
5.549856427 92.617347365 -0.067612413 0 246 153
5.547052637 92.519537547 -0.064461352 0 247 150
5.545056918 92.422040863 -0.063536030 0 247 150
5.541411000 92.323908603 -0.058061588 0 248 144
5.537301692 92.225599771 -0.051308746 0 249 138
5.536126685 92.128422308 -0.052641570 0 249 138
5.537609112 92.032266443 -0.061297195 0 247 147
5.537643679 91.935552572 -0.065961356 0 247 150
5.535812575 91.838122049 -0.065482443 0 247 150
5.534128885 91.740748565 -0.065408603 0 247 150
5.533129739 91.643637619 -0.067220242 0 246 153
5.531509330 91.546288938 -0.067318408 0 246 153
5.529763157 91.448892578 -0.067068741 0 246 153
5.529477680 91.352054327 -0.070843811 0 246 156
5.529469076 91.255321038 -0.075380854 0 245 159
5.528320856 91.158152715 -0.076775715 0 245 162
5.526017565 91.060544771 -0.074985719 0 245 159
5.523871931 90.962997676 -0.073629034 0 245 159
5.522975915 90.865926043 -0.075715435 0 245 159
5.522078026 90.768853533 -0.077795500 0 245 162
5.520843327 90.671653173 -0.078946024 0 245 162
5.519616088 90.574455728 -0.080115919 0 244 165
5.516869432 90.476683509 -0.077096531 0 245 162
5.511802430 90.378035523 -0.067680077 0 246 153
5.507776322 90.279783563 -0.061131409 0 247 147
5.507991520 90.183133653 -0.066272372 0 246 153
5.510225379 90.087243416 -0.076976578 0 245 162
5.509007988 89.990051433 -0.078166408 0 245 162
5.502362747 89.890818303 -0.064393117 0 247 150
5.496094607 89.791731044 -0.051657883 0 249 138
5.496086647 89.694997188 -0.056177784 0 248 141
5.496656843 89.598479261 -0.062290279 0 247 147
5.495294099 89.501236081 -0.063073317 0 247 150
5.491675856 89.403149158 -0.057637608 0 248 144
5.486950655 89.304650371 -0.049149113 0 249 135
5.486356271 89.207696814 -0.052046554 0 249 138
5.490710445 89.112588824 -0.068584448 0 246 153
5.494230480 89.017165844 -0.082821903 0 244 168
5.495313586 88.920832156 -0.090340423 0 243 174
5.492297612 88.822972398 -0.086557731 0 243 171
5.486159779 88.723954287 -0.074167525 0 245 159
5.480641359 88.625169878 -0.063483505 0 247 150
5.478362872 88.527590030 -0.061729997 0 247 147
5.483541518 88.432772984 -0.080533333 0 244 165
5.481240918 88.335183906 -0.078716554 0 245 162
5.478937446 88.237594674 -0.076890621 0 245 162
5.475208761 88.139480118 -0.071134285 0 246 156
5.470803135 88.041117864 -0.063510378 0 247 150
5.465136950 87.942293634 -0.052409853 0 249 138
5.463980564 87.845132899 -0.053741301 0 248 141
5.469751735 87.750519568 -0.074170724 0 245 159
5.475568093 87.655917615 -0.094723817 0 242 177
5.475646293 87.559204764 -0.099455779 0 241 183
5.470413576 87.460544170 -0.089544169 0 243 174
5.466102814 87.362224328 -0.082173086 0 244 165
5.464977142 87.265072081 -0.083582257 0 244 168
5.465030980 87.168350889 -0.088242278 0 243 171
5.465146641 87.071651390 -0.093071617 0 242 177
5.465312525 86.974969284 -0.098038293 0 242 180
5.464368731 86.877881966 -0.099944265 0 241 183
5.460237667 86.779634629 -0.093061139 0 242 177
5.453337669 86.680382985 -0.078542148 0 245 162
5.447360690 86.581470948 -0.066566699 0 246 153
5.445044103 86.483890528 -0.064682511 0 247 150
5.443844686 86.386715895 -0.065877437 0 247 150
5.442225590 86.289389410 -0.065913992 0 247 150
5.442178635 86.192631870 -0.070284243 0 246 156
5.444256421 86.096641116 -0.080511992 0 244 165
5.444922197 86.000138386 -0.086845259 0 243 171
5.444167507 85.903122243 -0.089260645 0 243 174
5.442295658 85.805703532 -0.088594400 0 243 171
5.439032733 85.707784986 -0.084091144 0 244 168
5.435217599 85.609669646 -0.078063925 0 245 162
5.432420477 85.511921821 -0.074842542 0 245 159
5.431739231 85.414934045 -0.077454412 0 245 162
5.431831655 85.318223103 -0.082198518 0 244 165
5.432701626 85.221789499 -0.089085600 0 243 174
5.435815588 85.126156546 -0.102159502 0 241 186
5.440077308 85.030930241 -0.118397413 0 238 201
5.440841351 84.934452243 -0.124989189 0 237 207
5.436274961 84.836073490 -0.116880587 0 239 198
5.430141043 84.737139429 -0.104447980 0 241 186
5.425119545 84.638604734 -0.095081644 0 242 177
5.419196442 84.539752791 -0.083227614 0 244 168
5.412896929 84.440770970 -0.070334163 0 246 156
5.408610897 84.342506732 -0.062991928 0 247 150
5.406994209 84.245189986 -0.063009745 0 247 150
5.408414617 84.148947753 -0.071401960 0 246 156
5.413599750 84.054033628 -0.090175394 0 243 174
5.420765491 83.959813702 -0.114410022 0 239 195
5.428260067 83.865703425 -0.139550652 0 235 219
5.431555338 83.770107872 -0.153109418 0 233 231
5.425527582 83.671229494 -0.140955562 0 235 222
5.414970999 83.570763515 -0.116310316 0 239 198
5.405695199 83.470754291 -0.095195751 0 242 177
5.399045280 83.371671985 -0.081321640 0 244 165
5.394280950 83.273254326 -0.072646474 0 245 159
5.391673287 83.175594004 -0.069918002 0 246 156
5.390960582 83.078597100 -0.072414570 0 246 156
5.390843791 82.981807952 -0.076553509 0 245 162
5.389720447 82.884667060 -0.077915190 0 245 162
5.386372393 82.786751233 -0.073139807 0 245 159
5.390022659 82.691272299 -0.087665062 0 243 171
5.385323400 82.592887600 -0.079160510 0 244 165
5.384890060 82.495986800 -0.082420539 0 244 168
5.387127791 82.400011902 -0.093046599 0 242 177
5.388399715 82.303699884 -0.101007756 0 241 183
5.388397570 82.206945168 -0.105453713 0 240 189
5.389256486 82.110487290 -0.112273510 0 239 195
5.384417114 82.012060292 -0.103375061 0 241 186
5.384679929 81.915396024 -0.108548339 0 240 192
5.390755055 81.820733340 -0.129752361 0 237 210
5.385375841 81.722123036 -0.119361192 0 238 201
5.384884623 81.625196422 -0.122451230 0 238 204
5.389250932 81.529937462 -0.138938736 0 235 219
5.383110168 81.431070175 -0.126443166 0 237 207
5.389080601 81.336356580 -0.147353286 0 234 228
5.380674060 81.236716893 -0.128605300 0 237 210
5.373224260 81.137409873 -0.112494891 0 239 195
5.369285995 81.039306904 -0.106069344 0 240 189
5.365601385 80.941292639 -0.100342187 0 241 183
5.360718898 80.842872187 -0.091309428 0 243 174
5.358399457 80.745327001 -0.089345465 0 243 174
5.360102295 80.649150280 -0.098475779 0 242 180
5.363057158 80.553396642 -0.111058772 0 240 192
5.363536124 80.456800056 -0.116810849 0 239 198
5.360904705 80.359148350 -0.113981581 0 239 195
5.358166869 80.261461812 -0.110857505 0 240 192
5.358717838 80.164888436 -0.116804718 0 239 198
5.360746680 80.068812911 -0.126827722 0 237 207
5.360304141 79.971901372 -0.130031983 0 237 210
5.357562777 79.874214777 -0.126893373 0 237 207
5.355328613 79.776700158 -0.125152723 0 237 207
5.354051663 79.679508224 -0.126051520 0 237 207
5.351094363 79.581752178 -0.122313482 0 238 204
5.346212879 79.483352148 -0.113265821 0 239 195
5.340680429 79.384736912 -0.102420943 0 241 186
5.336174920 79.286468750 -0.094407822 0 242 177
5.333765092 79.188903755 -0.092174981 0 242 177
5.332540338 79.091735481 -0.093210337 0 242 177
5.329985761 78.994123798 -0.090575701 0 243 174
5.324973430 78.895694458 -0.081159158 0 244 165
5.320473416 78.797438597 -0.073154699 0 245 159
5.318319910 78.699965289 -0.071622761 0 246 156
5.317562737 78.602956397 -0.073942002 0 245 159
5.319078793 78.506701127 -0.082531837 0 244 168
5.322013984 78.410913974 -0.095035962 0 242 177
5.322483513 78.314307981 -0.100736287 0 241 183
5.319520161 78.216566309 -0.096964079 0 242 180
5.314591057 78.118177179 -0.087767005 0 243 171
5.308555641 78.019426209 -0.075516195 0 245 159
5.301489626 77.920339597 -0.060420469 0 247 147
5.298022925 77.822441591 -0.055254224 0 248 141
5.301185008 77.726723521 -0.068376396 0 246 153
5.303607927 77.630759641 -0.079458080 0 244 165
5.301194962 77.533207797 -0.077195687 0 245 162
5.294517439 77.434260581 -0.063165315 0 247 150
5.288009806 77.335373198 -0.049602285 0 249 135
5.286678035 77.238180820 -0.050319269 0 249 138
5.289851957 77.142458866 -0.063467419 0 247 150
5.293398306 77.046855073 -0.077642178 0 245 162
5.297311323 76.951367142 -0.092827673 0 242 177
5.303021101 76.856459665 -0.112970000 0 239 195
5.309031615 76.761644712 -0.133941229 0 236 213
5.312445237 76.665981947 -0.147745817 0 234 228
5.311098606 76.568773362 -0.148414115 0 234 228
5.305997352 76.470349847 -0.138720754 0 235 219
5.300928827 76.371939987 -0.129116354 0 237 210
5.297723746 76.274134843 -0.124652651 0 237 207
5.295508796 76.176650649 -0.122919890 0 238 204
5.293663249 76.079286326 -0.122205258 0 238 204
5.292689935 75.982203233 -0.123896328 0 238 204
5.293289531 75.885625545 -0.129926679 0 237 210
5.293950223 75.789066207 -0.136124507 0 236 216
5.291628441 75.691549386 -0.134090931 0 236 213
5.287529504 75.593464450 -0.127151935 0 237 207
5.284121832 75.495602920 -0.122119240 0 238 204
5.289323187 75.400493398 -0.140842837 0 235 222
5.286120799 75.302697673 -0.136374267 0 236 216
5.281146802 75.204338974 -0.127015401 0 237 207
5.280555192 75.107378242 -0.129749143 0 237 210
5.282755441 75.011304793 -0.140186392 0 235 219
5.283584136 74.914793321 -0.146837488 0 234 225
5.281090845 74.817226763 -0.144319689 0 234 225
5.276318822 74.718939408 -0.135511913 0 236 216
5.270999905 74.620481834 -0.125193498 0 237 207
5.267932390 74.522739027 -0.121087127 0 238 201
5.268972946 74.426294484 -0.128317004 0 237 210
5.273731528 74.331020547 -0.145806904 0 234 225
5.277021820 74.235279833 -0.159243579 0 232 237
5.272731643 74.137151655 -0.151758133 0 233 231
5.264797205 74.037881155 -0.134213602 0 236 216
5.258753586 73.939209140 -0.121886100 0 238 204
5.254069859 73.840967075 -0.113310417 0 239 195
5.249012673 73.742610883 -0.103702674 0 241 186
5.243875848 73.644232842 -0.093873781 0 242 177
5.239819479 73.546195262 -0.087025590 0 243 171
5.238342983 73.448964507 -0.087296594 0 243 171
5.241037866 73.353033342 -0.099079560 0 241 183
5.245646480 73.257694672 -0.116143486 0 239 198
5.246011007 73.161033015 -0.121492454 0 238 204
5.237228490 73.061531678 -0.101593577 0 241 183
5.228507004 72.962055139 -0.081861645 0 244 165
4.839251474 53.017327698 0.128467543 156 255 33
4.849563722 52.922932239 0.095866682 120 255 49
4.868961764 52.830628070 0.038152890 58 255 76
4.883799604 52.737256111 -0.006955562 7 255 99
4.889735926 52.641821521 -0.027458692 0 252 117
4.891131069 52.545337265 -0.035408554 0 251 123
4.889053941 52.448053956 -0.033759508 0 251 123
4.886498869 52.350661909 -0.030788137 0 252 120
4.883880174 52.253256483 -0.027639661 0 252 117
4.887517127 52.157281402 -0.041781707 0 250 129
4.881389014 52.059075649 -0.028930124 0 252 117
4.875631725 51.960958232 -0.017102209 0 254 105
4.870333645 51.862948819 -0.006542298 7 255 99
4.863590046 51.764614649 0.008014742 22 255 92
4.857673558 51.666472231 0.020286815 36 255 86
4.855441610 51.569166870 0.022375084 40 255 84
4.859552739 51.473294607 0.006930312 22 255 92
4.868725844 51.378559421 -0.022506418 0 253 111
4.875881811 51.283362570 -0.046366233 0 250 132
4.875633058 51.186496102 -0.049755823 0 249 135
4.870613110 51.088559075 -0.039954859 0 251 126
4.864416938 50.990361778 -0.026901015 0 253 114
4.858843802 50.892307685 -0.015568128 0 254 105
4.854473133 50.794525361 -0.007558036 7 255 99
4.851202798 50.696990683 -0.002588463 11 255 97
4.850239315 50.599970664 -0.003994860 11 255 97
4.852317694 50.503625815 -0.013809276 0 255 102
4.855702942 50.407568201 -0.027235464 0 252 117
4.856808778 50.311003014 -0.034359132 0 251 123
4.854685227 50.213723082 -0.032553918 0 252 120
4.851641139 50.116241075 -0.028202600 0 252 117
4.850189438 50.019111048 -0.028252305 0 252 117
4.852015799 49.922701493 -0.037363327 0 251 126
4.853404448 49.826193786 -0.045263160 0 250 132
4.851322268 49.728924421 -0.043566338 0 250 132
4.847873363 49.631357196 -0.038089785 0 251 126
4.844056061 49.533711466 -0.031593466 0 252 120
4.839132564 49.435826978 -0.022037580 0 253 111
4.833039850 49.337691297 -0.009247832 4 255 100
4.826583724 49.239480631 0.004548020 18 255 94
4.822645681 49.141819618 0.011383402 25 255 91
4.822282082 49.044933816 0.008337591 22 255 92
4.822524587 48.948178364 0.003617200 18 255 94
4.823119429 48.851497884 -0.002076195 11 255 97
4.824704297 48.755029143 -0.010505693 4 255 100
4.826801704 48.658668482 -0.020351184 0 254 108
4.828089235 48.562131863 -0.027956416 0 252 117
4.827040611 48.465093647 -0.029101400 0 252 117
4.822507108 48.367311165 -0.020609929 0 254 108
4.815701780 48.269047025 -0.005835784 7 255 99
4.809317638 48.170876945 0.007775214 22 255 92
4.804580848 48.073060925 0.016832763 33 255 88
4.801037029 47.975500727 0.022593117 40 255 84
4.798987316 47.878258729 0.024223583 40 255 84
4.796542297 47.780934004 0.026948284 44 255 83
4.793449622 47.683473780 0.031464992 51 255 80
4.791079366 47.586167240 0.033985448 51 255 80
4.789448382 47.489017098 0.034463016 55 255 78
4.787607153 47.391823333 0.035523126 55 255 78
4.785785607 47.294634328 0.036530024 55 255 78
4.784508962 47.197559833 0.036031428 55 255 78
4.785043407 47.100863378 0.030526150 47 255 81
4.788076158 47.004685998 0.018113858 33 255 88
4.790035451 46.908282410 0.008670885 25 255 91
4.788103800 46.811069280 0.009988089 25 255 91
4.785764165 46.713772367 0.012434658 29 255 89
4.785076467 46.616817953 0.010314520 25 255 91
4.782627526 46.519499895 0.013065774 29 255 89
4.788093131 46.423812950 -0.006067314 7 255 99
4.787069279 46.326787035 -0.007254463 7 255 99
4.789360657 46.230441380 -0.017607926 0 254 108
4.791238630 46.134008544 -0.026817134 0 253 114
4.787996263 46.036526785 -0.021865984 0 253 111
4.784087801 45.938910823 -0.015071607 0 254 105
4.780719005 45.841406987 -0.009768305 4 255 100
4.776310891 45.743693684 -0.001589654 11 255 97
4.771414928 45.645883995 0.007939384 22 255 92
4.767629715 45.548302223 0.014398085 29 255 89
4.768140710 45.451590993 0.008977293 25 255 91
4.774181561 45.355994279 -0.011734763 0 255 102
4.781234320 45.260595960 -0.035244236 0 251 123
4.785749279 45.164681419 -0.051734614 0 249 138
4.785276105 45.067762002 -0.054429463 0 248 141
4.778900404 44.969660331 -0.040799777 0 250 129
4.769249227 44.870908169 -0.018110358 0 254 108
4.760179690 44.772278622 0.002972021 18 255 94
4.752954619 44.674022434 0.018954921 36 255 86
4.748729450 44.576367081 0.026642797 44 255 83
4.749347705 44.479674738 0.020937078 36 255 86
4.753255689 44.383632323 0.006134413 22 255 92
4.757200600 44.287593457 -0.008769358 4 255 100
4.757217821 44.190776371 -0.012809569 0 255 102
4.753893759 44.093300963 -0.007607820 7 255 99
4.750998668 43.995911583 -0.003591198 11 255 97
4.748481084 43.898597652 -0.000617396 15 255 96
4.746141701 43.801319743 0.001864791 15 255 96
4.744461453 43.704171562 0.002525227 18 255 94
4.742977734 43.607062200 0.002643318 18 255 94
4.741300467 43.509915561 0.003297913 18 255 94
4.740630344 43.412964948 0.001168185 15 255 96
4.741866360 43.316383379 -0.006232346 7 255 99
4.743054199 43.219790788 -0.013498523 0 255 102
4.741883266 43.122741335 -0.014239653 0 254 105
4.737570173 43.025086844 -0.006288892 7 255 99
4.732411099 42.927272272 0.004003026 18 255 94
4.728735850 42.829745519 0.010192201 25 255 91
4.726767032 42.732547507 0.011662848 25 255 91
4.723265011 42.635057285 0.017375410 33 255 88
4.718369907 42.537303328 0.026942406 44 255 83
4.715934118 42.440020367 0.029708389 47 255 81
4.717972522 42.343588262 0.020100160 36 255 86
4.722447629 42.247615698 0.003753153 18 255 94
4.724936169 42.151263172 -0.007098023 7 255 99
4.723469885 42.054161392 -0.007009058 7 255 99
4.717359444 41.956185018 0.005926966 22 255 92
4.710101504 41.857996796 0.022038386 40 255 84
4.714186478 41.761941675 0.006775999 22 255 92
4.723036761 41.666774992 -0.021666577 0 253 111
4.729354549 41.571127536 -0.043103164 0 250 129
4.729615513 41.474344961 -0.047784989 0 249 135
4.722150590 41.376123575 -0.031094916 0 252 120
4.710963534 41.277215826 -0.004107476 11 255 97
4.700452181 41.178441091 0.021012416 36 255 86
4.694078558 41.080438943 0.034688117 55 255 78
4.693051279 40.983427732 0.033576130 51 255 80
4.694703882 40.886910176 0.025052191 44 255 83
4.697255587 40.790555866 0.014042224 29 255 89
4.700207839 40.694272320 0.001925308 15 255 96
4.703430748 40.598035301 -0.010939259 4 255 100
4.703733578 40.501261640 -0.015725030 0 254 105
4.700984651 40.403930677 -0.012067603 0 255 102
4.697856035 40.306531981 -0.007358591 7 255 99
4.695632663 40.209299238 -0.005152534 7 255 99
4.693883291 40.112153291 -0.004256499 11 255 97
4.690485753 40.014709989 0.001200169 15 255 96
4.693432329 39.918412882 -0.010892138 4 255 100
4.688406955 39.820677809 -0.000929810 15 255 96
4.686646453 39.723532241 0.000001844 15 255 96
4.684697222 39.626353428 0.001456814 15 255 96
4.679439896 39.528583670 0.012064674 29 255 89
4.674928588 39.430950307 0.020610031 36 255 86
4.673281598 39.333829738 0.021232592 36 255 86
4.674736005 39.237260812 0.013276339 29 255 89
4.677312314 39.140888957 0.002217429 18 255 94
4.679102626 39.044375294 -0.006665932 7 255 99
4.679640495 38.947638363 -0.012083255 0 255 102
4.677898286 38.850498549 -0.011191465 0 255 102
4.673018611 38.752807733 -0.001618407 11 255 97
4.665688533 38.654690032 0.014735251 29 255 89
4.658310533 38.556568777 0.031222896 51 255 80
4.654438827 38.459064787 0.038011298 58 255 76
4.655617059 38.362443064 0.030829548 47 255 81
4.658210808 38.266065826 0.019732644 36 255 86
4.658155653 38.169226232 0.015965484 33 255 88
4.654576661 38.071775842 0.021948884 40 255 84
4.648209896 37.973845843 0.035646541 55 255 78
4.640892556 37.875756097 0.051975561 73 255 70
4.635542481 37.778009513 0.062863036 84 255 65
4.633637700 37.680857469 0.064219490 87 255 64
4.633064176 37.583934055 0.061893847 84 255 65
4.630879993 37.486735155 0.064025753 87 255 64
4.626065445 37.389088799 0.073436640 98 255 59
4.620188020 37.291264589 0.085789652 109 255 54
4.614948259 37.193552313 0.096379682 124 255 48
4.611685109 37.096177936 0.101502001 127 255 46
4.614157084 36.999774116 0.090757090 116 255 51
4.620279577 36.903982928 0.069912604 91 255 62
4.622869087 36.807592179 0.058844570 80 255 67
4.620955756 36.710443189 0.060236690 80 255 67
4.616635090 36.612891908 0.068291011 91 255 62
4.612560499 36.515384264 0.075665742 98 255 59
4.609794992 36.418097112 0.079419534 102 255 57
4.606639366 36.320746450 0.084254030 109 255 54
4.603481484 36.223397062 0.089096022 113 255 52
4.602162929 36.126353717 0.088849769 113 255 52
4.602618575 36.029603555 0.083695393 109 255 54
4.602920107 35.932826896 0.078968596 102 255 57
4.600066470 35.835530705 0.082973575 106 255 56
4.593299414 35.737594270 0.097808648 124 255 48
4.594533170 35.640971033 0.090505853 116 255 51
4.593605238 35.543993304 0.089185858 113 255 52
4.589280902 35.446462523 0.097265429 124 255 48
4.593665237 35.350348890 0.081247883 106 255 56
4.596606935 35.253997360 0.069223404 91 255 62
4.598303872 35.157441576 0.060644486 84 255 65
4.597338545 35.060454336 0.059433728 80 255 67
4.593619519 34.963023977 0.065844288 87 255 64
4.589167229 34.865477988 0.074285247 98 255 59
4.586651669 34.768244795 0.077368043 102 255 57
4.585679281 34.671259303 0.076181676 98 255 59
4.584087216 34.574175027 0.076711320 102 255 57
4.588511045 34.478047727 0.060594273 84 255 65
4.582547897 34.380268733 0.073222467 95 255 60
4.578036144 34.282723194 0.081835489 106 255 56
4.575472207 34.185487808 0.085059487 109 255 54
4.575570098 34.088672780 0.080918412 106 255 56
4.579110090 33.992397632 0.067252812 91 255 62
4.581759082 33.895979392 0.056054018 76 255 68
4.577647735 33.798501554 0.063565062 84 255 65
4.569966507 33.700469395 0.080956855 106 255 56
4.563709444 33.602663887 0.094408726 120 255 49
4.559381689 33.505161785 0.102522626 127 255 46
4.555688797 33.407760503 0.108880836 135 255 43
4.552371667 33.310419304 0.114200384 142 255 40
4.549286210 33.213115562 0.118880027 149 255 36
4.544830195 33.115602827 0.127354012 156 255 33
4.539617539 33.017976764 0.137923349 167 255 28
4.250748312 13.034201651 0.168284436 204 255 12
4.246160547 12.936988764 0.177381315 215 255 8
4.250542977 12.840440088 0.161625385 197 255 16
4.261347560 12.744358402 0.128076300 156 255 33
4.267664342 12.647940182 0.106962734 135 255 43
4.269801578 12.551212957 0.097430738 124 255 48
4.271743981 12.454469260 0.088439675 113 255 52
4.278321543 12.358056236 0.066606609 87 255 64
4.289267831 12.261949528 0.032669613 51 255 80
4.291588477 12.165220724 0.022633626 40 255 84
4.282307905 12.067669422 0.044743836 66 255 73
4.270122782 11.969920276 0.074903577 98 255 59
4.260648708 11.872369227 0.097552875 124 255 48
4.257269238 11.775248422 0.103316131 131 255 44
4.259055029 11.678486601 0.094768194 120 255 49
4.263392255 11.581898093 0.079151549 102 255 57
4.268379574 11.485349953 0.061734582 84 255 65
4.270902443 11.388629645 0.051147481 73 255 70
4.269686847 11.291653855 0.050920580 73 255 70
4.263917452 11.194372058 0.063313306 84 255 65
4.255908969 11.096944222 0.081911833 106 255 56
4.249114968 10.999602473 0.097146417 124 255 48
4.245252386 10.902458882 0.104259343 131 255 44
4.244434777 10.805517542 0.102935814 131 255 44
4.244658628 10.708644089 0.098727525 124 255 48
4.243997425 10.611712222 0.096972919 124 255 48
4.243389623 10.514783539 0.095071507 120 255 49
4.243760346 10.417917348 0.090459688 116 255 51
4.245597665 10.321143656 0.081784926 106 255 56
4.248866630 10.224458565 0.069144015 91 255 62
4.251253180 10.127714589 0.058949454 80 255 67
4.248945170 10.030673946 0.061765256 84 255 65
4.241710814 9.933327597 0.078233937 102 255 57
4.234381854 9.835980163 0.094966147 120 255 49
4.231643536 9.738919860 0.098978206 124 255 48
4.233328044 9.642131163 0.090734961 116 255 51
4.235826452 9.545389832 0.080237337 106 255 56
4.237354902 9.448587288 0.072428769 95 255 60
4.237048117 9.351672762 0.069707184 91 255 62
4.234863152 9.254645802 0.072191671 95 255 60
4.232140870 9.157587938 0.076166418 98 255 59
4.230112357 9.060572192 0.078219765 102 255 57
4.229287073 8.963627535 0.076939819 102 255 57
4.230414950 8.866796115 0.070248236 95 255 60
4.234595763 8.770139107 0.055097117 76 255 68
4.240397170 8.673570959 0.035455838 55 255 78
4.243574213 8.576848276 0.023088580 40 255 84
4.241478113 8.479824375 0.025336155 44 255 83
4.236178342 8.382621477 0.036463501 55 255 78
4.230695424 8.285411657 0.048099724 69 255 72
4.227069820 8.188308100 0.054589890 76 255 68
4.225929639 8.091343208 0.054193171 76 255 68
4.224409077 7.994357650 0.054851831 76 255 68
4.219616378 7.897195074 0.064580233 87 255 64
4.211419008 7.799852104 0.083745834 109 255 54
4.204946303 7.702606830 0.098132960 124 255 48
4.207055228 7.605821171 0.088737519 113 255 52
4.213956479 7.509285623 0.066061240 87 255 64
4.220668624 7.412734129 0.043910054 62 255 75
4.226278379 7.316119487 0.024815153 44 255 83
4.231324155 7.219470712 0.007284353 22 255 92
4.235910071 7.122793777 -0.008970897 4 255 100
4.238013299 7.025986507 -0.018344191 0 254 108
4.234092805 6.928873320 -0.011021205 0 255 102
4.223994949 6.831453451 0.013424153 29 255 89
4.214269736 6.734059036 0.036838148 55 255 78
4.208970143 6.636889222 0.047987436 69 255 72
4.205124760 6.539793745 0.055107485 76 255 68
4.200025692 6.442639670 0.065703571 87 255 64
4.202176616 6.345837401 0.056206406 76 255 68
4.201105200 6.248878976 0.055641621 76 255 68
4.195130182 6.151688528 0.068669292 91 255 62
4.197571017 6.054896960 0.058372012 80 255 67
4.203248915 5.958253473 0.039103602 58 255 76
4.197720767 5.861087390 0.050896333 73 255 70
4.191989530 5.763915469 0.063253282 84 255 65
4.186935265 5.666777909 0.073735143 98 255 59
4.184505004 5.569761606 0.076945146 102 255 57
4.184249351 5.472843482 0.074128816 98 255 59
4.183111368 5.375885727 0.073759289 98 255 59
4.181198047 5.278894050 0.075540038 98 255 59
4.180783642 5.181968267 0.073167255 95 255 60
4.181212940 5.085078406 0.068457022 91 255 62
4.178622815 4.988058418 0.072117336 95 255 60
4.171760458 4.890858716 0.087620947 113 255 52
4.163642328 4.793610798 0.106606766 135 255 43
4.157941233 4.696468835 0.118894185 149 255 36
4.154628640 4.599428873 0.124562192 153 255 35
4.151695326 4.502406158 0.129180105 160 255 32
4.147996044 4.405353946 0.135922472 167 255 28
4.145274844 4.308342970 0.139954892 171 255 27
4.146783986 4.211501117 0.132262148 164 255 30
4.151532007 4.114784579 0.115592404 146 255 38
4.155481415 4.018032563 0.101137446 127 255 46
4.157030243 3.921184280 0.093337966 120 255 49
4.155423866 3.824213710 0.094285889 120 255 49
4.150213407 3.727107530 0.105225646 131 255 44
4.144855912 3.629999074 0.116574289 146 255 38
4.142821668 3.533016870 0.118711973 146 255 38
4.141845524 3.436074182 0.117917731 146 255 38
4.141458539 3.339152810 0.115491463 142 255 40
4.143300623 3.242310850 0.106887154 135 255 43
4.147380595 3.145546052 0.092080271 116 255 51
4.151670319 3.048784712 0.076692982 102 255 57
4.154017145 2.951951916 0.066692719 87 255 64
4.153429215 2.855015867 0.064829134 87 255 64
4.151814163 2.758044651 0.065814068 87 255 64
4.152810295 2.661161481 0.059561535 80 255 67
4.157318421 2.564393225 0.043574220 62 255 75
4.159336475 2.467539131 0.034490927 55 255 78
4.155546838 2.370494597 0.041508893 62 255 75
4.148619534 2.273351760 0.057226445 80 255 67
4.139205253 2.176134805 0.079839852 102 255 57
4.127161999 2.078842151 0.109742884 138 255 41
4.119598448 1.981696192 0.127228443 156 255 33
4.119933692 1.884795983 0.122817612 153 255 35
4.122960558 1.787975745 0.110945934 138 255 41
4.125513719 1.691138340 0.100388594 127 255 46
4.125751517 1.594230302 0.096251284 124 255 48
4.124443437 1.497276564 0.096400824 124 255 48
4.124221161 1.400354067 0.093541315 120 255 49
4.125676023 1.303478225 0.086033328 109 255 54
4.126700240 1.206588526 0.079720368 102 255 57
4.125430912 1.109634396 0.079767139 102 255 57
4.123342426 1.012658325 0.082086129 106 255 56
4.123431613 0.915741106 0.078368913 102 255 57
4.125026979 0.818862601 0.070477073 95 255 60
4.125259286 0.721946825 0.066365348 87 255 64
4.123675298 0.624983787 0.067290367 91 255 62
4.121881211 0.528015912 0.068799069 91 255 62
4.120294212 0.431053758 0.069734829 91 255 62
4.116524310 0.334038898 0.076723866 102 255 57
4.111147715 0.236987648 0.088168730 113 255 52
4.106401143 0.139954601 0.097868139 124 255 48
4.102318520 0.042939818 0.105728006 131 255 44
4.099429145 -0.054045387 0.110280793 138 255 41
4.099306677 -0.150967084 0.107163383 135 255 43
4.100691968 -0.247856216 0.099866753 127 255 46
4.099404421 -0.344805095 0.099981920 127 255 46
4.103797192 -0.441632867 0.084349021 109 255 54
4.099658829 -0.538643079 0.092370700 116 255 51
4.096159181 -0.635637791 0.098622722 124 255 48
4.092840673 -0.732626949 0.104373756 131 255 44
4.089823204 -0.829608394 0.109291352 138 255 41
4.087676392 -0.926571439 0.111796140 138 255 41
4.085751646 -1.023529397 0.113686416 142 255 40
4.082510815 -1.120511137 0.119226996 149 255 36
4.080877658 -1.217461879 0.120311206 149 255 36
4.083479607 -1.314336612 0.109653846 138 255 41
4.088502545 -1.411171863 0.092284823 116 255 51
4.093617591 -1.508010165 0.074661447 98 255 59
4.099185887 -1.604845600 0.055782353 76 255 68
4.103854830 -1.701700739 0.039397978 58 255 76
4.104481887 -1.798624574 0.034221888 51 255 80
4.100120738 -1.895627163 0.042878178 62 255 75
4.093377686 -1.992663278 0.058140284 80 255 67
4.085851493 -2.089706569 0.075575239 98 255 59
4.078042920 -2.186748930 0.093794542 120 255 49
4.073356939 -2.283742356 0.103356742 131 255 44
4.074477766 -2.380653875 0.096818746 124 255 48
4.077737496 -2.477538716 0.084350975 109 255 54
4.079106924 -2.574451128 0.077125864 102 255 57
4.077895409 -2.671397552 0.077058563 102 255 57
4.076261005 -2.768348936 0.078165077 102 255 57
4.075768181 -2.865286481 0.076107275 98 255 59
4.076290816 -2.962212928 0.071234837 95 255 60
4.078095745 -3.059126525 0.062807810 84 255 65
4.081923762 -3.156020928 0.048771956 69 255 72
4.087226730 -3.252904038 0.030647178 47 255 81
4.092317048 -3.349794069 0.013113103 29 255 89
4.095718694 -3.446704661 0.000262735 15 255 96
4.094993915 -3.543655866 -0.001143976 15 255 96
4.089168645 -3.640651354 0.011594223 25 255 91
4.081813952 -3.737655782 0.028574866 47 255 81
4.074878150 -3.834652052 0.044395259 66 255 73
4.070509251 -3.931624558 0.053098821 73 255 70
4.070037304 -4.028566799 0.050997119 73 255 70
4.072439216 -4.125490134 0.040927134 58 255 76
4.075989713 -4.222408804 0.027673111 44 255 83
4.079220166 -4.319332879 0.015307674 33 255 88
4.080091766 -4.416273353 0.009484692 25 255 91
4.077345850 -4.513234048 0.013694685 29 255 89
4.072702167 -4.610202538 0.023168682 40 255 84
4.068694937 -4.707165430 0.030878970 47 255 81
4.067028580 -4.804116569 0.032098874 51 255 80
4.066808330 -4.901061919 0.029309656 47 255 81
4.064635716 -4.998014270 0.031935883 51 255 80
4.059002073 -5.094975737 0.044161476 62 255 75
4.052268618 -5.191936422 0.059438395 80 255 67
4.047771510 -5.288887972 0.068514725 91 255 62
4.047522310 -5.385829456 0.065811814 87 255 64
4.051137637 -5.482766279 0.052392722 73 255 70
4.056026592 -5.579705409 0.035442582 55 255 78
4.060247313 -5.676649460 0.020346690 36 255 86
4.061303846 -5.773598181 0.014027075 29 255 89
4.057355133 -5.870547613 0.021589670 40 255 84
4.051957931 -5.967493987 0.033170642 51 255 80
4.048186828 -6.064438533 0.040243195 58 255 76
4.046059646 -6.161383144 0.042757834 62 255 75
4.045742394 -6.258329994 0.040254095 58 255 76
4.050113020 -6.355287183 0.024750294 44 255 83
4.057932881 -6.452257036 -0.000318489 15 255 96
4.062206697 -6.549223527 -0.015551722 0 254 105
4.058386526 -6.646167837 -0.008336019 4 255 100
4.048716465 -6.743088793 0.015105121 33 255 88
4.041186492 -6.840011691 0.032612288 51 255 80
4.049298106 -6.936998280 0.006739733 22 255 92
4.058260592 -7.033995928 -0.021491691 0 253 111
3.873674851 -27.008602273 -0.179612276 0 229 255
3.854351205 -27.104025285 -0.129106713 0 237 210
3.825308944 -27.198612476 -0.051622340 0 249 138
3.812055163 -27.294519235 -0.017962240 0 254 108
3.812088391 -27.391550310 -0.021183399 0 253 111
3.804492367 -27.487928308 -0.003225676 11 255 97
3.799542193 -27.584529047 0.007388839 22 255 92
3.797080159 -27.681341936 0.011097832 25 255 91
3.795335545 -27.778216036 0.012816554 29 255 89
3.793473277 -27.875079318 0.014863064 29 255 89
3.791583011 -27.971939503 0.016988494 33 255 88
3.788736462 -28.068714860 0.021769687 40 255 84
3.783916579 -28.165314385 0.032029953 51 255 80
3.777600743 -28.261778187 0.046444164 66 255 73
3.773282633 -28.358416049 0.055314068 76 255 68
3.773429864 -28.455451239 0.051789564 73 255 70
3.778184801 -28.552901701 0.035475315 55 255 78
3.782034205 -28.650274818 0.021675889 40 255 84
3.782816981 -28.747373538 0.016390495 33 255 88
3.781465689 -28.844279271 0.017030435 33 255 88
3.778143871 -28.941004516 0.023141773 40 255 84
3.774232917 -29.037673885 0.030889800 47 255 81
3.772540557 -29.134545668 0.032480161 51 255 80
3.774497157 -29.231754895 0.023942020 40 255 84
3.780097401 -29.329305275 0.005290028 22 255 92
3.788221777 -29.427096458 -0.020368056 0 254 108
3.793511933 -29.524628903 -0.038157124 0 251 126
3.789063737 -29.621249300 -0.028910658 0 252 117
3.780389243 -29.717467527 -0.007930327 4 255 100
3.772164230 -29.813722545 0.011803545 29 255 89
3.768535675 -29.910410099 0.018778437 36 255 86
3.768489335 -30.007438431 0.015809867 33 255 88
3.768181242 -30.104442366 0.013569117 29 255 89
3.767768577 -30.201436765 0.011619841 25 255 91
3.766921755 -30.298389590 0.010877020 25 255 91
3.763628355 -30.395104684 0.016927492 33 255 88
3.758899442 -30.491677919 0.026964436 44 255 83
3.755045190 -30.588334018 0.034574410 55 255 78
3.752416276 -30.685108489 0.038783836 58 255 76
3.749546645 -30.781857955 0.043662754 62 255 75
3.746334847 -30.878572080 0.049492823 69 255 72
3.743297012 -30.975301840 0.054841152 76 255 68
3.740715983 -31.072075694 0.058922496 80 255 67
3.739373210 -31.168972544 0.059567335 80 255 67
3.739154130 -31.265982284 0.057093689 76 255 68
3.740001478 -31.363100418 0.051660504 73 255 70
3.742853949 -31.460423405 0.040661668 58 255 76
3.746745379 -31.557855168 0.026779482 44 255 83
3.748882474 -31.655111385 0.017768951 33 255 88
3.748491239 -31.752110625 0.015778970 33 255 88
3.746077435 -31.848902060 0.019405457 36 255 86
3.741432135 -31.945461765 0.029228528 47 255 81
3.735851783 -32.041921677 0.041648884 62 255 75
3.732619450 -32.138622602 0.047551577 69 255 72
3.732527720 -32.235650084 0.044736031 66 255 73
3.732430420 -32.332677698 0.041937113 62 255 75
3.730134895 -32.429474580 0.045242471 66 255 73
3.728264229 -32.526315381 0.047369458 66 255 73
3.728966828 -32.623428439 0.042353214 62 255 75
3.731832409 -32.720773050 0.031332781 51 255 80
3.735590802 -32.818216019 0.017834633 33 255 88
3.737256248 -32.915438284 0.010148498 25 255 91
3.734551082 -33.012192377 0.014598236 29 255 89
3.731342991 -33.108890877 0.020445535 36 255 86
3.731728000 -33.205977043 0.016317950 33 255 88
3.734085548 -33.303278790 0.006714820 22 255 92
3.735294167 -33.400457756 0.000302787 15 255 96
3.733891565 -33.497352480 0.001141913 15 255 96
3.731357253 -33.594122546 0.005124419 18 255 94
3.729651765 -33.690982853 0.006806897 22 255 92
3.727835534 -33.787830383 0.008798047 25 255 91
3.724252731 -33.884481132 0.015695332 33 255 88
3.718287651 -33.980864458 0.029208337 47 255 81
3.717242659 -34.077794128 0.029061745 47 255 81
3.710234050 -34.174054672 0.045474686 66 255 73
3.704455805 -34.270449137 0.058472738 80 255 67
3.698974955 -34.366873548 0.070646324 95 255 60
3.695643616 -34.463538184 0.076852857 102 255 57
3.699077965 -34.560970541 0.064274968 87 255 64
3.709656027 -34.659221554 0.031862862 51 255 80
3.713512115 -34.756711793 0.018116103 33 255 88
3.713923739 -34.853810058 0.013934426 29 255 89
3.710569786 -34.950475365 0.020209547 36 255 86
3.713907255 -35.047912777 0.007906171 22 255 92
3.712418704 -35.144793534 0.009004092 25 255 91
3.713057740 -35.241921634 0.004195602 18 255 94
3.713266560 -35.339000759 0.000582828 15 255 96
3.712810456 -35.436002909 -0.001182503 15 255 96
3.711714225 -35.532930232 -0.001169234 15 255 96
3.709986221 -35.629782977 0.000599465 15 255 96
3.708822718 -35.726701986 0.000801900 15 255 96
3.709705400 -35.823863825 -0.004676175 7 255 99
3.713904599 -35.921422161 -0.019362182 0 254 108
3.712385929 -36.018301254 -0.018170067 0 254 108
3.714997628 -36.115675110 -0.028445767 0 252 117
3.709091218 -36.212027348 -0.015067619 0 254 105
3.700471058 -36.308048429 0.005847269 22 255 92
3.689876395 -36.403824699 0.032246271 51 255 80
3.684608786 -36.500240403 0.043854519 62 255 75
3.685126808 -36.597357532 0.039398464 58 255 76
3.690953244 -36.695124446 0.020203087 36 255 86
3.697642152 -36.793002332 -0.001386158 11 255 97
3.696138586 -36.889878866 -0.000225264 15 255 96
3.687330585 -36.985854137 0.021220056 36 255 86
3.679755533 -37.081975969 0.039243007 58 255 76
3.676096801 -37.178578797 0.046392193 66 255 73
3.676983214 -37.275745416 0.040921321 58 255 76
3.680750189 -37.373273204 0.027452618 44 255 83
3.682484153 -37.470550025 0.019630455 36 255 86
3.679253516 -37.567205212 0.025595608 44 255 83
3.674274372 -37.663638351 0.036417424 55 255 78
3.674573351 -37.760735648 0.032583585 51 255 80
3.679971337 -37.858480475 0.014591332 29 255 89
3.687793306 -37.956538508 -0.010131084 4 255 100
3.694945956 -38.054517956 -0.032993804 0 252 120
3.696892489 -38.151837593 -0.041398373 0 250 129
3.689776237 -38.247996500 -0.024634856 0 253 114
3.678375593 -38.343599273 0.004027596 18 255 94
3.673008919 -38.439973038 0.015935226 33 255 88
3.673626037 -38.537118252 0.011227184 25 255 91
3.675732915 -38.634458193 0.002383228 18 255 94
3.676861115 -38.731673068 -0.003741809 11 255 97
3.676245172 -38.828661753 -0.005022191 7 255 99
3.675134941 -38.925585992 -0.004928750 7 255 99
3.675344851 -39.022683631 -0.008500209 4 255 100
3.676897017 -39.119959108 -0.015798014 0 254 105
3.678521079 -39.217246066 -0.023294345 0 253 111
3.678554582 -39.314324223 -0.026372465 0 253 114
3.675957263 -39.411053458 -0.022143449 0 253 111
3.672194830 -39.507626148 -0.014677608 0 254 105
3.669687221 -39.604364512 -0.010695295 4 255 100
3.669018208 -39.701348272 -0.011817740 0 255 102
3.668159344 -39.798306774 -0.012411778 0 255 102
3.664242124 -39.894852959 -0.004511222 7 255 99
3.658366866 -39.991132110 0.008828293 25 255 91
3.655419897 -40.087804687 0.014036818 29 255 89
3.654302908 -40.184724682 0.014164430 29 255 89
3.653560256 -40.281695663 0.013253630 29 255 89
3.653920984 -40.378817779 0.009279732 25 255 91
3.656146746 -40.476196772 0.000127460 15 255 96
3.658922513 -40.573653912 -0.010551149 4 255 100
3.660783813 -40.670987836 -0.018688998 0 254 108
3.660365604 -40.768008686 -0.020495068 0 254 108
3.657602854 -40.864704813 -0.015788687 0 254 105
3.654252694 -40.961317904 -0.009449729 4 255 100
3.651997314 -41.058081894 -0.006150003 7 255 99
3.647588262 -41.154543741 0.003132187 18 255 94
3.638787263 -41.250387076 0.024613157 40 255 84
3.625399687 -41.345579468 0.058833596 80 255 67
3.620092473 -41.441901727 0.070614096 95 255 60
3.621161831 -41.539122271 0.064686308 87 255 64
3.623003556 -41.636453923 0.056614574 76 255 68
3.632058613 -41.734813203 0.028510398 47 255 81
3.637879507 -41.832719223 0.009389500 25 255 91
3.639125274 -41.929976598 0.002976225 18 255 94
3.635749299 -42.026573377 0.009400151 25 255 91
3.631206133 -42.123000629 0.019066975 36 255 86
3.630553134 -42.219985663 0.017930722 33 255 88
3.633678049 -42.317516746 0.006303058 22 255 92
3.636023977 -42.414938182 -0.003159972 11 255 97
3.634095274 -42.511741399 -0.000749673 15 255 96
3.630703956 -42.608330942 0.005724054 22 255 92
3.631089245 -42.705470044 0.001709914 15 255 96
3.632752733 -42.802797335 -0.005853130 7 255 99
3.633741070 -42.900027598 -0.011539877 0 255 102
3.635375671 -42.997354505 -0.019020421 0 254 108
3.637718552 -43.094787949 -0.028467019 0 252 117
3.639040627 -43.192072982 -0.035077282 0 251 123
3.638618667 -43.289101168 -0.036842469 0 251 123
3.636613715 -43.385894443 -0.034209817 0 251 123
3.634075798 -43.482607512 -0.030095685 0 252 117
3.631862422 -43.579367921 -0.026881746 0 253 114
3.629312186 -43.676076938 -0.022730989 0 253 111
3.625009628 -43.772521539 -0.013711986 0 255 102
3.619737829 -43.868817641 -0.001999685 11 255 97
3.616820056 -43.965465920 0.003175570 18 255 94
3.622587101 -44.063427428 -0.015770116 0 254 105
3.619992337 -44.160125150 -0.011489679 0 255 102
3.619741278 -44.257178247 -0.013717734 0 255 102
3.621823005 -44.354587757 -0.022424015 0 253 111
3.621750351 -44.451670215 -0.025145286 0 253 114
3.616407217 -44.547945444 -0.013226376 0 255 102
3.609567852 -44.643987406 0.002849673 18 255 94
3.605527453 -44.740456126 0.011152681 25 255 91
3.605940638 -44.837610388 0.007086736 22 255 92
3.608986715 -44.935173418 -0.004291140 11 255 97
3.610099687 -45.032439517 -0.010298523 4 255 100
3.608359456 -45.129263284 -0.008379695 4 255 100
3.604632470 -45.225776588 -0.000941238 15 255 96
3.599149633 -45.322013245 0.011375539 25 255 91
3.594168653 -45.418325142 0.022299605 40 255 84
3.593178615 -45.515261137 0.022139512 40 255 84
3.595941736 -45.612788374 0.011555631 25 255 91
3.598999305 -45.710365014 0.000154992 15 255 96
3.599677900 -45.807568210 -0.004636541 7 255 99
3.598227252 -45.904434848 -0.003512581 11 255 97
3.596696678 -46.001288441 -0.002165426 11 255 97
3.595068041 -46.098126007 -0.000544691 15 255 96
3.591673045 -46.194680785 0.005983646 22 255 92
3.585661650 -46.290814552 0.019780806 36 255 86
3.578990158 -46.386838470 0.035412807 55 255 78
3.574574811 -46.483221248 0.044779128 66 255 73
3.575608369 -46.580480695 0.039011043 58 255 76
3.582319394 -46.678660065 0.017473538 33 255 88
3.585197278 -46.776223883 0.006584616 22 255 92
3.576909126 -46.871975982 0.026713403 44 255 83
3.563474238 -46.966884063 0.061139988 84 255 65
3.558583525 -47.063177776 0.071834110 95 255 60
3.384587097 -67.038207548 -0.015357104 0 254 105
3.389959454 -67.136696230 -0.032937812 0 252 120
3.393638096 -67.234777794 -0.045809986 0 250 132
3.390717394 -67.331255059 -0.040339104 0 250 129
3.388076561 -67.427799136 -0.035644873 0 251 123
3.388327060 -67.525048621 -0.038985528 0 251 126
3.391031445 -67.622899767 -0.049145294 0 249 135
3.393547618 -67.720707607 -0.058780810 0 248 144
3.392805118 -67.817717922 -0.059358076 0 248 144
3.389519088 -67.914102840 -0.052864690 0 249 138
3.386469376 -68.010544205 -0.047026916 0 249 135
3.384291358 -68.107199049 -0.043610730 0 250 132
3.381339126 -68.203661664 -0.038041484 0 251 126
3.377165021 -68.299820367 -0.029074931 0 252 117
3.372842384 -68.395939801 -0.019694318 0 254 108
3.368680560 -68.492096591 -0.010759448 4 255 100
3.363834639 -68.588080843 0.000078056 15 255 96
3.360084579 -68.684335027 0.007870895 22 255 92
3.360426156 -68.781607597 0.004292405 18 255 94
3.367420198 -68.880542965 -0.017775227 0 254 108
3.374951380 -68.979618856 -0.041334725 0 250 129
3.376091291 -69.077099852 -0.047128762 0 249 135
3.374750234 -69.173959878 -0.046025845 0 250 132
3.372787729 -69.270663438 -0.043194438 0 250 129
3.370046875 -69.367170319 -0.038198418 0 251 126
3.367355879 -69.463688418 -0.033339780 0 252 120
3.368770033 -69.561241719 -0.039890237 0 251 126
3.373668776 -69.659678034 -0.056125004 0 248 141
3.377148857 -69.757759584 -0.068415458 0 246 153
3.376429079 -69.854779295 -0.069031185 0 246 153
3.370821640 -69.950557598 -0.056060332 0 248 141
3.361544421 -70.045398697 -0.032887938 0 252 120
3.351482899 -70.140033574 -0.007534228 7 255 99
3.345278951 -70.235645857 0.007098455 22 255 92
3.347054971 -70.333293556 -0.000448445 15 255 96
3.355583318 -70.432671659 -0.026762748 0 253 114
3.364920965 -70.532264532 -0.055325464 0 248 141
3.370267407 -70.630840712 -0.072793255 0 245 159
3.368679564 -70.727638904 -0.070985540 0 246 156
3.360321744 -70.822693416 -0.050358899 0 249 138
3.350829641 -70.917449746 -0.026578116 0 253 114
3.346500567 -71.013532939 -0.017147207 0 254 105
3.347383009 -71.110961496 -0.022201067 0 253 111
3.347886992 -71.208293454 -0.026201798 0 253 114
3.346848533 -71.305226421 -0.025913962 0 253 114
3.345224164 -71.402007123 -0.023996334 0 253 114
3.345214388 -71.499207422 -0.026565499 0 253 114
3.347271151 -71.596946946 -0.034877732 0 251 123
3.349141510 -71.694640163 -0.042670686 0 250 129
3.348660079 -71.791720957 -0.043925337 0 250 132
3.345177840 -71.888016751 -0.036837592 0 251 123
3.341070934 -71.984146887 -0.028012272 0 252 117
3.334743319 -72.079691695 -0.013012887 0 255 102
3.335364582 -72.177059096 -0.017327908 0 254 105
3.330280513 -72.272925724 -0.005782736 7 255 99
3.331057751 -72.370334513 -0.010528968 4 255 100
3.334532580 -72.468456904 -0.022772528 0 253 111
3.334495222 -72.565654038 -0.025252121 0 253 114
3.330219582 -72.661729590 -0.015949356 0 254 105
3.326172363 -72.757863177 -0.007280315 7 255 99
3.323690680 -72.854410163 -0.002961810 11 255 97
3.323135837 -72.951468446 -0.003998203 11 255 97
3.327271875 -73.049776426 -0.018072831 0 254 108
3.334691681 -73.148964203 -0.041274347 0 250 129
3.333704129 -73.245912749 -0.041104472 0 250 129
3.338196701 -73.344327189 -0.056166789 0 248 141
3.340906307 -73.442268217 -0.066271777 0 246 153
3.339537326 -73.539117940 -0.065038143 0 247 150
3.330626742 -73.633941317 -0.042839432 0 250 129
3.324962326 -73.729631914 -0.029663044 0 252 117
3.317439864 -73.824818309 -0.011320449 0 255 102
3.312094224 -73.920586978 0.000972306 15 255 96
3.307359561 -74.016517361 0.011567909 25 255 91
3.307798373 -74.113844653 0.007783491 22 255 92
3.317695730 -74.213735897 -0.022292695 0 253 111
3.326847652 -74.313433234 -0.050295631 0 249 138
3.327507406 -74.410830810 -0.054690837 0 248 141
3.325317025 -74.507454087 -0.051162022 0 249 138
3.326737426 -74.605060351 -0.057669360 0 248 144
3.332332582 -74.703807667 -0.075780651 0 245 159
3.330457130 -74.800518573 -0.073123776 0 245 159
3.330575949 -74.897774517 -0.076009472 0 245 162
3.328579294 -74.994451584 -0.073013303 0 245 159
3.320399023 -75.089430953 -0.052826394 0 249 138
3.314794206 -75.185112521 -0.039797615 0 251 126
3.311652661 -75.281468388 -0.033615169 0 252 120
3.308515512 -75.377823795 -0.027443737 0 252 117
3.304421565 -75.473913496 -0.018611315 0 254 108
3.301060391 -75.570203289 -0.011814700 0 255 102
3.299959368 -75.667116691 -0.011299862 0 255 102
3.300563546 -75.764502525 -0.015524133 0 254 105
3.302337736 -75.862214245 -0.022999764 0 253 111
3.305459589 -75.960302568 -0.034220628 0 251 123
3.307965989 -76.058222776 -0.043729448 0 250 132
3.306881325 -76.155144998 -0.043254257 0 250 129
3.303519107 -76.251431606 -0.036446452 0 251 123
3.300995204 -76.347950614 -0.031967901 0 252 120
3.299849647 -76.444854094 -0.031319867 0 252 120
3.298918653 -76.541817554 -0.031267125 0 252 120
3.297318014 -76.638593154 -0.029351627 0 252 117
3.295934868 -76.735429372 -0.028039561 0 252 117
3.296221261 -76.832734987 -0.031367568 0 252 120
3.297940666 -76.930445289 -0.038678137 0 251 126
3.298986505 -77.027967632 -0.044115060 0 250 132
3.297664241 -77.124822531 -0.042967553 0 250 129
3.295187068 -77.221350448 -0.038608237 0 251 126
3.293400286 -77.318072766 -0.036167000 0 251 123
3.293516223 -77.415334167 -0.039014126 0 251 126
3.295593875 -77.513153602 -0.047313655 0 249 135
3.299063671 -77.611371336 -0.059482198 0 248 144
3.301116930 -77.709189038 -0.067711624 0 246 153
3.298257500 -77.805607991 -0.062282557 0 247 147
3.291173820 -77.900819129 -0.045108784 0 250 132
3.283817325 -77.995947538 -0.027175317 0 252 117
3.282554159 -78.092815840 -0.026180263 0 253 114
3.286839877 -78.191274959 -0.040610148 0 250 129
3.289200658 -78.289185431 -0.049687495 0 249 135
3.285997084 -78.385498691 -0.043294515 0 250 129
3.280552472 -78.481165057 -0.030670117 0 252 120
3.277303505 -78.577460914 -0.024148515 0 253 114
3.278386033 -78.675005327 -0.029667565 0 252 117
3.281193624 -78.773049926 -0.039981257 0 251 126
3.279019454 -78.869655569 -0.036444125 0 251 123
3.273241252 -78.965215784 -0.022886282 0 253 111
3.269252985 -79.061291722 -0.014303387 0 254 105
3.267474431 -79.158007429 -0.011862493 0 255 102
3.267790522 -79.255331975 -0.015243744 0 254 105
3.271612919 -79.353679066 -0.028371737 0 252 117
3.277813622 -79.452723671 -0.048110548 0 249 135
3.281619520 -79.551074211 -0.061190411 0 247 147
3.283247905 -79.648791482 -0.068215395 0 246 153
3.284368162 -79.746361917 -0.073826570 0 245 159
3.283756528 -79.843426028 -0.074621706 0 245 159
3.278929018 -79.939252372 -0.063694963 0 247 150
3.272068090 -80.034477819 -0.047113803 0 249 135
3.265799419 -80.129873097 -0.032177955 0 252 120
3.261553271 -80.225860552 -0.022863789 0 253 111
3.262422968 -80.323355666 -0.027771282 0 252 117
3.269824603 -80.422782919 -0.050837482 0 249 138
3.278208211 -80.522507232 -0.076632613 0 245 162
3.282726114 -80.621093116 -0.091679325 0 243 174
3.283075683 -80.718446307 -0.095136214 0 242 177
3.281436383 -80.815209561 -0.093062526 0 242 177
3.278134855 -80.911477760 -0.086366345 0 243 171
3.272595601 -81.007077548 -0.073447653 0 245 159
3.266164493 -81.102407784 -0.058048190 0 248 144
3.261001524 -81.198112546 -0.046173171 0 250 132
3.258356212 -81.294566964 -0.041296544 0 250 129
3.257710151 -81.391618717 -0.041977073 0 250 129
3.259955642 -81.489537639 -0.050695584 0 249 138
3.263043513 -81.587711904 -0.061754953 0 247 147
3.262759065 -81.684875601 -0.063437357 0 247 150
3.258110050 -81.780726200 -0.052984059 0 249 138
3.251687828 -81.876039583 -0.037599590 0 251 126
3.248370888 -81.972285743 -0.030847338 0 252 120
3.249626569 -82.069911587 -0.036806936 0 251 123
3.251738154 -82.167798047 -0.045145010 0 250 132
3.249773038 -82.264452045 -0.042147631 0 250 129
3.243039529 -82.359659097 -0.025891636 0 253 114
3.236898856 -82.455041718 -0.011282640 0 255 102
3.235886567 -82.551979627 -0.010930769 4 255 100
3.237505440 -82.649718504 -0.017893110 0 254 108
3.237972082 -82.747108130 -0.021650757 0 253 111
3.235424006 -82.843578735 -0.017025423 0 254 105
3.236950596 -82.941293282 -0.023727704 0 253 111
3.232465396 -83.037170274 -0.013714195 0 255 102
3.233137924 -83.134624660 -0.018039579 0 254 108
3.230451540 -83.231049961 -0.013024950 0 255 102
3.234625521 -83.329580939 -0.027083161 0 253 114
3.235445880 -83.427084569 -0.031816071 0 252 120
3.234083055 -83.523917355 -0.030477842 0 252 120
3.231712566 -83.620439170 -0.026336782 0 253 114
3.230301957 -83.717256169 -0.024863326 0 253 114
3.232069519 -83.815055032 -0.032225107 0 252 120
3.236369256 -83.913639531 -0.046626068 0 250 132
3.238915443 -84.011684771 -0.056150404 0 248 141
3.238302182 -84.108752610 -0.056889192 0 248 144
3.235638411 -84.205183825 -0.051925640 0 249 138
3.231936154 -84.301290767 -0.044073511 0 250 132
3.235114626 -84.399537982 -0.055351187 0 248 141
3.231429359 -84.495648614 -0.047543922 0 249 135
3.226623214 -84.591407267 -0.036618971 0 251 123
3.221033474 -84.686918056 -0.023514098 0 253 111
3.216047107 -84.782614059 -0.012085611 0 255 102
3.213384667 -84.879035001 -0.007117357 7 255 99
3.213791660 -84.976417410 -0.010682189 4 255 100
3.216153161 -85.074414678 -0.019680193 0 254 108
3.217499683 -85.172095333 -0.025854986 0 253 114
3.216456982 -85.269025553 -0.025385570 0 253 114
3.216561740 -85.366317382 -0.028105399 0 252 117
3.218889050 -85.464311439 -0.037003713 0 251 126
3.220513210 -85.562085825 -0.043945812 0 250 132
3.217593941 -85.658424792 -0.038254026 0 251 126
3.210248732 -85.753360310 -0.020254950 0 254 108
3.204273434 -85.848725339 -0.006063592 7 255 99
3.204282114 -85.945986524 -0.008509209 4 255 100
3.209950281 -86.045047616 -0.026689643 0 253 114
3.216801898 -86.144490467 -0.048159484 0 249 135
3.220182405 -86.242833152 -0.059976901 0 247 147
3.217759216 -86.339327427 -0.055656161 0 248 141
3.210154048 -86.434165197 -0.036925850 0 251 126
3.199242197 -86.527940249 -0.009000093 4 255 100
3.191354465 -86.622675984 0.010518424 25 255 91
3.191486889 -86.719977625 0.007738159 22 255 92
3.196286124 -86.818778058 -0.008017013 4 255 100
3.201258540 -86.917638555 -0.024252583 0 253 114
3.201727109 -87.015054461 -0.027964035 0 252 117
3.199154693 -87.111491819 -0.023218821 0 253 111
3.197052700 -87.208079634 -0.019780431 0 254 108
3.195220091 -87.304753530 -0.017089880 0 254 105
3.193144021 -87.401348019 -0.013721190 0 255 102
3.190902903 -87.497888200 -0.009892387 4 255 100
3.188774470 -87.594463885 -0.006375718 7 255 99
3.187387730 -87.691279285 -0.004920169 7 255 99
3.187317127 -87.788521855 -0.007123018 7 255 99
3.186790009 -87.885616615 -0.008055333 4 255 100
3.184331941 -87.982082955 -0.003617352 11 255 97
3.179973945 -88.077928759 0.006104691 22 255 92
3.175426948 -88.173710233 0.016353482 33 255 88
3.172406741 -88.269987808 0.022358132 40 255 84
3.171970369 -88.367109053 0.021179425 36 255 86
3.175386905 -88.465492609 0.009288560 25 255 91
3.183428231 -88.565396033 -0.015460784 0 254 105
3.193199319 -88.665874231 -0.045018752 0 250 132
3.197087642 -88.764427094 -0.058218060 0 248 144
3.191714604 -88.859936047 -0.045664153 0 250 132
3.183570013 -88.954528475 -0.025402434 0 253 114
3.178991941 -89.050291712 -0.015056545 0 254 105
3.178406236 -89.147370501 -0.015810661 0 254 105
3.179165102 -89.244894071 -0.020302338 0 254 108
3.179893558 -89.342408866 -0.024708291 0 253 114
3.179128510 -89.439430015 -0.024960204 0 253 114
3.174690857 -89.535232849 -0.014998792 0 254 105
3.167934245 -89.630262736 0.001412020 15 255 96
3.163903515 -89.726194570 0.010244371 25 255 91
3.164477958 -89.823657147 0.006272576 22 255 92
3.166643198 -89.921651086 -0.002121503 11 255 97
3.166116543 -90.018749147 -0.003029201 11 255 97
3.164212700 -90.115387425 -0.000106233 15 255 96
3.164484398 -90.212752566 -0.003231525 11 255 97
3.163508482 -90.309700866 -0.002886446 11 255 97
3.162107367 -90.406506579 -0.001357851 11 255 97
3.163492405 -90.504246981 -0.007575456 7 255 99
3.167893960 -90.603002690 -0.022179865 0 253 111
3.170043413 -90.701004925 -0.030520756 0 252 120
3.168955516 -90.797919285 -0.029858440 0 252 117
3.166914978 -90.894512325 -0.026545947 0 253 114
3.162902011 -90.990438729 -0.017747539 0 254 108
3.155474906 -91.085209034 0.000545774 15 255 96
3.150018294 -91.180640950 0.013360975 29 255 89
3.152038354 -91.278601647 0.005386926 22 255 92
3.159074333 -91.378265376 -0.016533802 0 254 105
3.167316170 -91.478344560 -0.041806539 0 250 129
3.172999207 -91.577561190 -0.059962856 0 247 147
3.172234553 -91.674589193 -0.060188817 0 247 147
3.166814322 -91.770031545 -0.047467719 0 249 135
3.161703551 -91.865575948 -0.035605924 0 251 123
3.159430443 -91.962085849 -0.031633699 0 252 120
3.158181741 -92.058944808 -0.030508891 0 252 120
3.154965809 -92.155130404 -0.023912535 0 253 111
3.150440276 -92.250865630 -0.013673305 0 255 102
3.149031876 -92.347667010 -0.012100845 0 255 102
3.153637605 -92.446532713 -0.027251047 0 252 117
3.159602681 -92.545869856 -0.046180121 0 250 132
3.159354496 -92.643074428 -0.047830452 0 249 135
3.152757714 -92.738092636 -0.031825631 0 252 120
3.145518086 -92.832884774 -0.014031961 0 255 102
3.140394317 -92.928402498 -0.002120786 11 255 97
3.144186355 -93.026998451 -0.015001344 0 254 105
3.143991766 -93.124218624 -0.016794790 0 254 105
3.145261810 -93.221946674 -0.022659899 0 253 111
3.144129241 -93.318843228 -0.021842671 0 253 111
3.141186572 -93.415111208 -0.015990737 0 254 105
3.143117532 -93.513071418 -0.023690214 0 253 111
3.144633018 -93.610889249 -0.030233179 0 252 117
3.148138584 -93.709402111 -0.042309017 0 250 129
3.141252732 -93.804294883 -0.025487106 0 253 114
3.133219146 -93.898782386 -0.005472306 7 255 99
3.119616650 -93.991318226 0.030029940 47 255 81
3.109931642 -94.085214832 0.054639618 76 255 68
3.105726822 -94.181024049 0.064011029 87 255 64
3.108773088 -94.279373128 0.053219488 73 255 70
3.118034020 -94.379906649 0.025147060 44 255 83
3.127553176 -94.480538723 -0.003642315 11 255 97
3.133018556 -94.579752776 -0.021157621 0 253 111
3.134660372 -94.677625203 -0.028039024 0 252 117
3.133074610 -94.774361701 -0.025943839 0 253 114
3.130214036 -94.870647740 -0.020302393 0 254 108
3.129910725 -94.967835792 -0.021771154 0 253 111
3.132442476 -95.066027067 -0.031122670 0 252 120
3.133950676 -95.163858549 -0.037626669 0 251 126
3.130807897 -95.260043227 -0.031195717 0 252 120
3.124630136 -95.355149180 -0.016323648 0 254 105
3.120742970 -95.451064780 -0.007820230 4 255 100
3.122169167 -95.548867654 -0.014091483 0 255 102
3.125705783 -95.647423646 -0.026230416 0 253 114
3.126472591 -95.744995889 -0.030665659 0 252 120
3.123537661 -95.841248686 -0.024805574 0 253 114
3.121554357 -95.937839796 -0.021590672 0 253 111
3.125701365 -96.036621974 -0.035422407 0 251 123
3.132933059 -96.136512151 -0.057831218 0 248 144
3.136863558 -96.235225681 -0.071058569 0 246 156
3.136154749 -96.332278763 -0.071383263 0 246 156
3.134882397 -96.429129614 -0.070139614 0 246 156
3.133200489 -96.525832939 -0.067755837 0 246 153
3.129987259 -96.621984582 -0.061112385 0 247 147
3.127025066 -96.718224865 -0.055165849 0 248 141
3.126828643 -96.815460973 -0.056909539 0 248 144
3.126936619 -96.912807502 -0.059498570 0 248 144
3.125517909 -97.009603042 -0.057840803 0 248 144
3.123547734 -97.106198655 -0.054648261 0 248 141
3.122118144 -97.202989212 -0.052957869 0 249 138
3.122244796 -97.300343572 -0.055594129 0 248 141
3.123368639 -97.398060628 -0.061002357 0 247 147
3.122766862 -97.495152260 -0.061610545 0 247 147
3.116578500 -97.590212193 -0.046681464 0 249 135
3.105408855 -97.683454360 -0.017898353 0 254 108
3.095831590 -97.777268994 0.006457676 22 255 92
3.092719700 -97.873435936 0.012834869 29 255 89
3.095861043 -97.971885168 0.001823110 15 255 96
3.100041006 -98.070717251 -0.012075886 0 255 102
3.101991167 -98.168737065 -0.019772675 0 254 108
3.102323922 -98.266166423 -0.022970307 0 253 111
3.102168701 -98.363417723 -0.024809708 0 253 114
3.102901578 -98.460995665 -0.029117735 0 252 117
3.105513419 -98.559265478 -0.038649995 0 251 126
3.107952546 -98.657474423 -0.047700778 0 249 135
3.107445816 -98.754600862 -0.048557953 0 249 135
3.104900977 -98.850976094 -0.043745946 0 250 132
3.102724410 -98.947485966 -0.039956916 0 251 126
3.103541462 -99.045100935 -0.044492007 0 250 132
3.107350983 -99.143824033 -0.057348054 0 248 144
3.110085790 -99.242152811 -0.067214138 0 246 153
3.110735652 -99.339711594 -0.071280780 0 246 156
3.109984626 -99.436751777 -0.071450342 0 246 156
3.106998375 -99.532961859 -0.065402488 0 247 150
3.101999136 -99.628421885 -0.053755240 0 248 141
3.098411635 -99.724404151 -0.046032882 0 250 132
3.099077577 -99.821969013 -0.050138347 0 249 138
3.102105855 -99.920416092 -0.060812417 0 247 147
3.102231258 -100.017782415 -0.063412282 0 247 150
3.094913633 -100.112367876 -0.045311500 0 250 132
3.085619884 -100.206209081 -0.021713749 0 253 111
3.081647757 -100.302036700 -0.012914535 0 255 102
3.081977628 -100.399474646 -0.016078282 0 254 105
3.082479489 -100.496978049 -0.019719175 0 254 108
3.081844732 -100.594055533 -0.020197874 0 254 108
3.082118235 -100.691474725 -0.023201341 0 253 111
3.081295145 -100.788482013 -0.023153916 0 253 111
3.077995261 -100.884556065 -0.016217130 0 254 105
3.073655009 -100.980235822 -0.006385788 7 255 99
3.072137382 -101.076978643 -0.004403229 11 255 97
3.076979632 -101.176124718 -0.020106933 0 254 108
3.082722288 -101.275615841 -0.038313605 0 251 126
3.082818911 -101.372973737 -0.040816938 0 250 129
3.076677202 -101.467967338 -0.025969633 0 253 114
3.068144541 -101.562049506 -0.004471599 7 255 99
3.062542339 -101.657238990 0.008877734 25 255 91
3.066219961 -101.755953634 -0.003580030 11 255 97
3.078782617 -101.858053873 -0.040746983 0 250 129
3.092285119 -101.960522552 -0.080526603 0 244 165
3.099161116 -102.060474785 -0.101875987 0 241 186
3.096140507 -102.156654380 -0.095700575 0 242 180
3.089093034 -102.251293270 -0.078324751 0 245 162
3.082485197 -102.346095580 -0.062170380 0 247 147
3.078036224 -102.441720218 -0.052018874 0 249 138
3.075246654 -102.537978210 -0.046481196 0 250 132
3.072933945 -102.634417693 -0.042268541 0 250 129
3.071938688 -102.731362103 -0.041718726 0 250 129
3.071700453 -102.828597476 -0.043273121 0 250 129
3.066143195 -102.923786092 -0.030033315 0 252 117
3.043796123 -103.012502422 0.029902916 47 255 81
3.000395441 -103.093082663 0.148394514 182 255 22
2.941300333 -103.264851231 0.308326897 248 223 0
2.920685773 -103.354157754 0.363450921 255 205 0
2.915550212 -103.449442547 0.375525763 255 194 0
2.908963844 -103.544161718 0.391636842 255 180 0
2.903192540 -103.639192687 0.405482262 255 169 0
2.898822586 -103.734764083 0.415431412 255 161 0
2.897498909 -103.831516978 0.416909328 255 161 0
2.899380001 -103.929516566 0.409475175 255 166 0
2.902111501 -104.027849492 0.399676992 255 175 0
2.902928681 -104.125438778 0.395204173 255 177 0
2.900551419 -104.221782601 0.399617071 255 175 0
2.896419331 -104.317439685 0.408911780 255 166 0
2.892044082 -104.412999141 0.418883984 255 158 0
2.889289418 -104.509190229 0.424350118 255 153 0
2.891685910 -104.607398181 0.415490696 255 161 0
2.898220434 -104.707231588 0.395123463 255 177 0
2.901101832 -104.805636477 0.384917704 255 186 0
2.899103755 -104.902126701 0.388284254 255 183 0
2.896298244 -104.998298413 0.393897689 255 180 0
2.891832039 -105.093814711 0.404131168 255 172 0
2.882753444 -105.187510312 0.427194230 255 150 0
2.875873546 -105.282066986 0.444143322 255 137 0
2.882097097 -105.381793598 0.424649093 255 153 0
2.905561991 -105.585622546 0.355020412 254 210 0
2.914904702 -105.686605048 0.326854357 251 217 0
2.908767513 -105.781458495 0.341743556 252 213 0
2.896938090 -105.874049017 0.372465783 255 196 0
2.884122968 -105.966239529 0.405930824 255 169 0
2.872320628 -106.058823484 0.436580299 255 145 0
2.865719827 -106.153469109 0.452763917 255 131 0
2.867370137 -106.251397270 0.445999759 255 137 0
2.873526252 -106.351124042 0.426704672 255 153 0
2.873111982 -106.448233692 0.425685104 255 153 0
2.864222947 -106.541957789 0.448237814 255 134 0
2.856453040 -106.636123220 0.467679102 255 117 0
2.855790843 -106.733128473 0.467352671 255 117 0
2.858535559 -106.831498926 0.457551638 255 126 0
2.859751178 -106.929258858 0.452004708 255 131 0
2.857729464 -107.025720732 0.455463082 255 128 0
2.858165829 -107.123169420 0.452085870 255 131 0
2.862765861 -107.222293777 0.437129224 255 142 0
2.869573559 -107.322311119 0.416033446 255 161 0
2.878045828 -107.423005133 0.390309076 255 183 0
2.888808853 -107.524630324 0.358214475 255 209 0
2.896765713 -107.625131415 0.333925952 252 215 0
2.884847409 -107.717606858 0.364918354 255 205 0
2.868594068 -107.808320100 0.407969336 255 166 0
2.857978924 -107.901304428 0.435339763 255 145 0
2.856166610 -107.997848983 0.438227520 255 142 0
2.860321862 -108.096813713 0.424518441 255 153 0
2.866155246 -108.196463702 0.406143012 255 169 0
2.868989655 -108.294899862 0.396110011 255 177 0
2.858978651 -108.388112818 0.421806096 255 156 0
2.837448427 -108.476627778 0.479542839 255 107 0
2.825969892 -108.569223936 0.509323290 255 84 11
2.827819244 -108.667249586 0.502034848 255 88 3
2.837031287 -108.768284055 0.474269006 255 112 0
2.849801862 -108.870780835 0.436606649 255 145 0
2.851557987 -108.968781513 0.429580979 255 150 0
2.844969510 -109.063366764 0.445766135 255 137 0
2.837154182 -109.157444648 0.465364883 255 120 0
2.831791848 -109.252523607 0.478142085 255 109 0
2.835139844 -109.351176297 0.466693481 255 117 0
2.829438786 -109.446112346 0.480415195 255 107 0
2.822142529 -109.540388259 0.498575039 255 90 0
2.815391074 -109.634883544 0.515220784 255 80 18
2.813181002 -109.731246340 0.519236222 255 78 22
2.817068808 -109.830124129 0.506292032 255 86 7
2.822464866 -109.929628435 0.489153909 255 98 0
2.819857842 -110.025829153 0.494276961 255 96 0
2.827928269 -110.126446489 0.469702590 255 115 0
2.837195700 -110.227566394 0.441799998 255 139 0
2.838087337 -110.325221947 0.437195257 255 142 0
2.832064517 -110.420009822 0.451823797 255 131 0
2.827569899 -110.515428346 0.462202948 255 123 0
2.829103288 -110.613349833 0.455816750 255 128 0
2.824932374 -110.708899664 0.465297919 255 120 0
2.814433024 -110.801811320 0.492382511 255 96 0
2.809067731 -110.896855631 0.505188214 255 86 7
2.810920766 -110.994908164 0.497917649 255 93 0
2.810805047 -111.092140539 0.496124262 255 93 0
2.805165382 -111.187064393 0.509696691 255 84 11
2.795474675 -111.280289590 0.534538174 255 69 40
2.786286339 -111.373718310 0.557983573 255 55 66
2.783860967 -111.469975333 0.562619184 255 53 69
2.788321906 -111.569120223 0.548101858 255 61 55
2.788661685 -111.666538547 0.545048614 255 63 51
2.780923352 -111.760562373 0.564465666 255 51 73
2.770173104 -111.853313724 0.592261554 255 35 102
2.760747392 -111.946615142 0.616374513 255 20 131
2.756151040 -112.041945345 0.627055855 255 14 142
2.757768771 -112.139894069 0.620453920 255 18 135
2.763108355 -112.239416165 0.603500819 255 27 117
2.767253237 -112.338438059 0.589871945 255 35 102
2.769032368 -112.436463003 0.582824573 255 39 95
2.776672352 -112.536971385 0.559476399 255 55 66
2.786357881 -112.638353110 0.530439705 255 73 33
