ply
format ascii 1.0
comment coordinate_system ground
comment units millimeter
element vertex 1248
property double x
property double y
property double z
property uchar red
property uchar green
property uchar blue
comment color_mapping zg_high_contrast_from_zg
comment color_zg_range_mm -0.165988826 0.527017984
end_header
6.404439176 147.051062913 0.323094593 255 169 0
6.407120257 146.956175871 0.310517000 255 180 0
6.408047184 146.860238140 0.302751004 255 188 0
6.405406786 146.762169678 0.304769272 255 188 0
6.401730027 146.663483928 0.309630982 255 183 0
6.397402821 146.564412066 0.316277852 255 175 0
6.391667967 146.464503815 0.326786578 255 164 0
6.384072198 146.363490955 0.342400395 255 150 0
6.378190898 146.263502500 0.353313653 255 139 0
6.376017643 146.165721706 0.354058593 255 137 0
6.376612564 146.069585988 0.347212645 255 145 0
6.378297520 145.974095830 0.337378167 255 156 0
6.379093187 145.878075523 0.329983759 255 161 0
6.378697246 145.781346799 0.325858663 255 166 0
6.378315980 145.684625870 0.321694447 255 169 0
6.376982206 145.587339914 0.320143869 255 172 0
6.373627333 145.488857539 0.324137936 255 166 0
6.367843668 145.388939877 0.334795045 255 158 0
6.359761609 145.287666750 0.351757734 255 139 0
6.351808534 145.186474703 0.368368188 255 123 0
6.357075278 145.093091971 0.348719406 255 142 0
6.358824475 144.997628769 0.338719867 255 153 0
6.354882399 144.898807413 0.344332280 255 147 0
6.359296672 144.804911701 0.327024657 255 164 0
6.360669129 144.709220272 0.318061654 255 175 0
6.359043377 144.611762226 0.317323885 255 175 0
6.354379734 144.512517608 0.324920440 255 166 0
6.358558173 144.418472085 0.308263724 255 183 0
6.356639114 144.320840834 0.308334041 255 183 0
6.357178732 144.224653035 0.301661071 255 191 0
6.357544091 144.128361427 0.295467205 255 196 0
6.357562235 144.031864814 0.290226904 255 202 0
6.356801697 143.934910815 0.287123811 255 205 0
6.355038694 143.837369292 0.286771871 255 205 0
6.352675577 143.739476790 0.288067410 255 205 0
6.351082221 143.642034983 0.287252501 255 205 0
6.349767760 143.544756169 0.285673687 255 207 0
6.345712098 143.445876390 0.291616127 255 199 0
6.338514194 143.345164696 0.306180254 255 186 0
6.329894475 143.243628013 0.324646504 255 166 0
6.324586213 143.144026696 0.334029558 255 158 0
6.327022942 143.048939389 0.322165911 255 169 0
6.329987360 142.954156237 0.308855546 255 183 0
6.324586554 142.854503528 0.318496235 255 175 0
6.316480771 142.753281211 0.335559541 255 156 0
6.310226533 142.653139497 0.347544556 255 145 0
6.306372769 142.554394999 0.352945081 255 139 0
6.304221102 142.456639805 0.353677004 255 139 0
6.303610799 142.359778795 0.350181190 255 142 0
6.304233984 142.263631831 0.343302226 255 147 0
6.306119015 142.168213942 0.332962214 255 158 0
6.309025683 142.073384693 0.319820123 255 172 0
6.309712478 141.977268283 0.312769778 255 180 0
6.305793198 141.878488116 0.318358548 255 175 0
6.299570022 141.778379067 0.330270081 255 161 0
6.295123733 141.679299157 0.337307575 255 156 0
6.295399294 141.582945096 0.331390326 255 161 0
6.298109094 141.487992872 0.318794906 255 172 0
6.297990581 141.391408151 0.313961091 255 177 0
6.294611040 141.292945017 0.318076442 255 175 0
6.291466960 141.194618735 0.321546989 255 169 0
6.291147264 141.097917514 0.317268735 255 175 0
6.292803849 141.002350875 0.307568666 255 186 0
6.291619243 140.905150465 0.305665964 255 186 0
6.284732468 140.804677838 0.319411562 255 172 0
6.276377901 140.703367561 0.337186402 255 156 0
6.275905091 140.606579119 0.333334300 255 158 0
6.281305506 140.513153364 0.313366350 255 177 0
6.284478845 140.418447829 0.299510717 255 194 0
6.285744533 140.322647719 0.290891004 255 202 0
6.285855582 140.226185574 0.285440922 255 207 0
6.283442017 140.128280208 0.286920108 255 205 0
6.277531760 140.028379610 0.297996411 255 194 0
6.271142098 139.928208855 0.310389772 255 183 0
6.267903697 139.829838128 0.314136488 255 177 0
6.267845823 139.733280543 0.309155995 255 183 0
6.268795758 139.637295597 0.301410809 255 191 0
6.269491710 139.541164300 0.294363719 255 196 0
6.267418366 139.443456888 0.294917848 255 196 0
6.261623702 139.343635585 0.305686195 255 186 0
6.254078953 139.242823834 0.321259047 255 172 0
6.254556237 139.146568404 0.314816846 255 177 0
6.248068048 139.046361826 0.327492738 255 164 0
6.243251267 138.947106113 0.335582796 255 156 0
6.240317497 138.848919204 0.338506123 255 153 0
6.239737544 138.752065405 0.334970388 255 156 0
6.240642299 138.656050552 0.327360803 255 164 0
6.241846573 138.560203159 0.318930206 255 172 0
6.244455382 138.465146971 0.306645644 255 186 0
6.248488470 138.370891545 0.290452826 255 202 0
6.251082856 138.275820494 0.278209788 254 210 0
6.249207371 138.178226950 0.278236482 254 210 0
6.242177722 138.077730523 0.292411501 255 199 0
6.233358316 137.976230826 0.311500573 255 180 0
6.225574044 137.875318922 0.327749946 255 164 0
6.218230143 137.774659303 0.342792081 255 150 0
6.211524236 137.674362491 0.356084488 255 137 0
6.208911167 137.576367263 0.358143797 255 134 0
6.210255831 137.480593202 0.349340546 255 142 0
6.213374819 137.385811746 0.335667857 255 156 0
6.217377357 137.291521831 0.319570778 255 172 0
6.221476230 137.197281716 0.303210172 255 188 0
6.223694275 137.101985067 0.292013455 255 199 0
6.222349179 137.004693395 0.290598842 255 202 0
6.218971541 136.906265941 0.294764958 255 196 0
6.216580382 136.808390737 0.296224347 255 196 0
6.216275153 136.711680153 0.291958769 255 199 0
6.216330465 136.615169728 0.286704568 255 205 0
6.215299573 136.518052871 0.284433337 255 207 0
6.213590114 136.420557809 0.284026097 255 207 0
6.212224648 136.323254349 0.282675711 255 209 0
6.212074924 136.226626893 0.277988952 254 210 0
6.211549132 136.129789445 0.274335739 253 211 0
6.208325270 136.031452895 0.278090776 254 210 0
6.203339588 135.932139892 0.286683928 255 205 0
6.196960818 135.832056927 0.299103027 255 194 0
6.189605045 135.731436179 0.314205859 255 177 0
6.183360930 135.631435557 0.326258197 255 166 0
6.180377508 135.533243240 0.329359835 255 164 0
6.179236938 135.436071341 0.327403200 255 164 0
6.178316682 135.339020970 0.324842858 255 166 0
6.178985210 135.242847740 0.317921601 255 175 0
6.183478466 135.148784022 0.300500361 255 191 0
6.190928893 135.056346953 0.274960829 253 211 0
6.194933114 134.962003578 0.258884017 251 217 0
6.191600508 134.863614712 0.262952428 252 215 0
6.184145590 134.762958102 0.278340633 254 210 0
6.177661284 134.662839926 0.291065337 255 202 0
6.176441751 134.565619605 0.289335885 255 202 0
6.177806348 134.469818638 0.280512239 254 210 0
6.176794743 134.372711131 0.278214154 254 210 0
6.171560872 134.273287070 0.287510731 255 205 0
6.164900844 134.173084045 0.300724677 255 191 0
6.163949347 134.076012191 0.298265299 255 194 0
6.167283796 133.981286270 0.284038402 255 207 0
6.169034369 133.885690259 0.274161627 253 211 0
6.168951387 133.789089454 0.269320687 252 213 0
6.168506114 133.692289698 0.265475701 252 214 0
6.165960902 133.594342758 0.267398239 252 213 0
6.161007039 133.495082591 0.275936185 254 211 0
6.158009213 133.396891463 0.279104169 254 210 0
6.156843726 133.299699774 0.277241721 254 211 0
6.164292512 133.207197715 0.251724977 250 219 0
6.162792035 133.109820112 0.250784579 249 220 0
6.161016013 133.012292749 0.250602055 249 220 0
6.159690947 132.915010644 0.249182343 249 220 0
6.157308960 132.817154633 0.250666312 249 220 0
6.153122859 132.718320528 0.257105985 251 217 0
6.147711799 132.618824369 0.266911012 252 214 0
6.142163473 132.519256838 0.277094402 254 211 0
6.138360728 132.420637487 0.282485336 255 209 0
6.135948456 132.322772218 0.284058907 255 207 0
6.130173506 132.223089633 0.294868767 255 196 0
6.119478839 132.120752297 0.319191382 255 172 0
5.807029128 112.160594844 0.167597857 236 247 0
5.807662153 112.064243249 0.161046611 234 250 0
5.805992839 111.966826339 0.160831165 234 250 0
5.803689649 111.869117080 0.162361002 235 249 0
5.802749648 111.772037511 0.160141306 234 250 0
5.802283366 111.675176079 0.156619349 234 251 0
5.800120036 111.577532434 0.157767994 234 251 0
5.797604566 111.479727431 0.159886796 234 250 0
5.796458854 111.382553240 0.158237871 234 251 0
5.796771279 111.286048911 0.152577945 233 253 0
5.797332555 111.189657646 0.146234394 232 255 0
5.796253422 111.092512585 0.144405743 229 255 1
5.793262108 110.994491033 0.147839930 232 255 0
5.790245155 110.896459068 0.151345939 233 253 0
5.787386410 110.798500839 0.154417877 233 252 0
5.783971113 110.700289397 0.159022559 234 250 0
5.780821557 110.602200995 0.162897277 235 249 0
5.778668966 110.504569075 0.164029851 235 249 0
5.777394961 110.407338521 0.162745966 235 249 0
5.776761020 110.310399650 0.159701929 234 250 0
5.777583583 110.214123448 0.152650982 233 253 0
5.778710909 110.117984328 0.144762463 229 255 1
5.778441174 110.021208424 0.140719576 226 255 3
5.775156971 109.923062784 0.144973377 229 255 1
5.768913505 109.823575879 0.157372162 234 251 0
5.772197636 109.728412485 0.143552821 229 255 1
5.774830762 109.632950763 0.131526014 211 255 9
5.773216141 109.535563451 0.131190030 211 255 9
5.779816420 109.441891653 0.108247643 182 255 22
5.782421476 109.346408586 0.096301132 164 255 30
5.778683705 109.248058856 0.101811526 171 255 27
5.767715860 109.146449409 0.127221074 207 255 11
5.759954583 109.046292665 0.143807425 229 255 1
5.746709756 108.943671286 0.175486817 237 245 0
5.740213722 108.844095852 0.188594146 239 241 0
5.740381728 108.747520600 0.183362170 238 242 0
5.744598383 108.652763057 0.166988550 236 247 0
5.747455622 108.557391226 0.154357315 233 252 0
5.747246899 108.460641320 0.150165409 233 254 0
5.750063470 108.365246254 0.137648178 222 255 4
5.757781158 108.272042419 0.111642590 186 255 20
5.766461905 108.179262625 0.082987151 146 255 38
5.768091638 108.083323855 0.073739293 135 255 43
5.761450366 107.983689304 0.087257347 153 255 35
5.752762008 107.883145456 0.106411237 178 255 24
5.746064701 107.783494913 0.120086465 197 255 16
5.742084613 107.685058880 0.126284150 204 255 12
5.739843169 107.587398746 0.127697587 207 255 11
5.739332443 107.490509013 0.124348474 204 255 12
5.740582161 107.394400921 0.116154872 193 255 17
5.741588479 107.298182915 0.108632314 182 255 22
5.740763611 107.201151012 0.106151286 178 255 24
5.737546816 107.103058792 0.110255399 186 255 20
5.733866306 107.004762764 0.115637214 193 255 17
5.732400722 106.907448515 0.114923468 189 255 19
5.732830470 106.810972261 0.108993731 182 255 22
5.732842916 106.714310464 0.104213801 175 255 25
5.731116722 106.616880524 0.104220952 175 255 25
5.729636343 106.519559359 0.103552651 175 255 25
5.730373907 106.423215445 0.096780127 167 255 28
5.732117672 106.327312928 0.087238868 153 255 35
5.733129503 106.231086303 0.079713523 142 255 40
5.732677793 106.134214947 0.076218111 138 255 41
5.731481355 106.037016085 0.074773961 135 255 43
5.728334330 105.938961645 0.078700679 142 255 40
5.720661694 105.838925349 0.095087131 164 255 30
5.711174269 105.738099317 0.116471019 193 255 17
5.703049149 105.637875552 0.134106166 215 255 8
5.697808763 105.538917979 0.143801291 229 255 1
5.696243156 105.441568359 0.143381204 229 255 1
5.698212883 105.345761671 0.133229549 215 255 8
5.701766827 105.250643260 0.118717559 197 255 16
5.705235792 105.155484234 0.104440496 175 255 25
5.706679625 105.059440303 0.095739731 164 255 30
5.705345819 104.962186552 0.094687112 164 255 30
5.704945071 104.865338281 0.091066875 156 255 33
5.707044740 104.769574789 0.080563814 146 255 38
5.710663650 104.674467697 0.065879095 124 255 48
5.712625452 104.578638899 0.055757654 109 255 54
5.709449236 104.480583243 0.059783227 116 255 51
5.702290234 104.380806279 0.074775566 135 255 43
5.693905050 104.280503896 0.093145358 160 255 32
5.685972958 104.180402611 0.110269191 186 255 20
5.681063479 104.081610474 0.119072388 197 255 16
5.681358615 103.985064604 0.113546983 189 255 19
5.685533577 103.890188538 0.097340222 167 255 28
5.689408651 103.795179368 0.081960115 146 255 38
5.690015654 103.698761377 0.075579214 138 255 41
5.686997110 103.600784731 0.079182015 142 255 40
5.681074463 103.501563161 0.090782327 156 255 33
5.673210727 103.401512887 0.107728742 182 255 22
5.669516330 103.303253808 0.113196480 189 255 19
5.660142867 103.202565881 0.134302833 215 255 8
5.654786989 103.103602241 0.144348239 229 255 1
5.656020757 103.007457267 0.136250113 218 255 6
5.663753377 102.914084710 0.110258032 186 255 20
5.672461670 102.821121524 0.081580158 146 255 38
5.672312658 102.724376526 0.077292601 138 255 41
5.665852148 102.624943655 0.090385727 156 255 33
5.659572855 102.525591868 0.102981276 175 255 25
5.655560249 102.427207261 0.109336517 182 255 22
5.655797775 102.330629446 0.103989472 175 255 25
5.661472722 102.236357277 0.083670392 149 255 36
5.668849662 102.142801304 0.058665353 113 255 52
5.672043383 102.047467371 0.045180734 98 255 59
5.668523953 101.949289841 0.050183691 102 255 57
5.662861574 101.850208231 0.061089221 116 255 51
5.661523731 101.752956426 0.060087089 116 255 51
5.663838440 101.657245961 0.049027549 102 255 57
5.665741152 101.561359163 0.039103632 87 255 64
5.666547625 101.465008300 0.032199698 80 255 67
5.663383341 101.366984966 0.036232009 84 255 65
5.654078012 101.266381199 0.057177704 113 255 52
5.644124294 101.165511231 0.079910611 142 255 40
5.637713442 101.066134798 0.092888087 160 255 32
5.635028900 100.968324794 0.095604661 164 255 30
5.634011683 100.871214422 0.093730609 160 255 32
5.633380036 100.774265314 0.090795853 156 255 33
5.633926948 100.677808633 0.084616406 149 255 36
5.635503568 100.581780852 0.075602143 138 255 41
5.636452199 100.485488862 0.068318511 127 255 46
5.633692061 100.387648602 0.071250476 131 255 44
5.627567760 100.288407868 0.083449192 149 255 36
5.624631008 100.190497780 0.086870182 153 255 35
5.627087741 100.094832147 0.075437593 138 255 41
5.630782638 99.999678243 0.060595834 116 255 51
5.633064940 99.903934238 0.049645706 102 255 57
5.633730806 99.807517194 0.043148737 95 255 60
5.634848748 99.711286094 0.035407716 84 255 65
5.636519751 99.615282230 0.026144473 69 255 72
5.635204080 99.518040876 0.025108629 69 255 72
5.632416124 99.420191234 0.028129198 73 255 70
5.631162284 99.322976201 0.026925466 73 255 70
5.630204453 99.225883337 0.024907593 69 255 72
5.625720668 99.127337267 0.032602918 80 255 67
5.617318139 99.027180281 0.051093612 106 255 56
5.609700974 98.927351841 0.067422557 127 255 46
5.605104829 98.828769831 0.075431553 138 255 41
5.602620811 98.731057638 0.077623969 138 255 41
5.600832665 98.633631903 0.077900812 142 255 40
5.603270879 98.537938728 0.066537035 124 255 48
5.609116199 98.443637862 0.045789085 98 255 59
5.611688140 98.347992648 0.034058931 80 255 67
5.609537520 98.250414544 0.035338755 84 255 65
5.605403057 98.152027171 0.042084624 91 255 62
5.600657510 98.053392778 0.050515160 102 255 57
5.595601826 97.954634711 0.059801380 116 255 51
5.591808600 97.856393643 0.065611231 124 255 48
5.592584685 97.760013351 0.058835056 116 255 51
5.598218945 97.665606035 0.038676807 87 255 64
5.600745113 97.569931574 0.027081613 73 255 70
5.595964352 97.471290219 0.035616697 84 255 65
5.585295827 97.370265435 0.060372989 116 255 51
5.580026593 97.271434037 0.070256587 131 255 44
5.572495325 97.171690724 0.086373214 153 255 35
5.573406960 97.075364376 0.079231854 142 255 40
5.570045838 96.977311289 0.083862757 149 255 36
5.577365136 96.883568176 0.059070860 116 255 51
5.580978790 96.788325256 0.044488750 95 255 60
5.579983377 96.691223005 0.042605586 95 255 60
5.576667134 96.593187100 0.047117526 98 255 59
5.574268033 96.495521409 0.049103988 102 255 57
5.573288748 96.398426707 0.047180007 98 255 59
5.570466174 96.300592523 0.050335625 102 255 57
5.575823913 96.206037691 0.030954864 76 255 68
5.575073860 96.109032684 0.028402759 73 255 70
5.576374741 96.012847689 0.020201191 62 255 75
5.575235976 95.915685985 0.018722346 62 255 75
5.569735589 95.816783074 0.029261794 76 255 68
5.564642688 95.718045987 0.038679915 87 255 64
5.563825249 95.621015465 0.036319480 84 255 65
5.563323733 95.524110459 0.033089763 80 255 67
5.557862311 95.425232447 0.043527150 95 255 60
5.553596237 95.326832643 0.050672366 106 255 56
5.552462989 95.229678741 0.049186942 102 255 57
5.552095398 95.132828461 0.045593050 98 255 59
5.551700221 95.035966668 0.042076323 91 255 62
5.553239650 94.939870024 0.033230147 80 255 67
5.556264914 94.844358877 0.020290952 62 255 75
5.557251800 94.748039335 0.012969383 55 255 78
5.553980033 94.650037467 0.017383441 58 255 76
5.547775695 94.550880968 0.029879418 76 255 68
5.542207301 94.451978813 0.040624462 91 255 62
5.540026699 94.354413191 0.042035745 91 255 62
5.541599188 94.258323861 0.033106441 80 255 67
5.545610735 94.163190450 0.017457218 58 255 76
5.549315758 94.067932860 0.002653621 40 255 84
5.548007723 93.970706464 0.001665027 36 255 86
5.540561060 93.871076167 0.017593419 58 255 76
5.534004367 93.771798857 0.031070835 76 255 68
5.532240625 93.674399065 0.031341850 76 255 68
5.534158297 93.578437297 0.021469207 66 255 73
5.535480269 93.482240830 0.013239208 55 255 78
5.532393793 93.384324410 0.017158827 58 255 76
5.526980854 93.285503672 0.027490900 73 255 70
5.523743916 93.187532581 0.031827756 80 255 67
5.523848652 93.090861632 0.026956875 73 255 70
5.522635537 92.993678145 0.025718900 69 255 72
5.518941193 92.895532427 0.031320013 76 255 68
5.514475850 92.797089934 0.039047200 87 255 64
5.510652924 92.698898637 0.045005288 95 255 60
5.508394525 92.601314379 0.046652970 98 255 59
5.506529776 92.503883054 0.047217008 98 255 59
5.504495165 92.406386735 0.048250399 102 255 57
5.509575365 92.311634256 0.029676709 76 255 68
5.520353610 92.219071809 -0.004599871 29 255 89
5.226188505 72.187154898 -0.110142600 0 239 195
5.216640402 72.087451863 -0.088116901 0 243 171
5.205154794 71.987162136 -0.060741530 0 248 141
5.198948003 71.888494432 -0.047935872 0 251 126
5.194753044 71.790445039 -0.040682202 0 252 117
5.190950282 71.692517665 -0.034509836 0 253 111
5.188556991 71.595021748 -0.032226884 0 254 108
5.188751450 71.498314167 -0.037085979 0 253 114
5.191915858 71.402508102 -0.050142308 0 250 129
5.196552782 71.307145719 -0.067262430 0 247 147
5.199431245 71.211246018 -0.079527394 0 245 162
5.196963033 71.113724774 -0.077031844 0 245 159
5.188220661 71.014307673 -0.057215127 0 249 135
5.183965915 70.916251520 -0.049785175 0 250 129
5.178410520 70.817805559 -0.038763390 0 252 117
5.176686423 70.720517021 -0.038316848 0 253 114
5.180037797 70.624755807 -0.051880437 0 250 129
5.177597694 70.527251259 -0.049454953 0 251 126
5.184460435 70.432539178 -0.072710006 0 246 153
5.187874629 70.336787625 -0.086443924 0 244 168
5.184634036 70.239040918 -0.081805135 0 245 162
5.184649615 70.142269210 -0.086154367 0 244 168
5.175259003 70.042688603 -0.064534659 0 248 144
5.170627656 69.944533355 -0.056052494 0 249 135
5.170867192 69.847831272 -0.061016318 0 248 141
5.171227847 69.751164235 -0.066313392 0 247 147
5.168777245 69.653661146 -0.063848035 0 248 144
5.164126990 69.555506639 -0.055308605 0 249 135
5.159997097 69.457509038 -0.048204483 0 251 126
5.156991021 69.359846297 -0.044201748 0 251 123
5.155320570 69.262579721 -0.043885246 0 252 120
5.156202582 69.166066889 -0.050614614 0 250 129
5.158065842 69.069841800 -0.060052013 0 249 138
5.158523799 68.973200850 -0.065608392 0 248 144
5.158087278 68.876295811 -0.068694038 0 247 150
5.158023264 68.779499678 -0.072807004 0 246 153
5.157221807 68.682486579 -0.074882750 0 246 156
5.154792351 68.584996574 -0.072462403 0 246 153
5.151643104 68.487297129 -0.068053458 0 247 147
5.148969724 68.389738275 -0.064957133 0 248 144
5.147503285 68.292532717 -0.065192009 0 248 144
5.147309161 68.195698120 -0.068938659 0 247 150
5.149126881 68.099448180 -0.078239069 0 245 159
5.154548864 68.004243268 -0.097490217 0 242 180
5.162262764 67.909698472 -0.123068719 0 237 210
5.164226104 67.813480595 -0.132768154 0 235 219
5.153891691 67.713701428 -0.108510240 0 240 192
5.142466619 67.613614113 -0.081239227 0 245 162
5.135040975 67.514689108 -0.065009910 0 248 144
5.130233100 67.416523572 -0.056007451 0 249 135
5.125178284 67.318289817 -0.046321789 0 251 123
5.119125372 67.219772170 -0.033878755 0 253 111
5.113995553 67.121523381 -0.023983279 4 255 100
5.109682249 67.023511838 -0.016341122 15 255 96
5.106512644 66.925830300 -0.011855801 18 255 94
5.104906659 66.828597550 -0.011686939 18 255 94
5.104056276 66.731581034 -0.013603380 18 255 94
5.102387091 66.634330843 -0.013257601 18 255 94
5.099228291 66.536656840 -0.008797158 25 255 91
5.097356657 66.439350598 -0.007889884 25 255 91
5.101162210 66.343657742 -0.022658728 4 255 100
5.108032673 66.248830699 -0.045890249 0 251 123
5.111122999 66.152926676 -0.058682043 0 249 138
5.107122774 66.055013365 -0.051892145 0 250 129
5.096615559 65.955263750 -0.027131656 0 255 102
5.082743978 65.854572019 0.006921309 44 255 83
5.080592024 65.757192551 0.008611283 47 255 81
5.078572602 65.659851232 0.009936484 47 255 81
5.082828293 65.564274159 -0.006066559 29 255 89
5.079886803 65.466673179 -0.002192618 33 255 88
5.082126055 65.370525653 -0.012624849 18 255 94
5.087456090 65.275240708 -0.031591746 0 254 108
5.081447339 65.176781654 -0.019243467 11 255 97
5.078756576 65.079252528 -0.016057138 15 255 96
5.080789192 64.983041287 -0.025914265 0 255 102
5.083470014 64.887008151 -0.037560506 0 253 114
5.082214365 64.789877916 -0.038334083 0 253 114
5.077782063 64.691866006 -0.030333231 0 254 105
5.074198770 64.594092052 -0.024675861 4 255 100
5.072212457 64.496762154 -0.023427790 4 255 100
5.069121043 64.399127468 -0.019126382 11 255 97
5.068664869 64.302221891 -0.022101887 7 255 99
5.070160253 64.205853922 -0.030466210 0 254 105
5.070995990 64.109302418 -0.037007559 0 253 114
5.071954833 64.012783342 -0.043887805 0 252 120
5.073484645 63.916419516 -0.052343925 0 250 132
5.074446492 63.819898021 -0.059230261 0 249 138
5.072106412 63.722470961 -0.056995644 0 249 135
5.066983660 63.624284078 -0.047074072 0 251 126
5.062941897 63.526395462 -0.040136863 0 252 117
5.060902440 63.429055076 -0.038728793 0 253 114
5.060460970 63.332150549 -0.041733228 0 252 120
5.060462169 63.235365935 -0.045959185 0 251 123
5.060095502 63.138480660 -0.049167918 0 251 126
5.058683215 63.041311384 -0.049487376 0 251 126
5.056399078 62.943906352 -0.047397474 0 251 126
5.056255600 62.847081043 -0.051219156 0 250 129
5.060784424 62.751516524 -0.067945360 0 247 147
5.065650934 62.656038815 -0.085603329 0 244 168
5.065455922 62.559193931 -0.089279394 0 243 171
5.059525097 62.460806376 -0.077110731 0 245 159
5.052550834 62.362142432 -0.062058466 0 248 141
5.049124056 62.264434040 -0.056803865 0 249 135
5.049127859 62.167645851 -0.061024211 0 248 141
5.049301727 62.070902341 -0.065713181 0 248 144
5.047439874 61.973614504 -0.064777709 0 248 144
5.042320305 61.875458931 -0.054842117 0 250 132
5.033344927 61.776280145 -0.034254057 0 253 111
5.021812841 61.676427848 -0.006601901 25 255 91
5.011581710 61.576928850 0.017458106 58 255 76
5.007596867 61.479092360 0.024264784 69 255 72
5.009566568 61.382834029 0.014623688 55 255 78
5.012001203 61.286696290 0.003699306 40 255 84
5.011623170 61.189813672 0.000545905 36 255 86
5.009902017 61.092576635 0.001104024 36 255 86
5.011889301 60.996315939 -0.008581251 25 255 91
5.017811368 60.901086817 -0.029135404 0 254 105
5.023139029 60.805696450 -0.048046545 0 251 126
5.024661684 60.709304378 -0.056445160 0 249 135
5.020144099 60.611330194 -0.048156031 0 251 126
5.013024154 60.512678869 -0.032676299 0 254 108
5.009024389 60.414846076 -0.025815026 0 255 102
5.008804293 60.318000025 -0.029394327 0 254 105
5.009594141 60.221416035 -0.035762605 0 253 111
5.008252426 60.124277092 -0.036240945 0 253 114
5.002464524 60.025985399 -0.024434624 4 255 100
4.993063438 59.926761735 -0.002644725 33 255 88
4.983968407 59.827623590 0.018301138 62 255 75
4.985544471 59.731246658 0.009766839 47 255 81
4.980730718 59.633220462 0.018887261 62 255 75
4.978023369 59.535739383 0.022189447 66 255 73
4.978553352 59.439091704 0.016548730 58 255 76
4.980632699 59.342840500 0.006628503 44 255 83
4.981712893 59.246330876 -0.000530140 36 255 86
4.981607404 59.149516245 -0.004411793 29 255 89
4.982386684 59.052926988 -0.010736811 22 255 92
4.983250779 58.956358000 -0.017295050 11 255 97
4.980711886 58.858920665 -0.014449980 15 255 96
4.977078323 58.761206038 -0.008579161 25 255 91
4.976679235 58.664314924 -0.011643791 22 255 92
4.978343955 58.567946738 -0.020409516 7 255 99
4.975437266 58.470418904 -0.016543369 15 255 96
4.971859506 58.372722833 -0.010821789 22 255 92
4.966891247 58.274677662 -0.001256931 33 255 88
4.960832073 58.176360499 0.011323521 51 255 80
4.957294632 58.078681906 0.016937610 58 255 76
4.959474848 57.982442206 0.006754554 44 255 83
4.965073075 57.887057788 -0.012871771 18 255 94
4.968624081 57.791155378 -0.026840414 0 255 102
4.969524204 57.694586294 -0.033483268 0 253 111
4.968095165 57.597433931 -0.033689155 0 253 111
4.965226871 57.499922909 -0.029916924 0 254 105
4.964454061 57.402935148 -0.031933680 0 254 108
4.966821885 57.306728134 -0.042627515 0 252 120
4.968544732 57.210358412 -0.051538069 0 250 129
4.966049501 57.112940974 -0.048791922 0 251 126
4.954982445 57.013403044 -0.022358248 7 255 99
4.942519078 56.913527703 0.007935430 47 255 81
4.937746131 56.815558691 0.016979684 58 255 76
4.941131448 56.719602479 0.003481256 40 255 84
4.947785974 56.624447096 -0.019050108 11 255 97
4.951588469 56.528585392 -0.033699351 0 253 111
4.950713215 56.431572917 -0.035421168 0 253 111
4.947624502 56.334018387 -0.031025134 0 254 108
4.943898841 56.236309727 -0.024867683 4 255 100
4.941100490 56.138829474 -0.021271513 7 255 99
4.941180017 56.042051921 -0.025626992 0 255 102
4.943080972 55.945716722 -0.035014798 0 253 111
4.940893091 55.848385969 -0.033102055 0 254 108
4.931548466 55.749320194 -0.011410328 22 255 92
4.923130324 55.650485141 0.007722538 47 255 81
4.920786274 55.553124415 0.010070786 51 255 80
4.922539222 55.456753776 0.001097922 36 255 86
4.922169035 55.359869284 -0.002006389 33 255 88
4.916824866 55.261787307 0.008636593 47 255 81
4.908991313 55.163110506 0.026160657 69 255 72
4.900974336 55.064394904 0.044193080 95 255 60
4.893236324 54.965751454 0.061455992 120 255 49
4.886823763 54.867430083 0.075057206 138 255 41
4.884761967 54.770151557 0.076635565 138 255 41
4.887377176 54.673988666 0.065289185 124 255 48
4.894974163 54.579008591 0.040175520 91 255 62
4.904526443 54.484486534 0.009658798 47 255 81
4.909983112 54.388984857 -0.009537758 22 255 92
4.909766478 54.292134585 -0.013053552 18 255 94
4.907916113 54.194897399 -0.012052875 18 255 94
4.907796784 54.098069511 -0.015835265 15 255 96
4.907634317 54.001230775 -0.019497276 11 255 97
4.904142900 53.903608042 -0.013957383 18 255 94
4.896769556 53.805075205 0.002312963 40 255 84
4.888583602 53.706356618 0.020830709 66 255 73
4.881424202 53.607883891 0.036512598 84 255 65
4.883377335 53.511546274 0.027009411 73 255 70
4.879700138 53.413892228 0.033069286 80 255 67
4.878299800 53.316770787 0.032837262 80 255 67
4.876064783 53.219455458 0.034913480 84 255 65
4.872670096 53.121871713 0.040196266 91 255 62
4.871001762 53.024690100 0.040708628 91 255 62
4.872108273 52.928151374 0.033552394 80 255 67
4.873643065 52.831710021 0.025213469 69 255 72
4.873780541 52.734944309 0.020737935 62 255 75
4.873322433 52.638040526 0.017909794 58 255 76
4.873486570 52.541279425 0.013362862 55 255 78
4.871707029 52.444071167 0.014189655 55 255 78
4.863011004 52.345278133 0.034135890 80 255 67
4.850194489 52.245548050 0.065473363 124 255 48
4.845454224 52.147672014 0.074488134 135 255 43
4.544676588 32.244108232 0.093107072 160 255 32
4.539982318 32.146570961 0.102252750 175 255 25
4.528121759 32.047965518 0.131234076 211 255 9
4.518735905 31.949737271 0.153367606 233 253 0
4.515930581 31.852493863 0.157289234 234 251 0
4.516815837 31.755799163 0.150997381 233 253 0
4.517331178 31.659048306 0.145730501 232 255 0
4.515847488 31.562001357 0.145997695 232 255 0
4.513154115 31.464776766 0.149614282 233 254 0
4.510624563 31.367577516 0.152778672 233 253 0
4.508779731 31.270479675 0.154049082 233 252 0
4.508527677 31.173615045 0.150912086 233 253 0
4.510915110 31.077134232 0.140470430 226 255 3
4.510760270 30.980281574 0.137066628 218 255 6
4.505563143 30.882697822 0.147620647 232 255 0
4.499012578 30.784921731 0.161922225 235 249 0
4.496472678 30.687727824 0.165123810 235 248 0
4.500517566 30.591481452 0.150100102 233 254 0
4.506440401 30.495500405 0.129879290 211 255 9
4.508422124 30.398950670 0.120568459 197 255 16
4.505704550 30.301728670 0.124266449 204 255 12
4.501588540 30.204309139 0.131836596 215 255 8
4.498526013 30.107041385 0.136491929 218 255 6
4.495792491 30.009821738 0.140237804 226 255 3
4.490852630 29.912292228 0.150092244 233 254 0
4.491958158 29.815616086 0.143213753 229 255 1
4.486688188 29.718043983 0.153984490 233 252 0
4.486609328 29.621201370 0.150386866 233 254 0
4.491376114 29.525034098 0.133376934 215 255 8
4.489722459 29.427969122 0.134140828 215 255 8
4.493029389 29.331592935 0.121174144 200 255 14
4.491801684 29.234586006 0.120761250 197 255 16
4.494526619 29.138124664 0.109407815 182 255 22
4.487063096 29.040258498 0.126259370 204 255 12
4.480060675 28.942460548 0.141835883 226 255 3
4.475551194 28.845008322 0.150512668 233 254 0
4.474723791 28.748061230 0.148997745 233 254 0
4.476289255 28.651439620 0.140859849 226 255 3
4.476948221 28.554693045 0.135232518 218 255 6
4.475431165 28.457650763 0.135630241 218 255 6
4.472702400 28.360445382 0.139383578 222 255 4
4.469353723 28.263157917 0.144854286 229 255 1
4.468694815 28.166233123 0.142879977 229 255 1
4.470110844 28.069585661 0.135162617 218 255 6
4.471115309 27.972881452 0.128585737 207 255 11
4.471301853 27.876066913 0.124274321 204 255 12
4.470673403 27.779143372 0.122220300 200 255 14
4.467660501 27.681904193 0.126768672 207 255 11
4.463021178 27.584452076 0.135820973 218 255 6
4.457983101 27.486950310 0.145978512 232 255 0
4.454941886 27.389713437 0.150609060 233 254 0
4.455876311 27.292997844 0.144234255 229 255 1
4.458887613 27.196551481 0.132110687 215 255 8
4.460428873 27.099911005 0.124058047 204 255 12
4.460296747 27.003051753 0.120639371 197 255 16
4.460149303 26.906189860 0.117264257 193 255 17
4.459716752 26.809290591 0.114679640 189 255 19
4.457701857 26.712187666 0.116477061 193 255 17
4.454591750 26.614945277 0.121307921 200 255 14
4.451858426 26.517752605 0.125096850 204 255 12
4.449837357 26.420651920 0.126915035 207 255 11
4.448823282 26.323679808 0.125946402 204 255 12
4.448801145 26.226833210 0.122232592 200 255 14
4.448943540 26.130006620 0.118064394 193 255 17
4.448374187 26.033089650 0.115867966 193 255 17
4.446329928 25.935987438 0.117756315 193 255 17
4.443339370 25.838767746 0.122265930 200 255 14
4.441883109 25.741740766 0.122528696 200 255 14
4.442900135 25.645021386 0.115944688 193 255 17
4.444534714 25.548376947 0.107651928 182 255 22
4.442939163 25.451331694 0.108303858 182 255 22
4.437078311 25.353761921 0.120766825 197 255 16
4.430333537 25.256087410 0.135678564 218 255 6
4.425464133 25.158646681 0.145399047 232 255 0
4.424883566 25.061731867 0.143245612 229 255 1
4.428488906 24.965325537 0.129503064 211 255 9
4.432526271 24.868968036 0.114565334 189 255 19
4.436157015 24.772557569 0.100754531 171 255 27
4.439003766 24.676049167 0.089115592 156 255 33
4.439027406 24.579198989 0.085294735 149 255 36
4.435090378 24.481874175 0.092441931 160 255 32
4.429978476 24.384411494 0.102843592 175 255 25
4.425970205 24.287083154 0.110190624 186 255 20
4.422186593 24.189783736 0.116916847 193 255 17
4.415126728 24.092099486 0.132716349 215 255 8
4.405114758 23.994072323 0.156691712 234 251 0
4.395923133 23.896148316 0.178396979 238 244 0
4.390152156 23.798630667 0.190631670 239 240 0
4.388865494 23.701639457 0.190450232 239 240 0
4.391200998 23.605069362 0.180239836 238 244 0
4.396049734 23.508787793 0.163071090 235 249 0
4.401617282 23.412584727 0.143912878 229 255 1
4.406728650 23.316324156 0.126018887 204 255 12
4.410369802 23.219890323 0.112197159 186 255 20
4.411299969 23.123143109 0.105883653 178 255 24
4.408855444 23.026010026 0.108916416 182 255 22
4.405836299 22.928812816 0.113541639 189 255 19
4.405234049 22.831890600 0.111475202 186 255 20
4.405594924 22.735076681 0.106742818 178 255 24
4.403425292 22.637977354 0.109019168 182 255 22
4.398032393 22.540517939 0.120222805 197 255 16
4.394073705 22.443221957 0.127456031 207 255 11
4.392488225 22.346192208 0.128118418 207 255 11
4.397974110 22.249946742 0.109199218 182 255 22
4.394718831 22.152730733 0.114488106 189 255 19
4.390707746 22.055433250 0.121871327 200 255 14
4.389836285 21.958482485 0.120561088 197 255 16
4.392296999 21.861895884 0.110024013 182 255 22
4.394199893 21.765245872 0.101032831 171 255 27
4.392219165 21.668172066 0.102798033 175 255 25
4.387263978 21.570777265 0.112801947 186 255 20
4.383759757 21.473541884 0.118788821 197 255 16
4.381658680 21.376459124 0.120891022 197 255 16
4.378762229 21.279292084 0.125197191 204 255 12
4.375291386 21.182065242 0.131095364 211 255 9
4.371729999 21.084830670 0.137245554 222 255 4
4.367077584 20.987482544 0.146418613 232 255 0
4.362414517 20.890136088 0.155622467 233 252 0
4.359035735 20.792927427 0.161270737 234 250 0
4.357014522 20.695862760 0.163160398 235 249 0
4.355493088 20.598851025 0.163667095 235 249 0
4.354507373 20.501895385 0.162691272 235 249 0
4.355565169 20.405151402 0.156056921 233 252 0
4.358263275 20.308575122 0.144880669 229 255 1
4.361017151 20.212001748 0.133551028 215 255 8
4.361152095 20.115157238 0.129475962 211 255 9
4.356052246 20.017777645 0.139900613 222 255 4
4.349260357 19.920229161 0.155012970 233 252 0
4.344618085 19.822902834 0.164172917 235 249 0
4.345149564 19.726101342 0.159004397 234 250 0
4.350101191 19.629742997 0.141594452 226 255 3
4.351929815 19.533067366 0.132835399 215 255 8
4.346982865 19.435713668 0.142844056 229 255 1
4.341439250 19.338303696 0.154506639 233 252 0
4.342252197 19.241526443 0.148564274 233 254 0
4.346187111 19.145055656 0.133975844 215 255 8
4.348571468 19.048428788 0.123683196 204 255 12
4.348574206 18.951566306 0.119988280 197 255 16
4.346781933 18.854528113 0.121266397 200 255 14
4.344651599 18.757457707 0.123482096 200 255 14
4.343079596 18.660442154 0.124152506 204 255 12
4.339789090 18.563261524 0.129584159 211 255 9
4.333802360 18.465823994 0.142485315 226 255 3
4.329315065 18.368533548 0.151234505 233 253 0
4.330022443 18.271740126 0.145596125 232 255 0
4.335885074 18.175434030 0.125679144 204 255 12
4.343089690 18.079249369 0.102045924 175 255 25
4.347631721 17.982808097 0.085788925 153 255 35
4.347887539 17.885961243 0.081405660 146 255 38
4.344261922 17.788751470 0.087775079 153 255 35
4.338238044 17.691320978 0.100788962 171 255 27
4.332582664 17.593928411 0.112783429 186 255 20
4.331149298 17.496928276 0.113084074 189 255 19
4.332165598 17.400153163 0.106600203 178 255 24
4.329605857 17.303049870 0.110023334 182 255 22
4.322075679 17.205495667 0.127216218 207 255 11
4.312161440 17.107730522 0.151014575 233 253 0
4.303600964 17.010094296 0.171064316 236 246 0
4.298122378 16.912740641 0.182578221 238 243 0
4.294692345 16.815573609 0.188418640 239 241 0
4.292854367 16.718550202 0.189850057 239 240 0
4.293331805 16.621732727 0.184868557 238 242 0
4.295565611 16.525069174 0.175022720 237 246 0
4.298663022 16.428479054 0.162785607 235 249 0
4.300039130 16.331735158 0.155317947 233 252 0
4.298532323 16.234738247 0.155837749 233 252 0
4.295352092 16.137596554 0.160994549 234 250 0
4.292605406 16.040493972 0.164951558 235 248 0
4.292614636 15.943629693 0.161275141 234 250 0
4.295407843 15.847002955 0.149887444 233 254 0
4.298230699 15.750375840 0.138418685 222 255 4
4.299350851 15.653601347 0.131668035 211 255 9
4.299643505 15.556755344 0.127210947 207 255 11
4.299048179 15.459833697 0.125215017 204 255 12
4.295589771 15.362672130 0.131152030 211 255 9
4.298113727 15.266010813 0.120516893 197 255 16
4.294651944 15.168850438 0.126465669 207 255 11
4.295622832 15.072057823 0.120135403 197 255 16
4.294447338 14.975087355 0.119752638 197 255 16
4.301810805 14.878815302 0.095714445 164 255 30
4.303821100 14.782101134 0.086507873 153 255 35
4.298816137 14.684816350 0.096737883 167 255 28
4.301138604 14.588125427 0.086668736 153 255 35
4.298426061 14.491027922 0.090550108 156 255 33
4.296447515 14.393990346 0.092399167 160 255 32
4.293165966 14.296849953 0.097859430 167 255 28
4.289204369 14.199657515 0.105205036 178 255 24
4.285943771 14.102522521 0.110609756 186 255 20
4.285523478 14.005611743 0.108146480 182 255 22
4.287715865 13.908904176 0.098445738 167 255 28
4.289434007 13.812157379 0.090060027 156 255 33
4.290097940 13.715327132 0.084596214 149 255 36
4.292092059 13.618597769 0.075448101 138 255 41
4.287941762 13.521396564 0.083324989 149 255 36
4.290157296 13.424681801 0.073565691 135 255 43
4.289095354 13.327716622 0.072888248 135 255 43
4.289032751 13.230826710 0.069443147 127 255 46
4.284081408 13.133569970 0.079544367 142 255 40
4.282502152 13.036567491 0.080303834 142 255 40
4.284138922 12.939803833 0.072153802 131 255 44
4.285408006 12.843011043 0.065023636 124 255 48
4.281993412 12.745872930 0.070871860 131 255 44
4.276387386 12.648576745 0.082793261 146 255 38
4.274742046 12.551571596 0.083741811 149 255 36
4.282394206 12.455238306 0.058930169 116 255 51
4.309506811 12.360296164 -0.019801392 11 255 97
4.344075022 12.265865151 -0.119190268 0 238 204
4.351416743 12.169472172 -0.143139393 0 233 231
4.053541236 -7.809653283 -0.035356770 0 253 111
4.047977554 -7.906571015 -0.023289607 4 255 100
4.034826221 -8.003419950 0.009823787 47 255 81
4.028520448 -8.100321128 0.023951906 69 255 72
4.027262982 -8.197265575 0.024079329 69 255 72
4.027391191 -8.294223357 0.020364611 62 255 75
4.026612620 -8.391172821 0.019166111 62 255 75
4.023703685 -8.488100047 0.023877654 69 255 72
4.019259403 -8.585009074 0.032848943 80 255 67
4.015040280 -8.681918016 0.041196981 91 255 62
4.012776835 -8.778847333 0.044121855 95 255 60
4.010587867 -8.875776591 0.046841365 98 255 59
4.010005335 -8.972724936 0.045106301 95 255 60
4.015702618 -9.069754148 0.025953983 69 255 72
4.025679379 -9.166845028 -0.005067391 29 255 89
4.034078825 -9.263922900 -0.031712766 0 254 108
4.037416825 -9.360937261 -0.044318012 0 251 123
4.035591194 -9.457880823 -0.042599535 0 252 120
4.031725082 -9.554793686 -0.035220037 0 253 111
4.029696866 -9.651732162 -0.032937210 0 254 108
4.031145547 -9.748723781 -0.040297368 0 252 117
4.033548343 -9.845732452 -0.050302932 0 250 129
4.033639225 -9.942706120 -0.053894574 0 250 132
4.030988910 -10.039634975 -0.049881459 0 250 129
4.027724981 -10.136552121 -0.044165054 0 252 120
4.026142886 -10.233496849 -0.043112576 0 252 120
4.025318629 -10.330454640 -0.044161043 0 252 120
4.019700139 -10.427325365 -0.031909723 0 254 108
4.006909223 -10.524059335 0.000238432 36 255 86
4.004680634 -10.620984520 0.003089172 40 255 84
4.005606563 -10.717969790 -0.002809250 33 255 88
4.011186693 -10.815048354 -0.021616955 7 255 99
4.009989091 -10.911995688 -0.021622619 7 255 99
4.009751653 -11.008962559 -0.024290544 4 255 100
4.010162363 -11.105943559 -0.028755247 0 254 105
4.011623344 -11.202947981 -0.036132229 0 253 114
4.012566931 -11.299943106 -0.042072844 0 252 120
4.011328428 -11.396891674 -0.041959215 0 252 120
4.013873968 -11.493924869 -0.052341368 0 250 132
4.010702217 -11.590830486 -0.046862549 0 251 123
4.009360618 -11.687776867 -0.046459396 0 251 123
4.008514782 -11.784734679 -0.047430325 0 251 126
4.005091460 -11.881630912 -0.041249989 0 252 117
4.003962308 -11.978581108 -0.041432598 0 252 117
4.006799495 -12.075629225 -0.052616965 0 250 132
4.007728307 -12.172632412 -0.058506236 0 249 138
4.004905327 -12.269541510 -0.053986518 0 250 132
3.998684422 -12.366361355 -0.040039343 0 252 117
3.990672154 -12.463130199 -0.021121379 7 255 99
3.982611074 -12.559892380 -0.002066645 33 255 88
3.977152690 -12.656719459 0.009769161 47 255 81
3.975788068 -12.753655275 0.010249465 51 255 80
3.979072428 -12.850719961 -0.002166158 33 255 88
3.984303769 -12.947842775 -0.019981993 7 255 99
3.986758795 -13.044891135 -0.030094729 0 254 105
3.985919669 -13.141846867 -0.031067691 0 254 108
3.982167022 -13.238717340 -0.023956716 4 255 100
3.977029520 -13.335544594 -0.013002579 18 255 94
3.975460477 -13.432476021 -0.011946958 18 255 94
3.980197234 -13.529599108 -0.028384076 0 254 105
3.987022151 -13.626791018 -0.050613255 0 250 129
3.989983250 -13.723868283 -0.062122114 0 248 141
3.985875473 -13.820725143 -0.054018766 0 250 132
3.976508713 -13.917411372 -0.031324137 0 254 108
3.967933802 -14.014116837 -0.010824958 22 255 92
3.964781601 -14.110994167 -0.005368807 29 255 89
3.967442271 -14.208062532 -0.016038327 15 255 96
3.972572041 -14.305216507 -0.033556906 0 253 111
3.975442884 -14.402298591 -0.044807352 0 251 123
3.973802285 -14.499228935 -0.043540279 0 252 120
3.971732749 -14.596143926 -0.041081972 0 252 117
3.971406425 -14.693119235 -0.043458828 0 252 120
3.972234252 -14.790135986 -0.049036608 0 251 126
3.972845559 -14.887146397 -0.054012532 0 250 132
3.972067387 -14.984107740 -0.055132297 0 249 135
3.970830690 -15.081052488 -0.054978738 0 250 132
3.970112921 -15.178016260 -0.056263739 0 249 135
3.969884620 -15.274998552 -0.058905577 0 249 138
3.969350281 -15.371969899 -0.060697160 0 248 141
3.967099725 -15.468876177 -0.057725946 0 249 138
3.962499287 -15.565691006 -0.048233776 0 251 126
3.958931840 -15.662543270 -0.041606389 0 252 120
3.958883747 -15.759531827 -0.044742299 0 251 123
3.960488939 -15.856586708 -0.052464152 0 250 132
3.960458930 -15.953578114 -0.055647939 0 249 135
3.958222615 -16.050481074 -0.052709046 0 250 132
3.956674167 -16.147411177 -0.051677479 0 250 129
3.956991959 -16.244417763 -0.055822758 0 249 135
3.957818045 -16.341446511 -0.061377196 0 248 141
3.959271062 -16.438502987 -0.068669980 0 247 150
3.961954543 -16.535613470 -0.079375702 0 245 162
3.964070428 -16.632702539 -0.088505459 0 243 171
3.963551669 -16.729680416 -0.090323930 0 243 174
3.961129316 -16.826575869 -0.086859434 0 244 168
3.958732792 -16.923471381 -0.083465391 0 244 165
3.957433305 -17.020414401 -0.083114050 0 244 165
3.957528123 -17.117419465 -0.086630278 0 244 168
3.958510825 -17.214465371 -0.092608958 0 243 174
3.958033314 -17.311446493 -0.094534842 0 242 177
3.956604054 -17.408384439 -0.093818729 0 242 177
3.956154212 -17.505367307 -0.095819042 0 242 180
3.955856015 -17.602357676 -0.098238965 0 242 180
3.954247271 -17.699287065 -0.097021287 0 242 180
3.950751619 -17.796126684 -0.090566698 0 243 174
3.945364566 -17.892874146 -0.078862663 0 245 159
3.938993789 -17.989570938 -0.064427720 0 248 144
3.934572604 -18.086358156 -0.055401194 0 249 135
3.939735736 -18.183611161 -0.072968061 0 246 153
3.952646630 -18.281250522 -0.112032488 0 239 198
3.959705094 -18.378610069 -0.134856536 0 235 222
3.956442879 -18.475459556 -0.129041394 0 236 216
3.945642018 -18.571927336 -0.102306422 0 241 186
3.934419427 -18.668366194 -0.074399776 0 246 156
3.928535309 -18.765070409 -0.061305296 0 248 141
3.924880275 -18.861885816 -0.054394986 0 250 132
3.919572366 -18.958613352 -0.042896867 0 252 120
3.915706316 -19.055413043 -0.035398504 0 253 111
3.903982830 -19.151796409 -0.006095080 29 255 89
3.900513769 -19.248609797 0.000304250 36 255 86
3.905765102 -19.345887625 -0.017493850 11 255 97
3.910602314 -19.443147962 -0.034141731 0 253 111
3.910683246 -19.540154807 -0.037590022 0 253 114
3.910488699 -19.637147449 -0.040272710 0 252 117
3.914683851 -19.734382198 -0.055135609 0 249 135
3.911683021 -19.831222347 -0.050028584 0 250 129
3.915199074 -19.928424464 -0.063004764 0 248 141
3.913747637 -20.025351090 -0.062194965 0 248 141
3.914256652 -20.122388237 -0.066824299 0 247 147
3.908292475 -20.219058059 -0.053489088 0 250 132
3.904055502 -20.315823076 -0.044945671 0 251 123
3.903846911 -20.412818042 -0.047580041 0 251 126
3.908570107 -20.510100060 -0.063899347 0 248 144
3.916852806 -20.607594582 -0.090095520 0 243 171
3.919658936 -20.704773972 -0.101092692 0 241 186
3.911472232 -20.801305206 -0.081582468 0 245 162
3.899422306 -20.897600644 -0.051349971 0 250 129
3.892161958 -20.994174978 -0.034407753 0 253 111
3.893852901 -21.091285005 -0.042305368 0 252 120
3.901354239 -21.188750176 -0.066326610 0 247 147
3.907771625 -21.286155606 -0.087338696 0 244 168
3.912235520 -21.383446545 -0.102928473 0 241 186
3.908949055 -21.480261833 -0.097008509 0 242 180
3.908337624 -21.577242033 -0.098511058 0 241 183
3.905222983 -21.674065643 -0.093065511 0 242 177
3.893418655 -21.770339625 -0.063502945 0 248 144
3.883060638 -21.866697100 -0.037952780 0 253 114
3.876018612 -21.963259082 -0.021603903 7 255 99
3.874201995 -22.060152005 -0.019755574 11 255 97
3.875287384 -22.157231791 -0.025959900 0 255 102
3.874263081 -22.254176097 -0.026308103 0 255 102
3.869486340 -22.350875112 -0.016241016 15 255 96
3.864389210 -22.447550180 -0.005283488 29 255 89
3.863209693 -22.544481215 -0.005197301 29 255 89
3.866090202 -22.641682200 -0.016377829 15 255 96
3.868507319 -22.738855177 -0.026271187 0 255 102
3.869258414 -22.835918694 -0.031539651 0 254 108
3.870616867 -22.933024673 -0.038492610 0 253 114
3.872977792 -23.030200701 -0.048226665 0 251 126
3.873055725 -23.127223084 -0.051623450 0 250 129
3.868189322 -23.223906034 -0.041296631 0 252 117
3.859643768 -23.320331418 -0.020757431 7 255 99
3.851752130 -23.416796535 -0.002031759 33 255 88
3.848502090 -23.513581165 0.003812844 40 255 84
3.848964215 -23.610625262 -0.000644203 36 255 86
3.849728151 -23.707691848 -0.005937762 29 255 89
3.851535577 -23.804834024 -0.014126341 18 255 94
3.854894737 -23.902089333 -0.026620582 0 255 102
3.857157244 -23.999269165 -0.036069997 0 253 114
3.856236297 -24.096221435 -0.036682672 0 253 114
3.853135665 -24.193015409 -0.031244464 0 254 108
3.849035724 -24.289734797 -0.023031439 4 255 100
3.845947081 -24.386526079 -0.017624046 11 255 97
3.847266860 -24.483641164 -0.024451138 4 255 100
3.850384705 -24.580891452 -0.036267699 0 253 114
3.852047621 -24.678036414 -0.044044938 0 252 120
3.852032063 -24.775057617 -0.047162352 0 251 126
3.850126165 -24.871937165 -0.045031836 0 251 123
3.847684756 -24.968775482 -0.041413765 0 252 117
3.847085960 -25.065752957 -0.042908829 0 252 120
3.847418086 -25.162801971 -0.046986591 0 251 126
3.847312035 -25.259818339 -0.049846993 0 250 129
3.844930683 -25.356659611 -0.046390856 0 251 123
3.839357754 -25.453252022 -0.034074860 0 253 111
3.833951692 -25.549853962 -0.022220743 7 255 99
3.832848993 -25.646789989 -0.022310018 7 255 99
3.833756459 -25.743884355 -0.027977662 0 254 105
3.835034427 -25.841009541 -0.034672560 0 253 111
3.835780757 -25.938094193 -0.039890663 0 252 117
3.833772769 -26.034959994 -0.037462470 0 253 114
3.828085220 -26.131529443 -0.024819684 4 255 100
3.822544347 -26.228107152 -0.012582744 18 255 94
3.821244200 -26.325025326 -0.012115650 18 255 94
3.822312524 -26.422136285 -0.018221638 11 255 97
3.820860577 -26.519042516 -0.017330841 11 255 97
3.816482060 -26.615707698 -0.008315386 25 255 91
3.812665936 -26.712416779 -0.000859753 33 255 88
3.816818596 -26.809785296 -0.015522528 15 255 96
3.812403361 -26.906443180 -0.006401496 25 255 91
3.818758884 -27.004000931 -0.027176753 0 255 102
3.821084249 -27.101225117 -0.036764001 0 253 114
3.815901299 -27.197816998 -0.025508368 0 255 102
3.811838734 -27.294500852 -0.017361469 11 255 97
3.806458634 -27.391069955 -0.005556049 29 255 89
3.804282942 -27.487910358 -0.002644341 33 255 88
3.805193563 -27.585015584 -0.008298635 25 255 91
3.791689054 -27.680875735 0.026062911 69 255 72
3.768491608 -27.775884379 0.087332570 153 255 35
3.572246795 -47.842202540 0.010791888 51 255 80
3.572722955 -47.939384674 0.006588334 44 255 83
3.574843812 -48.036842839 -0.002182805 33 255 88
3.577581171 -48.134406691 -0.012665381 18 255 94
3.578235810 -48.231623740 -0.017361295 11 255 97
3.576572204 -48.328451947 -0.015616236 15 255 96
3.573646736 -48.425066822 -0.010364667 22 255 92
3.571819257 -48.521865849 -0.008161995 25 255 91
3.572392436 -48.619071017 -0.012626949 18 255 94
3.574452398 -48.716529898 -0.021220911 7 255 99
3.576955366 -48.814066546 -0.031044385 0 254 108
3.579137022 -48.911551088 -0.039974150 0 252 117
3.579976209 -49.008808560 -0.045173486 0 251 123
3.577860694 -49.105561143 -0.042163657 0 252 120
3.572411812 -49.201740396 -0.029892673 0 254 105
3.566721308 -49.297874653 -0.016949211 15 255 96
3.565570949 -49.394788551 -0.016616911 15 255 96
3.569391933 -49.492561876 -0.030093757 0 254 105
3.572989033 -49.590300125 -0.042947546 0 252 120
3.571962643 -49.687238980 -0.042956173 0 252 120
3.569438323 -49.783917113 -0.038802359 0 252 117
3.570796628 -49.881271350 -0.045433337 0 251 123
3.578755157 -49.979781254 -0.070398752 0 247 150
3.587671654 -50.078465895 -0.098024370 0 242 180
3.588460256 -50.175731018 -0.103069377 0 241 186
3.579907983 -50.271353802 -0.082163873 0 244 165
3.569006042 -50.366556416 -0.054729537 0 250 132
3.561037416 -50.462269865 -0.035442775 0 253 111
3.557751366 -50.558807368 -0.029163262 0 254 105
3.557537467 -50.655888462 -0.031417226 0 254 108
3.557076235 -50.752926173 -0.032982913 0 254 108
3.553846873 -50.849470815 -0.026857284 0 255 102
3.548178838 -50.945578057 -0.013955537 18 255 94
3.543508902 -51.041860428 -0.003825366 29 255 89
3.542409669 -51.138780685 -0.003613824 29 255 89
3.545764592 -51.236501803 -0.015775357 15 255 96
3.551507175 -51.334656535 -0.034569032 0 253 111
3.554029196 -51.432234881 -0.044414427 0 251 123
3.552535742 -51.529089273 -0.043103082 0 252 120
3.549972470 -51.625749283 -0.038818419 0 252 117
3.548578417 -51.722620593 -0.037780844 0 253 114
3.548951078 -51.819813369 -0.041650337 0 252 120
3.549878301 -51.917108422 -0.047059352 0 251 126
3.549100318 -52.014093102 -0.047729819 0 251 126
3.545867992 -52.110628146 -0.041580445 0 252 120
3.540665650 -52.206799675 -0.029956727 0 254 105
3.537392048 -52.303322955 -0.023690228 4 255 100
3.540400679 -52.401003117 -0.034876007 0 253 111
3.546487863 -52.499255324 -0.054613618 0 250 132
3.552154322 -52.597435074 -0.073181271 0 246 153
3.553230508 -52.694768093 -0.078994918 0 245 159
3.546881308 -52.790721858 -0.064177785 0 248 144
3.535632283 -52.885758440 -0.035746344 0 253 111
3.528124109 -52.981485696 -0.017706660 11 255 97
3.532638750 -53.079457650 -0.033068528 0 254 108
3.542567633 -53.178449039 -0.063471639 0 248 144
3.549960818 -53.276972414 -0.086828789 0 244 168
3.549751525 -53.374070923 -0.089062887 0 243 171
3.543444349 -53.470019649 -0.074353994 0 246 156
3.535408646 -53.565637543 -0.054841422 0 250 132
3.529708136 -53.661692381 -0.041815488 0 252 120
3.529464027 -53.758779291 -0.043948038 0 252 120
3.534465802 -53.856864524 -0.060654314 0 248 141
3.541274777 -53.955298794 -0.082380533 0 244 165
3.545488484 -54.053243478 -0.096895092 0 242 180
3.545716489 -54.150429530 -0.100334809 0 241 183
3.541884031 -54.246838019 -0.092491883 0 243 174
3.536440752 -54.342934875 -0.080172253 0 245 162
3.533368481 -54.439484744 -0.074438960 0 246 156
3.533628000 -54.536675679 -0.077961500 0 245 159
3.535780072 -54.634233363 -0.086741163 0 244 168
3.539448194 -54.732087067 -0.099731907 0 241 183
3.544176339 -54.830150053 -0.115666725 0 238 201
3.547726480 -54.927988422 -0.128327447 0 236 216
3.548039366 -55.025199661 -0.131992563 0 235 219
3.546317765 -55.122014805 -0.130003818 0 236 216
3.543884531 -55.218690225 -0.126036649 0 236 213
3.539565532 -55.314995017 -0.116828758 0 238 201
3.533755576 -55.411004526 -0.103477061 0 241 186
3.530621090 -55.507536686 -0.097557832 0 242 180
3.530955335 -55.604750945 -0.101275199 0 241 186
3.532557261 -55.702216602 -0.108513647 0 240 192
3.532646846 -55.799385002 -0.111548918 0 239 195
3.528358449 -55.895686242 -0.102418783 0 241 186
3.527712963 -55.992708628 -0.103409293 0 241 186
3.525005200 -56.089320829 -0.098668552 0 241 183
3.527637834 -56.186996705 -0.108765051 0 240 192
3.529466235 -56.284514693 -0.116625830 0 238 201
3.527293493 -56.381233879 -0.113368131 0 239 198
3.521842201 -56.477294582 -0.100999612 0 241 183
3.516299135 -56.573333427 -0.088374843 0 243 171
3.514391008 -56.670100652 -0.085848746 0 244 168
3.515957847 -56.767568178 -0.092976919 0 242 177
3.518625480 -56.865260168 -0.103162593 0 241 186
3.521099378 -56.962915754 -0.112808832 0 239 198
3.521775221 -57.060209229 -0.117457873 0 238 204
3.519512467 -57.156906687 -0.113940565 0 239 198
3.514365876 -57.253015891 -0.102408991 0 241 186
3.508169912 -57.348907805 -0.087960363 0 243 171
3.504638401 -57.445340391 -0.080913998 0 245 162
3.505126436 -57.542594250 -0.085035276 0 244 168
3.507488009 -57.640233684 -0.094361294 0 242 177
3.510700637 -57.738050662 -0.106050966 0 240 189
3.514179403 -57.835925698 -0.118479020 0 238 204
3.516665205 -57.933599294 -0.128146846 0 236 216
3.519610436 -58.031370552 -0.139090141 0 234 228
3.523855460 -58.129414048 -0.153644013 0 231 243
3.527305880 -58.227296707 -0.165988826 0 229 255
3.526055434 -58.324205588 -0.165270284 0 229 255
3.516203493 -58.419322913 -0.140649611 0 234 228
3.501424596 -58.513405439 -0.102337021 0 241 186
3.491954677 -58.608587116 -0.078775152 0 245 159
3.488804250 -58.705085690 -0.072772120 0 246 153
3.489340677 -58.802356120 -0.077012667 0 245 159
3.491291739 -58.899925072 -0.085182969 0 244 168
3.493118336 -58.997470089 -0.093006271 0 242 177
3.494053395 -59.094829211 -0.098351071 0 241 183
3.494582021 -59.192103929 -0.102565336 0 241 186
3.494483431 -59.289247031 -0.105035557 0 240 189
3.490356546 -59.385536398 -0.096310876 0 242 180
3.483350194 -59.481211499 -0.079583544 0 245 162
3.477926280 -59.577218848 -0.067252206 0 247 147
3.473982808 -59.673538521 -0.059033476 0 249 138
3.471959214 -59.770266107 -0.056148501 0 249 135
3.473613567 -59.867780103 -0.063482682 0 248 144
3.478595217 -59.966009567 -0.080061695 0 245 162
3.482342495 -60.063978491 -0.093209496 0 242 177
3.480946490 -60.160844316 -0.092063839 0 243 174
3.474897686 -60.256706842 -0.077987590 0 245 159
3.467658461 -60.352308413 -0.060602071 0 248 141
3.462454715 -60.448345538 -0.048871589 0 251 126
3.460473502 -60.545077828 -0.046094868 0 251 123
3.460875048 -60.642326680 -0.049938355 0 250 129
3.464167647 -60.740205391 -0.061814584 0 248 141
3.471127087 -60.838886321 -0.083879437 0 244 165
3.479906033 -60.937970500 -0.110999418 0 239 195
3.484592970 -61.036167504 -0.126747058 0 236 213
3.483318293 -61.133063116 -0.125926831 0 236 213
3.478500205 -61.229181045 -0.115258591 0 238 201
3.473298604 -61.325211743 -0.103523357 0 241 186
3.470557885 -61.421781056 -0.098625500 0 241 183
3.468827516 -61.518571882 -0.096534138 0 242 180
3.467153310 -61.615374556 -0.094597659 0 242 177
3.466691574 -61.712445077 -0.096029390 0 242 180
3.468291057 -61.809973029 -0.103187991 0 241 186
3.470390932 -61.907614121 -0.111736020 0 239 195
3.471404828 -62.005015978 -0.117265006 0 238 204
3.467890887 -62.101410244 -0.110210083 0 239 195
3.460159257 -62.196860937 -0.091433035 0 243 174
3.453707636 -62.292592719 -0.076211839 0 246 156
3.448903969 -62.388689496 -0.065569050 0 248 144
3.445007346 -62.484986901 -0.057445712 0 249 135
3.443561308 -62.581832964 -0.056131379 0 249 135
3.444377403 -62.679188077 -0.061102393 0 248 141
3.445573408 -62.776630281 -0.067128033 0 247 147
3.446164212 -62.873937427 -0.071470646 0 246 153
3.447508351 -62.971416304 -0.077905657 0 245 159
3.450736969 -63.069324232 -0.089576584 0 243 171
3.453849535 -63.167209056 -0.100923870 0 241 183
3.455377565 -63.264736576 -0.107866505 0 240 192
3.454691772 -63.361761566 -0.108655622 0 240 192
3.450383091 -63.457959839 -0.099375275 0 241 183
3.442815134 -63.553410354 -0.081035887 0 245 162
3.432580850 -63.648245150 -0.055285231 0 249 135
3.419680857 -63.742461291 -0.022124942 7 255 99
3.390578395 -63.832944978 0.056065388 113 255 52
3.359719885 -63.923002819 0.139137859 222 255 4
3.325792708 -64.012330138 0.230740537 246 226 0
3.286155910 -64.100313449 0.338213276 255 153 0
3.264926021 -64.192525246 0.394531798 255 96 0
3.259002891 -64.288268409 0.408311292 255 84 11
3.259472997 -64.385491704 0.404323896 255 88 3
3.264051014 -64.483671185 0.388920891 255 104 0
3.272414550 -64.582736513 0.362998214 255 128 0
3.271698231 -64.679691058 0.362311554 255 128 0
3.262457980 -64.774654233 0.385316059 255 107 0
3.258422270 -64.870829088 0.393857196 255 98 0
3.259515876 -64.968203996 0.388143906 255 104 0
3.264058734 -65.066390395 0.372845420 255 117 0
3.264269852 -65.163562293 0.369587074 255 123 0
3.260629573 -65.259827848 0.377033949 255 115 0
3.258817831 -65.356522818 0.379400030 255 112 0
3.259103563 -65.453712873 0.375937833 255 115 0
3.259917459 -65.551028940 0.371008877 255 120 0
3.259802868 -65.648126247 0.368661613 255 123 0
3.255328435 -65.744188799 0.378432824 255 112 0
3.249658742 -65.839964348 0.391527264 255 101 0
3.248238896 -65.936748875 0.392811275 255 98 0
3.249342690 -66.034135332 0.387082462 255 104 0
3.250045791 -66.131427623 0.382468455 255 109 0
3.245858200 -66.227550309 0.391448480 255 101 0
3.238695098 -66.322957008 0.408699700 255 84 11
3.231068956 -66.418247743 0.427239145 255 71 36
3.219553649 -66.512597757 0.456589275 255 51 73
3.210662161 -66.607571895 0.478648187 255 33 106
3.211219277 -66.704820276 0.474447126 255 37 98
3.214071977 -66.802624747 0.463866905 255 45 84
3.215899971 -66.900184083 0.456135878 255 51 73
3.218794991 -66.998004335 0.445440300 255 59 58
3.225229158 -67.096687155 0.424909144 255 73 33
3.233765601 -67.195887090 0.398536013 255 93 0
3.242552046 -67.295155264 0.371469103 255 120 0
3.245950061 -67.393116012 0.359379938 255 131 0
3.235538317 -67.487704809 0.385675022 255 107 0
3.224101232 -67.582035350 0.414821304 255 80 18
3.216892937 -67.677394691 0.432215263 255 69 40
3.216572995 -67.774440822 0.430464669 255 69 40
3.222598036 -67.873048048 0.411079661 255 82 14
3.228124018 -67.971537731 0.393082868 255 98 0
3.221895068 -68.067132199 0.407759574 255 86 7
3.205380873 -68.160181056 0.451025113 255 55 66
3.186727814 -68.252688607 0.500237062 255 18 135
3.178967662 -68.347882686 0.519173693 255 4 161
3.181470328 -68.445619438 0.509586055 255 12 146
3.191013856 -68.545109573 0.480429426 255 33 106
3.202906546 -68.645192824 0.444744359 255 59 58
3.208591354 -68.743737629 0.426315238 255 73 33
3.212280788 -68.841789118 0.413433397 255 80 18
3.215073664 -68.939619898 0.403044682 255 88 3
3.218204103 -69.037538167 0.391718836 255 98 0
3.216341440 -69.134206557 0.394272612 255 98 0
3.210738630 -69.229934222 0.407223471 255 86 7
3.193104122 -69.322629651 0.453618311 255 53 69
3.176818660 -69.415652374 0.496264871 255 22 128
3.164812591 -69.509743847 0.527017984 255 0 168
3.164428831 -69.606765888 0.525467268 255 0 168
3.178120549 -69.707353209 0.484793719 255 29 113
3.196069323 -69.809031613 0.432288386 255 67 44
3.205563342 -69.908576789 0.403284819 255 88 3
3.197868594 -70.003756897 0.422060097 255 75 29
3.188927094 -70.098614164 0.444302133 255 59 58
3.184651592 -70.194656011 0.453575800 255 53 69
3.190277968 -70.293225970 0.435327257 255 65 47
3.204527200 -70.394008090 0.393111571 255 98 0
3.208719159 -70.492223832 0.378852347 255 112 0
3.212410447 -70.590315020 0.365985919 255 126 0
3.209611629 -70.686741129 0.371160726 255 120 0
3.208453197 -70.783588231 0.371777053 255 120 0
3.196356836 -70.877614524 0.402798148 255 88 3
3.181392421 -70.970891544 0.441792818 255 61 55
3.168347806 -71.064654357 0.475452494 255 37 98
3.162188554 -71.160191434 0.489974440 255 25 120
3.161614344 -71.257173395 0.488972976 255 27 117
3.164272116 -71.354995351 0.478988771 255 33 106
3.170590589 -71.453772580 0.458830074 255 49 76
3.181437610 -71.553735441 0.426084487 255 73 33
3.192405323 -71.653738895 0.393004491 255 98 0
3.195050098 -71.751576402 0.383060862 255 109 0
3.184087987 -71.845855405 0.410941572 255 82 14
3.172237564 -71.939893887 0.441292879 255 61 55
3.165937225 -72.035380882 0.456217790 255 51 73
3.161936406 -72.131468283 0.464751893 255 45 84
3.158151097 -72.227610095 0.472688151 255 39 95
3.155864691 -72.324144934 0.476459044 255 35 102
3.158277999 -72.421919660 0.467167065 255 43 87
3.167355140 -72.521459049 0.439352368 255 63 51
3.179311983 -72.621768732 0.403533874 255 88 3
3.187013385 -72.720959865 0.379545574 255 112 0
3.185491306 -72.817708154 0.381197520 255 109 0
3.172063397 -72.911289557 0.415946222 255 80 18
3.156665428 -73.004336661 0.456172662 255 51 73
3.147571793 -73.099054214 0.478875726 255 33 106
3.144883248 -73.195476408 0.483775167 255 29 113
3.149332467 -73.293806628 0.468834158 255 41 91
3.159558314 -73.393688482 0.437836317 255 63 51
3.162630520 -73.491659860 0.426725373 255 73 33
