ply
format ascii 1.0
comment coordinate_system ground
comment units millimeter
element vertex 1560
property double x
property double y
property double z
property uchar red
property uchar green
property uchar blue
comment color_mapping zg_high_contrast_from_zg
comment color_zg_range_mm -0.181343084 0.587567837
end_header
5.810003493 118.452355663 0.414368869 255 120 0
5.799788631 118.350753552 0.437780233 255 98 0
5.793818016 118.251229566 0.449488932 255 88 3
5.791060865 118.153276210 0.452337275 255 88 3
5.791418584 118.056841776 0.446597008 255 90 0
5.794513708 117.961738929 0.433308905 255 104 0
5.796277535 117.865985147 0.423692919 255 112 0
5.793196914 117.767874162 0.427437216 255 109 0
5.790908077 117.670149206 0.428999065 255 107 0
5.791038659 117.573599350 0.423889907 255 112 0
5.790471625 117.476710163 0.420705520 255 115 0
5.788348368 117.379066366 0.421813744 255 115 0
5.786254756 117.281437632 0.422841227 255 112 0
5.782108921 117.182816659 0.429529255 255 107 0
5.776035002 117.083265806 0.441535574 255 96 0
5.773538964 116.985447027 0.443675992 255 93 0
5.779111882 116.891524020 0.423564870 255 112 0
5.784232776 116.797377849 0.404701137 255 128 0
5.780721392 116.699066760 0.409644558 255 126 0
5.768916143 116.596763572 0.437462223 255 98 0
5.753368241 116.492667640 0.475602901 255 73 33
5.747772778 116.393367607 0.486297416 255 65 47
5.752537970 116.299048212 0.468419523 255 76 25
5.751291327 116.201838475 0.467122503 255 78 22
5.746054323 116.102714844 0.476831562 255 71 36
5.748987660 116.007510017 0.464008481 255 80 18
5.754734555 115.913649411 0.443426630 255 93 0
5.749919686 115.814729734 0.451974501 255 88 3
5.756236104 115.721134894 0.429823648 255 107 0
5.760180614 115.626401195 0.414215270 255 120 0
5.760665548 115.530012139 0.408149259 255 126 0
5.756310582 115.431313298 0.415432728 255 120 0
5.751280413 115.332295075 0.424579513 255 112 0
5.737447744 115.229087905 0.458005127 255 84 11
5.727779905 115.127872137 0.479945240 255 69 40
5.728417187 115.031562435 0.473464261 255 73 33
5.730179020 114.935785593 0.463882609 255 80 18
5.723901577 114.836190336 0.476475049 255 71 36
5.710622264 114.733277901 0.508380638 255 51 73
5.696052518 114.629763108 0.543846768 255 27 117
5.686791371 114.528772398 0.564672363 255 14 142
5.679976061 114.428945138 0.578753164 255 4 161
5.675070446 114.330025054 0.587567837 255 0 168
5.674148502 114.232989724 0.585395871 255 0 168
5.680954796 114.139602133 0.561908790 255 16 139
5.687421986 114.046048529 0.539357795 255 31 109
5.692473773 113.951822079 0.520711591 255 43 87
5.695883036 113.856817453 0.506596698 255 51 73
5.698132448 113.761263624 0.495681846 255 59 58
5.701356934 113.666165597 0.482078359 255 69 40
5.704104474 113.570840181 0.469791298 255 76 25
5.705131687 113.474704329 0.462250315 255 80 18
5.703146686 113.377154135 0.463018932 255 80 18
5.699064476 113.278621813 0.469573383 255 76 25
5.698699572 113.181832223 0.465875266 255 78 22
5.697914816 113.084845600 0.463336228 255 80 18
5.690049034 112.984548610 0.480330363 255 69 40
5.677215856 112.881936570 0.511027748 255 49 76
5.674267567 112.783946650 0.514459861 255 47 80
5.688712295 112.694068709 0.469915640 255 76 25
5.702088103 112.603680838 0.428320518 255 109 0
5.711603275 112.511484563 0.397375370 255 137 0
5.718176673 112.417911724 0.374545706 255 156 0
5.720528429 112.322370810 0.363362153 255 166 0
5.718009993 112.224565447 0.365613922 255 164 0
5.714361194 112.126236597 0.370984848 255 161 0
5.711139496 112.028107667 0.375178673 255 156 0
5.708508648 111.930254029 0.377743674 255 153 0
5.706322806 111.832607501 0.379082138 255 153 0
5.702805250 111.734345828 0.384095261 255 147 0
5.695701023 111.634428457 0.399003596 255 134 0
5.681843526 111.531397324 0.432542687 255 104 0
5.664563846 111.426796992 0.475523640 255 73 33
5.658199838 111.327240888 0.488393747 255 65 47
5.656123854 111.229663826 0.489435864 255 63 51
5.661180071 111.135369862 0.470803686 255 75 29
5.657915824 111.037245076 0.475125785 255 73 33
5.659578273 110.941385520 0.465857719 255 78 22
5.659672865 110.844804047 0.460915823 255 82 14
5.660278409 110.748455999 0.454565319 255 86 7
5.665593065 110.654264882 0.435224581 255 101 0
5.678935054 110.563744856 0.393739274 255 139 0
5.687647314 110.471095431 0.365026867 255 166 0
5.680495617 110.371185877 0.380080283 255 153 0
5.662044739 110.266119489 0.426306952 255 109 0
5.651112903 110.164498075 0.451791554 255 88 3
5.640575266 110.063063882 0.476189916 255 73 33
5.635217989 109.963997283 0.486297798 255 65 47
5.631911432 109.865867525 0.490749174 255 63 51
5.630228293 109.768477888 0.490722825 255 63 51
5.629987971 109.671744435 0.486716937 255 65 47
5.631212073 109.575675329 0.478671837 255 71 36
5.630822113 109.478872042 0.475080716 255 73 33
5.627537399 109.380755794 0.479476978 255 69 40
5.621342678 109.281322984 0.491902829 255 61 55
5.617813491 109.183100457 0.496975749 255 59 58
5.623828042 109.089195657 0.475718900 255 73 33
5.643929765 109.001650608 0.415596621 255 120 0
5.730713983 108.750852548 0.162175876 229 255 1
5.743219138 108.659811813 0.123014006 182 255 22
5.797704096 108.587649104 -0.031971630 0 254 108
5.810205893 108.496570092 -0.071123614 0 247 147
5.815397327 108.402197027 -0.090105117 0 244 165
5.812149457 108.304031596 -0.085800977 0 245 162
5.804102247 108.203715663 -0.068253873 0 248 144
5.795794165 108.103288115 -0.049985787 0 251 126
5.789829596 108.003915116 -0.038182559 0 253 114
5.786957780 107.905929106 -0.034911558 0 253 111
5.787104648 107.809293449 -0.039968552 0 253 114
5.788244159 107.713100044 -0.047763459 0 251 123
5.788928141 107.616701681 -0.054300532 0 250 129
5.789198404 107.520117516 -0.059695112 0 249 135
5.788602150 107.423146362 -0.062697814 0 249 138
5.785308801 107.324974620 -0.058257596 0 249 135
5.779883303 107.225856552 -0.047933173 0 251 123
5.784861163 107.131363214 -0.066313261 0 248 141
5.779582394 107.032312852 -0.056391591 0 250 132
5.772256544 106.932357839 -0.040820293 0 252 117
5.761130502 106.830723739 -0.014761895 15 255 96
5.751476043 106.729748731 0.007237226 40 255 84
5.747988340 106.631507914 0.012221426 47 255 81
5.750000809 106.535699652 0.002029777 36 255 86
5.753251672 106.440435823 -0.011578138 18 255 94
5.755547263 106.344747212 -0.022549211 4 255 100
5.756143451 106.248306897 -0.028830045 0 254 105
5.755257326 106.151212433 -0.031019610 0 254 105
5.754328557 106.054099021 -0.033090500 0 254 108
5.752502040 105.956590757 -0.032683102 0 254 108
5.748293431 105.858036634 -0.025701399 0 255 102
5.743305490 105.759142815 -0.016568052 11 255 97
5.739936878 105.660962039 -0.011902098 18 255 94
5.738574952 105.563662168 -0.012772519 18 255 94
5.738815481 105.467063956 -0.018063917 11 255 97
5.740922179 105.371280913 -0.028504090 0 254 105
5.743827488 105.275844397 -0.041147149 0 252 117
5.744096090 105.179253602 -0.046513168 0 251 123
5.741918967 105.081594854 -0.045129068 0 252 120
5.740498251 104.984266589 -0.045831294 0 252 120
5.741660512 104.888063353 -0.053660485 0 250 129
5.745679359 104.793101237 -0.069371806 0 248 144
5.749310121 104.697966505 -0.084011294 0 245 159
5.751416526 104.602166090 -0.094443225 0 243 171
5.753419810 104.506318470 -0.104589661 0 242 180
5.753390286 104.409587125 -0.109125292 0 241 183
5.750027905 104.311411221 -0.104462298 0 242 180
5.744147701 104.212147316 -0.092849793 0 244 168
5.737186210 104.112419472 -0.078252089 0 246 153
5.730229700 104.012698235 -0.063666953 0 249 138
5.724219215 103.913389807 -0.051691422 0 251 126
5.719799315 103.814771090 -0.044104366 0 252 120
5.716162932 103.716492505 -0.038678530 0 253 114
5.712320993 103.618127348 -0.032684319 0 254 108
5.709356797 103.520141817 -0.029111414 0 254 105
5.708645736 103.423125984 -0.031755680 0 254 108
5.706719379 103.325588034 -0.031044933 0 254 105
5.703148821 103.227345359 -0.025795406 0 255 102
5.699916105 103.129249360 -0.021477192 7 255 99
5.698068309 103.031748040 -0.020980108 7 255 99
5.699286201 102.935558926 -0.028942949 0 254 105
5.701088457 102.839617835 -0.038517630 0 253 114
5.701408180 102.743041358 -0.043999710 0 252 120
5.700128435 102.645781293 -0.045066394 0 252 120
5.697990533 102.548155507 -0.043763588 0 252 120
5.695610792 102.450427497 -0.041792273 0 252 117
5.692654616 102.352455148 -0.038228959 0 253 114
5.688857206 102.254126533 -0.032342779 0 254 108
5.685764235 102.156099213 -0.028399760 0 254 105
5.685894713 102.059441497 -0.033352446 0 254 108
5.689523955 101.964266444 -0.047960861 0 251 123
5.694357381 101.869597943 -0.065891998 0 248 141
5.698064603 101.774448224 -0.080713898 0 246 156
5.699844419 101.678479751 -0.090215132 0 244 165
5.700634611 101.582090951 -0.096983981 0 243 171
5.701870670 101.485888924 -0.104982507 0 242 180
5.701748099 101.389112111 -0.109230102 0 241 183
5.696423216 101.290142454 -0.099117630 0 243 174
5.686254604 101.189136859 -0.075634606 0 247 150
5.680957459 101.090187151 -0.065596345 0 248 141
5.671622634 100.989543900 -0.044412232 0 252 120
5.667212130 100.890974380 -0.036818937 0 253 111
5.666003598 100.793750496 -0.038062630 0 253 114
5.667083292 100.697485654 -0.045621311 0 252 120
5.670018282 100.601995969 -0.058300090 0 249 135
5.673127773 100.506576208 -0.071459632 0 247 147
5.670789791 100.408876520 -0.069581812 0 248 144
5.664194528 100.309400110 -0.055951660 0 250 132
5.658958406 100.210494894 -0.046071955 0 252 120
5.655777921 100.112449617 -0.041865303 0 252 117
5.653412469 100.014745322 -0.039907322 0 253 114
5.652005621 99.917440807 -0.040594358 0 252 117
5.652309942 99.820847785 -0.046003788 0 252 120
5.653665408 99.724690208 -0.054313785 0 250 129
5.653609503 99.627945198 -0.058726910 0 249 135
5.651376496 99.530296963 -0.057129388 0 250 132
5.647173590 99.431833803 -0.050093089 0 251 126
5.642590218 99.333215596 -0.042005433 0 252 117
5.640132679 99.235478800 -0.039784880 0 253 114
5.639873590 99.138650975 -0.043631984 0 252 120
5.640627904 99.042240652 -0.050275554 0 251 126
5.640840776 98.945605727 -0.055423517 0 250 132
5.643570308 98.850006278 -0.067517721 0 248 144
5.647541321 98.754914741 -0.083038132 0 245 159
5.649298680 98.658909354 -0.092446822 0 244 168
5.648311172 98.561774480 -0.094277267 0 243 171
5.645830187 98.464026726 -0.091983872 0 244 168
5.642427001 98.365901987 -0.087143619 0 245 162
5.637295666 98.267071236 -0.077531580 0 246 153
5.629505706 98.167155722 -0.060579018 0 249 135
5.621715558 98.067245240 -0.043624721 0 252 120
5.619257473 97.969517555 -0.041389026 0 252 117
5.619630450 97.872946081 -0.046967808 0 251 123
5.617515928 97.775359462 -0.045678487 0 252 120
5.616184935 97.678092736 -0.046551177 0 251 123
5.618310713 97.582232721 -0.056965879 0 250 132
5.622162545 97.487071915 -0.072144760 0 247 147
5.624532435 97.391305488 -0.083231543 0 245 159
5.625098663 97.294804601 -0.089337991 0 244 165
5.624201502 97.197709248 -0.091403429 0 244 168
5.622885519 97.100444138 -0.092311583 0 244 168
5.623697496 97.004040184 -0.099093505 0 243 174
5.627552488 96.908864840 -0.114275560 0 240 189
5.629259484 96.812818285 -0.123526551 0 239 198
5.622099989 96.713192332 -0.108297899 0 241 183
5.609937359 96.611554355 -0.079255269 0 246 156
5.598603897 96.510258731 -0.052500495 0 250 129
5.591654121 96.410734550 -0.037847113 0 253 114
5.590096933 96.313382313 -0.038080761 0 253 114
5.592456973 96.217603419 -0.049128376 0 251 123
5.597271889 96.122806733 -0.066952720 0 248 141
5.602608720 96.028214735 -0.086217171 0 245 162
5.604753910 95.932339879 -0.096668895 0 243 171
5.603941270 95.835279347 -0.098953296 0 243 174
5.602120616 95.737815763 -0.098453597 0 243 174
5.600404307 95.640394406 -0.098240945 0 243 174
5.598043891 95.542716612 -0.096248877 0 243 171
5.590956836 95.443156207 -0.081205513 0 246 156
5.577902476 95.341224658 -0.049685149 0 251 126
5.575259799 95.243443412 -0.046910339 0 251 123
5.573417829 95.145981530 -0.046345242 0 251 123
5.579058603 95.051490736 -0.066439358 0 248 141
5.584719517 94.957002810 -0.086588244 0 245 162
5.575508009 94.856617028 -0.065672307 0 248 141
5.580379526 94.761812031 -0.083639710 0 245 159
5.575786889 94.663259848 -0.075474667 0 247 150
5.575801547 94.566530574 -0.080029818 0 246 156
5.578433867 94.470833645 -0.091811704 0 244 168
5.579441898 94.374493415 -0.099107755 0 243 174
5.577290921 94.276907168 -0.097680281 0 243 174
5.571755938 94.177989968 -0.086907887 0 245 162
5.566405709 94.079148811 -0.076644478 0 246 153
5.565135065 93.981913328 -0.077644513 0 246 153
5.568183110 93.886372679 -0.090568395 0 244 165
5.569937647 93.790321803 -0.099919673 0 243 174
5.567013241 93.692436293 -0.096350252 0 243 171
5.562416355 93.593897819 -0.088161578 0 245 162
5.560046254 93.496232444 -0.086120559 0 245 162
5.560507744 93.399673800 -0.091897338 0 244 168
5.559651815 93.302600039 -0.094035324 0 244 168
5.559533674 93.205813661 -0.098209561 0 243 174
5.564172566 93.110878744 -0.115518581 0 240 192
5.569573925 93.016236059 -0.134932176 0 237 210
5.569338691 92.919398093 -0.138780209 0 236 213
5.563764406 92.820486801 -0.127884069 0 238 204
5.556982637 92.721110645 -0.113652424 0 240 189
5.551755845 92.622341325 -0.103713515 0 242 180
5.548945857 92.524510651 -0.100447283 0 242 177
5.546944222 92.426993888 -0.099412186 0 243 174
5.543291852 92.328840148 -0.093817600 0 244 168
5.539175871 92.230509463 -0.086941661 0 245 162
5.537995357 92.133312860 -0.088170849 0 245 162
5.539473272 92.037140278 -0.096740245 0 243 171
5.539502888 91.940408478 -0.101309185 0 242 177
5.537665979 91.842958350 -0.100722665 0 242 177
5.535976632 91.745565480 -0.100542590 0 242 177
5.534972071 91.648435800 -0.102252536 0 242 177
5.533346102 91.551067916 -0.102245390 0 242 177
5.531594258 91.453652270 -0.101889581 0 242 177
5.531303577 91.356796038 -0.105567862 0 242 180
5.531290075 91.260045134 -0.110010595 0 241 186
5.530136395 91.162858188 -0.111303575 0 241 186
5.527827284 91.065230689 -0.109404634 0 241 186
5.525675907 90.967664235 -0.107940230 0 241 183
5.524774566 90.870574364 -0.109926944 0 241 186
5.523871392 90.773483676 -0.111907569 0 241 186
5.522631310 90.676264904 -0.112956725 0 240 189
5.521398657 90.579049089 -0.114025356 0 240 189
5.518646095 90.481257265 -0.110895374 0 241 186
5.513572297 90.382587721 -0.101353656 0 242 177
5.509539781 90.284315159 -0.094686556 0 243 171
5.509750248 90.187648377 -0.099736474 0 243 174
5.511980059 90.091743012 -0.110362388 0 241 186
5.510757378 89.994533005 -0.111452269 0 241 186
5.504104735 89.895277242 -0.097544575 0 243 174
5.497829393 89.796167762 -0.084677725 0 245 159
5.497816643 89.699417087 -0.089105972 0 244 165
5.498382280 89.602882880 -0.095130636 0 243 171
5.497014194 89.505621804 -0.095813618 0 243 171
5.493389795 89.407515143 -0.090263879 0 244 165
5.488658023 89.308995744 -0.081654580 0 246 156
5.488058634 89.212025106 -0.084457417 0 245 159
5.492409696 89.116904240 -0.100932016 0 242 177
5.495926195 89.021467674 -0.115100718 0 240 189
5.497004988 88.925118446 -0.122535673 0 239 198
5.493983168 88.827239775 -0.118643886 0 239 195
5.487838316 88.728200209 -0.106125242 0 242 180
5.482313186 88.629394952 -0.095317084 0 243 171
5.480029093 88.531796956 -0.093459544 0 244 168
5.485204909 88.436967959 -0.112205401 0 241 186
5.482898746 88.339360819 -0.110284863 0 241 186
5.480589775 88.241753598 -0.108355494 0 241 183
5.476855045 88.143619930 -0.102487007 0 242 177
5.472443142 88.045238071 -0.094746996 0 243 171
5.466770238 87.946393277 -0.083522839 0 245 159
5.465608771 87.849215694 -0.084758611 0 245 159
5.471377422 87.754591175 -0.105135202 0 242 180
5.477191212 87.659978070 -0.125635627 0 238 201
5.477264815 87.563249489 -0.130279922 0 238 204
5.472025566 87.464568934 -0.120248210 0 239 195
5.467708588 87.366229924 -0.112762825 0 240 189
5.466577887 87.269061123 -0.114077431 0 240 189
5.466627155 87.172324375 -0.118650319 0 239 195
5.466738240 87.075609399 -0.123392951 0 239 198
5.466899671 86.978911935 -0.128273645 0 238 204
5.465950968 86.881808399 -0.130086858 0 238 204
5.461813808 86.783542355 -0.123091657 0 239 198
5.454906857 86.684269926 -0.108444379 0 241 183
5.448923233 86.585337888 -0.096346398 0 243 171
5.446601305 86.487740394 -0.094361980 0 243 171
5.445396875 86.390549583 -0.095463380 0 243 171
5.443772715 86.293206671 -0.095404294 0 243 171
5.443721281 86.196433983 -0.099688580 0 243 174
5.445795186 86.100429713 -0.109842820 0 241 186
5.446456808 86.003912490 -0.116094841 0 240 192
5.445697257 85.906880720 -0.118420025 0 239 195
5.443820325 85.809445625 -0.117657507 0 240 192
5.440551825 85.711509672 -0.113049822 0 240 189
5.436730841 85.613376524 -0.106914825 0 241 183
5.433928364 85.515611770 -0.103592285 0 242 180
5.433242454 85.418608709 -0.106115603 0 242 180
5.433330456 85.321883102 -0.110775805 0 241 186
5.434196219 85.225435441 -0.117583560 0 240 192
5.437306850 85.129790200 -0.130591799 0 237 207
5.441565662 85.034552511 -0.146770991 0 235 222
5.442325540 84.938060506 -0.153283346 0 234 228
5.437753167 84.839663785 -0.145064078 0 235 219
5.431612780 84.740710656 -0.132511922 0 237 207
5.426585173 84.642157775 -0.123032721 0 239 198
5.420655675 84.543287041 -0.111060803 0 241 186
5.414349729 84.444286239 -0.098047723 0 243 174
5.410057799 84.346004516 -0.090597418 0 244 165
5.408436284 84.248672368 -0.090523368 0 244 165
5.409852884 84.152417009 -0.098841519 0 243 174
5.415035418 84.057492536 -0.117562716 0 240 192
5.422199191 83.963263723 -0.141756577 0 236 216
5.429692068 83.869144874 -0.166858843 0 231 243
5.432984108 83.773537657 -0.180354609 0 229 255
5.426949977 83.674640847 -0.168083813 0 231 243
5.416385639 83.574153256 -0.143296052 0 235 219
5.407102393 83.474123378 -0.122046312 0 239 198
5.400445967 83.375022408 -0.108052586 0 241 183
5.395675775 83.276587506 -0.099268904 0 243 174
5.393063023 83.178911564 -0.096444636 0 243 171
5.392345858 83.081900441 -0.098856425 0 243 174
5.392224798 82.985097538 -0.102914109 0 242 177
5.391096823 82.887942201 -0.104188828 0 242 180
5.387743444 82.790010403 -0.099314035 0 243 174
5.391390763 82.694520532 -0.113780127 0 240 189
5.386685705 82.596118980 -0.105168678 0 242 180
5.386248119 82.499204441 -0.108346657 0 241 183
5.388482335 82.403217673 -0.118905553 0 239 195
5.389750537 82.306893174 -0.126794471 0 238 201
5.389744209 82.210125102 -0.131160959 0 237 207
5.390599221 82.113654506 -0.137906269 0 236 213
5.385754131 82.015210867 -0.128901399 0 238 204
5.386012922 81.918533569 -0.133997292 0 237 210
5.392085885 81.823861912 -0.155156700 0 233 231
5.386700798 81.725234731 -0.144656569 0 235 219
5.386205218 81.628294641 -0.147665087 0 235 222
5.390568894 81.533025641 -0.164098874 0 232 240
5.384422062 81.434141108 -0.151490695 0 234 228
5.390390326 81.339418615 -0.172356124 0 230 249
5.381976990 81.239760226 -0.153483198 0 234 228
5.374520700 81.140435216 -0.137253424 0 236 213
5.370577093 81.042316713 -0.130728337 0 237 207
5.366887157 80.944287111 -0.124903041 0 238 201
5.361999049 80.845850589 -0.115765910 0 240 192
5.359674897 80.748291144 -0.113712215 0 240 189
5.361374274 80.652102900 -0.122775107 0 239 198
5.364326034 80.556338595 -0.135297582 0 237 210
5.364801149 80.459729726 -0.140975676 0 236 216
5.362164797 80.362063663 -0.138055130 0 236 213
5.359422150 80.264362792 -0.134839774 0 237 210
5.359969281 80.167777288 -0.140713748 0 236 216
5.361994790 80.071690662 -0.150671847 0 234 225
5.361548146 79.974766418 -0.153797766 0 234 228
5.358801838 79.877065602 -0.150568043 0 234 225
5.356563013 79.779537180 -0.148739544 0 234 225
5.355281726 79.682332121 -0.149555929 0 234 225
5.352319520 79.584561874 -0.145726339 0 235 222
5.347432612 79.486146460 -0.136577044 0 236 213
5.341894553 79.387515473 -0.125627234 0 238 201
5.337383689 79.289232255 -0.117514755 0 240 192
5.334969216 79.191653628 -0.115194245 0 240 189
5.333740158 79.094472519 -0.116148407 0 240 192
5.331180846 78.996847177 -0.113425482 0 240 189
5.326163087 78.898402665 -0.103907738 0 242 180
5.321657852 78.800132026 -0.095805156 0 243 171
5.319499736 78.702645448 -0.094187566 0 244 168
5.318738536 78.605624266 -0.096429214 0 243 171
5.320251149 78.509358148 -0.104953445 0 242 180
5.323183397 78.413561097 -0.117399844 0 240 192
5.323649306 78.316943700 -0.123029562 0 239 198
5.320681156 78.219188450 -0.119168180 0 239 195
5.315746696 78.120784562 -0.109871730 0 241 186
5.309705599 78.022018193 -0.097515870 0 243 174
5.302633720 77.922915633 -0.082310185 0 245 159
5.299162081 77.825003922 -0.077052810 0 246 153
5.302321428 77.729276374 -0.090119635 0 244 165
5.304741223 77.633302530 -0.101141697 0 242 177
5.302323818 77.535737804 -0.098794630 0 243 174
5.295640499 77.436775092 -0.084657051 0 245 159
5.289127150 77.337872380 -0.070987994 0 247 147
5.287791165 77.240667884 -0.071626205 0 247 147
5.290962371 77.144936653 -0.084719758 0 245 159
5.294506079 77.049323824 -0.098841857 0 243 174
5.298416512 76.953827086 -0.113976548 0 240 189
5.304124249 76.858911920 -0.134077564 0 237 210
5.310132846 76.764089489 -0.155009209 0 233 231
5.313543755 76.668417685 -0.168760650 0 231 243
5.312193081 76.571197237 -0.169351289 0 231 246
5.307086579 76.472759607 -0.159560609 0 233 234
5.302012788 76.374335689 -0.149859162 0 234 225
5.298803090 76.276517682 -0.145308529 0 235 222
5.296583890 76.179021281 -0.143494331 0 235 219
5.294734095 76.081644975 -0.142700016 0 235 219
5.293756837 75.984550471 -0.144316177 0 235 219
5.294352985 75.887962348 -0.150279952 0 234 225
5.295010160 75.791392615 -0.156411389 0 233 231
5.292684081 75.693863701 -0.154296442 0 234 228
5.288580374 75.595765680 -0.147267212 0 235 222
5.285168015 75.497891476 -0.142147663 0 236 216
5.290367257 75.402774377 -0.160828845 0 232 237
5.287160333 75.304966197 -0.156274980 0 233 231
5.282181384 75.206594084 -0.146822195 0 235 222
5.281586007 75.109622501 -0.149484309 0 234 225
5.283783235 75.013539827 -0.159864093 0 233 234
5.284608607 74.917018396 -0.166451103 0 231 243
5.282111088 74.819440012 -0.163852591 0 232 240
5.277334083 74.721139529 -0.154952417 0 233 231
5.272010128 74.622668592 -0.144539283 0 235 219
5.268938176 74.524913738 -0.140349634 0 236 216
5.269975487 74.428459532 -0.147517159 0 235 222
5.274731904 74.333178078 -0.164963606 0 232 240
5.278019614 74.237429035 -0.178349506 0 229 255
5.273724651 74.139288251 -0.170775107 0 231 246
5.265784413 74.040003142 -0.153123554 0 234 228
5.259735653 73.941317672 -0.140699061 0 236 216
5.255047120 73.843062945 -0.132033240 0 237 207
5.249985033 73.744693930 -0.122333694 0 239 198
5.244843218 73.646303045 -0.112412589 0 240 189
5.240782229 73.548253286 -0.105477923 0 242 180
5.239301855 73.451011828 -0.105675478 0 242 180
5.241994038 73.355072300 -0.117405846 0 240 192
5.246600500 73.259726349 -0.134426788 0 237 210
5.246961690 73.163055097 -0.139711816 0 236 216
5.238173300 73.063539186 -0.119703935 0 239 195
5.229445956 72.964048162 -0.099863524 0 243 174
4.839547241 53.017801531 0.122738825 182 255 22
4.849859517 52.923405174 0.090139375 142 255 40
4.869259290 52.831102833 0.032393928 73 255 70
4.884098020 52.737731337 -0.012729697 18 255 94
4.890033533 52.642294543 -0.033215604 0 254 108
4.891426874 52.545806708 -0.041131412 0 252 117
4.889347378 52.448518824 -0.039436034 0 253 114
4.886789731 52.351122054 -0.036416376 0 253 111
4.884168600 52.253711943 -0.033219916 0 254 108
4.887804221 52.157734027 -0.047336508 0 251 123
4.881672926 52.059522577 -0.034424217 0 253 111
4.875912559 51.961399608 -0.022537171 4 255 100
4.870611455 51.863384797 -0.011919837 18 255 94
4.863864587 51.765044841 0.002699617 36 255 86
4.857944983 51.666896906 0.015030990 51 255 80
4.855710708 51.569587144 0.017164936 55 255 78
4.859820623 51.473712311 0.001743236 33 255 88
4.868993599 51.378976055 -0.027688992 0 255 102
4.876148947 51.283777536 -0.051536820 0 251 126
4.875898251 51.186907297 -0.054888166 0 250 129
4.870875374 51.088965135 -0.045031754 0 252 120
4.864676058 50.990762394 -0.031918410 0 254 108
4.859100027 50.892703091 -0.020528754 7 255 99
4.854726635 50.794915912 -0.012466158 18 255 94
4.851453755 50.697376708 -0.007448037 22 255 92
4.850488172 50.600352836 -0.008814216 22 255 92
4.852565016 50.504005005 -0.018599275 11 255 97
4.855949011 50.407944798 -0.032000914 0 254 108
4.857053178 50.311376395 -0.039092064 0 253 114
4.854927345 50.214092362 -0.037242972 0 253 114
4.851880877 50.116606034 -0.032844840 0 254 108
4.850427043 50.019472137 -0.032853313 0 254 108
4.852251830 49.923059624 -0.041934601 0 252 117
4.853638886 49.826548867 -0.049803407 0 251 126
4.851554478 49.729275517 -0.048063473 0 251 123
4.848103032 49.631703939 -0.042538952 0 252 117
4.844283219 49.534053800 -0.035993760 0 253 111
4.839356962 49.436164615 -0.026385132 0 255 102
4.833261325 49.338023957 -0.013538835 15 255 96
4.826802158 49.239808231 0.000314833 33 255 88
4.822861596 49.142142874 0.007198970 40 255 84
4.822496161 49.045253714 0.004189307 36 255 86
4.822736892 48.948495071 -0.000496994 33 255 88
4.823330047 48.851811515 -0.006157666 25 255 91
4.824913372 48.755339968 -0.014557851 15 255 96
4.827009353 48.658976656 -0.024375941 4 255 100
4.828295372 48.562437198 -0.031951217 0 254 108
4.827244768 48.465395534 -0.033058147 0 254 108
4.822708734 48.367608724 -0.024516935 4 255 100
4.815900347 48.269339659 -0.009685038 22 255 92
4.809513280 48.171164804 0.003981962 36 255 86
4.804773921 48.073344475 0.013089565 47 255 81
4.801227630 47.975780274 0.018896098 55 255 78
4.799175814 47.878534701 0.020567245 58 255 76
4.796728660 47.781206326 0.023333767 62 255 75
4.793633762 47.683742312 0.027894320 66 255 73
4.791261260 47.586432153 0.030456479 69 255 72
4.789628327 47.489278635 0.030972678 69 255 72
4.787785001 47.392081435 0.032072342 73 255 70
4.785961446 47.294889036 0.033118391 73 255 70
4.784682936 47.197811312 0.032656876 73 255 70
4.785215797 47.101112092 0.027182581 66 255 73
4.788247388 47.004932584 0.014792805 51 255 80
4.790205343 46.908526613 0.005375863 40 255 84
4.788271649 46.811310140 0.006732187 40 255 84
4.785929931 46.714009807 0.009219059 44 255 83
4.785240454 46.617052402 0.007133537 40 255 84
4.782789371 46.519730925 0.009925375 44 255 83
4.788254290 46.424042540 -0.009193940 22 255 92
4.787228604 46.327013598 -0.010345614 18 255 94
4.789518746 46.230665748 -0.020674832 7 255 99
4.791395460 46.134230637 -0.029858622 0 254 105
4.788150791 46.036745339 -0.024864616 4 255 100
4.784240077 45.939125731 -0.018025737 11 255 97
4.780869000 45.841618374 -0.012679497 18 255 94
4.776458560 45.743901346 -0.004454937 25 255 91
4.771560120 45.646087824 0.005121693 40 255 84
4.767772659 45.548502513 0.011624081 47 255 81
4.768282111 45.451788780 0.006232759 40 255 84
4.774322403 45.356190899 -0.014468275 15 255 96
4.781374752 45.260791655 -0.037970055 0 253 114
4.785888918 45.164875605 -0.054444566 0 250 129
4.785414150 45.067953521 -0.057107304 0 250 132
4.779035738 44.969847790 -0.043425861 0 252 120
4.769381353 44.871090837 -0.020674229 7 255 99
4.760308671 44.772456657 0.000468386 33 255 88
4.753080761 44.674196291 0.016505342 51 255 80
4.748853377 44.576537501 0.024237016 62 255 75
4.749470190 44.479842849 0.018559310 55 255 78
4.753377224 44.383798883 0.003774030 36 255 86
4.757321277 44.287758500 -0.011112776 18 255 94
4.757336936 44.190938999 -0.015123190 15 255 96
4.754010853 44.093460450 -0.009881151 22 255 92
4.751113710 43.996068023 -0.005825450 25 255 91
4.748594178 43.898751157 -0.002814008 29 255 89
4.746252959 43.801470386 -0.000295085 33 255 88
4.744570854 43.704319483 0.000400218 33 255 88
4.743085426 43.607207482 0.000552132 33 255 88
4.741406313 43.510058155 0.001241370 33 255 88
4.740734665 43.413105124 -0.000857475 33 255 88
4.741969320 43.316521546 -0.008232918 22 255 92
4.743155914 43.219926971 -0.015474270 15 255 96
4.741983359 43.122875028 -0.016183118 11 255 97
4.737667983 43.025217343 -0.008189704 22 255 92
4.732506678 42.927399447 0.002146936 36 255 86
4.728829252 42.829869680 0.008376496 44 255 83
4.726858678 42.732669069 0.009881590 44 255 83
4.723354637 42.635175929 0.015633424 51 255 80
4.718457343 42.537418782 0.025243853 62 255 75
4.716019665 42.440133161 0.028045625 66 255 73
4.718057021 42.343699396 0.018458587 55 255 78
4.722531350 42.247725679 0.002125318 36 255 86
4.725018890 42.151371603 -0.008706164 22 255 92
4.723550991 42.054267446 -0.008585133 22 255 92
4.717438089 41.956287707 0.004397799 36 255 86
4.710177609 41.858095918 0.020559324 58 255 76
4.714261862 41.762039641 0.005311215 40 255 84
4.723112195 41.666872811 -0.023132159 4 255 100
4.729429615 41.571224679 -0.044561599 0 252 120
4.729689210 41.474440162 -0.049217203 0 251 126
4.722221677 41.376215237 -0.032476721 0 254 108
4.711031404 41.277303198 -0.005427316 25 255 91
4.700516964 41.178524344 0.019752186 55 255 78
4.694140981 41.080518969 0.033474232 73 255 70
4.693112209 40.983505651 0.032391762 73 255 70
4.694763665 40.886986534 0.023889130 62 255 75
4.697314423 40.790630868 0.012897440 47 255 81
4.700265850 40.694346067 0.000797326 33 255 88
4.703487969 40.598107856 -0.012051327 18 255 94
4.703789467 40.501332407 -0.016811963 11 255 97
4.701038778 40.403999063 -0.013120164 18 255 94
4.697908380 40.306597932 -0.008375813 22 255 92
4.695683250 40.209362929 -0.006136985 25 255 91
4.693932277 40.112214849 -0.005209970 25 255 91
4.690532894 40.014769101 0.000282636 33 255 88
4.693478619 39.918470822 -0.011793380 18 255 94
4.688451196 39.820733019 -0.001790430 29 255 89
4.686689118 39.723585377 -0.000828193 33 255 88
4.684738335 39.626404475 0.000657699 33 255 88
4.679478893 39.528631988 0.011306661 47 255 81
4.674965549 39.430996053 0.019890822 55 255 78
4.673317014 39.333873493 0.020543201 58 255 76
4.674770422 39.237303201 0.012607031 47 255 81
4.677345871 39.140930202 0.001564801 33 255 88
4.679135237 39.044415257 -0.007299649 22 255 92
4.679671848 38.947676793 -0.012693992 18 255 94
4.677928136 38.850535041 -0.011772656 18 255 94
4.673046479 38.752841703 -0.002160627 29 255 89
4.665713964 38.654721021 0.014239539 51 255 80
4.658333642 38.556596818 0.030773364 69 255 72
4.654460093 38.459090550 0.037597387 76 255 68
4.655637287 38.362467517 0.030435821 69 255 72
4.658230200 38.266089241 0.019354793 55 255 78
4.658173886 38.169248138 0.015611205 51 255 80
4.654593042 38.071795569 0.021629135 58 255 76
4.648224123 37.973862912 0.035369259 76 255 68
4.640904492 37.875770354 0.051743455 95 255 60
4.635552403 37.778021335 0.062670144 109 255 54
4.633646143 37.680867506 0.064055361 109 255 54
4.633071354 37.583942565 0.061754378 106 255 56
4.630885665 37.486741857 0.063915667 109 255 54
4.626069140 37.389093218 0.073363884 120 255 49
4.620189707 37.291266573 0.085756924 135 255 43
4.614947950 37.193551978 0.096385210 149 255 36
4.611683200 37.096175672 0.101539528 156 255 33
4.614154357 36.999770946 0.090809747 142 255 40
4.620276710 36.903979533 0.069969139 116 255 51
4.622865433 36.807587916 0.058915714 102 255 57
4.620950732 36.710437285 0.060335449 106 255 56
4.616628178 36.612883925 0.068424846 116 255 51
4.612551849 36.515374280 0.075833513 124 255 48
4.609784819 36.418085374 0.079617226 127 255 46
4.606627611 36.320732904 0.084482697 135 255 43
4.603468221 36.223381733 0.089355373 142 255 40
4.602148329 36.126336922 0.089134593 142 255 40
4.602602883 36.029585608 0.084000450 135 255 43
4.602903469 35.932807809 0.079293796 127 255 46
4.600048243 35.835509917 0.083328563 135 255 43
4.593279064 35.737571135 0.098204651 153 255 35
4.594511944 35.640946940 0.090919212 142 255 40
4.593582884 35.543967906 0.089622624 142 255 40
4.589256746 35.446435230 0.097735893 149 255 36
4.593640699 35.350321206 0.081726217 131 255 44
4.596581770 35.253969043 0.069713830 116 255 51
4.598277915 35.157412427 0.061150511 106 255 56
4.597311349 35.060423910 0.059963173 106 255 56
4.593590732 34.962991836 0.066404917 113 255 52
4.589136730 34.865444021 0.074879124 124 255 48
4.586619848 34.768209355 0.077989172 127 255 46
4.585646296 34.671222645 0.076825684 124 255 48
4.584052973 34.574137060 0.077379932 127 255 46
4.588476350 34.478009435 0.061270232 106 255 56
4.582511386 34.380228451 0.073935263 120 255 49
4.577997931 34.282681159 0.082581097 131 255 44
4.575432639 34.185444360 0.085832026 135 255 43
4.575529508 34.088628353 0.081710295 131 255 44
4.579069026 33.992352795 0.068053945 116 255 51
4.581717366 33.895934001 0.056867029 102 255 57
4.577604424 33.798454542 0.064409170 109 255 54
4.569921153 33.700420219 0.081841989 131 255 44
4.563662203 33.602612782 0.095330830 149 255 36
4.559332854 33.505109076 0.103476039 156 255 33
4.555638452 33.407706301 0.109863671 164 255 30
4.552319900 33.310363687 0.115211381 171 255 27
4.549232991 33.213058569 0.119918612 178 255 24
4.544775435 33.115544274 0.128423683 189 255 19
4.539561111 33.017916545 0.139026204 200 255 14
4.250555509 13.034101035 0.172078983 233 253 0
4.245967213 12.936888354 0.181187693 234 250 0
4.250350149 12.840340461 0.165421651 232 255 0
4.261155955 12.744259966 0.131846776 193 255 17
4.267473444 12.647842648 0.110718277 167 255 28
4.269610900 12.551116058 0.101181501 156 255 33
4.271553587 12.454372991 0.092185830 146 255 38
4.278131933 12.357960884 0.070336843 116 255 51
4.289079558 12.261855367 0.036373009 76 255 68
4.291400404 12.165127205 0.026331620 66 255 73
4.282118720 12.067575831 0.048464696 91 255 62
4.269932147 11.969826446 0.078654307 127 255 46
4.260456956 11.872275333 0.101326686 156 255 33
4.257077030 11.775154838 0.107098185 164 255 30
4.258863060 11.678393648 0.098545549 153 255 35
4.263200915 11.581805932 0.082917641 131 255 44
4.268188789 11.485258609 0.065488165 113 255 52
4.270711973 11.388538974 0.054894379 98 255 59
4.269496253 11.291563637 0.054669871 98 255 59
4.263726243 11.194282032 0.067075941 113 255 52
4.255716905 11.096854265 0.085693140 135 255 43
4.248922130 10.999512658 0.100943514 153 255 35
4.245059091 10.902369381 0.108065067 164 255 30
4.244241451 10.805428538 0.106742476 160 255 32
4.244465405 10.708555643 0.102532485 156 255 33
4.243804173 10.611624284 0.100778344 153 255 35
4.243196293 10.514696111 0.098877351 153 255 35
4.243567130 10.417830489 0.094263281 146 255 38
4.245404772 10.321057452 0.085582518 135 255 43
4.248674169 10.224373090 0.072932210 120 255 49
4.251061130 10.127629800 0.062730102 109 255 54
4.248752901 10.030589582 0.065549965 113 255 52
4.241517790 9.933243396 0.082034539 131 255 44
4.234188004 9.835896123 0.098782954 153 255 35
4.231449454 9.738836236 0.102799801 156 255 33
4.233134372 9.642048199 0.094550163 146 255 38
4.235633106 9.545307560 0.084044592 135 255 43
4.237161878 9.448505663 0.076230064 124 255 48
4.236855155 9.351591685 0.073507048 120 255 49
4.234670007 9.254565176 0.075994676 124 255 48
4.231947574 9.157507744 0.079973544 131 255 44
4.229918934 9.060492464 0.082029408 131 255 44
4.229093720 8.963548339 0.080748828 131 255 44
4.230221847 8.866717548 0.074051922 124 255 48
4.234403275 8.770061323 0.058887948 102 255 57
4.240205587 8.673494041 0.039229513 80 255 67
4.243383058 8.576772082 0.026851891 66 255 73
4.241286906 8.479748653 0.029101513 69 255 72
4.235986647 8.382546070 0.040238817 80 255 67
4.230503245 8.285336560 0.051885299 95 255 60
4.226877388 8.188233408 0.058381088 102 255 57
4.225737266 8.091269044 0.057983808 102 255 57
4.224216613 7.994283991 0.058643062 102 255 57
4.219423586 7.897121776 0.068379543 116 255 51
4.211225321 7.799779003 0.087561898 138 255 41
4.204752060 7.702534018 0.101961122 156 255 33
4.206861499 7.605749052 0.092556676 146 255 38
4.213763701 7.509214407 0.069860010 116 255 51
4.220476843 7.412663806 0.047688620 91 255 62
4.226087489 7.316050005 0.028576055 66 255 73
4.231134074 7.219402042 0.011028926 47 255 81
4.235720773 7.122725897 -0.005241686 25 255 91
4.237824470 7.025919304 -0.014624295 15 255 96
4.233903639 6.928806523 -0.007295707 22 255 92
4.223804875 6.831386803 0.017169828 55 255 78
4.214078718 6.733992556 0.040603212 80 255 67
4.208778664 6.636823103 0.051761131 95 255 60
4.204933066 6.539728058 0.058885989 102 255 57
4.199833606 6.442574361 0.069489943 116 255 51
4.201985068 6.345772781 0.059982722 106 255 56
4.200913763 6.248814907 0.059415787 106 255 56
4.194938212 6.151624806 0.072453357 120 255 49
4.197379619 6.054833937 0.062145114 109 255 54
4.203058418 5.958191276 0.042857926 84 255 65
4.197529871 5.861025567 0.054659047 98 255 59
4.191798292 5.763854018 0.067024585 113 255 52
4.186743669 5.666716856 0.077513576 127 255 46
4.184313404 5.569701060 0.080724131 131 255 44
4.184058004 5.472783527 0.077902995 127 255 46
4.182920106 5.375826327 0.077530918 127 255 46
4.181006823 5.278835177 0.079310812 127 255 46
4.180592682 5.181909981 0.076933322 124 255 48
4.181022342 5.085020737 0.072216266 120 255 49
4.178432182 4.988001253 0.075877147 124 255 48
4.171569360 4.890801903 0.091391445 142 255 40
4.163450508 4.793554290 0.110391225 167 255 28
4.157749121 4.696412730 0.122686258 182 255 22
4.154436445 4.599373257 0.128356206 189 255 19
4.151503028 4.502351042 0.132975253 193 255 17
4.147803621 4.405299308 0.139720352 200 255 14
4.145082439 4.308288846 0.143752986 207 255 11
4.146592135 4.211447655 0.136050024 197 255 16
4.151340963 4.114731882 0.119362482 178 255 24
4.155291241 4.017980606 0.104891149 160 255 32
4.156840532 3.921132976 0.097081400 149 255 36
4.155234377 3.824162957 0.098026293 153 255 35
4.150023586 3.727057206 0.108972075 164 255 30
4.144665820 3.629949180 0.120326816 178 255 24
4.142631697 3.532967513 0.122462448 182 255 22
4.141655788 3.436025397 0.121663547 178 255 24
4.141269151 3.339104617 0.119230999 178 255 24
4.143111860 3.242263317 0.110614884 167 255 28
4.147192656 3.145499243 0.095790856 149 255 36
4.151483298 3.048738633 0.080385639 131 255 44
4.153830750 2.951906501 0.070372280 116 255 51
4.153243078 2.854971026 0.068502744 116 255 51
4.151628280 2.758000357 0.069483835 116 255 51
4.152624916 2.661117808 0.063221184 109 255 54
4.157134003 2.564350273 0.047214995 91 255 62
4.159152639 2.467496822 0.038119061 80 255 67
4.155362930 2.370452767 0.045138418 87 255 64
4.148435266 2.273310325 0.060864722 106 255 56
4.139020193 2.176093695 0.083493259 135 255 43
4.126975956 2.078801305 0.113417407 171 255 27
4.119411974 1.981655736 0.130913023 189 255 19
4.119747592 1.884756125 0.126493306 186 255 20
4.122775340 1.787936560 0.114605593 171 255 27
4.125329171 1.691099807 0.104033727 160 255 32
4.125567454 1.594192362 0.099887219 153 255 35
4.124259676 1.497239176 0.100031261 153 255 35
4.124037804 1.400317256 0.097163617 149 255 36
4.125493227 1.303442030 0.089643445 142 255 40
4.126518082 1.206552937 0.083318923 135 255 43
4.125249047 1.109599355 0.083359869 135 255 43
4.123160751 1.012623810 0.085674990 135 255 43
4.123250404 0.915707168 0.081948462 131 255 44
4.124846406 0.818829274 0.074043582 124 255 48
4.125079289 0.721914076 0.069921799 116 255 51
4.123495570 0.624951571 0.070841390 116 255 51
4.121701719 0.527984224 0.072345137 120 255 49
4.120114967 0.431022603 0.073275400 120 255 49
4.116345193 0.334008230 0.080263836 131 255 44
4.110968390 0.236957431 0.091712364 142 255 40
4.106221788 0.139924852 0.101413541 156 255 33
4.102139187 0.042910551 0.109273560 164 255 30
4.099249921 -0.054074149 0.113823666 171 255 27
4.099127948 -0.150995286 0.110696578 167 255 28
4.100513893 -0.247883832 0.103386563 156 255 33
4.099226673 -0.344832178 0.103494850 156 255 33
4.103620583 -0.441659310 0.087840702 138 255 41
4.099482201 -0.538669047 0.095862374 149 255 36
4.095982599 -0.635663272 0.102112789 156 255 33
4.092664292 -0.732651936 0.107861334 164 255 30
4.089647017 -0.829632883 0.112775757 167 255 28
4.087500405 -0.926595418 0.115275440 171 255 27
4.085576053 -1.023552861 0.117159538 175 255 25
4.082335372 -1.120534109 0.122697343 182 255 22
4.080702476 -1.217484336 0.123774992 182 255 22
4.083305377 -1.314358485 0.113100092 171 255 27
4.088329421 -1.411193122 0.095707880 149 255 36
4.093445688 -1.508030814 0.078060708 127 255 46
4.099015201 -1.604865638 0.059156777 106 255 56
4.103685327 -1.701720184 0.042749489 84 255 65
4.104312942 -1.798643491 0.037560771 76 255 68
4.099951932 -1.895645620 0.046216184 87 255 64
4.093208598 -1.992681310 0.061483605 106 255 56
4.085682075 -2.089724182 0.078925608 127 255 46
4.077873198 -2.186766125 0.097152422 149 255 36
4.073187145 -2.283759094 0.106714758 160 255 32
4.074308749 -2.380670085 0.100162096 153 255 35
4.077569441 -2.477554376 0.087674502 138 255 41
4.078939669 -2.574466265 0.080433986 131 255 44
4.077728634 -2.671412198 0.080357605 131 255 44
4.076094686 -2.768363097 0.081455951 131 255 44
4.075602317 -2.865300149 0.079387473 127 255 46
4.076125729 -2.962226094 0.074501223 124 255 48
4.077931423 -3.059139181 0.066057600 113 255 52
4.081760538 -3.156033059 0.051999810 95 255 60
4.087064845 -3.252915635 0.033849178 73 255 70
4.092156401 -3.349805143 0.016289896 51 255 80
4.095559046 -3.446715231 0.003418531 36 255 86
4.094834829 -3.543665971 0.002000843 36 255 86
4.089009578 -3.640661035 0.014740497 51 255 80
4.081654608 -3.737665051 0.031726642 69 255 72
4.074718609 -3.834660903 0.047551344 91 255 62
4.070349886 -3.931632973 0.056252589 102 255 57
4.069878449 -4.028574754 0.054139198 98 255 59
4.072281349 -4.125497615 0.044049934 87 255 64
4.075832970 -4.222415810 0.030773702 69 255 72
4.079064493 -4.319339417 0.018386819 55 255 78
4.079936888 -4.416279440 0.012548163 47 255 81
4.077191282 -4.513239706 0.016751580 51 255 80
4.072547812 -4.610207775 0.026223307 66 255 73
4.068540713 -4.707170245 0.033930115 73 255 70
4.066874889 -4.804120955 0.035140297 76 255 68
4.066655351 -4.901065873 0.032337666 73 255 70
4.064483177 -4.998017801 0.034955392 76 255 68
4.058849510 -5.094978857 0.047181197 91 255 62
4.052115979 -5.191939133 0.062460784 109 255 54
4.047618965 -5.288890269 0.071534412 120 255 49
4.047370477 -5.385831334 0.068817830 116 255 51
4.050987007 -5.482767736 0.055375265 98 255 59
4.055877276 -5.579706450 0.038398499 80 255 67
4.060099235 -5.676650092 0.023277551 62 255 75
4.061156681 -5.773598413 0.016940577 55 255 78
4.057208174 -5.870547448 0.024498584 62 255 75
4.051811077 -5.967493426 0.036078339 76 255 68
4.048040249 -6.064437578 0.043145600 84 255 65
4.045913545 -6.161381797 0.045650747 87 255 64
4.045597011 -6.258328262 0.043132847 84 255 65
4.049968894 -6.355285078 0.027603110 66 255 73
4.057790536 -6.452254573 0.002499317 36 255 86
4.062065594 -6.549220706 -0.012759786 18 255 94
4.058245793 -6.646164642 -0.005549920 25 255 91
4.048575256 -6.743085206 0.017900457 55 255 78
4.041045099 -6.840007719 0.035411304 76 255 68
4.049158584 -6.936993983 0.009502480 44 255 83
4.058122935 -7.033991320 -0.018767177 11 255 97
3.873761830 -27.008653771 -0.181343084 0 229 255
3.854436864 -27.104076235 -0.130811292 0 237 207
3.825391678 -27.198661973 -0.053270811 0 250 129
3.812137480 -27.294568727 -0.019603066 7 255 99
3.812172345 -27.391601023 -0.022857166 4 255 100
3.804576863 -27.487979551 -0.004909384 25 255 91
3.799627538 -27.584581064 0.005687338 40 255 84
3.797166732 -27.681394965 0.009370893 44 255 83
3.795423597 -27.778270167 0.011061524 47 255 81
3.793562625 -27.875134535 0.013080699 47 255 81
3.791673745 -27.971995822 0.015178546 51 255 80
3.788828420 -28.068772196 0.019935069 58 255 76
3.784009529 -28.165372564 0.030176455 69 255 72
3.777694421 -28.261837067 0.044576426 87 255 64
3.773377314 -28.358475827 0.053425990 98 255 59
3.773526162 -28.455512353 0.049867560 91 255 62
3.778283615 -28.552964633 0.033504588 73 255 70
3.782135326 -28.650339489 0.019659304 55 255 78
3.782919914 -28.747439657 0.014337485 51 255 80
3.781570171 -28.844346642 0.014947331 51 255 80
3.778249495 -28.941072944 0.021034894 58 255 76
3.774339609 -29.037743319 0.028760864 66 255 73
3.772648763 -29.134616350 0.030321943 69 255 72
3.774607344 -29.231827201 0.021743388 58 255 76
3.780210216 -29.329379600 0.003039323 36 255 86
3.788337701 -29.427173090 -0.022679088 4 255 100
3.793630350 -29.524707552 -0.040519290 0 252 117
3.789183249 -29.621328977 -0.031293937 0 254 108
3.780509091 -29.717547785 -0.010321272 18 255 94
3.772284554 -29.813803443 0.009403295 44 255 83
3.768657129 -29.910492121 0.016354615 51 255 80
3.768612557 -30.007521975 0.013350961 47 255 81
3.768306195 -30.104527418 0.011075860 47 255 81
3.767895267 -30.201523326 0.009092421 44 255 83
3.767050036 -30.298477618 0.008316943 44 255 83
3.763757934 -30.395193934 0.014342143 51 255 80
3.759030035 -30.491768236 0.024358448 62 255 75
3.755176889 -30.588425502 0.031945093 73 255 70
3.752549341 -30.685201290 0.036127072 76 255 68
3.749681123 -30.781952063 0.040979009 84 255 65
3.746470496 -30.878667449 0.046783637 87 255 64
3.743434079 -30.975398521 0.052105305 95 255 60
3.740854368 -31.072173729 0.056158956 102 255 57
3.739513223 -31.169072096 0.056771788 102 255 57
3.739295917 -31.266083488 0.054262576 98 255 59
3.740145229 -31.363203411 0.048790293 91 255 62
3.743000030 -31.460528435 0.037745745 76 255 68
3.746893911 -31.557962367 0.023814543 62 255 75
3.749033214 -31.655220571 0.014760397 51 255 80
3.748643670 -31.752221506 0.012735122 47 255 81
3.746231357 -31.849014425 0.016332387 51 255 80
3.741587102 -31.945575351 0.026133587 66 255 73
3.736007696 -32.042036387 0.038534880 80 255 67
3.732776669 -32.138738720 0.044410956 87 255 64
3.732686762 -32.235767997 0.041558579 84 255 65
3.732591342 -32.332797424 0.038722603 80 255 67
3.730297273 -32.429595859 0.041998121 84 255 65
3.728428236 -32.526438286 0.044093538 87 255 64
3.729132832 -32.623553291 0.039037453 80 255 67
3.732000718 -32.720900122 0.027970197 66 255 73
3.735761660 -32.818345451 0.014421938 51 255 80
3.737429271 -32.915569828 0.006692515 40 255 84
3.734725614 -33.012325511 0.011112964 47 255 81
3.731518897 -33.109025542 0.016932693 55 255 78
3.731905887 -33.206113703 0.012765687 47 255 81
3.734265694 -33.303417704 0.003116722 36 255 86
3.735476471 -33.400598803 -0.003337728 29 255 89
3.734075504 -33.497495333 -0.002532276 29 255 89
3.731542697 -33.594267076 0.001420045 33 255 88
3.729838885 -33.691129183 0.003069451 36 255 86
3.728024215 -33.787978499 0.005028092 40 255 84
3.724442777 -33.884630827 0.011898357 47 255 81
3.718478585 -33.981015422 0.025392377 62 255 75
3.717435456 -34.077947029 0.025210055 62 255 75
3.710427553 -34.174208720 0.041607378 84 255 65
3.704650278 -34.270604508 0.054585532 98 255 59
3.699170459 -34.367030288 0.066738158 113 255 52
3.695840555 -34.463696594 0.072916427 120 255 49
3.699277412 -34.561131532 0.060287908 106 255 56
3.709859298 -34.659386120 0.027800942 66 255 73
3.713717945 -34.756879037 0.014001934 51 255 80
3.714131646 -34.853979539 0.009779135 44 255 83
3.710779129 -34.950646583 0.016025661 51 255 80
3.714119161 -35.048086661 0.003671220 36 255 86
3.712632414 -35.144969443 0.004734001 36 255 86
3.713273523 -35.242099865 -0.000116596 33 255 88
3.713484362 -35.339181269 -0.003770172 29 255 89
3.713030223 -35.436185626 -0.005574314 25 255 91
3.711935811 -35.533115077 -0.005597669 25 255 91
3.710209508 -35.629969871 -0.003863510 29 255 89
3.709047810 -35.726891023 -0.003697619 29 255 89
3.709932662 -35.824055312 -0.009219282 22 255 92
3.714134689 -35.921616601 -0.023960477 4 255 100
3.712617759 -36.018497829 -0.022803939 4 255 100
3.715232021 -36.115874446 -0.033129660 0 254 108
3.709326634 -36.212228213 -0.019772402 7 255 99
3.700706956 -36.308250427 0.001131012 33 255 88
3.690112523 -36.404027555 0.027524988 66 255 73
3.684845994 -36.500444895 0.039110193 80 255 67
3.685366179 -36.597564534 0.034611037 73 255 70
3.691195724 -36.695334765 0.015354220 51 255 80
3.697887933 -36.793216125 -0.006299683 25 255 91
3.696386125 -36.890094914 -0.005175109 25 255 91
3.687578628 -36.986071354 0.016258906 51 255 80
3.680004349 -37.082194552 0.034266119 73 255 70
3.676347024 -37.178799342 0.041386171 84 255 65
3.677235761 -37.275968641 0.035870090 76 255 68
3.681005438 -37.373499550 0.022346483 58 255 76
3.682741871 -37.470779216 0.014475986 51 255 80
3.679512796 -37.567436494 0.020410013 58 255 76
3.674534779 -37.663871446 0.031207068 69 255 72
3.674835927 -37.760971404 0.027329764 66 255 73
3.680237105 -37.858719721 0.009275872 44 255 83
3.688062631 -37.956781641 -0.015516604 15 255 96
3.695218634 -38.054764887 -0.038446983 0 253 114
3.697167717 -38.152087533 -0.046901468 0 251 123
3.690052285 -38.248248006 -0.030155859 0 254 105
3.678651721 -38.343851666 -0.001496396 29 255 89
3.673286284 -38.440227303 0.010386821 44 255 83
3.673905621 -38.537375352 0.005633523 40 255 84
3.676014998 -38.634718390 -0.003261059 29 255 89
3.677145670 -38.731936239 -0.009433790 22 255 92
3.676531763 -38.828927614 -0.010755462 18 255 94
3.675423485 -38.925854477 -0.010701662 18 255 94
3.675635671 -39.022954985 -0.014317750 15 255 96
3.677190238 -39.120233553 -0.021664706 7 255 99
3.678816876 -39.217523654 -0.029210997 0 254 105
3.678852493 -39.314604684 -0.032333035 0 254 108
3.676256905 -39.411336377 -0.028138911 0 255 102
3.672495979 -39.507911340 -0.020703838 7 255 99
3.669990128 -39.604652203 -0.016756898 11 255 97
3.669323198 -39.701638787 -0.017921327 11 255 97
3.668466458 -39.798600106 -0.018556961 11 255 97
3.664550709 -39.895148585 -0.010686853 18 255 94
3.658676567 -39.991429705 0.002629174 36 255 86
3.655731245 -40.088104765 0.007803657 40 255 84
3.654616302 -40.185027582 0.007890408 44 255 83
3.653875807 -40.282001471 0.006937202 40 255 84
3.654238827 -40.379126694 0.002917028 36 255 86
3.656467279 -40.476509146 -0.006288502 25 255 91
3.659245778 -40.573969855 -0.017022305 11 255 97
3.661109760 -40.671307223 -0.025212477 0 255 102
3.660693725 -40.768331117 -0.027062460 0 255 102
3.657932733 -40.865029888 -0.022391606 4 255 100
3.654584232 -40.961645531 -0.016086130 15 255 96
3.652330645 -41.058412273 -0.012823743 18 255 94
3.647923058 -41.154876507 -0.003571309 29 255 89
3.639122738 -41.250721445 0.017895793 55 255 78
3.625734880 -41.345914595 0.052119370 95 255 60
3.620428963 -41.442239099 0.063873277 109 255 54
3.621500804 -41.539463069 0.057895535 102 255 57
3.623345187 -41.636798311 0.049770831 91 255 62
3.632404212 -41.735162532 0.021587205 58 255 76
3.638228625 -41.833072945 0.002398126 36 255 86
3.639476928 -41.930333866 -0.004066273 29 255 89
3.636102578 -42.026933336 0.002323604 36 255 86
3.631560920 -42.123363086 0.011960342 47 255 81
3.630910117 -42.220351359 0.010779690 44 255 83
3.634038011 -42.317886425 -0.000906648 33 255 88
3.636386709 -42.415311708 -0.010425413 18 255 94
3.634459988 -42.512117978 -0.008055128 22 255 92
3.631070356 -42.608710303 -0.001615996 29 255 89
3.631458093 -42.705852937 -0.005678988 25 255 91
3.633124295 -42.803184028 -0.013295813 15 255 96
3.634115226 -42.900417982 -0.019033946 11 255 97
3.635752548 -42.997748726 -0.026568406 0 255 102
3.638098271 -43.095186164 -0.036071642 0 253 111
3.639423023 -43.192475015 -0.042734908 0 252 117
3.639003317 -43.289506681 -0.044546391 0 252 120
3.637000351 -43.386303144 -0.041954260 0 252 117
3.634464346 -43.483019314 -0.037878789 0 253 114
3.632252916 -43.579782898 -0.034704728 0 253 111
3.629704675 -43.676495055 -0.030592962 0 254 105
3.625403613 -43.772942431 -0.021605937 7 255 99
3.620133181 -43.869241133 -0.009922161 22 255 92
3.617217321 -43.965892514 -0.004784660 25 255 91
3.622987898 -44.063858903 -0.023800986 4 255 100
3.620395047 -44.160559817 -0.019559523 7 255 99
3.620146359 -44.257616605 -0.021835561 7 255 99
3.622230994 -44.355030317 -0.030599046 0 254 105
3.622160818 -44.452116551 -0.033369371 0 254 108
3.616818998 -44.548394456 -0.021479051 7 255 99
3.609980718 -44.644438801 -0.005426094 25 255 91
3.605941989 -44.740910505 0.002842954 36 255 86
3.606357747 -44.838068706 -0.001274194 29 255 89
3.609406901 -44.935636249 -0.012713465 18 255 94
3.610522542 -45.032906469 -0.018774836 11 255 97
3.608784450 -45.129733775 -0.016899180 11 255 97
3.605059238 -45.226250213 -0.009496369 22 255 92
3.599577803 -45.322489636 0.002791560 36 255 86
3.594598314 -45.418804417 0.013684817 47 255 81
3.593610516 -45.515744162 0.013478513 47 255 81
3.596376761 -45.613276003 0.002833378 36 255 86
3.599437452 -45.710857326 -0.008629616 22 255 92
3.600118742 -45.808064715 -0.013474488 15 255 96
3.598670289 -45.904935086 -0.012395448 18 255 94
3.597141938 -46.001792420 -0.011093103 18 255 94
3.595515532 -46.098633724 -0.009516952 22 255 92
3.592122295 -46.195191847 -0.003026025 29 255 89
3.586112204 -46.291328398 0.010743727 44 255 83
3.579441873 -46.387354963 0.026350891 66 255 73
3.575028173 -46.483740907 0.035683384 76 255 68
3.576064523 -46.581004770 0.029859851 69 255 72
3.582779535 -46.679189868 0.008244272 44 255 83
3.585660576 -46.776758565 -0.002707599 29 255 89
3.577373302 -46.872513018 0.017402322 55 255 78
3.563938096 -46.967422258 0.051830794 95 255 60
3.559048954 -47.063719115 0.062492541 109 255 54
3.385656001 -67.040062105 -0.036918666 0 253 111
3.391033698 -67.138562734 -0.054603951 0 250 129
3.394717115 -67.236655486 -0.067571576 0 248 144
3.391799345 -67.333140921 -0.062160926 0 249 138
3.389161487 -67.429693312 -0.057528414 0 250 132
3.389415862 -67.526952507 -0.060946666 0 249 135
3.392124791 -67.624814536 -0.071197311 0 247 147
3.394645495 -67.722633220 -0.080922958 0 246 156
3.393906602 -67.819652879 -0.081572880 0 246 156
3.390623426 -67.916045963 -0.075138399 0 247 150
3.387576590 -68.012495616 -0.069360763 0 248 144
3.385401714 -68.109159191 -0.066009573 0 248 141
3.382452423 -68.205630199 -0.060501264 0 249 135
3.378280857 -68.301796720 -0.051588923 0 251 126
3.373960804 -68.397923943 -0.042262024 0 252 117
3.369801545 -68.494088605 -0.033381631 0 254 108
3.364958027 -68.590080427 -0.022595025 4 255 100
3.361210667 -68.686342726 -0.014859088 15 255 96
3.361556148 -68.783625422 -0.018517039 11 255 97
3.368556200 -68.882574233 -0.040701290 0 252 117
3.376093548 -68.981663879 -0.064380593 0 248 141
3.377237649 -69.079155523 -0.070259112 0 247 147
3.375900090 -69.176025021 -0.069227198 0 248 144
3.373940888 -69.272737771 -0.066463421 0 248 141
3.371203064 -69.369253472 -0.061530690 0 249 138
3.368515179 -69.465780458 -0.056735884 0 250 132
3.369933593 -69.563344698 -0.063372897 0 249 138
3.374837713 -69.661793751 -0.079714001 0 246 156
3.378322872 -69.759887404 -0.092103414 0 244 168
3.377606710 -69.856917096 -0.092794209 0 244 168
3.372001494 -69.952702961 -0.079871362 0 246 156
3.362725361 -70.047549775 -0.056726356 0 250 132
3.352664726 -70.142189987 -0.031395756 0 254 108
3.346462757 -70.237809556 -0.016807662 11 255 97
3.348243284 -70.335468657 -0.024444413 4 255 100
3.356778234 -70.434861669 -0.050886919 0 251 126
3.366122724 -70.534469925 -0.079582663 0 246 156
3.371474811 -70.633059495 -0.097161212 0 243 171
3.369890468 -70.729867533 -0.095425053 0 243 171
3.361534036 -70.824928396 -0.074831505 0 247 150
3.352042954 -70.919690494 -0.051077345 0 251 126
3.347716627 -71.015782192 -0.041702843 0 252 117
3.348603270 -71.113221961 -0.046842453 0 251 123
3.349111497 -71.210565009 -0.050927354 0 251 126
3.348076704 -71.307508263 -0.050714714 0 251 126
3.346455847 -71.404298981 -0.048869115 0 251 123
3.346450054 -71.501510172 -0.051519580 0 251 126
3.348511503 -71.599261733 -0.059925276 0 249 135
3.350386560 -71.696966947 -0.067810969 0 248 144
3.349909007 -71.794058498 -0.069144716 0 248 144
3.346429669 -71.890363462 -0.062118760 0 249 138
3.342325534 -71.986502476 -0.053351878 0 250 129
3.336000010 -72.082054991 -0.038398200 0 253 114
3.336625579 -72.179433877 -0.042799308 0 252 117
3.331543990 -72.275308928 -0.031307177 0 254 108
3.332325455 -72.372729316 -0.036140268 0 253 111
3.335805567 -72.470864867 -0.048487087 0 251 123
3.335772271 -72.568073256 -0.051049340 0 251 126
3.331499373 -72.664157780 -0.041804688 0 252 117
3.327454969 -72.760300488 -0.033195164 0 254 108
3.324976638 -72.856857490 -0.028945514 0 254 105
3.324425675 -72.953926859 -0.030061906 0 254 105
3.328567247 -73.052248600 -0.044244612 0 252 120
3.335993550 -73.151451989 -0.067573466 0 248 144
3.335009857 -73.248411528 -0.067481810 0 248 144
3.339508074 -73.346840069 -0.082654857 0 245 159
3.342222726 -73.444794236 -0.092860165 0 244 168
3.340857436 -73.541654835 -0.091702760 0 244 168
3.331948102 -73.636484856 -0.069535670 0 248 144
3.326286004 -73.732183951 -0.056410229 0 250 132
3.318765280 -73.827377814 -0.038107656 0 253 114
3.313422071 -73.923155200 -0.025867863 0 255 102
3.308690063 -74.019094676 -0.015328988 15 255 96
3.309133248 -74.116434051 -0.019201133 7 255 99
3.319038045 -74.216342840 -0.049421628 0 251 126
3.328197187 -74.316057368 -0.077564776 0 246 153
3.328861393 -74.413467295 -0.082049587 0 246 156
3.326674623 -74.510101334 -0.078593661 0 246 153
3.328099711 -74.607720457 -0.085195387 0 245 159
3.333701009 -74.706483130 -0.103426594 0 242 180
3.331829171 -74.803205059 -0.100844591 0 242 177
3.331952297 -74.900473234 -0.103817401 0 242 180
3.329959185 -74.997161308 -0.100895501 0 242 177
3.321780492 -75.092148089 -0.080745724 0 246 156
3.316178103 -75.187838602 -0.067769709 0 248 144
3.313039774 -75.284204887 -0.061654954 0 249 138
3.309905935 -75.380570766 -0.055551582 0 250 132
3.305814840 -75.476670357 -0.046781089 0 251 123
3.302456923 -75.572970546 -0.040051391 0 253 114
3.301359766 -75.669895684 -0.039616935 0 253 114
3.301968474 -75.767294337 -0.043932382 0 252 120
3.303747603 -75.865019624 -0.051506539 0 251 126
3.306874921 -75.963122392 -0.062834557 0 249 138
3.309386509 -76.061056699 -0.072446734 0 247 147
3.308305768 -76.157990866 -0.072052820 0 247 147
3.304946751 -76.254288075 -0.065312503 0 248 141
3.302426407 -76.350818246 -0.060906901 0 249 135
3.301284787 -76.447733737 -0.060340177 0 249 135
3.300357848 -76.544709387 -0.060370312 0 249 135
3.298761076 -76.641496808 -0.058533764 0 249 135
3.297381888 -76.738345019 -0.057302156 0 250 132
3.297672726 -76.835663672 -0.060720871 0 249 135
3.299397114 -76.933387954 -0.068131330 0 248 144
3.300447744 -77.030923911 -0.073664213 0 247 150
3.299129485 -77.127790991 -0.072598104 0 247 147
3.296655917 -77.224330397 -0.068313066 0 248 144
3.294872959 -77.321064663 -0.065950475 0 248 141
3.294993354 -77.418339237 -0.068888213 0 248 144
3.297076146 -77.516173126 -0.077290816 0 246 153
3.300551605 -77.614406253 -0.089571470 0 244 165
3.302610038 -77.712238497 -0.097904275 0 243 174
3.299754066 -77.808668899 -0.092547731 0 244 168
3.292672468 -77.903888838 -0.075420151 0 247 150
3.285317889 -77.999025869 -0.057530990 0 250 132
3.284058790 -78.095906734 -0.056618918 0 250 132
3.288350420 -78.194382002 -0.071166823 0 247 147
3.290716559 -78.292307464 -0.080350498 0 246 156
3.287516342 -78.388632137 -0.074028482 0 247 150
3.282074399 -78.484308515 -0.061461138 0 249 138
3.278828758 -78.580615804 -0.055010325 0 250 129
3.279916185 -78.678174522 -0.060628034 0 249 135
3.282729360 -78.776234622 -0.071051784 0 247 147
3.280558914 -78.872852508 -0.067592699 0 248 144
3.274783303 -78.968422665 -0.054090292 0 250 129
3.270798194 -79.064509727 -0.045574185 0 252 120
3.269023469 -79.161238016 -0.043214049 0 252 120
3.269344319 -79.258576623 -0.046690162 0 251 123
3.273172591 -79.356940113 -0.059935398 0 249 135
3.279380160 -79.456002800 -0.079807412 0 246 156
3.283191998 -79.554369859 -0.093005029 0 244 168
3.284825595 -79.652102252 -0.100133996 0 243 174
3.285950922 -79.749687521 -0.105846122 0 242 180
3.285343596 -79.846765299 -0.106730715 0 241 183
3.280518989 -79.942602520 -0.095866422 0 243 171
3.273660196 -80.037837476 -0.079334426 0 246 156
3.267393982 -80.133242716 -0.064451943 0 248 141
3.263150922 -80.229241506 -0.055204130 0 250 132
3.264025543 -80.326751478 -0.060211465 0 249 135
3.271434583 -80.426198153 -0.083420768 0 245 159
3.279825876 -80.525942610 -0.109365514 0 241 186
3.284350102 -80.624546049 -0.124536824 0 238 201
3.284704478 -80.721913962 -0.128091074 0 238 204
3.283069319 -80.818690615 -0.126101933 0 238 201
3.279771317 -80.914971087 -0.119479415 0 239 195
3.274234743 -81.010581606 -0.106619595 0 241 183
3.267805962 -81.105921962 -0.091273089 0 244 168
3.262645856 -81.201637775 -0.079459669 0 246 156
3.260004312 -81.298105034 -0.074661358 0 247 150
3.259362690 -81.395171050 -0.075433400 0 247 150
3.261613722 -81.493106331 -0.084262897 0 245 159
3.264707528 -81.591297626 -0.095439272 0 243 171
3.264427710 -81.688475989 -0.097216194 0 243 171
3.259781805 -81.784338207 -0.086828642 0 245 162
3.253361962 -81.879661944 -0.071497915 0 247 147
3.250048499 -81.975920687 -0.064820101 0 248 141
3.251309488 -82.073562472 -0.070885270 0 247 147
3.253426665 -82.171465524 -0.079334727 0 246 156
3.251465532 -82.268133189 -0.076421221 0 246 153
3.244734330 -82.363350519 -0.060217371 0 249 135
3.238596203 -82.458743871 -0.045664611 0 252 120
3.237588365 -82.555696264 -0.045403614 0 252 120
3.239212596 -82.653451558 -0.052474523 0 250 129
3.239684263 -82.750856836 -0.056333377 0 250 132
3.237140050 -82.847340914 -0.051788868 0 251 126
3.238672061 -82.945071974 -0.058599812 0 249 135
3.234190089 -83.040961112 -0.048654452 0 251 123
3.234867741 -83.138431470 -0.053083030 0 250 129
3.232185166 -83.234870282 -0.048148717 0 251 123
3.236365625 -83.333419928 -0.062334387 0 249 138
3.237191125 -83.430939762 -0.067171850 0 248 141
3.235832747 -83.527787206 -0.065923747 0 248 141
3.233466223 -83.624322931 -0.061865748 0 249 138
3.232060052 -83.721154629 -0.060482344 0 249 135
3.233833198 -83.818970602 -0.067955966 0 248 144
3.238139406 -83.917574151 -0.082486163 0 245 159
3.240691603 -84.015637236 -0.092128436 0 244 168
3.240083024 -84.112720533 -0.092963186 0 244 168
3.237423118 -84.209165675 -0.088081454 0 245 162
3.233724411 -84.305285809 -0.080304286 0 246 156
3.236909048 -84.403551507 -0.091704650 0 244 168
3.233227349 -84.499675419 -0.083972709 0 245 159
3.228424387 -84.595446535 -0.073115506 0 247 147
3.222837413 -84.690969171 -0.060072674 0 249 135
3.217854153 -84.786677545 -0.048710791 0 251 123
3.215195629 -84.883112658 -0.043825178 0 252 120
3.215607731 -84.980511658 -0.047494208 0 251 123
3.217975203 -85.078527120 -0.056610531 0 250 132
3.219327299 -85.176225226 -0.062896698 0 249 138
3.218289153 -85.273171045 -0.062521804 0 249 138
3.218399015 -85.370479447 -0.065344632 0 248 141
3.220732340 -85.468491887 -0.074361858 0 247 150
3.222362100 -85.566284108 -0.081417701 0 246 156
3.219446808 -85.662637411 -0.075808184 0 247 150
3.212103780 -85.757583763 -0.057860022 0 250 132
3.206131215 -85.852960740 -0.043729349 0 252 120
3.206144923 -85.950238650 -0.046277935 0 251 123
3.211820463 -86.049321078 -0.064601971 0 248 141
3.218679897 -86.148786275 -0.086224018 0 245 162
3.222066794 -86.247148566 -0.098169034 0 243 174
3.219647800 -86.343657855 -0.093934996 0 244 168
3.212044654 -86.438506443 -0.075254159 0 247 150
3.201133625 -86.532289687 -0.047354595 0 251 123
3.193247829 -86.627036048 -0.027883651 0 255 102
3.193385527 -86.724354910 -0.030769364 0 254 105
3.198191792 -86.823176389 -0.046663323 0 251 123
3.203171377 -86.922058159 -0.063039346 0 249 138
3.203645330 -87.019491708 -0.066859121 0 248 141
3.201076985 -87.115944223 -0.062200203 0 249 138
3.198979341 -87.212547647 -0.058851856 0 249 135
3.197151164 -87.309237405 -0.056253332 0 250 132
3.195079511 -87.405847618 -0.052975259 0 250 129
3.192842619 -87.502403383 -0.049235639 0 251 126
3.190718599 -87.598994829 -0.045809474 0 252 120
3.189336479 -87.695826617 -0.044449669 0 252 120
3.189271097 -87.793086741 -0.046758153 0 251 123
3.188748933 -87.890198690 -0.047792688 0 251 123
3.186295139 -87.986680671 -0.043443276 0 252 120
3.181940634 -88.082540543 -0.033795998 0 254 108
3.177396947 -88.178335921 -0.023620381 4 255 100
3.174380788 -88.274628763 -0.017700476 11 255 97
3.173949463 -88.371767487 -0.018982814 11 255 97
3.177372695 -88.470171877 -0.031005942 0 254 105
3.185422589 -88.570100144 -0.055921709 0 250 132
3.195203020 -88.670604772 -0.085659341 0 245 162
3.199098274 -88.769179095 -0.098995248 0 243 174
3.193728344 -88.864701576 -0.086509673 0 245 162
3.185585706 -88.959305160 -0.066295813 0 248 141
3.181011025 -89.055082647 -0.056024129 0 250 132
3.180430482 -89.152179222 -0.056882469 0 250 132
3.181195021 -89.249721780 -0.061488367 0 249 138
3.181929131 -89.347255583 -0.066008460 0 248 141
3.181169118 -89.444294484 -0.066363555 0 248 141
3.176734955 -89.540111885 -0.056478015 0 250 132
3.169980883 -89.635154335 -0.040125893 0 253 114
3.165953850 -89.731101162 -0.031372703 0 254 108
3.166533914 -89.828582834 -0.035458215 0 253 111
3.168705467 -89.926597337 -0.043978165 0 252 120
3.168184013 -90.023713631 -0.044991761 0 252 120
3.166284711 -90.120368934 -0.042164254 0 252 117
3.166561973 -90.217753119 -0.045401798 0 252 120
3.165591093 -90.314719394 -0.045159718 0 252 120
3.164194780 -90.411542727 -0.043730890 0 252 120
3.165585885 -90.509303327 -0.050069699 0 251 126
3.169994716 -90.608081987 -0.064818139 0 248 141
3.172150591 -90.706105235 -0.073286495 0 247 150
3.171067638 -90.803037696 -0.072726963 0 247 147
3.169031789 -90.899648065 -0.069510555 0 248 144
3.165022588 -90.995590012 -0.060793105 0 249 135
3.157597719 -91.090372748 -0.042554601 0 252 117
3.152144256 -91.185818943 -0.029809484 0 254 105
3.154170711 -91.283800825 -0.037910942 0 253 114
3.161215294 -91.383490433 -0.059997827 0 249 135
3.169466190 -91.483596669 -0.085446093 0 245 162
3.175157165 -91.582838060 -0.103758544 0 242 180
3.174397716 -91.679884929 -0.104091417 0 242 180
3.168980763 -91.775341890 -0.091441743 0 244 168
3.163873328 -91.870901190 -0.079653607 0 246 156
3.161604855 -91.967428694 -0.075777221 0 247 150
3.160361093 -92.064306208 -0.074755898 0 247 150
3.157149400 -92.160508609 -0.068248354 0 248 144
3.152627495 -92.256259427 -0.058087771 0 250 132
3.151224076 -92.353079372 -0.056618216 0 250 132
3.155837466 -92.451969394 -0.071918351 0 247 147
3.161810777 -92.551332210 -0.091008136 0 244 165
3.161568057 -92.648556602 -0.092770855 0 244 168
3.154973990 -92.743588636 -0.076829095 0 246 153
3.147736917 -92.838394049 -0.059093854 0 249 135
3.142616440 -92.933927030 -0.047257163 0 251 123
3.146415805 -93.032546869 -0.060282433 0 249 135
3.146226817 -93.129787167 -0.062189623 0 249 138
3.147503126 -93.227536812 -0.068180188 0 248 144
3.146375768 -93.324452695 -0.067469711 0 248 144
3.143437438 -93.420738270 -0.061710204 0 249 138
3.145375002 -93.518720886 -0.069540950 0 248 144
3.146896797 -93.616560741 -0.076211789 0 247 150
3.150409641 -93.715097657 -0.088431664 0 244 165
3.143526448 -93.810004373 -0.071671700 0 247 147
3.135495018 -93.904504718 -0.051709819 0 251 126
3.121892250 -93.997047961 -0.016216487 11 255 97
3.112208625 -94.090955795 0.008353465 44 255 83
3.108007669 -94.186781675 0.017641479 55 255 78
3.111060984 -94.285154609 0.006708893 40 255 84
3.120331833 -94.385718248 -0.021554594 7 255 99
3.129861090 -94.486380818 -0.050537639 0 251 126
3.135334726 -94.585621410 -0.068214465 0 248 144
3.136983074 -94.683516623 -0.075226997 0 247 150
3.135402416 -94.780272737 -0.073237295 0 247 150
3.132546375 -94.876577157 -0.067691234 0 248 144
3.132248750 -94.973786206 -0.069276053 0 248 144
3.134787515 -95.072001411 -0.078766753 0 246 153
3.136302205 -95.169855827 -0.085401714 0 245 162
3.133163788 -95.266058769 -0.079064285 0 246 153
3.126989160 -95.361179988 -0.064261702 0 248 141
3.123106066 -95.457113179 -0.055846094 0 250 132
3.124538793 -95.554939128 -0.062248435 0 249 138
3.128082838 -95.653520396 -0.074535609 0 247 150
3.128855925 -95.751115177 -0.079097113 0 246 153
3.125925582 -95.847386755 -0.073333321 0 247 150
3.123947229 -95.943997643 -0.070222379 0 247 147
3.128102044 -96.042806005 -0.084208375 0 245 159
3.135343105 -96.142725693 -0.106797317 0 241 183
3.139281357 -96.241465353 -0.120177804 0 239 195
3.138578159 -96.338539792 -0.120617795 0 239 195
3.137311220 -96.435411484 -0.119485137 0 239 195
3.135634436 -96.532135233 -0.117208843 0 240 192
3.132425670 -96.628305753 -0.110660528 0 241 186
3.129468138 -96.724565247 -0.104811530 0 242 180
3.129277570 -96.821823494 -0.106675451 0 241 183
3.129391615 -96.919192562 -0.109387585 0 241 186
3.127978276 -97.016009082 -0.107840487 0 241 183
3.126013152 -97.112625112 -0.104754000 0 242 180
3.124588917 -97.209436727 -0.103174419 0 242 177
3.124721686 -97.306813867 -0.105934657 0 242 180
3.125852157 -97.404554844 -0.111475453 0 241 186
3.125256115 -97.501668572 -0.112201771 0 241 186
3.119070932 -97.596744665 -0.097344549 0 243 174
3.107902055 -97.689997622 -0.068591559 0 248 144
3.098326305 -97.783824773 -0.044278948 0 252 120
3.095219024 -97.880011262 -0.037999412 0 253 114
3.098367954 -97.978486880 -0.049161419 0 251 123
3.102556008 -98.077346554 -0.063219637 0 249 138
3.104513239 -98.175391615 -0.071057249 0 247 147
3.104852209 -98.272844482 -0.074382049 0 247 150
3.104703092 -98.370118857 -0.076345009 0 246 153
3.105442388 -98.467720865 -0.080783953 0 246 156
3.108061615 -98.566016901 -0.090463393 0 244 165
3.110508125 -98.664251975 -0.099660333 0 243 174
3.110007273 -98.761401313 -0.100638630 0 242 177
3.107467433 -98.857797270 -0.095930869 0 243 171
3.105296000 -98.954328305 -0.092249217 0 244 168
3.106119632 -99.051967826 -0.096917317 0 243 171
3.109937214 -99.150718896 -0.109932173 0 241 186
3.112679548 -99.249074510 -0.119948091 0 239 195
3.113335963 -99.346657868 -0.124147053 0 239 198
3.112590742 -99.443721082 -0.124436921 0 238 201
3.109609325 -99.539951765 -0.118490677 0 239 195
3.104613887 -99.635430136 -0.106927716 0 241 183
3.101030831 -99.731432365 -0.099301737 0 243 174
3.101703449 -99.829022126 -0.103540730 0 242 180
3.104739441 -99.927496812 -0.114368543 0 240 189
3.104871211 -100.024887526 -0.117097530 0 240 192
3.097556319 -100.119488913 -0.099061743 0 243 174
3.088264248 -100.213343770 -0.075511702 0 247 150
3.084296436 -100.309191183 -0.066806354 0 248 141
3.084632838 -100.406653957 -0.070101648 0 248 144
3.085141300 -100.504182442 -0.073875711 0 247 150
3.084512501 -100.601283720 -0.074477647 0 247 150
3.084792464 -100.698727834 -0.077612561 0 246 153
3.083975292 -100.795758827 -0.077687199 0 246 153
3.080680161 -100.891853772 -0.070851182 0 247 147
3.076344078 -100.987553224 -0.061111437 0 249 135
3.074832168 -101.084319138 -0.059245668 0 249 135
3.079683159 -101.183495772 -0.075121637 0 247 150
3.085435048 -101.283018614 -0.093508868 0 244 168
3.085538195 -101.380401694 -0.096143727 0 243 171
3.079399793 -101.475413119 -0.081372949 0 246 156
3.070869305 -101.569510331 -0.059930617 0 249 135
3.065270703 -101.664718342 -0.046662736 0 251 123
3.068956554 -101.763462582 -0.059283874 0 249 135
3.081531936 -101.865603117 -0.096693125 0 243 171
3.095047702 -101.968113369 -0.136724021 0 236 213
3.101933745 -102.068099402 -0.158266689 0 233 234
3.098918012 -102.164300914 -0.152196418 0 234 228
3.091873535 -102.258956968 -0.134890454 0 237 210
3.085268836 -102.353776969 -0.118809682 0 239 195
3.080824139 -102.449421956 -0.108751206 0 241 183
3.078039615 -102.545702321 -0.103321258 0 242 180
3.075732287 -102.642164838 -0.099220975 0 243 174
3.074743029 -102.739133917 -0.098795304 0 243 174
3.074511254 -102.836394966 -0.100480991 0 242 177
3.068957707 -102.931602791 -0.087324819 0 245 162
3.046605753 -103.020317759 -0.027321495 0 255 102
3.003189458 -103.100870775 0.091426180 142 255 40
2.944077377 -103.272618741 0.251622170 245 228 0
2.923458796 -103.361925842 0.306798297 253 211 0
2.918327136 -103.457230276 0.318786297 255 207 0
2.911743963 -103.551967343 0.334823406 255 194 0
2.905976191 -103.647017214 0.348587688 255 180 0
2.901610496 -103.742609286 0.358442976 255 172 0
2.900292745 -103.839386725 0.359799168 255 169 0
2.902181263 -103.937414848 0.352214598 255 177 0
2.904920689 -104.035777466 0.342257920 255 186 0
2.905744886 -104.133394150 0.337643501 255 191 0
2.903372917 -104.229761397 0.341943805 255 186 0
2.899245298 -104.325439777 0.351141497 255 177 0
2.894874422 -104.421020275 0.361018716 255 169 0
2.892124861 -104.517234448 0.366375325 255 164 0
2.894529264 -104.615472109 0.357358925 255 172 0
2.901073763 -104.715340520 0.336796945 255 191 0
2.903963198 -104.813775844 0.326429635 255 199 0
2.901970708 -104.910290392 0.329678814 255 196 0
2.899170420 -105.006485468 0.335181983 255 194 0
2.894708543 -105.102023037 0.345320397 255 183 0
2.885631882 -105.195734035 0.368330615 255 161 0
2.878754984 -105.290308918 0.385206871 255 147 0
2.884988451 -105.390070677 0.365518982 255 164 0
2.908478986 -105.593984499 0.295400196 252 215 0
2.917833337 -105.695006559 0.267010301 247 223 0
2.911699612 -105.789879504 0.281818798 250 219 0
2.899870789 -105.882482180 0.312512663 254 210 0
2.887055565 -105.974683491 0.345959015 255 183 0
2.875253772 -106.067279619 0.376580103 255 156 0
2.868656189 -106.161944214 0.392687218 255 139 0
2.870314146 -106.259902248 0.385769525 255 147 0
2.876480274 -106.359664894 0.366278750 255 164 0
2.876072542 -106.456801840 0.365124486 255 166 0
2.867185616 -106.550542101 0.387621333 255 145 0
2.859418267 -106.644725141 0.406996672 255 128 0
2.858762543 -106.741757526 0.406537338 255 128 0
2.861515497 -106.840159689 0.396571430 255 137 0
2.862738570 -106.937949380 0.390873654 255 142 0
2.860722569 -107.034436746 0.394211453 255 139 0
2.861166067 -107.131914317 0.390690095 255 142 0
2.865775374 -107.231073187 0.375550108 255 156 0
2.872593620 -107.331128144 0.354249619 255 175 0
2.881077286 -107.431862106 0.328304584 255 199 0
2.891852997 -107.533530486 0.295967085 252 215 0
2.899820959 -107.634071055 0.271462052 248 223 0
2.887903237 -107.726559108 0.302425842 253 212 0
2.871647974 -107.817278990 0.345489883 255 183 0
2.861033969 -107.910277650 0.372819779 255 158 0
2.859227664 -108.006848636 0.375582888 255 156 0
2.863392004 -108.105847974 0.361692543 255 169 0
2.869235498 -108.205535015 0.343119239 255 186 0
2.872078467 -108.304004223 0.332916512 255 194 0
2.862068991 -108.397232545 0.358565755 255 172 0
2.840533910 -108.485746904 0.416366318 255 117 0
2.829056136 -108.578356410 0.446113969 255 93 0
2.830913426 -108.676413879 0.438665107 255 98 0
2.840137432 -108.777490492 0.410667842 255 123 0
2.852922090 -108.880034577 0.372738903 255 158 0
2.854686157 -108.978067247 0.365552693 255 164 0
2.848101069 -109.072672874 0.381657596 255 150 0
2.840288492 -109.166769458 0.401187787 255 134 0
2.834930203 -109.261870570 0.413872811 255 120 0
2.838287121 -109.360557771 0.402247353 255 131 0
2.832589898 -109.455515580 0.415880006 255 120 0
2.825296668 -109.549811060 0.433965999 255 104 0
2.818548618 -109.644326743 0.450532336 255 88 3
2.816344398 -109.740716400 0.454424308 255 86 7
2.820241332 -109.839629753 0.441297391 255 96 0
2.825647480 -109.939171917 0.423961207 255 112 0
2.823046122 -110.035399142 0.428964024 255 107 0
2.831128212 -110.136058384 0.404164669 255 131 0
2.840407901 -110.237222006 0.376025187 255 156 0
2.841307177 -110.334909338 0.371265209 255 161 0
2.835288212 -110.429719101 0.385806028 255 147 0
2.830798165 -110.525161704 0.396082746 255 137 0
2.832339569 -110.623116089 0.389534465 255 142 0
2.828173500 -110.718690609 0.398909502 255 134 0
2.817675486 -110.811617792 0.425950198 255 109 0
2.812314291 -110.906685087 0.438661630 255 98 0
2.814175575 -111.004771241 0.431225071 255 107 0
2.814067065 -111.102034458 0.429284770 255 107 0
2.808431337 -111.196981036 0.442765314 255 96 0
2.798742415 -111.290223087 0.467554659 255 76 25
2.789556059 -111.383669380 0.490943167 255 63 51
2.787136619 -111.479954042 0.495454272 255 59 58
2.791607252 -111.579136767 0.480744123 255 69 40
2.791954526 -111.676586961 0.477538474 255 71 36
2.784219062 -111.770630693 0.496883676 255 59 58
2.773469898 -111.863397457 0.524637966 255 39 95
2.764046093 -111.956716304 0.548695892 255 24 124
2.759454445 -112.052071198 0.559273720 255 18 135
2.761080328 -112.150053929 0.552506168 255 22 128
2.766430283 -112.249615744 0.535349609 255 33 106
2.770584890 -112.348675674 0.521528872 255 41 91
2.772372295 -112.446735137 0.514313439 255 47 80
2.780024050 -112.547287044 0.490737514 255 63 51
2.789722448 -112.648715483 0.461452263 255 80 18
