ply
format ascii 1.0
comment coordinate_system ground
comment units millimeter
element vertex 974
property double x
property double y
property double z
property uchar red
property uchar green
property uchar blue
comment color_mapping zg_high_contrast_from_zg
comment color_zg_range_mm -0.243207741 20.141987429
end_header
6.425049295 147.087352382 0.154789799 0 231 243
6.424675105 146.990575012 0.150785159 0 231 243
6.428170258 146.896116295 0.136128167 0 231 243
6.430281252 146.800824604 0.125282901 0 231 243
6.427184647 146.702412463 0.128776402 0 231 243
6.422596843 146.603109369 0.136376578 0 231 243
6.420876345 146.505523104 0.136083214 0 231 243
6.424263986 146.410989412 0.121726444 0 231 243
6.427022799 146.316076523 0.109101833 0 231 243
6.424583860 146.218058465 0.110789249 0 231 243
6.418292511 146.117743540 0.123084711 0 231 243
6.413533600 146.018345673 0.131161863 0 231 243
6.412551454 145.921199955 0.128841118 0 231 243
6.412762654 145.824764246 0.123235519 0 231 243
6.411449288 145.727420327 0.121828576 0 231 243
6.408329107 145.629002137 0.125397516 0 231 243
6.404162356 145.529963420 0.131849116 0 231 243
6.399171820 145.430437650 0.140569995 0 231 243
6.395209537 145.331524712 0.146460632 0 231 243
6.395053580 145.234870806 0.141871556 0 231 243
6.398120978 145.140126119 0.128407817 0 231 243
6.398966130 145.044061924 0.121063893 0 231 243
6.396396851 144.945975160 0.123122620 0 231 243
6.396884772 144.849697501 0.116764128 0 231 243
6.402131682 144.756231375 0.097302281 0 231 243
6.409484321 144.664004048 0.072042850 0 231 246
6.414100309 144.570154514 0.054319740 0 231 246
6.408512551 144.470280673 0.064694616 0 231 246
6.395427432 144.365989765 0.095715542 0 231 243
6.384963078 144.263251847 0.119521081 0 231 243
6.383225920 144.165659462 0.119296052 0 231 243
6.387020134 144.071322141 0.103840338 0 231 243
6.389895234 143.976440365 0.090916359 0 231 243
6.389147013 143.879426001 0.087970760 0 231 243
6.383550806 143.779563945 0.098376091 0 231 243
6.372646816 143.676589865 0.123398736 0 231 243
6.367697310 143.577115479 0.132025412 0 231 243
6.358365754 143.475075233 0.152720287 0 231 243
6.351542314 143.374510180 0.166509520 0 232 240
6.347817470 143.275763122 0.171766934 0 232 240
6.347948457 143.179273519 0.166407102 0 232 240
6.348006123 143.082739871 0.161250076 0 232 240
6.342984885 142.983237753 0.170080455 0 232 240
6.334558369 142.881750135 0.188289539 0 232 240
6.327705345 142.781185964 0.202166570 0 232 240
6.328432147 142.685045799 0.195170684 0 232 240
6.333915723 142.591675923 0.175075965 0 232 240
6.339901831 142.498593456 0.153598043 0 231 243
6.345924932 142.405526895 0.132018959 0 231 243
6.352136931 142.312564546 0.109920373 0 231 243
6.356306227 142.218409166 0.093448031 0 231 243
6.351394825 142.118975205 0.101984520 0 231 243
6.339643438 142.015573643 0.129359334 0 231 243
6.328614033 141.912598745 0.154747054 0 231 243
6.322551495 141.812510404 0.166457122 0 232 240
6.320927166 141.714996701 0.165945261 0 232 240
6.320559681 141.618210791 0.161972926 0 232 240
6.321268129 141.522046575 0.155038302 0 232 240
6.324948062 141.427598776 0.139920832 0 231 243
6.330041736 141.333963960 0.120910565 0 231 243
6.330191501 141.237469552 0.115517137 0 231 243
6.324096061 141.137370304 0.127324706 0 231 243
6.318854018 141.037766740 0.136782976 0 231 243
6.319428504 140.941517982 0.130222649 0 231 243
6.324373587 140.847784705 0.111625815 0 231 243
6.328239259 140.753425399 0.096002637 0 231 243
6.328168268 140.656798009 0.091222614 0 231 243
6.325900908 140.558907257 0.092492775 0 231 243
6.324440286 140.461480535 0.091541959 0 231 243
6.322091693 140.363544183 0.093037778 0 231 243
6.315996286 140.263459360 0.104854283 0 231 243
6.313205681 140.165272519 0.107569522 0 231 243
6.317407160 140.071092146 0.091027486 0 231 243
6.319447045 139.975670082 0.080439925 0 231 243
-0.846360584 135.310437162 19.788749139 255 8 153
-0.899458870 135.186310417 19.930156453 255 4 161
-0.959930939 135.058024596 20.091878168 255 0 168
-0.958824640 134.964821483 20.083977502 255 0 168
-0.958662964 134.871079376 20.078679787 255 0 168
-0.961992083 134.775352530 20.082998885 255 0 168
-0.967198133 134.678561368 20.092489288 255 0 168
-0.973447194 134.581181258 20.104853903 255 0 168
-0.980379961 134.483417152 20.119102995 255 0 168
-0.986509775 134.386112337 20.131141284 255 0 168
-0.990376240 134.290092968 20.136945744 255 0 168
-0.992853113 134.194861959 20.138923249 255 0 168
-0.995120536 134.099750271 20.140324734 255 0 168
-0.996118811 134.005356598 20.138230973 255 0 168
-0.994818976 133.912260662 20.129807339 255 0 168
-0.993621102 133.819105169 20.121665443 255 0 168
-0.995627947 133.724140119 20.122352810 255 0 168
-1.000809947 133.627385836 20.131788139 255 0 168
-1.006135093 133.530553843 20.141618862 255 0 168
-1.008025141 133.435658535 20.141987429 255 0 168
-1.005537941 133.343225981 20.130298188 255 0 168
-1.000753107 133.252082133 20.112280051 255 0 168
-0.996199570 133.160803696 20.094899871 255 0 168
-0.994795374 133.067752775 20.086196626 255 0 168
-0.997696918 132.972284215 20.089356250 255 0 168
-1.002595345 132.875697338 20.098018165 255 0 168
-1.007783169 132.778951041 20.107478396 255 0 168
-1.013726006 132.681784970 20.119019722 255 0 168
-1.020078470 132.584393227 20.131690641 255 0 168
-1.023386686 132.488707367 20.135975725 255 0 168
-1.021917677 132.395692179 20.127100460 255 0 168
-1.019354070 132.303286031 20.115210392 255 0 168
-1.019297927 132.209477843 20.110229337 255 0 168
-1.023183250 132.113470897 20.116108168 255 0 168
-1.028651408 132.016583935 20.126348849 255 0 168
-1.031727672 131.921031995 20.130000698 255 0 168
-1.032118084 131.826975918 20.126253727 255 0 168
-1.031113896 131.733694623 20.118665372 255 0 168
-1.028582800 131.641260038 20.106871051 255 0 168
-1.025113525 131.549343501 20.092492728 255 0 168
-1.023317637 131.456494719 20.082725668 255 0 168
-1.023381924 131.362612021 20.078084574 255 0 168
-1.024716828 131.268024240 20.076945182 255 0 168
-1.027658731 131.172546546 20.080234349 255 0 168
-1.031827738 131.076391005 20.086905456 255 0 168
-1.035483447 130.980521503 20.092163326 255 0 168
-1.036567024 130.886075251 20.090335330 255 0 168
-1.035349875 130.792899429 20.082169147 255 0 168
-1.034988890 130.699249183 20.076362808 255 0 168
-1.038550655 130.603434264 20.081365710 255 0 168
-1.045382600 130.505818793 20.095379989 255 0 168
-1.046515995 130.411345948 20.093693998 255 0 168
-1.047122857 130.317162752 20.090558166 255 0 168
-1.049027204 130.222265434 20.090998291 255 0 168
-1.044020696 130.131166774 20.072397401 255 0 168
-1.041504355 130.038695666 20.060658644 255 2 164
-1.043021919 129.944007686 20.060035745 255 2 164
-1.041848547 129.850795738 20.051999145 255 2 164
-1.049749635 129.752608392 20.068967460 255 0 168
-1.057317062 129.654608812 20.085017529 255 0 168
-1.062427073 129.557958987 20.094297414 255 0 168
-1.063415586 129.463566261 20.092221673 255 0 168
-1.061763145 129.370616729 20.082869749 255 0 168
-1.063801530 129.275649111 20.083688769 255 0 168
-1.069431644 129.178721706 20.094405828 255 0 168
-1.072953660 129.082947388 20.099315027 255 0 168
-1.073041626 128.989046442 20.094762549 255 0 168
-1.071609751 128.895972366 20.086022964 255 0 168
-1.072753936 128.801494134 20.084382777 255 0 168
-1.077623283 128.704989695 20.093008558 255 0 168
-1.082706273 128.608371860 20.102224106 255 0 168
-1.085695458 128.512894126 20.105670976 255 0 168
-1.088560615 128.417485000 20.108777070 255 0 168
-1.093439036 128.320985134 20.117432006 255 0 168
-1.097712187 128.224816051 20.124420075 255 0 168
-1.099036410 128.130246413 20.123282879 255 0 168
-1.097349068 128.037306758 20.113847675 255 0 168
-1.094426955 127.945032668 20.101010663 255 0 168
-1.091903316 127.852540013 20.089272562 255 0 168
-1.092049513 127.758602509 20.084892667 255 0 168
-1.096856348 127.662148748 20.093357252 255 0 168
-1.104141363 127.564361114 20.108652179 255 0 168
-1.110187510 127.467245734 20.120534181 255 0 168
-1.112501242 127.372144140 20.122131492 255 0 168
-1.110792532 127.279208164 20.112644689 255 0 168
-1.106886728 127.187451528 20.097103942 255 0 168
-1.104222633 127.095023620 20.084985944 255 0 168
-1.105350023 127.000556508 20.083317565 255 0 168
-1.108565518 126.904968667 20.087404678 255 0 168
-1.108202107 126.811301619 20.081629746 255 0 168
-1.102509099 126.720489486 20.061167884 255 2 164
-1.093848700 126.631261165 20.032528901 255 2 164
-1.087175870 126.540961649 20.009368177 255 2 164
-1.100496322 126.439964390 20.041308504 255 2 164
6.088795590 126.999643487 0.063406276 0 231 246
6.095726385 126.906620238 0.039460007 0 231 246
5.919742981 120.922069674 0.231027118 0 232 240
5.856008932 118.184947207 0.273235854 0 232 237
5.859424344 118.089977929 0.259062670 0 232 237
5.857712430 117.992508771 0.259029651 0 232 237
5.852141276 117.893162508 0.269640076 0 232 237
5.849518584 117.795252862 0.272120738 0 232 237
5.851995242 117.699821223 0.260540040 0 232 237
5.867359323 117.610641724 0.213420620 0 232 240
5.876498821 117.518430875 0.183467309 0 232 240
5.881302883 117.424111245 0.165470628 0 232 240
5.882097248 117.327845513 0.158532462 0 232 240
5.882117447 117.231203702 0.153730187 0 231 243
5.884103510 117.135511363 0.143507464 0 231 243
5.888499397 117.040980714 0.126639862 0 231 243
5.894024452 116.946990846 0.106659069 0 231 243
5.898781361 116.852625383 0.088797474 0 231 243
5.899407506 116.756264668 0.082328626 0 231 243
5.894863173 116.657412749 0.090120077 0 231 243
5.888414273 116.557646974 0.103165138 0 231 243
5.883686168 116.458712536 0.111465613 0 231 243
5.882232541 116.361353864 0.110736541 0 231 243
5.883804109 116.265447558 0.101665282 0 231 243
5.888503084 116.171039187 0.083969809 0 231 243
5.893503744 116.076770923 0.065443130 0 231 246
5.895185477 115.980908578 0.056070674 0 231 246
5.891211524 115.882337805 0.062297277 0 231 246
5.884587896 115.782502295 0.075832683 0 231 243
5.880494054 115.683879505 0.082392119 0 231 243
5.878306223 115.586168780 0.083695850 0 231 243
5.877967943 115.489341016 0.079899506 0 231 243
5.879434364 115.393372723 0.071126708 0 231 246
5.882316124 115.298076421 0.058451254 0 231 246
5.885081417 115.202721607 0.046097898 0 231 246
5.885147408 115.106080395 0.041190296 0 231 246
5.882332413 115.008069555 0.044229668 0 231 246
5.879136508 114.909879146 0.048320669 0 231 246
5.877152276 114.812264985 0.049070787 0 231 246
5.874289100 114.714234880 0.052246163 0 231 246
5.870071337 114.615564593 0.059158736 0 231 246
5.873025534 114.520290179 0.046290954 0 231 246
5.870867475 114.422595601 0.047524556 0 231 246
5.869929191 114.325478004 0.045394805 0 231 246
5.870475127 114.229060821 0.039172258 0 231 246
5.865532981 114.130053892 0.048087998 0 231 246
5.867148825 114.034140392 0.038916358 0 231 246
5.867070353 113.937426940 0.034418979 0 231 246
5.872968217 113.843524551 0.013438246 0 231 246
5.870518032 113.745692160 0.015484556 0 231 246
5.871270099 113.649364981 0.008699142 0 231 246
5.873305582 113.553638726 -0.001625390 0 231 246
5.872060890 113.456371688 -0.002901234 0 231 246
5.864452491 113.356122670 0.013377169 0 231 246
5.857094672 113.255995884 0.028965567 0 231 246
5.854681166 113.158186955 0.030916915 0 231 246
5.855030130 113.061670317 0.025249348 0 231 246
5.853184580 112.964127517 0.025636071 0 231 246
5.848854880 112.865425889 0.032876118 0 231 246
5.842426750 112.765748140 0.045905615 0 231 246
5.834826433 112.665528237 0.062169669 0 231 246
5.829487600 112.566366080 0.072196707 0 231 246
5.828897058 112.469415884 0.069126850 0 231 246
5.833054189 112.374671938 0.052961596 0 231 246
5.836452649 112.279571604 0.038889979 0 231 246
5.835640195 112.182513802 0.036435086 0 231 246
5.834887350 112.085483373 0.033816745 0 231 246
5.835248322 111.988968632 0.028126882 0 231 246
5.833760776 111.891597074 0.027537213 0 231 246
5.828537938 111.792498164 0.037252617 0 231 246
5.822178452 111.692877072 0.050104682 0 231 246
5.819300749 111.594867645 0.053353048 0 231 246
5.822902255 111.499848813 0.038728826 0 231 246
5.829324542 111.406126695 0.016323975 0 231 246
5.830822034 111.310130426 0.007505656 0 231 246
5.825655642 111.211065259 0.017071639 0 231 246
5.822843065 111.113085533 0.020145332 0 231 246
5.824301018 111.017069215 0.011439015 0 231 246
5.825849652 110.921092539 0.002483463 0 231 246
5.825633498 110.824304296 -0.001602617 0 231 246
5.825052676 110.727348205 -0.004681705 0 230 249
5.825074743 110.630667767 -0.009423026 0 230 249
5.823954098 110.533463577 -0.011010913 0 230 249
5.819759070 110.434853828 -0.004116272 0 231 246
5.813242625 110.335185985 0.009183757 0 231 246
5.809834262 110.236940805 0.013910359 0 231 246
5.810948828 110.140759957 0.006160088 0 231 246
5.813227212 110.045107683 -0.004800022 0 230 249
5.813701341 109.948631372 -0.010781571 0 230 249
5.808996436 109.849797926 -0.002473926 0 231 246
5.807198312 109.752288353 -0.002184624 0 231 246
5.811870048 109.657717436 -0.019743932 0 230 249
5.813312586 109.561676842 -0.028393359 0 230 249
5.810276795 109.463603943 -0.024686509 0 230 249
5.805041626 109.364536195 -0.014910666 0 230 249
5.798867915 109.265046772 -0.002544310 0 231 246
5.792227027 109.165349911 0.011112121 0 231 246
5.786699674 109.066160384 0.021697496 0 231 246
5.784206323 108.968343940 0.023913215 0 231 246
5.784632773 108.871845600 0.018074225 0 231 246
5.785951029 108.775748004 0.009775684 0 231 246
5.785662368 108.678924906 0.005911615 0 231 246
5.782742382 108.580917220 0.009308485 0 231 246
5.778147960 108.482158131 0.017326286 0 231 246
5.781087515 108.386785778 0.004558355 0 231 246
5.775345642 108.287514110 0.015744183 0 231 246
5.773707609 108.190086183 0.015608211 0 231 246
5.778302224 108.095451089 -0.001723383 0 231 246
5.783922174 108.001270626 -0.021883174 0 230 249
5.780287831 107.902945807 -0.016508162 0 230 249
5.772378540 107.802712444 0.000663221 0 231 246
5.766753346 107.703504121 0.011533571 0 231 246
5.764559614 107.605830102 0.012936983 0 231 246
5.765956335 107.509757339 0.004434621 0 231 246
5.768265203 107.414088892 -0.006583626 0 230 249
5.769903234 107.318119307 -0.015749966 0 230 249
5.771117995 107.221959423 -0.023747472 0 230 249
5.770301608 107.124895459 -0.026139559 0 230 249
5.757164251 107.022362636 0.005466381 0 231 246
5.735167541 106.915910144 0.061519262 0 231 246
5.724117347 106.814323782 0.087368914 0 231 243
5.627096005 97.005415231 -0.108475997 0 230 252
5.446291930 86.874633692 -0.075783583 0 230 249
5.455586520 86.781272036 -0.105890212 0 230 252
5.463319285 86.687333687 -0.131681888 0 230 252
5.460695596 86.589620830 -0.128865168 0 230 252
5.456429346 86.491312218 -0.121510094 0 230 252
5.453494061 86.393489271 -0.117830448 0 230 252
5.452219543 86.296270077 -0.118737309 0 230 252
5.452924383 86.199768156 -0.125110809 0 230 252
5.455919020 86.104093596 -0.137808582 0 230 252
5.459440254 86.008606335 -0.151960091 0 230 252
5.460992611 85.912404546 -0.160671867 0 230 252
5.459185148 85.814988681 -0.160101470 0 230 252
5.454567962 85.716560827 -0.151768357 0 230 252
5.449763318 85.618068216 -0.142916260 0 230 252
5.447201650 85.520385092 -0.140259130 0 230 252
5.447069431 85.423575876 -0.144312190 0 230 252
5.448675595 85.327389797 -0.153166485 0 230 252
5.451447330 85.231619529 -0.165239701 0 229 255
5.454099161 85.135803416 -0.176980744 0 229 255
5.452943074 85.038622349 -0.178201378 0 229 255
5.447145467 84.939782814 -0.166598585 0 229 255
5.440173495 84.840527719 -0.151750364 0 230 252
5.434598942 84.741775426 -0.140761399 0 230 252
5.431302369 84.643837978 -0.136064365 0 230 252
5.429644276 84.546485232 -0.135892683 0 230 252
5.429225661 84.449573500 -0.139144132 0 230 252
5.430067865 84.353108940 -0.145877726 0 230 252
5.431660318 84.256909031 -0.154682995 0 230 252
5.432533262 84.160452208 -0.161499540 0 230 252
5.431736525 84.063403033 -0.163702323 0 229 255
5.429476640 83.965836426 -0.161861853 0 230 252
5.424719796 83.867388987 -0.153121966 0 230 252
5.417498427 83.768075014 -0.137572159 0 230 252
5.412072305 83.669398357 -0.126980905 0 230 252
5.411134880 83.572305033 -0.128789577 0 230 252
5.410479941 83.475310959 -0.131377644 0 230 252
5.409890132 83.378339471 -0.134144614 0 230 252
5.408720460 83.281164200 -0.135308518 0 230 252
5.408196936 83.184215486 -0.138256545 0 230 252
5.407780247 83.087303784 -0.141498706 0 230 252
5.406820809 82.990201810 -0.143240318 0 230 252
5.406123472 82.893191338 -0.145705028 0 230 252
5.405957473 82.796366015 -0.149636709 0 230 252
5.404823364 82.699202587 -0.150892609 0 230 252
5.401353907 82.601226121 -0.145695173 0 230 252
5.394382260 82.502033465 -0.130820437 0 230 252
5.387918065 82.403021637 -0.117346525 0 230 252
5.385783175 82.305516366 -0.115832954 0 230 252
5.385411721 82.208623236 -0.119190566 0 230 252
5.383545976 82.111212174 -0.118418495 0 230 252
5.390861425 82.016977425 -0.143012679 0 230 252
5.389877116 81.919868678 -0.144673985 0 230 252
5.390755155 81.823402642 -0.151479900 0 230 252
5.384058367 81.724323766 -0.137355512 0 230 252
5.387418941 81.628712603 -0.151018632 0 230 252
5.388670250 81.532372541 -0.158852851 0 230 252
5.388923505 81.435687808 -0.163928413 0 229 255
5.391062855 81.339649440 -0.174214364 0 229 255
5.393076940 81.243565711 -0.184153241 0 229 255
5.391902529 81.146387739 -0.185281043 0 229 255
5.385334350 81.047364804 -0.171504228 0 229 255
5.382676854 80.949682352 -0.168531900 0 229 255
5.373121378 80.849646777 -0.146498420 0 230 252
5.368024392 80.751137745 -0.136783127 0 230 252
5.366170593 80.653736283 -0.136028125 0 230 252
5.365019808 80.556574595 -0.137214604 0 230 252
5.365272612 80.459889922 -0.142278418 0 230 252
5.369679159 80.364614076 -0.158818869 0 230 252
5.378388754 80.270792921 -0.187248695 0 229 255
5.386368366 80.176717136 -0.213660634 0 229 255
5.389696730 80.081061146 -0.227219217 0 229 255
5.387926721 79.983679198 -0.226688726 0 229 255
5.380763598 79.884477653 -0.211254489 0 229 255
5.368713000 79.783633141 -0.182313506 0 229 255
5.355397511 79.682371109 -0.149875879 0 230 252
5.346621152 79.582645208 -0.129979922 0 230 252
5.344047488 79.485009153 -0.127222813 0 230 252
5.345670887 79.388782775 -0.136062561 0 230 252
5.348441539 79.292938948 -0.148071608 0 230 252
5.348595599 79.196216118 -0.152849079 0 230 252
5.346033859 79.098584101 -0.150120715 0 230 252
5.342470696 79.000618718 -0.144623914 0 230 252
5.339368644 78.902809138 -0.140400236 0 230 252
5.339393791 78.806043446 -0.144817251 0 230 252
5.344780832 78.711062039 -0.164050561 0 229 255
5.353082336 78.617044915 -0.191337005 0 229 255
5.355261535 78.520987108 -0.201703815 0 229 255
5.350512046 78.422628087 -0.192922303 0 229 255
5.344005413 78.323689601 -0.179283755 0 229 255
5.338551448 78.225103748 -0.168553068 0 229 255
5.335075220 78.127175180 -0.163286741 0 230 252
5.333532405 78.029886995 -0.163362371 0 230 252
5.333860958 77.933216514 -0.168608571 0 229 255
5.335716561 77.837048147 -0.178073871 0 229 255
5.337720384 77.740926367 -0.187947822 0 229 255
5.337990944 77.644232514 -0.193030749 0 229 255
5.334952367 77.546451146 -0.188967471 0 229 255
5.329600061 77.447912505 -0.178508785 0 229 255
5.325142963 77.349670423 -0.170522961 0 229 255
5.323166976 77.252242778 -0.169392930 0 229 255
5.322732808 77.155319757 -0.172522906 0 229 255
5.320930107 77.057949552 -0.171869643 0 229 255
5.317696356 76.960113347 -0.167260306 0 229 255
5.314808765 76.862391568 -0.163606541 0 229 255
5.312948189 76.765005293 -0.162790058 0 230 252
5.313291127 76.668335604 -0.168062451 0 229 255
5.314477772 76.571938682 -0.175665625 0 229 255
5.314931315 76.475302447 -0.181241682 0 229 255
5.316346508 76.378976439 -0.189474520 0 229 255
5.319180520 76.283107397 -0.201627703 0 229 255
5.321448069 76.187052448 -0.212214340 0 229 255
5.321228129 76.090192480 -0.215925018 0 229 255
5.319771375 75.992933356 -0.216216302 0 229 255
5.320520620 75.896384584 -0.222603583 0 229 255
5.322914062 75.800363035 -0.233534209 0 229 255
5.320661043 75.702846933 -0.231621586 0 229 255
5.312724182 75.603508897 -0.213998295 0 229 255
5.303065335 75.503624539 -0.191614330 0 229 255
5.295265123 75.404341445 -0.174366199 0 229 255
5.289971863 75.305864671 -0.164045890 0 229 255
5.292975466 75.210039406 -0.176656577 0 229 255
5.293224499 75.113332905 -0.181652766 0 229 255
5.296130946 75.017471623 -0.193992987 0 229 255
5.289321611 74.918517327 -0.179477845 0 229 255
5.288348847 74.821421499 -0.181093843 0 229 255
5.290817608 74.725417561 -0.192221253 0 229 255
5.285454026 74.626928921 -0.181698781 0 229 255
5.285784885 74.530245979 -0.186914881 0 229 255
5.291425746 74.435240684 -0.206807178 0 229 255
5.288345198 74.337476506 -0.202591896 0 229 255
5.291943120 74.241820101 -0.216835445 0 229 255
5.291745713 74.144964690 -0.220587347 0 229 255
5.286475503 74.046512715 -0.210316347 0 229 255
5.285587655 73.949441042 -0.212157630 0 229 255
5.275007486 73.849327393 -0.187206782 0 229 255
5.266897315 73.749995300 -0.169082097 0 229 255
5.261590307 73.651546242 -0.158704610 0 230 252
5.260657719 73.554468343 -0.160417697 0 230 252
5.264036162 73.458736796 -0.174046328 0 229 255
5.269413829 73.363625532 -0.193200328 0 229 255
5.272331033 73.267742823 -0.205552141 0 229 255
5.268899841 73.169881665 -0.200354430 0 229 255
5.264084507 73.071592175 -0.191329448 0 229 255
5.261724045 72.974067606 -0.189089258 0 229 255
5.260350734 72.876850113 -0.189576746 0 229 255
5.258385677 72.779449666 -0.188427395 0 229 255
5.255954644 72.681905838 -0.185988847 0 229 255
5.253789585 72.584445250 -0.184284439 0 229 255
5.253011874 72.487413545 -0.186414056 0 229 255
5.253655792 72.390819696 -0.192472524 0 229 255
5.252897199 72.293792979 -0.194652900 0 229 255
5.248514719 72.195652243 -0.186814370 0 229 255
5.242389017 72.096978955 -0.174155707 0 229 255
5.240699820 71.999669780 -0.173760211 0 229 255
5.241974880 71.903268818 -0.181558137 0 229 255
5.241774951 71.806415016 -0.185277528 0 229 255
5.238400795 71.708591032 -0.180220841 0 229 255
5.235001786 71.610761274 -0.175094322 0 229 255
5.236397902 71.514394348 -0.183222762 0 229 255
5.240714371 71.418914266 -0.199423544 0 229 255
5.244406298 71.323240308 -0.213896855 0 229 255
5.244173104 71.226371328 -0.217518097 0 229 255
5.236771609 71.127328617 -0.201321176 0 229 255
5.225580764 71.027143456 -0.174647115 0 229 255
5.219319118 70.928456641 -0.161598854 0 230 252
5.218963396 70.831557513 -0.164876854 0 229 255
5.221245869 70.735453657 -0.175447377 0 229 255
5.225325842 70.639888790 -0.190986333 0 229 255
5.230127574 70.544537198 -0.208519769 0 229 255
5.233434538 70.448732014 -0.221919798 0 229 255
5.233125117 70.351838237 -0.225320799 0 229 255
5.229725949 70.254017855 -0.220178609 0 229 255
5.226029995 70.156110459 -0.214214764 0 229 255
5.225653205 70.059197421 -0.217426286 0 229 255
5.228803503 69.963337022 -0.230388167 0 229 255
5.230004080 69.866892049 -0.237958645 0 229 255
5.227017343 69.769198340 -0.233951258 0 229 255
5.223343422 69.671301752 -0.228042850 0 229 255
5.221261660 69.573880158 -0.226535264 0 229 255
5.219851537 69.476658644 -0.226883521 0 229 255
5.217273951 69.379091533 -0.224002898 0 229 255
5.213868113 69.281280536 -0.218831198 0 229 255
5.212872626 69.184183697 -0.220322582 0 229 255
5.215661253 69.088203716 -0.232275388 0 229 255
5.218081147 68.992112151 -0.243207741 0 229 255
5.215290168 68.894483988 -0.239731721 0 229 255
5.205667650 68.794848715 -0.217366149 0 229 255
5.194460128 68.694754638 -0.190616889 0 229 255
5.187565205 68.595932963 -0.175790246 0 229 255
5.186577998 68.498845891 -0.177296790 0 229 255
5.189177457 68.402807813 -0.188719201 0 229 255
5.192279013 68.306913644 -0.201528919 0 229 255
5.191523344 68.209891151 -0.203672572 0 229 255
5.187505306 68.111918051 -0.196794760 0 229 255
5.184358120 68.014200625 -0.192323700 0 229 255
5.185124558 67.917621999 -0.198672739 0 229 255
5.188930921 67.821924160 -0.213426239 0 229 255
5.191940763 67.725991818 -0.225976390 0 229 255
5.191323623 67.629006694 -0.228496781 0 229 255
5.194213845 67.533035040 -0.240714217 0 229 255
5.183222612 67.433053441 -0.214547304 0 229 255
5.175541460 67.334033684 -0.197531740 0 229 255
5.171648694 67.236109677 -0.190990234 0 229 255
5.169424605 67.138667642 -0.189061682 0 229 255
5.165246782 67.040665567 -0.181729677 0 229 255
5.155821507 66.941161223 -0.159886499 0 230 252
5.148616265 66.842299054 -0.144180783 0 230 252
5.147811869 66.745272165 -0.146173334 0 230 252
5.158205190 66.457838404 -0.187557478 0 229 255
5.009028706 57.898737616 -0.141597926 0 230 252
4.974177883 54.792005795 -0.176445156 0 229 255
4.942285618 53.622589074 -0.137141539 0 230 252
4.862866932 47.504685445 -0.171747906 0 229 255
4.844303241 46.726111033 -0.152361656 0 230 252
4.844862308 46.629389677 -0.157904045 0 230 252
4.847587522 46.533114545 -0.169441471 0 229 255
4.847973868 46.436354395 -0.174503690 0 229 255
4.840452937 46.337966045 -0.157676613 0 230 252
4.829709560 46.238920812 -0.131928129 0 230 252
4.822868382 46.140683046 -0.116980120 0 230 252
4.822377200 46.043749174 -0.119608631 0 230 252
4.824865724 45.947423531 -0.130484396 0 230 252
4.826676694 45.850957103 -0.139483573 0 230 252
4.826493915 45.754082839 -0.142962649 0 230 252
4.823508871 45.656638812 -0.138683396 0 230 252
4.818040909 45.558692973 -0.127529723 0 230 252
4.812681581 45.460772543 -0.116675561 0 230 252
4.811208336 45.363640281 -0.116577845 0 230 252
4.811968672 45.266958628 -0.122662168 0 230 252
4.810986590 45.169925080 -0.123921949 0 230 252
4.808719347 45.072633456 -0.121622938 0 230 252
4.808339780 44.975721158 -0.124548466 0 230 252
4.810158503 44.879248159 -0.133558494 0 230 252
4.810431682 44.782464428 -0.138288923 0 230 252
4.807351328 44.685011437 -0.133734548 0 230 252
4.800645333 44.586838910 -0.119141931 0 230 252
4.791012107 44.488089650 -0.096444383 0 230 252
4.794673016 44.391981041 -0.110548868 0 230 252
4.794752822 44.295160708 -0.114738444 0 230 252
4.788807128 44.197150303 -0.102245855 0 230 252
4.793048029 44.101150337 -0.117952936 0 230 252
4.794025427 44.004504751 -0.124624238 0 230 252
4.790949483 43.907062301 -0.120072984 0 230 252
4.797234064 43.811454638 -0.141434953 0 230 252
4.797277968 43.714621615 -0.145518790 0 230 252
4.789577599 43.616277071 -0.128161531 0 230 252
4.788760953 43.519277893 -0.129860689 0 230 252
4.789829331 43.422644873 -0.136777502 0 230 252
4.780329855 43.323960847 -0.114435721 0 230 252
4.776018924 43.226287570 -0.106457392 0 230 252
4.776100118 43.129465249 -0.110637790 0 230 252
4.778518167 43.033092623 -0.121286904 0 230 252
4.781056398 42.936740521 -0.132267757 0 230 252
4.781283686 42.839941979 -0.136849507 0 230 252
4.780595948 42.742967158 -0.138896835 0 230 252
4.779204958 42.645857610 -0.138996023 0 230 252
4.776917787 42.548577317 -0.136612895 0 230 252
4.774348476 42.451244276 -0.133447485 0 230 252
4.769846107 42.353544955 -0.124928915 0 230 252
4.764395524 42.255668423 -0.113783838 0 230 252
4.759918764 42.157979695 -0.105333775 0 230 252
4.758199345 42.060814670 -0.104516837 0 230 252
4.759783292 41.964273156 -0.112844938 0 230 252
4.762216688 41.867889544 -0.123523929 0 230 252
4.763537872 41.771294429 -0.131122467 0 230 252
4.764025799 41.674541372 -0.136412872 0 230 252
4.765356617 41.577944854 -0.144036012 0 230 252
4.766287258 41.481271867 -0.150550111 0 230 252
4.763505514 41.383905849 -0.146784242 0 230 252
4.760076284 41.286420836 -0.141224447 0 230 252
4.758576862 41.189295714 -0.141006836 0 230 252
4.757440457 41.092238196 -0.141793258 0 230 252
4.754468771 40.994841713 -0.137496922 0 230 252
4.750198614 40.897207345 -0.129604108 0 230 252
4.746887470 40.799751941 -0.124365528 0 230 252
4.746604098 40.702854247 -0.127509435 0 230 252
4.749648141 40.606565694 -0.139865649 0 230 252
4.753125943 40.510353373 -0.153421933 0 230 252
4.754090051 40.413678983 -0.160016932 0 230 252
4.751997710 40.316446582 -0.158147669 0 230 252
4.747837631 40.218839323 -0.150551741 0 230 252
4.743875736 40.121270426 -0.143503403 0 230 252
4.741998386 40.024080973 -0.142226020 0 230 252
4.740945159 39.927041000 -0.143229537 0 230 252
4.738323082 39.829718422 -0.139887747 0 230 252
4.733485716 39.731998814 -0.130410557 0 230 252
4.725765154 39.633764894 -0.112948398 0 230 252
4.717517337 39.535441734 -0.094024943 0 230 252
4.713864063 39.437944899 -0.087822927 0 230 252
4.714261515 39.341172182 -0.092836648 0 230 252
4.713885030 39.244260743 -0.095706184 0 230 252
4.710176556 39.146757434 -0.089347904 0 230 252
4.704900911 39.048978645 -0.078648715 0 230 249
4.700101853 38.951287364 -0.069268063 0 230 249
4.698061466 38.854085483 -0.067525463 0 230 249
4.699210685 38.757445666 -0.074614375 0 230 249
4.701016976 38.660919589 -0.083521820 0 230 249
4.700117732 38.563917369 -0.084936018 0 230 252
4.696387784 38.466420229 -0.078510239 0 230 249
4.693724549 38.369111262 -0.075037281 0 230 249
4.694782073 38.272451185 -0.081866940 0 230 249
4.697059361 38.176001385 -0.092073421 0 230 252
4.695775504 38.078931988 -0.092417051 0 230 252
4.690494715 37.981171728 -0.081690858 0 230 249
4.687148819 37.883748568 -0.076321784 0 230 249
4.690238192 37.787434987 -0.088772938 0 230 252
4.694280498 37.691281966 -0.103862112 0 230 252
4.694297361 37.594435236 -0.107802428 0 230 252
4.697929627 37.498205952 -0.121754073 0 230 252
4.689534240 37.399921083 -0.102395527 0 230 252
4.683904964 37.302112754 -0.090696150 0 230 252
4.680588035 37.204700722 -0.085399393 0 230 252
4.678224739 37.107452080 -0.082742491 0 230 249
4.676051806 37.010236680 -0.080611652 0 230 249
4.672581427 36.912803311 -0.074886466 0 230 249
4.669443571 36.815427813 -0.070081024 0 230 249
4.667064925 36.718181460 -0.067377048 0 230 249
4.665909976 36.621141206 -0.068060959 0 230 249
4.666454146 36.524385125 -0.073449494 0 230 249
4.666863541 36.427605396 -0.078463714 0 230 249
4.664065740 36.330290907 -0.074594420 0 230 249
4.658698913 36.232551287 -0.063608928 0 230 249
4.655439111 36.135164028 -0.058457758 0 230 249
4.654619155 36.038181714 -0.060062780 0 230 249
4.653373810 35.941129137 -0.060488550 0 230 249
4.650029537 35.843731501 -0.055100011 0 230 249
4.646538181 35.746311532 -0.049302944 0 230 249
4.645056359 35.649222497 -0.049070383 0 230 249
4.644843657 35.552341149 -0.052351729 0 230 249
4.644689208 35.455468704 -0.055793338 0 230 249
4.645258214 35.358713244 -0.061237607 0 230 249
4.646727878 35.262102682 -0.069175363 0 230 249
4.647961072 35.165451978 -0.076457140 0 230 249
4.648455905 35.068680381 -0.081692823 0 230 249
4.648995572 34.971914873 -0.087051629 0 230 252
4.650462631 34.875297202 -0.094978017 0 230 252
4.651673802 34.778636641 -0.102194625 0 230 252
4.650357068 34.681570177 -0.102408471 0 230 252
4.647177969 34.584206879 -0.097462856 0 230 252
4.644336684 34.486899018 -0.093451758 0 230 252
4.642796587 34.389799151 -0.093043559 0 230 252
4.641263214 34.292700772 -0.092652871 0 230 252
4.638916635 34.195474333 -0.090008614 0 230 252
4.635993842 34.098158119 -0.085767192 0 230 252
4.632330441 34.000726942 -0.079473228 0 230 249
4.628289699 33.903238631 -0.072132903 0 230 249
4.623225395 33.805592507 -0.061956231 0 230 249
4.616463336 33.707684518 -0.047075716 0 230 249
4.610639530 33.609927032 -0.034792831 0 230 249
4.611615985 33.513229430 -0.041345018 0 230 249
4.619543637 33.417607294 -0.067150645 0 230 249
4.628070655 33.322070974 -0.094615639 0 230 252
4.631854032 33.225796061 -0.108940007 0 230 252
4.630363539 33.128706456 -0.108654818 0 230 252
4.627373137 33.031387147 -0.104213759 0 230 252
4.625578369 32.934252329 -0.103083473 0 230 252
4.624448533 32.837219623 -0.103793950 0 230 252
4.621169658 32.739859824 -0.098550380 0 230 252
4.612150070 32.641629921 -0.077403513 0 230 249
4.598703609 32.542735535 -0.043992550 0 230 249
4.596544111 32.445556231 -0.041846044 0 230 249
4.595841719 32.348597447 -0.043734743 0 230 249
4.602504058 32.252745683 -0.066023516 0 230 249
4.598889952 32.155347007 -0.059844300 0 230 249
4.599568305 32.058592399 -0.065554644 0 230 249
4.596009904 31.961204413 -0.059527450 0 230 249
4.592072365 31.863761975 -0.052448807 0 230 249
4.590766655 31.766712438 -0.052659640 0 230 249
4.592166575 31.670063709 -0.060364498 0 230 249
4.594515164 31.573553241 -0.070696338 0 230 249
4.597116514 31.477077449 -0.081727373 0 230 249
4.600274666 31.380680707 -0.094299883 0 230 252
4.602560122 31.284152928 -0.104453811 0 230 252
4.601074790 31.187071601 -0.104160634 0 230 252
4.593101208 31.089044973 -0.085892055 0 230 252
4.588200895 30.991470454 -0.076136049 0 230 249
4.576411299 30.892900065 -0.047293383 0 230 249
4.570765749 30.795226405 -0.035470313 0 230 249
4.571514580 30.698478524 -0.041360610 0 230 249
4.576107474 30.602282248 -0.057899259 0 230 249
4.582334141 30.506316081 -0.078963108 0 230 249
4.587326371 30.410167778 -0.096606196 0 230 252
4.586174326 30.313138156 -0.097226291 0 230 252
4.579884436 30.215377493 -0.083611357 0 230 249
4.577132054 30.118122957 -0.079795563 0 230 249
4.580187495 30.021691842 -0.092068806 0 230 252
4.586087143 29.925659130 -0.112220787 0 230 252
4.588806945 29.829173490 -0.123562213 0 230 252
4.580293734 29.731107926 -0.103781853 0 230 252
4.567550289 29.632455824 -0.072280367 0 230 249
4.559930543 29.534528152 -0.054972680 0 230 249
4.557474705 29.437324628 -0.051970398 0 230 249
4.556043139 29.340264465 -0.051804751 0 230 249
4.553168399 29.243004785 -0.047639613 0 230 249
4.549020085 29.145570666 -0.039944808 0 230 249
4.544626074 29.048105128 -0.031568093 0 230 249
4.541052990 28.950754940 -0.025464631 0 230 249
4.539880018 28.853735437 -0.026009743 0 230 249
4.541256218 28.757064221 -0.033616513 0 230 249
4.541908452 28.660292600 -0.039216407 0 230 249
4.539726609 28.563134837 -0.036963036 0 230 249
4.536100787 28.465782439 -0.030707762 0 230 249
4.533276436 28.368540291 -0.026671923 0 230 249
4.532386656 28.271560055 -0.027995010 0 230 249
4.532479419 28.174711677 -0.032039326 0 230 249
4.531386396 28.077703703 -0.032797099 0 230 249
4.528459003 27.980450900 -0.028471235 0 230 249
4.523941077 27.882987836 -0.019737266 0 230 249
4.519121728 27.785487460 -0.010166928 0 230 249
4.517057080 27.688354637 -0.008228008 0 230 249
4.517350539 27.591533863 -0.012821747 0 230 249
4.518186336 27.494783480 -0.018917122 0 230 249
4.519892067 27.398145849 -0.027421860 0 230 249
4.523009519 27.301690857 -0.039837192 0 230 249
4.526815134 27.205322494 -0.054158321 0 230 249
4.528875535 27.108723466 -0.063642753 0 230 249
4.526646488 27.011565827 -0.061240709 0 230 249
4.523486372 26.914288747 -0.056257650 0 230 249
4.523817620 26.817463436 -0.060947604 0 230 249
4.524078631 26.720628087 -0.065441871 0 230 249
4.521105022 26.623377249 -0.060972209 0 230 249
4.516348449 26.525900118 -0.051560926 0 230 249
4.511390952 26.428400274 -0.041591685 0 230 249
4.507082135 26.330985853 -0.033418694 0 230 249
4.504791790 26.233829561 -0.030837632 0 230 249
4.505125381 26.137005514 -0.035526316 0 230 249
4.509439541 26.040681445 -0.051244075 0 230 249
4.516436682 25.944689969 -0.074395450 0 230 249
4.521257604 25.848420149 -0.091515581 0 230 252
4.520160989 25.751407900 -0.092237041 0 230 252
4.514188442 25.653789517 -0.079445934 0 230 249
4.506942137 25.556017071 -0.063123917 0 230 249
4.500211038 25.458313073 -0.048228299 0 230 249
4.495187812 25.360823846 -0.038064096 0 230 249
4.494404756 25.263858389 -0.039648642 0 230 249
4.497167872 25.167326879 -0.051058963 0 230 249
4.498617074 25.070632157 -0.058827246 0 230 249
4.495914636 24.973430522 -0.055089683 0 230 249
4.498619466 24.876885921 -0.066335383 0 230 249
4.493743844 24.779422134 -0.056573314 0 230 249
4.490831155 24.682197858 -0.052249693 0 230 249
4.489244579 24.585134345 -0.051599844 0 230 249
4.488692058 24.488195102 -0.053814462 0 230 249
4.492447015 24.391769637 -0.067965003 0 230 249
4.500187865 24.295814746 -0.093160453 0 230 252
4.493587390 24.198152459 -0.078611524 0 230 249
4.494382547 24.101368671 -0.084556641 0 230 252
4.483064007 24.003156245 -0.056930189 0 230 249
4.476552145 23.905516222 -0.042623092 0 230 249
4.474852001 23.808443672 -0.041649512 0 230 249
4.473944547 23.711464152 -0.042871613 0 230 249
4.471158755 23.614266132 -0.038887095 0 230 249
4.466654106 23.516870255 -0.030137861 0 230 249
4.462890216 23.419562644 -0.023440339 0 230 249
4.462508750 23.322646622 -0.026115625 0 230 249
4.466208805 23.226198534 -0.040101329 0 230 249
4.470756896 23.129843852 -0.056436311 0 230 249
4.473147862 23.033239027 -0.066792031 0 230 249
4.472522708 22.936288942 -0.068787756 0 230 249
4.470790517 22.839213227 -0.067714287 0 230 249
4.471832910 22.742451183 -0.074329348 0 230 249
4.476229146 22.646064773 -0.090238462 0 230 252
4.478390965 22.549423801 -0.099953950 0 230 252
4.474327679 22.452085073 -0.092415509 0 230 252
4.469812280 22.354698369 -0.083622837 0 230 249
4.468982269 22.257723197 -0.085043136 0 230 252
4.471383120 22.161105077 -0.095416812 0 230 252
4.473759132 22.064481623 -0.105720635 0 230 252
4.474718441 21.967700057 -0.112096947 0 230 252
4.473855309 21.870717617 -0.113421152 0 230 252
4.469029927 21.773303112 -0.103762479 0 230 252
4.460230030 21.675459761 -0.083086770 0 230 249
4.451845927 21.577667397 -0.063562168 0 230 249
4.446839421 21.480245041 -0.053397745 0 230 249
4.445337502 21.383202462 -0.052945612 0 230 249
4.446757290 21.286473207 -0.060590367 0 230 249
4.449017902 21.189831842 -0.070564579 0 230 249
4.448644578 21.092907891 -0.073237300 0 230 249
4.443824965 20.995512345 -0.063585105 0 230 249
4.437890632 20.898002041 -0.050842003 0 230 249
4.437894000 20.801120123 -0.054555410 0 230 249
4.442464079 20.704716078 -0.070925523 0 230 249
4.445502480 20.608147826 -0.083049232 0 230 249
4.443197361 20.511020524 -0.080360886 0 230 249
4.435953357 20.413382255 -0.063981834 0 230 249
4.427423907 20.315616012 -0.044038494 0 230 249
4.421986626 20.218173710 -0.032664779 0 230 249
4.420122979 20.121101155 -0.031195352 0 230 249
4.418881048 20.024092762 -0.031448097 0 230 249
4.417473470 19.927067705 -0.031240577 0 230 249
4.417455808 19.830183853 -0.034884611 0 230 249
4.419326550 19.733489948 -0.043762010 0 230 249
4.419889330 19.636662271 -0.049012836 0 230 249
4.416439241 19.539431247 -0.043139264 0 230 249
4.414272249 19.442330200 -0.040821169 0 230 249
4.416087362 19.345626073 -0.049540104 0 230 249
4.420427449 19.249169940 -0.065257130 0 230 249
4.422433301 19.152479368 -0.074502761 0 230 249
4.420680795 19.055417044 -0.073329257 0 230 249
4.420922862 18.958550609 -0.077683577 0 230 249
4.421891687 18.861754111 -0.084051407 0 230 252
4.425277287 18.765190910 -0.097117542 0 230 252
4.431389419 18.668888203 -0.117740741 0 230 252
4.434421172 18.572283143 -0.129824056 0 230 252
4.427097071 18.474680785 -0.113199258 0 230 252
4.413241791 18.376458745 -0.078468228 0 230 249
4.399486285 18.278256056 -0.044012322 0 230 249
4.403010697 18.181702252 -0.057456747 0 230 249
4.396792051 18.084224524 -0.043891252 0 230 249
4.402705468 17.987892313 -0.063956216 0 230 249
4.408201218 17.891515673 -0.082862427 0 230 249
4.410572094 17.794842433 -0.093105050 0 230 252
4.408886167 17.697789566 -0.092100484 0 230 252
4.404498235 17.600487132 -0.083604325 0 230 249
4.400068654 17.503183457 -0.074991505 0 230 249
4.399233871 17.406212391 -0.076343041 0 230 249
4.403148074 17.309675310 -0.090858754 0 230 252
4.404959566 17.212943065 -0.099544267 0 230 252
4.402441361 17.115816203 -0.096225712 0 230 252
4.399136161 17.018619471 -0.090724245 0 230 252
4.396400504 16.921475698 -0.086800539 0 230 252
4.398480225 16.824764216 -0.096225346 0 230 252
4.400797659 16.728071562 -0.106308140 0 230 252
4.397727938 16.630898364 -0.101454966 0 230 252
4.402942581 16.534458660 -0.119567699 0 230 252
4.403704425 16.437622509 -0.125334760 0 230 252
4.397539584 16.340178358 -0.111897451 0 230 252
4.395883407 16.243131316 -0.110958620 0 230 252
4.387934471 16.145538466 -0.092572655 0 230 252
4.386334551 16.048499706 -0.091787451 0 230 252
4.389031896 15.951831190 -0.102914955 0 230 252
4.390578287 15.855061245 -0.110850505 0 230 252
4.388143713 15.757949837 -0.107747995 0 230 252
4.383898504 15.660685804 -0.099624416 0 230 252
4.381444342 15.563575635 -0.096465276 0 230 252
4.380467381 15.466590868 -0.097400511 0 230 252
4.378071579 15.369487252 -0.094400895 0 230 252
4.374587864 15.272294009 -0.088383874 0 230 252
4.372210034 15.175194443 -0.085431777 0 230 252
4.372661748 15.078329667 -0.090323572 0 230 252
4.374974331 14.981616783 -0.100373663 0 230 252
4.375983421 14.884794688 -0.106808707 0 230 252
4.375132892 14.787819580 -0.108086743 0 230 252
4.373755468 14.690801643 -0.107902808 0 230 252
4.373044431 14.593837766 -0.109565382 0 230 252
4.372799944 14.496911137 -0.112520427 0 230 252
4.371600455 14.399907602 -0.112826505 0 230 252
4.368163469 14.302726251 -0.106927663 0 230 252
4.363375278 14.205439808 -0.097281201 0 230 252
4.360031379 14.108270042 -0.091638091 0 230 252
4.358789842 14.011266880 -0.091823013 0 230 252
4.358452698 13.914334454 -0.094514436 0 230 252
4.356767707 13.817296894 -0.093467564 0 230 252
4.352296615 13.720044653 -0.084694442 0 230 252
4.347336280 13.622757468 -0.074563566 0 230 249
4.343320532 13.525545557 -0.067050590 0 230 249
4.340709613 13.428442855 -0.063431698 0 230 249
4.339926548 13.331479776 -0.064879907 0 230 249
4.342030697 13.234734018 -0.074332692 0 230 249
4.347586642 13.138244578 -0.093355651 0 230 252
4.354191459 13.041828322 -0.115286026 0 230 252
4.357839070 12.945186880 -0.129015624 0 230 252
4.354815044 12.848049538 -0.124244731 0 230 252
4.346181017 12.750501900 -0.103916860 0 230 252
4.337574669 12.652962131 -0.083664421 0 230 249
4.332233598 12.555665401 -0.072464947 0 230 249
4.331053097 12.458672655 -0.072801147 0 230 249
4.332447995 12.361865169 -0.080277621 0 230 249
4.334235422 12.265083913 -0.088841513 0 230 252
4.335963721 12.168296318 -0.097240412 0 230 252
4.338047538 12.071531778 -0.106624113 0 230 252
4.340203542 11.974769953 -0.116206962 0 230 252
4.341491914 11.877945006 -0.123382846 0 230 252
4.341461372 11.781026532 -0.126900326 0 230 252
4.341659024 11.684123105 -0.131049505 0 230 252
4.343925304 11.587361117 -0.140933987 0 230 252
4.347057838 11.490655906 -0.153219616 0 230 252
4.348176031 11.393810451 -0.159918350 0 230 252
4.346299118 11.296760701 -0.158310372 0 230 252
4.343130165 11.199624688 -0.153118318 0 230 252
4.339872859 11.102484424 -0.147680080 0 230 252
4.333893422 11.005164816 -0.134691883 0 230 252
4.315665281 10.907038949 -0.087735171 0 230 252
4.274790932 10.807437238 0.022024336 0 231 246
4.242282792 10.708412967 0.108585219 0 231 243
4.212876682 10.609614424 0.186545606 0 232 240
4.183311513 10.510827366 0.264948980 0 232 237
4.170703850 10.413151204 0.296327694 0 232 237
4.160878729 10.315661563 0.319991253 0 233 234
4.157145557 10.218565240 0.326761809 0 233 234
4.158636809 10.121800518 0.319044963 0 233 234
4.161531655 10.025121874 0.307436638 0 232 237
4.160268119 9.928181159 0.307361624 0 232 237
4.154893441 9.830986074 0.318689083 0 233 234
4.149903609 9.733818023 0.328950479 0 233 234
4.146562997 9.636753886 0.334639299 0 233 234
4.143411690 9.539703045 0.339804289 0 233 234
4.141607346 9.442735193 0.341234868 0 233 234
4.144973980 9.346078245 0.328325650 0 233 234
4.151443314 9.249602943 0.306812509 0 232 237
4.158080634 9.153131867 0.284834390 0 232 237
4.164568821 9.056646159 0.263270776 0 232 237
4.169375215 8.960056371 0.246372360 0 232 237
4.169586045 8.863195173 0.242220315 0 232 237
4.164310318 8.766016428 0.253285938 0 232 237
4.153145538 8.668503370 0.280685749 0 232 237
4.145486614 8.571197727 0.298363602 0 232 237
4.146658873 8.474396659 0.291549709 0 232 237
4.150885713 8.377765515 0.276265033 0 232 237
4.150829126 8.280891383 0.272861406 0 232 237
4.144682308 8.183679072 0.286350198 0 232 237
4.137762885 8.086428189 0.301983080 0 232 237
4.135378580 7.989429650 0.305038905 0 232 237
4.139057023 7.892761130 0.291280521 0 232 237
4.144756594 7.796197912 0.271917384 0 232 237
4.145261471 7.699351677 0.266963082 0 232 237
4.139138829 7.602152298 0.280391901 0 232 237
4.130794892 7.504839719 0.299982971 0 232 237
4.125190569 7.407676166 0.311976701 0 232 237
4.123372027 7.310712849 0.313471289 0 232 237
4.123576994 7.213854523 0.309354510 0 232 237
4.122875101 7.116948845 0.307754131 0 232 237
4.116648724 7.019762229 0.321477985 0 233 234
4.105731350 6.922343057 0.348214463 0 233 234
4.093519417 6.824866695 0.378543043 0 233 234
4.090851269 6.727872881 0.382401284 0 233 234
4.080750058 6.630514052 0.406877993 0 233 231
4.080101796 6.533624399 0.405136001 0 233 231
4.090086045 6.437250277 0.373903099 0 233 234
4.089532577 6.340360564 0.371900227 0 233 234
4.089291997 6.243485444 0.369030571 0 233 234
4.070443462 6.145728418 0.417776725 0 233 231
4.057254121 6.048250931 0.450826934 0 233 231
4.056323629 5.951353997 0.449874674 0 233 231
4.062036232 5.854764003 0.430496647 0 233 231
4.071031137 5.758319287 0.402014922 0 233 231
4.082221681 5.661966690 0.367443629 0 233 234
4.089911146 5.565446976 0.342584689 0 233 234
4.088895177 5.468531637 0.341874574 0 233 234
4.081832302 5.371348445 0.357939129 0 233 234
4.072423573 5.274066880 0.380512173 0 233 234
4.066201367 5.176930466 0.394247351 0 233 231
4.066251649 5.080068690 0.390584226 0 233 234
4.069252899 4.983332300 0.378736311 0 233 234
4.071000485 4.886539707 0.370367032 0 233 234
4.072984903 4.789754948 0.361341820 0 233 234
4.074430450 4.692945472 0.353812468 0 233 234
4.072921509 4.596012299 0.354479958 0 233 234
4.068282327 4.498951647 0.363831955 0 233 234
4.065198400 4.401956712 0.368870821 0 233 234
4.069685626 4.305266831 0.352908041 0 233 234
4.079843615 4.208797858 0.321215130 0 233 234
4.088386349 4.112256822 0.294003879 0 232 237
4.084100671 4.015209034 0.302380749 0 232 237
4.069003911 3.917747008 0.340749967 0 233 234
4.058049769 3.820453884 0.367628538 0 233 234
4.054650611 3.723453827 0.373549920 0 233 234
4.055501731 3.626614558 0.367681560 0 233 234
4.055560872 3.529744548 0.364011345 0 233 234
4.051185881 3.432711288 0.372643288 0 233 234
4.043974188 3.335577780 0.389145993 0 233 234
4.039504283 3.238547365 0.398043692 0 233 231
4.038258707 3.141634009 0.397997599 0 233 231
4.035530468 3.044668795 0.402065879 0 233 231
4.030223480 2.947615375 0.413289406 0 233 231
4.025488722 2.850584897 0.422926644 0 233 231
4.026884656 2.753765407 0.415556874 0 233 231
4.034643139 2.657157639 0.390536608 0 233 234
4.042108776 2.560533432 0.366329659 0 233 234
4.042939968 2.463685123 0.360529634 0 233 234
4.036568607 2.366601924 0.374712917 0 233 234
4.026341407 2.269399323 0.399594879 0 233 231
4.016561587 2.172217947 0.423237009 0 233 231
4.009545797 2.075129715 0.439212051 0 233 231
4.005102028 1.978125519 0.448052596 0 233 231
4.006814617 1.881311722 0.439814168 0 233 231
4.018745061 1.784803562 0.403228258 0 233 231
4.032627894 1.688343531 0.361226351 0 233 234
4.040039592 1.591682157 0.337178913 0 233 234
4.033293282 1.494604222 0.352413057 0 233 234
4.014489188 1.397186037 0.401102360 0 233 231
4.000972605 1.299930600 0.435123177 0 233 231
4.005152509 1.203177002 0.420046689 0 233 231
4.018384551 1.106667751 0.379855970 0 233 234
