ply
format ascii 1.0
comment coordinate_system ground
comment units millimeter
element vertex 1448
property double x
property double y
property double z
property uchar red
property uchar green
property uchar blue
comment color_mapping zg_high_contrast_from_zg
comment color_zg_range_mm -0.190914275 0.484413173
end_header
6.419359310 147.083937196 0.170455546 242 235 0
6.419479875 146.987458757 0.165088817 241 237 0
6.421334312 146.892018486 0.154949194 239 240 0
6.423437500 146.796724716 0.144125523 238 244 0
6.422632466 146.699687117 0.141309803 237 246 0
6.419597084 146.601314582 0.144635783 238 244 0
6.416634325 146.502986671 0.147762783 238 243 0
6.414038901 146.404879407 0.149879370 238 242 0
6.410826825 146.306404766 0.153694763 239 241 0
6.406670503 146.207367944 0.160110979 240 238 0
6.402069512 146.108067973 0.167752538 241 236 0
6.398874551 146.009608432 0.171523788 242 234 0
6.399396577 145.913364244 0.165061686 241 237 0
6.403226284 145.819087525 0.149493053 238 242 0
6.406885694 145.724705488 0.134394088 236 247 0
6.407959791 145.628782575 0.126414403 234 250 0
6.407189654 145.531762031 0.123513589 234 251 0
6.405025755 145.433913429 0.124451363 234 251 0
6.400869947 145.334883434 0.130874779 235 249 0
6.395140244 145.234922197 0.141632929 237 245 0
6.389277147 145.134885169 0.152759437 239 241 0
6.384610256 145.035559933 0.160593223 240 238 0
6.382010733 144.937460725 0.162735444 241 237 0
6.381879588 144.840822373 0.158081803 240 239 0
6.381804997 144.744216458 0.153273330 239 241 0
6.380435318 144.646844487 0.152031887 239 241 0
6.379152497 144.549523742 0.150552203 238 242 0
6.378397085 144.452514029 0.147621160 238 243 0
6.377036422 144.355146963 0.146357668 238 244 0
6.375098534 144.257439749 0.146684584 238 244 0
6.374625172 144.160595249 0.142979634 237 245 0
6.371724828 144.062321912 0.145958718 238 244 0
6.364842615 143.961708155 0.159903634 240 239 0
6.364640299 143.865024124 0.155455144 239 240 0
6.359889453 143.765667854 0.163532955 241 237 0
6.357936687 143.667956335 0.163906613 241 237 0
6.356545226 143.570574441 0.162735523 241 237 0
6.352658957 143.471730191 0.168435496 242 235 0
6.346373189 143.371482260 0.180744180 243 232 0
6.340185029 143.271295166 0.192785153 246 227 0
6.336807228 143.172755785 0.197087994 247 225 0
6.337973796 143.076874670 0.188877404 245 229 0
6.342724772 142.983085782 0.170796766 242 234 0
6.345858066 142.888347691 0.157171750 239 240 0
6.342718364 142.789945911 0.160822581 240 238 0
6.338425358 142.690872941 0.167650475 241 236 0
6.335563240 142.592635981 0.170538858 242 234 0
6.333400006 142.494807118 0.171503551 242 234 0
6.330602794 142.396609872 0.174215138 242 234 0
6.328518615 142.298828373 0.174964044 242 234 0
6.328661542 142.202341804 0.169580533 242 235 0
6.328825801 142.105866445 0.164139166 241 237 0
6.327464813 142.008504565 0.162899212 241 237 0
6.325015481 141.910511335 0.164657503 241 237 0
6.322139096 141.812271341 0.167592881 241 236 0
6.318005748 141.713304297 0.173990964 242 234 0
6.312258603 141.613405054 0.184834556 244 230 0
6.307233827 141.513927041 0.193689761 246 227 0
6.304384287 141.415709438 0.196555226 246 226 0
6.304541658 141.319230296 0.191140337 245 228 0
6.307497175 141.224365647 0.178019923 243 233 0
6.311740171 141.130240600 0.161354434 240 238 0
6.315783042 141.035995865 0.145240890 238 244 0
6.317826852 140.940595000 0.134633856 236 247 0
6.315676415 140.842776103 0.135579350 236 247 0
6.308819845 140.742249363 0.149487388 238 242 0
6.300064399 140.640634679 0.168626429 242 235 0
6.294597005 140.540915396 0.178710609 243 232 0
6.293893819 140.443935621 0.175674102 242 234 0
6.293704178 140.347250093 0.171224084 242 234 0
6.293046840 140.250295379 0.168063134 242 235 0
6.290411216 140.152206102 0.170351857 242 235 0
6.284965117 140.052507802 0.180382433 243 232 0
6.281708429 139.954065955 0.184383758 244 230 0
6.283163420 139.858321022 0.175408586 242 234 0
6.286570518 139.763689966 0.161057503 240 238 0
6.287438095 139.667604371 0.153701961 239 241 0
6.284952851 139.569602784 0.155582204 239 240 0
6.285698846 139.473445675 0.148563346 238 243 0
6.291706812 139.380287255 0.127051800 234 250 0
6.298834223 139.287761087 0.102457560 218 255 6
6.300375153 139.192047363 0.093251578 204 255 12
6.293570911 139.091582633 0.107032757 222 255 4
6.284487782 138.989826105 0.127092146 234 250 0
6.278908547 138.890066652 0.137501324 236 246 0
6.277620269 138.792747255 0.136092178 236 247 0
6.274020388 138.694115901 0.141051294 237 246 0
6.265271680 138.592566108 0.160193963 240 238 0
6.257493868 138.491572196 0.176663432 243 233 0
6.263276445 138.398263555 0.155781279 239 240 0
6.261688180 138.300777545 0.155203316 239 240 0
6.258232701 138.202235562 0.159769689 240 239 0
6.254669954 138.103634534 0.164632552 241 237 0
6.251632131 138.005331687 0.168050468 242 235 0
6.247762308 137.906560462 0.173761225 242 234 0
6.244478066 137.808121471 0.177859939 243 233 0
6.244997255 137.711828025 0.171482521 242 234 0
6.248371865 137.617141731 0.157240255 239 240 0
6.249144079 137.520986783 0.150167572 238 242 0
6.248536024 137.424053698 0.146897999 238 243 0
6.247414337 137.326831277 0.145044259 238 244 0
6.241923866 137.227154195 0.155226268 239 240 0
6.232889855 137.125490762 0.175170893 242 234 0
6.224931114 137.024436462 0.192154585 246 227 0
6.221002105 136.925646581 0.198038427 247 225 0
6.220999691 136.829058735 0.193106358 246 227 0
6.224863256 136.734634507 0.177525184 243 233 0
6.228978946 136.640347387 0.161250250 240 238 0
6.229683828 136.544148918 0.154372304 239 241 0
6.228957985 136.447149426 0.151436674 238 242 0
6.229815643 136.351033686 0.144139649 238 244 0
6.232672259 136.256031729 0.131336625 235 248 0
6.235486072 136.161002706 0.118652343 233 253 0
6.236073468 136.064729825 0.112102458 229 255 1
6.233478565 135.966683317 0.114320449 232 255 0
6.230562382 135.868458968 0.117424532 233 254 0
6.229411201 135.771217366 0.115667120 233 254 0
6.228531086 135.674126259 0.113163876 232 255 0
6.222965963 135.574432942 0.123568675 234 251 0
6.212484498 135.472014373 0.147519056 238 243 0
6.205061266 135.371298847 0.163045194 241 237 0
6.206633631 135.275573468 0.153789365 239 241 0
6.213449545 135.182749951 0.130088208 235 249 0
6.216667693 135.087929023 0.116299806 233 254 0
6.212278239 134.988897041 0.123471698 234 251 0
6.206647384 134.889181262 0.134064801 236 247 0
6.201632602 134.789809018 0.142961643 237 245 0
6.194676264 134.689367959 0.157208754 239 240 0
6.185709340 134.587822225 0.176996416 243 233 0
6.178135458 134.487050111 0.192947225 246 227 0
6.174929170 134.388688394 0.196865751 246 226 0
6.173163913 134.291121270 0.196814996 246 226 0
6.172536431 134.194180294 0.193630422 246 227 0
6.176044977 134.099512171 0.179051175 243 232 0
6.184006661 134.007286364 0.152203368 239 241 0
6.192256131 133.915211458 0.124563323 234 251 0
6.193395368 133.819229209 0.116514411 233 254 0
6.189973960 133.720745243 0.121032160 233 252 0
6.186173593 133.622055296 0.126595062 234 250 0
6.182607637 133.523495544 0.131513124 235 248 0
6.179648640 133.425269501 0.134759850 236 247 0
6.178312603 133.327931834 0.133535800 235 248 0
6.177314936 133.230779007 0.131380380 235 248 0
6.173666157 133.132178821 0.136530659 236 246 0
6.168619863 133.032818104 0.145532628 238 244 0
6.165774374 132.934659862 0.148471609 238 243 0
6.161361244 132.835648872 0.155731063 239 240 0
6.160642734 132.738651332 0.152811363 239 241 0
6.150174397 132.636349920 0.176757544 243 233 0
6.143742627 132.536249626 0.189582428 245 228 0
6.145750444 132.440737520 0.179153500 243 232 0
6.156743529 132.350100172 0.143966779 237 245 0
6.160441595 132.255496438 0.128881981 235 249 0
6.162038838 132.159750147 0.119586811 233 253 0
6.163412112 132.063880327 0.110909664 229 255 1
6.156332363 131.963432949 0.125525962 234 251 0
6.152854861 131.864938444 0.130217234 235 249 0
6.148891601 131.766183024 0.136248066 236 246 0
6.143557534 131.666689190 0.146057296 238 244 0
6.137094317 131.566588942 0.158979081 240 239 0
6.129210613 131.465726429 0.175816280 243 233 0
6.122043032 131.365254915 0.190681273 245 228 0
6.118786103 131.266894238 0.194771070 246 226 0
6.119987818 131.170934891 0.186575422 245 229 0
6.124679574 131.076850809 0.168763276 242 235 0
6.131056460 130.983667901 0.146308234 238 244 0
6.134873724 130.889104369 0.130907466 235 249 0
6.134447199 130.792259206 0.127202152 234 250 0
6.131569203 130.694098549 0.130253352 235 249 0
6.127221130 130.595151190 0.137356706 236 246 0
6.122621141 130.496071230 0.145155333 238 244 0
6.119184204 130.397616253 0.149749916 238 242 0
6.116824153 130.299738848 0.151377860 238 242 0
6.115365118 130.202343794 0.150523781 238 242 0
6.115315938 130.105701815 0.145785370 238 244 0
6.116239348 130.009577943 0.138367599 236 246 0
6.118070413 129.913936439 0.128449369 235 249 0
6.120817176 129.818780554 0.116008478 233 254 0
6.122895449 129.723265602 0.105410701 222 255 4
6.121398389 129.625845443 0.104667004 222 255 4
6.115924525 129.526310665 0.114883951 232 255 0
6.107532198 129.425228206 0.133145027 235 248 0
6.098061390 129.323578462 0.154379500 239 241 0
6.093718268 129.224655888 0.161483551 240 238 0
6.093048358 129.127683385 0.158465432 240 239 0
6.090330007 129.029624997 0.161093709 240 238 0
6.086799119 128.931137465 0.165962340 241 236 0
6.087688161 128.834990298 0.158650652 240 239 0
6.089792229 128.739483907 0.147991230 238 243 0
6.088125524 128.641982636 0.147725054 238 243 0
6.083430122 128.542882586 0.155807092 239 240 0
6.078662445 128.443747003 0.164089394 241 237 0
6.075923531 128.345683667 0.166781333 241 236 0
6.072637529 128.247333220 0.170982107 242 234 0
6.071531502 128.150131955 0.169175658 242 235 0
6.076125162 128.055929009 0.151661130 238 242 0
6.079890938 127.961286385 0.136429162 236 246 0
6.081941783 127.865739055 0.125924620 234 250 0
6.080347865 127.768275948 0.125466527 234 251 0
6.074832130 127.668755895 0.135818651 236 247 0
6.068489252 127.568805508 0.148451640 238 243 0
6.071816194 127.473923931 0.134433672 236 247 0
6.066757616 127.374649800 0.143528929 237 245 0
6.061706004 127.275382196 0.152606067 239 241 0
6.058515903 127.177090386 0.156553484 239 240 0
6.059585722 127.081024858 0.148760435 238 243 0
6.062865557 126.986110932 0.134876846 236 247 0
6.064767888 126.890475169 0.124790910 234 251 0
6.063671379 126.793274222 0.122971597 233 252 0
6.058194569 126.693792123 0.133226804 235 248 0
6.051566101 126.593713949 0.146657469 238 244 0
6.047641182 126.495045663 0.152637310 239 241 0
6.044400599 126.396734987 0.156731914 239 240 0
6.040497895 126.298082029 0.162652610 241 237 0
6.040240232 126.201322287 0.158527149 240 239 0
6.044911089 126.107117038 0.140817566 237 246 0
6.053902040 126.015145442 0.111200729 229 255 1
6.059867176 125.921599578 0.089925062 200 255 14
6.048486257 125.819074729 0.116463903 233 254 0
6.035045214 125.715492624 0.148682702 238 243 0
6.029572917 125.616036131 0.158937046 240 239 0
6.030952479 125.520119640 0.150305288 238 242 0
6.034816513 125.425482635 0.134825923 236 247 0
6.035453143 125.329178270 0.128243838 234 250 0
6.032611676 125.231081115 0.131250221 235 248 0
6.030041692 125.133124890 0.133509263 235 248 0
6.030177746 125.036561323 0.128309903 235 249 0
6.031991768 124.940859005 0.118485999 233 253 0
6.031257807 124.843845924 0.115686773 233 254 0
6.027319705 124.745188292 0.121721118 233 252 0
6.024855779 124.647288599 0.123692744 234 251 0
6.028393647 124.552465001 0.109120509 226 255 3
6.035782480 124.459609436 0.083933277 193 255 17
6.040090665 124.365171197 0.067239132 167 255 28
6.036836905 124.266862813 0.071391798 175 255 25
6.028896704 124.166161876 0.088464669 197 255 16
6.021263063 124.065622527 0.104693611 222 255 4
6.015792939 123.966191634 0.114959456 232 255 0
6.010953969 123.867085667 0.123486462 234 251 0
6.005591946 123.767716030 0.133456490 235 248 0
5.999211521 123.667831216 0.146235128 238 244 0
5.992898068 123.567984373 0.158830269 240 239 0
5.988775417 123.469254735 0.165386896 241 236 0
5.988107921 123.372281850 0.162419302 240 238 0
5.991911662 123.277577362 0.147126160 238 243 0
5.996811849 123.183424988 0.128811099 235 249 0
5.996639610 123.086697914 0.124480878 234 251 0
5.990385307 122.986890766 0.136919179 236 246 0
5.981676793 122.885845838 0.156124635 239 240 0
5.974204448 122.785431516 0.171923265 242 234 0
5.970744173 122.687048618 0.176662047 243 233 0
5.972022010 122.591059044 0.168339141 242 235 0
5.975144827 122.495998139 0.154930595 239 240 0
5.975790067 122.399685214 0.148353527 238 243 0
5.973180553 122.301731695 0.150750712 238 242 0
5.970410523 122.203698449 0.153591461 239 241 0
5.970615485 122.107162383 0.148231118 238 243 0
5.974157350 122.012301958 0.133671743 236 247 0
5.977182609 121.917178514 0.120537521 233 252 0
5.977832296 121.820859964 0.113953759 232 255 0
5.976745792 121.723669567 0.112157741 229 255 1
5.975314939 121.626306560 0.111312100 229 255 1
5.975671744 121.529838572 0.105538677 222 255 4
5.977077301 121.433893964 0.096874647 211 255 9
5.976112795 121.336762759 0.094746113 207 255 11
5.971435383 121.237777000 0.102855604 218 255 6
5.966341222 121.138585890 0.112115225 229 255 1
5.971611342 121.044566136 0.092799719 204 255 12
5.967187379 120.945710935 0.100213508 215 255 8
5.960793069 120.845877112 0.113061038 232 255 0
5.957042683 120.747362668 0.118619802 233 253 0
5.957523210 120.650953561 0.112513971 232 255 0
5.958522619 120.554800928 0.104978381 222 255 4
5.957758069 120.457770995 0.102307420 218 255 6
5.954863175 120.359684045 0.105511397 222 255 4
5.950458813 120.260850237 0.112878462 232 255 0
5.946340600 120.162160572 0.119457600 233 253 0
5.944197203 120.064450394 0.120592585 233 252 0
5.943917334 119.967662416 0.116590193 233 254 0
5.943767110 119.870937788 0.112231278 229 255 1
5.943098764 119.773956541 0.109301970 226 255 3
5.940844563 119.676192506 0.110746450 229 255 1
5.936855269 119.577573925 0.116976294 233 254 0
5.934062246 119.479546725 0.119908585 233 253 0
5.933057834 119.382401094 0.117909930 233 253 0
5.933684613 119.286057566 0.111414332 229 255 1
5.934331544 119.189722546 0.104864095 222 255 4
5.933630611 119.092724229 0.102031493 218 255 6
5.933537562 118.996023806 0.097523627 211 255 9
5.934949252 118.900060312 0.088867385 200 255 14
5.936485936 118.804156063 0.079867377 186 255 20
5.936060615 118.707289249 0.076278573 182 255 22
5.932217659 118.608750074 0.082115028 189 255 19
5.925756396 118.508933138 0.095172699 207 255 11
5.918417314 118.408691482 0.110652159 229 255 1
5.911624018 118.308720851 0.124627735 234 251 0
5.908486578 118.210537208 0.128523039 235 249 0
5.909057225 118.114161826 0.122193883 233 252 0
5.910772926 118.018342597 0.112708014 232 255 0
5.911502143 117.922041229 0.105943429 222 255 4
5.909896632 117.824603451 0.105618176 222 255 4
5.908044301 117.727046095 0.105974573 222 255 4
5.907982832 117.630358438 0.101393323 215 255 8
5.909792872 117.534577547 0.091651949 204 255 12
5.910454133 117.438237680 0.085079490 193 255 17
5.905755221 117.339300948 0.093289927 204 255 12
5.899230344 117.239483430 0.106537016 222 255 4
5.894507165 117.140541000 0.114816584 232 255 0
5.891775135 117.042563119 0.117606087 233 254 0
5.889567512 116.944839536 0.118950413 233 253 0
5.887315967 116.847095543 0.120416886 233 252 0
5.885795758 116.749704808 0.119867481 233 253 0
5.886051454 116.653169504 0.114421407 232 255 0
5.888871367 116.557866912 0.101904539 218 255 6
5.893724640 116.463538875 0.083780800 193 255 17
5.896722469 116.368314877 0.070774974 175 255 25
5.895837233 116.271223732 0.068479125 171 255 27
5.891436609 116.172446230 0.075879396 182 255 22
5.882828444 116.071654663 0.094884856 207 255 11
5.874827333 115.971159455 0.112217302 229 255 1
5.872555293 115.873410798 0.113750395 232 255 0
5.872599939 115.776770622 0.108895150 226 255 3
5.873602984 115.680587375 0.101397609 215 255 8
5.874592888 115.584396191 0.093937237 204 255 12
5.873464714 115.487193078 0.092319490 204 255 12
5.876253120 115.391856553 0.079900680 186 255 20
5.863785725 115.289251955 0.109558955 226 255 3
5.854028343 115.187945470 0.131744171 235 248 0
5.852766700 115.090684851 0.130498738 235 249 0
5.859787553 114.997359090 0.106410423 222 255 4
5.873945865 114.907415185 0.062637006 164 255 30
5.879548274 114.813401436 0.042462339 135 255 43
5.886550586 114.720045983 0.018427346 102 255 57
5.882200718 114.621308469 0.025704104 113 255 52
5.877583298 114.522446776 0.033719897 124 255 48
5.865411069 114.420015872 0.062574293 164 255 30
5.854838712 114.318349136 0.087017248 197 255 16
5.849170997 114.219004684 0.097933452 211 255 9
5.848797103 114.122160468 0.094249254 207 255 11
5.852440950 114.027209069 0.079484147 186 255 20
5.858804649 113.933534741 0.057217860 156 255 33
5.866297358 113.840385880 0.031838243 120 255 49
5.869349556 113.745142832 0.018707539 102 255 57
5.862875888 113.645421858 0.031852844 120 255 49
5.850909539 113.543126866 0.060149810 160 255 32
5.840986358 113.441798305 0.082812370 189 255 19
5.836043980 113.342810420 0.091737440 204 255 12
5.834301958 113.245323879 0.091835907 204 255 12
5.832832577 113.147965329 0.091183345 200 255 14
5.830155410 113.050042419 0.093863320 204 255 12
5.827208194 112.951994528 0.097289236 211 255 9
5.826785141 112.855126011 0.093753522 204 255 12
5.829879811 112.759897301 0.080515409 186 255 20
5.831090083 112.663787340 0.072476166 175 255 25
5.827614736 112.565494160 0.077362917 182 255 22
5.823967009 109.663211033 -0.053118119 4 255 100
5.519057762 92.706402157 -0.008926741 62 255 75
5.521122296 92.610472325 -0.019121649 51 255 80
5.522957747 92.514451437 -0.028683017 36 255 86
5.525549331 92.418720726 -0.040331454 22 255 92
5.526349011 92.322295003 -0.047030701 11 255 97
5.523736910 92.224551163 -0.044307436 15 255 96
5.517903135 92.125566404 -0.032686496 29 255 89
5.512565473 92.026776367 -0.022434400 44 255 83
5.510987743 91.929436346 -0.022564251 44 255 83
5.513031467 91.833488809 -0.032693796 29 255 89
5.516552686 91.738106292 -0.046902562 11 255 97
5.519391265 91.642458395 -0.059225277 0 254 108
5.520063901 91.545977409 -0.065565666 0 253 114
5.518224908 91.448533459 -0.064968998 0 253 114
5.515050517 91.350579318 -0.060683437 0 254 108
5.512352622 91.252808865 -0.057712683 0 254 105
5.510352084 91.155305865 -0.056666687 0 254 105
5.508216669 91.057752148 -0.055247150 0 255 102
5.506017052 90.960174791 -0.053649240 4 255 100
5.501448226 90.861696610 -0.045507293 15 255 96
5.493761479 90.762035647 -0.028753495 36 255 86
5.487240436 90.662822504 -0.015217799 55 255 78
5.482314098 90.564218631 -0.006085027 69 255 72
5.482222629 90.467450432 -0.010303699 62 255 75
5.489171183 90.373347434 -0.033964090 29 255 89
5.497318687 90.279691897 -0.060934878 0 254 108
5.499843918 90.183904571 -0.072377471 0 251 123
5.495724180 90.085605777 -0.065467156 0 253 114
5.489170265 89.986391251 -0.051833015 4 255 100
5.483874330 89.887654895 -0.041671983 18 255 94
5.479077561 89.789109657 -0.032888404 29 255 89
5.475610572 89.691067288 -0.027776326 36 255 86
5.479831638 89.595914646 -0.043896440 15 255 96
5.478278932 89.498591364 -0.044069262 15 255 96
5.477577359 89.401587528 -0.046591763 11 255 97
5.477775156 89.304920227 -0.051597205 4 255 100
5.479587899 89.208856137 -0.061061985 0 254 108
5.483508130 89.113577487 -0.076346541 0 251 126
5.482481060 89.016447992 -0.077966043 0 250 129
5.476066544 88.917309155 -0.064704624 0 253 114
5.468423635 88.817716729 -0.048049228 11 255 97
5.462523190 88.718777877 -0.036205265 25 255 91
5.461984088 88.621836180 -0.039168146 22 255 92
5.465675546 88.526465488 -0.053814867 0 255 102
5.468390006 88.430728657 -0.065762189 0 253 114
5.468714197 88.334102939 -0.071106556 0 252 120
5.467258466 88.236817077 -0.071533682 0 252 120
5.464251308 88.138957631 -0.067674607 0 252 117
5.461103424 88.041047675 -0.063425743 0 253 111
5.460115196 87.943936559 -0.065140960 0 253 114
5.461986964 87.847880080 -0.074754772 0 251 123
5.465181000 87.752308482 -0.088019899 0 249 138
5.466637851 87.656094352 -0.096485758 0 247 150
5.464437607 87.558533869 -0.094849183 0 247 147
5.457795188 87.459342898 -0.080941495 0 250 132
5.449476289 87.359541156 -0.062401864 0 253 111
5.443942449 87.260765635 -0.051553868 4 255 100
5.441354296 87.163071955 -0.048841319 7 255 99
5.439746574 87.065738014 -0.048835856 7 255 99
5.437071595 86.968014592 -0.045881319 11 255 97
5.433801133 86.870075088 -0.041280817 18 255 94
5.432588951 86.772887679 -0.042364734 18 255 94
5.434753605 86.676930223 -0.052775384 4 255 100
5.439951648 86.582073907 -0.071564207 0 252 120
5.445518598 86.487346903 -0.091371205 0 248 144
5.447409246 86.391280175 -0.101022203 0 246 153
5.442489732 86.292741373 -0.091860258 0 248 144
5.431639262 86.192056814 -0.066313756 0 253 114
5.422933744 86.092156007 -0.046691081 11 255 97
5.418037883 85.993638332 -0.037590881 25 255 91
5.415445739 85.895955569 -0.034853308 29 255 89
5.413915533 85.798657096 -0.035048161 29 255 89
5.411367824 85.700992306 -0.032431181 33 255 88
5.407879204 85.602989938 -0.027213901 40 255 84
5.405453864 85.505371812 -0.024932775 40 255 84
5.405985580 85.408817026 -0.030819343 33 255 88
5.409723841 85.313411729 -0.045562938 15 255 96
5.413364156 85.217967676 -0.060035047 0 254 108
5.413477141 85.121256942 -0.064761960 0 253 114
5.409373287 85.023036915 -0.057838734 0 254 105
5.403954532 84.924349372 -0.047281914 11 255 97
5.400790910 84.826470137 -0.042953852 18 255 94
5.400296362 84.729544228 -0.045998181 11 255 97
5.398543487 84.632169706 -0.045565253 15 255 96
5.394298871 84.533909156 -0.038247584 22 255 92
5.392054338 84.436361928 -0.036454232 25 255 91
5.396769670 84.341286667 -0.053887298 0 255 102
5.406518108 84.247992066 -0.085224139 0 249 135
5.414602903 84.154099844 -0.111964173 0 244 168
5.415553843 84.057676006 -0.118994952 0 243 174
5.410564963 83.959150825 -0.109614907 0 244 165
5.404681209 83.860312647 -0.097761443 0 247 150
5.400026627 83.761911762 -0.089302638 0 248 141
5.397016320 83.664093036 -0.085385365 0 249 135
5.396053815 83.566996626 -0.087124532 0 249 138
5.397492221 83.470744344 -0.095495782 0 247 147
5.398225699 83.374242586 -0.101918501 0 246 156
5.395222835 83.276428593 -0.098017530 0 247 150
5.388205004 83.177208993 -0.083022922 0 249 135
5.379535836 83.077415851 -0.063464769 0 253 111
5.383048390 82.981888519 -0.077561309 0 250 129
5.381448677 82.884571893 -0.077532563 0 250 129
5.382595140 82.788213952 -0.085090032 0 249 135
5.384861632 82.692244744 -0.095741008 0 247 147
5.387776831 82.596498886 -0.108183330 0 245 162
5.380891849 82.497341551 -0.093547847 0 247 147
5.388375342 82.403180501 -0.118609940 0 243 174
5.384260485 82.304987942 -0.111625878 0 244 165
5.379330428 82.206515143 -0.102388331 0 246 156
5.377936764 82.109269868 -0.102920512 0 246 156
5.377176704 82.012244027 -0.105202260 0 245 159
5.375073135 81.914753786 -0.103770878 0 246 156
5.372398575 81.817067300 -0.100760774 0 246 153
5.371116100 81.719861983 -0.101595917 0 246 156
5.371750935 81.623317111 -0.107727575 0 245 162
5.371829661 81.526579677 -0.112321683 0 244 168
5.369600939 81.429048557 -0.110539176 0 244 165
5.366579278 81.331246201 -0.106564645 0 245 162
5.364624799 81.233811236 -0.105537717 0 245 159
5.364617020 81.137043636 -0.109888628 0 244 165
5.365354924 81.040530338 -0.116298920 0 243 171
5.362124251 80.942659656 -0.111742550 0 244 165
5.354321606 80.843230184 -0.094552089 0 247 147
5.348324863 80.744421569 -0.082350363 0 250 132
5.345115092 80.646565846 -0.077848309 0 250 129
5.343270918 80.549176321 -0.077118533 0 251 126
5.341698217 80.451879662 -0.077137813 0 251 126
5.339591125 80.354402045 -0.075679398 0 251 126
5.338304976 80.257203571 -0.076488348 0 251 126
5.337068358 80.160022070 -0.077433105 0 251 126
5.334844532 80.062506796 -0.075648903 0 251 126
5.332901041 79.965087155 -0.074638257 0 251 123
5.333147490 79.868407315 -0.079677946 0 250 129
5.333819438 79.771869948 -0.085892401 0 249 138
5.333207109 79.674898826 -0.088557000 0 248 141
5.330419763 79.577195815 -0.085210289 0 249 135
5.325393856 79.478742055 -0.075676584 0 251 126
5.319622108 79.380041052 -0.064080695 0 253 111
5.315114712 79.281767493 -0.055977483 0 255 102
5.314698500 79.184866433 -0.059178607 0 254 108
5.321067691 79.090234262 -0.081129421 0 250 132
5.331594704 78.996985433 -0.114569140 0 243 171
5.340517861 78.903192613 -0.143576004 0 238 204
5.342741384 78.807159205 -0.154068104 0 236 216
5.338360355 78.708924531 -0.146307907 0 237 207
5.331758964 78.609954063 -0.132410675 0 240 189
5.325317671 78.511041030 -0.118954658 0 243 174
5.320128034 78.412547402 -0.108956376 0 245 162
5.316356000 78.314526739 -0.102874476 0 246 156
5.312644713 78.216528283 -0.096959318 0 247 150
5.307933930 78.118201416 -0.088280891 0 248 141
5.302767317 78.019726826 -0.078341598 0 250 129
5.298043106 77.921401334 -0.069623740 0 252 120
5.295468355 77.823786887 -0.066844919 0 253 114
5.293783343 77.726466445 -0.066523870 0 253 114
5.292321643 77.629219918 -0.066818897 0 253 114
5.291175089 77.532077204 -0.067983800 0 252 117
5.289724908 77.434835010 -0.068308532 0 252 117
5.289520629 77.338001276 -0.072075431 0 252 120
5.291222636 77.241790654 -0.081109625 0 250 132
5.294221097 77.146001658 -0.093725817 0 247 147
5.297824553 77.050407090 -0.108013086 0 245 162
5.299824070 76.954286025 -0.117866622 0 243 174
5.296735218 76.856505519 -0.113656373 0 244 168
5.288544104 76.757066876 -0.095343731 0 247 147
5.288323155 76.660223285 -0.099057338 0 246 153
5.282378825 76.561521692 -0.086951862 0 249 138
5.281927509 76.464604397 -0.090026639 0 248 141
5.285524117 76.368997244 -0.104287977 0 245 159
5.280198461 76.270501263 -0.093889021 0 247 147
5.280167316 76.173718705 -0.098121942 0 247 150
5.284194440 76.078244673 -0.113570201 0 244 168
5.279210871 75.979863203 -0.104113394 0 245 159
5.277223457 75.882449093 -0.102936364 0 246 156
5.280044018 75.786581370 -0.115046882 0 243 171
5.288039955 75.692372501 -0.141460603 0 238 201
5.287420815 75.595393795 -0.144062306 0 238 204
5.288522543 75.498966035 -0.151419293 0 236 213
5.280278867 75.399546605 -0.132945253 0 240 192
5.276262462 75.301483590 -0.126153886 0 241 183
5.268725277 75.202299083 -0.109630092 0 244 165
5.268513378 75.105454887 -0.113351937 0 244 168
5.272093692 75.009817608 -0.127554369 0 241 183
5.272145166 74.913054505 -0.132002160 0 240 189
5.266653968 74.814529905 -0.121128900 0 242 177
5.259759972 74.715563645 -0.106377086 0 245 159
5.256664928 74.617805748 -0.102124507 0 246 156
5.257965795 74.521440813 -0.110021358 0 244 165
5.260631079 74.425505451 -0.121688561 0 242 177
5.259978326 74.328519605 -0.124183474 0 242 180
5.253730498 74.229768962 -0.111211998 0 244 165
5.244956439 74.130226582 -0.091256531 0 248 144
5.237282564 74.031036250 -0.074340833 0 251 123
5.231933764 73.932581602 -0.063850722 0 253 111
5.229583998 73.835071493 -0.061649225 0 254 108
5.230977021 73.738735629 -0.069792332 0 252 120
5.232101191 73.642313758 -0.077191289 0 251 126
5.230120772 73.544919455 -0.076007552 0 251 126
5.228627767 73.447678119 -0.076170041 0 251 126
5.230490009 73.351483775 -0.085606116 0 249 138
5.234009729 73.255803634 -0.099622879 0 246 153
5.235299304 73.159426076 -0.107474024 0 245 162
5.233005556 73.061933095 -0.105418908 0 245 159
5.228671990 72.963807915 -0.097724063 0 247 150
5.228607194 72.867008711 -0.101828207 0 246 156
5.242264004 72.774457639 -0.143862094 0 238 204
5.252973841 72.680983979 -0.177748940 0 231 243
4.920247356 52.649262282 -0.116823606 0 243 171
4.859333905 52.538417877 0.047677034 142 255 40
4.876717304 52.445615799 -0.004485610 69 255 72
4.876718709 52.348811076 -0.008547319 66 255 73
4.872277474 52.250987852 -0.000314007 76 255 68
4.870625284 52.153805134 0.000202421 76 255 68
4.873133448 52.057572826 -0.010792973 62 255 75
4.875693461 51.961349667 -0.021930861 47 255 81
4.875707353 51.864544410 -0.026021827 40 255 84
4.873211042 51.767168131 -0.023165161 44 255 83
4.869337667 51.669480697 -0.016496551 55 255 78
4.864982093 51.571686295 -0.008492356 66 255 73
4.860621493 51.473893332 -0.000473072 76 255 68
4.857154200 51.376304521 0.005075259 84 255 65
4.855792205 51.279191858 0.004798531 84 255 65
4.856294751 51.182498789 -0.000637066 76 255 68
4.857223700 51.085900311 -0.007251661 66 255 73
4.857327173 50.989115365 -0.011580763 58 255 76
4.856415240 50.892102403 -0.013098713 58 255 76
4.855252913 50.795033459 -0.013922619 58 255 76
4.854805091 50.698123966 -0.016722820 55 255 78
4.856261981 50.601638036 -0.024793246 40 255 84
4.858393288 50.505300102 -0.034729114 29 255 89
4.858740644 50.408564058 -0.039726842 22 255 92
4.857152526 50.311398395 -0.039367015 22 255 92
4.854710575 50.214044442 -0.036643048 25 255 91
4.850291881 50.116255372 -0.028447179 36 255 86
4.844301049 50.018122587 -0.015899098 55 255 78
4.840300349 49.920431291 -0.008857681 66 255 73
4.838384734 49.823200048 -0.007585805 66 255 73
4.835292524 49.725711664 -0.003056438 73 255 70
4.830511597 49.627855448 0.006147835 84 255 65
4.826474439 49.530164564 0.013294807 95 255 60
4.823673315 49.432745477 0.017022017 98 255 59
4.820475092 49.335241360 0.021849407 106 255 56
4.815896886 49.237439144 0.030497323 116 255 51
4.813892565 49.140197848 0.032022655 120 255 49
4.816454156 49.043945751 0.020911916 106 255 56
4.821311668 48.948187085 0.003447652 80 255 67
4.824131275 48.851984351 -0.008375266 66 255 73
4.823143303 48.754958816 -0.009658713 62 255 75
4.822033083 48.657907007 -0.010602717 62 255 75
4.822796955 48.561257415 -0.016732730 55 255 78
4.823584035 48.464611457 -0.022925939 44 255 83
4.821230404 48.367292651 -0.020425181 47 255 81
4.816790679 48.269529675 -0.012149332 58 255 76
4.813304939 48.171972576 -0.006512782 66 255 73
4.810993252 48.074667060 -0.004124695 69 255 72
4.806495637 47.976898541 0.004314897 84 255 65
4.800040245 47.878717868 0.018174592 102 255 57
4.795132672 47.780868757 0.027751309 113 255 52
4.792899367 47.683587260 0.029927066 116 255 51
4.793291821 47.586860087 0.024836020 109 255 54
4.796068095 47.490633334 0.013147739 95 255 60
4.800215362 47.394691591 -0.002334416 73 255 70
4.801949138 47.298240059 -0.011135140 62 255 75
4.799143526 47.200836728 -0.007369874 66 255 73
4.795359049 47.103230368 -0.000893970 76 255 68
4.793486621 47.006024722 0.000290520 76 255 68
4.790816566 46.908653792 0.003683978 80 255 67
4.784731015 46.810574788 0.016532817 98 255 59
4.788258042 46.714492442 0.002774711 80 255 67
4.784272169 46.616852040 0.009813820 91 255 62
4.779162635 46.518981848 0.019964492 102 255 57
4.774051640 46.421114509 0.030120411 116 255 51
4.772095244 46.323899473 0.031545248 120 255 49
4.772023359 46.227072254 0.027754632 113 255 52
4.771552626 46.130162569 0.025069151 109 255 54
4.770128753 46.033057448 0.025023182 109 255 54
4.766956213 45.935595499 0.029818925 116 255 51
4.764401188 45.838261114 0.032906423 120 255 49
4.764956321 45.741560804 0.027385525 113 255 52
4.768174493 45.645400190 0.014493823 95 255 60
4.771929807 45.549345256 0.000116161 76 255 68
4.775014159 45.453150938 -0.012403156 58 255 76
4.777537770 45.356840265 -0.023369220 44 255 83
4.778237316 45.260159226 -0.029284797 36 255 86
4.776537331 45.162994132 -0.028556753 36 255 86
4.774392807 45.065740318 -0.026596987 40 255 84
4.772984035 44.968634857 -0.026672883 40 255 84
4.770465571 44.871307731 -0.023675692 44 255 83
4.766436278 44.773680121 -0.016494887 55 255 78
4.762921889 44.676157449 -0.010738340 62 255 75
4.759462153 44.578647583 -0.005131928 69 255 72
4.754215588 44.480784894 0.005422258 84 255 65
4.748441559 44.382820954 0.017437880 98 255 59
4.746707549 44.285659602 0.018270319 102 255 57
4.749289591 44.189350688 0.007155230 87 255 64
4.751224152 44.092911501 -0.002166357 73 255 70
4.749137096 43.995679408 -0.000353300 76 255 68
4.741892048 43.897436036 0.015740572 98 255 59
4.734031729 43.799076955 0.033539075 124 255 48
4.731722100 43.701808068 0.035971838 127 255 46
4.733248479 43.605288514 0.027785737 113 255 52
4.737546607 43.509306688 0.011927028 91 255 62
4.744183020 43.413775185 -0.010404346 62 255 75
4.750292837 43.318135735 -0.031276937 33 255 88
4.751053974 43.221455631 -0.037340503 25 255 91
4.746115665 43.123673252 -0.027623701 36 255 86
4.741825521 43.026018852 -0.019700202 47 255 81
4.741539753 42.929137430 -0.022862026 44 255 83
4.742697373 42.832532635 -0.030018959 33 255 88
4.741463734 42.735467948 -0.030554355 33 255 88
4.735796522 42.637555507 -0.018813683 51 255 80
4.726535527 42.538960690 0.002878156 80 255 67
4.718128451 42.440534866 0.022207098 106 255 56
4.713413443 42.342816611 0.031315175 120 255 49
4.712430127 42.245809210 0.030092533 116 255 51
4.715503501 42.149569919 0.017639186 102 255 57
4.720155880 42.053625899 0.000814991 76 255 68
4.721257029 41.957007881 -0.006175842 69 255 72
4.717835834 41.859537176 -0.000644397 76 255 68
4.711988322 41.761612636 0.011606114 91 255 62
4.704605359 41.663404020 0.028109177 116 255 51
4.697938223 41.565334194 0.042631533 135 255 43
4.696900795 41.468319601 0.041567567 135 255 43
4.701185200 41.372296433 0.025769502 113 255 52
4.705272386 41.276232574 0.010518449 91 255 62
4.706570629 41.179647429 0.002990509 80 255 67
4.706522475 41.082811270 -0.000808411 76 255 68
4.709143720 40.986467585 -0.011997497 58 255 76
4.715080374 40.890732423 -0.032365591 33 255 88
4.718886589 40.794599985 -0.046833799 11 255 97
4.717194029 40.697454254 -0.046075395 11 255 97
4.710686042 40.599426744 -0.031982293 33 255 88
4.703948541 40.501361493 -0.017252432 51 255 80
4.700932626 40.403979694 -0.012826231 58 255 76
4.700209356 40.307016896 -0.014747153 55 255 78
4.699506322 40.210057577 -0.016723019 55 255 78
4.697371607 40.112838456 -0.014733473 55 255 78
4.693740127 40.015349399 -0.008598238 66 255 73
4.689386731 39.917732024 -0.000462829 76 255 68
4.693665564 39.821672490 -0.016229232 55 255 78
4.691528348 39.724455409 -0.014228287 55 255 78
4.688416873 39.627064423 -0.009528428 62 255 75
4.684066354 39.529453247 -0.001396398 73 255 70
4.680102861 39.431913784 0.005665107 84 255 65
4.677880441 39.334686960 0.007906567 87 255 64
4.678403319 39.237949406 0.002547087 80 255 67
4.679395806 39.141294051 -0.004111752 69 255 72
4.677129634 39.044060042 -0.001745829 73 255 70
4.671665883 38.946261909 0.009475854 87 255 64
4.666851189 38.848581660 0.018901400 102 255 57
4.664226900 38.751289774 0.022262492 106 255 56
4.661498289 38.653980826 0.025913616 113 255 52
4.659385590 38.556781119 0.027860290 113 255 52
4.660380874 38.460125604 0.021201354 106 255 56
4.663211023 38.363788640 0.009462262 87 255 64
4.664549135 38.267189067 0.001856004 80 255 67
4.663587323 38.170188290 0.000619903 76 255 68
4.660488488 38.072817177 0.005302934 84 255 65
4.655614405 37.975140732 0.014903322 98 255 59
4.649964626 37.877333436 0.026653065 113 255 52
4.645722624 37.779772043 0.034505431 124 255 48
4.645367464 37.682880740 0.031594974 120 255 49
4.647329548 37.586386076 0.022268317 106 255 56
4.645179451 37.489186003 0.024330839 109 255 54
4.637591207 37.391059012 0.041454824 135 255 43
4.629782613 37.292899562 0.059190324 156 255 33
4.626094484 37.195445178 0.065515836 167 255 28
4.627604199 37.098873709 0.057447463 156 255 33
4.631664004 37.002731508 0.042317793 135 255 43
4.632340817 36.906014741 0.036558125 127 255 46
4.626987534 36.808281735 0.047499680 142 255 40
4.619974258 36.710273301 0.063039775 164 255 30
4.615501354 36.612695123 0.071545583 175 255 25
4.612645199 36.515389885 0.075574979 182 255 22
4.609403283 36.418021738 0.080673899 186 255 20
4.606139306 36.320651647 0.085835078 193 255 17
4.611105763 36.224649739 0.068202799 171 255 27
4.621808483 36.129593436 0.034684494 124 255 48
4.627726812 36.033737537 0.014417716 95 255 60
4.626884248 35.936761653 0.012876775 95 255 60
4.621887489 35.839102324 0.022842420 109 255 54
4.614803705 35.741103560 0.038589542 127 255 46
4.606141384 35.642851009 0.058709903 156 255 33
4.596131456 35.544384205 0.082563972 189 255 19
4.586551721 35.445994410 0.105227902 222 255 4
4.589951150 35.349721355 0.091945076 204 255 12
4.591685700 35.253174906 0.083274429 189 255 19
4.587345836 35.155643439 0.091429136 204 255 12
4.588572846 35.059013220 0.084166361 193 255 17
4.590855455 34.962551315 0.073980899 178 255 24
4.586399966 34.865004308 0.082459265 189 255 19
4.588377800 34.768491131 0.073120066 178 255 24
4.586000952 34.671279356 0.075843367 182 255 22
4.592118251 34.575423648 0.055040828 153 255 35
4.596601805 34.479302514 0.038764340 131 255 44
4.597466134 34.382602621 0.032513384 120 255 49
4.594388893 34.285277070 0.037180946 127 255 46
4.588300400 34.187477364 0.050190361 146 255 38
4.590593118 34.091002523 0.039986268 131 255 44
4.586424791 33.993509322 0.047679434 142 255 40
4.582937845 33.896125427 0.053486445 149 255 36
4.576503750 33.798282328 0.067457922 167 255 28
4.569544521 33.700361434 0.082885226 189 255 19
4.564929558 33.602810106 0.091820351 204 255 12
4.561699972 33.505476725 0.096919268 211 255 9
4.559117532 33.408245324 0.100226785 215 255 8
4.556067260 33.310942841 0.104831322 222 255 4
4.550442642 33.213245058 0.116567903 233 254 0
4.544447745 33.115493880 0.129331384 235 249 0
4.542789506 33.018411789 0.130083525 235 249 0
4.547494380 32.922303897 0.113210829 232 255 0
4.557007163 32.826925520 0.083021000 189 255 19
4.559893583 32.730530215 0.071187332 175 255 25
4.546969045 32.631730695 0.103151998 218 255 6
4.253840744 12.646847054 0.148520200 238 243 0
4.321509719 12.554886345 -0.042728709 18 255 94
4.312658490 12.457343389 -0.021794497 47 255 81
4.296055943 12.359249277 0.020634875 106 255 56
4.291465922 12.262025986 0.029755763 116 255 51
4.287286229 12.164834626 0.037740041 127 255 46
4.285591153 12.067821442 0.038835751 131 255 44
4.283904184 11.970809361 0.039910111 131 255 44
4.282760233 11.873835799 0.039479812 131 255 44
4.283642065 11.777003306 0.033433113 124 255 48
4.285955806 11.680268458 0.023416760 109 255 54
4.286139083 11.583384460 0.019309278 102 255 57
4.282557136 11.486241887 0.025644027 113 255 52
4.277554651 11.389004622 0.035919199 124 255 48
4.273393041 11.291827323 0.043863779 135 255 43
4.269776990 11.194689153 0.050296671 146 255 38
4.264450951 11.097438585 0.061472721 160 255 32
4.257609971 11.000090560 0.076851108 182 255 22
4.254319303 10.902981809 0.082385282 189 255 19
4.258249805 10.806349620 0.067895280 171 255 27
4.266183380 10.709975331 0.042305096 135 255 43
4.271384885 10.613416650 0.024292280 109 255 54
4.268757207 10.516347426 0.027992184 113 255 52
4.263684977 10.419122459 0.038472476 127 255 46
4.261442078 10.322081226 0.041107652 131 255 44
4.262778237 10.225268049 0.033818430 124 255 48
4.266854660 10.128625912 0.018930845 102 255 57
4.271519914 10.032016796 0.002411256 80 255 67
4.275086999 9.935334917 -0.011061862 62 255 75
4.277495557 9.838577799 -0.021321071 47 255 81
4.278696106 9.741743728 -0.028229097 36 255 86
4.276258883 9.644685499 -0.025047409 40 255 84
4.269741955 9.547380436 -0.010550235 62 255 75
4.261142280 9.449953823 0.009724356 91 255 62
4.254490080 9.352649890 0.024599237 109 255 54
4.253014314 9.255658921 0.025119254 109 255 54
4.255070052 9.158877520 0.015846204 98 255 59
4.256391548 9.062050561 0.008610520 87 255 64
4.255030575 8.965064966 0.008815453 87 255 64
4.251882927 8.867975856 0.013976702 95 255 60
4.249006778 8.770904056 0.018386138 102 255 57
4.248663730 8.673978900 0.015771320 98 255 59
4.251839963 8.577253630 0.003397018 80 255 67
4.256531007 8.480610833 -0.013177577 58 255 76
4.258606211 8.383816726 -0.022496217 44 255 83
4.256541817 8.286789304 -0.020332661 47 255 81
4.252771973 8.189668197 -0.013437876 58 255 76
4.249676273 8.092586305 -0.008411660 66 255 73
4.247475756 7.995554931 -0.005867104 69 255 72
4.245322463 7.898527035 -0.003452382 73 255 70
4.242808263 7.801480576 -0.000035515 76 255 68
4.240049018 7.704422165 0.004062152 80 255 67
4.236345719 7.607314960 0.010779405 91 255 62
4.230336269 7.510088227 0.023894201 109 255 54
4.221750883 7.412730494 0.044154916 138 255 41
4.212955792 7.315367674 0.064998592 167 255 28
4.212389897 7.218435265 0.063018695 164 255 30
4.219218515 7.121881076 0.040530011 131 255 44
4.221453636 7.025087483 0.030783098 120 255 49
4.216617427 6.927934815 0.040650884 131 255 44
4.207233468 6.830557490 0.063133994 164 255 30
4.202962479 6.733440506 0.071436513 175 255 25
4.200915219 6.636435605 0.073572207 178 255 24
4.206678639 6.539813408 0.054044215 149 255 36
4.206537716 6.442899591 0.050894365 146 255 38
4.213060758 6.346305841 0.029261288 116 255 51
4.217246550 6.249594728 0.014112148 95 255 60
4.217894330 6.152712066 0.008777710 87 255 64
4.215544856 6.055687328 0.011758159 91 255 62
4.212097970 5.958612484 0.017783784 102 255 57
4.208394821 5.861527668 0.024521420 109 255 54
4.204455542 5.764434097 0.031915231 120 255 49
4.201764472 5.667399500 0.035847871 124 255 48
4.201318173 5.570467352 0.033554938 124 255 48
4.201526537 5.473564024 0.029447139 116 255 51
4.199915377 5.376579165 0.030387609 116 255 51
4.204236025 5.279855258 0.014874841 98 255 59
4.198151272 5.182674315 0.028226941 116 255 51
4.191766619 5.085484324 0.042412197 135 255 43
4.186474658 4.988345182 0.053567628 149 255 36
4.185059533 4.891373628 0.053970036 149 255 36
4.187814138 4.794577505 0.042806783 135 255 43
4.189396729 4.697729726 0.034895709 124 255 48
4.186244354 4.600684734 0.040120551 131 255 44
4.179930132 4.503512230 0.054117619 149 255 36
4.173155301 4.406325156 0.069393693 171 255 27
4.170248599 4.309297542 0.073940624 178 255 24
4.171147442 4.212422457 0.067931870 171 255 27
4.169745607 4.115455459 0.068306450 171 255 27
4.165735295 4.018387211 0.075918324 182 255 22
4.162723234 3.921359745 0.080762129 186 255 20
4.164628756 3.824521495 0.071965114 175 255 25
4.170683548 3.727837779 0.051658480 146 255 38
4.176860771 3.631153228 0.031013125 120 255 49
4.180421146 3.534366305 0.017628255 102 255 57
4.179705533 3.437419241 0.016106731 98 255 59
4.174946475 3.340325382 0.025803607 113 255 52
4.169405249 3.243206345 0.037671593 127 255 46
4.165777530 3.146158677 0.044232326 138 255 41
4.163763113 3.049169643 0.046318563 138 255 41
4.162951843 2.952223147 0.045068114 138 255 41
4.164340607 2.855352031 0.037715302 127 255 46
4.167092892 2.758525368 0.026580758 113 255 52
4.168965429 2.661666292 0.017887897 102 255 57
4.168606679 2.564730966 0.015386330 98 255 59
4.165675214 2.467710758 0.020023382 102 255 57
4.162111875 2.370671541 0.026414627 113 255 52
4.160483592 2.273696266 0.027438543 113 255 52
4.161523755 2.176805919 0.021060368 106 255 56
4.164817599 2.079984465 0.008430709 87 255 64
4.166726907 1.983116953 -0.000356726 76 255 68
4.164955694 1.886134949 0.001068100 76 255 68
4.161790512 1.789111547 0.006361501 84 255 65
4.158008607 1.692071460 0.013367123 95 255 60
4.155963712 1.595084478 0.015554708 98 255 59
4.159163894 1.498250218 0.003191224 80 255 67
4.167115188 1.401548531 -0.022353056 44 255 83
4.172245494 1.304760422 -0.040069694 22 255 92
4.168989441 1.207734328 -0.034517507 29 255 89
4.160966423 1.110579184 -0.015738176 55 255 78
4.151280163 1.013384426 0.007657155 87 255 64
4.140787285 0.916174810 0.033291818 120 255 49
4.130247828 0.818971238 0.059057090 156 255 33
4.121444211 0.721819929 0.080007539 186 255 20
4.117450285 0.624797319 0.087614474 197 255 16
4.120976143 0.527965989 0.074358310 178 255 24
4.127378313 0.431202366 0.053122520 149 255 36
4.130697604 0.334357942 0.040441438 131 255 44
4.130608420 0.237428452 0.037218600 127 255 46
4.130485193 0.140497452 0.034091306 124 255 48
4.132502842 0.043615472 0.025024909 109 255 54
4.136273914 -0.053228796 0.011094376 91 255 62
4.139761084 -0.150083105 -0.002047440 73 255 70
4.140325804 -0.247005350 -0.007079353 66 255 73
4.138382475 -0.343983185 -0.005151095 69 255 72
4.134337065 -0.441005079 0.002610995 80 255 67
4.128666777 -0.538058632 0.014882884 98 255 59
4.122337455 -0.635122146 0.028984668 116 255 51
4.115975151 -0.732182248 0.043179225 135 255 43
4.110667750 -0.829217398 0.054447919 153 255 35
4.106220646 -0.926232580 0.063330699 164 255 30
4.101424306 -1.023251765 0.073183745 178 255 24
4.109123879 -1.120035433 0.048364133 142 255 40
4.106157651 -1.217020240 0.053141187 149 255 36
4.115666862 -1.313780883 0.023302008 109 255 54
4.122646195 -1.410593779 0.000483708 76 255 68
4.122551817 -1.507533634 -0.002705059 73 255 70
4.118750707 -1.604536091 0.004393017 84 255 65
4.115498817 -1.701527450 0.009968252 91 255 62
4.114527887 -1.798480754 0.009215196 87 255 64
4.116291517 -1.895391574 0.000875051 76 255 68
4.120064318 -1.992274057 -0.013039386 58 255 76
4.123559672 -2.089164311 -0.026182936 40 255 84
4.125114148 -2.186085968 -0.033939626 29 255 89
4.123731314 -2.283050759 -0.033544298 29 255 89
4.117774686 -2.380077612 -0.020455595 47 255 81
4.107796387 -2.477153951 0.003794516 80 255 67
4.099419143 -2.574202821 0.023603023 109 255 54
4.103741460 -2.671087548 0.008171128 87 255 64
4.100891040 -2.768063138 0.012644887 95 255 60
4.098449473 -2.865032530 0.015985215 98 255 59
4.099224502 -2.961964385 0.010400401 91 255 62
4.104915202 -3.058843803 -0.008824771 66 255 73
4.103551737 -3.155802877 -0.008472987 66 255 73
4.107963519 -3.252702896 -0.024147056 44 255 83
4.108984503 -3.349640293 -0.030410257 33 255 88
4.106134178 -3.446615692 -0.025928967 40 255 84
4.101279224 -3.543607783 -0.015883358 55 255 78
4.106262475 -3.640511873 -0.033139219 29 255 89
4.107934698 -3.737447920 -0.041205423 18 255 94
4.111165963 -3.834373746 -0.053597233 4 255 100
4.111534300 -3.931324288 -0.058042819 0 254 105
4.107696477 -4.028305804 -0.050814295 7 255 99
4.100200975 -4.125309766 -0.033433653 29 255 89
4.092354447 -4.222310986 -0.015077542 55 255 78
4.089665913 -4.319276220 -0.011034926 62 255 75
4.091626627 -4.416214239 -0.019894110 47 255 81
4.094479058 -4.513149910 -0.031227037 33 255 88
4.095502096 -4.610097350 -0.037481832 25 255 91
4.097311467 -4.707042873 -0.045917894 11 255 97
4.099837182 -4.803987668 -0.056341013 0 255 102
4.100658659 -4.900941418 -0.062033268 0 253 111
4.099650241 -4.997902574 -0.062645843 0 253 111
4.097948250 -5.094865744 -0.061332380 0 254 108
4.094437996 -5.191832926 -0.054999160 0 255 102
4.087705762 -5.288805046 -0.039722477 22 255 92
4.080218798 -5.385774097 -0.022349838 44 255 83
4.076272192 -5.482733375 -0.014801917 55 255 78
4.075998014 -5.579686825 -0.017445410 51 255 80
4.076556130 -5.676640353 -0.022397803 44 255 83
4.078129182 -5.773594878 -0.030166048 33 255 88
4.080715750 -5.870551569 -0.040746247 18 255 94
4.081901970 -5.967510243 -0.047438771 11 255 97
4.080563672 -6.064468228 -0.047123422 11 255 97
4.078044431 -6.161424403 -0.043529221 15 255 96
4.075226910 -6.258378916 -0.039105979 22 255 92
4.071517425 -6.355330182 -0.032205887 33 255 88
4.067680704 -6.452279068 -0.024951457 40 255 84
4.066258244 -6.549232699 -0.024396803 44 255 83
4.068219632 -6.646196996 -0.033233200 29 255 89
4.071332858 -6.743167758 -0.045265609 15 255 96
4.073432966 -6.840137627 -0.054484988 0 255 102
4.072624205 -6.937097105 -0.055629398 0 255 102
4.069173917 -7.034044124 -0.049440763 7 255 99
4.064822450 -7.130984625 -0.040749587 18 255 94
4.060961960 -7.227925293 -0.033419999 29 255 89
4.060498387 -7.324883922 -0.035517990 25 255 91
3.861122338 -27.395781532 -0.158863320 0 235 219
3.847200105 -27.491636110 -0.123337415 0 242 180
3.825013099 -27.586768592 -0.064846400 0 253 114
3.816203797 -27.683042745 -0.043523816 15 255 96
3.821006235 -27.780494340 -0.060020474 0 254 108
3.818576630 -27.877318883 -0.056421674 0 254 105
3.817251389 -27.974239219 -0.055890264 0 255 102
3.816441751 -28.071204754 -0.056790371 0 254 105
3.807839275 -28.167480969 -0.036036368 25 255 91
3.803646754 -28.264143247 -0.027534519 36 255 86
3.807102589 -28.361485689 -0.040283243 22 255 92
3.815279877 -28.459254773 -0.066150097 0 253 114
3.815136824 -28.556281981 -0.068896926 0 252 117
3.818350616 -28.653613333 -0.080970153 0 250 132
3.816615722 -28.750498692 -0.079291677 0 250 129
3.812632865 -28.847178571 -0.071365720 0 252 120
3.813083004 -28.944262038 -0.075756483 0 251 126
3.806452057 -29.040695635 -0.060469970 0 254 108
3.802960436 -29.137414759 -0.053905485 0 255 102
3.804833372 -29.234629320 -0.062246464 0 253 111
3.810271653 -29.332178016 -0.080493575 0 250 132
3.814986703 -29.429664087 -0.096730074 0 247 150
3.814003112 -29.526619712 -0.097130433 0 247 150
3.809607435 -29.623253813 -0.088048250 0 248 141
3.807704167 -29.720121183 -0.085890759 0 249 138
3.806922503 -29.817094453 -0.086848859 0 249 138
3.803069789 -29.913774953 -0.079271964 0 250 129
3.799440240 -30.010474664 -0.072314026 0 251 123
3.798236810 -30.107405689 -0.072096726 0 252 120
3.799772260 -30.204601024 -0.079489279 0 250 129
3.802814770 -30.301944422 -0.091068721 0 248 144
3.804924412 -30.399200172 -0.100054835 0 246 153
3.804744268 -30.496234624 -0.102676839 0 246 156
3.799791140 -30.592801568 -0.092034051 0 248 144
3.789270325 -30.688817245 -0.065917856 0 253 114
3.779802446 -30.784929721 -0.042726349 18 255 94
3.776025667 -30.881600501 -0.035348813 25 255 91
3.775736171 -30.978616593 -0.037661145 25 255 91
3.775842168 -31.075672813 -0.041071456 18 255 94
3.775696501 -31.172704648 -0.043781317 15 255 96
3.776490409 -31.269831857 -0.049101186 7 255 99
3.779225263 -31.367156824 -0.059813925 0 254 108
3.781726676 -31.464460988 -0.069876921 0 252 120
3.780985652 -31.561437368 -0.070928017 0 252 120
3.776217765 -31.658001966 -0.060787120 0 254 108
3.768447812 -31.754255386 -0.042302056 18 255 94
3.761770915 -31.850616307 -0.026853402 40 255 84
3.759234934 -31.947401347 -0.022911518 44 255 83
3.761032970 -32.044635337 -0.031013214 33 255 88
3.764870502 -32.142084100 -0.044781901 15 255 96
3.765491356 -32.239200077 -0.049610013 7 255 99
3.762041824 -32.335889913 -0.043124833 18 255 94
3.758707574 -32.432590044 -0.036958870 25 255 91
3.759144767 -32.529687337 -0.041273265 18 255 94
3.764015853 -32.627256466 -0.057909246 0 254 105
3.766478707 -32.724573555 -0.067851302 0 252 117
3.764916738 -32.821462968 -0.066606474 0 253 114
3.762542817 -32.918264844 -0.063103920 0 253 111
3.761214579 -33.015178313 -0.062506441 0 253 111
3.759597360 -33.112060324 -0.061104694 0 254 108
3.756484893 -33.208779707 -0.055546122 0 255 102
3.754992124 -33.305673801 -0.054487998 0 255 102
3.756939705 -33.402943355 -0.062990526 0 253 111
3.759100446 -33.500238573 -0.072084470 0 252 120
3.756806775 -33.597046244 -0.068797120 0 252 117
3.749619851 -33.693312789 -0.051908612 4 255 100
3.741959275 -33.789522137 -0.033702386 29 255 89
3.737867768 -33.886123125 -0.025414639 40 255 84
3.738370283 -33.983234195 -0.029894245 36 255 86
3.741890753 -34.080684243 -0.042760878 18 255 94
3.745430930 -34.178140011 -0.055681302 0 255 102
3.747575035 -34.275441968 -0.064720473 0 253 114
3.748245730 -34.372579760 -0.069663374 0 252 120
3.745610385 -34.469343744 -0.065416251 0 253 114
3.740601769 -34.565836305 -0.054571567 0 255 102
3.736564187 -34.662436739 -0.046424636 11 255 97
3.734686549 -34.759282437 -0.044280062 15 255 96
3.734997541 -34.856379192 -0.048217661 11 255 97
3.736767480 -34.953645330 -0.056209360 0 255 102
3.738245680 -35.050879853 -0.063389133 0 253 111
3.735764853 -35.147656444 -0.059563588 0 254 108
3.729536954 -35.243995234 -0.045321705 15 255 96
3.723766053 -35.340383470 -0.032348838 33 255 88
3.719568476 -35.436952635 -0.023747926 44 255 83
3.717893471 -35.533816267 -0.022157554 44 255 83
3.719617191 -35.631080731 -0.030013190 33 255 88
3.722857850 -35.728527025 -0.042084313 18 255 94
3.727509923 -35.826144357 -0.058077662 0 254 105
3.731533592 -35.923691141 -0.072323319 0 251 123
3.733121752 -36.020950487 -0.079798116 0 250 129
3.734142888 -36.118143810 -0.085695736 0 249 138
3.736637607 -36.215516119 -0.095688412 0 247 147
3.737664687 -36.312713898 -0.101600479 0 246 156
3.734600044 -36.409417525 -0.096137670 0 247 150
3.729003503 -36.505811864 -0.083635718 0 249 135
3.722491935 -36.602091132 -0.068589000 0 252 117
3.722062910 -36.699110153 -0.070449017 0 252 120
3.715885074 -36.795424290 -0.056327579 0 255 102
3.712234946 -36.892045586 -0.049231384 7 255 99
3.711162065 -36.988983073 -0.049298233 7 255 99
3.714477618 -37.086464040 -0.061562988 0 254 108
3.721483423 -37.184406811 -0.084085003 0 249 135
3.721850372 -37.281528448 -0.088151202 0 248 141
3.721827450 -37.378602432 -0.091132553 0 248 144
3.720004856 -37.475451541 -0.089109987 0 248 141
3.720308074 -37.572567417 -0.092995792 0 248 144
3.721638447 -37.669813910 -0.099735909 0 246 153
3.724413947 -37.767245096 -0.110492299 0 244 165
3.720583515 -37.863840749 -0.102883753 0 246 156
3.717215011 -37.960493065 -0.096558157 0 247 150
3.714422743 -38.057217172 -0.091833302 0 248 144
3.713281189 -38.154151356 -0.091696209 0 248 144
3.713252556 -38.251228434 -0.094651898 0 247 147
3.710679858 -38.347978487 -0.090534058 0 248 141
3.705031800 -38.444329919 -0.077865584 0 250 129
3.698671431 -38.540585476 -0.063215655 0 253 111
3.695180363 -38.637209962 -0.056541207 0 254 105
3.696257070 -38.734428147 -0.062564170 0 253 111
3.700884677 -38.832112325 -0.078457762 0 250 129
3.706370998 -38.929913492 -0.096737685 0 247 150
3.708847445 -39.027323753 -0.106649003 0 245 162
3.707317328 -39.124208144 -0.105420706 0 245 159
3.703928669 -39.220846250 -0.099024358 0 246 153
3.700630688 -39.317494583 -0.092878942 0 248 144
3.697952872 -39.414223711 -0.088456504 0 248 141
3.696484778 -39.511113037 -0.087396120 0 249 138
3.695759238 -39.608101425 -0.088399042 0 248 141
3.694338195 -39.704996695 -0.087467254 0 249 138
3.695134399 -39.802190159 -0.092698706 0 248 144
3.697561583 -39.899605227 -0.102463551 0 246 156
3.698517746 -39.996823802 -0.108137641 0 245 162
3.696226350 -40.093602977 -0.104781749 0 245 159
3.691851475 -40.190097504 -0.095632156 0 247 147
3.689090238 -40.286809799 -0.090967692 0 248 144
3.688080898 -40.383760655 -0.091172816 0 248 144
3.687344710 -40.480749043 -0.092136277 0 248 144
3.686066716 -40.577663059 -0.091592269 0 248 144
3.684850920 -40.674585481 -0.091220084 0 248 144
3.684735510 -40.771660137 -0.093906216 0 247 147
3.685843282 -40.868905348 -0.099992120 0 246 153
3.687115762 -40.966175145 -0.106534925 0 245 162
3.686921080 -41.063241874 -0.108997461 0 245 162
3.685325637 -41.160113138 -0.107564284 0 245 162
3.682714619 -41.256841395 -0.103306309 0 246 156
3.679383362 -41.353467052 -0.097044641 0 247 150
3.675548833 -41.450019903 -0.089382512 0 248 141
3.670834181 -41.546446025 -0.079272095 0 250 129
3.665704642 -41.642810435 -0.068006914 0 252 117
3.663741011 -41.739622258 -0.065543168 0 253 114
3.665544965 -41.836971008 -0.073553929 0 251 123
3.667545197 -41.934350032 -0.082109412 0 250 132
3.669583993 -42.031736929 -0.090771102 0 248 144
3.671725844 -42.129141022 -0.099718321 0 246 153
3.672215872 -42.226309305 -0.104071608 0 245 159
3.668982043 -42.322940203 -0.098069543 0 247 150
3.663276318 -42.419210964 -0.085193108 0 249 135
3.657037875 -42.515400680 -0.070834197 0 252 120
3.653212264 -42.611938138 -0.063183096 0 253 111
3.654355897 -42.709199778 -0.069348215 0 252 117
3.658771389 -42.806942588 -0.084610008 0 249 135
3.663492893 -42.904734561 -0.100721747 0 246 153
3.665168129 -43.002082197 -0.108362020 0 245 162
3.663894683 -43.098996392 -0.107802060 0 245 162
3.663652781 -43.196063167 -0.110109354 0 244 165
3.664591700 -43.293305879 -0.115699037 0 243 171
3.665066988 -43.390481099 -0.119998467 0 242 177
3.663152074 -43.487300764 -0.117650429 0 243 174
3.658403859 -43.583695815 -0.107422706 0 245 162
3.651980961 -43.679836787 -0.092536971 0 248 144
3.644986878 -43.775887712 -0.076061682 0 251 126
3.639105993 -43.872101905 -0.062680654 0 253 111
3.635688435 -43.968684748 -0.056148306 0 255 102
3.632953970 -44.065369286 -0.051514325 4 255 100
3.631180300 -44.162198500 -0.049550959 7 255 99
3.633721784 -44.259684445 -0.059586037 0 254 108
3.640820875 -44.357869127 -0.082293941 0 250 132
3.647171606 -44.455945508 -0.102919912 0 246 156
3.648935059 -44.553323537 -0.110788517 0 244 165
3.646340960 -44.650033262 -0.106538410 0 245 162
3.641362946 -44.746374079 -0.095657826 0 247 147
3.635526309 -44.842579095 -0.082388316 0 250 132
3.631590207 -44.939075033 -0.074402757 0 251 123
3.632127119 -45.036263857 -0.078855037 0 250 129
3.635226334 -45.133853068 -0.090431805 0 248 141
3.636574266 -45.231171966 -0.097137397 0 247 150
3.635619605 -45.328132216 -0.097438577 0 247 150
3.632716892 -45.424786802 -0.092321219 0 248 144
3.626737232 -45.520955869 -0.078645823 0 250 129
3.620073700 -45.617013279 -0.063067365 0 253 111
3.619064359 -45.713960268 -0.063211938 0 253 111
3.622244490 -45.811571233 -0.075006365 0 251 126
3.625663089 -45.909223333 -0.087462994 0 249 138
3.629179949 -46.006894515 -0.100191913 0 246 153
3.632428940 -46.104526444 -0.112174901 0 244 168
3.632040789 -46.201579655 -0.114041789 0 244 168
3.625270218 -46.297609587 -0.098157619 0 247 150
3.624725063 -46.394636101 -0.099585626 0 246 153
3.620512393 -46.491071879 -0.090812819 0 248 144
3.620381731 -46.588164710 -0.093391365 0 247 147
3.620043510 -46.685224627 -0.095391590 0 247 147
3.615691708 -46.781633555 -0.086228406 0 249 138
3.607973868 -46.877492224 -0.067702565 0 252 117
3.602415014 -46.973697885 -0.055179953 0 255 102
3.602626259 -47.070843399 -0.058703814 0 254 105
3.607254949 -47.168713769 -0.074512383 0 251 123
3.611673366 -47.266553965 -0.089735196 0 248 141
3.612054855 -47.363733720 -0.093729470 0 247 147
3.609482839 -47.460427163 -0.089508299 0 248 141
3.608174993 -47.557328534 -0.088801963 0 248 141
3.608648423 -47.654525029 -0.093048716 0 248 144
3.607595784 -47.751469084 -0.093049997 0 248 144
3.603603138 -47.847923424 -0.084873181 0 249 135
3.598032205 -47.944111991 -0.072305502 0 251 123
3.594252489 -48.040596806 -0.064718545 0 253 114
3.594740375 -48.137795281 -0.069000014 0 252 117
3.597832852 -48.235432781 -0.080524684 0 250 132
3.601384683 -48.333150862 -0.093325994 0 247 147
3.603427256 -48.430617600 -0.101928531 0 246 156
3.601662495 -48.527442275 -0.099940413 0 246 153
3.596583606 -48.623704159 -0.088733291 0 248 141
3.591617767 -48.719982155 -0.077839405 0 250 129
3.589408253 -48.816726853 -0.074610815 0 251 123
3.591150735 -48.914145660 -0.082373315 0 250 132
3.596393012 -49.012165730 -0.099869284 0 246 153
3.601461027 -49.110160741 -0.116879620 0 243 171
3.602537358 -49.207474055 -0.122786268 0 242 180
3.599798251 -49.304131435 -0.118079291 0 243 174
3.594984135 -49.400429095 -0.107599540 0 245 162
3.590350114 -49.496755024 -0.097619529 0 247 150
3.584622185 -49.592888394 -0.084595599 0 249 135
3.577067401 -49.688700494 -0.066488981 0 253 114
3.571472415 -49.784849106 -0.053832378 0 255 102
3.570877795 -49.881867540 -0.055083408 0 255 102
3.574031386 -49.979542397 -0.066759298 0 253 114
3.578096312 -50.077380354 -0.080969168 0 250 132
3.579552786 -50.174763654 -0.087922398 0 249 138
3.576751796 -50.271398737 -0.083031962 0 249 135
3.571548946 -50.367608345 -0.071459293 0 252 120
3.566007820 -50.463754883 -0.058944460 0 254 105
3.560787101 -50.559954777 -0.047319674 11 255 97
3.555932726 -50.656216561 -0.036712734 25 255 91
3.553929892 -50.752983323 -0.034036692 29 255 89
3.556151523 -50.850503428 -0.043110714 18 255 94
3.561600718 -50.948603425 -0.061161885 0 254 108
3.566034119 -51.046526313 -0.076386474 0 251 126
3.565757734 -51.143607255 -0.078508727 0 250 129
3.562559231 -51.240162669 -0.072501303 0 251 123
3.559539463 -51.336748670 -0.066989930 0 252 117
3.559026294 -51.433786377 -0.068450210 0 252 117
3.561377513 -51.531343519 -0.077877541 0 250 129
3.564943471 -51.629123853 -0.090683038 0 248 144
3.567558582 -51.726734707 -0.100842482 0 246 153
3.567251359 -51.823815469 -0.102871493 0 246 156
3.563095446 -51.920193477 -0.094192976 0 247 147
3.557210940 -52.016252531 -0.080704588 0 250 132
3.553120331 -52.112637054 -0.072205369 0 251 123
3.549561866 -52.209117085 -0.065185338 0 253 114
3.546051431 -52.305604026 -0.058297766 0 254 105
3.543588251 -52.402282456 -0.054322404 0 255 102
3.544399476 -52.499565728 -0.059455059 0 254 108
3.548117749 -52.597389503 -0.072673897 0 251 123
3.553617489 -52.695547982 -0.090847719 0 248 144
3.560606167 -52.793988751 -0.113162794 0 244 168
3.567413122 -52.892401798 -0.134971441 0 240 192
3.570342901 -52.990095936 -0.145992944 0 238 204
3.568911235 -53.086975950 -0.144879908 0 238 204
3.565489885 -53.183482097 -0.138230439 0 239 198
3.561789515 -53.279933915 -0.130803577 0 240 189
3.557635133 -53.376298090 -0.122112469 0 242 177
3.553275711 -53.472621131 -0.112849759 0 244 168
3.550507084 -53.569242735 -0.108011570 0 245 162
3.550230908 -53.666335765 -0.110106450 0 244 165
3.552287738 -53.763872796 -0.118690905 0 243 174
3.556612690 -53.861844169 -0.133584516 0 240 192
3.557316301 -53.959128605 -0.138402166 0 239 198
3.552454142 -54.055350109 -0.127734045 0 241 186
3.545365239 -54.151142017 -0.110869606 0 244 165
3.539716835 -54.247205819 -0.098011615 0 247 150
3.537677753 -54.343960406 -0.095194176 0 247 147
3.540982192 -54.441744231 -0.107242306 0 245 162
3.547628427 -54.540176849 -0.128587007 0 241 186
3.553537642 -54.638472754 -0.147880275 0 237 207
3.556615385 -54.736224947 -0.159294840 0 235 222
3.557055263 -54.833467775 -0.163369247 0 234 225
3.557676894 -54.930747124 -0.167948286 0 233 231
3.559834540 -55.028327384 -0.176799887 0 232 240
3.562278928 -55.125966151 -0.186448278 0 230 252
3.562861040 -55.223242891 -0.190914275 0 229 255
3.559470612 -55.319741358 -0.184326400 0 230 249
3.553945052 -55.415818219 -0.171796755 0 233 234
3.547788545 -55.511767325 -0.157510394 0 235 219
3.540668623 -55.607522324 -0.140542257 0 239 198
3.534441809 -55.703449263 -0.126057818 0 241 183
3.533517958 -55.800423001 -0.126326975 0 241 183
3.535979955 -55.898069049 -0.136015787 0 239 195
3.538025926 -55.995635035 -0.144546051 0 238 204
3.538914895 -56.092972795 -0.149856053 0 237 210
3.538335909 -56.190018895 -0.151080539 0 237 210
3.534272056 -56.286368094 -0.142607522 0 238 201
3.529987960 -56.382670808 -0.133520520 0 240 192
3.530166316 -56.479867306 -0.136848964 0 239 195
3.530056381 -56.577006726 -0.139374190 0 239 198
3.527628016 -56.673679413 -0.135447341 0 240 192
3.532272130 -56.771779718 -0.151198575 0 237 210
3.530268798 -56.868539007 -0.148452233 0 237 207
3.532733978 -56.966203666 -0.158138553 0 235 219
3.528083619 -57.062425406 -0.148024575 0 237 207
3.528309683 -57.159636949 -0.151478342 0 236 213
3.527303923 -57.256598253 -0.151503417 0 236 213
3.526774785 -57.353656964 -0.152853648 0 236 213
3.527091770 -57.450889270 -0.156557227 0 236 216
3.527974751 -57.548238698 -0.161834702 0 235 222
3.527633221 -57.645337997 -0.163703786 0 234 225
3.534438026 -57.743908987 -0.185457461 0 230 249
3.532702044 -57.840724507 -0.183444231 0 230 249
3.530141907 -57.937369190 -0.179136550 0 231 243
3.524516158 -58.033378060 -0.166297138 0 234 228
3.516313981 -58.128849031 -0.146287114 0 237 207
3.508952556 -58.224489176 -0.128615378 0 241 186
3.505388456 -58.320914948 -0.121509269 0 242 177
3.505712558 -58.418149691 -0.125221825 0 241 183
3.508674005 -58.515936541 -0.136272383 0 239 195
3.512831599 -58.613976863 -0.150650548 0 237 210
3.516702654 -58.711961094 -0.164230393 0 234 225
3.518941766 -58.809606234 -0.173267940 0 232 237
3.519266997 -58.906851049 -0.176978547 0 232 240
3.517205252 -59.003593564 -0.174045605 0 232 237
3.514657361 -59.100232584 -0.169758694 0 233 231
3.513697952 -59.197206629 -0.169891145 0 233 234
3.514971232 -59.294654126 -0.176235745 0 232 240
3.516791590 -59.392219608 -0.184101764 0 230 249
3.515538826 -59.489133330 -0.183414661 0 230 249
3.508408559 -59.584793883 -0.166370033 0 234 228
3.498971594 -59.679957090 -0.142904847 0 238 201
3.490817126 -59.775388218 -0.123007432 0 242 180
3.484635193 -59.871236651 -0.108598171 0 245 162
3.482038914 -59.967851053 -0.104166352 0 245 159
3.484522112 -60.065556911 -0.113869360 0 244 168
3.491298384 -60.164190632 -0.135518862 0 239 195
3.499032437 -60.263037144 -0.159832972 0 235 222
3.502506168 -60.360969037 -0.172289781 0 233 234
3.499893784 -60.457585815 -0.167807922 0 233 231
3.493472109 -60.553374601 -0.152723607 0 236 213
3.486594705 -60.649060144 -0.136369754 0 239 195
3.481132155 -60.745049353 -0.123952272 0 242 180
3.476601664 -60.841238517 -0.114127564 0 244 168
3.472181434 -60.937449085 -0.104608544 0 245 159
3.466496885 -61.033380193 -0.091569645 0 248 144
3.461216792 -61.129396432 -0.079655178 0 250 129
3.461163980 -61.226558036 -0.082287630 0 250 132
3.467012279 -61.325019379 -0.101342561 0 246 156
3.474349641 -61.423814381 -0.124540857 0 242 180
3.479008159 -61.522024090 -0.140282661 0 239 198
3.479408044 -61.619295827 -0.144171055 0 238 204
3.476318575 -61.715795189 -0.138346907 0 239 198
3.470741714 -61.811740630 -0.125598735 0 241 183
3.464338251 -61.907498697 -0.110548760 0 244 165
3.460314607 -62.003782901 -0.102121115 0 246 156
3.459522772 -62.100786170 -0.102687180 0 246 156
3.460498821 -62.198184914 -0.108172623 0 245 162
3.461083717 -62.295497594 -0.112568358 0 244 168
3.459820751 -62.392396921 -0.111819954 0 244 168
3.456972878 -62.488939855 -0.106659217 0 245 162
3.452731459 -62.585167646 -0.097618696 0 247 150
3.447064626 -62.681071496 -0.084609640 0 249 135
3.444445599 -62.777660297 -0.080082412 0 250 129
3.447964653 -62.875636890 -0.092638407 0 248 144
3.454270469 -62.974248697 -0.112949972 0 244 168
3.457926206 -63.072264418 -0.125884519 0 241 183
3.456078786 -63.169032046 -0.123500753 0 242 180
3.447878365 -63.264351589 -0.103433009 0 246 156
3.431061546 -63.357699137 -0.059381093 0 254 108
3.410720853 -63.450228920 -0.005519274 69 255 72
3.390035880 -63.542664972 0.049302413 146 255 38
3.370013902 -63.635237943 0.102280295 218 255 6
3.351486656 -63.728139703 0.151099236 238 242 0
3.336600784 -63.821866034 0.189784068 245 228 0
3.324100697 -63.916131686 0.221829560 251 217 0
3.303703272 -64.008564820 0.275858632 255 180 0
3.282319268 -64.100754812 0.332635449 255 120 0
3.262158775 -64.193212584 0.386008212 255 73 33
3.248139377 -64.287080816 0.422288608 255 45 84
3.242407190 -64.382865507 0.435502576 255 35 102
3.243925911 -64.480334942 0.428534403 255 41 91
3.250204896 -64.578916604 0.408316692 255 55 66
3.259213572 -64.678141617 0.380501534 255 76 25
3.267128051 -64.777118322 0.355732998 255 96 0
3.271392209 -64.875246314 0.341126392 255 112 0
3.272433000 -64.972621609 0.335493372 255 117 0
3.271108081 -65.069442166 0.336446666 255 117 0
3.265398045 -65.165229575 0.349607687 255 104 0
3.256405767 -65.260238972 0.371906580 255 82 14
3.250115820 -65.355880842 0.386684336 255 73 33
3.249354705 -65.452827366 0.386072738 255 73 33
3.253669987 -65.550977674 0.371331016 255 82 14
3.261373998 -65.649936855 0.347156964 255 107 0
3.271638618 -65.749511850 0.315855712 255 137 0
3.278786764 -65.848353054 0.293230707 255 161 0
3.274753973 -65.944532381 0.301731594 255 153 0
3.263975038 -66.039096908 0.329013360 255 123 0
3.254419044 -66.133946692 0.352892054 255 98 0
3.254890523 -66.231194419 0.348857596 255 104 0
3.268245797 -66.331537726 0.308958123 255 145 0
3.275743446 -66.430482986 0.285365949 255 169 0
3.265746756 -66.525219536 0.310476018 255 142 0
3.251868348 -66.619012360 0.346393523 255 107 0
3.241748778 -66.713703863 0.371848353 255 82 14
3.241422229 -66.810759322 0.370041933 255 84 11
3.248796522 -66.909682729 0.346798276 255 107 0
3.257797114 -67.009007613 0.319028018 255 134 0
3.264726014 -67.107836259 0.297025990 255 158 0
3.264718378 -67.204980940 0.294335652 255 161 0
3.254088307 -67.299534127 0.321218611 255 131 0
3.236920382 -67.392481896 0.366303993 255 86 7
3.219045099 -67.485244040 0.413360137 255 51 73
3.220045441 -67.582621389 0.407868406 255 57 62
3.221048231 -67.680000900 0.402370879 255 61 55
3.228851460 -67.779054656 0.377941898 255 78 22
3.229081040 -67.876249433 0.374598961 255 80 18
3.217723018 -67.970586067 0.403517349 255 59 58
3.209073757 -68.065584126 0.424895765 255 43 87
3.198108026 -68.160002949 0.452724649 255 24 124
3.188563189 -68.254766331 0.476598995 255 4 161
3.186530104 -68.351388165 0.479561272 255 2 164
3.196819150 -68.451073333 0.448218599 255 25 120
3.216078691 -68.553001365 0.391901834 255 69 40
3.226967058 -68.652856948 0.358892018 255 93 0
3.229263772 -68.750575308 0.349803320 255 104 0
3.226262898 -68.846970709 0.355464905 255 96 0
3.218533943 -68.942179737 0.374291377 255 80 18
3.215839302 -69.038647115 0.379102668 255 76 25
3.206379059 -69.133412537 0.402751811 255 59 58
3.199494742 -69.228819946 0.419230345 255 47 80
3.194631030 -69.324732306 0.430084300 255 39 95
3.194022474 -69.421716239 0.429092092 255 39 95
3.199715241 -69.520294173 0.410556522 255 53 69
3.206922197 -69.619260829 0.387805959 255 71 36
3.203528803 -69.715544688 0.394570496 255 67 44
3.192568132 -69.809904093 0.422405614 255 45 84
3.184234316 -69.904924243 0.442928125 255 29 113
3.184167470 -70.002045520 0.440434091 255 31 109
3.191662181 -70.101097454 0.416887287 255 49 76
3.195372045 -70.199188498 0.403879620 255 59 58
3.191903916 -70.295445623 0.410858941 255 53 69
3.186498140 -70.391204071 0.423234509 255 45 84
3.182147774 -70.487230130 0.432672611 255 37 98
3.175158465 -70.582574991 0.449459713 255 25 120
3.164685952 -70.677018164 0.475946683 255 6 157
3.160685822 -70.773123458 0.484413173 255 0 168
3.167694602 -70.872070225 0.462227296 255 16 139
3.179871974 -70.972360311 0.425650640 255 43 87
3.193754603 -71.073102396 0.384326501 255 73 33
3.199358884 -71.171707966 0.366053830 255 86 7
3.192725995 -71.364291270 0.379190594 255 76 25
3.188453899 -71.460331184 0.388421687 255 71 36
3.188594216 -71.557520302 0.385367490 255 73 33
3.188126908 -71.654551477 0.384006282 255 75 29
3.178906421 -71.749291580 0.407019762 255 57 62
3.171436140 -71.844484209 0.425160976 255 43 87
3.168608064 -71.940890721 0.430376873 255 39 95
3.169936879 -72.038388879 0.424018674 255 43 87
3.172248519 -72.136147656 0.414924708 255 51 73
3.170744581 -72.232902757 0.416456628 255 49 76
3.164575031 -72.328425262 0.430981609 255 39 95
3.153686084 -72.422695543 0.458649610 255 18 135
3.146908634 -72.518047245 0.474869851 255 6 157
3.150038375 -72.616022519 0.463503118 255 14 142
3.152503626 -72.713824469 0.453987737 255 22 128
3.155134399 -72.811673139 0.444012404 255 29 113
3.164739314 -72.911382691 0.414617132 255 51 73
3.172887583 -73.010711796 0.389278996 255 71 36
