ply
format ascii 1.0
comment coordinate_system ground
comment units millimeter
element vertex 1317
property double x
property double y
property double z
property uchar red
property uchar green
property uchar blue
comment color_mapping zg_high_contrast_from_zg
comment color_zg_range_mm -0.231782486 19.959643843
end_header
4.834390374 54.274956218 0.187277445 0 232 240
4.830072993 54.177160178 0.195135307 0 232 240
4.815090647 54.076849514 0.232463498 0 232 240
4.796386615 53.975672527 0.280077146 0 232 237
4.788135955 53.876968288 0.298807841 0 232 237
4.794684015 53.781745476 0.276647776 0 232 237
4.800073838 53.686245311 0.257689124 0 232 237
4.797072222 53.588775710 0.261919128 0 232 237
4.787125415 53.489684306 0.285341873 0 232 237
4.779066481 53.391040267 0.303549378 0 232 237
4.780328021 53.294573029 0.296002901 0 232 237
4.783700911 53.198595152 0.282623156 0 232 237
4.777912617 53.100486625 0.294559995 0 232 237
4.769240662 53.001713236 0.314466813 0 232 237
4.769277979 52.904961443 0.310307978 0 232 237
4.771592515 52.808735055 0.299857399 0 232 237
4.771296718 52.711903977 0.296621338 0 232 237
4.775092114 52.616014587 0.282080659 0 232 237
4.768128885 52.517647888 0.297271993 0 232 237
4.766296276 52.420463433 0.298286370 0 232 237
4.769193924 52.324363608 0.286229918 0 232 237
4.765380839 52.226725537 0.292719686 0 232 237
4.756364189 52.127901129 0.313590949 0 232 237
4.748573283 52.029362328 0.331076280 0 233 234
4.745245853 51.931844758 0.336227911 0 233 234
4.748021574 51.835715942 0.324514207 0 233 234
4.754259897 51.740369825 0.303232295 0 232 237
4.760303475 51.644974086 0.282489522 0 232 237
4.763676426 51.548969123 0.269128326 0 232 237
4.760781284 51.451545935 0.273090973 0 232 237
4.753409122 51.353115307 0.289427869 0 232 237
4.749843540 51.255545901 0.295245971 0 232 237
4.749246001 51.158645038 0.292862539 0 232 237
4.747683759 51.061527582 0.293146442 0 232 237
4.744135463 50.963966036 0.298920483 0 232 237
4.741600387 50.866632835 0.301895490 0 232 237
4.740632761 50.769650448 0.300539642 0 232 237
4.738655184 50.672443147 0.301976267 0 232 237
4.736223994 50.575135760 0.304667804 0 232 237
4.736903178 50.478519718 0.298764017 0 232 237
4.738532771 50.382112952 0.290234561 0 232 237
4.736928065 50.284988906 0.290645355 0 232 237
4.736143174 50.188046321 0.288791474 0 232 237
4.741622197 50.092484098 0.269625938 0 232 237
4.749139011 49.997365276 0.244829087 0 232 237
4.753502968 49.901547505 0.228747408 0 232 240
4.751382030 49.804303848 0.230590618 0 232 240
4.744364523 49.705989356 0.245968980 0 232 237
4.736644872 49.607526050 0.263289457 0 232 237
4.731012158 49.509523046 0.274843058 0 232 237
4.725914707 49.411640121 0.284918521 0 232 237
4.720371074 49.313663354 0.296228573 0 232 237
4.714669735 49.215655843 0.307975873 0 232 237
4.712415968 49.118398598 0.310195160 0 232 237
4.714314213 49.022039975 0.300939109 0 232 237
4.719756343 48.926443979 0.281888447 0 232 237
4.728885667 48.831637428 0.252646889 0 232 237
4.740319362 48.737318721 0.217036597 0 232 240
4.748823926 48.642361733 0.189523658 0 232 240
4.743939879 48.544528447 0.199019952 0 232 240
4.731473688 48.445076236 0.229476039 0 232 240
4.722487051 48.346375760 0.250315520 0 232 237
4.718066448 48.248654620 0.258534907 0 232 237
4.715444709 48.151318833 0.261783091 0 232 237
4.711121585 48.053622944 0.269735582 0 232 237
4.704262899 47.955392050 0.284698382 0 232 237
4.695383884 47.856738085 0.305247373 0 232 237
4.684136110 47.757589758 0.332345851 0 233 234
4.671575171 47.658172360 0.363075936 0 233 234
4.670904563 47.561266447 0.360938421 0 233 234
4.669082916 47.464118461 0.361983979 0 233 234
4.668050401 47.367136604 0.360849264 0 233 234
4.673281736 47.271466019 0.342399851 0 233 234
4.680972278 47.176304546 0.317153114 0 232 237
4.688638727 47.081131427 0.291973884 0 232 237
4.688289023 46.984282825 0.288955863 0 232 237
4.685001623 46.886823257 0.294060188 0 232 237
4.684126344 46.789865783 0.292497471 0 232 237
4.687579986 46.693804505 0.278968583 0 232 237
4.692422153 46.598026796 0.261602115 0 232 237
4.692709716 46.501305105 0.256828017 0 232 237
4.683203663 46.402565925 0.279130077 0 232 237
4.675131314 46.304127896 0.297470040 0 232 237
4.668876204 46.206068057 0.310787498 0 232 237
4.675804867 46.110711705 0.287658258 0 232 237
4.681089987 46.015013414 0.269073728 0 232 237
4.685885714 45.919210503 0.251843169 0 232 237
4.684729577 45.822191307 0.251068475 0 232 237
4.680670132 45.724582197 0.258321671 0 232 237
4.685130141 45.628703597 0.242022460 0 232 237
4.693953536 45.533704286 0.213660763 0 232 240
4.697710991 45.437673732 0.199305851 0 232 240
4.688620374 45.339048040 0.220473540 0 232 240
4.670595618 45.238629876 0.266343483 0 232 237
4.657020177 45.139118762 0.299913872 0 232 237
4.657823526 45.042501075 0.293731363 0 232 237
4.666255604 44.947409136 0.266457922 0 232 237
4.688961366 44.855161856 0.199721091 0 232 240
4.718753192 44.764309557 0.113393047 0 231 243
4.752763854 44.674273445 0.015401069 0 231 246
4.793499013 44.585546432 -0.101182645 0 230 252
4.814068811 44.492789392 -0.162011902 0 229 255
4.818352486 44.396793082 -0.177811699 0 229 255
4.819256424 44.300125231 -0.184265923 0 229 255
4.821446259 44.203709419 -0.194274407 0 229 255
4.823503924 44.107265179 -0.203916378 0 229 255
4.823750064 44.010462903 -0.208548539 0 229 255
4.823617078 43.913585384 -0.212131303 0 229 255
4.823800098 43.816769024 -0.216586662 0 229 255
4.823557283 43.719868641 -0.219863461 0 229 255
4.823019110 43.622910144 -0.222322447 0 229 255
4.820357516 43.525538398 -0.218908989 0 229 255
4.813732278 43.427398698 -0.204534707 0 229 255
4.806775287 43.329199042 -0.189241736 0 229 255
4.803324906 43.231681801 -0.183643386 0 229 255
4.803093328 43.134787436 -0.186944034 0 229 255
4.801481482 43.037626729 -0.186426953 0 229 255
4.797050630 42.939924787 -0.178113793 0 229 255
4.792367900 42.842177166 -0.169102861 0 229 255
4.794977206 42.745828072 -0.180254214 0 229 255
4.788636637 42.647766631 -0.166656599 0 229 255
4.783676668 42.549972470 -0.156875235 0 229 255
4.783150621 42.453024926 -0.159353264 0 229 255
4.785871871 42.356693611 -0.170809623 0 229 255
4.788500102 42.260341841 -0.182007709 0 229 255
4.789544778 42.163687842 -0.188825806 0 229 255
4.788976600 42.066727899 -0.191182819 0 229 255
4.788640945 41.969811433 -0.194181664 0 229 255
4.787219570 41.872690390 -0.194177010 0 229 255
4.784337808 41.775295733 -0.190132732 0 229 255
4.781261902 41.677866177 -0.185550340 0 229 255
4.778406204 41.580479356 -0.181575653 0 229 255
4.775706103 41.483122972 -0.178030011 0 229 255
4.771833848 41.385549806 -0.171241676 0 229 255
4.767491229 41.287891507 -0.163151318 0 229 255
4.765130432 41.190602994 -0.160540246 0 229 255
4.765831218 41.093881661 -0.166394572 0 229 255
4.768710634 40.997561070 -0.178272682 0 229 255
4.771612077 40.901241584 -0.190210652 0 229 255
4.772311885 40.804514538 -0.196058982 0 229 255
4.770672075 40.707357149 -0.195435974 0 229 255
4.768622095 40.610125195 -0.193677435 0 229 255
4.767151750 40.512999910 -0.193520684 0 229 255
4.764940783 40.415740021 -0.191314515 0 229 255
4.760943600 40.318156224 -0.184167223 0 229 255
4.756577161 40.220507714 -0.175997442 0 229 255
4.753239922 40.123048170 -0.170672732 0 229 255
4.750722750 40.025738621 -0.167614760 0 229 255
4.748648613 39.928510136 -0.165780838 0 229 255
4.747469043 39.831443462 -0.166419767 0 229 255
4.747810642 39.734650096 -0.171264569 0 229 255
4.748594915 39.637935039 -0.177332535 0 229 255
4.749287820 39.541202294 -0.183146687 0 229 255
4.750410269 39.444544910 -0.190147716 0 229 255
4.751630710 39.347903364 -0.197418656 0 229 255
4.751507846 39.251021479 -0.200973242 0 229 255
4.749323800 39.153773527 -0.198825935 0 229 255
4.746996046 39.056501069 -0.196279944 0 229 255
4.746437897 38.959542002 -0.198627110 0 229 255
4.744842307 38.862399879 -0.198103739 0 229 255
4.738649655 38.764450267 -0.184864459 0 229 255
4.731557355 38.666346858 -0.169135529 0 229 255
4.727409522 38.568763366 -0.161549230 0 229 255
4.725104867 38.471504125 -0.159059672 0 229 255
4.721879093 38.374085407 -0.154021166 0 229 255
4.716935589 38.276369780 -0.144230304 0 230 252
4.711264549 38.178530972 -0.132425808 0 230 252
4.706258529 38.080810846 -0.122459393 0 230 252
4.705416938 37.983812992 -0.124010378 0 230 252
4.708852348 37.887552039 -0.137390337 0 230 252
4.713013227 37.791412447 -0.152775907 0 230 252
4.715487398 37.694979561 -0.163494991 0 229 255
4.716488301 37.598291849 -0.170137900 0 229 255
4.717574938 37.501617264 -0.177016842 0 229 255
4.720248622 37.405211547 -0.188284549 0 229 255
4.723171713 37.308845442 -0.200241074 0 229 255
4.722682612 37.211897487 -0.202758096 0 229 255
4.719251736 37.114451214 -0.197136675 0 229 255
4.714896953 37.016850777 -0.188958347 0 229 255
4.710192280 36.919193956 -0.179810886 0 229 255
4.707227927 36.821832557 -0.175476137 0 229 255
4.705590629 36.724695268 -0.174811020 0 229 255
4.698086612 36.626576646 -0.157916195 0 229 255
4.688478738 36.528111709 -0.135200238 0 230 252
4.692084063 36.431854583 -0.149033633 0 230 252
4.688255034 36.334358280 -0.142300710 0 230 252
4.683364805 36.236688171 -0.132630957 0 230 252
4.677100648 36.138793731 -0.119159216 0 230 252
4.673395966 36.041325805 -0.112766407 0 230 252
4.673362012 35.944464467 -0.116526738 0 230 252
4.675810093 35.848010207 -0.127152067 0 230 252
4.678532530 35.751598298 -0.138535291 0 230 252
4.678915398 35.654800950 -0.143445355 0 230 252
4.676480659 35.557542846 -0.140559711 0 230 252
4.675115251 35.460459910 -0.140631037 0 230 252
4.677139787 35.363927768 -0.150079164 0 230 252
4.679689565 35.267478424 -0.160979252 0 229 255
4.679914428 35.170650607 -0.165446531 0 229 255
4.679306353 35.073687558 -0.167608383 0 229 255
4.680529176 34.977018750 -0.174834203 0 229 255
4.683164752 34.880574980 -0.185967285 0 229 255
4.684990525 34.783998795 -0.194858977 0 229 255
4.682431381 34.686720105 -0.191618623 0 229 255
4.674346335 34.588562132 -0.173089422 0 229 255
4.665106867 34.490226079 -0.151365029 0 230 252
4.656195600 34.391948374 -0.130547165 0 230 252
4.649160799 34.293973566 -0.114919271 0 230 252
4.646553491 34.196702087 -0.111539152 0 230 252
4.649627241 34.100326211 -0.123875171 0 230 252
4.654761139 34.004270776 -0.141909824 0 230 252
4.657175547 33.907784619 -0.152419601 0 230 252
4.654235928 33.810459121 -0.148115478 0 230 252
4.647500223 33.712543301 -0.133307531 0 230 252
4.642981671 33.614976685 -0.124632425 0 230 252
4.644562945 33.518359083 -0.132832551 0 230 252
4.648883529 33.422163445 -0.148610525 0 230 252
4.651502687 33.325701099 -0.159680063 0 229 255
4.650547836 33.228685633 -0.160860096 0 229 255
4.645656727 33.131065497 -0.151148185 0 230 252
4.638277596 33.033067109 -0.134551109 0 230 252
4.630377555 32.934993986 -0.116511377 0 230 252
4.623445013 32.837073656 -0.101147147 0 230 252
4.620342364 32.739740328 -0.096378295 0 230 252
4.620921602 32.642967165 -0.101795503 0 230 252
4.621786827 32.546236083 -0.108002872 0 230 252
4.622288085 32.449448652 -0.113202067 0 230 252
4.622977385 32.352688398 -0.118920428 0 230 252
4.625145396 32.256148928 -0.128729154 0 230 252
4.626932931 32.159550059 -0.137484047 0 230 252
4.624823683 32.062366858 -0.135455607 0 230 252
4.619229739 31.964665203 -0.123783885 0 230 252
4.613501891 31.866947165 -0.111740323 0 230 252
4.610020807 31.769565864 -0.105912252 0 230 252
4.607707869 31.672359217 -0.103315216 0 230 252
4.603808566 31.574919598 -0.096327421 0 230 252
4.596182240 31.476933896 -0.079025454 0 230 252
4.597512117 31.380267462 -0.086504607 0 230 252
4.593474333 31.282813683 -0.079129838 0 230 252
4.594453238 31.186094532 -0.085635526 0 230 252
4.599779087 31.090006751 -0.104168627 0 230 252
4.595702109 30.992548789 -0.096681821 0 230 252
4.596920594 30.895860107 -0.103847108 0 230 252
4.595761138 30.798826266 -0.104431121 0 230 252
4.594171757 30.701730622 -0.103824270 0 230 252
4.599093831 30.605571004 -0.121234727 0 230 252
4.590897553 30.507527047 -0.102342880 0 230 252
4.582736110 30.409493578 -0.083546012 0 230 252
4.576125482 30.311686636 -0.069039224 0 230 249
4.570643670 30.214044455 -0.057654817 0 230 249
4.567650119 30.116758471 -0.053154815 0 230 249
4.569653440 30.020180520 -0.062481429 0 230 249
4.573405929 29.923846928 -0.076647456 0 230 252
4.574176285 29.827090360 -0.082559904 0 230 252
4.571024181 29.729782359 -0.077616429 0 230 252
4.563933677 29.631925191 -0.061772729 0 230 249
4.555046740 29.533822127 -0.040956234 0 230 249
4.547554113 29.435919044 -0.023996914 0 230 249
4.542695178 29.338386262 -0.014324724 0 230 249
4.539563703 29.241095404 -0.009431865 0 230 249
4.539246271 29.144194383 -0.012325482 0 230 249
4.544421356 29.048048446 -0.030418276 0 230 249
4.553434767 28.952424364 -0.059132544 0 230 249
4.560895804 28.856580272 -0.083549737 0 230 252
4.564281084 28.760173707 -0.096686337 0 230 252
4.564806549 28.663374757 -0.101907313 0 230 252
4.563445177 28.566318691 -0.101905282 0 230 252
4.558053103 28.468717661 -0.090746909 0 230 252
4.550428648 28.370818867 -0.073408957 0 230 249
4.544279640 28.273123611 -0.060153035 0 230 249
4.539429664 28.175606538 -0.050490969 0 230 249
4.535945020 28.078275029 -0.044606318 0 230 249
4.535131987 27.981301729 -0.046114445 0 230 249
4.538283489 27.884855513 -0.058593829 0 230 249
4.543018696 27.788616136 -0.075455312 0 230 252
4.547226389 27.692302641 -0.090855800 0 230 252
4.550115872 27.595811391 -0.102606874 0 230 252
4.550146504 27.498941373 -0.106444445 0 230 252
4.545610584 27.401472033 -0.097641954 0 230 252
4.537389995 27.303523859 -0.078639989 0 230 252
4.528875240 27.205542882 -0.058822429 0 230 249
4.522890343 27.107896353 -0.046005510 0 230 249
4.521438587 27.010840886 -0.045734022 0 230 249
4.524711242 26.914395988 -0.058537564 0 230 249
4.529550637 26.818149600 -0.075676502 0 230 252
4.532824030 26.721697691 -0.088480007 0 230 252
4.534583231 26.625048689 -0.097091421 0 230 252
4.535909840 26.528342377 -0.104504389 0 230 252
4.536394000 26.431527097 -0.109584465 0 230 252
4.532855734 26.334200375 -0.103529794 0 230 252
4.526276554 26.236490971 -0.089056919 0 230 252
4.521101158 26.138962866 -0.078468247 0 230 252
4.519528489 26.041890907 -0.077850382 0 230 252
4.520837209 25.945180550 -0.085206866 0 230 252
4.522520058 25.848515191 -0.093597816 0 230 252
4.521274629 25.751483002 -0.093882262 0 230 252
4.516067742 25.653959024 -0.083200230 0 230 252
4.509405584 25.556258095 -0.068488683 0 230 249
4.505322001 25.458879777 -0.060913346 0 230 249
4.504065270 25.361851663 -0.061161591 0 230 249
4.502248702 25.264755086 -0.059858991 0 230 249
4.498470656 25.167419289 -0.053125671 0 230 249
4.495278777 25.070157081 -0.048013654 0 230 249
4.496539108 24.973437586 -0.055224584 0 230 249
4.500695669 24.877067213 -0.070451517 0 230 249
4.501110011 24.780241023 -0.075318463 0 230 252
4.499007660 24.683110824 -0.073217695 0 230 249
4.489438096 24.585085493 -0.050445234 0 230 249
4.486277970 24.487833339 -0.045413816 0 230 249
4.490586080 24.391473250 -0.061054712 0 230 249
4.497416703 24.295408897 -0.083677423 0 230 252
4.493742735 24.198094190 -0.077220128 0 230 252
4.494366509 24.101289008 -0.082658754 0 230 252
4.501048254 24.005195596 -0.104866245 0 230 252
4.495941875 23.907713413 -0.094440113 0 230 252
4.489851292 23.810119296 -0.081288120 0 230 252
4.484384810 23.712601820 -0.069862491 0 230 249
4.479369471 23.615140178 -0.059684452 0 230 249
4.474703739 23.517722097 -0.050472941 0 230 249
4.471637531 23.420491418 -0.045688182 0 230 249
4.470848674 23.323524274 -0.047206722 0 230 249
4.470742108 23.226635196 -0.050612936 0 230 249
4.470461715 23.129725586 -0.053536777 0 230 249
4.471180863 23.032929258 -0.059226603 0 230 249
4.473283473 22.936288639 -0.068745312 0 230 249
4.475007620 22.839602851 -0.077215181 0 230 252
4.471192344 22.742290549 -0.070348338 0 230 249
4.466402537 22.644870927 -0.060782274 0 230 249
4.464725289 22.547802704 -0.059831988 0 230 249
4.463648982 22.450802064 -0.060544209 0 230 249
4.461525453 22.353685043 -0.058356004 0 230 249
4.459937357 22.256628227 -0.057648953 0 230 249
4.460158000 22.159771618 -0.061948280 0 230 249
4.461544006 22.063042335 -0.069472841 0 230 249
4.461824190 21.966189965 -0.073934751 0 230 249
4.459127953 21.869011345 -0.070155044 0 230 249
4.453254870 21.771488061 -0.057578691 0 230 249
4.445671870 21.673782950 -0.040266900 0 230 249
4.440463909 21.576339718 -0.029529344 0 230 249
4.439660738 21.479374365 -0.030985811 0 230 249
4.441536084 21.382696478 -0.039857027 0 230 249
4.443761996 21.286053911 -0.049697751 0 230 249
4.443710036 21.189166043 -0.053230667 0 230 249
4.440868870 21.091981170 -0.049039941 0 230 249
4.438191497 20.994815052 -0.045301484 0 230 249
4.436848799 20.897790986 -0.045257165 0 230 249
4.435204826 20.800735535 -0.044377504 0 230 249
4.431671099 20.703482733 -0.038264358 0 230 249
4.426733452 20.606085426 -0.028262812 0 230 249
4.422695347 20.508784634 -0.020750619 0 230 249
4.420861728 20.411714455 -0.019340976 0 230 249
4.420014587 20.314746699 -0.020661524 0 230 249
4.419601389 20.217823440 -0.023182422 0 230 249
4.421843350 20.121171644 -0.033053923 0 230 249
4.425903488 20.024702874 -0.047958640 0 230 249
4.428740499 19.928105926 -0.059475621 0 230 249
4.430146940 19.831361198 -0.067030436 0 230 249
4.430757683 19.734534374 -0.072380924 0 230 249
4.431212622 19.637690671 -0.077298873 0 230 252
4.431241848 19.540803248 -0.081036918 0 230 252
4.429690634 19.443757434 -0.080397648 0 230 252
4.425681122 19.346467830 -0.072950235 0 230 249
4.419607710 19.248976288 -0.059786643 0 230 249
4.414213926 19.151555634 -0.048503611 0 230 249
4.414039377 19.054650872 -0.051671427 0 230 249
4.418038386 18.958153731 -0.066394807 0 230 249
4.421910252 18.861640388 -0.080765083 0 230 252
4.422497526 18.764804556 -0.086039097 0 230 252
4.420749605 18.667741779 -0.084845657 0 230 252
4.418918624 18.570671586 -0.083421020 0 230 252
4.416330100 18.473529387 -0.079897472 0 230 252
4.411764990 18.376199606 -0.070899304 0 230 249
4.406864837 18.278840686 -0.060972073 0 230 249
4.403601695 18.181639877 -0.055576678 0 230 249
4.401098367 18.084512516 -0.052284090 0 230 249
4.397757085 17.987307553 -0.046669840 0 230 249
4.394600051 17.890121638 -0.041564563 0 230 249
4.394016692 17.793177320 -0.043585090 0 230 249
4.394966515 17.696375042 -0.049850178 0 230 249
4.394051802 17.599398882 -0.050950806 0 230 249
4.399077837 17.502969690 -0.068501676 0 230 249
4.396009721 17.405793685 -0.063636703 0 230 249
4.394470107 17.308758848 -0.063003344 0 230 249
4.393613218 17.211786514 -0.064259459 0 230 249
4.392296320 17.114772426 -0.064240497 0 230 249
4.390399429 17.017706294 -0.062614165 0 230 249
4.387746931 16.920573015 -0.058894101 0 230 249
4.383361544 16.823286084 -0.050373834 0 230 249
4.378067928 16.725920901 -0.039337070 0 230 249
4.373484821 16.628621990 -0.030266676 0 230 249
4.371551124 16.531559654 -0.028532274 0 230 249
4.373108299 16.434804795 -0.036464333 0 230 249
4.376082744 16.338171987 -0.048320313 0 230 249
4.379420927 16.241567833 -0.061182577 0 230 249
4.381250994 16.144829577 -0.069867133 0 230 249
4.379222853 16.047756036 -0.067865417 0 230 249
4.374300238 15.950434479 -0.057846307 0 230 249
4.368679457 15.853056185 -0.045892337 0 230 249
4.363481402 15.755717449 -0.035107798 0 230 249
4.359845915 15.658514459 -0.028649534 0 230 249
4.358639013 15.561518542 -0.028916089 0 230 249
4.358314372 15.464596945 -0.031624938 0 230 249
4.357026418 15.367594243 -0.031664667 0 230 249
4.355631117 15.270582831 -0.031405905 0 230 249
4.356566973 15.173764984 -0.037602329 0 230 249
4.360627973 15.077203546 -0.052453066 0 230 249
4.364602468 14.980631140 -0.067063176 0 230 249
4.364793994 14.883745668 -0.071194796 0 230 249
4.361548738 14.786579640 -0.065806587 0 230 249
4.356040744 14.689232083 -0.054150105 0 230 249
4.349794331 14.591828464 -0.040447128 0 230 249
4.345137372 14.494556377 -0.031145127 0 230 249
4.343655429 14.397540592 -0.030635731 0 230 249
4.344863712 14.300738943 -0.037576341 0 230 249
4.347480348 14.204046980 -0.048416608 0 230 249
4.349888056 14.107335816 -0.058677118 0 230 249
4.350539868 14.010484549 -0.064073125 0 230 249
4.348980737 13.913459733 -0.063344178 0 230 249
4.346109505 13.816333606 -0.058979788 0 230 249
4.343192138 13.719205360 -0.054486388 0 230 249
4.341301744 13.622157439 -0.052836292 0 230 249
4.341932685 13.525302831 -0.058168685 0 230 249
4.344779851 13.428615450 -0.069638561 0 230 249
4.346654068 13.331851546 -0.078412432 0 230 252
4.345662001 13.234869764 -0.079245948 0 230 252
4.341593827 13.137657686 -0.071557810 0 230 249
4.335252554 13.040278652 -0.057572131 0 230 249
4.331419152 12.943089550 -0.050531730 0 230 249
4.333130345 12.846311369 -0.058848254 0 230 249
4.337987573 12.749761841 -0.075878032 0 230 252
4.342793756 12.653204115 -0.092765396 0 230 252
4.344136295 12.556390592 -0.100057536 0 230 252
4.340092839 12.459186475 -0.092429425 0 230 252
4.332667201 12.361741832 -0.075431394 0 230 252
4.327181187 12.264440649 -0.063804792 0 230 249
4.325856147 12.167438507 -0.063702931 0 230 249
4.324563627 12.070438918 -0.063689965 0 230 249
4.319880075 11.973201253 -0.054282446 0 230 249
4.313389971 11.875840148 -0.039869354 0 230 249
4.308283875 11.778579455 -0.029288758 0 230 249
4.307319093 11.681608193 -0.030178758 0 230 249
4.312668365 11.585070974 -0.048558283 0 230 249
4.318168560 11.488539221 -0.067354868 0 230 249
4.321206340 11.391835106 -0.079329202 0 230 252
4.323093440 11.295050124 -0.088114906 0 230 252
4.324297532 11.198217031 -0.095007461 0 230 252
4.323828052 11.101270411 -0.097262801 0 230 252
4.319697874 11.004080139 -0.089376126 0 230 252
4.313759567 10.906772813 -0.076479280 0 230 252
4.309294363 10.809566032 -0.067661951 0 230 249
4.307645589 10.712545828 -0.066645541 0 230 249
4.309515774 10.615754575 -0.075376360 0 230 252
4.315340493 10.519216343 -0.095061200 0 230 252
4.318428050 10.422497295 -0.107162333 0 230 252
4.313599704 10.325270321 -0.097333025 0 230 252
4.300889843 10.227546687 -0.065668186 0 230 249
4.297966046 10.130448600 -0.061112415 0 230 249
4.293307881 10.033243380 -0.051750623 0 230 249
4.292707834 9.936293545 -0.053629985 0 230 249
4.294274710 9.839477452 -0.061511359 0 230 249
4.296281081 9.742686418 -0.070609196 0 230 249
4.296665946 9.645794028 -0.075213726 0 230 252
4.296113634 9.548843689 -0.077220758 0 230 252
4.295689692 9.451900758 -0.079582268 0 230 252
4.294971451 9.354939750 -0.081127281 0 230 252
4.293745825 9.257948313 -0.081265446 0 230 252
4.294034138 9.161046648 -0.085596739 0 230 252
4.297696027 9.064342355 -0.099273298 0 230 252
4.297758744 8.967424261 -0.102977346 0 230 252
4.282094808 8.869592732 -0.063109510 0 230 249
4.267816923 8.771852334 -0.027080117 0 230 249
4.340429863 8.679097920 -0.231782486 0 229 255
4.235895959 5.862670084 -0.043924050 0 230 249
4.226090564 4.699133945 -0.058576062 0 230 249
4.174016248 1.207778038 -0.038723666 0 230 249
4.087593082 -5.870552056 -0.046906805 0 230 249
4.056173814 -11.203764401 -0.142364555 0 230 252
4.051186425 -11.300645644 -0.131820999 0 230 252
4.036508899 -11.397310466 -0.094403840 0 230 252
4.024198577 -11.494017838 -0.063549809 0 230 249
4.023573806 -11.590982806 -0.065100596 0 230 249
4.022753456 -11.687943535 -0.066107839 0 230 249
4.020330105 -11.784866651 -0.062668445 0 230 249
4.018013755 -11.881791242 -0.059524585 0 230 249
4.019402426 -11.978804930 -0.066654429 0 230 249
4.023991521 -12.075899511 -0.082658729 0 230 252
4.025614235 -12.172923968 -0.090435432 0 230 252
4.022112752 -12.269819932 -0.084000232 0 230 252
4.017885623 -12.366695224 -0.075551376 0 230 252
4.017153630 -12.463659743 -0.076794319 0 230 252
4.019077046 -12.560695156 -0.085400359 0 230 252
4.020782345 -12.657726925 -0.093400385 0 230 252
4.021585022 -12.754736054 -0.098896029 0 230 252
4.020870326 -12.851704434 -0.100182351 0 230 252
4.017201912 -12.948589884 -0.093275806 0 230 252
4.013139204 -13.045462041 -0.085274501 0 230 252
4.010632033 -13.142376840 -0.081586041 0 230 252
4.008822602 -13.239310933 -0.079831478 0 230 252
4.015419831 -13.336493968 -0.101390749 0 230 252
4.013735104 -13.433433802 -0.099979756 0 230 252
4.012956073 -13.530400697 -0.101079451 0 230 252
4.013228590 -13.627400192 -0.105094375 0 230 252
4.013923626 -13.724413858 -0.110279986 0 230 252
4.013897452 -13.821406037 -0.113464222 0 230 252
4.014597149 -13.918422185 -0.118660483 0 230 252
4.014666509 -14.015419238 -0.122107384 0 230 252
4.013259598 -14.112368765 -0.121458715 0 230 252
4.012474808 -14.209338600 -0.122534317 0 230 252
4.008691185 -14.306208086 -0.115291455 0 230 252
4.001897451 -14.402973393 -0.099698734 0 230 252
3.996055910 -14.499766910 -0.086745642 0 230 252
3.992660500 -14.596641526 -0.080575727 0 230 252
3.990698310 -14.693564549 -0.078379706 0 230 252
3.990186559 -14.790538238 -0.080205389 0 230 252
3.990259919 -14.887533265 -0.083652766 0 230 252
3.989290013 -14.984491351 -0.084205398 0 230 252
3.987612098 -15.081423563 -0.082793117 0 230 252
3.985878499 -15.178353202 -0.081225201 0 230 252
3.984753260 -15.275305008 -0.081343459 0 230 252
3.985453054 -15.372325595 -0.086522531 0 230 252
3.987775428 -15.469409343 -0.096200942 0 230 252
3.990286216 -15.566502900 -0.106400843 0 230 252
3.991989909 -15.663567769 -0.114361034 0 230 252
3.992307485 -15.760580284 -0.118475460 0 230 252
3.990844504 -15.857523211 -0.117650022 0 230 252
3.988169476 -15.954417261 -0.113461536 0 230 252
3.984989982 -16.051289643 -0.107872595 0 230 252
3.982402648 -16.148184521 -0.103924920 0 230 252
3.981313497 -16.245139895 -0.104131609 0 230 252
3.979369272 -16.342059660 -0.101965358 0 230 252
3.974184009 -16.438842732 -0.090808035 0 230 252
3.966730731 -16.535526579 -0.073358466 0 230 249
3.961931677 -16.632318874 -0.063269829 0 230 249
3.964628432 -16.729431366 -0.073971829 0 230 249
3.972276189 -16.826762008 -0.098405879 0 230 252
3.979269956 -16.924070596 -0.121024872 0 230 252
3.982537534 -17.021220420 -0.133307045 0 230 252
3.983199052 -17.118257192 -0.138359343 0 230 252
3.982970795 -17.215255187 -0.140942404 0 230 252
3.978556218 -17.312063699 -0.131912037 0 230 252
3.971513116 -17.408749242 -0.115589217 0 230 252
3.964124822 -17.505414219 -0.098307553 0 230 252
3.956576145 -17.602066836 -0.080579671 0 230 252
3.949933694 -17.698756975 -0.065364252 0 230 249
3.945553010 -17.795549826 -0.056421500 0 230 249
3.943858198 -17.892468224 -0.054927942 0 230 249
3.945616233 -17.989552141 -0.063011219 0 230 249
3.949320439 -18.086732517 -0.076491983 0 230 252
3.949275830 -18.183733353 -0.079572572 0 230 252
3.944724898 -18.280513038 -0.070151559 0 230 249
3.940787272 -18.377320441 -0.062430594 0 230 249
3.941110047 -18.474338648 -0.066526763 0 230 249
3.944949820 -18.571535099 -0.080377993 0 230 252
3.947360697 -18.668662719 -0.090264355 0 230 252
3.945597007 -18.765579401 -0.088569225 0 230 252
3.940157451 -18.862306048 -0.076675881 0 230 252
3.934824117 -18.959034812 -0.065075928 0 230 249
3.934010107 -19.055996656 -0.066011626 0 230 249
3.937276286 -19.153173640 -0.078264929 0 230 252
3.941079256 -19.250382395 -0.092006256 0 230 252
3.942642467 -19.347475106 -0.099533192 0 230 252
3.941653879 -19.444432398 -0.099980038 0 230 252
3.938917484 -19.541294929 -0.095577081 0 230 252
3.935643800 -19.638126796 -0.089682402 0 230 252
3.933583024 -19.735023626 -0.087151279 0 230 252
3.933160774 -19.832010386 -0.089164490 0 230 252
3.933321455 -19.929030100 -0.092793687 0 230 252
3.934480367 -20.026106755 -0.099191004 0 230 252
3.938151933 -20.123327106 -0.112557766 0 230 252
3.944680061 -20.220713615 -0.133848110 0 230 252
3.948479546 -20.317949572 -0.147567614 0 230 252
3.944036391 -20.414713807 -0.138419193 0 230 252
3.933785798 -20.511138224 -0.113158358 0 230 252
3.923383798 -20.607546704 -0.087476079 0 230 252
3.918095057 -20.704248781 -0.075977887 0 230 252
3.917332566 -20.801215581 -0.077035456 0 230 252
3.919295226 -20.898344977 -0.085652178 0 230 252
3.921451185 -20.995488247 -0.094804058 0 230 252
3.920553355 -21.092449613 -0.095482710 0 230 252
3.915431507 -21.189154475 -0.084441462 0 230 252
3.909710291 -21.285819544 -0.071736108 0 230 249
3.919407899 -21.383429452 -0.101806404 0 230 252
3.915350089 -21.480196166 -0.093713530 0 230 252
3.923912082 -21.577746502 -0.120631174 0 230 252
3.929592469 -21.675123609 -0.139553216 0 230 252
3.928353224 -21.772069588 -0.139276617 0 230 252
3.921922158 -21.868686071 -0.124594761 0 230 252
3.910796039 -21.964998786 -0.096885680 0 230 252
3.904497108 -22.061613634 -0.082567763 0 230 252
3.893095861 -22.157894911 -0.054092576 0 230 249
3.889808869 -22.254695358 -0.048128425 0 230 249
3.894839805 -22.352037624 -0.065240670 0 230 249
3.900957609 -22.449455966 -0.085367318 0 230 252
3.902575155 -22.546582240 -0.093007145 0 230 252
3.900396626 -22.643458094 -0.090113760 0 230 252
3.896712247 -22.740232337 -0.083041221 0 230 252
3.891717770 -22.836916403 -0.072332593 0 230 249
3.885466700 -22.933512404 -0.058136274 0 230 249
3.879114764 -23.030097522 -0.043658806 0 230 249
3.875167608 -23.126843071 -0.035852180 0 230 249
3.875887697 -23.223907479 -0.040993782 0 230 249
3.879849379 -23.321197483 -0.055128211 0 230 249
3.884051139 -23.418508003 -0.069927672 0 230 249
3.887331585 -23.515758076 -0.082169815 0 230 252
3.888002988 -23.612827933 -0.087171877 0 230 252
3.884235287 -23.709585152 -0.079856117 0 230 252
3.878087839 -23.806171050 -0.065936269 0 230 249
3.873631096 -23.902873870 -0.056706187 0 230 249
3.872943469 -23.999844932 -0.057932737 0 230 249
3.874537123 -24.096981073 -0.065487841 0 230 249
3.875384368 -24.194064995 -0.070970804 0 230 249
3.872892787 -24.290906540 -0.067188547 0 230 249
3.867821978 -24.387557622 -0.056248588 0 230 249
3.863357511 -24.484250331 -0.046989769 0 230 249
3.859678123 -24.580998620 -0.039908051 0 230 249
3.855844118 -24.677733335 -0.032396086 0 230 249
3.853168934 -24.774552726 -0.028098283 0 230 249
3.854427491 -24.871667139 -0.034714308 0 230 249
3.859629312 -24.969081825 -0.052270703 0 230 249
3.862356859 -25.066313011 -0.062960578 0 230 249
3.860235219 -25.163176230 -0.060194077 0 230 249
3.856333718 -25.259901803 -0.052487690 0 230 249
3.852215346 -25.356608407 -0.044178298 0 230 249
3.849010018 -25.453383502 -0.038401165 0 230 249
3.847755860 -25.550309121 -0.038036910 0 230 249
3.847722918 -25.647330288 -0.041060114 0 230 249
3.846259767 -25.744239540 -0.040113595 0 230 249
3.844071183 -25.841091021 -0.037152950 0 230 249
3.845095896 -25.938197194 -0.043107476 0 230 249
3.848748130 -26.035514939 -0.056351836 0 230 249
3.849757021 -26.132623976 -0.062260221 0 230 249
3.844769061 -26.229250653 -0.051527022 0 230 249
3.836854470 -26.325636994 -0.032671519 0 230 249
3.830099023 -26.422112463 -0.017031184 0 230 249
3.827768284 -26.518945666 -0.013667677 0 230 249
3.829236319 -26.616090226 -0.020844235 0 230 249
3.831880604 -26.713333862 -0.031283666 0 230 249
3.836024149 -26.810704736 -0.045882337 0 230 249
3.840850237 -26.908136477 -0.062373945 0 230 249
3.842682539 -27.005321928 -0.070556897 0 230 249
3.839127436 -27.102056227 -0.063788915 0 230 249
3.831939429 -27.198481481 -0.046938512 0 230 249
3.823555203 -27.294800419 -0.026767307 0 230 249
3.817848543 -27.391342091 -0.014024994 0 230 249
3.816987948 -27.488295382 -0.014729261 0 230 249
3.817614750 -27.585376804 -0.019559904 0 230 249
3.816947474 -27.682347611 -0.020798311 0 230 249
3.814966052 -27.779204571 -0.018388753 0 230 249
3.811580536 -27.875938326 -0.012081577 0 230 249
3.814369850 -27.973211180 -0.022908675 0 230 249
3.807114610 -28.069603186 -0.005860379 0 230 249
3.802720376 -28.166243222 0.003249712 0 230 249
3.802453499 -28.263246975 0.000907265 0 230 249
3.804948890 -28.360497517 -0.009099587 0 230 249
3.809057325 -28.457895149 -0.023581703 0 230 249
3.811392426 -28.555137283 -0.033141534 0 230 249
3.810456938 -28.652086695 -0.033623967 0 230 249
3.810088225 -28.749087556 -0.035678106 0 230 249
3.812800939 -28.846369488 -0.046282488 0 230 249
3.818426471 -28.943920621 -0.064969279 0 230 249
3.815162089 -29.040660561 -0.058984081 0 230 249
3.816281044 -29.137802941 -0.065162175 0 230 249
3.811470013 -29.234397903 -0.054882349 0 230 249
3.815562390 -29.331817728 -0.069309943 0 230 249
3.813181722 -29.428637167 -0.065772457 0 230 249
3.811050508 -29.525478940 -0.062926060 0 230 249
3.804706411 -29.621923320 -0.048386779 0 230 249
3.793762096 -29.717928848 -0.021079513 0 230 249
3.786708372 -29.814295939 -0.004568205 0 230 249
3.785825665 -29.911246343 -0.005181769 0 230 249
3.788463588 -30.008533627 -0.015564859 0 230 249
3.791095337 -30.105823121 -0.025929710 0 230 249
3.792092414 -30.202957786 -0.031756775 0 230 249
3.791365676 -30.299927108 -0.032798606 0 230 249
3.788715309 -30.396709684 -0.028500615 0 230 249
3.782948167 -30.493186873 -0.015551376 0 230 249
3.777105877 -30.589653050 -0.002392301 0 230 249
3.776119745 -30.686593104 -0.002709443 0 230 249
3.778958865 -30.783910845 -0.013641821 0 230 249
3.781514427 -30.881203439 -0.023786122 0 230 249
3.778681223 -30.977962602 -0.018973516 0 230 249
3.771210489 -31.074257166 -0.001288800 0 230 249
3.768363945 -31.171010418 0.003563296 0 230 249
3.768932621 -31.268106000 -0.001061998 0 230 249
3.751177735 -31.751489394 0.032998109 0 231 246
3.666036463 -41.738224302 -0.037666288 0 230 249
3.625440738 -42.217803852 0.060456145 0 231 246
-3.551610752 -42.409936943 19.959475761 255 0 168
-3.546036105 -42.505095058 19.941144470 255 0 168
-3.543376752 -42.599821285 19.930916222 255 0 168
-3.541632517 -42.694412810 19.923232279 255 0 168
-3.540149260 -42.788967123 19.916274701 255 0 168
-3.540442208 -42.883255078 19.914254572 255 0 168
-3.542750848 -42.977238366 19.917837518 255 0 168
-3.546270178 -43.071036859 19.924786338 255 0 168
-3.550014796 -43.164799124 19.932362432 255 0 168
-3.552076215 -43.258816072 19.935261719 255 0 168
-3.551733128 -43.353199969 19.931479474 255 0 168
-3.550845186 -43.447668438 19.926184038 255 0 168
-3.551150581 -43.541954910 19.924206245 255 0 168
-3.552196341 -43.636127815 19.924287205 255 0 168
-3.553692990 -43.730231021 19.925622409 255 0 168
-3.557512377 -43.823974107 19.933414235 255 0 168
-3.564193414 -43.917270724 19.949160538 255 0 168
-3.568298340 -44.010963918 19.957748305 255 0 168
-3.565522847 -44.105728245 19.947214527 255 0 168
-3.559020050 -44.201078458 19.926322496 255 0 168
-3.554119800 -44.296183158 19.909885432 255 0 168
-3.554424103 -44.390474338 19.907914469 255 0 168
-3.559968295 -44.483940428 19.920507956 255 0 168
-3.567573859 -44.577077426 19.938831879 255 0 168
-3.573763719 -44.670433489 19.953222310 255 0 168
-3.577085972 -44.764240694 19.959643843 255 0 168
-3.577072273 -44.858576860 19.956794700 255 0 168
-3.574950299 -44.953250039 19.948086965 255 0 168
-3.573219334 -45.047863099 19.940467050 255 0 168
-3.573040234 -45.142229556 19.937161432 255 0 168
-3.573143379 -45.236551573 19.934641372 255 0 168
-3.572437074 -45.331004611 19.929872617 255 0 168
-3.572193208 -45.425384312 19.926390247 255 0 168
-3.572897275 -45.519611593 19.925543670 255 0 168
-3.573445974 -45.613864290 19.924266364 255 0 168
-3.574496158 -45.708035805 19.924384003 255 0 168
-3.577810275 -45.801838374 19.930795233 255 0 168
-3.582300895 -45.895446998 19.940477651 255 0 168
-3.586277587 -45.989137067 19.948732794 255 0 168
-3.589434287 -46.082959399 19.954709953 255 0 168
-3.591087477 -46.177027367 19.956509272 255 0 168
-3.591696355 -46.271266997 19.955407054 255 0 168
-3.591844314 -46.365583088 19.953024808 255 0 168
-3.592040284 -46.459891873 19.950777106 255 0 168
-3.593641101 -46.553968033 19.952435294 255 0 168
-3.595985714 -46.647919951 19.956162002 255 0 168
-3.597357392 -46.742033103 19.957185534 255 0 168
-3.598244228 -46.836227013 19.956862541 255 0 168
-3.599495271 -46.930359975 19.957552983 255 0 168
-3.594464211 -47.025547772 19.940783053 255 0 168
-3.593994667 -47.119972368 19.936693180 255 0 168
-3.591775382 -47.214693288 19.927740851 255 0 168
-3.590617399 -47.309237212 19.921739557 255 0 168
-3.591562927 -47.403426280 19.921586235 255 0 168
-3.593183803 -47.497500664 19.923311218 255 0 168
-3.592610747 -47.591948078 19.918939048 255 0 168
-3.597581483 -47.685450731 19.929977574 255 0 168
-3.597563751 -47.779803443 19.927151205 255 0 168
-3.599833134 -47.873764910 19.930683269 255 0 168
-3.594859973 -47.968969572 19.914084786 255 0 168
-3.597821705 -48.062812650 19.919543533 255 0 168
-3.599214822 -48.156924884 19.920643208 255 0 168
-3.598222392 -48.251449367 19.915112972 255 0 168
-3.596532558 -48.346096250 19.907645259 255 0 168
-3.598424673 -48.440122971 19.910135285 255 0 168
-3.605054514 -48.533324185 19.925795851 255 0 168
-3.613091552 -48.626275534 19.945369217 255 0 168
-3.618511631 -48.719679072 19.957669432 255 0 168
-3.619453697 -48.813863965 19.957523201 255 0 168
-3.617600780 -48.908539783 19.949608786 255 0 168
-3.615221107 -49.003310502 19.940231192 255 0 168
-3.612424506 -49.098157357 19.929695700 255 0 168
-3.609060980 -49.193107346 19.917585349 255 0 168
-3.606940834 -49.287840390 19.908932333 255 0 168
-3.609973689 -49.381660883 19.914604506 255 0 168
-3.617475812 -49.474684545 19.932701379 255 0 168
-3.624466693 -49.567794363 19.949378337 255 0 168
-3.628434735 -49.661439770 19.957653641 255 0 168
-3.628376111 -49.755804032 19.954736763 255 0 168
-3.625418786 -49.850689349 19.943763137 255 0 168
-3.622915944 -49.945495955 19.934053939 255 0 168
-3.623520720 -50.039745107 19.932984425 255 0 168
-3.627010201 -50.133473486 19.939935013 255 0 168
-3.630697130 -50.227164198 19.947435628 255 0 168
-3.632204771 -50.321248157 19.948879297 255 0 168
-3.632262476 -50.415595290 19.946293467 255 0 168
-3.632734429 -50.509867674 19.944860282 255 0 168
-3.634745828 -50.603859422 19.947707664 255 0 168
-3.636071465 -50.697975833 19.948649832 255 0 168
-3.633175175 -50.792865958 19.937856615 255 0 168
-3.626389805 -50.888473519 19.916253208 255 0 168
-3.618554848 -50.984280275 19.891733056 255 0 168
-3.621268618 -51.078147829 19.896538383 255 0 168
-3.642931606 -51.168511091 19.954022188 255 0 168
3.566761427 -52.889446407 -0.090202671 0 230 252
3.559809382 -52.985283305 -0.073680809 0 230 249
3.542287858 -53.079138513 -0.027802131 0 230 249
3.527647871 -53.173521148 0.010074885 0 231 246
3.524125210 -53.269981443 0.017075954 0 231 246
3.526165655 -53.367486845 0.008627164 0 231 246
3.530496300 -53.465426509 -0.006181357 0 230 249
3.535245537 -53.563449376 -0.022151385 0 230 249
3.535170561 -53.660563127 -0.024721378 0 230 249
3.529226402 -53.756563919 -0.010988879 0 230 249
3.523862819 -53.852671299 0.001132351 0 230 249
3.518341249 -53.948745227 0.013693632 0 231 246
3.517550513 -54.045718807 0.013116399 0 231 246
3.512780026 -54.141931277 0.023594012 0 231 246
3.511942804 -54.238894741 0.023148261 0 231 246
3.512407002 -54.336108276 0.019088990 0 231 246
3.515587118 -54.433845586 0.007487399 0 231 246
3.520486371 -54.531917598 -0.008887992 0 230 249
3.518701477 -54.628702717 -0.006696976 0 230 249
3.513220795 -54.724771758 0.005760366 0 231 246
3.510587810 -54.821389742 0.010309381 0 231 246
3.511148245 -54.918627146 0.005989740 0 231 246
3.510827235 -55.015694093 0.004119503 0 230 249
3.508195811 -55.112310732 0.008667735 0 231 246
3.506237061 -55.209057634 0.011348766 0 231 246
3.507190221 -55.306374237 0.005942947 0 231 246
3.509791161 -55.404015770 -0.004038565 0 230 249
3.511959071 -55.501574909 -0.012816180 0 230 249
3.512666070 -55.598848609 -0.017534852 0 230 249
3.512223873 -55.695896728 -0.019060373 0 230 249
3.509865035 -55.792566128 -0.015261057 0 230 249
3.504231519 -55.888585429 -0.002364752 0 230 249
3.497328628 -55.984349085 0.014058647 0 231 246
3.492547403 -56.080530356 0.024590109 0 231 246
3.490428274 -56.177239426 0.027728456 0 231 246
3.488925772 -56.274070801 0.029155218 0 231 246
3.488434581 -56.371104178 0.027774083 0 231 246
3.490913707 -56.468733522 0.018143573 0 231 246
3.495131202 -56.566714768 0.003685572 0 230 249
3.497828890 -56.664394118 -0.006549795 0 230 249
3.497409466 -56.761447703 -0.008125696 0 230 249
3.494811260 -56.858061517 -0.003648451 0 230 249
3.490804554 -56.954388977 0.004742377 0 230 249
3.486231574 -57.050599274 0.014707370 0 231 246
3.485390785 -57.147565204 0.014306629 0 231 246
3.489916420 -57.245623775 -0.000999375 0 230 249
3.493549129 -57.343504462 -0.013823972 0 230 249
3.492466599 -57.440425135 -0.013549786 0 230 249
3.487080618 -57.536464664 -0.001320549 0 230 249
3.479936161 -57.632140118 0.015794541 0 231 246
3.472832657 -57.727819262 0.032797148 0 231 246
3.466502544 -57.823652944 0.047652731 0 231 246
3.465448828 -57.920570916 0.047852905 0 231 246
3.469141988 -58.018469830 0.034868455 0 231 246
3.473508609 -58.116511785 0.020014379 0 231 246
3.477697444 -58.214520984 0.005655263 0 231 246
3.482995193 -58.312764614 -0.011783091 0 230 249
3.488679891 -58.411093642 -0.030295217 0 230 249
3.490298804 -58.508579761 -0.037512274 0 230 249
3.485753084 -58.604779697 -0.027603962 0 230 249
3.478413523 -58.700392013 -0.009933607 0 230 249
3.472374661 -58.796272252 0.004124894 0 230 249
3.469716343 -58.892858929 0.008794016 0 231 246
3.468470623 -58.989741683 0.009540344 0 231 246
3.467062823 -59.086590063 0.010738084 0 231 246
3.464753941 -59.183247753 0.014440090 0 231 246
3.461116028 -59.279623134 0.021835173 0 231 246
3.456869341 -59.375867399 0.030922572 0 231 246
3.456550098 -59.472943450 0.029101173 0 231 246
3.460585853 -59.570946803 0.015183196 0 231 246
3.461974777 -59.668389736 0.008618968 0 231 246
3.461870688 -59.765515626 0.006203336 0 231 246
3.461909556 -59.862672786 0.003391743 0 230 249
3.461162865 -59.959662359 0.002763528 0 230 249
3.457824071 -60.056095516 0.009337174 0 231 246
3.454070488 -60.152437642 0.017064284 0 231 246
3.454121634 -60.249597564 0.014223267 0 231 246
3.457481214 -60.347472529 0.002192729 0 230 249
3.459759761 -60.445117045 -0.006833624 0 230 249
3.458695575 -60.542039862 -0.006572851 0 230 249
3.455162808 -60.638426851 0.000546749 0 230 249
3.452747254 -60.735054792 0.004563964 0 230 249
3.452365174 -60.832124542 0.002933402 0 230 249
3.451366349 -60.929060193 0.003017315 0 230 249
3.449386429 -61.025781396 0.005827890 0 231 246
3.446935835 -61.122398780 0.009947189 0 231 246
3.443720049 -61.218847202 0.016193396 0 231 246
3.441136914 -61.315432925 0.020683291 0 231 246
3.437567839 -61.411800406 0.027913355 0 231 246
3.430652164 -61.507427988 0.044441629 0 231 246
3.432418420 -61.604968695 0.036852319 0 231 246
3.427037188 -61.700930024 0.049120278 0 231 246
3.425056222 -61.797641648 0.051943311 0 231 246
3.427180710 -61.895264065 0.043362282 0 231 246
3.426648748 -61.992298031 0.042162210 0 231 246
3.436874720 -62.091729258 0.011076866 0 231 246
3.443008882 -62.190255862 -0.008640019 0 230 249
3.440862052 -62.286936542 -0.005350457 0 230 249
3.435223206 -62.382834270 0.007641464 0 231 246
3.430817889 -62.479005155 0.017207753 0 231 246
3.428379351 -62.575615399 0.021311321 0 231 246
3.426301733 -62.672305775 0.024413403 0 231 246
3.423560875 -62.768845756 0.029359238 0 231 246
3.428247334 -62.867062068 0.013672157 0 231 246
3.422130134 -62.962838266 0.028000302 0 231 246
3.416948860 -63.058822646 0.039729551 0 231 246
3.413873148 -63.155281834 0.045610441 0 231 246
3.413546448 -63.252364589 0.043855316 0 231 246
3.414583531 -63.349758523 0.038312526 0 231 246
3.415566772 -63.447141729 0.032920466 0 231 246
3.419075783 -63.545103765 0.020512490 0 231 246
3.426518575 -63.643969916 -0.002823157 0 230 249
3.426372346 -63.741102089 -0.005073944 0 230 249
3.431899785 -63.839538282 -0.023086167 0 230 249
3.431641332 -63.936648104 -0.025022886 0 230 249
3.423740184 -64.031996903 -0.005725393 0 230 249
3.418735886 -64.128009200 0.005525280 0 231 246
3.409426254 -64.223022749 0.028738412 0 231 246
3.407170191 -64.319663828 0.032356324 0 231 246
3.410778706 -64.417664691 0.019682176 0 231 246
3.414858446 -64.515778606 0.005699960 0 231 246
3.416489517 -64.613326367 -0.001478108 0 230 249
3.415687446 -64.710308770 -0.001895126 0 230 249
3.410539893 -64.806276347 0.009761956 0 231 246
3.404292519 -64.901983416 0.024475880 0 231 246
3.401947546 -64.998600917 0.028349062 0 231 246
3.404359448 -65.096333913 0.019007435 0 231 246
3.407308013 -65.194195694 0.008175928 0 231 246
3.405715612 -65.290991142 0.009961736 0 231 246
3.399628970 -65.386726043 0.024235133 0 231 246
3.393350945 -65.482411803 0.039041506 0 231 246
3.389133779 -65.578581182 0.048123381 0 231 246
3.387402316 -65.675337256 0.050300353 0 231 246
3.388430116 -65.772747842 0.044812324 0 231 246
3.390978503 -65.870521565 0.035100719 0 231 246
3.392152030 -65.967970536 0.029210095 0 231 246
3.391381849 -66.064957460 0.028720937 0 231 246
3.390318276 -66.161874441 0.029048100 0 231 246
3.390039118 -66.258979098 0.027197036 0 231 246
3.390763321 -66.356324821 0.022559421 0 231 246
3.393007710 -66.454036859 0.013699288 0 231 246
3.396671633 -66.552092760 0.000896271 0 230 249
3.398681128 -66.649753724 -0.007308969 0 230 249
3.397018095 -66.746530961 -0.005309316 0 230 249
3.392779403 -66.842685285 0.003847756 0 230 249
3.390111647 -66.939217312 0.008641326 0 231 246
3.393212448 -67.037146406 -0.002591398 0 230 249
3.397863004 -67.135454912 -0.018128880 0 230 249
3.396885516 -67.232399117 -0.018028111 0 230 249
3.390732133 -67.328082658 -0.003545255 0 230 249
3.383175394 -67.423419871 0.014838008 0 231 246
3.377542623 -67.519222117 0.027876876 0 231 246
3.374411899 -67.615633080 0.033965131 0 231 246
3.372296088 -67.712291148 0.037234679 0 231 246
3.370498777 -67.809026528 0.039620469 0 231 246
3.368671154 -67.905753825 0.042091663 0 231 246
3.366612991 -68.002423698 0.045204593 0 231 246
3.365120814 -68.099232334 0.046746119 0 231 246
3.366011066 -68.196629097 0.041669230 0 231 246
3.369783681 -68.294740423 0.028584814 0 231 246
3.374046922 -68.392976976 0.014138308 0 231 246
3.375984292 -68.490640325 0.006155392 0 231 246
3.375360295 -68.587669252 0.005290442 0 231 246
3.374314031 -68.684593327 0.005599940 0 231 246
3.373131522 -68.781483379 0.006289172 0 231 246
3.368587304 -68.877533794 0.016320244 0 231 246
3.359730882 -68.972502973 0.038334232 0 231 246
3.350232018 -69.067305167 0.062134580 0 231 246
3.343653234 -69.162833369 0.077822578 0 231 246
3.342530623 -69.259728157 0.078351413 0 231 246
3.347918259 -69.358261074 0.060792145 0 231 246
3.352818570 -69.456676065 0.044588062 0 231 246
3.356094185 -69.554685486 0.032899456 0 231 246
3.359478473 -69.652725646 0.020910018 0 231 246
3.362670133 -69.750720388 0.009456939 0 231 246
3.364564959 -69.848389505 0.001608382 0 230 249
3.364037750 -69.945445759 0.000490859 0 230 249
3.359929426 -70.041591564 0.009325060 0 231 246
3.351695682 -70.136684144 0.029623489 0 231 246
3.341956702 -70.231387151 0.054105706 0 231 246
3.337947409 -70.327547270 0.062668452 0 231 246
3.341215846 -70.425567209 0.051010130 0 231 246
3.343070371 -70.523228087 0.043281709 0 231 246
3.339723035 -70.619556135 0.050008645 0 231 246
3.331894281 -70.714730524 0.069189165 0 231 246
3.323155020 -70.809665264 0.090900971 0 231 243
3.327075166 -70.907857542 0.077437530 0 231 246
3.328695952 -71.005459938 0.070364419 0 231 246
3.341242477 -71.105889311 0.032933173 0 231 246
3.371206519 -71.210839277 -0.052894869 0 230 249
3.377928693 -71.309785696 -0.074139931 0 230 252
3.200827943 -81.175777784 0.162414965 0 231 243
3.209350013 -82.344969258 0.109457980 0 231 243
3.203492112 -82.634864479 0.118447449 0 231 243
3.180693044 -84.280702436 0.140694473 0 231 243
3.151309857 -90.300378448 0.075254836 0 231 246
3.090213295 -91.252333471 0.221781369 0 232 240
3.105506113 -91.354761583 0.176946469 0 232 240
3.124679465 -91.458518998 0.121325676 0 231 243
3.134776720 -91.559208406 0.090935562 0 231 243
3.138994990 -91.657906729 0.076888862 0 231 246
3.130631539 -91.752324893 0.097817786 0 231 243
3.137517208 -91.851935529 0.076358582 0 231 246
3.132639325 -91.947537591 0.087600745 0 231 243
3.128439097 -92.043368112 0.096960376 0 231 243
3.129306344 -92.140929374 0.092234617 0 231 243
3.133368021 -92.239585846 0.078630122 0 231 246
3.137428008 -92.338245552 0.065031465 0 231 246
3.139573303 -92.436251956 0.056756434 0 231 246
3.133671703 -92.531495950 0.070851433 0 231 246
3.140841621 -92.631232226 0.048611184 0 231 246
3.137650602 -92.727406926 0.055173616 0 231 246
3.131627664 -92.822603596 0.069609492 0 231 246
3.124086781 -92.917272445 0.088266226 0 231 243
3.119065855 -93.012806830 0.099919122 0 231 243
3.118368701 -93.109833580 0.099553810 0 231 243
3.118795608 -93.207249712 0.096064954 0 231 243
3.117674028 -93.304130060 0.096881823 0 231 243
3.114960701 -93.400457824 0.102124695 0 231 243
3.112266252 -93.496790742 0.107316276 0 231 243
3.110798381 -93.593548890 0.109099324 0 231 243
3.110113753 -93.690579314 0.108706237 0 231 243
3.109683386 -93.787698525 0.107607504 0 231 243
3.111574744 -93.885628293 0.100055832 0 231 243
3.116985161 -93.984789590 0.082722756 0 231 246
3.122942147 -94.084146885 0.063871421 0 231 246
3.127249148 -94.182931750 0.049607988 0 231 246
3.121790973 -94.278297856 0.062491762 0 231 246
3.108697062 -94.370981128 0.096603292 0 231 243
3.099645759 -94.465075071 0.119478086 0 231 243
3.097394552 -94.561554057 0.123450498 0 231 243
3.097749887 -94.658949613 0.120178141 0 231 243
3.097355325 -94.756081834 0.118991595 0 231 243
3.097546091 -94.853420942 0.116179056 0 231 243
3.099255416 -94.951297232 0.109146207 0 231 243
3.099657339 -95.048713236 0.105748992 0 231 243
3.097352164 -95.145171996 0.109878474 0 231 243
3.093928609 -95.241233354 0.117118164 0 231 243
3.090753291 -95.337380814 0.123668964 0 231 243
3.088554985 -95.433873467 0.127504920 0 231 243
3.086945480 -95.530574428 0.129705223 0 231 243
3.085465211 -95.627320820 0.131547434 0 231 243
3.084117323 -95.724113913 0.133022811 0 231 243
3.082992305 -95.820986132 0.133879795 0 231 243
3.082519454 -95.918091015 0.132924952 0 231 243
3.083118073 -96.015579188 0.128992634 0 231 243
3.084823822 -96.113464646 0.121983691 0 231 243
3.086761473 -96.211435158 0.114331224 0 231 243
3.086926837 -96.308772313 0.111606820 0 231 243
3.085171949 -96.405420950 0.114221838 0 231 243
3.084557372 -96.502478687 0.113667992 0 231 243
3.086752286 -96.600547315 0.105304979 0 231 243
3.090920323 -96.699328878 0.091457867 0 231 243
3.094662603 -96.797960829 0.078795497 0 231 246
3.096209449 -96.895804006 0.072237559 0 231 246
3.095564468 -96.992857177 0.071774041 0 231 246
3.092066383 -97.088878650 0.079243316 0 231 246
3.085973068 -97.183958494 0.093928529 0 231 243
3.079452554 -97.278879483 0.109802583 0 231 243
3.075984016 -97.374903442 0.117193326 0 231 243
3.076526676 -97.472382290 0.113434061 0 231 243
3.079239240 -97.570651180 0.103643585 0 231 243
3.082428487 -97.669096326 0.092529070 0 231 243
3.086262531 -97.767779530 0.079623156 0 231 246
3.091015311 -97.866801455 0.064164283 0 231 246
3.093514455 -97.965004834 0.054971718 0 231 246
3.090720617 -98.061276142 0.060494958 0 231 246
3.083325372 -98.155862314 0.078811460 0 231 246
3.074312023 -98.249850770 0.101627599 0 231 243
3.067102894 -98.344494504 0.119429168 0 231 243
3.064471180 -98.440813512 0.124506511 0 231 243
3.066849749 -98.538972131 0.115656167 0 231 243
3.070427987 -98.637574511 0.103471826 0 231 243
3.071668973 -98.735319711 0.097786339 0 231 243
3.072416539 -98.832884657 0.093473747 0 231 243
3.075185769 -98.931196789 0.083541961 0 231 246
3.076906599 -99.029124473 0.076525950 0 231 246
3.074601328 -99.125565502 0.080703944 0 231 246
3.069478689 -99.220962617 0.092715618 0 231 243
3.064039517 -99.316239167 0.105608491 0 231 243
3.060370206 -99.412168636 0.113582206 0 231 243
3.057870041 -99.508530030 0.118306784 0 231 243
3.055490244 -99.604934894 0.122697916 0 231 243
3.056084817 -99.702445222 0.118821188 0 231 243
3.061917063 -99.801907393 0.100384379 0 231 243
3.068062867 -99.901491612 0.081076990 0 231 246
3.070643357 -99.999750602 0.071682677 0 231 246
3.070740523 -100.097084475 0.069193415 0 231 246
3.070756811 -100.194388832 0.066930169 0 231 246
3.072074081 -100.292180901 0.061051216 0 231 246
3.074193232 -100.390275143 0.052944108 0 231 246
3.075317765 -100.487998555 0.047603307 0 231 246
3.074594346 -100.585029545 0.047401190 0 231 246
3.072056265 -100.681378492 0.052245223 0 231 246
3.069337735 -100.777658237 0.057592114 0 231 246
3.069786714 -100.875129663 0.054134110 0 231 246
3.071799436 -100.973191711 0.046329862 0 231 246
3.069959979 -101.069801979 0.049236342 0 231 246
3.063081132 -101.164507454 0.066154199 0 231 246
3.054105239 -101.258415153 0.088903378 0 231 243
3.047637550 -101.353266196 0.104680618 0 231 243
3.046468616 -101.450121054 0.105727720 0 231 243
3.049988766 -101.548754556 0.093739608 0 231 243
3.056593415 -101.648562766 0.073177259 0 231 246
3.062299174 -101.748035005 0.055115108 0 231 246
3.063142997 -101.845662204 0.050571062 0 231 246
3.060328819 -101.941897341 0.056198014 0 231 246
3.055731762 -102.037451161 0.066782856 0 231 246
3.051296885 -102.133063990 0.076918011 0 231 246
3.048535586 -102.229313463 0.082401527 0 231 246
3.046848984 -102.325972472 0.084898375 0 231 243
3.043860706 -102.422132506 0.091015301 0 231 243
3.044907018 -102.519837010 0.085916502 0 231 243
3.042585433 -102.616251032 0.090182256 0 231 243
3.045624357 -102.714722276 0.079545948 0 231 246
3.039626402 -102.809722983 0.094035075 0 231 243
3.038122657 -102.906448894 0.096030613 0 231 243
3.043038037 -103.005646563 0.080180866 0 231 246
3.042792296 -103.102858910 0.078681230 0 231 246
3.038882936 -103.198657878 0.087368385 0 231 243
3.044701325 -103.298212270 0.069011546 0 231 246
3.042461339 -103.394655763 0.073059835 0 231 246
3.036865545 -103.489799254 0.086439179 0 231 243
3.025644584 -103.582759601 0.115458946 0 231 243
3.018702502 -103.677371452 0.132583725 0 231 243
3.015536956 -103.773444728 0.139210075 0 231 243
3.013819792 -103.870079057 0.141810769 0 231 243
3.014819208 -103.967769428 0.136859902 0 231 243
3.020319230 -104.067213632 0.119397436 0 231 243
3.025892309 -104.166691180 0.101733006 0 231 243
3.031004558 -104.265993863 0.085350942 0 231 243
3.035114472 -104.364909675 0.071756765 0 231 246
3.036675467 -104.462832878 0.065250354 0 231 246
3.036517307 -104.560085215 0.063524775 0 231 246
3.036474200 -104.657383130 0.061480492 0 231 246
3.034985851 -104.754115013 0.063455513 0 231 246
3.027704318 -104.848572828 0.081538243 0 231 246
3.018982023 -104.942459683 0.103627899 0 231 243
3.014381842 -105.037961370 0.114258213 0 231 243
3.013788171 -105.135037146 0.113750547 0 231 243
3.016589927 -105.233450874 0.103803843 0 231 243
3.021554281 -105.332720272 0.087845685 0 231 243
3.025892862 -105.431747089 0.073628501 0 231 246
3.028762807 -105.530197548 0.063495682 0 231 246
3.031208458 -105.628483024 0.054543672 0 231 246
3.033055108 -105.726533858 0.047258212 0 231 246
3.033421337 -105.824000049 0.044089897 0 231 246
3.030985899 -105.920355767 0.048712175 0 231 246
3.025084303 -106.015333925 0.062972552 0 231 246
3.018904041 -106.110197410 0.078008913 0 231 246
3.016273658 -106.206469055 0.083176770 0 231 246
3.016153549 -106.303738960 0.081366501 0 231 246
3.016770132 -106.401303054 0.077509174 0 231 246
3.019711256 -106.499795732 0.067190088 0 231 246
3.024101717 -106.598870135 0.052842564 0 231 246
3.024764868 -106.696458493 0.048859250 0 231 246
3.020480852 -106.792068373 0.058631753 0 231 246
3.013971597 -106.886784292 0.074592312 0 231 246
3.008701448 -106.981992607 0.087108978 0 231 243
3.006094655 -107.078266307 0.092221863 0 231 243
3.006557699 -107.175771748 0.088800789 0 231 243
3.009128461 -107.274125629 0.079520740 0 231 246
3.011695308 -107.372480535 0.070252735 0 231 246
3.013412798 -107.470495878 0.063347383 0 231 246
3.014736208 -107.568354258 0.057538866 0 231 246
3.014996752 -107.665785290 0.054686630 0 231 246
3.013936239 -107.762683435 0.055508546 0 231 246
3.014459355 -107.860221777 0.051928615 0 231 246
3.016918509 -107.958544789 0.042967006 0 231 246
3.017263057 -108.056013571 0.039885886 0 231 246
3.013886549 -108.151974205 0.047151744 0 231 246
3.009294616 -108.247439486 0.057798097 0 231 246
3.005436686 -108.343200081 0.066404862 0 231 246
3.003198891 -108.439617220 0.070508267 0 231 246
3.001778138 -108.536365853 0.072341185 0 231 246
3.000954800 -108.633357431 0.072514253 0 231 246
3.001980104 -108.731102955 0.067548601 0 231 246
3.005673685 -108.829939161 0.055165334 0 231 246
3.010091976 -108.929074951 0.040768269 0 231 246
3.010718225 -109.026663801 0.036915620 0 231 246
3.004477207 -109.121442375 0.052157670 0 231 246
2.995078662 -109.214922888 0.076180039 0 231 246
2.991390190 -109.310738804 0.084327482 0 231 243
2.994177477 -109.409211065 0.074471034 0 231 246
2.998185678 -109.508187788 0.061221145 0 231 246
2.998104830 -109.605486332 0.059341531 0 231 246
2.991346777 -109.700036439 0.076028296 0 231 246
2.984017546 -109.794346580 0.094304373 0 231 243
2.980690500 -109.890302454 0.101454015 0 231 243
2.981646413 -109.988024603 0.096696510 0 231 243
2.982865142 -110.085856700 0.091209440 0 231 243
2.980129486 -110.182054722 0.096718314 0 231 243
2.975559888 -110.277491982 0.107327472 0 231 243
2.972193739 -110.373425027 0.114591748 0 231 243
2.972218783 -110.470762674 0.112428296 0 231 243
2.975537965 -110.569468542 0.101106953 0 231 243
2.980812915 -110.668990279 0.084348930 0 231 243
2.987687074 -110.769181837 0.063145608 0 231 246
2.994219480 -110.869237011 0.042893658 0 231 246
2.997629742 -110.967996817 0.031323714 0 231 246
2.995929882 -111.064628498 0.033963182 0 231 246
2.992725733 -111.160631477 0.040786378 0 231 246
2.994415535 -111.258677548 0.034003526 0 231 246
2.906907001 -131.279257907 -0.127069237 0 230 252
2.906949617 -131.376696962 -0.129029250 0 230 252
2.897150858 -131.469236527 -0.103622547 0 230 252
2.883833719 -131.560015863 -0.068431180 0 230 249
2.874479439 -131.652761551 -0.044257986 0 230 249
2.867058076 -131.746465125 -0.025458397 0 230 249
2.863642700 -131.842164185 -0.017796971 0 230 249
2.867920864 -131.941706476 -0.031527615 0 230 249
2.874851154 -132.042579127 -0.052631770 0 230 249
2.879707766 -132.142419500 -0.067968514 0 230 249
2.881547570 -132.240752718 -0.074915326 0 230 252
2.880952465 -132.337867041 -0.075090285 0 230 252
2.877276598 -132.433435603 -0.066697480 0 230 249
2.871298516 -132.527845778 -0.051901785 0 230 249
2.866643152 -132.622916490 -0.040782949 0 230 249
2.866659744 -132.720333597 -0.042654130 0 230 249
2.868225338 -132.818530757 -0.048831406 0 230 249
2.869707426 -132.916687512 -0.054775301 0 230 249
2.871134768 -133.014818262 -0.060565789 0 230 249
2.871554652 -133.112442359 -0.063553687 0 230 249
2.870435483 -133.209290276 -0.062260803 0 230 249
2.869524129 -133.306242770 -0.061544612 0 230 249
2.868447782 -133.403111589 -0.060368450 0 230 249
2.864853910 -133.498706214 -0.052190693 0 230 249
2.859245141 -133.593278250 -0.038408978 0 230 249
2.853609237 -133.687832661 -0.024550619 0 230 249
2.858262765 -133.787601281 -0.039302688 0 230 249
2.858018051 -133.884887984 -0.040433147 0 230 249
2.862464717 -133.984557698 -0.054607635 0 230 249
2.858096740 -134.079750914 -0.044270280 0 230 249
2.857919054 -134.177072687 -0.045583591 0 230 249
2.855182293 -134.273092050 -0.039779761 0 230 249
2.860801901 -134.373366817 -0.057211119 0 230 249
2.859128056 -134.469927961 -0.054360566 0 230 249
2.858857019 -134.567203979 -0.055409591 0 230 249
2.860010815 -134.665207736 -0.060419436 0 230 249
2.856594427 -134.760877546 -0.052719905 0 230 249
2.863423575 -134.861784358 -0.073508702 0 230 249
2.869964635 -134.962549426 -0.093495224 0 230 252
2.870088868 -135.060033692 -0.095637476 0 230 252
2.863599455 -135.154128876 -0.079388182 0 230 252
2.857340727 -135.248337814 -0.063779157 0 230 249
2.856684336 -135.345417974 -0.063747223 0 230 249
2.860738335 -135.444917653 -0.076812168 0 230 252
2.864932664 -135.544493015 -0.090266135 0 230 252
2.866484710 -135.642712733 -0.096371605 0 230 252
2.865354354 -135.739553101 -0.095017022 0 230 252
2.860572536 -135.834511754 -0.083507752 0 230 252
2.859463677 -135.931360913 -0.082210594 0 230 252
2.854543175 -136.026242909 -0.070313329 0 230 249
2.851688826 -136.122188431 -0.064160179 0 230 249
2.849400947 -136.218424902 -0.059581018 0 230 249
2.847267637 -136.314739966 -0.055430487 0 230 249
2.845829736 -136.411413697 -0.053212483 0 230 249
2.845613690 -136.508719545 -0.054390884 0 230 249
2.845312206 -136.605981363 -0.055330532 0 230 249
2.844371067 -136.702911596 -0.054490334 0 230 249
2.844333495 -136.800310525 -0.056161481 0 230 249
2.845243088 -136.898201839 -0.060465206 0 230 249
2.847921504 -136.997013751 -0.069686268 0 230 249
2.852209437 -137.096665427 -0.083381681 0 230 252
2.853662771 -137.194845132 -0.089193829 0 230 252
2.852073298 -137.291441124 -0.086543765 0 230 252
2.849374386 -137.387457880 -0.080807543 0 230 252
2.845805968 -137.483019305 -0.072652334 0 230 249
2.840660429 -137.577754923 -0.060110493 0 230 249
2.835144284 -137.672293340 -0.046536938 0 230 249
2.832695968 -137.768432105 -0.041492826 0 230 249
2.832690704 -137.865847820 -0.043240867 0 230 249
2.832768746 -137.963307561 -0.045219376 0 230 249
2.832092021 -138.060372226 -0.045097949 0 230 249
2.831086196 -138.157264180 -0.044060224 0 230 249
2.830731336 -138.254497409 -0.044831444 0 230 249
2.831446703 -138.352292865 -0.048577431 0 230 249
2.831771633 -138.449884062 -0.051236566 0 230 249
2.830618981 -138.546698726 -0.049785858 0 230 249
2.828725505 -138.643122958 -0.046273985 0 230 249
2.827833278 -138.740073543 -0.045545079 0 230 249
2.829574607 -138.838412085 -0.052138040 0 230 249
2.833550907 -138.937931359 -0.064944524 0 230 249
2.837465285 -139.037421398 -0.077577633 0 230 252
2.838901034 -139.135605408 -0.083317329 0 230 252
2.839121664 -139.233148515 -0.085677011 0 230 252
2.840652278 -139.331385245 -0.091678132 0 230 252
2.841778950 -139.429409680 -0.096554848 0 230 252
2.840679944 -139.526256147 -0.095241536 0 230 252
2.836841630 -139.621649741 -0.086309968 0 230 252
2.831629014 -139.716311570 -0.073555758 0 230 249
2.827767343 -139.811687106 -0.064556886 0 230 249
2.825896742 -139.908118050 -0.061093325 0 230 249
2.826168350 -140.005687069 -0.063585344 0 230 249
2.827487626 -140.103814186 -0.068989390 0 230 249
2.827726558 -140.201367397 -0.071388190 0 230 249
2.827560323 -140.298705261 -0.072659181 0 230 249
2.827353815 -140.396021904 -0.073817008 0 230 249
2.826713378 -140.493107193 -0.073767048 0 230 249
2.825640025 -140.589961169 -0.072512123 0 230 249
2.823411063 -140.686197091 -0.068042671 0 230 249
2.821240268 -140.782462788 -0.063733784 0 230 249
2.818882513 -140.878627130 -0.058903851 0 230 249
2.815939125 -140.974476372 -0.052444295 0 230 249
2.811864421 -141.069717361 -0.042837765 0 230 249
2.805943755 -141.163965473 -0.028097068 0 230 249
2.799442459 -141.257897748 -0.011740652 0 230 249
2.795431624 -141.353163119 -0.002308182 0 230 249
2.793796244 -141.449702643 0.000520131 0 230 249
2.793744285 -141.547093017 -0.001053332 0 230 249
2.795424694 -141.645416244 -0.007442740 0 230 249
2.796813717 -141.743584172 -0.013020722 0 230 249
2.795050723 -141.840054406 -0.009832849 0 230 249
2.793752582 -141.936774416 -0.007936398 0 230 249
2.800615208 -142.037899233 -0.028731031 0 230 249
2.812373636 -142.141674480 -0.063137951 0 230 249
2.820306768 -142.243391178 -0.086906839 0 230 252
2.817319135 -142.339206387 -0.080307795 0 230 252
2.807136794 -142.431124671 -0.053701654 0 230 249
2.800077604 -142.524727461 -0.035778697 0 230 249
2.797365971 -142.620682161 -0.029943579 0 230 249
2.793448544 -142.715980964 -0.020754398 0 230 249
2.789482531 -142.811250737 -0.011428939 0 230 249
2.791230759 -142.909622325 -0.017991592 0 230 249
2.798386407 -143.010935508 -0.039589170 0 230 249
2.804582666 -143.111732583 -0.058517819 0 230 249
2.805994105 -143.209929705 -0.064140417 0 230 249
2.802120650 -143.305248897 -0.055066461 0 230 249
2.796673864 -143.399707660 -0.041616466 0 230 249
2.795505782 -143.496497048 -0.040062822 0 230 249
2.796413334 -143.594419155 -0.044279587 0 230 249
2.793161722 -143.690069874 -0.036930050 0 230 249
2.785547152 -143.783332976 -0.017447530 0 230 249
2.779059105 -143.877206933 -0.001096278 0 230 249
2.779266578 -143.974742205 -0.003361682 0 230 249
2.785868193 -144.075781389 -0.023405689 0 230 249
2.791494926 -144.176291475 -0.040737696 0 230 249
